<?xml version="1.0" encoding="UTF-8" standalone="no"?>
<!DOCTYPE svg PUBLIC "-//W3C//DTD SVG 1.1//EN" "http://www.w3.org/Graphics/SVG/1.1/DTD/svg11.dtd">
<svg xmlns="http://www.w3.org/2000/svg" xmlns:xlink="http://www.w3.org/1999/xlink" version="1.1" width="595.5pt" height="842.25pt" viewBox="0 0 595.5 842.25">
<g enable-background="new">
<g>
<g id="Layer-1" data-name="Artifact">
<text xml:space="preserve" transform="matrix(1 0 -0 1 0 842.25)" font-size="9.75" font-family="Times New Roman"><tspan y="-797.95" x="71.35"> </tspan></text>
</g>
<g id="Layer-1" data-name="P">
<path transform="matrix(1,0,0,-1,0,842.25)" d="M 69.85 779.2 L 562.45 779.2 L 562.45 794.95 L 69.85 794.95 Z " fill="#ffffff" fill-rule="evenodd"/>
</g>
<g id="Layer-1" data-name="P">
<text xml:space="preserve" transform="matrix(1 0 -0 1 0 842.25)" font-size="14.275" font-family="Times New Roman"><tspan y="-782.95" x="106.62 116.36983 123.84992 131.33003 140.3661 146.33306 152.32855 159.82294 166.56073 173.3128 180.06488 187.55927 195.05365 204.08972 210.05667 216.05217 223.54656 231.04094 237.77875 243.77425 251.26863 258.763 265.51509 272.26716 278.26268 288.78337 296.26344 302.25895 308.99674 315.7488 323.24317 333.76387 340.51594 347.99604 354.7481 361.4859 368.23799 375.71809 385.4679 391.4634 398.21549 405.70985 411.69108 419.18544 425.92323 431.9187 438.67079 446.16514 453.6595 460.39729 469.43336 475.4003 482.89466 490.37474 497.85484 505.34919 512.10128 517.35446 524.83456 532.3289 539.8233 547.3177 554.8121 560.06527">&#x041d;&#x043e;&#x0440;&#x043c;&#x0430;&#x0442;&#x0438;&#x0432; &#x049b;&#x0438;&#x0439;&#x043c;&#x0430;&#x0442;&#x043d;&#x0438; &#x0430;&#x043d;&#x0438;&#x049b;&#x043b;&#x0430;&#x0448;&#x0434;&#x0430; &#x049b;&#x0438;&#x0448;&#x043b;&#x043e;&#x049b; &#x0445;&#x045e;&#x0436;&#x0430;&#x043b;&#x0438;&#x0433;&#x0438; &#x044d;&#x043a;&#x0438;&#x043d; &#x043c;&#x0430;&#x0439;&#x0434;&#x043e;&#x043d;&#x043b;&#x0430;&#x0440;&#x0438;&#x043d;&#x0438;&#x043d;&#x0433; </tspan></text>
<path transform="matrix(1,0,0,-1,0,842.25)" d="M 69.85 763.42 L 562.45 763.42 L 562.45 779.195 L 69.85 779.195 Z " fill="#ffffff" fill-rule="evenodd"/>
</g>
<g id="Layer-1" data-name="P">
<text xml:space="preserve" transform="matrix(1 0 -0 1 0 842.25)" font-size="14.275" font-family="Times New Roman"><tspan y="-767.17" x="71.35 78.84437 86.33874 93.81884 101.31321 108.05101 115.55966 123.039768 129.79184 135.78734 142.53942 153.04582 160.52593 166.52143 174.01581 180.0113 186.0068 196.51322 203.26529 210.74539 217.4832 224.97759 231.72966 242.23607 248.98815 256.4825 263.2346 269.98667 276.72447 284.21885 291.7132 302.2196 309.6997 318.73579 326.2016 332.95368 339.70576 345.70127 353.18138 360.67573">&#x0438;&#x043d;&#x0434;&#x0438;&#x0432;&#x0438;&#x0434;&#x0443;&#x0430;&#x043b; &#x0440;&#x0435;&#x043d;&#x0442;&#x0430; &#x04b3;&#x043e;&#x0441;&#x0438;&#x043b; &#x049b;&#x0438;&#x043b;&#x0443;&#x0432;&#x0447;&#x0438; &#x043e;&#x043c;&#x0438;&#x043b;&#x043b;&#x0430;&#x0440;&#x0438; </tspan></text>
</g>
<g id="Layer-1" data-name="P">
<text xml:space="preserve" transform="matrix(1 0 -0 1 0 842.25)" font-size="14.275" font-family="Times New Roman"><tspan y="-767.17" x="371.73">&#x2014;</tspan></text>
</g>
<g id="Layer-1" data-name="P">
<text xml:space="preserve" transform="matrix(1 0 -0 1 0 842.25)" font-size="14.275" font-family="Times New Roman"><tspan y="-767.17" x="386"> </tspan></text>
</g>
<g id="Layer-1" data-name="P">
<text xml:space="preserve" transform="matrix(1 0 -0 1 0 842.25)" font-size="14.275" font-family="Times New Roman"><tspan y="-767.17" x="396.5 403.25209 410.74644 422.00944 428.7615 436.2416 442.99369 453.5001 460.25218 467.73228 477.4821 483.4776 490.22969 497.72404 503.70527 511.19963 521.706 529.2004 540.4634 547.21548 553.21096 560.69107">&#x049b;&#x0438;&#x0448;&#x043b;&#x043e;&#x049b; &#x0445;&#x045e;&#x0436;&#x0430;&#x043b;&#x0438;&#x0433;&#x0438; &#x0438;&#x0448;&#x043b;&#x0430;&#x0431; </tspan></text>
<path transform="matrix(1,0,0,-1,0,842.25)" d="M 69.85 746.92 L 562.45 746.92 L 562.45 763.42 L 69.85 763.42 Z " fill="#ffffff" fill-rule="evenodd"/>
</g>
<g id="Layer-1" data-name="P">
<text xml:space="preserve" transform="matrix(1 0 -0 1 0 842.25)" font-size="14.275" font-family="Times New Roman"><tspan y="-751.42" x="71.35 78.8301 86.32447 93.076549 99.072048 106.55214 114.04651 124.567188 132.06157 139.55596 147.05034 154.54473 160.52596 166.50719 174.00157 181.49596 187.49146 193.48696 200.98134 207.71915 215.21353 221.95133 228.71768 236.21207 242.1933 248.94538 252.68543 258.66667 264.66218 271.41426 278.9086 286.3887 293.8688 300.62089 308.11524 315.6096 323.10395 329.08518 334.3241 341.0619 348.55625 357.5495 363.545 369.54054 377.03489 380.77494 386.75617 392.75166 399.50373 406.99809 414.49244 420.47367 429.50975 435.47669 442.97105 450.4511 457.9312 465.42558 472.17765 478.17317 485.65327 493.1476 499.12886 505.12437 511.8764 517.8576 525.352 532.10409 541.14016 546.35049 553.08828 559.84036">&#x0447;&#x0438;&#x049b;&#x0430;&#x0440;&#x0438;&#x0448;&#x0438;&#x043d;&#x0438;&#x043d;&#x0433; &#x0438;&#x043d;&#x0442;&#x0435;&#x043d;&#x0441;&#x0438;&#x0432;&#x043b;&#x0438;&#x0433;&#x0438;, &#x0442;&#x0443;&#x043f;&#x0440;&#x043e;&#x049b;&#x043d;&#x0438;&#x043d;&#x0433; &#x0441;&#x0438;&#x0444;&#x0430;&#x0442;&#x0438;, &#x044d;&#x043a;&#x0438;&#x043d; &#x043c;&#x0430;&#x0439;&#x0434;&#x043e;&#x043d;&#x043b;&#x0430;&#x0440;&#x0438; &#x0442;&#x0443;&#x0437;&#x0438;&#x043b;&#x043c;&#x0430;&#x0441;&#x0438; </tspan></text>
<path transform="matrix(1,0,0,-1,0,842.25)" d="M 69.85 731.15 L 562.45 731.15 L 562.45 746.92507 L 69.85 746.92507 Z " fill="#ffffff" fill-rule="evenodd"/>
</g>
<g id="Layer-1" data-name="P">
<text xml:space="preserve" transform="matrix(1 0 -0 1 0 842.25)" font-size="14.275" font-family="Times New Roman"><tspan y="-734.9" x="71.35 78.0878 84.09758 91.577678 98.31547 105.06754 111.04877 117.80084 125.28094 132.77532 143.29599 150.7761 157.52817 165.00827 171.76035 179.25473 186.73484 193.47264 200.22472 206.96251 214.4569 221.937 229.43138 236.18346 242.17896 249.65906 257.1534 267.6741 275.1542 281.90629 288.64408 295.39616 302.14823 309.64259 317.12269 321.6193 329.0994 335.85148 341.847 349.3271 356.06489 362.80268 369.55476 376.29255 383.78694 389.78245 396.53453 404.02888 411.50898 420.54505 426.512 437.03269 444.52705 452.0214 458.0169 466.2536 473.00569 479.74348 486.49555 493.24763 500.74198 505.2386 512.7187 519.47079 526.96517 533.70297 541.18307 548.66317 554.64437 559.8975">&#x0432;&#x0430; &#x0441;&#x0443;&#x0493;&#x043e;&#x0440;&#x0438;&#x0448; &#x0443;&#x0447;&#x0443;&#x043d; &#x0441;&#x0443;&#x0432; &#x0447;&#x0438;&#x049b;&#x0430;&#x0440;&#x0438;&#x0448; &#x0443;&#x0441;&#x0443;&#x043b;&#x0438; (&#x043e;&#x049b;&#x0430;&#x0440; &#x0441;&#x0443;&#x0432; &#x0451;&#x043a;&#x0438; &#x043c;&#x0430;&#x0448;&#x0438;&#x043d;&#x0430; &#x0443;&#x0441;&#x0443;&#x043b;&#x0438;) &#x04b3;&#x0438;&#x0441;&#x043e;&#x0431;&#x0433;&#x0430; </tspan></text>
<path transform="matrix(1,0,0,-1,0,842.25)" d="M 69.85 714.63 L 562.45 714.63 L 562.45 731.155 L 69.85 731.155 Z " fill="#ffffff" fill-rule="evenodd"/>
</g>
<g id="Layer-1" data-name="P">
<text xml:space="preserve" transform="matrix(1 0 -0 1 0 842.25)" font-size="14.275" font-family="Times New Roman"><tspan y="-719.15" x="71.35 78.83009 85.58217 93.07654 100.57091 106.566417 114.04652 121.540889">&#x043e;&#x043b;&#x0438;&#x043d;&#x0430;&#x0434;&#x0438;.</tspan></text>
</g>
<g id="Layer-1" data-name="P">
<text xml:space="preserve" transform="matrix(1 0 -0 1 0 842.25)" font-size="14.275" font-family="Times New Roman"><tspan y="-719.15" x="124.65"> </tspan></text>
</g>
<g id="Layer-1" data-name="P">
<path transform="matrix(1,0,0,-1,0,842.25)" d="M 69.85 698.88 L 562.45 698.88 L 562.45 714.63 L 69.85 714.63 Z " fill="#ffffff" fill-rule="evenodd"/>
</g>
<g id="Layer-1" data-name="P">
<text xml:space="preserve" transform="matrix(1 0 -0 1 0 842.25)" font-size="14.275" font-family="Times New Roman"><tspan y="-702.63" x="106.62"> </tspan></text>
</g>
<g id="Layer-1" data-name="P">
<path transform="matrix(1,0,0,-1,0,842.25)" d="M 81.1 682.35 L 562.45 682.35 L 562.45 698.875 L 81.1 698.875 Z " fill="#ffffff" fill-rule="evenodd"/>
</g>
<g id="Layer-1" data-name="P">
<text fill="#000080" xml:space="preserve" transform="matrix(1 0 -0 1 0 842.25)" font-size="14.275" font-family="Times New Roman,Bold" font-weight="bold"><tspan y="-686.85" x="107.37 117.8764 124.62848 131.36627 138.84638 146.34076 153.83513 162.0718 168.82387 176.30396 183.79833 190.53612 197.2882 205.51059 209.27919 217.50159 225.76682 237.04407 244.53844 252.01854 260.24095 264.00956 270.76164 277.5137 287.26353 294.74363 302.238 310.46043 317.22679 324.72117 328.4612 334.45674 342.67915 350.94438 358.43876 362.1788 371.17207 378.65217 386.87458 393.65519 401.13529 408.62968 416.12406 423.60417 431.0985 439.32093 447.58616 455.80857 463.3315 470.06935 473.8094 481.30378 488.78388 496.27824 505.9995 513.5082 520.26028 528.48269 535.2633">&#x0421;&#x0443;&#x0493;&#x043e;&#x0440;&#x0438;&#x043b;&#x0430;&#x0434;&#x0438;&#x0433;&#x0430;&#x043d; &#x049b;&#x0438;&#x0448;&#x043b;&#x043e;&#x049b; &#x0445;&#x045e;&#x0436;&#x0430;&#x043b;&#x0438;&#x0433;&#x0438; &#x044d;&#x043a;&#x0438;&#x043d; &#x043c;&#x0430;&#x0439;&#x0434;&#x043e;&#x043d;&#x043b;&#x0430;&#x0440;&#x0438;&#x043d;&#x0438;&#x043d;&#x0433; &#x043d;&#x043e;&#x0440;&#x043c;&#x0430;&#x0442;&#x0438;&#x0432; </tspan></text>
<path transform="matrix(1,0,0,-1,0,842.25)" d="M 81.1 666.6 L 562.45 666.6 L 562.45 682.35 L 81.1 682.35 Z " fill="#ffffff" fill-rule="evenodd"/>
</g>
<g id="Layer-1" data-name="P">
<text fill="#000080" xml:space="preserve" transform="matrix(1 0 -0 1 0 842.25)" font-size="14.275" font-family="Times New Roman,Bold" font-weight="bold"><tspan y="-670.35" x="235.05 243.2724 251.53763 259.76005 268.78187 276.26197 283.01405 291.23646 299.50169 306.99607 310.7361 317.4882 325.7106 331.73466 339.21476 345.96684 353.4612 360.9413 367.6934 371.43345 379.6701 387.1645">&#x049b;&#x0438;&#x0439;&#x043c;&#x0430;&#x0442;&#x0438;&#x043d;&#x0438; &#x04b3;&#x0438;&#x0441;&#x043e;&#x0431;&#x043b;&#x0430;&#x0431; &#x0447;&#x0438;&#x049b;</tspan></text>
</g>
<g id="Layer-1" data-name="P">
<text fill="#000080" xml:space="preserve" transform="matrix(1 0 -0 1 0 842.25)" font-size="14.275" font-family="Times New Roman,Bold" font-weight="bold"><tspan y="-670.35" x="395.75 404">&#x0438;&#x0448;</tspan></text>
</g>
<g id="Layer-1" data-name="P">
<text fill="#000080" xml:space="preserve" transform="matrix(1 0 -0 1 0 842.25)" font-size="14.275" font-family="Times New Roman,Bold" font-weight="bold"><tspan y="-670.35" x="415.27"> </tspan></text>
</g>
<g id="Layer-1" data-name="P">
<path transform="matrix(1,0,0,-1,0,842.25)" d="M 69.85 650.07 L 562.45 650.07 L 562.45 666.59506 L 69.85 666.59506 Z " fill="#ffffff" fill-rule="evenodd"/>
</g>
<g id="Layer-1" data-name="P">
<text xml:space="preserve" transform="matrix(1 0 -0 1 0 842.25)" font-size="14.275" font-family="Times New Roman"><tspan y="-654.58" x="71.35 81.09982 87.83762 94.5897 101.32749 108.82186 116.31623 125.295207 132.04727 139.54166 150.06233 156.8144 164.29451 171.04659 180.02558 186.77765 194.25775 204.00759 210.00308 216.75516 224.24954 230.23078 237.72516 246.70415 252.69965 259.45173 266.94609 274.44044 281.1925 287.18803 294.66813 302.16249 309.65684 317.15119 324.64555 330.62678 339.60575 347.1001 354.5802 362.0603 371.09638 377.06333 383.05885 390.5532 397.291 406.28425 413.03633 419.7884 426.52619 434.02055 440.7726 448.2527 455.00477 462.48487 469.23695 476.7313 482.71253 490.20689 499.18586 505.18138 511.9334 519.4278 526.1799 533.66 540.41207 547.1641 553.1596 559.9117">&#x0410;&#x0441;&#x043e;&#x0441;&#x0438;&#x0439; &#x049b;&#x0438;&#x0448;&#x043b;&#x043e;&#x049b; &#x0445;&#x045e;&#x0436;&#x0430;&#x043b;&#x0438;&#x0433;&#x0438; &#x044d;&#x043a;&#x0438;&#x043d;&#x043b;&#x0430;&#x0440;&#x0438;&#x043d;&#x0438;&#x043d;&#x0433; &#x043d;&#x043e;&#x0440;&#x043c;&#x0430;&#x0442;&#x0438;&#x0432; &#x04b3;&#x043e;&#x0441;&#x0438;&#x043b;&#x0434;&#x043e;&#x0440;&#x043b;&#x0438;&#x0433;&#x0438; &#x0442;&#x0443;&#x043f;&#x0440;&#x043e;&#x049b;&#x043b;&#x0430;&#x0440; </tspan></text>
<path transform="matrix(1,0,0,-1,0,842.25)" d="M 69.85 634.33 L 562.45 634.33 L 562.45 650.08 L 69.85 650.08 Z " fill="#ffffff" fill-rule="evenodd"/>
</g>
<g id="Layer-1" data-name="P">
<text xml:space="preserve" transform="matrix(1 0 -0 1 0 842.25)" font-size="14.275" font-family="Times New Roman"><tspan y="-638.08" x="71.35 78.83009 86.31019 92.30569 98.301189 105.78129 111.77679 115.51684 122.26891 129.74903 137.24341 144.7378 150.73329 156.72879 162.72429 166.46434 173.94445 179.93994 186.69202 194.1864 197.92646 205.40656 212.90094 219.65302 225.64852 233.1429 236.88295 243.63503 251.12941 261.6501 268.40217 275.88227 282.63435 286.3744 293.12648 300.60658 310.35639 316.3519 323.10398 330.59834 336.57957 344.0739 347.81398 353.80946 360.56153 368.05589 376.29255 383.04463 389.04014 396.52024 404.0146 407.75465 411.4947 418.97477 426.45487 432.4361 439.18818 445.1837 452.6638 456.40385 463.14164 469.1514 472.89146 478.88697 486.36708 492.36259 497.61576 505.09587 512.5759 519.328 525.3235 532.8036 540.298 547.79238 554.54446 559.7976">&#x045e;&#x0440;&#x0442;&#x0430;&#x0447;&#x0430; &#x0431;&#x043e;&#x043d;&#x0438;&#x0442;&#x0435;&#x0442; &#x0431;&#x0430;&#x043b;&#x0438; &#x0431;&#x0438;&#x043b;&#x0430;&#x043d; &#x049b;&#x0438;&#x0448;&#x043b;&#x043e;&#x049b; &#x0445;&#x045e;&#x0436;&#x0430;&#x043b;&#x0438;&#x0433;&#x0438; &#x044d;&#x043a;&#x0438;&#x043d;&#x043b;&#x0430;&#x0440;&#x0438;, &#x0431;&#x043e;&#x0493;&#x043b;&#x0430;&#x0440; &#x0432;&#x0430; &#x0442;&#x043e;&#x043a;&#x0437;&#x043e;&#x0440;&#x043b;&#x0430;&#x0440;&#x043d;&#x0438;&#x043d;&#x0433; </tspan></text>
<path transform="matrix(1,0,0,-1,0,842.25)" d="M 69.85 617.8 L 562.45 617.8 L 562.45 634.325 L 69.85 634.325 Z " fill="#ffffff" fill-rule="evenodd"/>
</g>
<g id="Layer-1" data-name="P">
<text xml:space="preserve" transform="matrix(1 0 -0 1 0 842.25)" font-size="14.275" font-family="Times New Roman"><tspan y="-622.3" x="71.35 77.3455 84.09757 91.59194 99.07204 106.55213 113.30421 123.03976 130.51985 137.99996 145.49434 152.98873 158.98423 164.97972 170.97522 178.4696 185.96399 193.45838 200.95276 206.20597 216.71237 224.19248 230.94455 238.42465 248.1602 255.6403 263.1204 270.61476 278.1091 284.1046 290.10014 296.09565 305.8312 313.31129 319.3068 326.05888 333.55323 339.53446 345.52998 356.03639 365.07246 371.7817 378.5195 389.0259 395.77799 402.53007 410.01017 419.04624 425.01319 431.0087 438.50306 445.24085 455.76155 462.5136 469.2657 476.00349 483.49784 490.2499 497.00199 503.75407 511.23417 517.9862 525.4806 532.23269 539.72708 547.22146 554.7158 559.969">&#x0442;&#x0443;&#x043f;&#x0440;&#x043e;&#x049b; &#x0431;&#x043e;&#x043d;&#x0438;&#x0442;&#x0435;&#x0442;&#x0438;&#x043d;&#x0438;&#x043d;&#x0433; &#x0431;&#x0438;&#x0440; &#x0431;&#x043e;&#x043d;&#x0438;&#x0442;&#x0435;&#x0442; &#x0431;&#x0430;&#x043b;&#x0438;&#x0433;&#x0430; &#x043c;&#x043e;&#x0441; &#x043d;&#x043e;&#x0440;&#x043c;&#x0430;&#x0442;&#x0438;&#x0432; &#x04b3;&#x043e;&#x0441;&#x0438;&#x043b;&#x0434;&#x043e;&#x0440;&#x043b;&#x0438;&#x043a;&#x043d;&#x0438;&#x043d;&#x0433; </tspan></text>
<path transform="matrix(1,0,0,-1,0,842.25)" d="M 69.85 602.02 L 562.45 602.02 L 562.45 617.79507 L 69.85 617.79507 Z " fill="#ffffff" fill-rule="evenodd"/>
</g>
<g id="Layer-1" data-name="P">
<text xml:space="preserve" transform="matrix(1 0 -0 1 0 842.25)" font-size="14.275" font-family="Times New Roman"><tspan y="-605.8" x="71.35 78.84437 86.33874 92.31996 99.81433 107.3087 114.7888 121.54088 128.27869 135.77307 147.77835 154.51616 162.01055 171.0038 176.9993 182.9948 190.48918 197.96929 203.96479 216.72664 223.47872 233.99939 241.47949 248.23157 260.9934 270.74324 278.23759 283.49076 290.97087">&#x0439;&#x0438;&#x0493;&#x0438;&#x043d;&#x0434;&#x0438;&#x0441;&#x0438; &#x0441;&#x0438;&#x0444;&#x0430;&#x0442;&#x0438;&#x0434;&#x0430; &#x0443;&#x0448;&#x0431;&#x0443; &#x041d;&#x0438;&#x0437;&#x043e;&#x043c;</tspan></text>
</g>
<g id="Layer-1" data-name="P">
<text xml:space="preserve" transform="matrix(1 0 -0 1 0 842.25)" font-size="14.275" font-family="Times New Roman"><tspan y="-605.8" x="300.38 306.36125 312.35676">&#x0433;&#x0430; </tspan></text>
</g>
<g id="Layer-1" data-name="P">
<text xml:space="preserve" transform="matrix(1 0 -0 1 0 842.25)" font-size="14.275" font-family="Times New Roman"><tspan y="-605.8" x="325.15 334.18608 340.89533 346.8908 354.3709 363.36418 370.85853 377.6106 390.37245">&#x043c;&#x0443;&#x0432;&#x043e;&#x0444;&#x0438;&#x049b; &#x04b3;</tspan></text>
</g>
<g id="Layer-1" data-name="P">
<text xml:space="preserve" transform="matrix(1 0 -0 1 0 842.25)" font-size="14.275" font-family="Times New Roman"><tspan y="-605.8" x="397.25 404.00209 410.73988 417.49195 424.97203 431.7241 437.7196 445.19969 457.20497 464.68507 472.1794 478.9315 486.42585 493.17793 499.17344 506.6535 514.1479">&#x0438;&#x0441;&#x043e;&#x0431;&#x043b;&#x0430;&#x0431; &#x0447;&#x0438;&#x049b;&#x0438;&#x043b;&#x0430;&#x0434;&#x0438;.</tspan></text>
</g>
<g id="Layer-1" data-name="P">
<text xml:space="preserve" transform="matrix(1 0 -0 1 0 842.25)" font-size="14.275" font-family="Times New Roman"><tspan y="-605.8" x="518.15"> </tspan></text>
</g>
<g id="Layer-1" data-name="P">
<text xml:space="preserve" transform="matrix(1 0 -0 1 0 842.25)" font-size="14.275" font-family="Times New Roman"><tspan y="-605.8" x="530.92 536.91549 549.6773 555.6585 560.9117">1 &#x0433;&#x0430; </tspan></text>
<path transform="matrix(1,0,0,-1,0,842.25)" d="M 69.85 585.53 L 562.45 585.53 L 562.45 602.03 L 69.85 602.03 Z " fill="#ffffff" fill-rule="evenodd"/>
</g>
<g id="Layer-1" data-name="P">
<text xml:space="preserve" transform="matrix(1 0 -0 1 0 842.25)" font-size="14.275" font-family="Times New Roman"><tspan y="-590.03" x="71.35 80.38607 86.35302 93.84739 101.32749 108.80759 115.55966 123.039768 129.03527 135.0165 142.51088 151.48987 157.48537 163.48087 170.96097 177.69878 185.19316 192.68755 201.66654 208.41861 215.913 226.43367 233.18575 240.66585 247.41793 256.3969 263.149 270.6291 280.3789 286.37443 293.1265 300.62086 306.60209 314.09645 323.0754 329.0709 335.82298 343.31733 350.81169 357.56376 363.55928 371.03938 378.53373 386.02809 393.52244 401.01679 406.99803 415.977 422.72908 430.20918 436.96125 445.9973 451.96427 457.95979 465.45414 472.19194 481.18519 487.93727 495.4316 502.1837 511.21977 518.67129 525.42337 532.90347 539.6555 547.1499 553.1311 559.8832">&#x043c;&#x0430;&#x0439;&#x0434;&#x043e;&#x043d;&#x0434;&#x0430;&#x0433;&#x0438; &#x0430;&#x0441;&#x043e;&#x0441;&#x0438;&#x0439; &#x049b;&#x0438;&#x0448;&#x043b;&#x043e;&#x049b; &#x0445;&#x045e;&#x0436;&#x0430;&#x043b;&#x0438;&#x0433;&#x0438; &#x044d;&#x043a;&#x0438;&#x043d;&#x043b;&#x0430;&#x0440;&#x0438;&#x043d;&#x0438;&#x043d;&#x0433; &#x043d;&#x043e;&#x0440;&#x043c;&#x0430;&#x0442;&#x0438;&#x0432; &#x0443;&#x043d;&#x0443;&#x043c;&#x0434;&#x043e;&#x0440;&#x043b;&#x0438;&#x0433;&#x0438; </tspan></text>
<path transform="matrix(1,0,0,-1,0,842.25)" d="M 69.85 569.75 L 562.45 569.75 L 562.45 585.525 L 69.85 585.525 Z " fill="#ffffff" fill-rule="evenodd"/>
</g>
<g id="Layer-1" data-name="P">
<text xml:space="preserve" transform="matrix(1 0 -0 1 0 842.25)" font-size="14.275" font-family="Times New Roman"><tspan y="-573.5" x="71.35 77.3455 83.340999 89.32222 96.81659 107.337268 114.08934 121.58371 127.56493 136.60102 142.56797 150.04807 159.08414 165.79338 173.27349 180.76787 188.26226 194.24349 203.27956 210.74539 218.23978 224.23528 230.23078 237.71088 243.70638 251.18648 257.18199 263.1632 270.65757 276.6388 284.13316 291.61326 299.09336 308.12944 314.09638 320.0919 327.58625 334.32405 340.31956 347.07164 354.56599 362.06034 371.0964 377.06336 383.05888 390.55323 398.04759 404.0288 410.02433 417.51869 425.01304 431.7651 438.51719 445.25498 455.77568 461.7569 469.23698 475.23249 481.97029 489.46467 496.959 504.4391 510.4346 517.92898 523.91018 531.39028 538.14236 545.62246 553.1168 559.8689">&#x0442;&#x0435;&#x0433;&#x0438;&#x0448;&#x043b;&#x0438; &#x043c;&#x0430;&#x044a;&#x043c;&#x0443;&#x0440;&#x0438;&#x0439; &#x043c;&#x0438;&#x043d;&#x0442;&#x0430;&#x049b;&#x0430;&#x0434;&#x0430;&#x0433;&#x0438; &#x043d;&#x043e;&#x0440;&#x043c;&#x0430;&#x0442;&#x0438;&#x0432; &#x049b;&#x0438;&#x0439;&#x043c;&#x0430;&#x0442;&#x043d;&#x0438; &#x0430;&#x043d;&#x0438;&#x049b;&#x043b;&#x0430;&#x0448; &#x0434;&#x0430;&#x0432;&#x0440;&#x0438;&#x0434;&#x0430;&#x043d; &#x043e;&#x043b;&#x0434;&#x0438;&#x043d; </tspan></text>
<path transform="matrix(1,0,0,-1,0,842.25)" d="M 69.85 553.25 L 562.45 553.25 L 562.45 569.75 L 69.85 569.75 Z " fill="#ffffff" fill-rule="evenodd"/>
</g>
<g id="Layer-1" data-name="P">
<text xml:space="preserve" transform="matrix(1 0 -0 1 0 842.25)" font-size="14.275" font-family="Times New Roman"><tspan y="-557.75" x="71.35 81.870677 87.8519 93.847408 99.82863 105.824138 111.80536 118.557437 124.55294 131.30501 137.28624 143.28174 150.77613 156.75736 163.50943 171.00382 181.52449 188.27657 195.75667 202.50875 208.48998 215.24205 222.72216 232.47199 238.46749 245.21956 252.71395 258.69517 265.44725 271.42848 280.46455 286.4315 293.18357 299.92137 306.67344 313.4255 320.9056 326.90113 333.6532 339.6487 347.1288 354.62318 362.11753 369.61189 374.8508 382.3309 388.32643 394.32194 401.074 408.56837 414.54957 420.54508 428.03944 435.53379 442.27159 448.2528 455.00489 462.49925 469.2513 476.74568 487.26637 494.7607 502.25508 509.74943 515.73068 520.96957 527.7216 535.2017 541.1972 547.1927 554.6728 559.92599">&#x044e;&#x0437;&#x0430;&#x0433;&#x0430; &#x043a;&#x0435;&#x043b;&#x0433;&#x0430;&#x043d; &#x049b;&#x0438;&#x0448;&#x043b;&#x043e;&#x049b; &#x0445;&#x045e;&#x0436;&#x0430;&#x043b;&#x0438;&#x0433;&#x0438; &#x043c;&#x0430;&#x04b3;&#x0441;&#x0443;&#x043b;&#x043e;&#x0442;&#x043b;&#x0430;&#x0440;&#x0438;&#x043d;&#x0438; &#x0440;&#x0435;&#x0430;&#x043b;&#x0438;&#x0437;&#x0430;&#x0446;&#x0438;&#x044f; &#x049b;&#x0438;&#x043b;&#x0438;&#x0448;&#x043d;&#x0438;&#x043d;&#x0433; &#x045e;&#x0440;&#x0442;&#x0430;&#x0447;&#x0430; </tspan></text>
<path transform="matrix(1,0,0,-1,0,842.25)" d="M 69.85 537.47 L 562.45 537.47 L 562.45 553.245 L 69.85 553.245 Z " fill="#ffffff" fill-rule="evenodd"/>
</g>
<g id="Layer-1" data-name="P">
<text xml:space="preserve" transform="matrix(1 0 -0 1 0 842.25)" font-size="14.275" font-family="Times New Roman"><tspan y="-541.22" x="71.35 78.84437 86.33874 93.09081 99.84289 107.33726 114.08933 117.829387 125.32375 131.31925 138.79935 145.55142 152.3035 158.299 165.7791 173.27349 179.25472 185.25022">&#x0439;&#x0438;&#x043b;&#x043b;&#x0438;&#x043a; &#x043d;&#x0430;&#x0440;&#x0445;&#x043b;&#x0430;&#x0440;&#x0438;&#x0433;&#x0430; </tspan></text>
</g>
<g id="Layer-1" data-name="P">
<text xml:space="preserve" transform="matrix(1 0 -0 1 0 842.25)" font-size="14.275" font-family="Times New Roman"><tspan y="-541.22" x="189.25 196.7301 204.2102 210.19144 216.94351 224.4379 231.18997 234.18773 241.66783 247.66333 254.40113 261.90977 272.43046 279.91053 285.90605 289.6461 296.39817 303.89253 311.38688 320.42295 326.3899 332.3854 336.12547 343.6198 352.61308 360.09318 367.57325 372.82646 379.56425 387.0586 394.53868 400.53419 404.27424 411.0263 417.77839 425.27275 432.7671 440.24717 446.24269 452.2239 458.97599 462.71604 471.7093 478.46138 485.94148 494.97755 501.6868 508.43888 514.4344 518.17446 525.65457 533.13467 540.629 547.3811 554.8612 560.1144">&#x0431;&#x043e;&#x0493;&#x043b;&#x0438;&#x049b; &#x0440;&#x0430;&#x0432;&#x0438;&#x0448;&#x0434;&#x0430; &#x049b;&#x0438;&#x0439;&#x043c;&#x0430;&#x0442; &#x0438;&#x0444;&#x043e;&#x0434;&#x0430;&#x0441;&#x0438;&#x0434;&#x0430; &#x049b;&#x0443;&#x0439;&#x0438;&#x0434;&#x0430;&#x0433;&#x0438; &#x0444;&#x043e;&#x0440;&#x043c;&#x0443;&#x043b;&#x0430; &#x0431;&#x045e;&#x0439;&#x0438;&#x0447;&#x0430; </tspan></text>
<path transform="matrix(1,0,0,-1,0,842.25)" d="M 69.85 521.7 L 562.45 521.7 L 562.45 537.47506 L 69.85 537.47506 Z " fill="#ffffff" fill-rule="evenodd"/>
</g>
<g id="Layer-1" data-name="P">
<text xml:space="preserve" transform="matrix(1 0 -0 1 0 842.25)" font-size="14.275" font-family="Times New Roman"><tspan y="-525.47" x="71.35 77.3455 84.83987 92.334239 99.08631 105.83839 111.833889 119.328258 125.32375 132.80385 141.04053">&#x0430;&#x043d;&#x0438;&#x049b;&#x043b;&#x0430;&#x043d;&#x0430;&#x0434;&#x0438;:</tspan></text>
</g>
<g id="Layer-1" data-name="P">
<text xml:space="preserve" transform="matrix(1 0 -0 1 0 842.25)" font-size="14.275" font-family="Times New Roman"><tspan y="-525.47" x="144.93"> </tspan></text>
</g>
<g id="Layer-1" data-name="P">
<path transform="matrix(1,0,0,-1,0,842.25)" d="M 87.85 505.2 L 562.45 505.2 L 562.45 521.7 L 87.85 521.7 Z " fill="#ffffff" fill-rule="evenodd"/>
</g>
<g id="Layer-1" data-name="P">
<text fill="#000080" xml:space="preserve" transform="matrix(1 0 -0 1 0 842.25)" font-size="14.275" font-family="Times New Roman,Italic" font-style="italic"><tspan y="-509.7" x="250.08 260.58644 268.06654 274.06205 280.79985 283.79759 293.5331 296.53086 307.03727 313.03279 316.77284 326.50837 329.5061 339.25593 346.73603 353.47383">&#x041d;&#x043f;&#x0441;&#x043a; = &#x041d;&#x0443; &#x00d7; &#x0426;&#x0440;&#x043a;,</tspan></text>
</g>
<g id="Layer-1" data-name="P">
<text fill="#000080" xml:space="preserve" transform="matrix(1 0 -0 1 0 842.25)" font-size="14.275" font-family="Times New Roman"><tspan y="-509.7" x="356.7"> </tspan></text>
</g>
<g id="Layer-1" data-name="P">
<text fill="#000080" xml:space="preserve" transform="matrix(1 0 -0 1 0 842.25)" font-size="14.275" font-family="Times New Roman"><tspan y="-509.7" x="360.45 367.93009 374.68217 382.1765 389.6566">&#x0431;&#x0443;&#x043d;&#x0434;&#x0430;</tspan></text>
</g>
<g id="Layer-1" data-name="P">
<text fill="#000080" xml:space="preserve" transform="matrix(1 0 -0 1 0 842.25)" font-size="14.275" font-family="Times New Roman,Italic" font-style="italic"><tspan y="-509.7" x="395.75">:</tspan></text>
</g>
<g id="Layer-1" data-name="P">
<text fill="#000080" xml:space="preserve" transform="matrix(1 0 -0 1 0 842.25)" font-size="14.275" font-family="Times New Roman"><tspan y="-509.7" x="399.5"> </tspan></text>
</g>
<g id="Layer-1" data-name="P">
<path transform="matrix(1,0,0,-1,0,842.25)" d="M 69.85 489.42 L 562.45 489.42 L 562.45 505.195 L 69.85 505.195 Z " fill="#ffffff" fill-rule="evenodd"/>
</g>
<g id="Layer-1" data-name="P">
<text xml:space="preserve" transform="matrix(1 0 -0 1 0 842.25)" font-size="14.275" font-family="Times New Roman"><tspan y="-493.17" x="71.35 81.09982 88.59419 95.33199 102.08407">&#x041d;&#x043f;&#x0441;&#x043a; </tspan></text>
</g>
<g id="Layer-1" data-name="P">
<text xml:space="preserve" transform="matrix(1 0 -0 1 0 842.25)" font-size="14.275" font-family="Times New Roman"><tspan y="-493.17" x="105.87">&#x2014;</tspan></text>
</g>
<g id="Layer-1" data-name="P">
<text xml:space="preserve" transform="matrix(1 0 -0 1 0 842.25)" font-size="14.275" font-family="Times New Roman"><tspan y="-493.17" x="120.15"> </tspan></text>
</g>
<g id="Layer-1" data-name="P">
<text xml:space="preserve" transform="matrix(1 0 -0 1 0 842.25)" font-size="14.275" font-family="Times New Roman"><tspan y="-493.17" x="123.9 130.65209 134.39214 140.37337 145.62657 149.36663 156.1187 163.61309 174.13376 180.88584 188.36594 195.11801 198.85807 205.61014 213.09024 222.84008 228.83557 235.58765 243.08203 249.06327 256.55763 260.29768 266.29316 273.04524 280.53959 288.03395 294.786 300.78153 308.26164 315.75599 323.25035 330.7447 337.49678 343.478 347.21806 354.7124 361.46449 368.94459 377.98066 383.9476 389.9431 397.43748 404.17527 407.9296 414.68168 422.17604 428.9281 437.96418 444.6734 451.42549 458.90559 465.65766 473.152 479.13325 486.6276 490.36766 493.3654 502.40147 509.86729 517.36166 523.34286 526.3406 532.33609 539.81619 548.85226">1 &#x0433;&#x0430; &#x049b;&#x0438;&#x0448;&#x043b;&#x043e;&#x049b; &#x0445;&#x045e;&#x0436;&#x0430;&#x043b;&#x0438;&#x0433;&#x0438; &#x044d;&#x043a;&#x0438;&#x043d;&#x043b;&#x0430;&#x0440;&#x0438;&#x043d;&#x0438;&#x043d;&#x0433; &#x043d;&#x043e;&#x0440;&#x043c;&#x0430;&#x0442;&#x0438;&#x0432; &#x0443;&#x043d;&#x0443;&#x043c;&#x0434;&#x043e;&#x0440;&#x043b;&#x0438;&#x0433;&#x0438;, &#x043c;&#x0438;&#x043d;&#x0433; &#x0441;&#x045e;&#x043c;;</tspan></text>
</g>
<g id="Layer-1" data-name="P">
<text xml:space="preserve" transform="matrix(1 0 -0 1 0 842.25)" font-size="14.275" font-family="Times New Roman"><tspan y="-493.17" x="552.7"> </tspan></text>
</g>
<g id="Layer-1" data-name="P">
<path transform="matrix(1,0,0,-1,0,842.25)" d="M 69.85 472.92 L 562.45 472.92 L 562.45 489.42 L 69.85 489.42 Z " fill="#ffffff" fill-rule="evenodd"/>
</g>
<g id="Layer-1" data-name="P">
<text xml:space="preserve" transform="matrix(1 0 -0 1 0 842.25)" font-size="14.275" font-family="Times New Roman"><tspan y="-477.42" x="71.35 81.09982 87.8519">&#x041d;&#x0443; </tspan></text>
</g>
<g id="Layer-1" data-name="P">
<text xml:space="preserve" transform="matrix(1 0 -0 1 0 842.25)" font-size="14.275" font-family="Times New Roman"><tspan y="-477.42" x="91.625">&#x2014;</tspan></text>
</g>
<g id="Layer-1" data-name="P">
<text xml:space="preserve" transform="matrix(1 0 -0 1 0 842.25)" font-size="14.275" font-family="Times New Roman"><tspan y="-477.42" x="105.87"> </tspan></text>
</g>
<g id="Layer-1" data-name="P">
<text xml:space="preserve" transform="matrix(1 0 -0 1 0 842.25)" font-size="14.275" font-family="Times New Roman"><tspan y="-477.42" x="109.65 116.40208 123.89645 134.41713 141.1692 148.6493 155.40139 159.14144 165.89351 173.37361 183.12345 189.11894 195.87102 203.3654 209.34664 216.84102 220.58107 226.57657 233.32865 240.82303 248.31742 255.06949 261.065 268.5451 276.03947 283.5338 291.02818 298.52253 304.50376 308.2438 314.99589 321.74797 329.22807 338.26414 344.23109 350.2266 357.72096 364.45875 368.21308 374.96516 381.71723 388.45503 395.94938 402.70146 409.45353 416.2056 423.6857 430.43778 437.93214 443.91337 451.4077 455.14778 458.88783 466.38218 470.1365 476.11775 482.11326">&#x049b;&#x0438;&#x0448;&#x043b;&#x043e;&#x049b; &#x0445;&#x045e;&#x0436;&#x0430;&#x043b;&#x0438;&#x0433;&#x0438; &#x044d;&#x043a;&#x0438;&#x043d;&#x043b;&#x0430;&#x0440;&#x0438;&#x043d;&#x0438;&#x043d;&#x0433; &#x043d;&#x043e;&#x0440;&#x043c;&#x0430;&#x0442;&#x0438;&#x0432; &#x04b3;&#x043e;&#x0441;&#x0438;&#x043b;&#x0434;&#x043e;&#x0440;&#x043b;&#x0438;&#x0433;&#x0438;, &#x0446;/&#x0433;&#x0430;;</tspan></text>
</g>
<g id="Layer-1" data-name="P">
<text xml:space="preserve" transform="matrix(1 0 -0 1 0 842.25)" font-size="14.275" font-family="Times New Roman"><tspan y="-477.42" x="485.88"> </tspan></text>
</g>
<g id="Layer-1" data-name="P">
<path transform="matrix(1,0,0,-1,0,842.25)" d="M 69.85 457.15 L 562.45 457.15 L 562.45 472.925 L 69.85 472.925 Z " fill="#ffffff" fill-rule="evenodd"/>
</g>
<g id="Layer-1" data-name="P">
<text xml:space="preserve" transform="matrix(1 0 -0 1 0 842.25)" font-size="14.275" font-family="Times New Roman"><tspan y="-460.9" x="71.35 81.09982 88.57992 95.33199">&#x0426;&#x0440;&#x043a; </tspan></text>
</g>
<g id="Layer-1" data-name="P">
<text xml:space="preserve" transform="matrix(1 0 -0 1 0 842.25)" font-size="14.275" font-family="Times New Roman"><tspan y="-460.9" x="105.87">&#x2014;</tspan></text>
</g>
<g id="Layer-1" data-name="P">
<text xml:space="preserve" transform="matrix(1 0 -0 1 0 842.25)" font-size="14.275" font-family="Times New Roman"><tspan y="-460.9" x="120.15"> </tspan></text>
</g>
<g id="Layer-1" data-name="P">
<text xml:space="preserve" transform="matrix(1 0 -0 1 0 842.25)" font-size="14.275" font-family="Times New Roman"><tspan y="-460.9" x="130.68 138.1601 144.1556 150.90767 157.65975 165.13985 172.63423 183.14064 189.89272 197.37282 202.62602 209.3781 216.8582 223.61028 229.60578 237.08588 244.58026 252.06037 258.05589 268.5623 274.5578 282.0379 288.03343 295.52778 302.27986 308.27537 315.75544 323.2498 329.23103 335.22654 342.7209 353.2273 359.97938 367.47373 377.99443 384.7465 392.2266 398.97868 409.48509 416.23716 423.71726 433.46708 439.4626 446.21467 453.709 459.69026 467.1846 477.691 486.72709 492.69404 499.4461 506.1839 512.936 519.68807 527.16818 533.16366 539.9157 545.9112 553.3913 560.1434">&#x0434;&#x0435;&#x04b3;&#x049b;&#x043e;&#x043d; &#x0431;&#x043e;&#x0437;&#x043e;&#x0440;&#x043b;&#x0430;&#x0440;&#x0438;&#x0434;&#x0430; &#x0441;&#x043e;&#x0442;&#x0438;&#x043b;&#x0430;&#x0434;&#x0438;&#x0433;&#x0430;&#x043d; &#x049b;&#x0438;&#x0448;&#x043b;&#x043e;&#x049b; &#x0445;&#x045e;&#x0436;&#x0430;&#x043b;&#x0438;&#x0433;&#x0438; &#x043c;&#x0430;&#x04b3;&#x0441;&#x0443;&#x043b;&#x043e;&#x0442;&#x043b;&#x0430;&#x0440;&#x0438; </tspan></text>
<path transform="matrix(1,0,0,-1,0,842.25)" d="M 69.85 440.65 L 562.45 440.65 L 562.45 457.15 L 69.85 457.15 Z " fill="#ffffff" fill-rule="evenodd"/>
</g>
<g id="Layer-1" data-name="P">
<text xml:space="preserve" transform="matrix(1 0 -0 1 0 842.25)" font-size="14.275" font-family="Times New Roman"><tspan y="-445.15" x="71.35 77.3455 83.340999 89.32222 96.81659 107.337268 114.08934 121.58371 126.82263 132.81813 139.5702 147.05031 154.5447 160.52593 166.52143 171.76036 179.24047 186.72057 192.71607 198.71157 206.19167 212.18717 217.4261 224.92049 232.41487 239.16695 245.91902 253.4134 260.16548 265.4044 272.89875 278.89427 286.37437 293.12644 296.8665 302.1054 311.14149 318.6073 326.10166 332.0829 337.3218 344.0596 351.5397 360.57579 364.28727 371.78163 375.52168 380.7606 388.25495 394.25047 401.00254 406.99806 412.99357 418.23249 424.98457 432.46467 441.50074 446.69685 452.69236 463.21305 469.20857 475.94636 483.4407 488.67964 495.41743 501.4272 506.6661 514.1462 521.6263 532.147 539.6271 546.37918 553.1312 559.8833">&#x0442;&#x0435;&#x0433;&#x0438;&#x0448;&#x043b;&#x0438; &#x0442;&#x0443;&#x0440;&#x0438;&#x0433;&#x0430; &#x045e;&#x0440;&#x0442;&#x0430;&#x0447;&#x0430; &#x0439;&#x0438;&#x043b;&#x043b;&#x0438;&#x043a; &#x043d;&#x0430;&#x0440;&#x0445;, &#x043c;&#x0438;&#x043d;&#x0433; &#x0441;&#x045e;&#x043c;/&#x0446;, &#x043f;&#x0430;&#x0445;&#x0442;&#x0430; &#x0445;&#x043e;&#x043c; &#x0430;&#x0448;&#x0451;&#x0441;&#x0438; &#x0432;&#x0430; &#x0431;&#x043e;&#x0448;&#x043e;&#x049b;&#x043b;&#x0438; </tspan></text>
<path transform="matrix(1,0,0,-1,0,842.25)" d="M 69.85 424.88 L 562.45 424.88 L 562.45 440.655 L 69.85 440.655 Z " fill="#ffffff" fill-rule="evenodd"/>
</g>
<g id="Layer-1" data-name="P">
<text xml:space="preserve" transform="matrix(1 0 -0 1 0 842.25)" font-size="14.275" font-family="Times New Roman"><tspan y="-428.63" x="71.35 78.8301 86.310199 93.804569 97.54462 103.54012 110.2922 117.78657 125.28094 132.033 138.0285 145.5086 153.00299 160.49738 167.99176 174.74384 180.72507 184.46512 191.2172 197.21269 204.6928 211.44487 218.92498 222.66503 230.15941 236.1549 243.63501 250.38709 257.88145 260.87919 269.91526 277.38108 284.87544 290.85667 293.8544 299.8499 307.33003 316.3661 320.07759 327.57194 331.32627">&#x0434;&#x043e;&#x043d; &#x044d;&#x043a;&#x0438;&#x043d;&#x043b;&#x0430;&#x0440;&#x0438;&#x043d;&#x0438;&#x043d;&#x0433; &#x0445;&#x0430;&#x0440;&#x0438;&#x0434; &#x043d;&#x0430;&#x0440;&#x0445;&#x0438; &#x043c;&#x0438;&#x043d;&#x0433; &#x0441;&#x045e;&#x043c;/&#x0446;; </tspan></text>
</g>
<g id="Layer-1" data-name="P">
<text xml:space="preserve" transform="matrix(1 0 -0 1 0 842.25)" font-size="14.275" font-family="Times New Roman"><tspan y="-428.63" x="334.92"> </tspan></text>
</g>
<g id="Layer-1" data-name="P">
<path transform="matrix(1,0,0,-1,0,842.25)" d="M 69.85 408.35 L 562.45 408.35 L 562.45 424.875 L 69.85 424.875 Z " fill="#ffffff" fill-rule="evenodd"/>
</g>
<g id="Layer-1" data-name="P">
<text xml:space="preserve" transform="matrix(1 0 -0 1 0 842.25)" font-size="14.275" font-family="Times New Roman"><tspan y="-412.88" x="106.62 117.1264 123.10763 129.85971 136.61179 142.60729 147.08965 153.08515 159.83722 167.3316 174.82599 181.57807 187.57357 195.05367 202.54805 210.04244 217.53682 225.0312 231.01244 235.4948 242.98918 249.74126 257.22135 266.25743 272.22438 278.21989 285.71424 292.45204 296.94868 303.70075 311.1951 317.94718 326.98326 334.43479 341.18687 348.66697 355.41905 362.9134 368.89463 376.38899 380.87135 387.6234 398.1441 405.62419 412.37626 416.8586 426.60844 434.10279 440.08399 447.5641 456.60017 464.06599 471.56034 478.3124 484.29365">&#x041e;&#x0437;&#x0443;&#x049b;&#x0430; &#x044d;&#x043a;&#x0438;&#x043d;&#x043b;&#x0430;&#x0440;&#x0438;&#x043d;&#x0438;&#x043d;&#x0433; &#x043d;&#x043e;&#x0440;&#x043c;&#x0430;&#x0442;&#x0438;&#x0432; &#x0443;&#x043d;&#x0443;&#x043c;&#x0434;&#x043e;&#x0440;&#x043b;&#x0438;&#x0433;&#x0438; &#x0443;&#x0448;&#x0431;&#x0443; &#x041d;&#x0438;&#x0437;&#x043e;&#x043c;&#x043d;&#x0438;&#x043d;&#x0433; </tspan></text>
</g>
<g id="Layer-1" data-name="Span">
<text fill="#008080" xml:space="preserve" transform="matrix(1 0 -0 1 0 842.25)" font-size="14.275" font-family="Times New Roman"><tspan y="-412.88" x="489.63">3</tspan></text>
<text fill="#008080" xml:space="preserve" transform="matrix(1 0 -0 1 0 842.25)" font-size="14.275" font-family="Times New Roman"><tspan y="-412.88" x="496.38">-</tspan></text>
<text fill="#008080" xml:space="preserve" transform="matrix(1 0 -0 1 0 842.25)" font-size="14.275" font-family="Times New Roman"><tspan y="-412.88" x="500.88 508.37437 515.1264 522.6065 529.3443 535.35409 542.09188 549.58627 555.56747 560.8206">&#x0438;&#x043b;&#x043e;&#x0432;&#x0430;&#x0441;&#x0438;&#x0433;&#x0430; </tspan></text>
<path transform="matrix(1,0,0,-1,0,842.25)" d="M 489.63 410.63 L 560.955 410.63 L 560.955 411.38 L 489.63 411.38 Z " fill="#008080" fill-rule="evenodd"/>
<path transform="matrix(1,0,0,-1,0,842.25)" d="M 69.85 392.6 L 562.45 392.6 L 562.45 408.35 L 69.85 408.35 Z " fill="#ffffff" fill-rule="evenodd"/>
</g>
<g id="Layer-1" data-name="P">
<text xml:space="preserve" transform="matrix(1 0 -0 1 0 842.25)" font-size="14.275" font-family="Times New Roman"><tspan y="-396.35" x="71.35 80.38607 87.095317 93.833118 101.327487 110.32073 117.8151 124.56718 140.32678 147.07886 153.83094 159.82643 167.30654 174.80092 182.2953 189.78969 195.77092 211.53054 218.28261 225.03469 231.77249 239.26688 246.01895 253.49906 260.25114 267.73124 274.4833 281.97767 287.9589 295.45326 302.9476 310.44197 325.45927 332.93934 339.6914 345.67265 352.4247 359.90483 367.39918 383.15879 389.15428 395.90635 402.64414 410.15278 416.89057 422.90034 429.6524 435.64793 443.14228 449.1378 464.8974 471.64949 479.12959 485.86738 493.36174 500.1138 506.86589 513.6179 521.098 527.8501 535.3445 541.3257 548.82009 554.8013 560.05447">&#x043c;&#x0443;&#x0432;&#x043e;&#x0444;&#x0438;&#x049b; &#x0443;&#x043b;&#x0430;&#x0440;&#x043d;&#x0438;&#x043d;&#x0433; &#x04b3;&#x043e;&#x0441;&#x0438;&#x043b;&#x0434;&#x043e;&#x0440;&#x043b;&#x0438;&#x0433;&#x0438;&#x043d;&#x0438; &#x0431;&#x0443;&#x0493;&#x0434;&#x043e;&#x0439; &#x044d;&#x043a;&#x0432;&#x0438;&#x0432;&#x0430;&#x043b;&#x0435;&#x043d;&#x0442; &#x04b3;&#x043e;&#x0441;&#x0438;&#x043b;&#x0434;&#x043e;&#x0440;&#x043b;&#x0438;&#x0433;&#x0438;&#x0433;&#x0430; </tspan></text>
<path transform="matrix(1,0,0,-1,0,842.25)" d="M 69.85 376.07 L 562.45 376.07 L 562.45 392.595 L 69.85 392.595 Z " fill="#ffffff" fill-rule="evenodd"/>
<text xml:space="preserve" transform="matrix(1 0 -0 1 0 842.25)" font-size="14.275" font-family="Times New Roman"><tspan y="-380.58" x="71.35 77.3455 84.83987 91.59194 97.58744 105.08181 111.07731 118.57168 126.05177 133.54616 144.06684 151.54694 157.54244 165.02254 172.50264 178.49814 187.53421 195.00005 202.48015 208.47565 215.95575 222.70783 230.20221 236.19771 243.67781 251.15792 257.90998 263.9055 271.38557 278.12336 285.60346 293.0978 299.84989 307.34425 314.0963 320.09184 327.5719 335.06626">&#x0430;&#x0439;&#x043b;&#x0430;&#x043d;&#x0442;&#x0438;&#x0440;&#x0438;&#x0448; &#x0451;&#x0440;&#x0434;&#x0430;&#x043c;&#x0438;&#x0434;&#x0430; &#x04b3;&#x0438;&#x0441;&#x043e;&#x0431;&#x043b;&#x0430;&#x0431; &#x0447;&#x0438;&#x049b;&#x0438;&#x043b;&#x0430;&#x0434;&#x0438;.</tspan></text>
</g>
<g id="Layer-1" data-name="P">
<text xml:space="preserve" transform="matrix(1 0 -0 1 0 842.25)" font-size="14.275" font-family="Times New Roman"><tspan y="-380.58" x="339.42"> </tspan></text>
</g>
<g id="Layer-1" data-name="P">
<text xml:space="preserve" transform="matrix(1 0 -0 1 0 842.25)" font-size="14.275" font-family="Times New Roman"><tspan y="-380.58" x="346.2 355.93556 362.68763 368.66886 375.42094 382.90104 390.3954 397.14747 403.14299 410.62306 418.1174 424.09864 430.09416 437.5885 445.0686 451.82069 459.30079 465.282 471.27754 478.75764 485.5097 491.50523 498.99958 505.75166 513.23178 519.96957 527.46389 533.45938 540.2114 547.6915 553.687 560.4391">&#x0421;&#x0443;&#x0493;&#x043e;&#x0440;&#x0438;&#x043b;&#x0430;&#x0434;&#x0438;&#x0433;&#x0430;&#x043d; 1 &#x0433;&#x0430; &#x04b3;&#x0430;&#x0439;&#x0434;&#x043e;&#x0432; &#x0435;&#x0440;&#x0434;&#x0430;&#x043d; </tspan></text>
<path transform="matrix(1,0,0,-1,0,842.25)" d="M 69.85 360.32 L 562.45 360.32 L 562.45 376.07 L 69.85 376.07 Z " fill="#ffffff" fill-rule="evenodd"/>
</g>
<g id="Layer-1" data-name="P">
<text xml:space="preserve" transform="matrix(1 0 -0 1 0 842.25)" font-size="14.275" font-family="Times New Roman"><tspan y="-364.08" x="71.35 78.83009 85.58217 93.07654 100.57091 106.566417 114.04652 121.540889 127.52211 133.51761 141.012 146.99323 153.7453 161.23969 167.23519 174.71529 182.19539 188.94747 194.94297 202.42307 207.662 215.1421 222.63649 229.38857 236.88295 243.63503 249.61626 255.61176 263.1061 269.08735 278.0806 285.5607 292.31278 299.79286 305.78837 313.2827 320.77708 326.7583 332.7538 340.24818 347.74253 354.4946 361.24668 367.2422 377.76289 385.24296 391.23847 397.2197 403.97178 409.9673 417.4474">&#x043e;&#x043b;&#x0438;&#x043d;&#x0430;&#x0434;&#x0438;&#x0433;&#x0430;&#x043d; &#x04b3;&#x0438;&#x0441;&#x043e;&#x0431;&#x043b;&#x0430;&#x0431; &#x0447;&#x0438;&#x049b;&#x0438;&#x043b;&#x0433;&#x0430;&#x043d; &#x0444;&#x043e;&#x0439;&#x0434;&#x0430;&#x043d;&#x0438; &#x0430;&#x043d;&#x0438;&#x049b;&#x043b;&#x0430;&#x0448;&#x0434;&#x0430; &#x04b3;&#x0430;&#x0440; </tspan></text>
</g>
<g id="Layer-1" data-name="P">
<text xml:space="preserve" transform="matrix(1 0 -0 1 0 842.25)" font-size="14.275" font-family="Times New Roman"><tspan y="-364.08" x="424.27 431.75007 439.24443 446.72453 452.70576 459.45783 466.95219 477.47288 484.22496 491.70506 498.45713 504.43836 510.43388 517.91397 527.66378 533.65927 540.4113 547.9057 553.8869 560.639">&#x0431;&#x0438;&#x0440; &#x049b;&#x0438;&#x0448;&#x043b;&#x043e;&#x049b; &#x0445;&#x045e;&#x0436;&#x0430;&#x043b;&#x0438;&#x0433;&#x0438; </tspan></text>
<path transform="matrix(1,0,0,-1,0,842.25)" d="M 69.85 343.8 L 562.45 343.8 L 562.45 360.32499 L 69.85 360.32499 Z " fill="#ffffff" fill-rule="evenodd"/>
</g>
<g id="Layer-1" data-name="P">
<text xml:space="preserve" transform="matrix(1 0 -0 1 0 842.25)" font-size="14.275" font-family="Times New Roman"><tspan y="-348.3" x="71.35 77.3455 84.82559 91.56339 97.573169 105.05326 114.78881 122.28318 132.80387 139.55594 145.55144 153.03154 162.76709 170.2472 177.74158 184.49365 189.74686 197.22696 203.97904 210.71683 218.21121 224.96329 231.7011 239.19548 248.17447 255.65457 263.13468 270.62904 277.3811 284.8612 290.85673 300.5923 307.34437 314.8387 325.3594 332.11149 339.59159 346.34367 356.07923 362.8313 370.3114 380.06123 386.05674 392.8088 400.30317 406.2844 413.77876 423.5143 429.5098 436.26188 443.75624 451.25059 460.98616 470.02223 475.98918 482.74125 490.2213 497.70143 505.19578 511.9478 517.9433 525.4234 532.9178 540.4122 547.90658 554.6586 559.9118">&#x0442;&#x043e;&#x0432;&#x0430;&#x0440; &#x0438;&#x0448;&#x043b;&#x0430;&#x0431; &#x0447;&#x0438;&#x049b;&#x0430;&#x0440;&#x0443;&#x0432;&#x0447;&#x0438;&#x0441;&#x0438; &#x0431;&#x045e;&#x0439;&#x0438;&#x0447;&#x0430; &#x049b;&#x0438;&#x0448;&#x043b;&#x043e;&#x049b; &#x0445;&#x045e;&#x0436;&#x0430;&#x043b;&#x0438;&#x0433;&#x0438; &#x044d;&#x043a;&#x0438;&#x043d; &#x043c;&#x0430;&#x0439;&#x0434;&#x043e;&#x043d;&#x043b;&#x0430;&#x0440;&#x0438;&#x043d;&#x0438;&#x043d;&#x0433; </tspan></text>
<path transform="matrix(1,0,0,-1,0,842.25)" d="M 69.85 328.05 L 562.45 328.05 L 562.45 343.8 L 69.85 343.8 Z " fill="#ffffff" fill-rule="evenodd"/>
</g>
<g id="Layer-1" data-name="P">
<text xml:space="preserve" transform="matrix(1 0 -0 1 0 842.25)" font-size="14.275" font-family="Times New Roman"><tspan y="-331.8" x="71.35 78.84437 86.32446 93.07654 102.11261 108.07957 114.075069 121.569438 128.30724 133.56044 140.31252 147.8069 155.30129 164.33736 170.3043 176.2998 183.79419 191.28858 198.78296 204.0219 210.0174 217.51178 225.00617 231.75824 238.51032 245.24813 255.7688 263.26316 270.7575 278.25187 284.2331 289.47203 299.9927 306.74479 311.9837 319.47807 327.71473 334.4668 341.94688 347.94239 355.43675 360.67567 368.15577 374.90785 382.3879 389.88227 397.37663 403.35786 410.8522 416.09114 423.58549 431.07984 437.8319 445.31199 451.3075 456.54643 467.0671 473.06263 479.8147 486.56678 493.31886 499.31437 506.80873 512.7899 518.7854 526.2798 531.5187 537.51419 544.26626 551.7606 559.9973">&#x043d;&#x043e;&#x0440;&#x043c;&#x0430;&#x0442;&#x0438;&#x0432; &#x049b;&#x0438;&#x0439;&#x043c;&#x0430;&#x0442;&#x0438;&#x043d;&#x0438; &#x0430;&#x043d;&#x0438;&#x049b;&#x043b;&#x0430;&#x0448;&#x043d;&#x0438;&#x043d;&#x0433; &#x0448;&#x0443; &#x0439;&#x0438;&#x043b;&#x0434;&#x0430;&#x043d; &#x043e;&#x043b;&#x0434;&#x0438;&#x043d;&#x0433;&#x0438; &#x0439;&#x0438;&#x043b;&#x0434;&#x0430; &#x0448;&#x0430;&#x043a;&#x043b;&#x043b;&#x0430;&#x043d;&#x0433;&#x0430;&#x043d; &#x044d;&#x043a;&#x0438;&#x043d; </tspan></text>
<path transform="matrix(1,0,0,-1,0,842.25)" d="M 69.85 312.27 L 562.45 312.27 L 562.45 328.04499 L 69.85 328.04499 Z " fill="#ffffff" fill-rule="evenodd"/>
</g>
<g id="Layer-1" data-name="P">
<text xml:space="preserve" transform="matrix(1 0 -0 1 0 842.25)" font-size="14.275" font-family="Times New Roman"><tspan y="-316.03" x="71.35 80.38607 86.35302 93.84739 101.32749 108.80759 116.301959 123.05403 129.04953 136.52964 144.02402 150.76183 156.75733 163.5094 169.49063 176.98502 183.73709 192.77317 198.74011 205.47792 212.9723 219.71012 225.70561 233.18572 239.93779 246.68987 252.68537 260.17973 267.67408 274.42616 280.42167 287.90174 295.3961">&#x043c;&#x0430;&#x0439;&#x0434;&#x043e;&#x043d;&#x043b;&#x0430;&#x0440;&#x0438; &#x0442;&#x0443;&#x0437;&#x0438;&#x043b;&#x043c;&#x0430;&#x0441;&#x0438; &#x049b;&#x045e;&#x043b;&#x043b;&#x0430;&#x043d;&#x0438;&#x043b;&#x0430;&#x0434;&#x0438;.</tspan></text>
</g>
<g id="Layer-1" data-name="P">
<text xml:space="preserve" transform="matrix(1 0 -0 1 0 842.25)" font-size="14.275" font-family="Times New Roman"><tspan y="-316.03" x="299.63"> </tspan></text>
</g>
<g id="Layer-1" data-name="P">
<text xml:space="preserve" transform="matrix(1 0 -0 1 0 842.25)" font-size="14.275" font-family="Times New Roman"><tspan y="-316.03" x="306.4 316.1498 322.14533 329.62544 336.36323 343.8433 351.33766 358.81776 365.55555 372.30763 379.80198 390.32267 397.07475 404.55485 411.30693 418.0447 424.79679 432.2769 442.0267 448.02223 454.7743 462.26866 468.24989 475.74424 482.48204 488.47755 495.95765 502.69544 508.7052 516.1853 522.9231 530.4175 540.9382 547.69027 553.6857 560.4378">&#x04b2;&#x0430;&#x0440; &#x0431;&#x0438;&#x0440; &#x049b;&#x0438;&#x0448;&#x043b;&#x043e;&#x049b; &#x0445;&#x045e;&#x0436;&#x0430;&#x043b;&#x0438;&#x0433;&#x0438; &#x0442;&#x043e;&#x0432;&#x0430;&#x0440; &#x0438;&#x0448;&#x043b;&#x0430;&#x0431; </tspan></text>
<path transform="matrix(1,0,0,-1,0,842.25)" d="M 69.85 295.75 L 562.45 295.75 L 562.45 312.275 L 69.85 312.275 Z " fill="#ffffff" fill-rule="evenodd"/>
</g>
<g id="Layer-1" data-name="P">
<text xml:space="preserve" transform="matrix(1 0 -0 1 0 842.25)" font-size="14.275" font-family="Times New Roman"><tspan y="-300.28" x="71.35 78.8301 86.32447 93.076549 99.072048 106.55214 113.304218 120.042018 127.53639 134.28847 141.02628 148.52066 156.75734 163.50942 170.98952 178.4839 185.23598 192.71608 198.71158 206.94826 214.42836 221.18044 228.66054 236.15493 243.6493 249.63054 257.1249 265.3616">&#x0447;&#x0438;&#x049b;&#x0430;&#x0440;&#x0443;&#x0432;&#x0447;&#x0438;&#x0441;&#x0438; &#x0431;&#x045e;&#x0439;&#x0438;&#x0447;&#x0430; &#x043e;&#x043b;&#x0434;&#x0438;&#x043d;&#x0433;&#x0438; &#x0439;</tspan></text>
</g>
<g id="Layer-1" data-name="P">
<text xml:space="preserve" transform="matrix(1 0 -0 1 0 842.25)" font-size="14.275" font-family="Times New Roman"><tspan y="-300.28" x="273.35 280.84437 287.59645 295.83314 302.5852 310.0653 316.81739 324.31175 332.54844 339.3005 346.79487 357.31556 364.06764 371.54774 378.2998 386.5365 393.28858 400.76869 410.5185 416.514 423.26609 430.76045 436.74168 444.23603 452.47273 458.4682 465.22029 472.71464 480.20899 488.44569 497.48176 503.4487 510.94306 518.42318 525.90328 533.39767 540.1497 546.1452 553.6253 560.3774">&#x0438;&#x043b; &#x0443;&#x0447;&#x0443;&#x043d; &#x049b;&#x0438;&#x0448;&#x043b;&#x043e;&#x049b; &#x0445;&#x045e;&#x0436;&#x0430;&#x043b;&#x0438;&#x0433;&#x0438; &#x044d;&#x043a;&#x0438;&#x043d; &#x043c;&#x0430;&#x0439;&#x0434;&#x043e;&#x043d;&#x043b;&#x0430;&#x0440;&#x0438; </tspan></text>
<path transform="matrix(1,0,0,-1,0,842.25)" d="M 69.85 280 L 562.45 280 L 562.45 295.75 L 69.85 295.75 Z " fill="#ffffff" fill-rule="evenodd"/>
</g>
<g id="Layer-1" data-name="P">
<text xml:space="preserve" transform="matrix(1 0 -0 1 0 842.25)" font-size="14.275" font-family="Times New Roman"><tspan y="-283.75" x="71.35 77.3455 84.82559 90.0788 97.55889 105.05326 111.79105 118.54313 126.02323 132.01873 137.99996 145.49434 149.9767 159.01277 164.97972 172.45983 179.2119 185.96398 195.00005 202.4516 208.4471 215.19918 221.19467 228.67478 233.15714 240.63724 246.63274 253.37053 260.13688 266.1324 272.1279 276.61027 283.34806 289.34358 295.33909 301.3346 308.82896 315.56675 321.56227 329.0566 335.8087 341.8042 346.28657 355.32264 361.28959 368.76969 375.52177 382.27384 391.3099 398.76148 404.757 411.50907 417.50459 424.98469 432.47904 436.9614 442.9569 448.95243 455.7045 462.4423 469.93666 477.41673 483.41224 487.8946 493.8901 501.38447 508.8788 515.6309 522.383 528.3785 535.87289 541.86837 549.34848 556.84286 559.8406">&#x0442;&#x045e;&#x0493;&#x0440;&#x0438;&#x0441;&#x0438;&#x0434;&#x0430;&#x0433;&#x0438; &#x043c;&#x0430;&#x044a;&#x043b;&#x0443;&#x043c;&#x043e;&#x0442;&#x043b;&#x0430;&#x0440; &#x0434;&#x0430;&#x0432;&#x043b;&#x0430;&#x0442; &#x0441;&#x0442;&#x0430;&#x0442;&#x0438;&#x0441;&#x0442;&#x0438;&#x043a;&#x0430; &#x043c;&#x0430;&#x044a;&#x043b;&#x0443;&#x043c;&#x043e;&#x0442;&#x043b;&#x0430;&#x0440;&#x0438; &#x0430;&#x0441;&#x043e;&#x0441;&#x0438;&#x0434;&#x0430; &#x0430;&#x043d;&#x0438;&#x049b;&#x043b;&#x0430;&#x043d;&#x0430;&#x0434;&#x0438;. </tspan></text>
<path transform="matrix(1,0,0,-1,0,842.25)" d="M 69.85 263.47 L 562.45 263.47 L 562.45 279.995 L 69.85 279.995 Z " fill="#ffffff" fill-rule="evenodd"/>
</g>
<g id="Layer-1" data-name="P">
<text xml:space="preserve" transform="matrix(1 0 -0 1 0 842.25)" font-size="14.275" font-family="Times New Roman"><tspan y="-267.97" x="71.35 83.36955 89.36506 96.84515 103.59723 110.349308 119.385379 126.83692 132.83243 139.5845 145.58 153.0601 165.82196 172.55977 178.55527 184.55077 190.54627 198.04065 204.77846 210.77396 218.26834 225.02042 231.01592 243.77777 251.25788 258.73799 264.7192 270.71473 278.20909 284.96116 290.95668 298.43678 305.93113 318.693 323.9462 331.4263 339.67726 347.15736 354.6517 362.14607 369.62614 375.62165 383.116 395.87788 403.35798 410.85234 418.33244 424.31367 430.30918 437.06126 444.54133 450.53684 456.51805 463.2701 469.26564 476.7457 481.9989 488.7367 494.7322 501.48429 508.9644 521.72628 529.20639 535.20187 541.93966 548.706 554.7015 559.95468">&#x041c;&#x0430;&#x044a;&#x043b;&#x0443;&#x043c;&#x043e;&#x0442;&#x043b;&#x0430;&#x0440; &#x0441;&#x0442;&#x0430;&#x0442;&#x0438;&#x0441;&#x0442;&#x0438;&#x043a;&#x0430; &#x043e;&#x0440;&#x0433;&#x0430;&#x043d;&#x043b;&#x0430;&#x0440;&#x0438; &#x0442;&#x043e;&#x043c;&#x043e;&#x043d;&#x0438;&#x0434;&#x0430;&#x043d; &#x00ab;&#x0415;&#x0440;&#x0433;&#x0435;&#x043e;&#x0434;&#x0435;&#x0437;&#x043a;&#x0430;&#x0434;&#x0430;&#x0441;&#x0442;&#x0440;&#x00bb; &#x0434;&#x0430;&#x0432;&#x043b;&#x0430;&#x0442; </tspan></text>
<path transform="matrix(1,0,0,-1,0,842.25)" d="M 69.85 247.72 L 562.45 247.72 L 562.45 263.47 L 69.85 263.47 Z " fill="#ffffff" fill-rule="evenodd"/>
</g>
<g id="Layer-1" data-name="P">
<text xml:space="preserve" transform="matrix(1 0 -0 1 0 842.25)" font-size="14.275" font-family="Times New Roman"><tspan y="-251.47" x="71.35 78.10207 85.58217 94.61824 102.08406 108.07956 114.075069 120.81286 128.30724 134.28847 140.28397 151.54695 158.29903 164.29453 171.0466 182.30959 189.80397 197.29836 204.05043 211.54482 222.8078 229.55988 240.82286 246.81836 254.31275 261.79286 267.78837 274.54045 280.52168 286.51719 293.99729 299.9928 311.25578 317.25129 323.2468 329.99888 337.47895 344.9733 354.00938 365.22953 371.225 377.22053 384.71488 391.46696 397.46247 404.94255 412.4369">&#x049b;&#x045e;&#x043c;&#x0438;&#x0442;&#x0430;&#x0441;&#x0438;&#x0433;&#x0430; &#x04b3;&#x0430;&#x0440; &#x0439;&#x0438;&#x043b;&#x0438; 1 &#x0430;&#x043f;&#x0440;&#x0435;&#x043b;&#x0433;&#x0430;&#x0447;&#x0430; &#x0442;&#x0430;&#x049b;&#x0434;&#x0438;&#x043c; &#x044d;&#x0442;&#x0438;&#x043b;&#x0430;&#x0434;&#x0438;.</tspan></text>
</g>
<g id="Layer-1" data-name="P">
<text xml:space="preserve" transform="matrix(1 0 -0 1 0 842.25)" font-size="14.275" font-family="Times New Roman"><tspan y="-251.47" x="416.77"> </tspan></text>
</g>
<g id="Layer-1" data-name="P">
<text xml:space="preserve" transform="matrix(1 0 -0 1 0 842.25)" font-size="14.275" font-family="Times New Roman"><tspan y="-251.47" x="428.05 437.7998 443.79533 449.77656 455.77207 463.26643 474.5294 482.02375 489.5181 496.27018 503.75025 509.74577 515.727 522.47909 533.742 539.7375 546.48959 553.98397 560.736">&#x040e;&#x0442;&#x0433;&#x0430;&#x043d; &#x0439;&#x0438;&#x043b;&#x0434;&#x0430;&#x0433;&#x0438; &#x044d;&#x043a;&#x0438;&#x043d; </tspan></text>
<path transform="matrix(1,0,0,-1,0,842.25)" d="M 69.85 231.2 L 562.45 231.2 L 562.45 247.72499 L 69.85 247.72499 Z " fill="#ffffff" fill-rule="evenodd"/>
</g>
<g id="Layer-1" data-name="P">
<text xml:space="preserve" transform="matrix(1 0 -0 1 0 842.25)" font-size="14.275" font-family="Times New Roman"><tspan y="-235.7" x="71.35 80.38607 86.35302 93.84739 101.32749 108.80759 116.301959 123.05403 129.04953 136.52964 144.02402 150.76183 156.01503 163.49514 168.74834 176.22844 183.72283 190.46063 197.2127 204.69281 210.68831 216.66954 224.16393 230.90174 239.9378 245.90476 253.38486 260.13694 266.889 275.13996 282.62007 288.61558 295.36766 301.36317 308.84327 315.58106 324.61714 330.58409 337.32188 347.08598 353.83805 361.3181 368.0559 374.80799 382.2881 389.04017 398.07624 404.04319 410.0244 416.01994 423.51429 430.25209 436.2476 442.2431 448.99519 456.47526 463.22734 470.70744 478.1875 484.183 490.9208 500.67063 505.9238 513.4039 519.39938 526.1514 533.6458 540.3836 545.6368 553.1169 559.86898">&#x043c;&#x0430;&#x0439;&#x0434;&#x043e;&#x043d;&#x043b;&#x0430;&#x0440;&#x0438; &#x0442;&#x045e;&#x0493;&#x0440;&#x0438;&#x0441;&#x0438;&#x0434;&#x0430;&#x0433;&#x0438; &#x043c;&#x0430;&#x044a;&#x043b;&#x0443;&#x043c;&#x043e;&#x0442;&#x043b;&#x0430;&#x0440; &#x043c;&#x0430;&#x0432;&#x0436;&#x0443;&#x0434; &#x0431;&#x045e;&#x043b;&#x043c;&#x0430;&#x0433;&#x0430;&#x043d; &#x0442;&#x0430;&#x049b;&#x0434;&#x0438;&#x0440;&#x0434;&#x0430; &#x040e;&#x0437;&#x0431;&#x0435;&#x043a;&#x0438;&#x0441;&#x0442;&#x043e;&#x043d; </tspan></text>
<path transform="matrix(1,0,0,-1,0,842.25)" d="M 69.85 215.45 L 562.45 215.45 L 562.45 231.2 L 69.85 231.2 Z " fill="#ffffff" fill-rule="evenodd"/>
</g>
<g id="Layer-1" data-name="P">
<text xml:space="preserve" transform="matrix(1 0 -0 1 0 842.25)" font-size="14.275" font-family="Times New Roman"><tspan y="-219.2" x="71.35 79.58667 85.58218 92.31997 99.81434 106.566417 114.04652 120.79859 128.29297 135.04505 141.04055 147.77835 154.53043 159.01279 168.74834 176.24272 186.7634 193.51548 200.99558 206.99108 211.47344 218.21123 224.22101 227.96106 234.69887 241.45095 248.18874 252.68537 259.43745 266.91755 276.66737 282.66288 289.41496 296.9093 302.89054 309.6426 314.12498 320.86277 326.87254 332.85374 339.6058 347.0859 353.83799 361.33235 367.31358 374.80793 382.30229 389.79664 397.291 402.5442 407.02656 416.06263 423.52845 431.0228 437.0183 443.01383 449.7659 455.7614 462.4992 470.00785 477.5022 481.98457 488.73664 496.21675 502.9688 510.46318 517.9575 526.9936 532.9605 539.7126 545.70809 553.1882 559.94027">&#x0420;&#x0435;&#x0441;&#x043f;&#x0443;&#x0431;&#x043b;&#x0438;&#x043a;&#x0430;&#x0441;&#x0438; &#x049a;&#x0438;&#x0448;&#x043b;&#x043e;&#x049b; &#x0432;&#x0430; &#x0441;&#x0443;&#x0432; &#x0445;&#x045e;&#x0436;&#x0430;&#x043b;&#x0438;&#x0433;&#x0438; &#x0432;&#x0430;&#x0437;&#x0438;&#x0440;&#x043b;&#x0438;&#x0433;&#x0438;&#x043d;&#x0438;&#x043d;&#x0433; &#x043c;&#x0438;&#x043d;&#x0442;&#x0430;&#x049b;&#x0430;&#x0432;&#x0438;&#x0439; &#x0431;&#x045e;&#x043b;&#x0438;&#x043d;&#x043c;&#x0430;&#x043b;&#x0430;&#x0440;&#x0438; </tspan></text>
<path transform="matrix(1,0,0,-1,0,842.25)" d="M 69.85 198.92 L 562.45 198.92 L 562.45 215.44499 L 69.85 215.44499 Z " fill="#ffffff" fill-rule="evenodd"/>
</g>
<g id="Layer-1" data-name="P">
<text xml:space="preserve" transform="matrix(1 0 -0 1 0 842.25)" font-size="14.275" font-family="Times New Roman"><tspan y="-203.42" x="71.35 77.3455 84.82559 93.861667 101.31321 108.80758 115.559658 123.03976 129.03525 136.52964 140.26969 146.26519 152.26068 159.01276 166.49286 173.98725 183.02332 186.72055 192.71605 198.71155 206.20594 212.95801 218.93924 224.93474 232.42913 236.16918 245.20525 251.1722 258.65229 265.40437 272.15644 281.1925 288.64408 294.6396 301.39167 307.38719 314.86729 322.36164 326.10169 332.85377 340.33387 347.82823 355.32258 362.80268 368.7982 372.53825 381.53147 388.28355 395.76365 403.258 410.75236 414.4924 421.98677 429.4811 436.2332 443.71327 449.70878 453.44883 460.2009 467.69526 478.21595 484.96803 492.44813 499.2002 502.94026 509.69233 517.1724 526.92227 532.9177 539.6698 547.1642 553.1454 559.89749">&#x0442;&#x043e;&#x043c;&#x043e;&#x043d;&#x0438;&#x0434;&#x0430;&#x043d; &#x0442;&#x0430;&#x049b;&#x0434;&#x0438;&#x043c; &#x044d;&#x0442;&#x0438;&#x043b;&#x0433;&#x0430;&#x043d; &#x043c;&#x0430;&#x044a;&#x043b;&#x0443;&#x043c;&#x043e;&#x0442;&#x043b;&#x0430;&#x0440;&#x0438; &#x0431;&#x045e;&#x0439;&#x0438;&#x0447;&#x0430; &#x0436;&#x043e;&#x0440;&#x0438;&#x0439; &#x0439;&#x0438;&#x043b;&#x0434;&#x0430; &#x049b;&#x0438;&#x0448;&#x043b;&#x043e;&#x049b; &#x0445;&#x045e;&#x0436;&#x0430;&#x043b;&#x0438;&#x0433;&#x0438; </tspan></text>
<path transform="matrix(1,0,0,-1,0,842.25)" d="M 69.85 183.15 L 562.45 183.15 L 562.45 198.92499 L 69.85 198.92499 Z " fill="#ffffff" fill-rule="evenodd"/>
</g>
<g id="Layer-1" data-name="P">
<text xml:space="preserve" transform="matrix(1 0 -0 1 0 842.25)" font-size="14.275" font-family="Times New Roman"><tspan y="-186.9" x="71.35 77.345508 84.09758 91.59195 99.08632 105.838397 111.8339 119.313999 126.808368 134.30275 141.79714 152.30355 162.05338 169.53348 177.02787 183.77994 189.77544 200.29611 206.29161 213.786 221.2661 228.76049 239.28116 249.78757 257.26768 263.26319 273.013 279.0085 285.7463 293.24067 299.2219 305.2174 315.72383 324.7599 331.46916 337.46464 344.94474 353.938 361.43235">&#x044d;&#x043a;&#x0438;&#x043d;&#x043b;&#x0430;&#x0440;&#x0438;&#x043d;&#x0438; &#x0436;&#x043e;&#x0439;&#x043b;&#x0430;&#x0448;&#x0442;&#x0438;&#x0440;&#x0438;&#x0448; &#x0440;&#x0435;&#x0436;&#x0430;&#x0441;&#x0438;&#x0433;&#x0430; &#x043c;&#x0443;&#x0432;&#x043e;&#x0444;&#x0438;&#x049b;</tspan></text>
</g>
<g id="Layer-1" data-name="P">
<text xml:space="preserve" transform="matrix(1 0 -0 1 0 842.25)" font-size="14.275" font-family="Times New Roman"><tspan y="-186.9" x="368.73"> </tspan></text>
</g>
<g id="Layer-1" data-name="P">
<text xml:space="preserve" transform="matrix(1 0 -0 1 0 842.25)" font-size="14.275" font-family="Times New Roman"><tspan y="-186.9" x="379.23 385.2255 391.97758 399.47193 406.96629 417.4727 426.50877 432.4757 439.97007 446.72215 454.20225 461.6966 468.44868 474.44419 481.9243 489.41865 499.92506 505.92057 512.6726 518.6538 526.1482 532.90029 541.93637 547.14669 553.88449 560.63656">&#x044d;&#x043a;&#x0438;&#x043d; &#x043c;&#x0430;&#x0439;&#x0434;&#x043e;&#x043d;&#x043b;&#x0430;&#x0440;&#x0438; &#x0442;&#x0443;&#x0437;&#x0438;&#x043b;&#x043c;&#x0430;&#x0441;&#x0438; </tspan></text>
<path transform="matrix(1,0,0,-1,0,842.25)" d="M 69.85 166.65 L 562.45 166.65 L 562.45 183.15 L 69.85 183.15 Z " fill="#ffffff" fill-rule="evenodd"/>
</g>
<g id="Layer-1" data-name="P">
<text xml:space="preserve" transform="matrix(1 0 -0 1 0 842.25)" font-size="14.275" font-family="Times New Roman"><tspan y="-171.15" x="71.35 78.10207 85.58217 92.33424 99.08632 105.081829 112.576198 120.070568 126.82264 132.81813 140.29824 147.79262">&#x049b;&#x045e;&#x043b;&#x043b;&#x0430;&#x043d;&#x0438;&#x043b;&#x0430;&#x0434;&#x0438;.</tspan></text>
</g>
<g id="Layer-1" data-name="P">
<text xml:space="preserve" transform="matrix(1 0 -0 1 0 842.25)" font-size="14.275" font-family="Times New Roman"><tspan y="-171.15" x="151.7"> </tspan></text>
</g>
<g id="Layer-1" data-name="P">
<text xml:space="preserve" transform="matrix(1 0 -0 1 0 842.25)" font-size="14.275" font-family="Times New Roman"><tspan y="-171.15" x="155.45"> </tspan></text>
</g>
<g id="Layer-1" data-name="P">
<path transform="matrix(1,0,0,-1,0,842.25)" d="M 69.85 150.88 L 562.45 150.88 L 562.45 166.655 L 69.85 166.655 Z " fill="#ffffff" fill-rule="evenodd"/>
</g>
<g id="Layer-1" data-name="P">
<text xml:space="preserve" transform="matrix(1 0 -0 1 0 842.25)" font-size="14.275" font-family="Times New Roman"><tspan y="-154.63" x="106.62 116.35555 123.84992 134.3706 141.12268 148.60279 155.35486 162.09267 168.84474 176.32485 186.07468 192.07018 198.82225 206.31664 212.29787 219.79225 226.53006 235.56613 241.53308 248.28516 255.02297 261.77503 268.5271 276.0072 282.00273 288.7548 294.7503 302.2304 309.72477 317.21913 324.71348 332.20783 338.18907 344.92686 350.18006 356.91786 363.66993 370.4077 377.90208 385.39643 392.13423 398.12974 404.8818 412.3619 419.11399 425.1095 432.5896 440.08396 446.0652 453.54527 461.02537 468.5197 475.2718 482.7519 488.7474 495.4852 504.47846 511.95857 518.71066 526.19076 532.1862 539.6806 547.175 554.6694 559.92257">&#x049a;&#x0438;&#x0448;&#x043b;&#x043e;&#x049b; &#x0445;&#x045e;&#x0436;&#x0430;&#x043b;&#x0438;&#x0433;&#x0438; &#x043c;&#x0430;&#x04b3;&#x0441;&#x0443;&#x043b;&#x043e;&#x0442;&#x043b;&#x0430;&#x0440;&#x0438;&#x043d;&#x0438;&#x043d;&#x0433; &#x0430;&#x0441;&#x043e;&#x0441;&#x0438;&#x0439; &#x0442;&#x0443;&#x0440;&#x043b;&#x0430;&#x0440;&#x0438; &#x0431;&#x045e;&#x0439;&#x0438;&#x0447;&#x0430; &#x0444;&#x043e;&#x0439;&#x0434;&#x0430;&#x043d;&#x0438;&#x043d;&#x0433; </tspan></text>
<path transform="matrix(1,0,0,-1,0,842.25)" d="M 69.85 134.38 L 562.45 134.38 L 562.45 150.88 L 69.85 150.88 Z " fill="#ffffff" fill-rule="evenodd"/>
</g>
<g id="Layer-1" data-name="P">
<text xml:space="preserve" transform="matrix(1 0 -0 1 0 842.25)" font-size="14.275" font-family="Times New Roman"><tspan y="-138.88" x="71.35 78.10207 85.59644 92.334239 99.08631 106.566417 113.31849 119.31399 126.79409 135.03076 142.51087 150.00525 156.75733 164.25171 171.00379 176.98502 182.98052 190.4749 198.71158 207.74765 215.21349 221.96556 229.44567 236.19774 243.67784 251.17223 259.4089 266.16099 273.65534 284.17604 290.9281 298.4082 305.16029 313.39698 320.14906 327.62916 337.37898 343.37449 350.12657 357.6209 363.60215 371.0965 379.3332 385.32868 392.08076 399.5751 407.06947 415.30616 425.0417 431.0372 438.53157 446.01164 453.49174 460.98609 467.73817 473.73368 481.21379 488.70814 496.94483 503.68263 511.17698 520.1702 526.1657 532.1612 539.6556 547.1357 553.13119 559.88327">&#x04b3;&#x0438;&#x0441;&#x043e;&#x0431;&#x043b;&#x0430;&#x0431; &#x0447;&#x0438;&#x049b;&#x0438;&#x043b;&#x0433;&#x0430;&#x043d; &#x043c;&#x0438;&#x049b;&#x0434;&#x043e;&#x0440;&#x0438; &#x049b;&#x0438;&#x0448;&#x043b;&#x043e;&#x049b; &#x0445;&#x045e;&#x0436;&#x0430;&#x043b;&#x0438;&#x0433;&#x0438; &#x044d;&#x043a;&#x0438;&#x043d; &#x043c;&#x0430;&#x0439;&#x0434;&#x043e;&#x043d;&#x043b;&#x0430;&#x0440;&#x0438; &#x0441;&#x0438;&#x0444;&#x0430;&#x0442;&#x0438;&#x0434;&#x0430;&#x043d; </tspan></text>
<path transform="matrix(1,0,0,-1,0,842.25)" d="M 69.85 118.6 L 562.45 118.6 L 562.45 134.375 L 69.85 134.375 Z " fill="#ffffff" fill-rule="evenodd"/>
</g>
<g id="Layer-1" data-name="P">
<text xml:space="preserve" transform="matrix(1 0 -0 1 0 842.25)" font-size="14.275" font-family="Times New Roman"><tspan y="-122.35" x="71.35 78.10207 84.09757 90.84965 98.34402 105.82412 119.32827 126.80837 134.30275 141.05483 148.54921 156.02931 169.53347 177.78441 185.26451 192.7589 198.74013 205.4922 211.4877 218.23978 225.71988 231.71538 245.21953 254.2556 260.22254 266.9746 273.7124 280.46449 287.21656 294.69667 300.69218 314.19633 320.9484 328.44276 335.9371 344.97319 350.94013 356.93565 364.43 370.41123 376.40675 389.9109 396.64869 402.65846 416.1626 422.1581 428.9102 437.94627 443.9132 451.40757 464.9117 472.39179 479.8719 487.36625 494.11833 501.59843 507.59394 521.0981 527.85018 535.33029 541.32577 547.3212 554.80136 560.0545">&#x043a;&#x0435;&#x043b;&#x0438;&#x0431; &#x0447;&#x0438;&#x049b;&#x0438;&#x0431; &#x0444;&#x043e;&#x0438;&#x0437;&#x043b;&#x0430;&#x0440;&#x0434;&#x0430; &#x043c;&#x0430;&#x04b3;&#x0441;&#x0443;&#x043b;&#x043e;&#x0442; &#x049b;&#x0438;&#x0439;&#x043c;&#x0430;&#x0442;&#x0438;&#x0433;&#x0430; &#x0432;&#x0430; &#x0442;&#x0443;&#x043c;&#x0430;&#x043d; &#x0431;&#x045e;&#x0439;&#x0438;&#x0447;&#x0430; &#x045e;&#x0440;&#x0442;&#x0430;&#x0447;&#x0430; </tspan></text>
<path transform="matrix(1,0,0,-1,0,842.25)" d="M 69.85 102.08 L 562.45 102.08 L 562.45 118.605 L 69.85 118.605 Z " fill="#ffffff" fill-rule="evenodd"/>
</g>
<g id="Layer-1" data-name="P">
<text xml:space="preserve" transform="matrix(1 0 -0 1 0 842.25)" font-size="14.275" font-family="Times New Roman"><tspan y="-106.6" x="71.35 77.3455 84.09757 91.59194 99.07204 106.55213 113.30421 120.05628 126.05178 133.53189 141.02628 148.52066 156.01505 161.99628 170.97527 177.72734 183.72284 191.20294">&#x0442;&#x0443;&#x043f;&#x0440;&#x043e;&#x049b;&#x043b;&#x0430;&#x0440;&#x043d;&#x0438;&#x043d;&#x0433; &#x04b3;&#x0430;&#x0440; </tspan></text>
</g>
<g id="Layer-1" data-name="P">
<text xml:space="preserve" transform="matrix(1 0 -0 1 0 842.25)" font-size="14.275" font-family="Times New Roman"><tspan y="-106.6" x="200.5 207.25208 214.74646 222.22657 231.20555 237.95763 244.7097 250.7052 256.7007 263.4385 270.93287 279.91184 286.6639 294.144 301.63838 309.13273 316.61283 322.60835 331.5873 340.62339 346.59034 353.3424 360.0802 366.83229 373.58436 381.06446 387.05998 393.81205 399.80757 407.28767 414.782 422.27638 431.25535 437.25086 443.24638 450.74073 461.2614 467.25694 474.75129 482.23139 489.72575 500.24644 506.22767 512.22317 521.2021 527.95419 535.43429 541.42977 547.42526 554.90536 560.1585">&#x0431;&#x0438;&#x0440; &#x043a;&#x043b;&#x0430;&#x0441;&#x0441;&#x0438; &#x0431;&#x045e;&#x0439;&#x0438;&#x0447;&#x0430; &#x043c;&#x0430;&#x04b3;&#x0441;&#x0443;&#x043b;&#x043e;&#x0442;&#x043b;&#x0430;&#x0440;&#x043d;&#x0438; &#x0435;&#x0442;&#x0438;&#x0448;&#x0442;&#x0438;&#x0440;&#x0438;&#x0448;&#x0433;&#x0430; &#x045e;&#x0440;&#x0442;&#x0430;&#x0447;&#x0430; </tspan></text>
<path transform="matrix(1,0,0,-1,0,842.25)" d="M 69.85 86.325 L 562.45 86.325 L 562.45 102.075 L 69.85 102.075 Z " fill="#ffffff" fill-rule="evenodd"/>
</g>
<g id="Layer-1" data-name="P">
<text xml:space="preserve" transform="matrix(1 0 -0 1 0 842.25)" font-size="14.275" font-family="Times New Roman"><tspan y="-90.075" x="71.35 78.10207 84.09757 91.57767 97.57317 107.323 113.318508 119.314 126.06608 132.06157 139.54167 145.5229 151.5184 163.52368 171.00379 178.48389 184.46512 191.2172 198.71158 205.46366 216.72664 224.20674 230.20224 236.94004 244.44869 254.96936 262.44944 268.44496 280.45024 289.44346 295.42466 302.90473 308.90025 315.6523 323.14668 329.88447 335.13768 342.61778 350.11213 361.3751 369.61177 375.60728 382.34507 389.83943 395.83494 403.315 410.06709 417.56144 424.3135 430.30903 437.0468 444.54118 456.54646 466.28199 473.77635 484.29704 491.0491 498.5292 504.52473 516.53 523.2678 529.2776 540.5405 547.2783 554.0304 560.0259">&#x0445;&#x0430;&#x0440;&#x0430;&#x0436;&#x0430;&#x0442;&#x043b;&#x0430;&#x0440;&#x0433;&#x0430; &#x0431;&#x043e;&#x0493;&#x043b;&#x0438;&#x049b; &#x0440;&#x0430;&#x0432;&#x0438;&#x0448;&#x0434;&#x0430; &#x040e;&#x0437;&#x0431;&#x0435;&#x043a;&#x0438;&#x0441;&#x0442;&#x043e;&#x043d; &#x0420;&#x0435;&#x0441;&#x043f;&#x0443;&#x0431;&#x043b;&#x0438;&#x043a;&#x0430;&#x0441;&#x0438; &#x049a;&#x0438;&#x0448;&#x043b;&#x043e;&#x049b; &#x0432;&#x0430; &#x0441;&#x0443;&#x0432; </tspan></text>
<path transform="matrix(1,0,0,-1,0,842.25)" d="M 69.85 70.55 L 562.45 70.55 L 562.45 86.325008 L 69.85 86.325008 Z " fill="#ffffff" fill-rule="evenodd"/>
</g>
<g id="Layer-1" data-name="P">
<text xml:space="preserve" transform="matrix(1 0 -0 1 0 842.25)" font-size="14.275" font-family="Times New Roman"><tspan y="-74.3" x="71.35 78.10207 85.58217 95.332 101.32751 108.07958 115.57395 121.555179 129.04956 143.31029 150.04808 156.05786 162.0391 169.53348 177.01358 183.76566 191.26004 197.24127 203.99335 207.7334 221.99413 234.01367 241.49378 248.24585 255.74024 262.47804 276.73878 283.47657 289.48634 295.46754 302.96189 310.442 317.19407 324.68843 330.66966 338.164 352.42475 357.67796 365.15806 373.409 380.8891 388.38346 395.8778 403.35789 409.3534 416.84776 431.1085 437.86058 445.35493 451.35044 458.83055 466.3106 473.06269 479.0582 486.53828 500.799 508.2791 515.7735 522.5256 530.01998 536.77206 542.7675 550.2476 556.9997">&#x0445;&#x045e;&#x0436;&#x0430;&#x043b;&#x0438;&#x0433;&#x0438; &#x0432;&#x0430;&#x0437;&#x0438;&#x0440;&#x043b;&#x0438;&#x0433;&#x0438;, &#x041c;&#x043e;&#x043b;&#x0438;&#x044f; &#x0432;&#x0430;&#x0437;&#x0438;&#x0440;&#x043b;&#x0438;&#x0433;&#x0438; &#x0442;&#x043e;&#x043c;&#x043e;&#x043d;&#x0438;&#x0434;&#x0430;&#x043d; &#x04b3;&#x0438;&#x0441;&#x043e;&#x0431;&#x043b;&#x0430;&#x0431; &#x0447;&#x0438;&#x049b;&#x0438;&#x043b;&#x0430;&#x0434;&#x0438;.</tspan></text>
</g>
<g id="Layer-1" data-name="P">
<text xml:space="preserve" transform="matrix(1 0 -0 1 0 842.25)" font-size="14.275" font-family="Times New Roman"><tspan y="-74.3" x="560.95"> </tspan></text>
<path transform="matrix(1,0,0,-1,0,842.25)" d="M 69.85 54.05 L 562.45 54.05 L 562.45 70.55 L 69.85 70.55 Z " fill="#ffffff" fill-rule="evenodd"/>
</g>
<g id="Layer-1" data-name="P">
<text xml:space="preserve" transform="matrix(1 0 -0 1 0 842.25)" font-size="14.275" font-family="Times New Roman"><tspan y="-58.55" x="71.35 80.32897 87.08105 94.57542 101.32749 108.80759 115.55966 122.31174 128.30724 135.78734 143.28173 150.77611 158.2705 164.25173 169.49066 175.48616 182.23824 189.71834 196.47042 203.9648 211.4449 217.4404 222.67934 230.17372 236.16922 242.90703 248.90253 254.14147 260.89353 268.38789 275.13996 284.17604 290.88526 297.63734 305.11744 311.8695 319.36387 324.60279 331.35487 338.10694 344.10246 350.84025 357.57804 364.3301 370.32563 377.80574 385.30009 389.78245 396.53453 404.01463 411.50898 419.00334 426.48344 432.47895 436.9613 443.6991 449.6946 456.4467 463.92677 471.4211 478.91548 484.1544 490.90647 498.40083 505.89518 514.9313 520.8982 526.8937 533.64578 539.64126 547.12136 554.60147 559.8546">&#x0422;&#x0443;&#x043f;&#x0440;&#x043e;&#x049b;&#x043b;&#x0430;&#x0440;&#x043d;&#x0438;&#x043d;&#x0433; &#x0430;&#x043b;&#x043e;&#x04b3;&#x0438;&#x0434;&#x0430; &#x043f;&#x0430;&#x0441;&#x0442; &#x0443;&#x043d;&#x0443;&#x043c;&#x0434;&#x043e;&#x0440;&#x043b;&#x0438; &#x043a;&#x043b;&#x0430;&#x0441;&#x0441;&#x043b;&#x0430;&#x0440;&#x0438; &#x0431;&#x045e;&#x0439;&#x0438;&#x0447;&#x0430; &#x0441;&#x0430;&#x043b;&#x0431;&#x0438;&#x0439; &#x049b;&#x0438;&#x0439;&#x043c;&#x0430;&#x0442;&#x043b;&#x0430;&#x0440;&#x0434;&#x0430; </tspan></text>
<path transform="matrix(1,0,0,-1,0,842.25)" d="M 69.85 38.275 L 562.45 38.275 L 562.45 54.050004 L 69.85 54.050004 Z " fill="#ffffff" fill-rule="evenodd"/>
</g>
<g id="Layer-1" data-name="P">
<text xml:space="preserve" transform="matrix(1 0 -0 1 0 842.25)" font-size="14.275" font-family="Times New Roman"><tspan y="-42.025" x="71.35">&#x0444;</tspan></text>
</g>
<g id="Layer-1" data-name="P">
<text xml:space="preserve" transform="matrix(1 0 -0 1 0 842.25)" font-size="14.275" font-family="Times New Roman"><tspan y="-42.025" x="80.35 87.83009 95.32446 101.30569 108.05776 114.05326 120.805339 128.28543 134.28093 141.76103 150.75429 158.23439 165.72878 173.20888 179.20438 186.69876 194.19315 201.68753 207.66876 215.14887 221.90094 229.39533 235.39083 242.87093 250.35103 257.1031 263.0986 270.57868 278.05879 285.53889 293.03324 299.7853 307.27967 314.03175 320.01298 326.00849 333.50285 340.98295 350.019 357.48484 364.2369 370.98899 378.4691 385.9492 393.44355 400.92366 408.40376 415.15583 422.65019 430.14454 436.12577 442.12129 449.61564 457.09574 463.09126 469.08677 475.83885 483.3189 490.81327 497.56535 505.0454 511.04093 518.52108 525.25888 531.25436 538.0064 545.4865 552.9809 559.733">&#x043e;&#x0438;&#x0437;&#x043b;&#x0430;&#x0440;&#x0434;&#x0430; &#x0444;&#x043e;&#x0439;&#x0434;&#x0430;&#x043d;&#x0438;&#x043d;&#x0433; &#x04b3;&#x0438;&#x0441;&#x043e;&#x0431;&#x043b;&#x0430;&#x0431; &#x0447;&#x0438;&#x049b;&#x0438;&#x043b;&#x0433;&#x0430;&#x043d; &#x043c;&#x0438;&#x049b;&#x0434;&#x043e;&#x0440;&#x0438; &#x043e;&#x043b;&#x0438;&#x043d;&#x0433;&#x0430;&#x043d; &#x0442;&#x0430;&#x049b;&#x0434;&#x0438;&#x0440;&#x0434;&#x0430; &#x0441;&#x0430;&#x043b;&#x0431;&#x0438;&#x0439; </tspan></text>
</g>
</g>
</g>
</svg>
