<?xml version="1.0" encoding="UTF-8" standalone="no"?>
<!DOCTYPE svg PUBLIC "-//W3C//DTD SVG 1.1//EN" "http://www.w3.org/Graphics/SVG/1.1/DTD/svg11.dtd">
<svg xmlns="http://www.w3.org/2000/svg" xmlns:xlink="http://www.w3.org/1999/xlink" version="1.1" width="595.5pt" height="842.25pt" viewBox="0 0 595.5 842.25">
<g enable-background="new">
<g>
<g id="Layer-1" data-name="Artifact">
<text xml:space="preserve" transform="matrix(1 0 -0 1 0 842.25)" font-size="9.75" font-family="Times New Roman"><tspan y="-797.95" x="71.35"> </tspan></text>
</g>
<g id="Layer-1" data-name="P">
<text xml:space="preserve" transform="matrix(1 0 -0 1 0 842.25)" font-size="14.275" font-family="Times New Roman,Bold" font-weight="bold"><tspan y="-782.95" x="316.15"> </tspan></text>
</g>
<g id="Layer-1" data-name="P">
<text xml:space="preserve" transform="matrix(1 0 -0 1 0 842.25)" font-size="14.275" font-family="Times New Roman,Bold" font-weight="bold"><tspan y="-767.17" x="156.95 166.68555 174.17993 182.4166 189.8967 197.39109 205.61348 213.1364 221.3588">&#x0415;&#x0440;&#x043b;&#x0430;&#x0440;&#x043d;&#x0438;&#x043d;&#x0433;</tspan></text>
<text xml:space="preserve" transform="matrix(1 0 -0 1 0 842.25)" font-size="14.275" font-family="Times New Roman,Bold" font-weight="bold"><tspan y="-767.17" x="227.55"> </tspan></text>
<text xml:space="preserve" transform="matrix(1 0 -0 1 0 842.25)" font-size="14.275" font-family="Times New Roman,Bold" font-weight="bold"><tspan y="-767.17" x="231.3 238.05208 245.53218 250.78539 258.26548 265.75984 269.49989 277.7223 285.24525 293.46766 302.48948 309.96958 316.72166 324.94407 333.2093 341.4317 344.458 351.21009 358.6902 365.44227 372.19435 380.431 387.9111 399.18836 405.18385 412.66395 416.404 423.89839 432.1208 438.14485 444.8969 452.377 459.1291 466.6092">&#x0431;&#x043e;&#x0437;&#x043e;&#x0440; &#x049b;&#x0438;&#x0439;&#x043c;&#x0430;&#x0442;&#x0438;&#x043d;&#x0438; &#x0431;&#x0430;&#x04b3;&#x043e;&#x043b;&#x0430;&#x0448;&#x0433;&#x0430; &#x043d;&#x0438;&#x0441;&#x0431;&#x0430;&#x0442;&#x0430;&#x043d;</tspan></text>
<text xml:space="preserve" transform="matrix(1 0 -0 1 0 842.25)" font-size="14.275" font-family="Times New Roman,Bold" font-weight="bold"><tspan y="-767.17" x="474.6"> </tspan></text>
</g>
<g id="Layer-1" data-name="P">
<text xml:space="preserve" transform="matrix(1 0 -0 1 0 842.25)" font-size="14.275" font-family="Times New Roman,Bold" font-weight="bold"><tspan y="-751.42" x="264.33 272.5524 280.81764 286.81315 293.55094 301.77336 309.2963 313.03636 319.03187 327.25428 334.03489 341.51499 352.79225 359.5443">&#x049b;&#x0438;&#x0451;&#x0441;&#x0438;&#x0439; &#x0451;&#x043d;&#x0434;&#x0430;&#x0448;&#x0443;&#x0432;</tspan></text>
<text xml:space="preserve" transform="matrix(1 0 -0 1 0 842.25)" font-size="8.25" font-family="Times New Roman,Bold" font-weight="bold"><tspan y="-751.42" x="367.23"> </tspan></text>
</g>
<g id="Layer-1" data-name="P">
<text xml:space="preserve" transform="matrix(1 0 -0 1 0 842.25)" font-size="8.25" font-family="Times New Roman,Bold" font-weight="bold"><tspan y="-739.4" x="316.15"> </tspan></text>
</g>
<g id="Layer-1" data-name="P">
<text xml:space="preserve" transform="matrix(1 0 -0 1 0 842.25)" font-size="14.275" font-family="Times New Roman"><tspan y="-725.9" x="99.875 108.125949 115.60604 120.08839 126.84046 134.32056 140.31606 147.05387 153.04936 159.80144 165.79694 172.54901 178.54451 186.02462 193.519 201.01338 208.50777 216.00215 221.98339 226.46575 233.94585 240.69792 246.67916 253.43123 260.91133 265.39369 272.14576 279.6401 287.13447 296.17054 302.13749 308.133 315.62736 323.1217 330.61607 335.09843 342.5785 348.574 355.32609 362.80619 369.55827 375.55378 386.07447 392.0557 398.0512 402.53358 410.02793 417.52229 424.26008 431.74015 437.73567 443.73118 449.72669 457.22105 461.7034 468.45549 475.94984 481.94535 488.68315 496.1775 503.67185 508.1542 514.1497 521.6441 529.1242 535.1197 546.3827 553.13479 559.87258">&#x0415;&#x0440; &#x0443;&#x0447;&#x0430;&#x0441;&#x0442;&#x043a;&#x0430;&#x043b;&#x0430;&#x0440;&#x0438;&#x043d;&#x0438;&#x043d;&#x0433; &#x0431;&#x043e;&#x0437;&#x043e;&#x0440; &#x049b;&#x0438;&#x0439;&#x043c;&#x0430;&#x0442;&#x0438;&#x043d;&#x0438; &#x0431;&#x0430;&#x0445;&#x043e;&#x043b;&#x0430;&#x0448;&#x0433;&#x0430; &#x043d;&#x0438;&#x0441;&#x0431;&#x0430;&#x0442;&#x0430;&#x043d; &#x049b;&#x0438;&#x0451;&#x0441;&#x0438;&#x0439; &#x0451;&#x043d;&#x0434;&#x0430;&#x0448;&#x0443;&#x0432; </tspan></text>
<text xml:space="preserve" transform="matrix(1 0 -0 1 0 842.25)" font-size="14.275" font-family="Times New Roman"><tspan y="-709.38" x="71.35 78.10207 84.09757 91.57767 99.07204 106.55214 113.304218 120.78431 124.52436 132.00447 139.48458 146.97896 152.97446">&#x0445;&#x0430;&#x0440;&#x0438;&#x0434;&#x043e;&#x0440; &#x043e;&#x0447;&#x0438;&#x049b; </tspan></text>
<text xml:space="preserve" transform="matrix(1 0 -0 1 0 842.25)" font-size="14.275" font-family="Times New Roman"><tspan y="-709.38" x="157.7 164.45207 171.93218 177.18538 183.93746 191.41756 195.89992 206.4206 212.41609 219.16817 226.64827 234.14266 240.13816 247.63254 255.11264 261.10816 265.5905 271.58604 279.06614 283.5485 289.544 297.0241 303.01963 309.75743 315.75294 322.505 328.50053 335.2383 342.73268 350.22703 356.9791 361.46147 368.21354 378.73423 386.2143 392.96638 397.44874 404.9288 411.68089 416.93406 424.41416 431.16624 438.6463 444.6418 448.38188 455.86198 462.61405 473.13475 479.13026 489.65095 494.1333 500.88539 508.36549 514.36099 521.09878 527.09426 533.8463 539.8418 546.5939 552.58938 560.06948">&#x0431;&#x043e;&#x0437;&#x043e;&#x0440; &#x0448;&#x0430;&#x0440;&#x043e;&#x0438;&#x0442;&#x0438;&#x0434;&#x0430; &#x0435;&#x0440; &#x0443;&#x0447;&#x0430;&#x0441;&#x0442;&#x043a;&#x0430;&#x0441;&#x0438;&#x043d;&#x0438; &#x0443;&#x0448;&#x0431;&#x0443; &#x0431;&#x043e;&#x0437;&#x043e;&#x0440;&#x0434;&#x0430; &#x045e;&#x0445;&#x0448;&#x0430;&#x0448; &#x0443;&#x0447;&#x0430;&#x0441;&#x0442;&#x043a;&#x0430;&#x043b;&#x0430;&#x0440; </tspan></text>
<text xml:space="preserve" transform="matrix(1 0 -0 1 0 842.25)" font-size="14.275" font-family="Times New Roman"><tspan y="-693.63" x="71.35 78.8301 86.310199 93.804569 100.55664 108.03674 114.03225 126.03752 136.5582 142.5537 149.30577 156.80016 163.55223 170.3043 176.2998 183.79419 189.77542 195.77092 204.0076 216.01288 223.50727 229.50276 236.98287 243.73494 249.71617 255.71166 267.71693 274.4547 281.9348 287.93034 295.42469 302.90476 314.91004 322.39015 329.1422 336.63658 347.15727 354.6516 362.14598 374.15126 386.15653 392.15205 398.14756 404.88536 412.36543 419.85978 426.61186 433.36393 440.84403 446.8395 454.3196 461.81398 473.81925 485.82453 492.5766 500.0567 507.55107 514.2889 520.28439 527.77877 535.27316 542.0252 548.76309 554.74429 559.99746">&#x0431;&#x045e;&#x0439;&#x0438;&#x0447;&#x0430; &#x0448;&#x0430;&#x043a;&#x0438;&#x043b;&#x043b;&#x0430;&#x043d;&#x0433;&#x0430;&#x043d; &#x043d;&#x0430;&#x0440;&#x0445;&#x0433;&#x0430; &#x0441;&#x043e;&#x0442;&#x0438;&#x0431; &#x043e;&#x043b;&#x0438;&#x0448;&#x043d;&#x0438;  &#x0442;&#x0430;&#x0441;&#x0434;&#x0438;&#x049b;&#x043b;&#x043e;&#x0432;&#x0447;&#x0438;  &#x043a;&#x043e;&#x043d;&#x0441;&#x0435;&#x043f;&#x0446;&#x0438;&#x044f;&#x0433;&#x0430; </tspan></text>
<text xml:space="preserve" transform="matrix(1 0 -0 1 0 842.25)" font-size="14.275" font-family="Times New Roman"><tspan y="-677.1" x="71.35 77.3455 84.08329 90.835369 97.57316 104.32523 110.32073 117.8151 124.552898 132.03299 138.78507 142.52512 148.50635 156.74303 163.4951 170.98949 178.46959 184.46509 191.95948 197.9407 204.69278 210.68828 217.44036 224.93474 232.41484 238.39608 245.87618 253.37056 260.12263 266.11814 273.5982 281.09257 287.84465 295.339 299.07905 305.06028 311.81236 322.33305 329.8131 336.5652 342.54643 349.2985 356.0363 362.78837 369.54045 375.52168 384.51493 390.51045 397.2625 403.25804 409.25355 415.23478 421.2303 428.7104 434.69163 442.1717 449.6518 454.90498 461.65705 469.13716 476.6315 482.61274 490.09284 497.5872 503.58268 511.06278 520.8126 527.5647 533.5602 541.05459 547.03579 553.03128 559.7833">&#x0430;&#x0441;&#x043e;&#x0441;&#x043b;&#x0430;&#x043d;&#x0441;&#x0434;&#x0438;. &#x0411;&#x0443;&#x043d;&#x0434;&#x0430;&#x043d; &#x043a;&#x0435;&#x043b;&#x0438;&#x0431; &#x0447;&#x0438;&#x049b;&#x0430;&#x0434;&#x0438;&#x043a;&#x0438;, &#x0443;&#x0448;&#x0431;&#x0443; &#x0443;&#x0441;&#x0443;&#x043b; &#x0444;&#x0430;&#x049b;&#x0430;&#x0442; &#x0435;&#x0440; &#x0431;&#x043e;&#x0437;&#x043e;&#x0440;&#x0438; &#x0440;&#x0438;&#x0432;&#x043e;&#x0436;&#x043b;&#x0430;&#x043d;&#x0433;&#x0430;&#x043d; </tspan></text>
<text xml:space="preserve" transform="matrix(1 0 -0 1 0 842.25)" font-size="14.275" font-family="Times New Roman"><tspan y="-661.35" x="71.35 78.83009 85.58217 96.102848 102.09835 112.619029 122.354579 128.35007 135.83017 145.56572 152.3178 159.7979 165.7934 172.5312 178.5267 185.27878 191.27428 198.02635 204.02185 211.50196 218.99634 226.49073 233.9851 241.47949 247.46073 257.1963 263.1918 270.6719 276.66743 284.16178 290.91386 298.4082 308.9289 316.42326 326.1588 333.65318 339.64869 347.12879 353.88087 360.63294 366.62846 374.10856 381.6029 391.33848 397.33399 404.8141 410.0673 417.5474 425.04176 431.77955 438.53163 446.0117 452.0072 461.74278 468.49485 475.9892 481.9847">&#x045e;&#x0445;&#x0448;&#x0430;&#x0448; &#x0435;&#x0440; &#x0443;&#x0447;&#x0430;&#x0441;&#x0442;&#x043a;&#x0430;&#x043b;&#x0430;&#x0440;&#x0438;&#x043d;&#x0438;&#x043d;&#x0433; &#x0441;&#x043e;&#x0442;&#x0438;&#x043b;&#x0438;&#x0448;&#x0438; &#x043d;&#x0430;&#x0440;&#x0445;&#x043b;&#x0430;&#x0440;&#x0438; &#x0442;&#x045e;&#x0493;&#x0440;&#x0438;&#x0441;&#x0438;&#x0434;&#x0430; &#x049b;&#x0438;&#x0451;&#x0441;</tspan></text>
<text xml:space="preserve" transform="matrix(1 0 -0 1 0 842.25)" font-size="14.275" font-family="Times New Roman"><tspan y="-661.35" x="489.63 497.12437 504.6187 514.35427 520.34976 527.1018 534.5819 541.334 548.08609 555.56619 560.81936">&#x0438;&#x0439; &#x0430;&#x0445;&#x0431;&#x043e;&#x0440;&#x043e;&#x0442; </tspan></text>
<text xml:space="preserve" transform="matrix(1 0 -0 1 0 842.25)" font-size="14.275" font-family="Times New Roman"><tspan y="-644.83" x="71.35 80.38607 86.35302 93.09082 102.85493 109.607 117.087108 123.06833 130.54843 138.02854 144.78061 150.76184 156.75734 164.25173 170.23296 180.75363 186.74913 194.22924 201.70934 209.20372 214.45693 221.93703 227.93253">&#x043c;&#x0430;&#x0432;&#x0436;&#x0443;&#x0434; &#x0431;&#x045e;&#x043b;&#x0433;&#x0430;&#x043d; &#x0448;&#x0430;&#x0440;&#x043e;&#x0438;&#x0442;&#x0434;&#x0430; </tspan></text>
<text xml:space="preserve" transform="matrix(1 0 -0 1 0 842.25)" font-size="14.275" font-family="Times New Roman"><tspan y="-644.83" x="234.3 241.05208 248.53218 255.28426 262.03633 268.03184 275.52619 283.02055 289.7726 297.26698 307.78767 315.282 321.26325 330.29933 337.00859 346.04466 352.7539 360.24827 367.7426 371.48268 378.22047 390.24003 396.23554 402.21675 408.9688 415.7209 423.201 429.18223 435.17774 442.6721 450.15217 456.14768 466.66838 473.42045 480.15824 486.15376 493.63386 501.11396 508.6083 516.10269 522.08389 529.56399 536.31607 543.05386 550.5482 560.29806">&#x049b;&#x045e;&#x043b;&#x043b;&#x0430;&#x043d;&#x0438;&#x043b;&#x0438;&#x0448;&#x0438; &#x043c;&#x0443;&#x043c;&#x043a;&#x0438;&#x043d;. &#x041c;&#x0430;&#x0437;&#x043a;&#x0443;&#x0440; &#x0451;&#x043d;&#x0434;&#x0430;&#x0448;&#x0443;&#x0432; &#x045e;&#x0440;&#x0438;&#x043d; &#x0431;&#x043e;&#x0441;&#x0438;&#x0448; </tspan></text>
<text xml:space="preserve" transform="matrix(1 0 -0 1 0 842.25)" font-size="14.275" font-family="Times New Roman"><tspan y="-629.05" x="71.35 77.3455 83.340999 92.37707 99.82861 107.32298 114.81735 121.56943 129.06381 135.04505 141.04055 150.01953 156.01503 162.75284 169.50492 176.24272 182.9948 188.9903 196.48468 202.46591 208.46141 215.9558 219.69585 228.67484 236.9258 244.4059 253.38489 260.13697 267.61708 272.87028 279.60807 285.60359 292.35566 298.35118 305.10325 311.09877 318.57887 326.0732 333.56758 341.06193 348.55628 354.5375 363.51649 370.26856 377.02064 383.00184 389.7539 397.234 406.21299 412.96507 420.4594 427.95378 436.98985 442.9568 448.9523 456.44667 463.941 471.43537 480.41435 486.40986 493.9042 501.39857 508.15065 514.9027 520.8982 531.4189 538.91329 546.40768 553.90206 559.88327">&#x0442;&#x0430;&#x043c;&#x043e;&#x0439;&#x0438;&#x043b;&#x0438;&#x0433;&#x0430; &#x0430;&#x0441;&#x043e;&#x0441;&#x043b;&#x0430;&#x043d;&#x0433;&#x0430;&#x043d;. &#x0415;&#x0440; &#x0443;&#x0447;&#x0430;&#x0441;&#x0442;&#x043a;&#x0430;&#x043b;&#x0430;&#x0440;&#x0438;&#x043d;&#x0438;&#x043d;&#x0433; &#x0431;&#x043e;&#x0437;&#x043e;&#x0440; &#x049b;&#x0438;&#x0439;&#x043c;&#x0430;&#x0442;&#x0438;&#x043d;&#x0438; &#x0430;&#x043d;&#x0438;&#x049b;&#x043b;&#x0430;&#x0448;&#x043d;&#x0438;&#x043d;&#x0433; </tspan></text>
<text xml:space="preserve" transform="matrix(1 0 -0 1 0 842.25)" font-size="14.275" font-family="Times New Roman"><tspan y="-613.3" x="71.35 78.10207 85.58217 93.06226 99.81434 107.29444 120.05629 127.53639 135.03078 141.78285 149.27724 156.02931 162.02481 168.02031 174.01581 179.99704 185.99254 193.48693 206.24878 212.24428 219.73867 227.21877 233.21427 243.73494 250.48702 257.22483 264.73347 272.21354 278.20906 285.7034 298.46528 304.4608 313.49687 319.4638 326.21589 334.45256 340.44807 346.44358 353.92366 359.91917 372.68104 381.6743 389.1544 396.64875 404.1288 410.12434 416.8764 422.87193 430.36628 437.86064 448.38133 455.8614 461.8569 474.61878 481.37086 487.36637 493.36189 500.84199 508.32209 521.0839 530.12 536.8293 543.58139 551.07577 560.1118">&#x043a;&#x045e;&#x0440;&#x0438;&#x0431; &#x0447;&#x0438;&#x049b;&#x0438;&#x043b;&#x0430;&#x0451;&#x0442;&#x0433;&#x0430;&#x043d; &#x0451;&#x043d;&#x0434;&#x0430;&#x0448;&#x0443;&#x0432;&#x0438;&#x0434;&#x0430;&#x043d; &#x0430;&#x043c;&#x0430;&#x043b;&#x0438;&#x0451;&#x0442;&#x0434;&#x0430; &#x0444;&#x043e;&#x0439;&#x0434;&#x0430;&#x043b;&#x0430;&#x043d;&#x0438;&#x0448;&#x0434;&#x0430; &#x049b;&#x0430;&#x0442;&#x043e;&#x0440; &#x043c;&#x0443;&#x04b3;&#x0438;&#x043c; </tspan></text>
<text xml:space="preserve" transform="matrix(1 0 -0 1 0 842.25)" font-size="14.275" font-family="Times New Roman"><tspan y="-596.78" x="71.35 78.0878 84.09758 90.078807 97.57317 106.56642 112.56193 119.314 125.3095 132.78961 140.284 147.77838 151.51844 158.27051 164.266 171.01808 174.75814 180.75363 186.74913 194.24352 204.76419 208.50424 214.48548 220.48097 227.96108 234.71315 242.19326 249.68764 256.42546 262.42097 269.17304 272.9131 280.40745 286.40296 293.8973 301.37739 308.12947 311.8695 318.62159 326.10169 332.85377">&#x0432;&#x0430;&#x0437;&#x0438;&#x0444;&#x0430;&#x043b;&#x0430;&#x0440;&#x043d;&#x0438; &#x04b3;&#x0430;&#x043b; &#x044d;&#x0442;&#x0438;&#x0448; &#x0437;&#x0430;&#x0440;&#x0443;&#x0440;&#x0438;&#x044f;&#x0442;&#x0438; &#x043f;&#x0430;&#x0439;&#x0434;&#x043e; &#x0431;&#x045e;&#x043b;&#x0430;</tspan></text>
<text xml:space="preserve" transform="matrix(1 0 -0 1 0 842.25)" font-size="14.275" font-family="Times New Roman"><tspan y="-596.78" x="339.42 346.9001 354.39445 357.39219 361.13224 367.8843 374.63639 381.37419 388.12626 394.86405 400.85957 408.3539">&#x0434;&#x0438;, &#x0445;&#x0443;&#x0441;&#x0443;&#x0441;&#x0430;&#x043d;:</tspan></text>
<text xml:space="preserve" transform="matrix(1 0 -0 1 0 842.25)" font-size="14.275" font-family="Times New Roman"><tspan y="-596.78" x="412.27"> </tspan></text>
</g>
<g id="Layer-1" data-name="P">
<text xml:space="preserve" transform="matrix(1 0 -0 1 0 842.25)" font-size="14.275" font-family="Times New Roman"><tspan y="-581.03" x="99.875">-</tspan></text>
<text xml:space="preserve" transform="matrix(1 0 -0 1 0 842.25)" font-size="14.275" font-family="Times New Roman"><tspan y="-581.03" x="104.37"> </tspan></text>
<text xml:space="preserve" transform="matrix(1 0 -0 1 0 842.25)" font-size="14.275" font-family="Times New Roman"><tspan y="-581.03" x="113.4 120.8801 126.8756 132.8711 139.62317 148.60216 155.35424 162.84862 170.343 179.37908 185.34603 191.34152 199.5782 208.55719 216.0373 223.5174 228.7706 236.2507 243.00278 250.48288 256.4784 265.45738 272.20945 278.20497 284.95704 293.936 299.9315 305.927 314.16368 320.91575 326.89698 332.8925 340.38685 349.3658 356.84593 363.598 374.11869 380.85649 391.37718 400.35615 406.35166 413.83177 422.81074 429.5628 437.0429 443.03843 449.7762 455.77174 462.5238 468.51933 475.2571 482.75148 490.24583 497.74018 505.23454 511.21577 520.1947 526.1902 532.928 539.68008 546.41787 553.1699 559.922">&#x0440;&#x0435;&#x0430;&#x043b; &#x049b;&#x0438;&#x0439;&#x043c;&#x0430;&#x0442;&#x0438; &#x0431;&#x043e;&#x0437;&#x043e;&#x0440;&#x0434;&#x0430; &#x04b3;&#x0430;&#x043b; &#x044d;&#x0442;&#x0438;&#x043b;&#x0433;&#x0430;&#x043d; &#x045e;&#x0445;&#x0448;&#x0430;&#x0448; &#x0435;&#x0440; &#x0443;&#x0447;&#x0430;&#x0441;&#x0442;&#x043a;&#x0430;&#x0441;&#x0438;&#x043d;&#x0438;&#x043d;&#x0433; &#x0430;&#x0441;&#x043e;&#x0441;&#x043b;&#x0438; </tspan></text>
<text xml:space="preserve" transform="matrix(1 0 -0 1 0 842.25)" font-size="14.275" font-family="Times New Roman"><tspan y="-564.5" x="71.35 78.83009 84.8256 91.5634 99.07205 109.59273 117.07283 123.06834 126.80839 132.8039 138.7994 146.29378 153.04586 159.04135 166.53574 174.03012 180.7822 188.27658 198.79726 206.29164 213.78603 221.28041 225.02046 231.01596 237.01146 244.49156 253.52764 260.99348 268.48783 275.2399 281.9777 292.49839">&#x0440;&#x0430;&#x0432;&#x0438;&#x0448;&#x0434;&#x0430; &#x0442;&#x0430;&#x043d;&#x043b;&#x0430;&#x043d;&#x0438;&#x043b;&#x0438;&#x0448;&#x0438;&#x043d;&#x0438; &#x0442;&#x0430;&#x044a;&#x043c;&#x0438;&#x043d;&#x043b;&#x0430;&#x0448;;</tspan></text>
<text xml:space="preserve" transform="matrix(1 0 -0 1 0 842.25)" font-size="14.275" font-family="Times New Roman"><tspan y="-564.5" x="297.38"> </tspan></text>
</g>
<g id="Layer-1" data-name="P">
<text xml:space="preserve" transform="matrix(1 0 -0 1 0 842.25)" font-size="14.275" font-family="Times New Roman"><tspan y="-548.72" x="99.875">-</tspan></text>
<text xml:space="preserve" transform="matrix(1 0 -0 1 0 842.25)" font-size="14.275" font-family="Times New Roman"><tspan y="-548.72" x="104.37"> </tspan></text>
<text xml:space="preserve" transform="matrix(1 0 -0 1 0 842.25)" font-size="14.275" font-family="Times New Roman"><tspan y="-548.72" x="108.12 114.1155 121.5956 128.34767 134.34317 141.82328 149.31766 156.81204 164.30643 170.28766 174.02771 181.50782 187.50331 193.48455 199.48004 206.21784 213.72649 221.22087 224.96092 231.713 239.20738 246.70177 255.73784 261.70478 267.7003 275.19465 282.689 290.18336">&#x0435;&#x0440;&#x043b;&#x0430;&#x0440;&#x043d;&#x0438;&#x043d;&#x0433; &#x0431;&#x0430;&#x0437;&#x0430;&#x0432;&#x0438;&#x0439; &#x049b;&#x0438;&#x0439;&#x043c;&#x0430;&#x0442;&#x0438;&#x043d;&#x0438; </tspan></text>
<text xml:space="preserve" transform="matrix(1 0 -0 1 0 842.25)" font-size="14.275" font-family="Times New Roman"><tspan y="-548.72" x="294.38 301.86009 307.8556 314.60768 322.08778 328.83985 334.83537 345.35606 349.0961 356.59046 365.62654 372.3358 379.8159 387.31025 394.8046 402.29896 409.7933 412.79106 420.27113 426.26664 433.74674 440.4988 447.2366 454.731 462.22535 465.9654 471.9609 478.71299 486.19309 492.93089 498.9264 504.9219 511.67399 519.16836 526.64846 533.4005 539.396 546.8761 553.6282 560.38027">&#x0431;&#x0430;&#x0445;&#x043e;&#x043b;&#x0430;&#x0448; &#x0438;&#x043c;&#x043a;&#x043e;&#x043d;&#x0438;&#x043d;&#x0438; &#x0431;&#x0435;&#x0440;&#x0443;&#x0432;&#x0447;&#x0438; &#x043a;&#x045e;&#x0440;&#x0441;&#x0430;&#x0442;&#x043a;&#x0438;&#x0447;&#x043b;&#x0430;&#x0440;&#x043d;&#x0438; </tspan></text>
<text xml:space="preserve" transform="matrix(1 0 -0 1 0 842.25)" font-size="14.275" font-family="Times New Roman"><tspan y="-532.22" x="71.35 78.10207 85.58217 92.33424 99.08632 105.081829 115.6025">&#x049b;&#x045e;&#x043b;&#x043b;&#x0430;&#x0448;;</tspan></text>
<text xml:space="preserve" transform="matrix(1 0 -0 1 0 842.25)" font-size="14.275" font-family="Times New Roman"><tspan y="-532.22" x="120.15"> </tspan></text>
</g>
<g id="Layer-1" data-name="P">
<text xml:space="preserve" transform="matrix(1 0 -0 1 0 842.25)" font-size="14.275" font-family="Times New Roman"><tspan y="-516.45" x="99.875">-</tspan></text>
<text xml:space="preserve" transform="matrix(1 0 -0 1 0 842.25)" font-size="14.275" font-family="Times New Roman"><tspan y="-516.45" x="104.37"> </tspan></text>
<text xml:space="preserve" transform="matrix(1 0 -0 1 0 842.25)" font-size="14.275" font-family="Times New Roman"><tspan y="-516.45" x="116.4 122.3955 129.87561 136.62769 142.62319 150.10329 162.10857 168.86064 176.35503 183.84941 192.88549 198.85243 204.84793 212.34232 219.8367 227.33109 234.82547 240.8067 252.81198 264.07499 270.0705 276.82258 284.31694 291.069 298.5491 304.54463 312.03898 319.53334 330.05403 337.54838 343.5296 350.2674 362.27268 368.2682 374.2637 381.7438 388.4816 395.97596 403.45606 415.46134 422.2134 428.96549 436.4456 443.18339 449.1789 455.1744 461.92649 468.66429 476.15867 483.653 494.916 502.3961 511.43217 518.89797 525.65 532.4021 538.3976 545.8777 553.3721 560.12417">&#x0435;&#x0440;&#x043b;&#x0430;&#x0440; &#x049b;&#x0438;&#x0439;&#x043c;&#x0430;&#x0442;&#x0438;&#x043d;&#x0438;&#x043d;&#x0433; &#x0448;&#x0430;&#x043a;&#x0438;&#x043b;&#x043b;&#x0430;&#x043d;&#x0438;&#x0448;&#x0438;&#x0433;&#x0430; &#x0442;&#x0430;&#x044a;&#x0441;&#x0438;&#x0440; &#x043a;&#x045e;&#x0440;&#x0441;&#x0430;&#x0442;&#x0443;&#x0432;&#x0447;&#x0438; &#x043e;&#x043c;&#x0438;&#x043b;&#x043b;&#x0430;&#x0440;&#x043d;&#x0438; </tspan></text>
<text xml:space="preserve" transform="matrix(1 0 -0 1 0 842.25)" font-size="14.275" font-family="Times New Roman"><tspan y="-499.95" x="71.35 78.10207 85.59644 92.334239 98.329738">&#x0445;&#x0438;&#x0441;&#x0441;&#x043e;</tspan></text>
<text xml:space="preserve" transform="matrix(1 0 -0 1 0 842.25)" font-size="14.275" font-family="Times New Roman"><tspan y="-499.95" x="105.87 112.62208 118.6033 124.59881 128.33885 135.81896 142.57103 150.06542 160.58609 164.32614 171.07822 178.55832 186.0527 192.80478 200.28488 206.28038 210.02043 216.01593 222.768 228.74924 234.74474 240.74024 248.23462 258.7553 262.49537 269.24745 276.72755 282.72306 291.7163 300.70957 308.20393 315.69828 321.6938 329.18815 335.18367 341.93574 347.93125 355.41136 362.9057 370.40007 377.8944 381.63447 387.62998 395.12434 402.61869 409.37077 416.12284 422.11836 432.63905">&#x0431;&#x0433;&#x0430; &#x043e;&#x043b;&#x0438;&#x0448; &#x0431;&#x045e;&#x0439;&#x0438;&#x0447;&#x0430; &#x0442;&#x0443;&#x0437;&#x0430;&#x0442;&#x0438;&#x0448; &#x043a;&#x043e;&#x0435;&#x0444;&#x0444;&#x0438;&#x0446;&#x0435;&#x043d;&#x0442;&#x043b;&#x0430;&#x0440;&#x0438;&#x043d;&#x0438; &#x0430;&#x043d;&#x0438;&#x049b;&#x043b;&#x0430;&#x0448;;</tspan></text>
<text xml:space="preserve" transform="matrix(1 0 -0 1 0 842.25)" font-size="14.275" font-family="Times New Roman"><tspan y="-499.95" x="437.8"> </tspan></text>
</g>
<g id="Layer-1" data-name="P">
<text xml:space="preserve" transform="matrix(1 0 -0 1 0 842.25)" font-size="14.275" font-family="Times New Roman"><tspan y="-484.17" x="99.875">-</tspan></text>
<text xml:space="preserve" transform="matrix(1 0 -0 1 0 842.25)" font-size="14.275" font-family="Times New Roman"><tspan y="-484.17" x="104.37"> </tspan></text>
<text xml:space="preserve" transform="matrix(1 0 -0 1 0 842.25)" font-size="14.275" font-family="Times New Roman"><tspan y="-484.17" x="111.9 117.8955 125.375598 132.12767 138.12317 145.60327 153.09766 160.59204 168.08643 174.06766 181.54776 188.29984 195.79422 203.2886 212.32468 218.29163 224.28713 231.78151 239.2759 246.77028 254.25038 261.73048 267.72599 274.47807 281.95817 288.71025 294.70576 305.22645 311.20768 317.2032 324.6833 330.6788 336.67433 344.15443 350.8922 358.38658 365.86668 373.36103 380.84114 386.83665 395.8727 401.83967 408.59175 414.57298 420.56849 428.04859 435.5287 446.04939 453.54374 461.02384 468.5182 475.27027 481.26579 487.2613 493.2568 499.23805 505.23356 512.7279 520.208 526.9601 534.45449 541.19229 548.67239">&#x0435;&#x0440;&#x043b;&#x0430;&#x0440;&#x043d;&#x0438;&#x043d;&#x0433; &#x049b;&#x0438;&#x0439;&#x043c;&#x0430;&#x0442;&#x0438;&#x043d;&#x0438; &#x0431;&#x0430;&#x04b3;&#x043e;&#x043b;&#x0430;&#x0448;&#x0433;&#x0430; &#x0442;&#x0430;&#x044a;&#x0441;&#x0438;&#x0440;&#x0438; &#x0430;&#x043c;&#x0430;&#x043b;&#x0433;&#x0430; &#x043e;&#x0448;&#x0438;&#x0440;&#x0438;&#x043b;&#x0430;&#x0451;&#x0442;&#x0433;&#x0430;&#x043d; &#x04b3;&#x0438;&#x0441;&#x043e;&#x0431;</tspan></text>
<text xml:space="preserve" transform="matrix(1 0 -0 1 0 842.25)" font-size="14.275" font-family="Times New Roman"><tspan y="-484.17" x="557.2">-</tspan></text>
<text xml:space="preserve" transform="matrix(1 0 -0 1 0 842.25)" font-size="14.275" font-family="Times New Roman"><tspan y="-467.67" x="71.35 78.10207 85.59644 91.59194 99.07204 106.55214">&#x043a;&#x0438;&#x0442;&#x043e;&#x0431;&#x043b;</tspan></text>
<text xml:space="preserve" transform="matrix(1 0 -0 1 0 842.25)" font-size="14.275" font-family="Times New Roman"><tspan y="-467.67" x="113.4">&#x0430;</tspan></text>
<text xml:space="preserve" transform="matrix(1 0 -0 1 0 842.25)" font-size="14.275" font-family="Times New Roman"><tspan y="-467.67" x="119.4 126.8801 137.3865 143.382 150.87639 158.37078 165.12285 171.87493 179.36931 185.35054 192.84493 200.32503 206.32053 213.81491">&#x0440; &#x0430;&#x043d;&#x0438;&#x049b;&#x043b;&#x0438;&#x0433;&#x0438;&#x0434;&#x0430;&#x043d; </tspan></text>
<text xml:space="preserve" transform="matrix(1 0 -0 1 0 842.25)" font-size="14.275" font-family="Times New Roman"><tspan y="-467.67" x="224.52 232.0001 242.52079 251.55686 257.5238 265.01817 272.49824 279.99259 285.97383 291.96934 299.46369 309.19926 316.67936 325.71543 333.18125 339.93333 346.6854 352.6809 360.161 367.65538 375.14973 378.88978 389.39619 396.13398 403.61408 411.10844 418.60279 429.1092 438.14527 444.85453 450.85005 458.3444 465.08219 472.57655 483.08296 493.60365 499.59916 506.35124 513.8313 521.3257 527.32119 534.07327 540.0687 547.5488 555.02896 560.2821">&#x043e;&#x0448;&#x043c;&#x0430;&#x0439;&#x0434;&#x0438;&#x0433;&#x0430;&#x043d; &#x043e;&#x043c;&#x0438;&#x043b;&#x043b;&#x0430;&#x0440;&#x043d;&#x0438;, &#x044f;&#x044a;&#x043d;&#x0438; &#x043c;&#x0443;&#x0430;&#x0439;&#x044f;&#x043d; &#x0448;&#x0430;&#x0440;&#x043e;&#x0438;&#x0442;&#x043b;&#x0430;&#x0440;&#x0434;&#x0430; </tspan></text>
<text xml:space="preserve" transform="matrix(1 0 -0 1 0 842.25)" font-size="14.275" font-family="Times New Roman"><tspan y="-451.9" x="71.35 77.345508 84.8256 90.8211 98.31547 105.79557 112.547649 120.02774 126.008968 132.00446 135.00222 142.48232 149.23439 158.27046 164.23741 170.97522 177.7273 185.22168 191.97376 195.7138 204.74988 211.45912 220.4952 227.20446 234.69884 241.45092 245.19097 251.94304 259.42314 266.1752 272.15644 278.15196 285.6463 289.38636 296.13844 305.1745 312.64033 319.3924 326.14448 332.13999 339.6201 347.11445 354.6088 358.34886 364.34437 371.8387 379.33308 386.08515 392.83723 398.83274 409.35343">&#x044d;&#x044a;&#x0442;&#x0438;&#x0431;&#x043e;&#x0440;&#x0433;&#x0430; &#x043e;&#x043b;&#x043c;&#x0430;&#x0441;&#x043b;&#x0438;&#x043a; &#x043c;&#x0443;&#x043c;&#x043a;&#x0438;&#x043d; &#x0431;&#x045e;&#x043b;&#x0433;&#x0430;&#x043d; &#x043e;&#x043c;&#x0438;&#x043b;&#x043b;&#x0430;&#x0440;&#x043d;&#x0438; &#x0430;&#x043d;&#x0438;&#x049b;&#x043b;&#x0430;&#x0448;;</tspan></text>
<text xml:space="preserve" transform="matrix(1 0 -0 1 0 842.25)" font-size="14.275" font-family="Times New Roman"><tspan y="-451.9" x="414.52"> </tspan></text>
</g>
<g id="Layer-1" data-name="P">
<text xml:space="preserve" transform="matrix(1 0 -0 1 0 842.25)" font-size="14.275" font-family="Times New Roman"><tspan y="-435.38" x="99.875 108.125949 115.60604 120.08839 126.84046 134.32056 140.31606 147.05387 153.04936 159.80144 165.79694 172.54901 178.54451 186.02462 193.519 201.01338 208.50777 216.00215 221.98339">&#x0415;&#x0440; &#x0443;&#x0447;&#x0430;&#x0441;&#x0442;&#x043a;&#x0430;&#x043b;&#x0430;&#x0440;&#x0438;&#x043d;&#x0438;&#x043d;&#x0433; </tspan></text>
<text xml:space="preserve" transform="matrix(1 0 -0 1 0 842.25)" font-size="14.275" font-family="Times New Roman"><tspan y="-435.38" x="226.77 233.52208 241.01647 248.51085 257.54695 263.5139 269.5094 277.00376 284.4981 291.99247 296.47483 303.9549 309.9504 316.70249 324.1826 330.93467 336.93019 347.45088 353.4321 360.1699 364.65226 372.1466 379.64097 386.37876 393.85884 399.85435 405.84986 411.84538 419.33973 423.82209 430.57417 438.0685 444.06404 450.80183 458.29618 465.79054 470.2729 476.2684 483.76277 491.24284 497.23835 507.75904 514.5111 521.9912 526.4735 533.9536 541.4337 546.6869 553.43899 560.19107">&#x049b;&#x0438;&#x0439;&#x043c;&#x0430;&#x0442;&#x0438;&#x043d;&#x0438; &#x0431;&#x0430;&#x04b3;&#x043e;&#x043b;&#x0430;&#x0448;&#x0433;&#x0430; &#x043d;&#x0438;&#x0441;&#x0431;&#x0430;&#x0442;&#x0430;&#x043d; &#x049b;&#x0438;&#x0451;&#x0441;&#x0438;&#x0439; &#x0451;&#x043d;&#x0434;&#x0430;&#x0448;&#x0443;&#x0432; &#x0431;&#x043e;&#x0437;&#x043e;&#x0440; </tspan></text>
<text xml:space="preserve" transform="matrix(1 0 -0 1 0 842.25)" font-size="14.275" font-family="Times New Roman"><tspan y="-419.63" x="71.35 81.870677 87.86617 95.34627 102.82636 110.32073 116.31623 123.8106 129.79183 135.78733 150.80463 156.80013 164.29451 170.27574 184.53647 193.57254 200.28179 207.01959 213.01509 219.76717 225.76267 236.28334 242.26457 248.26007 255.75446 270.77177 277.50956 283.51933 298.53663 306.0167 312.76878 318.02195 325.50205 332.25413 347.27143 353.26695 360.019 367.49909 374.25117 381.00325 388.48335 394.47886 401.9732 407.95445 413.94996 428.96726 434.96278 440.95829 447.71037 454.44816 461.20024 467.19575 474.6901 480.67134 486.66685 494.1612 509.1785 515.174 522.6684 530.1485 536.144 546.6647 553.41677 560.15457">&#x0448;&#x0430;&#x0440;&#x043e;&#x0438;&#x0442;&#x0438;&#x0433;&#x0430; &#x044d;&#x043d;&#x0433; &#x043c;&#x043e;&#x0441;&#x0442;&#x043b;&#x0430;&#x0448;&#x0433;&#x0430;&#x043d; &#x0432;&#x0430; &#x0431;&#x043e;&#x0437;&#x043e;&#x0440; &#x0430;&#x0445;&#x0431;&#x043e;&#x0440;&#x043e;&#x0442;&#x0438;&#x0433;&#x0430; &#x0430;&#x0441;&#x043e;&#x0441;&#x043b;&#x0430;&#x043d;&#x0433;&#x0430;&#x043d; &#x0451;&#x043d;&#x0434;&#x0430;&#x0448;&#x0443;&#x0432; </tspan></text>
<text xml:space="preserve" transform="matrix(1 0 -0 1 0 842.25)" font-size="14.275" font-family="Times New Roman"><tspan y="-403.85" x="71.35 78.10207 85.59644 92.334239 99.08631 106.566417 113.31849 119.31399 126.80836 132.80385 140.28395 146.27945 150.0195 163.52365 171.76033 178.5124 183.76561 191.24571 197.99779 211.50194 217.49744 224.24951 231.72962 238.48169 245.96179 253.4419 259.4374 266.93177 274.42613 281.92048 288.67256 294.65379 308.15794 317.194 323.16096 329.89875 339.66285 346.41493 353.895 366.65687 373.40895 380.88905 387.6411 396.6772 402.64414 409.38194 416.134 423.62837 429.6096 437.10395 449.86579 457.34587 463.34138 470.09346 477.57356 484.32563 490.32115 500.84184 514.346 521.8404 532.3611 539.11318 545.10867 552.58877 560.0831">&#x04b3;&#x0438;&#x0441;&#x043e;&#x0431;&#x043b;&#x0430;&#x043d;&#x0430;&#x0434;&#x0430;. &#x0411;&#x043e;&#x0437;&#x043e;&#x0440; &#x0430;&#x0445;&#x0431;&#x043e;&#x0440;&#x043e;&#x0442;&#x0438;&#x043d;&#x0438;&#x043d;&#x0433; &#x043c;&#x0430;&#x0432;&#x0436;&#x0443;&#x0434; &#x0431;&#x045e;&#x043b;&#x043c;&#x0430;&#x0441;&#x043b;&#x0438;&#x0433;&#x0438; &#x0431;&#x0430;&#x04b3;&#x043e;&#x043b;&#x0430;&#x0448; &#x0438;&#x0448;&#x043b;&#x0430;&#x0440;&#x0438; </tspan></text>
<text xml:space="preserve" transform="matrix(1 0 -0 1 0 842.25)" font-size="14.275" font-family="Times New Roman"><tspan y="-387.35" x="71.35 77.3455 86.38157 92.34852 99.10059 106.59496 112.59046 118.58596 126.08033 133.56043 139.55593 143.29598 150.04805 160.56873 168.04883 174.8009 178.54096 184.53646 192.03084 199.51094 205.50644 216.76941 223.52149 230.25928 237.76793 245.26232 252.7567 258.7379 262.47798 269.95808 277.45243 283.4479 290.928 300.67784 307.4299 313.4254 320.91978 328.41413 338.9348 346.42918 353.92353 361.41789 365.15794 372.63804 378.63356 385.38563 392.1377 398.1332 405.62757 413.10765 420.602">&#x0430;&#x043c;&#x0430;&#x043b;&#x0438;&#x0451;&#x0442;&#x0438;&#x0434;&#x0430; &#x0443;&#x0448;&#x0431;&#x0443; &#x0451;&#x043d;&#x0434;&#x0430;&#x0448;&#x0443;&#x0432;&#x043d;&#x0438;&#x043d;&#x0433; &#x0440;&#x0438;&#x0432;&#x043e;&#x0436;&#x043b;&#x0430;&#x043d;&#x0438;&#x0448;&#x0438;&#x043d;&#x0438; &#x0447;&#x0435;&#x043a;&#x043b;&#x0430;&#x0439;&#x0434;&#x0438;.</tspan></text>
<text xml:space="preserve" transform="matrix(1 0 -0 1 0 842.25)" font-size="14.275" font-family="Times New Roman"><tspan y="-387.35" x="424.27"> </tspan></text>
</g>
<g id="Layer-1" data-name="P">
<text xml:space="preserve" transform="matrix(1 0 -0 1 0 842.25)" font-size="14.275" font-family="Times New Roman"><tspan y="-371.58" x="99.875 108.125949 115.60604 125.34159 132.09368 139.57378 145.56928 152.30709 158.30258 165.05466 171.05016 177.80223 183.79773 191.27783 198.77222 206.2666 213.76099 221.25537 227.2366 236.97216 243.72423 251.21862 258.71299 267.74906 273.716">&#x0415;&#x0440; &#x0443;&#x0447;&#x0430;&#x0441;&#x0442;&#x043a;&#x0430;&#x043b;&#x0430;&#x0440;&#x0438;&#x043d;&#x0438;&#x043d;&#x0433; &#x049b;&#x0438;&#x0439;&#x043c;&#x0442;&#x0438;</tspan></text>
<text xml:space="preserve" transform="matrix(1 0 -0 1 0 842.25)" font-size="14.275" font-family="Times New Roman"><tspan y="-371.58" x="281.6 289.09437 296.5887 306.32429 313.80436 319.79988 326.55195 334.03205 340.78413 346.77964 357.30033 363.28157 369.27708 379.01264 386.507 394.00135 400.73915 408.2192 414.21473 420.21025 426.20576 433.7001 443.43568 450.18775 457.6821 463.6776 470.4154 477.90977 485.4041 495.13969 501.1352 508.62956 516.1096 522.1051 532.6258 539.37789 546.11569 553.6243 560.3764">&#x043d;&#x0438; &#x0431;&#x0430;&#x04b3;&#x043e;&#x043b;&#x0430;&#x0448;&#x0433;&#x0430; &#x043d;&#x0438;&#x0441;&#x0431;&#x0430;&#x0442;&#x0430;&#x043d; &#x049b;&#x0438;&#x0451;&#x0441;&#x0438;&#x0439; &#x0451;&#x043d;&#x0434;&#x0430;&#x0448;&#x0443;&#x0432;&#x043d;&#x0438; </tspan></text>
<text xml:space="preserve" transform="matrix(1 0 -0 1 0 842.25)" font-size="14.275" font-family="Times New Roman"><tspan y="-355.08" x="71.35 78.10207 85.58217 92.33424 99.08632 105.081829 115.6025 119.34255 126.822658 134.30277 140.284 147.03607 154.51618 160.51168 164.25173 171.0038 178.4839 185.97829 192.73036 200.21047 206.20597 212.1872 219.68158 223.42163 229.41713 236.15494 242.90702 249.65909 256.41117 262.40669 269.88679 277.36686 283.36238 290.85673 294.59678 303.59004 311.07014 317.8222 325.30229 331.2978 338.04988 344.04539 351.53974 359.0341 369.55479 373.29484 382.3309 389.04017 398.07624 404.7855 412.27986 420.5165">&#x049b;&#x045e;&#x043b;&#x043b;&#x0430;&#x0448; &#x0447;&#x043e;&#x0493;&#x0438;&#x0434;&#x0430; &#x049b;&#x045e;&#x0439;&#x0438;&#x0434;&#x0430;&#x0433;&#x0438; &#x0443;&#x0441;&#x0443;&#x043b;&#x043b;&#x0430;&#x0440;&#x0434;&#x0430;&#x043d; &#x0444;&#x043e;&#x0439;&#x0434;&#x0430;&#x043b;&#x0430;&#x043d;&#x0438;&#x0448; &#x043c;&#x0443;&#x043c;&#x043a;&#x0438;&#x043d;:</tspan></text>
<text xml:space="preserve" transform="matrix(1 0 -0 1 0 842.25)" font-size="14.275" font-family="Times New Roman"><tspan y="-355.08" x="425.05"> </tspan></text>
</g>
<g id="Layer-1" data-name="P">
<text xml:space="preserve" transform="matrix(1 0 -0 1 0 842.25)" font-size="14.275" font-family="Times New Roman"><tspan y="-339.3" x="99.875">-</tspan></text>
<text xml:space="preserve" transform="matrix(1 0 -0 1 0 842.25)" font-size="14.275" font-family="Arial"><tspan y="-339.3" x="104.37"> </tspan></text>
<text xml:space="preserve" transform="matrix(1 0 -0 1 0 842.25)" font-size="14.275" font-family="Times New Roman"><tspan y="-339.3" x="117.9">&#x0441;</tspan></text>
<text xml:space="preserve" transform="matrix(1 0 -0 1 0 842.25)" font-size="14.275" font-family="Times New Roman"><tspan y="-339.3" x="124.65 132.13011 138.12561 144.87769 151.61548 158.38184 164.37734 171.85744 179.35182 186.8462 190.58626 196.58176 202.57726 209.32933 215.32483 222.80493 229.54274 236.29482 242.29032 252.81099 256.55104 263.3031 270.0409 276.79298 283.54505 291.0394">&#x043e;&#x0442;&#x0443;&#x0432;&#x043b;&#x0430;&#x0440;&#x043d;&#x0438; &#x0442;&#x0430;&#x049b;&#x049b;&#x043e;&#x0441;&#x043b;&#x0430;&#x0448; &#x0443;&#x0441;&#x0443;&#x043b;&#x0438;;</tspan></text>
<text xml:space="preserve" transform="matrix(1 0 -0 1 0 842.25)" font-size="14.275" font-family="Times New Roman"><tspan y="-339.3" x="295.13"> </tspan></text>
</g>
<g id="Layer-1" data-name="P">
<text xml:space="preserve" transform="matrix(1 0 -0 1 0 842.25)" font-size="14.275" font-family="Times New Roman"><tspan y="-322.78" x="99.875">-</tspan></text>
<text xml:space="preserve" transform="matrix(1 0 -0 1 0 842.25)" font-size="14.275" font-family="Arial"><tspan y="-322.78" x="104.37"> </tspan></text>
<text xml:space="preserve" transform="matrix(1 0 -0 1 0 842.25)" font-size="14.275" font-family="Times New Roman"><tspan y="-322.78" x="117.9 124.65208 132.13219 139.61229 146.36437 153.84447 161.33885 171.85953 175.59958 182.35166 189.08946 195.84154 202.59362 210.088">&#x043a;&#x045e;&#x0447;&#x0438;&#x0440;&#x0438;&#x0448; &#x0443;&#x0441;&#x0443;&#x043b;&#x0438;.</tspan></text>
<text xml:space="preserve" transform="matrix(1 0 -0 1 0 842.25)" font-size="14.275" font-family="Times New Roman"><tspan y="-322.78" x="213.27"> </tspan></text>
</g>
<g id="Layer-1" data-name="P">
<text xml:space="preserve" transform="matrix(1 0 -0 1 0 842.25)" font-size="14.275" font-family="Times New Roman"><tspan y="-307.03" x="99.875 109.61055 117.10492 123.100429 129.83823 137.33261 144.827 150.80823 156.80373 163.5558 171.0359 177.0314 187.55208 194.30416 201.04195 207.03745 213.78952 221.2839 228.02172 234.77379 242.25389 249.00597 255.00147 262.48158 269.97593 277.456 283.4515 290.94587 296.9271 302.1803 309.6604 315.64164 322.3937 329.8738 336.6259 344.12025 349.35917 356.83924 362.83476 369.58683 377.06694 386.103 392.06996 399.55003 405.53126 411.52677 419.00688 425.75895 433.239 439.9911 445.97233 453.46669">&#x049a;&#x0438;&#x0451;&#x0441;&#x0438;&#x0439; &#x0451;&#x043d;&#x0434;&#x0430;&#x0448;&#x0443;&#x0432; &#x0443;&#x043d;&#x0441;&#x0443;&#x0440;&#x043b;&#x0430;&#x0440;&#x0438;&#x0434;&#x0430;&#x043d; &#x0435;&#x0440; &#x0443;&#x0447;&#x0443;&#x043d; &#x0434;&#x0430;&#x0440;&#x043e;&#x043c;&#x0430;&#x0434; &#x049b;&#x043e;&#x043b;&#x0434;&#x0438;&#x0493;&#x0438; </tspan></text>
<text xml:space="preserve" transform="matrix(1 0 -0 1 0 842.25)" font-size="14.275" font-family="Times New Roman"><tspan y="-307.03" x="460.33 466.3255 472.321 479.0731 486.56745 494.0618 500.81388 506.8094 513.5472 521.04159 527.02279 533.77487 540.51266 547.2647 554.0168 560.76889">&#x0442;&#x0435;&#x0445;&#x043d;&#x0438;&#x043a;&#x0430;&#x0441;&#x0438; &#x0443;&#x0441;&#x0443;&#x043b;&#x0438; </tspan></text>
<text xml:space="preserve" transform="matrix(1 0 -0 1 0 842.25)" font-size="14.275" font-family="Times New Roman"><tspan y="-290.5" x="71.35 78.8301 86.32447 93.076549 99.072048">&#x0431;&#x0438;&#x043b;&#x0430;&#x043d;</tspan></text>
<text xml:space="preserve" transform="matrix(1 0 -0 1 0 842.25)" font-size="14.275" font-family="Times New Roman"><tspan y="-290.5" x="106.62"> </tspan></text>
<text xml:space="preserve" transform="matrix(1 0 -0 1 0 842.25)" font-size="14.275" font-family="Times New Roman"><tspan y="-290.5" x="111.9 119.380107 125.3756 132.85572 140.33582 149.37189 154.58226 162.06237 168.81444 176.30883 181.54776 187.54326 195.03765 202.51775 208.51325 219.03392 225.786 232.52379 240.03244 247.52683 252.76576 259.51783 266.99794 273.75 280.50209 286.4976 297.01829 302.2572 309.7373 317.2174 323.19865 330.693 338.17308 344.16859 349.4075 356.15959 362.1551 369.64945 375.63069 380.8696 389.86286 397.34297 404.8373 412.31739 418.3129 425.06498 431.0605">&#x0434;&#x0430;&#x0440;&#x043e;&#x043c;&#x0430;&#x0434;&#x043b;&#x0438; &#x0451;&#x043d;&#x0434;&#x0430;&#x0448;&#x0443;&#x0432;&#x043d;&#x0438; &#x049b;&#x045e;&#x043b;&#x043b;&#x0430;&#x0448; &#x0447;&#x043e;&#x0493;&#x0438;&#x0434;&#x0430; &#x043a;&#x0435;&#x043d;&#x0433; &#x0444;&#x043e;&#x0439;&#x0434;&#x0430;&#x043b;&#x0430;&#x043d;</tspan></text>
<text xml:space="preserve" transform="matrix(1 0 -0 1 0 842.25)" font-size="14.275" font-family="Times New Roman"><tspan y="-290.5" x="439.3 446.79435 453.54643 461.04078 471.56147 479.05583 484.29475 493.3308 500.04008 509.07615 515.7854 523.2798 530.7742 534.5142 539.7531 553.27157 560.75167">&#x0438;&#x043b;&#x0438;&#x0448;&#x0438; &#x043c;&#x0443;&#x043c;&#x043a;&#x0438;&#x043d;. &#x0428;&#x0443; </tspan></text>
<text xml:space="preserve" transform="matrix(1 0 -0 1 0 842.25)" font-size="14.275" font-family="Times New Roman"><tspan y="-274.75" x="71.35 78.8301 86.32447 93.076549 99.072048 106.566417 117.829387 125.30949 132.80387 140.28397 146.2652 152.2607 163.52368 170.27576 177.77014 183.76564 190.50345 197.99784 205.49222 216.7552 222.7507 230.24509 237.72519 243.72069 254.24137 260.99345 267.73124 279.00849 286.4886 293.9687 299.94993 306.702 314.18208 320.17759 331.44056 338.19264 345.67274 356.19343 362.9455 368.941 380.20399">&#x0431;&#x0438;&#x043b;&#x0430;&#x043d; &#x0431;&#x0438;&#x0440;&#x0433;&#x0430; &#x049b;&#x0438;&#x0451;&#x0441;&#x0438;&#x0439; &#x0451;&#x043d;&#x0434;&#x0430;&#x0448;&#x0443;&#x0432; &#x0447;&#x043e;&#x0493;&#x0438;&#x0434;&#x0430; &#x0431;&#x043e;&#x0448;&#x049b;&#x0430; (</tspan></text>
<text xml:space="preserve" transform="matrix(1 0 -0 1 0 842.25)" font-size="14.275" font-family="Times New Roman,Italic" font-style="italic"><tspan y="-274.75" x="385.25 391.2455 398.72563 406.20573 412.9578 426.46195 433.21403 443.72044 449.71595 457.19606 468.459 473.71223 481.19233 492.4553 499.20738 506.68748 514.16757 520.9196 529.17056 536.65066 544.13076 549.3839">&#x0445;&#x0430;&#x0440;&#x0430;&#x0436;&#x0430;&#x0442;&#x043b;&#x0438; &#x0432;&#x0430; &#x0434;&#x0430;&#x0440;&#x043e;&#x043c;&#x0430;&#x0434;&#x043b;&#x0438;</tspan></text>
<text xml:space="preserve" transform="matrix(1 0 -0 1 0 842.25)" font-size="14.275" font-family="Times New Roman"><tspan y="-274.75" x="557.2 560.9536">) </tspan></text>
<text xml:space="preserve" transform="matrix(1 0 -0 1 0 842.25)" font-size="14.275" font-family="Times New Roman"><tspan y="-258.22" x="71.35 77.3455 84.83987 92.31997 98.31547 108.83614 115.58822 122.32602 129.09238 135.08788 142.56798 146.30803 153.0601 160.55449 167.2923 174.04438 181.52448 188.27655 194.27205 201.75215 209.24654 212.98659 219.73867 227.21877 233.97084 240.72292 246.71842 254.2128 261.70716 268.45924 275.95359 286.47428 293.96864 297.70869 307.4442 314.1963 323.23237 329.94163 337.43598 344.93034 348.67039 352.41044 361.3894 367.38493 377.9056 384.65769 392.15205 395.8921 401.8876 407.88313 416.9192 424.37077 431.8651 439.34519 445.3407 452.83506 456.5751 463.3129 470.06498 477.54505 485.02513 491.02064 494.76069 501.51277 508.26484 515.74496 523.2393 530.7337 538.2281 548.7488 554.73 559.98318">&#x0451;&#x043d;&#x0434;&#x0430;&#x0448;&#x0443;&#x0432;&#x043b;&#x0430;&#x0440; &#x0443;&#x043d;&#x0441;&#x0443;&#x0440;&#x043b;&#x0430;&#x0440;&#x0438; &#x049b;&#x045e;&#x043b;&#x043b;&#x0430;&#x043d;&#x0438;&#x043b;&#x0438;&#x0448;&#x0438; &#x043c;&#x0443;&#x043c;&#x043a;&#x0438;&#x043d;. &#x0422;&#x0430;&#x0448;&#x049b;&#x0438; &#x0442;&#x0430;&#x043c;&#x043e;&#x043d;&#x0434;&#x0430;&#x043d; &#x0441;&#x043e;&#x0434;&#x0434;&#x0430; &#x043a;&#x045e;&#x0440;&#x0438;&#x043d;&#x0438;&#x0448;&#x0433;&#x0430; </tspan></text>
<text xml:space="preserve" transform="matrix(1 0 -0 1 0 842.25)" font-size="14.275" font-family="Times New Roman"><tspan y="-242.45" x="71.35 77.345508 83.32673 89.32223 99.05778 105.80985 113.28995 120.04202 126.02325 132.01874 139.51313 149.24868 158.28475 164.2517 170.23293 176.985 183.73708 190.48915 200.2247 206.2202 213.71459 221.19469 227.19019 237.71086 244.46294 251.20073 260.95057 267.70265 275.197 281.1925 288.6726">&#x044d;&#x0433;&#x0430; &#x0431;&#x045e;&#x043b;&#x0433;&#x0430;&#x043d; &#x043c;&#x0430;&#x0437;&#x043a;&#x0443;&#x0440; &#x0451;&#x043d;&#x0434;&#x0430;&#x0448;&#x0443;&#x0432; &#x04b3;&#x0438;&#x0441;&#x043e;&#x0431;</tspan></text>
<text xml:space="preserve" transform="matrix(1 0 -0 1 0 842.25)" font-size="14.275" font-family="Times New Roman"><tspan y="-242.45" x="296.63">-</tspan></text>
<text xml:space="preserve" transform="matrix(1 0 -0 1 0 842.25)" font-size="14.275" font-family="Times New Roman"><tspan y="-242.45" x="301.13 307.88209 315.37644 321.37196 328.12403 335.6041 342.35618 348.35169 355.8318 363.32615 370.8205 378.31486 383.56806 393.30363 399.29914 406.7935 414.28785 421.03993 427.792 435.28636 441.26759 448.76194 456.2563 463.75065 473.4862 479.48173 485.47724 492.2293 498.22483 505.7049 515.4404 522.1925 529.6869 536.43899 542.43447 549.91458 557.40896 560.4067">&#x043a;&#x0438;&#x0442;&#x043e;&#x0431;&#x043b;&#x0430;&#x0440;&#x043d;&#x0438;&#x043d;&#x0433; &#x0430;&#x043d;&#x0438;&#x049b;&#x043b;&#x0438;&#x0433;&#x0438;&#x043d;&#x0438; &#x0442;&#x0430;&#x043b;&#x0430;&#x0431; &#x049b;&#x0438;&#x043b;&#x0430;&#x0434;&#x0438;. </tspan></text>
<text xml:space="preserve" transform="matrix(1 0 -0 1 0 842.25)" font-size="14.275" font-family="Times New Roman"><tspan y="-225.95" x="71.35 81.870677 88.62275 95.374828 101.37032 108.85042 116.33051 123.08259 130.57697">&#x0424;&#x0443;&#x049b;&#x0430;&#x0440;&#x043e;&#x043b;&#x0438;&#x043a;</tspan></text>
<text xml:space="preserve" transform="matrix(1 0 -0 1 0 842.25)" font-size="14.275" font-family="Times New Roman"><tspan y="-225.95" x="137.43">-</tspan></text>
<text xml:space="preserve" transform="matrix(1 0 -0 1 0 842.25)" font-size="14.275" font-family="Times New Roman"><tspan y="-225.95" x="141.93 148.68207 155.43415 162.91425 169.66632 176.4184 183.91278 191.40717 201.14272 210.17879 216.88803 224.36814 233.4042 240.11345 246.86553 252.86103 258.84226 264.83778">&#x04b3;&#x0443;&#x049b;&#x0443;&#x049b;&#x0438;&#x0439; &#x043c;&#x0443;&#x043e;&#x043c;&#x0443;&#x043b;&#x0430;&#x0433;&#x0430; </tspan></text>
<text xml:space="preserve" transform="matrix(1 0 -0 1 0 842.25)" font-size="14.275" font-family="Times New Roman"><tspan y="-225.95" x="274.85 284.59983 290.59535 297.3474">&#x0436;&#x0430;&#x043b;&#x0431;</tspan></text>
<text xml:space="preserve" transform="matrix(1 0 -0 1 0 842.25)" font-size="14.275" font-family="Times New Roman"><tspan y="-225.95" x="304.88"> </tspan></text>
<text xml:space="preserve" transform="matrix(1 0 -0 1 0 842.25)" font-size="14.275" font-family="Times New Roman"><tspan y="-225.95" x="314.65 320.64549 326.641 334.13536 340.88743 346.86866 352.86418 360.35853 370.0941 379.13017 385.83943 392.5915 399.34358 406.83793">&#x044d;&#x0442;&#x0438;&#x043b;&#x0433;&#x0430;&#x043d; &#x043c;&#x0443;&#x043b;&#x043a;&#x0438;&#x0439;</tspan></text>
<text xml:space="preserve" transform="matrix(1 0 -0 1 0 842.25)" font-size="14.275" font-family="Times New Roman"><tspan y="-225.95" x="415.27">-</tspan></text>
<text xml:space="preserve" transform="matrix(1 0 -0 1 0 842.25)" font-size="14.275" font-family="Times New Roman"><tspan y="-225.95" x="419.77 425.7655 433.2456 442.98118 452.01725 457.9842 467.734 476.77009 483.47935 490.9737 500.70927 506.70478 512.70028 520.18038 526.93246 534.4268 541.9069 549.4013 555.3825 560.6357">&#x0435;&#x0440; &#x043c;&#x0430;&#x0436;&#x043c;&#x0443;&#x0438; &#x0442;&#x0430;&#x0440;&#x043a;&#x0438;&#x0431;&#x0438;&#x0433;&#x0430; </tspan></text>
<text xml:space="preserve" transform="matrix(1 0 -0 1 0 842.25)" font-size="14.275" font-family="Times New Roman"><tspan y="-210.17" x="71.35 78.10207 85.59644 93.07654 99.82861 106.566417 114.06079 121.55516 132.81813 138.07134 145.55144 156.81443 163.5665 171.0466 177.0421 183.7799 189.7754 196.52748 202.52298 209.26079 216.75518 224.24956 231.00164 242.26462 249.74472 255.74022 262.49229 269.97239 276.72447 282.71998 293.24067 300.72074 306.71626 317.97923 324.7313 332.22566 338.22117 344.95896 352.4533 359.94767 371.21064 377.20616 384.7005 392.18058 398.1761 408.69679 415.44886 422.18666 429.681 435.6765 443.17088 454.43385 463.4271 470.9072 477.65928 485.13935 491.13487 497.88694 503.88246 511.3768 518.87118 529.39187 540.6548 548.1349 554.1304 560.12588">&#x043a;&#x0438;&#x0440;&#x0443;&#x0432;&#x0447;&#x0438; &#x0435;&#x0440; &#x0443;&#x0447;&#x0430;&#x0441;&#x0442;&#x043a;&#x0430;&#x0441;&#x0438;&#x043d;&#x0438; &#x0431;&#x0430;&#x04b3;&#x043e;&#x043b;&#x0430;&#x0448;&#x0434;&#x0430; &#x049b;&#x0438;&#x0451;&#x0441;&#x0438;&#x0439; &#x0451;&#x043d;&#x0434;&#x0430;&#x0448;&#x0443;&#x0432;&#x0434;&#x0430;&#x043d; &#x0444;&#x043e;&#x0439;&#x0434;&#x0430;&#x043b;&#x0430;&#x043d;&#x0438;&#x0448; &#x045e;&#x0442;&#x0430; </tspan></text>
<text xml:space="preserve" transform="matrix(1 0 -0 1 0 842.25)" font-size="14.275" font-family="Times New Roman"><tspan y="-193.67" x="71.35 80.38607 87.095317 94.57541 100.570919 107.32299 114.075069 120.070568 127.55067 135.03076 142.52515 149.27722 153.01728 172.5312 182.28104 192.80171 200.28182 207.03389 226.54782 233.2999 240.78 247.53208 253.52758 259.52308 267.00315 272.99867 292.51258 300.00694 306.00245 315.738 321.73353 328.4856 334.4811 340.47663 360.73286 366.72837 374.20848 381.70283 389.19718 396.69154 402.67277 422.1867 428.93879 436.43315 443.9275 452.96357 458.9305 464.92604 472.42039 479.91474 487.4091 506.92304 514.40316 520.3986 527.1364 534.6308 541.3686 548.863 554.85848 560.11166">&#x043c;&#x0443;&#x0440;&#x0430;&#x043a;&#x043a;&#x0430;&#x0431;&#x0434;&#x0438;&#x0440;. &#x0423;&#x0448;&#x0431;&#x0443; &#x04b3;&#x043e;&#x043b;&#x0430;&#x0442;&#x0434;&#x0430; &#x043d;&#x0430;&#x0444;&#x0430;&#x049b;&#x0430;&#x0442; &#x0435;&#x0440;&#x043d;&#x0438;&#x043d;&#x0433; &#x049b;&#x0438;&#x0439;&#x043c;&#x0430;&#x0442;&#x0438;&#x043d;&#x0438; &#x0431;&#x0435;&#x0432;&#x043e;&#x0441;&#x0438;&#x0442;&#x0430; </tspan></text>
<text xml:space="preserve" transform="matrix(1 0 -0 1 0 842.25)" font-size="14.275" font-family="Times New Roman"><tspan y="-177.9" x="71.35 81.870677 87.86617 94.61825 102.11262 108.86469 116.34479 122.340297 129.83467 135.83017 143.32456 150.80466 157.55673 164.29453 171.78891 179.2833 184.52223 191.2743 200.31038 207.77622 214.52829 221.28037 227.27587 234.75597 238.49602 242.97838 250.45848 256.45399 263.20606 269.95814 277.45249 282.6914 291.72749 297.69444 303.67564 310.4277 317.17979 323.93186 329.17079 335.1663 342.6464 349.39848 355.39399 362.14607 369.62614 375.62165 380.86058 389.8538 397.3339 404.82826 411.58033 417.57585 428.09654 434.07777 440.07328 447.56764 451.30769 456.5466 464.02668 470.0222 476.77427 484.25437 491.00645 497.00196 504.4963 510.49183 516.4873 522.4828 528.464 534.4595 541.95388 547.19277 553.18826 559.9403">&#x0448;&#x0430;&#x043a;&#x0438;&#x043b;&#x043b;&#x0430;&#x043d;&#x0442;&#x0438;&#x0440;&#x0443;&#x0432;&#x0447;&#x0438; &#x043e;&#x043c;&#x0438;&#x043b;&#x043b;&#x0430;&#x0440;, &#x0431;&#x0430;&#x043b;&#x043a;&#x0438; &#x043c;&#x0430;&#x0437;&#x043a;&#x0443;&#x0440; &#x0435;&#x0440;&#x043b;&#x0430;&#x0440;&#x0434;&#x0430; &#x0436;&#x043e;&#x0439;&#x043b;&#x0430;&#x0448;&#x0433;&#x0430;&#x043d;, &#x0431;&#x0430;&#x04b3;&#x043e;&#x043b;&#x0430;&#x043d;&#x0430;&#x0451;&#x0442;&#x0433;&#x0430;&#x043d; &#x0435;&#x0440; </tspan></text>
<text xml:space="preserve" transform="matrix(1 0 -0 1 0 842.25)" font-size="14.275" font-family="Times New Roman"><tspan y="-162.15" x="71.35 78.10207 85.58218 91.577678 98.31547 104.31097 111.06304 117.05854 123.79633 131.29071 138.7851 146.27948 153.77387 159.02707 171.03235 177.78443 185.27881 192.7732 201.80927 207.77622">&#x0443;&#x0447;&#x0430;&#x0441;&#x0442;&#x043a;&#x0430;&#x0441;&#x0438;&#x043d;&#x0438;&#x043d;&#x0433; &#x049b;&#x0438;&#x0439;&#x043c;&#x0430;&#x0442;</tspan></text>
<text xml:space="preserve" transform="matrix(1 0 -0 1 0 842.25)" font-size="14.275" font-family="Times New Roman"><tspan y="-162.15" x="214.02 221.51439 227.49562 233.49112 245.4964 251.4919 257.4874 264.9675 271.7053 278.45738 285.93748 297.94276 303.93827 310.69035 318.17045 324.90824 330.90376 336.89927 343.65135 350.38914 357.8835 364.6356 376.64088 383.39295 390.14503 397.62513 406.6612 412.62815 418.62367 430.62895 439.665 446.37428 453.12635 459.87843 471.8837 478.63578 486.11585 492.11137 498.86344 504.85896 511.61103 517.6065 525.0866 532.581 540.0754 547.56979 555.06417 560.3173">&#x0438;&#x0433;&#x0430; &#x0442;&#x0430;&#x044a;&#x0441;&#x0438;&#x0440; &#x043a;&#x045e;&#x0440;&#x0441;&#x0430;&#x0442;&#x0443;&#x0432;&#x0447;&#x0438; &#x043a;&#x045e;&#x0447;&#x043c;&#x0430;&#x0441; &#x043c;&#x0443;&#x043b;&#x043a; &#x043e;&#x0431;&#x0435;&#x043a;&#x0442;&#x043b;&#x0430;&#x0440;&#x0438;&#x043d;&#x0438;&#x043d;&#x0433; </tspan></text>
<text xml:space="preserve" transform="matrix(1 0 -0 1 0 842.25)" font-size="14.275" font-family="Times New Roman"><tspan y="-145.63" x="71.35 78.10207 84.85415 91.59194 98.34402 105.08181 112.57618 119.31398 125.30948 132.06156 138.05706 145.53716 153.03154 156.77159 163.52367 171.01805 177.01355 183.75136 190.50344 196.49893 207.0196 210.75966 217.51174 225.00612 231.74393 238.496 245.9761 252.72818 256.46824 262.46376 269.9581 278.95137 284.94688 290.94239 298.43675 305.9168 311.91233 315.65238 323.14674 333.66743 341.14753 348.62763 354.62315 358.3632 364.35868 370.3542 377.84855 388.36924 392.10929 401.14537 407.8546 416.8907 423.59996 431.0943 438.58866">&#x0445;&#x0443;&#x0441;&#x0443;&#x0441;&#x0438;&#x044f;&#x0442;&#x043b;&#x0430;&#x0440;&#x0438; &#x049b;&#x0438;&#x0451;&#x0441;&#x043b;&#x0430;&#x0448; &#x0443;&#x043d;&#x0441;&#x0443;&#x0440;&#x0438; &#x0441;&#x0438;&#x0444;&#x0430;&#x0442;&#x0438;&#x0434;&#x0430; &#x0438;&#x0448;&#x0440;&#x043e;&#x043a; &#x044d;&#x0442;&#x0438;&#x0448; &#x043c;&#x0443;&#x043c;&#x043a;&#x0438;&#x043d;.</tspan></text>
<text xml:space="preserve" transform="matrix(1 0 -0 1 0 842.25)" font-size="14.275" font-family="Times New Roman"><tspan y="-145.63" x="442.3"> </tspan></text>
</g>
<g id="Layer-1" data-name="P">
<text xml:space="preserve" transform="matrix(1 0 -0 1 0 842.25)" font-size="9.75" font-family="Times New Roman"><tspan y="-132.88" x="71.35"> </tspan></text>
</g>
<g id="Layer-1" data-name="P">
<text xml:space="preserve" transform="matrix(1 0 -0 1 0 842.25)" font-size="14.275" font-family="Times New Roman,Bold" font-weight="bold"><tspan y="-117.85" x="132.93 142.66555 151.64452">&#x0415;&#x0420; </tspan></text>
<text xml:space="preserve" transform="matrix(1 0 -0 1 0 842.25)" font-size="14.275" font-family="Times New Roman,Bold" font-weight="bold"><tspan y="-117.85" x="154.7 165.20639 175.71279 186.21918 196.73986 200.4799 210.22972 219.97954 228.2305 239.49349 252.99764 262.74748 272.49729 275.49504 286.0014 297.26438 307.78507 317.53489 328.05558 337.0488 347.5695 351.30955 360.3028 370.03834 379.78816 390.30885 400.82954 411.3359 421.08573 431.59214 442.11283 445.85289 456.35929 466.8657 477.3721 487.8928">&#x0423;&#x0427;&#x0423;&#x041d; &#x0414;&#x0410;&#x0420;&#x041e;&#x041c;&#x0410;&#x0414; &#x049a;&#x041e;&#x041b;&#x0414;&#x0418;&#x0492;&#x0418; &#x0422;&#x0415;&#x0425;&#x041d;&#x0418;&#x041a;&#x0410;&#x0421;&#x0418; &#x0423;&#x0421;&#x0423;&#x041b;&#x0418;</tspan></text>
<text xml:space="preserve" transform="matrix(1 0 -0 1 0 842.25)" font-size="8.25" font-family="Times New Roman,Bold" font-weight="bold"><tspan y="-117.85" x="498.63"> </tspan></text>
</g>
<g id="Layer-1" data-name="P">
<text xml:space="preserve" transform="matrix(1 0 -0 1 0 842.25)" font-size="8.25" font-family="Times New Roman,Bold" font-weight="bold"><tspan y="-106.6" x="316.15"> </tspan></text>
</g>
<g id="Layer-1" data-name="P">
<text xml:space="preserve" transform="matrix(1 0 -0 1 0 842.25)" font-size="14.275" font-family="Times New Roman"><tspan y="-93.075" x="99.875 108.125949 115.60604 121.587268 128.33934 135.81945 142.57152 150.0659 156.04714 163.52724 169.52274 176.27481 183.75492 192.79099 198.75794 206.23804 212.21927 218.21477 225.69487 232.44695 239.92705 246.67913 252.66036">&#x0415;&#x0440; &#x0443;&#x0447;&#x0443;&#x043d; &#x0434;&#x0430;&#x0440;&#x043e;&#x043c;&#x0430;&#x0434; &#x049b;&#x043e;&#x043b;&#x0434;&#x0438;&#x0493;&#x0438;</tspan></text>
<text xml:space="preserve" transform="matrix(1 0 -0 1 0 842.25)" font-size="14.275" font-family="Times New Roman"><tspan y="-93.075" x="260.58"> </tspan></text>
<text xml:space="preserve" transform="matrix(1 0 -0 1 0 842.25)" font-size="14.275" font-family="Times New Roman"><tspan y="-93.075" x="266.6 272.59553 278.59104 285.3431 292.83747 300.33183 307.0839 313.0794 319.8172 327.31156 333.2928 340.04487 346.78266 353.53474 360.2868 367.78117 375.2755 382.76988 390.26423 396.24546 402.22669 408.2222 414.2177 421.6978 428.4356 435.18769 442.66777 448.66328 454.6445 460.64 468.12013 474.10136 480.85343 488.33354 493.58674 500.32453 506.32005 513.07217 519.0676 525.8054 533.2998 540.7942 548.2886 555.04067 560.2938">&#x0442;&#x0435;&#x0445;&#x043d;&#x0438;&#x043a;&#x0430;&#x0441;&#x0438; &#x0443;&#x0441;&#x0443;&#x043b;&#x0438;&#x043d;&#x0438;&#x043d;&#x0433; &#x0430;&#x0441;&#x043e;&#x0441;&#x0438;&#x0434;&#x0430; &#x0435;&#x0440; &#x0443;&#x0447;&#x0430;&#x0441;&#x0442;&#x043a;&#x0430;&#x0441;&#x0438;&#x043d;&#x0438;&#x043d;&#x0433; </tspan></text>
<text xml:space="preserve" transform="matrix(1 0 -0 1 0 842.25)" font-size="14.275" font-family="Times New Roman"><tspan y="-76.575" x="71.35 78.10207 85.59644 93.09081 102.126888 108.093837 114.08933 121.5837 128.3215 135.0593 141.06908 147.80689 155.28699 161.26822 168.00603 175.50041 181.49591 187.49141 194.97151 200.96701 206.96251 214.4569 221.937 227.9325 231.67255 238.41036 245.16243 252.65682 260.15119 267.64555 273.62678 279.608 287.08808 293.0836 299.83567 307.31578 316.35185 322.3188 329.79887 336.53666 343.28874 349.28425 356.03633 362.03184 369.52619 377.0063 384.50065 395.02134 402.5157 409.25349 416.00556 426.52626 434.00633 440.7584 447.4962 453.4917 460.9718 467.7096 473.7051 481.1852 487.18074 493.91853 499.91404 506.6661 512.6616 519.3994 526.8938 534.3882 541.88259 547.8638 554.61587 559.869">&#x049b;&#x0438;&#x0439;&#x043c;&#x0430;&#x0442;&#x0438; &#x0432;&#x0430; &#x045e;&#x0437; &#x043d;&#x0430;&#x0432;&#x0431;&#x0430;&#x0442;&#x0438;&#x0434;&#x0430;, &#x0443;&#x043d;&#x0438;&#x043d;&#x0433; &#x0434;&#x0430;&#x0440;&#x043e;&#x043c;&#x0430;&#x0434; &#x043a;&#x0435;&#x043b;&#x0442;&#x0438;&#x0440;&#x0438;&#x0448;&#x0438; &#x0443;&#x0448;&#x0431;&#x0443; &#x0435;&#x0440; &#x0443;&#x0447;&#x0430;&#x0441;&#x0442;&#x043a;&#x0430;&#x0441;&#x0438;&#x043d;&#x0438; &#x045e;&#x0437; </tspan></text>
<text xml:space="preserve" transform="matrix(1 0 -0 1 0 842.25)" font-size="14.275" font-family="Times New Roman"><tspan y="-60.8" x="71.35 77.3455 83.340999 90.82109 97.573169 105.067539 112.54764 120.04201 126.02323 132.01873 141.75428 149.23438 155.98645 161.96768 167.96318 175.45757 185.19312 192.67322 199.4253 205.42079 212.17287 219.66725 230.17366 236.16916">&#x0442;&#x0430;&#x0440;&#x043a;&#x0438;&#x0431;&#x0438;&#x0433;&#x0430; &#x043e;&#x043b;&#x0433;&#x0430;&#x043d; &#x0431;&#x0443;&#x0442;&#x0443;&#x043d; &#x0435;&#x0440;</tspan></text>
<text xml:space="preserve" transform="matrix(1 0 -0 1 0 842.25)" font-size="14.275" font-family="Times New Roman"><tspan y="-60.8" x="244.05">-</tspan></text>
<text xml:space="preserve" transform="matrix(1 0 -0 1 0 842.25)" font-size="14.275" font-family="Times New Roman"><tspan y="-60.8" x="248.58 257.6161 264.32536 271.07743 277.8295 285.32386 292.8182 303.32463 312.3607 318.32765 328.07746 337.11354 343.82279 349.8183 357.31266 364.807 372.30137 378.2826 388.789 396.26908 402.2646 409.01667 416.49678 425.53285 430.74324 438.2233 444.97538 452.46974 458.45097 465.9453 471.92655 477.92207 488.42848 497.42173 504.1738 511.66816 518.4202 525.9146 533.409 540.8891 548.3835 554.37899 560.37448">&#x043c;&#x0443;&#x043b;&#x043a;&#x0438;&#x0439; &#x043c;&#x0430;&#x0436;&#x043c;&#x0443;&#x0430;&#x043d;&#x0438;&#x043d;&#x0433; &#x0434;&#x0430;&#x0440;&#x043e;&#x043c;&#x0430;&#x0434;&#x043b;&#x0438;&#x0433;&#x0438;&#x0433;&#x0430; &#x0444;&#x0443;&#x043d;&#x043a;&#x0446;&#x0438;&#x043e;&#x043d;&#x0430;&#x043b; </tspan></text>
<text xml:space="preserve" transform="matrix(1 0 -0 1 0 842.25)" font-size="14.275" font-family="Times New Roman"><tspan y="-44.275" x="71.35 78.8301 85.58218 91.5634 98.315479 105.809848 112.56192 119.313999 126.808368 134.28847 140.28397 149.26296 156.74306 164.22316 170.97524 178.46962 188.9903 196.48468 205.46367 211.45917 218.21125 224.19248 231.67258 238.42465 245.16246 252.65685 260.13694 266.13246 272.11369 278.86576 287.84474 294.5968 302.0769 308.82899 315.56678 321.5623 329.05665 336.551 344.04536 350.78315 359.76213 365.75764 371.75315 377.74867 385.22874">&#x0431;&#x043e;&#x0493;&#x043b;&#x0438;&#x049b;&#x043b;&#x0438;&#x0434;&#x0430; &#x0431;&#x045e;&#x043b;&#x0438;&#x0448;&#x0438; &#x0442;&#x045e;&#x0493;&#x0440;&#x0438;&#x0441;&#x0438;&#x0434;&#x0430;&#x0433;&#x0438; &#x043a;&#x043e;&#x043d;&#x0441;&#x0435;&#x043f;&#x0446;&#x0438;&#x044f; &#x0451;&#x0442;&#x0430;&#x0434;&#x0438;</tspan></text>
<text xml:space="preserve" transform="matrix(1 0 -0 1 0 842.25)" font-size="14.275" font-family="Times New Roman"><tspan y="-44.275" x="393.5 397.24006 405.47676 413.7134 420.46549 427.95985 435.4399 441.43544 448.92979 457.90876 464.66084 470.65635 477.40843 484.90278 492.38285 501.36183 508.84193 516.3363 523.0884 529.08389 536.56399 544.05838 550.8104 557.5625 560.56027">. &#x0411;&#x0443;&#x043d;&#x0434;&#x0430;&#x043d; &#x043a;&#x0435;&#x043b;&#x0438;&#x0431; &#x0447;&#x0438;&#x049b;&#x0430;&#x0434;&#x0438;&#x043a;&#x0438;, </tspan></text>
</g>
</g>
</g>
</svg>
