<?xml version="1.0" encoding="UTF-8" standalone="no"?>
<!DOCTYPE svg PUBLIC "-//W3C//DTD SVG 1.1//EN" "http://www.w3.org/Graphics/SVG/1.1/DTD/svg11.dtd">
<svg xmlns="http://www.w3.org/2000/svg" xmlns:xlink="http://www.w3.org/1999/xlink" version="1.1" width="595.5pt" height="842.25pt" viewBox="0 0 595.5 842.25">
<g enable-background="new">
<g>
<g id="Layer-1" data-name="Artifact">
<text xml:space="preserve" transform="matrix(1 0 -0 1 0 842.25)" font-size="9.75" font-family="Times New Roman"><tspan y="-797.95" x="71.35"> </tspan></text>
</g>
<g id="Layer-1" data-name="P">
<path transform="matrix(1,0,0,-1,0,842.25)" d="M 69.85 779.2 L 562.45 779.2 L 562.45 794.95 L 69.85 794.95 Z " fill="#ffffff" fill-rule="evenodd"/>
</g>
<g id="Layer-1" data-name="P">
<text xml:space="preserve" transform="matrix(1 0 -0 1 0 842.25)" font-size="14.275" font-family="Times New Roman"><tspan y="-782.95" x="99.875">-</tspan></text>
</g>
<g id="Layer-1" data-name="P">
<text xml:space="preserve" transform="matrix(1 0 -0 1 0 842.25)" font-size="14.275" font-family="Arial"><tspan y="-782.95" x="104.37"> </tspan></text>
</g>
<g id="Layer-1" data-name="P">
<text xml:space="preserve" transform="matrix(1 0 -0 1 0 842.25)" font-size="14.275" font-family="Times New Roman"><tspan y="-782.95" x="106.62 112.6155 120.0956 123.83565 130.58773 138.06783 144.06333 150.80113 156.79663 163.5487 168.80191 175.53972 183.0341 190.52849 198.02288 205.51726 211.49849 215.23854 221.99062 228.72843 234.72393 240.71942 248.19953 256.45048 263.93058 270.68266 274.4227 281.17478">&#x0435;&#x0440; &#x0443;&#x0447;&#x0430;&#x0441;&#x0442;&#x043a;&#x0430;&#x0441;&#x0438;&#x043d;&#x0438;&#x043d;&#x0433; &#x0438;&#x0441;&#x0442;&#x0435;&#x044a;&#x043c;&#x043e;&#x043b; &#x0445;&#x0443;</tspan></text>
</g>
<g id="Layer-1" data-name="P">
<text xml:space="preserve" transform="matrix(1 0 -0 1 0 842.25)" font-size="14.275" font-family="Times New Roman"><tspan y="-782.95" x="288.38 295.1178 301.86988 308.60768 315.35975 322.09754 328.09306 334.84513 340.84065 348.32075 355.8151 359.55516 366.30723 373.78733 381.28169 388.03376 395.51387 401.50938">&#x0441;&#x0443;&#x0441;&#x0438;&#x044f;&#x0442;&#x043b;&#x0430;&#x0440;&#x0438; &#x0431;&#x045e;&#x0439;&#x0438;&#x0447;&#x0430; </tspan></text>
</g>
<g id="Layer-1" data-name="P">
<text xml:space="preserve" transform="matrix(1 0 -0 1 0 842.25)" font-size="14.275" font-family="Times New Roman"><tspan y="-782.95" x="405.52 413.00007 419.75215 427.23225 430.9723 437.72438 445.21873 451.9708 458.72288 466.21723 472.9693 480.46366 486.4449">&#x0431;&#x0438;&#x0440; &#x0445;&#x0438;&#x043b;&#x043b;&#x0438;&#x043b;&#x0438;&#x0433;&#x0438;</tspan></text>
</g>
<g id="Layer-1" data-name="P">
<text xml:space="preserve" transform="matrix(1 0 -0 1 0 842.25)" font-size="14.275" font-family="Times New Roman"><tspan y="-782.95" x="494.13"> </tspan></text>
</g>
<g id="Layer-1" data-name="P">
<text xml:space="preserve" transform="matrix(1 0 -0 1 0 842.25)" font-size="14.275" font-family="Times New Roman"><tspan y="-782.95" x="497.88 504.6178 510.62757 514.3676">&#x0432;&#x0430; &#x0431;</tspan></text>
</g>
<g id="Layer-1" data-name="P">
<text xml:space="preserve" transform="matrix(1 0 -0 1 0 842.25)" font-size="14.275" font-family="Times New Roman"><tspan y="-782.95" x="521.15">.</tspan></text>
</g>
<g id="Layer-1" data-name="P">
<text xml:space="preserve" transform="matrix(1 0 -0 1 0 842.25)" font-size="14.275" font-family="Times New Roman"><tspan y="-782.95" x="524.17"> </tspan></text>
</g>
<g id="Layer-1" data-name="P">
<path transform="matrix(1,0,0,-1,0,842.25)" d="M 69.85 763.42 L 562.45 763.42 L 562.45 779.195 L 69.85 779.195 Z " fill="#ffffff" fill-rule="evenodd"/>
</g>
<g id="Layer-1" data-name="P">
<text xml:space="preserve" transform="matrix(1 0 -0 1 0 842.25)" font-size="14.275" font-family="Times New Roman"><tspan y="-767.17" x="99.875 108.11167 114.86375 122.358119 129.83821 135.83371 143.3281 147.81046 153.80596 159.80146 170.32213 177.0742 183.0697 190.5498 198.04419 201.78424 206.2666 213.7467 220.49878 231.01946 237.01496 247.53563 252.01799 258.0135 265.4936 269.97596 276.72804 284.20814 290.20365 296.94145 302.93696 309.68904 315.68455 322.4366 328.43214 335.91224 343.4066 350.90095 358.3953 365.88966 371.87089 376.35325 383.10533 389.8574 396.59519 403.34727 410.08506 417.5794 424.3172 430.3127 437.0648 443.0603 450.5404 458.03477 462.51713 469.2692 476.02128 483.51564 491.00999 498.49006 504.48558 510.4668 517.9612 524.71328 530.70877 538.18887 545.6832 553.1776 559.9297">&#x0411;&#x0443;&#x043d;&#x0434;&#x0430;&#x043d; &#x0442;&#x0430;&#x0448;&#x049b;&#x0430;&#x0440;&#x0438;, &#x045e;&#x0445;&#x0448;&#x0430;&#x0448; &#x0435;&#x0440; &#x0443;&#x0447;&#x0430;&#x0441;&#x0442;&#x043a;&#x0430;&#x043b;&#x0430;&#x0440;&#x0438;&#x043d;&#x0438;&#x043d;&#x0433; &#x0445;&#x0443;&#x0441;&#x0443;&#x0441;&#x0438;&#x044f;&#x0442;&#x043b;&#x0430;&#x0440;&#x0438; &#x049b;&#x0443;&#x0439;&#x0438;&#x0434;&#x0430;&#x0433;&#x0438;&#x043b;&#x0430;&#x0440;&#x0438;&#x043d;&#x0438; </tspan></text>
<path transform="matrix(1,0,0,-1,0,842.25)" d="M 69.85 746.92 L 562.45 746.92 L 562.45 763.42 L 69.85 763.42 Z " fill="#ffffff" fill-rule="evenodd"/>
</g>
<g id="Layer-1" data-name="P">
<text xml:space="preserve" transform="matrix(1 0 -0 1 0 842.25)" font-size="14.275" font-family="Times New Roman"><tspan y="-751.42" x="71.35 77.3455 83.340999 90.09307 96.845149 104.32524 111.06304 117.81512 123.810619 134.3313 138.07135 145.56574 154.6018 161.31107 168.79117 176.28556 183.77994 191.27433 198.7687 201.76647 209.24657 215.24207 222.72217 230.21656 240.73723 248.23162 251.97167 258.72373 264.71925 272.19935 278.19486 284.94694">&#x0442;&#x0430;&#x049b;&#x049b;&#x043e;&#x0441;&#x043b;&#x0430;&#x0448; &#x0438;&#x043c;&#x043a;&#x043e;&#x043d;&#x0438;&#x043d;&#x0438; &#x0431;&#x0435;&#x0440;&#x0438;&#x0448;&#x0438; &#x043a;&#x0435;&#x0440;&#x0430;&#x043a;:</tspan></text>
</g>
<g id="Layer-1" data-name="P">
<text xml:space="preserve" transform="matrix(1 0 -0 1 0 842.25)" font-size="14.275" font-family="Times New Roman"><tspan y="-751.42" x="288.38"> </tspan></text>
</g>
<g id="Layer-1" data-name="P">
<path transform="matrix(1,0,0,-1,0,842.25)" d="M 69.85 731.15 L 562.45 731.15 L 562.45 746.92507 L 69.85 746.92507 Z " fill="#ffffff" fill-rule="evenodd"/>
</g>
<g id="Layer-1" data-name="P">
<text xml:space="preserve" transform="matrix(1 0 -0 1 0 842.25)" font-size="14.275" font-family="Times New Roman"><tspan y="-734.9" x="99.875">-</tspan></text>
</g>
<g id="Layer-1" data-name="P">
<text xml:space="preserve" transform="matrix(1 0 -0 1 0 842.25)" font-size="14.275" font-family="Arial"><tspan y="-734.9" x="104.37"> </tspan></text>
</g>
<g id="Layer-1" data-name="P">
<text xml:space="preserve" transform="matrix(1 0 -0 1 0 842.25)" font-size="14.275" font-family="Times New Roman"><tspan y="-734.9" x="106.62 114.11437 121.60874 128.34654 134.35633 141.09413 147.08963 154.58402 162.0784 169.57279 177.05289 184.54727 187.54503 197.29486 204.04694 210.02817 217.52256 225.00266 230.25586 237.73596 244.48804 251.96814 258.7202 266.21458 272.96665">&#x0438;&#x043d;&#x0432;&#x0435;&#x0441;&#x0442;&#x0438;&#x0446;&#x0438;&#x043e;&#x043d; &#x0436;&#x043e;&#x0437;&#x0438;&#x0431;&#x0430;&#x0434;&#x043e;&#x0440;&#x043b;&#x0438;&#x043a;;</tspan></text>
</g>
<g id="Layer-1" data-name="P">
<text xml:space="preserve" transform="matrix(1 0 -0 1 0 842.25)" font-size="14.275" font-family="Times New Roman"><tspan y="-734.9" x="277.1"> </tspan></text>
</g>
<g id="Layer-1" data-name="P">
<path transform="matrix(1,0,0,-1,0,842.25)" d="M 69.85 714.63 L 562.45 714.63 L 562.45 731.155 L 69.85 731.155 Z " fill="#ffffff" fill-rule="evenodd"/>
</g>
<g id="Layer-1" data-name="P">
<text xml:space="preserve" transform="matrix(1 0 -0 1 0 842.25)" font-size="14.275" font-family="Times New Roman"><tspan y="-719.15" x="99.875">-</tspan></text>
</g>
<g id="Layer-1" data-name="P">
<text xml:space="preserve" transform="matrix(1 0 -0 1 0 842.25)" font-size="14.275" font-family="Arial"><tspan y="-719.15" x="104.37"> </tspan></text>
</g>
<g id="Layer-1" data-name="P">
<text xml:space="preserve" transform="matrix(1 0 -0 1 0 842.25)" font-size="14.275" font-family="Times New Roman"><tspan y="-719.15" x="106.62 115.656078 123.10762 129.8597 137.35408 144.09188 150.84395 156.83945 167.36013 171.10018 180.13625 186.1032 193.59758 201.07769 207.07318 213.82526 219.82076 227.30086 234.79524 238.5353 245.27309 251.28287 255.02292 265.5436 271.53913 278.2912 285.78556 292.53764 299.2897 305.28523 312.76533 320.25968">&#x043c;&#x043e;&#x043b;&#x0438;&#x044f;&#x043b;&#x0430;&#x0448; &#x043c;&#x0430;&#x043d;&#x0431;&#x0430;&#x043b;&#x0430;&#x0440;&#x0438; &#x0432;&#x0430; &#x0448;&#x0430;&#x043a;&#x0438;&#x043b;&#x043b;&#x0430;&#x0440;&#x0438;;</tspan></text>
</g>
<g id="Layer-1" data-name="P">
<text xml:space="preserve" transform="matrix(1 0 -0 1 0 842.25)" font-size="14.275" font-family="Times New Roman"><tspan y="-719.15" x="324.4"> </tspan></text>
</g>
<g id="Layer-1" data-name="P">
<path transform="matrix(1,0,0,-1,0,842.25)" d="M 69.85 698.88 L 562.45 698.88 L 562.45 714.63 L 69.85 714.63 Z " fill="#ffffff" fill-rule="evenodd"/>
</g>
<g id="Layer-1" data-name="P">
<text xml:space="preserve" transform="matrix(1 0 -0 1 0 842.25)" font-size="14.275" font-family="Times New Roman"><tspan y="-702.63" x="99.875">-</tspan></text>
</g>
<g id="Layer-1" data-name="P">
<text xml:space="preserve" transform="matrix(1 0 -0 1 0 842.25)" font-size="14.275" font-family="Arial"><tspan y="-702.63" x="104.37"> </tspan></text>
</g>
<g id="Layer-1" data-name="P">
<text xml:space="preserve" transform="matrix(1 0 -0 1 0 842.25)" font-size="14.275" font-family="Times New Roman"><tspan y="-702.63" x="106.62 113.37208 119.36758 126.84767 134.34206 141.82216 148.57424 156.05434 162.80641 168.80191 176.28202 183.7764 191.27079 198.76517 204.01837 207.75843 213.75392 222.74718 228.72841 234.7239 241.47599 245.21604 252.69614 260.1905 266.94258 274.43693 284.9576 291.7097 297.7052 305.1853 312.67967">&#x0445;&#x0430;&#x0440;&#x0438;&#x0434;&#x043e;&#x0440;&#x043b;&#x0430;&#x0440;&#x043d;&#x0438;&#x043d;&#x0433; &#x0430;&#x0444;&#x0437;&#x0430;&#x043b; &#x0431;&#x0438;&#x043b;&#x0438;&#x0448;&#x043b;&#x0430;&#x0440;&#x0438; </tspan></text>
</g>
<g id="Layer-1" data-name="P">
<text xml:space="preserve" transform="matrix(1 0 -0 1 0 842.25)" font-size="14.275" font-family="Times New Roman"><tspan y="-702.63" x="316.9 323.6378 329.64756 333.3876">&#x0432;&#x0430; &#x0431;</tspan></text>
</g>
<g id="Layer-1" data-name="P">
<text xml:space="preserve" transform="matrix(1 0 -0 1 0 842.25)" font-size="14.275" font-family="Times New Roman"><tspan y="-702.63" x="340.17">.</tspan></text>
</g>
<g id="Layer-1" data-name="P">
<text xml:space="preserve" transform="matrix(1 0 -0 1 0 842.25)" font-size="14.275" font-family="Times New Roman"><tspan y="-702.63" x="343.17"> </tspan></text>
</g>
<g id="Layer-1" data-name="P">
<path transform="matrix(1,0,0,-1,0,842.25)" d="M 69.85 682.35 L 562.45 682.35 L 562.45 698.875 L 69.85 698.875 Z " fill="#ffffff" fill-rule="evenodd"/>
</g>
<g id="Layer-1" data-name="P">
<text xml:space="preserve" transform="matrix(1 0 -0 1 0 842.25)" font-size="14.275" font-family="Times New Roman"><tspan y="-686.85" x="99.875 108.125949 115.60604 119.34609 126.09817 133.57828 138.83148 145.58356 153.06366 160.55805 168.05243 175.54682 178.54457 185.28238 191.27788 197.25911 206.29518 212.26213 219.75652 225.75202 232.50409 238.49959 249.02027 256.50035">&#x0415;&#x0440; &#x0431;&#x043e;&#x0437;&#x043e;&#x0440;&#x0438;&#x043d;&#x0438; &#x0441;&#x0435;&#x0433;&#x043c;&#x0435;&#x043d;&#x0442;&#x043b;&#x0430;&#x0448;&#x0434;&#x0430;</tspan></text>
</g>
<g id="Layer-1" data-name="P">
<text xml:space="preserve" transform="matrix(1 0 -0 1 0 842.25)" font-size="14.275" font-family="Times New Roman"><tspan y="-686.85" x="262.83"> </tspan></text>
</g>
<g id="Layer-1" data-name="P">
<text xml:space="preserve" transform="matrix(1 0 -0 1 0 842.25)" font-size="14.275" font-family="Times New Roman"><tspan y="-686.85" x="266.6 273.35209 280.10417 287.5985 295.09288 302.57295 308.56846 314.54969 322.04405 328.7961 334.79164 342.27174 349.76609">&#x049b;&#x0443;&#x0439;&#x0438;&#x0434;&#x0430;&#x0433;&#x0438;&#x043b;&#x0430;&#x0440;&#x043d;&#x0438;</tspan></text>
</g>
<g id="Layer-1" data-name="P">
<text xml:space="preserve" transform="matrix(1 0 -0 1 0 842.25)" font-size="14.275" font-family="Times New Roman"><tspan y="-686.85" x="357.45"> </tspan></text>
</g>
<g id="Layer-1" data-name="P">
<text xml:space="preserve" transform="matrix(1 0 -0 1 0 842.25)" font-size="14.275" font-family="Times New Roman"><tspan y="-686.85" x="361.2 367.19554 376.94535 384.42546 390.42097 396.41648 403.91084 414.43153 418.17158 424.92366 431.67573 437.65693 445.15129 454.18736">&#x0430;&#x0436;&#x0440;&#x0430;&#x0442;&#x0438;&#x0448; &#x043b;&#x043e;&#x0437;&#x0438;&#x043c;:</tspan></text>
</g>
<g id="Layer-1" data-name="P">
<text xml:space="preserve" transform="matrix(1 0 -0 1 0 842.25)" font-size="14.275" font-family="Times New Roman"><tspan y="-686.85" x="457.33"> </tspan></text>
</g>
<g id="Layer-1" data-name="P">
<path transform="matrix(1,0,0,-1,0,842.25)" d="M 69.85 666.6 L 562.45 666.6 L 562.45 682.35 L 69.85 682.35 Z " fill="#ffffff" fill-rule="evenodd"/>
</g>
<g id="Layer-1" data-name="P">
<text xml:space="preserve" transform="matrix(1 0 -0 1 0 842.25)" font-size="14.275" font-family="Times New Roman"><tspan y="-670.35" x="99.875">-</tspan></text>
</g>
<g id="Layer-1" data-name="P">
<text xml:space="preserve" transform="matrix(1 0 -0 1 0 842.25)" font-size="14.275" font-family="Arial"><tspan y="-670.35" x="104.37"> </tspan></text>
</g>
<g id="Layer-1" data-name="P">
<text xml:space="preserve" transform="matrix(1 0 -0 1 0 842.25)" font-size="14.275" font-family="Times New Roman"><tspan y="-670.35" x="106.62 114.1001 123.13617 132.10086 138.09636 144.83415 152.3428 159.83719 163.57724 170.32932">&#x043e;&#x043c;&#x043c;&#x0430;&#x0432;&#x0438;&#x0439; &#x0443;&#x0439;</tspan></text>
</g>
<g id="Layer-1" data-name="P">
<text xml:space="preserve" transform="matrix(1 0 -0 1 0 842.25)" font-size="14.275" font-family="Times New Roman"><tspan y="-670.35" x="177.98">-</tspan></text>
</g>
<g id="Layer-1" data-name="P">
<text xml:space="preserve" transform="matrix(1 0 -0 1 0 842.25)" font-size="14.275" font-family="Times New Roman"><tspan y="-670.35" x="182.48 192.22983 199.70993 206.462 210.20206 216.95413 223.7062 231.18631 238.6807 245.43277 252.92716 263.44786 270.9422 274.68226 281.43434 288.91444 295.6665 303.16087 306.9009 315.1519 322.632 330.12635 337.6064 343.60194 350.354 356.34953 363.84388 371.33824 378.0903 384.08583 391.5659 399.06025 405.04148 411.037 418.53135 422.2714 429.02348 436.50358 442.49909 449.23689 455.2324 461.98448 467.97999 474.73207 480.72758 488.20768">&#x0436;&#x043e;&#x0439; &#x049b;&#x0443;&#x0440;&#x0438;&#x043b;&#x0438;&#x0448;&#x0438; &#x0443;&#x0447;&#x0443;&#x043d; &#x0444;&#x043e;&#x0439;&#x0434;&#x0430;&#x043b;&#x0430;&#x043d;&#x0438;&#x043b;&#x0430;&#x0434;&#x0438;&#x0433;&#x0430;&#x043d; &#x0443;&#x0447;&#x0430;&#x0441;&#x0442;&#x043a;&#x0430;&#x043b;&#x0430;&#x0440;;</tspan></text>
</g>
<g id="Layer-1" data-name="P">
<text xml:space="preserve" transform="matrix(1 0 -0 1 0 842.25)" font-size="14.275" font-family="Times New Roman"><tspan y="-670.35" x="492.63"> </tspan></text>
</g>
<g id="Layer-1" data-name="P">
<path transform="matrix(1,0,0,-1,0,842.25)" d="M 69.85 650.07 L 562.45 650.07 L 562.45 666.59506 L 69.85 666.59506 Z " fill="#ffffff" fill-rule="evenodd"/>
</g>
<g id="Layer-1" data-name="P">
<text xml:space="preserve" transform="matrix(1 0 -0 1 0 842.25)" font-size="14.275" font-family="Times New Roman"><tspan y="-654.58" x="99.875">-</tspan></text>
</g>
<g id="Layer-1" data-name="P">
<text xml:space="preserve" transform="matrix(1 0 -0 1 0 842.25)" font-size="14.275" font-family="Arial"><tspan y="-654.58" x="104.37"> </tspan></text>
</g>
<g id="Layer-1" data-name="P">
<text xml:space="preserve" transform="matrix(1 0 -0 1 0 842.25)" font-size="14.275" font-family="Times New Roman"><tspan y="-654.58" x="106.62 113.3578 120.10988 126.86195 132.85746 136.5975 142.593 148.5885 156.0686 162.0641 169.55849 177.03859 184.51869 190.51419 194.25424 201.00632">&#x044f;&#x043a;&#x043a;&#x0430; &#x0442;&#x0430;&#x0440;&#x0442;&#x0438;&#x0431;&#x0434;&#x0430; &#x0443;&#x0439;</tspan></text>
</g>
<g id="Layer-1" data-name="P">
<text xml:space="preserve" transform="matrix(1 0 -0 1 0 842.25)" font-size="14.275" font-family="Times New Roman"><tspan y="-654.58" x="208.77">-</tspan></text>
</g>
<g id="Layer-1" data-name="P">
<text xml:space="preserve" transform="matrix(1 0 -0 1 0 842.25)" font-size="14.275" font-family="Times New Roman"><tspan y="-654.58" x="213.27 222.26326 229.74337 237.23775 240.9778 247.72988 254.48195 261.96205 269.4564 279.97709 283.71714 290.4692 297.9493 304.7014 312.19575 315.9358 324.18678 331.66688 339.16123 346.6413 352.6368 359.3889 365.3844 372.87876 380.3731 387.12519 393.1207 400.60078 408.09513 414.07637 420.07188 427.56623 431.30628 438.05836 445.53846 450.79167 457.52946 463.52497 470.27705 476.27256 483.02464 489.02015 496.50025">&#x0436;&#x043e;&#x0439; &#x049b;&#x0443;&#x0440;&#x0438;&#x0448; &#x0443;&#x0447;&#x0443;&#x043d; &#x0444;&#x043e;&#x0439;&#x0434;&#x0430;&#x043b;&#x0430;&#x043d;&#x0438;&#x043b;&#x0430;&#x0434;&#x0438;&#x0433;&#x0430;&#x043d; &#x0443;&#x0447;&#x0430;&#x0441;&#x0442;&#x043a;&#x0430;&#x043b;&#x0430;&#x0440;;</tspan></text>
</g>
<g id="Layer-1" data-name="P">
<text xml:space="preserve" transform="matrix(1 0 -0 1 0 842.25)" font-size="14.275" font-family="Times New Roman"><tspan y="-654.58" x="500.88"> </tspan></text>
</g>
<g id="Layer-1" data-name="P">
<path transform="matrix(1,0,0,-1,0,842.25)" d="M 69.85 634.33 L 562.45 634.33 L 562.45 650.08 L 69.85 650.08 Z " fill="#ffffff" fill-rule="evenodd"/>
</g>
<g id="Layer-1" data-name="P">
<text xml:space="preserve" transform="matrix(1 0 -0 1 0 842.25)" font-size="14.275" font-family="Times New Roman"><tspan y="-638.08" x="99.875">-</tspan></text>
</g>
<g id="Layer-1" data-name="P">
<text xml:space="preserve" transform="matrix(1 0 -0 1 0 842.25)" font-size="14.275" font-family="Arial"><tspan y="-638.08" x="104.37"> </tspan></text>
</g>
<g id="Layer-1" data-name="P">
<text xml:space="preserve" transform="matrix(1 0 -0 1 0 842.25)" font-size="14.275" font-family="Times New Roman"><tspan y="-638.08" x="106.62 112.6155 120.10987 129.8597 137.3398 144.8199 150.8154 156.8109 160.55095 167.30303 174.0551 181.5352 190.57128 195.78165 202.51946 206.2595 215.29558 222.00482 228.7569 235.50897 239.24903 246.72913 254.20923 260.20475 266.95683 272.95234 279.7044 285.69993 293.18003 300.67439 304.41444 311.8945 319.38887 326.14094 332.13645 339.6308 343.37086 350.85093 356.84645 363.5985 371.07859 374.81864 381.5707 389.0508 395.8029 401.78413 407.77964 415.274 419.01405 425.00956 431.76164 439.25599 442.99604 449.7481 456.50019 462.4957 469.9758 477.47016 484.9645 488.70457 495.45664 502.2087 509.6888 517.18319 527.70388 531.4439 538.196 545.6761 552.42819 559.92257">&#x0442;&#x0438;&#x0436;&#x043e;&#x0440;&#x0430;&#x0442; &#x043a;&#x045e;&#x0447;&#x043c;&#x0430;&#x0441; &#x043c;&#x0443;&#x043b;&#x043a; &#x043e;&#x0431;&#x0435;&#x043a;&#x0442;&#x043b;&#x0430;&#x0440;&#x0438; &#x0431;&#x0438;&#x043b;&#x0430;&#x043d; &#x0431;&#x0430;&#x043d;&#x0434; &#x0431;&#x045e;&#x043b;&#x0433;&#x0430;&#x043d; &#x0451;&#x043a;&#x0438; &#x0443;&#x043b;&#x0430;&#x0440;&#x043d;&#x0438; &#x049b;&#x0443;&#x0440;&#x0438;&#x0448; &#x0443;&#x0447;&#x0443;&#x043d; </tspan></text>
<path transform="matrix(1,0,0,-1,0,842.25)" d="M 69.85 617.8 L 562.45 617.8 L 562.45 634.325 L 69.85 634.325 Z " fill="#ffffff" fill-rule="evenodd"/>
</g>
<g id="Layer-1" data-name="P">
<text xml:space="preserve" transform="matrix(1 0 -0 1 0 842.25)" font-size="14.275" font-family="Times New Roman"><tspan y="-622.3" x="71.35 80.38607 87.837619 94.58969 104.33952 110.33503 117.087108 123.83918 129.83467 137.32906 143.31029 149.30579 156.80017 160.54022 167.2923 174.7724 180.7679 187.5057 193.5012 200.25328 206.24878 213.00086 218.99636 226.47646">&#x043c;&#x045e;&#x043b;&#x0436;&#x0430;&#x043b;&#x043b;&#x0430;&#x043d;&#x0433;&#x0430;&#x043d; &#x0443;&#x0447;&#x0430;&#x0441;&#x0442;&#x043a;&#x0430;&#x043b;&#x0430;&#x0440;;</tspan></text>
</g>
<g id="Layer-1" data-name="P">
<text xml:space="preserve" transform="matrix(1 0 -0 1 0 842.25)" font-size="14.275" font-family="Times New Roman"><tspan y="-622.3" x="230.55"> </tspan></text>
</g>
<g id="Layer-1" data-name="P">
<path transform="matrix(1,0,0,-1,0,842.25)" d="M 69.85 602.02 L 562.45 602.02 L 562.45 617.79507 L 69.85 617.79507 Z " fill="#ffffff" fill-rule="evenodd"/>
</g>
<g id="Layer-1" data-name="P">
<text xml:space="preserve" transform="matrix(1 0 -0 1 0 842.25)" font-size="14.275" font-family="Times New Roman"><tspan y="-605.8" x="99.875">-</tspan></text>
</g>
<g id="Layer-1" data-name="P">
<text xml:space="preserve" transform="matrix(1 0 -0 1 0 842.25)" font-size="14.275" font-family="Arial"><tspan y="-605.8" x="104.37"> </tspan></text>
</g>
<g id="Layer-1" data-name="P">
<text xml:space="preserve" transform="matrix(1 0 -0 1 0 842.25)" font-size="14.275" font-family="Times New Roman"><tspan y="-605.8" x="106.62 113.357799 119.353298 126.847667 134.32778 140.32328 146.31877 159.82292 167.3173 176.35338 183.06262 190.54273 196.53823 202.53372 209.2858 215.2813 222.7614 230.25579 243.75994 251.24004 258.7344 265.48649 271.482 278.97636">&#x0441;&#x0430;&#x043d;&#x043e;&#x0430;&#x0442; &#x0438;&#x043c;&#x043e;&#x0440;&#x0430;&#x0442;&#x043b;&#x0430;&#x0440;&#x0438; &#x0431;&#x0438;&#x043b;&#x0430;&#x043d; </tspan></text>
</g>
<g id="Layer-1" data-name="P">
<text xml:space="preserve" transform="matrix(1 0 -0 1 0 842.25)" font-size="14.275" font-family="Times New Roman"><tspan y="-605.8" x="292.88 300.36009 306.3556 313.84996 321.33003 334.83418 342.31425 349.79435 356.54643 362.52766 368.52317 376.01753 389.52168 395.51719 402.26927 409.7636 423.26777 430.01985 436.7719 442.76744 450.24754 457.74189 465.23625 478.7404 485.49247 492.24455 499.72465 507.219 517.7397 531.24386 537.9959 545.476 552.2281 560.4648">&#x0431;&#x0430;&#x043d;&#x0434; &#x0431;&#x045e;&#x043b;&#x0433;&#x0430;&#x043d; &#x0451;&#x043a;&#x0438; &#x0443;&#x043b;&#x0430;&#x0440;&#x043d;&#x0438; &#x049b;&#x0443;&#x0440;&#x0438;&#x0448; &#x0443;&#x0447;&#x0443;&#x043d; </tspan></text>
<path transform="matrix(1,0,0,-1,0,842.25)" d="M 69.85 585.53 L 562.45 585.53 L 562.45 602.03 L 69.85 602.03 Z " fill="#ffffff" fill-rule="evenodd"/>
</g>
<g id="Layer-1" data-name="P">
<text xml:space="preserve" transform="matrix(1 0 -0 1 0 842.25)" font-size="14.275" font-family="Times New Roman"><tspan y="-590.03" x="71.35 80.38607 87.837619 94.58969 104.33952 110.33503 117.087108 123.83918 129.83467 137.32906 143.31029 149.30579 156.80017 160.54022 167.2923 174.7724 180.7679 187.5057 193.5012 200.25328 206.24878 213.00086 218.99636 226.47646">&#x043c;&#x045e;&#x043b;&#x0436;&#x0430;&#x043b;&#x043b;&#x0430;&#x043d;&#x0433;&#x0430;&#x043d; &#x0443;&#x0447;&#x0430;&#x0441;&#x0442;&#x043a;&#x0430;&#x043b;&#x0430;&#x0440;;</tspan></text>
</g>
<g id="Layer-1" data-name="P">
<text xml:space="preserve" transform="matrix(1 0 -0 1 0 842.25)" font-size="14.275" font-family="Times New Roman"><tspan y="-590.03" x="230.55"> </tspan></text>
</g>
<g id="Layer-1" data-name="P">
<path transform="matrix(1,0,0,-1,0,842.25)" d="M 69.85 569.75 L 562.45 569.75 L 562.45 585.525 L 69.85 585.525 Z " fill="#ffffff" fill-rule="evenodd"/>
</g>
<g id="Layer-1" data-name="P">
<text xml:space="preserve" transform="matrix(1 0 -0 1 0 842.25)" font-size="14.275" font-family="Times New Roman"><tspan y="-573.5" x="99.875">-</tspan></text>
</g>
<g id="Layer-1" data-name="P">
<text xml:space="preserve" transform="matrix(1 0 -0 1 0 842.25)" font-size="14.275" font-family="Arial"><tspan y="-573.5" x="104.37"> </tspan></text>
</g>
<g id="Layer-1" data-name="P">
<text xml:space="preserve" transform="matrix(1 0 -0 1 0 842.25)" font-size="14.275" font-family="Times New Roman"><tspan y="-573.5" x="106.62 114.11437 123.8642 129.8597 137.35408 146.39015 153.8417 161.33609 168.83048 181.59233 188.3444 195.82451 201.82 208.57209 214.56758 221.31966 227.31516 234.79526 247.55712 255.03722 262.5316 269.28367 275.27919 282.77354 295.5354 303.01548 309.011 316.50535 323.9854 336.74726 344.22734 351.70744 358.4595 364.44075 370.43626 377.9306 390.69245 396.68797 403.44004 410.9344 423.69624 431.17634 437.9284 443.92393 451.40403 458.89839 466.39274 479.1546 485.90669 492.65876 500.13887 507.6332 518.1539 530.9157 537.6678 545.1479 551.89999 560.13668">&#x0438;&#x0436;&#x0442;&#x0438;&#x043c;&#x043e;&#x0438;&#x0439; &#x043e;&#x0431;&#x0435;&#x043a;&#x0442;&#x043b;&#x0430;&#x0440; &#x0431;&#x0438;&#x043b;&#x0430;&#x043d; &#x0431;&#x0430;&#x043d;&#x0434; &#x0431;&#x045e;&#x043b;&#x0433;&#x0430;&#x043d; &#x0451;&#x043a;&#x0438; &#x0443;&#x043b;&#x0430;&#x0440;&#x043d;&#x0438; &#x049b;&#x0443;&#x0440;&#x0438;&#x0448; &#x0443;&#x0447;&#x0443;&#x043d; </tspan></text>
<path transform="matrix(1,0,0,-1,0,842.25)" d="M 69.85 553.25 L 562.45 553.25 L 562.45 569.75 L 69.85 569.75 Z " fill="#ffffff" fill-rule="evenodd"/>
</g>
<g id="Layer-1" data-name="P">
<text xml:space="preserve" transform="matrix(1 0 -0 1 0 842.25)" font-size="14.275" font-family="Times New Roman"><tspan y="-557.75" x="71.35 80.38607 87.837619 94.58969 104.33952 110.33503 117.087108 123.83918 129.83467 137.32906 143.31029 149.30579 156.80017 160.54022 167.2923 174.7724 180.7679 187.5057 193.5012 200.25328 206.24878 213.00086 218.99636 226.47646">&#x043c;&#x045e;&#x043b;&#x0436;&#x0430;&#x043b;&#x043b;&#x0430;&#x043d;&#x0433;&#x0430;&#x043d; &#x0443;&#x0447;&#x0430;&#x0441;&#x0442;&#x043a;&#x0430;&#x043b;&#x0430;&#x0440;;</tspan></text>
</g>
<g id="Layer-1" data-name="P">
<text xml:space="preserve" transform="matrix(1 0 -0 1 0 842.25)" font-size="14.275" font-family="Times New Roman"><tspan y="-557.75" x="230.55"> </tspan></text>
</g>
<g id="Layer-1" data-name="P">
<path transform="matrix(1,0,0,-1,0,842.25)" d="M 69.85 537.47 L 562.45 537.47 L 562.45 553.245 L 69.85 553.245 Z " fill="#ffffff" fill-rule="evenodd"/>
</g>
<g id="Layer-1" data-name="P">
<text xml:space="preserve" transform="matrix(1 0 -0 1 0 842.25)" font-size="14.275" font-family="Times New Roman"><tspan y="-541.22" x="99.875">-</tspan></text>
</g>
<g id="Layer-1" data-name="P">
<text xml:space="preserve" transform="matrix(1 0 -0 1 0 842.25)" font-size="14.275" font-family="Arial"><tspan y="-541.22" x="104.37"> </tspan></text>
</g>
<g id="Layer-1" data-name="P">
<text xml:space="preserve" transform="matrix(1 0 -0 1 0 842.25)" font-size="14.275" font-family="Times New Roman"><tspan y="-541.22" x="106.62 113.37208 120.86645 131.38713 138.1392 145.61931 152.37139 156.11144 162.86351 170.34362 180.09345 186.08895 192.84102 200.3354 206.31664 213.81102 219.79225 225.78775 229.5278 237.77875 245.25885 252.01093 261.76075 267.75627 274.50834 281.2604 287.25593 294.75028 300.7315 306.72703 314.22138 317.96144 323.95695 331.43705 335.1771 341.92918 349.40928 355.4048 362.14259 368.1381 374.89018 380.88569 387.63777 393.63328 401.11338 408.60774">&#x049b;&#x0438;&#x0448;&#x043b;&#x043e;&#x049b; &#x0445;&#x045e;&#x0436;&#x0430;&#x043b;&#x0438;&#x0433;&#x0438;&#x0433;&#x0430; &#x043c;&#x045e;&#x043b;&#x0436;&#x0430;&#x043b;&#x043b;&#x0430;&#x043d;&#x0433;&#x0430;&#x043d; &#x0435;&#x0440; &#x0443;&#x0447;&#x0430;&#x0441;&#x0442;&#x043a;&#x0430;&#x043b;&#x0430;&#x0440;&#x0438;;</tspan></text>
</g>
<g id="Layer-1" data-name="P">
<text xml:space="preserve" transform="matrix(1 0 -0 1 0 842.25)" font-size="14.275" font-family="Times New Roman"><tspan y="-541.22" x="413.02"> </tspan></text>
</g>
<g id="Layer-1" data-name="P">
<path transform="matrix(1,0,0,-1,0,842.25)" d="M 69.85 521.7 L 562.45 521.7 L 562.45 537.47506 L 69.85 537.47506 Z " fill="#ffffff" fill-rule="evenodd"/>
</g>
<g id="Layer-1" data-name="P">
<text xml:space="preserve" transform="matrix(1 0 -0 1 0 842.25)" font-size="14.275" font-family="Times New Roman"><tspan y="-525.47" x="99.875">-</tspan></text>
</g>
<g id="Layer-1" data-name="P">
<text xml:space="preserve" transform="matrix(1 0 -0 1 0 842.25)" font-size="14.275" font-family="Arial"><tspan y="-525.47" x="104.37"> </tspan></text>
</g>
<g id="Layer-1" data-name="P">
<text xml:space="preserve" transform="matrix(1 0 -0 1 0 842.25)" font-size="14.275" font-family="Times New Roman"><tspan y="-525.47" x="106.62 113.37208 120.85217 128.34656 132.08661 139.581 147.07538 153.82746 160.57953 168.07392 174.82599 178.56604 186.04615 192.04164 199.52175 205.51725 212.26932 218.26482 225.01689 231.01239 238.4925 241.49025 248.97035 256.46473 263.2168 269.2123 276.70668 280.44673 287.9268 293.9223 301.41667 308.89674 311.89448 319.37455 326.85466 333.60673 339.58796 345.58348 352.33555 356.0756 362.0711 369.5512 373.29127 379.28678 386.76689 392.7624 399.50019 405.4957 412.24778 418.2433 424.99537 430.99089 438.47099">&#x043a;&#x045e;&#x043f; &#x0439;&#x0438;&#x043b;&#x043b;&#x0438;&#x043a; &#x0434;&#x0430;&#x0440;&#x0430;&#x0445;&#x0442;&#x043b;&#x0430;&#x0440; &#x0431;&#x0438;&#x043b;&#x0430;&#x043d; &#x0431;&#x0430;&#x043d;&#x0434; &#x0431;&#x045e;&#x043b;&#x0433;&#x0430;&#x043d; &#x0435;&#x0440; &#x0443;&#x0447;&#x0430;&#x0441;&#x0442;&#x043a;&#x0430;&#x043b;&#x0430;&#x0440;;</tspan></text>
</g>
<g id="Layer-1" data-name="P">
<text xml:space="preserve" transform="matrix(1 0 -0 1 0 842.25)" font-size="14.275" font-family="Times New Roman"><tspan y="-525.47" x="443.05"> </tspan></text>
</g>
<g id="Layer-1" data-name="P">
<path transform="matrix(1,0,0,-1,0,842.25)" d="M 69.85 505.2 L 562.45 505.2 L 562.45 521.7 L 69.85 521.7 Z " fill="#ffffff" fill-rule="evenodd"/>
</g>
<g id="Layer-1" data-name="P">
<text xml:space="preserve" transform="matrix(1 0 -0 1 0 842.25)" font-size="14.275" font-family="Times New Roman"><tspan y="-509.7" x="99.875">-</tspan></text>
</g>
<g id="Layer-1" data-name="P">
<text xml:space="preserve" transform="matrix(1 0 -0 1 0 842.25)" font-size="14.275" font-family="Arial"><tspan y="-509.7" x="104.37"> </tspan></text>
</g>
<g id="Layer-1" data-name="P">
<text xml:space="preserve" transform="matrix(1 0 -0 1 0 842.25)" font-size="14.275" font-family="Times New Roman"><tspan y="-509.7" x="106.62 114.100109 120.85218 126.833408 133.58548 141.06558 147.81766 155.29776 162.79215 169.54422 177.0386">&#x0431;&#x043e;&#x0493;&#x0434;&#x043e;&#x0440;&#x0447;&#x0438;&#x043b;&#x0438;&#x043a;</tspan></text>
</g>
<g id="Layer-1" data-name="P">
<text xml:space="preserve" transform="matrix(1 0 -0 1 0 842.25)" font-size="14.275" font-family="Times New Roman"><tspan y="-509.7" x="183.98">-</tspan></text>
</g>
<g id="Layer-1" data-name="P">
<text xml:space="preserve" transform="matrix(1 0 -0 1 0 842.25)" font-size="14.275" font-family="Times New Roman"><tspan y="-509.7" x="188.5 195.25208 201.2333 207.98538 217.02146 224.473 231.96739 238.71947 246.21385 252.96593 256.70597 263.44377 269.45353 273.19358 278.44679 285.92689 294.17784 301.65794 309.13804 315.8901 321.88563 325.62568 336.14637 343.64073 351.12083 357.8729 363.8684 369.86393 376.616 382.6115 390.0916 397.58598 405.08033 412.57469 420.06904 425.32225 429.0623 435.0578 442.5379 446.27796 452.27348 459.75358 465.74909 472.48689 478.4824 485.23448 491.22999 497.98207 503.97758 511.45768">&#x0443;&#x0437;&#x0443;&#x043c;&#x0447;&#x0438;&#x043b;&#x0438;&#x043a; &#x0432;&#x0430; &#x0442;&#x043e;&#x043c;&#x043e;&#x0440;&#x049b;&#x0430; &#x0448;&#x0438;&#x0440;&#x043a;&#x0430;&#x0442;&#x043b;&#x0430;&#x0440;&#x0438;&#x043d;&#x0438;&#x043d;&#x0433; &#x0435;&#x0440; &#x0443;&#x0447;&#x0430;&#x0441;&#x0442;&#x043a;&#x0430;&#x043b;&#x0430;&#x0440;&#x0438;</tspan></text>
</g>
<g id="Layer-1" data-name="P">
<text xml:space="preserve" transform="matrix(1 0 -0 1 0 842.25)" font-size="14.275" font-family="Times New Roman"><tspan y="-509.7" x="519.65">.</tspan></text>
</g>
<g id="Layer-1" data-name="P">
<text xml:space="preserve" transform="matrix(1 0 -0 1 0 842.25)" font-size="14.275" font-family="Times New Roman"><tspan y="-509.7" x="522.65"> </tspan></text>
</g>
<g id="Layer-1" data-name="P">
<path transform="matrix(1,0,0,-1,0,842.25)" d="M 69.85 489.42 L 562.45 489.42 L 562.45 505.195 L 69.85 505.195 Z " fill="#ffffff" fill-rule="evenodd"/>
</g>
<g id="Layer-1" data-name="P">
<text xml:space="preserve" transform="matrix(1 0 -0 1 0 842.25)" font-size="14.275" font-family="Times New Roman,BoldItalic" font-weight="bold" font-style="italic"><tspan y="-493.95" x="99.875">3</tspan></text>
</g>
<g id="Layer-1" data-name="P">
<text xml:space="preserve" transform="matrix(1 0 -0 1 0 842.25)" font-size="14.275" font-family="Times New Roman,BoldItalic" font-weight="bold" font-style="italic"><tspan y="-493.95" x="107.37">-</tspan></text>
</g>
<g id="Layer-1" data-name="P">
<text xml:space="preserve" transform="matrix(1 0 -0 1 0 842.25)" font-size="14.275" font-family="Times New Roman,BoldItalic" font-weight="bold" font-style="italic"><tspan y="-493.95" x="111.9 118.65208 125.40415 131.39965 138.87975 147.11643 154.6108">&#x0431;&#x043e;&#x0441;&#x049b;&#x0438;&#x0447;.</tspan></text>
<path transform="matrix(1,0,0,-1,0,842.25)" d="M 99.875 490.92 L 158.45 490.92 L 158.45 492.42 L 99.875 492.42 Z " fill-rule="evenodd"/>
</g>
<g id="Layer-1" data-name="P">
<text xml:space="preserve" transform="matrix(1 0 -0 1 0 842.25)" font-size="14.275" font-family="Times New Roman"><tspan y="-493.95" x="158.45"> </tspan></text>
</g>
<g id="Layer-1" data-name="P">
<text xml:space="preserve" transform="matrix(1 0 -0 1 0 842.25)" font-size="14.275" font-family="Times New Roman"><tspan y="-493.95" x="164.45 172.68668 178.68218 185.43425 192.91436 199.66643 205.66193 213.15631 219.15181 225.14731 231.1428 237.12404 243.11954 250.61392 256.59516 262.59068 270.07078 276.052 282.80409 290.28419 296.2797 303.0175 309.013 315.76509 321.7606 328.49839 335.99275 343.4871 350.98146 356.96269 364.44279 371.19486 381.71556 387.71107 398.97407 404.9553 410.9508 418.4309 424.41215 431.1642 438.64433 444.63984 451.37763 457.37315 464.1252 470.12074 476.8728 482.86833 490.34843 497.84278 503.824 510.5618 518.05618 527.0494 533.04489 539.04037 546.5347 554.01486 560.0103">&#x0411;&#x0430;&#x04b3;&#x043e;&#x043b;&#x0430;&#x043d;&#x0430;&#x0451;&#x0442;&#x0433;&#x0430;&#x043d; &#x0435;&#x0440; &#x0443;&#x0447;&#x0430;&#x0441;&#x0442;&#x043a;&#x0430;&#x0441;&#x0438;&#x043d;&#x0438; &#x045e;&#x0445;&#x0448;&#x0430;&#x0448; &#x0435;&#x0440; &#x0443;&#x0447;&#x0430;&#x0441;&#x0442;&#x043a;&#x0430;&#x043b;&#x0430;&#x0440;&#x0438; &#x0441;&#x0438;&#x0444;&#x0430;&#x0442;&#x0438;&#x0434;&#x0430; </tspan></text>
<path transform="matrix(1,0,0,-1,0,842.25)" d="M 69.85 472.92 L 562.45 472.92 L 562.45 489.42 L 69.85 489.42 Z " fill="#ffffff" fill-rule="evenodd"/>
</g>
<g id="Layer-1" data-name="P">
<text xml:space="preserve" transform="matrix(1 0 -0 1 0 842.25)" font-size="14.275" font-family="Times New Roman"><tspan y="-477.42" x="71.35 77.3455 83.340999 90.835369 97.58744 103.58294 111.06304 118.54314 126.02323 132.7753 140.26969 147.76407 153.7453 159.7408 167.23519 174.71529 180.71079 188.19089 194.18639 201.68077 208.43285 214.41408 220.40958 227.90396 235.38407 241.37957 248.85967 256.33979 263.09187 270.57197 275.82518 282.56297 288.55848 295.31056 301.30607 308.05815 314.05366 321.53376 329.0281 336.5082 343.98829 351.48265 358.2347 364.23023 371.72459 379.20469 385.2002 391.1957 397.94779 404.69987 412.17997 418.91777 425.66984 431.66535 442.18605 445.9261 453.4062 461.64286 467.63838 474.39045 481.87055 488.62263 494.61814 502.1125 508.108 514.1035 520.099 526.0802 532.0757 539.57009 547.0502 553.78799 559.7977">&#x0442;&#x0430;&#x043d;&#x043b;&#x0430;&#x0431; &#x043e;&#x043b;&#x0438;&#x043d;&#x0433;&#x0430;&#x043d; &#x0441;&#x043e;&#x0442;&#x0438;&#x043b;&#x0433;&#x0430;&#x043d; &#x0435;&#x0440; &#x0443;&#x0447;&#x0430;&#x0441;&#x0442;&#x043a;&#x0430;&#x043b;&#x0430;&#x0440;&#x0438; &#x0431;&#x0438;&#x043b;&#x0430;&#x043d; &#x0442;&#x0430;&#x049b;&#x049b;&#x043e;&#x0441;&#x043b;&#x0430;&#x0448;. &#x0411;&#x0430;&#x04b3;&#x043e;&#x043b;&#x0430;&#x043d;&#x0430;&#x0451;&#x0442;&#x0433;&#x0430;&#x043d; &#x0432;&#x0430; </tspan></text>
<path transform="matrix(1,0,0,-1,0,842.25)" d="M 69.85 457.15 L 562.45 457.15 L 562.45 472.925 L 69.85 472.925 Z " fill="#ffffff" fill-rule="evenodd"/>
</g>
<g id="Layer-1" data-name="P">
<text xml:space="preserve" transform="matrix(1 0 -0 1 0 842.25)" font-size="14.275" font-family="Times New Roman"><tspan y="-460.9" x="71.35 78.10207 85.59644 91.59194 98.329738 105.08181 111.07731 118.57168 124.56718 130.56267 136.55817 142.5394 148.5349 156.02928 166.53569 172.53119 180.01129 190.5177 197.26978 204.74988 210.74538 217.48319 223.47869 230.23076 236.22626 242.97834 248.97383 256.45393 263.94828 274.45469 281.20677 288.68687 294.68238 300.6779 307.41569 314.16777 321.64784 327.64335 333.62458 341.11894 351.62535 360.6186 366.6141 374.0942 380.84629 387.59837 393.59388 401.07398 408.56834 415.3204">&#x049b;&#x0438;&#x0451;&#x0441;&#x043b;&#x0430;&#x043d;&#x0430;&#x0451;&#x0442;&#x0433;&#x0430;&#x043d; &#x0435;&#x0440; &#x0443;&#x0447;&#x0430;&#x0441;&#x0442;&#x043a;&#x0430;&#x043b;&#x0430;&#x0440;&#x0438; &#x045e;&#x0440;&#x0442;&#x0430;&#x0441;&#x0438;&#x0434;&#x0430;&#x0433;&#x0438; &#x0444;&#x0430;&#x0440;&#x049b;&#x043b;&#x0430;&#x0440;&#x043d;&#x0438; </tspan></text>
</g>
<g id="Layer-1" data-name="P">
<text xml:space="preserve" transform="matrix(1 0 -0 1 0 842.25)" font-size="14.275" font-family="Times New Roman"><tspan y="-460.9" x="426.55 433.30207 440.79643 446.79194 454.27204 461.0241 467.00535 473.00086 483.50727 490.98738 497.73945 503.72068 509.7162 517.2106 527.7169 533.7124 541.1925 547.9446 555.4247 560.67788">&#x04b3;&#x0438;&#x0441;&#x043e;&#x0431;&#x0433;&#x0430; &#x043e;&#x043b;&#x0433;&#x0430;&#x043d; &#x04b3;&#x043e;&#x043b;&#x0434;&#x0430; </tspan></text>
<path transform="matrix(1,0,0,-1,0,842.25)" d="M 69.85 440.65 L 562.45 440.65 L 562.45 457.15 L 69.85 457.15 Z " fill="#ffffff" fill-rule="evenodd"/>
</g>
<g id="Layer-1" data-name="P">
<text xml:space="preserve" transform="matrix(1 0 -0 1 0 842.25)" font-size="14.275" font-family="Times New Roman"><tspan y="-445.15" x="71.35 77.3455 84.09757 90.0788 96.0743 102.0698 109.56417 120.08485 126.83692 132.83242 140.31252 144.05257 150.80464 158.29903 165.77913 173.27352 179.26902 186.7634 197.28408 201.02413 204.76418 214.514 225.03469 232.51479 239.26686 243.00691 252.00017 257.99568 265.47578 272.22785 278.97993 284.97544 292.45555 299.9499 307.44425 311.1843 318.67866 325.43074 332.1828 339.67716 343.4172 350.16929 356.90708 363.65916 370.41123 377.8913 383.8868 386.88456 394.36463 400.36015 407.1122 414.59233 421.3444 427.3399 437.8606 441.60066 450.63673 457.34599 466.38206 473.0913 480.58567 488.08003">&#x0442;&#x0443;&#x0437;&#x0430;&#x0442;&#x0438;&#x0448;&#x043b;&#x0430;&#x0440; &#x043a;&#x0438;&#x0440;&#x0438;&#x0442;&#x0438;&#x0448;. &#x0423;&#x0448;&#x0431;&#x0443; &#x0444;&#x0430;&#x0440;&#x049b;&#x043b;&#x0430;&#x0440;&#x043d;&#x0438; &#x0438;&#x043a;&#x043a;&#x0438; &#x0443;&#x0441;&#x0443;&#x043b;&#x0434;&#x0430; &#x0431;&#x0430;&#x04b3;&#x043e;&#x043b;&#x0430;&#x0448; &#x043c;&#x0443;&#x043c;&#x043a;&#x0438;&#x043d;:</tspan></text>
</g>
<g id="Layer-1" data-name="P">
<text xml:space="preserve" transform="matrix(1 0 -0 1 0 842.25)" font-size="14.275" font-family="Times New Roman"><tspan y="-445.15" x="492.63"> </tspan></text>
</g>
<g id="Layer-1" data-name="P">
<path transform="matrix(1,0,0,-1,0,842.25)" d="M 69.85 424.88 L 562.45 424.88 L 562.45 440.655 L 69.85 440.655 Z " fill="#ffffff" fill-rule="evenodd"/>
</g>
<g id="Layer-1" data-name="P">
<text xml:space="preserve" transform="matrix(1 0 -0 1 0 842.25)" font-size="14.275" font-family="Times New Roman"><tspan y="-428.63" x="99.875">-</tspan></text>
</g>
<g id="Layer-1" data-name="P">
<text xml:space="preserve" transform="matrix(1 0 -0 1 0 842.25)" font-size="14.275" font-family="Arial"><tspan y="-428.63" x="104.37"> </tspan></text>
</g>
<g id="Layer-1" data-name="P">
<text xml:space="preserve" transform="matrix(1 0 -0 1 0 842.25)" font-size="14.275" font-family="Times New Roman"><tspan y="-428.63" x="106.62"> </tspan></text>
</g>
<g id="Layer-1" data-name="P">
<text xml:space="preserve" transform="matrix(1 0 -0 1 0 842.25)" font-size="14.275" font-family="Times New Roman"><tspan y="-428.63" x="110.4 116.3955 122.391 129.14307 135.89514 143.37525 150.11305 156.86513 162.86063 173.3813 177.12136 183.87343 191.36782 198.10562 204.8577 212.3378 219.08988 225.08538 232.56548 239.31755 243.0576 249.80968 257.28977 264.78413 272.27848 279.75859 285.7541">&#x0442;&#x0430;&#x049b;&#x049b;&#x043e;&#x0441;&#x043b;&#x0430;&#x0448; &#x0443;&#x043d;&#x0441;&#x0443;&#x0440;&#x043b;&#x0430;&#x0440;&#x0438; &#x0431;&#x045e;&#x0439;&#x0438;&#x0447;&#x0430;;</tspan></text>
</g>
<g id="Layer-1" data-name="P">
<text xml:space="preserve" transform="matrix(1 0 -0 1 0 842.25)" font-size="14.275" font-family="Times New Roman"><tspan y="-428.63" x="289.13"> </tspan></text>
</g>
<g id="Layer-1" data-name="P">
<path transform="matrix(1,0,0,-1,0,842.25)" d="M 69.85 408.35 L 562.45 408.35 L 562.45 424.875 L 69.85 424.875 Z " fill="#ffffff" fill-rule="evenodd"/>
</g>
<g id="Layer-1" data-name="P">
<text xml:space="preserve" transform="matrix(1 0 -0 1 0 842.25)" font-size="14.275" font-family="Times New Roman"><tspan y="-412.88" x="99.875">-</tspan></text>
</g>
<g id="Layer-1" data-name="P">
<text xml:space="preserve" transform="matrix(1 0 -0 1 0 842.25)" font-size="14.275" font-family="Arial"><tspan y="-412.88" x="104.37"> </tspan></text>
</g>
<g id="Layer-1" data-name="P">
<text xml:space="preserve" transform="matrix(1 0 -0 1 0 842.25)" font-size="14.275" font-family="Times New Roman"><tspan y="-412.88" x="106.62"> </tspan></text>
</g>
<g id="Layer-1" data-name="P">
<text xml:space="preserve" transform="matrix(1 0 -0 1 0 842.25)" font-size="14.275" font-family="Times New Roman"><tspan y="-412.88" x="110.4 116.3955 122.391 129.14307 135.89514 143.37525 150.11305 156.86513 162.86063 173.3813 177.12136 184.60146 191.35353 198.83364 205.58571 213.0801 219.83217 226.58425 232.57975 240.05985 247.55423 251.29428 257.2898 264.7699 272.24998 278.24549 287.28157 293.99079 301.47087 307.46638">&#x0442;&#x0430;&#x049b;&#x049b;&#x043e;&#x0441;&#x043b;&#x0430;&#x0448; &#x0431;&#x0438;&#x0440;&#x043b;&#x0438;&#x043a;&#x043b;&#x0430;&#x0440;&#x0438; &#x0451;&#x0440;&#x0434;&#x0430;&#x043c;&#x0438;&#x0434;&#x0430;.</tspan></text>
</g>
<g id="Layer-1" data-name="P">
<text xml:space="preserve" transform="matrix(1 0 -0 1 0 842.25)" font-size="14.275" font-family="Times New Roman"><tspan y="-412.88" x="310.9"> </tspan></text>
</g>
<g id="Layer-1" data-name="P">
<path transform="matrix(1,0,0,-1,0,842.25)" d="M 69.85 392.6 L 562.45 392.6 L 562.45 408.35 L 69.85 408.35 Z " fill="#ffffff" fill-rule="evenodd"/>
</g>
<g id="Layer-1" data-name="P">
<text xml:space="preserve" transform="matrix(1 0 -0 1 0 842.25)" font-size="14.275" font-family="Times New Roman"><tspan y="-396.35" x="99.875 108.125949 115.60604 123.086139 129.83821 137.31832 143.31381 150.05162 156.04712 162.7992 168.7947 175.54677 181.54227 189.02237 196.51676 204.01114 211.50553 218.99991 224.25312 231.73322 237.72872 245.20882 251.20432 258.69868 269.21937 276.69947 284.19383 290.18934 297.66944 304.4215 311.91587 317.8971 323.1503 330.6304 336.62593 342.62144 350.10154 356.83934 363.5914 371.0715 378.5516 384.5471 390.5426 397.29469 403.29017 410.77027 418.26463 425.74473 432.4968 439.24888 445.98667 451.98219 458.71998 466.21434 472.95213 478.94764 485.6997 491.69523 499.17533 506.66969 513.4075 520.14529 526.155 533.63516 540.3872 547.1393 553.13479 559.88687">&#x0415;&#x0440; &#x0443;&#x0447;&#x0430;&#x0441;&#x0442;&#x043a;&#x0430;&#x043b;&#x0430;&#x0440;&#x0438;&#x043d;&#x0438;&#x043d;&#x0433; &#x0441;&#x043e;&#x0442;&#x0438;&#x0448; &#x043d;&#x0430;&#x0440;&#x0445;&#x0438;&#x0433;&#x0430; &#x0442;&#x0430;&#x044a;&#x0441;&#x0438;&#x0440; &#x044d;&#x0442;&#x0443;&#x0432;&#x0447;&#x0438; &#x04b3;&#x0443;&#x0441;&#x0443;&#x0441;&#x0438;&#x044f;&#x0442;&#x043b;&#x0430;&#x0440;&#x0438; &#x0432;&#x0430; &#x0443;&#x043b;&#x0430;&#x0440; </tspan></text>
<path transform="matrix(1,0,0,-1,0,842.25)" d="M 69.85 376.07 L 562.45 376.07 L 562.45 392.595 L 69.85 392.595 Z " fill="#ffffff" fill-rule="evenodd"/>
</g>
<g id="Layer-1" data-name="P">
<text xml:space="preserve" transform="matrix(1 0 -0 1 0 842.25)" font-size="14.275" font-family="Times New Roman"><tspan y="-380.58" x="71.35 78.8301 86.32447 93.076549 99.072048 106.566417 114.803089 122.28319 129.77758">&#x0431;&#x0438;&#x043b;&#x0430;&#x043d; &#x0431;&#x0438;&#x0442;</tspan></text>
</g>
<g id="Layer-1" data-name="P">
<text xml:space="preserve" transform="matrix(1 0 -0 1 0 842.25)" font-size="14.275" font-family="Times New Roman"><tspan y="-380.58" x="135.93">&#x0438;</tspan></text>
</g>
<g id="Layer-1" data-name="P">
<text xml:space="preserve" transform="matrix(1 0 -0 1 0 842.25)" font-size="14.275" font-family="Times New Roman"><tspan y="-380.58" x="143.43 152.46607 159.17533 165.17082 172.65093 180.8876 186.8831 193.63518 199.61641 207.1108 217.63147 225.86815 236.38883 242.38433 249.86443 255.85993 262.612 268.6075 276.08763 283.58198">&#x043c;&#x043b;&#x0430;&#x0440; &#x0442;&#x0443;&#x0437;&#x0438;&#x0448; &#x0448;&#x0430;&#x0440;&#x0442;&#x043b;&#x0430;&#x0440;&#x0438; </tspan></text>
</g>
<g id="Layer-1" data-name="P">
<text xml:space="preserve" transform="matrix(1 0 -0 1 0 842.25)" font-size="14.275" font-family="Times New Roman,Italic" font-style="italic"><tspan y="-380.58" x="292.13 302.6364 310.11653 316.8543 323.5921 330.34419 336.3397 342.3352 349.8153 360.33598 368.57267 374.56819 380.5637 386.5592">&#x0442;&#x0430;&#x049b;&#x049b;&#x043e;&#x0441;&#x043b;&#x0430;&#x0448; &#x0443;&#x0441;&#x0443;&#x043b;</tspan></text>
</g>
<g id="Layer-1" data-name="P">
<text xml:space="preserve" transform="matrix(1 0 -0 1 0 842.25)" font-size="14.275" font-family="Times New Roman,Italic" font-style="italic"><tspan y="-380.58" x="392.75 398.7455 406.22563 412.9777">&#x043b;&#x0430;&#x0440;&#x0438;</tspan></text>
</g>
<g id="Layer-1" data-name="P">
<text xml:space="preserve" transform="matrix(1 0 -0 1 0 842.25)" font-size="14.275" font-family="Times New Roman"><tspan y="-380.58" x="420.52"> </tspan></text>
</g>
<g id="Layer-1" data-name="P">
<text xml:space="preserve" transform="matrix(1 0 -0 1 0 842.25)" font-size="14.275" font-family="Times New Roman"><tspan y="-380.58" x="428.8 435.55207 443.04643 449.7842 456.5363 464.01637 470.76844 476.76396 484.2583 490.2538 497.7339 505.22825 508.9683 517.20498 526.9405 534.4349 539.68807 546.42587 553.9202 560.6723">&#x04b3;&#x0438;&#x0441;&#x043e;&#x0431;&#x043b;&#x0430;&#x043d;&#x0430;&#x0434;&#x0438;. &#x049a;&#x0438;&#x0451;&#x0441;&#x0438;&#x0439; </tspan></text>
<path transform="matrix(1,0,0,-1,0,842.25)" d="M 69.85 360.32 L 562.45 360.32 L 562.45 376.07 L 69.85 376.07 Z " fill="#ffffff" fill-rule="evenodd"/>
</g>
<g id="Layer-1" data-name="P">
<text xml:space="preserve" transform="matrix(1 0 -0 1 0 842.25)" font-size="14.275" font-family="Times New Roman"><tspan y="-364.08" x="71.35 78.08779 85.56789 91.563388 98.31546 105.05326 111.81961 117.81512 125.29521 132.7896 139.54167 147.02178 153.01728 159.01277 165.76485 172.51692 180.0113 186.76338 194.24349 200.99556 208.48995 215.24202 222.7364 233.25708 240.73719 248.23157 255.71167 262.46376 269.9581 277.4382 284.91828 292.41264 299.1647 305.16023 312.65458 320.13468 326.87248 332.86799 338.8635 346.35786 353.83793 359.83345 367.31355 372.56675 380.04685 386.04237 393.52247 401.00257 406.99809 414.47819 420.4737 427.2115 433.207 439.95909 445.9546 452.69239 460.18675 467.6811 475.17546 481.92753 487.90876 495.38887 502.14094 509.63529 517.12966 526.1657 532.1326 538.1281 545.6225 553.1169 559.86898">&#x0441;&#x043e;&#x0442;&#x0443;&#x0432;&#x043b;&#x0430;&#x0440;&#x043d;&#x0438; &#x0442;&#x0430;&#x04b3;&#x043b;&#x0438;&#x043b; &#x049b;&#x0438;&#x043b;&#x0438;&#x0448; &#x0439;&#x045e;&#x043b;&#x0438; &#x0431;&#x0438;&#x043b;&#x0430;&#x043d; &#x0441;&#x0442;&#x0430;&#x043d;&#x0434;&#x0430;&#x0440;&#x0442; &#x0435;&#x0440; &#x0443;&#x0447;&#x0430;&#x0441;&#x0442;&#x043a;&#x0430;&#x0441;&#x0438;&#x043d;&#x0438;&#x043d;&#x0433; &#x049b;&#x0438;&#x0439;&#x043c;&#x0430;&#x0442;&#x0438;&#x043d;&#x0438; </tspan></text>
<path transform="matrix(1,0,0,-1,0,842.25)" d="M 69.85 343.8 L 562.45 343.8 L 562.45 360.32499 L 69.85 360.32499 Z " fill="#ffffff" fill-rule="evenodd"/>
</g>
<g id="Layer-1" data-name="P">
<text xml:space="preserve" transform="matrix(1 0 -0 1 0 842.25)" font-size="14.275" font-family="Times New Roman"><tspan y="-348.3" x="71.35 77.3455 84.83987 92.334239 99.08631 105.83839 111.833889 119.31399 123.05404 129.03527 135.77307 143.25318 150.00525 155.98648 163.46659 169.46208 174.70102 182.18112 189.66123 200.1819 206.93398 212.92948 218.9107 224.9062 232.3863 238.36754 244.36304 251.84314 257.83866 264.57646 270.57197 277.32405 283.31956 290.07164 296.06715 303.54725 311.0416 318.53596 326.0303 333.52467 339.5059 345.48713 352.2392 359.73356 367.2279 376.26399 382.23094 388.22645 395.7208 403.21516 410.7095 416.69075 423.4428 430.93717 436.93269 444.41279 451.89286 458.64494 464.64045 472.1205 477.35945 484.83955 492.3339 499.08598 506.58033 517.101 523.0822 529.0777 535.0589 541.0544 547.04989 553.80197 559.7974">&#x0430;&#x043d;&#x0438;&#x049b;&#x043b;&#x0430;&#x0431;, &#x0441;&#x045e;&#x043d;&#x0433;&#x0440;&#x0430; &#x0431;&#x043e;&#x0448;&#x049b;&#x0430; &#x0435;&#x0440; &#x0443;&#x0447;&#x0430;&#x0441;&#x0442;&#x043a;&#x0430;&#x043b;&#x0430;&#x0440;&#x0438;&#x043d;&#x0438;&#x043d;&#x0433; &#x049b;&#x0438;&#x0439;&#x043c;&#x0430;&#x0442;&#x0438;&#x043d;&#x0438; &#x04b3;&#x0438;&#x0441;&#x043e;&#x0431;&#x043b;&#x0430;&#x0431; &#x0447;&#x0438;&#x049b;&#x0438;&#x0448;&#x0433;&#x0430; &#x0430;&#x0441;&#x043e;&#x0441; </tspan></text>
<path transform="matrix(1,0,0,-1,0,842.25)" d="M 69.85 328.05 L 562.45 328.05 L 562.45 343.8 L 69.85 343.8 Z " fill="#ffffff" fill-rule="evenodd"/>
</g>
<g id="Layer-1" data-name="P">
<text xml:space="preserve" transform="matrix(1 0 -0 1 0 842.25)" font-size="14.275" font-family="Times New Roman"><tspan y="-331.8" x="71.35 78.8301 86.310199 93.06227 99.05778 106.53788 114.03225 117.03 128.29297 136.52965 143.28173 150.77611 158.25621 164.25171 171.7461 182.2525 188.99031 194.98581 200.98131 208.4757 215.9558 221.9513 229.4314 235.4269 246.68988 252.68538 260.16548 266.16099 272.89878 278.8943 285.64637 291.64189 302.1483 308.88609 316.38044 325.3737 331.3692 337.36473 344.85908 352.33915 358.33467 369.59764 377.07774 383.07325 389.06877 395.82084 407.0838 413.0793 419.8314 427.32575 438.5887 449.1094 455.10493 462.58503 468.58055 475.3326 482.82698 494.08995 500.842 508.3221 514.3176 521.0554 527.0509 533.803 539.79849 547.27859 553.27407 560.0261">&#x0431;&#x045e;&#x043b;&#x0430;&#x0434;&#x0438;. &#x0411;&#x0443;&#x043d;&#x0434;&#x0430;&#x0439; &#x0441;&#x0442;&#x0430;&#x043d;&#x0434;&#x0430;&#x0440;&#x0442; &#x0443;&#x0447;&#x0430;&#x0441;&#x0442;&#x043a;&#x0430; &#x0441;&#x0438;&#x0444;&#x0430;&#x0442;&#x0438;&#x0434;&#x0430; &#x0440;&#x0435;&#x0430;&#x043b; &#x0451;&#x043a;&#x0438; &#x0448;&#x0430;&#x0440;&#x0442;&#x043b;&#x0438; &#x0443;&#x0447;&#x0430;&#x0441;&#x0442;&#x043a;&#x0430;&#x0434;&#x0430;&#x043d; </tspan></text>
<path transform="matrix(1,0,0,-1,0,842.25)" d="M 69.85 312.27 L 562.45 312.27 L 562.45 328.04499 L 69.85 328.04499 Z " fill="#ffffff" fill-rule="evenodd"/>
</g>
<g id="Layer-1" data-name="P">
<text xml:space="preserve" transform="matrix(1 0 -0 1 0 842.25)" font-size="14.275" font-family="Times New Roman"><tspan y="-316.03" x="71.35 80.34325 87.82334 95.31771 102.79781 108.79331 115.54539 121.540889 129.03527 136.52965 147.05033 150.79038 159.82645 166.53569 175.57176 182.28102 189.7754 197.26979">&#x0444;&#x043e;&#x0439;&#x0434;&#x0430;&#x043b;&#x0430;&#x043d;&#x0438;&#x0448; &#x043c;&#x0443;&#x043c;&#x043a;&#x0438;&#x043d;.</tspan></text>
</g>
<g id="Layer-1" data-name="P">
<text xml:space="preserve" transform="matrix(1 0 -0 1 0 842.25)" font-size="14.275" font-family="Times New Roman"><tspan y="-316.03" x="201.25"> </tspan></text>
</g>
<g id="Layer-1" data-name="P">
<path transform="matrix(1,0,0,-1,0,842.25)" d="M 69.85 295.75 L 562.45 295.75 L 562.45 312.275 L 69.85 312.275 Z " fill="#ffffff" fill-rule="evenodd"/>
</g>
<g id="Layer-1" data-name="P">
<text xml:space="preserve" transform="matrix(1 0 -0 1 0 842.25)" font-size="14.275" font-family="Times New Roman,Italic" font-style="italic"><tspan y="-300.28" x="99.875 108.11167 114.86375 121.60155 128.33934 135.09142 141.08692 147.08243 154.56253 165.0832 168.82326 175.57534 182.32741 189.80751 195.80303 202.5551 209.2929 215.2884 222.04048 229.52059">&#x0422;&#x0430;&#x049b;&#x049b;&#x043e;&#x0441;&#x043b;&#x0430;&#x0448; &#x0431;&#x0438;&#x0440;&#x043b;&#x0438;&#x043a;&#x043b;&#x0430;&#x0440;&#x0438;</tspan></text>
</g>
<g id="Layer-1" data-name="P">
<text xml:space="preserve" transform="matrix(1 0 -0 1 0 842.25)" font-size="14.275" font-family="Times New Roman"><tspan y="-300.28" x="236.55 244.0301 250.0256 257.51997 261.26 267.25553 274.73564 282.22999 289.72434 297.2044 303.19993 309.18116 315.93324 319.67329 326.42536 333.90547 340.65754 346.65306 352.64857 359.40065 365.39616 372.87626 380.35633 386.35185 390.0919 399.08515 406.56526 413.31733 420.7974 426.7929 433.54499 439.5405 447.03486 454.5292 461.28129 467.2768 474.75688 482.25123">&#x0434;&#x0430;&#x043d; &#x049b;&#x045e;&#x0439;&#x0438;&#x0434;&#x0430;&#x0433;&#x0438; &#x04b3;&#x043e;&#x043b;&#x0430;&#x0442;&#x043b;&#x0430;&#x0440;&#x0434;&#x0430; &#x0444;&#x043e;&#x0439;&#x0434;&#x0430;&#x043b;&#x0430;&#x043d;&#x0438;&#x043b;&#x0430;&#x0434;&#x0438;,</tspan></text>
</g>
<g id="Layer-1" data-name="P">
<text xml:space="preserve" transform="matrix(1 0 -0 1 0 842.25)" font-size="14.275" font-family="Times New Roman"><tspan y="-300.28" x="486.63"> </tspan></text>
</g>
<g id="Layer-1" data-name="P">
<text xml:space="preserve" transform="matrix(1 0 -0 1 0 842.25)" font-size="14.275" font-family="Times New Roman"><tspan y="-300.28" x="490.38 496.37553 502.35676 508.35227 515.83236">&#x0430;&#x0433;&#x0430;&#x0440;:</tspan></text>
</g>
<g id="Layer-1" data-name="P">
<text xml:space="preserve" transform="matrix(1 0 -0 1 0 842.25)" font-size="14.275" font-family="Times New Roman"><tspan y="-300.28" x="518.9"> </tspan></text>
</g>
<g id="Layer-1" data-name="P">
<path transform="matrix(1,0,0,-1,0,842.25)" d="M 69.85 280 L 562.45 280 L 562.45 295.75 L 69.85 295.75 Z " fill="#ffffff" fill-rule="evenodd"/>
</g>
<g id="Layer-1" data-name="P">
<text xml:space="preserve" transform="matrix(1 0 -0 1 0 842.25)" font-size="14.275" font-family="Times New Roman"><tspan y="-283.75" x="99.875">-</tspan></text>
</g>
<g id="Layer-1" data-name="P">
<text xml:space="preserve" transform="matrix(1 0 -0 1 0 842.25)" font-size="14.275" font-family="Times New Roman"><tspan y="-283.75" x="104.37"> </tspan></text>
</g>
<g id="Layer-1" data-name="P">
<text xml:space="preserve" transform="matrix(1 0 -0 1 0 842.25)" font-size="14.275" font-family="Times New Roman"><tspan y="-283.75" x="123.9 131.3801 137.3756 144.12767 151.60778 160.64385 166.6108 174.0909 193.60483 200.3569 206.3524 213.10448 219.09998 225.09548 232.58986 240.06996 246.82204 253.55983 261.0542 267.80628 287.3202 293.3157 300.7958 320.30976 327.06184 334.54194 339.79515 346.53294 352.52845 359.28053 365.27604 372.0281 378.02363 385.50373 392.99809 412.51203 421.5481 427.51506 435.0094 441.76148 449.24159 456.73594 464.2303 483.7442 490.482 496.49177 516.0057 525.04177 531.00869 537.74649 547.51058 553.50607 560.2581">&#x0434;&#x0430;&#x0440;&#x043e;&#x043c;&#x0430;&#x0434; &#x043a;&#x0435;&#x043b;&#x0442;&#x0442;&#x0438;&#x0440;&#x0443;&#x0432;&#x0447;&#x0438; &#x0435;&#x0440; &#x0443;&#x0447;&#x0430;&#x0441;&#x0442;&#x043a;&#x0430;&#x043b;&#x0430;&#x0440;&#x0438; &#x043c;&#x0430;&#x0439;&#x0434;&#x043e;&#x043d;&#x0438; &#x0432;&#x0430; &#x043c;&#x0430;&#x0432;&#x0436;&#x0443;&#x0434; </tspan></text>
<path transform="matrix(1,0,0,-1,0,842.25)" d="M 69.85 263.47 L 562.45 263.47 L 562.45 279.995 L 69.85 279.995 Z " fill="#ffffff" fill-rule="evenodd"/>
</g>
<g id="Layer-1" data-name="P">
<text xml:space="preserve" transform="matrix(1 0 -0 1 0 842.25)" font-size="14.275" font-family="Times New Roman"><tspan y="-267.97" x="71.35 78.0878 84.839878 95.36055 102.85492 109.606998 115.6025 123.09687 130.59125 141.85422 148.6063 154.60179 162.0819 169.57628 177.07067 184.56505 190.54628 194.28633 200.28183 207.76194 215.25632 222.7507 225.74846 233.22856 240.70867 248.20305 254.95513 262.4352 268.43074 272.17079 281.16404 287.15956 294.63966 300.63517 304.3752 311.1273 318.62165 325.37373 332.1115 338.10704">&#x044f;&#x0445;&#x0448;&#x0438;&#x043b;&#x0430;&#x043d;&#x0438;&#x0448;&#x043b;&#x0430;&#x0440;&#x043d;&#x0438;&#x043d;&#x0433; &#x0441;&#x043e;&#x043d;&#x0438; &#x0431;&#x045e;&#x0439;&#x0438;&#x0447;&#x0430; &#x0444;&#x0430;&#x0440;&#x049b; &#x049b;&#x0438;&#x043b;&#x0441;&#x0430;;</tspan></text>
</g>
<g id="Layer-1" data-name="P">
<text xml:space="preserve" transform="matrix(1 0 -0 1 0 842.25)" font-size="14.275" font-family="Times New Roman"><tspan y="-267.97" x="342.42"> </tspan></text>
</g>
<g id="Layer-1" data-name="P">
<path transform="matrix(1,0,0,-1,0,842.25)" d="M 69.85 247.72 L 562.45 247.72 L 562.45 263.47 L 69.85 263.47 Z " fill="#ffffff" fill-rule="evenodd"/>
</g>
<g id="Layer-1" data-name="P">
<text xml:space="preserve" transform="matrix(1 0 -0 1 0 842.25)" font-size="14.275" font-family="Times New Roman"><tspan y="-251.47" x="99.875">-</tspan></text>
</g>
<g id="Layer-1" data-name="P">
<text xml:space="preserve" transform="matrix(1 0 -0 1 0 842.25)" font-size="14.275" font-family="Times New Roman"><tspan y="-251.47" x="104.37"> </tspan></text>
</g>
<g id="Layer-1" data-name="P">
<text xml:space="preserve" transform="matrix(1 0 -0 1 0 842.25)" font-size="14.275" font-family="Times New Roman"><tspan y="-251.47" x="108.12 114.857799 120.853298 128.33339 136.58434 144.06444 150.05994 156.81201 164.29212 171.77222 178.52429 184.51979 191.27187 195.01192 201.00742 207.75949 215.25388 218.99393 225.746 231.7415 239.2216 246.71599 253.46807 260.94816 268.42826 275.18034 280.43354 287.91365 291.6537 298.40577 305.88587 312.63795 320.1323 323.13005 330.6101 336.60563 343.3434 349.33894 356.091 362.08653 369.5666 376.31867 383.81303 387.55308 393.54859 400.30067 407.05274 414.53285 421.2849 428.765 434.76054 438.50059 444.4961 450.4916 457.24369 463.2392 470.71928 474.45933 480.4548 486.45033 493.94468 500.69676 507.43455 513.43008">&#x0441;&#x0430;&#x0440;&#x043c;&#x043e;&#x044f;&#x0434;&#x043e;&#x0440;&#x043b;&#x0430;&#x0440; &#x0451;&#x043a;&#x0438; &#x0445;&#x0430;&#x0440;&#x0438;&#x0434;&#x043e;&#x0440;&#x043b;&#x0430;&#x0440; &#x0443;&#x0447;&#x0443;&#x043d; &#x0434;&#x0430;&#x0441;&#x0442;&#x043b;&#x0430;&#x0431;&#x043a;&#x0438; &#x0430;&#x0445;&#x0431;&#x043e;&#x0440;&#x043e;&#x0442; &#x0442;&#x0430;&#x043b;&#x0430;&#x0431; &#x044d;&#x0442;&#x0438;&#x043b;&#x0441;&#x0430;.</tspan></text>
</g>
<g id="Layer-1" data-name="P">
<text xml:space="preserve" transform="matrix(1 0 -0 1 0 842.25)" font-size="14.275" font-family="Times New Roman"><tspan y="-251.47" x="517.4"> </tspan></text>
</g>
<g id="Layer-1" data-name="P">
<path transform="matrix(1,0,0,-1,0,842.25)" d="M 69.85 231.2 L 562.45 231.2 L 562.45 247.72499 L 69.85 247.72499 Z " fill="#ffffff" fill-rule="evenodd"/>
</g>
<g id="Layer-1" data-name="P">
<text xml:space="preserve" transform="matrix(1 0 -0 1 0 842.25)" font-size="14.275" font-family="Times New Roman"><tspan y="-235.7" x="99.875 108.11167 114.86375 122.358119 129.83821 135.83371 142.57152 150.0659 159.10198 165.81122 173.29132 179.28682 185.28232 192.0344 198.02989 205.51 212.2478 218.2433 225.7234 232.47548 239.96987 247.46425 256.50035 262.4673 268.44853 274.44404 281.9384">&#x0411;&#x0443;&#x043d;&#x0434;&#x0430; &#x0438;&#x043c;&#x043e;&#x0440;&#x0430;&#x0442;&#x043b;&#x0430;&#x0440; &#x0441;&#x043e;&#x043b;&#x0438;&#x043d;&#x043c;&#x0430;&#x0433;&#x0430;&#x043d; </tspan></text>
</g>
<g id="Layer-1" data-name="P">
<text xml:space="preserve" transform="matrix(1 0 -0 1 0 842.25)" font-size="14.275" font-family="Times New Roman"><tspan y="-235.7" x="289.13 295.12553 302.60563 309.3434 316.0955 323.5756 329.5711 336.3089 342.3044 349.0565 355.052 361.80409 367.7996 375.2797 382.77406 389.51185 396.9919 404.48628 411.23835 417.23387 424.7282 431.466 437.46153 444.2136 450.1948 457.68916 464.44123 470.42247 476.41798 483.91233 490.65013 498.1302 505.62455 511.62007 519.11447 528.1505 534.85977 540.8552 547.6073 555.0874 560.3406">&#x0435;&#x0440; &#x0443;&#x0447;&#x0430;&#x0441;&#x0442;&#x043a;&#x0430;&#x043b;&#x0430;&#x0440;&#x0438; &#x0431;&#x0438;&#x043b;&#x0430;&#x043d; &#x0442;&#x0443;&#x0437;&#x0438;&#x043b;&#x0433;&#x0430;&#x043d; &#x0431;&#x0438;&#x0442;&#x0438;&#x043c;&#x043b;&#x0430;&#x0440;&#x0434;&#x0430; </tspan></text>
<path transform="matrix(1,0,0,-1,0,842.25)" d="M 69.85 215.45 L 562.45 215.45 L 562.45 231.2 L 69.85 231.2 Z " fill="#ffffff" fill-rule="evenodd"/>
</g>
<g id="Layer-1" data-name="P">
<text xml:space="preserve" transform="matrix(1 0 -0 1 0 842.25)" font-size="14.275" font-family="Times New Roman"><tspan y="-219.2" x="71.35 78.10207 85.58217 93.07654 100.57091 108.05101 114.04652 120.02774 127.52211 131.26216 137.25766 143.25316 150.00524 156.00074 163.48084 170.21865 176.97072 182.96622 193.4869 197.22695 204.70705 211.45912 218.93923 225.6913 233.18569 239.93776 246.68984 252.68534 260.16545 267.6598 275.13987 281.13539 288.62974 292.36979 300.62077 308.10087 315.5952 323.0753 329.0708 335.82289 341.8184 349.31275 356.8071 367.3278 371.06785 380.1039 386.07087 392.82295 399.56074 405.55625 413.03633 419.01756 425.01307 428.7531 437.78919 443.75614 451.23625 460.2295 467.72386 474.47593 478.21598 484.96806 492.4624 498.45793 505.93803 513.4181 520.17019 526.16567 533.66006 539.6555 547.1356 554.63">&#x049b;&#x045e;&#x0439;&#x0438;&#x0434;&#x0430;&#x0433;&#x0438; &#x0442;&#x0430;&#x049b;&#x049b;&#x043e;&#x0441;&#x043b;&#x0430;&#x0448; &#x0431;&#x0438;&#x0440;&#x043b;&#x0438;&#x043a;&#x043b;&#x0430;&#x0440;&#x0438;&#x0434;&#x0430;&#x043d; &#x0444;&#x043e;&#x0439;&#x0434;&#x0430;&#x043b;&#x0430;&#x043d;&#x0438;&#x0448; &#x043c;&#x0430;&#x049b;&#x0441;&#x0430;&#x0434;&#x0433;&#x0430; &#x043c;&#x0443;&#x043e;&#x0444;&#x0438;&#x049b; &#x04b3;&#x0438;&#x0441;&#x043e;&#x0431;&#x043b;&#x0430;&#x043d;&#x0430;&#x0434;&#x0438;:</tspan></text>
</g>
<g id="Layer-1" data-name="P">
<text xml:space="preserve" transform="matrix(1 0 -0 1 0 842.25)" font-size="14.275" font-family="Times New Roman"><tspan y="-219.2" x="558.7"> </tspan></text>
</g>
<g id="Layer-1" data-name="P">
<path transform="matrix(1,0,0,-1,0,842.25)" d="M 69.85 198.92 L 562.45 198.92 L 562.45 215.44499 L 69.85 215.44499 Z " fill="#ffffff" fill-rule="evenodd"/>
</g>
<g id="Layer-1" data-name="P">
<text xml:space="preserve" transform="matrix(1 0 -0 1 0 842.25)" font-size="14.275" font-family="Times New Roman"><tspan y="-203.42" x="99.875">-</tspan></text>
</g>
<g id="Layer-1" data-name="P">
<text xml:space="preserve" transform="matrix(1 0 -0 1 0 842.25)" font-size="14.275" font-family="Times New Roman"><tspan y="-203.42" x="104.37"> </tspan></text>
</g>
<g id="Layer-1" data-name="P">
<text xml:space="preserve" transform="matrix(1 0 -0 1 0 842.25)" font-size="14.275" font-family="Times New Roman"><tspan y="-203.42" x="110.4 117.15208 124.64645 135.16713 141.9192 149.3993 156.15139 162.13262 168.8704 174.88019 180.86142 187.6135 195.0936 203.34455 210.82465 218.31903 224.30027 230.29576 237.77587 247.5257 253.5212 260.27326 267.7676 273.74885 281.2432 287.22444 293.21995 299.20118 307.45213 314.93223 321.6843 331.4341 337.42964 344.1817 350.93379 356.9293 364.42366 370.40489 376.4004 383.89476 389.87599 395.8715 403.3516 410.10368 416.09919 423.57929 429.56053 436.3126 443.80696 451.3013 458.79566 464.7769 470.75813 477.5102 483.5057 491.00007 496.9813 502.96253 508.95805 516.4381 523.1902 529.18569 538.22177 545.68759 553.18197 559.934">&#x049b;&#x0438;&#x0448;&#x043b;&#x043e;&#x049b; &#x0432;&#x0430; &#x045e;&#x0440;&#x043c;&#x043e;&#x043d; &#x0445;&#x045e;&#x0436;&#x0430;&#x043b;&#x0438;&#x0433;&#x0438;&#x0433;&#x0430; &#x043c;&#x045e;&#x043b;&#x0436;&#x0430;&#x043b;&#x043b;&#x0430;&#x043d;&#x0433;&#x0430;&#x043d; &#x0435;&#x0440;&#x043b;&#x0430;&#x0440;&#x0433;&#x04b3;&#x043d;&#x0438;&#x043d;&#x0433; &#x043a;&#x0435;&#x043d;&#x0433; &#x043a;&#x045e;&#x043b;&#x0430;&#x043c;&#x0438;&#x043d;&#x0438; </tspan></text>
<path transform="matrix(1,0,0,-1,0,842.25)" d="M 69.85 183.15 L 562.45 183.15 L 562.45 198.92499 L 69.85 198.92499 Z " fill="#ffffff" fill-rule="evenodd"/>
</g>
<g id="Layer-1" data-name="P">
<text xml:space="preserve" transform="matrix(1 0 -0 1 0 842.25)" font-size="14.275" font-family="Times New Roman"><tspan y="-186.9" x="71.35 78.8301 84.8256 91.577678 99.05777 105.809848 111.80535 122.32603 129.80612 135.80162 139.54167 143.28173 153.8024 160.55448 168.04886 175.54325 183.03763 189.01886 196.49897 202.49446 209.24654 212.98659 216.72664 222.72214 230.20224 236.95432 242.94982 249.70189 257.18199 263.1775 270.67185 274.4119 281.1497 287.1452 293.89729 301.37739 307.3729 313.3684 317.10847 323.86054 331.3406 337.33613 344.0882 350.0837 356.8358 362.8313 370.3114 377.80577 385.3001 392.79447 396.53453 403.2866 410.03868 417.51878 425.01313 435.5338 439.27388 446.02595 453.50605 460.25813 467.75248 471.49253 480.48579 487.96589 494.71797 502.19804 508.19355 514.9456 520.9411 528.4355 535.9299 546.45059 553.93069 559.92617">&#x0431;&#x0430;&#x04b3;&#x043e;&#x043b;&#x0430;&#x0448;&#x0434;&#x0430;, &#x0448;&#x0443;&#x043d;&#x0438;&#x043d;&#x0433;&#x0434;&#x0435;&#x043a;, &#x0435;&#x0440;&#x043b;&#x0430;&#x0440;&#x0434;&#x0430;&#x043d; &#x0441;&#x0430;&#x043d;&#x043e;&#x0430;&#x0442; &#x043e;&#x0431;&#x0435;&#x043a;&#x0442;&#x043b;&#x0430;&#x0440;&#x0438;&#x043d;&#x0438; &#x049b;&#x0443;&#x0440;&#x0438;&#x0448; &#x0443;&#x0447;&#x0443;&#x043d; &#x0444;&#x043e;&#x0439;&#x0434;&#x0430;&#x043b;&#x0430;&#x043d;&#x0438;&#x0448;&#x0434;&#x0430; </tspan></text>
<path transform="matrix(1,0,0,-1,0,842.25)" d="M 69.85 166.65 L 562.45 166.65 L 562.45 183.15 L 69.85 183.15 Z " fill="#ffffff" fill-rule="evenodd"/>
</g>
<g id="Layer-1" data-name="P">
<text xml:space="preserve" transform="matrix(1 0 -0 1 0 842.25)" font-size="14.275" font-family="Times New Roman"><tspan y="-171.15" x="71.35 78.0878 84.09758 91.577678 97.57317 105.05327 112.53336 121.569438 127.536388 133.53188 140.26969 147.76407 154.50186 161.26822 167.26372 174.74382 182.2382 189.73259 196.48467 203.96477 210.70258 216.69808 222.69358 230.18796 237.66806 242.92127 250.40137 256.39689 263.87699 270.62907 278.10917 283.36238 290.10017 296.09568 302.84776 308.84327 315.59535 321.59086 329.07096 335.0522 341.0477 348.5278 355.27989 362.75999 369.51206 377.0064 387.5271 395.00718 401.0027">&#x0432;&#x0430; &#x0435;&#x0440; &#x043c;&#x0430;&#x0441;&#x0441;&#x0438;&#x0432;&#x043b;&#x0430;&#x0440;&#x0438;&#x043d;&#x0438; &#x0441;&#x0442;&#x0430;&#x043d;&#x0434;&#x0430;&#x0440;&#x0442; &#x0443;&#x0447;&#x0430;&#x0441;&#x0442;&#x043a;&#x0430;&#x043b;&#x0430;&#x0440;&#x0433;&#x0430; &#x0431;&#x045e;&#x043b;&#x0438;&#x0448;&#x0434;&#x0430; </tspan></text>
</g>
<g id="Layer-1" data-name="P">
<text xml:space="preserve" transform="matrix(1 0 -0 1 0 842.25)" font-size="14.275" font-family="Times New Roman"><tspan y="-171.15" x="409.27">&#x2013;</tspan></text>
</g>
<g id="Layer-1" data-name="P">
<text xml:space="preserve" transform="matrix(1 0 -0 1 0 842.25)" font-size="14.275" font-family="Times New Roman"><tspan y="-171.15" x="416.77"> </tspan></text>
</g>
<g id="Layer-1" data-name="P">
<text xml:space="preserve" transform="matrix(1 0 -0 1 0 842.25)" font-size="14.275" font-family="Times New Roman"><tspan y="-171.15" x="423.52 431.00007 437.75215 445.23225 452.71235 458.69358 464.6891 471.44117 477.43669 483.4322 490.9123 498.3924 504.3879 511.868 518.62008 526.11447 533.59457 541.0889 547.0844 554.5645 560.56">&#x0431;&#x0438;&#x0440; &#x0433;&#x0435;&#x043a;&#x0442;&#x0430;&#x0440; &#x0443;&#x0447;&#x0443;&#x043d; &#x043d;&#x0430;&#x0440;&#x0445; </tspan></text>
<path transform="matrix(1,0,0,-1,0,842.25)" d="M 69.85 150.88 L 562.45 150.88 L 562.45 166.655 L 69.85 166.655 Z " fill="#ffffff" fill-rule="evenodd"/>
</g>
<g id="Layer-1" data-name="P">
<text xml:space="preserve" transform="matrix(1 0 -0 1 0 842.25)" font-size="14.275" font-family="Times New Roman"><tspan y="-154.63" x="71.35 78.10207 85.58217 92.33424 99.072048 105.06754 111.06304 117.81512 125.30949 132.78958 140.28397">&#x043a;&#x045e;&#x0440;&#x0441;&#x0430;&#x0442;&#x043a;&#x0438;&#x0447;&#x0438;,</tspan></text>
</g>
<g id="Layer-1" data-name="P">
<text xml:space="preserve" transform="matrix(1 0 -0 1 0 842.25)" font-size="14.275" font-family="Times New Roman"><tspan y="-154.63" x="143.43"> </tspan></text>
</g>
<g id="Layer-1" data-name="P">
<path transform="matrix(1,0,0,-1,0,842.25)" d="M 69.85 134.38 L 562.45 134.38 L 562.45 150.88 L 69.85 150.88 Z " fill="#ffffff" fill-rule="evenodd"/>
</g>
<g id="Layer-1" data-name="P">
<text xml:space="preserve" transform="matrix(1 0 -0 1 0 842.25)" font-size="14.275" font-family="Times New Roman"><tspan y="-138.88" x="99.875">-</tspan></text>
</g>
<g id="Layer-1" data-name="P">
<text xml:space="preserve" transform="matrix(1 0 -0 1 0 842.25)" font-size="14.275" font-family="Times New Roman"><tspan y="-138.88" x="104.37"> </tspan></text>
</g>
<g id="Layer-1" data-name="P">
<text xml:space="preserve" transform="matrix(1 0 -0 1 0 842.25)" font-size="14.275" font-family="Times New Roman"><tspan y="-138.88" x="109.65 120.17068 126.166179 132.91826 138.91376 146.39386 153.14594 159.14144 166.62154 174.10164 180.09714 185.33608 192.07387 198.08365 203.32259 209.31809 216.07016 223.55027 230.30234 237.79673 243.03566 250.53005 257.2821 264.77647 271.52854 277.52406 284.27613 290.27165 297.75175 305.2461 312.72618 318.72169 323.9606 329.95613 337.43623 344.1883 350.1838 357.6639 365.15827 372.65263 377.89155 383.88706 391.3814 400.37464 407.85475 415.33485 421.33036 427.32588 432.5648 440.05915 448.3101 455.06217 462.54228 468.53779 474.5333 481.28538 487.28089 494.761 502.25535 509.7497 517.2441 522.483 528.47848 535.95858 542.71066 550.205 559.95486">&#x0448;&#x0430;&#x0445;&#x0430;&#x0440;&#x043b;&#x0430;&#x0440;&#x0434;&#x0430; &#x0432;&#x0430; &#x0430;&#x04b3;&#x043e;&#x043b;&#x0438; &#x043f;&#x0443;&#x043d;&#x043a;&#x0442;&#x043b;&#x0430;&#x0440;&#x0438;&#x0434;&#x0430; &#x0435;&#x0440;&#x043b;&#x0430;&#x0440;&#x043d;&#x0438; &#x0442;&#x0438;&#x0436;&#x043e;&#x0440;&#x0430;&#x0442; &#x0438;&#x043c;&#x043e;&#x0440;&#x0430;&#x0442;&#x043b;&#x0430;&#x0440;&#x0438;&#x043d;&#x0438; &#x0441;&#x043e;&#x043b;&#x0438;&#x0448; </tspan></text>
<path transform="matrix(1,0,0,-1,0,842.25)" d="M 69.85 118.6 L 562.45 118.6 L 562.45 134.375 L 69.85 134.375 Z " fill="#ffffff" fill-rule="evenodd"/>
</g>
<g id="Layer-1" data-name="P">
<text xml:space="preserve" transform="matrix(1 0 -0 1 0 842.25)" font-size="14.275" font-family="Times New Roman"><tspan y="-122.35" x="71.35 78.10207 85.58218 92.33425 99.82862 107.308719 113.30422 120.78432 126.779819 134.2742 144.79488 152.27498 158.27048">&#x0443;&#x0447;&#x0443;&#x043d; &#x0441;&#x043e;&#x0442;&#x0438;&#x0448;&#x0434;&#x0430; </tspan></text>
</g>
<g id="Layer-1" data-name="P">
<text xml:space="preserve" transform="matrix(1 0 -0 1 0 842.25)" font-size="14.275" font-family="Times New Roman"><tspan y="-122.35" x="165.95">-</tspan></text>
</g>
<g id="Layer-1" data-name="P">
<text xml:space="preserve" transform="matrix(1 0 -0 1 0 842.25)" font-size="14.275" font-family="Times New Roman"><tspan y="-122.35" x="170.48"> </tspan></text>
</g>
<g id="Layer-1" data-name="P">
<text xml:space="preserve" transform="matrix(1 0 -0 1 0 842.25)" font-size="14.275" font-family="Times New Roman"><tspan y="-122.35" x="177.98 185.4601 192.21218 199.69228 207.17238 213.92446 220.66225 225.92974 233.40984 240.88994 246.88544 253.63751 261.1176 270.1537 276.12065 282.11616 289.59626 297.07637 303.07188 310.55198 317.30406 324.7984 332.2785 339.77287 345.76838 353.24848 360.00056 367.48066 373.47618 380.95628 387.70835 394.44615 400.44166 406.43717 413.18925 420.6836 428.1637 435.65806 443.13816 447.63478 453.63029 461.11039 467.1059 473.8437 479.8392 486.59129 492.5868 499.33888 505.33439 512.81448 520.29458 526.29006 532.2855 539.0376 545.7754 553.2698 560.02188">&#x0431;&#x0438;&#x0440; &#x043a;&#x0432;&#x0430;&#x0434;&#x0440;&#x0430;&#x0434; &#x043c;&#x0435;&#x0442;&#x0440; &#x0443;&#x0447;&#x0443;&#x043d; &#x043d;&#x0430;&#x0440;&#x0445; &#x043a;&#x045e;&#x0440;&#x0441;&#x0430;&#x0442;&#x043a;&#x0438;&#x0447;&#x0438; (&#x0443;&#x0447;&#x0430;&#x0441;&#x0442;&#x043a;&#x0430;&#x043b;&#x0430;&#x0440; &#x0430;&#x0441;&#x043e;&#x0441;&#x0438;&#x0439; </tspan></text>
<path transform="matrix(1,0,0,-1,0,842.25)" d="M 69.85 102.08 L 562.45 102.08 L 562.45 118.605 L 69.85 118.605 Z " fill="#ffffff" fill-rule="evenodd"/>
</g>
<g id="Layer-1" data-name="P">
<text xml:space="preserve" transform="matrix(1 0 -0 1 0 842.25)" font-size="14.275" font-family="Times New Roman"><tspan y="-106.6" x="71.35 78.8301 84.8256 91.577678 97.5589 105.05327 111.80534 117.80085 125.280948 135.78736 143.26746 150.74756 158.24195 164.99402 172.47412 178.46962 188.97603 194.97153 200.96703 207.7191 214.47118 221.95128 228.68909 235.44116 241.43666 248.93105 254.92655 262.40663 269.90098 275.8822 281.87773">&#x0431;&#x0435;&#x043b;&#x0433;&#x0438;&#x043b;&#x0430;&#x0440; &#x0431;&#x045e;&#x0439;&#x0438;&#x0447;&#x0430; &#x0442;&#x0430;&#x049b;&#x049b;&#x043e;&#x0441;&#x043b;&#x0430;&#x043d;&#x0430;&#x0434;&#x0438;&#x0433;&#x0430;&#x043d;</tspan></text>
</g>
<g id="Layer-1" data-name="P">
<text xml:space="preserve" transform="matrix(1 0 -0 1 0 842.25)" font-size="14.275" font-family="Times New Roman"><tspan y="-106.6" x="289.88"> </tspan></text>
</g>
<g id="Layer-1" data-name="P">
<text xml:space="preserve" transform="matrix(1 0 -0 1 0 842.25)" font-size="14.275" font-family="Times New Roman"><tspan y="-106.6" x="300.38 307.86009 315.34019 322.09226 329.5866 340.1073 347.60166 358.10807 364.86015 370.85566 378.33576 384.33128 391.81138 394.8091 405.31553 412.79563 421.78889 429.28324 436.02104 446.52745 454.0075 461.50187 468.99623 476.47633 483.2284 489.2239 496.704 504.19837 514.7048 521.45687 528.93698 535.689 543.1834">&#x0431;&#x045e;&#x043b;&#x0438;&#x0448;&#x0438; &#x043a;&#x0435;&#x0440;&#x0430;&#x043a;: &#x043e;&#x0444;&#x0438;&#x0441; &#x0431;&#x0438;&#x043d;&#x043e;&#x043b;&#x0430;&#x0440;&#x0438; &#x0443;&#x0447;&#x0443;&#x043d; </tspan></text>
</g>
<g id="Layer-1" data-name="P">
<text xml:space="preserve" transform="matrix(1 0 -0 1 0 842.25)" font-size="14.275" font-family="Times New Roman"><tspan y="-106.6" x="554.2">&#x2013;</tspan></text>
</g>
<g id="Layer-1" data-name="P">
<text xml:space="preserve" transform="matrix(1 0 -0 1 0 842.25)" font-size="14.275" font-family="Times New Roman"><tspan y="-106.6" x="560.95"> </tspan></text>
<path transform="matrix(1,0,0,-1,0,842.25)" d="M 69.85 86.325 L 562.45 86.325 L 562.45 102.075 L 69.85 102.075 Z " fill="#ffffff" fill-rule="evenodd"/>
</g>
<g id="Layer-1" data-name="P">
<text xml:space="preserve" transform="matrix(1 0 -0 1 0 842.25)" font-size="14.275" font-family="Times New Roman"><tspan y="-90.075" x="71.35 77.3455 84.82559 90.8211 98.31547 105.05326 111.805339 119.28543 126.765529 132.76103 137.2434 146.27947 152.24642 158.22765 164.97972 171.71753 176.97074 184.45084 190.44634 197.19841 203.95049 209.94599 217.42609 224.92047 229.40283 236.14063 242.1504 246.63277 252.62827 260.10838 266.86045 272.85597 278.85148 289.37217 293.85453 303.60435 311.08445 318.5788 325.33088 331.3264 338.8065 346.30085 350.0409 354.52326 361.27534 368.75544 379.27613 386.0282 392.0237 396.50608 403.98619 412.97944 419.7315 426.4693 430.95167 438.43174 445.9261 452.67817 460.15827 466.91035 472.90586 480.38597 487.8803 491.62037 495.3604 502.84049 508.836 516.3304 523.08248 529.83456 535.83 543.3101 547.7924 554.5302 559.79769">&#x0442;&#x0440;&#x0430;&#x043d;&#x0441;&#x043f;&#x043e;&#x0440;&#x0442; &#x043c;&#x0430;&#x0433;&#x0438;&#x0441;&#x0442;&#x0440;&#x0430;&#x043b;&#x043b;&#x0430;&#x0440;&#x0438; &#x0432;&#x0430; &#x0442;&#x045e;&#x0445;&#x0442;&#x0430;&#x0448; &#x0436;&#x043e;&#x0439;&#x043b;&#x0430;&#x0440;&#x0438;, &#x0431;&#x043e;&#x0448;&#x049b;&#x0430; &#x043e;&#x0444;&#x0438;&#x0441; &#x0431;&#x0438;&#x043d;&#x043e;&#x043b;&#x0430;&#x0440;&#x0438;, &#x0431;&#x0430;&#x043d;&#x043a;&#x043b;&#x0430;&#x0440; &#x0432;&#x0430; </tspan></text>
<path transform="matrix(1,0,0,-1,0,842.25)" d="M 69.85 70.55 L 562.45 70.55 L 562.45 86.325008 L 69.85 86.325008 Z " fill="#ffffff" fill-rule="evenodd"/>
</g>
<g id="Layer-1" data-name="P">
<text xml:space="preserve" transform="matrix(1 0 -0 1 0 842.25)" font-size="14.275" font-family="Times New Roman"><tspan y="-74.3" x="71.35 78.10207 85.58217 92.33424 98.32975 104.310977 111.79107 118.543148 124.53864 131.29073 137.27196">&#x04b3;&#x043e;&#x043a;&#x0430;&#x0437;&#x043e;&#x043b;&#x0430;&#x0440;&#x0433;&#x0430;</tspan></text>
</g>
<g id="Layer-1" data-name="P">
<text xml:space="preserve" transform="matrix(1 0 -0 1 0 842.25)" font-size="14.275" font-family="Times New Roman"><tspan y="-74.3" x="143.43"> </tspan></text>
</g>
<g id="Layer-1" data-name="P">
<text xml:space="preserve" transform="matrix(1 0 -0 1 0 842.25)" font-size="14.275" font-family="Times New Roman"><tspan y="-74.3" x="158.45 165.9301 173.42449 180.17656 187.67095">&#x0447;&#x0438;&#x049b;&#x0438;&#x0448;</tspan></text>
</g>
<g id="Layer-1" data-name="P">
<text xml:space="preserve" transform="matrix(1 0 -0 1 0 842.25)" font-size="14.275" font-family="Times New Roman"><tspan y="-74.3" x="198.25"> </tspan></text>
</g>
<g id="Layer-1" data-name="P">
<text xml:space="preserve" transform="matrix(1 0 -0 1 0 842.25)" font-size="14.275" font-family="Times New Roman"><tspan y="-74.3" x="213.27 220.76439 228.24449 234.99657 241.74864 247.74414 255.22425 262.7186 266.47294 281.49024 288.97035 298.0064 304.71565 312.19575 319.67585 325.67137 333.15147 340.6458 346.64134 361.65864 369.1387 376.63307 384.1274 391.6075 398.3596 404.3551 411.8352 419.32957 434.34687 441.09895 448.57905 455.33113 462.82548">&#x0439;&#x045e;&#x043b;&#x043b;&#x0430;&#x0440;&#x0438;; &#x043e;&#x043c;&#x0431;&#x043e;&#x0440;&#x0445;&#x043e;&#x043d;&#x0430; &#x0431;&#x0438;&#x043d;&#x043e;&#x043b;&#x0430;&#x0440;&#x0438; &#x0443;&#x0447;&#x0443;&#x043d; </tspan></text>
</g>
<g id="Layer-1" data-name="P">
<text xml:space="preserve" transform="matrix(1 0 -0 1 0 842.25)" font-size="14.275" font-family="Times New Roman"><tspan y="-74.3" x="478.35">&#x2013;</tspan></text>
</g>
<g id="Layer-1" data-name="P">
<text xml:space="preserve" transform="matrix(1 0 -0 1 0 842.25)" font-size="14.275" font-family="Times New Roman"><tspan y="-74.3" x="485.88"> </tspan></text>
</g>
<g id="Layer-1" data-name="P">
<text xml:space="preserve" transform="matrix(1 0 -0 1 0 842.25)" font-size="14.275" font-family="Times New Roman"><tspan y="-74.3" x="500.88 506.87553 514.3556 520.3511 527.84548 534.58328 541.3353 548.0874 555.5675 560.8207">&#x0442;&#x0440;&#x0430;&#x043d;&#x0441;&#x043f;&#x043e;&#x0440;&#x0442; </tspan></text>
<path transform="matrix(1,0,0,-1,0,842.25)" d="M 69.85 54.05 L 562.45 54.05 L 562.45 70.55 L 69.85 70.55 Z " fill="#ffffff" fill-rule="evenodd"/>
</g>
<g id="Layer-1" data-name="P">
<text xml:space="preserve" transform="matrix(1 0 -0 1 0 842.25)" font-size="14.275" font-family="Times New Roman"><tspan y="-58.55" x="71.35 78.10207 85.58217 94.61824 103.58294 110.335018 117.829387 125.32375 132.07582 138.07132 145.5657 153.06009 159.79788 166.54996 172.54546 180.02556 187.51995 193.50118 199.49668 202.49443 209.97454 217.46892 224.221 231.71538 242.23606 245.9761 253.47049 260.9506 267.70268 274.45475 280.45027 287.93037 295.4247 298.42247 305.16026 311.17 314.91007 321.66215 325.4022 332.15428">&#x043a;&#x043e;&#x043c;&#x043c;&#x0443;&#x043d;&#x0438;&#x043a;&#x0430;&#x0446;&#x0438;&#x044f;&#x043b;&#x0430;&#x0440;&#x0438;&#x0433;&#x0430; &#x0447;&#x0438;&#x049b;&#x0438;&#x0448; &#x0439;&#x045e;&#x043b;&#x043b;&#x0430;&#x0440;&#x0438; &#x0432;&#x0430; &#x04b3;.&#x043a;.</tspan></text>
</g>
<g id="Layer-1" data-name="P">
<text xml:space="preserve" transform="matrix(1 0 -0 1 0 842.25)" font-size="14.275" font-family="Times New Roman"><tspan y="-58.55" x="336.42">)</tspan></text>
</g>
<g id="Layer-1" data-name="P">
<text xml:space="preserve" transform="matrix(1 0 -0 1 0 842.25)" font-size="14.275" font-family="Times New Roman"><tspan y="-58.55" x="340.92">;</tspan></text>
</g>
<g id="Layer-1" data-name="P">
<text xml:space="preserve" transform="matrix(1 0 -0 1 0 842.25)" font-size="14.275" font-family="Times New Roman"><tspan y="-58.55" x="344.67"> </tspan></text>
</g>
</g>
</g>
</svg>
