<?xml version="1.0" encoding="UTF-8" standalone="no"?>
<!DOCTYPE svg PUBLIC "-//W3C//DTD SVG 1.1//EN" "http://www.w3.org/Graphics/SVG/1.1/DTD/svg11.dtd">
<svg xmlns="http://www.w3.org/2000/svg" xmlns:xlink="http://www.w3.org/1999/xlink" version="1.1" width="595.5pt" height="842.25pt" viewBox="0 0 595.5 842.25">
<g enable-background="new">
<g>
<g id="Layer-1" data-name="Artifact">
<text xml:space="preserve" transform="matrix(1 0 -0 1 0 842.25)" font-size="9.75" font-family="Times New Roman"><tspan y="-797.95" x="71.35"> </tspan></text>
</g>
<g id="Layer-1" data-name="P">
<path transform="matrix(1,0,0,-1,0,842.25)" d="M 69.85 779.2 L 562.45 779.2 L 562.45 794.95 L 69.85 794.95 Z " fill="#ffffff" fill-rule="evenodd"/>
</g>
<g id="Layer-1" data-name="P">
<text xml:space="preserve" transform="matrix(1 0 -0 1 0 842.25)" font-size="14.275" font-family="Times New Roman"><tspan y="-782.95" x="99.875">-</tspan></text>
</g>
<g id="Layer-1" data-name="P">
<text xml:space="preserve" transform="matrix(1 0 -0 1 0 842.25)" font-size="14.275" font-family="Times New Roman"><tspan y="-782.95" x="104.37"> </tspan></text>
</g>
<g id="Layer-1" data-name="P">
<text xml:space="preserve" transform="matrix(1 0 -0 1 0 842.25)" font-size="14.275" font-family="Times New Roman"><tspan y="-782.95" x="114.15 120.887798 126.88329 133.6211 141.11547 148.59557 158.33112 165.06891 171.07869 180.81424 187.56632 196.60239 203.31163 212.3477 219.81354 227.30792 237.04347 244.52358 251.26137 258.0277 264.02323 270.01875 276.7708 282.76634 290.26069 297.75505 308.27574 318.0113 324.76338 332.24348 339.72358 346.47566 353.95576 361.4501 367.44563 374.1977 380.1932">&#x0441;&#x0430;&#x0432;&#x0434;&#x043e; &#x0432;&#x0430; &#x0443;&#x043c;&#x0443;&#x043c;&#x0438;&#x0439; &#x043e;&#x0432;&#x049b;&#x0430;&#x0442;&#x043b;&#x0430;&#x043d;&#x0438;&#x0448; &#x043a;&#x043e;&#x0440;&#x0445;&#x043e;&#x043d;&#x0430;&#x043b;&#x0430;&#x0440;</tspan></text>
</g>
<g id="Layer-1" data-name="P">
<text xml:space="preserve" transform="matrix(1 0 -0 1 0 842.25)" font-size="14.275" font-family="Times New Roman"><tspan y="-782.95" x="388.25 395.74436 401.7256 407.7211 417.45668 425.7076 433.1877 439.9398 449.6896 455.68513 462.4372 469.18928 475.18479 482.67915 488.66038 494.65589 502.15025 511.8858 517.8813 525.3614 532.11349 538.10897 545.58908 553.08346 560.5778">&#x0438;&#x0433;&#x0430; &#x043c;&#x045e;&#x043b;&#x0436;&#x0430;&#x043b;&#x043b;&#x0430;&#x043d;&#x0433;&#x0430;&#x043d; &#x0435;&#x0440;&#x043b;&#x0430;&#x0440;&#x043d;&#x0438; </tspan></text>
<path transform="matrix(1,0,0,-1,0,842.25)" d="M 69.85 763.42 L 562.45 763.42 L 562.45 779.195 L 69.85 779.195 Z " fill="#ffffff" fill-rule="evenodd"/>
</g>
<g id="Layer-1" data-name="P">
<text xml:space="preserve" transform="matrix(1 0 -0 1 0 842.25)" font-size="14.275" font-family="Times New Roman"><tspan y="-767.17" x="71.35 78.8301 84.8256 91.577678 99.05777 105.809848 111.80535 122.32603 129.80612 135.80162">&#x0431;&#x0430;&#x04b3;&#x043e;&#x043b;&#x0430;&#x0448;&#x0434;&#x0430; </tspan></text>
</g>
<g id="Layer-1" data-name="P">
<text xml:space="preserve" transform="matrix(1 0 -0 1 0 842.25)" font-size="14.275" font-family="Times New Roman"><tspan y="-767.17" x="139.68">&#x2013;</tspan></text>
</g>
<g id="Layer-1" data-name="P">
<text xml:space="preserve" transform="matrix(1 0 -0 1 0 842.25)" font-size="14.275" font-family="Times New Roman"><tspan y="-767.17" x="147.18"> </tspan></text>
</g>
<g id="Layer-1" data-name="P">
<text xml:space="preserve" transform="matrix(1 0 -0 1 0 842.25)" font-size="14.275" font-family="Times New Roman"><tspan y="-767.17" x="150.2 157.6801 165.17449 171.92656 175.66661 184.65987 191.41194 198.89205 206.38643 212.38193 218.37743 225.1295 228.86956 237.90563 243.87258 249.86808 257.34819 261.08824 267.8403 275.3204 282.07249 289.56684 293.3069 300.80125 306.05445 313.53456 320.28663 324.02668 330.77876 337.53083 344.2829 351.0207 357.0162 363.01173 369.7638 377.25816 384.73826 392.2326">&#x0431;&#x0438;&#x0440; &#x0444;&#x0440;&#x043e;&#x043d;&#x0442;&#x0430;&#x043b; &#x043c;&#x0435;&#x0442;&#x0440; &#x0443;&#x0447;&#x0443;&#x043d; &#x043d;&#x0430;&#x0440;&#x0445; &#x043a;&#x045e;&#x0440;&#x0441;&#x0430;&#x0442;&#x043a;&#x0438;&#x0447;&#x0438;.</tspan></text>
</g>
<g id="Layer-1" data-name="P">
<text xml:space="preserve" transform="matrix(1 0 -0 1 0 842.25)" font-size="14.275" font-family="Times New Roman"><tspan y="-767.17" x="395.75"> </tspan></text>
</g>
<g id="Layer-1" data-name="P">
<path transform="matrix(1,0,0,-1,0,842.25)" d="M 69.85 746.92 L 562.45 746.92 L 562.45 763.42 L 69.85 763.42 Z " fill="#ffffff" fill-rule="evenodd"/>
</g>
<g id="Layer-1" data-name="P">
<text xml:space="preserve" transform="matrix(1 0 -0 1 0 842.25)" font-size="14.275" font-family="Times New Roman"><tspan y="-751.42" x="99.875 108.11167 114.86375 122.358119 129.83821 135.83371 143.3281 147.06815 153.06365 159.05915 169.57982 176.3319 182.3274 189.8075 197.30188 201.04193 204.78199 210.77748 216.77298 223.52506 230.27713 237.75724 244.49504 251.24712 257.2426 267.7633 271.50337 278.25544 285.73554 292.4876 299.98197 303.72203 311.2021 318.69645 326.17655 329.9166 336.66868 344.14878 350.1443 353.88435 360.6364 368.11653 374.8686 382.36296 386.103 393.59736 399.59288 407.07298 413.82505 417.5651 422.0617 429.5418 438.57789 447.54258 453.5381 460.27589 467.78453 475.27888 479.01893 485.01445 491.7665 499.2466 505.24214 512.7222 516.4623 526.2121 533.6922 541.1866 547.93869 553.19186 559.9439">&#x0411;&#x0443;&#x043d;&#x0434;&#x0430;&#x043d; &#x0442;&#x0430;&#x0448;&#x049b;&#x0430;&#x0440;&#x0438;, &#x0442;&#x0430;&#x049b;&#x049b;&#x043e;&#x0441;&#x043b;&#x0430;&#x0448; &#x0443;&#x0447;&#x0443;&#x043d; &#x0431;&#x0438;&#x0440; &#x043b;&#x043e;&#x0442; &#x0443;&#x0447;&#x0443;&#x043d; &#x043d;&#x0430;&#x0440;&#x0445; (&#x043e;&#x043c;&#x043c;&#x0430;&#x0432;&#x0438;&#x0439; &#x0442;&#x0443;&#x0440;&#x0430;&#x0440; &#x0436;&#x043e;&#x0439;&#x043b;&#x0430;&#x0440; </tspan></text>
<path transform="matrix(1,0,0,-1,0,842.25)" d="M 69.85 731.15 L 562.45 731.15 L 562.45 746.92507 L 69.85 746.92507 Z " fill="#ffffff" fill-rule="evenodd"/>
</g>
<g id="Layer-1" data-name="P">
<text xml:space="preserve" transform="matrix(1 0 -0 1 0 842.25)" font-size="14.275" font-family="Times New Roman"><tspan y="-734.9" x="71.35 77.3455 84.09757 91.59194 99.82861 107.308719 113.30422 120.0563 126.051799 135.03078 141.78285 149.26296 156.00075 162.7671 170.26149 178.49817 185.99256 195.02863 202.48018 209.96028 215.95578 221.95128 228.70336 234.69886 242.17896 249.67334 257.91004 263.90556 271.38566 278.13774 285.63209 293.12644 299.10768 305.10319 312.59754 320.83424 327.5863 334.33839 341.81846 348.57054 356.0506 362.80268 368.7982 376.2783 383.75837 389.75389 397.99058 408.51127 414.50679 421.25886 428.01094 435.50529 443.74198 450.47978 456.48954 464.72624 472.20634 478.9584 486.4385 492.43403 501.4701 508.9359 517.17257 524.65267 532.13278 539.62716 547.1215 554.6016 559.8548">&#x0451;&#x043a;&#x0438; &#x0434;&#x0430;&#x043b;&#x0430; &#x04b3;&#x043e;&#x0432;&#x043b;&#x0438; &#x0438;&#x043c;&#x043e;&#x0440;&#x0430;&#x0442;&#x043b;&#x0430;&#x0440;&#x0438; &#x0441;&#x043e;&#x043b;&#x0438;&#x043d;&#x0433;&#x0430;&#x043d; &#x04b3;&#x0443;&#x0434;&#x0443;&#x0434;&#x043b;&#x0430;&#x0440;&#x0434;&#x0430; &#x0448;&#x0430;&#x043a;&#x043b;&#x0438; &#x0432;&#x0430; &#x045e;&#x043b;&#x0447;&#x0430;&#x043c;&#x0438; &#x0431;&#x045e;&#x0439;&#x0438;&#x0447;&#x0430; </tspan></text>
<path transform="matrix(1,0,0,-1,0,842.25)" d="M 69.85 714.63 L 562.45 714.63 L 562.45 731.155 L 69.85 731.155 Z " fill="#ffffff" fill-rule="evenodd"/>
</g>
<g id="Layer-1" data-name="P">
<text xml:space="preserve" transform="matrix(1 0 -0 1 0 842.25)" font-size="14.275" font-family="Times New Roman"><tspan y="-719.15" x="71.35 78.08779 84.08329 90.07879 97.57316 105.05326 111.04876 118.528858 124.52435 136.52964 142.52513 150.00524 162.01052 168.76259 176.24269 181.4959 188.2337 194.2292 200.98128 206.97678 213.71459 221.20897 228.70336 236.19774 243.69213 249.67336 261.67866 269.173 274.4262 281.9063 288.6584 296.15275 300.64936 312.65464 319.39244 325.4022">&#x0441;&#x0442;&#x0430;&#x043d;&#x0434;&#x0430;&#x0440;&#x0442; &#x0435;&#x0440; &#x0443;&#x0447;&#x0430;&#x0441;&#x0442;&#x043a;&#x0430;&#x0441;&#x0438;&#x043d;&#x0438;&#x043d;&#x0433; &#x043d;&#x0430;&#x0440;&#x0445;&#x0438;) &#x0432;&#x0430; </tspan></text>
</g>
<g id="Layer-1" data-name="P">
<text xml:space="preserve" transform="matrix(1 0 -0 1 0 842.25)" font-size="14.275" font-family="Times New Roman"><tspan y="-719.15" x="337.92 343.9012 351.39558 358.87568 365.62776 373.1221 379.87419 391.87947 399.35954 406.1116 413.5917 420.34379 427.83815 433.81938 441.31373 453.319 460.07109 467.55119 474.30326 481.7976 493.8029 501.29725 507.29277 514.7728 521.5249 533.53018 540.2822 546.2777 553.7578 560.5099">&#x0437;&#x0438;&#x0447;&#x043b;&#x0438;&#x043a; &#x0431;&#x0438;&#x0440;&#x043b;&#x0438;&#x0433;&#x0438; &#x0443;&#x0447;&#x0443;&#x043d; &#x043d;&#x0430;&#x0440;&#x0445; &#x043a;&#x0430;&#x0431;&#x0438; </tspan></text>
<path transform="matrix(1,0,0,-1,0,842.25)" d="M 69.85 698.88 L 562.45 698.88 L 562.45 714.63 L 69.85 714.63 Z " fill="#ffffff" fill-rule="evenodd"/>
</g>
<g id="Layer-1" data-name="P">
<text xml:space="preserve" transform="matrix(1 0 -0 1 0 842.25)" font-size="14.275" font-family="Times New Roman"><tspan y="-702.63" x="71.35 78.10207 85.58217 92.33424 99.072048 105.06754 111.06304 117.81512 125.30949 132.78958 139.54166 145.53716 152.28923 159.76934 165.76483 173.25922 176.99927 185.99253 193.47263 200.2247 207.7048 213.7003 220.45238 226.44788 233.94226 241.43665 251.95732 255.69738 264.73347 271.44273 280.4788 287.18806 294.6824 302.17677">&#x043a;&#x045e;&#x0440;&#x0441;&#x0430;&#x0442;&#x043a;&#x0438;&#x0447;&#x043b;&#x0430;&#x0440;&#x0434;&#x0430;&#x043d; &#x0444;&#x043e;&#x0439;&#x0434;&#x0430;&#x043b;&#x0430;&#x043d;&#x0438;&#x0448; &#x043c;&#x0443;&#x043c;&#x043a;&#x0438;&#x043d;.</tspan></text>
</g>
<g id="Layer-1" data-name="P">
<text xml:space="preserve" transform="matrix(1 0 -0 1 0 842.25)" font-size="14.275" font-family="Times New Roman"><tspan y="-702.63" x="306.4"> </tspan></text>
</g>
<g id="Layer-1" data-name="P">
<path transform="matrix(1,0,0,-1,0,842.25)" d="M 69.85 682.35 L 562.45 682.35 L 562.45 698.875 L 69.85 698.875 Z " fill="#ffffff" fill-rule="evenodd"/>
</g>
<g id="Layer-1" data-name="P">
<text xml:space="preserve" transform="matrix(1 0 -0 1 0 842.25)" font-size="14.275" font-family="Times New Roman"><tspan y="-686.85" x="99.875 108.85397 114.84948 121.601558 128.35363 135.1057 141.8435 148.59558 154.59108 165.11176 170.3507 177.8308 185.32518 192.80529 199.55736 207.05175 213.80382 220.5559 226.55139 234.0315 241.52588 246.76482 253.51689 260.25468 267.00675 273.75883 281.25318 288.74754 296.24189 303.73625 309.71748">&#x0422;&#x0430;&#x049b;&#x049b;&#x043e;&#x0441;&#x043b;&#x0430;&#x0448; &#x0431;&#x0438;&#x0440;&#x043b;&#x0438;&#x043a;&#x043b;&#x0430;&#x0440;&#x0438; &#x0443;&#x0441;&#x0443;&#x043b;&#x0438;&#x043d;&#x0438;&#x043d;&#x0433; </tspan></text>
</g>
<g id="Layer-1" data-name="P">
<text xml:space="preserve" transform="matrix(1 0 -0 1 0 842.25)" font-size="14.275" font-family="Times New Roman"><tspan y="-686.85" x="315.4 322.1378 329.6179 336.36997 343.85005 349.84556 356.59764 364.09199 370.0732 377.56758 382.8065 389.54429 395.55406 400.79298 408.27308 415.01087 422.49098 429.98533 436.7374 444.23176 450.21299 457.70735 462.94627 469.69834 477.1927 484.68705 492.1814 498.16264 503.40156 510.15364 516.1348 523.6292 529.6104 535.6059 540.8448 547.59689 554.34896 560.3444">&#x0441;&#x043e;&#x0434;&#x0434;&#x0430;&#x043b;&#x0438;&#x0433;&#x0438; &#x0432;&#x0430; &#x043e;&#x0441;&#x043e;&#x043d;&#x043b;&#x0438;&#x0433;&#x0438; &#x0443;&#x043d;&#x0438;&#x043d;&#x0433; &#x045e;&#x0437;&#x0438;&#x0433;&#x0430; &#x0445;&#x043e;&#x0441; </tspan></text>
<path transform="matrix(1,0,0,-1,0,842.25)" d="M 69.85 666.6 L 562.45 666.6 L 562.45 682.35 L 69.85 682.35 Z " fill="#ffffff" fill-rule="evenodd"/>
</g>
<g id="Layer-1" data-name="P">
<text xml:space="preserve" transform="matrix(1 0 -0 1 0 842.25)" font-size="14.275" font-family="Times New Roman"><tspan y="-670.35" x="71.35 78.10207 84.83987 90.835369 97.58744 105.08181 111.833889 119.328258 125.30948 132.80387 136.54392 143.29599 150.79038 157.52819 165.00829 172.48839 179.24047 185.23596 192.73035 198.72585 206.20595 213.70034 217.44039 221.18044 230.93025 238.42464 245.91902 253.4134 260.16548 266.90327 272.89878 276.63883 280.37889 287.13096 290.871 298.35108 305.84544 313.32554 317.06559 323.0611 329.0566 336.53669 344.03105 351.5254">&#x0443;&#x0441;&#x0442;&#x0443;&#x043d;&#x043b;&#x0438;&#x0433;&#x0438; &#x04b3;&#x0438;&#x0441;&#x043e;&#x0431;&#x043b;&#x0430;&#x043d;&#x0430;&#x0434;&#x0438;. &#x0410;&#x0439;&#x043d;&#x0438;&#x049b;&#x0441;&#x0430;, &#x0443; &#x0431;&#x0438;&#x0440; &#x0442;&#x0430;&#x0431;&#x0438;&#x0438;&#x0439;</tspan></text>
</g>
<g id="Layer-1" data-name="P">
<text xml:space="preserve" transform="matrix(1 0 -0 1 0 842.25)" font-size="14.275" font-family="Times New Roman"><tspan y="-670.35" x="359.7">-</tspan></text>
</g>
<g id="Layer-1" data-name="P">
<text xml:space="preserve" transform="matrix(1 0 -0 1 0 842.25)" font-size="14.275" font-family="Times New Roman"><tspan y="-670.35" x="364.2 371.69438 378.44645 385.19853 392.69288 401.72895 405.42619 410.67936 418.15946 425.6538 431.64933 438.38713 445.1392 452.61927 458.61479 462.35484 472.10466 479.58476 487.0791 493.83119 499.8267 510.34739 516.3286 522.3241 529.8185 533.55856 540.2964 547.7908 553.772 560.52407">&#x0438;&#x049b;&#x043b;&#x0438;&#x043c; &#x0437;&#x043e;&#x043d;&#x0430;&#x0441;&#x0438;&#x0434;&#x0430; &#x0436;&#x043e;&#x0439;&#x043b;&#x0430;&#x0448;&#x0433;&#x0430;&#x043d; &#x044f;&#x043d;&#x0433;&#x0438; </tspan></text>
<path transform="matrix(1,0,0,-1,0,842.25)" d="M 69.85 650.07 L 562.45 650.07 L 562.45 666.59506 L 69.85 666.59506 Z " fill="#ffffff" fill-rule="evenodd"/>
</g>
<g id="Layer-1" data-name="P">
<text xml:space="preserve" transform="matrix(1 0 -0 1 0 842.25)" font-size="14.275" font-family="Times New Roman"><tspan y="-654.58" x="71.35 77.3455 84.82559 93.06226 102.098339 108.065288 114.80308 121.54087 128.29294 135.03073 141.79709 147.79259 155.27269 162.76708 170.26146 177.75585 181.4959 189.73258 196.47039 202.46588 208.46138 215.95577 223.43587 228.68907 236.16918 242.16468 250.40135 257.89573 266.9318 273.64106 281.12117 287.11668 293.11219 299.86427 305.85978 313.33988 321.57658 329.05665 336.551 343.30308 349.29859 356.79295 365.02964 372.5097 378.50523 385.99958 393.47966">&#x0435;&#x0440; &#x043c;&#x0430;&#x0441;&#x0441;&#x0438;&#x0432;&#x043b;&#x0430;&#x0440;&#x0438;&#x043d;&#x0438;, &#x0441;&#x0442;&#x0430;&#x043d;&#x0434;&#x0430;&#x0440;&#x0442; &#x0438;&#x043c;&#x043e;&#x0440;&#x0430;&#x0442;&#x043b;&#x0430;&#x0440; &#x0431;&#x0438;&#x043b;&#x0430;&#x043d; &#x0431;&#x0430;&#x043d;&#x0434; </tspan></text>
</g>
<g id="Layer-1" data-name="P">
<text xml:space="preserve" transform="matrix(1 0 -0 1 0 842.25)" font-size="14.275" font-family="Times New Roman"><tspan y="-654.58" x="402.5 409.98008 417.46018 424.21226 430.19349 436.189 443.68336 451.92005 457.91557 465.39567 473.63236 482.66844 488.63539 494.6309 501.36869 508.86305 515.6008 522.3672 528.3627 535.8428 543.33718 550.83157 557.5836 560.58139">&#x0431;&#x045e;&#x043b;&#x0433;&#x0430;&#x043d; &#x0435;&#x0440; &#x043c;&#x0430;&#x0441;&#x0441;&#x0438;&#x0432;&#x043b;&#x0430;&#x0440;&#x0438;&#x043d;&#x0438;, </tspan></text>
<path transform="matrix(1,0,0,-1,0,842.25)" d="M 69.85 634.33 L 562.45 634.33 L 562.45 650.08 L 69.85 650.08 Z " fill="#ffffff" fill-rule="evenodd"/>
</g>
<g id="Layer-1" data-name="P">
<text xml:space="preserve" transform="matrix(1 0 -0 1 0 842.25)" font-size="14.275" font-family="Times New Roman"><tspan y="-638.08" x="71.35 78.10207 85.59644 96.11712 102.869197 110.34929 117.101367 120.841419 127.59349 135.0736 144.82343 150.81893 157.571 165.06539 171.04662 178.541 182.28105 188.27655 195.75666 202.50873 208.50423 215.98433 223.47872 230.9731 238.46749 241.46524 248.94535 254.94084 261.6929 269.173 275.92509 281.9206 292.44129 299.92137 305.91688 309.65693 317.13703 323.13255 329.12806 332.1258 338.8636 344.8591 353.89518 359.86213 367.34223 373.33775 380.0898 387.58418 395.06425 401.8163 409.29643">&#x049b;&#x0438;&#x0448;&#x043b;&#x043e;&#x049b; &#x0445;&#x045e;&#x0436;&#x0430;&#x043b;&#x0438;&#x0433;&#x0438; &#x0435;&#x0440;&#x043b;&#x0430;&#x0440;&#x0438;&#x043d;&#x0438; &#x0431;&#x0430;&#x04b3;&#x043e;&#x043b;&#x0430;&#x0448;&#x0434;&#x0430; &#x045e;&#x0442;&#x0430; &#x0441;&#x0430;&#x043c;&#x0430;&#x0440;&#x0430;&#x043b;&#x0438;&#x0434;&#x0438;&#x0440;.</tspan></text>
</g>
<g id="Layer-1" data-name="P">
<text xml:space="preserve" transform="matrix(1 0 -0 1 0 842.25)" font-size="14.275" font-family="Times New Roman"><tspan y="-638.08" x="413.02"> </tspan></text>
</g>
<g id="Layer-1" data-name="P">
<path transform="matrix(1,0,0,-1,0,842.25)" d="M 69.85 617.8 L 562.45 617.8 L 562.45 634.325 L 69.85 634.325 Z " fill="#ffffff" fill-rule="evenodd"/>
</g>
<g id="Layer-1" data-name="P">
<text xml:space="preserve" transform="matrix(1 0 -0 1 0 842.25)" font-size="14.275" font-family="Times New Roman,BoldItalic" font-weight="bold" font-style="italic"><tspan y="-623.05" x="99.875">4</tspan></text>
</g>
<g id="Layer-1" data-name="P">
<text xml:space="preserve" transform="matrix(1 0 -0 1 0 842.25)" font-size="14.275" font-family="Times New Roman,BoldItalic" font-weight="bold" font-style="italic"><tspan y="-623.05" x="107.37">-</tspan></text>
</g>
<g id="Layer-1" data-name="P">
<text xml:space="preserve" transform="matrix(1 0 -0 1 0 842.25)" font-size="14.275" font-family="Times New Roman,BoldItalic" font-weight="bold" font-style="italic"><tspan y="-623.05" x="111.9 118.65208 125.40415 131.39965 138.87975 147.11643 154.6108">&#x0431;&#x043e;&#x0441;&#x049b;&#x0438;&#x0447;.</tspan></text>
<path transform="matrix(1,0,0,-1,0,842.25)" d="M 99.875 620.05 L 158.45 620.05 L 158.45 621.55 L 99.875 621.55 Z " fill-rule="evenodd"/>
</g>
<g id="Layer-1" data-name="P">
<text xml:space="preserve" transform="matrix(1 0 -0 1 0 842.25)" font-size="14.275" font-family="Times New Roman"><tspan y="-623.05" x="158.45"> </tspan></text>
</g>
<g id="Layer-1" data-name="P">
<text xml:space="preserve" transform="matrix(1 0 -0 1 0 842.25)" font-size="14.275" font-family="Times New Roman"><tspan y="-623.05" x="162.2 172.70639 179.45847 186.95285 194.44724 200.42847 206.42397 213.91835 217.6584 225.15279 231.14829 237.14379 244.63817 254.388 260.3835 267.1356 273.1311 280.6112 288.10557 295.5999 299.33998 305.33549 311.331 318.08308 324.83515 332.3295 339.8096 343.54966 350.30174 357.79609 364.54817 372.0425 382.5632 386.30326 390.7856 400.53544 409.5715 415.53846 422.29054 428.27177 435.00956 438.7496 446.2297 456.7504 464.24476 471.72486 479.2192 485.97129 491.9525 497.94804 505.44239 509.18244 516.66256 522.658 529.4101 536.8902 543.6423 549.63778 560.15847">&#x041e;&#x043b;&#x0438;&#x043d;&#x0433;&#x0430;&#x043d; &#x043d;&#x0430;&#x0442;&#x0438;&#x0436;&#x0430;&#x043b;&#x0430;&#x0440;&#x043d;&#x0438; &#x0442;&#x0430;&#x04b3;&#x043b;&#x0438;&#x043b; &#x049b;&#x0438;&#x043b;&#x0438;&#x0448;. &#x0410;&#x043c;&#x0430;&#x043b;&#x0433;&#x0430; &#x043e;&#x0448;&#x0438;&#x0440;&#x0438;&#x043b;&#x0433;&#x0430;&#x043d; &#x0431;&#x0430;&#x04b3;&#x043e;&#x043b;&#x0430;&#x0448; </tspan></text>
<path transform="matrix(1,0,0,-1,0,842.25)" d="M 69.85 602.02 L 562.45 602.02 L 562.45 617.79507 L 69.85 617.79507 Z " fill="#ffffff" fill-rule="evenodd"/>
</g>
<g id="Layer-1" data-name="P">
<text xml:space="preserve" transform="matrix(1 0 -0 1 0 842.25)" font-size="14.275" font-family="Times New Roman"><tspan y="-605.8" x="71.35 78.84437 89.36504 96.11712 102.11262 109.59271 117.08708 120.82713 126.82263 134.30274 139.55594 147.03604 154.53043 161.26824 168.02031 175.50041 181.49591 185.23596 191.98804 199.48242 205.47792 212.95803 219.7101 227.1902 233.1857 236.92575 242.92125 249.67333 255.65456 263.14894 273.66963 276.66737 280.4074 290.14295 296.13847 303.61854 310.3706 317.12269 320.86274 327.6148 335.10917 341.86125 349.3556 356.84996 362.83119 368.8267 376.32106 379.3188 386.7989 393.55097 400.30305 407.04084 413.03636 419.03187 422.7719 429.5097 435.51948 439.25953 446.73963 452.73515 459.4872 466.2393 472.99137 479.72917 486.4955 492.49104 499.97114">&#x0438;&#x0448;&#x043b;&#x0430;&#x0440;&#x0438; &#x0442;&#x045e;&#x0493;&#x0440;&#x0438;&#x0441;&#x0438;&#x0434;&#x0430; &#x04b3;&#x0438;&#x0441;&#x043e;&#x0431;&#x043e;&#x0442; &#x0442;&#x0443;&#x0437;&#x0438;&#x0448;. &#x049a;&#x0430;&#x0431;&#x0443;&#x043b; &#x049b;&#x0438;&#x043b;&#x0438;&#x043d;&#x0433;&#x0430;&#x043d; &#x0440;&#x0443;&#x0445;&#x0441;&#x0430;&#x0442; &#x0432;&#x0430; &#x0447;&#x0435;&#x043a;&#x043b;&#x043e;&#x0432;&#x043b;&#x0430;&#x0440;.</tspan></text>
</g>
<g id="Layer-1" data-name="P">
<text xml:space="preserve" transform="matrix(1 0 -0 1 0 842.25)" font-size="14.275" font-family="Times New Roman"><tspan y="-605.8" x="503.9"> </tspan></text>
</g>
<g id="Layer-1" data-name="P">
<path transform="matrix(1,0,0,-1,0,842.25)" d="M 69.85 585.53 L 562.45 585.53 L 562.45 602.03 L 69.85 602.03 Z " fill="#ffffff" fill-rule="evenodd"/>
</g>
<g id="Layer-1" data-name="P">
<text xml:space="preserve" transform="matrix(1 0 -0 1 0 842.25)" font-size="14.275" font-family="Times New Roman"><tspan y="-590.03" x="99.875 109.61055 117.090648 123.08614 129.83823 136.57602 143.34238 149.33788 156.81798 164.31237 171.80675 184.5686 190.5641 196.5596 203.31168 210.06375 216.81583 223.55364 230.30571 236.30121 246.82189 259.58375 266.33583 273.0736 279.82569 286.57777 294.0721 306.83399 314.31407 321.8084 328.5605 334.556 342.05036 354.8122 360.8077 368.2878 381.04969 387.80177 395.28187 401.27738 408.01518 414.01069 420.76277">&#x0421;&#x043e;&#x0442;&#x0443;&#x0432;&#x043b;&#x0430;&#x0440;&#x043d;&#x0438; &#x0442;&#x0430;&#x049b;&#x049b;&#x043e;&#x0441;&#x043b;&#x0430;&#x0448; &#x0443;&#x0441;&#x0443;&#x043b;&#x0438; &#x0431;&#x0438;&#x043b;&#x0430;&#x043d; &#x0435;&#x0440; &#x0443;&#x0447;&#x0430;&#x0441;&#x0442;&#x043a;&#x0430;</tspan></text>
</g>
<g id="Layer-1" data-name="P">
<text xml:space="preserve" transform="matrix(1 0 -0 1 0 842.25)" font-size="14.275" font-family="Times New Roman"><tspan y="-590.03" x="427.3 434.05207 440.04759 447.52769 455.02204 462.5164 470.01075 477.5051 483.48634">&#x043b;&#x0430;&#x0440;&#x0438;&#x043d;&#x0438;&#x043d;&#x0433; </tspan></text>
</g>
<g id="Layer-1" data-name="P">
<text xml:space="preserve" transform="matrix(1 0 -0 1 0 842.25)" font-size="14.275" font-family="Times New Roman"><tspan y="-590.03" x="496.38 503.13209 510.62644 518.1208 527.15689 533.1238 539.11929 546.61367 554.10806 560.8601">&#x049b;&#x0438;&#x0439;&#x043c;&#x0430;&#x0442;&#x0438;&#x043d;&#x0438; </tspan></text>
<path transform="matrix(1,0,0,-1,0,842.25)" d="M 69.85 569.75 L 562.45 569.75 L 562.45 585.525 L 69.85 585.525 Z " fill="#ffffff" fill-rule="evenodd"/>
</g>
<g id="Layer-1" data-name="P">
<text xml:space="preserve" transform="matrix(1 0 -0 1 0 842.25)" font-size="14.275" font-family="Times New Roman"><tspan y="-573.5" x="71.35 78.8301 84.8256 91.577678 99.05777 105.809848 111.80535 122.32603 126.06608 129.80612 135.80162 141.78285 147.77835 155.25846 158.9985 164.994 172.4741 176.21416 183.69426 190.44634 195.69954 203.17964 210.65975 217.41182 224.89192 230.88742 234.62747 241.36527 247.37505 251.1151 257.86717 265.34727 272.09934 281.1354 287.10237 293.84016 297.5802 306.61628 313.32554 320.0776 326.82969 330.56974 338.0498 344.80189 350.05506 357.53517 365.01527 371.76734 379.2474 385.24293 388.98298 394.9785 404.01457 409.9815 416.73359 422.7148 428.71034 432.45039 439.93049 450.45118 457.94554 465.42564 472.91999 479.67207 485.6533 491.6488 499.14317 502.8832 510.36329 517.85769 523.85317 531.34756 540.3836 547.09286 553.0883 559.8404">&#x0431;&#x0430;&#x04b3;&#x043e;&#x043b;&#x0430;&#x0448;, &#x0430;&#x0433;&#x0430;&#x0440; &#x0435;&#x0440; &#x0431;&#x043e;&#x0437;&#x043e;&#x0440;&#x0438;&#x0434;&#x0430; &#x0432;&#x0430; &#x043a;&#x045e;&#x0447;&#x043c;&#x0430;&#x0441; &#x043c;&#x0443;&#x043b;&#x043a; &#x0431;&#x043e;&#x0437;&#x043e;&#x0440;&#x0438;&#x0434;&#x0430; &#x0430;&#x043c;&#x0430;&#x043b;&#x0433;&#x0430; &#x043e;&#x0448;&#x0438;&#x0440;&#x0438;&#x043b;&#x0433;&#x0430;&#x043d; &#x0431;&#x0438;&#x0442;&#x0438;&#x043c;&#x043b;&#x0430;&#x0440; </tspan></text>
<path transform="matrix(1,0,0,-1,0,842.25)" d="M 69.85 553.25 L 562.45 553.25 L 562.45 569.75 L 69.85 569.75 Z " fill="#ffffff" fill-rule="evenodd"/>
</g>
<g id="Layer-1" data-name="P">
<text xml:space="preserve" transform="matrix(1 0 -0 1 0 842.25)" font-size="14.275" font-family="Times New Roman"><tspan y="-557.75" x="71.35 78.8301 86.310199 93.804569 100.55664 108.03674 114.03225 121.512348 129.00673 135.00223 140.99773 146.99323 154.47333 161.2254 168.71979 176.19989 185.23596 192.7018 198.6973 206.1774 212.92948 220.40958 227.88968 233.14289 240.62299 247.37506 254.86945 260.86497 267.60276 274.35484 280.35035 287.8447 293.8402 301.32029 308.81465 314.79588 320.79139 328.28575 335.76585 341.76136 348.51344 355.2655 362.7456 369.49769 376.97779 382.9733 390.4534 399.48948 405.45643 412.1942 421.9583 427.95384 435.4339 442.914 449.66609 457.14619 463.1417 469.8795 475.875 479.61506 487.09516 493.09065 500.585 505.8382 513.3183 520.0704 527.5505 533.54598 540.29806 546.2935 553.7879 559.7834">&#x0431;&#x045e;&#x0439;&#x0438;&#x0447;&#x0430; &#x0439;&#x0435;&#x0442;&#x0430;&#x0440;&#x043b;&#x0438; &#x043c;&#x0438;&#x049b;&#x0434;&#x043e;&#x0440;&#x0434;&#x0430; &#x049b;&#x0438;&#x0451;&#x0441;&#x043b;&#x0430;&#x043d;&#x0430;&#x0434;&#x0438;&#x0433;&#x0430;&#x043d; &#x0430;&#x0445;&#x0431;&#x043e;&#x0440;&#x043e;&#x0442; &#x043c;&#x0430;&#x0432;&#x0436;&#x0443;&#x0434; &#x0431;&#x045e;&#x043b;&#x0441;&#x0430;, &#x044d;&#x043d;&#x0433; &#x043e;&#x0431;&#x0435;&#x043a;&#x0442;&#x0438;&#x0432; </tspan></text>
<path transform="matrix(1,0,0,-1,0,842.25)" d="M 69.85 537.47 L 562.45 537.47 L 562.45 553.245 L 69.85 553.245 Z " fill="#ffffff" fill-rule="evenodd"/>
</g>
<g id="Layer-1" data-name="P">
<text xml:space="preserve" transform="matrix(1 0 -0 1 0 842.25)" font-size="14.275" font-family="Times New Roman"><tspan y="-541.22" x="71.35 78.10207 85.59644 92.334239 99.08631 106.566417 113.31849 119.31399 126.80836 132.80385 140.28395 147.77834">&#x04b3;&#x0438;&#x0441;&#x043e;&#x0431;&#x043b;&#x0430;&#x043d;&#x0430;&#x0434;&#x0438;.</tspan></text>
</g>
<g id="Layer-1" data-name="P">
<text xml:space="preserve" transform="matrix(1 0 -0 1 0 842.25)" font-size="14.275" font-family="Times New Roman"><tspan y="-541.22" x="151.7"> </tspan></text>
</g>
<g id="Layer-1" data-name="P">
<path transform="matrix(1,0,0,-1,0,842.25)" d="M 69.85 521.7 L 562.45 521.7 L 562.45 537.47506 L 69.85 537.47506 Z " fill="#ffffff" fill-rule="evenodd"/>
</g>
<g id="Layer-1" data-name="P">
<text xml:space="preserve" transform="matrix(1 0 -0 1 0 842.25)" font-size="14.275" font-family="Times New Roman,Bold" font-weight="bold"><tspan y="-525.47" x="333.42"> </tspan></text>
</g>
<g id="Layer-1" data-name="P">
<path transform="matrix(1,0,0,-1,0,842.25)" d="M 69.85 505.2 L 562.45 505.2 L 562.45 521.7 L 69.85 521.7 Z " fill="#ffffff" fill-rule="evenodd"/>
</g>
<g id="Layer-1" data-name="P">
<text xml:space="preserve" transform="matrix(1 0 -0 1 0 842.25)" font-size="14.275" font-family="Times New Roman,Bold" font-weight="bold"><tspan y="-509.7" x="333.42"> </tspan></text>
</g>
<g id="Layer-1" data-name="P">
<path transform="matrix(1,0,0,-1,0,842.25)" d="M 69.85 489.42 L 562.45 489.42 L 562.45 505.195 L 69.85 505.195 Z " fill="#ffffff" fill-rule="evenodd"/>
</g>
<g id="Layer-1" data-name="P">
<text xml:space="preserve" transform="matrix(1 0 -0 1 0 842.25)" font-size="14.275" font-family="Times New Roman,Bold" font-weight="bold"><tspan y="-493.17" x="333.42"> </tspan></text>
</g>
<g id="Layer-1" data-name="P">
<path transform="matrix(1,0,0,-1,0,842.25)" d="M 69.85 472.92 L 562.45 472.92 L 562.45 489.42 L 69.85 489.42 Z " fill="#ffffff" fill-rule="evenodd"/>
</g>
<g id="Layer-1" data-name="P">
<text xml:space="preserve" transform="matrix(1 0 -0 1 0 842.25)" font-size="14.275" font-family="Times New Roman,Bold" font-weight="bold"><tspan y="-477.42" x="106.62"> </tspan></text>
</g>
<g id="Layer-1" data-name="P">
<text xml:space="preserve" transform="matrix(1 0 -0 1 0 842.25)" font-size="14.275" font-family="Times New Roman,Bold" font-weight="bold"><tspan y="-477.42" x="274.85"> </tspan></text>
</g>
<g id="Layer-1" data-name="P">
<path transform="matrix(1,0,0,-1,0,842.25)" d="M 69.85 457.15 L 562.45 457.15 L 562.45 472.925 L 69.85 472.925 Z " fill="#ffffff" fill-rule="evenodd"/>
</g>
<g id="Layer-1" data-name="P">
<text xml:space="preserve" transform="matrix(1 0 -0 1 0 842.25)" font-size="14.275" font-family="Times New Roman,Bold" font-weight="bold"><tspan y="-460.9" x="333.42"> </tspan></text>
</g>
<g id="Layer-1" data-name="P">
<path transform="matrix(1,0,0,-1,0,842.25)" d="M 69.85 440.65 L 562.45 440.65 L 562.45 457.15 L 69.85 457.15 Z " fill="#ffffff" fill-rule="evenodd"/>
</g>
<g id="Layer-1" data-name="P">
<text xml:space="preserve" transform="matrix(1 0 -0 1 0 842.25)" font-size="14.275" font-family="Times New Roman,Bold" font-weight="bold"><tspan y="-445.15" x="333.42"> </tspan></text>
</g>
<g id="Layer-1" data-name="P">
<path transform="matrix(1,0,0,-1,0,842.25)" d="M 69.85 424.88 L 562.45 424.88 L 562.45 440.655 L 69.85 440.655 Z " fill="#ffffff" fill-rule="evenodd"/>
</g>
<g id="Layer-1" data-name="P">
<text xml:space="preserve" transform="matrix(1 0 -0 1 0 842.25)" font-size="14.275" font-family="Times New Roman,Bold" font-weight="bold"><tspan y="-428.63" x="333.42"> </tspan></text>
</g>
<g id="Layer-1" data-name="P">
<path transform="matrix(1,0,0,-1,0,842.25)" d="M 69.85 408.35 L 562.45 408.35 L 562.45 424.875 L 69.85 424.875 Z " fill="#ffffff" fill-rule="evenodd"/>
</g>
<g id="Layer-1" data-name="P">
<text xml:space="preserve" transform="matrix(1 0 -0 1 0 842.25)" font-size="14.275" font-family="Times New Roman,Bold" font-weight="bold"><tspan y="-412.88" x="333.42"> </tspan></text>
</g>
<g id="Layer-1" data-name="P">
<path transform="matrix(1,0,0,-1,0,842.25)" d="M 69.85 392.6 L 562.45 392.6 L 562.45 408.35 L 69.85 408.35 Z " fill="#ffffff" fill-rule="evenodd"/>
</g>
<g id="Layer-1" data-name="P">
<text xml:space="preserve" transform="matrix(1 0 -0 1 0 842.25)" font-size="14.275" font-family="Times New Roman,Bold" font-weight="bold"><tspan y="-396.35" x="333.42"> </tspan></text>
</g>
<g id="Layer-1" data-name="P">
<path transform="matrix(1,0,0,-1,0,842.25)" d="M 69.85 376.07 L 562.45 376.07 L 562.45 392.595 L 69.85 392.595 Z " fill="#ffffff" fill-rule="evenodd"/>
</g>
<g id="Layer-1" data-name="P">
<text xml:space="preserve" transform="matrix(1 0 -0 1 0 842.25)" font-size="14.275" font-family="Times New Roman,Bold" font-weight="bold"><tspan y="-380.58" x="333.42"> </tspan></text>
</g>
<g id="Layer-1" data-name="P">
<path transform="matrix(1,0,0,-1,0,842.25)" d="M 69.85 360.32 L 562.45 360.32 L 562.45 376.07 L 69.85 376.07 Z " fill="#ffffff" fill-rule="evenodd"/>
</g>
<g id="Layer-1" data-name="P">
<text xml:space="preserve" transform="matrix(1 0 -0 1 0 842.25)" font-size="14.275" font-family="Times New Roman,Bold" font-weight="bold"><tspan y="-364.08" x="333.42"> </tspan></text>
</g>
<g id="Layer-1" data-name="P">
<path transform="matrix(1,0,0,-1,0,842.25)" d="M 69.85 343.8 L 562.45 343.8 L 562.45 360.32499 L 69.85 360.32499 Z " fill="#ffffff" fill-rule="evenodd"/>
</g>
<g id="Layer-1" data-name="P">
<text xml:space="preserve" transform="matrix(1 0 -0 1 0 842.25)" font-size="14.275" font-family="Times New Roman,Bold" font-weight="bold"><tspan y="-348.3" x="333.42"> </tspan></text>
</g>
<g id="Layer-1" data-name="P">
<path transform="matrix(1,0,0,-1,0,842.25)" d="M 69.85 328.05 L 562.45 328.05 L 562.45 343.8 L 69.85 343.8 Z " fill="#ffffff" fill-rule="evenodd"/>
</g>
<g id="Layer-1" data-name="P">
<text xml:space="preserve" transform="matrix(1 0 -0 1 0 842.25)" font-size="14.275" font-family="Times New Roman,Bold" font-weight="bold"><tspan y="-331.8" x="333.42"> </tspan></text>
</g>
<g id="Layer-1" data-name="P">
<path transform="matrix(1,0,0,-1,0,842.25)" d="M 69.85 312.27 L 562.45 312.27 L 562.45 328.04499 L 69.85 328.04499 Z " fill="#ffffff" fill-rule="evenodd"/>
</g>
<g id="Layer-1" data-name="P">
<text xml:space="preserve" transform="matrix(1 0 -0 1 0 842.25)" font-size="14.275" font-family="Times New Roman,Bold" font-weight="bold"><tspan y="-316.03" x="333.42"> </tspan></text>
</g>
<g id="Layer-1" data-name="P">
<path transform="matrix(1,0,0,-1,0,842.25)" d="M 69.85 295.75 L 562.45 295.75 L 562.45 312.275 L 69.85 312.275 Z " fill="#ffffff" fill-rule="evenodd"/>
</g>
<g id="Layer-1" data-name="P">
<text xml:space="preserve" transform="matrix(1 0 -0 1 0 842.25)" font-size="14.275" font-family="Times New Roman,Bold" font-weight="bold"><tspan y="-300.28" x="333.42"> </tspan></text>
</g>
<g id="Layer-1" data-name="P">
<path transform="matrix(1,0,0,-1,0,842.25)" d="M 69.85 280 L 562.45 280 L 562.45 295.75 L 69.85 295.75 Z " fill="#ffffff" fill-rule="evenodd"/>
</g>
<g id="Layer-1" data-name="P">
<text xml:space="preserve" transform="matrix(1 0 -0 1 0 842.25)" font-size="14.275" font-family="Times New Roman,Bold" font-weight="bold"><tspan y="-283.75" x="333.42"> </tspan></text>
</g>
<g id="Layer-1" data-name="P">
<path transform="matrix(1,0,0,-1,0,842.25)" d="M 69.85 263.47 L 562.45 263.47 L 562.45 279.995 L 69.85 279.995 Z " fill="#ffffff" fill-rule="evenodd"/>
</g>
<g id="Layer-1" data-name="P">
<text xml:space="preserve" transform="matrix(1 0 -0 1 0 842.25)" font-size="14.275" font-family="Times New Roman,Bold" font-weight="bold"><tspan y="-267.97" x="333.42"> </tspan></text>
</g>
<g id="Layer-1" data-name="P">
<path transform="matrix(1,0,0,-1,0,842.25)" d="M 69.85 247.72 L 562.45 247.72 L 562.45 263.47 L 69.85 263.47 Z " fill="#ffffff" fill-rule="evenodd"/>
</g>
<g id="Layer-1" data-name="P">
<text xml:space="preserve" transform="matrix(1 0 -0 1 0 842.25)" font-size="14.275" font-family="Times New Roman,Bold" font-weight="bold"><tspan y="-251.47" x="333.42"> </tspan></text>
</g>
<g id="Layer-1" data-name="P">
<path transform="matrix(1,0,0,-1,0,842.25)" d="M 69.85 231.2 L 562.45 231.2 L 562.45 247.72499 L 69.85 247.72499 Z " fill="#ffffff" fill-rule="evenodd"/>
</g>
<g id="Layer-1" data-name="P">
<text xml:space="preserve" transform="matrix(1 0 -0 1 0 842.25)" font-size="14.275" font-family="Times New Roman,Bold" font-weight="bold"><tspan y="-235.7" x="333.42"> </tspan></text>
</g>
<g id="Layer-1" data-name="P">
<path transform="matrix(1,0,0,-1,0,842.25)" d="M 69.85 215.45 L 562.45 215.45 L 562.45 231.2 L 69.85 231.2 Z " fill="#ffffff" fill-rule="evenodd"/>
</g>
<g id="Layer-1" data-name="P">
<text xml:space="preserve" transform="matrix(1 0 -0 1 0 842.25)" font-size="14.275" font-family="Times New Roman,Bold" font-weight="bold"><tspan y="-219.2" x="333.42"> </tspan></text>
</g>
<g id="Layer-1" data-name="P">
<path transform="matrix(1,0,0,-1,0,842.25)" d="M 69.85 198.92 L 562.45 198.92 L 562.45 215.44499 L 69.85 215.44499 Z " fill="#ffffff" fill-rule="evenodd"/>
</g>
<g id="Layer-1" data-name="P">
<text xml:space="preserve" transform="matrix(1 0 -0 1 0 842.25)" font-size="14.275" font-family="Times New Roman,Bold" font-weight="bold"><tspan y="-203.42" x="333.42"> </tspan></text>
</g>
<g id="Layer-1" data-name="P">
<path transform="matrix(1,0,0,-1,0,842.25)" d="M 69.85 183.15 L 562.45 183.15 L 562.45 198.92499 L 69.85 198.92499 Z " fill="#ffffff" fill-rule="evenodd"/>
</g>
<g id="Layer-1" data-name="P">
<text xml:space="preserve" transform="matrix(1 0 -0 1 0 842.25)" font-size="14.275" font-family="Times New Roman,Bold" font-weight="bold"><tspan y="-186.9" x="333.42"> </tspan></text>
</g>
<g id="Layer-1" data-name="P">
<path transform="matrix(1,0,0,-1,0,842.25)" d="M 69.85 166.65 L 562.45 166.65 L 562.45 183.15 L 69.85 183.15 Z " fill="#ffffff" fill-rule="evenodd"/>
</g>
<g id="Layer-1" data-name="P">
<text xml:space="preserve" transform="matrix(1 0 -0 1 0 842.25)" font-size="14.275" font-family="Times New Roman,Bold" font-weight="bold"><tspan y="-171.15" x="333.42"> </tspan></text>
</g>
<g id="Layer-1" data-name="P">
<path transform="matrix(1,0,0,-1,0,842.25)" d="M 69.85 150.88 L 562.45 150.88 L 562.45 166.655 L 69.85 166.655 Z " fill="#ffffff" fill-rule="evenodd"/>
</g>
<g id="Layer-1" data-name="P">
<text xml:space="preserve" transform="matrix(1 0 -0 1 0 842.25)" font-size="14.275" font-family="Times New Roman,Bold" font-weight="bold"><tspan y="-154.63" x="333.42"> </tspan></text>
</g>
<g id="Layer-1" data-name="P">
<path transform="matrix(1,0,0,-1,0,842.25)" d="M 69.85 134.38 L 562.45 134.38 L 562.45 150.88 L 69.85 150.88 Z " fill="#ffffff" fill-rule="evenodd"/>
</g>
<g id="Layer-1" data-name="P">
<text xml:space="preserve" transform="matrix(1 0 -0 1 0 842.25)" font-size="14.275" font-family="Times New Roman,Bold" font-weight="bold"><tspan y="-138.88" x="333.42"> </tspan></text>
</g>
<g id="Layer-1" data-name="P">
<path transform="matrix(1,0,0,-1,0,842.25)" d="M 69.85 118.6 L 562.45 118.6 L 562.45 134.375 L 69.85 134.375 Z " fill="#ffffff" fill-rule="evenodd"/>
</g>
<g id="Layer-1" data-name="P">
<text xml:space="preserve" transform="matrix(1 0 -0 1 0 842.25)" font-size="14.275" font-family="Times New Roman,Bold" font-weight="bold"><tspan y="-122.35" x="333.42"> </tspan></text>
</g>
<g id="Layer-1" data-name="P">
<path transform="matrix(1,0,0,-1,0,842.25)" d="M 69.85 102.08 L 562.45 102.08 L 562.45 118.605 L 69.85 118.605 Z " fill="#ffffff" fill-rule="evenodd"/>
</g>
<g id="Layer-1" data-name="P">
<text xml:space="preserve" transform="matrix(1 0 -0 1 0 842.25)" font-size="14.275" font-family="Times New Roman,Bold" font-weight="bold"><tspan y="-106.6" x="333.42"> </tspan></text>
</g>
<g id="Layer-1" data-name="P">
<path transform="matrix(1,0,0,-1,0,842.25)" d="M 69.85 86.325 L 562.45 86.325 L 562.45 102.075 L 69.85 102.075 Z " fill="#ffffff" fill-rule="evenodd"/>
</g>
<g id="Layer-1" data-name="P">
<text xml:space="preserve" transform="matrix(1 0 -0 1 0 842.25)" font-size="14.275" font-family="Times New Roman,Bold" font-weight="bold"><tspan y="-90.075" x="333.42"> </tspan></text>
</g>
<g id="Layer-1" data-name="P">
<path transform="matrix(1,0,0,-1,0,842.25)" d="M 69.85 70.55 L 562.45 70.55 L 562.45 86.325008 L 69.85 86.325008 Z " fill="#ffffff" fill-rule="evenodd"/>
</g>
<g id="Layer-1" data-name="P">
<text xml:space="preserve" transform="matrix(1 0 -0 1 0 842.25)" font-size="14.275" font-family="Times New Roman,Bold" font-weight="bold"><tspan y="-74.3" x="333.42"> </tspan></text>
</g>
<g id="Layer-1" data-name="P">
<path transform="matrix(1,0,0,-1,0,842.25)" d="M 69.85 54.05 L 562.45 54.05 L 562.45 70.55 L 69.85 70.55 Z " fill="#ffffff" fill-rule="evenodd"/>
</g>
<g id="Layer-1" data-name="P">
<text xml:space="preserve" transform="matrix(1 0 -0 1 0 842.25)" font-size="14.275" font-family="Times New Roman,Bold" font-weight="bold"><tspan y="-58.55" x="333.42"> </tspan></text>
</g>
<g id="Layer-1" data-name="P">
<path transform="matrix(1,0,0,-1,0,842.25)" d="M 69.85 38.275 L 562.45 38.275 L 562.45 54.050004 L 69.85 54.050004 Z " fill="#ffffff" fill-rule="evenodd"/>
</g>
<g id="Layer-1" data-name="P">
<text xml:space="preserve" transform="matrix(1 0 -0 1 0 842.25)" font-size="14.275" font-family="Times New Roman,Bold" font-weight="bold"><tspan y="-42.025" x="333.42"> </tspan></text>
</g>
</g>
</g>
</svg>
