<?xml version="1.0" encoding="UTF-8" standalone="no"?>
<!DOCTYPE svg PUBLIC "-//W3C//DTD SVG 1.1//EN" "http://www.w3.org/Graphics/SVG/1.1/DTD/svg11.dtd">
<svg xmlns="http://www.w3.org/2000/svg" xmlns:xlink="http://www.w3.org/1999/xlink" version="1.1" width="595.32pt" height="841.92pt" viewBox="0 0 595.32 841.92">
<g enable-background="new">
<g>
<g id="Layer-1" data-name="Artifact">
<clipPath id="cp1035">
<path transform="matrix(1,0,0,-1,0,841.92)" d="M .000008871 0 L 595.32 0 L 595.32 841.92 L .000008871 841.92 Z " fill-rule="evenodd"/>
</clipPath>
<g clip-path="url(#cp1035)">
<text xml:space="preserve" transform="matrix(1 0 -0 1 0 841.92)" font-size="11.04" font-family="Calibri"><tspan y="-51.864" x="313.37 319.00999">11</tspan></text>
</g>
<clipPath id="cp1036">
<path transform="matrix(1,0,0,-1,0,841.92)" d="M .000008871 0 L 595.32 0 L 595.32 841.92 L .000008871 841.92 Z " fill-rule="evenodd"/>
</clipPath>
<g clip-path="url(#cp1036)">
<text xml:space="preserve" transform="matrix(1 0 -0 1 0 841.92)" font-size="11.04" font-family="Calibri"><tspan y="-51.864" x="324.67"> </tspan></text>
</g>
<clipPath id="cp1037">
<path transform="matrix(1,0,0,-1,0,841.92)" d="M .000008871 0 L 595.32 0 L 595.32 841.92 L .000008871 841.92 Z " fill-rule="evenodd"/>
</clipPath>
<g clip-path="url(#cp1037)">
</g>
<clipPath id="cp1038">
<path transform="matrix(1,0,0,-1,0,841.92)" d="M .000008871 0 L 595.32 0 L 595.32 841.92 L .000008871 841.92 Z " fill-rule="evenodd"/>
</clipPath>
<g clip-path="url(#cp1038)">
<text xml:space="preserve" transform="matrix(1 0 -0 1 0 841.92)" font-size="11.04" font-family="Calibri"><tspan y="-38.4" x="85.104"> </tspan></text>
</g>
<clipPath id="cp1039">
<path transform="matrix(1,0,0,-1,0,841.92)" d="M .000008871 0 L 595.32 0 L 595.32 841.92 L .000008871 841.92 Z " fill-rule="evenodd"/>
</clipPath>
<g clip-path="url(#cp1039)">
</g>
</g>
<g id="Layer-1" data-name="P">
<clipPath id="cp1040">
<path transform="matrix(1,0,0,-1,0,841.92)" d="M .000008871 0 L 595.32 0 L 595.32 841.92 L .000008871 841.92 Z " fill-rule="evenodd"/>
</clipPath>
<g clip-path="url(#cp1040)">
<text xml:space="preserve" transform="matrix(1 0 -0 1 0 841.92)" font-size="14.04" font-family="Times New Roman"><tspan y="-772.56" x="85.104 92.166118 98.39987 102.962879 106.90812 112.31352 119.37564 125.9604 136.64485 142.87862 149.95479 155.45847 161.69223 168.65607 172.50302 179.56514 185.7989 192.3977 199.36154 206.32538 210.88838 217.9505 221.89574 228.95786 235.0793 242.14142 248.37519 254.84761 261.90974 268.97184 279.65629 286.71839 293.55586 300.61796 304.56318 310.79695 315.47227 322.07109 329.13319 335.36695 341.96577 348.9296 355.9917 366.78846 377.4729 384.535 391.5971 395.54234 402.60444 408.72587 412.5728 418.07649 421.92344 428.98554 436.04765 442.52009 446.4653 452.69908 459.6629 466.62675 473.68885 477.5358 484.49964 491.56175 495.50697 502.34443 508.5782 515.177 522.23916 528.3606 535.4227 539.2697 546.2336 552.35507">berish maqsadida ko&#x2018;pincha kompyuter va kommunikatsion texnologiya haqida </tspan></text>
</g>
<clipPath id="cp1041">
<path transform="matrix(1,0,0,-1,0,841.92)" d="M .000008871 0 L 595.32 0 L 595.32 841.92 L .000008871 841.92 Z " fill-rule="evenodd"/>
</clipPath>
<g clip-path="url(#cp1041)">
<text xml:space="preserve" transform="matrix(1 0 -0 1 0 841.92)" font-size="14.04" font-family="Times New Roman"><tspan y="-748.3" x="85.104 92.166118 98.28755 105.34967 109.294918 113.85792 117.80316 123.208568 130.27068 136.39212 143.35596 147.3012">gapirishadi.</tspan></text>
</g>
<clipPath id="cp1042">
<path transform="matrix(1,0,0,-1,0,841.92)" d="M .000008871 0 L 595.32 0 L 595.32 841.92 L .000008871 841.92 Z " fill-rule="evenodd"/>
</clipPath>
<g clip-path="url(#cp1042)">
<text xml:space="preserve" transform="matrix(1 0 -0 1 0 841.92)" font-size="14.04" font-family="Times New Roman"><tspan y="-748.3" x="150.86"> </tspan></text>
</g>
</g>
<g id="Layer-1" data-name="P">
<clipPath id="cp1043">
<path transform="matrix(1,0,0,-1,0,841.92)" d="M .000008871 0 L 595.32 0 L 595.32 841.92 L .000008871 841.92 Z " fill-rule="evenodd"/>
</clipPath>
<g clip-path="url(#cp1043)">
<text xml:space="preserve" transform="matrix(1 0 -0 1 0 841.92)" font-size="14.04" font-family="Times New Roman"><tspan y="-724.18" x="121.1 131.18071 138.24283 145.20667 152.26879 156.83179 163.8939 167.83914 174.42389 178.27085 184.50461 191.46845 198.43228 205.4944 209.34136 216.30519 223.36731 227.31255 234.15003 240.38379 245.90152 249.84676 256.31919 263.3813 267.94429 274.17805 278.12327 284.70805 291.77015 297.89158 304.95368 311.9175 318.9796 325.5644 331.68583 337.18949 344.15333 349.55873 353.50395 360.46778 367.1789 377.86335 384.92546 391.98756 395.93278 399.878 406.35044 413.31428 420.37638 424.93937 428.88459 435.9467 442.0681 449.13023 455.715 461.94877 468.9126 475.87644 482.84028 487.5156 494.59175 498.53697 505.0094 508.95463 512.8016 519.03536 522.9806 533.665 537.6102 543.844 548.5193 552.3663">Axborot texnologiyasi o&#x2018;zi uchun asosiy muhit bo&#x2018;lgan axborot tizimlari </tspan></text>
</g>
<clipPath id="cp1044">
<path transform="matrix(1,0,0,-1,0,841.92)" d="M .000008871 0 L 595.32 0 L 595.32 841.92 L .000008871 841.92 Z " fill-rule="evenodd"/>
</clipPath>
<g clip-path="url(#cp1044)">
<text xml:space="preserve" transform="matrix(1 0 -0 1 0 841.92)" font-size="14.04" font-family="Times New Roman"><tspan y="-700.06" x="85.104 92.166118 96.01308 99.95832 106.07976 113.14188 116.72208 123.68591 129.91968 136.88352 143.84735 149.35103 153.19799 157.14322 163.37699 166.88698 173.90699 180.92699 187.94699 192.53807 196.4833 200.33026 207.2941 214.35622 218.30146 222.97678 226.48677 230.05294 239.29126 246.2551 253.31722 260.28108 267.2449 271.19013 274.77033 280.89176 287.95387 294.9177 301.9798 306.5428 313.6049 317.5501 321.06013 324.86497 331.09873 338.06257 345.12467 352.0885 356.03373 362.99757 369.9614 373.90663 380.74409 386.97785 392.49555 396.44078 400.02098 406.1424 413.2045 420.16835 427.23045 431.79344 438.85554 442.80076 446.31077 450.21388 454.18717 460.3086 464.2538 474.93827 478.88349 485.11726 489.79258 493.75184 500.71568 506.94944 510.54368 521.2281 527.46188 534.538 538.385 545.44717 552.411">bilan bevosita bog&#x2018;liqdir. Chunki axborot texnologiyasi axborot tizimlarida mavjud </tspan></text>
</g>
<clipPath id="cp1045">
<path transform="matrix(1,0,0,-1,0,841.92)" d="M .000008871 0 L 595.32 0 L 595.32 841.92 L .000008871 841.92 Z " fill-rule="evenodd"/>
</clipPath>
<g clip-path="url(#cp1045)">
<text xml:space="preserve" transform="matrix(1 0 -0 1 0 841.92)" font-size="14.04" font-family="Times New Roman"><tspan y="-675.94" x="85.104 92.166118 99.22823 103.79124 107.6382 114.70032 120.821758 127.88387 133.62624 144.31069 150.65677 155.21977 159.16501 166.3535 177.03795 184.10007 188.0453 191.89226 198.12602 202.68903 208.43138 215.4935 220.8989 224.84413 228.69109 235.7532 241.98697 247.617 254.67913 260.91288 264.75984 270.9936 275.6689 279.51588 283.4611 289.58253 296.64463 300.49159 307.55369 313.6751 320.63896 326.38133 330.32655 337.38865 341.95164 345.89686 349.84208 355.4721 362.5342 366.38117 370.3264 376.06877 386.7532 393.8153 398.49064 404.7244 411.80055 418.76438 424.99815 431.96199 435.9072 439.75416 446.81626 453.7801 460.01387 466.9777 470.9229 476.66529 483.62913 490.69123 496.925 501.6003 507.7358 511.58277 517.0864 521.0317 527.8692 534.10299 538.0482 544.282 548.9573 552.3269">bo&#x2018;lgan ma&#x2019;lumotlar ustida bajariladigan turli xil murakkablikdagi operatsiyalar, </tspan></text>
</g>
<clipPath id="cp1046">
<path transform="matrix(1,0,0,-1,0,841.92)" d="M .000008871 0 L 595.32 0 L 595.32 841.92 L .000008871 841.92 Z " fill-rule="evenodd"/>
</clipPath>
<g clip-path="url(#cp1046)">
<text xml:space="preserve" transform="matrix(1 0 -0 1 0 841.92)" font-size="14.04" font-family="Times New Roman"><tspan y="-651.7" x="85.104 91.45007 102.134517 108.36827 112.313518 116.25876 122.492519 127.16784 130.53745 137.59957 143.83333 147.34333 153.43669 157.38193 164.34577 171.40789 175.97089 179.91613 183.86136 194.5458 198.49105 204.72481 209.40013 216.4763 220.42154 223.7771 230.83922 237.07299 240.91994 247.1537 251.7167 255.66194 261.06736 268.0312 275.0933 281.32707 288.4032 291.75877 295.70399 302.66783 309.72993 314.2929 320.52668 324.37364 327.88365 334.90364 341.9938 346.5568 350.40376 357.46586 363.69963 370.77577 374.13133 378.07655 384.3103 388.8733 392.8185 396.66548 403.6293 407.57453 413.8083 419.21369 426.17753 430.12275 434.06797 438.63096 442.4779 446.32487 453.38697 459.5084 466.5705 470.0805 473.88536 480.1191 484.79444 491.0282 497.8797 504.9418 512.0039 518.9678 522.913 527.5883">amallar va algoritmlarni bajarishdan iborat bo&#x2018;lgan tartiblashtirilgan jarayondir.</tspan></text>
</g>
<clipPath id="cp1047">
<path transform="matrix(1,0,0,-1,0,841.92)" d="M .000008871 0 L 595.32 0 L 595.32 841.92 L .000008871 841.92 Z " fill-rule="evenodd"/>
</clipPath>
<g clip-path="url(#cp1047)">
<text xml:space="preserve" transform="matrix(1 0 -0 1 0 841.92)" font-size="14.04" font-family="Times New Roman"><tspan y="-651.7" x="531.46"> </tspan></text>
</g>
</g>
<g id="Layer-1" data-name="P">
<clipPath id="cp1048">
<path transform="matrix(1,0,0,-1,0,841.92)" d="M .000008871 0 L 595.32 0 L 595.32 841.92 L .000008871 841.92 Z " fill-rule="evenodd"/>
</clipPath>
<g clip-path="url(#cp1048)">
<text xml:space="preserve" transform="matrix(1 0 -0 1 0 841.92)" font-size="14.04" font-family="Times New Roman"><tspan y="-627.58" x="112.1 121.464679 128.5268 133.93219 140.89603 147.95815 154.19191 160.31336">Boshqach</tspan></text>
</g>
<clipPath id="cp1049">
<path transform="matrix(1,0,0,-1,0,841.92)" d="M .000008871 0 L 595.32 0 L 595.32 841.92 L .000008871 841.92 Z " fill-rule="evenodd"/>
</clipPath>
<g clip-path="url(#cp1049)">
<text xml:space="preserve" transform="matrix(1 0 -0 1 0 841.92)" font-size="14.04" font-family="Times New Roman"><tspan y="-627.58" x="167.42 173.65377 182.28836 188.52213 195.37364 199.31888 206.381 212.50244 219.46628 226.5284 232.64984 241.2704">a aytganda a</tspan></text>
</g>
</g>
<g id="Layer-1" data-name="P">
<clipPath id="cp1050">
<path transform="matrix(1,0,0,-1,0,841.92)" d="M .000008871 0 L 595.32 0 L 595.32 841.92 L .000008871 841.92 Z " fill-rule="evenodd"/>
</clipPath>
<g clip-path="url(#cp1050)">
<text xml:space="preserve" transform="matrix(1 0 -0 1 0 841.92)" font-size="14.04" font-family="Times New Roman"><tspan y="-627.58" x="247.61 254.67212 261.63597 268.69807 273.26106 280.32316 284.26838 292.7766 296.72184 302.84327 309.90538 316.8692 323.83305 327.77827 334.7421 341.8042 345.74943 352.58689 358.82066 362.76588 368.99964 373.56263">&#x0445;b&#x043e;r&#x043e;t t&#x0435;&#x0445;n&#x043e;l&#x043e;giyal&#x0430;ri</tspan></text>
</g>
</g>
<g id="Layer-1" data-name="P">
<clipPath id="cp1051">
<path transform="matrix(1,0,0,-1,0,841.92)" d="M .000008871 0 L 595.32 0 L 595.32 841.92 L .000008871 841.92 Z " fill-rule="evenodd"/>
</clipPath>
<g clip-path="url(#cp1051)">
<text xml:space="preserve" transform="matrix(1 0 -0 1 0 841.92)" font-size="14.04" font-family="Times New Roman"><tspan y="-627.58" x="377.71"> </tspan></text>
</g>
</g>
<g id="Layer-1" data-name="P">
<clipPath id="cp1052">
<path transform="matrix(1,0,0,-1,0,841.92)" d="M .000008871 0 L 595.32 0 L 595.32 841.92 L .000008871 841.92 Z " fill-rule="evenodd"/>
</clipPath>
<g clip-path="url(#cp1052)">
<text xml:space="preserve" transform="matrix(1 0 -0 1 0 841.92)" font-size="14.04" font-family="Times New Roman"><tspan y="-627.58" x="386.35 393.31385 400.37596 404.93894 411.1727 418.24885 422.0958 429.05964 433.00486 439.9687 447.0308 455.65138 460.3267 466.44813 473.41197 480.47407 487.53617 492.09916 499.063 503.0082 511.62879 522.3132 528.54696 535.6231 541.1268">&#x043e;b&#x2019;&#x0435;ktning (&#x0430;&#x0445;b&#x043e;r&#x043e;t m&#x0430;hsu</tspan></text>
</g>
</g>
<g id="Layer-1" data-name="P">
<clipPath id="cp1053">
<path transform="matrix(1,0,0,-1,0,841.92)" d="M .000008871 0 L 595.32 0 L 595.32 841.92 L .000008871 841.92 Z " fill-rule="evenodd"/>
</clipPath>
<g clip-path="url(#cp1053)">
<text xml:space="preserve" transform="matrix(1 0 -0 1 0 841.92)" font-size="14.04" font-family="Times New Roman"><tspan y="-627.58" x="548.38">-</tspan></text>
</g>
<clipPath id="cp1054">
<path transform="matrix(1,0,0,-1,0,841.92)" d="M .000008871 0 L 595.32 0 L 595.32 841.92 L .000008871 841.92 Z " fill-rule="evenodd"/>
</clipPath>
<g clip-path="url(#cp1054)">
</g>
</g>
<g id="Layer-1" data-name="P">
<clipPath id="cp1055">
<path transform="matrix(1,0,0,-1,0,841.92)" d="M .000008871 0 L 595.32 0 L 595.32 841.92 L .000008871 841.92 Z " fill-rule="evenodd"/>
</clipPath>
<g clip-path="url(#cp1055)">
<text xml:space="preserve" transform="matrix(1 0 -0 1 0 841.92)" font-size="14.04" font-family="Times New Roman"><tspan y="-603.46" x="85.104 89.04924 96.01308 99.95832 103.80528 110.76912 114.71436 121.6782 128.74031 133.41564 138.09095 145.05478 152.1169 155.96385 162.19762 166.04457 169.9898 173.4998 178.133 181.97995 188.21372 192.88904 199.1228 206.1007 213.16281 220.22493 224.8862 231.72368 238.7858 245.84792 249.79315 254.45442 261.41828 268.3821 275.4442 281.67799 287.7994 294.8615 298.70848 305.6723 312.7344 317.3957 324.35954 330.5933 337.55714 344.61924 348.56446 353.22575 360.18959 367.25169 372.65708 379.6209 385.12458 389.0698 395.90727 402.14103 406.08625 410.03147 414.69276 418.5397">l&#x043e;tining) h&#x043e;l&#x0430;ti, j&#x0430;r&#x0430;yon yoki v&#x043e;q&#x0435;&#x0430;ning yangi &#x0445;ususiyati to</tspan></text>
</g>
</g>
<g id="Layer-1" data-name="P">
<clipPath id="cp1056">
<path transform="matrix(1,0,0,-1,0,841.92)" d="M .000008871 0 L 595.32 0 L 595.32 841.92 L .000008871 841.92 Z " fill-rule="evenodd"/>
</clipPath>
<g clip-path="url(#cp1056)">
<text xml:space="preserve" transform="matrix(1 0 -0 1 0 841.92)" font-size="14.04" font-family="Times New Roman"><tspan y="-603.46" x="426.07">&#x2019;</tspan></text>
</g>
</g>
<g id="Layer-1" data-name="P">
<clipPath id="cp1057">
<path transform="matrix(1,0,0,-1,0,841.92)" d="M .000008871 0 L 595.32 0 L 595.32 841.92 L .000008871 841.92 Z " fill-rule="evenodd"/>
</clipPath>
<g clip-path="url(#cp1057)">
<text xml:space="preserve" transform="matrix(1 0 -0 1 0 841.92)" font-size="14.04" font-family="Times New Roman"><tspan y="-603.46" x="430.63">g</tspan></text>
</g>
</g>
<g id="Layer-1" data-name="P">
<clipPath id="cp1058">
<path transform="matrix(1,0,0,-1,0,841.92)" d="M .000008871 0 L 595.32 0 L 595.32 841.92 L .000008871 841.92 Z " fill-rule="evenodd"/>
</clipPath>
<g clip-path="url(#cp1058)">
<text xml:space="preserve" transform="matrix(1 0 -0 1 0 841.92)" font-size="14.04" font-family="Times New Roman"><tspan y="-603.46" x="437.71">&#x2019;</tspan></text>
</g>
</g>
<g id="Layer-1" data-name="P">
<clipPath id="cp1059">
<path transform="matrix(1,0,0,-1,0,841.92)" d="M .000008871 0 L 595.32 0 L 595.32 841.92 L .000008871 841.92 Z " fill-rule="evenodd"/>
</clipPath>
<g clip-path="url(#cp1059)">
<text xml:space="preserve" transform="matrix(1 0 -0 1 0 841.92)" font-size="14.04" font-family="Times New Roman"><tspan y="-603.46" x="442.3 446.9753 450.92054 456.32594 460.27116 467.235 473.46876 478.14408 484.37785 491.34169 498.40379 505.46589 510.02888 516.99276 520.938 525.5993 532.66146 536.5084 540.4537 545.8591 552.82296">risid&#x0430; &#x0430;&#x0445;b&#x043e;r&#x043e;t &#x043e;lish </tspan></text>
</g>
<clipPath id="cp1060">
<path transform="matrix(1,0,0,-1,0,841.92)" d="M .000008871 0 L 595.32 0 L 595.32 841.92 L .000008871 841.92 Z " fill-rule="evenodd"/>
</clipPath>
<g clip-path="url(#cp1060)">
</g>
</g>
<g id="Layer-1" data-name="P">
<clipPath id="cp1061">
<path transform="matrix(1,0,0,-1,0,841.92)" d="M .000008871 0 L 595.32 0 L 595.32 841.92 L .000008871 841.92 Z " fill-rule="evenodd"/>
</clipPath>
<g clip-path="url(#cp1061)">
<text xml:space="preserve" transform="matrix(1 0 -0 1 0 841.92)" font-size="14.04" font-family="Times New Roman"><tspan y="-579.34" x="85.104 92.166118 98.28755 105.34967 112.31351 119.375629 128.4876 139.17205 145.4058 149.96881 153.91405 161.10254 171.78699 178.8491 182.79434 186.73958 192.86103 197.53635 204.50019 208.44542 217.43102 224.2685 228.21373">uchun m&#x0430;&#x2019;lum&#x043e;tl&#x0430;rni yig</tspan></text>
</g>
</g>
<g id="Layer-1" data-name="P">
<clipPath id="cp1062">
<path transform="matrix(1,0,0,-1,0,841.92)" d="M .000008871 0 L 595.32 0 L 595.32 841.92 L .000008871 841.92 Z " fill-rule="evenodd"/>
</clipPath>
<g clip-path="url(#cp1062)">
<text xml:space="preserve" transform="matrix(1 0 -0 1 0 841.92)" font-size="14.04" font-family="Times New Roman"><tspan y="-579.34" x="235.49">&#x2019;</tspan></text>
</g>
</g>
<g id="Layer-1" data-name="P">
<clipPath id="cp1063">
<path transform="matrix(1,0,0,-1,0,841.92)" d="M .000008871 0 L 595.32 0 L 595.32 841.92 L .000008871 841.92 Z " fill-rule="evenodd"/>
</clipPath>
<g clip-path="url(#cp1063)">
<text xml:space="preserve" transform="matrix(1 0 -0 1 0 841.92)" font-size="14.04" font-family="Times New Roman"><tspan y="-579.34" x="240.05 243.99524 249.49892 256.56105 260.07106 269.02857 276.09068 282.32444 289.17594 293.12117 299.35493 308.3405 312.28575 317.69114 324.65498 328.6002 334.83396 340.23936 347.30146 356.28706 363.34916 369.58293 378.5685 385.53236 391.7661 397.99989 401.84684 405.6938 411.19746 418.25956 427.24516 434.20899 441.2711 446.67649 450.6217 454.56694 460.68836 464.63359 470.86735 475.43034 479.37556 488.36116 495.42326 501.657 510.6426 517.60647 523.1101 530.074 533.92098 537.8662 544.1 548.66299 552.50997">ish, q&#x0430;yt&#x0430; ishl&#x0430;sh v&#x0430; uz&#x0430;tish v&#x043e;sit&#x0430;l&#x0430;ri v&#x0430; usull&#x0430;ri </tspan></text>
</g>
<clipPath id="cp1064">
<path transform="matrix(1,0,0,-1,0,841.92)" d="M .000008871 0 L 595.32 0 L 595.32 841.92 L .000008871 841.92 Z " fill-rule="evenodd"/>
</clipPath>
<g clip-path="url(#cp1064)">
</g>
</g>
<g id="Layer-1" data-name="P">
<clipPath id="cp1065">
<path transform="matrix(1,0,0,-1,0,841.92)" d="M .000008871 0 L 595.32 0 L 595.32 841.92 L .000008871 841.92 Z " fill-rule="evenodd"/>
</clipPath>
<g clip-path="url(#cp1065)">
<text xml:space="preserve" transform="matrix(1 0 -0 1 0 841.92)" font-size="14.04" font-family="Times New Roman"><tspan y="-555.07" x="85.104 95.90076 102.134517 106.07976 116.7642 123.82632 127.77156 134.83368 141.06745 148.14362 155.33209 159.8951 166.95722 173.7947 180.85681 187.09058 191.03582 197.15726 204.1211 208.06633 212.01157 218.13301 225.09685 229.04209 236.00592 242.23969 249.31586">m&#x0430;jmuid&#x0430;n f&#x043e;yd&#x0430;l&#x0430;nil&#x0430;dig&#x0430;n </tspan></text>
</g>
</g>
<g id="Layer-1" data-name="P">
<clipPath id="cp1066">
<path transform="matrix(1,0,0,-1,0,841.92)" d="M .000008871 0 L 595.32 0 L 595.32 841.92 L .000008871 841.92 Z " fill-rule="evenodd"/>
</clipPath>
<g clip-path="url(#cp1066)">
<text xml:space="preserve" transform="matrix(1 0 -0 1 0 841.92)" font-size="14.04" font-family="Times New Roman"><tspan y="-555.07" x="256.73 260.57698 266.81074 271.48606 277.71983 284.57133 291.63343 298.59727 305.5611 309.50633 314.18165">j&#x0430;r&#x0430;yondir.</tspan></text>
</g>
</g>
<g id="Layer-1" data-name="P">
<clipPath id="cp1067">
<path transform="matrix(1,0,0,-1,0,841.92)" d="M .000008871 0 L 595.32 0 L 595.32 841.92 L .000008871 841.92 Z " fill-rule="evenodd"/>
</clipPath>
<g clip-path="url(#cp1067)">
<text xml:space="preserve" transform="matrix(1 0 -0 1 0 841.92)" font-size="14.04" font-family="Times New Roman,Bold" font-weight="bold"><tspan y="-555.07" x="317.71"> </tspan></text>
</g>
</g>
<g id="Layer-1" data-name="P">
<clipPath id="cp1068">
<path transform="matrix(1,0,0,-1,0,841.92)" d="M .000008871 0 L 595.32 0 L 595.32 841.92 L .000008871 841.92 Z " fill-rule="evenodd"/>
</clipPath>
<g clip-path="url(#cp1068)">
<text xml:space="preserve" transform="matrix(1 0 -0 1 0 841.92)" font-size="14.04" font-family="Times New Roman"><tspan y="-555.07" x="324.79">A</tspan></text>
</g>
</g>
<g id="Layer-1" data-name="P">
<clipPath id="cp1069">
<path transform="matrix(1,0,0,-1,0,841.92)" d="M .000008871 0 L 595.32 0 L 595.32 841.92 L .000008871 841.92 Z " fill-rule="evenodd"/>
</clipPath>
<g clip-path="url(#cp1069)">
<text xml:space="preserve" transform="matrix(1 0 -0 1 0 841.92)" font-size="14.04" font-family="Times New Roman"><tspan y="-555.07" x="334.87 341.9321 348.89595 355.95805 360.52104 367.58314 371.43009 375.3753 381.60908 386.17207 393.23417 397.17939 404.36787 411.20533 415.15055">&#x0445;b&#x043e;r&#x043e;tl&#x0430;rni yig</tspan></text>
</g>
</g>
<g id="Layer-1" data-name="P">
<clipPath id="cp1070">
<path transform="matrix(1,0,0,-1,0,841.92)" d="M .000008871 0 L 595.32 0 L 595.32 841.92 L .000008871 841.92 Z " fill-rule="evenodd"/>
</clipPath>
<g clip-path="url(#cp1070)">
<text xml:space="preserve" transform="matrix(1 0 -0 1 0 841.92)" font-size="14.04" font-family="Times New Roman"><tspan y="-555.07" x="422.35">&#x2019;</tspan></text>
</g>
</g>
<g id="Layer-1" data-name="P">
<clipPath id="cp1071">
<path transform="matrix(1,0,0,-1,0,841.92)" d="M .000008871 0 L 595.32 0 L 595.32 841.92 L .000008871 841.92 Z " fill-rule="evenodd"/>
</clipPath>
<g clip-path="url(#cp1071)">
<text xml:space="preserve" transform="matrix(1 0 -0 1 0 841.92)" font-size="14.04" font-family="Times New Roman"><tspan y="-555.07" x="426.91 430.75697 436.26063 443.32273 446.67829 453.86677 460.92887 467.16264 473.28407 477.22929 481.07624 486.48164 493.54374 497.05375 504.21415 508.0611">ish, uz&#x0430;tish, to</tspan></text>
</g>
</g>
<g id="Layer-1" data-name="P">
<clipPath id="cp1072">
<path transform="matrix(1,0,0,-1,0,841.92)" d="M .000008871 0 L 595.32 0 L 595.32 841.92 L .000008871 841.92 Z " fill-rule="evenodd"/>
</clipPath>
<g clip-path="url(#cp1072)">
<text xml:space="preserve" transform="matrix(1 0 -0 1 0 841.92)" font-size="14.04" font-family="Times New Roman"><tspan y="-555.07" x="515.26">&#x2019;</tspan></text>
</g>
</g>
<g id="Layer-1" data-name="P">
<clipPath id="cp1073">
<path transform="matrix(1,0,0,-1,0,841.92)" d="M .000008871 0 L 595.32 0 L 595.32 841.92 L .000008871 841.92 Z " fill-rule="evenodd"/>
</clipPath>
<g clip-path="url(#cp1073)">
<text xml:space="preserve" transform="matrix(1 0 -0 1 0 841.92)" font-size="14.04" font-family="Times New Roman"><tspan y="-555.07" x="519.82 526.88217 530.8274 536.94888 542.4525 549.51467 552.87026">pl&#x0430;sh, </tspan></text>
</g>
<clipPath id="cp1074">
<path transform="matrix(1,0,0,-1,0,841.92)" d="M .000008871 0 L 595.32 0 L 595.32 841.92 L .000008871 841.92 Z " fill-rule="evenodd"/>
</clipPath>
<g clip-path="url(#cp1074)">
</g>
</g>
<g id="Layer-1" data-name="P">
<clipPath id="cp1075">
<path transform="matrix(1,0,0,-1,0,841.92)" d="M .000008871 0 L 595.32 0 L 595.32 841.92 L .000008871 841.92 Z " fill-rule="evenodd"/>
</clipPath>
<g clip-path="url(#cp1075)">
<text xml:space="preserve" transform="matrix(1 0 -0 1 0 841.92)" font-size="14.04" font-family="Times New Roman"><tspan y="-530.95" x="85.104 92.166118 98.39987 105.25139 109.19663 115.43039 119.867038 123.81228 129.21767 136.27979 140.12674 146.3605 151.7659 158.82802 162.33802 166.73253 172.2362 178.35765 185.41977 189.365 195.48645 200.89185 207.95397 211.46396 215.85848 219.80371 225.92516 232.98728 239.95111 243.89635 254.5808 259.0034 265.23716 269.18238 273.1276 278.63127 285.69337 290.11598 297.0798 303.31358 307.7502 312.42555 319.38938 326.22685 333.28895 339.5227 343.46794 349.7017 356.66554 360.61076 366.01615 373.07826 377.50086 384.4647 389.96836 393.8153 400.77915 407.84126 411.78648 417.9079 422.58323 426.52845 430.95106 437.9149 444.14866 448.5853 455.6474 461.0528 468.1149 471.96186 475.90708 482.14085 486.70384 490.64906 495.07167 498.9186 502.86384 509.0976 513.04287 523.72726 527.6725 532.0951 539.1572 545.2787 552.24258">q&#x0430;yt&#x0430; ishl&#x0430;sh, s&#x0430;ql&#x0430;sh, t&#x0430;qdim etish v&#x0430; f&#x043e;yd&#x0430;l&#x0430;nish uslubl&#x0430;ri v&#x0430; usull&#x0430;ri tizimi d&#x0435;b </tspan></text>
</g>
<clipPath id="cp1076">
<path transform="matrix(1,0,0,-1,0,841.92)" d="M .000008871 0 L 595.32 0 L 595.32 841.92 L .000008871 841.92 Z " fill-rule="evenodd"/>
</clipPath>
<g clip-path="url(#cp1076)">
</g>
</g>
<g id="Layer-1" data-name="P">
<clipPath id="cp1077">
<path transform="matrix(1,0,0,-1,0,841.92)" d="M .000008871 0 L 595.32 0 L 595.32 841.92 L .000008871 841.92 Z " fill-rule="evenodd"/>
</clipPath>
<g clip-path="url(#cp1077)">
<text xml:space="preserve" transform="matrix(1 0 -0 1 0 841.92)" font-size="14.04" font-family="Times New Roman"><tspan y="-506.83" x="85.104 91.941478 99.00359 103.67892 107.62416 111.569408 115.41637 119.36161 125.48305 132.54517 136.4904 140.0004">yuritil&#x0430;di. </tspan></text>
</g>
</g>
<g id="Layer-1" data-name="P">
<clipPath id="cp1078">
<path transform="matrix(1,0,0,-1,0,841.92)" d="M .000008871 0 L 595.32 0 L 595.32 841.92 L .000008871 841.92 Z " fill-rule="evenodd"/>
</clipPath>
<g clip-path="url(#cp1078)">
<text xml:space="preserve" transform="matrix(1 0 -0 1 0 841.92)" font-size="14.04" font-family="Times New Roman"><tspan y="-506.83" x="143.42"> </tspan></text>
</g>
<clipPath id="cp1079">
<path transform="matrix(1,0,0,-1,0,841.92)" d="M .000008871 0 L 595.32 0 L 595.32 841.92 L .000008871 841.92 Z " fill-rule="evenodd"/>
</clipPath>
<g clip-path="url(#cp1079)">
</g>
</g>
<g id="Layer-1" data-name="P">
<clipPath id="cp1080">
<path transform="matrix(1,0,0,-1,0,841.92)" d="M .000008871 0 L 595.32 0 L 595.32 841.92 L .000008871 841.92 Z " fill-rule="evenodd"/>
</clipPath>
<g clip-path="url(#cp1080)">
<text xml:space="preserve" transform="matrix(1 0 -0 1 0 841.92)" font-size="14.04" font-family="Times New Roman"><tspan y="-482.71" x="121.1 131.18071 138.24283 145.20667 152.26879 156.83179 163.8939 167.83914 171.1947 175.13994 181.3737 188.33754 195.30138 202.3635 206.21045 213.17429 220.2364 224.18164 231.01912 237.25289 241.09984 247.3336 252.00893 255.96822 259.4782 266.41398 270.3592 275.03453 278.4041 285.46623 291.69999 297.8214 304.8835 311.11729 314.6273 318.44618 325.50828 330.07127 334.01649 340.25025 344.81324 351.87535 358.1091 361.4787 368.5408 375.6029 380.1659 384.01286 387.95808 394.9219 401.15568 408.1195 412.06474">Axborot texnologiyalari bir necha turlarga bo&#x2018;linadi:</tspan></text>
</g>
<clipPath id="cp1081">
<path transform="matrix(1,0,0,-1,0,841.92)" d="M .000008871 0 L 595.32 0 L 595.32 841.92 L .000008871 841.92 Z " fill-rule="evenodd"/>
</clipPath>
<g clip-path="url(#cp1081)">
<text xml:space="preserve" transform="matrix(1 0 -0 1 0 841.92)" font-size="14.04" font-family="Times New Roman"><tspan y="-482.71" x="416.23"> </tspan></text>
</g>
</g>
<g id="Layer-1" data-name="P">
<clipPath id="cp1082">
<path transform="matrix(1,0,0,-1,0,841.92)" d="M .000008871 0 L 595.32 0 L 595.32 841.92 L .000008871 841.92 Z " fill-rule="evenodd"/>
</clipPath>
<g clip-path="url(#cp1082)">
<text xml:space="preserve" transform="matrix(1 0 -0 1 0 841.92)" font-size="14.04" font-family="Times New Roman"><tspan y="-458.47" x="121.1 128.16211 131.6721 139.42218 151.90375 158.13751 162.70052 166.64575 173.70787 184.39232 191.45444 195.39968 199.24663 205.4804 210.15572 217.1336 223.36737 231.15956 235.00652 240.41191 247.47403 251.32099 258.28483 265.34693 273.13914 280.20124 286.32267 290.998 297.96183 305.02394 311.14537 318.20747 322.15269 329.81855 336.0523 343.01615 350.07826 357.04209 361.60508 368.66719 372.6124">1. Ma&#x2019;lumotlarga ishlov beruvchi axborot </tspan></text>
</g>
<clipPath id="cp1083">
<path transform="matrix(1,0,0,-1,0,841.92)" d="M .000008871 0 L 595.32 0 L 595.32 841.92 L .000008871 841.92 Z " fill-rule="evenodd"/>
</clipPath>
<g clip-path="url(#cp1083)">
<text xml:space="preserve" transform="matrix(1 0 -0 1 0 841.92)" font-size="14.04" font-family="Times New Roman"><tspan y="-458.47" x="380.59 384.53523 390.65666 397.71876 404.6826 411.64643 415.59165 422.55549 429.61759 433.5628 440.40028 446.63404 450.57926 456.81303 461.376 465.32124 468.83125 476.469 486.5497 490.49494 496.7287 501.40403 509.19624 519.8806 526.2267 530.7897 534.7349 541.9234 552.72018">texnologiyalari. Ular ma&#x2019;lum </tspan></text>
</g>
<clipPath id="cp1084">
<path transform="matrix(1,0,0,-1,0,841.92)" d="M .000008871 0 L 595.32 0 L 595.32 841.92 L .000008871 841.92 Z " fill-rule="evenodd"/>
</clipPath>
<g clip-path="url(#cp1084)">
<text xml:space="preserve" transform="matrix(1 0 -0 1 0 841.92)" font-size="14.04" font-family="Times New Roman"><tspan y="-434.35" x="85.104 91.33775 95.283 102.24683 109.30895 113.871959 117.8172 121.76244 132.44689 136.39212 142.62589 147.30121 156.30084 163.26468 170.3268 174.8898 181.72728 185.67252 191.90628 198.98246 205.21622 214.20182 221.26393 228.22777 233.73145 240.69528 244.64052 250.76197 257.7258 264.7879 269.3509 273.2961 279.52989 286.60603 295.5916 306.27607 312.50984 317.0728 321.1444 328.2065 338.89097 345.95307 349.8983 353.8435 360.07728 364.64027 371.70237 377.93614 386.92173 390.76869 396.17408 403.23619 407.08314 414.04698 421.10908 430.09468 437.15678 443.2782 447.95353 455.02967 461.9935 468.22727 475.1911 479.13633 488.12193 498.80638 505.04014 510.55784 516.79159 520.7368 526.9706 530.81759 537.05136 541.7266 548.5782 552.4252">algoritmlar bo&#x2018;yicha boshlang&#x2019;ich ma&#x2019;lumotlarga ishlov beruvchi masalalarni </tspan></text>
</g>
<clipPath id="cp1085">
<path transform="matrix(1,0,0,-1,0,841.92)" d="M .000008871 0 L 595.32 0 L 595.32 841.92 L .000008871 841.92 Z " fill-rule="evenodd"/>
</clipPath>
<g clip-path="url(#cp1085)">
<text xml:space="preserve" transform="matrix(1 0 -0 1 0 841.92)" font-size="14.04" font-family="Times New Roman"><tspan y="-410.23" x="85.104 91.941478 98.17523 104.40899 111.485149 115.43039 120.83579 127.89791 134.96002 141.19379 147.79259 158.47704 165.53916 170.10216 174.0474 177.89435 184.12812 188.07335 192.01859 198.25235 205.21619 212.2783 218.39975 225.46187 228.97187 235.52854 248.0101 254.24387 259.74754 265.86897 269.81419 275.9356 282.9977 286.50773 293.06443 300.12654 306.3603 311.0356 317.63444 324.59828 328.5435 333.2188 339.8036 344.4789 348.42414 353.09947 363.7839 370.01768 377.0938 383.32759 389.9264 396.9885 401.55149 407.78526 411.73048 418.6943 422.63954 429.60337 436.66548 443.25025 450.31236 457.27619 464.24003 468.18525 478.8697 482.8149 489.04869 493.724 497.68327 504.26805 511.33015 517.5639 524.5278 528.37478 535.4369 541.67068 548.5222 552.3692">yechishga mo&#x2018;ljallangan. Masalan, har bir firmada o&#x2018;zining xodimlari haqidagi </tspan></text>
</g>
<clipPath id="cp1086">
<path transform="matrix(1,0,0,-1,0,841.92)" d="M .000008871 0 L 595.32 0 L 595.32 841.92 L .000008871 841.92 Z " fill-rule="evenodd"/>
</clipPath>
<g clip-path="url(#cp1086)">
<text xml:space="preserve" transform="matrix(1 0 -0 1 0 841.92)" font-size="14.04" font-family="Times New Roman"><tspan y="-386.09" x="85.104 91.33775 98.30159 105.36371 112.42583 116.98883 123.95267 127.89791 134.96002 141.19379 144.56339 148.50862 153.91402 160.87786 164.82309 171.78693 178.84905 182.2046 189.26673 195.50049 200.06349 207.02733 214.08945 220.21089 227.27301 231.21825 234.72824 240.82161 247.88373 254.84757 261.90968 266.47267 273.4365 277.3817 280.89173 284.79484 290.94438 298.00648 304.9703 311.93415 315.87937 322.8432 329.9053 333.85054 340.688 346.92176 352.43946 356.38468 359.89469 365.98805 369.835 376.8971 383.13087 386.9778 390.92304 397.1568 400.5264 407.5885 414.6506 419.2136 423.06056 427.00578 432.41117 439.47328 443.32023 446.83024 453.85023 460.08399 464.7593 470.92289 477.985">axborotga ishlov beruvchi axborot texnologiyasi albatta bo&#x2018;lishi kerak.</tspan></text>
</g>
<clipPath id="cp1087">
<path transform="matrix(1,0,0,-1,0,841.92)" d="M .000008871 0 L 595.32 0 L 595.32 841.92 L .000008871 841.92 Z " fill-rule="evenodd"/>
</clipPath>
<g clip-path="url(#cp1087)">
<text xml:space="preserve" transform="matrix(1 0 -0 1 0 841.92)" font-size="14.04" font-family="Times New Roman"><tspan y="-386.09" x="481.78"> </tspan></text>
</g>
</g>
<g id="Layer-1" data-name="P">
<clipPath id="cp1088">
<path transform="matrix(1,0,0,-1,0,841.92)" d="M .000008871 0 L 595.32 0 L 595.32 841.92 L .000008871 841.92 Z " fill-rule="evenodd"/>
</clipPath>
<g clip-path="url(#cp1088)">
<text xml:space="preserve" transform="matrix(1 0 -0 1 0 841.92)" font-size="14.04" font-family="Times New Roman"><tspan y="-361.97" x="121.1">2</tspan></text>
</g>
<clipPath id="cp1089">
<path transform="matrix(1,0,0,-1,0,841.92)" d="M .000008871 0 L 595.32 0 L 595.32 841.92 L .000008871 841.92 Z " fill-rule="evenodd"/>
</clipPath>
<g clip-path="url(#cp1089)">
<text xml:space="preserve" transform="matrix(1 0 -0 1 0 841.92)" font-size="14.04" font-family="Times New Roman"><tspan y="-361.97" x="128.18 131.68999 137.7693 147.13399 154.08379 159.58747 166.5513 173.61342 179.84719 184.41019 188.25714 193.76082 200.72466 207.68849 211.63373 218.59757 225.65969 231.76708 237.88852 244.95064 251.91448 258.9766 263.53959 270.60169 274.5469 280.52796 284.47319 290.5946 297.6567 304.62055 311.58439 315.5296 322.49345 329.45729 333.4025 340.23997 346.47373 350.41896 356.6527 361.32804 365.2873 368.7973 374.87663 384.95735 388.90257 395.13633 399.6993 406.7614 410.60838 417.5722 424.6343 430.74174 441.42619 447.65995 454.73609 460.23976 466.4735 473.43736 477.2843 483.39173 487.33695 492.74235 499.80445 505.91188 510.5872 516.7086 523.77078 527.61776 531.563 538.4005 544.6343 548.5795 552.4265">. Boshqarishning axborot texnologiyalari. Ularning maqsadi ish faoliyati </tspan></text>
</g>
<clipPath id="cp1090">
<path transform="matrix(1,0,0,-1,0,841.92)" d="M .000008871 0 L 595.32 0 L 595.32 841.92 L .000008871 841.92 Z " fill-rule="evenodd"/>
</clipPath>
<g clip-path="url(#cp1090)">
<text xml:space="preserve" transform="matrix(1 0 -0 1 0 841.92)" font-size="14.04" font-family="Times New Roman"><tspan y="-337.73" x="85.104 92.166118 98.39987 102.962879 110.024997 114.70032 120.6954 127.65923 133.89299 140.85683 147.82067 151.7659 157.74694 164.71077 168.656 172.50296 176.4482 181.85359 188.91571 194.78443 201.84654 205.6935 209.63874 215.8725 222.94867 228.81739 235.78122 242.84334 249.90546 254.46846 258.31544 262.26066 269.32276 275.1915 282.15534 289.21745 293.78044 297.72566 304.78776 310.90919 317.97129 323.95234 327.7993 334.8614 340.26679 347.23063 354.29273 358.23796 364.35939 369.0347 375.99855 379.94377 386.9076 393.9697 399.95075 406.07218 413.036 420.0981 427.16023 431.7232 438.68705 442.63227 449.5961 455.82987 461.82496 468.88706 475.94917 480.51216 484.3591 491.4212 497.54264 504.60475 510.5858 514.531 520.65249 524.5977 530.7192 537.68307 541.6283 548.4658 552.3128">qaror qabul qilish bilan bog&#x2018;liq bo&#x2018;lgan insonlarning axborotga bo&#x2018;lgan talabini </tspan></text>
</g>
<clipPath id="cp1091">
<path transform="matrix(1,0,0,-1,0,841.92)" d="M .000008871 0 L 595.32 0 L 595.32 841.92 L .000008871 841.92 Z " fill-rule="evenodd"/>
</clipPath>
<g clip-path="url(#cp1091)">
<text xml:space="preserve" transform="matrix(1 0 -0 1 0 841.92)" font-size="14.04" font-family="Times New Roman"><tspan y="-313.61" x="85.104 92.166118 99.12995 106.09379 113.15591 117.10115 121.664157 125.511119 131.01479 137.97863 145.04074 151.16219 158.2243 167.68726 171.53421 178.59633 185.65845 190.22145 196.45522 200.40045 203.75601 213.21897 222.58365 229.64577 235.05117 242.11328 249.07712 255.31089 259.9862 263.83317 269.23857 276.30067 283.2645 287.11146 294.17356 301.23567 310.69865 316.82008 323.7839 330.846 337.9081 342.4711 349.43495 353.38017 362.84315 366.6901 370.6353 376.86909 380.8143 391.49876 395.44398 401.67774 406.35307 410.31233 419.7753 423.62226 429.85603 435.2614 442.22526 449.28736 453.1343 457.07954 464.04338 467.89033 474.95243 478.79939 485.7632 492.82533 502.2883 509.3504 513.9134 517.85867 528.543 532.4883 537.99197 545.0541 548.9993 552.3549">qondirishdan iborat. Boshqarishning axborot tizimlari tashkilotning o&#x2018;tmishi, </tspan></text>
</g>
<clipPath id="cp1092">
<path transform="matrix(1,0,0,-1,0,841.92)" d="M .000008871 0 L 595.32 0 L 595.32 841.92 L .000008871 841.92 Z " fill-rule="evenodd"/>
</clipPath>
<g clip-path="url(#cp1092)">
<text xml:space="preserve" transform="matrix(1 0 -0 1 0 841.92)" font-size="14.04" font-family="Times New Roman"><tspan y="-289.49" x="85.104 92.166118 99.12995 105.36371 109.30895 113.871959 120.83579 124.78104 128.29103 135.22679 142.28891 146.23415 152.35559 156.20255 160.14778 163.65778 170.67778 176.91155 180.30922 187.37134 193.49279 197.43802 203.67179 207.51874">hozirgi holati va kelaja</tspan></text>
</g>
<clipPath id="cp1093">
<path transform="matrix(1,0,0,-1,0,841.92)" d="M .000008871 0 L 595.32 0 L 595.32 841.92 L .000008871 841.92 Z " fill-rule="evenodd"/>
</clipPath>
<g clip-path="url(#cp1093)">
<text xml:space="preserve" transform="matrix(1 0 -0 1 0 841.92)" font-size="14.04" font-family="Times New Roman"><tspan y="-289.49" x="213.89 220.95212 224.89736 228.25292 235.31504 241.43648 248.4986 252.34555 259.40766 265.52909 272.49293 276.43815 279.94816 286.18193 293.11769 300.0815 307.14363 311.81895 318.78279 322.62974 329.59358 333.5388 337.0488 344.0688 350.30256 361.01509 364.5251 371.54508 376.13618 382.36994 385.87995 389.78306 396.0168 403.12104 406.968 414.0301 420.26387 423.63346 430.69557 434.64079 440.7622 447.72605 451.573">gi haqidagi axborotni ham o&#x2018;z ichiga oladi.</tspan></text>
</g>
<clipPath id="cp1094">
<path transform="matrix(1,0,0,-1,0,841.92)" d="M .000008871 0 L 595.32 0 L 595.32 841.92 L .000008871 841.92 Z " fill-rule="evenodd"/>
</clipPath>
<g clip-path="url(#cp1094)">
<text xml:space="preserve" transform="matrix(1 0 -0 1 0 841.92)" font-size="14.04" font-family="Times New Roman"><tspan y="-289.49" x="455.26"> </tspan></text>
</g>
</g>
<g id="Layer-1" data-name="P">
<clipPath id="cp1095">
<path transform="matrix(1,0,0,-1,0,841.92)" d="M .000008871 0 L 595.32 0 L 595.32 841.92 L .000008871 841.92 Z " fill-rule="evenodd"/>
</clipPath>
<g clip-path="url(#cp1095)">
<text xml:space="preserve" transform="matrix(1 0 -0 1 0 841.92)" font-size="14.04" font-family="Times New Roman"><tspan y="-265.37" x="121.1 128.16211 131.6721 135.12593 145.20665 149.88198 153.82721 159.33089 162.84088 167.37581 171.22277 178.28488 185.347 189.91 196.14377 200.81909 207.79698 211.64394 218.70606 225.76818 229.27817 235.37154 242.33538 249.39749 256.4596 261.02259 267.98643 271.93165 275.44166 279.34477 285.4943 292.45814 299.52024 306.48408 310.33103 317.39314 324.35697 328.3022 335.13966 341.3734 346.8911 350.83634">3. Ofis (idora)ning axborot texnologiyasi.</tspan></text>
</g>
<clipPath id="cp1096">
<path transform="matrix(1,0,0,-1,0,841.92)" d="M .000008871 0 L 595.32 0 L 595.32 841.92 L .000008871 841.92 Z " fill-rule="evenodd"/>
</clipPath>
<g clip-path="url(#cp1096)">
<text xml:space="preserve" transform="matrix(1 0 -0 1 0 841.92)" font-size="14.04" font-family="Times New Roman"><tspan y="-265.37" x="354.43"> </tspan></text>
</g>
</g>
<g id="Layer-1" data-name="P">
<clipPath id="cp1097">
<path transform="matrix(1,0,0,-1,0,841.92)" d="M .000008871 0 L 595.32 0 L 595.32 841.92 L .000008871 841.92 Z " fill-rule="evenodd"/>
</clipPath>
<g clip-path="url(#cp1097)">
<text xml:space="preserve" transform="matrix(1 0 -0 1 0 841.92)" font-size="14.04" font-family="Times New Roman"><tspan y="-241.13" x="121.1 131.18071 138.24283 142.08979 149.1519 159.83635 166.07012 170.01535 173.96059 180.19435 185.59975 192.66187 196.50882 200.45406 205.01706 208.9623 212.80925 219.87137 225.99282 233.05493 240.24341 247.30553 251.98085 255.8278 261.23323 268.29533 272.14228 279.1061 286.1682 293.46903 299.7028 305.93656 316.63505 323.69715 330.75926 336.993 343.95686 347.90208 354.73954 362.1667 368.40046 375.3643 382.4264 389.4885 394.05149 401.01533 404.96055 412.26136 416.20658 422.328 429.29185 436.35395 443.31779 447.263 454.22685 461.19068 465.1359 471.97337 478.20713 482.15235 488.3861 493.06144 497.0207 504.3215 508.16847 514.4022 519.8076 526.86978 533.8336 537.6806 541.62588 548.5897 552.4367">Avtomatlashtirilgan ofisning zamonaviy axborot texnologiyalari tashkilot </tspan></text>
</g>
<clipPath id="cp1098">
<path transform="matrix(1,0,0,-1,0,841.92)" d="M .000008871 0 L 595.32 0 L 595.32 841.92 L .000008871 841.92 Z " fill-rule="evenodd"/>
</clipPath>
<g clip-path="url(#cp1098)">
<text xml:space="preserve" transform="matrix(1 0 -0 1 0 841.92)" font-size="14.04" font-family="Times New Roman"><tspan y="-216.98" x="85.104 89.04924 95.283 102.24683 106.093799 113.155918 119.27735 126.33947 130.2847 134.46862 141.53073 147.7645 152.07477 155.92173 162.15549 167.56089 174.52472 181.58684 185.53208 189.84235 200.5268 207.58892 214.65103 218.49799 222.44322 226.7535 233.71733 237.56429 241.50952 247.74329 254.81946 259.0034 265.96723 273.02934 283.82609 294.51054 301.57264 308.63475 312.57997 319.64207 325.7635 329.61045 335.1141 338.96107 345.9249 352.987 357.2973 361.14427 367.37803 372.05335 378.2871 385.1386 392.2007 399.26283 403.20805 409.32948 414.0048 420.96864 424.91386 429.22416 436.188 443.15184 453.83628 461.02476 467.8622 474.92433 478.86955 485.1033 489.77864 494.08894 498.03416 504.2679 508.94325 519.6276 526.68978 533.7519 537.69717 543.8186 548.4939 552.3409">ichidagi va tashqi muhit bilan kommunikatsion jarayonlarni kompyuter tarmoqlari </tspan></text>
</g>
<clipPath id="cp1099">
<path transform="matrix(1,0,0,-1,0,841.92)" d="M .000008871 0 L 595.32 0 L 595.32 841.92 L .000008871 841.92 Z " fill-rule="evenodd"/>
</clipPath>
<g clip-path="url(#cp1099)">
<text xml:space="preserve" transform="matrix(1 0 -0 1 0 841.92)" font-size="14.04" font-family="Times New Roman"><tspan y="-192.86" x="85.104 92.166118 98.39987 103.42619 109.54763 116.51147 123.573589 130.6357 135.1987 142.16254 146.10778 150.05301 156.17446 160.84978 165.8761 172.83994">va axborotlar bi</tspan></text>
</g>
<clipPath id="cp1100">
<path transform="matrix(1,0,0,-1,0,841.92)" d="M .000008871 0 L 595.32 0 L 595.32 841.92 L .000008871 841.92 Z " fill-rule="evenodd"/>
</clipPath>
<g clip-path="url(#cp1100)">
<text xml:space="preserve" transform="matrix(1 0 -0 1 0 841.92)" font-size="14.04" font-family="Times New Roman"><tspan y="-192.86" x="176.78 180.72524 186.959 193.92284 198.94916 202.79611 208.29979 215.26363 219.11058 226.1727 233.23482 239.35626 246.3201 250.26534 255.29166 262.2555 269.21934 274.723 281.68684 288.74894 294.9827 299.8967 306.13047 312.36424 323.17503 330.23713 337.20097 343.43473 350.39857 354.34379 361.18125 366.20759 373.26969 380.23353 385.73719 389.58415 393.52937 399.6508 403.596 409.82978 414.5051 419.54548 425.6669 431.0723 438.1344 443.5398 447.48503 454.54713 460.66856 465.6949 469.6401 475.76155 481.16694 488.22904 495.19288 499.03984 502.98506 508.01139 514.2451 518.0921 521.9391 527.44277 534.5049 539.40487 546.3687 552.4902">lan ishlovchi boshqa zamonaviy vositalar asosida tashkil etish va </tspan></text>
</g>
<clipPath id="cp1101">
<path transform="matrix(1,0,0,-1,0,841.92)" d="M .000008871 0 L 595.32 0 L 595.32 841.92 L .000008871 841.92 Z " fill-rule="evenodd"/>
</clipPath>
<g clip-path="url(#cp1101)">
<text xml:space="preserve" transform="matrix(1 0 -0 1 0 841.92)" font-size="14.04" font-family="Times New Roman"><tspan y="-168.74" x="85.104 92.166118 99.22823 103.79124 107.6382 111.58344 117.70488">qo&#x2018;llab</tspan></text>
</g>
<clipPath id="cp1102">
<path transform="matrix(1,0,0,-1,0,841.92)" d="M .000008871 0 L 595.32 0 L 595.32 841.92 L .000008871 841.92 Z " fill-rule="evenodd"/>
</clipPath>
<g clip-path="url(#cp1102)">
<text xml:space="preserve" transform="matrix(1 0 -0 1 0 841.92)" font-size="14.04" font-family="Times New Roman"><tspan y="-168.74" x="124.82">-</tspan></text>
</g>
<clipPath id="cp1103">
<path transform="matrix(1,0,0,-1,0,841.92)" d="M .000008871 0 L 595.32 0 L 595.32 841.92 L .000008871 841.92 Z " fill-rule="evenodd"/>
</clipPath>
<g clip-path="url(#cp1103)">
<text xml:space="preserve" transform="matrix(1 0 -0 1 0 841.92)" font-size="14.04" font-family="Times New Roman"><tspan y="-168.74" x="129.5 136.46384 143.42768 150.48979 157.45363 163.6874 167.53435 171.47959 177.71335 183.11875 190.08258 197.1447 203.26615 210.32826 214.98954 218.93477 225.8986 232.96073 237.63605 243.75749 247.70273 251.21273 255.97228 265.21058 272.27268 279.2365 283.08348 290.14558 297.1094 301.89707 308.8609 315.09468 322.0585 329.1206 336.08445 340.8721 351.55656 357.7903 364.86647 370.37013 377.33396 382.83763 387.4989 394.561 400.79478 406.20018 410.04713 417.10923 421.78456 425.72978 432.56724 437.3549 444.31874 451.38084 456.78623 460.73146 464.5784 470.81217 474.7574 480.8788 485.55415 490.22947 497.29158 503.52534 514.2097 518.9974 522.9426 528.4463 535.41018 539.3554 545.47689 552.44076">quvvatlashdan iborat. Buning uchun maxsus dasturiy vositalar ham ishlab </tspan></text>
</g>
<clipPath id="cp1104">
<path transform="matrix(1,0,0,-1,0,841.92)" d="M .000008871 0 L 595.32 0 L 595.32 841.92 L .000008871 841.92 Z " fill-rule="evenodd"/>
</clipPath>
<g clip-path="url(#cp1104)">
<text xml:space="preserve" transform="matrix(1 0 -0 1 0 841.92)" font-size="14.04" font-family="Times New Roman"><tspan y="-144.5" x="85.104 91.33775 98.41391 102.26087 109.22471 113.16995 117.016918 124.07903 130.20047 137.26259 140.77259 146.24819 156.3289 160.27414 166.5079 171.0709 178.13303 184.36679 191.44297 196.83432 203.89644 207.7434 212.41872 216.36396 221.86763 234.3492 238.29444 244.5282 249.0912 256.05506 261.55873 268.62083 273.1838 277.12904 282.63273 292.71345 297.38877 302.0641 306.02336 312.14479 318.37855 323.89628 330.95838 334.80534 341.76918 348.83128 354.33497 359.83863 363.78385 369.90528 376.8691 383.9312 390.16499 394.72798 398.6732 404.17689 411.23899 417.3604 422.86408 426.71104 433.77314 438.33613 442.18309 448.41685 453.09217 458.6099 465.672 471.90577 478.8696 485.10337 488.95033 492.89555 499.85939 503.8046 508.47993 511.98994 517.4655 527.54629 534.6084 538.4554 545.41928 552.3831">chiqilgan. Ulardan biri Microsoft Office ning standart dasturlar paketidir. Uning </tspan></text>
</g>
<clipPath id="cp1105">
<path transform="matrix(1,0,0,-1,0,841.92)" d="M .000008871 0 L 595.32 0 L 595.32 841.92 L .000008871 841.92 Z " fill-rule="evenodd"/>
</clipPath>
<g clip-path="url(#cp1105)">
<text xml:space="preserve" transform="matrix(1 0 -0 1 0 841.92)" font-size="14.04" font-family="Times New Roman"><tspan y="-120.38" x="85.104 89.04924 95.283 99.846 106.90812 110.75508 117.8172 121.66416 128.72628 134.96004 141.55884 154.0404 161.84665 168.54372 181.629 188.69112 193.36644 200.44261 207.02736 217.82413 224.05789 228.00313 235.06525 241.77637 248.83849 253.40149 260.36534 264.31056">tarkibiga MS Word matn prots</tspan></text>
</g>
<clipPath id="cp1106">
<path transform="matrix(1,0,0,-1,0,841.92)" d="M .000008871 0 L 595.32 0 L 595.32 841.92 L .000008871 841.92 Z " fill-rule="evenodd"/>
</clipPath>
<g clip-path="url(#cp1106)">
<text xml:space="preserve" transform="matrix(1 0 -0 1 0 841.92)" font-size="14.04" font-family="Times New Roman"><tspan y="-120.38" x="269.93 276.16377 281.56916 287.0728 294.03666 298.71199 302.6572 306.1672 312.8362 325.1914 332.99766 339.69474 348.217 355.2791 361.51289 367.74665 371.7059 378.41703 382.26399 388.3854 395.34925 402.41136 408.6451 412.59034 419.1751 426.2372 430.8002 437.8623 441.70927 447.11466 453.34843 458.86613 464.2715 471.33363 475.8966 479.84184 483.35185 490.02085 502.5024 510.30867 517.00576 524.6856 531.74777 541.8285 548.06228 552.62527">essori, MS Excel jadval protsessori, MS Power </tspan></text>
</g>
<clipPath id="cp1107">
<path transform="matrix(1,0,0,-1,0,841.92)" d="M .000008871 0 L 595.32 0 L 595.32 841.92 L .000008871 841.92 Z " fill-rule="evenodd"/>
</clipPath>
<g clip-path="url(#cp1107)">
<text xml:space="preserve" transform="matrix(1 0 -0 1 0 841.92)" font-size="14.04" font-family="Times New Roman"><tspan y="-96.264" x="85.104 92.91024 99.97236 103.81932 110.78316 114.7284 118.561328 122.50657 128.628 135.69013 142.65396 146.5992 157.28365 164.34577 168.291 172.12392 179.18604 185.30748 192.3696 199.33344 206.29727 210.13019 215.63387 219.5791 225.81287 232.66439 239.7265 243.67174 249.9055 254.58083 258.41374 262.26069 268.49446 275.45829 282.29576 289.35786 294.03318 297.9784 304.21217 309.61756 316.67967 320.51258 327.4764 333.71018 339.22789 343.07484 350.13694 354.69993 358.64515 362.15516 365.94596 378.42753 386.23377 390.05265 400.13337 406.36714 412.6009 418.83467 424.2541 429.75776 433.59068 444.38743 450.6212 455.18418 459.1294 466.1915 476.87596 483.93806 487.88328 491.8285 498.06227 502.73759 506.5705 513.53439 519.7681 526.0019 532.1374 537.64108 541.48806 548.5502 552.39718">Point taqdimot uchun slaydlar tayyorlash dasturi, MS Access ma&#x2019;lumotlar bazasini </tspan></text>
</g>
<clipPath id="cp1108">
<path transform="matrix(1,0,0,-1,0,841.92)" d="M .000008871 0 L 595.32 0 L 595.32 841.92 L .000008871 841.92 Z " fill-rule="evenodd"/>
</clipPath>
<g clip-path="url(#cp1108)">
<text xml:space="preserve" transform="matrix(1 0 -0 1 0 841.92)" font-size="14.04" font-family="Times New Roman"><tspan y="-72.144" x="85.104 92.166118 99.12995 104.535358 111.59747 118.65959 124.78103 129.45635 133.3033 138.80698 145.8691 149.94069 153.88593 157.73288 163.96665 167.91188 178.59633 182.54157 186.72548 193.7876 200.02136 204.21932 211.28144 218.24527 223.65067 230.71279 237.7749 243.89635 247.84159 254.07535 258.75068 262.8223 269.8844 273.82963 278.3926 284.62638 291.5902 295.53544 299.04545 303.2013 313.282 320.34413 326.46556 330.41078 335.0861 342.04994 345.99516 350.17909 357.1429 363.37669 370.22819 374.1734 381.2355 387.46928 391.66725 398.63108 405.69319 416.37763 423.5661 430.40357 437.46568 441.4109 447.53233 452.20765 456.15287 462.38664 467.06196 471.25993 478.22377 484.45753 491.42137 498.3852 505.4473 509.63124 516.5951 523.6572 528.2202 535.28237 539.2276 545.34909 552.3129">boshqarish tizimi va boshqalar kiradi. Hozirgi paytda kompyuterlar uchun ko&#x2018;plab </tspan></text>
</g>
</g>
</g>
</g>
</svg>
