<?xml version="1.0" encoding="UTF-8" standalone="no"?>
<!DOCTYPE svg PUBLIC "-//W3C//DTD SVG 1.1//EN" "http://www.w3.org/Graphics/SVG/1.1/DTD/svg11.dtd">
<svg xmlns="http://www.w3.org/2000/svg" xmlns:xlink="http://www.w3.org/1999/xlink" version="1.1" width="595.32pt" height="841.92pt" viewBox="0 0 595.32 841.92">
<g enable-background="new">
<g>
<g id="Layer-1" data-name="Artifact">
<clipPath id="cp23819">
<path transform="matrix(1,0,0,-1,0,841.92)" d="M .000008871 0 L 595.32 0 L 595.32 841.92 L .000008871 841.92 Z " fill-rule="evenodd"/>
</clipPath>
<g clip-path="url(#cp23819)">
<text xml:space="preserve" transform="matrix(1 0 -0 1 0 841.92)" font-size="11.04" font-family="Calibri"><tspan y="-51.864" x="314.09 319.72999 325.36997">149</tspan></text>
</g>
<clipPath id="cp23820">
<path transform="matrix(1,0,0,-1,0,841.92)" d="M .000008871 0 L 595.32 0 L 595.32 841.92 L .000008871 841.92 Z " fill-rule="evenodd"/>
</clipPath>
<g clip-path="url(#cp23820)">
<text xml:space="preserve" transform="matrix(1 0 -0 1 0 841.92)" font-size="11.04" font-family="Calibri"><tspan y="-51.864" x="331.03"> </tspan></text>
</g>
<clipPath id="cp23821">
<path transform="matrix(1,0,0,-1,0,841.92)" d="M .000008871 0 L 595.32 0 L 595.32 841.92 L .000008871 841.92 Z " fill-rule="evenodd"/>
</clipPath>
<g clip-path="url(#cp23821)">
</g>
<clipPath id="cp23822">
<path transform="matrix(1,0,0,-1,0,841.92)" d="M .000008871 0 L 595.32 0 L 595.32 841.92 L .000008871 841.92 Z " fill-rule="evenodd"/>
</clipPath>
<g clip-path="url(#cp23822)">
<text xml:space="preserve" transform="matrix(1 0 -0 1 0 841.92)" font-size="11.04" font-family="Calibri"><tspan y="-38.4" x="85.104"> </tspan></text>
</g>
<clipPath id="cp23823">
<path transform="matrix(1,0,0,-1,0,841.92)" d="M .000008871 0 L 595.32 0 L 595.32 841.92 L .000008871 841.92 Z " fill-rule="evenodd"/>
</clipPath>
<g clip-path="url(#cp23823)">
</g>
</g>
<g id="Layer-1" data-name="P">
<clipPath id="cp23824">
<path transform="matrix(1,0,0,-1,0,841.92)" d="M .000008871 0 L 595.32 0 L 595.32 841.92 L .000008871 841.92 Z " fill-rule="evenodd"/>
</clipPath>
<g clip-path="url(#cp23824)">
<text xml:space="preserve" transform="matrix(1 0 -0 1 0 841.92)" font-size="14.04" font-family="Times New Roman,BoldItalic" font-weight="bold" font-style="italic"><tspan y="-772.2" x="113.42 121.22624 125.171489 132.13532 138.36908 145.33292 149.27816 156.24199 161.74567 169.42555 173.37079 176.88079 183.81655 190.87866 195.55399 201.78775 209.48168 213.32863 218.8323 222.67926 228.18294 235.86283 239.37282 242.82665 250.63289 258.43913 263.92875 271.735 278.7971 282.15266 289.21476 293.0617 296.90867 302.41233 310.21858 313.72859 319.96235 326.98234 330.36598 337.42808 344.3919 350.62568 354.47264">Slaydlarni ko`chirish, nusha olish va qayta</tspan></text>
</g>
<clipPath id="cp23825">
<path transform="matrix(1,0,0,-1,0,841.92)" d="M .000008871 0 L 595.32 0 L 595.32 841.92 L .000008871 841.92 Z " fill-rule="evenodd"/>
</clipPath>
<g clip-path="url(#cp23825)">
<text xml:space="preserve" transform="matrix(1 0 -0 1 0 841.92)" font-size="14.04" font-family="Times New Roman,BoldItalic" font-weight="bold" font-style="italic"><tspan y="-772.2" x="361.75"> </tspan></text>
</g>
<clipPath id="cp23826">
<path transform="matrix(1,0,0,-1,0,841.92)" d="M .000008871 0 L 595.32 0 L 595.32 841.92 L .000008871 841.92 Z " fill-rule="evenodd"/>
</clipPath>
<g clip-path="url(#cp23826)">
<text xml:space="preserve" transform="matrix(1 0 -0 1 0 841.92)" font-size="14.04" font-family="Times New Roman,BoldItalic" font-weight="bold" font-style="italic"><tspan y="-772.2" x="365.23 369.07698 376.13908 383.1029 388.5083 395.5704 400.9758 404.92103 411.88487 417.38853">takrorlash</tspan></text>
</g>
<clipPath id="cp23827">
<path transform="matrix(1,0,0,-1,0,841.92)" d="M .000008871 0 L 595.32 0 L 595.32 841.92 L .000008871 841.92 Z " fill-rule="evenodd"/>
</clipPath>
<g clip-path="url(#cp23827)">
<text xml:space="preserve" transform="matrix(1 0 -0 1 0 841.92)" font-size="14.04" font-family="Times New Roman,BoldItalic" font-weight="bold" font-style="italic"><tspan y="-772.2" x="425.11"> </tspan></text>
</g>
</g>
<g id="Layer-1" data-name="P">
<clipPath id="cp23828">
<path transform="matrix(1,0,0,-1,0,841.92)" d="M .000008871 0 L 595.32 0 L 595.32 841.92 L .000008871 841.92 Z " fill-rule="evenodd"/>
</clipPath>
<g clip-path="url(#cp23828)">
<text xml:space="preserve" transform="matrix(1 0 -0 1 0 841.92)" font-size="14.04" font-family="Times New Roman"><tspan y="-748.3" x="113.42 123.50072 129.73448 134.4098 140.64357 144.60286 148.44982 152.39505 158.62882 165.48033 172.54245 176.3894 183.45153 189.57297 196.63509 200.14508 204.0482 210.19773 217.16156 224.22368 228.07064 238.75508 245.8172 249.76244 256.82456 263.05833 266.56834 272.02989 278.26365 282.96705 287.64237 291.01197 298.07408 301.92103 305.76799 309.7132 316.7753 322.89674 329.86058 333.8058 340.76963 346.89106 353.95317 357.46318 364.48316 370.6327 377.59654 381.54176 388.50559 392.4508">Yaratilayotgan taqdimotga sarf qilinadigan vaqtni:</tspan></text>
</g>
<clipPath id="cp23829">
<path transform="matrix(1,0,0,-1,0,841.92)" d="M .000008871 0 L 595.32 0 L 595.32 841.92 L .000008871 841.92 Z " fill-rule="evenodd"/>
</clipPath>
<g clip-path="url(#cp23829)">
<text xml:space="preserve" transform="matrix(1 0 -0 1 0 841.92)" font-size="14.04" font-family="Times New Roman"><tspan y="-748.3" x="396.67"> </tspan></text>
</g>
<clipPath id="cp23830">
<path transform="matrix(1,0,0,-1,0,841.92)" d="M .000008871 0 L 595.32 0 L 595.32 841.92 L .000008871 841.92 Z " fill-rule="evenodd"/>
</clipPath>
<g clip-path="url(#cp23830)">
<text xml:space="preserve" transform="matrix(1 0 -0 1 0 841.92)" font-size="14.04" font-family="Times New Roman"><tspan y="-748.3" x="400.03"> </tspan></text>
</g>
</g>
<g id="Layer-1" data-name="P">
<clipPath id="cp23831">
<path transform="matrix(1,0,0,-1,0,841.92)" d="M .000008871 0 L 595.32 0 L 595.32 841.92 L .000008871 841.92 Z " fill-rule="evenodd"/>
</clipPath>
<g clip-path="url(#cp23831)">
<text xml:space="preserve" transform="matrix(1 0 -0 1 0 841.92)" font-size="14.04" font-family="Times New Roman"><tspan y="-724.18" x="113.42">&#x2014;</tspan></text>
</g>
<clipPath id="cp23832">
<path transform="matrix(1,0,0,-1,0,841.92)" d="M .000008871 0 L 595.32 0 L 595.32 841.92 L .000008871 841.92 Z " fill-rule="evenodd"/>
</clipPath>
<g clip-path="url(#cp23832)">
<text xml:space="preserve" transform="matrix(1 0 -0 1 0 841.92)" font-size="14.04" font-family="Times New Roman"><tspan y="-724.18" x="127.46"> </tspan></text>
</g>
<clipPath id="cp23833">
<path transform="matrix(1,0,0,-1,0,841.92)" d="M .000008871 0 L 595.32 0 L 595.32 841.92 L .000008871 841.92 Z " fill-rule="evenodd"/>
</clipPath>
<g clip-path="url(#cp23833)">
<text xml:space="preserve" transform="matrix(1 0 -0 1 0 841.92)" font-size="14.04" font-family="Times New Roman"><tspan y="-724.18" x="130.94 134.88524 141.119 148.08284 154.92032 161.98244 166.65776 170.16776 175.62932 179.60265 185.83641 192.68793 199.75005 203.69528 209.81673 214.49205 221.45589 225.40113 228.91112 232.71596 238.94972 246.0259 250.5889 257.651 262.32633 266.17329 272.40705 277.81245 284.87455">tayyor slaydlarni takrorlash;</tspan></text>
</g>
<clipPath id="cp23834">
<path transform="matrix(1,0,0,-1,0,841.92)" d="M .000008871 0 L 595.32 0 L 595.32 841.92 L .000008871 841.92 Z " fill-rule="evenodd"/>
</clipPath>
<g clip-path="url(#cp23834)">
<text xml:space="preserve" transform="matrix(1 0 -0 1 0 841.92)" font-size="14.04" font-family="Times New Roman"><tspan y="-724.18" x="288.89"> </tspan></text>
</g>
</g>
<g id="Layer-1" data-name="P">
<clipPath id="cp23835">
<path transform="matrix(1,0,0,-1,0,841.92)" d="M .000008871 0 L 595.32 0 L 595.32 841.92 L .000008871 841.92 Z " fill-rule="evenodd"/>
</clipPath>
<g clip-path="url(#cp23835)">
<text xml:space="preserve" transform="matrix(1 0 -0 1 0 841.92)" font-size="14.04" font-family="Times New Roman"><tspan y="-700.06" x="113.42">&#x2014;</tspan></text>
</g>
<clipPath id="cp23836">
<path transform="matrix(1,0,0,-1,0,841.92)" d="M .000008871 0 L 595.32 0 L 595.32 841.92 L .000008871 841.92 Z " fill-rule="evenodd"/>
</clipPath>
<g clip-path="url(#cp23836)">
<text xml:space="preserve" transform="matrix(1 0 -0 1 0 841.92)" font-size="14.04" font-family="Times New Roman"><tspan y="-700.06" x="127.46"> </tspan></text>
</g>
<clipPath id="cp23837">
<path transform="matrix(1,0,0,-1,0,841.92)" d="M .000008871 0 L 595.32 0 L 595.32 841.92 L .000008871 841.92 Z " fill-rule="evenodd"/>
</clipPath>
<g clip-path="url(#cp23837)">
<text xml:space="preserve" transform="matrix(1 0 -0 1 0 841.92)" font-size="14.04" font-family="Times New Roman"><tspan y="-700.06" x="132.38 139.44213 146.40596 151.81136 158.87348 165.83731 172.07108 176.98508 180.93032 187.05176 194.11388 201.07772 205.02295 215.7074 222.76952 226.71475 233.67859 239.91236 244.82636 251.66384 257.89759 262.5729 268.80668 272.76594 276.71116 280.5581 287.6202 293.74165 300.80375 305.7037 311.20738 315.05433 321.2881 328.1396 335.2017 339.1469 345.38069 349.94367 357.00578 360.951 365.73866 372.80076 379.86286 384.42585 390.6596 397.62345 401.56867 406.13166 410.07688 415.48228 422.54438 427.44435 434.2818 441.3439 448.406 452.35124 457.1389 464.201 471.16484 476.6685 483.7306 489.96437 494.752 501.81413 505.66108 509.50804 515.0117 522.07388 526.8615 533.92367 538.48666 545.54879 551.78256 555.5032 559.35018">boshqa taqdimotga yaratilgan slaydlarni ko`chirish yoki nusxa olish orqali </tspan></text>
</g>
<clipPath id="cp23838">
<path transform="matrix(1,0,0,-1,0,841.92)" d="M .000008871 0 L 595.32 0 L 595.32 841.92 L .000008871 841.92 Z " fill-rule="evenodd"/>
</clipPath>
<g clip-path="url(#cp23838)">
<text xml:space="preserve" transform="matrix(1 0 -0 1 0 841.92)" font-size="14.04" font-family="Times New Roman"><tspan y="-675.94" x="85.104 89.04924 95.283 99.12996 105.363719 110.76912 117.83124 121.34124 131.9976 139.1861 149.87055 156.93267 160.8779 167.94002">tejash mumkin.</tspan></text>
</g>
<clipPath id="cp23839">
<path transform="matrix(1,0,0,-1,0,841.92)" d="M .000008871 0 L 595.32 0 L 595.32 841.92 L .000008871 841.92 Z " fill-rule="evenodd"/>
</clipPath>
<g clip-path="url(#cp23839)">
<text xml:space="preserve" transform="matrix(1 0 -0 1 0 841.92)" font-size="14.04" font-family="Times New Roman"><tspan y="-675.94" x="171.38"> </tspan></text>
</g>
</g>
<g id="Layer-1" data-name="P">
<clipPath id="cp23840">
<path transform="matrix(1,0,0,-1,0,841.92)" d="M .000008871 0 L 595.32 0 L 595.32 841.92 L .000008871 841.92 Z " fill-rule="evenodd"/>
</clipPath>
<g clip-path="url(#cp23840)">
<text xml:space="preserve" transform="matrix(1 0 -0 1 0 841.92)" font-size="14.04" font-family="Times New Roman,BoldItalic" font-weight="bold" font-style="italic"><tspan y="-651.46" x="113.42 122.784679 126.72992 132.2336 135.58916 139.5344 146.49823 153.46207 160.52419 164.24478 175.39255 182.35639 186.20334 193.16718 200.2293 203.58486 209.08853 212.93549 219.9976 226.11905 233.08289 237.02812 243.99196 249.49564 257.1755 261.12074 264.63075 271.5665 278.6286 284.86238 288.70933 295.77143 299.12699 303.0722 310.03605 317.09815 322.50355 329.46739 334.97105 338.818 345.78184 351.18724">Bir taqdimotda slaydlarni qayta takrorlash</tspan></text>
</g>
<clipPath id="cp23841">
<path transform="matrix(1,0,0,-1,0,841.92)" d="M .000008871 0 L 595.32 0 L 595.32 841.92 L .000008871 841.92 Z " fill-rule="evenodd"/>
</clipPath>
<g clip-path="url(#cp23841)">
<text xml:space="preserve" transform="matrix(1 0 -0 1 0 841.92)" font-size="14.04" font-family="Times New Roman,Bold" font-weight="bold"><tspan y="-651.46" x="359.23"> </tspan></text>
</g>
<clipPath id="cp23842">
<path transform="matrix(1,0,0,-1,0,841.92)" d="M .000008871 0 L 595.32 0 L 595.32 841.92 L .000008871 841.92 Z " fill-rule="evenodd"/>
</clipPath>
<g clip-path="url(#cp23842)">
<text xml:space="preserve" transform="matrix(1 0 -0 1 0 841.92)" font-size="14.04" font-family="Times New Roman,Bold" font-weight="bold"><tspan y="-651.46" x="362.71"> </tspan></text>
</g>
</g>
<g id="Layer-1" data-name="P">
<clipPath id="cp23843">
<path transform="matrix(1,0,0,-1,0,841.92)" d="M .000008871 0 L 595.32 0 L 595.32 841.92 L .000008871 841.92 Z " fill-rule="evenodd"/>
</clipPath>
<g clip-path="url(#cp23843)">
<text xml:space="preserve" transform="matrix(1 0 -0 1 0 841.92)" font-size="14.04" font-family="Times New Roman"><tspan y="-627.58" x="113.42 120.48212 123.99212 127.44596 137.52667 143.76044 150.61196 154.55719 160.79096 164.30095 168.20407 174.43784 181.54209 186.10509 193.1672 197.73021 201.67545 207.90921 214.87305 221.10681 228.07065 231.9176 238.97972 245.10117">1. Qayta takrorlanadigan</tspan></text>
</g>
<clipPath id="cp23844">
<path transform="matrix(1,0,0,-1,0,841.92)" d="M .000008871 0 L 595.32 0 L 595.32 841.92 L .000008871 841.92 Z " fill-rule="evenodd"/>
</clipPath>
<g clip-path="url(#cp23844)">
<text xml:space="preserve" transform="matrix(1 0 -0 1 0 841.92)" font-size="14.04" font-family="Times New Roman"><tspan y="-627.58" x="252.29"> </tspan></text>
</g>
<clipPath id="cp23845">
<path transform="matrix(1,0,0,-1,0,841.92)" d="M .000008871 0 L 595.32 0 L 595.32 841.92 L .000008871 841.92 Z " fill-rule="evenodd"/>
</clipPath>
<g clip-path="url(#cp23845)">
<text xml:space="preserve" transform="matrix(1 0 -0 1 0 841.92)" font-size="14.04" font-family="Times New Roman"><tspan y="-627.58" x="255.77 261.1754 265.12065 271.3544 278.2059 285.268 292.3301 296.27534 299.6309 306.693 312.81443 316.75965 323.72349 327.6687 331.51567 337.74943 344.71327 351.6771">slaydni belgilang.</tspan></text>
</g>
<clipPath id="cp23846">
<path transform="matrix(1,0,0,-1,0,841.92)" d="M .000008871 0 L 595.32 0 L 595.32 841.92 L .000008871 841.92 Z " fill-rule="evenodd"/>
</clipPath>
<g clip-path="url(#cp23846)">
<text xml:space="preserve" transform="matrix(1 0 -0 1 0 841.92)" font-size="14.04" font-family="Times New Roman"><tspan y="-627.58" x="355.27"> </tspan></text>
</g>
</g>
<g id="Layer-1" data-name="P">
<clipPath id="cp23847">
<path transform="matrix(1,0,0,-1,0,841.92)" d="M .000008871 0 L 595.32 0 L 595.32 841.92 L .000008871 841.92 Z " fill-rule="evenodd"/>
</clipPath>
<g clip-path="url(#cp23847)">
<text xml:space="preserve" transform="matrix(1 0 -0 1 0 841.92)" font-size="14.04" font-family="Times New Roman"><tspan y="-603.46" x="113.42 120.48212 123.99212 133.90436">2. &#x00ab;</tspan></text>
</g>
</g>
<g id="Layer-1" data-name="P">
<clipPath id="cp23848">
<path transform="matrix(1,0,0,-1,0,841.92)" d="M .000008871 0 L 595.32 0 L 595.32 841.92 L .000008871 841.92 Z " fill-rule="evenodd"/>
</clipPath>
<g clip-path="url(#cp23848)">
<text xml:space="preserve" transform="matrix(1 0 -0 1 0 841.92)" font-size="14.04" font-family="Times New Roman,Bold" font-weight="bold"><tspan y="-603.46" x="140.9 150.26468 156.49845 163.33592 170.39804 177.97965 185.99648">&#x0412;&#x0441;&#x0442;&#x0430;&#x0432;&#x043a;&#x0430;</tspan></text>
</g>
</g>
<g id="Layer-1" data-name="P">
<clipPath id="cp23849">
<path transform="matrix(1,0,0,-1,0,841.92)" d="M .000008871 0 L 595.32 0 L 595.32 841.92 L .000008871 841.92 Z " fill-rule="evenodd"/>
</clipPath>
<g clip-path="url(#cp23849)">
<text xml:space="preserve" transform="matrix(1 0 -0 1 0 841.92)" font-size="14.04" font-family="Times New Roman"><tspan y="-603.46" x="193.13"> </tspan></text>
</g>
</g>
<g id="Layer-1" data-name="P">
<clipPath id="cp23850">
<path transform="matrix(1,0,0,-1,0,841.92)" d="M .000008871 0 L 595.32 0 L 595.32 841.92 L .000008871 841.92 Z " fill-rule="evenodd"/>
</clipPath>
<g clip-path="url(#cp23850)">
<text xml:space="preserve" transform="matrix(1 0 -0 1 0 841.92)" font-size="14.04" font-family="Times New Roman"><tspan y="-603.46" x="196.61 203.57384 213.51415 218.18947 228.15787 235.1217 239.79703 246.64855 250.59378 256.09745 263.15956 267.83488 277.78926 288.4737 294.70747 301.7836 308.62107 315.68318 321.18684 325.13206 332.19416 338.31559 345.27943 349.12638 359.0667">&#x00bb; (Qo`yish) menyusidagi &#x00ab;</tspan></text>
</g>
</g>
<g id="Layer-1" data-name="P">
<clipPath id="cp23851">
<path transform="matrix(1,0,0,-1,0,841.92)" d="M .000008871 0 L 595.32 0 L 595.32 841.92 L .000008871 841.92 Z " fill-rule="evenodd"/>
</clipPath>
<g clip-path="url(#cp23851)">
<text xml:space="preserve" transform="matrix(1 0 -0 1 0 841.92)" font-size="14.04" font-family="Times New Roman,Bold" font-weight="bold"><tspan y="-603.46" x="366.19 375.79338 382.85548 389.91758 397.82209 405.867 413.54689 420.60899 428.05018 435.11228 441.94978">&#x0414;&#x0443;&#x0431;&#x043b;&#x0438;&#x0440;&#x043e;&#x0432;&#x0430;&#x0442;&#x044c;</tspan></text>
</g>
</g>
<g id="Layer-1" data-name="P">
<clipPath id="cp23852">
<path transform="matrix(1,0,0,-1,0,841.92)" d="M .000008871 0 L 595.32 0 L 595.32 841.92 L .000008871 841.92 Z " fill-rule="evenodd"/>
</clipPath>
<g clip-path="url(#cp23852)">
<text xml:space="preserve" transform="matrix(1 0 -0 1 0 841.92)" font-size="14.04" font-family="Times New Roman,Bold" font-weight="bold"><tspan y="-603.46" x="449.5"> </tspan></text>
</g>
</g>
<g id="Layer-1" data-name="P">
<clipPath id="cp23853">
<path transform="matrix(1,0,0,-1,0,841.92)" d="M .000008871 0 L 595.32 0 L 595.32 841.92 L .000008871 841.92 Z " fill-rule="evenodd"/>
</clipPath>
<g clip-path="url(#cp23853)">
<text xml:space="preserve" transform="matrix(1 0 -0 1 0 841.92)" font-size="14.04" font-family="Times New Roman,Bold" font-weight="bold"><tspan y="-603.46" x="459.46 465.58143 473.48594 480.54804 488.59297">&#x0441;&#x043b;&#x0430;&#x0439;&#x0434;</tspan></text>
</g>
</g>
<g id="Layer-1" data-name="P">
<clipPath id="cp23854">
<path transform="matrix(1,0,0,-1,0,841.92)" d="M .000008871 0 L 595.32 0 L 595.32 841.92 L .000008871 841.92 Z " fill-rule="evenodd"/>
</clipPath>
<g clip-path="url(#cp23854)">
<text xml:space="preserve" transform="matrix(1 0 -0 1 0 841.92)" font-size="14.04" font-family="Times New Roman"><tspan y="-603.46" x="495.7 502.66386 512.6042 517.2795 524.95938 528.9046 535.13839 541.9899 549.05209 556.1142 559.9612">&#x00bb; (Slaydni </tspan></text>
</g>
</g>
<g id="Layer-1" data-name="P">
<clipPath id="cp23855">
<path transform="matrix(1,0,0,-1,0,841.92)" d="M .000008871 0 L 595.32 0 L 595.32 841.92 L .000008871 841.92 Z " fill-rule="evenodd"/>
</clipPath>
<g clip-path="url(#cp23855)">
<text xml:space="preserve" transform="matrix(1 0 -0 1 0 841.92)" font-size="14.04" font-family="Times New Roman"><tspan y="-579.34" x="85.104 89.04924 95.283 102.24683 106.92216 113.998317 118.56132 122.50656 128.628 134.13169 141.09552 145.77085 149.28084 156.2166 163.27872 170.1162 174.79152 181.86769 188.92981 193.49282 197.43805 204.40189 208.34712 211.85712 215.76024 221.90976 228.97188 232.81884 239.0526 246.01644 253.07855">takrorlash) buyrug`ini tanlang.</tspan></text>
</g>
</g>
<g id="Layer-1" data-name="P">
<clipPath id="cp23856">
<path transform="matrix(1,0,0,-1,0,841.92)" d="M .000008871 0 L 595.32 0 L 595.32 841.92 L .000008871 841.92 Z " fill-rule="evenodd"/>
</clipPath>
<g clip-path="url(#cp23856)">
<text xml:space="preserve" transform="matrix(1 0 -0 1 0 841.92)" font-size="14.04" font-family="Times New Roman"><tspan y="-579.34" x="256.61"> </tspan></text>
</g>
</g>
<g id="Layer-1" data-name="P">
<clipPath id="cp23857">
<path transform="matrix(1,0,0,-1,0,841.92)" d="M .000008871 0 L 595.32 0 L 595.32 841.92 L .000008871 841.92 Z " fill-rule="evenodd"/>
</clipPath>
<g clip-path="url(#cp23857)">
<text xml:space="preserve" transform="matrix(1 0 -0 1 0 841.92)" font-size="14.04" font-family="Times New Roman,BoldItalic" font-weight="bold" font-style="italic"><tspan y="-554.71" x="113.42 122.784679 129.84679 135.25218 143.05843 150.00823 157.07035 160.58034 164.38518 171.34902 178.41114 185.37497 189.09557 200.24333 207.20717 211.05413 218.01796 225.08008 228.59008 233.95336 237.89859 244.96071 251.08216 258.046 261.9912 268.95506 274.4587 282.13859 286.0838 289.5938 296.52958 303.59169">Boshqa taqdimotga slaydlarni ko`</tspan></text>
</g>
<clipPath id="cp23858">
<path transform="matrix(1,0,0,-1,0,841.92)" d="M .000008871 0 L 595.32 0 L 595.32 841.92 L .000008871 841.92 Z " fill-rule="evenodd"/>
</clipPath>
<g clip-path="url(#cp23858)">
<text xml:space="preserve" transform="matrix(1 0 -0 1 0 841.92)" font-size="14.04" font-family="Times New Roman,BoldItalic" font-weight="bold" font-style="italic"><tspan y="-554.71" x="308.45 314.68379 322.49003 328.61146 334.01686 337.96208 343.46574">cherish</tspan></text>
</g>
<clipPath id="cp23859">
<path transform="matrix(1,0,0,-1,0,841.92)" d="M .000008871 0 L 595.32 0 L 595.32 841.92 L .000008871 841.92 Z " fill-rule="evenodd"/>
</clipPath>
<g clip-path="url(#cp23859)">
<text xml:space="preserve" transform="matrix(1 0 -0 1 0 841.92)" font-size="14.04" font-family="Times New Roman,BoldItalic" font-weight="bold" font-style="italic"><tspan y="-554.71" x="351.19"> </tspan></text>
</g>
</g>
<g id="Layer-1" data-name="P">
<clipPath id="cp23860">
<path transform="matrix(1,0,0,-1,0,841.92)" d="M .000008871 0 L 595.32 0 L 595.32 841.92 L .000008871 841.92 Z " fill-rule="evenodd"/>
</clipPath>
<g clip-path="url(#cp23860)">
<text xml:space="preserve" transform="matrix(1 0 -0 1 0 841.92)" font-size="14.04" font-family="Times New Roman"><tspan y="-530.95" x="113.42 120.48212 123.99212 130.18376 135.68744 142.74956 147.31256 151.2578 158.09528 164.31499 171.3771 177.72319 188.40764 195.46976 201.70352 207.93727 213.44095 217.38619 223.61995 230.47147 237.53359 243.7533 250.71714 257.77925 262.45457 268.576 275.6381 279.5833 284.1463 288.09153 291.93849 298.17225 305.02375 312.08586 316.03108 323.09318 329.2146 336.2767 342.49644 346.44166 352.56309 359.62519 366.58903 370.53425 381.2187 388.2808 392.226 396.17124 402.405 406.968 413.93183 417.87705 424.09678 431.15888 437.2803 444.3424 448.18937 452.13459 458.256 465.3181 469.16508 475.3848 482.4469 488.68067 494.91444 501.87828 509.6845 513.62979 519.8635 526.7151 533.7772 537.7225 543.95626 548.63156 555.4831 559.3301">1. Joriy hamda slayd ko`chirilayotgan taqdimotlarni ochiladi va &#x00ab;Slaydlarni </tspan></text>
</g>
<clipPath id="cp23861">
<path transform="matrix(1,0,0,-1,0,841.92)" d="M .000008871 0 L 595.32 0 L 595.32 841.92 L .000008871 841.92 Z " fill-rule="evenodd"/>
</clipPath>
<g clip-path="url(#cp23861)">
<text xml:space="preserve" transform="matrix(1 0 -0 1 0 841.92)" font-size="14.04" font-family="Times New Roman"><tspan y="-506.83" x="85.104 90.60768 96.84144 101.51676 107.65224 111.59748 117.71892 123.2226 130.28472 137.24855 140.75855 145.43387 151.66764 155.48651 159.43175 170.1162 174.06143 181.12355 187.35732 190.86731 197.80307 202.4784 206.32535">saralash&#x00bb; rejimiga o`ti</tspan></text>
</g>
<clipPath id="cp23862">
<path transform="matrix(1,0,0,-1,0,841.92)" d="M .000008871 0 L 595.32 0 L 595.32 841.92 L .000008871 841.92 Z " fill-rule="evenodd"/>
</clipPath>
<g clip-path="url(#cp23862)">
<text xml:space="preserve" transform="matrix(1 0 -0 1 0 841.92)" font-size="14.04" font-family="Times New Roman"><tspan y="-506.83" x="210.41 214.35524 220.47669 227.44052 231.38576">ladi.</tspan></text>
</g>
<clipPath id="cp23863">
<path transform="matrix(1,0,0,-1,0,841.92)" d="M .000008871 0 L 595.32 0 L 595.32 841.92 L .000008871 841.92 Z " fill-rule="evenodd"/>
</clipPath>
<g clip-path="url(#cp23863)">
<text xml:space="preserve" transform="matrix(1 0 -0 1 0 841.92)" font-size="14.04" font-family="Times New Roman"><tspan y="-506.83" x="234.89"> </tspan></text>
</g>
</g>
<g id="Layer-1" data-name="P">
<clipPath id="cp23864">
<path transform="matrix(1,0,0,-1,0,841.92)" d="M .000008871 0 L 595.32 0 L 595.32 841.92 L .000008871 841.92 Z " fill-rule="evenodd"/>
</clipPath>
<g clip-path="url(#cp23864)">
<text xml:space="preserve" transform="matrix(1 0 -0 1 0 841.92)" font-size="14.04" font-family="Times New Roman"><tspan y="-482.71" x="113.42 120.48212 123.99212 128.0216 132.58461 139.64673 146.70885 152.83029 156.77553 162.89698 166.96857 172.37397 176.3192 182.55297 189.40448 196.4666 203.43044 207.37567 211.44727 218.4111 222.35634 227.03166 230.9769 238.03902 244.8765 251.93862 258.17237 265.2485 271.48228 275.5539 282.39137 289.45347 296.51557 307.2">2. Ikkala slaydni bir oynada yonma</tspan></text>
</g>
<clipPath id="cp23865">
<path transform="matrix(1,0,0,-1,0,841.92)" d="M .000008871 0 L 595.32 0 L 595.32 841.92 L .000008871 841.92 Z " fill-rule="evenodd"/>
</clipPath>
<g clip-path="url(#cp23865)">
<text xml:space="preserve" transform="matrix(1 0 -0 1 0 841.92)" font-size="14.04" font-family="Times New Roman"><tspan y="-482.71" x="313.73">-</tspan></text>
</g>
<clipPath id="cp23866">
<path transform="matrix(1,0,0,-1,0,841.92)" d="M .000008871 0 L 595.32 0 L 595.32 841.92 L .000008871 841.92 Z " fill-rule="evenodd"/>
</clipPath>
<g clip-path="url(#cp23866)">
<text xml:space="preserve" transform="matrix(1 0 -0 1 0 841.92)" font-size="14.04" font-family="Times New Roman"><tspan y="-482.71" x="318.43 325.26747 332.32957 339.39167 343.4633 349.69706 356.7732 362.1786 366.2502 372.48399 376.33094 380.1779 384.1231 388.79844 392.6454 398.14906 405.11289 409.1845 416.14836 422.3821 429.34596 436.30979 443.3719 447.4435">yon aks ettirish uchun &#x00ab;</tspan></text>
</g>
</g>
<g id="Layer-1" data-name="P">
<clipPath id="cp23867">
<path transform="matrix(1,0,0,-1,0,841.92)" d="M .000008871 0 L 595.32 0 L 595.32 841.92 L .000008871 841.92 Z " fill-rule="evenodd"/>
</clipPath>
<g clip-path="url(#cp23867)">
<text xml:space="preserve" transform="matrix(1 0 -0 1 0 841.92)" font-size="14.04" font-family="Times New Roman,Bold" font-weight="bold"><tspan y="-482.71" x="454.54 465.33677 473.38169 481.4266">&#x041e;&#x043a;&#x043d;&#x043e;</tspan></text>
</g>
</g>
<g id="Layer-1" data-name="P">
<clipPath id="cp23868">
<path transform="matrix(1,0,0,-1,0,841.92)" d="M .000008871 0 L 595.32 0 L 595.32 841.92 L .000008871 841.92 Z " fill-rule="evenodd"/>
</clipPath>
<g clip-path="url(#cp23868)">
<text xml:space="preserve" transform="matrix(1 0 -0 1 0 841.92)" font-size="14.04" font-family="Times New Roman"><tspan y="-482.71" x="488.5 495.46385 499.64778 510.3322 516.566 523.64218 530.4797 537.5418 543.0455 546.9907 553.82827 559.9497">&#x00bb; menyusida </tspan></text>
</g>
</g>
<g id="Layer-1" data-name="P">
<clipPath id="cp23869">
<path transform="matrix(1,0,0,-1,0,841.92)" d="M .000008871 0 L 595.32 0 L 595.32 841.92 L .000008871 841.92 Z " fill-rule="evenodd"/>
</clipPath>
<g clip-path="url(#cp23869)">
<text xml:space="preserve" transform="matrix(1 0 -0 1 0 841.92)" font-size="14.04" font-family="Times New Roman"><tspan y="-458.47" x="85.104">&#x00ab;</tspan></text>
</g>
</g>
<g id="Layer-1" data-name="P">
<clipPath id="cp23870">
<path transform="matrix(1,0,0,-1,0,841.92)" d="M .000008871 0 L 595.32 0 L 595.32 841.92 L .000008871 841.92 Z " fill-rule="evenodd"/>
</clipPath>
<g clip-path="url(#cp23870)">
<text xml:space="preserve" transform="matrix(1 0 -0 1 0 841.92)" font-size="14.04" font-family="Times New Roman,Bold" font-weight="bold"><tspan y="-458.47" x="92.064 102.36936 110.456409 117.4764 125.282649 132.87828 139.98252 147.00252 154.92108 162.86772 169.81754">&#x0423;&#x043f;&#x043e;&#x0440;&#x044f;&#x0434;&#x043e;&#x0447;&#x0438;&#x0442;&#x044c;</tspan></text>
</g>
</g>
<g id="Layer-1" data-name="P">
<clipPath id="cp23871">
<path transform="matrix(1,0,0,-1,0,841.92)" d="M .000008871 0 L 595.32 0 L 595.32 841.92 L .000008871 841.92 Z " fill-rule="evenodd"/>
</clipPath>
<g clip-path="url(#cp23871)">
<text xml:space="preserve" transform="matrix(1 0 -0 1 0 841.92)" font-size="14.04" font-family="Times New Roman,Bold" font-weight="bold"><tspan y="-458.47" x="177.26"> </tspan></text>
</g>
</g>
<g id="Layer-1" data-name="P">
<clipPath id="cp23872">
<path transform="matrix(1,0,0,-1,0,841.92)" d="M .000008871 0 L 595.32 0 L 595.32 841.92 L .000008871 841.92 Z " fill-rule="evenodd"/>
</clipPath>
<g clip-path="url(#cp23872)">
<text xml:space="preserve" transform="matrix(1 0 -0 1 0 841.92)" font-size="14.04" font-family="Times New Roman,Bold" font-weight="bold"><tspan y="-458.47" x="180.74 188.32161 194.55538">&#x0432;&#x0441;&#x0451;</tspan></text>
</g>
</g>
<g id="Layer-1" data-name="P">
<clipPath id="cp23873">
<path transform="matrix(1,0,0,-1,0,841.92)" d="M .000008871 0 L 595.32 0 L 595.32 841.92 L .000008871 841.92 Z " fill-rule="evenodd"/>
</clipPath>
<g clip-path="url(#cp23873)">
<text xml:space="preserve" transform="matrix(1 0 -0 1 0 841.92)" font-size="14.04" font-family="Times New Roman"><tspan y="-458.47" x="200.81 207.64748 211.15747 215.8328 225.19748 231.43125 236.10657 242.34033 249.29013 255.5239 260.9293 264.8745 268.38453 272.28764 278.43717 283.1125 286.95945 290.90467 297.8685 301.81373 307.93516 314.99726 320.40266 324.2496 331.3117 335.98704 339.49705 346.4328 353.4949 360.33238 365.0077 372.08384 379.14595 383.70893 387.65415 394.61799 398.5632 402.0732 405.87806 412.11183 419.07566 423.02088 429.1423 436.2044 442.32585 449.38795 453.33317">&#x00bb; (Barchasi tartiblansin) buyrug`ini tanlanadi.</tspan></text>
</g>
</g>
<g id="Layer-1" data-name="P">
<clipPath id="cp23874">
<path transform="matrix(1,0,0,-1,0,841.92)" d="M .000008871 0 L 595.32 0 L 595.32 841.92 L .000008871 841.92 Z " fill-rule="evenodd"/>
</clipPath>
<g clip-path="url(#cp23874)">
<text xml:space="preserve" transform="matrix(1 0 -0 1 0 841.92)" font-size="14.04" font-family="Times New Roman"><tspan y="-458.47" x="456.94"> </tspan></text>
</g>
</g>
<g id="Layer-1" data-name="P">
<clipPath id="cp23875">
<path transform="matrix(1,0,0,-1,0,841.92)" d="M .000008871 0 L 595.32 0 L 595.32 841.92 L .000008871 841.92 Z " fill-rule="evenodd"/>
</clipPath>
<g clip-path="url(#cp23875)">
<text xml:space="preserve" transform="matrix(1 0 -0 1 0 841.92)" font-size="14.04" font-family="Times New Roman"><tspan y="-434.35" x="113.42 120.48212 123.99212 127.44596 135.96823 142.202 149.16584 153.11107 159.34484 166.30867 173.37079 179.49224 186.55435 190.06435 195.42763 199.37287 205.60663 212.45815 219.52027 226.4841 230.42934 233.7849 240.84702 244.79225 249.46758 252.83718 256.7824 262.90385 269.96595 276.92979 280.875 291.55946 298.62156 302.56678 309.62889 315.7503 322.8124 326.32243 330.12727 337.0911 344.1532 348.00016 354.964 361.19776 368.2739 372.12086 377.52626 381.47148 388.4353 394.66908 398.17909 405.11485 409.06007 412.907 419.96913 423.47914 430.4991 435.0902 438.93717 442.8824 446.8276 452.94905 459.91288 463.8581">3. Tanlangan slaydni bir taqdimotdan ikkinchisiga olib o`tiladi.</tspan></text>
</g>
<clipPath id="cp23876">
<path transform="matrix(1,0,0,-1,0,841.92)" d="M .000008871 0 L 595.32 0 L 595.32 841.92 L .000008871 841.92 Z " fill-rule="evenodd"/>
</clipPath>
<g clip-path="url(#cp23876)">
<text xml:space="preserve" transform="matrix(1 0 -0 1 0 841.92)" font-size="14.04" font-family="Times New Roman"><tspan y="-434.35" x="467.62"> </tspan></text>
</g>
</g>
<g id="Layer-1" data-name="P">
<clipPath id="cp23877">
<path transform="matrix(1,0,0,-1,0,841.92)" d="M .000008871 0 L 595.32 0 L 595.32 841.92 L .000008871 841.92 Z " fill-rule="evenodd"/>
</clipPath>
<g clip-path="url(#cp23877)">
<text xml:space="preserve" transform="matrix(1 0 -0 1 0 841.92)" font-size="14.04" font-family="Times New Roman,BoldItalic" font-weight="bold" font-style="italic"><tspan y="-409.99" x="113.42 122.784679 129.84679 135.25218 143.05843 150.00823 157.07035 160.58034 164.38518 171.34902 178.41114 185.37497 189.09557 200.24333 207.20717 211.05413 218.01796 225.08008 228.59008 233.95336 237.89859 244.96071 251.08216 258.046 261.9912 268.95506 274.36045 281.42256 288.48466 296.2909 299.8009 307.56504 315.2449 320.6503 327.7124 334.7745 338.13008 345.19218 349.03913 352.88609 358.38975">Boshqa taqdimotga slaydlardan nusxa olish</tspan></text>
</g>
<clipPath id="cp23878">
<path transform="matrix(1,0,0,-1,0,841.92)" d="M .000008871 0 L 595.32 0 L 595.32 841.92 L .000008871 841.92 Z " fill-rule="evenodd"/>
</clipPath>
<g clip-path="url(#cp23878)">
<text xml:space="preserve" transform="matrix(1 0 -0 1 0 841.92)" font-size="14.04" font-family="Times New Roman,Bold" font-weight="bold"><tspan y="-409.99" x="366.43"> </tspan></text>
</g>
<clipPath id="cp23879">
<path transform="matrix(1,0,0,-1,0,841.92)" d="M .000008871 0 L 595.32 0 L 595.32 841.92 L .000008871 841.92 Z " fill-rule="evenodd"/>
</clipPath>
<g clip-path="url(#cp23879)">
<text xml:space="preserve" transform="matrix(1 0 -0 1 0 841.92)" font-size="14.04" font-family="Times New Roman,Bold" font-weight="bold"><tspan y="-409.99" x="369.79"> </tspan></text>
</g>
</g>
<g id="Layer-1" data-name="P">
<clipPath id="cp23880">
<path transform="matrix(1,0,0,-1,0,841.92)" d="M .000008871 0 L 595.32 0 L 595.32 841.92 L .000008871 841.92 Z " fill-rule="evenodd"/>
</clipPath>
<g clip-path="url(#cp23880)">
<text xml:space="preserve" transform="matrix(1 0 -0 1 0 841.92)" font-size="14.04" font-family="Times New Roman"><tspan y="-386.09" x="113.42 120.48212 123.99212">1. </tspan></text>
</g>
<clipPath id="cp23881">
<path transform="matrix(1,0,0,-1,0,841.92)" d="M .000008871 0 L 595.32 0 L 595.32 841.92 L .000008871 841.92 Z " fill-rule="evenodd"/>
</clipPath>
<g clip-path="url(#cp23881)">
<text xml:space="preserve" transform="matrix(1 0 -0 1 0 841.92)" font-size="14.04" font-family="Times New Roman"><tspan y="-386.09" x="127.58 136.81833 143.88045 149.28585 156.34796 163.3118 169.54557 173.05556 176.95868 183.19245 190.21245 197.14821 201.09345 211.7779 218.84001 222.78525 229.84737 235.96881 239.54901 246.51285 253.57497 258.98039 266.04249 272.1639 277.66758 281.6128 285.1228 292.1428 296.7339 300.6791 307.64295 313.8767 320.11048 323.95744 327.90266 334.02409 340.9879 344.93315 351.99525 358.11668 365.17878 368.75898 374.16438 378.1096 384.34336 391.19486 398.25697 402.20219 408.3236 412.99894 420.07508 426.1965 433.2586 436.76863 443.70439 447.6496 454.61344 458.55867 465.5225 469.1027 472.94966 479.91349 484.5888 491.66496 498.62879 504.86256 511.8264 515.7716 519.2816 524.74319 528.6463 534.88009 541.6895 548.75167 555.7155 559.5625">Boshqa taqdimotda nusxasi o`tkaziladigan slaydlardan oldin turuvchi slaydni </tspan></text>
</g>
<clipPath id="cp23882">
<path transform="matrix(1,0,0,-1,0,841.92)" d="M .000008871 0 L 595.32 0 L 595.32 841.92 L .000008871 841.92 Z " fill-rule="evenodd"/>
</clipPath>
<g clip-path="url(#cp23882)">
<text xml:space="preserve" transform="matrix(1 0 -0 1 0 841.92)" font-size="14.04" font-family="Times New Roman"><tspan y="-361.97" x="85.104 92.166118 98.39987 102.24683 109.21067 113.155918 117.00288 123.23663 130.3128 136.43425 143.39809">belgilanadi</tspan></text>
</g>
<clipPath id="cp23883">
<path transform="matrix(1,0,0,-1,0,841.92)" d="M .000008871 0 L 595.32 0 L 595.32 841.92 L .000008871 841.92 Z " fill-rule="evenodd"/>
</clipPath>
<g clip-path="url(#cp23883)">
<text xml:space="preserve" transform="matrix(1 0 -0 1 0 841.92)" font-size="14.04" font-family="Times New Roman"><tspan y="-361.97" x="147.26"> </tspan></text>
</g>
</g>
<g id="Layer-1" data-name="P">
<clipPath id="cp23884">
<path transform="matrix(1,0,0,-1,0,841.92)" d="M .000008871 0 L 595.32 0 L 595.32 841.92 L .000008871 841.92 Z " fill-rule="evenodd"/>
</clipPath>
<g clip-path="url(#cp23884)">
<text xml:space="preserve" transform="matrix(1 0 -0 1 0 841.92)" font-size="14.04" font-family="Times New Roman"><tspan y="-337.73" x="113.42 120.48212 123.99212 131.62989">2. &#x00ab;</tspan></text>
</g>
</g>
<g id="Layer-1" data-name="P">
<clipPath id="cp23885">
<path transform="matrix(1,0,0,-1,0,841.92)" d="M .000008871 0 L 595.32 0 L 595.32 841.92 L .000008871 841.92 Z " fill-rule="evenodd"/>
</clipPath>
<g clip-path="url(#cp23885)">
<text xml:space="preserve" transform="matrix(1 0 -0 1 0 841.92)" font-size="14.04" font-family="Times New Roman,Bold" font-weight="bold"><tspan y="-337.73" x="138.62 147.98468 154.21845 161.05593 168.11804 175.69965 183.60416">&#x0412;&#x0441;&#x0442;&#x0430;&#x0432;&#x043a;&#x0430;</tspan></text>
</g>
</g>
<g id="Layer-1" data-name="P">
<clipPath id="cp23886">
<path transform="matrix(1,0,0,-1,0,841.92)" d="M .000008871 0 L 595.32 0 L 595.32 841.92 L .000008871 841.92 Z " fill-rule="evenodd"/>
</clipPath>
<g clip-path="url(#cp23886)">
<text xml:space="preserve" transform="matrix(1 0 -0 1 0 841.92)" font-size="14.04" font-family="Times New Roman"><tspan y="-337.73" x="190.73 197.69384 205.35967 210.03499 220.1157 227.17783 231.74083 238.57831 242.52355 248.02722 255.08934 259.76466 267.4305 278.11497 284.34873 291.42488 298.26234 305.32444 310.8281 314.77333 321.83543 327.95686 334.9207 338.8659 346.53178">&#x00bb; (Qo`yish) menyusidagi &#x00ab;</tspan></text>
</g>
</g>
<g id="Layer-1" data-name="P">
<clipPath id="cp23887">
<path transform="matrix(1,0,0,-1,0,841.92)" d="M .000008871 0 L 595.32 0 L 595.32 841.92 L .000008871 841.92 Z " fill-rule="evenodd"/>
</clipPath>
<g clip-path="url(#cp23887)">
<text xml:space="preserve" transform="matrix(1 0 -0 1 0 841.92)" font-size="14.04" font-family="Times New Roman,Bold" font-weight="bold"><tspan y="-337.73" x="353.71 363.7907 371.69523 378.75733 386.80226 393.9065">&#x0421;&#x043b;&#x0430;&#x0439;&#x0434;&#x044b;</tspan></text>
</g>
</g>
<g id="Layer-1" data-name="P">
<clipPath id="cp23888">
<path transform="matrix(1,0,0,-1,0,841.92)" d="M .000008871 0 L 595.32 0 L 595.32 841.92 L .000008871 841.92 Z " fill-rule="evenodd"/>
</clipPath>
<g clip-path="url(#cp23888)">
<text xml:space="preserve" transform="matrix(1 0 -0 1 0 841.92)" font-size="14.04" font-family="Times New Roman,Bold" font-weight="bold"><tspan y="-337.73" x="404.83"> </tspan></text>
</g>
</g>
<g id="Layer-1" data-name="P">
<clipPath id="cp23889">
<path transform="matrix(1,0,0,-1,0,841.92)" d="M .000008871 0 L 595.32 0 L 595.32 841.92 L .000008871 841.92 Z " fill-rule="evenodd"/>
</clipPath>
<g clip-path="url(#cp23889)">
<text xml:space="preserve" transform="matrix(1 0 -0 1 0 841.92)" font-size="14.04" font-family="Times New Roman,Bold" font-weight="bold"><tspan y="-337.73" x="412.51 420.55006">&#x0438;&#x0437;</tspan></text>
</g>
</g>
<g id="Layer-1" data-name="P">
<clipPath id="cp23890">
<path transform="matrix(1,0,0,-1,0,841.92)" d="M .000008871 0 L 595.32 0 L 595.32 841.92 L .000008871 841.92 Z " fill-rule="evenodd"/>
</clipPath>
<g clip-path="url(#cp23890)">
<text xml:space="preserve" transform="matrix(1 0 -0 1 0 841.92)" font-size="14.04" font-family="Times New Roman,Bold" font-weight="bold"><tspan y="-337.73" x="426.19"> </tspan></text>
</g>
</g>
<g id="Layer-1" data-name="P">
<clipPath id="cp23891">
<path transform="matrix(1,0,0,-1,0,841.92)" d="M .000008871 0 L 595.32 0 L 595.32 841.92 L .000008871 841.92 Z " fill-rule="evenodd"/>
</clipPath>
<g clip-path="url(#cp23891)">
<text xml:space="preserve" transform="matrix(1 0 -0 1 0 841.92)" font-size="14.04" font-family="Times New Roman,Bold" font-weight="bold"><tspan y="-337.73" x="433.87 443.47334 450.53544 458.58036 466.3866 473.35044">&#x0444;&#x0430;&#x0439;&#x043b;&#x043e;&#x0432;</tspan></text>
</g>
</g>
<g id="Layer-1" data-name="P">
<clipPath id="cp23892">
<path transform="matrix(1,0,0,-1,0,841.92)" d="M .000008871 0 L 595.32 0 L 595.32 841.92 L .000008871 841.92 Z " fill-rule="evenodd"/>
</clipPath>
<g clip-path="url(#cp23892)">
<text xml:space="preserve" transform="matrix(1 0 -0 1 0 841.92)" font-size="14.04" font-family="Times New Roman"><tspan y="-337.73" x="480.94 487.90385 495.5697 500.24504 508.05128 514.28506 521.1366 525.08187 529.0271 535.26089 539.93618 547.0123 553.0074 559.97128">&#x00bb; (Fayllardan </tspan></text>
</g>
</g>
<g id="Layer-1" data-name="P">
<clipPath id="cp23893">
<path transform="matrix(1,0,0,-1,0,841.92)" d="M .000008871 0 L 595.32 0 L 595.32 841.92 L .000008871 841.92 Z " fill-rule="evenodd"/>
</clipPath>
<g clip-path="url(#cp23893)">
<text xml:space="preserve" transform="matrix(1 0 -0 1 0 841.92)" font-size="14.04" font-family="Times New Roman"><tspan y="-313.61" x="85.104 90.60768 94.552928 100.78668 107.6382 114.70032 118.54728 124.78104 129.45636 134.13169 137.64168 144.59148 151.6536 158.49108 163.1664 170.24257 177.30469 181.86769 185.81293 192.77677 196.722 200.232 204.03684 210.2706 217.34677 221.19373 227.42749 234.39133 240.62509 247.58893 251.53417">slaydlar) buyrug`ini tanlanadi.</tspan></text>
</g>
</g>
<g id="Layer-1" data-name="P">
<clipPath id="cp23894">
<path transform="matrix(1,0,0,-1,0,841.92)" d="M .000008871 0 L 595.32 0 L 595.32 841.92 L .000008871 841.92 Z " fill-rule="evenodd"/>
</clipPath>
<g clip-path="url(#cp23894)">
<text xml:space="preserve" transform="matrix(1 0 -0 1 0 841.92)" font-size="14.04" font-family="Times New Roman"><tspan y="-313.61" x="255.05"> </tspan></text>
</g>
</g>
<g id="Layer-1" data-name="P">
<clipPath id="cp23895">
<path transform="matrix(1,0,0,-1,0,841.92)" d="M .000008871 0 L 595.32 0 L 595.32 841.92 L .000008871 841.92 Z " fill-rule="evenodd"/>
</clipPath>
<g clip-path="url(#cp23895)">
<text xml:space="preserve" transform="matrix(1 0 -0 1 0 841.92)" font-size="14.04" font-family="Times New Roman"><tspan y="-289.49" x="113.42 120.48212 123.99212 135.95421 146.03493 153.09705 158.50244 165.56456 171.686 177.18968 181.13492 192.99872 200.06084 204.73616 208.58312 215.64524 221.76668 228.00045 231.8474 235.69435 241.92812 249.00429 252.85124 259.91337 266.0348 273.0969 285.08708 290.49247 294.43769 300.67146 307.52296 314.58506 318.53028 324.76405 329.43937 341.3172 345.26243 352.22627 356.78926 363.85136 369.97279 377.03489 389.02507 392.97029 399.0917 406.1538 413.11766 417.06288 427.7473 434.80943 438.75465 445.71849 449.6637 461.65388 465.50083 472.46467 479.52677 483.37373 487.31895 493.44038 500.50248 504.4477 516.3115 523.37368 529.6074 541.5976 548.56149 555.5253 559.4706">3. Nusxasi o`tkaziladigan slaydlar turgan taqdimotni topiladi va uni </tspan></text>
</g>
<clipPath id="cp23896">
<path transform="matrix(1,0,0,-1,0,841.92)" d="M .000008871 0 L 595.32 0 L 595.32 841.92 L .000008871 841.92 Z " fill-rule="evenodd"/>
</clipPath>
<g clip-path="url(#cp23896)">
<text xml:space="preserve" transform="matrix(1 0 -0 1 0 841.92)" font-size="14.04" font-family="Times New Roman"><tspan y="-265.37" x="85.104">b</tspan></text>
</g>
<clipPath id="cp23897">
<path transform="matrix(1,0,0,-1,0,841.92)" d="M .000008871 0 L 595.32 0 L 595.32 841.92 L .000008871 841.92 Z " fill-rule="evenodd"/>
</clipPath>
<g clip-path="url(#cp23897)">
<text xml:space="preserve" transform="matrix(1 0 -0 1 0 841.92)" font-size="14.04" font-family="Times New Roman"><tspan y="-265.37" x="92.184 98.417758 102.26472 109.22855 113.1738 117.02076 123.25452 130.33069 136.45214 143.41597 147.3612">elgilanadi.</tspan></text>
</g>
<clipPath id="cp23898">
<path transform="matrix(1,0,0,-1,0,841.92)" d="M .000008871 0 L 595.32 0 L 595.32 841.92 L .000008871 841.92 Z " fill-rule="evenodd"/>
</clipPath>
<g clip-path="url(#cp23898)">
<text xml:space="preserve" transform="matrix(1 0 -0 1 0 841.92)" font-size="14.04" font-family="Times New Roman"><tspan y="-265.37" x="150.86"> </tspan></text>
</g>
</g>
<g id="Layer-1" data-name="P">
<clipPath id="cp23899">
<path transform="matrix(1,0,0,-1,0,841.92)" d="M .000008871 0 L 595.32 0 L 595.32 841.92 L .000008871 841.92 Z " fill-rule="evenodd"/>
</clipPath>
<g clip-path="url(#cp23899)">
<text xml:space="preserve" transform="matrix(1 0 -0 1 0 841.92)" font-size="14.04" font-family="Times New Roman"><tspan y="-241.13" x="113.42 120.48212 123.99212 130.31012 140.39084 147.45296 152.85836 159.92047 166.04192 171.5456 175.49083 181.71054 188.77266 193.33567 197.2809 204.34302 210.46446 216.69823 220.54518 224.49042 230.61186 237.67398 241.52094 248.58306 254.7045 261.7666 268.1127 273.5181 277.46333 283.69709 290.54859 297.6107 301.5559 307.78968 312.35267 319.41477 323.36 329.5797 336.6418 342.76325 346.6102 353.6723 357.51927 361.46449 367.5859 374.648 380.76945 387.83155 391.77677 397.9965 405.0586 411.29237 417.63847">4. Nusxasi o`tkaziladigan slaydlarni belgilanadi va &#x00ab;</tspan></text>
</g>
</g>
<g id="Layer-1" data-name="P">
<clipPath id="cp23900">
<path transform="matrix(1,0,0,-1,0,841.92)" d="M .000008871 0 L 595.32 0 L 595.32 841.92 L .000008871 841.92 Z " fill-rule="evenodd"/>
</clipPath>
<g clip-path="url(#cp23900)">
<text xml:space="preserve" transform="matrix(1 0 -0 1 0 841.92)" font-size="14.04" font-family="Times New Roman,Bold" font-weight="bold"><tspan y="-241.13" x="425.11 434.47468 440.70845 447.54594 454.60804 462.04924 470.09416 477.04396">&#x0412;&#x0441;&#x0442;&#x0430;&#x0432;&#x0438;&#x0442;&#x044c;</tspan></text>
</g>
</g>
<g id="Layer-1" data-name="P">
<clipPath id="cp23901">
<path transform="matrix(1,0,0,-1,0,841.92)" d="M .000008871 0 L 595.32 0 L 595.32 841.92 L .000008871 841.92 Z " fill-rule="evenodd"/>
</clipPath>
<g clip-path="url(#cp23901)">
<text xml:space="preserve" transform="matrix(1 0 -0 1 0 841.92)" font-size="14.04" font-family="Times New Roman"><tspan y="-241.13" x="484.54 491.50386 497.84996 502.52528 512.606 519.66818 524.34347 531.195 535.14028 539.0855 544.4909 548.3379 555.4 559.963">&#x00bb; (Qo`yilsin) </tspan></text>
</g>
</g>
<g id="Layer-1" data-name="P">
<clipPath id="cp23902">
<path transform="matrix(1,0,0,-1,0,841.92)" d="M .000008871 0 L 595.32 0 L 595.32 841.92 L .000008871 841.92 Z " fill-rule="evenodd"/>
</clipPath>
<g clip-path="url(#cp23902)">
<text xml:space="preserve" transform="matrix(1 0 -0 1 0 841.92)" font-size="14.04" font-family="Times New Roman"><tspan y="-216.98" x="85.104 89.04924 96.01308 103.075199 113.759639 119.99339 126.22715 133.30332 139.53708 144.94248 148.88771 155.85155 159.79679 163.30678 170.24254 177.20638 182.71006 186.557 190.50225 196.62369 203.6858 207.53276">tugmachasini bosiladi.</tspan></text>
</g>
</g>
<g id="Layer-1" data-name="P">
<clipPath id="cp23903">
<path transform="matrix(1,0,0,-1,0,841.92)" d="M .000008871 0 L 595.32 0 L 595.32 841.92 L .000008871 841.92 Z " fill-rule="evenodd"/>
</clipPath>
<g clip-path="url(#cp23903)">
<text xml:space="preserve" transform="matrix(1 0 -0 1 0 841.92)" font-size="14.04" font-family="Times New Roman"><tspan y="-216.98" x="211.13"> </tspan></text>
</g>
</g>
<g id="Layer-1" data-name="P">
<clipPath id="cp23904">
<path transform="matrix(1,0,0,-1,0,841.92)" d="M .000008871 0 L 595.32 0 L 595.32 841.92 L .000008871 841.92 Z " fill-rule="evenodd"/>
</clipPath>
<g clip-path="url(#cp23904)">
<text xml:space="preserve" transform="matrix(1 0 -0 1 0 841.92)" font-size="14.04" font-family="Times New Roman,Bold" font-weight="bold"><tspan y="-192.62" x="121.1"> </tspan></text>
</g>
</g>
<g id="Layer-1" data-name="P">
<clipPath id="cp23905">
<path transform="matrix(1,0,0,-1,0,841.92)" d="M .000008871 0 L 595.32 0 L 595.32 841.92 L .000008871 841.92 Z " fill-rule="evenodd"/>
</clipPath>
<g clip-path="url(#cp23905)">
<text xml:space="preserve" transform="matrix(1 0 -0 1 0 841.92)" font-size="14.04" font-family="Times New Roman,Bold" font-weight="bold"><tspan y="-168.5" x="120.5">1</tspan></text>
</g>
<clipPath id="cp23906">
<path transform="matrix(1,0,0,-1,0,841.92)" d="M .000008871 0 L 595.32 0 L 595.32 841.92 L .000008871 841.92 Z " fill-rule="evenodd"/>
</clipPath>
<g clip-path="url(#cp23906)">
<text xml:space="preserve" transform="matrix(1 0 -0 1 0 841.92)" font-size="14.04" font-family="Times New Roman,Bold" font-weight="bold"><tspan y="-168.5" x="127.58">-</tspan></text>
</g>
<clipPath id="cp23907">
<path transform="matrix(1,0,0,-1,0,841.92)" d="M .000008871 0 L 595.32 0 L 595.32 841.92 L .000008871 841.92 Z " fill-rule="evenodd"/>
</clipPath>
<g clip-path="url(#cp23907)">
<text xml:space="preserve" transform="matrix(1 0 -0 1 0 841.92)" font-size="14.04" font-family="Times New Roman,Bold" font-weight="bold"><tspan y="-168.5" x="132.26 141.49832 148.56044 156.36669 161.87036 169.55025 173.49549 179.61693">Topshiri</tspan></text>
</g>
</g>
<g id="Layer-1" data-name="P">
<clipPath id="cp23908">
<path transform="matrix(1,0,0,-1,0,841.92)" d="M .000008871 0 L 595.32 0 L 595.32 841.92 L .000008871 841.92 Z " fill-rule="evenodd"/>
</clipPath>
<g clip-path="url(#cp23908)">
<text xml:space="preserve" transform="matrix(1 0 -0 1 0 841.92)" font-size="14.04" font-family="Times New Roman,Bold" font-weight="bold"><tspan y="-168.5" x="183.62">q</tspan></text>
</g>
</g>
<g id="Layer-1" data-name="P">
<clipPath id="cp23909">
<path transform="matrix(1,0,0,-1,0,841.92)" d="M .000008871 0 L 595.32 0 L 595.32 841.92 L .000008871 841.92 Z " fill-rule="evenodd"/>
</clipPath>
<g clip-path="url(#cp23909)">
<text xml:space="preserve" transform="matrix(1 0 -0 1 0 841.92)" font-size="14.04" font-family="Times New Roman,Bold" font-weight="bold"><tspan y="-168.5" x="191.45 196.13">: </tspan></text>
</g>
</g>
<g id="Layer-1" data-name="P">
<clipPath id="cp23910">
<path transform="matrix(1,0,0,-1,0,841.92)" d="M .000008871 0 L 595.32 0 L 595.32 841.92 L .000008871 841.92 Z " fill-rule="evenodd"/>
</clipPath>
<g clip-path="url(#cp23910)">
<text xml:space="preserve" transform="matrix(1 0 -0 1 0 841.92)" font-size="14.04" font-family="Times New Roman,Bold" font-weight="bold"><tspan y="-168.5" x="200.81">q</tspan></text>
</g>
</g>
<g id="Layer-1" data-name="P">
<clipPath id="cp23911">
<path transform="matrix(1,0,0,-1,0,841.92)" d="M .000008871 0 L 595.32 0 L 595.32 841.92 L .000008871 841.92 Z " fill-rule="evenodd"/>
</clipPath>
<g clip-path="url(#cp23911)">
<text xml:space="preserve" transform="matrix(1 0 -0 1 0 841.92)" font-size="14.04" font-family="Times New Roman,Bold" font-weight="bold"><tspan y="-168.5" x="208.61 216.28989 223.25373 227.19896 235.0052 241.955 249.01712 252.96236 257.51133 262.18666 269.2628 276.94267 283.9065 290.9686 294.91383 302.5937 309.55754 316.61964 320.56486 325.11384 329.77513 341.30195 348.36405 352.30928 356.2545 363.93437 375.46119 382.5233 387.1986 391.14384 398.20594 404.4397 409.11503 416.7949 423.75874 427.70396 434.6678 438.613 444.84678 452.52665">uyidagi jadvaldagi  ma'lumotlar bo'yicha</tspan></text>
</g>
</g>
<g id="Layer-1" data-name="P">
<clipPath id="cp23912">
<path transform="matrix(1,0,0,-1,0,841.92)" d="M .000008871 0 L 595.32 0 L 595.32 841.92 L .000008871 841.92 Z " fill-rule="evenodd"/>
</clipPath>
<g clip-path="url(#cp23912)">
<text xml:space="preserve" transform="matrix(1 0 -0 1 0 841.92)" font-size="14.04" font-family="Times New Roman,Bold" font-weight="bold"><tspan y="-168.5" x="459.94"> </tspan></text>
</g>
</g>
<g id="Layer-1" data-name="P">
<clipPath id="cp23913">
<path transform="matrix(1,0,0,-1,0,841.92)" d="M .000008871 0 L 595.32 0 L 595.32 841.92 L .000008871 841.92 Z " fill-rule="evenodd"/>
</clipPath>
<g clip-path="url(#cp23913)">
<text xml:space="preserve" transform="matrix(1 0 -0 1 0 841.92)" font-size="14.04" font-family="Times New Roman,Bold" font-weight="bold"><tspan y="-168.5" x="464.62 477.8176 485.49748 490.15876 498.68104 505.64488 515.9502 522.07168 528.3054 536.8277 543.79159 547.7368 555.4167 559.9797">MS PowerPoint </tspan></text>
</g>
</g>
<g id="Layer-1" data-name="P">
<clipPath id="cp23914">
<path transform="matrix(1,0,0,-1,0,841.92)" d="M .000008871 0 L 595.32 0 L 595.32 841.92 L .000008871 841.92 Z " fill-rule="evenodd"/>
</clipPath>
<g clip-path="url(#cp23914)">
<text xml:space="preserve" transform="matrix(1 0 -0 1 0 841.92)" font-size="14.04" font-family="Times New Roman,Bold" font-weight="bold"><tspan y="-144.26" x="85.104 92.91024 99.97236 105.37776 110.053089 117.85933 124.09309 127.94005 135.74629 142.80841 146.3184 150.85334 157.91545 165.7217 173.40158 177.34682 188.87366 195.93578 200.6111 204.1211 211.1411 218.1611 224.39487 231.41487 236.01999 239.96523 247.64511 254.70723 258.21723 261.67109">dasturida taqdimot yarating.  </tspan></text>
</g>
</g>
<g id="Layer-1" data-name="P">
<clipPath id="cp23915">
<path transform="matrix(1,0,0,-1,0,841.92)" d="M .000008871 0 L 595.32 0 L 595.32 841.92 L .000008871 841.92 Z " fill-rule="evenodd"/>
</clipPath>
<g clip-path="url(#cp23915)">
<text xml:space="preserve" transform="matrix(1 0 -0 1 0 841.92)" font-size="14.04" font-family="Times New Roman"><tspan y="-144.26" x="265.25"> </tspan></text>
</g>
</g>
<clipPath id="cp23916">
<path transform="matrix(1,0,0,-1,0,841.92)" d="M 79.944 84.384 L 213.884 84.384 L 213.884 132.62401 L 79.944 132.62401 Z " fill-rule="evenodd"/>
</clipPath>
<g clip-path="url(#cp23916)">
<g id="Layer-1" data-name="P">
<clipPath id="cp23917">
<path transform="matrix(1,0,0,-1,0,841.92)" d="M 79.944 84.384 L 213.884 84.384 L 213.884 132.62401 L 79.944 132.62401 Z " fill-rule="evenodd"/>
</clipPath>
<g clip-path="url(#cp23917)">
<text xml:space="preserve" transform="matrix(1 0 -0 1 0 841.92)" font-size="14.04" font-family="Times New Roman"><tspan y="-103.82" x="86.064 93.87025 100.104007 104.77933 115.46377 121.697528 126.37285 129.88285 136.90285 144.0071 146.5343 150.36722 156.60099 160.54622 164.39318 171.45529 175.40053 178.75609 185.71993 192.78205 203.46649">Fermer xo'jaligi nomi</tspan></text>
</g>
<clipPath id="cp23918">
<path transform="matrix(1,0,0,-1,0,841.92)" d="M 79.944 84.384 L 213.884 84.384 L 213.884 132.62401 L 79.944 132.62401 Z " fill-rule="evenodd"/>
</clipPath>
<g clip-path="url(#cp23918)">
<text xml:space="preserve" transform="matrix(1 0 -0 1 0 841.92)" font-size="14.04" font-family="Times New Roman"><tspan y="-103.82" x="207.65"> </tspan></text>
</g>
</g>
</g>
<clipPath id="cp23919">
<path transform="matrix(1,0,0,-1,0,841.92)" d="M 214.37 84.384 L 277.61 84.384 L 277.61 132.62401 L 214.37 132.62401 Z " fill-rule="evenodd"/>
</clipPath>
<g clip-path="url(#cp23919)">
<g id="Layer-1" data-name="P">
<clipPath id="cp23920">
<path transform="matrix(1,0,0,-1,0,841.92)" d="M 214.37 84.384 L 277.61 84.384 L 277.61 132.62401 L 214.37 132.62401 Z " fill-rule="evenodd"/>
</clipPath>
<g clip-path="url(#cp23920)">
<text xml:space="preserve" transform="matrix(1 0 -0 1 0 841.92)" font-size="14.04" font-family="Times New Roman"><tspan y="-119.9" x="221.09 231.269 241.95345 249.14194 259.8264 263.89799 270.73545">Umumiy </tspan></text>
</g>
<clipPath id="cp23921">
<path transform="matrix(1,0,0,-1,0,841.92)" d="M 214.37 84.384 L 277.61 84.384 L 277.61 132.62401 L 214.37 132.62401 Z " fill-rule="evenodd"/>
</clipPath>
<g clip-path="url(#cp23921)">
<text xml:space="preserve" transform="matrix(1 0 -0 1 0 841.92)" font-size="14.04" font-family="Times New Roman"><tspan y="-103.82" x="237.05 243.88748 250.12125 254.79657">yer </tspan></text>
</g>
<clipPath id="cp23922">
<path transform="matrix(1,0,0,-1,0,841.92)" d="M 214.37 84.384 L 277.61 84.384 L 277.61 132.62401 L 214.37 132.62401 Z " fill-rule="evenodd"/>
</clipPath>
<g clip-path="url(#cp23922)">
<text xml:space="preserve" transform="matrix(1 0 -0 1 0 841.92)" font-size="14.04" font-family="Times New Roman"><tspan y="-87.744" x="221.45 232.24677 238.59285 245.43033 252.49245 259.55458 266.5184">maydoni</tspan></text>
</g>
<clipPath id="cp23923">
<path transform="matrix(1,0,0,-1,0,841.92)" d="M 214.37 84.384 L 277.61 84.384 L 277.61 132.62401 L 214.37 132.62401 Z " fill-rule="evenodd"/>
</clipPath>
<g clip-path="url(#cp23923)">
<text xml:space="preserve" transform="matrix(1 0 -0 1 0 841.92)" font-size="14.04" font-family="Times New Roman"><tspan y="-87.744" x="270.41"> </tspan></text>
</g>
</g>
</g>
<clipPath id="cp23924">
<path transform="matrix(1,0,0,-1,0,841.92)" d="M 278.21 84.384 L 318.794 84.384 L 318.794 132.62401 L 278.21 132.62401 Z " fill-rule="evenodd"/>
</clipPath>
<g clip-path="url(#cp23924)">
<g id="Layer-1" data-name="P">
<clipPath id="cp23925">
<path transform="matrix(1,0,0,-1,0,841.92)" d="M 278.21 84.384 L 318.794 84.384 L 318.794 132.62401 L 278.21 132.62401 Z " fill-rule="evenodd"/>
</clipPath>
<g clip-path="url(#cp23925)">
<text xml:space="preserve" transform="matrix(1 0 -0 1 0 841.92)" font-size="14.04" font-family="Times New Roman"><tspan y="-103.82" x="287.21 295.01625 302.55574">&#x0420;&#x043f;&#x0440;</tspan></text>
</g>
</g>
<g id="Layer-1" data-name="P">
<clipPath id="cp23926">
<path transform="matrix(1,0,0,-1,0,841.92)" d="M 278.21 84.384 L 318.794 84.384 L 318.794 132.62401 L 278.21 132.62401 Z " fill-rule="evenodd"/>
</clipPath>
<g clip-path="url(#cp23926)">
<text xml:space="preserve" transform="matrix(1 0 -0 1 0 841.92)" font-size="14.04" font-family="Times New Roman"><tspan y="-103.82" x="309.53"> </tspan></text>
</g>
</g>
</g>
<clipPath id="cp23927">
<path transform="matrix(1,0,0,-1,0,841.92)" d="M 319.27 84.384 L 361.27 84.384 L 361.27 132.62401 L 319.27 132.62401 Z " fill-rule="evenodd"/>
</clipPath>
<g clip-path="url(#cp23927)">
<g id="Layer-1" data-name="P">
<clipPath id="cp23928">
<path transform="matrix(1,0,0,-1,0,841.92)" d="M 319.27 84.384 L 361.27 84.384 L 361.27 132.62401 L 319.27 132.62401 Z " fill-rule="evenodd"/>
</clipPath>
<g clip-path="url(#cp23928)">
<text xml:space="preserve" transform="matrix(1 0 -0 1 0 841.92)" font-size="14.04" font-family="Times New Roman"><tspan y="-103.82" x="333.31">&#x041a;</tspan></text>
</g>
<clipPath id="cp23929">
<path transform="matrix(1,0,0,-1,0,841.92)" d="M 319.27 84.384 L 361.27 84.384 L 361.27 132.62401 L 319.27 132.62401 Z " fill-rule="evenodd"/>
</clipPath>
<g clip-path="url(#cp23929)">
<text xml:space="preserve" transform="matrix(1 0 -0 1 0 841.92)" font-size="9" font-family="Times New Roman"><tspan y="-102.26" x="342.67">1</tspan></text>
</g>
</g>
<g id="Layer-1" data-name="P">
<clipPath id="cp23930">
<path transform="matrix(1,0,0,-1,0,841.92)" d="M 319.27 84.384 L 361.27 84.384 L 361.27 132.62401 L 319.27 132.62401 Z " fill-rule="evenodd"/>
</clipPath>
<g clip-path="url(#cp23930)">
<text xml:space="preserve" transform="matrix(1 0 -0 1 0 841.92)" font-size="14.04" font-family="Times New Roman"><tspan y="-103.82" x="347.11"> </tspan></text>
</g>
</g>
</g>
<clipPath id="cp23931">
<path transform="matrix(1,0,0,-1,0,841.92)" d="M 361.75 84.384 L 403.87 84.384 L 403.87 132.62401 L 361.75 132.62401 Z " fill-rule="evenodd"/>
</clipPath>
<g clip-path="url(#cp23931)">
<g id="Layer-1" data-name="P">
<clipPath id="cp23932">
<path transform="matrix(1,0,0,-1,0,841.92)" d="M 361.75 84.384 L 403.87 84.384 L 403.87 132.62401 L 361.75 132.62401 Z " fill-rule="evenodd"/>
</clipPath>
<g clip-path="url(#cp23932)">
<text xml:space="preserve" transform="matrix(1 0 -0 1 0 841.92)" font-size="14.04" font-family="Times New Roman"><tspan y="-103.82" x="375.91">&#x041a;</tspan></text>
</g>
<clipPath id="cp23933">
<path transform="matrix(1,0,0,-1,0,841.92)" d="M 361.75 84.384 L 403.87 84.384 L 403.87 132.62401 L 361.75 132.62401 Z " fill-rule="evenodd"/>
</clipPath>
<g clip-path="url(#cp23933)">
<text xml:space="preserve" transform="matrix(1 0 -0 1 0 841.92)" font-size="9" font-family="Times New Roman"><tspan y="-102.26" x="385.27">2</tspan></text>
</g>
</g>
<g id="Layer-1" data-name="P">
<clipPath id="cp23934">
<path transform="matrix(1,0,0,-1,0,841.92)" d="M 361.75 84.384 L 403.87 84.384 L 403.87 132.62401 L 361.75 132.62401 Z " fill-rule="evenodd"/>
</clipPath>
<g clip-path="url(#cp23934)">
<text xml:space="preserve" transform="matrix(1 0 -0 1 0 841.92)" font-size="14.04" font-family="Times New Roman"><tspan y="-103.82" x="389.71"> </tspan></text>
</g>
</g>
</g>
<clipPath id="cp23935">
<path transform="matrix(1,0,0,-1,0,841.92)" d="M 404.35 84.384 L 446.374 84.384 L 446.374 132.62401 L 404.35 132.62401 Z " fill-rule="evenodd"/>
</clipPath>
<g clip-path="url(#cp23935)">
<g id="Layer-1" data-name="P">
<clipPath id="cp23936">
<path transform="matrix(1,0,0,-1,0,841.92)" d="M 404.35 84.384 L 446.374 84.384 L 446.374 132.62401 L 404.35 132.62401 Z " fill-rule="evenodd"/>
</clipPath>
<g clip-path="url(#cp23936)">
<text xml:space="preserve" transform="matrix(1 0 -0 1 0 841.92)" font-size="14.04" font-family="Times New Roman"><tspan y="-103.82" x="418.39">&#x041a;</tspan></text>
</g>
<clipPath id="cp23937">
<path transform="matrix(1,0,0,-1,0,841.92)" d="M 404.35 84.384 L 446.374 84.384 L 446.374 132.62401 L 404.35 132.62401 Z " fill-rule="evenodd"/>
</clipPath>
<g clip-path="url(#cp23937)">
<text xml:space="preserve" transform="matrix(1 0 -0 1 0 841.92)" font-size="9" font-family="Times New Roman"><tspan y="-102.26" x="427.75">3</tspan></text>
</g>
<clipPath id="cp23938">
<path transform="matrix(1,0,0,-1,0,841.92)" d="M 404.35 84.384 L 446.374 84.384 L 446.374 132.62401 L 404.35 132.62401 Z " fill-rule="evenodd"/>
</clipPath>
<g clip-path="url(#cp23938)">
<text xml:space="preserve" transform="matrix(1 0 -0 1 0 841.92)" font-size="14.04" font-family="Times New Roman"><tspan y="-103.82" x="432.19"> </tspan></text>
</g>
</g>
</g>
<g id="Layer-1" data-name="P">
<clipPath id="cp23939">
<path transform="matrix(1,0,0,-1,0,841.92)" d="M 446.86 84.384 L 483.21998 84.384 L 483.21998 132.62401 L 446.86 132.62401 Z " fill-rule="evenodd"/>
</clipPath>
<g clip-path="url(#cp23939)">
<text xml:space="preserve" transform="matrix(1 0 -0 1 0 841.92)" font-size="14.04" font-family="Times New Roman"><tspan y="-111.86" x="460.06">&#x041f;</tspan></text>
</g>
<clipPath id="cp23940">
<path transform="matrix(1,0,0,-1,0,841.92)" d="M 446.86 84.384 L 483.21998 84.384 L 483.21998 132.62401 L 446.86 132.62401 Z " fill-rule="evenodd"/>
</clipPath>
<g clip-path="url(#cp23940)">
<text xml:space="preserve" transform="matrix(1 0 -0 1 0 841.92)" font-size="14.04" font-family="Times New Roman"><tspan y="-111.86" x="470.14"> </tspan></text>
</g>
</g>
<g id="Layer-1" data-name="P">
<clipPath id="cp23941">
<path transform="matrix(1,0,0,-1,0,841.92)" d="M 446.86 84.384 L 483.21998 84.384 L 483.21998 132.62401 L 446.86 132.62401 Z " fill-rule="evenodd"/>
</clipPath>
<g clip-path="url(#cp23941)">
<text xml:space="preserve" transform="matrix(1 0 -0 1 0 841.92)" font-size="14.04" font-family="Times New Roman"><tspan y="-95.784" x="465.1"> </tspan></text>
</g>
<clipPath id="cp23942">
<path transform="matrix(1,0,0,-1,0,841.92)" d="M .000008871 0 L 595.32 0 L 595.32 841.92 L .000008871 841.92 Z " fill-rule="evenodd"/>
</clipPath>
<g clip-path="url(#cp23942)">
</g>
</g>
<clipPath id="cp23943">
<path transform="matrix(1,0,0,-1,0,841.92)" d="M 483.7 84.384 L 559.78 84.384 L 559.78 132.62401 L 483.7 132.62401 Z " fill-rule="evenodd"/>
</clipPath>
<g clip-path="url(#cp23943)">
<g id="Layer-1" data-name="P">
<clipPath id="cp23944">
<path transform="matrix(1,0,0,-1,0,841.92)" d="M 483.7 84.384 L 559.78 84.384 L 559.78 132.62401 L 483.7 132.62401 Z " fill-rule="evenodd"/>
</clipPath>
<g clip-path="url(#cp23944)">
<text xml:space="preserve" transform="matrix(1 0 -0 1 0 841.92)" font-size="14.04" font-family="Times New Roman"><tspan y="-103.82" x="512.38 521.7447 529.2842">&#x0421;&#x043d; </tspan></text>
</g>
<clipPath id="cp23945">
<path transform="matrix(1,0,0,-1,0,841.92)" d="M 483.7 84.384 L 559.78 84.384 L 559.78 132.62401 L 483.7 132.62401 Z " fill-rule="evenodd"/>
</clipPath>
<g clip-path="url(#cp23945)">
<text xml:space="preserve" transform="matrix(1 0 -0 1 0 841.92)" font-size="14.04" font-family="Times New Roman"><tspan y="-103.82" x="532.66"> </tspan></text>
</g>
</g>
</g>
<g id="Layer-1" data-name="P">
<path transform="matrix(1,0,0,-1,0,841.92)" d="M 79.464 132.62 L 79.944 132.62 L 79.944 133.10004 L 79.464 133.10004 Z " fill-rule="evenodd"/>
<path transform="matrix(1,0,0,-1,0,841.92)" d="M 79.464 132.62 L 79.944 132.62 L 79.944 133.10004 L 79.464 133.10004 Z " fill-rule="evenodd"/>
<path transform="matrix(1,0,0,-1,0,841.92)" d="M 79.944 132.62 L 213.884 132.62 L 213.884 133.10004 L 79.944 133.10004 Z " fill-rule="evenodd"/>
<path transform="matrix(1,0,0,-1,0,841.92)" d="M 213.89 132.62 L 214.37 132.62 L 214.37 133.10004 L 213.89 133.10004 Z " fill-rule="evenodd"/>
<path transform="matrix(1,0,0,-1,0,841.92)" d="M 214.37 132.62 L 277.72999 132.62 L 277.72999 133.10004 L 214.37 133.10004 Z " fill-rule="evenodd"/>
<path transform="matrix(1,0,0,-1,0,841.92)" d="M 277.73 132.62 L 278.21003 132.62 L 278.21003 133.10004 L 277.73 133.10004 Z " fill-rule="evenodd"/>
<path transform="matrix(1,0,0,-1,0,841.92)" d="M 278.21 132.62 L 318.794 132.62 L 318.794 133.10004 L 278.21 133.10004 Z " fill-rule="evenodd"/>
<path transform="matrix(1,0,0,-1,0,841.92)" d="M 318.79 132.62 L 319.27003 132.62 L 319.27003 133.10004 L 318.79 133.10004 Z " fill-rule="evenodd"/>
<path transform="matrix(1,0,0,-1,0,841.92)" d="M 319.27 132.62 L 361.27 132.62 L 361.27 133.10004 L 319.27 133.10004 Z " fill-rule="evenodd"/>
<path transform="matrix(1,0,0,-1,0,841.92)" d="M 361.27 132.62 L 361.75 132.62 L 361.75 133.10004 L 361.27 133.10004 Z " fill-rule="evenodd"/>
<path transform="matrix(1,0,0,-1,0,841.92)" d="M 361.75 132.62 L 403.87 132.62 L 403.87 133.10004 L 361.75 133.10004 Z " fill-rule="evenodd"/>
<path transform="matrix(1,0,0,-1,0,841.92)" d="M 403.87 132.62 L 404.34999 132.62 L 404.34999 133.10004 L 403.87 133.10004 Z " fill-rule="evenodd"/>
<path transform="matrix(1,0,0,-1,0,841.92)" d="M 404.35 132.62 L 446.374 132.62 L 446.374 133.10004 L 404.35 133.10004 Z " fill-rule="evenodd"/>
<path transform="matrix(1,0,0,-1,0,841.92)" d="M 446.38 132.62 L 446.86003 132.62 L 446.86003 133.10004 L 446.38 133.10004 Z " fill-rule="evenodd"/>
<path transform="matrix(1,0,0,-1,0,841.92)" d="M 446.86 132.62 L 483.34 132.62 L 483.34 133.10004 L 446.86 133.10004 Z " fill-rule="evenodd"/>
<path transform="matrix(1,0,0,-1,0,841.92)" d="M 483.34 132.62 L 483.82 132.62 L 483.82 133.10004 L 483.34 133.10004 Z " fill-rule="evenodd"/>
<path transform="matrix(1,0,0,-1,0,841.92)" d="M 483.82 132.62 L 559.9 132.62 L 559.9 133.10004 L 483.82 133.10004 Z " fill-rule="evenodd"/>
<path transform="matrix(1,0,0,-1,0,841.92)" d="M 559.9 132.62 L 560.38 132.62 L 560.38 133.10004 L 559.9 133.10004 Z " fill-rule="evenodd"/>
<path transform="matrix(1,0,0,-1,0,841.92)" d="M 559.9 132.62 L 560.38 132.62 L 560.38 133.10004 L 559.9 133.10004 Z " fill-rule="evenodd"/>
<path transform="matrix(1,0,0,-1,0,841.92)" d="M 79.464 84.384 L 79.944 84.384 L 79.944 132.62401 L 79.464 132.62401 Z " fill-rule="evenodd"/>
<path transform="matrix(1,0,0,-1,0,841.92)" d="M 213.89 84.384 L 214.37 84.384 L 214.37 132.62401 L 213.89 132.62401 Z " fill-rule="evenodd"/>
<path transform="matrix(1,0,0,-1,0,841.92)" d="M 277.73 84.384 L 278.21003 84.384 L 278.21003 132.62401 L 277.73 132.62401 Z " fill-rule="evenodd"/>
<path transform="matrix(1,0,0,-1,0,841.92)" d="M 318.79 84.384 L 319.27003 84.384 L 319.27003 132.62401 L 318.79 132.62401 Z " fill-rule="evenodd"/>
<path transform="matrix(1,0,0,-1,0,841.92)" d="M 361.27 84.384 L 361.75 84.384 L 361.75 132.62401 L 361.27 132.62401 Z " fill-rule="evenodd"/>
<path transform="matrix(1,0,0,-1,0,841.92)" d="M 403.87 84.384 L 404.34999 84.384 L 404.34999 132.62401 L 403.87 132.62401 Z " fill-rule="evenodd"/>
<path transform="matrix(1,0,0,-1,0,841.92)" d="M 446.38 84.384 L 446.86003 84.384 L 446.86003 132.62401 L 446.38 132.62401 Z " fill-rule="evenodd"/>
<path transform="matrix(1,0,0,-1,0,841.92)" d="M 483.34 84.384 L 483.82 84.384 L 483.82 132.62401 L 483.34 132.62401 Z " fill-rule="evenodd"/>
<path transform="matrix(1,0,0,-1,0,841.92)" d="M 559.9 84.384 L 560.38 84.384 L 560.38 132.62401 L 559.9 132.62401 Z " fill-rule="evenodd"/>
</g>
<clipPath id="cp23946">
<path transform="matrix(1,0,0,-1,0,841.92)" d="M 79.944 67.704 L 213.884 67.704 L 213.884 83.784008 L 79.944 83.784008 Z " fill-rule="evenodd"/>
</clipPath>
<g clip-path="url(#cp23946)">
<g id="Layer-1" data-name="P">
<clipPath id="cp23947">
<path transform="matrix(1,0,0,-1,0,841.92)" d="M 79.944 67.704 L 213.884 67.704 L 213.884 83.784008 L 79.944 83.784008 Z " fill-rule="evenodd"/>
</clipPath>
<g clip-path="url(#cp23947)">
<text xml:space="preserve" transform="matrix(1 0 -0 1 0 841.92)" font-size="14.04" font-family="Times New Roman"><tspan y="-71.064" x="114.14 122.66228 129.7244 135.12979 142.19191 149.15575 156.21787 160.06482 166.29859 172.42003 179.48215">Toshxujaev </tspan></text>
</g>
</g>
</g>
<clipPath id="cp23948">
<path transform="matrix(1,0,0,-1,0,841.92)" d="M 214.37 67.704 L 277.61 67.704 L 277.61 83.784008 L 214.37 83.784008 Z " fill-rule="evenodd"/>
</clipPath>
<g clip-path="url(#cp23948)">
<g id="Layer-1" data-name="P">
<clipPath id="cp23949">
<path transform="matrix(1,0,0,-1,0,841.92)" d="M 214.37 67.704 L 277.61 67.704 L 277.61 83.784008 L 214.37 83.784008 Z " fill-rule="evenodd"/>
</clipPath>
<g clip-path="url(#cp23949)">
<text xml:space="preserve" transform="matrix(1 0 -0 1 0 841.92)" font-size="12" font-family="Times New Roman"><tspan y="-71.904" x="235.49 241.49 247.49 250.49">65,1</tspan></text>
</g>
<clipPath id="cp23950">
<path transform="matrix(1,0,0,-1,0,841.92)" d="M 214.37 67.704 L 277.61 67.704 L 277.61 83.784008 L 214.37 83.784008 Z " fill-rule="evenodd"/>
</clipPath>
<g clip-path="url(#cp23950)">
<text xml:space="preserve" transform="matrix(1 0 -0 1 0 841.92)" font-size="12" font-family="Times New Roman"><tspan y="-71.904" x="256.49"> </tspan></text>
</g>
</g>
</g>
<clipPath id="cp23951">
<path transform="matrix(1,0,0,-1,0,841.92)" d="M 278.21 67.704 L 318.794 67.704 L 318.794 83.784008 L 278.21 83.784008 Z " fill-rule="evenodd"/>
</clipPath>
<g clip-path="url(#cp23951)">
<g id="Layer-1" data-name="P">
<clipPath id="cp23952">
<path transform="matrix(1,0,0,-1,0,841.92)" d="M 278.21 67.704 L 318.794 67.704 L 318.794 83.784008 L 278.21 83.784008 Z " fill-rule="evenodd"/>
</clipPath>
<g clip-path="url(#cp23952)">
<text xml:space="preserve" transform="matrix(1 0 -0 1 0 841.92)" font-size="12" font-family="Times New Roman"><tspan y="-71.904" x="292.37 298.37">65</tspan></text>
</g>
<clipPath id="cp23953">
<path transform="matrix(1,0,0,-1,0,841.92)" d="M 278.21 67.704 L 318.794 67.704 L 318.794 83.784008 L 278.21 83.784008 Z " fill-rule="evenodd"/>
</clipPath>
<g clip-path="url(#cp23953)">
<text xml:space="preserve" transform="matrix(1 0 -0 1 0 841.92)" font-size="12" font-family="Times New Roman"><tspan y="-71.904" x="304.37"> </tspan></text>
</g>
</g>
</g>
<clipPath id="cp23954">
<path transform="matrix(1,0,0,-1,0,841.92)" d="M 319.27 67.704 L 361.27 67.704 L 361.27 83.784008 L 319.27 83.784008 Z " fill-rule="evenodd"/>
</clipPath>
<g clip-path="url(#cp23954)">
<g id="Layer-1" data-name="P">
<clipPath id="cp23955">
<path transform="matrix(1,0,0,-1,0,841.92)" d="M 319.27 67.704 L 361.27 67.704 L 361.27 83.784008 L 319.27 83.784008 Z " fill-rule="evenodd"/>
</clipPath>
<g clip-path="url(#cp23955)">
<text xml:space="preserve" transform="matrix(1 0 -0 1 0 841.92)" font-size="12" font-family="Times New Roman"><tspan y="-71.904" x="332.71 338.71 341.71">1,2</tspan></text>
</g>
<clipPath id="cp23956">
<path transform="matrix(1,0,0,-1,0,841.92)" d="M 319.27 67.704 L 361.27 67.704 L 361.27 83.784008 L 319.27 83.784008 Z " fill-rule="evenodd"/>
</clipPath>
<g clip-path="url(#cp23956)">
<text xml:space="preserve" transform="matrix(1 0 -0 1 0 841.92)" font-size="12" font-family="Times New Roman"><tspan y="-71.904" x="347.71"> </tspan></text>
</g>
</g>
</g>
<clipPath id="cp23957">
<path transform="matrix(1,0,0,-1,0,841.92)" d="M 361.75 67.704 L 403.87 67.704 L 403.87 83.784008 L 361.75 83.784008 Z " fill-rule="evenodd"/>
</clipPath>
<g clip-path="url(#cp23957)">
<g id="Layer-1" data-name="P">
<clipPath id="cp23958">
<path transform="matrix(1,0,0,-1,0,841.92)" d="M 361.75 67.704 L 403.87 67.704 L 403.87 83.784008 L 361.75 83.784008 Z " fill-rule="evenodd"/>
</clipPath>
<g clip-path="url(#cp23958)">
<text xml:space="preserve" transform="matrix(1 0 -0 1 0 841.92)" font-size="12" font-family="Times New Roman"><tspan y="-71.904" x="369.31 375.31 378.31 384.31 390.31">0,883</tspan></text>
</g>
<clipPath id="cp23959">
<path transform="matrix(1,0,0,-1,0,841.92)" d="M 361.75 67.704 L 403.87 67.704 L 403.87 83.784008 L 361.75 83.784008 Z " fill-rule="evenodd"/>
</clipPath>
<g clip-path="url(#cp23959)">
<text xml:space="preserve" transform="matrix(1 0 -0 1 0 841.92)" font-size="12" font-family="Times New Roman"><tspan y="-71.904" x="396.31"> </tspan></text>
</g>
</g>
</g>
<clipPath id="cp23960">
<path transform="matrix(1,0,0,-1,0,841.92)" d="M 404.35 67.704 L 446.374 67.704 L 446.374 83.784008 L 404.35 83.784008 Z " fill-rule="evenodd"/>
</clipPath>
<g clip-path="url(#cp23960)">
<g id="Layer-1" data-name="P">
<clipPath id="cp23961">
<path transform="matrix(1,0,0,-1,0,841.92)" d="M 404.35 67.704 L 446.374 67.704 L 446.374 83.784008 L 404.35 83.784008 Z " fill-rule="evenodd"/>
</clipPath>
<g clip-path="url(#cp23961)">
<text xml:space="preserve" transform="matrix(1 0 -0 1 0 841.92)" font-size="12" font-family="Times New Roman"><tspan y="-71.904" x="411.79 417.79 420.79 426.79 432.79">0,948</tspan></text>
</g>
<clipPath id="cp23962">
<path transform="matrix(1,0,0,-1,0,841.92)" d="M 404.35 67.704 L 446.374 67.704 L 446.374 83.784008 L 404.35 83.784008 Z " fill-rule="evenodd"/>
</clipPath>
<g clip-path="url(#cp23962)">
<text xml:space="preserve" transform="matrix(1 0 -0 1 0 841.92)" font-size="12" font-family="Times New Roman"><tspan y="-71.904" x="438.79"> </tspan></text>
</g>
</g>
</g>
<clipPath id="cp23963">
<path transform="matrix(1,0,0,-1,0,841.92)" d="M 446.86 67.704 L 483.21998 67.704 L 483.21998 83.784008 L 446.86 83.784008 Z " fill-rule="evenodd"/>
</clipPath>
<g clip-path="url(#cp23963)">
<g id="Layer-1" data-name="P">
<clipPath id="cp23964">
<path transform="matrix(1,0,0,-1,0,841.92)" d="M 446.86 67.704 L 483.21998 67.704 L 483.21998 83.784008 L 446.86 83.784008 Z " fill-rule="evenodd"/>
</clipPath>
<g clip-path="url(#cp23964)">
<text xml:space="preserve" transform="matrix(1 0 -0 1 0 841.92)" font-size="12" font-family="Times New Roman"><tspan y="-71.904" x="459.1 465.1">68</tspan></text>
</g>
<clipPath id="cp23965">
<path transform="matrix(1,0,0,-1,0,841.92)" d="M 446.86 67.704 L 483.21998 67.704 L 483.21998 83.784008 L 446.86 83.784008 Z " fill-rule="evenodd"/>
</clipPath>
<g clip-path="url(#cp23965)">
<text xml:space="preserve" transform="matrix(1 0 -0 1 0 841.92)" font-size="12" font-family="Times New Roman"><tspan y="-71.904" x="471.1"> </tspan></text>
</g>
</g>
</g>
<clipPath id="cp23966">
<path transform="matrix(1,0,0,-1,0,841.92)" d="M 483.7 67.704 L 559.78 67.704 L 559.78 83.784008 L 483.7 83.784008 Z " fill-rule="evenodd"/>
</clipPath>
<g clip-path="url(#cp23966)">
<g id="Layer-1" data-name="P">
<clipPath id="cp23967">
<path transform="matrix(1,0,0,-1,0,841.92)" d="M 483.7 67.704 L 559.78 67.704 L 559.78 83.784008 L 483.7 83.784008 Z " fill-rule="evenodd"/>
</clipPath>
<g clip-path="url(#cp23967)">
<text xml:space="preserve" transform="matrix(1 0 -0 1 0 841.92)" font-size="12" font-family="Times New Roman"><tspan y="-71.904" x="491.02 497.02 503.02 509.02 515.02 521.02 527.02 533.02 536.02 542.02 548.02">1090093,859</tspan></text>
</g>
<clipPath id="cp23968">
<path transform="matrix(1,0,0,-1,0,841.92)" d="M 483.7 67.704 L 559.78 67.704 L 559.78 83.784008 L 483.7 83.784008 Z " fill-rule="evenodd"/>
</clipPath>
<g clip-path="url(#cp23968)">
<text xml:space="preserve" transform="matrix(1 0 -0 1 0 841.92)" font-size="12" font-family="Times New Roman"><tspan y="-71.904" x="554.02"> </tspan></text>
</g>
</g>
</g>
<g id="Layer-1" data-name="P">
<path transform="matrix(1,0,0,-1,0,841.92)" d="M 79.464 83.904 L 79.944 83.904 L 79.944 84.38398 L 79.464 84.38398 Z " fill-rule="evenodd"/>
<path transform="matrix(1,0,0,-1,0,841.92)" d="M 79.944 83.904 L 213.884 83.904 L 213.884 84.38398 L 79.944 84.38398 Z " fill-rule="evenodd"/>
<path transform="matrix(1,0,0,-1,0,841.92)" d="M 213.89 83.904 L 214.37 83.904 L 214.37 84.38398 L 213.89 84.38398 Z " fill-rule="evenodd"/>
<path transform="matrix(1,0,0,-1,0,841.92)" d="M 214.37 83.904 L 277.72999 83.904 L 277.72999 84.38398 L 214.37 84.38398 Z " fill-rule="evenodd"/>
<path transform="matrix(1,0,0,-1,0,841.92)" d="M 277.73 83.904 L 278.21003 83.904 L 278.21003 84.38398 L 277.73 84.38398 Z " fill-rule="evenodd"/>
<path transform="matrix(1,0,0,-1,0,841.92)" d="M 278.21 83.904 L 318.794 83.904 L 318.794 84.38398 L 278.21 84.38398 Z " fill-rule="evenodd"/>
<path transform="matrix(1,0,0,-1,0,841.92)" d="M 318.79 83.904 L 319.27003 83.904 L 319.27003 84.38398 L 318.79 84.38398 Z " fill-rule="evenodd"/>
<path transform="matrix(1,0,0,-1,0,841.92)" d="M 319.27 83.904 L 361.27 83.904 L 361.27 84.38398 L 319.27 84.38398 Z " fill-rule="evenodd"/>
<path transform="matrix(1,0,0,-1,0,841.92)" d="M 361.27 83.904 L 361.75 83.904 L 361.75 84.38398 L 361.27 84.38398 Z " fill-rule="evenodd"/>
<path transform="matrix(1,0,0,-1,0,841.92)" d="M 361.75 83.904 L 403.87 83.904 L 403.87 84.38398 L 361.75 84.38398 Z " fill-rule="evenodd"/>
<path transform="matrix(1,0,0,-1,0,841.92)" d="M 403.87 83.904 L 404.34999 83.904 L 404.34999 84.38398 L 403.87 84.38398 Z " fill-rule="evenodd"/>
<path transform="matrix(1,0,0,-1,0,841.92)" d="M 404.35 83.904 L 446.374 83.904 L 446.374 84.38398 L 404.35 84.38398 Z " fill-rule="evenodd"/>
<path transform="matrix(1,0,0,-1,0,841.92)" d="M 446.38 83.904 L 446.86003 83.904 L 446.86003 84.38398 L 446.38 84.38398 Z " fill-rule="evenodd"/>
<path transform="matrix(1,0,0,-1,0,841.92)" d="M 446.86 83.904 L 483.34 83.904 L 483.34 84.38398 L 446.86 84.38398 Z " fill-rule="evenodd"/>
<path transform="matrix(1,0,0,-1,0,841.92)" d="M 483.34 83.904 L 483.82 83.904 L 483.82 84.38398 L 483.34 84.38398 Z " fill-rule="evenodd"/>
<path transform="matrix(1,0,0,-1,0,841.92)" d="M 483.82 83.904 L 559.9 83.904 L 559.9 84.38398 L 483.82 84.38398 Z " fill-rule="evenodd"/>
<path transform="matrix(1,0,0,-1,0,841.92)" d="M 559.9 83.904 L 560.38 83.904 L 560.38 84.38398 L 559.9 84.38398 Z " fill-rule="evenodd"/>
<path transform="matrix(1,0,0,-1,0,841.92)" d="M 79.464 67.704 L 79.944 67.704 L 79.944 83.90401 L 79.464 83.90401 Z " fill-rule="evenodd"/>
<path transform="matrix(1,0,0,-1,0,841.92)" d="M 79.464 67.224 L 79.944 67.224 L 79.944 67.70398 L 79.464 67.70398 Z " fill-rule="evenodd"/>
<path transform="matrix(1,0,0,-1,0,841.92)" d="M 79.464 67.224 L 79.944 67.224 L 79.944 67.70398 L 79.464 67.70398 Z " fill-rule="evenodd"/>
<path transform="matrix(1,0,0,-1,0,841.92)" d="M 79.944 67.224 L 213.884 67.224 L 213.884 67.70398 L 79.944 67.70398 Z " fill-rule="evenodd"/>
<path transform="matrix(1,0,0,-1,0,841.92)" d="M 213.89 67.704 L 214.37 67.704 L 214.37 83.90401 L 213.89 83.90401 Z " fill-rule="evenodd"/>
<path transform="matrix(1,0,0,-1,0,841.92)" d="M 213.89 67.224 L 214.37 67.224 L 214.37 67.70398 L 213.89 67.70398 Z " fill-rule="evenodd"/>
<path transform="matrix(1,0,0,-1,0,841.92)" d="M 214.37 67.224 L 277.72999 67.224 L 277.72999 67.70398 L 214.37 67.70398 Z " fill-rule="evenodd"/>
<path transform="matrix(1,0,0,-1,0,841.92)" d="M 277.73 67.704 L 278.21003 67.704 L 278.21003 83.90401 L 277.73 83.90401 Z " fill-rule="evenodd"/>
<path transform="matrix(1,0,0,-1,0,841.92)" d="M 277.73 67.224 L 278.21003 67.224 L 278.21003 67.70398 L 277.73 67.70398 Z " fill-rule="evenodd"/>
<path transform="matrix(1,0,0,-1,0,841.92)" d="M 278.21 67.224 L 318.794 67.224 L 318.794 67.70398 L 278.21 67.70398 Z " fill-rule="evenodd"/>
<path transform="matrix(1,0,0,-1,0,841.92)" d="M 318.79 67.704 L 319.27003 67.704 L 319.27003 83.90401 L 318.79 83.90401 Z " fill-rule="evenodd"/>
<path transform="matrix(1,0,0,-1,0,841.92)" d="M 318.79 67.224 L 319.27003 67.224 L 319.27003 67.70398 L 318.79 67.70398 Z " fill-rule="evenodd"/>
<path transform="matrix(1,0,0,-1,0,841.92)" d="M 319.27 67.224 L 361.27 67.224 L 361.27 67.70398 L 319.27 67.70398 Z " fill-rule="evenodd"/>
<path transform="matrix(1,0,0,-1,0,841.92)" d="M 361.27 67.704 L 361.75 67.704 L 361.75 83.90401 L 361.27 83.90401 Z " fill-rule="evenodd"/>
<path transform="matrix(1,0,0,-1,0,841.92)" d="M 361.27 67.224 L 361.75 67.224 L 361.75 67.70398 L 361.27 67.70398 Z " fill-rule="evenodd"/>
<path transform="matrix(1,0,0,-1,0,841.92)" d="M 361.75 67.224 L 403.87 67.224 L 403.87 67.70398 L 361.75 67.70398 Z " fill-rule="evenodd"/>
<path transform="matrix(1,0,0,-1,0,841.92)" d="M 403.87 67.704 L 404.34999 67.704 L 404.34999 83.90401 L 403.87 83.90401 Z " fill-rule="evenodd"/>
<path transform="matrix(1,0,0,-1,0,841.92)" d="M 403.87 67.224 L 404.34999 67.224 L 404.34999 67.70398 L 403.87 67.70398 Z " fill-rule="evenodd"/>
<path transform="matrix(1,0,0,-1,0,841.92)" d="M 404.35 67.224 L 446.374 67.224 L 446.374 67.70398 L 404.35 67.70398 Z " fill-rule="evenodd"/>
<path transform="matrix(1,0,0,-1,0,841.92)" d="M 446.38 67.704 L 446.86003 67.704 L 446.86003 83.90401 L 446.38 83.90401 Z " fill-rule="evenodd"/>
<path transform="matrix(1,0,0,-1,0,841.92)" d="M 446.38 67.224 L 446.86003 67.224 L 446.86003 67.70398 L 446.38 67.70398 Z " fill-rule="evenodd"/>
<path transform="matrix(1,0,0,-1,0,841.92)" d="M 446.86 67.224 L 483.34 67.224 L 483.34 67.70398 L 446.86 67.70398 Z " fill-rule="evenodd"/>
<path transform="matrix(1,0,0,-1,0,841.92)" d="M 483.34 67.704 L 483.82 67.704 L 483.82 83.90401 L 483.34 83.90401 Z " fill-rule="evenodd"/>
<path transform="matrix(1,0,0,-1,0,841.92)" d="M 483.34 67.224 L 483.82 67.224 L 483.82 67.70398 L 483.34 67.70398 Z " fill-rule="evenodd"/>
<path transform="matrix(1,0,0,-1,0,841.92)" d="M 483.82 67.224 L 559.9 67.224 L 559.9 67.70398 L 483.82 67.70398 Z " fill-rule="evenodd"/>
<path transform="matrix(1,0,0,-1,0,841.92)" d="M 559.9 67.704 L 560.38 67.704 L 560.38 83.90401 L 559.9 83.90401 Z " fill-rule="evenodd"/>
<path transform="matrix(1,0,0,-1,0,841.92)" d="M 559.9 67.224 L 560.38 67.224 L 560.38 67.70398 L 559.9 67.70398 Z " fill-rule="evenodd"/>
<path transform="matrix(1,0,0,-1,0,841.92)" d="M 559.9 67.224 L 560.38 67.224 L 560.38 67.70398 L 559.9 67.70398 Z " fill-rule="evenodd"/>
</g>
</g>
</g>
</svg>
