<?xml version="1.0" encoding="UTF-8" standalone="no"?>
<!DOCTYPE svg PUBLIC "-//W3C//DTD SVG 1.1//EN" "http://www.w3.org/Graphics/SVG/1.1/DTD/svg11.dtd">
<svg xmlns="http://www.w3.org/2000/svg" xmlns:xlink="http://www.w3.org/1999/xlink" version="1.1" width="595.32pt" height="841.92pt" viewBox="0 0 595.32 841.92">
<g enable-background="new">
<g>
<g id="Layer-1" data-name="Artifact">
<clipPath id="cp25257">
<path transform="matrix(1,0,0,-1,0,841.92)" d="M .000008871 0 L 595.32 0 L 595.32 841.92 L .000008871 841.92 Z " fill-rule="evenodd"/>
</clipPath>
<g clip-path="url(#cp25257)">
<text xml:space="preserve" transform="matrix(1 0 -0 1 0 841.92)" font-size="11.04" font-family="Calibri"><tspan y="-51.864" x="314.09 319.72999 325.36997">156</tspan></text>
</g>
<clipPath id="cp25258">
<path transform="matrix(1,0,0,-1,0,841.92)" d="M .000008871 0 L 595.32 0 L 595.32 841.92 L .000008871 841.92 Z " fill-rule="evenodd"/>
</clipPath>
<g clip-path="url(#cp25258)">
<text xml:space="preserve" transform="matrix(1 0 -0 1 0 841.92)" font-size="11.04" font-family="Calibri"><tspan y="-51.864" x="331.03"> </tspan></text>
</g>
<clipPath id="cp25259">
<path transform="matrix(1,0,0,-1,0,841.92)" d="M .000008871 0 L 595.32 0 L 595.32 841.92 L .000008871 841.92 Z " fill-rule="evenodd"/>
</clipPath>
<g clip-path="url(#cp25259)">
</g>
<clipPath id="cp25260">
<path transform="matrix(1,0,0,-1,0,841.92)" d="M .000008871 0 L 595.32 0 L 595.32 841.92 L .000008871 841.92 Z " fill-rule="evenodd"/>
</clipPath>
<g clip-path="url(#cp25260)">
<text xml:space="preserve" transform="matrix(1 0 -0 1 0 841.92)" font-size="11.04" font-family="Calibri"><tspan y="-38.4" x="85.104"> </tspan></text>
</g>
<clipPath id="cp25261">
<path transform="matrix(1,0,0,-1,0,841.92)" d="M .000008871 0 L 595.32 0 L 595.32 841.92 L .000008871 841.92 Z " fill-rule="evenodd"/>
</clipPath>
<g clip-path="url(#cp25261)">
</g>
</g>
<g id="Layer-1" data-name="P">
<clipPath id="cp25262">
<path transform="matrix(1,0,0,-1,0,841.92)" d="M .000008871 0 L 595.32 0 L 595.32 841.92 L .000008871 841.92 Z " fill-rule="evenodd"/>
</clipPath>
<g clip-path="url(#cp25262)">
<text xml:space="preserve" transform="matrix(1 0 -0 1 0 841.92)" font-size="14.04" font-family="Times New Roman"><tspan y="-772.56" x="113.42 120.48212 127.544239 131.05423">48. </tspan></text>
</g>
<clipPath id="cp25263">
<path transform="matrix(1,0,0,-1,0,841.92)" d="M .000008871 0 L 595.32 0 L 595.32 841.92 L .000008871 841.92 Z " fill-rule="evenodd"/>
</clipPath>
<g clip-path="url(#cp25263)">
<text xml:space="preserve" transform="matrix(1 0 -0 1 0 841.92)" font-size="14.04" font-family="Times New Roman"><tspan y="-772.56" x="137.9 145.70624 150.38156 156.503 162.73677 168.97054 175.94843 179.89366 186.0151 189.96035 195.36574 199.31098 206.14846 212.38222 219.2197 223.89502 227.84026 233.9617 241.02382 247.98766 251.93289 262.61735 269.67945 273.62467 278.3 285.13749 292.1996 298.321 305.38313 311.50456 318.56666 325.5305 331.76426 338.60176 345.56559 349.41255 360.2093 366.44306 373.5192 377.46443 384.28788 388.13484 395.19694 400.60234 407.56617 414.62828 421.5921 427.82588 433.23127 437.17649 443.2979 449.644 456.46748 466.4218 473.48393 480.44776 486.68153 493.75767 500.46879 507.53089 513.76467 520.6162 526.85 531.52529 535.48458 541.7183 546.3936 553.3715 559.6053">Prezentatsiya (taqdimot) deganda nimani tushunasiz? Undan qayerlarda </tspan></text>
</g>
<clipPath id="cp25264">
<path transform="matrix(1,0,0,-1,0,841.92)" d="M .000008871 0 L 595.32 0 L 595.32 841.92 L .000008871 841.92 Z " fill-rule="evenodd"/>
</clipPath>
<g clip-path="url(#cp25264)">
<text xml:space="preserve" transform="matrix(1 0 -0 1 0 841.92)" font-size="14.04" font-family="Times New Roman"><tspan y="-748.3" x="85.104 89.77932 96.85548 103.692958 110.75507 116.98883 120.934078 127.05551 134.11763 137.96459 143.36998 150.4321 153.9421 164.59847 171.78696 182.4714 189.53353 193.47876 200.4426">foydalanish mumkin?</tspan></text>
</g>
<clipPath id="cp25265">
<path transform="matrix(1,0,0,-1,0,841.92)" d="M .000008871 0 L 595.32 0 L 595.32 841.92 L .000008871 841.92 Z " fill-rule="evenodd"/>
</clipPath>
<g clip-path="url(#cp25265)">
<text xml:space="preserve" transform="matrix(1 0 -0 1 0 841.92)" font-size="14.04" font-family="Times New Roman"><tspan y="-748.3" x="206.81"> </tspan></text>
</g>
</g>
<g id="Layer-1" data-name="P">
<clipPath id="cp25266">
<path transform="matrix(1,0,0,-1,0,841.92)" d="M .000008871 0 L 595.32 0 L 595.32 841.92 L .000008871 841.92 Z " fill-rule="evenodd"/>
</clipPath>
<g clip-path="url(#cp25266)">
<text xml:space="preserve" transform="matrix(1 0 -0 1 0 841.92)" font-size="14.04" font-family="Times New Roman"><tspan y="-724.18" x="113.42 120.48212 127.544239 131.05423">49. </tspan></text>
</g>
<clipPath id="cp25267">
<path transform="matrix(1,0,0,-1,0,841.92)" d="M .000008871 0 L 595.32 0 L 595.32 841.92 L .000008871 841.92 Z " fill-rule="evenodd"/>
</clipPath>
<g clip-path="url(#cp25267)">
<text xml:space="preserve" transform="matrix(1 0 -0 1 0 841.92)" font-size="14.04" font-family="Times New Roman"><tspan y="-724.18" x="134.54"> </tspan></text>
</g>
<clipPath id="cp25268">
<path transform="matrix(1,0,0,-1,0,841.92)" d="M .000008871 0 L 595.32 0 L 595.32 841.92 L .000008871 841.92 Z " fill-rule="evenodd"/>
</clipPath>
<g clip-path="url(#cp25268)">
<text xml:space="preserve" transform="matrix(1 0 -0 1 0 841.92)" font-size="14.04" font-family="Times New Roman"><tspan y="-724.18" x="138.02 150.50157 158.30782 161.81781 169.45557 176.51769 186.5984 192.83217 197.50749 201.01749 208.82373 215.75949 219.60645 226.66857 230.6138 233.96936 241.03148 247.26525 252.67064 256.5176 263.5797 268.25505 272.20027 275.55583 282.61793 288.73936 295.80146 302.7653 308.99906 315.85057 319.36058 323.26368 328.7954 335.75926 342.82136 349.0551 352.56513 356.384 363.4461 368.8515 375.81535 379.76057 384.43589 388.28285 392.22807 398.3495 405.4116 409.25856 415.60466">MS Power Point dasturi qanday ishga tushiriladi? </tspan></text>
</g>
<clipPath id="cp25269">
<path transform="matrix(1,0,0,-1,0,841.92)" d="M .000008871 0 L 595.32 0 L 595.32 841.92 L .000008871 841.92 Z " fill-rule="evenodd"/>
</clipPath>
<g clip-path="url(#cp25269)">
<text xml:space="preserve" transform="matrix(1 0 -0 1 0 841.92)" font-size="14.04" font-family="Times New Roman"><tspan y="-724.18" x="419.23"> </tspan></text>
</g>
</g>
<g id="Layer-1" data-name="P">
<clipPath id="cp25270">
<path transform="matrix(1,0,0,-1,0,841.92)" d="M .000008871 0 L 595.32 0 L 595.32 841.92 L .000008871 841.92 Z " fill-rule="evenodd"/>
</clipPath>
<g clip-path="url(#cp25270)">
<text xml:space="preserve" transform="matrix(1 0 -0 1 0 841.92)" font-size="14.04" font-family="Times New Roman"><tspan y="-700.06" x="113.42">5</tspan></text>
</g>
<clipPath id="cp25271">
<path transform="matrix(1,0,0,-1,0,841.92)" d="M .000008871 0 L 595.32 0 L 595.32 841.92 L .000008871 841.92 Z " fill-rule="evenodd"/>
</clipPath>
<g clip-path="url(#cp25271)">
<text xml:space="preserve" transform="matrix(1 0 -0 1 0 841.92)" font-size="14.04" font-family="Times New Roman"><tspan y="-700.06" x="120.5">0</tspan></text>
</g>
<clipPath id="cp25272">
<path transform="matrix(1,0,0,-1,0,841.92)" d="M .000008871 0 L 595.32 0 L 595.32 841.92 L .000008871 841.92 Z " fill-rule="evenodd"/>
</clipPath>
<g clip-path="url(#cp25272)">
<text xml:space="preserve" transform="matrix(1 0 -0 1 0 841.92)" font-size="14.04" font-family="Times New Roman"><tspan y="-700.06" x="127.58 131.06">. </tspan></text>
</g>
</g>
<g id="Layer-1" data-name="P">
<clipPath id="cp25273">
<path transform="matrix(1,0,0,-1,0,841.92)" d="M .000008871 0 L 595.32 0 L 595.32 841.92 L .000008871 841.92 Z " fill-rule="evenodd"/>
</clipPath>
<g clip-path="url(#cp25273)">
<text xml:space="preserve" transform="matrix(1 0 -0 1 0 841.92)" font-size="14.04" font-family="Times New Roman"><tspan y="-700.06" x="134.54">&#x0422;</tspan></text>
</g>
</g>
<g id="Layer-1" data-name="P">
<clipPath id="cp25274">
<path transform="matrix(1,0,0,-1,0,841.92)" d="M .000008871 0 L 595.32 0 L 595.32 841.92 L .000008871 841.92 Z " fill-rule="evenodd"/>
</clipPath>
<g clip-path="url(#cp25274)">
<text xml:space="preserve" transform="matrix(1 0 -0 1 0 841.92)" font-size="14.04" font-family="Times New Roman"><tspan y="-700.06" x="143.06 149.18144 156.24356 163.2074 167.15264 177.83708 184.8992 188.84444 192.35443 199.16384 205.3976 210.07292 216.30669 220.26598 224.21121 229.61661 236.67873 243.64257 247.48952 254.55164 261.61375 264.9693 272.0314 278.26518 284.3866 291.4487 295.29566 301.52943 305.03944 308.8583 315.9204 320.59574 324.54096 327.8965 334.86036 341.92247 346.48545 352.83155 356.34156 366.3942 370.24116 376.4749 381.15025 388.1281 392.07334 395.58335 399.38819 405.62196 412.5858 418.08946 421.9364 426.61174 430.55696 436.67839 443.74049 447.09605 454.15815 460.3919 465.06724 468.91419 475.9763 483.0384">aqdimot yaratishning nechta turi bor? Ularni tavsiflab bering.</tspan></text>
</g>
</g>
<g id="Layer-1" data-name="P">
<clipPath id="cp25275">
<path transform="matrix(1,0,0,-1,0,841.92)" d="M .000008871 0 L 595.32 0 L 595.32 841.92 L .000008871 841.92 Z " fill-rule="evenodd"/>
</clipPath>
<g clip-path="url(#cp25275)">
<text xml:space="preserve" transform="matrix(1 0 -0 1 0 841.92)" font-size="14.04" font-family="Times New Roman"><tspan y="-700.06" x="486.82"> </tspan></text>
</g>
</g>
<g id="Layer-1" data-name="P">
<clipPath id="cp25276">
<path transform="matrix(1,0,0,-1,0,841.92)" d="M .000008871 0 L 595.32 0 L 595.32 841.92 L .000008871 841.92 Z " fill-rule="evenodd"/>
</clipPath>
<g clip-path="url(#cp25276)">
<text xml:space="preserve" transform="matrix(1 0 -0 1 0 841.92)" font-size="14.04" font-family="Times New Roman"><tspan y="-675.94" x="113.42 120.48212 127.544239 131.05423">51. </tspan></text>
</g>
<clipPath id="cp25277">
<path transform="matrix(1,0,0,-1,0,841.92)" d="M .000008871 0 L 595.32 0 L 595.32 841.92 L .000008871 841.92 Z " fill-rule="evenodd"/>
</clipPath>
<g clip-path="url(#cp25277)">
<text xml:space="preserve" transform="matrix(1 0 -0 1 0 841.92)" font-size="14.04" font-family="Times New Roman"><tspan y="-675.94" x="134.54 146.8952 153.95732 159.36272 163.30796 169.4294 176.39324 180.33847 184.2837 187.7937 192.46903 198.5624 205.52623 209.47147 214.87686 221.93898 228.90282 235.02426 238.53426 242.43738 248.67115 255.69115 262.62693 266.57215 277.2566 284.3187 288.26393 291.77394 298.5833 304.81709 309.4924 315.72618 319.68544 323.63066 329.03605 336.09815 339.60816 346.62815 352.77769 359.83979 366.80363 373.03739 379.8889 383.3989 389.7169 400.40135 406.6351 410.58033 417.64244 423.8762 427.3862 434.4062 439.86775 446.88774 450.79084 455.46617 459.28504 463.23027 469.35169 476.4138 480.26075">Mustaqil ravishda taqdimot yaratish qanday amalga oshiriladi?</tspan></text>
</g>
<clipPath id="cp25278">
<path transform="matrix(1,0,0,-1,0,841.92)" d="M .000008871 0 L 595.32 0 L 595.32 841.92 L .000008871 841.92 Z " fill-rule="evenodd"/>
</clipPath>
<g clip-path="url(#cp25278)">
<text xml:space="preserve" transform="matrix(1 0 -0 1 0 841.92)" font-size="14.04" font-family="Times New Roman"><tspan y="-675.94" x="486.82"> </tspan></text>
</g>
</g>
<g id="Layer-1" data-name="P">
<clipPath id="cp25279">
<path transform="matrix(1,0,0,-1,0,841.92)" d="M .000008871 0 L 595.32 0 L 595.32 841.92 L .000008871 841.92 Z " fill-rule="evenodd"/>
</clipPath>
<g clip-path="url(#cp25279)">
<text xml:space="preserve" transform="matrix(1 0 -0 1 0 841.92)" font-size="14.04" font-family="Times New Roman"><tspan y="-651.7" x="113.42 120.48212 127.544239 131.05423">52. </tspan></text>
</g>
<clipPath id="cp25280">
<path transform="matrix(1,0,0,-1,0,841.92)" d="M .000008871 0 L 595.32 0 L 595.32 841.92 L .000008871 841.92 Z " fill-rule="evenodd"/>
</clipPath>
<g clip-path="url(#cp25280)">
<text xml:space="preserve" transform="matrix(1 0 -0 1 0 841.92)" font-size="14.04" font-family="Times New Roman"><tspan y="-651.7" x="136.1 148.45522 156.26146 161.28778 169.09403 176.15615 186.23686 192.47063 197.14595 202.05995 209.8662 216.816 220.76123 227.72507 231.57202 236.59835 243.66046 249.89423 255.29962 259.14659 266.20869 270.884 274.73097 281.6948 285.64 292.60386 299.66596 304.56593 311.62803 317.8618 323.98323 331.04533 337.27909 342.19309 349.2552 353.10215 357.04737 362.0737 365.92066 371.42433 378.48643 383.38639 388.0617 394.29548 398.14244 402.08766 412.7721 416.71733 421.74366 428.80577 435.86787 440.43086 446.6646 451.69096 461.77168 465.7169 471.83833 476.51365 483.58979 487.43675 494.40058 501.46269 506.489 513.4529 519.68667 524.36196 529.4023">MS Power Point dasturining necha xil ish rejimi bor? Ularning har b</tspan></text>
</g>
<clipPath id="cp25281">
<path transform="matrix(1,0,0,-1,0,841.92)" d="M .000008871 0 L 595.32 0 L 595.32 841.92 L .000008871 841.92 Z " fill-rule="evenodd"/>
</clipPath>
<g clip-path="url(#cp25281)">
<text xml:space="preserve" transform="matrix(1 0 -0 1 0 841.92)" font-size="14.04" font-family="Times New Roman"><tspan y="-651.7" x="536.86 540.80526 545.3682 549.3135 556.151 559.998">irini </tspan></text>
</g>
<clipPath id="cp25282">
<path transform="matrix(1,0,0,-1,0,841.92)" d="M .000008871 0 L 595.32 0 L 595.32 841.92 L .000008871 841.92 Z " fill-rule="evenodd"/>
</clipPath>
<g clip-path="url(#cp25282)">
<text xml:space="preserve" transform="matrix(1 0 -0 1 0 841.92)" font-size="14.04" font-family="Times New Roman"><tspan y="-627.58" x="85.104 89.04924 95.283 102.24683 107.65224 111.59748 116.272808 120.11977 126.35352 133.42969 136.78525 143.84737 150.08113 154.64414 158.58937 165.5532 172.61533">tavsiflab bering.</tspan></text>
</g>
<clipPath id="cp25283">
<path transform="matrix(1,0,0,-1,0,841.92)" d="M .000008871 0 L 595.32 0 L 595.32 841.92 L .000008871 841.92 Z " fill-rule="evenodd"/>
</clipPath>
<g clip-path="url(#cp25283)">
<text xml:space="preserve" transform="matrix(1 0 -0 1 0 841.92)" font-size="14.04" font-family="Times New Roman"><tspan y="-627.58" x="176.06"> </tspan></text>
</g>
</g>
<g id="Layer-1" data-name="P">
<clipPath id="cp25284">
<path transform="matrix(1,0,0,-1,0,841.92)" d="M .000008871 0 L 595.32 0 L 595.32 841.92 L .000008871 841.92 Z " fill-rule="evenodd"/>
</clipPath>
<g clip-path="url(#cp25284)">
<text xml:space="preserve" transform="matrix(1 0 -0 1 0 841.92)" font-size="14.04" font-family="Times New Roman"><tspan y="-603.46" x="113.42 120.48212 127.544239 131.05423">53. </tspan></text>
</g>
<clipPath id="cp25285">
<path transform="matrix(1,0,0,-1,0,841.92)" d="M .000008871 0 L 595.32 0 L 595.32 841.92 L .000008871 841.92 Z " fill-rule="evenodd"/>
</clipPath>
<g clip-path="url(#cp25285)">
<text xml:space="preserve" transform="matrix(1 0 -0 1 0 841.92)" font-size="14.04" font-family="Times New Roman"><tspan y="-603.46" x="138.02 148.10073 154.22217 161.28429 168.24813 172.19336 179.14316 182.99011 189.22388 196.18772 203.24983 207.19507 217.87952 224.94164 228.88687 235.71031 242.54779 248.78156 253.45688 259.69065 263.6499 267.59513 273.00053 280.06263 287.02647 293.26023 300.21003 309.5747 316.5245 321.9299 328.992 335.9418 340.61714 350.69786 357.66169 362.337 366.28224 372.40367 379.46577 386.4296 390.37483 396.49626 400.44148 405.1168 412.0666 422.75105 428.9848 436.17329 443.01075 450.07286 457.13496 460.9819 467.94575 474.90959 481.85939 488.92149 495.15525 502.00675 507.5104 511.45564 518.40548 525.3693">Yangi taqdimot yaratishda Bosh (Gorizontal) menyuning qaysi bo</tspan></text>
</g>
<clipPath id="cp25286">
<path transform="matrix(1,0,0,-1,0,841.92)" d="M .000008871 0 L 595.32 0 L 595.32 841.92 L .000008871 841.92 Z " fill-rule="evenodd"/>
</clipPath>
<g clip-path="url(#cp25286)">
<text xml:space="preserve" transform="matrix(1 0 -0 1 0 841.92)" font-size="14.04" font-family="Times New Roman"><tspan y="-603.46" x="532.9">&#x2019;</tspan></text>
</g>
<clipPath id="cp25287">
<path transform="matrix(1,0,0,-1,0,841.92)" d="M .000008871 0 L 595.32 0 L 595.32 841.92 L .000008871 841.92 Z " fill-rule="evenodd"/>
</clipPath>
<g clip-path="url(#cp25287)">
<text xml:space="preserve" transform="matrix(1 0 -0 1 0 841.92)" font-size="14.04" font-family="Times New Roman"><tspan y="-603.46" x="537.46 541.4053 545.3505 556.0349 559.98019">limi </tspan></text>
</g>
<clipPath id="cp25288">
<path transform="matrix(1,0,0,-1,0,841.92)" d="M .000008871 0 L 595.32 0 L 595.32 841.92 L .000008871 841.92 Z " fill-rule="evenodd"/>
</clipPath>
<g clip-path="url(#cp25288)">
<text xml:space="preserve" transform="matrix(1 0 -0 1 0 841.92)" font-size="14.04" font-family="Times New Roman"><tspan y="-579.34" x="85.104 89.04924 94.45464 101.51676 105.36372 111.59748 115.44444 119.38969 123.23665 129.47042 136.43425 140.2812">ishlatiladi?</tspan></text>
</g>
<clipPath id="cp25289">
<path transform="matrix(1,0,0,-1,0,841.92)" d="M .000008871 0 L 595.32 0 L 595.32 841.92 L .000008871 841.92 Z " fill-rule="evenodd"/>
</clipPath>
<g clip-path="url(#cp25289)">
<text xml:space="preserve" transform="matrix(1 0 -0 1 0 841.92)" font-size="14.04" font-family="Times New Roman"><tspan y="-579.34" x="146.54"> </tspan></text>
</g>
</g>
<g id="Layer-1" data-name="P">
<clipPath id="cp25290">
<path transform="matrix(1,0,0,-1,0,841.92)" d="M .000008871 0 L 595.32 0 L 595.32 841.92 L .000008871 841.92 Z " fill-rule="evenodd"/>
</clipPath>
<g clip-path="url(#cp25290)">
<text xml:space="preserve" transform="matrix(1 0 -0 1 0 841.92)" font-size="14.04" font-family="Times New Roman"><tspan y="-555.07" x="113.42 120.48212 127.544239 131.05423">54. </tspan></text>
</g>
</g>
<g id="Layer-1" data-name="P">
<clipPath id="cp25291">
<path transform="matrix(1,0,0,-1,0,841.92)" d="M .000008871 0 L 595.32 0 L 595.32 841.92 L .000008871 841.92 Z " fill-rule="evenodd"/>
</clipPath>
<g clip-path="url(#cp25291)">
<text xml:space="preserve" transform="matrix(1 0 -0 1 0 841.92)" font-size="14.04" font-family="Times New Roman"><tspan y="-555.07" x="136.7">&#x0422;</tspan></text>
</g>
</g>
<g id="Layer-1" data-name="P">
<clipPath id="cp25292">
<path transform="matrix(1,0,0,-1,0,841.92)" d="M .000008871 0 L 595.32 0 L 595.32 841.92 L .000008871 841.92 Z " fill-rule="evenodd"/>
</clipPath>
<g clip-path="url(#cp25292)">
<text xml:space="preserve" transform="matrix(1 0 -0 1 0 841.92)" font-size="14.04" font-family="Times New Roman"><tspan y="-555.07" x="145.22 151.45377 158.4176 165.38144 169.32668 180.01113 187.07324 191.01848 196.76084 203.59832 209.83208 214.5074 220.74117 224.70046 228.54741 233.9528 241.01493 246.64496 257.3294 264.3915 268.33674 275.39884 282.36268 289.42478 293.37 298.8737 305.9358 312.77326 319.83537 326.06913 331.58683 335.43379 342.49589 348.72966 354.24739 361.30949 367.4309 374.493 381.5551 387.78889 394.64039 400.27043 407.33253 414.39463 421.2321 425.9074 432.98356 439.9474 443.8926 450.12638 454.8017 460.43174 467.39558 474.3594 479.03474 485.38084 491.01087 501.09159 504.93855 511.1723 515.8476 522.8255 529.05929 536.13546 541.7655 548.7294 554.96316 559.5261">aqdimot yaratish muloqot oynasida qanday buyruqlar bor? Ulardan har </tspan></text>
</g>
</g>
<g id="Layer-1" data-name="P">
<clipPath id="cp25293">
<path transform="matrix(1,0,0,-1,0,841.92)" d="M .000008871 0 L 595.32 0 L 595.32 841.92 L .000008871 841.92 Z " fill-rule="evenodd"/>
</clipPath>
<g clip-path="url(#cp25293)">
<text xml:space="preserve" transform="matrix(1 0 -0 1 0 841.92)" font-size="14.04" font-family="Times New Roman"><tspan y="-530.95" x="85.104 92.166118 96.11136 100.67436 104.521327 111.58344 115.430408 122.39424 129.45636 132.96636 139.98636 146.22013 152.36965 156.31488 160.9902 167.11165 172.51705 176.46228 183.42612 187.37136 190.88135 197.11511 203.92452 207.86975 211.7167 218.77883 222.28882 229.22458 235.45835 240.13367 243.98062 250.94446 258.00657">birining vazifasini aytib bering.</tspan></text>
</g>
</g>
<g id="Layer-1" data-name="P">
<clipPath id="cp25294">
<path transform="matrix(1,0,0,-1,0,841.92)" d="M .000008871 0 L 595.32 0 L 595.32 841.92 L .000008871 841.92 Z " fill-rule="evenodd"/>
</clipPath>
<g clip-path="url(#cp25294)">
<text xml:space="preserve" transform="matrix(1 0 -0 1 0 841.92)" font-size="14.04" font-family="Times New Roman"><tspan y="-530.95" x="261.65"> </tspan></text>
</g>
</g>
<g id="Layer-1" data-name="P">
<clipPath id="cp25295">
<path transform="matrix(1,0,0,-1,0,841.92)" d="M .000008871 0 L 595.32 0 L 595.32 841.92 L .000008871 841.92 Z " fill-rule="evenodd"/>
</clipPath>
<g clip-path="url(#cp25295)">
<text xml:space="preserve" transform="matrix(1 0 -0 1 0 841.92)" font-size="14.04" font-family="Times New Roman"><tspan y="-506.83" x="113.42 120.5 127.58">55.</tspan></text>
</g>
<clipPath id="cp25296">
<path transform="matrix(1,0,0,-1,0,841.92)" d="M .000008871 0 L 595.32 0 L 595.32 841.92 L .000008871 841.92 Z " fill-rule="evenodd"/>
</clipPath>
<g clip-path="url(#cp25296)">
<text xml:space="preserve" transform="matrix(1 0 -0 1 0 841.92)" font-size="14.04" font-family="Times New Roman"><tspan y="-506.83" x="131.06"> </tspan></text>
</g>
<clipPath id="cp25297">
<path transform="matrix(1,0,0,-1,0,841.92)" d="M .000008871 0 L 595.32 0 L 595.32 841.92 L .000008871 841.92 Z " fill-rule="evenodd"/>
</clipPath>
<g clip-path="url(#cp25297)">
<text xml:space="preserve" transform="matrix(1 0 -0 1 0 841.92)" font-size="14.04" font-family="Times New Roman"><tspan y="-506.83" x="134.54 144.62071 150.85448 155.5298 161.66529 165.61052 169.45748 173.30443 180.36655 186.48799 193.55011 197.0601 200.96323 207.11275 214.07659 221.1387 225.08394 235.8807 242.94283 246.78978 250.73502 256.96879 261.53178 268.59388 272.5391 275.89466 281.39833 287.51976 294.58186 298.4288 304.66258 310.06797 317.13008 320.64009 327.66007 333.8096 340.77345 347.83555 353.95698 360.9208 364.43083 371.4508 377.68458 381.58769 387.82145 392.49678 396.39988 400.30299 406.53675 413.48655 417.3335 423.6796">Yaratilgan taqdimotlarni saqlash qanday bajariladi? </tspan></text>
</g>
<clipPath id="cp25298">
<path transform="matrix(1,0,0,-1,0,841.92)" d="M .000008871 0 L 595.32 0 L 595.32 841.92 L .000008871 841.92 Z " fill-rule="evenodd"/>
</clipPath>
<g clip-path="url(#cp25298)">
<text xml:space="preserve" transform="matrix(1 0 -0 1 0 841.92)" font-size="14.04" font-family="Times New Roman"><tspan y="-506.83" x="427.27"> </tspan></text>
</g>
</g>
<g id="Layer-1" data-name="P">
<clipPath id="cp25299">
<path transform="matrix(1,0,0,-1,0,841.92)" d="M .000008871 0 L 595.32 0 L 595.32 841.92 L .000008871 841.92 Z " fill-rule="evenodd"/>
</clipPath>
<g clip-path="url(#cp25299)">
<text xml:space="preserve" transform="matrix(1 0 -0 1 0 841.92)" font-size="14.04" font-family="Times New Roman"><tspan y="-482.71" x="113.42 120.5 127.58">56.</tspan></text>
</g>
<clipPath id="cp25300">
<path transform="matrix(1,0,0,-1,0,841.92)" d="M .000008871 0 L 595.32 0 L 595.32 841.92 L .000008871 841.92 Z " fill-rule="evenodd"/>
</clipPath>
<g clip-path="url(#cp25300)">
<text xml:space="preserve" transform="matrix(1 0 -0 1 0 841.92)" font-size="14.04" font-family="Times New Roman"><tspan y="-482.71" x="131.06"> </tspan></text>
</g>
</g>
<g id="Layer-1" data-name="P">
<clipPath id="cp25301">
<path transform="matrix(1,0,0,-1,0,841.92)" d="M .000008871 0 L 595.32 0 L 595.32 841.92 L .000008871 841.92 Z " fill-rule="evenodd"/>
</clipPath>
<g clip-path="url(#cp25301)">
<text xml:space="preserve" transform="matrix(1 0 -0 1 0 841.92)" font-size="14.04" font-family="Times New Roman"><tspan y="-482.71" x="134.54">&#x0422;</tspan></text>
</g>
</g>
<g id="Layer-1" data-name="P">
<clipPath id="cp25302">
<path transform="matrix(1,0,0,-1,0,841.92)" d="M .000008871 0 L 595.32 0 L 595.32 841.92 L .000008871 841.92 Z " fill-rule="evenodd"/>
</clipPath>
<g clip-path="url(#cp25302)">
<text xml:space="preserve" transform="matrix(1 0 -0 1 0 841.92)" font-size="14.04" font-family="Times New Roman"><tspan y="-482.71" x="143.06 149.18144 156.24356 163.2074 167.15264 177.83708 184.8992 188.84444 192.78968 199.02344 203.58644 210.55028 214.49552 218.00551 221.90863 228.05815 235.02199 239.69731 243.64255 248.31787 252.16483 258.3986 263.804 270.8661 274.3761 281.31187 287.54563 294.50947 301.57157 307.80534 314.65684 318.16685 324.48484 335.16929 341.40306 345.34828 352.3121 358.54588 362.05589 369.07588 374.5374 381.47319 385.4184 390.09373 393.94068 397.8859 404.00733 411.06944 414.91639">aqdimotlarni tahrirlash qanday amalga oshiriladi?</tspan></text>
</g>
</g>
<g id="Layer-1" data-name="P">
<clipPath id="cp25303">
<path transform="matrix(1,0,0,-1,0,841.92)" d="M .000008871 0 L 595.32 0 L 595.32 841.92 L .000008871 841.92 Z " fill-rule="evenodd"/>
</clipPath>
<g clip-path="url(#cp25303)">
<text xml:space="preserve" transform="matrix(1 0 -0 1 0 841.92)" font-size="14.04" font-family="Times New Roman"><tspan y="-482.71" x="421.27"> </tspan></text>
</g>
</g>
<g id="Layer-1" data-name="P">
<clipPath id="cp25304">
<path transform="matrix(1,0,0,-1,0,841.92)" d="M .000008871 0 L 595.32 0 L 595.32 841.92 L .000008871 841.92 Z " fill-rule="evenodd"/>
</clipPath>
<g clip-path="url(#cp25304)">
<text xml:space="preserve" transform="matrix(1 0 -0 1 0 841.92)" font-size="14.04" font-family="Times New Roman"><tspan y="-458.47" x="113.42 120.48212 127.544239 131.05423">57. </tspan></text>
</g>
<clipPath id="cp25305">
<path transform="matrix(1,0,0,-1,0,841.92)" d="M .000008871 0 L 595.32 0 L 595.32 841.92 L .000008871 841.92 Z " fill-rule="evenodd"/>
</clipPath>
<g clip-path="url(#cp25305)">
<text xml:space="preserve" transform="matrix(1 0 -0 1 0 841.92)" font-size="14.04" font-family="Times New Roman"><tspan y="-458.47" x="134.54 142.21988 146.16512 152.39888 159.2504 166.31252 170.25775 176.49152 181.16684 184.67684 189.35216 195.58592 199.29248 203.23772 213.92217 217.8674 224.92952 231.16329 234.67328 241.69329 247.8428 254.90493 261.96705 268.2008 275.0523 278.56233 282.46543 287.92698 294.94697 298.85008 305.08384 309.75917 316.69493 320.64015 324.15016 330.3839 341.04029 347.27406 351.21928 358.28138 364.51515 368.02516 374.9609 380.3663 387.4284 391.37364 395.9366 399.78358 405.28724 412.34934 415.85935 426.51573 433.7042 444.38865 451.45075 455.39598 462.3598">Slaydlar rejimida qanday ishlarni amalga oshirish mumkin?</tspan></text>
</g>
<clipPath id="cp25306">
<path transform="matrix(1,0,0,-1,0,841.92)" d="M .000008871 0 L 595.32 0 L 595.32 841.92 L .000008871 841.92 Z " fill-rule="evenodd"/>
</clipPath>
<g clip-path="url(#cp25306)">
<text xml:space="preserve" transform="matrix(1 0 -0 1 0 841.92)" font-size="14.04" font-family="Times New Roman"><tspan y="-458.47" x="468.94"> </tspan></text>
</g>
</g>
<g id="Layer-1" data-name="P">
<clipPath id="cp25307">
<path transform="matrix(1,0,0,-1,0,841.92)" d="M .000008871 0 L 595.32 0 L 595.32 841.92 L .000008871 841.92 Z " fill-rule="evenodd"/>
</clipPath>
<g clip-path="url(#cp25307)">
<text xml:space="preserve" transform="matrix(1 0 -0 1 0 841.92)" font-size="14.04" font-family="Times New Roman"><tspan y="-434.35" x="113.42 120.5">58</tspan></text>
</g>
<clipPath id="cp25308">
<path transform="matrix(1,0,0,-1,0,841.92)" d="M .000008871 0 L 595.32 0 L 595.32 841.92 L .000008871 841.92 Z " fill-rule="evenodd"/>
</clipPath>
<g clip-path="url(#cp25308)">
<text xml:space="preserve" transform="matrix(1 0 -0 1 0 841.92)" font-size="14.04" font-family="Times New Roman"><tspan y="-434.35" x="127.58 131.09 134.54383 144.62454 150.74599 157.8081 164.77194 168.71718 172.22718 177.59046 181.53569 187.76946 194.62097 201.68309 205.19309 212.21309 218.36261 225.42473 232.38857 238.62233 245.47385 249.05405 255.89151 262.12528 266.8006 273.03437 276.99363 280.93885 284.88407 291.0055 298.0676 301.91456">. Yangi slayd qanday yaratiladi?</tspan></text>
</g>
<clipPath id="cp25309">
<path transform="matrix(1,0,0,-1,0,841.92)" d="M .000008871 0 L 595.32 0 L 595.32 841.92 L .000008871 841.92 Z " fill-rule="evenodd"/>
</clipPath>
<g clip-path="url(#cp25309)">
<text xml:space="preserve" transform="matrix(1 0 -0 1 0 841.92)" font-size="14.04" font-family="Times New Roman"><tspan y="-434.35" x="308.33"> </tspan></text>
</g>
</g>
<g id="Layer-1" data-name="P">
<clipPath id="cp25310">
<path transform="matrix(1,0,0,-1,0,841.92)" d="M .000008871 0 L 595.32 0 L 595.32 841.92 L .000008871 841.92 Z " fill-rule="evenodd"/>
</clipPath>
<g clip-path="url(#cp25310)">
<text xml:space="preserve" transform="matrix(1 0 -0 1 0 841.92)" font-size="14.04" font-family="Times New Roman"><tspan y="-410.23" x="113.42 120.5">59</tspan></text>
</g>
<clipPath id="cp25311">
<path transform="matrix(1,0,0,-1,0,841.92)" d="M .000008871 0 L 595.32 0 L 595.32 841.92 L .000008871 841.92 Z " fill-rule="evenodd"/>
</clipPath>
<g clip-path="url(#cp25311)">
<text xml:space="preserve" transform="matrix(1 0 -0 1 0 841.92)" font-size="14.04" font-family="Times New Roman"><tspan y="-410.23" x="127.58 131.09 137.16931 144.97556 148.92079 155.15456 162.00608 169.06819 172.91515 179.14891 183.82424 190.80213 194.74736 200.85475 207.91687 214.15064 220.27208 226.50585 231.91124 238.97336 245.08075 249.02599 254.43138 261.4935 265.34046 271.57423 276.24955 280.0965 287.06034 291.00556 297.22529 303.45906 314.1435 320.37727 324.32249 331.38459 337.61836 343.72578 350.6896 356.19328 363.1571 367.10234 371.6653 375.61054 381.01594 388.07804">. Slaydlarni bezash ishlarini amalga oshirish </tspan></text>
</g>
<clipPath id="cp25312">
<path transform="matrix(1,0,0,-1,0,841.92)" d="M .000008871 0 L 595.32 0 L 595.32 841.92 L .000008871 841.92 Z " fill-rule="evenodd"/>
</clipPath>
<g clip-path="url(#cp25312)">
<text xml:space="preserve" transform="matrix(1 0 -0 1 0 841.92)" font-size="14.04" font-family="Times New Roman"><tspan y="-410.23" x="394.51 401.5721 407.69355 414.75566 421.71949 428.7816 434.889 441.9511 448.18489 455.03639 460.54005 464.48527 470.59269 474.5379 481.50175 488.56385 499.2483 505.48207 511.71583 518.792 525.02578 528.971 535.2048 539.76779 546.8299 552.82498 559.7888">uchun qaysi tugmachalardan </tspan></text>
</g>
<clipPath id="cp25313">
<path transform="matrix(1,0,0,-1,0,841.92)" d="M .000008871 0 L 595.32 0 L 595.32 841.92 L .000008871 841.92 Z " fill-rule="evenodd"/>
</clipPath>
<g clip-path="url(#cp25313)">
<text xml:space="preserve" transform="matrix(1 0 -0 1 0 841.92)" font-size="14.04" font-family="Times New Roman"><tspan y="-386.09" x="85.104 89.77932 96.85548 103.692958 110.75507 116.98883 120.934078 127.05551 134.11763 137.96459 141.90982 148.03127 155.09339 158.94034">foydalaniladi?</tspan></text>
</g>
<clipPath id="cp25314">
<path transform="matrix(1,0,0,-1,0,841.92)" d="M .000008871 0 L 595.32 0 L 595.32 841.92 L .000008871 841.92 Z " fill-rule="evenodd"/>
</clipPath>
<g clip-path="url(#cp25314)">
<text xml:space="preserve" transform="matrix(1 0 -0 1 0 841.92)" font-size="14.04" font-family="Times New Roman"><tspan y="-386.09" x="165.14"> </tspan></text>
</g>
</g>
<g id="Layer-1" data-name="P">
<clipPath id="cp25315">
<path transform="matrix(1,0,0,-1,0,841.92)" d="M .000008871 0 L 595.32 0 L 595.32 841.92 L .000008871 841.92 Z " fill-rule="evenodd"/>
</clipPath>
<g clip-path="url(#cp25315)">
<text xml:space="preserve" transform="matrix(1 0 -0 1 0 841.92)" font-size="14.04" font-family="Times New Roman"><tspan y="-361.97" x="113.42 120.5 127.58">60.</tspan></text>
</g>
<clipPath id="cp25316">
<path transform="matrix(1,0,0,-1,0,841.92)" d="M .000008871 0 L 595.32 0 L 595.32 841.92 L .000008871 841.92 Z " fill-rule="evenodd"/>
</clipPath>
<g clip-path="url(#cp25316)">
<text xml:space="preserve" transform="matrix(1 0 -0 1 0 841.92)" font-size="14.04" font-family="Times New Roman"><tspan y="-361.97" x="131.06"> </tspan></text>
</g>
<clipPath id="cp25317">
<path transform="matrix(1,0,0,-1,0,841.92)" d="M .000008871 0 L 595.32 0 L 595.32 841.92 L .000008871 841.92 Z " fill-rule="evenodd"/>
</clipPath>
<g clip-path="url(#cp25317)">
<text xml:space="preserve" transform="matrix(1 0 -0 1 0 841.92)" font-size="14.04" font-family="Times New Roman"><tspan y="-361.97" x="134.54 142.21988 146.16512 152.39888 159.2504 166.31252 173.37464 179.6084 183.1184 193.77477 200.00853 203.95377 211.01589 217.97972 221.92496 225.43495 232.37071 236.31595 240.99127 244.83823 248.78347 252.63042 258.03584 265.09794 268.60795 275.62794 281.8617 285.25938 289.2046 295.32603 302.38813 307.06346 310.9104 315.58573 319.53096 325.65238 331.05778 338.11988 341.62989 348.56565 353.97105 361.03315 364.8801 368.82533 375.05909 379.62208 383.5673 390.53114 394.47636 397.98637 401.7912 408.02497 414.9888 420.49247 424.33943 429.01475 432.95997 439.0814 446.1435 449.49906 456.56117 462.79493 467.3579 471.20487 478.26698 485.32908">Slaydga matnni kiritish va tahrirlash usullarini tavsiflab bering.</tspan></text>
</g>
<clipPath id="cp25318">
<path transform="matrix(1,0,0,-1,0,841.92)" d="M .000008871 0 L 595.32 0 L 595.32 841.92 L .000008871 841.92 Z " fill-rule="evenodd"/>
</clipPath>
<g clip-path="url(#cp25318)">
<text xml:space="preserve" transform="matrix(1 0 -0 1 0 841.92)" font-size="14.04" font-family="Times New Roman"><tspan y="-361.97" x="489.1"> </tspan></text>
</g>
</g>
<g id="Layer-1" data-name="P">
<clipPath id="cp25319">
<path transform="matrix(1,0,0,-1,0,841.92)" d="M .000008871 0 L 595.32 0 L 595.32 841.92 L .000008871 841.92 Z " fill-rule="evenodd"/>
</clipPath>
<g clip-path="url(#cp25319)">
<text xml:space="preserve" transform="matrix(1 0 -0 1 0 841.92)" font-size="14.04" font-family="Times New Roman"><tspan y="-337.73" x="113.42 120.5 127.58">61.</tspan></text>
</g>
<clipPath id="cp25320">
<path transform="matrix(1,0,0,-1,0,841.92)" d="M .000008871 0 L 595.32 0 L 595.32 841.92 L .000008871 841.92 Z " fill-rule="evenodd"/>
</clipPath>
<g clip-path="url(#cp25320)">
<text xml:space="preserve" transform="matrix(1 0 -0 1 0 841.92)" font-size="14.04" font-family="Times New Roman"><tspan y="-337.73" x="131.06 134.54">  </tspan></text>
</g>
<clipPath id="cp25321">
<path transform="matrix(1,0,0,-1,0,841.92)" d="M .000008871 0 L 595.32 0 L 595.32 841.92 L .000008871 841.92 Z " fill-rule="evenodd"/>
</clipPath>
<g clip-path="url(#cp25321)">
<text xml:space="preserve" transform="matrix(1 0 -0 1 0 841.92)" font-size="14.04" font-family="Times New Roman"><tspan y="-337.73" x="138.02 148.10073 155.06456 159.0098 166.07192 176.75637 182.99013 186.93537 190.78232 197.84444 201.35443 206.02976 212.12313 219.18524 223.0322 228.53588 235.49971 242.56183 248.7956 252.30559 257.68293 261.62815 267.8619 274.7134 281.7755 285.72074 291.9545 296.5175 303.48133 307.42655 310.93656 317.17033 321.07344 331.78596 338.0197 343.5374 350.50126 354.3482 358.29344 362.96876 366.8157 372.2211 379.2832 382.7932 389.8132 395.96275 402.92658 409.98869 417.05079 420.40635 427.46846 431.41368 442.0981 448.33189 451.8419 455.745 461.29078 468.35289 471.70845 478.77055 482.6175 486.5627 490.40968 495.81507 502.87718 506.38719 513.40719 519.5567 524.232 530.46578 537.44369">Avtomatik ravishda slaydlarni almashtirish uchun nima ish qilish kerak?</tspan></text>
</g>
<clipPath id="cp25322">
<path transform="matrix(1,0,0,-1,0,841.92)" d="M .000008871 0 L 595.32 0 L 595.32 841.92 L .000008871 841.92 Z " fill-rule="evenodd"/>
</clipPath>
<g clip-path="url(#cp25322)">
<text xml:space="preserve" transform="matrix(1 0 -0 1 0 841.92)" font-size="14.04" font-family="Times New Roman"><tspan y="-337.73" x="543.94"> </tspan></text>
</g>
</g>
<g id="Layer-1" data-name="P">
<clipPath id="cp25323">
<path transform="matrix(1,0,0,-1,0,841.92)" d="M .000008871 0 L 595.32 0 L 595.32 841.92 L .000008871 841.92 Z " fill-rule="evenodd"/>
</clipPath>
<g clip-path="url(#cp25323)">
<text xml:space="preserve" transform="matrix(1 0 -0 1 0 841.92)" font-size="14.04" font-family="Times New Roman"><tspan y="-313.61" x="113.42 123.50072 130.56284 134.50807 145.19252 151.42629 155.37152 160.8752 164.72216 171.68599 178.74811 182.2581 188.49187 193.16719 197.84252 203.94992 211.01204 214.95728 218.31284 225.37496 231.4964 238.55852 244.67996 251.74208 258.8042 265.03797 268.40757 275.46968 279.4149 290.09934 296.3331 303.40925 307.35447 310.71003 314.65525 321.61909 327.02449 334.08659 341.0504 348.01426 354.24803 359.76573 363.61268 369.7341">Animatsion effekt deganda nimani tushunasiz?</tspan></text>
</g>
<clipPath id="cp25324">
<path transform="matrix(1,0,0,-1,0,841.92)" d="M .000008871 0 L 595.32 0 L 595.32 841.92 L .000008871 841.92 Z " fill-rule="evenodd"/>
</clipPath>
<g clip-path="url(#cp25324)">
<text xml:space="preserve" transform="matrix(1 0 -0 1 0 841.92)" font-size="14.04" font-family="Times New Roman"><tspan y="-313.61" x="376.27"> </tspan></text>
</g>
</g>
<g id="Layer-1" data-name="P">
<clipPath id="cp25325">
<path transform="matrix(1,0,0,-1,0,841.92)" d="M .000008871 0 L 595.32 0 L 595.32 841.92 L .000008871 841.92 Z " fill-rule="evenodd"/>
</clipPath>
<g clip-path="url(#cp25325)">
<text xml:space="preserve" transform="matrix(1 0 -0 1 0 841.92)" font-size="14.04" font-family="Times New Roman"><tspan y="-289.49" x="113.42">6</tspan></text>
</g>
<clipPath id="cp25326">
<path transform="matrix(1,0,0,-1,0,841.92)" d="M .000008871 0 L 595.32 0 L 595.32 841.92 L .000008871 841.92 Z " fill-rule="evenodd"/>
</clipPath>
<g clip-path="url(#cp25326)">
<text xml:space="preserve" transform="matrix(1 0 -0 1 0 841.92)" font-size="14.04" font-family="Times New Roman"><tspan y="-289.49" x="120.5">2</tspan></text>
</g>
<clipPath id="cp25327">
<path transform="matrix(1,0,0,-1,0,841.92)" d="M .000008871 0 L 595.32 0 L 595.32 841.92 L .000008871 841.92 Z " fill-rule="evenodd"/>
</clipPath>
<g clip-path="url(#cp25327)">
<text xml:space="preserve" transform="matrix(1 0 -0 1 0 841.92)" font-size="14.04" font-family="Times New Roman"><tspan y="-289.49" x="127.58">.</tspan></text>
</g>
<clipPath id="cp25328">
<path transform="matrix(1,0,0,-1,0,841.92)" d="M .000008871 0 L 595.32 0 L 595.32 841.92 L .000008871 841.92 Z " fill-rule="evenodd"/>
</clipPath>
<g clip-path="url(#cp25328)">
<text xml:space="preserve" transform="matrix(1 0 -0 1 0 841.92)" font-size="14.04" font-family="Times New Roman"><tspan y="-289.49" x="131.06"> </tspan></text>
</g>
<clipPath id="cp25329">
<path transform="matrix(1,0,0,-1,0,841.92)" d="M .000008871 0 L 595.32 0 L 595.32 841.92 L .000008871 841.92 Z " fill-rule="evenodd"/>
</clipPath>
<g clip-path="url(#cp25329)">
<text xml:space="preserve" transform="matrix(1 0 -0 1 0 841.92)" font-size="14.04" font-family="Times New Roman"><tspan y="-289.49" x="134.54 144.62071 151.58455 155.52979 166.21424 172.448 176.39324 181.89691 185.74387 192.7077 199.76982 203.27982 209.51358 214.1889 218.86423 224.97164 232.03376">Animatsion effekt</tspan></text>
</g>
<clipPath id="cp25330">
<path transform="matrix(1,0,0,-1,0,841.92)" d="M .000008871 0 L 595.32 0 L 595.32 841.92 L .000008871 841.92 Z " fill-rule="evenodd"/>
</clipPath>
<g clip-path="url(#cp25330)">
<text xml:space="preserve" transform="matrix(1 0 -0 1 0 841.92)" font-size="14.04" font-family="Times New Roman"><tspan y="-289.49" x="235.97 239.91524 246.149 250.712 257.7741 264.00788 271.084 274.43959 281.50169 287.73545 294.58695 300.8207 305.49604 309.4553 315.68907 320.25205 327.31416 333.5479 337.05793 341.59284 348.65495 355.61878 362.68089 368.91465 372.7616 378.99537 385.9592 389.80616 395.3098 402.37193 405.88194 416.5383 423.72679 434.41123 441.47334 445.41856 452.3824">lardan qayerlarda foydalanish mumkin?</tspan></text>
</g>
<clipPath id="cp25331">
<path transform="matrix(1,0,0,-1,0,841.92)" d="M .000008871 0 L 595.32 0 L 595.32 841.92 L .000008871 841.92 Z " fill-rule="evenodd"/>
</clipPath>
<g clip-path="url(#cp25331)">
<text xml:space="preserve" transform="matrix(1 0 -0 1 0 841.92)" font-size="14.04" font-family="Times New Roman"><tspan y="-289.49" x="458.86"> </tspan></text>
</g>
</g>
<g id="Layer-1" data-name="P">
<clipPath id="cp25332">
<path transform="matrix(1,0,0,-1,0,841.92)" d="M .000008871 0 L 595.32 0 L 595.32 841.92 L .000008871 841.92 Z " fill-rule="evenodd"/>
</clipPath>
<g clip-path="url(#cp25332)">
<text xml:space="preserve" transform="matrix(1 0 -0 1 0 841.92)" font-size="14.04" font-family="Times New Roman"><tspan y="-265.37" x="113.42 120.5">63</tspan></text>
</g>
<clipPath id="cp25333">
<path transform="matrix(1,0,0,-1,0,841.92)" d="M .000008871 0 L 595.32 0 L 595.32 841.92 L .000008871 841.92 Z " fill-rule="evenodd"/>
</clipPath>
<g clip-path="url(#cp25333)">
<text xml:space="preserve" transform="matrix(1 0 -0 1 0 841.92)" font-size="14.04" font-family="Times New Roman"><tspan y="-265.37" x="127.58">.</tspan></text>
</g>
<clipPath id="cp25334">
<path transform="matrix(1,0,0,-1,0,841.92)" d="M .000008871 0 L 595.32 0 L 595.32 841.92 L .000008871 841.92 Z " fill-rule="evenodd"/>
</clipPath>
<g clip-path="url(#cp25334)">
<text xml:space="preserve" transform="matrix(1 0 -0 1 0 841.92)" font-size="14.04" font-family="Times New Roman"><tspan y="-265.37" x="131.06"> </tspan></text>
</g>
<clipPath id="cp25335">
<path transform="matrix(1,0,0,-1,0,841.92)" d="M .000008871 0 L 595.32 0 L 595.32 841.92 L .000008871 841.92 Z " fill-rule="evenodd"/>
</clipPath>
<g clip-path="url(#cp25335)">
<text xml:space="preserve" transform="matrix(1 0 -0 1 0 841.92)" font-size="14.04" font-family="Times New Roman"><tspan y="-265.37" x="134.54 141.50383 151.58455 158.54839 162.49362 173.17807 179.41184 183.35707 188.86075 192.80599 199.64347 205.87723 209.38722 215.62099 220.29631 224.97164 231.2054 238.26752 242.11447 246.05971 253.02355 256.53355 263.4693 270.5314 275.9368 279.88203 283.72898 289.96275 293.90797 300.0294 304.7047 308.21473 315.2347 321.38426 328.44636 334.56779 338.513 342.35997 349.3238 353.17076 360.23286 367.29496 370.80497 376.89833 380.84355 387.0773 397.76176 403.9955 411.07167 415.01689 418.86384 425.0976 429.77293 433.61988 440.5837 444.52894 448.03895 454.2727 461.0821 465.0273 468.87428 475.93638 479.44639 486.46638 492.6159 497.29124 501.13819 508.2003 515.2624">&#x00ab;Animatsiya effekti&#x00bb; vositalar panelining elementlarini aytib bering.</tspan></text>
</g>
<clipPath id="cp25336">
<path transform="matrix(1,0,0,-1,0,841.92)" d="M .000008871 0 L 595.32 0 L 595.32 841.92 L .000008871 841.92 Z " fill-rule="evenodd"/>
</clipPath>
<g clip-path="url(#cp25336)">
<text xml:space="preserve" transform="matrix(1 0 -0 1 0 841.92)" font-size="14.04" font-family="Times New Roman"><tspan y="-265.37" x="518.98"> </tspan></text>
</g>
</g>
<g id="Layer-1" data-name="P">
<clipPath id="cp25337">
<path transform="matrix(1,0,0,-1,0,841.92)" d="M .000008871 0 L 595.32 0 L 595.32 841.92 L .000008871 841.92 Z " fill-rule="evenodd"/>
</clipPath>
<g clip-path="url(#cp25337)">
<text xml:space="preserve" transform="matrix(1 0 -0 1 0 841.92)" font-size="14.04" font-family="Times New Roman"><tspan y="-241.13" x="113.42">6</tspan></text>
</g>
<clipPath id="cp25338">
<path transform="matrix(1,0,0,-1,0,841.92)" d="M .000008871 0 L 595.32 0 L 595.32 841.92 L .000008871 841.92 Z " fill-rule="evenodd"/>
</clipPath>
<g clip-path="url(#cp25338)">
<text xml:space="preserve" transform="matrix(1 0 -0 1 0 841.92)" font-size="14.04" font-family="Times New Roman"><tspan y="-241.13" x="120.5">4</tspan></text>
</g>
<clipPath id="cp25339">
<path transform="matrix(1,0,0,-1,0,841.92)" d="M .000008871 0 L 595.32 0 L 595.32 841.92 L .000008871 841.92 Z " fill-rule="evenodd"/>
</clipPath>
<g clip-path="url(#cp25339)">
<text xml:space="preserve" transform="matrix(1 0 -0 1 0 841.92)" font-size="14.04" font-family="Times New Roman"><tspan y="-241.13" x="127.58">.</tspan></text>
</g>
<clipPath id="cp25340">
<path transform="matrix(1,0,0,-1,0,841.92)" d="M .000008871 0 L 595.32 0 L 595.32 841.92 L .000008871 841.92 Z " fill-rule="evenodd"/>
</clipPath>
<g clip-path="url(#cp25340)">
<text xml:space="preserve" transform="matrix(1 0 -0 1 0 841.92)" font-size="14.04" font-family="Times New Roman"><tspan y="-241.13" x="131.06"> </tspan></text>
</g>
<clipPath id="cp25341">
<path transform="matrix(1,0,0,-1,0,841.92)" d="M .000008871 0 L 595.32 0 L 595.32 841.92 L .000008871 841.92 Z " fill-rule="evenodd"/>
</clipPath>
<g clip-path="url(#cp25341)">
<text xml:space="preserve" transform="matrix(1 0 -0 1 0 841.92)" font-size="14.04" font-family="Times New Roman"><tspan y="-241.13" x="134.54 147.02156 153.143 156.98996 164.05208 167.89904 171.84427 175.35427 180.71755 184.66278 190.89655 197.74806 204.81018 208.75542 214.98918 219.6645 223.1745 229.2819 236.34403 240.28926 250.97371 257.20747 261.15269 266.65635 270.60157 277.43904 283.6728 289.0782 293.0234 296.53343 303.46919 307.4144 318.09886 324.3326 327.84263 334.8626 341.12446 347.35823 351.20518 355.8805 362.11427 369.09214 373.03736 376.54737 383.56736 389.80113 393.70423 399.938 404.6133 410.7207 417.68455 421.5315">Matnli slaydlar animatsiyasi nima vazifani bajaradi?</tspan></text>
</g>
<clipPath id="cp25342">
<path transform="matrix(1,0,0,-1,0,841.92)" d="M .000008871 0 L 595.32 0 L 595.32 841.92 L .000008871 841.92 Z " fill-rule="evenodd"/>
</clipPath>
<g clip-path="url(#cp25342)">
<text xml:space="preserve" transform="matrix(1 0 -0 1 0 841.92)" font-size="14.04" font-family="Times New Roman"><tspan y="-241.13" x="427.99"> </tspan></text>
</g>
</g>
<g id="Layer-1" data-name="P">
<clipPath id="cp25343">
<path transform="matrix(1,0,0,-1,0,841.92)" d="M .000008871 0 L 595.32 0 L 595.32 841.92 L .000008871 841.92 Z " fill-rule="evenodd"/>
</clipPath>
<g clip-path="url(#cp25343)">
<text xml:space="preserve" transform="matrix(1 0 -0 1 0 841.92)" font-size="14.04" font-family="Times New Roman"><tspan y="-216.98" x="113.42">6</tspan></text>
</g>
<clipPath id="cp25344">
<path transform="matrix(1,0,0,-1,0,841.92)" d="M .000008871 0 L 595.32 0 L 595.32 841.92 L .000008871 841.92 Z " fill-rule="evenodd"/>
</clipPath>
<g clip-path="url(#cp25344)">
<text xml:space="preserve" transform="matrix(1 0 -0 1 0 841.92)" font-size="14.04" font-family="Times New Roman"><tspan y="-216.98" x="120.5">5</tspan></text>
</g>
<clipPath id="cp25345">
<path transform="matrix(1,0,0,-1,0,841.92)" d="M .000008871 0 L 595.32 0 L 595.32 841.92 L .000008871 841.92 Z " fill-rule="evenodd"/>
</clipPath>
<g clip-path="url(#cp25345)">
<text xml:space="preserve" transform="matrix(1 0 -0 1 0 841.92)" font-size="14.04" font-family="Times New Roman"><tspan y="-216.98" x="127.58">.</tspan></text>
</g>
<clipPath id="cp25346">
<path transform="matrix(1,0,0,-1,0,841.92)" d="M .000008871 0 L 595.32 0 L 595.32 841.92 L .000008871 841.92 Z " fill-rule="evenodd"/>
</clipPath>
<g clip-path="url(#cp25346)">
<text xml:space="preserve" transform="matrix(1 0 -0 1 0 841.92)" font-size="14.04" font-family="Times New Roman"><tspan y="-216.98" x="131.06"> </tspan></text>
</g>
<clipPath id="cp25347">
<path transform="matrix(1,0,0,-1,0,841.92)" d="M .000008871 0 L 595.32 0 L 595.32 841.92 L .000008871 841.92 Z " fill-rule="evenodd"/>
</clipPath>
<g clip-path="url(#cp25347)">
<text xml:space="preserve" transform="matrix(1 0 -0 1 0 841.92)" font-size="14.04" font-family="Times New Roman"><tspan y="-216.98" x="134.54 144.62071 151.58455 155.52979 166.21424 172.448 176.39324 181.89691 185.84215 192.67963 198.91339 202.42339 209.44339 215.70523 220.38056 226.502 237.29877 243.53253 247.47777 252.15309 256.09834 262.3321 266.89509 270.8403 274.3503 281.3703 287.51985 294.48368 301.54579 307.77955 314.63105 318.14106 323.6026 330.69279 336.8142 340.75944 346.88087 353.94297 360.0644 367.1265 370.97346">Animatsiya parametrlari qanday sozlanadi?</tspan></text>
</g>
<clipPath id="cp25348">
<path transform="matrix(1,0,0,-1,0,841.92)" d="M .000008871 0 L 595.32 0 L 595.32 841.92 L .000008871 841.92 Z " fill-rule="evenodd"/>
</clipPath>
<g clip-path="url(#cp25348)">
<text xml:space="preserve" transform="matrix(1 0 -0 1 0 841.92)" font-size="14.04" font-family="Times New Roman"><tspan y="-216.98" x="377.47"> </tspan></text>
</g>
</g>
<g id="Layer-1" data-name="P">
<clipPath id="cp25349">
<path transform="matrix(1,0,0,-1,0,841.92)" d="M .000008871 0 L 595.32 0 L 595.32 841.92 L .000008871 841.92 Z " fill-rule="evenodd"/>
</clipPath>
<g clip-path="url(#cp25349)">
<text xml:space="preserve" transform="matrix(1 0 -0 1 0 841.92)" font-size="14.04" font-family="Times New Roman"><tspan y="-192.98" x="85.104"> </tspan></text>
</g>
<clipPath id="cp25350">
<path transform="matrix(1,0,0,-1,0,841.92)" d="M .000008871 0 L 595.32 0 L 595.32 841.92 L .000008871 841.92 Z " fill-rule="evenodd"/>
</clipPath>
<g clip-path="url(#cp25350)">
<text xml:space="preserve" transform="matrix(1 0 -0 1 0 841.92)" font-size="14.04" font-family="Times New Roman"><tspan y="-192.98" x="229.13"> </tspan></text>
</g>
</g>
</g>
</g>
</svg>
