<?xml version="1.0" encoding="UTF-8" standalone="no"?>
<!DOCTYPE svg PUBLIC "-//W3C//DTD SVG 1.1//EN" "http://www.w3.org/Graphics/SVG/1.1/DTD/svg11.dtd">
<svg xmlns="http://www.w3.org/2000/svg" xmlns:xlink="http://www.w3.org/1999/xlink" version="1.1" width="595.32pt" height="841.92pt" viewBox="0 0 595.32 841.92">
<g enable-background="new">
<g>
<g id="Layer-1" data-name="Artifact">
<clipPath id="cp25351">
<path transform="matrix(1,0,0,-1,0,841.92)" d="M .000008871 0 L 595.32 0 L 595.32 841.92 L .000008871 841.92 Z " fill-rule="evenodd"/>
</clipPath>
<g clip-path="url(#cp25351)">
<text xml:space="preserve" transform="matrix(1 0 -0 1 0 841.92)" font-size="11.04" font-family="Calibri"><tspan y="-51.864" x="314.09 319.72999 325.36997">157</tspan></text>
</g>
<clipPath id="cp25352">
<path transform="matrix(1,0,0,-1,0,841.92)" d="M .000008871 0 L 595.32 0 L 595.32 841.92 L .000008871 841.92 Z " fill-rule="evenodd"/>
</clipPath>
<g clip-path="url(#cp25352)">
<text xml:space="preserve" transform="matrix(1 0 -0 1 0 841.92)" font-size="11.04" font-family="Calibri"><tspan y="-51.864" x="331.03"> </tspan></text>
</g>
<clipPath id="cp25353">
<path transform="matrix(1,0,0,-1,0,841.92)" d="M .000008871 0 L 595.32 0 L 595.32 841.92 L .000008871 841.92 Z " fill-rule="evenodd"/>
</clipPath>
<g clip-path="url(#cp25353)">
</g>
<clipPath id="cp25354">
<path transform="matrix(1,0,0,-1,0,841.92)" d="M .000008871 0 L 595.32 0 L 595.32 841.92 L .000008871 841.92 Z " fill-rule="evenodd"/>
</clipPath>
<g clip-path="url(#cp25354)">
<text xml:space="preserve" transform="matrix(1 0 -0 1 0 841.92)" font-size="11.04" font-family="Calibri"><tspan y="-38.4" x="85.104"> </tspan></text>
</g>
<clipPath id="cp25355">
<path transform="matrix(1,0,0,-1,0,841.92)" d="M .000008871 0 L 595.32 0 L 595.32 841.92 L .000008871 841.92 Z " fill-rule="evenodd"/>
</clipPath>
<g clip-path="url(#cp25355)">
</g>
</g>
<g id="Layer-1" data-name="P">
<clipPath id="cp25356">
<path transform="matrix(1,0,0,-1,0,841.92)" d="M .000008871 0 L 595.32 0 L 595.32 841.92 L .000008871 841.92 Z " fill-rule="evenodd"/>
</clipPath>
<g clip-path="url(#cp25356)">
<text xml:space="preserve" transform="matrix(1 0 -0 1 0 841.92)" font-size="14.04" font-family="Times New Roman,Italic" font-style="italic"><tspan y="-772.56" x="366.67 376.75074 383.81285 389.21824 396.28034 402.40177 409.46388 413.4091 416.76466 422.2683 429.23216 433.17738 437.1226 440.47816 447.442 454.5041 459.1794 463.02638 469.9902 477.0523 484.1144 487.46998 491.4152 498.4773 504.59873 511.56257 518.6247 522.1347 525.58859 531.8223 538.7862 545.01998 551.9838 555.9291">Harakat zaif bo&#x2019;lgan joyda, kuchli</tspan></text>
</g>
<clipPath id="cp25357">
<path transform="matrix(1,0,0,-1,0,841.92)" d="M .000008871 0 L 595.32 0 L 595.32 841.92 L .000008871 841.92 Z " fill-rule="evenodd"/>
</clipPath>
<g clip-path="url(#cp25357)">
<text xml:space="preserve" transform="matrix(1 0 -0 1 0 841.92)" font-size="14.04" font-family="Times New Roman,Italic" font-style="italic"><tspan y="-772.56" x="560.02"> </tspan></text>
</g>
<clipPath id="cp25358">
<path transform="matrix(1,0,0,-1,0,841.92)" d="M .000008871 0 L 595.32 0 L 595.32 841.92 L .000008871 841.92 Z " fill-rule="evenodd"/>
</clipPath>
<g clip-path="url(#cp25358)">
</g>
</g>
<g id="Layer-1" data-name="P">
<clipPath id="cp25359">
<path transform="matrix(1,0,0,-1,0,841.92)" d="M .000008871 0 L 595.32 0 L 595.32 841.92 L .000008871 841.92 Z " fill-rule="evenodd"/>
</clipPath>
<g clip-path="url(#cp25359)">
<text xml:space="preserve" transform="matrix(1 0 -0 1 0 841.92)" font-size="14.04" font-family="Times New Roman,Italic" font-style="italic"><tspan y="-748.3" x="364.63 371.6921 375.53907 379.48429">bili</tspan></text>
</g>
<clipPath id="cp25360">
<path transform="matrix(1,0,0,-1,0,841.92)" d="M .000008871 0 L 595.32 0 L 595.32 841.92 L .000008871 841.92 Z " fill-rule="evenodd"/>
</clipPath>
<g clip-path="url(#cp25360)">
<text xml:space="preserve" transform="matrix(1 0 -0 1 0 841.92)" font-size="14.04" font-family="Times New Roman,Italic" font-style="italic"><tspan y="-748.3" x="383.47">m</tspan></text>
</g>
<clipPath id="cp25361">
<path transform="matrix(1,0,0,-1,0,841.92)" d="M .000008871 0 L 595.32 0 L 595.32 841.92 L .000008871 841.92 Z " fill-rule="evenodd"/>
</clipPath>
<g clip-path="url(#cp25361)">
<text xml:space="preserve" transform="matrix(1 0 -0 1 0 841.92)" font-size="14.04" font-family="Times New Roman,Italic" font-style="italic"><tspan y="-748.3" x="393.55"> </tspan></text>
</g>
<clipPath id="cp25362">
<path transform="matrix(1,0,0,-1,0,841.92)" d="M .000008871 0 L 595.32 0 L 595.32 841.92 L .000008871 841.92 Z " fill-rule="evenodd"/>
</clipPath>
<g clip-path="url(#cp25362)">
<text xml:space="preserve" transform="matrix(1 0 -0 1 0 841.92)" font-size="14.04" font-family="Times New Roman,Italic" font-style="italic"><tspan y="-748.3" x="396.91 400.85523 407.91734 414.03877 421.0026 428.0647 433.4701 437.31706 442.8207 449.78456 453.72978 459.23344 462.74345 466.1973 476.278 483.24186 488.7455 495.80763 501.92906 508.89289 512.83816 518.2435 522.1888 527.69247 531.04806 538.0119 541.95718 545.80416 549.7494 559.83016">foydasizdir. Harakatsiz bilim </tspan></text>
</g>
<clipPath id="cp25363">
<path transform="matrix(1,0,0,-1,0,841.92)" d="M .000008871 0 L 595.32 0 L 595.32 841.92 L .000008871 841.92 Z " fill-rule="evenodd"/>
</clipPath>
<g clip-path="url(#cp25363)">
<text xml:space="preserve" transform="matrix(1 0 -0 1 0 841.92)" font-size="14.04" font-family="Times New Roman,Italic" font-style="italic"><tspan y="-748.3" x="563.5"> </tspan></text>
</g>
<clipPath id="cp25364">
<path transform="matrix(1,0,0,-1,0,841.92)" d="M .000008871 0 L 595.32 0 L 595.32 841.92 L .000008871 841.92 Z " fill-rule="evenodd"/>
</clipPath>
<g clip-path="url(#cp25364)">
</g>
</g>
<g id="Layer-1" data-name="P">
<clipPath id="cp25365">
<path transform="matrix(1,0,0,-1,0,841.92)" d="M .000008871 0 L 595.32 0 L 595.32 841.92 L .000008871 841.92 Z " fill-rule="evenodd"/>
</clipPath>
<g clip-path="url(#cp25365)">
<text xml:space="preserve" transform="matrix(1 0 -0 1 0 841.92)" font-size="14.04" font-family="Times New Roman,Italic" font-style="italic"><tspan y="-724.18" x="201.65 205.12999 208.60999 212.08998 215.56998 219.04998 222.52997 226.00997 229.60228 233.08228 236.56227 240.04227 243.52227 247.00226 250.59458 254.07457 257.55458 261.03459 264.5146 267.9946 271.58695 275.06697 278.54698 282.02699 285.507 288.987 292.57936 296.05937 299.53938 303.01939 306.4994 309.9794 313.57176 317.05177 320.53178 324.1241 327.60414 331.08415 334.56416 338.04417 341.52418 345.00419 348.4842 352.07655 355.55656">                                             </tspan></text>
</g>
<clipPath id="cp25366">
<path transform="matrix(1,0,0,-1,0,841.92)" d="M .000008871 0 L 595.32 0 L 595.32 841.92 L .000008871 841.92 Z " fill-rule="evenodd"/>
</clipPath>
<g clip-path="url(#cp25366)">
<text xml:space="preserve" transform="matrix(1 0 -0 1 0 841.92)" font-size="14.04" font-family="Times New Roman,Italic" font-style="italic"><tspan y="-724.18" x="359.11 363.0552 370.1173 375.5227 379.46794 384.9716 388.4816 394.57496 401.63706 411.71778 418.6816 425.7437 429.09928 436.16139 440.72438 447.78648 451.63343 458.69554 462.54249">ipsiz kamon o&#x2019;qidir</tspan></text>
</g>
<clipPath id="cp25367">
<path transform="matrix(1,0,0,-1,0,841.92)" d="M .000008871 0 L 595.32 0 L 595.32 841.92 L .000008871 841.92 Z " fill-rule="evenodd"/>
</clipPath>
<g clip-path="url(#cp25367)">
<text xml:space="preserve" transform="matrix(1 0 -0 1 0 841.92)" font-size="14.04" font-family="Times New Roman,Italic" font-style="italic"><tspan y="-724.18" x="468.22 471.7">. </tspan></text>
</g>
<clipPath id="cp25368">
<path transform="matrix(1,0,0,-1,0,841.92)" d="M .000008871 0 L 595.32 0 L 595.32 841.92 L .000008871 841.92 Z " fill-rule="evenodd"/>
</clipPath>
<g clip-path="url(#cp25368)">
<text xml:space="preserve" transform="matrix(1 0 -0 1 0 841.92)" font-size="14.04" font-family="Times New Roman,Italic" font-style="italic"><tspan y="-724.18" x="475.06"> </tspan></text>
</g>
<clipPath id="cp25369">
<path transform="matrix(1,0,0,-1,0,841.92)" d="M .000008871 0 L 595.32 0 L 595.32 841.92 L .000008871 841.92 Z " fill-rule="evenodd"/>
</clipPath>
<g clip-path="url(#cp25369)">
</g>
</g>
<g id="Layer-1" data-name="P">
<clipPath id="cp25370">
<path transform="matrix(1,0,0,-1,0,841.92)" d="M .000008871 0 L 595.32 0 L 595.32 841.92 L .000008871 841.92 Z " fill-rule="evenodd"/>
</clipPath>
<g clip-path="url(#cp25370)">
<text xml:space="preserve" transform="matrix(1 0 -0 1 0 841.92)" font-size="14.04" font-family="Times New Roman,Bold" font-weight="bold"><tspan y="-699.82" x="466.3 476.3807 479.9609 489.0869 496.2754 507.80223 514.8643 522.67056 528.1742 535.9804 542.93026 549.164 553.011">A.Zamahshariy</tspan></text>
</g>
<clipPath id="cp25371">
<path transform="matrix(1,0,0,-1,0,841.92)" d="M .000008871 0 L 595.32 0 L 595.32 841.92 L .000008871 841.92 Z " fill-rule="evenodd"/>
</clipPath>
<g clip-path="url(#cp25371)">
<text xml:space="preserve" transform="matrix(1 0 -0 1 0 841.92)" font-size="14.04" font-family="Times New Roman,Bold" font-weight="bold"><tspan y="-699.82" x="560.02"> </tspan></text>
</g>
</g>
<g id="Layer-1" data-name="P">
<clipPath id="cp25372">
<path transform="matrix(1,0,0,-1,0,841.92)" d="M .000008871 0 L 595.32 0 L 595.32 841.92 L .000008871 841.92 Z " fill-rule="evenodd"/>
</clipPath>
<g clip-path="url(#cp25372)">
<text xml:space="preserve" transform="matrix(1 0 -0 1 0 841.92)" font-size="14.04" font-family="Times New Roman,Bold" font-weight="bold"><tspan y="-675.7" x="322.51"> </tspan></text>
</g>
</g>
<g id="Layer-1" data-name="P">
<clipPath id="cp25373">
<path transform="matrix(1,0,0,-1,0,841.92)" d="M .000008871 0 L 595.32 0 L 595.32 841.92 L .000008871 841.92 Z " fill-rule="evenodd"/>
</clipPath>
<g clip-path="url(#cp25373)">
<text xml:space="preserve" transform="matrix(1 0 -0 1 0 841.92)" font-size="14.04" font-family="Times New Roman,Bold" font-weight="bold"><tspan y="-651.46" x="114.38">6</tspan></text>
</g>
<clipPath id="cp25374">
<path transform="matrix(1,0,0,-1,0,841.92)" d="M .000008871 0 L 595.32 0 L 595.32 841.92 L .000008871 841.92 Z " fill-rule="evenodd"/>
</clipPath>
<g clip-path="url(#cp25374)">
<text xml:space="preserve" transform="matrix(1 0 -0 1 0 841.92)" font-size="14.04" font-family="Times New Roman,Bold" font-weight="bold"><tspan y="-651.46" x="121.46">-</tspan></text>
</g>
<clipPath id="cp25375">
<path transform="matrix(1,0,0,-1,0,841.92)" d="M .000008871 0 L 595.32 0 L 595.32 841.92 L .000008871 841.92 Z " fill-rule="evenodd"/>
</clipPath>
<g clip-path="url(#cp25375)">
<text xml:space="preserve" transform="matrix(1 0 -0 1 0 841.92)" font-size="14.04" font-family="Times New Roman,Bold" font-weight="bold"><tspan y="-651.46" x="126.14 135.50469 146.42781 155.7925 159.26038 162.77037 175.9399 186.02062 190.69594 200.06063 210.14134 223.33895 234.13571 243.5004 252.86508 262.93177 273.01249 276.5225 285.88719 296.02406 305.17814 315.25886 324.7218 334.80253 344.88325 350.3869 353.8969 363.94956 374.03028 377.54029 387.59294 396.9576 407.03834 417.21733 427.29804 432.8017 436.3117 445.6764 456.59953 464.36366 475.1604 486.08354 496.16426 506.24497 511.74864 519.5549 530.47799">BOB. MA&#x2019;LUMOTLAR BAZALARI VA ULARNI BOSHQARISH </tspan></text>
</g>
<clipPath id="cp25376">
<path transform="matrix(1,0,0,-1,0,841.92)" d="M .000008871 0 L 595.32 0 L 595.32 841.92 L .000008871 841.92 Z " fill-rule="evenodd"/>
</clipPath>
<g clip-path="url(#cp25376)">
<text xml:space="preserve" transform="matrix(1 0 -0 1 0 841.92)" font-size="14.04" font-family="Times New Roman,Bold" font-weight="bold"><tspan y="-627.34" x="283.61 292.97468 298.47834 307.60435 313.108 326.3056 335.6703 345.751 355.83174">TIZIMLARI</tspan></text>
</g>
<clipPath id="cp25377">
<path transform="matrix(1,0,0,-1,0,841.92)" d="M .000008871 0 L 595.32 0 L 595.32 841.92 L .000008871 841.92 Z " fill-rule="evenodd"/>
</clipPath>
<g clip-path="url(#cp25377)">
<text xml:space="preserve" transform="matrix(1 0 -0 1 0 841.92)" font-size="14.04" font-family="Times New Roman,Bold" font-weight="bold"><tspan y="-627.34" x="361.39"> </tspan></text>
</g>
</g>
<g id="Layer-1" data-name="P">
<clipPath id="cp25378">
<path transform="matrix(1,0,0,-1,0,841.92)" d="M .000008871 0 L 595.32 0 L 595.32 841.92 L .000008871 841.92 Z " fill-rule="evenodd"/>
</clipPath>
<g clip-path="url(#cp25378)">
<text xml:space="preserve" transform="matrix(1 0 -0 1 0 841.92)" font-size="14.04" font-family="Times New Roman,Bold" font-weight="bold"><tspan y="-603.22" x="96.744 103.80612 107.316127 114.33612">6.1.</tspan></text>
</g>
<clipPath id="cp25379">
<path transform="matrix(1,0,0,-1,0,841.92)" d="M .000008871 0 L 595.32 0 L 595.32 841.92 L .000008871 841.92 Z " fill-rule="evenodd"/>
</clipPath>
<g clip-path="url(#cp25379)">
<text xml:space="preserve" transform="matrix(1 0 -0 1 0 841.92)" font-size="14.04" font-family="Arial,Bold" font-weight="bold"><tspan y="-603.22" x="117.74"> </tspan></text>
</g>
<clipPath id="cp25380">
<path transform="matrix(1,0,0,-1,0,841.92)" d="M .000008871 0 L 595.32 0 L 595.32 841.92 L .000008871 841.92 Z " fill-rule="evenodd"/>
</clipPath>
<g clip-path="url(#cp25380)">
<text xml:space="preserve" transform="matrix(1 0 -0 1 0 841.92)" font-size="14.04" font-family="Times New Roman,Bold" font-weight="bold"><tspan y="-603.22" x="132.14 145.3376 152.39972 157.07505 161.02028 168.82653 180.33933 187.40145 191.96445 195.90969 202.9718 209.20557 212.71556 220.36737 227.42949 233.55094 240.51477 244.46 251.42385 257.6576 261.6028 265.11283 268.56669 281.76429 288.8264 293.38938 297.3346 305.14085 316.65364 323.71574 328.39106 332.238 339.3001 345.53388 349.04389 356.69569 363.75779 369.8792 376.9413 382.3467 386.29194 393.9718 397.91703 405.72328 412.78538 416.14094 420.08616 426.31993 432.44136 439.50346 445.62489 452.68699 456.6322 464.18574 467.69575 471.1496 477.38337 483.61714 487.5764 494.6385 501.7006 506.26359 511.66899 515.6142 522.67636 530.48257 533.83816 540.802 547.86416">Ma&#x2019;lumotlar bazalari. Ma&#x2019;lumotlar bazasining ierarxik, relyatsion va </tspan></text>
</g>
<clipPath id="cp25381">
<path transform="matrix(1,0,0,-1,0,841.92)" d="M .000008871 0 L 595.32 0 L 595.32 841.92 L .000008871 841.92 Z " fill-rule="evenodd"/>
</clipPath>
<g clip-path="url(#cp25381)">
<text xml:space="preserve" transform="matrix(1 0 -0 1 0 841.92)" font-size="14.04" font-family="Times New Roman,Bold" font-weight="bold"><tspan y="-579.1" x="265.85 270.52534 277.60148 283.83525 295.36207 302.42417 310.2304 314.06333 318.00856 321.51856 333.00328 340.06538 347.8716 354.10539 357.95234 361.89756 368.95967 375.0811 379.0263 382.53633">tarmoqli modellari  </tspan></text>
</g>
<clipPath id="cp25382">
<path transform="matrix(1,0,0,-1,0,841.92)" d="M .000008871 0 L 595.32 0 L 595.32 841.92 L .000008871 841.92 Z " fill-rule="evenodd"/>
</clipPath>
<g clip-path="url(#cp25382)">
<text xml:space="preserve" transform="matrix(1 0 -0 1 0 841.92)" font-size="14.04" font-family="Times New Roman,Bold" font-weight="bold"><tspan y="-579.1" x="385.99"> </tspan></text>
</g>
</g>
<g id="Layer-1" data-name="P">
<clipPath id="cp25383">
<path transform="matrix(1,0,0,-1,0,841.92)" d="M .000008871 0 L 595.32 0 L 595.32 841.92 L .000008871 841.92 Z " fill-rule="evenodd"/>
</clipPath>
<g clip-path="url(#cp25383)">
<text xml:space="preserve" transform="matrix(1 0 -0 1 0 841.92)" font-size="14.04" font-family="Times New Roman"><tspan y="-555.07" x="120.5 129.02228 135.36837 146.05281 153.11493 160.17705 166.41082 173.37465 177.31989 184.15737 189.18369 201.66526 211.02994 216.05626 220.0015 226.23526 233.31143 240.27527 247.33739 251.18434 258.1482 265.2103 269.15553 275.99299 282.22676 287.74446 291.5914 298.6535 304.88728 309.9136 322.39518 331.63349 338.6956 342.6408 347.66716 352.69349 359.65733 365.89109 370.5664 376.80018 380.66117 384.60639 390.01179 397.07389 400.5839 405.58216 412.546 419.6081 426.57194 432.8057 437.83204 444.89414 448.83937 455.07313 465.75758 471.99134 475.93656 480.9629 485.98924 493.05134">Zamonaviy MB texnologiyasida MBni  yaratish, unga xizmat  ko</tspan></text>
</g>
<clipPath id="cp25384">
<path transform="matrix(1,0,0,-1,0,841.92)" d="M .000008871 0 L 595.32 0 L 595.32 841.92 L .000008871 841.92 Z " fill-rule="evenodd"/>
</clipPath>
<g clip-path="url(#cp25384)">
<text xml:space="preserve" transform="matrix(1 0 -0 1 0 841.92)" font-size="14.04" font-family="Times New Roman"><tspan y="-555.07" x="500.62">&#x2019;</tspan></text>
</g>
<clipPath id="cp25385">
<path transform="matrix(1,0,0,-1,0,841.92)" d="M .000008871 0 L 595.32 0 L 595.32 841.92 L .000008871 841.92 Z " fill-rule="evenodd"/>
</clipPath>
<g clip-path="url(#cp25385)">
<text xml:space="preserve" transform="matrix(1 0 -0 1 0 841.92)" font-size="14.04" font-family="Times New Roman"><tspan y="-555.07" x="505.18 509.85533 515.359 521.5928 525.43978 529.28677 534.7904 541.85256 546.87887 553.8427 559.9642">rsatish va </tspan></text>
</g>
<clipPath id="cp25386">
<path transform="matrix(1,0,0,-1,0,841.92)" d="M .000008871 0 L 595.32 0 L 595.32 841.92 L .000008871 841.92 Z " fill-rule="evenodd"/>
</clipPath>
<g clip-path="url(#cp25386)">
<text xml:space="preserve" transform="matrix(1 0 -0 1 0 841.92)" font-size="14.04" font-family="Times New Roman"><tspan y="-530.95" x="85.104 89.77932 96.85548 103.692958 110.75507 116.98883 120.934078 127.05551 134.11763 141.08147 148.14359 154.26503 161.22887 165.1741 169.11934 175.24079 179.9161 186.87995 190.82518 196.6939 209.17546 218.54015 224.52118 231.48502 235.43025 239.37549 245.49694 252.55905 258.4278 262.37303 267.7784 274.74226 278.68748 284.92124 290.32664 297.29048 301.2357 308.19953 314.32096 320.302 324.24723 334.93168 341.99378 349.05589 356.11799 362.09904 368.9365 375.17027 379.84559 386.07936 390.0386 393.88557 399.29096 406.35307 412.3341 423.01856 429.25233 436.32847 441.83213 448.79597 454.29963 460.16838 467.23048 473.46424 478.86964 482.71659 489.7787 494.454 498.39924 505.2367 511.21775 518.27987 525.2437 530.7474 534.59439 538.5396 544.6611 548.6063 554.7278 559.4031">foydalanuvchilarni MB bilan ishlashiga imkon yaratish maxsus dasturiy vositalar </tspan></text>
</g>
<clipPath id="cp25387">
<path transform="matrix(1,0,0,-1,0,841.92)" d="M .000008871 0 L 595.32 0 L 595.32 841.92 L .000008871 841.92 Z " fill-rule="evenodd"/>
</clipPath>
<g clip-path="url(#cp25387)">
<text xml:space="preserve" transform="matrix(1 0 -0 1 0 841.92)" font-size="14.04" font-family="Times New Roman"><tspan y="-506.83" x="85.104 91.941478 99.00359 103.67892 110.75507 116.98883 127.67327 131.6185 138.68062 144.91439 152.70658 158.94034 169.62479 175.85855 179.80379 186.8659 193.09967 200.89186 207.95398 213.35938 220.32321 224.26845 228.94377 232.79073 236.73596 242.8574 249.91953 253.86476 257.37477">yordamida amalga oshiriladi. </tspan></text>
</g>
</g>
<g id="Layer-1" data-name="P">
<clipPath id="cp25388">
<path transform="matrix(1,0,0,-1,0,841.92)" d="M .000008871 0 L 595.32 0 L 595.32 841.92 L .000008871 841.92 Z " fill-rule="evenodd"/>
</clipPath>
<g clip-path="url(#cp25388)">
<text xml:space="preserve" transform="matrix(1 0 -0 1 0 841.92)" font-size="14.04" font-family="Times New Roman"><tspan y="-506.83" x="265.37 274.6083 281.57215 288.63426 295.69636 301.9301 308.78163 316.57383 323.53767 329.77143 335.28913 339.13609 346.19819 350.76118 354.7064 361.54386 369.33607 376.39817 383.46028 388.86567 392.71263 396.65785 402.8916 406.73857 412.97233 417.64765 425.43986 436.1243 442.4704 446.41563 457.10008 464.16218 470.39595 475.91365 479.85887">Bunday dasturiy vositalar majmuasi </tspan></text>
</g>
</g>
<g id="Layer-1" data-name="P">
<clipPath id="cp25389">
<path transform="matrix(1,0,0,-1,0,841.92)" d="M .000008871 0 L 595.32 0 L 595.32 841.92 L .000008871 841.92 Z " fill-rule="evenodd"/>
</clipPath>
<g clip-path="url(#cp25389)">
<text xml:space="preserve" transform="matrix(1 0 -0 1 0 841.92)" font-size="14.04" font-family="Times New Roman,BoldItalic" font-weight="bold" font-style="italic"><tspan y="-506.83" x="487.66 498.82014">ma</tspan></text>
</g>
</g>
<g id="Layer-1" data-name="P">
<clipPath id="cp25390">
<path transform="matrix(1,0,0,-1,0,841.92)" d="M .000008871 0 L 595.32 0 L 595.32 841.92 L .000008871 841.92 Z " fill-rule="evenodd"/>
</clipPath>
<g clip-path="url(#cp25390)">
<text xml:space="preserve" transform="matrix(1 0 -0 1 0 841.92)" font-size="14.04" font-family="Times New Roman,BoldItalic" font-weight="bold" font-style="italic"><tspan y="-506.83" x="505.78">&#x2019;</tspan></text>
</g>
</g>
<g id="Layer-1" data-name="P">
<clipPath id="cp25391">
<path transform="matrix(1,0,0,-1,0,841.92)" d="M .000008871 0 L 595.32 0 L 595.32 841.92 L .000008871 841.92 Z " fill-rule="evenodd"/>
</clipPath>
<g clip-path="url(#cp25391)">
<text xml:space="preserve" transform="matrix(1 0 -0 1 0 841.92)" font-size="14.04" font-family="Times New Roman,BoldItalic" font-weight="bold" font-style="italic"><tspan y="-506.83" x="510.34 514.2852 521.8387 532.98648 539.9503 543.7973 547.74258 554.5801 559.9855">lumotlar </tspan></text>
</g>
</g>
<g id="Layer-1" data-name="P">
<clipPath id="cp25392">
<path transform="matrix(1,0,0,-1,0,841.92)" d="M .000008871 0 L 595.32 0 L 595.32 841.92 L .000008871 841.92 Z " fill-rule="evenodd"/>
</clipPath>
<g clip-path="url(#cp25392)">
<text xml:space="preserve" transform="matrix(1 0 -0 1 0 841.92)" font-size="14.04" font-family="Times New Roman,BoldItalic" font-weight="bold" font-style="italic"><tspan y="-482.71" x="85.104 92.166118 99.12995 104.535358 111.59747 117.00288 120.94812 128.75437 132.6996 136.05516 143.019 150.08112 155.5848 163.26468 170.22852 177.29064 182.69603 186.64127 192.04666 199.8529 203.3629 207.16774 211.11298 216.51837 220.23897 231.38674 235.23369 242.19753 247.7012 251.64644 255.15644 259.69136 272.1729 281.5376">bazasini boshqarish tizimlari (MBB</tspan></text>
</g>
</g>
<g id="Layer-1" data-name="P">
<clipPath id="cp25393">
<path transform="matrix(1,0,0,-1,0,841.92)" d="M .000008871 0 L 595.32 0 L 595.32 841.92 L .000008871 841.92 Z " fill-rule="evenodd"/>
</clipPath>
<g clip-path="url(#cp25393)">
<text xml:space="preserve" transform="matrix(1 0 -0 1 0 841.92)" font-size="14.04" font-family="Times New Roman,BoldItalic" font-weight="bold" font-style="italic"><tspan y="-482.71" x="291.05">&#x0422;</tspan></text>
</g>
</g>
<g id="Layer-1" data-name="P">
<clipPath id="cp25394">
<path transform="matrix(1,0,0,-1,0,841.92)" d="M .000008871 0 L 595.32 0 L 595.32 841.92 L .000008871 841.92 Z " fill-rule="evenodd"/>
</clipPath>
<g clip-path="url(#cp25394)">
<text xml:space="preserve" transform="matrix(1 0 -0 1 0 841.92)" font-size="14.04" font-family="Times New Roman,BoldItalic" font-weight="bold" font-style="italic"><tspan y="-482.71" x="299.57">)</tspan></text>
</g>
</g>
<g id="Layer-1" data-name="P">
<clipPath id="cp25395">
<path transform="matrix(1,0,0,-1,0,841.92)" d="M .000008871 0 L 595.32 0 L 595.32 841.92 L .000008871 841.92 Z " fill-rule="evenodd"/>
</clipPath>
<g clip-path="url(#cp25395)">
<text xml:space="preserve" transform="matrix(1 0 -0 1 0 841.92)" font-size="14.04" font-family="Times New Roman"><tspan y="-482.71" x="304.25"> </tspan></text>
</g>
</g>
<g id="Layer-1" data-name="P">
<clipPath id="cp25396">
<path transform="matrix(1,0,0,-1,0,841.92)" d="M .000008871 0 L 595.32 0 L 595.32 841.92 L .000008871 841.92 Z " fill-rule="evenodd"/>
</clipPath>
<g clip-path="url(#cp25396)">
<text xml:space="preserve" transform="matrix(1 0 -0 1 0 841.92)" font-size="14.04" font-family="Times New Roman"><tspan y="-482.71" x="307.73 314.69386 320.9276 327.89146 331.40147 337.63523 341.53834 347.7721 351.6752 357.90898 364.84474 368.78996">deb ataladi.</tspan></text>
</g>
</g>
<g id="Layer-1" data-name="P">
<clipPath id="cp25397">
<path transform="matrix(1,0,0,-1,0,841.92)" d="M .000008871 0 L 595.32 0 L 595.32 841.92 L .000008871 841.92 Z " fill-rule="evenodd"/>
</clipPath>
<g clip-path="url(#cp25397)">
<text xml:space="preserve" transform="matrix(1 0 -0 1 0 841.92)" font-size="14.04" font-family="Times New Roman"><tspan y="-482.71" x="372.19"> </tspan></text>
</g>
</g>
<g id="Layer-1" data-name="P">
<clipPath id="cp25398">
<path transform="matrix(1,0,0,-1,0,841.92)" d="M .000008871 0 L 595.32 0 L 595.32 841.92 L .000008871 841.92 Z " fill-rule="evenodd"/>
</clipPath>
<g clip-path="url(#cp25398)">
<text xml:space="preserve" transform="matrix(1 0 -0 1 0 841.92)" font-size="14.04" font-family="Times New Roman,BoldItalic" font-weight="bold" font-style="italic"><tspan y="-458.47" x="120.5 132.98 142.34311">MBB</tspan></text>
</g>
</g>
<g id="Layer-1" data-name="P">
<clipPath id="cp25399">
<path transform="matrix(1,0,0,-1,0,841.92)" d="M .000008871 0 L 595.32 0 L 595.32 841.92 L .000008871 841.92 Z " fill-rule="evenodd"/>
</clipPath>
<g clip-path="url(#cp25399)">
<text xml:space="preserve" transform="matrix(1 0 -0 1 0 841.92)" font-size="14.04" font-family="Times New Roman,BoldItalic" font-weight="bold" font-style="italic"><tspan y="-458.47" x="151.7">&#x0422;</tspan></text>
</g>
</g>
<g id="Layer-1" data-name="P">
<clipPath id="cp25400">
<path transform="matrix(1,0,0,-1,0,841.92)" d="M .000008871 0 L 595.32 0 L 595.32 841.92 L .000008871 841.92 Z " fill-rule="evenodd"/>
</clipPath>
<g clip-path="url(#cp25400)">
<text xml:space="preserve" transform="matrix(1 0 -0 1 0 841.92)" font-size="14.04" font-family="Times New Roman,Bold" font-weight="bold"><tspan y="-458.47" x="160.22"> </tspan></text>
</g>
</g>
<g id="Layer-1" data-name="P">
<clipPath id="cp25401">
<path transform="matrix(1,0,0,-1,0,841.92)" d="M .000008871 0 L 595.32 0 L 595.32 841.92 L .000008871 841.92 Z " fill-rule="evenodd"/>
</clipPath>
<g clip-path="url(#cp25401)">
<text xml:space="preserve" transform="matrix(1 0 -0 1 0 841.92)" font-size="14.04" font-family="Times New Roman,Bold" font-weight="bold"><tspan y="-458.47" x="164.42">&#x2013;</tspan></text>
</g>
</g>
<g id="Layer-1" data-name="P">
<clipPath id="cp25402">
<path transform="matrix(1,0,0,-1,0,841.92)" d="M .000008871 0 L 595.32 0 L 595.32 841.92 L .000008871 841.92 Z " fill-rule="evenodd"/>
</clipPath>
<g clip-path="url(#cp25402)">
<text xml:space="preserve" transform="matrix(1 0 -0 1 0 841.92)" font-size="14.04" font-family="Times New Roman,Bold" font-weight="bold"><tspan y="-458.47" x="171.5"> </tspan></text>
</g>
</g>
<g id="Layer-1" data-name="P">
<clipPath id="cp25403">
<path transform="matrix(1,0,0,-1,0,841.92)" d="M .000008871 0 L 595.32 0 L 595.32 841.92 L .000008871 841.92 Z " fill-rule="evenodd"/>
</clipPath>
<g clip-path="url(#cp25403)">
<text xml:space="preserve" transform="matrix(1 0 -0 1 0 841.92)" font-size="14.04" font-family="Times New Roman"><tspan y="-458.47" x="175.7 188.18157 197.54625 204.49605 208.44129 212.6252 219.46268 225.69644 230.37177 236.60553 240.56482 244.51006 249.91545 256.97758 260.48759 264.64344 271.60728 278.66938 282.6146 286.79853 293.76237 300.7262 304.67143 310.90519 317.13896 321.716 328.7781 332.96205 339.92588 346.98799 350.83494 357.0687">MBni yaratish, uni dolzarb holat</tspan></text>
</g>
</g>
<g id="Layer-1" data-name="P">
<clipPath id="cp25404">
<path transform="matrix(1,0,0,-1,0,841.92)" d="M .000008871 0 L 595.32 0 L 595.32 841.92 L .000008871 841.92 Z " fill-rule="evenodd"/>
</clipPath>
<g clip-path="url(#cp25404)">
<text xml:space="preserve" transform="matrix(1 0 -0 1 0 841.92)" font-size="14.04" font-family="Times New Roman"><tspan y="-458.47" x="361.15 368.2121 374.44587 378.64384 385.60768 391.11134 398.07518 402.0204 408.1418 415.20393 419.38786 423.2348 430.2969 434.97224 438.81919 444.22459 451.28669 454.7967 458.95256 463.13648 470.19859 476.43235 480.99534 487.2291 494.30525 498.1522 502.0974 506.28135 512.4028 519.4649 526.4288 533.4909 538.0539 545.116 548.963 555.9269 559.77389">da ushlab turish,  kerakli axborotni </tspan></text>
</g>
</g>
<g id="Layer-1" data-name="P">
<clipPath id="cp25405">
<path transform="matrix(1,0,0,-1,0,841.92)" d="M .000008871 0 L 595.32 0 L 595.32 841.92 L .000008871 841.92 Z " fill-rule="evenodd"/>
</clipPath>
<g clip-path="url(#cp25405)">
<text xml:space="preserve" transform="matrix(1 0 -0 1 0 841.92)" font-size="14.04" font-family="Times New Roman"><tspan y="-434.35" x="85.104 89.04924 96.01308 103.075199 106.92216 112.32756 119.38968 126.353519 130.29875 134.37035 138.2173 144.45107 149.85646 156.8203 163.88242 167.72937 171.6746 175.7462 181.97997 185.82692 189.77216 195.17755 202.23967 206.1849 213.24703 219.48079 223.55239 230.51622 237.48006 242.98374">topishni tashkil etish va bosh</tspan></text>
</g>
</g>
<g id="Layer-1" data-name="P">
<clipPath id="cp25406">
<path transform="matrix(1,0,0,-1,0,841.92)" d="M .000008871 0 L 595.32 0 L 595.32 841.92 L .000008871 841.92 Z " fill-rule="evenodd"/>
</clipPath>
<g clip-path="url(#cp25406)">
<text xml:space="preserve" transform="matrix(1 0 -0 1 0 841.92)" font-size="14.04" font-family="Times New Roman"><tspan y="-434.35" x="250.13 257.1921 263.42588 267.37113 274.43324 280.667 286.78843 290.73365 295.40898 301.5304 305.47563 311.70939 316.27238 323.33448 327.18144 331.25306 338.31517 344.54893 348.39588 354.62965 359.30497 363.15193 368.65559 375.71769 379.66294 386.72505 392.84648 399.90858 406.8724 413.9345 418.00614 424.2399 430.36134 435.03666 442.1128 446.67579 450.7474 457.8095">qa vazifalarni bajarish uchun zarur bo</tspan></text>
</g>
</g>
<g id="Layer-1" data-name="P">
<clipPath id="cp25407">
<path transform="matrix(1,0,0,-1,0,841.92)" d="M .000008871 0 L 595.32 0 L 595.32 841.92 L .000008871 841.92 Z " fill-rule="evenodd"/>
</clipPath>
<g clip-path="url(#cp25407)">
<text xml:space="preserve" transform="matrix(1 0 -0 1 0 841.92)" font-size="14.04" font-family="Times New Roman"><tspan y="-434.35" x="465.22">&#x2019;</tspan></text>
</g>
</g>
<g id="Layer-1" data-name="P">
<clipPath id="cp25408">
<path transform="matrix(1,0,0,-1,0,841.92)" d="M .000008871 0 L 595.32 0 L 595.32 841.92 L .000008871 841.92 Z " fill-rule="evenodd"/>
</clipPath>
<g clip-path="url(#cp25408)">
<text xml:space="preserve" transform="matrix(1 0 -0 1 0 841.92)" font-size="14.04" font-family="Times New Roman"><tspan y="-434.35" x="469.78 473.72523 479.84666 486.90876 490.7557 497.8178 503.93925 511.00135 515.07296 522.0368 528.27059 533.67599 537.6212 544.5851 549.2604 553.2056 559.9308">ladigan dasturiy </tspan></text>
</g>
</g>
<g id="Layer-1" data-name="P">
<clipPath id="cp25409">
<path transform="matrix(1,0,0,-1,0,841.92)" d="M .000008871 0 L 595.32 0 L 595.32 841.92 L .000008871 841.92 Z " fill-rule="evenodd"/>
</clipPath>
<g clip-path="url(#cp25409)">
<text xml:space="preserve" transform="matrix(1 0 -0 1 0 841.92)" font-size="14.04" font-family="Times New Roman"><tspan y="-410.23" x="85.104 92.166118 99.12995 104.535358 108.4806 112.42584 118.54728 122.49252 128.72629 133.40161 136.9116 147.56798 153.80175 157.74698 168.43143 175.49355 181.72731 187.24504 191.19028 198.15412 202.09935 206.66236">vositalar majmuasidir.</tspan></text>
</g>
</g>
<g id="Layer-1" data-name="P">
<clipPath id="cp25410">
<path transform="matrix(1,0,0,-1,0,841.92)" d="M .000008871 0 L 595.32 0 L 595.32 841.92 L .000008871 841.92 Z " fill-rule="evenodd"/>
</clipPath>
<g clip-path="url(#cp25410)">
<text xml:space="preserve" transform="matrix(1 0 -0 1 0 841.92)" font-size="14.04" font-family="Times New Roman"><tspan y="-410.23" x="210.29"> </tspan></text>
</g>
</g>
<g id="Layer-1" data-name="P">
<clipPath id="cp25411">
<path transform="matrix(1,0,0,-1,0,841.92)" d="M .000008871 0 L 595.32 0 L 595.32 841.92 L .000008871 841.92 Z " fill-rule="evenodd"/>
</clipPath>
<g clip-path="url(#cp25411)">
<text xml:space="preserve" transform="matrix(1 0 -0 1 0 841.92)" font-size="14.04" font-family="Times New Roman"><tspan y="-410.23" x="213.77 226.25 235.61312">MBB</tspan></text>
</g>
</g>
<g id="Layer-1" data-name="P">
<clipPath id="cp25412">
<path transform="matrix(1,0,0,-1,0,841.92)" d="M .000008871 0 L 595.32 0 L 595.32 841.92 L .000008871 841.92 Z " fill-rule="evenodd"/>
</clipPath>
<g clip-path="url(#cp25412)">
<text xml:space="preserve" transform="matrix(1 0 -0 1 0 841.92)" font-size="14.04" font-family="Times New Roman"><tspan y="-410.23" x="244.97">&#x0422;</tspan></text>
</g>
</g>
<g id="Layer-1" data-name="P">
<clipPath id="cp25413">
<path transform="matrix(1,0,0,-1,0,841.92)" d="M .000008871 0 L 595.32 0 L 595.32 841.92 L .000008871 841.92 Z " fill-rule="evenodd"/>
</clipPath>
<g clip-path="url(#cp25413)">
<text xml:space="preserve" transform="matrix(1 0 -0 1 0 841.92)" font-size="14.04" font-family="Times New Roman"><tspan y="-410.23" x="253.49"> </tspan></text>
</g>
</g>
<g id="Layer-1" data-name="P">
<clipPath id="cp25414">
<path transform="matrix(1,0,0,-1,0,841.92)" d="M .000008871 0 L 595.32 0 L 595.32 841.92 L .000008871 841.92 Z " fill-rule="evenodd"/>
</clipPath>
<g clip-path="url(#cp25414)">
<text xml:space="preserve" transform="matrix(1 0 -0 1 0 841.92)" font-size="14.04" font-family="Times New Roman"><tspan y="-410.23" x="257.09 267.77445 271.71968 277.22334 284.18717 288.1324 292.0776 295.43318 300.93684 304.88206 309.55738 315.6788 319.52577 323.3727 330.4348 336.66859 340.1786 347.11436 354.17646 361.01393 364.95915 372.02125 378.14268 385.20478 389.05174 392.99696 399.2307 403.7937 410.75755 414.70277 418.21278 425.23277 431.3823 435.3275 439.17448 443.02143 447.69676 451.64198 457.04737 464.10948 467.61949 478.27586 485.46434 496.14878 503.21089 507.1561 514.2182 518.16348">misoli sifatida quyidagilarni keltirish mumkin: </tspan></text>
</g>
</g>
<g id="Layer-1" data-name="P">
<clipPath id="cp25415">
<path transform="matrix(1,0,0,-1,0,841.92)" d="M .000008871 0 L 595.32 0 L 595.32 841.92 L .000008871 841.92 Z " fill-rule="evenodd"/>
</clipPath>
<g clip-path="url(#cp25415)">
<text xml:space="preserve" transform="matrix(1 0 -0 1 0 841.92)" font-size="14.04" font-family="Times New Roman"><tspan y="-410.23" x="521.86"> </tspan></text>
</g>
</g>
<g id="Layer-1" data-name="P">
<clipPath id="cp25416">
<path transform="matrix(1,0,0,-1,0,841.92)" d="M .000008871 0 L 595.32 0 L 595.32 841.92 L .000008871 841.92 Z " fill-rule="evenodd"/>
</clipPath>
<g clip-path="url(#cp25416)">
<text xml:space="preserve" transform="matrix(1 0 -0 1 0 841.92)" font-size="14.04" font-family="Wingdings"><tspan y="-386.09" x="138.5">&#xf0fc;</tspan></text>
</g>
<clipPath id="cp25417">
<path transform="matrix(1,0,0,-1,0,841.92)" d="M .000008871 0 L 595.32 0 L 595.32 841.92 L .000008871 841.92 Z " fill-rule="evenodd"/>
</clipPath>
<g clip-path="url(#cp25417)">
<text xml:space="preserve" transform="matrix(1 0 -0 1 0 841.92)" font-size="14.04" font-family="Arial"><tspan y="-386.09" x="149.54"> </tspan></text>
</g>
<clipPath id="cp25418">
<path transform="matrix(1,0,0,-1,0,841.92)" d="M .000008871 0 L 595.32 0 L 595.32 841.92 L .000008871 841.92 Z " fill-rule="evenodd"/>
</clipPath>
<g clip-path="url(#cp25418)">
<text xml:space="preserve" transform="matrix(1 0 -0 1 0 841.92)" font-size="14.04" font-family="Times New Roman"><tspan y="-386.09" x="156.5 166.58072 175.9454 186.02613 193.83237 202.3406 205.8506 212.8706 219.10437 224.65018 228.49713 235.55925 240.12226 244.06749 248.01273">DBASE dasturi; </tspan></text>
</g>
<clipPath id="cp25419">
<path transform="matrix(1,0,0,-1,0,841.92)" d="M .000008871 0 L 595.32 0 L 595.32 841.92 L .000008871 841.92 Z " fill-rule="evenodd"/>
</clipPath>
<g clip-path="url(#cp25419)">
<text xml:space="preserve" transform="matrix(1 0 -0 1 0 841.92)" font-size="14.04" font-family="Times New Roman"><tspan y="-386.09" x="251.45"> </tspan></text>
</g>
<clipPath id="cp25420">
<path transform="matrix(1,0,0,-1,0,841.92)" d="M .000008871 0 L 595.32 0 L 595.32 841.92 L .000008871 841.92 Z " fill-rule="evenodd"/>
</clipPath>
<g clip-path="url(#cp25420)">
</g>
</g>
<g id="Layer-1" data-name="P">
<clipPath id="cp25421">
<path transform="matrix(1,0,0,-1,0,841.92)" d="M .000008871 0 L 595.32 0 L 595.32 841.92 L .000008871 841.92 Z " fill-rule="evenodd"/>
</clipPath>
<g clip-path="url(#cp25421)">
<text xml:space="preserve" transform="matrix(1 0 -0 1 0 841.92)" font-size="14.04" font-family="Wingdings"><tspan y="-361.97" x="138.5">&#xf0fc;</tspan></text>
</g>
<clipPath id="cp25422">
<path transform="matrix(1,0,0,-1,0,841.92)" d="M .000008871 0 L 595.32 0 L 595.32 841.92 L .000008871 841.92 Z " fill-rule="evenodd"/>
</clipPath>
<g clip-path="url(#cp25422)">
<text xml:space="preserve" transform="matrix(1 0 -0 1 0 841.92)" font-size="14.04" font-family="Arial"><tspan y="-361.97" x="149.54"> </tspan></text>
</g>
<clipPath id="cp25423">
<path transform="matrix(1,0,0,-1,0,841.92)" d="M .000008871 0 L 595.32 0 L 595.32 841.92 L .000008871 841.92 Z " fill-rule="evenodd"/>
</clipPath>
<g clip-path="url(#cp25423)">
<text xml:space="preserve" transform="matrix(1 0 -0 1 0 841.92)" font-size="14.04" font-family="Times New Roman"><tspan y="-361.97" x="156.5 168.98157 172.9268 179.16057 183.72357 190.78569 196.19109 203.2532 207.81621 211.76145 215.27144 225.32408 231.55785 237.79161 243.9271 249.43077 254.83617">Microsoft Access;</tspan></text>
</g>
<clipPath id="cp25424">
<path transform="matrix(1,0,0,-1,0,841.92)" d="M .000008871 0 L 595.32 0 L 595.32 841.92 L .000008871 841.92 Z " fill-rule="evenodd"/>
</clipPath>
<g clip-path="url(#cp25424)">
<text xml:space="preserve" transform="matrix(1 0 -0 1 0 841.92)" font-size="14.04" font-family="Times New Roman"><tspan y="-361.97" x="258.77"> </tspan></text>
</g>
<clipPath id="cp25425">
<path transform="matrix(1,0,0,-1,0,841.92)" d="M .000008871 0 L 595.32 0 L 595.32 841.92 L .000008871 841.92 Z " fill-rule="evenodd"/>
</clipPath>
<g clip-path="url(#cp25425)">
</g>
</g>
<g id="Layer-1" data-name="P">
<clipPath id="cp25426">
<path transform="matrix(1,0,0,-1,0,841.92)" d="M .000008871 0 L 595.32 0 L 595.32 841.92 L .000008871 841.92 Z " fill-rule="evenodd"/>
</clipPath>
<g clip-path="url(#cp25426)">
<text xml:space="preserve" transform="matrix(1 0 -0 1 0 841.92)" font-size="14.04" font-family="Wingdings"><tspan y="-337.73" x="138.5">&#xf0fc;</tspan></text>
</g>
<clipPath id="cp25427">
<path transform="matrix(1,0,0,-1,0,841.92)" d="M .000008871 0 L 595.32 0 L 595.32 841.92 L .000008871 841.92 Z " fill-rule="evenodd"/>
</clipPath>
<g clip-path="url(#cp25427)">
<text xml:space="preserve" transform="matrix(1 0 -0 1 0 841.92)" font-size="14.04" font-family="Arial"><tspan y="-337.73" x="149.54"> </tspan></text>
</g>
<clipPath id="cp25428">
<path transform="matrix(1,0,0,-1,0,841.92)" d="M .000008871 0 L 595.32 0 L 595.32 841.92 L .000008871 841.92 Z " fill-rule="evenodd"/>
</clipPath>
<g clip-path="url(#cp25428)">
<text xml:space="preserve" transform="matrix(1 0 -0 1 0 841.92)" font-size="14.04" font-family="Times New Roman"><tspan y="-337.73" x="156.5 168.98157 172.9268 179.16057 183.72357 190.78569 196.19109 203.2532 207.81621 211.76145 215.27144 223.07769 229.9994 237.06153 240.57152 248.37776 252.89865 259.96076 263.47077 268.00569 274.9695">Microsoft Fox Pro for</tspan></text>
</g>
<clipPath id="cp25429">
<path transform="matrix(1,0,0,-1,0,841.92)" d="M .000008871 0 L 595.32 0 L 595.32 841.92 L .000008871 841.92 Z " fill-rule="evenodd"/>
</clipPath>
<g clip-path="url(#cp25429)">
<text xml:space="preserve" transform="matrix(1 0 -0 1 0 841.92)" font-size="14.04" font-family="Times New Roman"><tspan y="-337.73" x="279.77"> </tspan></text>
</g>
<clipPath id="cp25430">
<path transform="matrix(1,0,0,-1,0,841.92)" d="M .000008871 0 L 595.32 0 L 595.32 841.92 L .000008871 841.92 Z " fill-rule="evenodd"/>
</clipPath>
<g clip-path="url(#cp25430)">
<text xml:space="preserve" transform="matrix(1 0 -0 1 0 841.92)" font-size="14.04" font-family="Times New Roman"><tspan y="-337.73" x="283.25 296.33528 301.0106 311.2036 321.28434 331.46333 344.54859 352.35484">WINDOWS;</tspan></text>
</g>
<clipPath id="cp25431">
<path transform="matrix(1,0,0,-1,0,841.92)" d="M .000008871 0 L 595.32 0 L 595.32 841.92 L .000008871 841.92 Z " fill-rule="evenodd"/>
</clipPath>
<g clip-path="url(#cp25431)">
<text xml:space="preserve" transform="matrix(1 0 -0 1 0 841.92)" font-size="14.04" font-family="Times New Roman"><tspan y="-337.73" x="356.35"> </tspan></text>
</g>
<clipPath id="cp25432">
<path transform="matrix(1,0,0,-1,0,841.92)" d="M .000008871 0 L 595.32 0 L 595.32 841.92 L .000008871 841.92 Z " fill-rule="evenodd"/>
</clipPath>
<g clip-path="url(#cp25432)">
</g>
</g>
<g id="Layer-1" data-name="P">
<clipPath id="cp25433">
<path transform="matrix(1,0,0,-1,0,841.92)" d="M .000008871 0 L 595.32 0 L 595.32 841.92 L .000008871 841.92 Z " fill-rule="evenodd"/>
</clipPath>
<g clip-path="url(#cp25433)">
<text xml:space="preserve" transform="matrix(1 0 -0 1 0 841.92)" font-size="14.04" font-family="Wingdings"><tspan y="-313.61" x="138.5">&#xf0fc;</tspan></text>
</g>
<clipPath id="cp25434">
<path transform="matrix(1,0,0,-1,0,841.92)" d="M .000008871 0 L 595.32 0 L 595.32 841.92 L .000008871 841.92 Z " fill-rule="evenodd"/>
</clipPath>
<g clip-path="url(#cp25434)">
<text xml:space="preserve" transform="matrix(1 0 -0 1 0 841.92)" font-size="14.04" font-family="Arial"><tspan y="-313.61" x="149.54"> </tspan></text>
</g>
<clipPath id="cp25435">
<path transform="matrix(1,0,0,-1,0,841.92)" d="M .000008871 0 L 595.32 0 L 595.32 841.92 L .000008871 841.92 Z " fill-rule="evenodd"/>
</clipPath>
<g clip-path="url(#cp25435)">
<text xml:space="preserve" transform="matrix(1 0 -0 1 0 841.92)" font-size="14.04" font-family="Times New Roman"><tspan y="-313.61" x="156.5 164.30625 170.54001 175.21533 181.4491 188.42699 195.39083 202.45294 205.96294 210.63826 217.65827 222.33359 225.84358 238.92887 243.60419 253.6849 263.76564 273.84635 286.9316 294.73786">Paradox for WINDOWS.</tspan></text>
</g>
<clipPath id="cp25436">
<path transform="matrix(1,0,0,-1,0,841.92)" d="M .000008871 0 L 595.32 0 L 595.32 841.92 L .000008871 841.92 Z " fill-rule="evenodd"/>
</clipPath>
<g clip-path="url(#cp25436)">
<text xml:space="preserve" transform="matrix(1 0 -0 1 0 841.92)" font-size="14.04" font-family="Times New Roman"><tspan y="-313.61" x="298.37"> </tspan></text>
</g>
<clipPath id="cp25437">
<path transform="matrix(1,0,0,-1,0,841.92)" d="M .000008871 0 L 595.32 0 L 595.32 841.92 L .000008871 841.92 Z " fill-rule="evenodd"/>
</clipPath>
<g clip-path="url(#cp25437)">
</g>
</g>
<g id="Layer-1" data-name="P">
<clipPath id="cp25438">
<path transform="matrix(1,0,0,-1,0,841.92)" d="M .000008871 0 L 595.32 0 L 595.32 841.92 L .000008871 841.92 Z " fill-rule="evenodd"/>
</clipPath>
<g clip-path="url(#cp25438)">
<text xml:space="preserve" transform="matrix(1 0 -0 1 0 841.92)" font-size="14.04" font-family="Times New Roman"><tspan y="-289.49" x="120.5 132.98157 142.34626 150.36309 157.4252 161.27216 165.21739 171.45116 178.52733 186.5582 190.40515 195.81055 202.87267 206.8179 212.93935 218.34474 225.40686 232.3707 238.49214 246.52301 253.58513 257.53038 262.2057 266.05265 271.45805 278.52015 282.3671 287.87077 294.8346 301.8967 308.01814 315.08024 323.1111 330.07496 334.02018 340.984 344.92924 351.99134 359.89588 370.69264">MB bilan ishlashga kirishishdan oldin ma</tspan></text>
</g>
<clipPath id="cp25439">
<path transform="matrix(1,0,0,-1,0,841.92)" d="M .000008871 0 L 595.32 0 L 595.32 841.92 L .000008871 841.92 Z " fill-rule="evenodd"/>
</clipPath>
<g clip-path="url(#cp25439)">
<text xml:space="preserve" transform="matrix(1 0 -0 1 0 841.92)" font-size="14.04" font-family="Times New Roman"><tspan y="-289.49" x="377.23">&#x2019;</tspan></text>
</g>
<clipPath id="cp25440">
<path transform="matrix(1,0,0,-1,0,841.92)" d="M .000008871 0 L 595.32 0 L 595.32 841.92 L .000008871 841.92 Z " fill-rule="evenodd"/>
</clipPath>
<g clip-path="url(#cp25440)">
<text xml:space="preserve" transform="matrix(1 0 -0 1 0 841.92)" font-size="14.04" font-family="Times New Roman"><tspan y="-289.49" x="381.79 385.73524 392.9237 403.60816 410.67027 414.61549 418.5607 424.79447 429.35746 436.3213 440.2665 448.2974 452.2426 458.47639 463.88179 470.8456 474.79084 479.35383 483.29905 489.5328 494.9382 502.0003 510.0312 520.7156 527.7777 534.83987 541.0736 545.01889 548.86587 555.8297 559.77499">lumotlarni tasvirlash modelini </tspan></text>
</g>
<clipPath id="cp25441">
<path transform="matrix(1,0,0,-1,0,841.92)" d="M .000008871 0 L 595.32 0 L 595.32 841.92 L .000008871 841.92 Z " fill-rule="evenodd"/>
</clipPath>
<g clip-path="url(#cp25441)">
<text xml:space="preserve" transform="matrix(1 0 -0 1 0 841.92)" font-size="14.04" font-family="Times New Roman"><tspan y="-265.37" x="85.104 89.04924 95.283 102.24683 106.19208 112.313518 119.37563 122.885639 129.8214 133.66835 137.61359 143.01898 150.0811 153.5911 160.52686 166.76062 171.43595 177.57143 184.63355 188.14354 191.59737 201.67809 205.18808 212.20809 219.2983 226.13578 230.08101 237.14313 243.26457 250.22841 254.17365 257.68367 261.58677 267.7363 271.68153 277.80296 284.86506 288.712 294.94578 299.6211 306.59898 312.83274 316.34275 320.16163 326.3954 333.47154 340.43537 347.49748 351.00749 357.94325 364.177 368.85234 372.69929 378.10469 385.16679 389.112 392.46757 396.41279 403.37663 409.61039 413.5556 424.24006">tanlab olish kerak. U quyidagi talablarga javob berishi lozim:</tspan></text>
</g>
<clipPath id="cp25442">
<path transform="matrix(1,0,0,-1,0,841.92)" d="M .000008871 0 L 595.32 0 L 595.32 841.92 L .000008871 841.92 Z " fill-rule="evenodd"/>
</clipPath>
<g clip-path="url(#cp25442)">
<text xml:space="preserve" transform="matrix(1 0 -0 1 0 841.92)" font-size="14.04" font-family="Times New Roman"><tspan y="-265.37" x="428.47"> </tspan></text>
</g>
</g>
<g id="Layer-1" data-name="P">
<clipPath id="cp25443">
<path transform="matrix(1,0,0,-1,0,841.92)" d="M .000008871 0 L 595.32 0 L 595.32 841.92 L .000008871 841.92 Z " fill-rule="evenodd"/>
</clipPath>
<g clip-path="url(#cp25443)">
<text xml:space="preserve" transform="matrix(1 0 -0 1 0 841.92)" font-size="14.04" font-family="Wingdings"><tspan y="-241.13" x="138.5">&#xf0fc;</tspan></text>
</g>
<clipPath id="cp25444">
<path transform="matrix(1,0,0,-1,0,841.92)" d="M .000008871 0 L 595.32 0 L 595.32 841.92 L .000008871 841.92 Z " fill-rule="evenodd"/>
</clipPath>
<g clip-path="url(#cp25444)">
<text xml:space="preserve" transform="matrix(1 0 -0 1 0 841.92)" font-size="14.04" font-family="Arial"><tspan y="-241.13" x="149.54"> </tspan></text>
</g>
<clipPath id="cp25445">
<path transform="matrix(1,0,0,-1,0,841.92)" d="M .000008871 0 L 595.32 0 L 595.32 841.92 L .000008871 841.92 Z " fill-rule="evenodd"/>
</clipPath>
<g clip-path="url(#cp25445)">
<text xml:space="preserve" transform="matrix(1 0 -0 1 0 841.92)" font-size="14.04" font-family="Times New Roman"><tspan y="-241.13" x="156.5 167.30013">ma</tspan></text>
</g>
<clipPath id="cp25446">
<path transform="matrix(1,0,0,-1,0,841.92)" d="M .000008871 0 L 595.32 0 L 595.32 841.92 L .000008871 841.92 Z " fill-rule="evenodd"/>
</clipPath>
<g clip-path="url(#cp25446)">
<text xml:space="preserve" transform="matrix(1 0 -0 1 0 841.92)" font-size="14.04" font-family="Times New Roman"><tspan y="-241.13" x="173.54">&#x2019;</tspan></text>
</g>
<clipPath id="cp25447">
<path transform="matrix(1,0,0,-1,0,841.92)" d="M .000008871 0 L 595.32 0 L 595.32 841.92 L .000008871 841.92 Z " fill-rule="evenodd"/>
</clipPath>
<g clip-path="url(#cp25447)">
<text xml:space="preserve" transform="matrix(1 0 -0 1 0 841.92)" font-size="14.04" font-family="Times New Roman"><tspan y="-241.13" x="178.1">l</tspan></text>
</g>
<clipPath id="cp25448">
<path transform="matrix(1,0,0,-1,0,841.92)" d="M .000008871 0 L 595.32 0 L 595.32 841.92 L .000008871 841.92 Z " fill-rule="evenodd"/>
</clipPath>
<g clip-path="url(#cp25448)">
<text xml:space="preserve" transform="matrix(1 0 -0 1 0 841.92)" font-size="14.04" font-family="Times New Roman"><tspan y="-241.13" x="182.06 189.24849 199.93294 206.99506 210.94029 214.88553 221.1193 225.6823 232.64614 236.59137 240.10137 247.03713">umotlarni ko</tspan></text>
</g>
</g>
<g id="Layer-1" data-name="P">
<clipPath id="cp25449">
<path transform="matrix(1,0,0,-1,0,841.92)" d="M .000008871 0 L 595.32 0 L 595.32 841.92 L .000008871 841.92 Z " fill-rule="evenodd"/>
</clipPath>
<g clip-path="url(#cp25449)">
<text xml:space="preserve" transform="matrix(1 0 -0 1 0 841.92)" font-size="14.04" font-family="Times New Roman"><tspan y="-241.13" x="254.21">&#x2019;</tspan></text>
</g>
</g>
<g id="Layer-1" data-name="P">
<clipPath id="cp25450">
<path transform="matrix(1,0,0,-1,0,841.92)" d="M .000008871 0 L 595.32 0 L 595.32 841.92 L .000008871 841.92 Z " fill-rule="evenodd"/>
</clipPath>
<g clip-path="url(#cp25450)">
<text xml:space="preserve" transform="matrix(1 0 -0 1 0 841.92)" font-size="14.04" font-family="Times New Roman"><tspan y="-241.13" x="258.77 263.4453 270.52146 276.64289 282.98899 293.67344 299.9072 303.85243 307.79765 311.30766 315.21076 321.3603 326.7657 333.8278 337.773 342.336 346.28123 352.40266 357.80805 364.87016">rgazmali tasvirlash;</tspan></text>
</g>
</g>
<g id="Layer-1" data-name="P">
<clipPath id="cp25451">
<path transform="matrix(1,0,0,-1,0,841.92)" d="M .000008871 0 L 595.32 0 L 595.32 841.92 L .000008871 841.92 Z " fill-rule="evenodd"/>
</clipPath>
<g clip-path="url(#cp25451)">
<text xml:space="preserve" transform="matrix(1 0 -0 1 0 841.92)" font-size="14.04" font-family="Times New Roman"><tspan y="-241.13" x="368.83"> </tspan></text>
</g>
<clipPath id="cp25452">
<path transform="matrix(1,0,0,-1,0,841.92)" d="M .000008871 0 L 595.32 0 L 595.32 841.92 L .000008871 841.92 Z " fill-rule="evenodd"/>
</clipPath>
<g clip-path="url(#cp25452)">
</g>
</g>
<g id="Layer-1" data-name="P">
<clipPath id="cp25453">
<path transform="matrix(1,0,0,-1,0,841.92)" d="M .000008871 0 L 595.32 0 L 595.32 841.92 L .000008871 841.92 Z " fill-rule="evenodd"/>
</clipPath>
<g clip-path="url(#cp25453)">
<text xml:space="preserve" transform="matrix(1 0 -0 1 0 841.92)" font-size="14.04" font-family="Wingdings"><tspan y="-216.98" x="138.5">&#xf0fc;</tspan></text>
</g>
<clipPath id="cp25454">
<path transform="matrix(1,0,0,-1,0,841.92)" d="M .000008871 0 L 595.32 0 L 595.32 841.92 L .000008871 841.92 Z " fill-rule="evenodd"/>
</clipPath>
<g clip-path="url(#cp25454)">
<text xml:space="preserve" transform="matrix(1 0 -0 1 0 841.92)" font-size="14.04" font-family="Arial"><tspan y="-216.98" x="149.54"> </tspan></text>
</g>
<clipPath id="cp25455">
<path transform="matrix(1,0,0,-1,0,841.92)" d="M .000008871 0 L 595.32 0 L 595.32 841.92 L .000008871 841.92 Z " fill-rule="evenodd"/>
</clipPath>
<g clip-path="url(#cp25455)">
<text xml:space="preserve" transform="matrix(1 0 -0 1 0 841.92)" font-size="14.04" font-family="Times New Roman"><tspan y="-216.98" x="156.5 167.30013">ma</tspan></text>
</g>
<clipPath id="cp25456">
<path transform="matrix(1,0,0,-1,0,841.92)" d="M .000008871 0 L 595.32 0 L 595.32 841.92 L .000008871 841.92 Z " fill-rule="evenodd"/>
</clipPath>
<g clip-path="url(#cp25456)">
<text xml:space="preserve" transform="matrix(1 0 -0 1 0 841.92)" font-size="14.04" font-family="Times New Roman"><tspan y="-216.98" x="173.54">&#x2019;</tspan></text>
</g>
<clipPath id="cp25457">
<path transform="matrix(1,0,0,-1,0,841.92)" d="M .000008871 0 L 595.32 0 L 595.32 841.92 L .000008871 841.92 Z " fill-rule="evenodd"/>
</clipPath>
<g clip-path="url(#cp25457)">
<text xml:space="preserve" transform="matrix(1 0 -0 1 0 841.92)" font-size="14.04" font-family="Times New Roman"><tspan y="-216.98" x="178.1">l</tspan></text>
</g>
<clipPath id="cp25458">
<path transform="matrix(1,0,0,-1,0,841.92)" d="M .000008871 0 L 595.32 0 L 595.32 841.92 L .000008871 841.92 Z " fill-rule="evenodd"/>
</clipPath>
<g clip-path="url(#cp25458)">
<text xml:space="preserve" transform="matrix(1 0 -0 1 0 841.92)" font-size="14.04" font-family="Times New Roman"><tspan y="-216.98" x="182.06 189.24849 199.93294 206.99506 210.94029 214.88553 221.1193 225.6823 232.64614 236.59137 240.10137 247.03713 250.98236 255.65769 259.50465 263.3516 267.2968 272.7022 279.7643 286.72816 292.9619 296.47193 301.84925 308.91136 315.87519 322.9373 329.05873 333.00395 336.8509 343.81474">umotlarni kiritishda soddalik;</tspan></text>
</g>
<clipPath id="cp25459">
<path transform="matrix(1,0,0,-1,0,841.92)" d="M .000008871 0 L 595.32 0 L 595.32 841.92 L .000008871 841.92 Z " fill-rule="evenodd"/>
</clipPath>
<g clip-path="url(#cp25459)">
<text xml:space="preserve" transform="matrix(1 0 -0 1 0 841.92)" font-size="14.04" font-family="Times New Roman"><tspan y="-216.98" x="347.83"> </tspan></text>
</g>
<clipPath id="cp25460">
<path transform="matrix(1,0,0,-1,0,841.92)" d="M .000008871 0 L 595.32 0 L 595.32 841.92 L .000008871 841.92 Z " fill-rule="evenodd"/>
</clipPath>
<g clip-path="url(#cp25460)">
</g>
</g>
<g id="Layer-1" data-name="P">
<clipPath id="cp25461">
<path transform="matrix(1,0,0,-1,0,841.92)" d="M .000008871 0 L 595.32 0 L 595.32 841.92 L .000008871 841.92 Z " fill-rule="evenodd"/>
</clipPath>
<g clip-path="url(#cp25461)">
<text xml:space="preserve" transform="matrix(1 0 -0 1 0 841.92)" font-size="14.04" font-family="Wingdings"><tspan y="-192.86" x="138.5">&#xf0fc;</tspan></text>
</g>
<clipPath id="cp25462">
<path transform="matrix(1,0,0,-1,0,841.92)" d="M .000008871 0 L 595.32 0 L 595.32 841.92 L .000008871 841.92 Z " fill-rule="evenodd"/>
</clipPath>
<g clip-path="url(#cp25462)">
<text xml:space="preserve" transform="matrix(1 0 -0 1 0 841.92)" font-size="14.04" font-family="Arial"><tspan y="-192.86" x="149.54"> </tspan></text>
</g>
<clipPath id="cp25463">
<path transform="matrix(1,0,0,-1,0,841.92)" d="M .000008871 0 L 595.32 0 L 595.32 841.92 L .000008871 841.92 Z " fill-rule="evenodd"/>
</clipPath>
<g clip-path="url(#cp25463)">
<text xml:space="preserve" transform="matrix(1 0 -0 1 0 841.92)" font-size="14.04" font-family="Times New Roman"><tspan y="-192.86" x="156.5 167.30013">ma</tspan></text>
</g>
<clipPath id="cp25464">
<path transform="matrix(1,0,0,-1,0,841.92)" d="M .000008871 0 L 595.32 0 L 595.32 841.92 L .000008871 841.92 Z " fill-rule="evenodd"/>
</clipPath>
<g clip-path="url(#cp25464)">
<text xml:space="preserve" transform="matrix(1 0 -0 1 0 841.92)" font-size="14.04" font-family="Times New Roman"><tspan y="-192.86" x="173.54">&#x2019;</tspan></text>
</g>
<clipPath id="cp25465">
<path transform="matrix(1,0,0,-1,0,841.92)" d="M .000008871 0 L 595.32 0 L 595.32 841.92 L .000008871 841.92 Z " fill-rule="evenodd"/>
</clipPath>
<g clip-path="url(#cp25465)">
<text xml:space="preserve" transform="matrix(1 0 -0 1 0 841.92)" font-size="14.04" font-family="Times New Roman"><tspan y="-192.86" x="178.1 182.04524 189.23374 199.91819 206.9803 210.92554 214.87078 221.10454 225.66754 232.63138 236.57662">lumotlarni </tspan></text>
</g>
<clipPath id="cp25466">
<path transform="matrix(1,0,0,-1,0,841.92)" d="M .000008871 0 L 595.32 0 L 595.32 841.92 L .000008871 841.92 Z " fill-rule="evenodd"/>
</clipPath>
<g clip-path="url(#cp25466)">
<text xml:space="preserve" transform="matrix(1 0 -0 1 0 841.92)" font-size="14.04" font-family="Times New Roman"><tspan y="-192.86" x="240.17 244.11524 250.23668 254.18192 260.30335 265.807 272.8691 276.22468 283.28678 289.52055 293.03056 296.84944 303.0832 310.04704 313.99226 320.11369 325.61735 332.58119 339.64329 345.87705 349.24665 356.30876 363.27259 367.2178 373.45158 380.30308 384.2483 388.09526 395.05909">izlash va tanlashda qulaylik;</tspan></text>
</g>
<clipPath id="cp25467">
<path transform="matrix(1,0,0,-1,0,841.92)" d="M .000008871 0 L 595.32 0 L 595.32 841.92 L .000008871 841.92 Z " fill-rule="evenodd"/>
</clipPath>
<g clip-path="url(#cp25467)">
<text xml:space="preserve" transform="matrix(1 0 -0 1 0 841.92)" font-size="14.04" font-family="Times New Roman"><tspan y="-192.86" x="399.07"> </tspan></text>
</g>
<clipPath id="cp25468">
<path transform="matrix(1,0,0,-1,0,841.92)" d="M .000008871 0 L 595.32 0 L 595.32 841.92 L .000008871 841.92 Z " fill-rule="evenodd"/>
</clipPath>
<g clip-path="url(#cp25468)">
</g>
</g>
<g id="Layer-1" data-name="P">
<clipPath id="cp25469">
<path transform="matrix(1,0,0,-1,0,841.92)" d="M .000008871 0 L 595.32 0 L 595.32 841.92 L .000008871 841.92 Z " fill-rule="evenodd"/>
</clipPath>
<g clip-path="url(#cp25469)">
<text xml:space="preserve" transform="matrix(1 0 -0 1 0 841.92)" font-size="14.04" font-family="Wingdings"><tspan y="-168.74" x="138.5">&#xf0fc;</tspan></text>
</g>
<clipPath id="cp25470">
<path transform="matrix(1,0,0,-1,0,841.92)" d="M .000008871 0 L 595.32 0 L 595.32 841.92 L .000008871 841.92 Z " fill-rule="evenodd"/>
</clipPath>
<g clip-path="url(#cp25470)">
<text xml:space="preserve" transform="matrix(1 0 -0 1 0 841.92)" font-size="14.04" font-family="Arial"><tspan y="-168.74" x="149.54"> </tspan></text>
</g>
<clipPath id="cp25471">
<path transform="matrix(1,0,0,-1,0,841.92)" d="M .000008871 0 L 595.32 0 L 595.32 841.92 L .000008871 841.92 Z " fill-rule="evenodd"/>
</clipPath>
<g clip-path="url(#cp25471)">
<text xml:space="preserve" transform="matrix(1 0 -0 1 0 841.92)" font-size="14.04" font-family="Times New Roman"><tspan y="-168.74" x="156.5 163.56212 170.52596 175.93135 182.99347 190.05559 196.28936 202.76178 209.8239 216.05767 222.29143 228.42691 235.48903 241.7228 248.3216 255.28543 259.23066 263.79365 267.73887 271.58583 275.43278 279.378 286.4401 292.56153 299.62364 306.2084 316.89286">boshqa bazaga kiritilgan ma</tspan></text>
</g>
<clipPath id="cp25472">
<path transform="matrix(1,0,0,-1,0,841.92)" d="M .000008871 0 L 595.32 0 L 595.32 841.92 L .000008871 841.92 Z " fill-rule="evenodd"/>
</clipPath>
<g clip-path="url(#cp25472)">
<text xml:space="preserve" transform="matrix(1 0 -0 1 0 841.92)" font-size="14.04" font-family="Times New Roman"><tspan y="-168.74" x="323.47">&#x2019;</tspan></text>
</g>
<clipPath id="cp25473">
<path transform="matrix(1,0,0,-1,0,841.92)" d="M .000008871 0 L 595.32 0 L 595.32 841.92 L .000008871 841.92 Z " fill-rule="evenodd"/>
</clipPath>
<g clip-path="url(#cp25473)">
<text xml:space="preserve" transform="matrix(1 0 -0 1 0 841.92)" font-size="14.04" font-family="Times New Roman"><tspan y="-168.74" x="328.03 331.97523 339.03733 349.72178 356.78388 360.7291 364.67433 370.90809 375.47108 382.53318 388.76695 395.73078 402.31556 406.99089 414.06703 420.90449 427.96659 434.20036 438.14558 444.37934 451.34318 455.2884 460.6938 467.7559 474.34068 478.2859 488.97035 496.03245 503.09455 510.05839 513.90536 520.74288 526.9766 530.9219 534.8671 541.92929 545.77627 552.7401 559.704">lumotlardan foydalanish imkoniyatining </tspan></text>
</g>
<clipPath id="cp25474">
<path transform="matrix(1,0,0,-1,0,841.92)" d="M .000008871 0 L 595.32 0 L 595.32 841.92 L .000008871 841.92 Z " fill-rule="evenodd"/>
</clipPath>
<g clip-path="url(#cp25474)">
</g>
<clipPath id="cp25475">
<path transform="matrix(1,0,0,-1,0,841.92)" d="M .000008871 0 L 595.32 0 L 595.32 841.92 L .000008871 841.92 Z " fill-rule="evenodd"/>
</clipPath>
<g clip-path="url(#cp25475)">
<text xml:space="preserve" transform="matrix(1 0 -0 1 0 841.92)" font-size="14.04" font-family="Times New Roman"><tspan y="-144.5" x="156.5 167.29677 173.53054 180.6067 184.45366 191.51578 198.47962 202.42485 206.2718 213.33393 217.18088">mavjudligi;</tspan></text>
</g>
<clipPath id="cp25476">
<path transform="matrix(1,0,0,-1,0,841.92)" d="M .000008871 0 L 595.32 0 L 595.32 841.92 L .000008871 841.92 Z " fill-rule="evenodd"/>
</clipPath>
<g clip-path="url(#cp25476)">
<text xml:space="preserve" transform="matrix(1 0 -0 1 0 841.92)" font-size="14.04" font-family="Times New Roman"><tspan y="-144.5" x="221.09"> </tspan></text>
</g>
<clipPath id="cp25477">
<path transform="matrix(1,0,0,-1,0,841.92)" d="M .000008871 0 L 595.32 0 L 595.32 841.92 L .000008871 841.92 Z " fill-rule="evenodd"/>
</clipPath>
<g clip-path="url(#cp25477)">
</g>
</g>
<g id="Layer-1" data-name="P">
<clipPath id="cp25478">
<path transform="matrix(1,0,0,-1,0,841.92)" d="M .000008871 0 L 595.32 0 L 595.32 841.92 L .000008871 841.92 Z " fill-rule="evenodd"/>
</clipPath>
<g clip-path="url(#cp25478)">
<text xml:space="preserve" transform="matrix(1 0 -0 1 0 841.92)" font-size="14.04" font-family="Wingdings"><tspan y="-120.38" x="138.5">&#xf0fc;</tspan></text>
</g>
<clipPath id="cp25479">
<path transform="matrix(1,0,0,-1,0,841.92)" d="M .000008871 0 L 595.32 0 L 595.32 841.92 L .000008871 841.92 Z " fill-rule="evenodd"/>
</clipPath>
<g clip-path="url(#cp25479)">
<text xml:space="preserve" transform="matrix(1 0 -0 1 0 841.92)" font-size="14.04" font-family="Arial"><tspan y="-120.38" x="149.54"> </tspan></text>
</g>
<clipPath id="cp25480">
<path transform="matrix(1,0,0,-1,0,841.92)" d="M .000008871 0 L 595.32 0 L 595.32 841.92 L .000008871 841.92 Z " fill-rule="evenodd"/>
</clipPath>
<g clip-path="url(#cp25480)">
<text xml:space="preserve" transform="matrix(1 0 -0 1 0 841.92)" font-size="14.04" font-family="Times New Roman"><tspan y="-120.38" x="156.5 168.98157 178.34626 185.29605 189.24129 196.20513 203.26725 212.96887 220.03099 226.15244 233.21456 237.06151 244.12363 247.97058 251.81754 258.87965 262.7266 269.69044 273.53739 283.3654 287.3106">MBning ochiqligini ta</tspan></text>
</g>
<clipPath id="cp25481">
<path transform="matrix(1,0,0,-1,0,841.92)" d="M .000008871 0 L 595.32 0 L 595.32 841.92 L .000008871 841.92 Z " fill-rule="evenodd"/>
</clipPath>
<g clip-path="url(#cp25481)">
<text xml:space="preserve" transform="matrix(1 0 -0 1 0 841.92)" font-size="14.04" font-family="Times New Roman"><tspan y="-120.38" x="293.69">&#x2019;</tspan></text>
</g>
<clipPath id="cp25482">
<path transform="matrix(1,0,0,-1,0,841.92)" d="M .000008871 0 L 595.32 0 L 595.32 841.92 L .000008871 841.92 Z " fill-rule="evenodd"/>
</clipPath>
<g clip-path="url(#cp25482)">
<text xml:space="preserve" transform="matrix(1 0 -0 1 0 841.92)" font-size="14.04" font-family="Times New Roman"><tspan y="-120.38" x="298.37 309.05445 312.99967 320.06178 324.007 330.12843 335.5338 342.59593 352.42393 357.09925 363.95075 370.1845 377.26066 384.2245 388.07145 398.01179 408.69624">minlash (yangi ma</tspan></text>
</g>
<clipPath id="cp25483">
<path transform="matrix(1,0,0,-1,0,841.92)" d="M .000008871 0 L 595.32 0 L 595.32 841.92 L .000008871 841.92 Z " fill-rule="evenodd"/>
</clipPath>
<g clip-path="url(#cp25483)">
<text xml:space="preserve" transform="matrix(1 0 -0 1 0 841.92)" font-size="14.04" font-family="Times New Roman"><tspan y="-120.38" x="415.03">&#x2019;</tspan></text>
</g>
<clipPath id="cp25484">
<path transform="matrix(1,0,0,-1,0,841.92)" d="M .000008871 0 L 595.32 0 L 595.32 841.92 L .000008871 841.92 Z " fill-rule="evenodd"/>
</clipPath>
<g clip-path="url(#cp25484)">
<text xml:space="preserve" transform="matrix(1 0 -0 1 0 841.92)" font-size="14.04" font-family="Times New Roman"><tspan y="-120.38" x="419.59 423.53523 430.7237 441.40815 448.47026 452.41548 456.3607 462.59446 467.26979 476.98548 484.04759 490.28135 500.10935 510.7938 517.0275 523.8791 530.9412 538.00338 545.0655 548.9125 555.14627 559.82156">lumotlar va maydonlar </tspan></text>
</g>
<clipPath id="cp25485">
<path transform="matrix(1,0,0,-1,0,841.92)" d="M .000008871 0 L 595.32 0 L 595.32 841.92 L .000008871 841.92 Z " fill-rule="evenodd"/>
</clipPath>
<g clip-path="url(#cp25485)">
</g>
<clipPath id="cp25486">
<path transform="matrix(1,0,0,-1,0,841.92)" d="M .000008871 0 L 595.32 0 L 595.32 841.92 L .000008871 841.92 Z " fill-rule="evenodd"/>
</clipPath>
<g clip-path="url(#cp25486)">
<text xml:space="preserve" transform="matrix(1 0 -0 1 0 841.92)" font-size="14.04" font-family="Times New Roman"><tspan y="-96.264" x="156.5 163.58">qo</tspan></text>
</g>
<clipPath id="cp25487">
<path transform="matrix(1,0,0,-1,0,841.92)" d="M .000008871 0 L 595.32 0 L 595.32 841.92 L .000008871 841.92 Z " fill-rule="evenodd"/>
</clipPath>
<g clip-path="url(#cp25487)">
<text xml:space="preserve" transform="matrix(1 0 -0 1 0 841.92)" font-size="14.04" font-family="Times New Roman"><tspan y="-96.264" x="170.66">&#x2019;</tspan></text>
</g>
<clipPath id="cp25488">
<path transform="matrix(1,0,0,-1,0,841.92)" d="M .000008871 0 L 595.32 0 L 595.32 841.92 L .000008871 841.92 Z " fill-rule="evenodd"/>
</clipPath>
<g clip-path="url(#cp25488)">
<text xml:space="preserve" transform="matrix(1 0 -0 1 0 841.92)" font-size="14.04" font-family="Times New Roman"><tspan y="-96.264" x="175.22 180.6254 187.68752 191.53447 196.93987 204.00199 207.51198 210.9658 218.02793 221.87488 228.10865 232.78397 239.76186 243.70709 247.06266 254.12477 257.97175 261.91697 268.97908 272.33464 276.18159 282.41535 287.93305 294.89689 298.8421 304.96354 310.36894 317.43104 320.94105 324.84416 335.55668 342.61878 349.68089 356.6447 360.58995 367.4274 373.66117 377.60639 381.5516 387.78538 392.34837 396.1953 399.70533 406.7253 412.95909 416.4691 423.43293 430.39677 437.45887 443.69264 449.81407 456.87617 461.55149">shish, ularni olib tashlash imkoniyatlari va hokazo).</tspan></text>
</g>
<clipPath id="cp25489">
<path transform="matrix(1,0,0,-1,0,841.92)" d="M .000008871 0 L 595.32 0 L 595.32 841.92 L .000008871 841.92 Z " fill-rule="evenodd"/>
</clipPath>
<g clip-path="url(#cp25489)">
<text xml:space="preserve" transform="matrix(1 0 -0 1 0 841.92)" font-size="14.04" font-family="Times New Roman"><tspan y="-96.264" x="465.22"> </tspan></text>
</g>
<clipPath id="cp25490">
<path transform="matrix(1,0,0,-1,0,841.92)" d="M .000008871 0 L 595.32 0 L 595.32 841.92 L .000008871 841.92 Z " fill-rule="evenodd"/>
</clipPath>
<g clip-path="url(#cp25490)">
</g>
</g>
</g>
</g>
</svg>
