<?xml version="1.0" encoding="UTF-8" standalone="no"?>
<!DOCTYPE svg PUBLIC "-//W3C//DTD SVG 1.1//EN" "http://www.w3.org/Graphics/SVG/1.1/DTD/svg11.dtd">
<svg xmlns="http://www.w3.org/2000/svg" xmlns:xlink="http://www.w3.org/1999/xlink" version="1.1" width="595.32pt" height="841.92pt" viewBox="0 0 595.32 841.92">
<g enable-background="new">
<g>
<g id="Layer-1" data-name="Artifact">
<clipPath id="cp25491">
<path transform="matrix(1,0,0,-1,0,841.92)" d="M .000008871 0 L 595.32 0 L 595.32 841.92 L .000008871 841.92 Z " fill-rule="evenodd"/>
</clipPath>
<g clip-path="url(#cp25491)">
<text xml:space="preserve" transform="matrix(1 0 -0 1 0 841.92)" font-size="11.04" font-family="Calibri"><tspan y="-51.864" x="314.09 319.72999 325.36997">158</tspan></text>
</g>
<clipPath id="cp25492">
<path transform="matrix(1,0,0,-1,0,841.92)" d="M .000008871 0 L 595.32 0 L 595.32 841.92 L .000008871 841.92 Z " fill-rule="evenodd"/>
</clipPath>
<g clip-path="url(#cp25492)">
<text xml:space="preserve" transform="matrix(1 0 -0 1 0 841.92)" font-size="11.04" font-family="Calibri"><tspan y="-51.864" x="331.03"> </tspan></text>
</g>
<clipPath id="cp25493">
<path transform="matrix(1,0,0,-1,0,841.92)" d="M .000008871 0 L 595.32 0 L 595.32 841.92 L .000008871 841.92 Z " fill-rule="evenodd"/>
</clipPath>
<g clip-path="url(#cp25493)">
</g>
<clipPath id="cp25494">
<path transform="matrix(1,0,0,-1,0,841.92)" d="M .000008871 0 L 595.32 0 L 595.32 841.92 L .000008871 841.92 Z " fill-rule="evenodd"/>
</clipPath>
<g clip-path="url(#cp25494)">
<text xml:space="preserve" transform="matrix(1 0 -0 1 0 841.92)" font-size="11.04" font-family="Calibri"><tspan y="-38.4" x="85.104"> </tspan></text>
</g>
<clipPath id="cp25495">
<path transform="matrix(1,0,0,-1,0,841.92)" d="M .000008871 0 L 595.32 0 L 595.32 841.92 L .000008871 841.92 Z " fill-rule="evenodd"/>
</clipPath>
<g clip-path="url(#cp25495)">
</g>
</g>
<g id="Layer-1" data-name="P">
<clipPath id="cp25496">
<path transform="matrix(1,0,0,-1,0,841.92)" d="M .000008871 0 L 595.32 0 L 595.32 841.92 L .000008871 841.92 Z " fill-rule="evenodd"/>
</clipPath>
<g clip-path="url(#cp25496)">
<text xml:space="preserve" transform="matrix(1 0 -0 1 0 841.92)" font-size="14.04" font-family="Times New Roman"><tspan y="-772.56" x="120.5 132.98157 142.34626 150.84046 157.80429 161.74953 165.59648 169.54172 175.77548 184.28372 191.1212 198.18332 205.14716 209.09239 217.60063 224.56447 228.5097 233.18503 241.58095 248.64307 254.87683 260.99827 268.06037 271.90733 278.14109 286.64933 297.33378 304.39588">MB bitta yoki bir nechta mod</tspan></text>
</g>
<clipPath id="cp25497">
<path transform="matrix(1,0,0,-1,0,841.92)" d="M .000008871 0 L 595.32 0 L 595.32 841.92 L .000008871 841.92 Z " fill-rule="evenodd"/>
</clipPath>
<g clip-path="url(#cp25497)">
<text xml:space="preserve" transform="matrix(1 0 -0 1 0 841.92)" font-size="14.04" font-family="Times New Roman"><tspan y="-772.56" x="311.69 317.92378 321.77073 325.71595 331.9497 336.5127 343.5748 349.80857 358.3168 364.43824 369.9419 376.90574 382.4094 386.25636 392.4901 399.45396 406.51606 412.63749 419.6996 428.08149 435.1436">ellarga asoslangan bo</tspan></text>
</g>
<clipPath id="cp25498">
<path transform="matrix(1,0,0,-1,0,841.92)" d="M .000008871 0 L 595.32 0 L 595.32 841.92 L .000008871 841.92 Z " fill-rule="evenodd"/>
</clipPath>
<g clip-path="url(#cp25498)">
<text xml:space="preserve" transform="matrix(1 0 -0 1 0 841.92)" font-size="14.04" font-family="Times New Roman"><tspan y="-772.56" x="442.42">&#x2019;</tspan></text>
</g>
<clipPath id="cp25499">
<path transform="matrix(1,0,0,-1,0,841.92)" d="M .000008871 0 L 595.32 0 L 595.32 841.92 L .000008871 841.92 Z " fill-rule="evenodd"/>
</clipPath>
<g clip-path="url(#cp25499)">
<text xml:space="preserve" transform="matrix(1 0 -0 1 0 841.92)" font-size="14.04" font-family="Times New Roman"><tspan y="-772.56" x="446.98 450.92524 454.7722 460.17759 467.2397 471.1849 479.5668 490.25126 497.43974 508.12419 515.1863 519.13156 526.19369 529.7037 538.18386 550.6654 559.90377">lishi mumkin. MB </tspan></text>
</g>
<clipPath id="cp25500">
<path transform="matrix(1,0,0,-1,0,841.92)" d="M .000008871 0 L 595.32 0 L 595.32 841.92 L .000008871 841.92 Z " fill-rule="evenodd"/>
</clipPath>
<g clip-path="url(#cp25500)">
<text xml:space="preserve" transform="matrix(1 0 -0 1 0 841.92)" font-size="14.04" font-family="Times New Roman"><tspan y="-748.3" x="85.104 95.78844 102.850559 109.912677 116.14643 120.091678 124.03692 130.27068 134.83368 138.68064 145.74275 149.5897 156.65183 163.71395 172.69954 179.76166 185.8831 192.94522 196.79218 202.91362 212.02558 218.25934 223.77707 230.7409 236.24459 240.18982 247.0273 256.13926 260.08448 267.14659 271.70957 275.6548 281.88856 286.45155 290.39677 299.50874 310.19319 316.42695 323.61543 327.46238 334.52449 341.58659 345.5318">modellarining uchta asosiy turlari mavjud: </tspan></text>
</g>
<clipPath id="cp25501">
<path transform="matrix(1,0,0,-1,0,841.92)" d="M .000008871 0 L 595.32 0 L 595.32 841.92 L .000008871 841.92 Z " fill-rule="evenodd"/>
</clipPath>
<g clip-path="url(#cp25501)">
<text xml:space="preserve" transform="matrix(1 0 -0 1 0 841.92)" font-size="14.04" font-family="Times New Roman,BoldItalic" font-weight="bold" font-style="italic"><tspan y="-748.3" x="354.91 360.41368 366.5351 370.48033 376.71409 383.67793 387.52488 393.02854 396.8755 403.9376 411.74385 415.25386 424.3237 428.26893 434.39036 440.6241 446.0295 453.0916 458.497 465.46086 469.40608">relyatsion, iyerarxik</tspan></text>
</g>
<clipPath id="cp25502">
<path transform="matrix(1,0,0,-1,0,841.92)" d="M .000008871 0 L 595.32 0 L 595.32 841.92 L .000008871 841.92 Z " fill-rule="evenodd"/>
</clipPath>
<g clip-path="url(#cp25502)">
<text xml:space="preserve" transform="matrix(1 0 -0 1 0 841.92)" font-size="14.04" font-family="Times New Roman"><tspan y="-748.3" x="476.62"> </tspan></text>
</g>
<clipPath id="cp25503">
<path transform="matrix(1,0,0,-1,0,841.92)" d="M .000008871 0 L 595.32 0 L 595.32 841.92 L .000008871 841.92 Z " fill-rule="evenodd"/>
</clipPath>
<g clip-path="url(#cp25503)">
<text xml:space="preserve" transform="matrix(1 0 -0 1 0 841.92)" font-size="14.04" font-family="Times New Roman"><tspan y="-748.3" x="485.62 492.6821 498.91587">va </tspan></text>
</g>
<clipPath id="cp25504">
<path transform="matrix(1,0,0,-1,0,841.92)" d="M .000008871 0 L 595.32 0 L 595.32 841.92 L .000008871 841.92 Z " fill-rule="evenodd"/>
</clipPath>
<g clip-path="url(#cp25504)">
<text xml:space="preserve" transform="matrix(1 0 -0 1 0 841.92)" font-size="14.04" font-family="Times New Roman,BoldItalic" font-weight="bold" font-style="italic"><tspan y="-748.3" x="508.06 513.56369 519.5587 530.7065 537.67037 545.3502 549.2955 553.0161 559.98">semantik </tspan></text>
</g>
<clipPath id="cp25505">
<path transform="matrix(1,0,0,-1,0,841.92)" d="M .000008871 0 L 595.32 0 L 595.32 841.92 L .000008871 841.92 Z " fill-rule="evenodd"/>
</clipPath>
<g clip-path="url(#cp25505)">
<text xml:space="preserve" transform="matrix(1 0 -0 1 0 841.92)" font-size="14.04" font-family="Times New Roman,BoldItalic" font-weight="bold" font-style="italic"><tspan y="-724.18" x="85.104 89.04924 96.01308 101.29212 112.43988 119.40372">tarmoq</tspan></text>
</g>
<clipPath id="cp25506">
<path transform="matrix(1,0,0,-1,0,841.92)" d="M .000008871 0 L 595.32 0 L 595.32 841.92 L .000008871 841.92 Z " fill-rule="evenodd"/>
</clipPath>
<g clip-path="url(#cp25506)">
<text xml:space="preserve" transform="matrix(1 0 -0 1 0 841.92)" font-size="14.04" font-family="Times New Roman"><tspan y="-724.18" x="126.5">.</tspan></text>
</g>
<clipPath id="cp25507">
<path transform="matrix(1,0,0,-1,0,841.92)" d="M .000008871 0 L 595.32 0 L 595.32 841.92 L .000008871 841.92 Z " fill-rule="evenodd"/>
</clipPath>
<g clip-path="url(#cp25507)">
<text xml:space="preserve" transform="matrix(1 0 -0 1 0 841.92)" font-size="14.04" font-family="Times New Roman"><tspan y="-724.18" x="129.86"> </tspan></text>
</g>
</g>
<g id="Layer-1" data-name="P">
<clipPath id="cp25508">
<path transform="matrix(1,0,0,-1,0,841.92)" d="M .000008871 0 L 595.32 0 L 595.32 841.92 L .000008871 841.92 Z " fill-rule="evenodd"/>
</clipPath>
<g clip-path="url(#cp25508)">
<text xml:space="preserve" transform="matrix(1 0 -0 1 0 841.92)" font-size="14.04" font-family="Times New Roman,BoldItalic" font-weight="bold" font-style="italic"><tspan y="-700.06" x="120.5 129.86469 136.09845 140.04369 146.16513 153.22725 157.0742 162.4796 166.42484 173.48696">Relyatsion</tspan></text>
</g>
<clipPath id="cp25509">
<path transform="matrix(1,0,0,-1,0,841.92)" d="M .000008871 0 L 595.32 0 L 595.32 841.92 L .000008871 841.92 Z " fill-rule="evenodd"/>
</clipPath>
<g clip-path="url(#cp25509)">
<text xml:space="preserve" transform="matrix(1 0 -0 1 0 841.92)" font-size="14.04" font-family="Times New Roman"><tspan y="-700.06" x="181.22"> </tspan></text>
</g>
<clipPath id="cp25510">
<path transform="matrix(1,0,0,-1,0,841.92)" d="M .000008871 0 L 595.32 0 L 595.32 841.92 L .000008871 841.92 Z " fill-rule="evenodd"/>
</clipPath>
<g clip-path="url(#cp25510)">
<text xml:space="preserve" transform="matrix(1 0 -0 1 0 841.92)" font-size="14.04" font-family="Times New Roman"><tspan y="-700.06" x="186.26 190.93532 194.78227 201.74611 205.69135 209.5383 216.60042 221.50037 225.4456 229.29256 233.2378 237.08475 244.14687 250.26831 257.3304 261.27565">(lotin tilidagi </tspan></text>
</g>
<clipPath id="cp25511">
<path transform="matrix(1,0,0,-1,0,841.92)" d="M .000008871 0 L 595.32 0 L 595.32 841.92 L .000008871 841.92 Z " fill-rule="evenodd"/>
</clipPath>
<g clip-path="url(#cp25511)">
<text xml:space="preserve" transform="matrix(1 0 -0 1 0 841.92)" font-size="14.04" font-family="Times New Roman,BoldItalic" font-weight="bold" font-style="italic"><tspan y="-700.06" x="266.33 271.83366 277.95509 281.9003 288.86415 292.7111 296.6563">relatio</tspan></text>
</g>
<clipPath id="cp25512">
<path transform="matrix(1,0,0,-1,0,841.92)" d="M .000008871 0 L 595.32 0 L 595.32 841.92 L .000008871 841.92 Z " fill-rule="evenodd"/>
</clipPath>
<g clip-path="url(#cp25512)">
<text xml:space="preserve" transform="matrix(1 0 -0 1 0 841.92)" font-size="14.04" font-family="Times New Roman"><tspan y="-700.06" x="303.77"> </tspan></text>
</g>
<clipPath id="cp25513">
<path transform="matrix(1,0,0,-1,0,841.92)" d="M .000008871 0 L 595.32 0 L 595.32 841.92 L .000008871 841.92 Z " fill-rule="evenodd"/>
</clipPath>
<g clip-path="url(#cp25513)">
<text xml:space="preserve" transform="matrix(1 0 -0 1 0 841.92)" font-size="14.04" font-family="Times New Roman"><tspan y="-700.06" x="308.69">&#x2014;</tspan></text>
</g>
<clipPath id="cp25514">
<path transform="matrix(1,0,0,-1,0,841.92)" d="M .000008871 0 L 595.32 0 L 595.32 841.92 L .000008871 841.92 Z " fill-rule="evenodd"/>
</clipPath>
<g clip-path="url(#cp25514)">
<text xml:space="preserve" transform="matrix(1 0 -0 1 0 841.92)" font-size="14.04" font-family="Times New Roman"><tspan y="-700.06" x="322.75"> </tspan></text>
</g>
<clipPath id="cp25515">
<path transform="matrix(1,0,0,-1,0,841.92)" d="M .000008871 0 L 595.32 0 L 595.32 841.92 L .000008871 841.92 Z " fill-rule="evenodd"/>
</clipPath>
<g clip-path="url(#cp25515)">
<text xml:space="preserve" transform="matrix(1 0 -0 1 0 841.92)" font-size="14.04" font-family="Times New Roman"><tspan y="-700.06" x="327.79 338.47447 345.53657 352.59867 359.5625 365.06617 371.29994 378.26377 384.49754 388.44276 391.95277 396.82466 403.78849 410.8506">munosabat, bog</tspan></text>
</g>
<clipPath id="cp25516">
<path transform="matrix(1,0,0,-1,0,841.92)" d="M .000008871 0 L 595.32 0 L 595.32 841.92 L .000008871 841.92 Z " fill-rule="evenodd"/>
</clipPath>
<g clip-path="url(#cp25516)">
<text xml:space="preserve" transform="matrix(1 0 -0 1 0 841.92)" font-size="14.04" font-family="Times New Roman"><tspan y="-700.06" x="418.03">&#x2019;</tspan></text>
</g>
<clipPath id="cp25517">
<path transform="matrix(1,0,0,-1,0,841.92)" d="M .000008871 0 L 595.32 0 L 595.32 841.92 L .000008871 841.92 Z " fill-rule="evenodd"/>
</clipPath>
<g clip-path="url(#cp25517)">
<text xml:space="preserve" transform="matrix(1 0 -0 1 0 841.92)" font-size="14.04" font-family="Times New Roman"><tspan y="-700.06" x="422.59 426.53523 432.65666 439.71876 443.5657 448.9711 456.0332 460.93318 466.43684">lanish so</tspan></text>
</g>
<clipPath id="cp25518">
<path transform="matrix(1,0,0,-1,0,841.92)" d="M .000008871 0 L 595.32 0 L 595.32 841.92 L .000008871 841.92 Z " fill-rule="evenodd"/>
</clipPath>
<g clip-path="url(#cp25518)">
<text xml:space="preserve" transform="matrix(1 0 -0 1 0 841.92)" font-size="14.04" font-family="Times New Roman"><tspan y="-700.06" x="473.62">&#x2019;</tspan></text>
</g>
<clipPath id="cp25519">
<path transform="matrix(1,0,0,-1,0,841.92)" d="M .000008871 0 L 595.32 0 L 595.32 841.92 L .000008871 841.92 Z " fill-rule="evenodd"/>
</clipPath>
<g clip-path="url(#cp25519)">
<text xml:space="preserve" transform="matrix(1 0 -0 1 0 841.92)" font-size="14.04" font-family="Times New Roman"><tspan y="-700.06" x="478.18 484.41377 488.35899 495.3228 501.55659 508.52043 513.5467 520.51058 524.4558 528.3028 535.26669 542.3288 548.45028 555.4141 559.9771">zidan olingan) </tspan></text>
</g>
<clipPath id="cp25520">
<path transform="matrix(1,0,0,-1,0,841.92)" d="M .000008871 0 L 595.32 0 L 595.32 841.92 L .000008871 841.92 Z " fill-rule="evenodd"/>
</clipPath>
<g clip-path="url(#cp25520)">
<text xml:space="preserve" transform="matrix(1 0 -0 1 0 841.92)" font-size="14.04" font-family="Times New Roman"><tspan y="-675.94" x="85.104 95.78844 102.850559 109.912677 116.14643 120.091678 127.15379 133.38756 149.33699 160.02144">modelda ma</tspan></text>
</g>
<clipPath id="cp25521">
<path transform="matrix(1,0,0,-1,0,841.92)" d="M .000008871 0 L 595.32 0 L 595.32 841.92 L .000008871 841.92 Z " fill-rule="evenodd"/>
</clipPath>
<g clip-path="url(#cp25521)">
<text xml:space="preserve" transform="matrix(1 0 -0 1 0 841.92)" font-size="14.04" font-family="Times New Roman"><tspan y="-675.94" x="166.34">&#x2019;</tspan></text>
</g>
<clipPath id="cp25522">
<path transform="matrix(1,0,0,-1,0,841.92)" d="M .000008871 0 L 595.32 0 L 595.32 841.92 L .000008871 841.92 Z " fill-rule="evenodd"/>
</clipPath>
<g clip-path="url(#cp25522)">
<text xml:space="preserve" transform="matrix(1 0 -0 1 0 841.92)" font-size="14.04" font-family="Times New Roman"><tspan y="-675.94" x="170.9 174.84523 182.03372 192.71817 199.78029 203.72553 207.57248 213.80625 218.48157 225.45946 229.4047 245.35413 250.8578 256.97923 263.94306 267.88829 274.12205 279.52745 286.58955 302.41264 309.47474 316.43858 320.28553 336.235 340.1802 346.41398 351.81938 358.7832 365.8453 369.69227 373.63749 389.58695 395.70838 399.6536 406.61744 413.67955 419.80097 426.86308 430.71003 446.6595 453.7216 457.56855 463.0722 473.75666">lumotlarni saqlash uni tashkil etuvchi qisml</tspan></text>
</g>
<clipPath id="cp25523">
<path transform="matrix(1,0,0,-1,0,841.92)" d="M .000008871 0 L 595.32 0 L 595.32 841.92 L .000008871 841.92 Z " fill-rule="evenodd"/>
</clipPath>
<g clip-path="url(#cp25523)">
<text xml:space="preserve" transform="matrix(1 0 -0 1 0 841.92)" font-size="14.04" font-family="Times New Roman"><tspan y="-675.94" x="478.06 484.29377 488.9691 492.92835 508.8778 515.93997 520.5029 526.7367 532.1421 536.08737 543.0512 549.17269 556.13656 559.9835">ari orasidagi </tspan></text>
</g>
<clipPath id="cp25524">
<path transform="matrix(1,0,0,-1,0,841.92)" d="M .000008871 0 L 595.32 0 L 595.32 841.92 L .000008871 841.92 Z " fill-rule="evenodd"/>
</clipPath>
<g clip-path="url(#cp25524)">
<text xml:space="preserve" transform="matrix(1 0 -0 1 0 841.92)" font-size="14.04" font-family="Times New Roman"><tspan y="-651.7" x="85.104 95.78844 102.850559 109.912677 116.97479 122.47848 128.59992 135.66204 141.8958 145.74275 149.68799 155.92176 160.48476 167.54688 173.78064 177.4872 183.60865 189.01404 196.07616 201.48155 205.3285 211.56227 218.52611 225.58823 231.82199 238.89817 242.40816 246.08664 254.60892 261.57276 268.63487 272.34144 277.74684 284.71067 291.77278 298.7366 304.97038 308.67695 315.64079 322.70289 326.54985 333.61195 339.8457 343.55229 350.61439 354.19459 358.1398 365.10365 372.06748 376.0127 379.71928">munosabatlarga asoslangan. Eng sodda holda u ikki o</tspan></text>
</g>
<clipPath id="cp25525">
<path transform="matrix(1,0,0,-1,0,841.92)" d="M .000008871 0 L 595.32 0 L 595.32 841.92 L .000008871 841.92 Z " fill-rule="evenodd"/>
</clipPath>
<g clip-path="url(#cp25525)">
<text xml:space="preserve" transform="matrix(1 0 -0 1 0 841.92)" font-size="14.04" font-family="Times New Roman"><tspan y="-651.7" x="387.19">&#x2019;</tspan></text>
</g>
<clipPath id="cp25526">
<path transform="matrix(1,0,0,-1,0,841.92)" d="M .000008871 0 L 595.32 0 L 595.32 841.92 L .000008871 841.92 Z " fill-rule="evenodd"/>
</clipPath>
<g clip-path="url(#cp25526)">
<text xml:space="preserve" transform="matrix(1 0 -0 1 0 841.92)" font-size="14.04" font-family="Times New Roman"><tspan y="-651.7" x="391.75 395.69523 401.81666 408.87876 415.8426 422.9047 426.75166 430.69688 434.40345 445.2002 451.43397 456.95167 462.35707 466.204 473.2661 476.9727 483.81016 490.87226 497.93437 501.87959 505.58616 509.4331 515.6669 522.63076 529.6929 535.81436 539.7596 546.72348 552.8449 559.8088">lchovli massiv yoki jadvaldan </tspan></text>
</g>
<clipPath id="cp25527">
<path transform="matrix(1,0,0,-1,0,841.92)" d="M .000008871 0 L 595.32 0 L 595.32 841.92 L .000008871 841.92 Z " fill-rule="evenodd"/>
</clipPath>
<g clip-path="url(#cp25527)">
<text xml:space="preserve" transform="matrix(1 0 -0 1 0 841.92)" font-size="14.04" font-family="Times New Roman"><tspan y="-627.58" x="85.104 89.04924 96.01308 103.075199 107.75052 113.871959 117.8172 126.43776 133.4016">iborat bo</tspan></text>
</g>
<clipPath id="cp25528">
<path transform="matrix(1,0,0,-1,0,841.92)" d="M .000008871 0 L 595.32 0 L 595.32 841.92 L .000008871 841.92 Z " fill-rule="evenodd"/>
</clipPath>
<g clip-path="url(#cp25528)">
<text xml:space="preserve" transform="matrix(1 0 -0 1 0 841.92)" font-size="14.04" font-family="Times New Roman"><tspan y="-627.58" x="140.54">&#x2019;</tspan></text>
</g>
<clipPath id="cp25529">
<path transform="matrix(1,0,0,-1,0,841.92)" d="M .000008871 0 L 595.32 0 L 595.32 841.92 L .000008871 841.92 Z " fill-rule="evenodd"/>
</clipPath>
<g clip-path="url(#cp25529)">
<text xml:space="preserve" transform="matrix(1 0 -0 1 0 841.92)" font-size="14.04" font-family="Times New Roman"><tspan y="-627.58" x="145.1 149.04524 155.279 162.24285 166.18808 169.69808 178.29055 190.77211 197.73595 202.29895 208.53272 215.49655 222.55867 228.79244 235.8686 244.48917 250.61061 257.57447 264.63658 271.69868 276.26167 283.2255 287.17073 295.7913 306.47575 313.53785 320.59996 326.8337 330.77894 334.6259 340.85966 345.53498 349.49424 358.1148 364.23625 371.29835 377.5321 386.16673 391.5721 398.53596 405.59806 412.5619 419.624 425.85777 432.70927 441.32984 445.1768 451.41056 458.4867 465.5488 471.67024 475.51719 479.4624 485.69618 490.25917 497.32127 501.1682 508.23033 515.2924 523.80068">ladi. Murakkab axborot modellari ana shunday jadvallarning o</tspan></text>
</g>
<clipPath id="cp25530">
<path transform="matrix(1,0,0,-1,0,841.92)" d="M .000008871 0 L 595.32 0 L 595.32 841.92 L .000008871 841.92 Z " fill-rule="evenodd"/>
</clipPath>
<g clip-path="url(#cp25530)">
<text xml:space="preserve" transform="matrix(1 0 -0 1 0 841.92)" font-size="14.04" font-family="Times New Roman"><tspan y="-627.58" x="531.34">&#x2019;</tspan></text>
</g>
<clipPath id="cp25531">
<path transform="matrix(1,0,0,-1,0,841.92)" d="M .000008871 0 L 595.32 0 L 595.32 841.92 L .000008871 841.92 Z " fill-rule="evenodd"/>
</clipPath>
<g clip-path="url(#cp25531)">
<text xml:space="preserve" transform="matrix(1 0 -0 1 0 841.92)" font-size="14.04" font-family="Times New Roman"><tspan y="-627.58" x="535.9 542.1338 548.36758 553.04287 560.02078">zaro </tspan></text>
</g>
<clipPath id="cp25532">
<path transform="matrix(1,0,0,-1,0,841.92)" d="M .000008871 0 L 595.32 0 L 595.32 841.92 L .000008871 841.92 Z " fill-rule="evenodd"/>
</clipPath>
<g clip-path="url(#cp25532)">
<text xml:space="preserve" transform="matrix(1 0 -0 1 0 841.92)" font-size="14.04" font-family="Times New Roman"><tspan y="-603.46" x="85.104 92.166118 99.12995">bog</tspan></text>
</g>
<clipPath id="cp25533">
<path transform="matrix(1,0,0,-1,0,841.92)" d="M .000008871 0 L 595.32 0 L 595.32 841.92 L .000008871 841.92 Z " fill-rule="evenodd"/>
</clipPath>
<g clip-path="url(#cp25533)">
<text xml:space="preserve" transform="matrix(1 0 -0 1 0 841.92)" font-size="14.04" font-family="Times New Roman"><tspan y="-603.46" x="106.22">&#x2019;</tspan></text>
</g>
<clipPath id="cp25534">
<path transform="matrix(1,0,0,-1,0,841.92)" d="M .000008871 0 L 595.32 0 L 595.32 841.92 L .000008871 841.92 Z " fill-rule="evenodd"/>
</clipPath>
<g clip-path="url(#cp25534)">
<text xml:space="preserve" transform="matrix(1 0 -0 1 0 841.92)" font-size="14.04" font-family="Times New Roman"><tspan y="-603.46" x="110.78 114.72524 120.84668 127.9088 134.97092 141.09236 148.15448 151.51004 155.45528">langan to</tspan></text>
</g>
<clipPath id="cp25535">
<path transform="matrix(1,0,0,-1,0,841.92)" d="M .000008871 0 L 595.32 0 L 595.32 841.92 L .000008871 841.92 Z " fill-rule="evenodd"/>
</clipPath>
<g clip-path="url(#cp25535)">
<text xml:space="preserve" transform="matrix(1 0 -0 1 0 841.92)" font-size="14.04" font-family="Times New Roman"><tspan y="-603.46" x="162.62">&#x2019;</tspan></text>
</g>
<clipPath id="cp25536">
<path transform="matrix(1,0,0,-1,0,841.92)" d="M .000008871 0 L 595.32 0 L 595.32 841.92 L .000008871 841.92 Z " fill-rule="evenodd"/>
</clipPath>
<g clip-path="url(#cp25536)">
<text xml:space="preserve" transform="matrix(1 0 -0 1 0 841.92)" font-size="14.04" font-family="Times New Roman"><tspan y="-603.46" x="167.18 174.14383 178.08907 184.32283 195.00728 198.95252 206.01464 212.2484 219.32457 222.83457 226.6394 233.60324 240.66536 245.34069 251.46213 255.40737">plamidan iborat.</tspan></text>
</g>
<clipPath id="cp25537">
<path transform="matrix(1,0,0,-1,0,841.92)" d="M .000008871 0 L 595.32 0 L 595.32 841.92 L .000008871 841.92 Z " fill-rule="evenodd"/>
</clipPath>
<g clip-path="url(#cp25537)">
<text xml:space="preserve" transform="matrix(1 0 -0 1 0 841.92)" font-size="14.04" font-family="Times New Roman"><tspan y="-603.46" x="259.01"> </tspan></text>
</g>
</g>
<g id="Layer-1" data-name="P">
<clipPath id="cp25538">
<path transform="matrix(1,0,0,-1,0,841.92)" d="M .000008871 0 L 595.32 0 L 595.32 841.92 L .000008871 841.92 Z " fill-rule="evenodd"/>
</clipPath>
<g clip-path="url(#cp25538)">
<text xml:space="preserve" transform="matrix(1 0 -0 1 0 841.92)" font-size="14.04" font-family="Times New Roman"><tspan y="-579.34" x="120.5 132.98157 142.34626 149.29605 153.24129 160.20513 167.26725">MBning </tspan></text>
</g>
<clipPath id="cp25539">
<path transform="matrix(1,0,0,-1,0,841.92)" d="M .000008871 0 L 595.32 0 L 595.32 841.92 L .000008871 841.92 Z " fill-rule="evenodd"/>
</clipPath>
<g clip-path="url(#cp25539)">
<text xml:space="preserve" transform="matrix(1 0 -0 1 0 841.92)" font-size="14.04" font-family="Times New Roman,BoldItalic" font-weight="bold" font-style="italic"><tspan y="-579.34" x="180.38 184.22696 190.46073 196.69449 202.11394 209.07778 214.58145 221.54529 225.39225">iyerarxik</tspan></text>
</g>
<clipPath id="cp25540">
<path transform="matrix(1,0,0,-1,0,841.92)" d="M .000008871 0 L 595.32 0 L 595.32 841.92 L .000008871 841.92 Z " fill-rule="evenodd"/>
</clipPath>
<g clip-path="url(#cp25540)">
<text xml:space="preserve" transform="matrix(1 0 -0 1 0 841.92)" font-size="14.04" font-family="Times New Roman"><tspan y="-579.34" x="232.37"> </tspan></text>
</g>
<clipPath id="cp25541">
<path transform="matrix(1,0,0,-1,0,841.92)" d="M .000008871 0 L 595.32 0 L 595.32 841.92 L .000008871 841.92 Z " fill-rule="evenodd"/>
</clipPath>
<g clip-path="url(#cp25541)">
<text xml:space="preserve" transform="matrix(1 0 -0 1 0 841.92)" font-size="14.04" font-family="Times New Roman"><tspan y="-579.34" x="245.57 256.25447 263.31657 270.37867 276.61244 280.45939 284.4046 297.47587 304.53797 310.6594 316.0648 320.01 326.97386 330.91908 343.99034 350.95417 358.01628">modeli pastki pog</tspan></text>
</g>
<clipPath id="cp25542">
<path transform="matrix(1,0,0,-1,0,841.92)" d="M .000008871 0 L 595.32 0 L 595.32 841.92 L .000008871 841.92 Z " fill-rule="evenodd"/>
</clipPath>
<g clip-path="url(#cp25542)">
<text xml:space="preserve" transform="matrix(1 0 -0 1 0 841.92)" font-size="14.04" font-family="Times New Roman"><tspan y="-579.34" x="365.23">&#x2019;</tspan></text>
</g>
<clipPath id="cp25543">
<path transform="matrix(1,0,0,-1,0,841.92)" d="M .000008871 0 L 595.32 0 L 595.32 841.92 L .000008871 841.92 Z " fill-rule="evenodd"/>
</clipPath>
<g clip-path="url(#cp25543)">
<text xml:space="preserve" transform="matrix(1 0 -0 1 0 841.92)" font-size="14.04" font-family="Times New Roman"><tspan y="-579.34" x="369.79 376.75386 383.81596 389.93739 396.99949 403.1209 410.183 414.12825 427.1995 434.03697 441.09907 448.0629 455.125 459.80033 463.64729 476.71855 483.78065 490.74449">onadagi yuqori pog</tspan></text>
</g>
<clipPath id="cp25544">
<path transform="matrix(1,0,0,-1,0,841.92)" d="M .000008871 0 L 595.32 0 L 595.32 841.92 L .000008871 841.92 Z " fill-rule="evenodd"/>
</clipPath>
<g clip-path="url(#cp25544)">
<text xml:space="preserve" transform="matrix(1 0 -0 1 0 841.92)" font-size="14.04" font-family="Times New Roman"><tspan y="-579.34" x="497.98">&#x2019;</tspan></text>
</g>
<clipPath id="cp25545">
<path transform="matrix(1,0,0,-1,0,841.92)" d="M .000008871 0 L 595.32 0 L 595.32 841.92 L .000008871 841.92 Z " fill-rule="evenodd"/>
</clipPath>
<g clip-path="url(#cp25545)">
<text xml:space="preserve" transform="matrix(1 0 -0 1 0 841.92)" font-size="14.04" font-family="Times New Roman"><tspan y="-579.34" x="502.54 509.6021 516.66427 522.7857 529.84786 535.9693 542.93319 546.8784 553.8423 559.96377">onadagiga </tspan></text>
</g>
<clipPath id="cp25546">
<path transform="matrix(1,0,0,-1,0,841.92)" d="M .000008871 0 L 595.32 0 L 595.32 841.92 L .000008871 841.92 Z " fill-rule="evenodd"/>
</clipPath>
<g clip-path="url(#cp25546)">
<text xml:space="preserve" transform="matrix(1 0 -0 1 0 841.92)" font-size="14.04" font-family="Times New Roman"><tspan y="-555.07" x="85.104 92.184">bo</tspan></text>
</g>
<clipPath id="cp25547">
<path transform="matrix(1,0,0,-1,0,841.92)" d="M .000008871 0 L 595.32 0 L 595.32 841.92 L .000008871 841.92 Z " fill-rule="evenodd"/>
</clipPath>
<g clip-path="url(#cp25547)">
<text xml:space="preserve" transform="matrix(1 0 -0 1 0 841.92)" font-size="14.04" font-family="Times New Roman"><tspan y="-555.07" x="99.264">&#x2019;</tspan></text>
</g>
<clipPath id="cp25548">
<path transform="matrix(1,0,0,-1,0,841.92)" d="M .000008871 0 L 595.32 0 L 595.32 841.92 L .000008871 841.92 Z " fill-rule="evenodd"/>
</clipPath>
<g clip-path="url(#cp25548)">
<text xml:space="preserve" transform="matrix(1 0 -0 1 0 841.92)" font-size="14.04" font-family="Times New Roman"><tspan y="-555.07" x="103.82 110.65748 116.16116 123.22328 130.18712 134.13236 139.53775 146.59987 150.30643 154.25167 160.48543 165.04843 168.89539 172.84062 179.80446 183.7497 190.71353 196.9473 200.65386 204.50081 211.56293 218.4004 222.34564 228.5794 234.09714 241.06098 248.1231 254.24454 261.30665 265.0132 271.24699 275.09394 281.3277 292.01216 298.2459 305.32206 309.26728 313.2125 319.44627 324.00926 327.71583 331.66105">ysunish tartibida joylashgan elementlar to</tspan></text>
</g>
<clipPath id="cp25549">
<path transform="matrix(1,0,0,-1,0,841.92)" d="M .000008871 0 L 595.32 0 L 595.32 841.92 L .000008871 841.92 Z " fill-rule="evenodd"/>
</clipPath>
<g clip-path="url(#cp25549)">
<text xml:space="preserve" transform="matrix(1 0 -0 1 0 841.92)" font-size="14.04" font-family="Times New Roman"><tspan y="-555.07" x="339.07">&#x2019;</tspan></text>
</g>
<clipPath id="cp25550">
<path transform="matrix(1,0,0,-1,0,841.92)" d="M .000008871 0 L 595.32 0 L 595.32 841.92 L .000008871 841.92 Z " fill-rule="evenodd"/>
</clipPath>
<g clip-path="url(#cp25550)">
<text xml:space="preserve" transform="matrix(1 0 -0 1 0 841.92)" font-size="14.04" font-family="Times New Roman"><tspan y="-555.07" x="343.63 350.6921 354.63734 360.8711 371.55555 375.50077 382.56288 388.6843 395.7464 399.45298 403.29994 410.36204 417.42414 421.98713 428.2209 432.1661 435.87269 442.83653">plamidan iborat bo</tspan></text>
</g>
<clipPath id="cp25551">
<path transform="matrix(1,0,0,-1,0,841.92)" d="M .000008871 0 L 595.32 0 L 595.32 841.92 L .000008871 841.92 Z " fill-rule="evenodd"/>
</clipPath>
<g clip-path="url(#cp25551)">
<text xml:space="preserve" transform="matrix(1 0 -0 1 0 841.92)" font-size="14.04" font-family="Times New Roman"><tspan y="-555.07" x="450.1">&#x2019;</tspan></text>
</g>
<clipPath id="cp25552">
<path transform="matrix(1,0,0,-1,0,841.92)" d="M .000008871 0 L 595.32 0 L 595.32 841.92 L .000008871 841.92 Z " fill-rule="evenodd"/>
</clipPath>
<g clip-path="url(#cp25552)">
<text xml:space="preserve" transform="matrix(1 0 -0 1 0 841.92)" font-size="14.04" font-family="Times New Roman"><tspan y="-555.07" x="454.66 458.60523 464.839 471.80284 475.74806 479.45463 486.51673 492.7505 496.45707 502.5785">ladi va ag</tspan></text>
</g>
<clipPath id="cp25553">
<path transform="matrix(1,0,0,-1,0,841.92)" d="M .000008871 0 L 595.32 0 L 595.32 841.92 L .000008871 841.92 Z " fill-rule="evenodd"/>
</clipPath>
<g clip-path="url(#cp25553)">
<text xml:space="preserve" transform="matrix(1 0 -0 1 0 841.92)" font-size="14.04" font-family="Times New Roman"><tspan y="-555.07" x="509.74">&#x2019;</tspan></text>
</g>
<clipPath id="cp25554">
<path transform="matrix(1,0,0,-1,0,841.92)" d="M .000008871 0 L 595.32 0 L 595.32 841.92 L .000008871 841.92 Z " fill-rule="evenodd"/>
</clipPath>
<g clip-path="url(#cp25554)">
<text xml:space="preserve" transform="matrix(1 0 -0 1 0 841.92)" font-size="14.04" font-family="Times New Roman"><tspan y="-555.07" x="514.3 521.3621 527.5959 532.1589 536.1041 539.9511 547.01327 553.0083 559.97219">darilgan </tspan></text>
</g>
<clipPath id="cp25555">
<path transform="matrix(1,0,0,-1,0,841.92)" d="M .000008871 0 L 595.32 0 L 595.32 841.92 L .000008871 841.92 Z " fill-rule="evenodd"/>
</clipPath>
<g clip-path="url(#cp25555)">
<text xml:space="preserve" transform="matrix(1 0 -0 1 0 841.92)" font-size="14.04" font-family="Times New Roman"><tspan y="-530.95" x="85.104 92.166118 98.39987 103.075199 109.21067 116.27279 120.11975 124.795078 131.87125 136.43425 142.66802 147.34334 151.92038 158.9825 162.92774 174.55286 178.39981 184.63358 190.03897 197.0028 203.96665 207.91188 211.85712 223.48224 229.60369 233.54892 239.67037 246.73249 250.67772 254.18772 265.78477 275.86549 281.27088 288.33299 295.2968 302.35893 313.98405 324.7808 331.8429 338.80674 345.0405 348.98573">daraxt(graf)ni tashkil etadi. Ushbu model </tspan></text>
</g>
<clipPath id="cp25556">
<path transform="matrix(1,0,0,-1,0,841.92)" d="M .000008871 0 L 595.32 0 L 595.32 841.92 L .000008871 841.92 Z " fill-rule="evenodd"/>
</clipPath>
<g clip-path="url(#cp25556)">
<text xml:space="preserve" transform="matrix(1 0 -0 1 0 841.92)" font-size="14.04" font-family="Times New Roman,BoldItalic" font-weight="bold" font-style="italic"><tspan y="-530.95" x="360.91 367.87385 374.83769 380.34135 387.30519 391.15214 398.21424 401.72425 413.3213 417.2665 425.07276 432.02256 439.8288 447.50868 451.01869 462.61573 469.67784 476.73994">daraja, tugun, bog</tspan></text>
</g>
<clipPath id="cp25557">
<path transform="matrix(1,0,0,-1,0,841.92)" d="M .000008871 0 L 595.32 0 L 595.32 841.92 L .000008871 841.92 Z " fill-rule="evenodd"/>
</clipPath>
<g clip-path="url(#cp25557)">
<text xml:space="preserve" transform="matrix(1 0 -0 1 0 841.92)" font-size="14.04" font-family="Times New Roman,BoldItalic" font-weight="bold" font-style="italic"><tspan y="-530.95" x="483.82">&#x2019;</tspan></text>
</g>
<clipPath id="cp25558">
<path transform="matrix(1,0,0,-1,0,841.92)" d="M .000008871 0 L 595.32 0 L 595.32 841.92 L .000008871 841.92 Z " fill-rule="evenodd"/>
</clipPath>
<g clip-path="url(#cp25558)">
<text xml:space="preserve" transform="matrix(1 0 -0 1 0 841.92)" font-size="14.04" font-family="Times New Roman,BoldItalic" font-weight="bold" font-style="italic"><tspan y="-530.95" x="488.5 492.34696 499.40907 507.08894 511.03416 516.53787">lanish</tspan></text>
</g>
<clipPath id="cp25559">
<path transform="matrix(1,0,0,-1,0,841.92)" d="M .000008871 0 L 595.32 0 L 595.32 841.92 L .000008871 841.92 Z " fill-rule="evenodd"/>
</clipPath>
<g clip-path="url(#cp25559)">
<text xml:space="preserve" transform="matrix(1 0 -0 1 0 841.92)" font-size="14.04" font-family="Times New Roman"><tspan y="-530.95" x="524.38"> </tspan></text>
</g>
<clipPath id="cp25560">
<path transform="matrix(1,0,0,-1,0,841.92)" d="M .000008871 0 L 595.32 0 L 595.32 841.92 L .000008871 841.92 Z " fill-rule="evenodd"/>
</clipPath>
<g clip-path="url(#cp25560)">
<text xml:space="preserve" transform="matrix(1 0 -0 1 0 841.92)" font-size="14.04" font-family="Times New Roman"><tspan y="-530.95" x="535.9 542.96218 549.1959 556.1598 560.0068">kabi </tspan></text>
</g>
<clipPath id="cp25561">
<path transform="matrix(1,0,0,-1,0,841.92)" d="M .000008871 0 L 595.32 0 L 595.32 841.92 L .000008871 841.92 Z " fill-rule="evenodd"/>
</clipPath>
<g clip-path="url(#cp25561)">
<text xml:space="preserve" transform="matrix(1 0 -0 1 0 841.92)" font-size="14.04" font-family="Times New Roman"><tspan y="-506.83" x="85.104 92.166118 98.39987 103.075199 109.30895 120.00743 126.24119 130.18642 134.86174 138.80698 145.04074 149.60375 153.3103 160.27414 164.21938 168.06633 174.3001 181.26393 184.97049 188.91573 195.03717 202.001 207.4064 211.35164 216.02696 219.87392 226.10768 233.18386 239.3053 246.26914 250.21437 253.72437 257.40287 267.48359 274.44743 278.39265 285.35649 292.41859 295.99879 299.944 305.3494 312.31324 316.25846 322.49223 327.8976 334.95973 338.6663 342.51325 348.747 359.43147 366.61994 373.4574 377.40263 381.34785 385.29307 388.87327 394.37693 401.34077 408.3046 415.3667 422.33055 428.5643 435.4158 442.4779 446.42314 449.93315 453.61164 460.57548 467.63758 474.47505 478.42027 482.12684 489.18894 495.4227 500.09803 506.3318 510.19279 516.3142 523.37637 529.4978 536.55996 540.5052 544.0854 551.04928 554.89627 559.4592">parametrlar bilan tavsiflanadi. Uning ishlash tamoyili shundayki, quyi darajadagi bir </tspan></text>
</g>
<clipPath id="cp25562">
<path transform="matrix(1,0,0,-1,0,841.92)" d="M .000008871 0 L 595.32 0 L 595.32 841.92 L .000008871 841.92 Z " fill-rule="evenodd"/>
</clipPath>
<g clip-path="url(#cp25562)">
<text xml:space="preserve" transform="matrix(1 0 -0 1 0 841.92)" font-size="14.04" font-family="Times New Roman"><tspan y="-482.71" x="85.104">n</tspan></text>
</g>
<clipPath id="cp25563">
<path transform="matrix(1,0,0,-1,0,841.92)" d="M .000008871 0 L 595.32 0 L 595.32 841.92 L .000008871 841.92 Z " fill-rule="evenodd"/>
</clipPath>
<g clip-path="url(#cp25563)">
<text xml:space="preserve" transform="matrix(1 0 -0 1 0 841.92)" font-size="14.04" font-family="Times New Roman"><tspan y="-482.71" x="92.184 98.417758 104.53919 111.60131 115.44827 121.68203 126.35735 130.2043 137.16814 144.23026 151.19409 158.15793 162.10317 168.33693 173.01226 177.57524 184.53908 191.6012">echta tugunlar bog</tspan></text>
</g>
<clipPath id="cp25564">
<path transform="matrix(1,0,0,-1,0,841.92)" d="M .000008871 0 L 595.32 0 L 595.32 841.92 L .000008871 841.92 Z " fill-rule="evenodd"/>
</clipPath>
<g clip-path="url(#cp25564)">
<text xml:space="preserve" transform="matrix(1 0 -0 1 0 841.92)" font-size="14.04" font-family="Times New Roman"><tspan y="-482.71" x="198.77">&#x2019;</tspan></text>
</g>
<clipPath id="cp25565">
<path transform="matrix(1,0,0,-1,0,841.92)" d="M .000008871 0 L 595.32 0 L 595.32 841.92 L .000008871 841.92 Z " fill-rule="evenodd"/>
</clipPath>
<g clip-path="url(#cp25565)">
<text xml:space="preserve" transform="matrix(1 0 -0 1 0 841.92)" font-size="14.04" font-family="Times New Roman"><tspan y="-482.71" x="203.33 207.17696 213.41072 220.4869 224.33385 229.73925 236.80136 241.46263 248.30011 255.36223 260.03755 267.11369 273.34745 284.0319 287.9771 295.0392 301.27299 305.9483 312.78578 319.84788 326.8117 333.8738 338.54914 342.3961 347.0714 354.03526 361.09736 365.75865 370.30763 377.36973 383.6035 388.16648 394.40025 398.2472 404.48097 411.5571 417.67854 424.64237 428.5876 433.24888 437.9242 444.04563 451.10774 457.3415 461.18846 465.84974 472.81358 476.66053 480.60575 484.55097 490.6724 495.33369 499.18064 506.14448 513.2066 520.1705 527.2326 531.78158 538.8437 542.6907 546.6359 552.631 559.59487">lanish yordamida yuqoriroq  darajadagi faqat bitta tugun bilan </tspan></text>
</g>
<clipPath id="cp25566">
<path transform="matrix(1,0,0,-1,0,841.92)" d="M .000008871 0 L 595.32 0 L 595.32 841.92 L .000008871 841.92 Z " fill-rule="evenodd"/>
</clipPath>
<g clip-path="url(#cp25566)">
<text xml:space="preserve" transform="matrix(1 0 -0 1 0 841.92)" font-size="14.04" font-family="Times New Roman"><tspan y="-458.47" x="85.104 92.166118 99.12995">bog</tspan></text>
</g>
<clipPath id="cp25567">
<path transform="matrix(1,0,0,-1,0,841.92)" d="M .000008871 0 L 595.32 0 L 595.32 841.92 L .000008871 841.92 Z " fill-rule="evenodd"/>
</clipPath>
<g clip-path="url(#cp25567)">
<text xml:space="preserve" transform="matrix(1 0 -0 1 0 841.92)" font-size="14.04" font-family="Times New Roman"><tspan y="-458.47" x="106.22">&#x2019;</tspan></text>
</g>
<clipPath id="cp25568">
<path transform="matrix(1,0,0,-1,0,841.92)" d="M .000008871 0 L 595.32 0 L 595.32 841.92 L .000008871 841.92 Z " fill-rule="evenodd"/>
</clipPath>
<g clip-path="url(#cp25568)">
<text xml:space="preserve" transform="matrix(1 0 -0 1 0 841.92)" font-size="14.04" font-family="Times New Roman"><tspan y="-458.47" x="110.78 114.72524 120.84668 127.9088 134.97092 141.09236 148.15448 156.29767 163.35979">langan bo</tspan></text>
</g>
<clipPath id="cp25569">
<path transform="matrix(1,0,0,-1,0,841.92)" d="M .000008871 0 L 595.32 0 L 595.32 841.92 L .000008871 841.92 Z " fill-rule="evenodd"/>
</clipPath>
<g clip-path="url(#cp25569)">
<text xml:space="preserve" transform="matrix(1 0 -0 1 0 841.92)" font-size="14.04" font-family="Times New Roman"><tspan y="-458.47" x="170.54">&#x2019;</tspan></text>
</g>
<clipPath id="cp25570">
<path transform="matrix(1,0,0,-1,0,841.92)" d="M .000008871 0 L 595.32 0 L 595.32 841.92 L .000008871 841.92 Z " fill-rule="evenodd"/>
</clipPath>
<g clip-path="url(#cp25570)">
<text xml:space="preserve" transform="matrix(1 0 -0 1 0 841.92)" font-size="14.04" font-family="Times New Roman"><tspan y="-458.47" x="175.1 179.04524 185.16669 192.13053 196.07576 199.58576">ladi. </tspan></text>
</g>
</g>
<g id="Layer-1" data-name="P">
<clipPath id="cp25571">
<path transform="matrix(1,0,0,-1,0,841.92)" d="M .000008871 0 L 595.32 0 L 595.32 841.92 L .000008871 841.92 Z " fill-rule="evenodd"/>
</clipPath>
<g clip-path="url(#cp25571)">
<text xml:space="preserve" transform="matrix(1 0 -0 1 0 841.92)" font-size="14.04" font-family="Times New Roman"><tspan y="-458.47" x="207.89">&#x0422;</tspan></text>
</g>
</g>
<g id="Layer-1" data-name="P">
<clipPath id="cp25572">
<path transform="matrix(1,0,0,-1,0,841.92)" d="M .000008871 0 L 595.32 0 L 595.32 841.92 L .000008871 841.92 Z " fill-rule="evenodd"/>
</clipPath>
<g clip-path="url(#cp25572)">
<text xml:space="preserve" transform="matrix(1 0 -0 1 0 841.92)" font-size="14.04" font-family="Times New Roman"><tspan y="-458.47" x="216.41 223.47212 230.43596 237.49808">ugun</tspan></text>
</g>
</g>
<g id="Layer-1" data-name="P">
<clipPath id="cp25573">
<path transform="matrix(1,0,0,-1,0,841.92)" d="M .000008871 0 L 595.32 0 L 595.32 841.92 L .000008871 841.92 Z " fill-rule="evenodd"/>
</clipPath>
<g clip-path="url(#cp25573)">
<text xml:space="preserve" transform="matrix(1 0 -0 1 0 841.92)" font-size="14.04" font-family="Times New Roman,Bold" font-weight="bold"><tspan y="-458.47" x="244.61"> </tspan></text>
</g>
</g>
<g id="Layer-1" data-name="P">
<clipPath id="cp25574">
<path transform="matrix(1,0,0,-1,0,841.92)" d="M .000008871 0 L 595.32 0 L 595.32 841.92 L .000008871 841.92 Z " fill-rule="evenodd"/>
</clipPath>
<g clip-path="url(#cp25574)">
<text xml:space="preserve" transform="matrix(1 0 -0 1 0 841.92)" font-size="14.04" font-family="Times New Roman,Bold" font-weight="bold"><tspan y="-458.47" x="252.77">&#x2013;</tspan></text>
</g>
</g>
<g id="Layer-1" data-name="P">
<clipPath id="cp25575">
<path transform="matrix(1,0,0,-1,0,841.92)" d="M .000008871 0 L 595.32 0 L 595.32 841.92 L .000008871 841.92 Z " fill-rule="evenodd"/>
</clipPath>
<g clip-path="url(#cp25575)">
<text xml:space="preserve" transform="matrix(1 0 -0 1 0 841.92)" font-size="14.04" font-family="Times New Roman,Bold" font-weight="bold"><tspan y="-458.47" x="259.85"> </tspan></text>
</g>
</g>
<g id="Layer-1" data-name="P">
<clipPath id="cp25576">
<path transform="matrix(1,0,0,-1,0,841.92)" d="M .000008871 0 L 595.32 0 L 595.32 841.92 L .000008871 841.92 Z " fill-rule="evenodd"/>
</clipPath>
<g clip-path="url(#cp25576)">
<text xml:space="preserve" transform="matrix(1 0 -0 1 0 841.92)" font-size="14.04" font-family="Times New Roman"><tspan y="-458.47" x="268.01 275.0721 282.13423 290.27745 294.22267 301.06013 307.29389 311.9692 318.20298 322.8783 329.8983 333.8014 340.66694 346.9007 353.97685 357.92207 364.8859 371.948 380.09123 387.15333 393.3871 397.95008 401.8953 405.74226 412.80436 418.92579 425.98789 434.25746 441.31956 447.44099 452.00398 458.23774 462.0847 468.31846 473.83616 477.6831 484.7452 490.97898 499.24855 503.0955 510.1576 516.9951 520.94039 527.17416 532.5795 539.5434 546.6055 552.727 559.69088">bu iyerarxiyaning berilgan darajasida joylashgan </tspan></text>
</g>
</g>
<g id="Layer-1" data-name="P">
<clipPath id="cp25577">
<path transform="matrix(1,0,0,-1,0,841.92)" d="M .000008871 0 L 595.32 0 L 595.32 841.92 L .000008871 841.92 Z " fill-rule="evenodd"/>
</clipPath>
<g clip-path="url(#cp25577)">
<text xml:space="preserve" transform="matrix(1 0 -0 1 0 841.92)" font-size="14.04" font-family="Times New Roman"><tspan y="-434.35" x="85.104 91.33775 95.283 101.516757 112.201198 118.43495 125.51111 129.45635 133.3033 140.26714 144.21237 151.17621 158.23833 161.74832 167.84169 174.90381 181.86765 188.92977 193.49277 200.55489 204.40184 207.98204 218.66649 225.7286 232.79073 239.02449 242.87145 246.81668 253.78052 257.72575 262.40107">elementining axborot modelidir.</tspan></text>
</g>
</g>
<g id="Layer-1" data-name="P">
<clipPath id="cp25578">
<path transform="matrix(1,0,0,-1,0,841.92)" d="M .000008871 0 L 595.32 0 L 595.32 841.92 L .000008871 841.92 Z " fill-rule="evenodd"/>
</clipPath>
<g clip-path="url(#cp25578)">
<text xml:space="preserve" transform="matrix(1 0 -0 1 0 841.92)" font-size="14.04" font-family="Times New Roman"><tspan y="-434.35" x="265.97"> </tspan></text>
</g>
</g>
<g id="Layer-1" data-name="P">
<clipPath id="cp25579">
<path transform="matrix(1,0,0,-1,0,841.92)" d="M .000008871 0 L 595.32 0 L 595.32 841.92 L .000008871 841.92 Z " fill-rule="evenodd"/>
</clipPath>
<g clip-path="url(#cp25579)">
<text xml:space="preserve" transform="matrix(1 0 -0 1 0 841.92)" font-size="14.04" font-family="Times New Roman"><tspan y="-410.23" x="120.5 132.98157 142.34626 149.29605 153.24129 160.20513 167.26725">MBning </tspan></text>
</g>
<clipPath id="cp25580">
<path transform="matrix(1,0,0,-1,0,841.92)" d="M .000008871 0 L 595.32 0 L 595.32 841.92 L .000008871 841.92 Z " fill-rule="evenodd"/>
</clipPath>
<g clip-path="url(#cp25580)">
<text xml:space="preserve" transform="matrix(1 0 -0 1 0 841.92)" font-size="14.04" font-family="Times New Roman,BoldItalic" font-weight="bold" font-style="italic"><tspan y="-410.23" x="173.78 179.28368 185.27877 196.42653 203.39037 211.07025 214.9172 218.86244 225.92456 232.39699 236.24394 243.20778 248.48682 259.63459 266.59843">semantik tarmoq</tspan></text>
</g>
<clipPath id="cp25581">
<path transform="matrix(1,0,0,-1,0,841.92)" d="M .000008871 0 L 595.32 0 L 595.32 841.92 L .000008871 841.92 Z " fill-rule="evenodd"/>
</clipPath>
<g clip-path="url(#cp25581)">
<text xml:space="preserve" transform="matrix(1 0 -0 1 0 841.92)" font-size="14.04" font-family="Times New Roman"><tspan y="-410.23" x="273.77 280.25">  </tspan></text>
</g>
<clipPath id="cp25582">
<path transform="matrix(1,0,0,-1,0,841.92)" d="M .000008871 0 L 595.32 0 L 595.32 841.92 L .000008871 841.92 Z " fill-rule="evenodd"/>
</clipPath>
<g clip-path="url(#cp25582)">
<text xml:space="preserve" transform="matrix(1 0 -0 1 0 841.92)" font-size="14.04" font-family="Times New Roman"><tspan y="-410.23" x="286.73 297.41447 304.47657 311.53868 317.77244 321.71766 325.66288 332.1353 336.08055 342.918 349.15177 353.8271 360.06086 364.6379 371.7 375.54698 382.60908 389.0815 399.76597 406.82807 413.89018 420.12394 423.9709 431.033 437.26676 443.7392">modeli iyerarxik modelga o</tspan></text>
</g>
<clipPath id="cp25583">
<path transform="matrix(1,0,0,-1,0,841.92)" d="M .000008871 0 L 595.32 0 L 595.32 841.92 L .000008871 841.92 Z " fill-rule="evenodd"/>
</clipPath>
<g clip-path="url(#cp25583)">
<text xml:space="preserve" transform="matrix(1 0 -0 1 0 841.92)" font-size="14.04" font-family="Times New Roman"><tspan y="-410.23" x="451.06">&#x2019;</tspan></text>
</g>
<clipPath id="cp25584">
<path transform="matrix(1,0,0,-1,0,841.92)" d="M .000008871 0 L 595.32 0 L 595.32 841.92 L .000008871 841.92 Z " fill-rule="evenodd"/>
</clipPath>
<g clip-path="url(#cp25584)">
<text xml:space="preserve" transform="matrix(1 0 -0 1 0 841.92)" font-size="14.04" font-family="Times New Roman"><tspan y="-410.23" x="455.62 462.6821 468.0875 475.1496 481.27104 486.67643 493.73854 500.70237 504.64759 509.3229 512.8329 519.2773 529.35806 535.8305">xshashdir. U h</tspan></text>
</g>
<clipPath id="cp25585">
<path transform="matrix(1,0,0,-1,0,841.92)" d="M .000008871 0 L 595.32 0 L 595.32 841.92 L .000008871 841.92 Z " fill-rule="evenodd"/>
</clipPath>
<g clip-path="url(#cp25585)">
<text xml:space="preserve" transform="matrix(1 0 -0 1 0 841.92)" font-size="14.04" font-family="Times New Roman"><tspan y="-410.23" x="542.98 549.21377 560.02456">am </tspan></text>
</g>
<clipPath id="cp25586">
<path transform="matrix(1,0,0,-1,0,841.92)" d="M .000008871 0 L 595.32 0 L 595.32 841.92 L .000008871 841.92 Z " fill-rule="evenodd"/>
</clipPath>
<g clip-path="url(#cp25586)">
<text xml:space="preserve" transform="matrix(1 0 -0 1 0 841.92)" font-size="14.04" font-family="Times New Roman"><tspan y="-386.09" x="85.104 89.04924 96.01308 102.97691 110.03903 117.10115 120.61115 126.4518 133.51392 139.74768 144.423 150.65677 154.51778 160.75154 164.26154 170.22853 177.19237 184.1562">tugun, daraja, bog</tspan></text>
</g>
<clipPath id="cp25587">
<path transform="matrix(1,0,0,-1,0,841.92)" d="M .000008871 0 L 595.32 0 L 595.32 841.92 L .000008871 841.92 Z " fill-rule="evenodd"/>
</clipPath>
<g clip-path="url(#cp25587)">
<text xml:space="preserve" transform="matrix(1 0 -0 1 0 841.92)" font-size="14.04" font-family="Times New Roman"><tspan y="-386.09" x="191.33">&#x2019;</tspan></text>
</g>
<clipPath id="cp25588">
<path transform="matrix(1,0,0,-1,0,841.92)" d="M .000008871 0 L 595.32 0 L 595.32 841.92 L .000008871 841.92 Z " fill-rule="evenodd"/>
</clipPath>
<g clip-path="url(#cp25588)">
<text xml:space="preserve" transform="matrix(1 0 -0 1 0 841.92)" font-size="14.04" font-family="Times New Roman"><tspan y="-386.09" x="195.89 199.83524 205.95668 213.0188 216.86576 222.27115 229.33327 235.3143 242.37642 248.49787 255.4617 259.40693 265.38798 271.62174 277.02714 283.99098 289.49464 293.43986 300.2773 306.25837 313.32048 319.55424 324.11723 330.46333 341.14778 347.38154 351.32676 356.00209 359.9473 366.18107 370.74406 377.80616 384.03993 390.035 396.15644 403.21855 409.4523 412.9623 418.92933 427.4516 433.57304 440.63514 444.4821 451.5442 457.52525 463.5063 469.00996 475.2437 485.92817 492.16194 499.23808 503.08503 507.03025 514.09237 519.96109 523.9063 530.1401 534.81539 545.49978 552.5619 559.52578">lanish kabi asosiy parametrlarga ega. Lekin  semantik tarmoq </tspan></text>
</g>
<clipPath id="cp25589">
<path transform="matrix(1,0,0,-1,0,841.92)" d="M .000008871 0 L 595.32 0 L 595.32 841.92 L .000008871 841.92 Z " fill-rule="evenodd"/>
</clipPath>
<g clip-path="url(#cp25589)">
<text xml:space="preserve" transform="matrix(1 0 -0 1 0 841.92)" font-size="14.04" font-family="Times New Roman"><tspan y="-361.97" x="85.104 95.78844 102.850559 109.912677 116.14643 120.091678 123.93864 131.00075 137.23451 141.78347 145.63042 152.69254 157.36786 161.21482 165.16005 169.709 176.77112 182.89257 187.56789 193.80165 197.6486 203.77005 210.83217 216.95362 224.01573 227.96097 232.50992 238.74369 242.59064 248.8244 259.50886 265.7426 272.81877 276.76399 280.7092 286.94297 291.6183 296.05494 303.11705 307.79237 313.9138 319.41746 323.2644 330.3265 336.56028 341.10926 348.0731 354.30686 358.98219 365.96006 369.90528 376.96739 383.9312 387.44123 391.96214 398.7996">modelida turli darajadagi elementlar orasida &#x00ab;erkin&#x00bb;, ya</tspan></text>
</g>
<clipPath id="cp25590">
<path transform="matrix(1,0,0,-1,0,841.92)" d="M .000008871 0 L 595.32 0 L 595.32 841.92 L .000008871 841.92 Z " fill-rule="evenodd"/>
</clipPath>
<g clip-path="url(#cp25590)">
<text xml:space="preserve" transform="matrix(1 0 -0 1 0 841.92)" font-size="14.04" font-family="Times New Roman"><tspan y="-361.97" x="405.55">&#x2019;</tspan></text>
</g>
<clipPath id="cp25591">
<path transform="matrix(1,0,0,-1,0,841.92)" d="M .000008871 0 L 595.32 0 L 595.32 841.92 L .000008871 841.92 Z " fill-rule="evenodd"/>
</clipPath>
<g clip-path="url(#cp25591)">
<text xml:space="preserve" transform="matrix(1 0 -0 1 0 841.92)" font-size="14.04" font-family="Times New Roman"><tspan y="-361.97" x="410.11 417.1721 421.1173 425.6663 432.63014 439.69224 445.81367 450.48899 455.03797 462.10008 466.0453 470.60829 474.5535 479.10249 486.16459 492.39836 503.20915 513.89358 520.2396 524.7886 531.8507 535.79598 539.7412 545.8627 552.9248 559.7623">ni &#x00ab;har biri hamma bilan&#x00bb; </tspan></text>
</g>
<clipPath id="cp25592">
<path transform="matrix(1,0,0,-1,0,841.92)" d="M .000008871 0 L 595.32 0 L 595.32 841.92 L .000008871 841.92 Z " fill-rule="evenodd"/>
</clipPath>
<g clip-path="url(#cp25592)">
<text xml:space="preserve" transform="matrix(1 0 -0 1 0 841.92)" font-size="14.04" font-family="Times New Roman"><tspan y="-337.73" x="85.104 95.90411">ma</tspan></text>
</g>
<clipPath id="cp25593">
<path transform="matrix(1,0,0,-1,0,841.92)" d="M .000008871 0 L 595.32 0 L 595.32 841.92 L .000008871 841.92 Z " fill-rule="evenodd"/>
</clipPath>
<g clip-path="url(#cp25593)">
<text xml:space="preserve" transform="matrix(1 0 -0 1 0 841.92)" font-size="14.04" font-family="Times New Roman"><tspan y="-337.73" x="102.14">&#x2019;</tspan></text>
</g>
<clipPath id="cp25594">
<path transform="matrix(1,0,0,-1,0,841.92)" d="M .000008871 0 L 595.32 0 L 595.32 841.92 L .000008871 841.92 Z " fill-rule="evenodd"/>
</clipPath>
<g clip-path="url(#cp25594)">
<text xml:space="preserve" transform="matrix(1 0 -0 1 0 841.92)" font-size="14.04" font-family="Times New Roman"><tspan y="-337.73" x="106.7 113.762119 120.824237 124.76948 128.7147 132.07027 139.13239 146.09622">noli bog</tspan></text>
</g>
<clipPath id="cp25595">
<path transform="matrix(1,0,0,-1,0,841.92)" d="M .000008871 0 L 595.32 0 L 595.32 841.92 L .000008871 841.92 Z " fill-rule="evenodd"/>
</clipPath>
<g clip-path="url(#cp25595)">
<text xml:space="preserve" transform="matrix(1 0 -0 1 0 841.92)" font-size="14.04" font-family="Times New Roman"><tspan y="-337.73" x="153.26">&#x2019;</tspan></text>
</g>
<clipPath id="cp25596">
<path transform="matrix(1,0,0,-1,0,841.92)" d="M .000008871 0 L 595.32 0 L 595.32 841.92 L .000008871 841.92 Z " fill-rule="evenodd"/>
</clipPath>
<g clip-path="url(#cp25596)">
<text xml:space="preserve" transform="matrix(1 0 -0 1 0 841.92)" font-size="14.04" font-family="Times New Roman"><tspan y="-337.73" x="157.82 161.76525 167.88669 174.9488 178.79576 184.29944 191.36156 194.71712 201.68096 207.91472 214.87856 221.94068 225.88591 229.24147 236.30359 240.15055 244.09578 247.94274 254.90657 261.9687 268.09013 275.15223">lanish qabul qilingan.</tspan></text>
</g>
<clipPath id="cp25597">
<path transform="matrix(1,0,0,-1,0,841.92)" d="M .000008871 0 L 595.32 0 L 595.32 841.92 L .000008871 841.92 Z " fill-rule="evenodd"/>
</clipPath>
<g clip-path="url(#cp25597)">
<text xml:space="preserve" transform="matrix(1 0 -0 1 0 841.92)" font-size="14.04" font-family="Times New Roman"><tspan y="-337.73" x="278.81"> </tspan></text>
</g>
</g>
<g id="Layer-1" data-name="P">
<clipPath id="cp25598">
<path transform="matrix(1,0,0,-1,0,841.92)" d="M .000008871 0 L 595.32 0 L 595.32 841.92 L .000008871 841.92 Z " fill-rule="evenodd"/>
</clipPath>
<g clip-path="url(#cp25598)">
<text xml:space="preserve" transform="matrix(1 0 -0 1 0 841.92)" font-size="14.04" font-family="Times New Roman"><tspan y="-313.61" x="120.5 130.57999">Ko</tspan></text>
</g>
<clipPath id="cp25599">
<path transform="matrix(1,0,0,-1,0,841.92)" d="M .000008871 0 L 595.32 0 L 595.32 841.92 L .000008871 841.92 Z " fill-rule="evenodd"/>
</clipPath>
<g clip-path="url(#cp25599)">
<text xml:space="preserve" transform="matrix(1 0 -0 1 0 841.92)" font-size="14.04" font-family="Times New Roman"><tspan y="-313.61" x="137.66">&#x2019;</tspan></text>
</g>
<clipPath id="cp25600">
<path transform="matrix(1,0,0,-1,0,841.92)" d="M .000008871 0 L 595.32 0 L 595.32 841.92 L .000008871 841.92 Z " fill-rule="evenodd"/>
</clipPath>
<g clip-path="url(#cp25600)">
<text xml:space="preserve" transform="matrix(1 0 -0 1 0 841.92)" font-size="14.04" font-family="Times New Roman"><tspan y="-313.61" x="142.22 149.28212 155.51589 162.47972 166.42496 170.27191 174.21715 181.27927 186.78295 199.26451 208.50284 212.44808 218.68184 223.24485 227.19008 232.69376 236.54071 242.77448 249.85065 256.81449 263.04826 266.99348 272.49717 276.34413 283.40623 289.52766 293.47288 297.4181 308.10255 314.3363 319.854 323.79924 330.76307 336.99684 342.51457 348.74833 355.82447 362.05824 365.42784 370.93153 381.01225 388.07435 395.13645 401.3702 407.00025 417.6847">pchilik MBlari jadval tuzilmasiga ega. Unda ma</tspan></text>
</g>
<clipPath id="cp25601">
<path transform="matrix(1,0,0,-1,0,841.92)" d="M .000008871 0 L 595.32 0 L 595.32 841.92 L .000008871 841.92 Z " fill-rule="evenodd"/>
</clipPath>
<g clip-path="url(#cp25601)">
<text xml:space="preserve" transform="matrix(1 0 -0 1 0 841.92)" font-size="14.04" font-family="Times New Roman"><tspan y="-313.61" x="424.27">&#x2019;</tspan></text>
</g>
<clipPath id="cp25602">
<path transform="matrix(1,0,0,-1,0,841.92)" d="M .000008871 0 L 595.32 0 L 595.32 841.92 L .000008871 841.92 Z " fill-rule="evenodd"/>
</clipPath>
<g clip-path="url(#cp25602)">
<text xml:space="preserve" transform="matrix(1 0 -0 1 0 841.92)" font-size="14.04" font-family="Times New Roman"><tspan y="-313.61" x="428.83 432.7752 439.96369 450.64814 457.71025 461.65547 465.60069 471.83445 476.50978 482.0275 488.14894 495.21104 499.88636 506.00779 511.51145 515.45669 520.9603 526.464 532.58547 536.5307 541.206 546.70968 553.6735 559.795">lumotlar adresi satr va </tspan></text>
</g>
<clipPath id="cp25603">
<path transform="matrix(1,0,0,-1,0,841.92)" d="M .000008871 0 L 595.32 0 L 595.32 841.92 L .000008871 841.92 Z " fill-rule="evenodd"/>
</clipPath>
<g clip-path="url(#cp25603)">
<text xml:space="preserve" transform="matrix(1 0 -0 1 0 841.92)" font-size="14.04" font-family="Times New Roman"><tspan y="-289.49" x="85.104 92.166118 97.57152 101.41848 108.4806 115.444438 119.38968 125.623439 130.29875 138.32962 145.29346 151.52722 156.93262 160.87786 166.28325 173.34537 184.02982 190.26358 195.78131 199.72655 207.75742 214.81954 218.66649 222.61173 228.73317 235.79529 243.82616 250.05992 257.02378 260.969 267.93284 271.87806 277.99949 285.06159 291.183 298.24513 302.19035 305.70036 313.70317 326.05836 335.42304 342.48515 348.7189 356.7498 363.71363 369.2173 373.06425 380.02809 387.09019 390.93714 397.1709">ustunlar kesishmasi bilan aniqlanadi. MBda ustunlar</tspan></text>
</g>
<clipPath id="cp25604">
<path transform="matrix(1,0,0,-1,0,841.92)" d="M .000008871 0 L 595.32 0 L 595.32 841.92 L .000008871 841.92 Z " fill-rule="evenodd"/>
</clipPath>
<g clip-path="url(#cp25604)">
<text xml:space="preserve" transform="matrix(1 0 -0 1 0 841.92)" font-size="14.04" font-family="Times New Roman,Bold" font-weight="bold"><tspan y="-289.49" x="402.19"> </tspan></text>
</g>
<clipPath id="cp25605">
<path transform="matrix(1,0,0,-1,0,841.92)" d="M .000008871 0 L 595.32 0 L 595.32 841.92 L .000008871 841.92 Z " fill-rule="evenodd"/>
</clipPath>
<g clip-path="url(#cp25605)">
<text xml:space="preserve" transform="matrix(1 0 -0 1 0 841.92)" font-size="14.04" font-family="Times New Roman,Bold" font-weight="bold"><tspan y="-289.49" x="410.23">&#x2013;</tspan></text>
</g>
<clipPath id="cp25606">
<path transform="matrix(1,0,0,-1,0,841.92)" d="M .000008871 0 L 595.32 0 L 595.32 841.92 L .000008871 841.92 Z " fill-rule="evenodd"/>
</clipPath>
<g clip-path="url(#cp25606)">
<text xml:space="preserve" transform="matrix(1 0 -0 1 0 841.92)" font-size="14.04" font-family="Times New Roman,Bold" font-weight="bold"><tspan y="-289.49" x="417.31"> </tspan></text>
</g>
<clipPath id="cp25607">
<path transform="matrix(1,0,0,-1,0,841.92)" d="M .000008871 0 L 595.32 0 L 595.32 841.92 L .000008871 841.92 Z " fill-rule="evenodd"/>
</clipPath>
<g clip-path="url(#cp25607)">
<text xml:space="preserve" transform="matrix(1 0 -0 1 0 841.92)" font-size="14.04" font-family="Times New Roman,BoldItalic" font-weight="bold" font-style="italic"><tspan y="-289.49" x="425.11 436.25776 443.2216 449.45536 456.4192 463.4813 471.28755 475.12046 482.18257 487.68623">maydonlar,</tspan></text>
</g>
<clipPath id="cp25608">
<path transform="matrix(1,0,0,-1,0,841.92)" d="M .000008871 0 L 595.32 0 L 595.32 841.92 L .000008871 841.92 Z " fill-rule="evenodd"/>
</clipPath>
<g clip-path="url(#cp25608)">
<text xml:space="preserve" transform="matrix(1 0 -0 1 0 841.92)" font-size="14.04" font-family="Times New Roman"><tspan y="-289.49" x="491.26"> </tspan></text>
</g>
<clipPath id="cp25609">
<path transform="matrix(1,0,0,-1,0,841.92)" d="M .000008871 0 L 595.32 0 L 595.32 841.92 L .000008871 841.92 Z " fill-rule="evenodd"/>
</clipPath>
<g clip-path="url(#cp25609)">
<text xml:space="preserve" transform="matrix(1 0 -0 1 0 841.92)" font-size="14.04" font-family="Times New Roman"><tspan y="-289.49" x="499.3 504.70539 510.93916 514.8844 519.4474 523.39266 529.6264 534.3017 542.3326 548.45407 553.85946 559.9809">satrlar esa </tspan></text>
</g>
<clipPath id="cp25610">
<path transform="matrix(1,0,0,-1,0,841.92)" d="M .000008871 0 L 595.32 0 L 595.32 841.92 L .000008871 841.92 Z " fill-rule="evenodd"/>
</clipPath>
<g clip-path="url(#cp25610)">
<text xml:space="preserve" transform="matrix(1 0 -0 1 0 841.92)" font-size="14.04" font-family="Times New Roman,BoldItalic" font-weight="bold" font-style="italic"><tspan y="-265.37" x="85.104 91.33775 98.41391 103.81931 111.62556 117.859317 121.706279 128.6701">yozuvlar</tspan></text>
</g>
<clipPath id="cp25611">
<path transform="matrix(1,0,0,-1,0,841.92)" d="M .000008871 0 L 595.32 0 L 595.32 841.92 L .000008871 841.92 Z " fill-rule="evenodd"/>
</clipPath>
<g clip-path="url(#cp25611)">
<text xml:space="preserve" transform="matrix(1 0 -0 1 0 841.92)" font-size="14.04" font-family="Times New Roman"><tspan y="-265.37" x="134.18"> </tspan></text>
</g>
<clipPath id="cp25612">
<path transform="matrix(1,0,0,-1,0,841.92)" d="M .000008871 0 L 595.32 0 L 595.32 841.92 L .000008871 841.92 Z " fill-rule="evenodd"/>
</clipPath>
<g clip-path="url(#cp25612)">
<text xml:space="preserve" transform="matrix(1 0 -0 1 0 841.92)" font-size="14.04" font-family="Times New Roman"><tspan y="-265.37" x="138.14 145.20212 151.32357 158.38568 162.33092 168.56468 172.50992 178.74369 182.59064 188.8244 195.78824 199.73348 203.24347 207.16063 219.6422 225.87596 232.72748 239.7896 246.85172 253.81555 257.76078 263.99455 268.66987 272.62916 285.11073 294.34904 301.41114 305.2581 312.3202 319.3823 323.32756 327.1745 334.2366 340.47038 344.31733 348.26255 358.947 365.18077 370.69847 374.64369 381.6075 385.55274 389.06275 392.97993 399.81739 406.8795 413.11326 420.1894 427.15324 431.09846 437.3322 442.00755 445.96684 452.2006 457.7183 463.95207 467.8973 474.86116 481.92326 488.8871 495.12086 499.0661 502.91307 509.97517 516.8127 520.75796 526.9917 532.5094 539.47329 546.43716 552.5586 559.52249">deb ataladi. Maydonlar MBning tuzilmasini, yozuvlar esa unda joylashgan </tspan></text>
</g>
<clipPath id="cp25613">
<path transform="matrix(1,0,0,-1,0,841.92)" d="M .000008871 0 L 595.32 0 L 595.32 841.92 L .000008871 841.92 Z " fill-rule="evenodd"/>
</clipPath>
<g clip-path="url(#cp25613)">
<text xml:space="preserve" transform="matrix(1 0 -0 1 0 841.92)" font-size="14.04" font-family="Times New Roman"><tspan y="-241.13" x="85.104 95.90411">ma</tspan></text>
</g>
<clipPath id="cp25614">
<path transform="matrix(1,0,0,-1,0,841.92)" d="M .000008871 0 L 595.32 0 L 595.32 841.92 L .000008871 841.92 Z " fill-rule="evenodd"/>
</clipPath>
<g clip-path="url(#cp25614)">
<text xml:space="preserve" transform="matrix(1 0 -0 1 0 841.92)" font-size="14.04" font-family="Times New Roman"><tspan y="-241.13" x="102.14">&#x2019;</tspan></text>
</g>
<clipPath id="cp25615">
<path transform="matrix(1,0,0,-1,0,841.92)" d="M .000008871 0 L 595.32 0 L 595.32 841.92 L .000008871 841.92 Z " fill-rule="evenodd"/>
</clipPath>
<g clip-path="url(#cp25615)">
<text xml:space="preserve" transform="matrix(1 0 -0 1 0 841.92)" font-size="14.04" font-family="Times New Roman"><tspan y="-241.13" x="106.7 110.64524 117.83372 128.51816 135.58028 139.52552 143.47075 149.70452 154.26752 161.23136 165.17659 168.68659 172.5897 178.73923 184.2429 191.20674 198.17058 202.11582 205.96277 209.47277 215.70653 219.60965 225.75917 232.82129 236.76653">lumotlarni tashkil etadi.</tspan></text>
</g>
<clipPath id="cp25616">
<path transform="matrix(1,0,0,-1,0,841.92)" d="M .000008871 0 L 595.32 0 L 595.32 841.92 L .000008871 841.92 Z " fill-rule="evenodd"/>
</clipPath>
<g clip-path="url(#cp25616)">
<text xml:space="preserve" transform="matrix(1 0 -0 1 0 841.92)" font-size="14.04" font-family="Times New Roman"><tspan y="-241.13" x="240.29"> </tspan></text>
</g>
</g>
<g id="Layer-1" data-name="P">
<clipPath id="cp25617">
<path transform="matrix(1,0,0,-1,0,841.92)" d="M .000008871 0 L 595.32 0 L 595.32 841.92 L .000008871 841.92 Z " fill-rule="evenodd"/>
</clipPath>
<g clip-path="url(#cp25617)">
<text xml:space="preserve" transform="matrix(1 0 -0 1 0 841.92)" font-size="14.04" font-family="Times New Roman"><tspan y="-216.98" x="120.5 132.98157 139.21533 146.06685 153.12897 160.19109 167.15493 171.10016 177.33393">Maydonlar</tspan></text>
</g>
<clipPath id="cp25618">
<path transform="matrix(1,0,0,-1,0,841.92)" d="M .000008871 0 L 595.32 0 L 595.32 841.92 L .000008871 841.92 Z " fill-rule="evenodd"/>
</clipPath>
<g clip-path="url(#cp25618)">
<text xml:space="preserve" transform="matrix(1 0 -0 1 0 841.92)" font-size="14.04" font-family="Times New Roman,Bold" font-weight="bold"><tspan y="-216.98" x="182.06"> </tspan></text>
</g>
<clipPath id="cp25619">
<path transform="matrix(1,0,0,-1,0,841.92)" d="M .000008871 0 L 595.32 0 L 595.32 841.92 L .000008871 841.92 Z " fill-rule="evenodd"/>
</clipPath>
<g clip-path="url(#cp25619)">
<text xml:space="preserve" transform="matrix(1 0 -0 1 0 841.92)" font-size="14.04" font-family="Times New Roman,Bold" font-weight="bold"><tspan y="-216.98" x="194.57">&#x2013;</tspan></text>
</g>
<clipPath id="cp25620">
<path transform="matrix(1,0,0,-1,0,841.92)" d="M .000008871 0 L 595.32 0 L 595.32 841.92 L .000008871 841.92 Z " fill-rule="evenodd"/>
</clipPath>
<g clip-path="url(#cp25620)">
<text xml:space="preserve" transform="matrix(1 0 -0 1 0 841.92)" font-size="14.04" font-family="Times New Roman,Bold" font-weight="bold"><tspan y="-216.98" x="201.65"> </tspan></text>
</g>
<clipPath id="cp25621">
<path transform="matrix(1,0,0,-1,0,841.92)" d="M .000008871 0 L 595.32 0 L 595.32 841.92 L .000008871 841.92 Z " fill-rule="evenodd"/>
</clipPath>
<g clip-path="url(#cp25621)">
<text xml:space="preserve" transform="matrix(1 0 -0 1 0 841.92)" font-size="14.04" font-family="Times New Roman"><tspan y="-216.98" x="214.13 226.48522 235.72354 248.19106 252.13629 259.1984 265.31983 269.26506 273.21028 283.8947 290.12849 295.64619 299.49314 306.55525 310.4022 317.36604 324.42814 336.89567 343.12944 348.53483 355.49867 361.00233 364.94755 371.785 384.25254 390.4863 394.43153 400.66529 411.34974 417.5835 424.65965 428.60487 432.55009">MB tuzilmasining asosiy elementla</tspan></text>
</g>
<clipPath id="cp25622">
<path transform="matrix(1,0,0,-1,0,841.92)" d="M .000008871 0 L 595.32 0 L 595.32 841.92 L .000008871 841.92 Z " fill-rule="evenodd"/>
</clipPath>
<g clip-path="url(#cp25622)">
<text xml:space="preserve" transform="matrix(1 0 -0 1 0 841.92)" font-size="14.04" font-family="Times New Roman"><tspan y="-216.98" x="439.03 443.593 447.5382 454.50205 458.44728 463.1226 466.4922 478.95973 489.04045 492.98567 499.21943 503.89476 516.48867 527.17306">ridir. Ular ma</tspan></text>
</g>
<clipPath id="cp25623">
<path transform="matrix(1,0,0,-1,0,841.92)" d="M .000008871 0 L 595.32 0 L 595.32 841.92 L .000008871 841.92 Z " fill-rule="evenodd"/>
</clipPath>
<g clip-path="url(#cp25623)">
<text xml:space="preserve" transform="matrix(1 0 -0 1 0 841.92)" font-size="14.04" font-family="Times New Roman"><tspan y="-216.98" x="533.5">&#x2019;</tspan></text>
</g>
<clipPath id="cp25624">
<path transform="matrix(1,0,0,-1,0,841.92)" d="M .000008871 0 L 595.32 0 L 595.32 841.92 L .000008871 841.92 Z " fill-rule="evenodd"/>
</clipPath>
<g clip-path="url(#cp25624)">
<text xml:space="preserve" transform="matrix(1 0 -0 1 0 841.92)" font-size="14.04" font-family="Times New Roman"><tspan y="-216.98" x="538.06 542.00527 549.1937 559.9905">lum </tspan></text>
</g>
<clipPath id="cp25625">
<path transform="matrix(1,0,0,-1,0,841.92)" d="M .000008871 0 L 595.32 0 L 595.32 841.92 L .000008871 841.92 Z " fill-rule="evenodd"/>
</clipPath>
<g clip-path="url(#cp25625)">
<text xml:space="preserve" transform="matrix(1 0 -0 1 0 841.92)" font-size="14.04" font-family="Times New Roman"><tspan y="-192.86" x="85.104 92.166118 99.12995 104.535358 111.59747 117.00288 120.94812 127.7856 134.01937 137.9646 141.90984 148.1436 152.7066 159.76873 166.00249 173.66832 179.78977 186.85189 193.08565 200.75148 207.71532">xususiyatlarga ega bo</tspan></text>
</g>
<clipPath id="cp25626">
<path transform="matrix(1,0,0,-1,0,841.92)" d="M .000008871 0 L 595.32 0 L 595.32 841.92 L .000008871 841.92 Z " fill-rule="evenodd"/>
</clipPath>
<g clip-path="url(#cp25626)">
<text xml:space="preserve" transform="matrix(1 0 -0 1 0 841.92)" font-size="14.04" font-family="Times New Roman"><tspan y="-192.86" x="214.97">&#x2019;</tspan></text>
</g>
<clipPath id="cp25627">
<path transform="matrix(1,0,0,-1,0,841.92)" d="M .000008871 0 L 595.32 0 L 595.32 841.92 L .000008871 841.92 Z " fill-rule="evenodd"/>
</clipPath>
<g clip-path="url(#cp25627)">
<text xml:space="preserve" transform="matrix(1 0 -0 1 0 841.92)" font-size="14.04" font-family="Times New Roman"><tspan y="-192.86" x="219.53 223.47524 229.709 236.67284 240.61808 244.46503 250.69879 255.37412 258.88414 266.53596 276.61668 282.85044 287.52577 295.20567 302.26777 308.3892 315.35304 322.41514 328.53657 335.5004 343.2926 353.97706 360.32316 367.1606 374.22273 381.28483 388.34693 395.31077 399.1577 406.21983 413.28193 420.94779 427.0692 432.57289 439.5367 444.9421 448.78907 455.7529 463.41877 470.48088 477.54298 482.94837 489.9122 495.41587 499.36109 506.19856 512.4323 516.37759 520.3228 527.8623 534.92446 541.8883 545.7353 552.69918 559.663">ladilar. Har qanday maydonning asosiy xususiyati uning </tspan></text>
</g>
<clipPath id="cp25628">
<path transform="matrix(1,0,0,-1,0,841.92)" d="M .000008871 0 L 595.32 0 L 595.32 841.92 L .000008871 841.92 Z " fill-rule="evenodd"/>
</clipPath>
<g clip-path="url(#cp25628)">
<text xml:space="preserve" transform="matrix(1 0 -0 1 0 841.92)" font-size="14.04" font-family="Times New Roman,BoldItalic" font-weight="bold" font-style="italic"><tspan y="-168.74" x="85.104 92.91024 98.413928 106.22017 113.900058 117.8453 121.69226 128.75438 132.60134 139.56517 143.5104">uzunligidir</tspan></text>
</g>
<clipPath id="cp25629">
<path transform="matrix(1,0,0,-1,0,841.92)" d="M .000008871 0 L 595.32 0 L 595.32 841.92 L .000008871 841.92 Z " fill-rule="evenodd"/>
</clipPath>
<g clip-path="url(#cp25629)">
<text xml:space="preserve" transform="matrix(1 0 -0 1 0 841.92)" font-size="14.04" font-family="Times New Roman"><tspan y="-168.74" x="149.06 152.56999 156.02382 168.50539 174.73915 181.59067 188.65279 195.61663 202.67874 206.0343 213.09642 219.21787 226.27999 233.24382 237.18906 241.03601 247.99985 251.94509 255.45508 262.39085 269.45295 276.41679 282.65055 289.61439 293.5596 297.0696 304.00538 310.23915 314.0861 321.1482 324.99516 328.94038 335.17414 339.84947 343.35948 346.82737 352.23277 359.1966 366.2587 370.20393 373.55949 380.62159 384.46855 388.41377 394.5352 401.5973 405.1073 409.0104 413.6015 420.56535 427.62745 433.8612 437.70817 443.8296 450.8917 457.01313 464.07524 468.02046">. Maydon uzunligi undagi belgilar  soni bilan ifodalanadi.</tspan></text>
</g>
<clipPath id="cp25630">
<path transform="matrix(1,0,0,-1,0,841.92)" d="M .000008871 0 L 595.32 0 L 595.32 841.92 L .000008871 841.92 Z " fill-rule="evenodd"/>
</clipPath>
<g clip-path="url(#cp25630)">
<text xml:space="preserve" transform="matrix(1 0 -0 1 0 841.92)" font-size="14.04" font-family="Times New Roman"><tspan y="-168.74" x="471.7"> </tspan></text>
</g>
</g>
<g id="Layer-1" data-name="P">
<clipPath id="cp25631">
<path transform="matrix(1,0,0,-1,0,841.92)" d="M .000008871 0 L 595.32 0 L 595.32 841.92 L .000008871 841.92 Z " fill-rule="evenodd"/>
</clipPath>
<g clip-path="url(#cp25631)">
<text xml:space="preserve" transform="matrix(1 0 -0 1 0 841.92)" font-size="14.04" font-family="Times New Roman"><tspan y="-144.5" x="120.5 132.98157 139.21533 146.06685 153.12897 160.19109 167.15493 174.21704 178.064 185.02783 192.08995 197.48131 204.31879 210.55255 217.62873 223.86249 229.25385 236.31597 240.16292 244.83824 250.2296 257.29173 264.25556 269.75923 276.72306 282.2267 286.17195 293.0094 299.24317 303.09013 307.03535 310.54536 315.8946 322.9567 329.92054 333.7675 340.8296 347.8917">Maydonning yana bir xususiyati, uning </tspan></text>
</g>
<clipPath id="cp25632">
<path transform="matrix(1,0,0,-1,0,841.92)" d="M .000008871 0 L 595.32 0 L 595.32 841.92 L .000008871 841.92 Z " fill-rule="evenodd"/>
</clipPath>
<g clip-path="url(#cp25632)">
<text xml:space="preserve" transform="matrix(1 0 -0 1 0 841.92)" font-size="14.04" font-family="Times New Roman,BoldItalic" font-weight="bold" font-style="italic"><tspan y="-144.5" x="353.59 361.26988 368.10734 379.2551 383.10206 390.0659 394.0111">nomidir</tspan></text>
</g>
<clipPath id="cp25633">
<path transform="matrix(1,0,0,-1,0,841.92)" d="M .000008871 0 L 595.32 0 L 595.32 841.92 L .000008871 841.92 Z " fill-rule="evenodd"/>
</clipPath>
<g clip-path="url(#cp25633)">
<text xml:space="preserve" transform="matrix(1 0 -0 1 0 841.92)" font-size="14.04" font-family="Times New Roman"><tspan y="-144.5" x="399.55 403.06 408.40925 420.8908 427.12458 433.97608 441.03819 448.002 454.96586 462.02796 468.26173 473.65309 480.6169 487.67903 491.52598 498.4898 505.5519 510.94328 518.0054 525.0675 535.7519 539.69717 546.7593 552.88076 559.8446">. Maydonda uning nomidan </tspan></text>
</g>
<clipPath id="cp25634">
<path transform="matrix(1,0,0,-1,0,841.92)" d="M .000008871 0 L 595.32 0 L 595.32 841.92 L .000008871 841.92 Z " fill-rule="evenodd"/>
</clipPath>
<g clip-path="url(#cp25634)">
<text xml:space="preserve" transform="matrix(1 0 -0 1 0 841.92)" font-size="14.04" font-family="Times New Roman"><tspan y="-120.38" x="85.104 89.04924 95.283 100.6884 107.65224 114.714359 120.94811 125.511119 129.45635 136.64482 143.4823 149.71607 156.79224 163.026">tashqari yana </tspan></text>
</g>
<clipPath id="cp25635">
<path transform="matrix(1,0,0,-1,0,841.92)" d="M .000008871 0 L 595.32 0 L 595.32 841.92 L .000008871 841.92 Z " fill-rule="evenodd"/>
</clipPath>
<g clip-path="url(#cp25635)">
<text xml:space="preserve" transform="matrix(1 0 -0 1 0 841.92)" font-size="14.04" font-family="Times New Roman,BoldItalic" font-weight="bold" font-style="italic"><tspan y="-120.38" x="170.3 174.0206 185.16837 190.57376">imzo</tspan></text>
</g>
<clipPath id="cp25636">
<path transform="matrix(1,0,0,-1,0,841.92)" d="M .000008871 0 L 595.32 0 L 595.32 841.92 L .000008871 841.92 Z " fill-rule="evenodd"/>
</clipPath>
<g clip-path="url(#cp25636)">
<text xml:space="preserve" transform="matrix(1 0 -0 1 0 841.92)" font-size="14.04" font-family="Times New Roman"><tspan y="-120.38" x="197.57"> </tspan></text>
</g>
<clipPath id="cp25637">
<path transform="matrix(1,0,0,-1,0,841.92)" d="M .000008871 0 L 595.32 0 L 595.32 841.92 L .000008871 841.92 Z " fill-rule="evenodd"/>
</clipPath>
<g clip-path="url(#cp25637)">
<text xml:space="preserve" transform="matrix(1 0 -0 1 0 841.92)" font-size="14.04" font-family="Times New Roman"><tspan y="-120.38" x="204.65">x</tspan></text>
</g>
<clipPath id="cp25638">
<path transform="matrix(1,0,0,-1,0,841.92)" d="M .000008871 0 L 595.32 0 L 595.32 841.92 L .000008871 841.92 Z " fill-rule="evenodd"/>
</clipPath>
<g clip-path="url(#cp25638)">
<text xml:space="preserve" transform="matrix(1 0 -0 1 0 841.92)" font-size="14.04" font-family="Times New Roman"><tspan y="-120.38" x="211.73 218.69384 224.09923 231.16135 236.56674 240.51198 247.34946 253.58322 257.52845 261.47367 268.5358 275.5979 281.83168 292.5161 299.81694 310.50138 316.73515 323.81129 327.65824 334.72035 341.78245 345.29246 352.45286 357.12818 367.81263 374.0464">ususiyati ham mavjud. Imzo</tspan></text>
</g>
<clipPath id="cp25639">
<path transform="matrix(1,0,0,-1,0,841.92)" d="M .000008871 0 L 595.32 0 L 595.32 841.92 L .000008871 841.92 Z " fill-rule="evenodd"/>
</clipPath>
<g clip-path="url(#cp25639)">
<text xml:space="preserve" transform="matrix(1 0 -0 1 0 841.92)" font-size="14.04" font-family="Times New Roman,Bold" font-weight="bold"><tspan y="-120.38" x="381.31"> </tspan></text>
</g>
<clipPath id="cp25640">
<path transform="matrix(1,0,0,-1,0,841.92)" d="M .000008871 0 L 595.32 0 L 595.32 841.92 L .000008871 841.92 Z " fill-rule="evenodd"/>
</clipPath>
<g clip-path="url(#cp25640)">
<text xml:space="preserve" transform="matrix(1 0 -0 1 0 841.92)" font-size="14.04" font-family="Times New Roman,Bold" font-weight="bold"><tspan y="-120.38" x="388.51">&#x2013;</tspan></text>
</g>
<clipPath id="cp25641">
<path transform="matrix(1,0,0,-1,0,841.92)" d="M .000008871 0 L 595.32 0 L 595.32 841.92 L .000008871 841.92 Z " fill-rule="evenodd"/>
</clipPath>
<g clip-path="url(#cp25641)">
<text xml:space="preserve" transform="matrix(1 0 -0 1 0 841.92)" font-size="14.04" font-family="Times New Roman,Bold" font-weight="bold"><tspan y="-120.38" x="395.59"> </tspan></text>
</g>
<clipPath id="cp25642">
<path transform="matrix(1,0,0,-1,0,841.92)" d="M .000008871 0 L 595.32 0 L 595.32 841.92 L .000008871 841.92 Z " fill-rule="evenodd"/>
</clipPath>
<g clip-path="url(#cp25642)">
<text xml:space="preserve" transform="matrix(1 0 -0 1 0 841.92)" font-size="14.04" font-family="Times New Roman"><tspan y="-120.38" x="402.67 409.63386 415.1375 418.98448 425.9483 433.0104 439.97425 443.8212 450.8833 457.84715 465.0356 470.53929 476.6607 481.33604 485.28126 491.40269 498.36653 505.42863 511.66239 517.0678 520.9148 527.9769 534.2107 541.3992 547.5206 554.4845 559.8899">ustunning sarlavhasida aks </tspan></text>
</g>
<clipPath id="cp25643">
<path transform="matrix(1,0,0,-1,0,841.92)" d="M .000008871 0 L 595.32 0 L 595.32 841.92 L .000008871 841.92 Z " fill-rule="evenodd"/>
</clipPath>
<g clip-path="url(#cp25643)">
<text xml:space="preserve" transform="matrix(1 0 -0 1 0 841.92)" font-size="14.04" font-family="Times New Roman"><tspan y="-96.264" x="85.104 91.33775 95.283 99.12996 103.0752 107.63821 111.58345 115.528697 121.65013 128.61397 132.5592 139.52304 145.7568 152.83298 159.5441 165.66555 172.72766 179.6915 186.75362 191.31662 198.37874 202.2257 209.28781 213.23305 217.90837 221.41837 228.1014 238.18212 245.14595 249.09119 255.91463 266.59907 272.94517 279.78263 286.84474 293.90684 300.96894 307.5537 314.6158 321.57966 332.2641 336.3357 343.0468 350.10893 354.05415 357.99937 364.1208 371.1829 377.894 384.12779 388.8031 394.9386 398.88383 405.00526 410.5089 417.47276 421.41798 425.26493 429.94026 433.7872 440.75105 447.5745 454.41197 461.47407 468.53617 475.59828 480.2736 490.95805 497.1918 502.7095 506.55647 510.50169 517.5638 524.2749 528.1219 535.184 541.3055 545.25076 555.9351 559.4451">ettiriladigan axborotdir. Uni maydon nomi bilan aralashtirib yubormaslik lozim. </tspan></text>
</g>
</g>
</g>
</g>
</svg>
