<?xml version="1.0" encoding="UTF-8" standalone="no"?>
<!DOCTYPE svg PUBLIC "-//W3C//DTD SVG 1.1//EN" "http://www.w3.org/Graphics/SVG/1.1/DTD/svg11.dtd">
<svg xmlns="http://www.w3.org/2000/svg" xmlns:xlink="http://www.w3.org/1999/xlink" version="1.1" width="595.32pt" height="841.92pt" viewBox="0 0 595.32 841.92">
<g enable-background="new">
<g>
<g id="Layer-1" data-name="Artifact">
<clipPath id="cp1648">
<path transform="matrix(1,0,0,-1,0,841.92)" d="M .000008871 0 L 595.32 0 L 595.32 841.92 L .000008871 841.92 Z " fill-rule="evenodd"/>
</clipPath>
<g clip-path="url(#cp1648)">
<text xml:space="preserve" transform="matrix(1 0 -0 1 0 841.92)" font-size="11.04" font-family="Calibri"><tspan y="-51.864" x="313.37 319.00999">16</tspan></text>
</g>
<clipPath id="cp1649">
<path transform="matrix(1,0,0,-1,0,841.92)" d="M .000008871 0 L 595.32 0 L 595.32 841.92 L .000008871 841.92 Z " fill-rule="evenodd"/>
</clipPath>
<g clip-path="url(#cp1649)">
<text xml:space="preserve" transform="matrix(1 0 -0 1 0 841.92)" font-size="11.04" font-family="Calibri"><tspan y="-51.864" x="324.67"> </tspan></text>
</g>
<clipPath id="cp1650">
<path transform="matrix(1,0,0,-1,0,841.92)" d="M .000008871 0 L 595.32 0 L 595.32 841.92 L .000008871 841.92 Z " fill-rule="evenodd"/>
</clipPath>
<g clip-path="url(#cp1650)">
</g>
<clipPath id="cp1651">
<path transform="matrix(1,0,0,-1,0,841.92)" d="M .000008871 0 L 595.32 0 L 595.32 841.92 L .000008871 841.92 Z " fill-rule="evenodd"/>
</clipPath>
<g clip-path="url(#cp1651)">
<text xml:space="preserve" transform="matrix(1 0 -0 1 0 841.92)" font-size="11.04" font-family="Calibri"><tspan y="-38.4" x="85.104"> </tspan></text>
</g>
<clipPath id="cp1652">
<path transform="matrix(1,0,0,-1,0,841.92)" d="M .000008871 0 L 595.32 0 L 595.32 841.92 L .000008871 841.92 Z " fill-rule="evenodd"/>
</clipPath>
<g clip-path="url(#cp1652)">
</g>
</g>
<g id="Layer-1" data-name="P">
<path transform="matrix(1,0,0,-1,0,841.92)" d="M 86.064 769.2 L 551.734 769.2 L 551.734 785.64 L 86.064 785.64 Z " fill="#ffffff" fill-rule="evenodd"/>
</g>
<g id="Layer-1" data-name="P">
<clipPath id="cp1653">
<path transform="matrix(1,0,0,-1,0,841.92)" d="M .000008871 0 L 595.32 0 L 595.32 841.92 L .000008871 841.92 Z " fill-rule="evenodd"/>
</clipPath>
<g clip-path="url(#cp1653)">
<text xml:space="preserve" transform="matrix(1 0 -0 1 0 841.92)" font-size="14.04" font-family="Times New Roman"><tspan y="-772.56" x="86.064 89.78461 96.018367 106.590488 110.53573 117.26089 123.382328 127.32757 134.86705 139.43006 143.27701 150.24085 157.20468 160.92528 164.77223 172.3117 179.27555 185.39699 192.36083 199.1983 206.03578 213.57526 220.5391 224.38605 230.61981 241.19194 247.31339 251.16034 258.69984 265.66368 269.51063 273.35758 279.479 286.31648 290.16343 297.12727 303.12236 310.08619 317.62568 324.46315 330.58457 338.12406 344.24549 351.20933 358.17317 365.71266 371.83409 377.23948 384.2033 389.48234 393.32929 400.05445 405.45985 409.3068">jamiyat rivoji uchun xizmat qiladigan va eng asosiysi </tspan></text>
</g>
</g>
<g id="Layer-1" data-name="P">
<clipPath id="cp1654">
<path transform="matrix(1,0,0,-1,0,841.92)" d="M .000008871 0 L 595.32 0 L 595.32 841.92 L .000008871 841.92 Z " fill-rule="evenodd"/>
</clipPath>
<g clip-path="url(#cp1654)">
<text xml:space="preserve" transform="matrix(1 0 -0 1 0 841.92)" font-size="14.04" font-family="Times New Roman"><tspan y="-772.56" x="416.95">&#x2013;</tspan></text>
</g>
</g>
<g id="Layer-1" data-name="P">
<clipPath id="cp1655">
<path transform="matrix(1,0,0,-1,0,841.92)" d="M .000008871 0 L 595.32 0 L 595.32 841.92 L .000008871 841.92 Z " fill-rule="evenodd"/>
</clipPath>
<g clip-path="url(#cp1655)">
<text xml:space="preserve" transform="matrix(1 0 -0 1 0 841.92)" font-size="14.04" font-family="Times New Roman"><tspan y="-772.56" x="423.91"> </tspan></text>
</g>
</g>
<g id="Layer-1" data-name="P">
<clipPath id="cp1656">
<path transform="matrix(1,0,0,-1,0,841.92)" d="M .000008871 0 L 595.32 0 L 595.32 841.92 L .000008871 841.92 Z " fill-rule="evenodd"/>
</clipPath>
<g clip-path="url(#cp1656)">
<text xml:space="preserve" transform="matrix(1 0 -0 1 0 841.92)" font-size="14.04" font-family="Times New Roman"><tspan y="-772.56" x="431.47 436.033 442.99684 449.722 456.68583 462.80726 466.6542 472.77565 479.73948 486.7033 493.66716 499.66224 506.62608 510.47303 518.0125 524.9764 531.09786 537.93539 544.89926 551.73678">foydalanuvchi uchun </tspan></text>
</g>
<path transform="matrix(1,0,0,-1,0,841.92)" d="M 86.064 744.94 L 551.734 744.94 L 551.734 761.404 L 86.064 761.404 Z " fill="#ffffff" fill-rule="evenodd"/>
</g>
<g id="Layer-1" data-name="P">
<clipPath id="cp1657">
<path transform="matrix(1,0,0,-1,0,841.92)" d="M .000008871 0 L 595.32 0 L 595.32 841.92 L .000008871 841.92 Z " fill-rule="evenodd"/>
</clipPath>
<g clip-path="url(#cp1657)">
<text xml:space="preserve" transform="matrix(1 0 -0 1 0 841.92)" font-size="14.04" font-family="Times New Roman"><tspan y="-748.3" x="86.064 93.02784 99.14928 106.11311 110.67612 115.95516 119.802127 125.92356 132.50832 138.62976 145.46724 152.43108 159.39492 163.83156 170.7954 174.64235 181.2271 188.19094 194.18602 201.14986 207.62229 214.58612 221.54996 225.9866 229.93184 240.48993 246.7237 253.44886 260.4127 264.25965 267.6152 274.19999 279.60539 285.83915 296.41127 300.35649 307.08164 313.20307 317.05003 324.01387 330.13529 336.72007 343.6839 350.64775 355.92677 359.7737 363.62068 370.20545 377.0429 384.00675 388.4434 392.29035 398.41178 405.13694 412.10078 415.94773 422.91157 429.033 435.99684 442.5816 448.5767 455.54054 462.50437 469.4682 473.90486 480.86869 484.71565 491.18809 498.15193 505.11576 509.5524 514.1154 521.0793 527.9168 531.7638 538.72769 544.7227 551.6866">xavfsiz axborot deb bo&#x2018;lmaydi. Jamiyatda hosil bo&#x2018;layotgan axborot bo&#x2018;ronidan </tspan></text>
</g>
<path transform="matrix(1,0,0,-1,0,841.92)" d="M 86.064 720.82 L 551.734 720.82 L 551.734 737.26 L 86.064 737.26 Z " fill="#ffffff" fill-rule="evenodd"/>
</g>
<g id="Layer-1" data-name="P">
<clipPath id="cp1658">
<path transform="matrix(1,0,0,-1,0,841.92)" d="M .000008871 0 L 595.32 0 L 595.32 841.92 L .000008871 841.92 Z " fill-rule="evenodd"/>
</clipPath>
<g clip-path="url(#cp1658)">
<text xml:space="preserve" transform="matrix(1 0 -0 1 0 841.92)" font-size="14.04" font-family="Times New Roman"><tspan y="-724.18" x="86.064 89.78461 96.018367 106.590488 110.53573 117.26089 123.382328 127.22929 131.17453 137.4083 141.85898 147.98043 154.94426 158.79122 164.91266 169.47566 173.32262 180.28646 184.1334 187.48897 191.4342 197.55565 204.39313 211.35697 215.20392 222.0414 227.4468 233.56824 236.9238 240.86904 244.58963 250.8234 261.3955 265.34074 272.0659 278.18733 282.03428 288.9981 292.84507 299.8089 306.77275 310.718 317.68183 323.6769 327.52388">jamiyat a&#x2019;zolarini, ayniqsa, jamiyatning k&#x0435;la</tspan></text>
</g>
</g>
<g id="Layer-1" data-name="P">
<clipPath id="cp1659">
<path transform="matrix(1,0,0,-1,0,841.92)" d="M .000008871 0 L 595.32 0 L 595.32 841.92 L .000008871 841.92 Z " fill-rule="evenodd"/>
</clipPath>
<g clip-path="url(#cp1659)">
<text xml:space="preserve" transform="matrix(1 0 -0 1 0 841.92)" font-size="14.04" font-family="Times New Roman"><tspan y="-724.18" x="333.67 337.3906 343.51203 350.47587 354.3228 358.26808 365.10554 372.06938 376.506 380.35298 387.3168 393.43824 400.40208 404.34733 411.07249 418.03633 423.4417 430.40556 434.2525 440.37394 444.81059 451.7744 455.62138 459.56663 466.40409 470.25105 480.8091 487.87123 494.59638 500.83015 504.7754 511.73924 515.5862 519.43319 523.1538 528.5592 535.3967 542.3606 548.48208 551.7253">jagi bo&#x2018;lgan yoshlarni himoya qilishda, </tspan></text>
</g>
<path transform="matrix(1,0,0,-1,0,841.92)" d="M 86.064 696.7 L 514.054 696.7 L 514.054 713.14 L 86.064 713.14 Z " fill="#ffffff" fill-rule="evenodd"/>
</g>
<g id="Layer-1" data-name="P">
<clipPath id="cp1660">
<path transform="matrix(1,0,0,-1,0,841.92)" d="M .000008871 0 L 595.32 0 L 595.32 841.92 L .000008871 841.92 Z " fill-rule="evenodd"/>
</clipPath>
<g clip-path="url(#cp1660)">
<text xml:space="preserve" transform="matrix(1 0 -0 1 0 841.92)" font-size="14.04" font-family="Times New Roman"><tspan y="-700.06" x="86.064 93.02784 96.8748 102.99624 107.55924 114.52308 120.644519 124.00008 129.99517 136.959 143.79648 150.76032 155.32332 162.1608 166.00775 169.51775 180.04775 186.16919 193.13303 199.25447 206.2183 210.06526 216.79042 222.91187 226.75882 230.60578 237.56961 241.41657 244.77213 250.17752 257.14137 263.13645 270.10029 273.82087 277.66783 283.78926 290.6267 294.47367 298.32063 302.8836 306.6042 312.00959 318.97343 322.21669 329.05415 333.49079 337.33775 343.45918 346.81474 353.77857 360.7424 364.58937 370.7108 376.8322 381.3952 388.35905 391.7146 402.27268 409.2365 415.47029 426.15473 436.83918 443.803 447.31303 454.24879 458.09574 463.37477 470.3386 477.17607 481.023 487.14445 494.10829 500.10337 507.0672 510.91416">ularda axborot madaniyatini shakllantirish o&#x2018;ta dolzarb muammo hisoblanadi.</tspan></text>
</g>
</g>
<g id="Layer-1" data-name="P">
<clipPath id="cp1661">
<path transform="matrix(1,0,0,-1,0,841.92)" d="M .000008871 0 L 595.32 0 L 595.32 841.92 L .000008871 841.92 Z " fill-rule="evenodd"/>
</clipPath>
<g clip-path="url(#cp1661)">
<text xml:space="preserve" transform="matrix(1 0 -0 1 0 841.92)" font-size="14.04" font-family="Times New Roman"><tspan y="-700.06" x="514.06"> </tspan></text>
</g>
</g>
<g id="Layer-1" data-name="P">
<path transform="matrix(1,0,0,-1,0,841.92)" d="M 120.5 672.58 L 551.73 672.58 L 551.73 689.02 L 120.5 689.02 Z " fill="#ffffff" fill-rule="evenodd"/>
</g>
<g id="Layer-1" data-name="P">
<clipPath id="cp1662">
<path transform="matrix(1,0,0,-1,0,841.92)" d="M .000008871 0 L 595.32 0 L 595.32 841.92 L .000008871 841.92 Z " fill-rule="evenodd"/>
</clipPath>
<g clip-path="url(#cp1662)">
<text xml:space="preserve" transform="matrix(1 0 -0 1 0 841.92)" font-size="14.04" font-family="Times New Roman"><tspan y="-675.94" x="120.5"> </tspan></text>
</g>
</g>
<g id="Layer-1" data-name="P">
<clipPath id="cp1663">
<path transform="matrix(1,0,0,-1,0,841.92)" d="M .000008871 0 L 595.32 0 L 595.32 841.92 L .000008871 841.92 Z " fill-rule="evenodd"/>
</clipPath>
<g clip-path="url(#cp1663)">
<text xml:space="preserve" transform="matrix(1 0 -0 1 0 841.92)" font-size="14.04" font-family="Times New Roman"><tspan y="-675.94" x="123.98 129.97509 139.92945 146.89328 153.85712 160.82096 165.38396 172.22144 176.06839 179.64859 190.20668 196.32813 203.29196 209.4134 216.37725 220.2242 226.94936 233.0708 236.91776 240.76471 246.88616">&#x201c;Axborot madaniyati&#x201d; </tspan></text>
</g>
</g>
<g id="Layer-1" data-name="P">
<clipPath id="cp1664">
<path transform="matrix(1,0,0,-1,0,841.92)" d="M .000008871 0 L 595.32 0 L 595.32 841.92 L .000008871 841.92 Z " fill-rule="evenodd"/>
</clipPath>
<g clip-path="url(#cp1664)">
<text xml:space="preserve" transform="matrix(1 0 -0 1 0 841.92)" font-size="14.04" font-family="Times New Roman"><tspan y="-675.94" x="250.37"> </tspan></text>
</g>
</g>
<g id="Layer-1" data-name="P">
<clipPath id="cp1665">
<path transform="matrix(1,0,0,-1,0,841.92)" d="M .000008871 0 L 595.32 0 L 595.32 841.92 L .000008871 841.92 Z " fill-rule="evenodd"/>
</clipPath>
<g clip-path="url(#cp1665)">
<text xml:space="preserve" transform="matrix(1 0 -0 1 0 841.92)" font-size="14.04" font-family="Times New Roman"><tspan y="-675.94" x="253.85 257.69697 264.6608 270.0662 277.03004 283.8675 290.83134 296.95277 303.9166 309.91169 315.31709 319.16404 322.67405 326.47889 333.31636 340.28019 344.00077 347.84773 353.96916 357.47917 362.01408 368.9779 375.94175 382.7792 388.90065 399.4587 405.58015 412.54399 416.39094 422.51237 426.3593 429.86933 433.67417 440.638 446.0434 452.88087 459.8447 466.80854 472.80363 479.64109 485.7625 489.60948 493.11949 499.21284 506.17668 513.1405 520.1044 524.54098 531.5048 535.3518 538.8618 545.7976 551.79269">tushunchasi ikkita fundam&#x0435;ntal tushuncha: axborot va </tspan></text>
</g>
<path transform="matrix(1,0,0,-1,0,841.92)" d="M 86.064 648.34 L 551.734 648.34 L 551.734 664.78 L 86.064 664.78 Z " fill="#ffffff" fill-rule="evenodd"/>
</g>
<g id="Layer-1" data-name="P">
<clipPath id="cp1666">
<path transform="matrix(1,0,0,-1,0,841.92)" d="M .000008871 0 L 595.32 0 L 595.32 841.92 L .000008871 841.92 Z " fill-rule="evenodd"/>
</clipPath>
<g clip-path="url(#cp1666)">
<text xml:space="preserve" transform="matrix(1 0 -0 1 0 841.92)" font-size="14.04" font-family="Times New Roman"><tspan y="-651.7" x="86.064 96.74844 102.86988 109.83372 115.955158 122.91899 126.76595 133.4911 139.61255 143.4595 148.48583 152.33278 159.29662 164.70201 171.53949 178.50333 185.46717 191.46225 198.42609 204.54753 208.26813 214.38957 218.95258 222.79953 229.76337 235.88481 240.91114 247.03258 252.31162 259.27546 264.55448 268.40144 274.52287 281.4867 287.48179 294.44563 298.29258 301.64814 306.67448 315.91279 322.75025 329.5877 336.55155 342.67298 349.6368 354.66316 361.62699 367.62208 371.46903 375.1896 382.15345 387.17979 393.3012 400.13868 403.98564 410.94947 414.67005 421.63389 424.98945 430.01579 436.9796 443.94346 448.8434 452.69038 459.6542 464.93324 471.89707 478.73454 485.69837 491.8198 498.78364 504.77873 511.74256 515.58956 520.4895 524.3365 530.45797 534.1786 541.14248 544.8631 551.7006">madaniyat tushunchalariga asoslanadi. Bundan k&#x0435;lib chiqib, bu tushunchani talqin </tspan></text>
</g>
<path transform="matrix(1,0,0,-1,0,841.92)" d="M 86.064 624.22 L 551.734 624.22 L 551.734 640.66 L 86.064 640.66 Z " fill="#ffffff" fill-rule="evenodd"/>
</g>
<g id="Layer-1" data-name="P">
<clipPath id="cp1667">
<path transform="matrix(1,0,0,-1,0,841.92)" d="M .000008871 0 L 595.32 0 L 595.32 841.92 L .000008871 841.92 Z " fill-rule="evenodd"/>
</clipPath>
<g clip-path="url(#cp1667)">
<text xml:space="preserve" transform="matrix(1 0 -0 1 0 841.92)" font-size="14.04" font-family="Times New Roman"><tspan y="-627.58" x="86.064 93.02784 96.8748 100.595409 104.44237 109.72141 116.68525 123.52273 127.36969 134.20717 141.171 148.71048 154.70557 165.39002 171.51146 178.4753 184.59674 191.56058 195.40753 202.13269 208.36646 212.21341 218.33486 225.76201 232.72585 238.84729 246.38677 252.26953 258.39097 265.3548 272.31864 279.28248 283.84547 290.68293 294.52989 300.6513 308.0785 314.80366 321.7675 328.73133 335.69517 341.8166 347.222 354.05946 361.0233 367.86076 371.7077 377.82914 382.39213 386.1127 393.07655 399.19798 406.62513 412.74656 416.46714 421.03013 427.15156 430.9985 434.84547 441.8093 449.1101 456.07395 462.19538 466.75837 472.8798 478.2852 485.12266 488.9696 495.09104 499.65403 507.08119 517.6392 523.7607 530.72457 534.4452 541.40908 548.3729 551.7285">qilishning &#x201c;madaniyat&#x201d; va &#x201c;axborot&#x201d; yondashuvlariga ajratib qarashlar mavjud. </tspan></text>
</g>
<path transform="matrix(1,0,0,-1,0,841.92)" d="M 86.064 600.1 L 551.734 600.1 L 551.734 616.54 L 86.064 616.54 Z " fill="#ffffff" fill-rule="evenodd"/>
</g>
<g id="Layer-1" data-name="P">
<clipPath id="cp1668">
<path transform="matrix(1,0,0,-1,0,841.92)" d="M .000008871 0 L 595.32 0 L 595.32 841.92 L .000008871 841.92 Z " fill-rule="evenodd"/>
</clipPath>
<g clip-path="url(#cp1668)">
<text xml:space="preserve" transform="matrix(1 0 -0 1 0 841.92)" font-size="14.04" font-family="Times New Roman"><tspan y="-603.46" x="86.064 98.419208 104.54064 111.50448 117.625919 124.463397 128.31035 135.0355 141.15695 145.0039 151.82735 158.5525 165.51634 172.48018 179.44402 185.56546 190.8445 197.80834 204.64582 211.60965 215.4566 222.16773 229.0052 235.96904 239.816 244.379 250.37409 255.77948 259.50007 266.4639 272.58534 279.29646 285.41789 292.25535 299.21919 306.183 310.61967 317.5835 321.30409 328.12754 338.6856 344.80705 351.77088 357.8923">Madaniyat yondashuvi doirasida axborot madan</tspan></text>
</g>
</g>
<g id="Layer-1" data-name="P">
<clipPath id="cp1669">
<path transform="matrix(1,0,0,-1,0,841.92)" d="M .000008871 0 L 595.32 0 L 595.32 841.92 L .000008871 841.92 Z " fill-rule="evenodd"/>
</clipPath>
<g clip-path="url(#cp1669)">
<text xml:space="preserve" transform="matrix(1 0 -0 1 0 841.92)" font-size="14.04" font-family="Times New Roman"><tspan y="-603.46" x="364.87 368.71696 375.4421 381.56355 385.4105 389.25746 396.22129 400.06825 406.77937 412.77445 419.73829 426.57575 433.53959 438.10258 445.0664 448.91337 452.7603 458.7554 464.1608 470.99827 477.9621 484.08354 491.04737 497.75849 501.47908 507.6005 518.15859 522.1038 528.829 534.95046 538.7974 545.7613 551.75637">iyatini axborotlashgan jamiyatda </tspan></text>
</g>
<path transform="matrix(1,0,0,-1,0,841.92)" d="M 86.064 575.98 L 551.734 575.98 L 551.734 592.42 L 86.064 592.42 Z " fill="#ffffff" fill-rule="evenodd"/>
</g>
<g id="Layer-1" data-name="P">
<clipPath id="cp1670">
<path transform="matrix(1,0,0,-1,0,841.92)" d="M .000008871 0 L 595.32 0 L 595.32 841.92 L .000008871 841.92 Z " fill-rule="evenodd"/>
</clipPath>
<g clip-path="url(#cp1670)">
<text xml:space="preserve" transform="matrix(1 0 -0 1 0 841.92)" font-size="14.04" font-family="Times New Roman"><tspan y="-579.34" x="86.064 89.910968 96.8748 102.15385 109.11768 115.95516 122.919 126.6396 133.60344 140.56728 151.11132 157.83647 163.95792 169.36331 176.32715 182.4486 187.72763 194.69147 205.2355 209.79851 215.91996 222.88379 226.73075 230.5777 237.30286 243.4243 247.27126 251.11821 261.66224 268.62608 273.9051 280.86894 284.5895 288.43647 298.9805 304.3859 308.23286 312.6695 318.79093 322.63789 326.35847 333.3223 339.44374 342.7993 353.34333 357.19029 364.1541 369.43315 376.39698 383.23445 387.0814 393.80656 399.92799 403.77494 414.44535 425.00343 431.12486 438.08869 444.32246 451.2863 455.13325 461.8584 467.97984 471.82679 475.67375 486.21778 491.62318 498.587 504.5821 511.54594 515.3929 519.23989 525.2349 532.1988 535.91946 541.3248 548.05 551.7706">insonning yashash faoliyati usuli sifatida, insoniyat madaniyati shakllanishi </tspan></text>
</g>
<path transform="matrix(1,0,0,-1,0,841.92)" d="M 86.064 551.71 L 551.734 551.71 L 551.734 568.15 L 86.064 568.15 Z " fill="#ffffff" fill-rule="evenodd"/>
</g>
<g id="Layer-1" data-name="P">
<clipPath id="cp1671">
<path transform="matrix(1,0,0,-1,0,841.92)" d="M .000008871 0 L 595.32 0 L 595.32 841.92 L .000008871 841.92 Z " fill-rule="evenodd"/>
</clipPath>
<g clip-path="url(#cp1671)">
<text xml:space="preserve" transform="matrix(1 0 -0 1 0 841.92)" font-size="14.04" font-family="Times New Roman"><tspan y="-555.07" x="86.064 89.78461 95.906047 100.46905 106.702808 113.42796 120.3918 127.35564 131.20259 138.16643 141.88703 148.85086 155.8147 161.20606 165.05301 171.17446 176.45349 183.41733 190.2548 194.10176 197.94872 203.34008 209.46152 213.30847 220.27231 227.10979 233.23123 240.19507 243.91567 249.32106 253.16802 258.55937 263.96476 267.8117 272.3747 278.36979 282.21675 286.0637 292.90116 299.02259 304.52629 311.4901 317.61155 322.0482 328.16963 332.01658 338.138 345.10185 348.9488 352.30436 357.80805 367.7624 374.59986 381.5637 388.52754 392.96418 399.928 403.77497 409.27867 416.0038 422.96766 429.9315 436.89533 442.8904 448.2958 455.25965 462.0971 469.06095 472.9079 478.29927 485.2631 492.10057 495.9475 500.5105 506.63194 511.91099 515.75796 522.7218 528.84329 534.3469 540.342 545.7474 551.74246">jarayonining tashkil etuvchisi sifatida qaraladi. Axborot yondashuvi doirasida esa </tspan></text>
</g>
<path transform="matrix(1,0,0,-1,0,841.92)" d="M 86.064 527.59 L 551.734 527.59 L 551.734 544.03 L 86.064 544.03 Z " fill="#ffffff" fill-rule="evenodd"/>
</g>
<g id="Layer-1" data-name="P">
<clipPath id="cp1672">
<path transform="matrix(1,0,0,-1,0,841.92)" d="M .000008871 0 L 595.32 0 L 595.32 841.92 L .000008871 841.92 Z " fill-rule="evenodd"/>
</clipPath>
<g clip-path="url(#cp1672)">
<text xml:space="preserve" transform="matrix(1 0 -0 1 0 841.92)" font-size="14.04" font-family="Times New Roman"><tspan y="-530.95" x="86.064 93.02784 99.99168 106.829158 112.95059 120.85512 126.976558 133.94039 140.77787 147.7417 152.3047 159.14218 162.98914 170.89365 174.7406 180.86205 184.709 190.70409 197.66793 201.38852 208.226 212.07295 219.97747 226.9413 233.77878 240.74262 247.70645 251.5534 255.99005 259.837 265.11604 272.07987 279.0437 285.16514 293.06968 300.0335 306.15495 310.71794 316.713 320.55998 324.28056 328.00114 334.96498 341.0864 348.05024 355.95478 362.9186 369.04005 373.60304 379.5981 386.56196 392.68339 400.58793 406.70936 413.6732 420.51066 427.4745 432.03749 438.87495 442.7219 450.62644 455.18943">unga axborot talabini qondirishga qaratilgan barcha axborot fa</tspan></text>
</g>
</g>
<g id="Layer-1" data-name="P">
<clipPath id="cp1673">
<path transform="matrix(1,0,0,-1,0,841.92)" d="M .000008871 0 L 595.32 0 L 595.32 841.92 L .000008871 841.92 Z " fill-rule="evenodd"/>
</clipPath>
<g clip-path="url(#cp1673)">
<text xml:space="preserve" transform="matrix(1 0 -0 1 0 841.92)" font-size="14.04" font-family="Times New Roman"><tspan y="-530.95" x="461.38 468.34385 472.1908 476.03776 482.7629 488.88435 492.7313 496.57826 504.4828 511.44664 515.16726 519.0142 522.8612 533.41928 537.26626 543.3877 547.9507 551.79769">oliyati bilimlari </tspan></text>
</g>
<path transform="matrix(1,0,0,-1,0,841.92)" d="M 86.064 503.47 L 234.764 503.47 L 234.764 519.91 L 86.064 519.91 Z " fill="#ffffff" fill-rule="evenodd"/>
</g>
<g id="Layer-1" data-name="P">
<clipPath id="cp1674">
<path transform="matrix(1,0,0,-1,0,841.92)" d="M .000008871 0 L 595.32 0 L 595.32 841.92 L .000008871 841.92 Z " fill-rule="evenodd"/>
</clipPath>
<g clip-path="url(#cp1674)">
<text xml:space="preserve" transform="matrix(1 0 -0 1 0 841.92)" font-size="14.04" font-family="Times New Roman"><tspan y="-506.83" x="86.064 96.74844 102.86988 106.71684 117.40128 124.36512 130.48656 135.89196 139.7389 143.09447 148.49987 152.34682 156.90982 163.03127 166.87822 170.59882 177.56266 183.6841 187.03966 194.0035 200.12494 204.56159 210.68303 214.52999 220.65143 227.61527 231.46222 234.81778">majmuasi sifatida qaraladi. </tspan></text>
</g>
</g>
<g id="Layer-1" data-name="P">
<clipPath id="cp1675">
<path transform="matrix(1,0,0,-1,0,841.92)" d="M .000008871 0 L 595.32 0 L 595.32 841.92 L .000008871 841.92 Z " fill-rule="evenodd"/>
</clipPath>
<g clip-path="url(#cp1675)">
<text xml:space="preserve" transform="matrix(1 0 -0 1 0 841.92)" font-size="14.04" font-family="Times New Roman"><tspan y="-506.83" x="238.01"> </tspan></text>
</g>
</g>
<g id="Layer-1" data-name="P">
<path transform="matrix(1,0,0,-1,0,841.92)" d="M 120.5 479.35 L 551.73 479.35 L 551.73 495.79 L 120.5 495.79 Z " fill="#ffffff" fill-rule="evenodd"/>
</g>
<g id="Layer-1" data-name="P">
<clipPath id="cp1676">
<path transform="matrix(1,0,0,-1,0,841.92)" d="M .000008871 0 L 595.32 0 L 595.32 841.92 L .000008871 841.92 Z " fill-rule="evenodd"/>
</clipPath>
<g clip-path="url(#cp1676)">
<text xml:space="preserve" transform="matrix(1 0 -0 1 0 841.92)" font-size="14.04" font-family="Times New Roman"><tspan y="-482.71" x="120.5 128.17989 135.14373 139.58037 146.5442 153.50804 160.47188 164.31884 167.89904 174.86287 180.85796 187.8218 191.66875 195.5157 201.63715 206.07379 213.03763 219.15908 222.86563 228.86072 234.26612 240.2612 243.96776 250.0892 257.05305 263.8905 270.85435 275.41734 282.2548 286.10176 289.80833 300.3664 306.48783 313.45167 319.5731 326.53694 330.38389 337.10905 343.23048 347.07743 350.92439 354.63096 358.4779 365.44175 370.84715 377.6846 384.64845 391.61228 397.60737 404.5712 410.69264 415.97166 419.8186 426.65608 430.50303 434.2096 439.48863 446.45246 452.57389 459.41136 464.81675 471.6542 475.3748 482.33863 489.30247 493.00904 499.00413 505.96797 512.8055 519.76937 524.33236 531.16989 535.01687 538.7234 545.68728 551.6823">So&#x2018;nggi vaqtlarda esa axborot madaniyati tushunchasini shaxsning axborot va </tspan></text>
</g>
<path transform="matrix(1,0,0,-1,0,841.92)" d="M 86.064 455.11 L 551.734 455.11 L 551.734 471.55 L 86.064 471.55 Z " fill="#ffffff" fill-rule="evenodd"/>
</g>
<g id="Layer-1" data-name="P">
<clipPath id="cp1677">
<path transform="matrix(1,0,0,-1,0,841.92)" d="M .000008871 0 L 595.32 0 L 595.32 841.92 L .000008871 841.92 Z " fill-rule="evenodd"/>
</clipPath>
<g clip-path="url(#cp1677)">
<text xml:space="preserve" transform="matrix(1 0 -0 1 0 841.92)" font-size="14.04" font-family="Times New Roman"><tspan y="-458.47" x="86.064 96.74844 102.86988 109.83372 115.955158 122.91899 126.76595 133.4911 139.61255 143.4595 158.56655 165.53038 172.5925 183.15059 190.11443 197.07826 203.91574 210.03719 217.00102 220.84798 224.69493 230.81638 235.25302 239.09998 245.93746 249.78441 256.6219 263.58573 278.69279 282.53974 289.3772 293.22416 299.34559 306.30943 310.8724 316.8675 320.71446 325.99348 329.84043 336.56559 342.687 346.53398 352.6554 358.0608 365.02464 371.98847 378.82594 382.67289 397.77995 404.74378 410.8652 416.98664 420.8336 427.55876 433.68019 437.52714 441.37409 448.21156 454.33299 469.55235 476.2775 482.39894 489.36277 493.20973 497.05668 500.90364 516.0107 522.97457 529.096 533.659 539.65408 544.9331 551.7706">madaniyat kompon&#x0435;ntlarining int&#x0435;gratsiyalashuvi vaziyatida yaxlit qarash </tspan></text>
</g>
<path transform="matrix(1,0,0,-1,0,841.92)" d="M 86.064 430.99 L 551.734 430.99 L 551.734 447.43 L 86.064 447.43 Z " fill="#ffffff" fill-rule="evenodd"/>
</g>
<g id="Layer-1" data-name="P">
<clipPath id="cp1678">
<path transform="matrix(1,0,0,-1,0,841.92)" d="M .000008871 0 L 595.32 0 L 595.32 841.92 L .000008871 841.92 Z " fill-rule="evenodd"/>
</clipPath>
<g clip-path="url(#cp1678)">
<text xml:space="preserve" transform="matrix(1 0 -0 1 0 841.92)" font-size="14.04" font-family="Times New Roman"><tspan y="-434.35" x="86.064 89.910968 96.0324 102.99624 109.83372 115.955158 122.91899 128.19803 132.04499 138.77014 144.89159 150.29698 154.14394 157.97686 164.94069 171.90453 177.89962 184.86345 190.9849 197.82238 208.50682 215.47066 222.4345 229.27198 235.39342 238.74898 242.5819 251.82022 258.78407 265.62153 269.46849 276.30595 283.26979 287.1027 294.06654 300.0616 303.90858 307.75553 311.4761 317.59754 322.87657 326.59715 333.56098 339.6824 343.51533 349.63676 355.04216 361.16358 364.9965 370.99159 377.9554 384.79289 391.7567 396.3197 403.15718 407.00413 410.83705 421.3951 427.51655 434.48039">t&#x0435;nd&#x0435;nsiyasi kuchaymoqda. Buning natijasida esa axborot mada</tspan></text>
</g>
</g>
<g id="Layer-1" data-name="P">
<clipPath id="cp1679">
<path transform="matrix(1,0,0,-1,0,841.92)" d="M .000008871 0 L 595.32 0 L 595.32 841.92 L .000008871 841.92 Z " fill-rule="evenodd"/>
</clipPath>
<g clip-path="url(#cp1679)">
<text xml:space="preserve" transform="matrix(1 0 -0 1 0 841.92)" font-size="14.04" font-family="Times New Roman"><tspan y="-434.35" x="440.59 447.55384 451.4008 458.12596 464.24739 468.09434 471.94129 475.7742 482.73805 493.2961 500.35823 510.9163 514.76327 521.7271 527.1325 534.0964 541.06027 544.9072 551.74478">niyati umuminsoniy </tspan></text>
</g>
<path transform="matrix(1,0,0,-1,0,841.92)" d="M 86.064 406.87 L 551.734 406.87 L 551.734 423.31 L 86.064 423.31 Z " fill="#ffffff" fill-rule="evenodd"/>
</g>
<g id="Layer-1" data-name="P">
<clipPath id="cp1680">
<path transform="matrix(1,0,0,-1,0,841.92)" d="M .000008871 0 L 595.32 0 L 595.32 841.92 L .000008871 841.92 Z " fill-rule="evenodd"/>
</clipPath>
<g clip-path="url(#cp1680)">
<text xml:space="preserve" transform="matrix(1 0 -0 1 0 841.92)" font-size="14.04" font-family="Times New Roman"><tspan y="-410.23" x="86.064 96.74844 102.86988 109.83372 115.955158 122.91899 126.76595 133.4911 139.61255 143.4595 150.42334 154.2703 161.23413 168.19797 175.99016 182.954 186.80095 191.36396 199.15615 205.99362 209.84058 214.40358 218.96659 225.08803 230.49343 234.34038 242.13257 247.53797 251.38492 255.94792 262.06935 265.78993 269.63688 276.6007 282.72215 290.51435 297.47819 303.5996 308.1626 314.28404 318.13099 328.81544 335.77928 342.7431 349.58058 355.702 359.05757 366.9621 377.04283 383.76799 390.7318 396.85325 403.81709 411.72163 417.84306 424.8069 430.9283 438.83287 444.23826 451.0757 458.03956 465.9441 472.90794 479.02937 483.59236 489.71379 494.9928 501.95664 509.86119 515.9826 522.8201 529.784 536.74789 541.18447 548.022 551.7426">madaniyatning bir qirrasi sifatida qaralmoqda. Aynan ana shu qarash axborot </tspan></text>
</g>
<path transform="matrix(1,0,0,-1,0,841.92)" d="M 86.064 382.73 L 417.434 382.73 L 417.434 399.194 L 86.064 399.194 Z " fill="#ffffff" fill-rule="evenodd"/>
</g>
<g id="Layer-1" data-name="P">
<clipPath id="cp1681">
<path transform="matrix(1,0,0,-1,0,841.92)" d="M .000008871 0 L 595.32 0 L 595.32 841.92 L .000008871 841.92 Z " fill-rule="evenodd"/>
</clipPath>
<g clip-path="url(#cp1681)">
<text xml:space="preserve" transform="matrix(1 0 -0 1 0 841.92)" font-size="14.04" font-family="Times New Roman"><tspan y="-386.09" x="86.064 96.74844 102.86988 109.83372 115.955158 122.91899 126.76595 133.4911 139.61255 143.4595 147.30646 154.2703 158.11725 164.95473 171.91857 175.27413 181.39557 186.80097 190.64792 194.00348 204.68793 211.65177 218.6156 222.46256 229.18772 235.30916 239.15612 243.00307 249.84055 253.6875 257.04307 264.0069 270.12834 276.9658 280.81275 287.77659 291.13215 297.9696 304.09104 308.65403 312.50099 317.78 324.61747 331.5813 337.70274 341.0583 344.90525 355.46333 362.42716 369.391 376.35484 379.7104 386.67424 392.79566 397.35865 403.48008 410.4439 414.29087">madaniyatining asl mohiyatini ochib b&#x0435;rishga imkon b&#x0435;radi.</tspan></text>
</g>
</g>
<g id="Layer-1" data-name="P">
<clipPath id="cp1682">
<path transform="matrix(1,0,0,-1,0,841.92)" d="M .000008871 0 L 595.32 0 L 595.32 841.92 L .000008871 841.92 Z " fill-rule="evenodd"/>
</clipPath>
<g clip-path="url(#cp1682)">
<text xml:space="preserve" transform="matrix(1 0 -0 1 0 841.92)" font-size="14.04" font-family="Times New Roman"><tspan y="-386.09" x="417.43"> </tspan></text>
</g>
</g>
<g id="Layer-1" data-name="P">
<path transform="matrix(1,0,0,-1,0,841.92)" d="M 120.5 358.61 L 551.73 358.61 L 551.73 375.16999 L 120.5 375.16999 Z " fill="#ffffff" fill-rule="evenodd"/>
</g>
<g id="Layer-1" data-name="P">
<clipPath id="cp1683">
<path transform="matrix(1,0,0,-1,0,841.92)" d="M .000008871 0 L 595.32 0 L 595.32 841.92 L .000008871 841.92 Z " fill-rule="evenodd"/>
</clipPath>
<g clip-path="url(#cp1683)">
<text xml:space="preserve" transform="matrix(1 0 -0 1 0 841.92)" font-size="14.04" font-family="Times New Roman,BoldItalic" font-weight="bold" font-style="italic"><tspan y="-361.97" x="120.5 129.73833 136.70217 143.53964 150.50348 155.90888 162.74636 166.5933 170.1033 181.09664 187.93412 194.77159 201.73543 209.41532 213.26227 219.25736 226.22119 229.94179">Axborot madaniyati</tspan></text>
</g>
</g>
<g id="Layer-1" data-name="P">
<clipPath id="cp1684">
<path transform="matrix(1,0,0,-1,0,841.92)" d="M .000008871 0 L 595.32 0 L 595.32 841.92 L .000008871 841.92 Z " fill-rule="evenodd"/>
</clipPath>
<g clip-path="url(#cp1684)">
<text xml:space="preserve" transform="matrix(1 0 -0 1 0 841.92)" font-size="14.04" font-family="Times New Roman"><tspan y="-361.97" x="233.81"> </tspan></text>
</g>
</g>
<g id="Layer-1" data-name="P">
<clipPath id="cp1685">
<path transform="matrix(1,0,0,-1,0,841.92)" d="M .000008871 0 L 595.32 0 L 595.32 841.92 L .000008871 841.92 Z " fill-rule="evenodd"/>
</clipPath>
<g clip-path="url(#cp1685)">
<text xml:space="preserve" transform="matrix(1 0 -0 1 0 841.92)" font-size="14.04" font-family="Times New Roman"><tspan y="-361.97" x="237.41 242.68904 249.65288 255.77433 262.73817 268.01719 274.98103 278.7016 285.66545 292.62928 296.20948 303.1733 307.60997 314.5738 321.41127 328.3751 331.73066 335.31086 339.1578 343.00477 353.56285 357.50807">shaxsning o&#x2018;quv, ilmiy</tspan></text>
</g>
</g>
<g id="Layer-1" data-name="P">
<clipPath id="cp1686">
<path transform="matrix(1,0,0,-1,0,841.92)" d="M .000008871 0 L 595.32 0 L 595.32 841.92 L .000008871 841.92 Z " fill-rule="evenodd"/>
</clipPath>
<g clip-path="url(#cp1686)">
<text xml:space="preserve" transform="matrix(1 0 -0 1 0 841.92)" font-size="14.04" font-family="Times New Roman"><tspan y="-361.97" x="364.39">-</tspan></text>
</g>
</g>
<g id="Layer-1" data-name="P">
<clipPath id="cp1687">
<path transform="matrix(1,0,0,-1,0,841.92)" d="M .000008871 0 L 595.32 0 L 595.32 841.92 L .000008871 841.92 Z " fill-rule="evenodd"/>
</clipPath>
<g clip-path="url(#cp1687)">
<text xml:space="preserve" transform="matrix(1 0 -0 1 0 841.92)" font-size="14.04" font-family="Times New Roman"><tspan y="-361.97" x="368.95 375.91386 379.7608 383.48139 387.32835 392.60737 399.5712 402.92677 406.63334 417.1914 424.15525 429.56065 433.4076 439.52903 446.49287 450.21345 454.0604 457.6406 461.48756 467.60899 472.04563 475.89259 479.73954 490.42399 494.00419 500.96803 504.81498 508.66194 514.0673 521.0312 524.3868 527.967 534.93087 541.0523 551.7367">bilish, mustaqil ta&#x2019;lim olish, dam </tspan></text>
</g>
<path transform="matrix(1,0,0,-1,0,841.92)" d="M 86.064 334.37 L 551.734 334.37 L 551.734 350.81 L 86.064 350.81 Z " fill="#ffffff" fill-rule="evenodd"/>
</g>
<g id="Layer-1" data-name="P">
<clipPath id="cp1688">
<path transform="matrix(1,0,0,-1,0,841.92)" d="M .000008871 0 L 595.32 0 L 595.32 841.92 L .000008871 841.92 Z " fill-rule="evenodd"/>
</clipPath>
<g clip-path="url(#cp1688)">
<text xml:space="preserve" transform="matrix(1 0 -0 1 0 841.92)" font-size="14.04" font-family="Times New Roman"><tspan y="-337.73" x="86.064 93.02784 96.8748 100.595409 106.00081 112.964649 116.90989 123.873729 129.99517 133.82808 140.79192 147.6294 153.03479 159.87227 166.8361 172.95755 176.90279 183.86663 190.83046 195.2671 199.83011 203.5507 210.51454 214.3615 219.64054">olish va boshqa ko&#x2018;rinish</tspan></text>
</g>
</g>
<g id="Layer-1" data-name="P">
<clipPath id="cp1689">
<path transform="matrix(1,0,0,-1,0,841.92)" d="M .000008871 0 L 595.32 0 L 595.32 841.92 L .000008871 841.92 Z " fill-rule="evenodd"/>
</clipPath>
<g clip-path="url(#cp1689)">
<text xml:space="preserve" transform="matrix(1 0 -0 1 0 841.92)" font-size="14.04" font-family="Times New Roman"><tspan y="-337.73" x="226.61 230.3306 234.17755 238.12279 242.68579 248.80724 255.77108 259.49168 263.33863 270.06379 276.1852 280.03218 283.87913 287.82438 291.54496 297.66639 302.22938 308.46315 315.1883 322.2504 329.21424 333.0612 340.02503 346.14646 349.97938 356.9432 363.06465 369.7898 376.75364 383.71748 387.66273 394.62657 401.5904 406.02705 409.874 415.99543 422.95927 426.67985 433.64369 439.63877 446.6026 450.54786 456.66929 463.63313 470.47059 477.43443 481.9974 488.83488 492.68183 499.64567 505.7671 509.71235 516.54989 523.51376 527.9503 531.7973 538.76119 544.8826 551.72018">li faoliyati jarayonida paydo bo&#x2018;ladigan axborotga bo&#x2018;lgan </tspan></text>
</g>
<path transform="matrix(1,0,0,-1,0,841.92)" d="M 86.064 310.25 L 551.734 310.25 L 551.734 326.69 L 86.064 326.69 Z " fill="#ffffff" fill-rule="evenodd"/>
</g>
<g id="Layer-1" data-name="P">
<clipPath id="cp1690">
<path transform="matrix(1,0,0,-1,0,841.92)" d="M .000008871 0 L 595.32 0 L 595.32 841.92 L .000008871 841.92 Z " fill-rule="evenodd"/>
</clipPath>
<g clip-path="url(#cp1690)">
<text xml:space="preserve" transform="matrix(1 0 -0 1 0 841.92)" font-size="14.04" font-family="Times New Roman"><tspan y="-313.61" x="86.064 92.18544 99.14928 102.99624 106.8432 113.56836 120.532199 124.2528 128.09975 135.06359 138.91054 145.49529 152.33277 159.2966 166.13408 173.09792 176.94487 181.50788 185.22847 190.63387 197.47135 204.30883 210.43027 217.14139 223.86655 230.92867 235.36531 242.32915 248.45059 252.29755 256.1445 259.99147 264.4281 268.27507 271.99565 278.95948 285.0809 292.04475 295.4003 301.98509 307.39048 314.3543 320.3494 327.31324 332.71864 336.56559 343.29075 349.87553 355.99696 362.9608 369.92463 376.88847 381.45146 388.2889 392.13587 398.72065 403.28364 409.40507 416.3689 420.21586 424.0628 430.78797 436.9094 440.75636 444.6033 451.56715 455.4141 461.99888 467.40428 473.5257 484.08378 490.2052 494.7682 500.88963 504.73658 508.58354 515.1683 519.01528 525.1367 530.5421 537.37966 544.3435 548.06417 551.7848">ehtiyojini qondirishga yo&#x2018;naltirilgan, shaxsiy axborot faoliyatini samarali tashkil </tspan></text>
</g>
<path transform="matrix(1,0,0,-1,0,841.92)" d="M 86.064 286.13 L 551.734 286.13 L 551.734 302.57 L 86.064 302.57 Z " fill="#ffffff" fill-rule="evenodd"/>
</g>
<g id="Layer-1" data-name="P">
<clipPath id="cp1691">
<path transform="matrix(1,0,0,-1,0,841.92)" d="M .000008871 0 L 595.32 0 L 595.32 841.92 L .000008871 841.92 Z " fill-rule="evenodd"/>
</clipPath>
<g clip-path="url(#cp1691)">
<text xml:space="preserve" transform="matrix(1 0 -0 1 0 841.92)" font-size="14.04" font-family="Times New Roman"><tspan y="-289.49" x="86.064 93.02784 96.8748 100.595409 104.44237 109.72141 116.68525 123.52273 127.36969 137.19768 141.04463 147.16608 151.72908 162.28717 166.13413 173.09796 176.94492 183.17868 189.90384 196.86768 200.71463 207.55211 213.67356 220.63739 230.46538 237.42922 241.27617 244.99677 248.84372 259.4018 263.24876 269.37019 273.93318 277.44319 287.35545 297.9135 304.03495 307.8819 314.00334 320.96717 327.0886 336.9166 343.88044 350.00187 359.82987 366.7937 373.75755 378.19419 385.15803 389.00498 395.9688 406.5269 412.64833 416.49528 422.6167 427.1797 434.14353 437.99049 444.82795 451.79179 461.61979 465.46675 469.3137 475.43513 479.28208 489.84016 493.6871 499.80854 505.21394 512.1778 515.89846 519.7454 524.3084 528.1554 531.87606 538.8399 544.96139 551.7989">qilishni ta&#x2019;minlaydigan bilimlar, malaka va ko&#x2018;nikmalarning tizimlashtirilgan </tspan></text>
</g>
<path transform="matrix(1,0,0,-1,0,841.92)" d="M 86.064 262.01 L 551.734 262.01 L 551.734 278.45 L 86.064 278.45 Z " fill="#ffffff" fill-rule="evenodd"/>
</g>
<g id="Layer-1" data-name="P">
<clipPath id="cp1692">
<path transform="matrix(1,0,0,-1,0,841.92)" d="M .000008871 0 L 595.32 0 L 595.32 841.92 L .000008871 841.92 Z " fill-rule="evenodd"/>
</clipPath>
<g clip-path="url(#cp1692)">
<text xml:space="preserve" transform="matrix(1 0 -0 1 0 841.92)" font-size="14.04" font-family="Times New Roman"><tspan y="-265.37" x="86.064 96.74844 102.86988 106.71684 117.40128 124.36512 130.48656 135.89196 139.7389 146.70275 150.5497 155.1127 158.46826 172.25554 182.33626 192.89435 199.85819 210.54264 216.66408 223.62792 237.41519 244.37903 248.22599 255.18982 261.31126 268.1487 275.11256 281.23399 284.58955 298.37684 304.49827 311.4621 318.29957 325.2634 329.8264">majmuasidir. Umuman olganda, axboro</tspan></text>
</g>
</g>
<g id="Layer-1" data-name="P">
<clipPath id="cp1693">
<path transform="matrix(1,0,0,-1,0,841.92)" d="M .000008871 0 L 595.32 0 L 595.32 841.92 L .000008871 841.92 Z " fill-rule="evenodd"/>
</clipPath>
<g clip-path="url(#cp1693)">
<text xml:space="preserve" transform="matrix(1 0 -0 1 0 841.92)" font-size="14.04" font-family="Times New Roman"><tspan y="-265.37" x="336.79 340.63697 354.42427 364.98234 371.10377 378.0676 384.18904 391.15287 394.99983 401.72499 407.8464 411.69337 415.5403 429.3276 435.44905 442.41288 449.3767 456.34056 460.7772 467.74104 471.4616 478.42546 484.54689 491.5107 505.17164 510.57704 516.6985 527.25656 533.378 537.941 544.06246 547.9094 551.7564">t madaniyati axborotdan samarali </tspan></text>
</g>
<path transform="matrix(1,0,0,-1,0,841.92)" d="M 86.064 237.77 L 551.734 237.77 L 551.734 254.21 L 86.064 254.21 Z " fill="#ffffff" fill-rule="evenodd"/>
</g>
<g id="Layer-1" data-name="P">
<clipPath id="cp1694">
<path transform="matrix(1,0,0,-1,0,841.92)" d="M .000008871 0 L 595.32 0 L 595.32 841.92 L .000008871 841.92 Z " fill-rule="evenodd"/>
</clipPath>
<g clip-path="url(#cp1694)">
<text xml:space="preserve" transform="matrix(1 0 -0 1 0 841.92)" font-size="14.04" font-family="Times New Roman"><tspan y="-241.13" x="86.064 90.62701 97.59084 104.316 111.27984 117.401279 121.24824 127.369678 134.33351 138.18047 143.4595 150.42334 156.40438 163.24185 167.0888 170.8094 174.65636 185.21445 191.19548 198.15932 204.39308 210.38816 217.35199 224.31583 228.75247 235.71631 239.56327 246.5271 257.08518 263.2066 267.05357 273.175 277.73799 281.58494 287.56599 294.52983 301.49366 305.9303 309.77726 313.49784 320.46168 323.81724 329.79829 336.76213 342.88356 347.44654 353.56797 360.40544 364.25239 368.09934 374.08039 380.07548 387.0393 394.00315 400.96699 405.40364 412.36747 416.08805 423.05189 426.89884 432.87989 438.87498 445.71244 452.67628 459.6401 464.2031 471.04057 474.8875 480.86857 485.43156 491.55299 496.832 503.79585 508.35884 513.6379 517.48489 523.6063 528.1693 531.88998 538.8538 544.8489 551.6864">foydalanish bilim va ko&#x2018;nikmalari bo&#x2018;lib, k&#x0435;rakli axborotni axborot r&#x0435;surslaridan </tspan></text>
</g>
<path transform="matrix(1,0,0,-1,0,841.92)" d="M 86.064 213.62 L 551.734 213.62 L 551.734 230.084 L 86.064 230.084 Z " fill="#ffffff" fill-rule="evenodd"/>
</g>
<g id="Layer-1" data-name="P">
<clipPath id="cp1695">
<path transform="matrix(1,0,0,-1,0,841.92)" d="M .000008871 0 L 595.32 0 L 595.32 841.92 L .000008871 841.92 Z " fill-rule="evenodd"/>
</clipPath>
<g clip-path="url(#cp1695)">
<text xml:space="preserve" transform="matrix(1 0 -0 1 0 841.92)" font-size="14.04" font-family="Times New Roman"><tspan y="-216.98" x="86.064 92.18544 99.14928 105.986759 112.95059 117.513599 124.47743 128.32439 134.43178 138.27873 144.40018 151.23766 158.20149 165.03897 168.88593 175.7234 182.68724 186.5342 193.25936 199.3808 203.22776 209.3492 213.9122 217.75916 224.72299 228.44359 235.40743 242.37126 248.47866 255.44249 261.5639 266.1269 272.24833 279.21217 285.3336 291.441 298.40486 305.36869 309.80534 314.36833 318.21528 325.05274 328.8997 334.30509 341.14256 344.9895 351.11094 355.67393 359.52088 365.7406 370.17726 377.14109 384.10493 394.663 401.7251 408.45027 415.4141 419.26106 425.38249 429.94548 436.1652 443.00267 449.12409 455.3438 459.9068 466.87065 470.7176 476.83903 481.402 488.36585 494.36094 498.2079 504.4276 508.27458 514.396 518.959 529.517 536.4809 543.44479 547.88137 551.72836">axborot t&#x0435;xnologiyalarining barcha ko&#x2018;rinishlari (kompyut&#x0435;r va Int&#x0435;rn&#x0435;t tarmog&#x2018;i </tspan></text>
</g>
<path transform="matrix(1,0,0,-1,0,841.92)" d="M 86.064 189.5 L 432.914 189.5 L 432.914 205.94 L 86.064 205.94 Z " fill="#ffffff" fill-rule="evenodd"/>
</g>
<g id="Layer-1" data-name="P">
<clipPath id="cp1696">
<path transform="matrix(1,0,0,-1,0,841.92)" d="M .000008871 0 L 595.32 0 L 595.32 841.92 L .000008871 841.92 Z " fill-rule="evenodd"/>
</clipPath>
<g clip-path="url(#cp1696)">
<text xml:space="preserve" transform="matrix(1 0 -0 1 0 841.92)" font-size="14.04" font-family="Times New Roman"><tspan y="-192.86" x="86.064 89.910968 96.0324 102.99624 109.83372 116.797557 120.51816 127.481998 134.31948 138.16643 144.89159 151.01303 154.85999 160.98143 165.54444 169.39139 173.95439 177.30995 184.27379 188.83679 195.80063 201.92208 205.64267 209.48963 212.84519 219.80902 223.65598 230.49346 234.34041 238.90341 242.62401 248.0294 254.86688 261.83073 265.5513 272.51515 279.47898 282.83454 286.5551 293.51896 298.08195 301.80253 305.64949 309.00505 315.96888 319.68946 323.5364 326.89198 333.8558 337.70277 341.42335 345.2703 355.82838 359.67533 365.79676 370.35975 374.2067 381.17054 387.29197 394.2558">t&#x0435;xnologiyalari) orqali qidirishning turli xil bilimlaridan </tspan></text>
</g>
</g>
<g id="Layer-1" data-name="P">
<clipPath id="cp1697">
<path transform="matrix(1,0,0,-1,0,841.92)" d="M .000008871 0 L 595.32 0 L 595.32 841.92 L .000008871 841.92 Z " fill-rule="evenodd"/>
</clipPath>
<g clip-path="url(#cp1697)">
<text xml:space="preserve" transform="matrix(1 0 -0 1 0 841.92)" font-size="14.04" font-family="Times New Roman"><tspan y="-192.86" x="397.51 401.35697 408.19444 415.15827 419.72126 425.84269 429.68965">iborat.</tspan></text>
</g>
</g>
<g id="Layer-1" data-name="P">
<clipPath id="cp1698">
<path transform="matrix(1,0,0,-1,0,841.92)" d="M .000008871 0 L 595.32 0 L 595.32 841.92 L .000008871 841.92 Z " fill-rule="evenodd"/>
</clipPath>
<g clip-path="url(#cp1698)">
<text xml:space="preserve" transform="matrix(1 0 -0 1 0 841.92)" font-size="14.04" font-family="Times New Roman"><tspan y="-192.86" x="432.91"> </tspan></text>
</g>
</g>
<g id="Layer-1" data-name="P">
<path transform="matrix(1,0,0,-1,0,841.92)" d="M 120.5 165.38 L 551.73 165.38 L 551.73 181.82 L 120.5 181.82 Z " fill="#ffffff" fill-rule="evenodd"/>
</g>
<g id="Layer-1" data-name="P">
<clipPath id="cp1699">
<path transform="matrix(1,0,0,-1,0,841.92)" d="M .000008871 0 L 595.32 0 L 595.32 841.92 L .000008871 841.92 Z " fill-rule="evenodd"/>
</clipPath>
<g clip-path="url(#cp1699)">
<text xml:space="preserve" transform="matrix(1 0 -0 1 0 841.92)" font-size="14.04" font-family="Times New Roman"><tspan y="-168.74" x="120.5 125.9054 132.02684 142.58493 146.53017 153.25533 159.37677 163.22373 170.18756 176.309 182.29004 188.41149 195.37532 202.33916 209.303 213.866 220.70348 224.55043 231.38791 235.23487 242.07234 249.03618 255.01721 261.98106 265.828 276.51246 287.1969 293.31834 297.16529 301.01225 306.9933 313.95713 318.5201 322.36708 326.08766 333.05149 336.40705 342.3881 349.35194 355.33299 360.612 366.73344 373.69728 380.6611 386.6562 390.50315 396.4842 400.20478 406.43855 417.01066 420.95588 427.68104 433.80247 437.6494 441.49638 448.4602 454.58164 461.54548 467.52653 473.64796 480.4854 487.44926 494.4131 498.97608 505.81355 509.6605 513.50747 519.5025 524.9079 531.7454 538.7093 544.83078 551.6683">Jamiyatda axborotning qimmati ortib, u sanoat jamiyatidan axborotlashgan </tspan></text>
</g>
<path transform="matrix(1,0,0,-1,0,841.92)" d="M 86.064 141.14 L 551.734 141.14 L 551.734 157.58 L 86.064 157.58 Z " fill="#ffffff" fill-rule="evenodd"/>
</g>
<g id="Layer-1" data-name="P">
<clipPath id="cp1700">
<path transform="matrix(1,0,0,-1,0,841.92)" d="M .000008871 0 L 595.32 0 L 595.32 841.92 L .000008871 841.92 Z " fill-rule="evenodd"/>
</clipPath>
<g clip-path="url(#cp1700)">
<text xml:space="preserve" transform="matrix(1 0 -0 1 0 841.92)" font-size="14.04" font-family="Times New Roman"><tspan y="-144.5" x="86.064 89.78461 96.018367 106.590488 110.53573 117.26089 123.382328 127.22929 134.19312 140.31456 156.85367 163.08744 169.81259 173.65955 179.78099 186.74483 190.59178 197.55562 214.09473 221.05857 228.0224 232.5854 243.1435 250.10733 257.07118 264.035 270.15644 273.512 290.05113 300.00547 306.9693 313.09074 316.93769 321.50068 328.4645 332.31147 348.8506 355.81443 361.93586 368.661 375.62486 379.4718 386.43565 390.15623 397.12007 404.0839 420.62303 427.58686 432.0235 435.74409 441.8655 458.40464 465.36848 469.8051 475.92655 482.89039 489.0118 493.5748 500.53865 507.50248 513.6239 520.58779 526.5828 533.5467 537.26736 541.1143 547.95187 551.6725">jamiyatga aylanib bormoqda. Hozirgi hayotning o&#x2018;ta o&#x2018;zgaruvchanligi </tspan></text>
</g>
<path transform="matrix(1,0,0,-1,0,841.92)" d="M 86.064 117.02 L 551.734 117.02 L 551.734 133.45999 L 86.064 133.45999 Z " fill="#ffffff" fill-rule="evenodd"/>
</g>
<g id="Layer-1" data-name="P">
<clipPath id="cp1701">
<path transform="matrix(1,0,0,-1,0,841.92)" d="M .000008871 0 L 595.32 0 L 595.32 841.92 L .000008871 841.92 Z " fill-rule="evenodd"/>
</clipPath>
<g clip-path="url(#cp1701)">
<text xml:space="preserve" transform="matrix(1 0 -0 1 0 841.92)" font-size="14.04" font-family="Times New Roman"><tspan y="-120.38" x="86.064 92.18544 99.14928 105.986759 112.95059 117.513599 124.47743 128.19803 132.04499 138.16643 143.44547 150.4093 157.37314 163.36823 170.33206 175.23201 178.9526 185.18637 195.7585 199.70374 206.54122 212.66266 216.50962 223.47345 229.5949 234.49485 241.33232 245.17928 249.74228 254.64223 261.60609 267.7275 271.4481 278.41194 282.9749 287.87489 294.60005 300.72148 307.6853 314.64915 318.4961 323.39607 329.5175 333.36445 337.92744 341.77439 348.61186 355.57569 359.29627 363.14323 369.26466 373.82765 380.6651 384.51206 389.41203 396.13719 403.101 409.22245 415.34388 422.3077 428.42915 433.3291 440.29295 446.41438 450.26133 454.10829 457.95524 462.51823 468.5133 475.47715 479.19773 483.04469 487.94465 497.899 504.86283 511.7003 518.6641 523.2271 530.191 534.03799 538.8256 545.66317 551.6582">axborotlashgan jamiyatda bir qator yangi atributlarni yuzaga k&#x0435;ltiradi: Axborot va </tspan></text>
</g>
<path transform="matrix(1,0,0,-1,0,841.92)" d="M 86.064 92.904 L 551.734 92.904 L 551.734 109.344 L 86.064 109.344 Z " fill="#ffffff" fill-rule="evenodd"/>
</g>
<g id="Layer-1" data-name="P">
<clipPath id="cp1702">
<path transform="matrix(1,0,0,-1,0,841.92)" d="M .000008871 0 L 595.32 0 L 595.32 841.92 L .000008871 841.92 Z " fill-rule="evenodd"/>
</clipPath>
<g clip-path="url(#cp1702)">
<text xml:space="preserve" transform="matrix(1 0 -0 1 0 841.92)" font-size="14.04" font-family="Times New Roman"><tspan y="-96.264" x="86.064 93.02784 96.8748 100.595409 104.44237 115.00044 121.71156 125.43217 131.66593 142.23805 146.18329 153.02077 159.14221 162.98917 169.953 173.79996 180.63744 187.60128 194.18602 200.30747 205.5865 212.55034 217.95574 221.80269">bilim jamiyatning asosiy</tspan></text>
</g>
</g>
<g id="Layer-1" data-name="P">
<clipPath id="cp1703">
<path transform="matrix(1,0,0,-1,0,841.92)" d="M .000008871 0 L 595.32 0 L 595.32 841.92 L .000008871 841.92 Z " fill-rule="evenodd"/>
</clipPath>
<g clip-path="url(#cp1703)">
<text xml:space="preserve" transform="matrix(1 0 -0 1 0 841.92)" font-size="14.04" font-family="Times New Roman"><tspan y="-96.264" x="228.53"> </tspan></text>
</g>
</g>
<g id="Layer-1" data-name="P">
<clipPath id="cp1704">
<path transform="matrix(1,0,0,-1,0,841.92)" d="M .000008871 0 L 595.32 0 L 595.32 841.92 L .000008871 841.92 Z " fill-rule="evenodd"/>
</clipPath>
<g clip-path="url(#cp1704)">
<text xml:space="preserve" transform="matrix(1 0 -0 1 0 841.92)" font-size="14.04" font-family="Times New Roman"><tspan y="-96.264" x="235.13 242.09384 246.53049 252.65193 259.61579 265.7372 270.3002 274.14717 277.9941 282.5571 289.39457 296.3584 302.47984 309.3173 313.16426 319.74903 326.5865 333.55033 339.67176 346.6356 350.35618 357.32 363.44145 370.0262 376.14765 382.8728 386.71977 392.8412 399.80503 405.92646 412.8903 416.61088 420.45783 427.0426 431.6056 436.8846 443.84846 447.56904 453.69047 460.6543 467.23908 473.3605 480.32435 484.04493 491.00877 497.1302 501.69319 508.53065 515.4945 521.48959 528.4534 532.3004 538.8852 545.7227 551.7178">o&#x2018;zgartiruvchi kuchiga aylanadi; Ishlab chiqaruvchi va </tspan></text>
</g>
<path transform="matrix(1,0,0,-1,0,841.92)" d="M 86.064 68.784 L 551.734 68.784 L 551.734 85.224 L 86.064 85.224 Z " fill="#ffffff" fill-rule="evenodd"/>
</g>
<g id="Layer-1" data-name="P">
<clipPath id="cp1705">
<path transform="matrix(1,0,0,-1,0,841.92)" d="M .000008871 0 L 595.32 0 L 595.32 841.92 L .000008871 841.92 Z " fill-rule="evenodd"/>
</clipPath>
<g clip-path="url(#cp1705)">
<text xml:space="preserve" transform="matrix(1 0 -0 1 0 841.92)" font-size="14.04" font-family="Times New Roman"><tspan y="-72.144" x="86.064 89.910968 93.63157 97.47853 101.32549 111.88357 118.847408 122.79265 129.5178 139.69681 143.54376 149.6652 156.62905 163.59288 170.55672 174.27732 181.24115 188.07863 191.92559 198.65074 204.77219 208.61914 214.74059 219.30359 226.26743 230.11438 236.95186 243.9157 254.0947 260.81986 266.94129 273.90513 280.86897 284.7159 288.56288 294.55796 301.5218 305.36875 310.64778 317.6116 327.67829 333.08369 336.93064 343.7681 347.61506 351.462 361.64103">ijtimoiy t&#x0435;xnologiyalarning yangilanish sikli 6</tspan></text>
</g>
</g>
<g id="Layer-1" data-name="P">
<clipPath id="cp1706">
<path transform="matrix(1,0,0,-1,0,841.92)" d="M .000008871 0 L 595.32 0 L 595.32 841.92 L .000008871 841.92 Z " fill-rule="evenodd"/>
</clipPath>
<g clip-path="url(#cp1706)">
<text xml:space="preserve" transform="matrix(1 0 -0 1 0 841.92)" font-size="14.04" font-family="Times New Roman"><tspan y="-72.144" x="368.59">-</tspan></text>
</g>
</g>
<g id="Layer-1" data-name="P">
<clipPath id="cp1707">
<path transform="matrix(1,0,0,-1,0,841.92)" d="M .000008871 0 L 595.32 0 L 595.32 841.92 L .000008871 841.92 Z " fill-rule="evenodd"/>
</clipPath>
<g clip-path="url(#cp1707)">
<text xml:space="preserve" transform="matrix(1 0 -0 1 0 841.92)" font-size="14.04" font-family="Times New Roman"><tspan y="-72.144" x="373.03 379.99385 390.17286 396.898 400.74497 404.59193 411.55577 415.4027 425.58174 429.42869 435.42378 440.82917 447.66664 454.63047 458.47743 462.32438 472.5034 478.49848 482.34544 486.19239 493.15623 496.51179 506.6908 512.81228 519.6498 523.49679 530.3343 537.29818 541.14517 547.2666 551.7032">8 yilni tashkil etib, avlodlar </tspan></text>
</g>
</g>
</g>
</g>
</svg>
