<?xml version="1.0" encoding="UTF-8" standalone="no"?>
<!DOCTYPE svg PUBLIC "-//W3C//DTD SVG 1.1//EN" "http://www.w3.org/Graphics/SVG/1.1/DTD/svg11.dtd">
<svg xmlns="http://www.w3.org/2000/svg" xmlns:xlink="http://www.w3.org/1999/xlink" version="1.1" width="595.32pt" height="841.92pt" viewBox="0 0 595.32 841.92">
<g enable-background="new">
<g>
<g id="Layer-1" data-name="Artifact">
<clipPath id="cp26014">
<path transform="matrix(1,0,0,-1,0,841.92)" d="M .000008871 0 L 595.32 0 L 595.32 841.92 L .000008871 841.92 Z " fill-rule="evenodd"/>
</clipPath>
<g clip-path="url(#cp26014)">
<text xml:space="preserve" transform="matrix(1 0 -0 1 0 841.92)" font-size="11.04" font-family="Calibri"><tspan y="-51.864" x="314.09 319.72999 325.36997">161</tspan></text>
</g>
<clipPath id="cp26015">
<path transform="matrix(1,0,0,-1,0,841.92)" d="M .000008871 0 L 595.32 0 L 595.32 841.92 L .000008871 841.92 Z " fill-rule="evenodd"/>
</clipPath>
<g clip-path="url(#cp26015)">
<text xml:space="preserve" transform="matrix(1 0 -0 1 0 841.92)" font-size="11.04" font-family="Calibri"><tspan y="-51.864" x="331.03"> </tspan></text>
</g>
<clipPath id="cp26016">
<path transform="matrix(1,0,0,-1,0,841.92)" d="M .000008871 0 L 595.32 0 L 595.32 841.92 L .000008871 841.92 Z " fill-rule="evenodd"/>
</clipPath>
<g clip-path="url(#cp26016)">
</g>
<clipPath id="cp26017">
<path transform="matrix(1,0,0,-1,0,841.92)" d="M .000008871 0 L 595.32 0 L 595.32 841.92 L .000008871 841.92 Z " fill-rule="evenodd"/>
</clipPath>
<g clip-path="url(#cp26017)">
<text xml:space="preserve" transform="matrix(1 0 -0 1 0 841.92)" font-size="11.04" font-family="Calibri"><tspan y="-38.4" x="85.104"> </tspan></text>
</g>
<clipPath id="cp26018">
<path transform="matrix(1,0,0,-1,0,841.92)" d="M .000008871 0 L 595.32 0 L 595.32 841.92 L .000008871 841.92 Z " fill-rule="evenodd"/>
</clipPath>
<g clip-path="url(#cp26018)">
</g>
</g>
<g id="Layer-1" data-name="P">
<clipPath id="cp26019">
<path transform="matrix(1,0,0,-1,0,841.92)" d="M .000008871 0 L 595.32 0 L 595.32 841.92 L .000008871 841.92 Z " fill-rule="evenodd"/>
</clipPath>
<g clip-path="url(#cp26019)">
<text xml:space="preserve" transform="matrix(1 0 -0 1 0 841.92)" font-size="14.04" font-family="Times New Roman"><tspan y="-772.56" x="85.104 92.184">ko</tspan></text>
</g>
<clipPath id="cp26020">
<path transform="matrix(1,0,0,-1,0,841.92)" d="M .000008871 0 L 595.32 0 L 595.32 841.92 L .000008871 841.92 Z " fill-rule="evenodd"/>
</clipPath>
<g clip-path="url(#cp26020)">
<text xml:space="preserve" transform="matrix(1 0 -0 1 0 841.92)" font-size="14.04" font-family="Times New Roman"><tspan y="-772.56" x="99.264">&#x2019;</tspan></text>
</g>
<clipPath id="cp26021">
<path transform="matrix(1,0,0,-1,0,841.92)" d="M .000008871 0 L 595.32 0 L 595.32 841.92 L .000008871 841.92 Z " fill-rule="evenodd"/>
</clipPath>
<g clip-path="url(#cp26021)">
<text xml:space="preserve" transform="matrix(1 0 -0 1 0 841.92)" font-size="14.04" font-family="Times New Roman"><tspan y="-772.56" x="103.82 108.49532 112.342288 119.4044 125.98917 132.22293 139.18677 143.132 150.09584 153.9428 157.88803 164.1218 171.08563 175.03087 178.54087 185.09754 197.5791 204.54294 211.60506 217.83882 221.78406 228.3688 232.21576 238.44953 245.41336 249.3586 255.48004 262.54216 269.50599 275.73976 282.70359 289.7657 295.88713 302.94923 309.534 315.03767">rib chiqiladi. Model tanlangandan so</tspan></text>
</g>
<clipPath id="cp26022">
<path transform="matrix(1,0,0,-1,0,841.92)" d="M .000008871 0 L 595.32 0 L 595.32 841.92 L .000008871 841.92 Z " fill-rule="evenodd"/>
</clipPath>
<g clip-path="url(#cp26022)">
<text xml:space="preserve" transform="matrix(1 0 -0 1 0 841.92)" font-size="14.04" font-family="Times New Roman"><tspan y="-772.56" x="322.39">&#x2019;</tspan></text>
</g>
<clipPath id="cp26023">
<path transform="matrix(1,0,0,-1,0,841.92)" d="M .000008871 0 L 595.32 0 L 595.32 841.92 L .000008871 841.92 Z " fill-rule="evenodd"/>
</clipPath>
<g clip-path="url(#cp26023)">
<text xml:space="preserve" transform="matrix(1 0 -0 1 0 841.92)" font-size="14.04" font-family="Times New Roman"><tspan y="-772.56" x="326.83 333.8921 340.9542 347.53898 354.5028 361.46665 365.41188 372.3757 379.4378 386.02259 391.42799 398.49009 404.72386 415.4083 421.64207 427.15977 431.10499 437.68977 441.5367 447.77049 454.84663 461.81047 468.04423 471.89118 475.8364 482.07017 486.74549 493.3443 500.4064 506.64018 513.23898 517.08596 524.0498 531.11196 538.0758 545.0397 548.9849 555.2187 559.7817">ng uning sxemasi jadvallar va tugunlar </tspan></text>
</g>
<clipPath id="cp26024">
<path transform="matrix(1,0,0,-1,0,841.92)" d="M .000008871 0 L 595.32 0 L 595.32 841.92 L .000008871 841.92 Z " fill-rule="evenodd"/>
</clipPath>
<g clip-path="url(#cp26024)">
<text xml:space="preserve" transform="matrix(1 0 -0 1 0 841.92)" font-size="14.04" font-family="Times New Roman"><tspan y="-748.3" x="85.104 92.166118 96.84144 102.962879 108.46656 112.31352 119.37564 125.49708 132.55919 136.50443 139.85999 146.9221 153.88594">orasidagi bog</tspan></text>
</g>
<clipPath id="cp26025">
<path transform="matrix(1,0,0,-1,0,841.92)" d="M .000008871 0 L 595.32 0 L 595.32 841.92 L .000008871 841.92 Z " fill-rule="evenodd"/>
</clipPath>
<g clip-path="url(#cp26025)">
<text xml:space="preserve" transform="matrix(1 0 -0 1 0 841.92)" font-size="14.04" font-family="Times New Roman"><tspan y="-748.3" x="161.06">&#x2019;</tspan></text>
</g>
<clipPath id="cp26026">
<path transform="matrix(1,0,0,-1,0,841.92)" d="M .000008871 0 L 595.32 0 L 595.32 841.92 L .000008871 841.92 Z " fill-rule="evenodd"/>
</clipPath>
<g clip-path="url(#cp26026)">
<text xml:space="preserve" transform="matrix(1 0 -0 1 0 841.92)" font-size="14.04" font-family="Times New Roman"><tspan y="-748.3" x="165.62 169.56523 175.68668 182.7488 186.59575 192.00115 199.06327 202.91022 209.14398 213.8193 217.3293 224.26506">lanishlar ko</tspan></text>
</g>
<clipPath id="cp26027">
<path transform="matrix(1,0,0,-1,0,841.92)" d="M .000008871 0 L 595.32 0 L 595.32 841.92 L .000008871 841.92 Z " fill-rule="evenodd"/>
</clipPath>
<g clip-path="url(#cp26027)">
<text xml:space="preserve" transform="matrix(1 0 -0 1 0 841.92)" font-size="14.04" font-family="Times New Roman"><tspan y="-748.3" x="231.41">&#x2019;</tspan></text>
</g>
<clipPath id="cp26028">
<path transform="matrix(1,0,0,-1,0,841.92)" d="M .000008871 0 L 595.32 0 L 595.32 841.92 L .000008871 841.92 Z " fill-rule="evenodd"/>
</clipPath>
<g clip-path="url(#cp26028)">
<text xml:space="preserve" transform="matrix(1 0 -0 1 0 841.92)" font-size="14.04" font-family="Times New Roman"><tspan y="-748.3" x="235.97 240.64533 246.149 252.38277 256.22975 260.17497">rsatil</tspan></text>
</g>
<clipPath id="cp26029">
<path transform="matrix(1,0,0,-1,0,841.92)" d="M .000008871 0 L 595.32 0 L 595.32 841.92 L .000008871 841.92 Z " fill-rule="evenodd"/>
</clipPath>
<g clip-path="url(#cp26029)">
<text xml:space="preserve" transform="matrix(1 0 -0 1 0 841.92)" font-size="14.04" font-family="Times New Roman"><tspan y="-748.3" x="264.05 271.1121 277.23353 284.29563 287.80564 294.7414 301.70524 305.65046 312.6143 318.84806 322.35807 328.59184 335.6399 339.48686 345.7206 349.56758 356.62968 360.13969 366.23304 373.29515 377.1421 384.2042 388.05116 391.99638 398.1178 405.1799 409.12513">gan holda chizib chiqiladi.</tspan></text>
</g>
<clipPath id="cp26030">
<path transform="matrix(1,0,0,-1,0,841.92)" d="M .000008871 0 L 595.32 0 L 595.32 841.92 L .000008871 841.92 Z " fill-rule="evenodd"/>
</clipPath>
<g clip-path="url(#cp26030)">
<text xml:space="preserve" transform="matrix(1 0 -0 1 0 841.92)" font-size="14.04" font-family="Times New Roman"><tspan y="-748.3" x="412.63"> </tspan></text>
</g>
</g>
<g id="Layer-1" data-name="P">
<clipPath id="cp26031">
<path transform="matrix(1,0,0,-1,0,841.92)" d="M .000008871 0 L 595.32 0 L 595.32 841.92 L .000008871 841.92 Z " fill-rule="evenodd"/>
</clipPath>
<g clip-path="url(#cp26031)">
<text xml:space="preserve" transform="matrix(1 0 -0 1 0 841.92)" font-size="14.04" font-family="Times New Roman,Bold" font-weight="bold"><tspan y="-724.18" x="120.5 133.69997">Ma</tspan></text>
</g>
<clipPath id="cp26032">
<path transform="matrix(1,0,0,-1,0,841.92)" d="M .000008871 0 L 595.32 0 L 595.32 841.92 L .000008871 841.92 Z " fill-rule="evenodd"/>
</clipPath>
<g clip-path="url(#cp26032)">
<text xml:space="preserve" transform="matrix(1 0 -0 1 0 841.92)" font-size="14.04" font-family="Times New Roman,Bold" font-weight="bold"><tspan y="-724.18" x="140.78">&#x2019;</tspan></text>
</g>
<clipPath id="cp26033">
<path transform="matrix(1,0,0,-1,0,841.92)" d="M .000008871 0 L 595.32 0 L 595.32 841.92 L .000008871 841.92 Z " fill-rule="evenodd"/>
</clipPath>
<g clip-path="url(#cp26033)">
<text xml:space="preserve" transform="matrix(1 0 -0 1 0 841.92)" font-size="14.04" font-family="Times New Roman,Bold" font-weight="bold"><tspan y="-724.18" x="145.46 149.40525 157.21149 168.72429 175.7864 180.34941 184.29465 191.35677 197.47821 205.28446 209.22969 216.17949 220.7425 227.80461 233.21 240.17385 244.11908 250.35285 254.1998 261.16365 266.6673 274.47355 281.4093 289.21556 294.7192 302.39909 306.3443 310.19126 317.25337 323.3748 327.32 330.83003 337.75175 345.55799 352.50779 358.01145 362.57444 370.38069 376.61445 380.4614 387.5235 394.4733 401.43714 408.49925 413.90464 417.84986 422.41285">lumotlarni tasvirlash usullari, dasturiy vosita</tspan></text>
</g>
<clipPath id="cp26034">
<path transform="matrix(1,0,0,-1,0,841.92)" d="M .000008871 0 L 595.32 0 L 595.32 841.92 L .000008871 841.92 Z " fill-rule="evenodd"/>
</clipPath>
<g clip-path="url(#cp26034)">
<text xml:space="preserve" transform="matrix(1 0 -0 1 0 841.92)" font-size="14.04" font-family="Times New Roman,BoldItalic" font-weight="bold" font-style="italic"><tspan y="-724.18" x="429.79">.</tspan></text>
</g>
<clipPath id="cp26035">
<path transform="matrix(1,0,0,-1,0,841.92)" d="M .000008871 0 L 595.32 0 L 595.32 841.92 L .000008871 841.92 Z " fill-rule="evenodd"/>
</clipPath>
<g clip-path="url(#cp26035)">
<text xml:space="preserve" transform="matrix(1 0 -0 1 0 841.92)" font-size="14.04" font-family="Times New Roman,BoldItalic" font-weight="bold" font-style="italic"><tspan y="-724.18" x="433.27"> </tspan></text>
</g>
<clipPath id="cp26036">
<path transform="matrix(1,0,0,-1,0,841.92)" d="M .000008871 0 L 595.32 0 L 595.32 841.92 L .000008871 841.92 Z " fill-rule="evenodd"/>
</clipPath>
<g clip-path="url(#cp26036)">
<text xml:space="preserve" transform="matrix(1 0 -0 1 0 841.92)" font-size="14.04" font-family="Times New Roman"><tspan y="-724.18" x="440.23 452.71159 459.6754 466.73753 472.97129 476.9165 483.73997 490.57743 496.8112 501.4865 507.72029 511.67955 515.62478 519.47177 526.5339 532.65536 539.71749 546.7796 552.90109 559.8649">Model yaratilgandan </tspan></text>
</g>
<clipPath id="cp26037">
<path transform="matrix(1,0,0,-1,0,841.92)" d="M .000008871 0 L 595.32 0 L 595.32 841.92 L .000008871 841.92 Z " fill-rule="evenodd"/>
</clipPath>
<g clip-path="url(#cp26037)">
<text xml:space="preserve" transform="matrix(1 0 -0 1 0 841.92)" font-size="14.04" font-family="Times New Roman"><tspan y="-700.06" x="85.104 90.623958">so</tspan></text>
</g>
<clipPath id="cp26038">
<path transform="matrix(1,0,0,-1,0,841.92)" d="M .000008871 0 L 595.32 0 L 595.32 841.92 L .000008871 841.92 Z " fill-rule="evenodd"/>
</clipPath>
<g clip-path="url(#cp26038)">
<text xml:space="preserve" transform="matrix(1 0 -0 1 0 841.92)" font-size="14.04" font-family="Times New Roman"><tspan y="-700.06" x="97.704">&#x2019;</tspan></text>
</g>
<clipPath id="cp26039">
<path transform="matrix(1,0,0,-1,0,841.92)" d="M .000008871 0 L 595.32 0 L 595.32 841.92 L .000008871 841.92 Z " fill-rule="evenodd"/>
</clipPath>
<g clip-path="url(#cp26039)">
<text xml:space="preserve" transform="matrix(1 0 -0 1 0 841.92)" font-size="14.04" font-family="Times New Roman"><tspan y="-700.06" x="102.26 109.22384 116.28596 122.39336 129.45548 135.57692 141.0806 144.92755 151.98967 156.55268 160.49791 167.33539 173.5551 184.35187 190.58563 197.6618 203.16548 210.2276 214.07456 221.13668 224.98363 232.04575 238.27951 244.3869 251.35074 258.31459">ng dasturiy mahsulotga bog</tspan></text>
</g>
<clipPath id="cp26040">
<path transform="matrix(1,0,0,-1,0,841.92)" d="M .000008871 0 L 595.32 0 L 595.32 841.92 L .000008871 841.92 Z " fill-rule="evenodd"/>
</clipPath>
<g clip-path="url(#cp26040)">
<text xml:space="preserve" transform="matrix(1 0 -0 1 0 841.92)" font-size="14.04" font-family="Times New Roman"><tspan y="-700.06" x="265.61">&#x2019;</tspan></text>
</g>
<clipPath id="cp26041">
<path transform="matrix(1,0,0,-1,0,841.92)" d="M .000008871 0 L 595.32 0 L 595.32 841.92 L .000008871 841.92 Z " fill-rule="evenodd"/>
</clipPath>
<g clip-path="url(#cp26041)">
<text xml:space="preserve" transform="matrix(1 0 -0 1 0 841.92)" font-size="14.04" font-family="Times New Roman"><tspan y="-700.06" x="270.17 274.11524 277.9622 285.0243 291.1317 298.19383 305.15766 309.0046 316.0667 322.18815 328.40788 339.09233">liq holda ma</tspan></text>
</g>
<clipPath id="cp26042">
<path transform="matrix(1,0,0,-1,0,841.92)" d="M .000008871 0 L 595.32 0 L 595.32 841.92 L .000008871 841.92 Z " fill-rule="evenodd"/>
</clipPath>
<g clip-path="url(#cp26042)">
<text xml:space="preserve" transform="matrix(1 0 -0 1 0 841.92)" font-size="14.04" font-family="Times New Roman"><tspan y="-700.06" x="345.55">&#x2019;</tspan></text>
</g>
<clipPath id="cp26043">
<path transform="matrix(1,0,0,-1,0,841.92)" d="M .000008871 0 L 595.32 0 L 595.32 841.92 L .000008871 841.92 Z " fill-rule="evenodd"/>
</clipPath>
<g clip-path="url(#cp26043)">
<text xml:space="preserve" transform="matrix(1 0 -0 1 0 841.92)" font-size="14.04" font-family="Times New Roman"><tspan y="-700.06" x="350.11 354.0552 361.1173 371.80177 378.86387 382.80909 386.7543 392.98808 397.6634 404.64128 408.5865 414.6939 418.63914 424.76057 430.26423 437.22807 441.075 445.75035 449.69557 455.817 461.32066 468.38276 474.49018 481.454 486.8594 493.9215 497.76847 501.71369 508.67753 512.62277 518.73019 524.9639 531.9278 535.87307 542.8369 546.78219 552.7772 559.7411">lumotlarni tasvirlash usulini aniqlab </tspan></text>
</g>
<clipPath id="cp26044">
<path transform="matrix(1,0,0,-1,0,841.92)" d="M .000008871 0 L 595.32 0 L 595.32 841.92 L .000008871 841.92 Z " fill-rule="evenodd"/>
</clipPath>
<g clip-path="url(#cp26044)">
<text xml:space="preserve" transform="matrix(1 0 -0 1 0 841.92)" font-size="14.04" font-family="Times New Roman"><tspan y="-675.94" x="85.104 92.166118 96.01308 99.95832 105.36372 112.42584 120.93408 127.9962 134.22997 138.90529 145.04077 152.10289 155.61289 164.20536 174.28607">olish kerak. Ko</tspan></text>
</g>
<clipPath id="cp26045">
<path transform="matrix(1,0,0,-1,0,841.92)" d="M .000008871 0 L 595.32 0 L 595.32 841.92 L .000008871 841.92 Z " fill-rule="evenodd"/>
</clipPath>
<g clip-path="url(#cp26045)">
<text xml:space="preserve" transform="matrix(1 0 -0 1 0 841.92)" font-size="14.04" font-family="Times New Roman"><tspan y="-675.94" x="181.46">&#x2019;</tspan></text>
</g>
<clipPath id="cp26046">
<path transform="matrix(1,0,0,-1,0,841.92)" d="M .000008871 0 L 595.32 0 L 595.32 841.92 L .000008871 841.92 Z " fill-rule="evenodd"/>
</clipPath>
<g clip-path="url(#cp26046)">
<text xml:space="preserve" transform="matrix(1 0 -0 1 0 841.92)" font-size="14.04" font-family="Times New Roman"><tspan y="-675.94" x="186.02 193.08213 199.20357 206.1674 210.11264 213.9596 217.90483 224.96695 233.47519 245.95676 255.32144">pchilik MBB</tspan></text>
</g>
</g>
<g id="Layer-1" data-name="P">
<clipPath id="cp26047">
<path transform="matrix(1,0,0,-1,0,841.92)" d="M .000008871 0 L 595.32 0 L 595.32 841.92 L .000008871 841.92 Z " fill-rule="evenodd"/>
</clipPath>
<g clip-path="url(#cp26047)">
<text xml:space="preserve" transform="matrix(1 0 -0 1 0 841.92)" font-size="14.04" font-family="Times New Roman"><tspan y="-675.94" x="264.77">&#x0422;</tspan></text>
</g>
</g>
<g id="Layer-1" data-name="P">
<clipPath id="cp26048">
<path transform="matrix(1,0,0,-1,0,841.92)" d="M .000008871 0 L 595.32 0 L 595.32 841.92 L .000008871 841.92 Z " fill-rule="evenodd"/>
</clipPath>
<g clip-path="url(#cp26048)">
<text xml:space="preserve" transform="matrix(1 0 -0 1 0 841.92)" font-size="14.04" font-family="Times New Roman"><tspan y="-675.94" x="273.29"> </tspan></text>
</g>
</g>
<g id="Layer-1" data-name="P">
<clipPath id="cp26049">
<path transform="matrix(1,0,0,-1,0,841.92)" d="M .000008871 0 L 595.32 0 L 595.32 841.92 L .000008871 841.92 Z " fill-rule="evenodd"/>
</clipPath>
<g clip-path="url(#cp26049)">
<text xml:space="preserve" transform="matrix(1 0 -0 1 0 841.92)" font-size="14.04" font-family="Times New Roman"><tspan y="-675.94" x="281.93 288.9921 295.22587 303.86048 314.54493">da ma</tspan></text>
</g>
</g>
<g id="Layer-1" data-name="P">
<clipPath id="cp26050">
<path transform="matrix(1,0,0,-1,0,841.92)" d="M .000008871 0 L 595.32 0 L 595.32 841.92 L .000008871 841.92 Z " fill-rule="evenodd"/>
</clipPath>
<g clip-path="url(#cp26050)">
<text xml:space="preserve" transform="matrix(1 0 -0 1 0 841.92)" font-size="14.04" font-family="Times New Roman"><tspan y="-675.94" x="320.83">&#x2019;</tspan></text>
</g>
</g>
<g id="Layer-1" data-name="P">
<clipPath id="cp26051">
<path transform="matrix(1,0,0,-1,0,841.92)" d="M .000008871 0 L 595.32 0 L 595.32 841.92 L .000008871 841.92 Z " fill-rule="evenodd"/>
</clipPath>
<g clip-path="url(#cp26051)">
<text xml:space="preserve" transform="matrix(1 0 -0 1 0 841.92)" font-size="14.04" font-family="Times New Roman"><tspan y="-675.94" x="325.51 329.45524 336.51734 347.20179 354.2639 358.2091 362.05607 368.28984 372.96516 379.94303 383.88825 392.50883 396.35578 403.3196 410.3817 414.32695 422.83518 429.89729 433.74424 437.68946 446.1977 453.2598">lumotlarni ikki hil ko</tspan></text>
</g>
</g>
<g id="Layer-1" data-name="P">
<clipPath id="cp26052">
<path transform="matrix(1,0,0,-1,0,841.92)" d="M .000008871 0 L 595.32 0 L 595.32 841.92 L .000008871 841.92 Z " fill-rule="evenodd"/>
</clipPath>
<g clip-path="url(#cp26052)">
<text xml:space="preserve" transform="matrix(1 0 -0 1 0 841.92)" font-size="14.04" font-family="Times New Roman"><tspan y="-675.94" x="460.54">&#x2019;</tspan></text>
</g>
</g>
<g id="Layer-1" data-name="P">
<clipPath id="cp26053">
<path transform="matrix(1,0,0,-1,0,841.92)" d="M .000008871 0 L 595.32 0 L 595.32 841.92 L .000008871 841.92 Z " fill-rule="evenodd"/>
</clipPath>
<g clip-path="url(#cp26053)">
<text xml:space="preserve" transform="matrix(1 0 -0 1 0 841.92)" font-size="14.04" font-family="Times New Roman"><tspan y="-675.94" x="465.1 469.77534 473.62229 480.6844 484.53135 489.93675 496.99885 503.96269 510.19645 518.831 524.33468 530.4561 537.51828 541.36526 547.599 553.0044 559.96829">rinishda saqlash </tspan></text>
</g>
</g>
<g id="Layer-1" data-name="P">
<clipPath id="cp26054">
<path transform="matrix(1,0,0,-1,0,841.92)" d="M .000008871 0 L 595.32 0 L 595.32 841.92 L .000008871 841.92 Z " fill-rule="evenodd"/>
</clipPath>
<g clip-path="url(#cp26054)">
<text xml:space="preserve" transform="matrix(1 0 -0 1 0 841.92)" font-size="14.04" font-family="Times New Roman"><tspan y="-651.7" x="85.104 95.78844 102.97691 113.661357 120.72347 124.66872 131.73084">mumkin:</tspan></text>
</g>
</g>
<g id="Layer-1" data-name="P">
<clipPath id="cp26055">
<path transform="matrix(1,0,0,-1,0,841.92)" d="M .000008871 0 L 595.32 0 L 595.32 841.92 L .000008871 841.92 Z " fill-rule="evenodd"/>
</clipPath>
<g clip-path="url(#cp26055)">
<text xml:space="preserve" transform="matrix(1 0 -0 1 0 841.92)" font-size="14.04" font-family="Times New Roman"><tspan y="-651.7" x="135.62"> </tspan></text>
</g>
</g>
<g id="Layer-1" data-name="P">
<clipPath id="cp26056">
<path transform="matrix(1,0,0,-1,0,841.92)" d="M .000008871 0 L 595.32 0 L 595.32 841.92 L .000008871 841.92 Z " fill-rule="evenodd"/>
</clipPath>
<g clip-path="url(#cp26056)">
<text xml:space="preserve" transform="matrix(1 0 -0 1 0 841.92)" font-size="14.04" font-family="Wingdings"><tspan y="-627.58" x="138.5">&#xf0fc;</tspan></text>
</g>
<clipPath id="cp26057">
<path transform="matrix(1,0,0,-1,0,841.92)" d="M .000008871 0 L 595.32 0 L 595.32 841.92 L .000008871 841.92 Z " fill-rule="evenodd"/>
</clipPath>
<g clip-path="url(#cp26057)">
<text xml:space="preserve" transform="matrix(1 0 -0 1 0 841.92)" font-size="14.04" font-family="Arial"><tspan y="-627.58" x="149.54"> </tspan></text>
</g>
<clipPath id="cp26058">
<path transform="matrix(1,0,0,-1,0,841.92)" d="M .000008871 0 L 595.32 0 L 595.32 841.92 L .000008871 841.92 Z " fill-rule="evenodd"/>
</clipPath>
<g clip-path="url(#cp26058)">
<text xml:space="preserve" transform="matrix(1 0 -0 1 0 841.92)" font-size="14.04" font-family="Times New Roman"><tspan y="-627.58" x="156.5 162.00368 169.0658 175.18724 182.15108 186.09632 189.94327 196.17704 200.85236 207.83025 214.06401 221.14019 224.65018 229.1851 236.24723 243.0847 250.14682 256.38059 260.3258 266.44725 273.50935 277.3563 284.4184">shakllardan foydalanib;</tspan></text>
</g>
<clipPath id="cp26059">
<path transform="matrix(1,0,0,-1,0,841.92)" d="M .000008871 0 L 595.32 0 L 595.32 841.92 L .000008871 841.92 Z " fill-rule="evenodd"/>
</clipPath>
<g clip-path="url(#cp26059)">
<text xml:space="preserve" transform="matrix(1 0 -0 1 0 841.92)" font-size="14.04" font-family="Times New Roman"><tspan y="-627.58" x="288.41"> </tspan></text>
</g>
<clipPath id="cp26060">
<path transform="matrix(1,0,0,-1,0,841.92)" d="M .000008871 0 L 595.32 0 L 595.32 841.92 L .000008871 841.92 Z " fill-rule="evenodd"/>
</clipPath>
<g clip-path="url(#cp26060)">
</g>
</g>
<g id="Layer-1" data-name="P">
<clipPath id="cp26061">
<path transform="matrix(1,0,0,-1,0,841.92)" d="M .000008871 0 L 595.32 0 L 595.32 841.92 L .000008871 841.92 Z " fill-rule="evenodd"/>
</clipPath>
<g clip-path="url(#cp26061)">
<text xml:space="preserve" transform="matrix(1 0 -0 1 0 841.92)" font-size="14.04" font-family="Wingdings"><tspan y="-603.46" x="138.5">&#xf0fc;</tspan></text>
</g>
<clipPath id="cp26062">
<path transform="matrix(1,0,0,-1,0,841.92)" d="M .000008871 0 L 595.32 0 L 595.32 841.92 L .000008871 841.92 Z " fill-rule="evenodd"/>
</clipPath>
<g clip-path="url(#cp26062)">
<text xml:space="preserve" transform="matrix(1 0 -0 1 0 841.92)" font-size="14.04" font-family="Arial"><tspan y="-603.46" x="149.54"> </tspan></text>
</g>
<clipPath id="cp26063">
<path transform="matrix(1,0,0,-1,0,841.92)" d="M .000008871 0 L 595.32 0 L 595.32 841.92 L .000008871 841.92 Z " fill-rule="evenodd"/>
</clipPath>
<g clip-path="url(#cp26063)">
<text xml:space="preserve" transform="matrix(1 0 -0 1 0 841.92)" font-size="14.04" font-family="Times New Roman"><tspan y="-603.46" x="156.5 162.00368 169.0658 175.18724 182.15108 186.09632 189.94327 196.17704 200.85236 207.83025 214.06401 221.14019 224.65018 229.1851 236.24723 243.0847 250.14682 256.38059 260.3258 266.44725 273.41108 284.20783 290.4416 295.9593 303.0214 309.14283 316.20494">shakllardan foydalanmasdan.</tspan></text>
</g>
<clipPath id="cp26064">
<path transform="matrix(1,0,0,-1,0,841.92)" d="M .000008871 0 L 595.32 0 L 595.32 841.92 L .000008871 841.92 Z " fill-rule="evenodd"/>
</clipPath>
<g clip-path="url(#cp26064)">
<text xml:space="preserve" transform="matrix(1 0 -0 1 0 841.92)" font-size="14.04" font-family="Times New Roman"><tspan y="-603.46" x="319.87"> </tspan></text>
</g>
<clipPath id="cp26065">
<path transform="matrix(1,0,0,-1,0,841.92)" d="M .000008871 0 L 595.32 0 L 595.32 841.92 L .000008871 841.92 Z " fill-rule="evenodd"/>
</clipPath>
<g clip-path="url(#cp26065)">
</g>
</g>
<g id="Layer-1" data-name="P">
<clipPath id="cp26066">
<path transform="matrix(1,0,0,-1,0,841.92)" d="M .000008871 0 L 595.32 0 L 595.32 841.92 L .000008871 841.92 Z " fill-rule="evenodd"/>
</clipPath>
<g clip-path="url(#cp26066)">
<text xml:space="preserve" transform="matrix(1 0 -0 1 0 841.92)" font-size="14.04" font-family="Times New Roman,BoldItalic" font-weight="bold" font-style="italic"><tspan y="-579.34" x="120.5 128.30625 136.11249 143.06229 150.1244">Shakl</tspan></text>
</g>
<clipPath id="cp26067">
<path transform="matrix(1,0,0,-1,0,841.92)" d="M .000008871 0 L 595.32 0 L 595.32 841.92 L .000008871 841.92 Z " fill-rule="evenodd"/>
</clipPath>
<g clip-path="url(#cp26067)">
<text xml:space="preserve" transform="matrix(1 0 -0 1 0 841.92)" font-size="14.04" font-family="Times New Roman"><tspan y="-579.34" x="154.1"> </tspan></text>
</g>
<clipPath id="cp26068">
<path transform="matrix(1,0,0,-1,0,841.92)" d="M .000008871 0 L 595.32 0 L 595.32 841.92 L .000008871 841.92 Z " fill-rule="evenodd"/>
</clipPath>
<g clip-path="url(#cp26068)">
<text xml:space="preserve" transform="matrix(1 0 -0 1 0 841.92)" font-size="14.04" font-family="Times New Roman"><tspan y="-579.34" x="162.5">&#x2014;</tspan></text>
</g>
<clipPath id="cp26069">
<path transform="matrix(1,0,0,-1,0,841.92)" d="M .000008871 0 L 595.32 0 L 595.32 841.92 L .000008871 841.92 Z " fill-rule="evenodd"/>
</clipPath>
<g clip-path="url(#cp26069)">
<text xml:space="preserve" transform="matrix(1 0 -0 1 0 841.92)" font-size="14.04" font-family="Times New Roman"><tspan y="-579.34" x="176.54"> </tspan></text>
</g>
<clipPath id="cp26070">
<path transform="matrix(1,0,0,-1,0,841.92)" d="M .000008871 0 L 595.32 0 L 595.32 841.92 L .000008871 841.92 Z " fill-rule="evenodd"/>
</clipPath>
<g clip-path="url(#cp26070)">
<text xml:space="preserve" transform="matrix(1 0 -0 1 0 841.92)" font-size="14.04" font-family="Times New Roman"><tspan y="-579.34" x="184.94 189.61533 196.6915 203.52898 210.5911 216.82486 220.67182 226.90558 233.86942 240.83325 247.89537 254.01682 261.07893 265.02415 273.40605 277.253 284.3151 294.99955 302.06166 309.12376 312.9707 320.0328 326.15425 333.21635 341.59825 348.66035 354.8941 361.01554 367.2493 374.32545 380.5592 388.95515 399.6396">foydalanuvchi tomonidan bazaga ma</tspan></text>
</g>
<clipPath id="cp26071">
<path transform="matrix(1,0,0,-1,0,841.92)" d="M .000008871 0 L 595.32 0 L 595.32 841.92 L .000008871 841.92 Z " fill-rule="evenodd"/>
</clipPath>
<g clip-path="url(#cp26071)">
<text xml:space="preserve" transform="matrix(1 0 -0 1 0 841.92)" font-size="14.04" font-family="Times New Roman"><tspan y="-579.34" x="406.27">&#x2019;</tspan></text>
</g>
<clipPath id="cp26072">
<path transform="matrix(1,0,0,-1,0,841.92)" d="M .000008871 0 L 595.32 0 L 595.32 841.92 L .000008871 841.92 Z " fill-rule="evenodd"/>
</clipPath>
<g clip-path="url(#cp26072)">
<text xml:space="preserve" transform="matrix(1 0 -0 1 0 841.92)" font-size="14.04" font-family="Times New Roman"><tspan y="-579.34" x="410.83 414.7752 421.8373 432.52177 439.58387 443.52909 447.4743 453.70808 458.27107 465.33317 469.27839 477.54795 484.61006 488.55528 493.11827 496.9652 500.91044 504.7574 510.26106 517.3232 525.5928 532.6549 538.8887 545.85256 552.8164 559.7803">lumotlarni kiritish uchun </tspan></text>
</g>
<clipPath id="cp26073">
<path transform="matrix(1,0,0,-1,0,841.92)" d="M .000008871 0 L 595.32 0 L 595.32 841.92 L .000008871 841.92 Z " fill-rule="evenodd"/>
</clipPath>
<g clip-path="url(#cp26073)">
<text xml:space="preserve" transform="matrix(1 0 -0 1 0 841.92)" font-size="14.04" font-family="Times New Roman"><tspan y="-555.07" x="85.104 91.941478 98.17523 102.850559 109.08431 113.043598 116.98884 120.8358 127.89792 134.01937 141.08148 144.59148 151.61148 156.2868 162.43633 167.11165 170.9586 178.02072 181.53072 185.33556 192.39768 196.24463 202.4784 207.0414 211.71672 217.95049 224.802 230.30568 237.3678 241.31304 245.98836">yaratilgan grafik interfeysdir.</tspan></text>
</g>
<clipPath id="cp26074">
<path transform="matrix(1,0,0,-1,0,841.92)" d="M .000008871 0 L 595.32 0 L 595.32 841.92 L .000008871 841.92 Z " fill-rule="evenodd"/>
</clipPath>
<g clip-path="url(#cp26074)">
<text xml:space="preserve" transform="matrix(1 0 -0 1 0 841.92)" font-size="14.04" font-family="Times New Roman"><tspan y="-555.07" x="249.53"> </tspan></text>
</g>
</g>
<g id="Layer-1" data-name="P">
<clipPath id="cp26075">
<path transform="matrix(1,0,0,-1,0,841.92)" d="M .000008871 0 L 595.32 0 L 595.32 841.92 L .000008871 841.92 Z " fill-rule="evenodd"/>
</clipPath>
<g clip-path="url(#cp26075)">
<text xml:space="preserve" transform="matrix(1 0 -0 1 0 841.92)" font-size="14.04" font-family="Times New Roman,Bold" font-weight="bold"><tspan y="-530.71" x="120.5 127.56212 131.07212 145.30867 156.2318">5. Ob</tspan></text>
</g>
<clipPath id="cp26076">
<path transform="matrix(1,0,0,-1,0,841.92)" d="M .000008871 0 L 595.32 0 L 595.32 841.92 L .000008871 841.92 Z " fill-rule="evenodd"/>
</clipPath>
<g clip-path="url(#cp26076)">
<text xml:space="preserve" transform="matrix(1 0 -0 1 0 841.92)" font-size="14.04" font-family="Times New Roman,Bold" font-weight="bold"><tspan y="-530.71" x="164.06">&#x2019;</tspan></text>
</g>
<clipPath id="cp26077">
<path transform="matrix(1,0,0,-1,0,841.92)" d="M .000008871 0 L 595.32 0 L 595.32 841.92 L .000008871 841.92 Z " fill-rule="evenodd"/>
</clipPath>
<g clip-path="url(#cp26077)">
<text xml:space="preserve" transform="matrix(1 0 -0 1 0 841.92)" font-size="14.04" font-family="Times New Roman,Bold" font-weight="bold"><tspan y="-530.71" x="168.62 175.68212 181.91588 189.48345 194.15877 201.96501 205.91025 213.71649 220.77861 235.04325 242.72313 249.78525 261.31208 269.11833 276.18043 283.98667 288.662 294.89576 301.12953 315.4082 326.93504 333.99714 341.80339 348.03715 351.8841 355.8293 363.5092 367.4544 375.26066 382.32276 396.4751 401.8805 405.8257 413.63197 418.30729 424.54106 430.66249 434.6077 448.76005 455.82215 462.88426 477.1489 484.82878 492.635 496.58024 510.84489 517.8087 524.87088 530.9923 538.05447 542.61746 546.5627 551.9681 559.64797">yektning kompyuter modelining sintezi va uni yaratish </tspan></text>
</g>
<clipPath id="cp26078">
<path transform="matrix(1,0,0,-1,0,841.92)" d="M .000008871 0 L 595.32 0 L 595.32 841.92 L .000008871 841.92 Z " fill-rule="evenodd"/>
</clipPath>
<g clip-path="url(#cp26078)">
<text xml:space="preserve" transform="matrix(1 0 -0 1 0 841.92)" font-size="14.04" font-family="Times New Roman,Bold" font-weight="bold"><tspan y="-506.83" x="85.104 89.77932 96.01308 103.08923 110.76912 117.83124 121.6782 128.64203 135.70415 139.5511 146.51494 153.57706 158.98246 162.92769">texnologiyasi.</tspan></text>
</g>
<clipPath id="cp26079">
<path transform="matrix(1,0,0,-1,0,841.92)" d="M .000008871 0 L 595.32 0 L 595.32 841.92 L .000008871 841.92 Z " fill-rule="evenodd"/>
</clipPath>
<g clip-path="url(#cp26079)">
<text xml:space="preserve" transform="matrix(1 0 -0 1 0 841.92)" font-size="14.04" font-family="Times New Roman,Bold" font-weight="bold"><tspan y="-506.83" x="166.46"> </tspan></text>
</g>
</g>
<g id="Layer-1" data-name="P">
<clipPath id="cp26080">
<path transform="matrix(1,0,0,-1,0,841.92)" d="M .000008871 0 L 595.32 0 L 595.32 841.92 L .000008871 841.92 Z " fill-rule="evenodd"/>
</clipPath>
<g clip-path="url(#cp26080)">
<text xml:space="preserve" transform="matrix(1 0 -0 1 0 841.92)" font-size="14.04" font-family="Times New Roman"><tspan y="-506.83" x="175.46">&#x0422;</tspan></text>
</g>
</g>
<g id="Layer-1" data-name="P">
<clipPath id="cp26081">
<path transform="matrix(1,0,0,-1,0,841.92)" d="M .000008871 0 L 595.32 0 L 595.32 841.92 L .000008871 841.92 Z " fill-rule="evenodd"/>
</clipPath>
<g clip-path="url(#cp26081)">
<text xml:space="preserve" transform="matrix(1 0 -0 1 0 841.92)" font-size="14.04" font-family="Times New Roman"><tspan y="-506.83" x="183.98 190.10144 197.16356 201.1088 207.23024 214.29236 223.1516 230.21372 234.06067 238.0059 244.96974 252.03186 258.1533 265.2154 274.07466 281.13676 287.25819 292.76185 296.6088 303.6709">anlab olingan dastur</tspan></text>
</g>
</g>
<g id="Layer-1" data-name="P">
<clipPath id="cp26082">
<path transform="matrix(1,0,0,-1,0,841.92)" d="M .000008871 0 L 595.32 0 L 595.32 841.92 L .000008871 841.92 Z " fill-rule="evenodd"/>
</clipPath>
<g clip-path="url(#cp26082)">
<text xml:space="preserve" transform="matrix(1 0 -0 1 0 841.92)" font-size="14.04" font-family="Times New Roman"><tspan y="-506.83" x="308.45 312.39524 319.2327 328.2183 339.01506 345.2488 352.32496 357.8286 364.79246 368.6394 375.7015 379.54847 386.61058 390.45753 397.42137 404.48347 413.3427 420.40483 427.36866 432.77406 436.71928 440.6645 446.78593 453.84803 457.79325 464.6307 473.6163 477.56153 488.24598 495.30809 502.37019 509.334 513.27926 520.11679 526.3505 530.2958 534.241 540.4748 545.0378 548.98306 555.82058 559.66757 563.17758">iy mahsulotning vositaviy imkoniyatlarini  </tspan></text>
</g>
</g>
<g id="Layer-1" data-name="P">
<clipPath id="cp26083">
<path transform="matrix(1,0,0,-1,0,841.92)" d="M .000008871 0 L 595.32 0 L 595.32 841.92 L .000008871 841.92 Z " fill-rule="evenodd"/>
</clipPath>
<g clip-path="url(#cp26083)">
<text xml:space="preserve" transform="matrix(1 0 -0 1 0 841.92)" font-size="14.04" font-family="Times New Roman"><tspan y="-482.71" x="85.104 92.184">ko</tspan></text>
</g>
</g>
<g id="Layer-1" data-name="P">
<clipPath id="cp26084">
<path transform="matrix(1,0,0,-1,0,841.92)" d="M .000008871 0 L 595.32 0 L 595.32 841.92 L .000008871 841.92 Z " fill-rule="evenodd"/>
</clipPath>
<g clip-path="url(#cp26084)">
<text xml:space="preserve" transform="matrix(1 0 -0 1 0 841.92)" font-size="14.04" font-family="Times New Roman"><tspan y="-482.71" x="99.264">&#x2019;</tspan></text>
</g>
</g>
<g id="Layer-1" data-name="P">
<clipPath id="cp26085">
<path transform="matrix(1,0,0,-1,0,841.92)" d="M .000008871 0 L 595.32 0 L 595.32 841.92 L .000008871 841.92 Z " fill-rule="evenodd"/>
</clipPath>
<g clip-path="url(#cp26085)">
<text xml:space="preserve" transform="matrix(1 0 -0 1 0 841.92)" font-size="14.04" font-family="Times New Roman"><tspan y="-482.71" x="103.82 108.49532 112.342288 119.4044 125.14677 131.38053 138.34436 142.19132 149.25344 153.10039 160.1625 163.6725 169.38678 176.35062 183.41274 194.09719 201.1593 207.99678 215.0589 219.00414 225.2379 229.91323 236.9894 243.22316 248.97956 261.46113 270.69944 277.76155 281.70677 287.3368 294.3989 300.52033 307.58244 314.54627 319.95167 323.7986 327.74385 333.9776 339.734 346.57148 352.80525 357.48057 363.71434 367.67359 371.6188 377.0242 383.98805 391.05015 397.2839 403.0403 410.00416 413.94938 418.51237 422.45759 427.86299 434.92509 438.77204 444.17744 451.23954 456.9819 467.66636 474.85484 485.53929 492.60139 496.5466 503.6087 507.1187 512.833 525.3146 534.67929 541.6291 545.57437 552.5382 559.5021">rib chiqib, kompyuterda MBni bevosita yaratishga kirishish mumkin. MBning </tspan></text>
</g>
</g>
<g id="Layer-1" data-name="P">
<clipPath id="cp26086">
<path transform="matrix(1,0,0,-1,0,841.92)" d="M .000008871 0 L 595.32 0 L 595.32 841.92 L .000008871 841.92 Z " fill-rule="evenodd"/>
</clipPath>
<g clip-path="url(#cp26086)">
<text xml:space="preserve" transform="matrix(1 0 -0 1 0 841.92)" font-size="14.04" font-family="Times New Roman"><tspan y="-458.47" x="85.104 92.166118 99.22823 109.912677 116.97479 123.81227 130.87439 134.81963 141.05339 145.72872 152.43984 163.12429 170.1864 177.24852 183.48229 187.42752 191.27448 198.23831 202.08527 208.79639 215.63387 221.86763 226.54296 232.77672 236.73601 240.68125 246.08664 253.14876 259.85987 263.70683 269.94059 274.6159 280.84968 287.70118 294.76329 301.82539 305.67234 312.73445 318.85588 325.567 332.6291 338.86286 343.53819 350.137 357.1991 363.32054 370.38264 377.44474 383.6785 390.53 397.24113 409.7227 419.08738">kompyuter modelini yaratish jarayonida har qanday MBB</tspan></text>
</g>
</g>
<g id="Layer-1" data-name="P">
<clipPath id="cp26087">
<path transform="matrix(1,0,0,-1,0,841.92)" d="M .000008871 0 L 595.32 0 L 595.32 841.92 L .000008871 841.92 Z " fill-rule="evenodd"/>
</clipPath>
<g clip-path="url(#cp26087)">
<text xml:space="preserve" transform="matrix(1 0 -0 1 0 841.92)" font-size="14.04" font-family="Times New Roman"><tspan y="-458.47" x="428.83">&#x0422;</tspan></text>
</g>
</g>
<g id="Layer-1" data-name="P">
<clipPath id="cp26088">
<path transform="matrix(1,0,0,-1,0,841.92)" d="M .000008871 0 L 595.32 0 L 595.32 841.92 L .000008871 841.92 Z " fill-rule="evenodd"/>
</clipPath>
<g clip-path="url(#cp26088)">
<text xml:space="preserve" transform="matrix(1 0 -0 1 0 841.92)" font-size="14.04" font-family="Times New Roman"><tspan y="-458.47" x="437.23"> </tspan></text>
</g>
</g>
<g id="Layer-1" data-name="P">
<clipPath id="cp26089">
<path transform="matrix(1,0,0,-1,0,841.92)" d="M .000008871 0 L 595.32 0 L 595.32 841.92 L .000008871 841.92 Z " fill-rule="evenodd"/>
</clipPath>
<g clip-path="url(#cp26089)">
<text xml:space="preserve" transform="matrix(1 0 -0 1 0 841.92)" font-size="14.04" font-family="Times New Roman"><tspan y="-458.47" x="443.98 451.0421 457.16355 464.22566 471.18949 478.2516 484.83638 488.7816 492.62855 499.69065 503.5376 510.5997 517.18447 524.2466">uchun tipik bo</tspan></text>
</g>
</g>
<g id="Layer-1" data-name="P">
<clipPath id="cp26090">
<path transform="matrix(1,0,0,-1,0,841.92)" d="M .000008871 0 L 595.32 0 L 595.32 841.92 L .000008871 841.92 Z " fill-rule="evenodd"/>
</clipPath>
<g clip-path="url(#cp26090)">
<text xml:space="preserve" transform="matrix(1 0 -0 1 0 841.92)" font-size="14.04" font-family="Times New Roman"><tspan y="-458.47" x="531.46">&#x2019;</tspan></text>
</g>
</g>
<g id="Layer-1" data-name="P">
<clipPath id="cp26091">
<path transform="matrix(1,0,0,-1,0,841.92)" d="M .000008871 0 L 595.32 0 L 595.32 841.92 L .000008871 841.92 Z " fill-rule="evenodd"/>
</clipPath>
<g clip-path="url(#cp26091)">
<text xml:space="preserve" transform="matrix(1 0 -0 1 0 841.92)" font-size="14.04" font-family="Times New Roman"><tspan y="-458.47" x="536.02 539.867 546.92916 553.0506 560.01449">lgan </tspan></text>
</g>
</g>
<g id="Layer-1" data-name="P">
<clipPath id="cp26092">
<path transform="matrix(1,0,0,-1,0,841.92)" d="M .000008871 0 L 595.32 0 L 595.32 841.92 L .000008871 841.92 Z " fill-rule="evenodd"/>
</clipPath>
<g clip-path="url(#cp26092)">
<text xml:space="preserve" transform="matrix(1 0 -0 1 0 841.92)" font-size="14.04" font-family="Times New Roman"><tspan y="-434.35" x="85.104 91.33775 98.18927 102.86459 106.936199 117.620639 121.13064 128.15064 135.24085 140.74452 147.70836 151.6536 157.77504 164.83716 168.68412 174.91788 179.5932 186.57109 190.51633 194.02632 200.26009 203.9526 208.62793 214.8617 218.70865 222.65389 229.716 233.07157 240.13368">ayrim bosqichlarni ajratib ko</tspan></text>
</g>
</g>
<g id="Layer-1" data-name="P">
<clipPath id="cp26093">
<path transform="matrix(1,0,0,-1,0,841.92)" d="M .000008871 0 L 595.32 0 L 595.32 841.92 L .000008871 841.92 Z " fill-rule="evenodd"/>
</clipPath>
<g clip-path="url(#cp26093)">
<text xml:space="preserve" transform="matrix(1 0 -0 1 0 841.92)" font-size="14.04" font-family="Times New Roman"><tspan y="-434.35" x="247.37">&#x2019;</tspan></text>
</g>
</g>
<g id="Layer-1" data-name="P">
<clipPath id="cp26094">
<path transform="matrix(1,0,0,-1,0,841.92)" d="M .000008871 0 L 595.32 0 L 595.32 841.92 L .000008871 841.92 Z " fill-rule="evenodd"/>
</clipPath>
<g clip-path="url(#cp26094)">
<text xml:space="preserve" transform="matrix(1 0 -0 1 0 841.92)" font-size="14.04" font-family="Times New Roman"><tspan y="-434.35" x="251.93 256.60533 262.10899 268.2304 272.07737 276.02259 281.42799 288.49009 292.0001 302.65647 309.84495 320.6417 327.7038 331.55076 338.61286">rsatish mumkin:</tspan></text>
</g>
</g>
<g id="Layer-1" data-name="P">
<clipPath id="cp26095">
<path transform="matrix(1,0,0,-1,0,841.92)" d="M .000008871 0 L 595.32 0 L 595.32 841.92 L .000008871 841.92 Z " fill-rule="evenodd"/>
</clipPath>
<g clip-path="url(#cp26095)">
<text xml:space="preserve" transform="matrix(1 0 -0 1 0 841.92)" font-size="14.04" font-family="Times New Roman"><tspan y="-434.35" x="342.55"> </tspan></text>
</g>
</g>
<g id="Layer-1" data-name="P">
<clipPath id="cp26096">
<path transform="matrix(1,0,0,-1,0,841.92)" d="M .000008871 0 L 595.32 0 L 595.32 841.92 L .000008871 841.92 Z " fill-rule="evenodd"/>
</clipPath>
<g clip-path="url(#cp26096)">
<text xml:space="preserve" transform="matrix(1 0 -0 1 0 841.92)" font-size="14.04" font-family="Wingdings"><tspan y="-410.23" x="120.5">&#xf0fc;</tspan></text>
</g>
<clipPath id="cp26097">
<path transform="matrix(1,0,0,-1,0,841.92)" d="M .000008871 0 L 595.32 0 L 595.32 841.92 L .000008871 841.92 Z " fill-rule="evenodd"/>
</clipPath>
<g clip-path="url(#cp26097)">
<text xml:space="preserve" transform="matrix(1 0 -0 1 0 841.92)" font-size="14.04" font-family="Arial"><tspan y="-410.23" x="131.54"> </tspan></text>
</g>
<clipPath id="cp26098">
<path transform="matrix(1,0,0,-1,0,841.92)" d="M .000008871 0 L 595.32 0 L 595.32 841.92 L .000008871 841.92 Z " fill-rule="evenodd"/>
</clipPath>
<g clip-path="url(#cp26098)">
<text xml:space="preserve" transform="matrix(1 0 -0 1 0 841.92)" font-size="14.04" font-family="Times New Roman"><tspan y="-410.23" x="138.5 150.98 160.34311">MBB</tspan></text>
</g>
</g>
<g id="Layer-1" data-name="P">
<clipPath id="cp26099">
<path transform="matrix(1,0,0,-1,0,841.92)" d="M .000008871 0 L 595.32 0 L 595.32 841.92 L .000008871 841.92 Z " fill-rule="evenodd"/>
</clipPath>
<g clip-path="url(#cp26099)">
<text xml:space="preserve" transform="matrix(1 0 -0 1 0 841.92)" font-size="14.04" font-family="Times New Roman"><tspan y="-410.23" x="169.7">&#x0422;</tspan></text>
</g>
</g>
<g id="Layer-1" data-name="P">
<clipPath id="cp26100">
<path transform="matrix(1,0,0,-1,0,841.92)" d="M .000008871 0 L 595.32 0 L 595.32 841.92 L .000008871 841.92 Z " fill-rule="evenodd"/>
</clipPath>
<g clip-path="url(#cp26100)">
<text xml:space="preserve" transform="matrix(1 0 -0 1 0 841.92)" font-size="14.04" font-family="Times New Roman"><tspan y="-410.23" x="178.22 185.18384 189.12908 196.1912 200.13643 205.54183 212.50566 219.56778 225.80155 232.8777 236.72466">ni ishga tu</tspan></text>
</g>
</g>
<g id="Layer-1" data-name="P">
<clipPath id="cp26101">
<path transform="matrix(1,0,0,-1,0,841.92)" d="M .000008871 0 L 595.32 0 L 595.32 841.92 L .000008871 841.92 Z " fill-rule="evenodd"/>
</clipPath>
<g clip-path="url(#cp26101)">
<text xml:space="preserve" transform="matrix(1 0 -0 1 0 841.92)" font-size="14.04" font-family="Times New Roman"><tspan y="-410.23" x="243.89 249.2954 256.3575 260.20448 264.8798 268.825 274.2304 281.2925 284.80253 291.83659 304.31816 313.68284 320.63264 324.47959 331.5417 338.6038 345.66593 352.5034 358.73716 365.8133 372.77714 376.62409 383.68623 388.36155 394.5953 401.4468 405.39204 409.33726 416.39936 420.34458 427.4067 434.24418 440.47795 445.15327 451.38703 455.34629 459.19325 464.6969 471.759 478.82115 485.6586 492.7207 499.7828 503.72804 510.79017 517.754 521.601 528.66317 532.51016 539.474 546.53616 552.6576 559.62149">shirish, MBning yangi faylini yaratish yoki oldindan </tspan></text>
</g>
<clipPath id="cp26102">
<path transform="matrix(1,0,0,-1,0,841.92)" d="M .000008871 0 L 595.32 0 L 595.32 841.92 L .000008871 841.92 Z " fill-rule="evenodd"/>
</clipPath>
<g clip-path="url(#cp26102)">
</g>
</g>
<g id="Layer-1" data-name="P">
<clipPath id="cp26103">
<path transform="matrix(1,0,0,-1,0,841.92)" d="M .000008871 0 L 595.32 0 L 595.32 841.92 L .000008871 841.92 Z " fill-rule="evenodd"/>
</clipPath>
<g clip-path="url(#cp26103)">
<text xml:space="preserve" transform="matrix(1 0 -0 1 0 841.92)" font-size="14.04" font-family="Times New Roman"><tspan y="-386.09" x="85.104 91.941478 98.17523 102.850559 109.08431 113.043598 116.98884 120.8358 127.89792 134.01937 141.08148 144.59148 151.61148 157.84525 163.99477 170.22853 177.19237 181.1376 184.6476 191.58336 197.81713 204.78096 208.7262 214.13159 221.19371">yaratilgan bazani ochish;</tspan></text>
</g>
</g>
<g id="Layer-1" data-name="P">
<clipPath id="cp26104">
<path transform="matrix(1,0,0,-1,0,841.92)" d="M .000008871 0 L 595.32 0 L 595.32 841.92 L .000008871 841.92 Z " fill-rule="evenodd"/>
</clipPath>
<g clip-path="url(#cp26104)">
<text xml:space="preserve" transform="matrix(1 0 -0 1 0 841.92)" font-size="14.04" font-family="Times New Roman"><tspan y="-386.09" x="225.17"> </tspan></text>
</g>
<clipPath id="cp26105">
<path transform="matrix(1,0,0,-1,0,841.92)" d="M .000008871 0 L 595.32 0 L 595.32 841.92 L .000008871 841.92 Z " fill-rule="evenodd"/>
</clipPath>
<g clip-path="url(#cp26105)">
</g>
</g>
<g id="Layer-1" data-name="P">
<clipPath id="cp26106">
<path transform="matrix(1,0,0,-1,0,841.92)" d="M .000008871 0 L 595.32 0 L 595.32 841.92 L .000008871 841.92 Z " fill-rule="evenodd"/>
</clipPath>
<g clip-path="url(#cp26106)">
<text xml:space="preserve" transform="matrix(1 0 -0 1 0 841.92)" font-size="14.04" font-family="Wingdings"><tspan y="-361.97" x="120.5">&#xf0fc;</tspan></text>
</g>
<clipPath id="cp26107">
<path transform="matrix(1,0,0,-1,0,841.92)" d="M .000008871 0 L 595.32 0 L 595.32 841.92 L .000008871 841.92 Z " fill-rule="evenodd"/>
</clipPath>
<g clip-path="url(#cp26107)">
<text xml:space="preserve" transform="matrix(1 0 -0 1 0 841.92)" font-size="14.04" font-family="Arial"><tspan y="-361.97" x="131.54"> </tspan></text>
</g>
<clipPath id="cp26108">
<path transform="matrix(1,0,0,-1,0,841.92)" d="M .000008871 0 L 595.32 0 L 595.32 841.92 L .000008871 841.92 Z " fill-rule="evenodd"/>
</clipPath>
<g clip-path="url(#cp26108)">
<text xml:space="preserve" transform="matrix(1 0 -0 1 0 841.92)" font-size="14.04" font-family="Times New Roman"><tspan y="-361.97" x="138.5 145.56212 151.79589 157.20128 161.04824 164.99347 171.11492 178.17704 185.14087 189.0861 192.5961 196.40094 202.6347 209.59854 216.66066 222.7821 226.72734 233.69118 237.63642 241.14641 247.95581 255.01793 262.08006 266.02528 269.53529 273.34013 279.46156 286.52366 293.58576 299.70719 303.55415 307.49937 313.73313 318.2961 325.35823 329.30345 332.81346 339.62284 345.8566 350.53193 356.7657 360.72496 364.5719 369.9773 376.94114">dastlabki jadvalni yoki jadvallarni yaratish;</tspan></text>
</g>
<clipPath id="cp26109">
<path transform="matrix(1,0,0,-1,0,841.92)" d="M .000008871 0 L 595.32 0 L 595.32 841.92 L .000008871 841.92 Z " fill-rule="evenodd"/>
</clipPath>
<g clip-path="url(#cp26109)">
<text xml:space="preserve" transform="matrix(1 0 -0 1 0 841.92)" font-size="14.04" font-family="Times New Roman"><tspan y="-361.97" x="381.07"> </tspan></text>
</g>
<clipPath id="cp26110">
<path transform="matrix(1,0,0,-1,0,841.92)" d="M .000008871 0 L 595.32 0 L 595.32 841.92 L .000008871 841.92 Z " fill-rule="evenodd"/>
</clipPath>
<g clip-path="url(#cp26110)">
</g>
</g>
<g id="Layer-1" data-name="P">
<clipPath id="cp26111">
<path transform="matrix(1,0,0,-1,0,841.92)" d="M .000008871 0 L 595.32 0 L 595.32 841.92 L .000008871 841.92 Z " fill-rule="evenodd"/>
</clipPath>
<g clip-path="url(#cp26111)">
<text xml:space="preserve" transform="matrix(1 0 -0 1 0 841.92)" font-size="14.04" font-family="Wingdings"><tspan y="-337.73" x="120.5">&#xf0fc;</tspan></text>
</g>
<clipPath id="cp26112">
<path transform="matrix(1,0,0,-1,0,841.92)" d="M .000008871 0 L 595.32 0 L 595.32 841.92 L .000008871 841.92 Z " fill-rule="evenodd"/>
</clipPath>
<g clip-path="url(#cp26112)">
<text xml:space="preserve" transform="matrix(1 0 -0 1 0 841.92)" font-size="14.04" font-family="Arial"><tspan y="-337.73" x="131.54"> </tspan></text>
</g>
<clipPath id="cp26113">
<path transform="matrix(1,0,0,-1,0,841.92)" d="M .000008871 0 L 595.32 0 L 595.32 841.92 L .000008871 841.92 Z " fill-rule="evenodd"/>
</clipPath>
<g clip-path="url(#cp26113)">
<text xml:space="preserve" transform="matrix(1 0 -0 1 0 841.92)" font-size="14.04" font-family="Times New Roman"><tspan y="-337.73" x="138.5 144.73377 151.80994 156.48526 162.6067 169.66883 173.17882 178.5421 185.60422 191.72566 198.78778 202.63474 206.57997 212.81374 217.37674 221.2237 228.28582 232.23105 235.74105 242.55045 248.78421 253.45954 259.6933 263.65257 267.4995 273.00318 279.967">ekran shakllarini yaratish;</tspan></text>
</g>
<clipPath id="cp26114">
<path transform="matrix(1,0,0,-1,0,841.92)" d="M .000008871 0 L 595.32 0 L 595.32 841.92 L .000008871 841.92 Z " fill-rule="evenodd"/>
</clipPath>
<g clip-path="url(#cp26114)">
<text xml:space="preserve" transform="matrix(1 0 -0 1 0 841.92)" font-size="14.04" font-family="Times New Roman"><tspan y="-337.73" x="283.97"> </tspan></text>
</g>
<clipPath id="cp26115">
<path transform="matrix(1,0,0,-1,0,841.92)" d="M .000008871 0 L 595.32 0 L 595.32 841.92 L .000008871 841.92 Z " fill-rule="evenodd"/>
</clipPath>
<g clip-path="url(#cp26115)">
</g>
</g>
<g id="Layer-1" data-name="P">
<clipPath id="cp26116">
<path transform="matrix(1,0,0,-1,0,841.92)" d="M .000008871 0 L 595.32 0 L 595.32 841.92 L .000008871 841.92 Z " fill-rule="evenodd"/>
</clipPath>
<g clip-path="url(#cp26116)">
<text xml:space="preserve" transform="matrix(1 0 -0 1 0 841.92)" font-size="14.04" font-family="Wingdings"><tspan y="-313.61" x="120.5">&#xf0fc;</tspan></text>
</g>
<clipPath id="cp26117">
<path transform="matrix(1,0,0,-1,0,841.92)" d="M .000008871 0 L 595.32 0 L 595.32 841.92 L .000008871 841.92 Z " fill-rule="evenodd"/>
</clipPath>
<g clip-path="url(#cp26117)">
<text xml:space="preserve" transform="matrix(1 0 -0 1 0 841.92)" font-size="14.04" font-family="Arial"><tspan y="-313.61" x="131.54"> </tspan></text>
</g>
<clipPath id="cp26118">
<path transform="matrix(1,0,0,-1,0,841.92)" d="M .000008871 0 L 595.32 0 L 595.32 841.92 L .000008871 841.92 Z " fill-rule="evenodd"/>
</clipPath>
<g clip-path="url(#cp26118)">
<text xml:space="preserve" transform="matrix(1 0 -0 1 0 841.92)" font-size="14.04" font-family="Times New Roman"><tspan y="-313.61" x="138.5 150.98157 160.34626 167.29605 171.24129 174.75128 178.55612">MBni to</tspan></text>
</g>
<clipPath id="cp26119">
<path transform="matrix(1,0,0,-1,0,841.92)" d="M .000008871 0 L 595.32 0 L 595.32 841.92 L .000008871 841.92 Z " fill-rule="evenodd"/>
</clipPath>
<g clip-path="url(#cp26119)">
<text xml:space="preserve" transform="matrix(1 0 -0 1 0 841.92)" font-size="14.04" font-family="Times New Roman"><tspan y="-313.61" x="185.66">&#x2019;</tspan></text>
</g>
<clipPath id="cp26120">
<path transform="matrix(1,0,0,-1,0,841.92)" d="M .000008871 0 L 595.32 0 L 595.32 841.92 L .000008871 841.92 Z " fill-rule="evenodd"/>
</clipPath>
<g clip-path="url(#cp26120)">
<text xml:space="preserve" transform="matrix(1 0 -0 1 0 841.92)" font-size="14.04" font-family="Times New Roman"><tspan y="-313.61" x="190.25 194.19524 201.15908 205.10431 209.77964 213.62659 219.03199 226.0941">ldirish.</tspan></text>
</g>
<clipPath id="cp26121">
<path transform="matrix(1,0,0,-1,0,841.92)" d="M .000008871 0 L 595.32 0 L 595.32 841.92 L .000008871 841.92 Z " fill-rule="evenodd"/>
</clipPath>
<g clip-path="url(#cp26121)">
<text xml:space="preserve" transform="matrix(1 0 -0 1 0 841.92)" font-size="14.04" font-family="Times New Roman"><tspan y="-313.61" x="229.49"> </tspan></text>
</g>
<clipPath id="cp26122">
<path transform="matrix(1,0,0,-1,0,841.92)" d="M .000008871 0 L 595.32 0 L 595.32 841.92 L .000008871 841.92 Z " fill-rule="evenodd"/>
</clipPath>
<g clip-path="url(#cp26122)">
</g>
</g>
<g id="Layer-1" data-name="P">
<clipPath id="cp26123">
<path transform="matrix(1,0,0,-1,0,841.92)" d="M .000008871 0 L 595.32 0 L 595.32 841.92 L .000008871 841.92 Z " fill-rule="evenodd"/>
</clipPath>
<g clip-path="url(#cp26123)">
<text xml:space="preserve" transform="matrix(1 0 -0 1 0 841.92)" font-size="14.04" font-family="Times New Roman"><tspan y="-289.49" x="120.5 132.98157 142.34626 149.29605 153.24129 159.461 163.30796">MBni to</tspan></text>
</g>
<clipPath id="cp26124">
<path transform="matrix(1,0,0,-1,0,841.92)" d="M .000008871 0 L 595.32 0 L 595.32 841.92 L .000008871 841.92 Z " fill-rule="evenodd"/>
</clipPath>
<g clip-path="url(#cp26124)">
<text xml:space="preserve" transform="matrix(1 0 -0 1 0 841.92)" font-size="14.04" font-family="Times New Roman"><tspan y="-289.49" x="170.42">&#x2019;</tspan></text>
</g>
<clipPath id="cp26125">
<path transform="matrix(1,0,0,-1,0,841.92)" d="M .000008871 0 L 595.32 0 L 595.32 841.92 L .000008871 841.92 Z " fill-rule="evenodd"/>
</clipPath>
<g clip-path="url(#cp26125)">
<text xml:space="preserve" transform="matrix(1 0 -0 1 0 841.92)" font-size="14.04" font-family="Times New Roman"><tspan y="-289.49" x="174.98 178.92523 185.88907 189.8343 194.39731 198.34255 203.74794 210.81006 216.91745 220.86269 227.82653 234.79036 238.63732 244.85703 251.91915">ldirish ikki ko</tspan></text>
</g>
<clipPath id="cp26126">
<path transform="matrix(1,0,0,-1,0,841.92)" d="M .000008871 0 L 595.32 0 L 595.32 841.92 L .000008871 841.92 Z " fill-rule="evenodd"/>
</clipPath>
<g clip-path="url(#cp26126)">
<text xml:space="preserve" transform="matrix(1 0 -0 1 0 841.92)" font-size="14.04" font-family="Times New Roman"><tspan y="-289.49" x="259.13">&#x2019;</tspan></text>
</g>
<clipPath id="cp26127">
<path transform="matrix(1,0,0,-1,0,841.92)" d="M .000008871 0 L 595.32 0 L 595.32 841.92 L .000008871 841.92 Z " fill-rule="evenodd"/>
</clipPath>
<g clip-path="url(#cp26127)">
<text xml:space="preserve" transform="matrix(1 0 -0 1 0 841.92)" font-size="14.04" font-family="Times New Roman"><tspan y="-289.49" x="263.69 268.36534 272.21229 279.17613 283.12135 288.52674 295.58885 302.55268 308.78645 315.0202 321.98405 325.831 329.7762 336.83833 342.94575 349.90959 356.8734 361.54875 365.49397 369.3409 375.57469 382.5385 386.48374 390.42897 396.64869 400.49565 406.61708 413.5809 420.643 426.87678 430.822 436.9294 443.89326">rinishda olib boriladi: jadval ko</tspan></text>
</g>
<clipPath id="cp26128">
<path transform="matrix(1,0,0,-1,0,841.92)" d="M .000008871 0 L 595.32 0 L 595.32 841.92 L .000008871 841.92 Z " fill-rule="evenodd"/>
</clipPath>
<g clip-path="url(#cp26128)">
<text xml:space="preserve" transform="matrix(1 0 -0 1 0 841.92)" font-size="14.04" font-family="Times New Roman"><tspan y="-289.49" x="451.18">&#x2019;</tspan></text>
</g>
<clipPath id="cp26129">
<path transform="matrix(1,0,0,-1,0,841.92)" d="M .000008871 0 L 595.32 0 L 595.32 841.92 L .000008871 841.92 Z " fill-rule="evenodd"/>
</clipPath>
<g clip-path="url(#cp26129)">
<text xml:space="preserve" transform="matrix(1 0 -0 1 0 841.92)" font-size="14.04" font-family="Times New Roman"><tspan y="-289.49" x="455.74 460.4153 464.36054 471.32438 475.17134 480.675 487.63883 491.48579 498.54789 504.78166 511.0154 517.97927 524.213 530.4468 535.8522 542.9143 549.03579 556.0979 559.9449">rinishida va shakl </tspan></text>
</g>
<clipPath id="cp26130">
<path transform="matrix(1,0,0,-1,0,841.92)" d="M .000008871 0 L 595.32 0 L 595.32 841.92 L .000008871 841.92 Z " fill-rule="evenodd"/>
</clipPath>
<g clip-path="url(#cp26130)">
<text xml:space="preserve" transform="matrix(1 0 -0 1 0 841.92)" font-size="14.04" font-family="Times New Roman"><tspan y="-265.37" x="85.104 92.184">ko</tspan></text>
</g>
<clipPath id="cp26131">
<path transform="matrix(1,0,0,-1,0,841.92)" d="M .000008871 0 L 595.32 0 L 595.32 841.92 L .000008871 841.92 Z " fill-rule="evenodd"/>
</clipPath>
<g clip-path="url(#cp26131)">
<text xml:space="preserve" transform="matrix(1 0 -0 1 0 841.92)" font-size="14.04" font-family="Times New Roman"><tspan y="-265.37" x="99.264">&#x2019;</tspan></text>
</g>
<clipPath id="cp26132">
<path transform="matrix(1,0,0,-1,0,841.92)" d="M .000008871 0 L 595.32 0 L 595.32 841.92 L .000008871 841.92 Z " fill-rule="evenodd"/>
</clipPath>
<g clip-path="url(#cp26132)">
<text xml:space="preserve" transform="matrix(1 0 -0 1 0 841.92)" font-size="14.04" font-family="Times New Roman"><tspan y="-265.37" x="103.82 108.49532 112.342288 119.4044 123.251369 128.65676 135.71887 139.56583 146.62795 152.86171 156.3717 162.81606 172.05438 179.01822 186.08034 193.04418 199.27794 205.62401 211.12769 218.09152 225.05536 229.0006 232.94583 239.2919 246.35402 252.58779 259.0602 269.74467 275.97843 279.92366 286.88749 290.8327 294.77793 301.25038 311.9348 318.16859 325.13243 332.19453 339.15837 346.1222 350.0674 356.30119 360.86418 367.92628 371.8715 378.34394 382.1909 388.31233 395.27616 402.33827 408.57203 412.41899 418.89143 425.85527">rinishida. Bunda sonli va matnli maydonlarni jadval ko</tspan></text>
</g>
<clipPath id="cp26133">
<path transform="matrix(1,0,0,-1,0,841.92)" d="M .000008871 0 L 595.32 0 L 595.32 841.92 L .000008871 841.92 Z " fill-rule="evenodd"/>
</clipPath>
<g clip-path="url(#cp26133)">
<text xml:space="preserve" transform="matrix(1 0 -0 1 0 841.92)" font-size="14.04" font-family="Times New Roman"><tspan y="-265.37" x="433.27">&#x2019;</tspan></text>
</g>
<clipPath id="cp26134">
<path transform="matrix(1,0,0,-1,0,841.92)" d="M .000008871 0 L 595.32 0 L 595.32 841.92 L .000008871 841.92 Z " fill-rule="evenodd"/>
</clipPath>
<g clip-path="url(#cp26134)">
<text xml:space="preserve" transform="matrix(1 0 -0 1 0 841.92)" font-size="14.04" font-family="Times New Roman"><tspan y="-265.37" x="437.83 442.5053 446.35227 453.41438 457.26133 462.66673 469.72883 473.57579 480.63789 486.87165 490.38166 496.82603 509.3076 517.8299 530.31149 540.3922 546.7383 553.8004 559.9219">rinishida, MEMO va </tspan></text>
</g>
<clipPath id="cp26135">
<path transform="matrix(1,0,0,-1,0,841.92)" d="M .000008871 0 L 595.32 0 L 595.32 841.92 L .000008871 841.92 Z " fill-rule="evenodd"/>
</clipPath>
<g clip-path="url(#cp26135)">
<text xml:space="preserve" transform="matrix(1 0 -0 1 0 841.92)" font-size="14.04" font-family="Times New Roman"><tspan y="-241.13" x="85.104 95.184719 103.70699 112.22927 115.73927 119.193119 123.13836 130.20047 134.8758 138.82103 145.78487 152.01863 158.98247 162.9277 166.4377 177.09407 183.44016 190.27764 197.33975 204.40187 211.46399 215.40923 221.53067 226.206 233.16983 237.11507 240.62506 245.98834 253.05046 259.17189 266.23399 270.1792 273.53477 280.4986">OLE  turidagi maydonlarni shakl ko</tspan></text>
</g>
<clipPath id="cp26136">
<path transform="matrix(1,0,0,-1,0,841.92)" d="M .000008871 0 L 595.32 0 L 595.32 841.92 L .000008871 841.92 Z " fill-rule="evenodd"/>
</clipPath>
<g clip-path="url(#cp26136)">
<text xml:space="preserve" transform="matrix(1 0 -0 1 0 841.92)" font-size="14.04" font-family="Times New Roman"><tspan y="-241.13" x="287.81">&#x2019;</tspan></text>
</g>
<clipPath id="cp26137">
<path transform="matrix(1,0,0,-1,0,841.92)" d="M .000008871 0 L 595.32 0 L 595.32 841.92 L .000008871 841.92 Z " fill-rule="evenodd"/>
</clipPath>
<g clip-path="url(#cp26137)">
<text xml:space="preserve" transform="matrix(1 0 -0 1 0 841.92)" font-size="14.04" font-family="Times New Roman"><tspan y="-241.13" x="292.37 297.04533 300.99055 307.95439 311.8996 317.305 324.26884 328.21406 335.27616 341.50993 344.87953 348.72648">rinishida to</tspan></text>
</g>
<clipPath id="cp26138">
<path transform="matrix(1,0,0,-1,0,841.92)" d="M .000008871 0 L 595.32 0 L 595.32 841.92 L .000008871 841.92 Z " fill-rule="evenodd"/>
</clipPath>
<g clip-path="url(#cp26138)">
<text xml:space="preserve" transform="matrix(1 0 -0 1 0 841.92)" font-size="14.04" font-family="Times New Roman"><tspan y="-241.13" x="355.87">&#x2019;</tspan></text>
</g>
<clipPath id="cp26139">
<path transform="matrix(1,0,0,-1,0,841.92)" d="M .000008871 0 L 595.32 0 L 595.32 841.92 L .000008871 841.92 Z " fill-rule="evenodd"/>
</clipPath>
<g clip-path="url(#cp26139)">
<text xml:space="preserve" transform="matrix(1 0 -0 1 0 841.92)" font-size="14.04" font-family="Times New Roman"><tspan y="-241.13" x="360.43 364.3752 371.33906 375.28428 379.9596 383.80656 389.3102 396.3723 399.72789 403.57484 410.63694 416.8707 420.81593 431.50038">ldirish lozim.</tspan></text>
</g>
<clipPath id="cp26140">
<path transform="matrix(1,0,0,-1,0,841.92)" d="M .000008871 0 L 595.32 0 L 595.32 841.92 L .000008871 841.92 Z " fill-rule="evenodd"/>
</clipPath>
<g clip-path="url(#cp26140)">
<text xml:space="preserve" transform="matrix(1 0 -0 1 0 841.92)" font-size="14.04" font-family="Times New Roman"><tspan y="-241.13" x="435.19"> </tspan></text>
</g>
</g>
<g id="Layer-1" data-name="P">
<clipPath id="cp26141">
<path transform="matrix(1,0,0,-1,0,841.92)" d="M .000008871 0 L 595.32 0 L 595.32 841.92 L .000008871 841.92 Z " fill-rule="evenodd"/>
</clipPath>
<g clip-path="url(#cp26141)">
<text xml:space="preserve" transform="matrix(1 0 -0 1 0 841.92)" font-size="14.04" font-family="Times New Roman,Bold" font-weight="bold"><tspan y="-216.98" x="120.5 130.58072 137.64284 143.8766 150.95278 155.51578 159.36273 163.30797 170.2718 177.33393 185.14017 196.76529 209.96288 219.32756 230.82631 238.63256 242.46547 246.4107 253.47283 261.15269 272.7778 276.62477 282.12843 289.93467 293.76759 300.7314 306.23509 314.04133">Yaratilgan MB bilan ishlash.</tspan></text>
</g>
<clipPath id="cp26142">
<path transform="matrix(1,0,0,-1,0,841.92)" d="M .000008871 0 L 595.32 0 L 595.32 841.92 L .000008871 841.92 Z " fill-rule="evenodd"/>
</clipPath>
<g clip-path="url(#cp26142)">
<text xml:space="preserve" transform="matrix(1 0 -0 1 0 841.92)" font-size="14.04" font-family="Times New Roman,Bold" font-weight="bold"><tspan y="-216.98" x="317.71"> </tspan></text>
</g>
<clipPath id="cp26143">
<path transform="matrix(1,0,0,-1,0,841.92)" d="M .000008871 0 L 595.32 0 L 595.32 841.92 L .000008871 841.92 Z " fill-rule="evenodd"/>
</clipPath>
<g clip-path="url(#cp26143)">
<text xml:space="preserve" transform="matrix(1 0 -0 1 0 841.92)" font-size="14.04" font-family="Times New Roman"><tspan y="-216.98" x="329.35 341.83158 351.19627 362.69505 369.75715 373.6041 377.54933 383.67076 390.73286 402.35798 406.20494 411.61033 418.67243 422.51939 428.75315 434.15855 441.22065 452.73347 459.79557 466.02934 472.99317 479.1146 486.1767 493.14054 499.3743 511.01347 517.9773 525.0394 531.87698 535.8222 542.88436 549.0058 555.96969 559.81668">MB bilan ishlash deganda quyidagi </tspan></text>
</g>
<clipPath id="cp26144">
<path transform="matrix(1,0,0,-1,0,841.92)" d="M .000008871 0 L 595.32 0 L 595.32 841.92 L .000008871 841.92 Z " fill-rule="evenodd"/>
</clipPath>
<g clip-path="url(#cp26144)">
<text xml:space="preserve" transform="matrix(1 0 -0 1 0 841.92)" font-size="14.04" font-family="Times New Roman"><tspan y="-192.86" x="85.104 89.04924 99.73368 106.7958 113.85792 120.92004 124.86528 131.70276 137.93653 141.88176 145.72872 151.96248 156.6378 160.1478 167.08356 173.31732 179.55109 185.78485 190.3619 197.42401 203.65778 207.02738 210.97261 217.93645 221.88169 225.72864 229.67388 235.79532 242.85744 246.70439">imkoniyatlar nazarda tutiladi:</tspan></text>
</g>
<clipPath id="cp26145">
<path transform="matrix(1,0,0,-1,0,841.92)" d="M .000008871 0 L 595.32 0 L 595.32 841.92 L .000008871 841.92 Z " fill-rule="evenodd"/>
</clipPath>
<g clip-path="url(#cp26145)">
<text xml:space="preserve" transform="matrix(1 0 -0 1 0 841.92)" font-size="14.04" font-family="Times New Roman"><tspan y="-192.86" x="250.73"> </tspan></text>
</g>
</g>
<g id="Layer-1" data-name="P">
<clipPath id="cp26146">
<path transform="matrix(1,0,0,-1,0,841.92)" d="M .000008871 0 L 595.32 0 L 595.32 841.92 L .000008871 841.92 Z " fill-rule="evenodd"/>
</clipPath>
<g clip-path="url(#cp26146)">
<text xml:space="preserve" transform="matrix(1 0 -0 1 0 841.92)" font-size="14.04" font-family="Wingdings"><tspan y="-168.74" x="138.5">&#xf0fc;</tspan></text>
</g>
<clipPath id="cp26147">
<path transform="matrix(1,0,0,-1,0,841.92)" d="M .000008871 0 L 595.32 0 L 595.32 841.92 L .000008871 841.92 Z " fill-rule="evenodd"/>
</clipPath>
<g clip-path="url(#cp26147)">
<text xml:space="preserve" transform="matrix(1 0 -0 1 0 841.92)" font-size="14.04" font-family="Arial"><tspan y="-168.74" x="149.54"> </tspan></text>
</g>
<clipPath id="cp26148">
<path transform="matrix(1,0,0,-1,0,841.92)" d="M .000008871 0 L 595.32 0 L 595.32 841.92 L .000008871 841.92 Z " fill-rule="evenodd"/>
</clipPath>
<g clip-path="url(#cp26148)">
<text xml:space="preserve" transform="matrix(1 0 -0 1 0 841.92)" font-size="14.04" font-family="Times New Roman"><tspan y="-168.74" x="156.5 163.56212 169.79589 174.4712 180.60669 187.66881 191.51576 195.461 198.971 209.62737">kerakli ma</tspan></text>
</g>
<clipPath id="cp26149">
<path transform="matrix(1,0,0,-1,0,841.92)" d="M .000008871 0 L 595.32 0 L 595.32 841.92 L .000008871 841.92 Z " fill-rule="evenodd"/>
</clipPath>
<g clip-path="url(#cp26149)">
<text xml:space="preserve" transform="matrix(1 0 -0 1 0 841.92)" font-size="14.04" font-family="Times New Roman"><tspan y="-168.74" x="215.93">&#x2019;</tspan></text>
</g>
<clipPath id="cp26150">
<path transform="matrix(1,0,0,-1,0,841.92)" d="M .000008871 0 L 595.32 0 L 595.32 841.92 L .000008871 841.92 Z " fill-rule="evenodd"/>
</clipPath>
<g clip-path="url(#cp26150)">
<text xml:space="preserve" transform="matrix(1 0 -0 1 0 841.92)" font-size="14.04" font-family="Times New Roman"><tspan y="-168.74" x="220.49 224.43524 231.62374 242.30818 249.3703 253.31554 257.26078 263.49455 268.05754 275.11964 278.96659 282.4766 286.3797 292.61347">lumotlarni izl</tspan></text>
</g>
<clipPath id="cp26151">
<path transform="matrix(1,0,0,-1,0,841.92)" d="M .000008871 0 L 595.32 0 L 595.32 841.92 L .000008871 841.92 Z " fill-rule="evenodd"/>
</clipPath>
<g clip-path="url(#cp26151)">
<text xml:space="preserve" transform="matrix(1 0 -0 1 0 841.92)" font-size="14.04" font-family="Times New Roman"><tspan y="-168.74" x="296.69 302.81144 308.21684 315.27894">ash;</tspan></text>
</g>
<clipPath id="cp26152">
<path transform="matrix(1,0,0,-1,0,841.92)" d="M .000008871 0 L 595.32 0 L 595.32 841.92 L .000008871 841.92 Z " fill-rule="evenodd"/>
</clipPath>
<g clip-path="url(#cp26152)">
<text xml:space="preserve" transform="matrix(1 0 -0 1 0 841.92)" font-size="14.04" font-family="Times New Roman"><tspan y="-168.74" x="319.15"> </tspan></text>
</g>
<clipPath id="cp26153">
<path transform="matrix(1,0,0,-1,0,841.92)" d="M .000008871 0 L 595.32 0 L 595.32 841.92 L .000008871 841.92 Z " fill-rule="evenodd"/>
</clipPath>
<g clip-path="url(#cp26153)">
</g>
</g>
<g id="Layer-1" data-name="P">
<clipPath id="cp26154">
<path transform="matrix(1,0,0,-1,0,841.92)" d="M .000008871 0 L 595.32 0 L 595.32 841.92 L .000008871 841.92 Z " fill-rule="evenodd"/>
</clipPath>
<g clip-path="url(#cp26154)">
<text xml:space="preserve" transform="matrix(1 0 -0 1 0 841.92)" font-size="14.04" font-family="Wingdings"><tspan y="-144.5" x="138.5">&#xf0fc;</tspan></text>
</g>
<clipPath id="cp26155">
<path transform="matrix(1,0,0,-1,0,841.92)" d="M .000008871 0 L 595.32 0 L 595.32 841.92 L .000008871 841.92 Z " fill-rule="evenodd"/>
</clipPath>
<g clip-path="url(#cp26155)">
<text xml:space="preserve" transform="matrix(1 0 -0 1 0 841.92)" font-size="14.04" font-family="Arial"><tspan y="-144.5" x="149.54"> </tspan></text>
</g>
<clipPath id="cp26156">
<path transform="matrix(1,0,0,-1,0,841.92)" d="M .000008871 0 L 595.32 0 L 595.32 841.92 L .000008871 841.92 Z " fill-rule="evenodd"/>
</clipPath>
<g clip-path="url(#cp26156)">
<text xml:space="preserve" transform="matrix(1 0 -0 1 0 841.92)" font-size="14.04" font-family="Times New Roman"><tspan y="-144.5" x="156.5 167.30013">ma</tspan></text>
</g>
<clipPath id="cp26157">
<path transform="matrix(1,0,0,-1,0,841.92)" d="M .000008871 0 L 595.32 0 L 595.32 841.92 L .000008871 841.92 Z " fill-rule="evenodd"/>
</clipPath>
<g clip-path="url(#cp26157)">
<text xml:space="preserve" transform="matrix(1 0 -0 1 0 841.92)" font-size="14.04" font-family="Times New Roman"><tspan y="-144.5" x="173.54">&#x2019;</tspan></text>
</g>
<clipPath id="cp26158">
<path transform="matrix(1,0,0,-1,0,841.92)" d="M .000008871 0 L 595.32 0 L 595.32 841.92 L .000008871 841.92 Z " fill-rule="evenodd"/>
</clipPath>
<g clip-path="url(#cp26158)">
<text xml:space="preserve" transform="matrix(1 0 -0 1 0 841.92)" font-size="14.04" font-family="Times New Roman"><tspan y="-144.5" x="178.1 182.04524 189.23374 199.91819 206.9803 210.92554 214.87078 221.10454 225.66754 232.63138 236.57662 240.08661 245.54817 251.78194 256.37303 262.60679 266.552 272.67344 278.07884 285.14094">lumotlarni saralash;</tspan></text>
</g>
<clipPath id="cp26159">
<path transform="matrix(1,0,0,-1,0,841.92)" d="M .000008871 0 L 595.32 0 L 595.32 841.92 L .000008871 841.92 Z " fill-rule="evenodd"/>
</clipPath>
<g clip-path="url(#cp26159)">
<text xml:space="preserve" transform="matrix(1 0 -0 1 0 841.92)" font-size="14.04" font-family="Times New Roman"><tspan y="-144.5" x="289.13"> </tspan></text>
</g>
<clipPath id="cp26160">
<path transform="matrix(1,0,0,-1,0,841.92)" d="M .000008871 0 L 595.32 0 L 595.32 841.92 L .000008871 841.92 Z " fill-rule="evenodd"/>
</clipPath>
<g clip-path="url(#cp26160)">
</g>
</g>
<g id="Layer-1" data-name="P">
<clipPath id="cp26161">
<path transform="matrix(1,0,0,-1,0,841.92)" d="M .000008871 0 L 595.32 0 L 595.32 841.92 L .000008871 841.92 Z " fill-rule="evenodd"/>
</clipPath>
<g clip-path="url(#cp26161)">
<text xml:space="preserve" transform="matrix(1 0 -0 1 0 841.92)" font-size="14.04" font-family="Wingdings"><tspan y="-120.38" x="138.5">&#xf0fc;</tspan></text>
</g>
<clipPath id="cp26162">
<path transform="matrix(1,0,0,-1,0,841.92)" d="M .000008871 0 L 595.32 0 L 595.32 841.92 L .000008871 841.92 Z " fill-rule="evenodd"/>
</clipPath>
<g clip-path="url(#cp26162)">
<text xml:space="preserve" transform="matrix(1 0 -0 1 0 841.92)" font-size="14.04" font-family="Arial"><tspan y="-120.38" x="149.54"> </tspan></text>
</g>
<clipPath id="cp26163">
<path transform="matrix(1,0,0,-1,0,841.92)" d="M .000008871 0 L 595.32 0 L 595.32 841.92 L .000008871 841.92 Z " fill-rule="evenodd"/>
</clipPath>
<g clip-path="url(#cp26163)">
<text xml:space="preserve" transform="matrix(1 0 -0 1 0 841.92)" font-size="14.04" font-family="Times New Roman"><tspan y="-120.38" x="156.5 167.30013">ma</tspan></text>
</g>
<clipPath id="cp26164">
<path transform="matrix(1,0,0,-1,0,841.92)" d="M .000008871 0 L 595.32 0 L 595.32 841.92 L .000008871 841.92 Z " fill-rule="evenodd"/>
</clipPath>
<g clip-path="url(#cp26164)">
<text xml:space="preserve" transform="matrix(1 0 -0 1 0 841.92)" font-size="14.04" font-family="Times New Roman"><tspan y="-120.38" x="173.54">&#x2019;</tspan></text>
</g>
<clipPath id="cp26165">
<path transform="matrix(1,0,0,-1,0,841.92)" d="M .000008871 0 L 595.32 0 L 595.32 841.92 L .000008871 841.92 Z " fill-rule="evenodd"/>
</clipPath>
<g clip-path="url(#cp26165)">
<text xml:space="preserve" transform="matrix(1 0 -0 1 0 841.92)" font-size="14.04" font-family="Times New Roman"><tspan y="-120.38" x="178.1 182.04524 189.23374 199.91819 206.9803 210.92554 214.87078 221.10454 225.66754 232.63138 236.57662 240.08661 243.98973 250.13925 257.20137 261.0483 267.28208 274.35823 277.71379 284.77589 288.62284 292.56806 297.97346 304.9373">lumotlarni tanlab olish;</tspan></text>
</g>
<clipPath id="cp26166">
<path transform="matrix(1,0,0,-1,0,841.92)" d="M .000008871 0 L 595.32 0 L 595.32 841.92 L .000008871 841.92 Z " fill-rule="evenodd"/>
</clipPath>
<g clip-path="url(#cp26166)">
<text xml:space="preserve" transform="matrix(1 0 -0 1 0 841.92)" font-size="14.04" font-family="Times New Roman"><tspan y="-120.38" x="308.93"> </tspan></text>
</g>
<clipPath id="cp26167">
<path transform="matrix(1,0,0,-1,0,841.92)" d="M .000008871 0 L 595.32 0 L 595.32 841.92 L .000008871 841.92 Z " fill-rule="evenodd"/>
</clipPath>
<g clip-path="url(#cp26167)">
</g>
</g>
<g id="Layer-1" data-name="P">
<clipPath id="cp26168">
<path transform="matrix(1,0,0,-1,0,841.92)" d="M .000008871 0 L 595.32 0 L 595.32 841.92 L .000008871 841.92 Z " fill-rule="evenodd"/>
</clipPath>
<g clip-path="url(#cp26168)">
<text xml:space="preserve" transform="matrix(1 0 -0 1 0 841.92)" font-size="14.04" font-family="Wingdings"><tspan y="-96.264" x="138.5">&#xf0fc;</tspan></text>
</g>
<clipPath id="cp26169">
<path transform="matrix(1,0,0,-1,0,841.92)" d="M .000008871 0 L 595.32 0 L 595.32 841.92 L .000008871 841.92 Z " fill-rule="evenodd"/>
</clipPath>
<g clip-path="url(#cp26169)">
<text xml:space="preserve" transform="matrix(1 0 -0 1 0 841.92)" font-size="14.04" font-family="Arial"><tspan y="-96.264" x="149.54"> </tspan></text>
</g>
<clipPath id="cp26170">
<path transform="matrix(1,0,0,-1,0,841.92)" d="M .000008871 0 L 595.32 0 L 595.32 841.92 L .000008871 841.92 Z " fill-rule="evenodd"/>
</clipPath>
<g clip-path="url(#cp26170)">
<text xml:space="preserve" transform="matrix(1 0 -0 1 0 841.92)" font-size="14.04" font-family="Times New Roman"><tspan y="-96.264" x="156.5 162.73377 169.6976 176.75972 183.82184 187.33184 193.4252 197.37044 201.21739 206.62279 213.6849">chop etish;</tspan></text>
</g>
<clipPath id="cp26171">
<path transform="matrix(1,0,0,-1,0,841.92)" d="M .000008871 0 L 595.32 0 L 595.32 841.92 L .000008871 841.92 Z " fill-rule="evenodd"/>
</clipPath>
<g clip-path="url(#cp26171)">
<text xml:space="preserve" transform="matrix(1 0 -0 1 0 841.92)" font-size="14.04" font-family="Times New Roman"><tspan y="-96.264" x="217.61"> </tspan></text>
</g>
<clipPath id="cp26172">
<path transform="matrix(1,0,0,-1,0,841.92)" d="M .000008871 0 L 595.32 0 L 595.32 841.92 L .000008871 841.92 Z " fill-rule="evenodd"/>
</clipPath>
<g clip-path="url(#cp26172)">
</g>
</g>
<g id="Layer-1" data-name="P">
<clipPath id="cp26173">
<path transform="matrix(1,0,0,-1,0,841.92)" d="M .000008871 0 L 595.32 0 L 595.32 841.92 L .000008871 841.92 Z " fill-rule="evenodd"/>
</clipPath>
<g clip-path="url(#cp26173)">
<text xml:space="preserve" transform="matrix(1 0 -0 1 0 841.92)" font-size="14.04" font-family="Wingdings"><tspan y="-72.144" x="138.5">&#xf0fc;</tspan></text>
</g>
<clipPath id="cp26174">
<path transform="matrix(1,0,0,-1,0,841.92)" d="M .000008871 0 L 595.32 0 L 595.32 841.92 L .000008871 841.92 Z " fill-rule="evenodd"/>
</clipPath>
<g clip-path="url(#cp26174)">
<text xml:space="preserve" transform="matrix(1 0 -0 1 0 841.92)" font-size="14.04" font-family="Arial"><tspan y="-72.144" x="149.54"> </tspan></text>
</g>
<clipPath id="cp26175">
<path transform="matrix(1,0,0,-1,0,841.92)" d="M .000008871 0 L 595.32 0 L 595.32 841.92 L .000008871 841.92 Z " fill-rule="evenodd"/>
</clipPath>
<g clip-path="url(#cp26175)">
<text xml:space="preserve" transform="matrix(1 0 -0 1 0 841.92)" font-size="14.04" font-family="Times New Roman"><tspan y="-72.144" x="156.5 167.30013">ma</tspan></text>
</g>
<clipPath id="cp26176">
<path transform="matrix(1,0,0,-1,0,841.92)" d="M .000008871 0 L 595.32 0 L 595.32 841.92 L .000008871 841.92 Z " fill-rule="evenodd"/>
</clipPath>
<g clip-path="url(#cp26176)">
<text xml:space="preserve" transform="matrix(1 0 -0 1 0 841.92)" font-size="14.04" font-family="Times New Roman"><tspan y="-72.144" x="173.54">&#x2019;</tspan></text>
</g>
<clipPath id="cp26177">
<path transform="matrix(1,0,0,-1,0,841.92)" d="M .000008871 0 L 595.32 0 L 595.32 841.92 L .000008871 841.92 Z " fill-rule="evenodd"/>
</clipPath>
<g clip-path="url(#cp26177)">
<text xml:space="preserve" transform="matrix(1 0 -0 1 0 841.92)" font-size="14.04" font-family="Times New Roman"><tspan y="-72.144" x="178.1 182.04524 189.23374 199.91819 206.9803 210.92554 214.87078 221.10454 225.66754 232.63138 236.57662 240.08661">lumotlarni o</tspan></text>
</g>
<clipPath id="cp26178">
<path transform="matrix(1,0,0,-1,0,841.92)" d="M .000008871 0 L 595.32 0 L 595.32 841.92 L .000008871 841.92 Z " fill-rule="evenodd"/>
</clipPath>
<g clip-path="url(#cp26178)">
<text xml:space="preserve" transform="matrix(1 0 -0 1 0 841.92)" font-size="14.04" font-family="Times New Roman"><tspan y="-72.144" x="247.25">&#x2019;</tspan></text>
</g>
<clipPath id="cp26179">
<path transform="matrix(1,0,0,-1,0,841.92)" d="M .000008871 0 L 595.32 0 L 595.32 841.92 L .000008871 841.92 Z " fill-rule="evenodd"/>
</clipPath>
<g clip-path="url(#cp26179)">
<text xml:space="preserve" transform="matrix(1 0 -0 1 0 841.92)" font-size="14.04" font-family="Times New Roman"><tspan y="-72.144" x="251.81 258.04377 265.1199 271.35368 275.91667 279.86189 283.8071 288.3701 292.3153 297.7207 304.7828 308.13838 315.20048 321.43424 324.94425 328.76313">zgartirish va to</tspan></text>
</g>
<clipPath id="cp26180">
<path transform="matrix(1,0,0,-1,0,841.92)" d="M .000008871 0 L 595.32 0 L 595.32 841.92 L .000008871 841.92 Z " fill-rule="evenodd"/>
</clipPath>
<g clip-path="url(#cp26180)">
<text xml:space="preserve" transform="matrix(1 0 -0 1 0 841.92)" font-size="14.04" font-family="Times New Roman"><tspan y="-72.144" x="335.95">&#x2019;</tspan></text>
</g>
<clipPath id="cp26181">
<path transform="matrix(1,0,0,-1,0,841.92)" d="M .000008871 0 L 595.32 0 L 595.32 841.92 L .000008871 841.92 Z " fill-rule="evenodd"/>
</clipPath>
<g clip-path="url(#cp26181)">
<text xml:space="preserve" transform="matrix(1 0 -0 1 0 841.92)" font-size="14.04" font-family="Times New Roman"><tspan y="-72.144" x="340.51 344.45524 351.41908 355.3643 359.92729 363.8725 369.2779 376.34">ldirish.</tspan></text>
</g>
<clipPath id="cp26182">
<path transform="matrix(1,0,0,-1,0,841.92)" d="M .000008871 0 L 595.32 0 L 595.32 841.92 L .000008871 841.92 Z " fill-rule="evenodd"/>
</clipPath>
<g clip-path="url(#cp26182)">
<text xml:space="preserve" transform="matrix(1 0 -0 1 0 841.92)" font-size="14.04" font-family="Times New Roman"><tspan y="-72.144" x="379.75"> </tspan></text>
</g>
<clipPath id="cp26183">
<path transform="matrix(1,0,0,-1,0,841.92)" d="M .000008871 0 L 595.32 0 L 595.32 841.92 L .000008871 841.92 Z " fill-rule="evenodd"/>
</clipPath>
<g clip-path="url(#cp26183)">
</g>
</g>
</g>
</g>
</svg>
