<?xml version="1.0" encoding="UTF-8" standalone="no"?>
<!DOCTYPE svg PUBLIC "-//W3C//DTD SVG 1.1//EN" "http://www.w3.org/Graphics/SVG/1.1/DTD/svg11.dtd">
<svg xmlns="http://www.w3.org/2000/svg" xmlns:xlink="http://www.w3.org/1999/xlink" version="1.1" width="595.32pt" height="841.92pt" viewBox="0 0 595.32 841.92">
<g enable-background="new">
<g>
<g id="Layer-1" data-name="Artifact">
<clipPath id="cp1708">
<path transform="matrix(1,0,0,-1,0,841.92)" d="M .000008871 0 L 595.32 0 L 595.32 841.92 L .000008871 841.92 Z " fill-rule="evenodd"/>
</clipPath>
<g clip-path="url(#cp1708)">
<text xml:space="preserve" transform="matrix(1 0 -0 1 0 841.92)" font-size="11.04" font-family="Calibri"><tspan y="-51.864" x="313.37 319.00999">17</tspan></text>
</g>
<clipPath id="cp1709">
<path transform="matrix(1,0,0,-1,0,841.92)" d="M .000008871 0 L 595.32 0 L 595.32 841.92 L .000008871 841.92 Z " fill-rule="evenodd"/>
</clipPath>
<g clip-path="url(#cp1709)">
<text xml:space="preserve" transform="matrix(1 0 -0 1 0 841.92)" font-size="11.04" font-family="Calibri"><tspan y="-51.864" x="324.67"> </tspan></text>
</g>
<clipPath id="cp1710">
<path transform="matrix(1,0,0,-1,0,841.92)" d="M .000008871 0 L 595.32 0 L 595.32 841.92 L .000008871 841.92 Z " fill-rule="evenodd"/>
</clipPath>
<g clip-path="url(#cp1710)">
</g>
<clipPath id="cp1711">
<path transform="matrix(1,0,0,-1,0,841.92)" d="M .000008871 0 L 595.32 0 L 595.32 841.92 L .000008871 841.92 Z " fill-rule="evenodd"/>
</clipPath>
<g clip-path="url(#cp1711)">
<text xml:space="preserve" transform="matrix(1 0 -0 1 0 841.92)" font-size="11.04" font-family="Calibri"><tspan y="-38.4" x="85.104"> </tspan></text>
</g>
<clipPath id="cp1712">
<path transform="matrix(1,0,0,-1,0,841.92)" d="M .000008871 0 L 595.32 0 L 595.32 841.92 L .000008871 841.92 Z " fill-rule="evenodd"/>
</clipPath>
<g clip-path="url(#cp1712)">
</g>
</g>
<g id="Layer-1" data-name="P">
<path transform="matrix(1,0,0,-1,0,841.92)" d="M 86.064 769.2 L 551.734 769.2 L 551.734 785.64 L 86.064 785.64 Z " fill="#ffffff" fill-rule="evenodd"/>
</g>
<g id="Layer-1" data-name="P">
<clipPath id="cp1713">
<path transform="matrix(1,0,0,-1,0,841.92)" d="M .000008871 0 L 595.32 0 L 595.32 841.92 L .000008871 841.92 Z " fill-rule="evenodd"/>
</clipPath>
<g clip-path="url(#cp1713)">
<text xml:space="preserve" transform="matrix(1 0 -0 1 0 841.92)" font-size="14.04" font-family="Times New Roman"><tspan y="-772.56" x="86.064 92.18544 96.0324 106.59048 112.711917 118.11732 125.081157 128.9281 135.89194 139.73889 145.01793 151.98177 155.82872 162.89084 168.29624 175.26007 179.82308 185.81816 189.66512 193.38571 200.34955 206.34464 213.30847 220.37059 227.33443 231.77108 237.89252 241.73947 248.70331 255.76543 262.72929 268.8507 272.69767 278.8191 285.78294 289.5035 293.35047 300.4126 310.36695 316.48838 320.33534 327.1728 334.13664 339.54203 343.38899 349.5104 356.57255 360.4195 366.54093 370.97758 374.82453 378.67149 389.35594 396.41807 403.3819 409.50334 416.6918 423.41697 429.5384 436.50224 443.46607 447.31303 454.37516 458.2221 465.18595 469.0329 472.87986 478.15888 485.1227 490.40174 494.2487 497.96928 504.9331 511.99525 518.9591 522.8061 526.52676 531.9321 538.76968 545.7335 551.7286">almashinishi suratidan o&#x2018;zib k&#x0435;tadi; Uzluksiz ta&#x2019;lim va yangi ixtisoslik olishga </tspan></text>
</g>
<path transform="matrix(1,0,0,-1,0,841.92)" d="M 86.064 744.94 L 551.734 744.94 L 551.734 761.404 L 86.064 761.404 Z " fill="#ffffff" fill-rule="evenodd"/>
</g>
<g id="Layer-1" data-name="P">
<clipPath id="cp1714">
<path transform="matrix(1,0,0,-1,0,841.92)" d="M .000008871 0 L 595.32 0 L 595.32 841.92 L .000008871 841.92 Z " fill-rule="evenodd"/>
</clipPath>
<g clip-path="url(#cp1714)">
<text xml:space="preserve" transform="matrix(1 0 -0 1 0 841.92)" font-size="14.04" font-family="Times New Roman"><tspan y="-748.3" x="86.064 93.02784 99.99168 106.829158 110.67612 114.39672 118.24368 124.96884 131.09029 134.93724 139.72487 145.13027 152.0941 158.21555 165.05303 170.45842 177.2959 181.14286 187.98033 194.94417 199.7318 203.57875 207.29935 211.1463 214.99326 225.55135 232.51519 236.46042 243.18558 247.9732 253.3786 257.22557 263.347 267.19395 274.0314 279.4368 283.28376 290.12123 293.96818 298.75584">qobiliyat shaxsning ijtimoiy statusini s</tspan></text>
</g>
</g>
<g id="Layer-1" data-name="P">
<clipPath id="cp1715">
<path transform="matrix(1,0,0,-1,0,841.92)" d="M .000008871 0 L 595.32 0 L 595.32 841.92 L .000008871 841.92 Z " fill-rule="evenodd"/>
</clipPath>
<g clip-path="url(#cp1715)">
<text xml:space="preserve" transform="matrix(1 0 -0 1 0 841.92)" font-size="14.04" font-family="Times New Roman"><tspan y="-748.3" x="304.13 310.1251 317.08894 320.93589 326.93098 333.8948 338.68247 345.51994 352.48377 356.33073 360.0513 365.4567 372.29417 379.258 382.97859 389.9424 396.90626 401.6939 407.81535 411.53593 416.0989 422.22035 426.0673 436.62538 442.7468 448.1522 452.93986 459.9037 463.75065 469.15605 479.7141 483.56108 490.5249 496.64634 501.434 507.55543 514.2806 518.12759 524.249 531.2129 537.33438 544.2982 548.01889 551.7395">aqlab qolishning ajralmas qismiga aylanadi; </tspan></text>
</g>
<path transform="matrix(1,0,0,-1,0,841.92)" d="M 86.064 720.82 L 551.734 720.82 L 551.734 737.26 L 86.064 737.26 Z " fill="#ffffff" fill-rule="evenodd"/>
</g>
<g id="Layer-1" data-name="P">
<clipPath id="cp1716">
<path transform="matrix(1,0,0,-1,0,841.92)" d="M .000008871 0 L 595.32 0 L 595.32 841.92 L .000008871 841.92 Z " fill-rule="evenodd"/>
</clipPath>
<g clip-path="url(#cp1716)">
<text xml:space="preserve" transform="matrix(1 0 -0 1 0 841.92)" font-size="14.04" font-family="Times New Roman"><tspan y="-724.18" x="86.064 96.018367 102.1398 106.702808 113.04889 120.012729 123.85969 128.42269 134.76876 138.48935 145.45319 150.73223 157.69606 164.53354 171.49738 175.34433 182.18181 189.14565 195.36536 199.21231 205.2074 212.17124 219.13507 222.98203 227.41867 231.26563 237.6117 244.33686 250.4583 257.42216 264.386 268.23295 274.57905 280.57414 287.53797 294.37544 301.33927 305.90226 312.8661 316.58668 323.5505 327.2711 333.6172 340.58103 345.01768 351.1391 357.4852 364.44905 370.57048 377.5343 381.25489 385.10185 392.06568 398.1871 404.40684 408.25379 415.09126 422.05509 425.77568 431.18107 438.1449 441.50047 447.72019 454.68403 458.53099 462.25157 467.65696 474.6208 477.97636 484.19609 491.1599 495.00688 499.56986 505.78959 512.7534 516.6004 523.4379 533.996 540.11746 543.9644 547.8114 551.6584">Har bir insonning taqdiri yangi axborotni o&#x2018;z vaqtida topish, olish, bir qiymatli </tspan></text>
</g>
<path transform="matrix(1,0,0,-1,0,841.92)" d="M 86.064 696.7 L 442.654 696.7 L 442.654 713.14 L 86.064 713.14 Z " fill="#ffffff" fill-rule="evenodd"/>
</g>
<g id="Layer-1" data-name="P">
<clipPath id="cp1717">
<path transform="matrix(1,0,0,-1,0,841.92)" d="M .000008871 0 L 595.32 0 L 595.32 841.92 L .000008871 841.92 Z " fill-rule="evenodd"/>
</clipPath>
<g clip-path="url(#cp1717)">
<text xml:space="preserve" transform="matrix(1 0 -0 1 0 841.92)" font-size="14.04" font-family="Times New Roman"><tspan y="-700.06" x="86.064 93.02784 99.14928 105.986759 112.95059 116.797557 120.153118 126.99059 130.83754 134.6845 138.40509 143.81049 150.77433 154.12989 160.96736 167.0888 170.44437 175.84976 181.9712 192.5293 198.65074 203.32607 209.44751 213.29447 217.14142 220.49698 225.05998 232.02382 238.74898 245.71282 251.83426 255.68122 261.80265 268.76649 272.48707 277.89247 284.8563 288.09956 295.0634 301.90086 308.8647 312.71165 316.43223 320.1528 326.87797 332.9994 336.84635 340.6933 347.65715 353.77857 357.13414 364.09797 371.0618 378.02565 382.46229 386.30924 390.1562 397.12004 400.36329 407.32713 414.29096 418.7276 422.57456 428.69599 435.65983 439.50679">qabul qilish va samarali foydalanish qobiliyatiga bog&#x2018;liq bo&#x2018;ladi.</tspan></text>
</g>
</g>
<g id="Layer-1" data-name="P">
<clipPath id="cp1718">
<path transform="matrix(1,0,0,-1,0,841.92)" d="M .000008871 0 L 595.32 0 L 595.32 841.92 L .000008871 841.92 Z " fill-rule="evenodd"/>
</clipPath>
<g clip-path="url(#cp1718)">
<text xml:space="preserve" transform="matrix(1 0 -0 1 0 841.92)" font-size="14.04" font-family="Times New Roman"><tspan y="-700.06" x="442.66"> </tspan></text>
</g>
</g>
<g id="Layer-1" data-name="P">
<path transform="matrix(1,0,0,-1,0,841.92)" d="M 120.5 672.58 L 551.73 672.58 L 551.73 689.02 L 120.5 689.02 Z " fill="#ffffff" fill-rule="evenodd"/>
</g>
<g id="Layer-1" data-name="P">
<clipPath id="cp1719">
<path transform="matrix(1,0,0,-1,0,841.92)" d="M .000008871 0 L 595.32 0 L 595.32 841.92 L .000008871 841.92 Z " fill-rule="evenodd"/>
</clipPath>
<g clip-path="url(#cp1719)">
<text xml:space="preserve" transform="matrix(1 0 -0 1 0 841.92)" font-size="14.04" font-family="Times New Roman"><tspan y="-675.94" x="120.5 125.063 132.02684 137.43224 144.26972 151.23355 155.0805 161.80567 167.92711 171.77407 180.6333 186.0387 189.88565 196.72313 200.57009 204.29068 208.13764 214.25908 220.38053 224.22748 229.50652 233.35347 240.19095 246.3124 251.71779 255.56475 262.40223 266.24919 273.08665 280.05049 288.90974 295.03117 301.86863 308.83247 315.7963 320.35929 327.19676 331.0437 334.89067 340.88575 346.29115 353.1286 359.96607 366.0875 373.05134 381.91059 385.63117 391.86494 402.43705 406.38227 413.10743 419.22886 423.0758 430.03965 436.16108 445.02033 451.98417 458.1056 465.06944 471.19087 481.8753 490.73457 497.6984">Insoniyat sivilizatsiyasining axborotlashgan jamiyatga qadam qo</tspan></text>
</g>
</g>
<g id="Layer-1" data-name="P">
<clipPath id="cp1720">
<path transform="matrix(1,0,0,-1,0,841.92)" d="M .000008871 0 L 595.32 0 L 595.32 841.92 L .000008871 841.92 Z " fill-rule="evenodd"/>
</clipPath>
<g clip-path="url(#cp1720)">
<text xml:space="preserve" transform="matrix(1 0 -0 1 0 841.92)" font-size="14.04" font-family="Times New Roman"><tspan y="-675.94" x="504.7 509.263 515.98818 519.83517 525.24057 532.2044 536.0514">&#x2018;yishi </tspan></text>
</g>
</g>
<g id="Layer-1" data-name="P">
<clipPath id="cp1721">
<path transform="matrix(1,0,0,-1,0,841.92)" d="M .000008871 0 L 595.32 0 L 595.32 841.92 L .000008871 841.92 Z " fill-rule="evenodd"/>
</clipPath>
<g clip-path="url(#cp1721)">
<text xml:space="preserve" transform="matrix(1 0 -0 1 0 841.92)" font-size="14.04" font-family="Times New Roman"><tspan y="-675.94" x="544.9">&#x2013;</tspan></text>
</g>
</g>
<g id="Layer-1" data-name="P">
<clipPath id="cp1722">
<path transform="matrix(1,0,0,-1,0,841.92)" d="M .000008871 0 L 595.32 0 L 595.32 841.92 L .000008871 841.92 Z " fill-rule="evenodd"/>
</clipPath>
<g clip-path="url(#cp1722)">
<text xml:space="preserve" transform="matrix(1 0 -0 1 0 841.92)" font-size="14.04" font-family="Times New Roman"><tspan y="-675.94" x="551.74 555.1">  </tspan></text>
</g>
<path transform="matrix(1,0,0,-1,0,841.92)" d="M 86.064 648.34 L 551.734 648.34 L 551.734 664.78 L 86.064 664.78 Z " fill="#ffffff" fill-rule="evenodd"/>
</g>
<g id="Layer-1" data-name="P">
<clipPath id="cp1723">
<path transform="matrix(1,0,0,-1,0,841.92)" d="M .000008871 0 L 595.32 0 L 595.32 841.92 L .000008871 841.92 Z " fill-rule="evenodd"/>
</clipPath>
<g clip-path="url(#cp1723)">
<text xml:space="preserve" transform="matrix(1 0 -0 1 0 841.92)" font-size="14.04" font-family="Times New Roman"><tspan y="-651.7" x="86.064 89.910968 96.8748 102.15385 109.11768 115.95516 119.802127 125.92356 130.48656 137.32404 141.17099 147.27838 154.00354 160.12499 167.08882 174.05266 177.89962 184.007 190.97084 197.09229 203.81745 210.78128 214.62824 220.73563 226.01467 232.9785 239.09995 243.66295 250.50043 254.34738 258.06797 261.91493 268.87876 275.00019 280.98124 287.94508 294.0665 300.17393 306.89909 313.8629 320.82676 327.7906 332.35359 336.20054 342.30796 348.42939 355.26686 359.1138 366.07765 376.6357 382.75715 386.6041 390.45106 396.57249 401.97789 408.81535 412.6623 416.50926 421.07225 424.79283 428.63978 435.6036 441.5987 448.56254 454.66996 460.79139 467.75523 474.59269 481.55653 486.1195 492.95698 496.80393 502.91136 513.4694 520.4333 527.39718 531.24417 535.0911 538.81179 545.77566 551.7707">insonlarni yangi hayot sharoitiga va yuqori avtomatlashtirilgan axborot muhitida </tspan></text>
</g>
<path transform="matrix(1,0,0,-1,0,841.92)" d="M 86.064 624.22 L 551.734 624.22 L 551.734 640.66 L 86.064 640.66 Z " fill="#ffffff" fill-rule="evenodd"/>
</g>
<g id="Layer-1" data-name="P">
<clipPath id="cp1724">
<path transform="matrix(1,0,0,-1,0,841.92)" d="M .000008871 0 L 595.32 0 L 595.32 841.92 L .000008871 841.92 Z " fill-rule="evenodd"/>
</clipPath>
<g clip-path="url(#cp1724)">
<text xml:space="preserve" transform="matrix(1 0 -0 1 0 841.92)" font-size="14.04" font-family="Times New Roman"><tspan y="-627.58" x="86.064 93.02784 97.59084 104.55468 109.11768 115.23912 120.518169 125.92357 129.64417 136.608 143.57184 149.56693 153.41388 156.76944 161.33245 167.45389 174.41773 178.26468 182.11164 188.83679 194.95824 198.80519 205.64267 211.76412 215.11968 222.08351 226.52016 232.75392 236.12352 243.08736 249.2088 256.17265 260.0196 263.86656 270.83039 276.9518 280.30738 284.15434 290.27577 297.11323 303.83839 310.80223 315.3652 319.21217 325.3336 330.73899 337.70283 341.05839 344.41395 351.37779 358.3416 361.85163 372.38163 379.34547 386.3093 390.15626 394.0032 400.96705 407.08848 410.44404 421.0021 427.96595 433.37135 437.2183 443.33973 450.30357 454.1505 457.99748 461.35304 465.91603 472.03746 479.00129 482.72187 488.12727 494.96473 501.92857 508.05 511.40556 518.3694 524.49087 529.05386 535.1753 542.13919 548.1342 551.85488">prof&#x0435;ssional faoliyatga o&#x2018;z vaqtida tayyorlash, bu muhitda mustaqil ravishda harakat </tspan></text>
</g>
<path transform="matrix(1,0,0,-1,0,841.92)" d="M 86.064 600.1 L 551.734 600.1 L 551.734 616.54 L 86.064 616.54 Z " fill="#ffffff" fill-rule="evenodd"/>
</g>
<g id="Layer-1" data-name="P">
<clipPath id="cp1725">
<path transform="matrix(1,0,0,-1,0,841.92)" d="M .000008871 0 L 595.32 0 L 595.32 841.92 L .000008871 841.92 Z " fill-rule="evenodd"/>
</clipPath>
<g clip-path="url(#cp1725)">
<text xml:space="preserve" transform="matrix(1 0 -0 1 0 841.92)" font-size="14.04" font-family="Times New Roman"><tspan y="-603.46" x="86.064 93.02784 96.8748 100.595409 104.44237 109.72141 116.68525 123.649089 129.77053 133.12609 143.5578 154.11589 161.07973 168.04357 171.89052 175.73748 186.16919 190.01615 200.57424 207.63636 214.60019 221.56403 225.41098 232.13614 238.25759 242.10454 245.95149 252.07294 256.63594 260.3565 267.32035 273.44178 280.4056 290.71098 296.11637 302.2378 312.79588 318.9173 323.4803 329.71406 333.561 337.40797 347.8397 352.40269 359.36653 366.09169 373.0555 379.17695 383.0239 389.14533 395.9828 399.82975 405.23515 412.19898 422.50434 429.46818 435.5896 446.02134 451.30036 457.42179 461.26875 468.23258 472.07954 478.8047 489.23643 493.08338 499.2048 503.64146 509.04685 512.8938 517.4568 521.3038 527.42526 531.9882 538.9521 544.94717 551.78469">qilishga, muhit imkoniyatlaridan samarali foydalanish va salbiy ta&#x2019;sirlardan </tspan></text>
</g>
<path transform="matrix(1,0,0,-1,0,841.92)" d="M 86.064 575.98 L 551.734 575.98 L 551.734 592.42 L 86.064 592.42 Z " fill="#ffffff" fill-rule="evenodd"/>
</g>
<g id="Layer-1" data-name="P">
<clipPath id="cp1726">
<path transform="matrix(1,0,0,-1,0,841.92)" d="M .000008871 0 L 595.32 0 L 595.32 841.92 L .000008871 841.92 Z " fill-rule="evenodd"/>
</clipPath>
<g clip-path="url(#cp1726)">
<text xml:space="preserve" transform="matrix(1 0 -0 1 0 841.92)" font-size="14.04" font-family="Times New Roman"><tspan y="-579.34" x="86.064 93.024 96.86712">him</tspan></text>
</g>
</g>
<g id="Layer-1" data-name="P">
<clipPath id="cp1727">
<path transform="matrix(1,0,0,-1,0,841.92)" d="M .000008871 0 L 595.32 0 L 595.32 841.92 L .000008871 841.92 Z " fill-rule="evenodd"/>
</clipPath>
<g clip-path="url(#cp1727)">
<text xml:space="preserve" transform="matrix(1 0 -0 1 0 841.92)" font-size="14.04" font-family="Times New Roman"><tspan y="-579.34" x="107.42 114.48212 121.207279 127.32871 131.17566 137.2971 144.26094 148.1079 153.51329 160.35077 167.3146 173.43605 183.74141 190.70525 195.14189 199.7049 206.54238 212.66382 216.51078 220.35773 225.63677 232.6006 242.90596 249.8698 255.86487 262.8287 266.67567 276.98103 280.7016 284.42219 291.38603 298.22349 302.07044 308.7956 319.22734 329.7854 336.74925 342.983 353.7938 364.47825 371.44209 375.28904 381.41047 385.97346 392.9373 396.78425 407.0896 413.81477 420.7786 426.90003 433.02146 439.9853 446.10673 456.41209 463.37593 469.49736 473.21794 477.06489 480.91184 485.47483 491.59626 501.77528 508.7391 515.5766 520.982 527.94589 531.79287 537.7879 544.7518 548.4724 551.71566">oyalanishga o&#x2018;rgatish kabi jiddiy muammolarni yuzaga k&#x0435;ltira boshladi. </tspan></text>
</g>
<path transform="matrix(1,0,0,-1,0,841.92)" d="M 86.064 551.71 L 551.734 551.71 L 551.734 568.15 L 86.064 568.15 Z " fill="#ffffff" fill-rule="evenodd"/>
</g>
<g id="Layer-1" data-name="P">
<clipPath id="cp1728">
<path transform="matrix(1,0,0,-1,0,841.92)" d="M .000008871 0 L 595.32 0 L 595.32 841.92 L .000008871 841.92 Z " fill-rule="evenodd"/>
</clipPath>
<g clip-path="url(#cp1728)">
<text xml:space="preserve" transform="matrix(1 0 -0 1 0 841.92)" font-size="14.04" font-family="Times New Roman"><tspan y="-555.07" x="86.064 96.018367 102.9822 109.94604 116.909877 121.34652 128.31035 132.1573 136.00426 141.99935 147.40474 154.24222 161.20606 167.3275 174.29134 181.47982 185.20041 191.43418 202.0063 205.85326 212.57842 218.69986 222.6451 229.83358 235.23897 242.2028 248.32425 255.28809 259.00868 262.85563 268.97706 275.8145 279.66148 284.9405 291.90434 295.6249 302.58876 308.71018 315.54765 319.3946 326.58308 337.14115 344.10499 350.33876 361.14955 371.83399 378.79783 382.64479 388.7662 393.3292 396.68476 403.87324 409.99467 416.9585 423.92234 430.04377 433.89073 440.01216 450.57023 457.53407 464.4979 469.06089 476.24937 483.2132 490.17704 497.47785 501.19844 507.4322 518.0043 521.9495 528.6747 534.79617 538.6431 545.607 551.72848">Axborotlashgan jamiyat shakllanishidagi muammolar, avvalambor bu jamiyatda </tspan></text>
</g>
<path transform="matrix(1,0,0,-1,0,841.92)" d="M 86.064 527.59 L 551.734 527.59 L 551.734 544.03 L 86.064 544.03 Z " fill="#ffffff" fill-rule="evenodd"/>
</g>
<g id="Layer-1" data-name="P">
<clipPath id="cp1729">
<path transform="matrix(1,0,0,-1,0,841.92)" d="M .000008871 0 L 595.32 0 L 595.32 841.92 L .000008871 841.92 Z " fill-rule="evenodd"/>
</clipPath>
<g clip-path="url(#cp1729)">
<text xml:space="preserve" transform="matrix(1 0 -0 1 0 841.92)" font-size="14.04" font-family="Times New Roman"><tspan y="-530.95" x="86.064 89.910968 96.8748 102.15385 109.11768 116.08152 120.3918 127.35564 131.79228 136.35529 143.31912 147.16608 151.58867 162.14676 169.1106 175.34436 186.02881 196.71326 203.77538 209.18077 213.02773 217.45032 224.2878 231.25164 238.08911 245.05295 251.89043 258.85429 262.57487 266.99748 273.9613 280.79878 287.7626 294.60008 300.7215 305.1441 312.10795 318.10304 321.8236 328.78746 334.90888 339.47187 346.4357 350.746 357.70985 363.83128 374.51573 378.2363 384.47007 395.04219 398.9874 405.82487 411.9463 415.79325 422.75709 426.60404 433.4415 440.27897 444.70158 451.6654 455.386 462.34983 469.31367 475.30876 479.1557 483.5783 494.13639 500.2578 504.8208 511.78465 517.90609 524.0275 527.8745 534.8384 540.95986 547.9237 551.64437">inson o&#x2018;rni muammosi bugungi kunda xalqaro hamjamiyatning diqqat markazidagi </tspan></text>
</g>
<path transform="matrix(1,0,0,-1,0,841.92)" d="M 86.064 503.47 L 551.734 503.47 L 551.734 519.91 L 86.064 519.91 Z " fill="#ffffff" fill-rule="evenodd"/>
</g>
<g id="Layer-1" data-name="P">
<clipPath id="cp1730">
<path transform="matrix(1,0,0,-1,0,841.92)" d="M .000008871 0 L 595.32 0 L 595.32 841.92 L .000008871 841.92 Z " fill-rule="evenodd"/>
</clipPath>
<g clip-path="url(#cp1730)">
<text xml:space="preserve" transform="matrix(1 0 -0 1 0 841.92)" font-size="14.04" font-family="Times New Roman"><tspan y="-506.83" x="86.064 96.74844 102.86988 109.83372 115.955158 122.91899 126.62556 133.58939 140.55323 144.98987 148.83683 159.39492 166.35875 173.32259 180.28643 186.40787 189.76343 193.46999 203.42435 210.38819 217.35202 224.31586 228.7525 235.71634 239.43694 243.28389 249.40534 254.68437 261.64823 268.61207 274.60716 281.57099 285.27757">mavzu bo&#x2018;lmoqda. Axborotlashgan j</tspan></text>
</g>
</g>
<g id="Layer-1" data-name="P">
<clipPath id="cp1731">
<path transform="matrix(1,0,0,-1,0,841.92)" d="M .000008871 0 L 595.32 0 L 595.32 841.92 L .000008871 841.92 Z " fill-rule="evenodd"/>
</clipPath>
<g clip-path="url(#cp1731)">
<text xml:space="preserve" transform="matrix(1 0 -0 1 0 841.92)" font-size="14.04" font-family="Times New Roman"><tspan y="-506.83" x="289.01 295.24378 305.8159 309.7611 316.48628 322.72004 326.567 333.53083 339.65226 343.35884 347.0794 354.04325 359.32228 366.2861 373.12358 376.97053 383.09196 387.65495 394.4924 398.33937 402.04594 409.00978 415.1312 421.85636 428.8202 432.66716 439.5046 445.62605 449.45896 460.01704 466.13847 473.1023 478.5077 485.47154 490.87693 494.45713 498.30409 504.4255 511.26298 517.9881 524.95199 529.51498 533.36196 539.4834 544.8888 551.7263">amiyatda insonlarni hayotga maxsus tayyorlash </tspan></text>
</g>
<path transform="matrix(1,0,0,-1,0,841.92)" d="M 86.064 479.35 L 551.734 479.35 L 551.734 495.79 L 86.064 495.79 Z " fill="#ffffff" fill-rule="evenodd"/>
</g>
<g id="Layer-1" data-name="P">
<clipPath id="cp1732">
<path transform="matrix(1,0,0,-1,0,841.92)" d="M .000008871 0 L 595.32 0 L 595.32 841.92 L .000008871 841.92 Z " fill-rule="evenodd"/>
</clipPath>
<g clip-path="url(#cp1732)">
<text xml:space="preserve" transform="matrix(1 0 -0 1 0 841.92)" font-size="14.04" font-family="Times New Roman"><tspan y="-482.71" x="86.064 92.18544 98.30688 102.86988 109.83372 114.39672 120.51816 124.36512 128.21207 137.32402 144.28786 151.2517 155.68834 162.65218 168.77362 172.49422 176.34117 185.56545 192.52928 198.65073 202.37133 209.33516 215.4566 220.0196 226.98345 236.20772 240.05467 246.04976 251.45516 258.29264 265.25648 268.97706 272.824 279.78785 283.50843 287.35539 293.4768 298.0398 304.87727 308.7242 315.56169 322.39915 331.62345 337.02885 343.2626 353.94706 364.50514 368.35209 372.19905 376.046 382.16743 386.7304 390.57737 397.5412 403.66264 412.88694 419.85078 426.8146 431.25126 435.81425 439.53483 446.49867 455.72297 461.8444 468.80824 472.5288 479.49266 483.21324 487.06019 490.90715 497.87098 501.22654 510.45085 521.0089 527.1304 534.09426 539.49966 546.4635 551.74258">zarurati nufuzli xalqaro tashkilotlarning sammitlarida ko&#x2018;rib chiqilib, maxsus </tspan></text>
</g>
<path transform="matrix(1,0,0,-1,0,841.92)" d="M 86.064 455.11 L 551.734 455.11 L 551.734 471.55 L 86.064 471.55 Z " fill="#ffffff" fill-rule="evenodd"/>
</g>
<g id="Layer-1" data-name="P">
<clipPath id="cp1733">
<path transform="matrix(1,0,0,-1,0,841.92)" d="M .000008871 0 L 595.32 0 L 595.32 841.92 L .000008871 841.92 Z " fill-rule="evenodd"/>
</clipPath>
<g clip-path="url(#cp1733)">
<text xml:space="preserve" transform="matrix(1 0 -0 1 0 841.92)" font-size="14.04" font-family="Times New Roman"><tspan y="-458.47" x="86.064 93.02784 99.14928 104.55468 108.27528 115.23912 119.802127 123.649089 129.77053 134.33353 143.08045 150.04428 156.16573 163.0032 169.96704 173.68764 182.54688 189.51071 193.23131 197.07826 200.79886 207.63634 218.19443 225.15827 232.1221 239.08594 245.20738 248.56295 257.42219 266.6605 273.62434 280.58818 287.552 293.67344 302.53269 313.09077 316.9377 322.3431 329.30696 333.1539 342.01316 347.41856 351.2655 355.8285 361.82359 365.67054 369.3911 376.35496 382.47639 391.33564 401.28999 411.24433 421.19868 429.59458 437.27445 447.35517 457.3095 466.16877 473.1326 476.97956 483.81703 490.78086 499.6401 505.6352 515.5896 522.55349 529.51736 536.4812 541.0442 547.8817 551.60238">dasturlar qabul qilinmoqda. Bunga misol sifatida YUN&#x0415;SKO ning &#x201c;Axborot </tspan></text>
</g>
<path transform="matrix(1,0,0,-1,0,841.92)" d="M 86.064 430.99 L 551.734 430.99 L 551.734 447.43 L 86.064 447.43 Z " fill="#ffffff" fill-rule="evenodd"/>
</g>
<g id="Layer-1" data-name="P">
<clipPath id="cp1734">
<path transform="matrix(1,0,0,-1,0,841.92)" d="M .000008871 0 L 595.32 0 L 595.32 841.92 L .000008871 841.92 Z " fill-rule="evenodd"/>
</clipPath>
<g clip-path="url(#cp1734)">
<text xml:space="preserve" transform="matrix(1 0 -0 1 0 841.92)" font-size="14.04" font-family="Times New Roman"><tspan y="-434.35" x="86.064 93.02784 99.14928 109.83372 120.51816 126.639598 132.50832 139.47216 145.5936 152.55744 159.52127 166.4851 172.60655 178.47527 185.4391 191.56055 196.83959 200.68654 207.52402 212.08702 215.93398 221.80269 228.76653 234.88797 240.75669 245.31969 252.99958 261.39549 271.34983 277.21858 284.1824 288.02937 294.9932 301.95704 307.82579 313.70854 323.78926 330.75309 337.71693 344.68077 349.1174 356.08125 359.9282 365.67057 371.07597 377.1974 384.03486 390.9987 397.83616 404.8 411.63746 418.6013 422.44825 426.16883 433.13267 436.9796 442.9747 448.84346 455.80729 462.77113">hamma uchun&#x201d; dasturi va IFLA ning &#x201c;Axborot savodxonligi&#x201d; bo&#x2018;</tspan></text>
</g>
</g>
<g id="Layer-1" data-name="P">
<clipPath id="cp1735">
<path transform="matrix(1,0,0,-1,0,841.92)" d="M .000008871 0 L 595.32 0 L 595.32 841.92 L .000008871 841.92 Z " fill-rule="evenodd"/>
</clipPath>
<g clip-path="url(#cp1735)">
<text xml:space="preserve" transform="matrix(1 0 -0 1 0 841.92)" font-size="14.04" font-family="Times New Roman"><tspan y="-434.35" x="467.26 471.10697 474.95393 485.512 489.35896 495.2277 499.79069 505.9121 512.876 516.72299 520.56997 527.2951 533.41659 537.26358 541.11056 548.0744 551.79507">limi faoliyatini </tspan></text>
</g>
<path transform="matrix(1,0,0,-1,0,841.92)" d="M 86.064 406.87 L 551.734 406.87 L 551.734 423.31 L 86.064 423.31 Z " fill="#ffffff" fill-rule="evenodd"/>
</g>
<g id="Layer-1" data-name="P">
<clipPath id="cp1736">
<path transform="matrix(1,0,0,-1,0,841.92)" d="M .000008871 0 L 595.32 0 L 595.32 841.92 L .000008871 841.92 Z " fill-rule="evenodd"/>
</clipPath>
<g clip-path="url(#cp1736)">
<text xml:space="preserve" transform="matrix(1 0 -0 1 0 841.92)" font-size="14.04" font-family="Times New Roman"><tspan y="-410.23" x="86.064 93.02784 99.14928 102.99624 106.71684 110.563808 115.12681 118.84741 124.252819 131.21665 136.72032 147.27841 154.34053 164.89862 171.86246 175.70941 182.67325 186.02881 191.53249 201.48685 207.72061 211.56757 215.41452 219.26148 223.69812 227.54508 231.26567 238.2295 244.35095 251.31479 256.81846 267.37654 274.34037 280.57414 291.38493 301.943 308.90684 312.75379 318.8752 323.4382 329.06825 339.7527 345.8741 352.10789 362.68 369.64384 376.60768 380.5529 387.27806 392.90809 396.62867 400.47563 407.43946 413.56089 417.40785 424.37168 430.36677 437.3306 442.8343 448.95573 455.91957 462.8834 469.84724 474.28388 481.2477 485.09468 490.59837 501.15644 507.27787 514.2417 520.36318 527.327 531.174 537.8992 544.0206 547.8676 551.7146">k&#x0435;ltirish mumkin. K&#x0435;ltirilgan muammolar mazmuniy jihatdan axborot madaniyati </tspan></text>
</g>
<path transform="matrix(1,0,0,-1,0,841.92)" d="M 86.064 382.73 L 366.67399 382.73 L 366.67399 399.194 L 86.064 399.194 Z " fill="#ffffff" fill-rule="evenodd"/>
</g>
<g id="Layer-1" data-name="P">
<clipPath id="cp1737">
<path transform="matrix(1,0,0,-1,0,841.92)" d="M .000008871 0 L 595.32 0 L 595.32 841.92 L .000008871 841.92 Z " fill-rule="evenodd"/>
</clipPath>
<g clip-path="url(#cp1737)">
<text xml:space="preserve" transform="matrix(1 0 -0 1 0 841.92)" font-size="14.04" font-family="Times New Roman"><tspan y="-386.09" x="86.064 89.910968 96.0324 100.46905 105.03205 108.87901 113.44202 117.28898 124.252819 130.37425 133.72982 140.69365 145.1303 151.25174 154.6073 160.72875 167.69258 173.09798 176.81858 183.78241 187.62937 190.98493 194.70552 201.66936 208.50684 215.47068 221.59212 228.55596 232.27655 236.1235 242.96099 246.80794 253.64542 257.49238 260.84794 267.81178 274.7756 279.21226 283.77525 287.6222 292.9012 299.86506 303.2206 310.18446 314.0314 320.75657 324.60353 331.56736 334.9229 341.15669 351.7288 357.85023 363.2556">ta&#x2019;rifida o&#x2018;z aksini topganligini ko&#x2018;rish qiyin emas.</tspan></text>
</g>
</g>
<g id="Layer-1" data-name="P">
<clipPath id="cp1738">
<path transform="matrix(1,0,0,-1,0,841.92)" d="M .000008871 0 L 595.32 0 L 595.32 841.92 L .000008871 841.92 Z " fill-rule="evenodd"/>
</clipPath>
<g clip-path="url(#cp1738)">
<text xml:space="preserve" transform="matrix(1 0 -0 1 0 841.92)" font-size="14.04" font-family="Times New Roman"><tspan y="-386.09" x="366.67"> </tspan></text>
</g>
</g>
<g id="Layer-1" data-name="P">
<path transform="matrix(1,0,0,-1,0,841.92)" d="M 120.5 358.61 L 551.73 358.61 L 551.73 375.05 L 120.5 375.05 Z " fill="#ffffff" fill-rule="evenodd"/>
</g>
<g id="Layer-1" data-name="P">
<clipPath id="cp1739">
<path transform="matrix(1,0,0,-1,0,841.92)" d="M .000008871 0 L 595.32 0 L 595.32 841.92 L .000008871 841.92 Z " fill-rule="evenodd"/>
</clipPath>
<g clip-path="url(#cp1739)">
<text xml:space="preserve" transform="matrix(1 0 -0 1 0 841.92)" font-size="14.04" font-family="Times New Roman"><tspan y="-361.97" x="120.5 128.17989 135.14373 141.26517 148.229 153.50804 160.47188 164.19248 171.15631 178.12015 187.47078 193.59223 200.4297 207.39354 214.35738 218.79402 225.75786 229.60482 238.95545 242.67604 248.79749 255.63497 262.36015 269.32398 273.88697 280.8508 286.97224 291.53523 295.38218 299.22914 306.19297 310.03993 319.39057 323.23753 329.35896 333.92195 340.88578 344.60636 351.5702 355.41716 362.1423 371.49296 375.3399 382.30375 388.42518 392.27214 396.11909 399.83967 405.24507 412.08253 415.92948 425.28013 432.24397 439.2078 445.93296 449.7799 456.74375 462.86518 469.829 473.67597 479.67106 486.6349 492.75633 496.60328 505.95393 512.9178 517.3544 523.4758 527.3228 534.2867 538.0073 544.9712 551.8087">Shaxsning axborot tayyorgarligi tarkibiy tuzilishi quyidagicha: o&#x2018;zining </tspan></text>
</g>
<path transform="matrix(1,0,0,-1,0,841.92)" d="M 86.064 334.37 L 551.734 334.37 L 551.734 350.81 L 86.064 350.81 Z " fill="#ffffff" fill-rule="evenodd"/>
</g>
<g id="Layer-1" data-name="P">
<clipPath id="cp1740">
<path transform="matrix(1,0,0,-1,0,841.92)" d="M .000008871 0 L 595.32 0 L 595.32 841.92 L .000008871 841.92 Z " fill-rule="evenodd"/>
</clipPath>
<g clip-path="url(#cp1740)">
<text xml:space="preserve" transform="matrix(1 0 -0 1 0 841.92)" font-size="14.04" font-family="Times New Roman"><tspan y="-337.73" x="86.064 92.18544 99.14928 105.986759 112.95059 117.513599 124.47743 128.32439 133.71575 139.83719 146.67467 150.52162 154.36858 161.09374 168.05757 171.77817 175.62512 182.58896 186.43592 191.82727 195.67423 200.23723 207.0747 214.03855 220.15999 224.00695 230.12839 235.40743 242.37126 245.72682 251.11818 257.2396 264.20344 271.0409 278.00474">axborot ehtiyojini ifodalash, axbor</tspan></text>
</g>
</g>
<g id="Layer-1" data-name="P">
<clipPath id="cp1741">
<path transform="matrix(1,0,0,-1,0,841.92)" d="M .000008871 0 L 595.32 0 L 595.32 841.92 L .000008871 841.92 Z " fill-rule="evenodd"/>
</clipPath>
<g clip-path="url(#cp1741)">
<text xml:space="preserve" transform="matrix(1 0 -0 1 0 841.92)" font-size="14.04" font-family="Times New Roman"><tspan y="-337.73" x="282.53 289.49385 293.3408 298.73216 304.01118 310.975 315.41166 319.97465 326.93849 333.9023 337.74928 343.8707 348.4337 352.15428 359.1181 362.96507 368.3564 373.63545 380.59928 386.7207 393.55818 397.40513 401.25209 407.3735 414.21098 418.05793 421.90489 426.34153 430.18849 435.4675 442.43135 447.8227 454.78654 461.75038 468.58784 472.43479 476.15538 480.00233 486.72749 492.8489 496.69587 500.54283 504.38978 509.78114 515.9026 522.86648 529.8303 536.7942 541.2308 548.0683 551.78897">ot so&#x2018;rovlarini shakllantirish qobiliyati; axborot </tspan></text>
</g>
<path transform="matrix(1,0,0,-1,0,841.92)" d="M 86.064 310.25 L 551.734 310.25 L 551.734 326.69 L 86.064 326.69 Z " fill="#ffffff" fill-rule="evenodd"/>
</g>
<g id="Layer-1" data-name="P">
<clipPath id="cp1742">
<path transform="matrix(1,0,0,-1,0,841.92)" d="M .000008871 0 L 595.32 0 L 595.32 841.92 L .000008871 841.92 Z " fill-rule="evenodd"/>
</clipPath>
<g clip-path="url(#cp1742)">
<text xml:space="preserve" transform="matrix(1 0 -0 1 0 841.92)" font-size="14.04" font-family="Times New Roman"><tspan y="-313.61" x="86.064 90.62701 96.74844 102.15385 109.11768 113.68069 118.95973 122.806697 128.92813 133.49114 137.33809 147.40477 154.3686 158.0892 161.93616 165.78311 176.3412 180.18816 184.03511 194.21411 201.17795 208.01543 211.86238 218.82622 225.6637 232.62754 239.46501 246.42885 252.5503 256.39726 262.51869 267.08168 277.14836 280.9953 291.55339 298.5172 305.48106 312.4449 316.29185 323.017 329.25077 333.09773 336.94468 343.0661 347.6291 351.34968 358.3135 362.16047 372.22715 379.19099 382.91157 386.7585 390.60548 395.8845 402.84834 413.02735 419.99119 425.98628 436.16529 443.12913 446.8497 452.97114 457.53413 464.49797 470.6194 477.58323 487.76225 492.19889 499.16273 505.88789 512.85177 518.9732 522.8202 528.94168 535.9055 539.7525 544.9192 551.7567">r&#x0435;surslari bilimi; kutubxonalar imkoniyatlarini bilish va ulardan foydalanish </tspan></text>
</g>
<path transform="matrix(1,0,0,-1,0,841.92)" d="M 86.064 286.13 L 551.734 286.13 L 551.734 302.57 L 86.064 302.57 Z " fill="#ffffff" fill-rule="evenodd"/>
</g>
<g id="Layer-1" data-name="P">
<clipPath id="cp1743">
<path transform="matrix(1,0,0,-1,0,841.92)" d="M .000008871 0 L 595.32 0 L 595.32 841.92 L .000008871 841.92 Z " fill-rule="evenodd"/>
</clipPath>
<g clip-path="url(#cp1743)">
<text xml:space="preserve" transform="matrix(1 0 -0 1 0 841.92)" font-size="14.04" font-family="Times New Roman"><tspan y="-289.49" x="86.064 93.02784 99.99168 106.829158 110.67612 114.39672 118.24368 124.96884 131.09029 134.93724 138.7842 142.63115 147.29242 153.41387 160.3777 167.21518 174.17902 178.74202 185.5795 189.42646 194.08773 201.05156 204.77216 211.736 215.58295 220.14595 226.98343 233.94727 237.66786 244.6317 248.47866 253.13993 259.26136 269.81944 275.94087 279.7878 286.75166 292.87309 297.53437 304.4982 309.9036 316.86744 320.7144 325.15104 328.998 334.40339 341.36723 346.0285 352.86598 359.8298 366.66728 370.51423 374.2348 378.08177 384.80693 390.92835 394.7753 398.62226 402.4692 407.1305 413.25193 420.21577 427.05323 434.01707 438.58006 445.4175 449.26448 453.11143 459.23286 463.79585 470.6333 474.48027 479.14155 486.10539 492.2268 498.95198 502.79893 508.92036 513.58169 517.42868 522.83407 529.7979 533.6449 539.63998 544.919 551.75656">qobiliyati; axborot qidiruvini amalga oshirish qobiliyati; axborotlarni qayta ishlash </tspan></text>
</g>
<path transform="matrix(1,0,0,-1,0,841.92)" d="M 86.064 262.01 L 551.734 262.01 L 551.734 278.45 L 86.064 278.45 Z " fill="#ffffff" fill-rule="evenodd"/>
</g>
<g id="Layer-1" data-name="P">
<clipPath id="cp1744">
<path transform="matrix(1,0,0,-1,0,841.92)" d="M .000008871 0 L 595.32 0 L 595.32 841.92 L .000008871 841.92 Z " fill-rule="evenodd"/>
</clipPath>
<g clip-path="url(#cp1744)">
<text xml:space="preserve" transform="matrix(1 0 -0 1 0 841.92)" font-size="14.04" font-family="Times New Roman"><tspan y="-265.37" x="86.064 93.02784 96.8748 100.595409 104.44237 115.12681 123.87373 130.83757 136.95902 145.70594 152.66977 159.6336 164.07025 171.03409 174.88105 181.94316 192.50125 198.6227 202.46965 208.5911 213.1541 217.00106 220.848 229.59493 235.71637 242.6802 249.51769 256.48155 261.04454 267.882 271.72895 275.5759 281.69734 286.2603 293.09779 299.2192 307.96614 311.81309 317.9345 324.77198 331.7358">bilim va ko&#x2018;nikmalari; axborotlarga tanqi</tspan></text>
</g>
</g>
<g id="Layer-1" data-name="P">
<clipPath id="cp1745">
<path transform="matrix(1,0,0,-1,0,841.92)" d="M .000008871 0 L 595.32 0 L 595.32 841.92 L .000008871 841.92 Z " fill-rule="evenodd"/>
</clipPath>
<g clip-path="url(#cp1745)">
<text xml:space="preserve" transform="matrix(1 0 -0 1 0 841.92)" font-size="14.04" font-family="Times New Roman"><tspan y="-265.37" x="335.59 342.42747 346.2744 352.99958 361.85884 368.58399 375.54783 382.51167 389.4755 395.59693 401.00233 407.96617 411.8131 417.09214 424.05598 427.41154 436.15846 443.12229 446.84288 452.9643 457.52729 464.49113 468.33808 477.085 480.93196 487.7694 493.1748 500.01228 506.9761 513.93997 517.6606 523.066 530.02987 538.7768 545.74069 551.7357">diy yondashish, ularni tushunish va </tspan></text>
</g>
<path transform="matrix(1,0,0,-1,0,841.92)" d="M 86.064 237.77 L 551.734 237.77 L 551.734 254.21 L 86.064 254.21 Z " fill="#ffffff" fill-rule="evenodd"/>
</g>
<g id="Layer-1" data-name="P">
<clipPath id="cp1746">
<path transform="matrix(1,0,0,-1,0,841.92)" d="M .000008871 0 L 595.32 0 L 595.32 841.92 L .000008871 841.92 Z " fill-rule="evenodd"/>
</clipPath>
<g clip-path="url(#cp1746)">
<text xml:space="preserve" transform="matrix(1 0 -0 1 0 841.92)" font-size="14.04" font-family="Times New Roman"><tspan y="-241.13" x="86.064 93.02784 99.14928 105.986759 112.95059 116.797557 122.91899 128.19803 135.16187 144.38614 151.34998 157.47142 168.02951 174.99335 181.11479 190.33907 197.3029 201.14986 207.14495 211.70795 218.67179 224.79323 231.75707 240.98134 244.8283 248.54889 255.38637 262.35023 266.19718 272.92234 282.14665 286.70964 293.67347 300.39863 307.36247 313.4839 317.33085 323.45228 330.4161 334.26307 339.54209 346.50593 355.73023 362.5677 369.53153 373.96818 380.932 384.77897 391.7428 402.30088 408.4223 412.26927 418.3907 422.95368 426.80064 430.64759 439.8719 445.99333 452.22709 462.7992 469.76304 476.72688 482.8483 489.81214 493.6591 500.38426 509.60856 515.73 522.69387 529.6577 536.6216 541.1846 548.0221 551.74276">baholash hamda ulardan ijodiy foydalanish ko&#x2018;nikmalari; zamonaviy axborot </tspan></text>
</g>
<path transform="matrix(1,0,0,-1,0,841.92)" d="M 86.064 213.62 L 379.634 213.62 L 379.634 230.084 L 86.064 230.084 Z " fill="#ffffff" fill-rule="evenodd"/>
</g>
<g id="Layer-1" data-name="P">
<clipPath id="cp1747">
<path transform="matrix(1,0,0,-1,0,841.92)" d="M .000008871 0 L 595.32 0 L 595.32 841.92 L .000008871 841.92 Z " fill-rule="evenodd"/>
</clipPath>
<g clip-path="url(#cp1747)">
<text xml:space="preserve" transform="matrix(1 0 -0 1 0 841.92)" font-size="14.04" font-family="Times New Roman"><tspan y="-216.98" x="86.064 93.02784 99.99168 110.67612 121.23419 128.19803 135.16187 139.00882 145.97266 152.0941 155.94106 161.34645 165.1934 171.91857 178.04001 181.39557 185.24253 191.36397 198.3278 205.16529 212.12912 215.97608 222.81356 229.77739 233.62435 240.3495 246.47095 250.3179 256.43934 261.00233 264.84928 271.8131 277.8082 284.77204 288.1276 292.69059 299.65443 306.37959 313.3434 319.46485 323.3118 329.43324 336.39707 342.5185 345.87406 352.8379 356.55848 360.40544 364.25239 369.5314 376.49525">kommunikatsiya t&#x0435;xnologiyalaridan foydalana bilish.</tspan></text>
</g>
</g>
<g id="Layer-1" data-name="P">
<clipPath id="cp1748">
<path transform="matrix(1,0,0,-1,0,841.92)" d="M .000008871 0 L 595.32 0 L 595.32 841.92 L .000008871 841.92 Z " fill-rule="evenodd"/>
</clipPath>
<g clip-path="url(#cp1748)">
<text xml:space="preserve" transform="matrix(1 0 -0 1 0 841.92)" font-size="14.04" font-family="Times New Roman"><tspan y="-216.98" x="379.63"> </tspan></text>
</g>
</g>
<g id="Layer-1" data-name="P">
<path transform="matrix(1,0,0,-1,0,841.92)" d="M 120.5 189.5 L 551.73 189.5 L 551.73 205.94 L 120.5 205.94 Z " fill="#ffffff" fill-rule="evenodd"/>
</g>
<g id="Layer-1" data-name="P">
<clipPath id="cp1749">
<path transform="matrix(1,0,0,-1,0,841.92)" d="M .000008871 0 L 595.32 0 L 595.32 841.92 L .000008871 841.92 Z " fill-rule="evenodd"/>
</clipPath>
<g clip-path="url(#cp1749)">
<text xml:space="preserve" transform="matrix(1 0 -0 1 0 841.92)" font-size="14.04" font-family="Times New Roman"><tspan y="-192.86" x="120.5 130.45436 137.4182 144.38204 151.34587 155.78252 162.74636 166.5933 175.70526 186.26335 192.3848 199.34864 205.47008 212.43392 216.28087 223.00603 229.12747 232.97443 236.82138 243.78522 247.63217 256.74415 267.30223 273.42366 280.38749 286.5089 293.47276 297.3197 304.04487 310.1663 314.01325 320.97709 324.82405 331.78788 338.7517 347.86369 353.9851 357.7057 364.66954 371.63337 375.35395 382.31779 388.4392 397.55119 401.27177 405.1187 412.08256 418.20399 421.92457 425.7715 431.89295 436.45594 440.1765 447.14036 453.26179 462.37376 469.3376 473.05818 478.3372 485.30104 491.42247 495.2694 501.2645 508.22834 517.34036 524.3042 528.7408 534.86227 538.7092 545.6731 551.79458">Axborot madaniyatini madaniyatning alohida jihatlariga nisbatan o&#x2018;ziga </tspan></text>
</g>
<path transform="matrix(1,0,0,-1,0,841.92)" d="M 86.064 165.38 L 551.734 165.38 L 551.734 181.82 L 86.064 181.82 Z " fill="#ffffff" fill-rule="evenodd"/>
</g>
<g id="Layer-1" data-name="P">
<clipPath id="cp1750">
<path transform="matrix(1,0,0,-1,0,841.92)" d="M .000008871 0 L 595.32 0 L 595.32 841.92 L .000008871 841.92 Z " fill-rule="evenodd"/>
</clipPath>
<g clip-path="url(#cp1750)">
<text xml:space="preserve" transform="matrix(1 0 -0 1 0 841.92)" font-size="14.04" font-family="Times New Roman"><tspan y="-168.74" x="86.064 93.02784 99.99168 105.27072 109.11768 112.83829 119.802127 123.52273 130.48656 134.33351 141.04463 144.76523 151.72907 157.0081 163.97194 167.8189 174.65637 178.50333 185.46717 192.17829 199.01576 202.86272 206.58332">xosligini tushinib olis</tspan></text>
</g>
</g>
<g id="Layer-1" data-name="P">
<clipPath id="cp1751">
<path transform="matrix(1,0,0,-1,0,841.92)" d="M .000008871 0 L 595.32 0 L 595.32 841.92 L .000008871 841.92 Z " fill-rule="evenodd"/>
</clipPath>
<g clip-path="url(#cp1751)">
<text xml:space="preserve" transform="matrix(1 0 -0 1 0 841.92)" font-size="14.04" font-family="Times New Roman"><tspan y="-168.74" x="211.97 218.93384 225.64496 230.20796 236.3294 242.45085 246.2978 253.00893 259.8464 266.81025 273.77409 279.76918 283.61613 287.46308 294.30055 301.26438 305.11134 311.6961 318.65995 322.5069 326.22749 330.07444 335.47984 342.3173 349.28114 355.40257 358.75813 365.46925 371.59068 378.5545 385.39198 392.3558 396.9188 403.75627 407.6032 411.45018 417.5716 422.85063 429.81446 436.65193 442.647 449.61085 456.32197 460.04255 466.2763 476.84843 480.79365 487.5188 493.64024 497.48719 504.1983 511.16215 517.28359 524.24746 528.0944 535.0583 541.17977 548.0173 551.7379">h r&#x0435;al voq&#x0435;likni bilishga, axborotlashgan jamiyat haqidagi </tspan></text>
</g>
<path transform="matrix(1,0,0,-1,0,841.92)" d="M 86.064 141.14 L 551.734 141.14 L 551.734 157.58 L 86.064 157.58 Z " fill="#ffffff" fill-rule="evenodd"/>
</g>
<g id="Layer-1" data-name="P">
<clipPath id="cp1752">
<path transform="matrix(1,0,0,-1,0,841.92)" d="M .000008871 0 L 595.32 0 L 595.32 841.92 L .000008871 841.92 Z " fill-rule="evenodd"/>
</clipPath>
<g clip-path="url(#cp1752)">
<text xml:space="preserve" transform="matrix(1 0 -0 1 0 841.92)" font-size="14.04" font-family="Times New Roman"><tspan y="-144.5" x="86.064 89.910968 96.0324 101.437808 107.55924 114.39672 121.36056 128.32439 132.76103 136.60799 142.72943 147.29244 154.12992 157.97687 164.81435 171.77819 182.68726 187.25026 191.09722 198.06105 205.02489 208.61913 212.46608 218.58753 225.55136 229.27196 234.67736 241.51483 245.36179 252.32563 258.44706 269.35615 275.47758 282.31504 289.27888 296.2427 300.67936 307.6432 311.49015 315.3371 321.33219 326.6112 333.57505 340.53889 346.53398 353.4978 364.51924 371.2444 378.20823 385.17207 392.1359 398.25733 403.53636 410.50019 417.33766 424.30149 431.13896 434.9859 441.82337 448.66084 459.56993 466.53376 473.4976 477.21818 484.182 491.14585 498.10969 504.2311 515.1402 522.10409 528.2255 531.94619 535.79318 541.0722 548.0361 551.7567">tasavvurlarning rivojlanishida axborotlashgan yondashuvning vujudga k&#x0435;lishi </tspan></text>
</g>
<path transform="matrix(1,0,0,-1,0,841.92)" d="M 86.064 117.02 L 551.734 117.02 L 551.734 133.45999 L 86.064 133.45999 Z " fill="#ffffff" fill-rule="evenodd"/>
</g>
<g id="Layer-1" data-name="P">
<clipPath id="cp1753">
<path transform="matrix(1,0,0,-1,0,841.92)" d="M .000008871 0 L 595.32 0 L 595.32 841.92 L .000008871 841.92 Z " fill-rule="evenodd"/>
</clipPath>
<g clip-path="url(#cp1753)">
<text xml:space="preserve" transform="matrix(1 0 -0 1 0 841.92)" font-size="14.04" font-family="Times New Roman"><tspan y="-120.38" x="86.064 93.02784 99.14928 102.99624 106.8432 110.563808 116.68524 121.96429 125.81125 132.77509 138.77017 145.73401 149.4546 156.41844 162.53989 166.7238 177.28189 184.34401 194.9021 201.86594 205.81118 212.77501 216.95893 223.92276 230.8866 235.32324 239.1702 246.00768 249.85463 253.21019 257.3941 267.34846 274.3123 281.14976 288.1136 292.67658 299.6404 303.361 307.20796 313.32939 318.6084 325.44587 332.4097 338.53114 345.49497 349.6789 353.39949 359.5209 370.07899 374.0242 380.74937 386.8708 390.71775 397.68159 403.803 407.98695 414.10838 421.0722 428.03605 434.99989 439.43653 446.274 450.12095 454.30488 458.86787 464.9893 470.39469 477.35853 481.79518 487.20057 491.04753 497.16896 501.6056 505.45256 509.63648 516.474 520.321 527.1585 537.8429 543.96438 547.81137 551.6583">natijasidagina mumkin bo&#x2018;ldi. Axborotlashgan jamiyatda axborot r&#x0435;surslari qiymati </tspan></text>
</g>
<path transform="matrix(1,0,0,-1,0,841.92)" d="M 86.064 92.904 L 551.734 92.904 L 551.734 109.344 L 86.064 109.344 Z " fill="#ffffff" fill-rule="evenodd"/>
</g>
<g id="Layer-1" data-name="P">
<clipPath id="cp1754">
<path transform="matrix(1,0,0,-1,0,841.92)" d="M .000008871 0 L 595.32 0 L 595.32 841.92 L .000008871 841.92 Z " fill-rule="evenodd"/>
</clipPath>
<g clip-path="url(#cp1754)">
<text xml:space="preserve" transform="matrix(1 0 -0 1 0 841.92)" font-size="14.04" font-family="Times New Roman"><tspan y="-96.264" x="86.064 89.78461 93.63157 100.595409 106.71684 110.563808 114.28441 121.248249 127.36968 134.33351 141.99935 147.99443 154.95827 161.07971 165.64272 172.4802 176.32715 183.0523 189.17375 192.52931 200.3215 210.8796 217.84343 221.69039 225.63562 232.36078 238.48223 245.44606 249.3913 256.11647 263.78233 270.74617 276.86759 284.53346 291.49729 298.46113 303.74015 310.70399 317.54145">jihatidan en&#x0435;rgiya, moliyaviy va boshqa</tspan></text>
</g>
</g>
<g id="Layer-1" data-name="P">
<clipPath id="cp1755">
<path transform="matrix(1,0,0,-1,0,841.92)" d="M .000008871 0 L 595.32 0 L 595.32 841.92 L .000008871 841.92 Z " fill-rule="evenodd"/>
</clipPath>
<g clip-path="url(#cp1755)">
<text xml:space="preserve" transform="matrix(1 0 -0 1 0 841.92)" font-size="14.04" font-family="Times New Roman"><tspan y="-96.264" x="323.71"> </tspan></text>
</g>
</g>
<g id="Layer-1" data-name="P">
<clipPath id="cp1756">
<path transform="matrix(1,0,0,-1,0,841.92)" d="M .000008871 0 L 595.32 0 L 595.32 841.92 L .000008871 841.92 Z " fill-rule="evenodd"/>
</clipPath>
<g clip-path="url(#cp1756)">
<text xml:space="preserve" transform="matrix(1 0 -0 1 0 841.92)" font-size="14.04" font-family="Times New Roman"><tspan y="-96.264" x="331.39 336.7954 340.64237 345.20536 351.32679 355.17375 361.16883 368.13267 371.85325 378.81709 386.48295 391.04594 397.16737 402.44639 409.41023 413.9732 419.3786 423.09919 429.2206 433.65727 440.6211 446.74253 453.70637 461.37223 468.2097 474.33113 484.8892 492.55506 499.5189 506.48274 510.91938 514.8646 525.549 531.6705 538.63436 544.7558 551.71969">strat&#x0435;gik r&#x0435;surslardan kam bo&#x2018;lmagan </tspan></text>
</g>
<path transform="matrix(1,0,0,-1,0,841.92)" d="M 86.064 68.784 L 551.734 68.784 L 551.734 85.224 L 86.064 85.224 Z " fill="#ffffff" fill-rule="evenodd"/>
</g>
<g id="Layer-1" data-name="P">
<clipPath id="cp1757">
<path transform="matrix(1,0,0,-1,0,841.92)" d="M .000008871 0 L 595.32 0 L 595.32 841.92 L .000008871 841.92 Z " fill-rule="evenodd"/>
</clipPath>
<g clip-path="url(#cp1757)">
<text xml:space="preserve" transform="matrix(1 0 -0 1 0 841.92)" font-size="14.04" font-family="Times New Roman"><tspan y="-72.144" x="86.064 93.02784 99.99168 103.71228 110.67612 116.797557 120.153118 132.62064 138.74208 145.70592 152.5434 159.50724 164.07024 171.03408 174.88103 187.34854 194.18602 201.14986 207.14495 210.9919 215.5549 222.51874 226.36569 238.8332 242.5538 248.78757 259.35969 263.3049 270.03007 276.1515 279.99845 286.96229 293.0837 305.55125 312.51509 319.4789 326.31639 330.2616 340.81968 347.7835 351.63047 358.5943 365.55815 378.02568 388.58375 394.70518 398.55213 404.67356 411.6374 417.75883 423.1642 427.01118 433.84864 437.5692 450.03675 457.00059 462.40599 469.3698 473.21678 477.6534 481.50038 486.7794 493.74324 497.0988 509.5663 516.53018 523.494 527.341 531.188 541.74606 547.8675 551.7145">holda, axborot hozirgi jamiyatda xodimning malakasini oshirish, optimal </tspan></text>
</g>
</g>
</g>
</g>
</svg>
