<?xml version="1.0" encoding="UTF-8" standalone="no"?>
<!DOCTYPE svg PUBLIC "-//W3C//DTD SVG 1.1//EN" "http://www.w3.org/Graphics/SVG/1.1/DTD/svg11.dtd">
<svg xmlns="http://www.w3.org/2000/svg" xmlns:xlink="http://www.w3.org/1999/xlink" version="1.1" width="595.32pt" height="841.92pt" viewBox="0 0 595.32 841.92">
<g enable-background="new">
<g>
<g id="Layer-1" data-name="Artifact">
<clipPath id="cp27542">
<path transform="matrix(1,0,0,-1,0,841.92)" d="M .000008871 0 L 595.32 0 L 595.32 841.92 L .000008871 841.92 Z " fill-rule="evenodd"/>
</clipPath>
<g clip-path="url(#cp27542)">
<text xml:space="preserve" transform="matrix(1 0 -0 1 0 841.92)" font-size="11.04" font-family="Calibri"><tspan y="-51.864" x="314.09 319.72999 325.36997">170</tspan></text>
</g>
<clipPath id="cp27543">
<path transform="matrix(1,0,0,-1,0,841.92)" d="M .000008871 0 L 595.32 0 L 595.32 841.92 L .000008871 841.92 Z " fill-rule="evenodd"/>
</clipPath>
<g clip-path="url(#cp27543)">
<text xml:space="preserve" transform="matrix(1 0 -0 1 0 841.92)" font-size="11.04" font-family="Calibri"><tspan y="-51.864" x="331.03"> </tspan></text>
</g>
<clipPath id="cp27544">
<path transform="matrix(1,0,0,-1,0,841.92)" d="M .000008871 0 L 595.32 0 L 595.32 841.92 L .000008871 841.92 Z " fill-rule="evenodd"/>
</clipPath>
<g clip-path="url(#cp27544)">
</g>
<clipPath id="cp27545">
<path transform="matrix(1,0,0,-1,0,841.92)" d="M .000008871 0 L 595.32 0 L 595.32 841.92 L .000008871 841.92 Z " fill-rule="evenodd"/>
</clipPath>
<g clip-path="url(#cp27545)">
<text xml:space="preserve" transform="matrix(1 0 -0 1 0 841.92)" font-size="11.04" font-family="Calibri"><tspan y="-38.4" x="85.104"> </tspan></text>
</g>
<clipPath id="cp27546">
<path transform="matrix(1,0,0,-1,0,841.92)" d="M .000008871 0 L 595.32 0 L 595.32 841.92 L .000008871 841.92 Z " fill-rule="evenodd"/>
</clipPath>
<g clip-path="url(#cp27546)">
</g>
</g>
<g id="Layer-1" data-name="P">
<clipPath id="cp27547">
<path transform="matrix(1,0,0,-1,0,841.92)" d="M .000008871 0 L 595.32 0 L 595.32 841.92 L .000008871 841.92 Z " fill-rule="evenodd"/>
</clipPath>
<g clip-path="url(#cp27547)">
<text xml:space="preserve" transform="matrix(1 0 -0 1 0 841.92)" font-size="14.04" font-family="Times New Roman"><tspan y="-772.56" x="120.5 127.56212 131.07212">3. </tspan></text>
</g>
<clipPath id="cp27548">
<path transform="matrix(1,0,0,-1,0,841.92)" d="M .000008871 0 L 595.32 0 L 595.32 841.92 L .000008871 841.92 Z " fill-rule="evenodd"/>
</clipPath>
<g clip-path="url(#cp27548)">
<text xml:space="preserve" transform="matrix(1 0 -0 1 0 841.92)" font-size="14.04" font-family="Times New Roman,Bold" font-weight="bold"><tspan y="-772.56" x="135.62 142.7">&#x00ab;M</tspan></text>
</g>
</g>
<g id="Layer-1" data-name="P">
<clipPath id="cp27549">
<path transform="matrix(1,0,0,-1,0,841.92)" d="M .000008871 0 L 595.32 0 L 595.32 841.92 L .000008871 841.92 Z " fill-rule="evenodd"/>
</clipPath>
<g clip-path="url(#cp27549)">
<text xml:space="preserve" transform="matrix(1 0 -0 1 0 841.92)" font-size="14.04" font-family="Times New Roman,Bold" font-weight="bold"><tspan y="-772.56" x="155.78 162.84212 168.96356 175.91338 182.14714">&#x0430;&#x0441;&#x0442;&#x0435;&#x0440;</tspan></text>
</g>
</g>
<g id="Layer-1" data-name="P">
<clipPath id="cp27550">
<path transform="matrix(1,0,0,-1,0,841.92)" d="M .000008871 0 L 595.32 0 L 595.32 841.92 L .000008871 841.92 Z " fill-rule="evenodd"/>
</clipPath>
<g clip-path="url(#cp27550)">
<text xml:space="preserve" transform="matrix(1 0 -0 1 0 841.92)" font-size="14.04" font-family="Times New Roman,Bold" font-weight="bold"><tspan y="-772.56" x="190.01"> </tspan></text>
</g>
</g>
<g id="Layer-1" data-name="P">
<clipPath id="cp27551">
<path transform="matrix(1,0,0,-1,0,841.92)" d="M .000008871 0 L 595.32 0 L 595.32 841.92 L .000008871 841.92 Z " fill-rule="evenodd"/>
</clipPath>
<g clip-path="url(#cp27551)">
<text xml:space="preserve" transform="matrix(1 0 -0 1 0 841.92)" font-size="14.04" font-family="Times New Roman,Bold" font-weight="bold"><tspan y="-772.56" x="194.57 201.40749 208.37133 215.43344 223.33795 231.38288">&#x0442;&#x0430;&#x0431;&#x043b;&#x0438;&#x0446;</tspan></text>
</g>
</g>
<g id="Layer-1" data-name="P">
<clipPath id="cp27552">
<path transform="matrix(1,0,0,-1,0,841.92)" d="M .000008871 0 L 595.32 0 L 595.32 841.92 L .000008871 841.92 Z " fill-rule="evenodd"/>
</clipPath>
<g clip-path="url(#cp27552)">
<text xml:space="preserve" transform="matrix(1 0 -0 1 0 841.92)" font-size="14.04" font-family="Times New Roman,Bold" font-weight="bold"><tspan y="-772.56" x="239.33 246.41">&#x00bb; </tspan></text>
</g>
</g>
<g id="Layer-1" data-name="P">
<clipPath id="cp27553">
<path transform="matrix(1,0,0,-1,0,841.92)" d="M .000008871 0 L 595.32 0 L 595.32 841.92 L .000008871 841.92 Z " fill-rule="evenodd"/>
</clipPath>
<g clip-path="url(#cp27553)">
<text xml:space="preserve" transform="matrix(1 0 -0 1 0 841.92)" font-size="14.04" font-family="Times New Roman"><tspan y="-772.56" x="250.97 255.64533 261.05073 267.2845 274.24833 281.31044 287.43186 291.37709 295.3223 301.44374 306.11906 310.66804 317.63188 323.13554 326.98249 333.21626 338.62165 342.56687 347.2422 351.79118 357.9126 361.75956 368.10566 378.7901 385.02388 392.1 395.94697 399.89219 406.95429 413.18806 417.6247 423.12837 426.9753 433.20909">(Jadvallar ustasi) elementida sich</tspan></text>
</g>
</g>
<g id="Layer-1" data-name="P">
<clipPath id="cp27554">
<path transform="matrix(1,0,0,-1,0,841.92)" d="M .000008871 0 L 595.32 0 L 595.32 841.92 L .000008871 841.92 Z " fill-rule="evenodd"/>
</clipPath>
<g clip-path="url(#cp27554)">
<text xml:space="preserve" transform="matrix(1 0 -0 1 0 841.92)" font-size="14.04" font-family="Times New Roman"><tspan y="-772.56" x="440.35 447.31385 454.37596 461.33979 467.57356 474.6497 480.77113 485.3201 489.26533 496.22917 503.29127 513.97567 520.2094 526.4432 533.51937 539.7531 545.1585 549.10379 556.0676 559.9146">qoncha tugmachasini </tspan></text>
</g>
</g>
<g id="Layer-1" data-name="P">
<clipPath id="cp27555">
<path transform="matrix(1,0,0,-1,0,841.92)" d="M .000008871 0 L 595.32 0 L 595.32 841.92 L .000008871 841.92 Z " fill-rule="evenodd"/>
</clipPath>
<g clip-path="url(#cp27555)">
<text xml:space="preserve" transform="matrix(1 0 -0 1 0 841.92)" font-size="14.04" font-family="Times New Roman"><tspan y="-748.3" x="85.104 89.04924 96.01308 103.075199 107.02044 110.53044 121.1868 127.420558 132.09587 136.05516 142.28893 145.79892 152.73468 159.7968 165.2022 169.04915 174.55283 181.61495 185.12494 188.57877 198.65949 204.78093 208.72617 212.6714 216.51836 222.6398 229.70192 235.93569 239.44568 246.38144 253.44356 260.28105">ikki marta bosish. Natijada quyi</tspan></text>
</g>
</g>
<g id="Layer-1" data-name="P">
<clipPath id="cp27556">
<path transform="matrix(1,0,0,-1,0,841.92)" d="M .000008871 0 L 595.32 0 L 595.32 841.92 L .000008871 841.92 Z " fill-rule="evenodd"/>
</clipPath>
<g clip-path="url(#cp27556)">
<text xml:space="preserve" transform="matrix(1 0 -0 1 0 841.92)" font-size="14.04" font-family="Times New Roman"><tspan y="-748.3" x="264.41 271.4721 277.59355 284.65565 288.60087 291.95643 299.01853 305.856 312.9181 319.15187 322.66188 329.68186 336.70185 342.07917 346.02439 349.9696 353.32518 360.38728">dagi oyna hosil bo</tspan></text>
</g>
</g>
<g id="Layer-1" data-name="P">
<clipPath id="cp27557">
<path transform="matrix(1,0,0,-1,0,841.92)" d="M .000008871 0 L 595.32 0 L 595.32 841.92 L .000008871 841.92 Z " fill-rule="evenodd"/>
</clipPath>
<g clip-path="url(#cp27557)">
<text xml:space="preserve" transform="matrix(1 0 -0 1 0 841.92)" font-size="14.04" font-family="Times New Roman"><tspan y="-748.3" x="367.63">&#x2019;</tspan></text>
</g>
</g>
<g id="Layer-1" data-name="P">
<clipPath id="cp27558">
<path transform="matrix(1,0,0,-1,0,841.92)" d="M .000008871 0 L 595.32 0 L 595.32 841.92 L .000008871 841.92 Z " fill-rule="evenodd"/>
</clipPath>
<g clip-path="url(#cp27558)">
<text xml:space="preserve" transform="matrix(1 0 -0 1 0 841.92)" font-size="14.04" font-family="Times New Roman"><tspan y="-748.3" x="372.19 376.13523 382.25666 389.31877 393.1657">ladi:</tspan></text>
</g>
</g>
<g id="Layer-1" data-name="P">
<clipPath id="cp27559">
<path transform="matrix(1,0,0,-1,0,841.92)" d="M .000008871 0 L 595.32 0 L 595.32 841.92 L .000008871 841.92 Z " fill-rule="evenodd"/>
</clipPath>
<g clip-path="url(#cp27559)">
<text xml:space="preserve" transform="matrix(1 0 -0 1 0 841.92)" font-size="14.04" font-family="Times New Roman"><tspan y="-748.3" x="397.03"> </tspan></text>
</g>
</g>
<g id="Layer-1" data-name="P">
<clipPath id="cp27560">
<path transform="matrix(1,0,0,-1,0,841.92)" d="M .000008871 0 L 595.32 0 L 595.32 841.92 L .000008871 841.92 Z " fill-rule="evenodd"/>
</clipPath>
<g clip-path="url(#cp27560)">
<text xml:space="preserve" transform="matrix(1 0 -0 1 0 841.92)" font-size="14.04" font-family="Times New Roman"><tspan y="-724.18" x="120.5 127.56212 131.07212 134.52594 140.02962 146.15106 153.21318 160.17702 166.41078 170.25774 174.20298 180.43674 185.11206 188.48166 195.54378 200.94918 204.89441 211.01586 216.51953 220.36649 227.33032 231.27556 238.2394 245.30152 248.81151 259.46788 266.52998 270.4752 277.5373 284.50114 291.46498 295.4102 298.9202 305.9402 312.80574 319.86784 326.1016 331.507 335.4522 342.41606 348.6498 355.61366 359.4606 362.9706 369.9906">4. Jadvallar ustasining muloqot oynasidagi ko</tspan></text>
</g>
<clipPath id="cp27561">
<path transform="matrix(1,0,0,-1,0,841.92)" d="M .000008871 0 L 595.32 0 L 595.32 841.92 L .000008871 841.92 Z " fill-rule="evenodd"/>
</clipPath>
<g clip-path="url(#cp27561)">
<text xml:space="preserve" transform="matrix(1 0 -0 1 0 841.92)" font-size="14.04" font-family="Times New Roman"><tspan y="-724.18" x="377.35">&#x2019;</tspan></text>
</g>
<clipPath id="cp27562">
<path transform="matrix(1,0,0,-1,0,841.92)" d="M .000008871 0 L 595.32 0 L 595.32 841.92 L .000008871 841.92 Z " fill-rule="evenodd"/>
</clipPath>
<g clip-path="url(#cp27562)">
<text xml:space="preserve" transform="matrix(1 0 -0 1 0 841.92)" font-size="14.04" font-family="Times New Roman"><tspan y="-724.18" x="381.91 386.58534 392.089 398.21043 402.15565 412.8401 419.07386 423.01908 429.25285 433.92817 441.0043 447.23808 450.74809 455.283 459.2282 466.2903 473.12779 479.36155 482.87156 489.89155 493.79466 497.69776 501.60087 506.96415 514.02627">rsatmalarga rioya qilish.</tspan></text>
</g>
<clipPath id="cp27563">
<path transform="matrix(1,0,0,-1,0,841.92)" d="M .000008871 0 L 595.32 0 L 595.32 841.92 L .000008871 841.92 Z " fill-rule="evenodd"/>
</clipPath>
<g clip-path="url(#cp27563)">
<text xml:space="preserve" transform="matrix(1 0 -0 1 0 841.92)" font-size="14.04" font-family="Times New Roman"><tspan y="-724.18" x="517.66"> </tspan></text>
</g>
</g>
<g id="Layer-1" data-name="P">
<clipPath id="cp27564">
<path transform="matrix(1,0,0,-1,0,841.92)" d="M .000008871 0 L 595.32 0 L 595.32 841.92 L .000008871 841.92 Z " fill-rule="evenodd"/>
</clipPath>
<g clip-path="url(#cp27564)">
<text xml:space="preserve" transform="matrix(1 0 -0 1 0 841.92)" font-size="14.04" font-family="Times New Roman"><tspan y="-700.06" x="120.5 129.02228 134.52596 138.47119 144.59264 148.53787 159.22232 165.45609 169.40132 174.79268 184.8734 191.10717 195.78249 202.01625 209.09243 214.48378 221.44762">Eslatma: Kerak bo</tspan></text>
</g>
<clipPath id="cp27565">
<path transform="matrix(1,0,0,-1,0,841.92)" d="M .000008871 0 L 595.32 0 L 595.32 841.92 L .000008871 841.92 Z " fill-rule="evenodd"/>
</clipPath>
<g clip-path="url(#cp27565)">
<text xml:space="preserve" transform="matrix(1 0 -0 1 0 841.92)" font-size="14.04" font-family="Times New Roman"><tspan y="-700.06" x="228.65">&#x2019;</tspan></text>
</g>
<clipPath id="cp27566">
<path transform="matrix(1,0,0,-1,0,841.92)" d="M .000008871 0 L 595.32 0 L 595.32 841.92 L .000008871 841.92 Z " fill-rule="evenodd"/>
</clipPath>
<g clip-path="url(#cp27566)">
<text xml:space="preserve" transform="matrix(1 0 -0 1 0 841.92)" font-size="14.04" font-family="Times New Roman"><tspan y="-700.06" x="233.21 237.05696 244.11908 250.24053 257.30265 264.36476 270.5985 275.98988 279.83683 285.95826 293.02037 299.9842 306.21797 310.0649 314.01014 320.2439 324.91923 330.19828 337.26039 342.66578 346.611 352.73243 358.13783 362.08305 367.4744 374.43824 378.38346 382.2304 388.46418 395.5403 400.80534 404.75056 410.15596 417.21806 422.6094 426.45637 433.4202 440.4823 446.60374 453.66584 459.8996 466.86344 473.92555 480.04698 487.10908 492.50044 497.90583">lganda jadvallar ustasi bilan ish tugagandan so</tspan></text>
</g>
<clipPath id="cp27567">
<path transform="matrix(1,0,0,-1,0,841.92)" d="M .000008871 0 L 595.32 0 L 595.32 841.92 L .000008871 841.92 Z " fill-rule="evenodd"/>
</clipPath>
<g clip-path="url(#cp27567)">
<text xml:space="preserve" transform="matrix(1 0 -0 1 0 841.92)" font-size="14.04" font-family="Times New Roman"><tspan y="-700.06" x="505.3">&#x2019;</tspan></text>
</g>
<clipPath id="cp27568">
<path transform="matrix(1,0,0,-1,0,841.92)" d="M .000008871 0 L 595.32 0 L 595.32 841.92 L .000008871 841.92 Z " fill-rule="evenodd"/>
</clipPath>
<g clip-path="url(#cp27568)">
<text xml:space="preserve" transform="matrix(1 0 -0 1 0 841.92)" font-size="14.04" font-family="Times New Roman"><tspan y="-700.06" x="509.86 516.9221 523.98428 527.49429 532.7312 539.79336 546.7572 552.26089 556.10787 559.95486">ng, hosil </tspan></text>
</g>
<clipPath id="cp27569">
<path transform="matrix(1,0,0,-1,0,841.92)" d="M .000008871 0 L 595.32 0 L 595.32 841.92 L .000008871 841.92 Z " fill-rule="evenodd"/>
</clipPath>
<g clip-path="url(#cp27569)">
<text xml:space="preserve" transform="matrix(1 0 -0 1 0 841.92)" font-size="14.04" font-family="Times New Roman"><tspan y="-675.94" x="85.104 92.184">bo</tspan></text>
</g>
<clipPath id="cp27570">
<path transform="matrix(1,0,0,-1,0,841.92)" d="M .000008871 0 L 595.32 0 L 595.32 841.92 L .000008871 841.92 Z " fill-rule="evenodd"/>
</clipPath>
<g clip-path="url(#cp27570)">
<text xml:space="preserve" transform="matrix(1 0 -0 1 0 841.92)" font-size="14.04" font-family="Times New Roman"><tspan y="-675.94" x="99.264">&#x2019;</tspan></text>
</g>
<clipPath id="cp27571">
<path transform="matrix(1,0,0,-1,0,841.92)" d="M .000008871 0 L 595.32 0 L 595.32 841.92 L .000008871 841.92 Z " fill-rule="evenodd"/>
</clipPath>
<g clip-path="url(#cp27571)">
<text xml:space="preserve" transform="matrix(1 0 -0 1 0 841.92)" font-size="14.04" font-family="Times New Roman"><tspan y="-675.94" x="103.82 107.66696 114.72908 120.85052 127.912639 136.65956 140.50652 146.74028 153.70412 160.76624 166.88768 170.83292 177.79676 181.74199">lgan jadvalni </tspan></text>
</g>
<clipPath id="cp27572">
<path transform="matrix(1,0,0,-1,0,841.92)" d="M .000008871 0 L 595.32 0 L 595.32 841.92 L .000008871 841.92 Z " fill-rule="evenodd"/>
</clipPath>
<g clip-path="url(#cp27572)">
<text xml:space="preserve" transform="matrix(1 0 -0 1 0 841.92)" font-size="14.04" font-family="Times New Roman,Bold" font-weight="bold"><tspan y="-675.94" x="190.61 201.40677 208.46889 216.27513 221.66649 226.34181 232.57558 240.38182 247.94939 252.62471 259.70088">Konstruktor</tspan></text>
</g>
<clipPath id="cp27573">
<path transform="matrix(1,0,0,-1,0,841.92)" d="M .000008871 0 L 595.32 0 L 595.32 841.92 L .000008871 841.92 Z " fill-rule="evenodd"/>
</clipPath>
<g clip-path="url(#cp27573)">
<text xml:space="preserve" transform="matrix(1 0 -0 1 0 841.92)" font-size="14.04" font-family="Times New Roman"><tspan y="-675.94" x="265.97"> </tspan></text>
</g>
<clipPath id="cp27574">
<path transform="matrix(1,0,0,-1,0,841.92)" d="M .000008871 0 L 595.32 0 L 595.32 841.92 L .000008871 841.92 Z " fill-rule="evenodd"/>
</clipPath>
<g clip-path="url(#cp27574)">
<text xml:space="preserve" transform="matrix(1 0 -0 1 0 841.92)" font-size="14.04" font-family="Times New Roman"><tspan y="-675.94" x="274.73 281.7921 288.75596 292.70118 298.8226 302.76783 306.61479 315.3617 322.32554 329.38764 334.06297 341.0268 347.26057 357.945 361.89024 368.95234 375.1861 383.933">holati yordamida o</tspan></text>
</g>
<clipPath id="cp27575">
<path transform="matrix(1,0,0,-1,0,841.92)" d="M .000008871 0 L 595.32 0 L 595.32 841.92 L .000008871 841.92 Z " fill-rule="evenodd"/>
</clipPath>
<g clip-path="url(#cp27575)">
<text xml:space="preserve" transform="matrix(1 0 -0 1 0 841.92)" font-size="14.04" font-family="Times New Roman"><tspan y="-675.94" x="391.15">&#x2019;</tspan></text>
</g>
<clipPath id="cp27576">
<path transform="matrix(1,0,0,-1,0,841.92)" d="M .000008871 0 L 595.32 0 L 595.32 841.92 L .000008871 841.92 Z " fill-rule="evenodd"/>
</clipPath>
<g clip-path="url(#cp27576)">
<text xml:space="preserve" transform="matrix(1 0 -0 1 0 841.92)" font-size="14.04" font-family="Times New Roman"><tspan y="-675.94" x="395.71 401.94377 409.0199 415.14134 419.81666 423.6636 427.60884 432.28416 436.1311 441.5365 448.5986 457.34553 464.18299 471.2451 478.3072 482.2524 490.873 497.9351 504.05653 511.02037 518.08248 524.3162 531.1678 535.11306 539.0583 543.7336 547.58059 552.8596 559.8235">zgartirish yoki kengaytirish </tspan></text>
</g>
<clipPath id="cp27577">
<path transform="matrix(1,0,0,-1,0,841.92)" d="M .000008871 0 L 595.32 0 L 595.32 841.92 L .000008871 841.92 Z " fill-rule="evenodd"/>
</clipPath>
<g clip-path="url(#cp27577)">
<text xml:space="preserve" transform="matrix(1 0 -0 1 0 841.92)" font-size="14.04" font-family="Times New Roman"><tspan y="-651.7" x="85.104 95.78844 102.97691 113.661357 120.72347 124.66872 131.73084 135.24083 138.69466 144.19834 150.4321 157.39594 164.45806 170.5795 174.52474 181.48857 187.72234 191.23233 202.01506">mumkin. Jadvalga ma</tspan></text>
</g>
<clipPath id="cp27578">
<path transform="matrix(1,0,0,-1,0,841.92)" d="M .000008871 0 L 595.32 0 L 595.32 841.92 L .000008871 841.92 Z " fill-rule="evenodd"/>
</clipPath>
<g clip-path="url(#cp27578)">
<text xml:space="preserve" transform="matrix(1 0 -0 1 0 841.92)" font-size="14.04" font-family="Times New Roman"><tspan y="-651.7" x="208.37">&#x2019;</tspan></text>
</g>
<clipPath id="cp27579">
<path transform="matrix(1,0,0,-1,0,841.92)" d="M .000008871 0 L 595.32 0 L 595.32 841.92 L .000008871 841.92 Z " fill-rule="evenodd"/>
</clipPath>
<g clip-path="url(#cp27579)">
<text xml:space="preserve" transform="matrix(1 0 -0 1 0 841.92)" font-size="14.04" font-family="Times New Roman"><tspan y="-651.7" x="212.93 216.87523 223.93735 234.6218 241.68392 245.62915 249.57439 255.80815 260.37113 267.43324 271.37846">lumotlarni </tspan></text>
</g>
<clipPath id="cp27580">
<path transform="matrix(1,0,0,-1,0,841.92)" d="M .000008871 0 L 595.32 0 L 595.32 841.92 L .000008871 841.92 Z " fill-rule="evenodd"/>
</clipPath>
<g clip-path="url(#cp27580)">
<text xml:space="preserve" transform="matrix(1 0 -0 1 0 841.92)" font-size="14.04" font-family="Times New Roman"><tspan y="-651.7" x="274.85 281.9121 285.75907 290.4344 294.28135 298.22657 302.07353 307.4789 314.54103 318.05104 324.8604">kiritish yo</tspan></text>
</g>
<clipPath id="cp27581">
<path transform="matrix(1,0,0,-1,0,841.92)" d="M .000008871 0 L 595.32 0 L 595.32 841.92 L .000008871 841.92 Z " fill-rule="evenodd"/>
</clipPath>
<g clip-path="url(#cp27581)">
<text xml:space="preserve" transform="matrix(1 0 -0 1 0 841.92)" font-size="14.04" font-family="Times New Roman"><tspan y="-651.7" x="332.11">&#x2019;</tspan></text>
</g>
<clipPath id="cp27582">
<path transform="matrix(1,0,0,-1,0,841.92)" d="M .000008871 0 L 595.32 0 L 595.32 841.92 L .000008871 841.92 Z " fill-rule="evenodd"/>
</clipPath>
<g clip-path="url(#cp27582)">
<text xml:space="preserve" transform="matrix(1 0 -0 1 0 841.92)" font-size="14.04" font-family="Times New Roman"><tspan y="-651.7" x="336.67 340.61524 344.56047 348.07048 355.00624 358.95146 362.7984 369.03218 376.1083 379.61833 383.42317 389.65693 396.62077 403.68287 409.8043 413.65126 420.71336 424.65858 428.01414 434.97798 442.04008 447.44548 451.3907 455.3359 458.69148 465.6553 469.60054 473.44749 477.3927 482.7981">li bilan jadvalni hosil qilish</tspan></text>
</g>
<clipPath id="cp27583">
<path transform="matrix(1,0,0,-1,0,841.92)" d="M .000008871 0 L 595.32 0 L 595.32 841.92 L .000008871 841.92 Z " fill-rule="evenodd"/>
</clipPath>
<g clip-path="url(#cp27583)">
<text xml:space="preserve" transform="matrix(1 0 -0 1 0 841.92)" font-size="14.04" font-family="Times New Roman"><tspan y="-651.7" x="489.94"> </tspan></text>
</g>
</g>
<g id="Layer-1" data-name="P">
<clipPath id="cp27584">
<path transform="matrix(1,0,0,-1,0,841.92)" d="M .000008871 0 L 595.32 0 L 595.32 841.92 L .000008871 841.92 Z " fill-rule="evenodd"/>
</clipPath>
<g clip-path="url(#cp27584)">
<text xml:space="preserve" transform="matrix(1 0 -0 1 0 841.92)" font-size="14.04" font-family="Calibri"><tspan y="-626.98" x="120.5"> </tspan></text>
</g>
<clipPath id="cp27585">
<path transform="matrix(1,0,0,-1,0,841.92)" d="M .000008871 0 L 595.32 0 L 595.32 841.92 L .000008871 841.92 Z " fill-rule="evenodd"/>
</clipPath>
<g clip-path="url(#cp27585)">
<text xml:space="preserve" transform="matrix(1 0 -0 1 0 841.92)" font-size="14.04" font-family="Times New Roman"><tspan y="-626.98" x="123.62 130.7">1.</tspan></text>
</g>
<clipPath id="cp27586">
<path transform="matrix(1,0,0,-1,0,841.92)" d="M .000008871 0 L 595.32 0 L 595.32 841.92 L .000008871 841.92 Z " fill-rule="evenodd"/>
</clipPath>
<g clip-path="url(#cp27586)">
<text xml:space="preserve" transform="matrix(1 0 -0 1 0 841.92)" font-size="14.04" font-family="Times New Roman"><tspan y="-626.98" x="134.18"> </tspan></text>
</g>
<clipPath id="cp27587">
<path transform="matrix(1,0,0,-1,0,841.92)" d="M .000008871 0 L 595.32 0 L 595.32 841.92 L .000008871 841.92 Z " fill-rule="evenodd"/>
</clipPath>
<g clip-path="url(#cp27587)">
<text xml:space="preserve" transform="matrix(1 0 -0 1 0 841.92)" font-size="14.04" font-family="Times New Roman"><tspan y="-626.98" x="137.66 150.14157 159.50626 163.01625 170.03626 176.90183 183.96395 190.19771 195.6031 199.54834 206.61046 212.84423 216.21382">MB oynasiga o</tspan></text>
</g>
<clipPath id="cp27588">
<path transform="matrix(1,0,0,-1,0,841.92)" d="M .000008871 0 L 595.32 0 L 595.32 841.92 L .000008871 841.92 Z " fill-rule="evenodd"/>
</clipPath>
<g clip-path="url(#cp27588)">
<text xml:space="preserve" transform="matrix(1 0 -0 1 0 841.92)" font-size="14.04" font-family="Times New Roman"><tspan y="-626.98" x="223.37">&#x2019;</tspan></text>
</g>
<clipPath id="cp27589">
<path transform="matrix(1,0,0,-1,0,841.92)" d="M .000008871 0 L 595.32 0 L 595.32 841.92 L .000008871 841.92 Z " fill-rule="evenodd"/>
</clipPath>
<g clip-path="url(#cp27589)">
<text xml:space="preserve" transform="matrix(1 0 -0 1 0 841.92)" font-size="14.04" font-family="Times New Roman"><tspan y="-626.98" x="227.93 231.87523 235.72219 241.12758 248.1897">tish.</tspan></text>
</g>
<clipPath id="cp27590">
<path transform="matrix(1,0,0,-1,0,841.92)" d="M .000008871 0 L 595.32 0 L 595.32 841.92 L .000008871 841.92 Z " fill-rule="evenodd"/>
</clipPath>
<g clip-path="url(#cp27590)">
<text xml:space="preserve" transform="matrix(1 0 -0 1 0 841.92)" font-size="14.04" font-family="Times New Roman"><tspan y="-626.98" x="251.69"> </tspan></text>
</g>
</g>
<g id="Layer-1" data-name="P">
<clipPath id="cp27591">
<path transform="matrix(1,0,0,-1,0,841.92)" d="M .000008871 0 L 595.32 0 L 595.32 841.92 L .000008871 841.92 Z " fill-rule="evenodd"/>
</clipPath>
<g clip-path="url(#cp27591)">
<text xml:space="preserve" transform="matrix(1 0 -0 1 0 841.92)" font-size="14.04" font-family="Times New Roman"><tspan y="-601.9" x="120.5 127.56212 131.07212">2. </tspan></text>
</g>
<clipPath id="cp27592">
<path transform="matrix(1,0,0,-1,0,841.92)" d="M .000008871 0 L 595.32 0 L 595.32 841.92 L .000008871 841.92 Z " fill-rule="evenodd"/>
</clipPath>
<g clip-path="url(#cp27592)">
<text xml:space="preserve" transform="matrix(1 0 -0 1 0 841.92)" font-size="14.04" font-family="Times New Roman,Bold" font-weight="bold"><tspan y="-601.9" x="134.54">&#x00ab;</tspan></text>
</g>
</g>
<g id="Layer-1" data-name="P">
<clipPath id="cp27593">
<path transform="matrix(1,0,0,-1,0,841.92)" d="M .000008871 0 L 595.32 0 L 595.32 841.92 L .000008871 841.92 Z " fill-rule="evenodd"/>
</clipPath>
<g clip-path="url(#cp27593)">
<text xml:space="preserve" transform="matrix(1 0 -0 1 0 841.92)" font-size="14.04" font-family="Times New Roman,Bold" font-weight="bold"><tspan y="-601.9" x="141.62 150.85832 157.92044 164.88428 172.78879 180.83371 188.87863">&#x0422;&#x0430;&#x0431;&#x043b;&#x0438;&#x0446;&#x0430;</tspan></text>
</g>
</g>
<g id="Layer-1" data-name="P">
<clipPath id="cp27594">
<path transform="matrix(1,0,0,-1,0,841.92)" d="M .000008871 0 L 595.32 0 L 595.32 841.92 L .000008871 841.92 Z " fill-rule="evenodd"/>
</clipPath>
<g clip-path="url(#cp27594)">
<text xml:space="preserve" transform="matrix(1 0 -0 1 0 841.92)" font-size="14.04" font-family="Times New Roman,Bold" font-weight="bold"><tspan y="-601.9" x="195.89 202.97">&#x00bb; </tspan></text>
</g>
</g>
<g id="Layer-1" data-name="P">
<clipPath id="cp27595">
<path transform="matrix(1,0,0,-1,0,841.92)" d="M .000008871 0 L 595.32 0 L 595.32 841.92 L .000008871 841.92 Z " fill-rule="evenodd"/>
</clipPath>
<g clip-path="url(#cp27595)">
<text xml:space="preserve" transform="matrix(1 0 -0 1 0 841.92)" font-size="14.04" font-family="Times New Roman"><tspan y="-601.9" x="206.45 211.12532 216.53072 222.76448 229.72832 236.79044 242.91188 246.85712 251.53244 255.04244 258.86134 262.80656 269.7704 276.8325 282.95393 288.45759 292.30455 299.36665 305.6004">(Jadval) ilovasida </tspan></text>
</g>
</g>
<g id="Layer-1" data-name="P">
<clipPath id="cp27596">
<path transform="matrix(1,0,0,-1,0,841.92)" d="M .000008871 0 L 595.32 0 L 595.32 841.92 L .000008871 841.92 Z " fill-rule="evenodd"/>
</clipPath>
<g clip-path="url(#cp27596)">
<text xml:space="preserve" transform="matrix(1 0 -0 1 0 841.92)" font-size="14.04" font-family="Times New Roman,Bold" font-weight="bold"><tspan y="-601.9" x="309.05">&#x00ab;</tspan></text>
</g>
</g>
<g id="Layer-1" data-name="P">
<clipPath id="cp27597">
<path transform="matrix(1,0,0,-1,0,841.92)" d="M .000008871 0 L 595.32 0 L 595.32 841.92 L .000008871 841.92 Z " fill-rule="evenodd"/>
</clipPath>
<g clip-path="url(#cp27597)">
<text xml:space="preserve" transform="matrix(1 0 -0 1 0 841.92)" font-size="14.04" font-family="Times New Roman,Bold" font-weight="bold"><tspan y="-601.9" x="316.15 326.2307 333.29283 338.9369 345.8867 352.85054 359.68803">&#x0421;&#x043e;&#x0437;&#x0434;&#x0430;&#x0442;&#x044c;</tspan></text>
</g>
</g>
<g id="Layer-1" data-name="P">
<clipPath id="cp27598">
<path transform="matrix(1,0,0,-1,0,841.92)" d="M .000008871 0 L 595.32 0 L 595.32 841.92 L .000008871 841.92 Z " fill-rule="evenodd"/>
</clipPath>
<g clip-path="url(#cp27598)">
<text xml:space="preserve" transform="matrix(1 0 -0 1 0 841.92)" font-size="14.04" font-family="Times New Roman,Bold" font-weight="bold"><tspan y="-601.9" x="367.15 374.2121 377.7221">&#x00bb; (</tspan></text>
</g>
</g>
<g id="Layer-1" data-name="P">
<clipPath id="cp27599">
<path transform="matrix(1,0,0,-1,0,841.92)" d="M .000008871 0 L 595.32 0 L 595.32 841.92 L .000008871 841.92 Z " fill-rule="evenodd"/>
</clipPath>
<g clip-path="url(#cp27599)">
<text xml:space="preserve" transform="matrix(1 0 -0 1 0 841.92)" font-size="14.04" font-family="Times New Roman"><tspan y="-601.9" x="382.39 392.47074 398.7045 403.37983 409.51533 413.46055 417.3075 422.7129">Yaratish</tspan></text>
</g>
</g>
<g id="Layer-1" data-name="P">
<clipPath id="cp27600">
<path transform="matrix(1,0,0,-1,0,841.92)" d="M .000008871 0 L 595.32 0 L 595.32 841.92 L .000008871 841.92 Z " fill-rule="evenodd"/>
</clipPath>
<g clip-path="url(#cp27600)">
<text xml:space="preserve" transform="matrix(1 0 -0 1 0 841.92)" font-size="14.04" font-family="Times New Roman,Bold" font-weight="bold"><tspan y="-601.9" x="429.79">)</tspan></text>
</g>
</g>
<g id="Layer-1" data-name="P">
<clipPath id="cp27601">
<path transform="matrix(1,0,0,-1,0,841.92)" d="M .000008871 0 L 595.32 0 L 595.32 841.92 L .000008871 841.92 Z " fill-rule="evenodd"/>
</clipPath>
<g clip-path="url(#cp27601)">
<text xml:space="preserve" transform="matrix(1 0 -0 1 0 841.92)" font-size="14.04" font-family="Times New Roman"><tspan y="-601.9" x="434.47"> </tspan></text>
</g>
</g>
<g id="Layer-1" data-name="P">
<clipPath id="cp27602">
<path transform="matrix(1,0,0,-1,0,841.92)" d="M .000008871 0 L 595.32 0 L 595.32 841.92 L .000008871 841.92 Z " fill-rule="evenodd"/>
</clipPath>
<g clip-path="url(#cp27602)">
<text xml:space="preserve" transform="matrix(1 0 -0 1 0 841.92)" font-size="14.04" font-family="Times New Roman"><tspan y="-601.9" x="437.95 441.79698 448.7608 455.8229 466.50736 472.74113 479.08723 486.14933 492.3831 497.78849 501.63545 508.69755 512.64279 515.99838 523.0605 530.02438 535.42977 539.375 544.7804 551.8425">tugmachasini bosish.</tspan></text>
</g>
</g>
<g id="Layer-1" data-name="P">
<clipPath id="cp27603">
<path transform="matrix(1,0,0,-1,0,841.92)" d="M .000008871 0 L 595.32 0 L 595.32 841.92 L .000008871 841.92 Z " fill-rule="evenodd"/>
</clipPath>
<g clip-path="url(#cp27603)">
<text xml:space="preserve" transform="matrix(1 0 -0 1 0 841.92)" font-size="14.04" font-family="Times New Roman"><tspan y="-601.9" x="555.34"> </tspan></text>
</g>
</g>
<g id="Layer-1" data-name="P">
<clipPath id="cp27604">
<path transform="matrix(1,0,0,-1,0,841.92)" d="M .000008871 0 L 595.32 0 L 595.32 841.92 L .000008871 841.92 Z " fill-rule="evenodd"/>
</clipPath>
<g clip-path="url(#cp27604)">
<text xml:space="preserve" transform="matrix(1 0 -0 1 0 841.92)" font-size="14.04" font-family="Times New Roman"><tspan y="-577.78" x="120.5 127.58">3.</tspan></text>
</g>
<clipPath id="cp27605">
<path transform="matrix(1,0,0,-1,0,841.92)" d="M .000008871 0 L 595.32 0 L 595.32 841.92 L .000008871 841.92 Z " fill-rule="evenodd"/>
</clipPath>
<g clip-path="url(#cp27605)">
<text xml:space="preserve" transform="matrix(1 0 -0 1 0 841.92)" font-size="14.04" font-family="Times New Roman,Bold" font-weight="bold"><tspan y="-577.78" x="131.06"> </tspan></text>
</g>
<clipPath id="cp27606">
<path transform="matrix(1,0,0,-1,0,841.92)" d="M .000008871 0 L 595.32 0 L 595.32 841.92 L .000008871 841.92 Z " fill-rule="evenodd"/>
</clipPath>
<g clip-path="url(#cp27606)">
<text xml:space="preserve" transform="matrix(1 0 -0 1 0 841.92)" font-size="14.04" font-family="Times New Roman,Bold" font-weight="bold"><tspan y="-577.78" x="136.82">&#x00ab;</tspan></text>
</g>
</g>
<g id="Layer-1" data-name="P">
<clipPath id="cp27607">
<path transform="matrix(1,0,0,-1,0,841.92)" d="M .000008871 0 L 595.32 0 L 595.32 841.92 L .000008871 841.92 Z " fill-rule="evenodd"/>
</clipPath>
<g clip-path="url(#cp27607)">
<text xml:space="preserve" transform="matrix(1 0 -0 1 0 841.92)" font-size="14.04" font-family="Times New Roman,Bold" font-weight="bold"><tspan y="-577.78" x="143.9 152.42227 158.65604 168.73676 176.78168">&#x0420;&#x0435;&#x0436;&#x0438;&#x043c;</tspan></text>
</g>
</g>
<g id="Layer-1" data-name="P">
<clipPath id="cp27608">
<path transform="matrix(1,0,0,-1,0,841.92)" d="M .000008871 0 L 595.32 0 L 595.32 841.92 L .000008871 841.92 Z " fill-rule="evenodd"/>
</clipPath>
<g clip-path="url(#cp27608)">
<text xml:space="preserve" transform="matrix(1 0 -0 1 0 841.92)" font-size="14.04" font-family="Times New Roman,Bold" font-weight="bold"><tspan y="-577.78" x="186.38"> </tspan></text>
</g>
</g>
<g id="Layer-1" data-name="P">
<clipPath id="cp27609">
<path transform="matrix(1,0,0,-1,0,841.92)" d="M .000008871 0 L 595.32 0 L 595.32 841.92 L .000008871 841.92 Z " fill-rule="evenodd"/>
</clipPath>
<g clip-path="url(#cp27609)">
<text xml:space="preserve" transform="matrix(1 0 -0 1 0 841.92)" font-size="14.04" font-family="Times New Roman,Bold" font-weight="bold"><tspan y="-577.78" x="192.17 199.11981 206.08365 213.04749 220.952 228.99692 237.04184">&#x0442;&#x0430;&#x0431;&#x043b;&#x0438;&#x0446;&#x044b;</tspan></text>
</g>
</g>
<g id="Layer-1" data-name="P">
<clipPath id="cp27610">
<path transform="matrix(1,0,0,-1,0,841.92)" d="M .000008871 0 L 595.32 0 L 595.32 841.92 L .000008871 841.92 Z " fill-rule="evenodd"/>
</clipPath>
<g clip-path="url(#cp27610)">
<text xml:space="preserve" transform="matrix(1 0 -0 1 0 841.92)" font-size="14.04" font-family="Times New Roman,Bold" font-weight="bold"><tspan y="-577.78" x="247.97 255.05">&#x00bb; </tspan></text>
</g>
</g>
<g id="Layer-1" data-name="P">
<clipPath id="cp27611">
<path transform="matrix(1,0,0,-1,0,841.92)" d="M .000008871 0 L 595.32 0 L 595.32 841.92 L .000008871 841.92 Z " fill-rule="evenodd"/>
</clipPath>
<g clip-path="url(#cp27611)">
<text xml:space="preserve" transform="matrix(1 0 -0 1 0 841.92)" font-size="14.04" font-family="Times New Roman"><tspan y="-577.78" x="260.81 265.48533 270.98899 277.1104 284.17253 291.13636 297.37013 301.31535 306.94538 314.00749 320.9713 324.91654 331.03797 334.9832 338.9284 343.60374 349.36015 355.48158 359.32853 365.67463 376.35908 382.59284 389.66899 393.51594 397.46116 404.52326 410.75703 416.38706 421.89073 425.83595 431.95738 438.9212 445.9833 452.94715 460.00926 466.13069 473.19279 479.3142 485.05659 489.0018 495.96565 503.02775 513.71218 519.9459 526.1797 533.25588 539.4896 545.0073 548.8543 555.8182 559.66519">(Jadval holati) elementida sichqoncha tugmachasini </tspan></text>
</g>
</g>
<g id="Layer-1" data-name="P">
<clipPath id="cp27612">
<path transform="matrix(1,0,0,-1,0,841.92)" d="M .000008871 0 L 595.32 0 L 595.32 841.92 L .000008871 841.92 Z " fill-rule="evenodd"/>
</clipPath>
<g clip-path="url(#cp27612)">
<text xml:space="preserve" transform="matrix(1 0 -0 1 0 841.92)" font-size="14.04" font-family="Times New Roman"><tspan y="-553.63" x="85.104 89.04924 96.01308 103.075199 106.92216 111.23244 121.91688 128.15064 132.82596 136.78525 143.01902 147.32929 154.29312 161.35524 166.76064 170.70587 176.11127 183.17339 186.68338 190.96558 201.0463 207.16774 211.11298 215.05821 218.90517 225.02661 232.08873 238.3225 242.63277 248.75421 255.81633 260.49165 266.61308 273.5769 280.639 286.87278 291.07075 298.13285 305.09669 309.40699 313.3522 319.47364 323.65757 330.71968 336.12507 339.97203 347.03413 354.09623 358.28016 365.34226 371.46369 375.774 382.73783 389.79994 393.98387 397.92909 404.16285 408.3608 413.86448 420.09825 423.9452 428.6205 435.58436 441.70579 448.76789 453.0782 456.92515 463.88899 470.95109 475.6264 481.74784 485.69306 489.87699 496.9391">ikki marta bosish. Natijada ekranda 20 ta ustun va 30 ta satrdan iborat bo</tspan></text>
</g>
</g>
<g id="Layer-1" data-name="P">
<clipPath id="cp27613">
<path transform="matrix(1,0,0,-1,0,841.92)" d="M .000008871 0 L 595.32 0 L 595.32 841.92 L .000008871 841.92 Z " fill-rule="evenodd"/>
</clipPath>
<g clip-path="url(#cp27613)">
<text xml:space="preserve" transform="matrix(1 0 -0 1 0 841.92)" font-size="14.04" font-family="Times New Roman"><tspan y="-553.63" x="504.58">&#x2019;</tspan></text>
</g>
</g>
<g id="Layer-1" data-name="P">
<clipPath id="cp27614">
<path transform="matrix(1,0,0,-1,0,841.92)" d="M .000008871 0 L 595.32 0 L 595.32 841.92 L .000008871 841.92 Z " fill-rule="evenodd"/>
</clipPath>
<g clip-path="url(#cp27614)">
<text xml:space="preserve" transform="matrix(1 0 -0 1 0 841.92)" font-size="14.04" font-family="Times New Roman"><tspan y="-553.63" x="509.14 514.5454 521.60757 525.91787 529.76486 535.9986 542.96249 550.0246 556.14608 559.99307">sh jadval </tspan></text>
</g>
</g>
<g id="Layer-1" data-name="P">
<clipPath id="cp27615">
<path transform="matrix(1,0,0,-1,0,841.92)" d="M .000008871 0 L 595.32 0 L 595.32 841.92 L .000008871 841.92 Z " fill-rule="evenodd"/>
</clipPath>
<g clip-path="url(#cp27615)">
<text xml:space="preserve" transform="matrix(1 0 -0 1 0 841.92)" font-size="14.04" font-family="Times New Roman"><tspan y="-529.51" x="85.104 92.166118 99.12995 104.535358 108.4806 112.42584">hosil </tspan></text>
</g>
</g>
<g id="Layer-1" data-name="P">
<clipPath id="cp27616">
<path transform="matrix(1,0,0,-1,0,841.92)" d="M .000008871 0 L 595.32 0 L 595.32 841.92 L .000008871 841.92 Z " fill-rule="evenodd"/>
</clipPath>
<g clip-path="url(#cp27616)">
<text xml:space="preserve" transform="matrix(1 0 -0 1 0 841.92)" font-size="14.04" font-family="Times New Roman"><tspan y="-529.51" x="116.54 123.5">bo</tspan></text>
</g>
</g>
<g id="Layer-1" data-name="P">
<clipPath id="cp27617">
<path transform="matrix(1,0,0,-1,0,841.92)" d="M .000008871 0 L 595.32 0 L 595.32 841.92 L .000008871 841.92 Z " fill-rule="evenodd"/>
</clipPath>
<g clip-path="url(#cp27617)">
<text xml:space="preserve" transform="matrix(1 0 -0 1 0 841.92)" font-size="14.04" font-family="Times New Roman"><tspan y="-529.51" x="130.58">&#x2019;</tspan></text>
</g>
</g>
<g id="Layer-1" data-name="P">
<clipPath id="cp27618">
<path transform="matrix(1,0,0,-1,0,841.92)" d="M .000008871 0 L 595.32 0 L 595.32 841.92 L .000008871 841.92 Z " fill-rule="evenodd"/>
</clipPath>
<g clip-path="url(#cp27618)">
<text xml:space="preserve" transform="matrix(1 0 -0 1 0 841.92)" font-size="14.04" font-family="Times New Roman"><tspan y="-529.51" x="135.14 139.08524 145.319 152.28284 156.22808 159.73807 163.76755 173.84827 177.7935 184.75734 191.81946 195.66641 202.63025 208.86402 212.93561 219.99773">ladi. Alohida ko</tspan></text>
</g>
</g>
<g id="Layer-1" data-name="P">
<clipPath id="cp27619">
<path transform="matrix(1,0,0,-1,0,841.92)" d="M .000008871 0 L 595.32 0 L 595.32 841.92 L .000008871 841.92 Z " fill-rule="evenodd"/>
</clipPath>
<g clip-path="url(#cp27619)">
<text xml:space="preserve" transform="matrix(1 0 -0 1 0 841.92)" font-size="14.04" font-family="Times New Roman"><tspan y="-529.51" x="227.21">&#x2019;</tspan></text>
</g>
</g>
<g id="Layer-1" data-name="P">
<clipPath id="cp27620">
<path transform="matrix(1,0,0,-1,0,841.92)" d="M .000008871 0 L 595.32 0 L 595.32 841.92 L .000008871 841.92 Z " fill-rule="evenodd"/>
</clipPath>
<g clip-path="url(#cp27620)">
<text xml:space="preserve" transform="matrix(1 0 -0 1 0 841.92)" font-size="14.04" font-family="Times New Roman"><tspan y="-529.51" x="231.77 236.44533 241.949 248.07045 252.01569 262.70014 268.9339 273.00553 280.06764 286.3014 290.9767 294.93598 298.8812 309.56565 315.7994 321.3171 327.55088 331.06089 335.1044 342.1665 347.67018 351.51713 358.48097 365.54307 369.48829 375.6097 380.28504">rsatma berilmasa, ustunlar </tspan></text>
</g>
</g>
<g id="Layer-1" data-name="P">
<clipPath id="cp27621">
<path transform="matrix(1,0,0,-1,0,841.92)" d="M .000008871 0 L 595.32 0 L 595.32 841.92 L .000008871 841.92 Z " fill-rule="evenodd"/>
</clipPath>
<g clip-path="url(#cp27621)">
<text xml:space="preserve" transform="matrix(1 0 -0 1 0 841.92)" font-size="14.04" font-family="Times New Roman,Bold" font-weight="bold"><tspan y="-529.51" x="384.55">&#x00ab;</tspan></text>
</g>
</g>
<g id="Layer-1" data-name="P">
<clipPath id="cp27622">
<path transform="matrix(1,0,0,-1,0,841.92)" d="M .000008871 0 L 595.32 0 L 595.32 841.92 L .000008871 841.92 Z " fill-rule="evenodd"/>
</clipPath>
<g clip-path="url(#cp27622)">
<text xml:space="preserve" transform="matrix(1 0 -0 1 0 841.92)" font-size="14.04" font-family="Times New Roman,Bold" font-weight="bold"><tspan y="-529.51" x="391.63 402.42677 409.48887 417.39338">&#x041f;&#x043e;&#x043b;&#x0435;</tspan></text>
</g>
</g>
<g id="Layer-1" data-name="P">
<clipPath id="cp27623">
<path transform="matrix(1,0,0,-1,0,841.92)" d="M .000008871 0 L 595.32 0 L 595.32 841.92 L .000008871 841.92 Z " fill-rule="evenodd"/>
</clipPath>
<g clip-path="url(#cp27623)">
<text xml:space="preserve" transform="matrix(1 0 -0 1 0 841.92)" font-size="14.04" font-family="Times New Roman,Bold" font-weight="bold"><tspan y="-529.51" x="423.55 430.50999">1&#x00bb;</tspan></text>
</g>
</g>
<g id="Layer-1" data-name="P">
<clipPath id="cp27624">
<path transform="matrix(1,0,0,-1,0,841.92)" d="M .000008871 0 L 595.32 0 L 595.32 841.92 L .000008871 841.92 Z " fill-rule="evenodd"/>
</clipPath>
<g clip-path="url(#cp27624)">
<text xml:space="preserve" transform="matrix(1 0 -0 1 0 841.92)" font-size="14.04" font-family="Times New Roman"><tspan y="-529.51" x="437.59 441.07">, </tspan></text>
</g>
</g>
<g id="Layer-1" data-name="P">
<clipPath id="cp27625">
<path transform="matrix(1,0,0,-1,0,841.92)" d="M .000008871 0 L 595.32 0 L 595.32 841.92 L .000008871 841.92 Z " fill-rule="evenodd"/>
</clipPath>
<g clip-path="url(#cp27625)">
<text xml:space="preserve" transform="matrix(1 0 -0 1 0 841.92)" font-size="14.04" font-family="Times New Roman,Bold" font-weight="bold"><tspan y="-529.51" x="445.18">&#x00ab;</tspan></text>
</g>
</g>
<g id="Layer-1" data-name="P">
<clipPath id="cp27626">
<path transform="matrix(1,0,0,-1,0,841.92)" d="M .000008871 0 L 595.32 0 L 595.32 841.92 L .000008871 841.92 Z " fill-rule="evenodd"/>
</clipPath>
<g clip-path="url(#cp27626)">
<text xml:space="preserve" transform="matrix(1 0 -0 1 0 841.92)" font-size="14.04" font-family="Times New Roman,Bold" font-weight="bold"><tspan y="-529.51" x="452.26 463.18315 470.14698 478.05149">&#x041f;&#x043e;&#x043b;&#x0435;</tspan></text>
</g>
</g>
<g id="Layer-1" data-name="P">
<clipPath id="cp27627">
<path transform="matrix(1,0,0,-1,0,841.92)" d="M .000008871 0 L 595.32 0 L 595.32 841.92 L .000008871 841.92 Z " fill-rule="evenodd"/>
</clipPath>
<g clip-path="url(#cp27627)">
<text xml:space="preserve" transform="matrix(1 0 -0 1 0 841.92)" font-size="14.04" font-family="Times New Roman,Bold" font-weight="bold"><tspan y="-529.51" x="484.3 491.25999">2&#x00bb;</tspan></text>
</g>
</g>
<g id="Layer-1" data-name="P">
<clipPath id="cp27628">
<path transform="matrix(1,0,0,-1,0,841.92)" d="M .000008871 0 L 595.32 0 L 595.32 841.92 L .000008871 841.92 Z " fill-rule="evenodd"/>
</clipPath>
<g clip-path="url(#cp27628)">
<text xml:space="preserve" transform="matrix(1 0 -0 1 0 841.92)" font-size="14.04" font-family="Times New Roman"><tspan y="-529.51" x="498.34"> </tspan></text>
</g>
</g>
<g id="Layer-1" data-name="P">
<clipPath id="cp27629">
<path transform="matrix(1,0,0,-1,0,841.92)" d="M .000008871 0 L 595.32 0 L 595.32 841.92 L .000008871 841.92 Z " fill-rule="evenodd"/>
</clipPath>
<g clip-path="url(#cp27629)">
<text xml:space="preserve" transform="matrix(1 0 -0 1 0 841.92)" font-size="14.04" font-family="Times New Roman"><tspan y="-529.51" x="502.42 509.48213 515.7159 519.7875 526.75137 533.7152 540.77737 547.0111 553.0202 559.9841">va hokazo </tspan></text>
</g>
</g>
<g id="Layer-1" data-name="P">
<clipPath id="cp27630">
<path transform="matrix(1,0,0,-1,0,841.92)" d="M .000008871 0 L 595.32 0 L 595.32 841.92 L .000008871 841.92 Z " fill-rule="evenodd"/>
</clipPath>
<g clip-path="url(#cp27630)">
<text xml:space="preserve" transform="matrix(1 0 -0 1 0 841.92)" font-size="14.04" font-family="Times New Roman"><tspan y="-505.39" x="85.104 92.166118 99.22823 109.912677 113.85792 120.091678 124.767 128.61396 135.67607 139.6213 142.97687 150.03899 153.88594 160.1197 167.08354 171.02878">nomlarini oladi.</tspan></text>
</g>
</g>
<g id="Layer-1" data-name="P">
<clipPath id="cp27631">
<path transform="matrix(1,0,0,-1,0,841.92)" d="M .000008871 0 L 595.32 0 L 595.32 841.92 L .000008871 841.92 Z " fill-rule="evenodd"/>
</clipPath>
<g clip-path="url(#cp27631)">
<text xml:space="preserve" transform="matrix(1 0 -0 1 0 841.92)" font-size="14.04" font-family="Times New Roman"><tspan y="-505.39" x="174.5"> </tspan></text>
</g>
</g>
<g id="Layer-1" data-name="P">
<clipPath id="cp27632">
<path transform="matrix(1,0,0,-1,0,841.92)" d="M .000008871 0 L 595.32 0 L 595.32 841.92 L .000008871 841.92 Z " fill-rule="evenodd"/>
</clipPath>
<g clip-path="url(#cp27632)">
<text xml:space="preserve" transform="matrix(1 0 -0 1 0 841.92)" font-size="14.04" font-family="Times New Roman"><tspan y="-481.15" x="120.5 127.56212 131.07212 137.62879 147.7095 153.94327 158.61859 165.21739 172.27951 176.22475 180.90007 187.48482 194.44866 199.95233 203.79929 210.76313 217.82524 224.40999 231.37383 238.33766 249.02211 252.96735 260.02946 263.97468 270.55946">4. Har bir ustun nomini o</tspan></text>
</g>
<clipPath id="cp27633">
<path transform="matrix(1,0,0,-1,0,841.92)" d="M .000008871 0 L 595.32 0 L 595.32 841.92 L .000008871 841.92 Z " fill-rule="evenodd"/>
</clipPath>
<g clip-path="url(#cp27633)">
<text xml:space="preserve" transform="matrix(1 0 -0 1 0 841.92)" font-size="14.04" font-family="Times New Roman"><tspan y="-481.15" x="277.85">&#x2019;</tspan></text>
</g>
<clipPath id="cp27634">
<path transform="matrix(1,0,0,-1,0,841.92)" d="M .000008871 0 L 595.32 0 L 595.32 841.92 L .000008871 841.92 Z " fill-rule="evenodd"/>
</clipPath>
<g clip-path="url(#cp27634)">
<text xml:space="preserve" transform="matrix(1 0 -0 1 0 841.92)" font-size="14.04" font-family="Times New Roman"><tspan y="-481.15" x="282.41 288.64378 295.7199 301.95368 306.629 310.47596 314.42118 318.98417 322.92939 328.33479 335.39689 341.98167 349.04377 355.1652 362.2273 369.19114 376.25325 382.838 389.80186 396.86396 400.7109 407.67475 414.73686 421.32164 428.28547 435.34757 446.032 449.97724 456.562 463.6241 469.12779 473.073 476.91996 483.98207 490.21583 496.81465 502.22004 506.16526 512.399 519.36288 526.3267 533.38888 540.3527 546.5865 553.55038 559.6718">zgartirish uchun uning nomi ustida sichqoncha </tspan></text>
</g>
<clipPath id="cp27635">
<path transform="matrix(1,0,0,-1,0,841.92)" d="M .000008871 0 L 595.32 0 L 595.32 841.92 L .000008871 841.92 Z " fill-rule="evenodd"/>
</clipPath>
<g clip-path="url(#cp27635)">
<text xml:space="preserve" transform="matrix(1 0 -0 1 0 841.92)" font-size="14.04" font-family="Times New Roman"><tspan y="-457.03" x="85.104 89.04924 96.01308 103.075199 113.759639 119.99339 126.22715 133.30332 139.53708 144.94248 148.88771 155.85155 159.79679 164.45806 168.30501 175.26885 182.33097 186.2762 190.93747 201.73424 207.968 212.64333 216.60262 222.83638 227.38533 234.44745 241.41129 246.81668 250.76192 256.16734 263.22944 266.73945 271.37266 278.2101 284.44389 291.52003 298.58213 302.52735 307.07633 314.04017 321.004 331.68846 338.75056 342.69578 347.35707 354.41917 358.36439 364.59815 369.16114 376.22325 382.457 387.13233 394.09617">tugmachasini ikki marta bosish, yangi nomni ularga qo</tspan></text>
</g>
<clipPath id="cp27636">
<path transform="matrix(1,0,0,-1,0,841.92)" d="M .000008871 0 L 595.32 0 L 595.32 841.92 L .000008871 841.92 Z " fill-rule="evenodd"/>
</clipPath>
<g clip-path="url(#cp27636)">
<text xml:space="preserve" transform="matrix(1 0 -0 1 0 841.92)" font-size="14.04" font-family="Times New Roman"><tspan y="-457.03" x="401.59">&#x2019;</tspan></text>
</g>
<clipPath id="cp27637">
<path transform="matrix(1,0,0,-1,0,841.92)" d="M .000008871 0 L 595.32 0 L 595.32 841.92 L .000008871 841.92 Z " fill-rule="evenodd"/>
</clipPath>
<g clip-path="url(#cp27637)">
<text xml:space="preserve" transform="matrix(1 0 -0 1 0 841.92)" font-size="14.04" font-family="Times New Roman"><tspan y="-457.03" x="406.15 412.98747 416.93269 420.8779 427.11167 434.0755 437.92247 444.98457 451.106 458.1681 462.82939 469.89149 476.12525 480.68824 486.922 493.88584 500.1196 504.79493 508.74015 514.8616 518.8068 524.9283 531.9904 535.8374 542.07119 546.74649 553.72439 559.8458">yiladigan barcha talablarga </tspan></text>
</g>
<clipPath id="cp27638">
<path transform="matrix(1,0,0,-1,0,841.92)" d="M .000008871 0 L 595.32 0 L 595.32 841.92 L .000008871 841.92 Z " fill-rule="evenodd"/>
</clipPath>
<g clip-path="url(#cp27638)">
<text xml:space="preserve" transform="matrix(1 0 -0 1 0 841.92)" font-size="14.04" font-family="Times New Roman"><tspan y="-432.91" x="85.104 89.77932 93.72456 100.78668 107.62416 113.85792 117.36792 124.38792 128.29103 132.10991 139.17203">rioya qilga</tspan></text>
</g>
<clipPath id="cp27639">
<path transform="matrix(1,0,0,-1,0,841.92)" d="M .000008871 0 L 595.32 0 L 595.32 841.92 L .000008871 841.92 Z " fill-rule="evenodd"/>
</clipPath>
<g clip-path="url(#cp27639)">
<text xml:space="preserve" transform="matrix(1 0 -0 1 0 841.92)" font-size="14.04" font-family="Times New Roman"><tspan y="-432.91" x="145.46 152.52213 155.87769 162.84152 169.90364 173.7506 180.81272 187.04648 190.41608 197.4782 201.42343 205.98644 209.93167 213.77863 217.72386 223.12926 230.19138 233.54694 240.60906 246.84282 250.35282 258.84703 268.92774 277.45 285.9723 295.33699 298.847 302.7501 309.84028 316.90238 327.58683 333.8206 340.05436 347.1305 353.25193 358.75559 362.60255 369.56639 373.5116 377.0216 383.95738 391.01948 396.42488 400.27183 405.77549 412.8376 416.19316 423.25526 429.489 434.16435 440.29985 447.26368">n holda kiritish va ENTER tugmachasini bosish kerak.</tspan></text>
</g>
<clipPath id="cp27640">
<path transform="matrix(1,0,0,-1,0,841.92)" d="M .000008871 0 L 595.32 0 L 595.32 841.92 L .000008871 841.92 Z " fill-rule="evenodd"/>
</clipPath>
<g clip-path="url(#cp27640)">
<text xml:space="preserve" transform="matrix(1 0 -0 1 0 841.92)" font-size="14.04" font-family="Times New Roman"><tspan y="-432.91" x="451.06"> </tspan></text>
</g>
</g>
<g id="Layer-1" data-name="P">
<clipPath id="cp27641">
<path transform="matrix(1,0,0,-1,0,841.92)" d="M .000008871 0 L 595.32 0 L 595.32 841.92 L .000008871 841.92 Z " fill-rule="evenodd"/>
</clipPath>
<g clip-path="url(#cp27641)">
<text xml:space="preserve" transform="matrix(1 0 -0 1 0 841.92)" font-size="14.04" font-family="Times New Roman"><tspan y="-408.79" x="120.5 127.56212 131.07212 136.54772 146.62844 153.69055 159.92432 164.59964 170.11736 173.96431 180.08576 187.14788 194.11171 200.34548 204.29071 209.68207 216.74419 223.8063 229.19766 233.1429 239.26435 246.32646 252.4479 259.51 265.0137 272.0758 276.6388 280.584 284.43098 291.49308 296.88444 303.94654 309.35194 313.19889 320.261 327.22483 334.28694 340.5207 346.03843 352.15986 359.1237 365.35746 370.87519 377.83903">5. Agar jadval 20 tadan ortiq ustunga ega bo</tspan></text>
</g>
<clipPath id="cp27642">
<path transform="matrix(1,0,0,-1,0,841.92)" d="M .000008871 0 L 595.32 0 L 595.32 841.92 L .000008871 841.92 Z " fill-rule="evenodd"/>
</clipPath>
<g clip-path="url(#cp27642)">
<text xml:space="preserve" transform="matrix(1 0 -0 1 0 841.92)" font-size="14.04" font-family="Times New Roman"><tspan y="-408.79" x="385.27">&#x2019;</tspan></text>
</g>
<clipPath id="cp27643">
<path transform="matrix(1,0,0,-1,0,841.92)" d="M .000008871 0 L 595.32 0 L 595.32 841.92 L .000008871 841.92 Z " fill-rule="evenodd"/>
</clipPath>
<g clip-path="url(#cp27643)">
<text xml:space="preserve" transform="matrix(1 0 -0 1 0 841.92)" font-size="14.04" font-family="Times New Roman"><tspan y="-408.79" x="389.83 393.7752 399.27888 405.51264 409.02265 414.49827 421.33573 427.5695 434.64564 441.60948 445.5547 451.05839 458.02223 463.52589 467.37284 474.33668 481.3005 485.24574 491.4795 496.04249 503.10459 507.0498 512.44119 519.5033">lsa, yangi ustunlarni qo</tspan></text>
</g>
<clipPath id="cp27644">
<path transform="matrix(1,0,0,-1,0,841.92)" d="M .000008871 0 L 595.32 0 L 595.32 841.92 L .000008871 841.92 Z " fill-rule="evenodd"/>
</clipPath>
<g clip-path="url(#cp27644)">
<text xml:space="preserve" transform="matrix(1 0 -0 1 0 841.92)" font-size="14.04" font-family="Times New Roman"><tspan y="-408.79" x="526.78">&#x2019;</tspan></text>
</g>
<clipPath id="cp27645">
<path transform="matrix(1,0,0,-1,0,841.92)" d="M .000008871 0 L 595.32 0 L 595.32 841.92 L .000008871 841.92 Z " fill-rule="evenodd"/>
</clipPath>
<g clip-path="url(#cp27645)">
<text xml:space="preserve" transform="matrix(1 0 -0 1 0 841.92)" font-size="14.04" font-family="Times New Roman"><tspan y="-408.79" x="531.34 536.7454 543.80758 547.65457 553.05996 560.0238">shish </tspan></text>
</g>
<clipPath id="cp27646">
<path transform="matrix(1,0,0,-1,0,841.92)" d="M .000008871 0 L 595.32 0 L 595.32 841.92 L .000008871 841.92 Z " fill-rule="evenodd"/>
</clipPath>
<g clip-path="url(#cp27646)">
<text xml:space="preserve" transform="matrix(1 0 -0 1 0 841.92)" font-size="14.04" font-family="Times New Roman"><tspan y="-384.53" x="85.104 95.78844 102.97691 113.661357 120.72347 124.66872 131.73084 135.24083 145.27942 154.6441 161.70623 168.67006 172.6153 179.57913 186.64125 196.70793 203.67177 209.90554 216.86937 223.93149 230.9936 241.06029 247.89777 254.13153 261.20768 268.1715 272.11674 282.1834 289.2455 294.6509 298.49787 305.55998 312.62208 322.5624 329.6245">mumkin. Buning uchun yangi ustun qo</tspan></text>
</g>
<clipPath id="cp27647">
<path transform="matrix(1,0,0,-1,0,841.92)" d="M .000008871 0 L 595.32 0 L 595.32 841.92 L .000008871 841.92 Z " fill-rule="evenodd"/>
</clipPath>
<g clip-path="url(#cp27647)">
<text xml:space="preserve" transform="matrix(1 0 -0 1 0 841.92)" font-size="14.04" font-family="Times New Roman"><tspan y="-384.53" x="337.03">&#x2019;</tspan></text>
</g>
<clipPath id="cp27648">
<path transform="matrix(1,0,0,-1,0,841.92)" d="M .000008871 0 L 595.32 0 L 595.32 841.92 L .000008871 841.92 Z " fill-rule="evenodd"/>
</clipPath>
<g clip-path="url(#cp27648)">
<text xml:space="preserve" transform="matrix(1 0 -0 1 0 841.92)" font-size="14.04" font-family="Times New Roman"><tspan y="-384.53" x="341.59 348.42747 352.37269 356.3179 360.26313 365.66853 372.63236 376.57759 386.64427 393.70637 399.94013 404.5031 410.73689 417.81303 427.75337 434.81547">yilishi kerak bo</tspan></text>
</g>
<clipPath id="cp27649">
<path transform="matrix(1,0,0,-1,0,841.92)" d="M .000008871 0 L 595.32 0 L 595.32 841.92 L .000008871 841.92 Z " fill-rule="evenodd"/>
</clipPath>
<g clip-path="url(#cp27649)">
<text xml:space="preserve" transform="matrix(1 0 -0 1 0 841.92)" font-size="14.04" font-family="Times New Roman"><tspan y="-384.53" x="441.94">&#x2019;</tspan></text>
</g>
<clipPath id="cp27650">
<path transform="matrix(1,0,0,-1,0,841.92)" d="M .000008871 0 L 595.32 0 L 595.32 841.92 L .000008871 841.92 Z " fill-rule="evenodd"/>
</clipPath>
<g clip-path="url(#cp27650)">
<text xml:space="preserve" transform="matrix(1 0 -0 1 0 841.92)" font-size="14.04" font-family="Times New Roman"><tspan y="-384.53" x="446.5 450.44523 457.50733 463.7411 470.81724 480.8839 484.73088 491.79298 498.63044 505.69255 509.5395 516.6016 523.66378 533.73049 539.8519 546.91409 552.9091 559.873">lgan joyning chap </tspan></text>
</g>
<clipPath id="cp27651">
<path transform="matrix(1,0,0,-1,0,841.92)" d="M .000008871 0 L 595.32 0 L 595.32 841.92 L .000008871 841.92 Z " fill-rule="evenodd"/>
</clipPath>
<g clip-path="url(#cp27651)">
<text xml:space="preserve" transform="matrix(1 0 -0 1 0 841.92)" font-size="14.04" font-family="Times New Roman"><tspan y="-360.41" x="85.104 89.04924 96.11136 106.7958 113.85792 120.92004 124.767 131.82912 137.95056 144.9144 148.85964 161.8045 168.76834 174.27202 178.11898 185.08281 192.14493 199.10877 202.95572 210.01784 217.07996 229.9125">tomonidagi ustunning o</tspan></text>
</g>
<clipPath id="cp27652">
<path transform="matrix(1,0,0,-1,0,841.92)" d="M .000008871 0 L 595.32 0 L 595.32 841.92 L .000008871 841.92 Z " fill-rule="evenodd"/>
</clipPath>
<g clip-path="url(#cp27652)">
<text xml:space="preserve" transform="matrix(1 0 -0 1 0 841.92)" font-size="14.04" font-family="Times New Roman"><tspan y="-360.41" x="237.17">&#x2019;</tspan></text>
</g>
<clipPath id="cp27653">
<path transform="matrix(1,0,0,-1,0,841.92)" d="M .000008871 0 L 595.32 0 L 595.32 841.92 L .000008871 841.92 Z " fill-rule="evenodd"/>
</clipPath>
<g clip-path="url(#cp27653)">
<text xml:space="preserve" transform="matrix(1 0 -0 1 0 841.92)" font-size="14.04" font-family="Times New Roman"><tspan y="-360.41" x="241.73 248.79212 255.85424 268.6868 272.53376 279.59587 290.2803 297.3424 304.4045 308.34974 315.31358 321.435 334.37989 339.88356 343.82878 349.9502 356.91404 363.97615 370.93998 378.00209 384.1235 391.1856 397.41938 410.25196 414.19718 421.161 428.2231 439.01988 445.25364 451.4874 458.56355 464.68498 470.18864">ng tomonida sichqoncha tugmachasi</tspan></text>
</g>
<clipPath id="cp27654">
<path transform="matrix(1,0,0,-1,0,841.92)" d="M .000008871 0 L 595.32 0 L 595.32 841.92 L .000008871 841.92 Z " fill-rule="evenodd"/>
</clipPath>
<g clip-path="url(#cp27654)">
<text xml:space="preserve" transform="matrix(1 0 -0 1 0 841.92)" font-size="14.04" font-family="Times New Roman"><tspan y="-360.41" x="474.34 481.30384 485.24906 498.19395 505.15779 512.12167 517.6253 521.4723 526.97598 534.0381 546.87069 553.9328 559.92788">ni bosish va </tspan></text>
</g>
<clipPath id="cp27655">
<path transform="matrix(1,0,0,-1,0,841.92)" d="M .000008871 0 L 595.32 0 L 595.32 841.92 L .000008871 841.92 Z " fill-rule="evenodd"/>
</clipPath>
<g clip-path="url(#cp27655)">
<text xml:space="preserve" transform="matrix(1 0 -0 1 0 841.92)" font-size="14.04" font-family="Times New Roman,Bold" font-weight="bold"><tspan y="-336.29" x="85.104">&#x00ab;</tspan></text>
</g>
</g>
<g id="Layer-1" data-name="P">
<clipPath id="cp27656">
<path transform="matrix(1,0,0,-1,0,841.92)" d="M .000008871 0 L 595.32 0 L 595.32 841.92 L .000008871 841.92 Z " fill-rule="evenodd"/>
</clipPath>
<g clip-path="url(#cp27656)">
<text xml:space="preserve" transform="matrix(1 0 -0 1 0 841.92)" font-size="14.04" font-family="Times New Roman,Bold" font-weight="bold"><tspan y="-336.29" x="92.184 101.548679 107.67011 114.61991 121.68203 129.26363 137.16814">&#x0412;&#x0441;&#x0442;&#x0430;&#x0432;&#x043a;&#x0430;</tspan></text>
</g>
</g>
<g id="Layer-1" data-name="P">
<clipPath id="cp27657">
<path transform="matrix(1,0,0,-1,0,841.92)" d="M .000008871 0 L 595.32 0 L 595.32 841.92 L .000008871 841.92 Z " fill-rule="evenodd"/>
</clipPath>
<g clip-path="url(#cp27657)">
<text xml:space="preserve" transform="matrix(1 0 -0 1 0 841.92)" font-size="14.04" font-family="Times New Roman,Bold" font-weight="bold"><tspan y="-336.29" x="144.26 151.34">&#x00bb; </tspan></text>
</g>
</g>
<g id="Layer-1" data-name="P">
<clipPath id="cp27658">
<path transform="matrix(1,0,0,-1,0,841.92)" d="M .000008871 0 L 595.32 0 L 595.32 841.92 L .000008871 841.92 Z " fill-rule="evenodd"/>
</clipPath>
<g clip-path="url(#cp27658)">
<text xml:space="preserve" transform="matrix(1 0 -0 1 0 841.92)" font-size="14.04" font-family="Times New Roman"><tspan y="-336.29" x="154.82 159.49533 169.46373">(Qo</tspan></text>
</g>
</g>
<g id="Layer-1" data-name="P">
<clipPath id="cp27659">
<path transform="matrix(1,0,0,-1,0,841.92)" d="M .000008871 0 L 595.32 0 L 595.32 841.92 L .000008871 841.92 Z " fill-rule="evenodd"/>
</clipPath>
<g clip-path="url(#cp27659)">
<text xml:space="preserve" transform="matrix(1 0 -0 1 0 841.92)" font-size="14.04" font-family="Times New Roman"><tspan y="-336.29" x="176.54">&#x2019;</tspan></text>
</g>
</g>
<g id="Layer-1" data-name="P">
<clipPath id="cp27660">
<path transform="matrix(1,0,0,-1,0,841.92)" d="M .000008871 0 L 595.32 0 L 595.32 841.92 L .000008871 841.92 Z " fill-rule="evenodd"/>
</clipPath>
<g clip-path="url(#cp27660)">
<text xml:space="preserve" transform="matrix(1 0 -0 1 0 841.92)" font-size="14.04" font-family="Times New Roman"><tspan y="-336.29" x="181.1 187.93749 191.88272 197.3864 204.35024 209.02556 212.6198 223.30425 229.53801 236.61418 243.45166 250.51378 256.01747 259.96269 267.02479 273.25856">yish) menyusida </tspan></text>
</g>
</g>
<g id="Layer-1" data-name="P">
<clipPath id="cp27661">
<path transform="matrix(1,0,0,-1,0,841.92)" d="M .000008871 0 L 595.32 0 L 595.32 841.92 L .000008871 841.92 Z " fill-rule="evenodd"/>
</clipPath>
<g clip-path="url(#cp27661)">
<text xml:space="preserve" transform="matrix(1 0 -0 1 0 841.92)" font-size="14.04" font-family="Times New Roman,Bold" font-weight="bold"><tspan y="-336.29" x="276.77">&#x00ab;</tspan></text>
</g>
</g>
<g id="Layer-1" data-name="P">
<clipPath id="cp27662">
<path transform="matrix(1,0,0,-1,0,841.92)" d="M .000008871 0 L 595.32 0 L 595.32 841.92 L .000008871 841.92 Z " fill-rule="evenodd"/>
</clipPath>
<g clip-path="url(#cp27662)">
<text xml:space="preserve" transform="matrix(1 0 -0 1 0 841.92)" font-size="14.04" font-family="Times New Roman,Bold" font-weight="bold"><tspan y="-336.29" x="283.85 293.93074 300.76823 307.73207 315.63658 322.6004 328.83418">&#x0421;&#x0442;&#x043e;&#x043b;&#x0431;&#x0435;&#x0446;</tspan></text>
</g>
</g>
<g id="Layer-1" data-name="P">
<clipPath id="cp27663">
<path transform="matrix(1,0,0,-1,0,841.92)" d="M .000008871 0 L 595.32 0 L 595.32 841.92 L .000008871 841.92 Z " fill-rule="evenodd"/>
</clipPath>
<g clip-path="url(#cp27663)">
<text xml:space="preserve" transform="matrix(1 0 -0 1 0 841.92)" font-size="14.04" font-family="Times New Roman,Bold" font-weight="bold"><tspan y="-336.29" x="336.91 343.99">&#x00bb; </tspan></text>
</g>
</g>
<g id="Layer-1" data-name="P">
<clipPath id="cp27664">
<path transform="matrix(1,0,0,-1,0,841.92)" d="M .000008871 0 L 595.32 0 L 595.32 841.92 L .000008871 841.92 Z " fill-rule="evenodd"/>
</clipPath>
<g clip-path="url(#cp27664)">
<text xml:space="preserve" transform="matrix(1 0 -0 1 0 841.92)" font-size="14.04" font-family="Times New Roman"><tspan y="-336.29" x="347.47 352.14533 362.22605 367.63145 371.57667 378.5405 385.6026 390.27793 393.64753 400.70964 407.77174 414.6092 419.28453 426.36067">(Ustun) buyrug</tspan></text>
</g>
</g>
<g id="Layer-1" data-name="P">
<clipPath id="cp27665">
<path transform="matrix(1,0,0,-1,0,841.92)" d="M .000008871 0 L 595.32 0 L 595.32 841.92 L .000008871 841.92 Z " fill-rule="evenodd"/>
</clipPath>
<g clip-path="url(#cp27665)">
<text xml:space="preserve" transform="matrix(1 0 -0 1 0 841.92)" font-size="14.04" font-family="Times New Roman"><tspan y="-336.29" x="433.51">&#x2019;</tspan></text>
</g>
</g>
<g id="Layer-1" data-name="P">
<clipPath id="cp27666">
<path transform="matrix(1,0,0,-1,0,841.92)" d="M .000008871 0 L 595.32 0 L 595.32 841.92 L .000008871 841.92 Z " fill-rule="evenodd"/>
</clipPath>
<g clip-path="url(#cp27666)">
<text xml:space="preserve" transform="matrix(1 0 -0 1 0 841.92)" font-size="14.04" font-family="Times New Roman"><tspan y="-336.29" x="438.07 445.03385 448.97908 452.48908 456.39219 462.54173 469.60383 473.45079 479.68455 485.08995 492.15205 495.66206 502.5978 508.83158 513.5069 519.6424 526.7045">ni tanlash kerak.</tspan></text>
</g>
</g>
<g id="Layer-1" data-name="P">
<clipPath id="cp27667">
<path transform="matrix(1,0,0,-1,0,841.92)" d="M .000008871 0 L 595.32 0 L 595.32 841.92 L .000008871 841.92 Z " fill-rule="evenodd"/>
</clipPath>
<g clip-path="url(#cp27667)">
<text xml:space="preserve" transform="matrix(1 0 -0 1 0 841.92)" font-size="14.04" font-family="Times New Roman"><tspan y="-336.29" x="530.26"> </tspan></text>
</g>
</g>
<g id="Layer-1" data-name="P">
<clipPath id="cp27668">
<path transform="matrix(1,0,0,-1,0,841.92)" d="M .000008871 0 L 595.32 0 L 595.32 841.92 L .000008871 841.92 Z " fill-rule="evenodd"/>
</clipPath>
<g clip-path="url(#cp27668)">
<text xml:space="preserve" transform="matrix(1 0 -0 1 0 841.92)" font-size="14.04" font-family="Times New Roman"><tspan y="-312.17" x="120.5 127.56212 131.07212 137.62879 150.11035">6. Ma</tspan></text>
</g>
<clipPath id="cp27669">
<path transform="matrix(1,0,0,-1,0,841.92)" d="M .000008871 0 L 595.32 0 L 595.32 841.92 L .000008871 841.92 Z " fill-rule="evenodd"/>
</clipPath>
<g clip-path="url(#cp27669)">
<text xml:space="preserve" transform="matrix(1 0 -0 1 0 841.92)" font-size="14.04" font-family="Times New Roman"><tspan y="-312.17" x="156.38">&#x2019;</tspan></text>
</g>
<clipPath id="cp27670">
<path transform="matrix(1,0,0,-1,0,841.92)" d="M .000008871 0 L 595.32 0 L 595.32 841.92 L .000008871 841.92 Z " fill-rule="evenodd"/>
</clipPath>
<g clip-path="url(#cp27670)">
<text xml:space="preserve" transform="matrix(1 0 -0 1 0 841.92)" font-size="14.04" font-family="Times New Roman"><tspan y="-312.17" x="160.94 164.88524 171.94736 182.6318 189.69393 193.63916 197.5844 203.81816 208.38117 215.44329 219.38852 225.97327 229.82022 236.05399 243.01782 250.07994 256.3137 260.16065 267.22276 273.4565 280.05534 287.01918 290.9644 295.52738 299.4726 303.31956 307.1665 312.67018 319.73228 323.24229 329.79899 339.16368 346.11347 353.0773 360.04115 366.2749 372.87373 379.93583 386.1696 390.8449 397.44374 404.50584 408.35279 413.0281 419.61289 426.675 432.08039 435.92735 442.98945 449.95329 457.01539 463.24916 469.84797 480.6447">lumotlarni jadvalga kiritish. Bunda har bir ustunga ma</tspan></text>
</g>
<clipPath id="cp27671">
<path transform="matrix(1,0,0,-1,0,841.92)" d="M .000008871 0 L 595.32 0 L 595.32 841.92 L .000008871 841.92 Z " fill-rule="evenodd"/>
</clipPath>
<g clip-path="url(#cp27671)">
<text xml:space="preserve" transform="matrix(1 0 -0 1 0 841.92)" font-size="14.04" font-family="Times New Roman"><tspan y="-312.17" x="487.3">&#x2019;</tspan></text>
</g>
<clipPath id="cp27672">
<path transform="matrix(1,0,0,-1,0,841.92)" d="M .000008871 0 L 595.32 0 L 595.32 841.92 L .000008871 841.92 Z " fill-rule="evenodd"/>
</clipPath>
<g clip-path="url(#cp27672)">
<text xml:space="preserve" transform="matrix(1 0 -0 1 0 841.92)" font-size="14.04" font-family="Times New Roman"><tspan y="-312.17" x="491.86 495.8052 502.8673 513.66409 520.24887 524.1941 531.2562 535.9315 542.8954 549.12918 556.093 559.94">lum turdagi </tspan></text>
</g>
<clipPath id="cp27673">
<path transform="matrix(1,0,0,-1,0,841.92)" d="M .000008871 0 L 595.32 0 L 595.32 841.92 L .000008871 841.92 Z " fill-rule="evenodd"/>
</clipPath>
<g clip-path="url(#cp27673)">
<text xml:space="preserve" transform="matrix(1 0 -0 1 0 841.92)" font-size="14.04" font-family="Times New Roman"><tspan y="-287.93" x="85.104 95.90411">ma</tspan></text>
</g>
<clipPath id="cp27674">
<path transform="matrix(1,0,0,-1,0,841.92)" d="M .000008871 0 L 595.32 0 L 595.32 841.92 L .000008871 841.92 Z " fill-rule="evenodd"/>
</clipPath>
<g clip-path="url(#cp27674)">
<text xml:space="preserve" transform="matrix(1 0 -0 1 0 841.92)" font-size="14.04" font-family="Times New Roman"><tspan y="-287.93" x="102.14">&#x2019;</tspan></text>
</g>
<clipPath id="cp27675">
<path transform="matrix(1,0,0,-1,0,841.92)" d="M .000008871 0 L 595.32 0 L 595.32 841.92 L .000008871 841.92 Z " fill-rule="evenodd"/>
</clipPath>
<g clip-path="url(#cp27675)">
<text xml:space="preserve" transform="matrix(1 0 -0 1 0 841.92)" font-size="14.04" font-family="Times New Roman"><tspan y="-287.93" x="106.7 110.64524 117.83372 128.51816 135.58028 139.52552 143.47075 149.70452 154.26752 161.23136 165.17659 168.68659 175.62235 179.56758 184.2429 188.08986 191.93682 195.88205 201.28745 208.34957 211.85956 215.6644 222.72652 228.84796 232.7932 243.47765">lumotlarni kiritish lozim.</tspan></text>
</g>
<clipPath id="cp27676">
<path transform="matrix(1,0,0,-1,0,841.92)" d="M .000008871 0 L 595.32 0 L 595.32 841.92 L .000008871 841.92 Z " fill-rule="evenodd"/>
</clipPath>
<g clip-path="url(#cp27676)">
<text xml:space="preserve" transform="matrix(1 0 -0 1 0 841.92)" font-size="14.04" font-family="Times New Roman"><tspan y="-287.93" x="247.25"> </tspan></text>
</g>
</g>
<g id="Layer-1" data-name="P">
<clipPath id="cp27677">
<path transform="matrix(1,0,0,-1,0,841.92)" d="M .000008871 0 L 595.32 0 L 595.32 841.92 L .000008871 841.92 Z " fill-rule="evenodd"/>
</clipPath>
<g clip-path="url(#cp27677)">
<text xml:space="preserve" transform="matrix(1 0 -0 1 0 841.92)" font-size="14.04" font-family="Times New Roman"><tspan y="-263.81" x="120.5 127.56212 131.07212 136.67407 146.03876 152.27252 156.94785 163.06929 170.13141 176.25286 181.88289 188.84673 194.3504 198.19736 205.1612 212.22332 216.07027 222.30403 226.97936 233.95725 240.07869 245.82105 256.5055">7. Barcha ustunlarga ma</tspan></text>
</g>
<clipPath id="cp27678">
<path transform="matrix(1,0,0,-1,0,841.92)" d="M .000008871 0 L 595.32 0 L 595.32 841.92 L .000008871 841.92 Z " fill-rule="evenodd"/>
</clipPath>
<g clip-path="url(#cp27678)">
<text xml:space="preserve" transform="matrix(1 0 -0 1 0 841.92)" font-size="14.04" font-family="Times New Roman"><tspan y="-263.81" x="262.85">&#x2019;</tspan></text>
</g>
<clipPath id="cp27679">
<path transform="matrix(1,0,0,-1,0,841.92)" d="M .000008871 0 L 595.32 0 L 595.32 841.92 L .000008871 841.92 Z " fill-rule="evenodd"/>
</clipPath>
<g clip-path="url(#cp27679)">
<text xml:space="preserve" transform="matrix(1 0 -0 1 0 841.92)" font-size="14.04" font-family="Times New Roman"><tspan y="-263.81" x="267.41 271.35523 278.5437 289.22816 296.29026 300.23548 304.1807 310.30213 314.97746 321.94129 325.8865 331.3902 338.4523 342.39753 346.9605 350.80747 354.7527 358.59965 365.66175 371.16545 378.22755">lumotlarni kiritib bo</tspan></text>
</g>
<clipPath id="cp27680">
<path transform="matrix(1,0,0,-1,0,841.92)" d="M .000008871 0 L 595.32 0 L 595.32 841.92 L .000008871 841.92 Z " fill-rule="evenodd"/>
</clipPath>
<g clip-path="url(#cp27680)">
<text xml:space="preserve" transform="matrix(1 0 -0 1 0 841.92)" font-size="14.04" font-family="Times New Roman"><tspan y="-263.81" x="385.51">&#x2019;</tspan></text>
</g>
<clipPath id="cp27681">
<path transform="matrix(1,0,0,-1,0,841.92)" d="M .000008871 0 L 595.32 0 L 595.32 841.92 L .000008871 841.92 Z " fill-rule="evenodd"/>
</clipPath>
<g clip-path="url(#cp27681)">
<text xml:space="preserve" transform="matrix(1 0 -0 1 0 841.92)" font-size="14.04" font-family="Times New Roman"><tspan y="-263.81" x="390.07 393.91697 400.97908 407.21284 414.17668 421.23878 427.3602 434.4223 439.926 445.3314">lgandan so</tspan></text>
</g>
<clipPath id="cp27682">
<path transform="matrix(1,0,0,-1,0,841.92)" d="M .000008871 0 L 595.32 0 L 595.32 841.92 L .000008871 841.92 Z " fill-rule="evenodd"/>
</clipPath>
<g clip-path="url(#cp27682)">
<text xml:space="preserve" transform="matrix(1 0 -0 1 0 841.92)" font-size="14.04" font-family="Times New Roman"><tspan y="-263.81" x="452.5">&#x2019;</tspan></text>
</g>
<clipPath id="cp27683">
<path transform="matrix(1,0,0,-1,0,841.92)" d="M .000008871 0 L 595.32 0 L 595.32 841.92 L .000008871 841.92 Z " fill-rule="evenodd"/>
</clipPath>
<g clip-path="url(#cp27683)">
<text xml:space="preserve" transform="matrix(1 0 -0 1 0 841.92)" font-size="14.04" font-family="Times New Roman"><tspan y="-263.81" x="457.06 464.13999 471.21998">ng </tspan></text>
</g>
<clipPath id="cp27684">
<path transform="matrix(1,0,0,-1,0,841.92)" d="M .000008871 0 L 595.32 0 L 595.32 841.92 L .000008871 841.92 Z " fill-rule="evenodd"/>
</clipPath>
<g clip-path="url(#cp27684)">
<text xml:space="preserve" transform="matrix(1 0 -0 1 0 841.92)" font-size="14.04" font-family="Times New Roman,Bold" font-weight="bold"><tspan y="-263.81" x="476.74">&#x00ab;</tspan></text>
</g>
</g>
<g id="Layer-1" data-name="P">
<clipPath id="cp27685">
<path transform="matrix(1,0,0,-1,0,841.92)" d="M .000008871 0 L 595.32 0 L 595.32 841.92 L .000008871 841.92 Z " fill-rule="evenodd"/>
</clipPath>
<g clip-path="url(#cp27685)">
<text xml:space="preserve" transform="matrix(1 0 -0 1 0 841.92)" font-size="14.04" font-family="Times New Roman,Bold" font-weight="bold"><tspan y="-263.81" x="483.82 493.90074 500.86457 507.92668 515.7329 522.79507 530.83999 538.75857 545.7083">&#x0421;&#x043e;&#x0445;&#x0440;&#x0430;&#x043d;&#x0438;&#x0442;&#x044c;</tspan></text>
</g>
</g>
<g id="Layer-1" data-name="P">
<clipPath id="cp27686">
<path transform="matrix(1,0,0,-1,0,841.92)" d="M .000008871 0 L 595.32 0 L 595.32 841.92 L .000008871 841.92 Z " fill-rule="evenodd"/>
</clipPath>
<g clip-path="url(#cp27686)">
<text xml:space="preserve" transform="matrix(1 0 -0 1 0 841.92)" font-size="14.04" font-family="Times New Roman,Bold" font-weight="bold"><tspan y="-263.81" x="553.06 560.02">&#x00bb; </tspan></text>
</g>
</g>
<g id="Layer-1" data-name="P">
<clipPath id="cp27687">
<path transform="matrix(1,0,0,-1,0,841.92)" d="M .000008871 0 L 595.32 0 L 595.32 841.92 L .000008871 841.92 Z " fill-rule="evenodd"/>
</clipPath>
<g clip-path="url(#cp27687)">
<text xml:space="preserve" transform="matrix(1 0 -0 1 0 841.92)" font-size="14.04" font-family="Times New Roman"><tspan y="-239.69" x="85.104 89.77932 97.58556 103.81932 110.78316 114.7284 120.84984 126.35352 133.41564 138.09096 141.46056 145.40579 152.36963 159.43175 170.1162 176.34996 182.58373 189.6599 195.89366 201.29906 205.14601 212.20813 216.15337 219.50893 226.57105 233.53488 238.94028 242.88552 248.29091 255.35303 258.86305 265.7988 272.03257 276.7079 282.84339 289.9055">(Saqlash) tugmachasini bosish kerak.</tspan></text>
</g>
</g>
<g id="Layer-1" data-name="P">
<clipPath id="cp27688">
<path transform="matrix(1,0,0,-1,0,841.92)" d="M .000008871 0 L 595.32 0 L 595.32 841.92 L .000008871 841.92 Z " fill-rule="evenodd"/>
</clipPath>
<g clip-path="url(#cp27688)">
<text xml:space="preserve" transform="matrix(1 0 -0 1 0 841.92)" font-size="14.04" font-family="Times New Roman"><tspan y="-239.69" x="293.57"> </tspan></text>
</g>
</g>
<g id="Layer-1" data-name="P">
<clipPath id="cp27689">
<path transform="matrix(1,0,0,-1,0,841.92)" d="M .000008871 0 L 595.32 0 L 595.32 841.92 L .000008871 841.92 Z " fill-rule="evenodd"/>
</clipPath>
<g clip-path="url(#cp27689)">
<text xml:space="preserve" transform="matrix(1 0 -0 1 0 841.92)" font-size="14.04" font-family="Times New Roman,Italic" font-style="italic"><tspan y="-215.54" x="220.61 229.97469 236.92449 243.9866 249.392 253.33724 258.74266 265.80476 271.92619 275.8714 282.83525 288.3389 291.8489 298.78468 305.7485 309.69374 316.65757 320.50453 324.44975 331.41358 338.47569 341.83125 345.77647 352.7403 359.8024 365.92384 372.98594 376.8329 383.79673 387.74195 391.25196 395.15507 401.3046 406.80827 410.31828 416.41163 423.47373 428.87913 435.94123 439.78819 443.63514 449.1388">Konstruktor holatida jadvalni tez yaratish</tspan></text>
</g>
<clipPath id="cp27690">
<path transform="matrix(1,0,0,-1,0,841.92)" d="M .000008871 0 L 595.32 0 L 595.32 841.92 L .000008871 841.92 Z " fill-rule="evenodd"/>
</clipPath>
<g clip-path="url(#cp27690)">
<text xml:space="preserve" transform="matrix(1 0 -0 1 0 841.92)" font-size="14.04" font-family="Times New Roman,Italic" font-style="italic"><tspan y="-215.54" x="456.46 459.94">. </tspan></text>
</g>
<clipPath id="cp27691">
<path transform="matrix(1,0,0,-1,0,841.92)" d="M .000008871 0 L 595.32 0 L 595.32 841.92 L .000008871 841.92 Z " fill-rule="evenodd"/>
</clipPath>
<g clip-path="url(#cp27691)">
<text xml:space="preserve" transform="matrix(1 0 -0 1 0 841.92)" font-size="14.04" font-family="Times New Roman,Italic" font-style="italic"><tspan y="-215.54" x="463.3"> </tspan></text>
</g>
</g>
<g id="Layer-1" data-name="P">
<clipPath id="cp27692">
<path transform="matrix(1,0,0,-1,0,841.92)" d="M .000008871 0 L 595.32 0 L 595.32 841.92 L .000008871 841.92 Z " fill-rule="evenodd"/>
</clipPath>
<g clip-path="url(#cp27692)">
<text xml:space="preserve" transform="matrix(1 0 -0 1 0 841.92)" font-size="14.04" font-family="Times New Roman"><tspan y="-191.42" x="120.5"> </tspan></text>
</g>
<clipPath id="cp27693">
<path transform="matrix(1,0,0,-1,0,841.92)" d="M .000008871 0 L 595.32 0 L 595.32 841.92 L .000008871 841.92 Z " fill-rule="evenodd"/>
</clipPath>
<g clip-path="url(#cp27693)">
<text xml:space="preserve" transform="matrix(1 0 -0 1 0 841.92)" font-size="14.04" font-family="Times New Roman"><tspan y="-191.42" x="123.98 131.04212 134.55211 138.00594 150.4875 159.85219 163.36219 170.38219 177.24776 184.30988 190.54364 195.94904 199.89427 206.85811 213.09188 216.60187">1. MB oynasiga o</tspan></text>
</g>
<clipPath id="cp27694">
<path transform="matrix(1,0,0,-1,0,841.92)" d="M .000008871 0 L 595.32 0 L 595.32 841.92 L .000008871 841.92 Z " fill-rule="evenodd"/>
</clipPath>
<g clip-path="url(#cp27694)">
<text xml:space="preserve" transform="matrix(1 0 -0 1 0 841.92)" font-size="14.04" font-family="Times New Roman"><tspan y="-191.42" x="223.73">&#x2019;</tspan></text>
</g>
<clipPath id="cp27695">
<path transform="matrix(1,0,0,-1,0,841.92)" d="M .000008871 0 L 595.32 0 L 595.32 841.92 L .000008871 841.92 Z " fill-rule="evenodd"/>
</clipPath>
<g clip-path="url(#cp27695)">
<text xml:space="preserve" transform="matrix(1 0 -0 1 0 841.92)" font-size="14.04" font-family="Times New Roman"><tspan y="-191.42" x="228.29 232.23523 236.08219 241.48758 248.5497">tish.</tspan></text>
</g>
<clipPath id="cp27696">
<path transform="matrix(1,0,0,-1,0,841.92)" d="M .000008871 0 L 595.32 0 L 595.32 841.92 L .000008871 841.92 Z " fill-rule="evenodd"/>
</clipPath>
<g clip-path="url(#cp27696)">
<text xml:space="preserve" transform="matrix(1 0 -0 1 0 841.92)" font-size="14.04" font-family="Times New Roman"><tspan y="-191.42" x="252.05"> </tspan></text>
</g>
</g>
<g id="Layer-1" data-name="P">
<clipPath id="cp27697">
<path transform="matrix(1,0,0,-1,0,841.92)" d="M .000008871 0 L 595.32 0 L 595.32 841.92 L .000008871 841.92 Z " fill-rule="evenodd"/>
</clipPath>
<g clip-path="url(#cp27697)">
<text xml:space="preserve" transform="matrix(1 0 -0 1 0 841.92)" font-size="14.04" font-family="Times New Roman"><tspan y="-167.18" x="120.5 127.56212 131.07212">2. </tspan></text>
</g>
<clipPath id="cp27698">
<path transform="matrix(1,0,0,-1,0,841.92)" d="M .000008871 0 L 595.32 0 L 595.32 841.92 L .000008871 841.92 Z " fill-rule="evenodd"/>
</clipPath>
<g clip-path="url(#cp27698)">
<text xml:space="preserve" transform="matrix(1 0 -0 1 0 841.92)" font-size="14.04" font-family="Times New Roman,Bold" font-weight="bold"><tspan y="-167.18" x="134.54">&#x00ab;</tspan></text>
</g>
</g>
<g id="Layer-1" data-name="P">
<clipPath id="cp27699">
<path transform="matrix(1,0,0,-1,0,841.92)" d="M .000008871 0 L 595.32 0 L 595.32 841.92 L .000008871 841.92 Z " fill-rule="evenodd"/>
</clipPath>
<g clip-path="url(#cp27699)">
<text xml:space="preserve" transform="matrix(1 0 -0 1 0 841.92)" font-size="14.04" font-family="Times New Roman,Bold" font-weight="bold"><tspan y="-167.18" x="141.62 150.85832 157.92044 164.88428 172.78879 180.83371 188.87863">&#x0422;&#x0430;&#x0431;&#x043b;&#x0438;&#x0446;&#x0430;</tspan></text>
</g>
</g>
<g id="Layer-1" data-name="P">
<clipPath id="cp27700">
<path transform="matrix(1,0,0,-1,0,841.92)" d="M .000008871 0 L 595.32 0 L 595.32 841.92 L .000008871 841.92 Z " fill-rule="evenodd"/>
</clipPath>
<g clip-path="url(#cp27700)">
<text xml:space="preserve" transform="matrix(1 0 -0 1 0 841.92)" font-size="14.04" font-family="Times New Roman,Bold" font-weight="bold"><tspan y="-167.18" x="195.89 202.97">&#x00bb; </tspan></text>
</g>
</g>
<g id="Layer-1" data-name="P">
<clipPath id="cp27701">
<path transform="matrix(1,0,0,-1,0,841.92)" d="M .000008871 0 L 595.32 0 L 595.32 841.92 L .000008871 841.92 Z " fill-rule="evenodd"/>
</clipPath>
<g clip-path="url(#cp27701)">
<text xml:space="preserve" transform="matrix(1 0 -0 1 0 841.92)" font-size="14.04" font-family="Times New Roman"><tspan y="-167.18" x="206.45 211.12532 216.53072 222.76448 229.72832 236.79044 242.91188 246.85712 251.53244 255.04244 258.86134 262.80656 269.7704 276.8325 282.95393 288.45759 292.30455 299.36665 305.6004">(Jadval) ilovasida </tspan></text>
</g>
</g>
<g id="Layer-1" data-name="P">
<clipPath id="cp27702">
<path transform="matrix(1,0,0,-1,0,841.92)" d="M .000008871 0 L 595.32 0 L 595.32 841.92 L .000008871 841.92 Z " fill-rule="evenodd"/>
</clipPath>
<g clip-path="url(#cp27702)">
<text xml:space="preserve" transform="matrix(1 0 -0 1 0 841.92)" font-size="14.04" font-family="Times New Roman,Bold" font-weight="bold"><tspan y="-167.18" x="309.05">&#x00ab;</tspan></text>
</g>
</g>
<g id="Layer-1" data-name="P">
<clipPath id="cp27703">
<path transform="matrix(1,0,0,-1,0,841.92)" d="M .000008871 0 L 595.32 0 L 595.32 841.92 L .000008871 841.92 Z " fill-rule="evenodd"/>
</clipPath>
<g clip-path="url(#cp27703)">
<text xml:space="preserve" transform="matrix(1 0 -0 1 0 841.92)" font-size="14.04" font-family="Times New Roman,Bold" font-weight="bold"><tspan y="-167.18" x="316.15 326.2307 333.29283 338.9369 345.8867 352.85054 359.68803">&#x0421;&#x043e;&#x0437;&#x0434;&#x0430;&#x0442;&#x044c;</tspan></text>
</g>
</g>
<g id="Layer-1" data-name="P">
<clipPath id="cp27704">
<path transform="matrix(1,0,0,-1,0,841.92)" d="M .000008871 0 L 595.32 0 L 595.32 841.92 L .000008871 841.92 Z " fill-rule="evenodd"/>
</clipPath>
<g clip-path="url(#cp27704)">
<text xml:space="preserve" transform="matrix(1 0 -0 1 0 841.92)" font-size="14.04" font-family="Times New Roman,Bold" font-weight="bold"><tspan y="-167.18" x="367.15 374.22999">&#x00bb; </tspan></text>
</g>
</g>
<g id="Layer-1" data-name="P">
<clipPath id="cp27705">
<path transform="matrix(1,0,0,-1,0,841.92)" d="M .000008871 0 L 595.32 0 L 595.32 841.92 L .000008871 841.92 Z " fill-rule="evenodd"/>
</clipPath>
<g clip-path="url(#cp27705)">
<text xml:space="preserve" transform="matrix(1 0 -0 1 0 841.92)" font-size="14.04" font-family="Times New Roman"><tspan y="-167.18" x="377.71 382.3853 392.46604 398.6998 403.37513 409.51063 413.45585 417.3028 422.7082 429.7703">(Yaratish)</tspan></text>
</g>
</g>
<g id="Layer-1" data-name="P">
<clipPath id="cp27706">
<path transform="matrix(1,0,0,-1,0,841.92)" d="M .000008871 0 L 595.32 0 L 595.32 841.92 L .000008871 841.92 Z " fill-rule="evenodd"/>
</clipPath>
<g clip-path="url(#cp27706)">
<text xml:space="preserve" transform="matrix(1 0 -0 1 0 841.92)" font-size="14.04" font-family="Times New Roman,Bold" font-weight="bold"><tspan y="-167.18" x="434.47"> </tspan></text>
</g>
</g>
<g id="Layer-1" data-name="P">
<clipPath id="cp27707">
<path transform="matrix(1,0,0,-1,0,841.92)" d="M .000008871 0 L 595.32 0 L 595.32 841.92 L .000008871 841.92 Z " fill-rule="evenodd"/>
</clipPath>
<g clip-path="url(#cp27707)">
<text xml:space="preserve" transform="matrix(1 0 -0 1 0 841.92)" font-size="14.04" font-family="Times New Roman"><tspan y="-167.18" x="437.95 441.79698 448.7608 455.8229 466.50736 472.74113 479.08723 486.14933 492.3831 497.78849 501.63545 508.69755 512.64279 515.99838 523.0605 530.02438 535.42977 539.375 544.7804 551.8425">tugmachasini bosish.</tspan></text>
</g>
</g>
<g id="Layer-1" data-name="P">
<clipPath id="cp27708">
<path transform="matrix(1,0,0,-1,0,841.92)" d="M .000008871 0 L 595.32 0 L 595.32 841.92 L .000008871 841.92 Z " fill-rule="evenodd"/>
</clipPath>
<g clip-path="url(#cp27708)">
<text xml:space="preserve" transform="matrix(1 0 -0 1 0 841.92)" font-size="14.04" font-family="Times New Roman"><tspan y="-167.18" x="555.34"> </tspan></text>
</g>
</g>
<g id="Layer-1" data-name="P">
<clipPath id="cp27709">
<path transform="matrix(1,0,0,-1,0,841.92)" d="M .000008871 0 L 595.32 0 L 595.32 841.92 L .000008871 841.92 Z " fill-rule="evenodd"/>
</clipPath>
<g clip-path="url(#cp27709)">
<text xml:space="preserve" transform="matrix(1 0 -0 1 0 841.92)" font-size="14.04" font-family="Times New Roman"><tspan y="-143.06" x="120.5 127.56212 131.07212">3. </tspan></text>
</g>
<clipPath id="cp27710">
<path transform="matrix(1,0,0,-1,0,841.92)" d="M .000008871 0 L 595.32 0 L 595.32 841.92 L .000008871 841.92 Z " fill-rule="evenodd"/>
</clipPath>
<g clip-path="url(#cp27710)">
<text xml:space="preserve" transform="matrix(1 0 -0 1 0 841.92)" font-size="14.04" font-family="Times New Roman,Bold" font-weight="bold"><tspan y="-143.06" x="134.54 145.46312 152.52524 160.20513 165.7088 170.38413 176.61789 184.42414 191.9917 196.66703 203.7432 209.97696">Konstruktor </tspan></text>
</g>
<clipPath id="cp27711">
<path transform="matrix(1,0,0,-1,0,841.92)" d="M .000008871 0 L 595.32 0 L 595.32 841.92 L .000008871 841.92 Z " fill-rule="evenodd"/>
</clipPath>
<g clip-path="url(#cp27711)">
<text xml:space="preserve" transform="matrix(1 0 -0 1 0 841.92)" font-size="14.04" font-family="Times New Roman"><tspan y="-143.06" x="213.53 219.76377 223.709 229.94277 240.62722 246.86098 253.93715 257.78413 261.63108 268.69319 274.92695 278.43696 283.81428 287.7595 293.88093 300.94303 307.90687 314.8707 321.9328 328.05424 335.11634 341.3501 344.8601 348.679 355.64283 362.60667 373.4034 379.63719 385.87095 392.94709 399.18086 404.58625 408.53147 415.4953 419.44053 422.95054 426.75538 433.7192 440.7813 444.72654 448.23655 458.8929 465.12669 469.802 473.76127 479.99504">elementida sichqoncha tugmachasini ikki marta </tspan></text>
</g>
<clipPath id="cp27712">
<path transform="matrix(1,0,0,-1,0,841.92)" d="M .000008871 0 L 595.32 0 L 595.32 841.92 L .000008871 841.92 Z " fill-rule="evenodd"/>
</clipPath>
<g clip-path="url(#cp27712)">
<text xml:space="preserve" transform="matrix(1 0 -0 1 0 841.92)" font-size="14.04" font-family="Times New Roman"><tspan y="-143.06" x="483.7 490.76213 497.72596 503.13136 507.07658 512.482 519.5441">bosish.</tspan></text>
</g>
<clipPath id="cp27713">
<path transform="matrix(1,0,0,-1,0,841.92)" d="M .000008871 0 L 595.32 0 L 595.32 841.92 L .000008871 841.92 Z " fill-rule="evenodd"/>
</clipPath>
<g clip-path="url(#cp27713)">
<text xml:space="preserve" transform="matrix(1 0 -0 1 0 841.92)" font-size="14.04" font-family="Times New Roman"><tspan y="-143.06" x="522.94"> </tspan></text>
</g>
</g>
<g id="Layer-1" data-name="P">
<clipPath id="cp27714">
<path transform="matrix(1,0,0,-1,0,841.92)" d="M .000008871 0 L 595.32 0 L 595.32 841.92 L .000008871 841.92 Z " fill-rule="evenodd"/>
</clipPath>
<g clip-path="url(#cp27714)">
<text xml:space="preserve" transform="matrix(1 0 -0 1 0 841.92)" font-size="14.04" font-family="Times New Roman"><tspan y="-118.94" x="120.5 127.56212 131.07212 134.52594 140.02962 146.15106 153.21318 160.17702 166.41078 170.25774 177.31986 183.55362 186.92322 193.98534 200.2191 204.89443 208.40442 215.34018 219.28542 223.96074 227.47074 238.23943 244.47319 251.3247 258.3868 265.4489 272.41276 279.47486 283.42008 286.93009 293.02345 300.08555 303.9325 310.89634 314.84156 321.07533 326.4807 333.54283">4. Jadvalda har bir maydonni aniqlash.</tspan></text>
</g>
<clipPath id="cp27715">
<path transform="matrix(1,0,0,-1,0,841.92)" d="M .000008871 0 L 595.32 0 L 595.32 841.92 L .000008871 841.92 Z " fill-rule="evenodd"/>
</clipPath>
<g clip-path="url(#cp27715)">
<text xml:space="preserve" transform="matrix(1 0 -0 1 0 841.92)" font-size="14.04" font-family="Times New Roman"><tspan y="-118.94" x="337.15"> </tspan></text>
</g>
</g>
<g id="Layer-1" data-name="P">
<clipPath id="cp27716">
<path transform="matrix(1,0,0,-1,0,841.92)" d="M .000008871 0 L 595.32 0 L 595.32 841.92 L .000008871 841.92 Z " fill-rule="evenodd"/>
</clipPath>
<g clip-path="url(#cp27716)">
<text xml:space="preserve" transform="matrix(1 0 -0 1 0 841.92)" font-size="14.04" font-family="Times New Roman"><tspan y="-94.824" x="120.5 127.56212 131.07212 134.52594 144.60666 150.84043 154.78566 158.63262 162.57785 166.08785 176.74422 183.0903 189.92778 196.9899 204.05202 211.01586 214.96109 221.19486 225.75786 232.81998 236.76522 240.12078 246.35454 253.43071 257.27769 264.24153 268.18675 274.30818 279.81184 286.87394">5. Kalit maydonlarni aniqlash.</tspan></text>
</g>
<clipPath id="cp27717">
<path transform="matrix(1,0,0,-1,0,841.92)" d="M .000008871 0 L 595.32 0 L 595.32 841.92 L .000008871 841.92 Z " fill-rule="evenodd"/>
</clipPath>
<g clip-path="url(#cp27717)">
<text xml:space="preserve" transform="matrix(1 0 -0 1 0 841.92)" font-size="14.04" font-family="Times New Roman"><tspan y="-94.824" x="290.45"> </tspan></text>
</g>
</g>
</g>
</g>
</svg>
