<?xml version="1.0" encoding="UTF-8" standalone="no"?>
<!DOCTYPE svg PUBLIC "-//W3C//DTD SVG 1.1//EN" "http://www.w3.org/Graphics/SVG/1.1/DTD/svg11.dtd">
<svg xmlns="http://www.w3.org/2000/svg" xmlns:xlink="http://www.w3.org/1999/xlink" version="1.1" width="595.32pt" height="841.92pt" viewBox="0 0 595.32 841.92">
<g enable-background="new">
<g>
<g id="Layer-1" data-name="Artifact">
<clipPath id="cp27964">
<path transform="matrix(1,0,0,-1,0,841.92)" d="M .000008871 0 L 595.32 0 L 595.32 841.92 L .000008871 841.92 Z " fill-rule="evenodd"/>
</clipPath>
<g clip-path="url(#cp27964)">
<text xml:space="preserve" transform="matrix(1 0 -0 1 0 841.92)" font-size="11.04" font-family="Calibri"><tspan y="-51.864" x="314.09 319.72999 325.36997">172</tspan></text>
</g>
<clipPath id="cp27965">
<path transform="matrix(1,0,0,-1,0,841.92)" d="M .000008871 0 L 595.32 0 L 595.32 841.92 L .000008871 841.92 Z " fill-rule="evenodd"/>
</clipPath>
<g clip-path="url(#cp27965)">
<text xml:space="preserve" transform="matrix(1 0 -0 1 0 841.92)" font-size="11.04" font-family="Calibri"><tspan y="-51.864" x="331.03"> </tspan></text>
</g>
<clipPath id="cp27966">
<path transform="matrix(1,0,0,-1,0,841.92)" d="M .000008871 0 L 595.32 0 L 595.32 841.92 L .000008871 841.92 Z " fill-rule="evenodd"/>
</clipPath>
<g clip-path="url(#cp27966)">
</g>
<clipPath id="cp27967">
<path transform="matrix(1,0,0,-1,0,841.92)" d="M .000008871 0 L 595.32 0 L 595.32 841.92 L .000008871 841.92 Z " fill-rule="evenodd"/>
</clipPath>
<g clip-path="url(#cp27967)">
<text xml:space="preserve" transform="matrix(1 0 -0 1 0 841.92)" font-size="11.04" font-family="Calibri"><tspan y="-38.4" x="85.104"> </tspan></text>
</g>
<clipPath id="cp27968">
<path transform="matrix(1,0,0,-1,0,841.92)" d="M .000008871 0 L 595.32 0 L 595.32 841.92 L .000008871 841.92 Z " fill-rule="evenodd"/>
</clipPath>
<g clip-path="url(#cp27968)">
</g>
</g>
<g id="Layer-1" data-name="P">
<clipPath id="cp27969">
<path transform="matrix(1,0,0,-1,0,841.92)" d="M .000008871 0 L 595.32 0 L 595.32 841.92 L .000008871 841.92 Z " fill-rule="evenodd"/>
</clipPath>
<g clip-path="url(#cp27969)">
<text xml:space="preserve" transform="matrix(1 0 -0 1 0 841.92)" font-size="14.04" font-family="Times New Roman"><tspan y="-772.56" x="120.5 127.56212 131.07212 139.66458 149.7453 156.80742 163.6449 167.59014 176.2107 183.17453 189.4083 196.48447 202.60591 206.45287 213.51499 219.63643 226.69855 230.5455">9. Quyi paneldagi </tspan></text>
</g>
<clipPath id="cp27970">
<path transform="matrix(1,0,0,-1,0,841.92)" d="M .000008871 0 L 595.32 0 L 595.32 841.92 L .000008871 841.92 Z " fill-rule="evenodd"/>
</clipPath>
<g clip-path="url(#cp27970)">
<text xml:space="preserve" transform="matrix(1 0 -0 1 0 841.92)" font-size="14.04" font-family="Times New Roman,Bold" font-weight="bold"><tspan y="-772.56" x="239.21">&#x00ab;</tspan></text>
</g>
</g>
<g id="Layer-1" data-name="P">
<clipPath id="cp27971">
<path transform="matrix(1,0,0,-1,0,841.92)" d="M .000008871 0 L 595.32 0 L 595.32 841.92 L .000008871 841.92 Z " fill-rule="evenodd"/>
</clipPath>
<g clip-path="url(#cp27971)">
<text xml:space="preserve" transform="matrix(1 0 -0 1 0 841.92)" font-size="14.04" font-family="Times New Roman,Bold" font-weight="bold"><tspan y="-772.56" x="246.29 257.08674 264.14884 272.05335">&#x041f;&#x043e;&#x043b;&#x0435;</tspan></text>
</g>
</g>
<g id="Layer-1" data-name="P">
<clipPath id="cp27972">
<path transform="matrix(1,0,0,-1,0,841.92)" d="M .000008871 0 L 595.32 0 L 595.32 841.92 L .000008871 841.92 Z " fill-rule="evenodd"/>
</clipPath>
<g clip-path="url(#cp27972)">
<text xml:space="preserve" transform="matrix(1 0 -0 1 0 841.92)" font-size="14.04" font-family="Times New Roman,Bold" font-weight="bold"><tspan y="-772.56" x="278.21 285.2721 293.89268">&#x00bb; (</tspan></text>
</g>
</g>
<g id="Layer-1" data-name="P">
<clipPath id="cp27973">
<path transform="matrix(1,0,0,-1,0,841.92)" d="M .000008871 0 L 595.32 0 L 595.32 841.92 L .000008871 841.92 Z " fill-rule="evenodd"/>
</clipPath>
<g clip-path="url(#cp27973)">
<text xml:space="preserve" transform="matrix(1 0 -0 1 0 841.92)" font-size="14.04" font-family="Times New Roman"><tspan y="-772.56" x="298.49 310.97157 317.20533 324.05683 331.11894 338.08277">Maydon</tspan></text>
</g>
</g>
<g id="Layer-1" data-name="P">
<clipPath id="cp27974">
<path transform="matrix(1,0,0,-1,0,841.92)" d="M .000008871 0 L 595.32 0 L 595.32 841.92 L .000008871 841.92 Z " fill-rule="evenodd"/>
</clipPath>
<g clip-path="url(#cp27974)">
<text xml:space="preserve" transform="matrix(1 0 -0 1 0 841.92)" font-size="14.04" font-family="Times New Roman,Bold" font-weight="bold"><tspan y="-772.56" x="345.19">)</tspan></text>
</g>
</g>
<g id="Layer-1" data-name="P">
<clipPath id="cp27975">
<path transform="matrix(1,0,0,-1,0,841.92)" d="M .000008871 0 L 595.32 0 L 595.32 841.92 L .000008871 841.92 Z " fill-rule="evenodd"/>
</clipPath>
<g clip-path="url(#cp27975)">
<text xml:space="preserve" transform="matrix(1 0 -0 1 0 841.92)" font-size="14.04" font-family="Times New Roman"><tspan y="-772.56" x="349.87"> </tspan></text>
</g>
</g>
<g id="Layer-1" data-name="P">
<clipPath id="cp27976">
<path transform="matrix(1,0,0,-1,0,841.92)" d="M .000008871 0 L 595.32 0 L 595.32 841.92 L .000008871 841.92 Z " fill-rule="evenodd"/>
</clipPath>
<g clip-path="url(#cp27976)">
<text xml:space="preserve" transform="matrix(1 0 -0 1 0 841.92)" font-size="14.04" font-family="Times New Roman"><tspan y="-772.56" x="358.39 363.89369 370.12745 373.9744 378.64973 382.59495 391.10319 398.06703 402.01225 408.13368 415.19578 422.1596 426.10484 433.06867 436.91563 443.97773 450.94157 459.56214 466.3996 473.4617 480.42555 487.48765 492.16297 496.00993 504.6305 511.59434 515.4413 520.94497 531.62936 535.5746 542.6367 548.8705 555.94668 559.79367">satri blankining yuqori qismidagi </tspan></text>
</g>
</g>
<g id="Layer-1" data-name="P">
<clipPath id="cp27977">
<path transform="matrix(1,0,0,-1,0,841.92)" d="M .000008871 0 L 595.32 0 L 595.32 841.92 L .000008871 841.92 Z " fill-rule="evenodd"/>
</clipPath>
<g clip-path="url(#cp27977)">
<text xml:space="preserve" transform="matrix(1 0 -0 1 0 841.92)" font-size="14.04" font-family="Times New Roman"><tspan y="-748.3" x="85.104 95.90076 102.24683 109.08431 116.14643 123.20855 130.17238 134.11762 140.35138 145.0267 150.65674 157.71886 164.78098 175.46543 179.41066 186.47278 190.41802 196.04805 203.01189 206.85884 210.80408 217.8662 223.49623">maydonlar nomini olib o</tspan></text>
</g>
</g>
<g id="Layer-1" data-name="P">
<clipPath id="cp27978">
<path transform="matrix(1,0,0,-1,0,841.92)" d="M .000008871 0 L 595.32 0 L 595.32 841.92 L .000008871 841.92 Z " fill-rule="evenodd"/>
</clipPath>
<g clip-path="url(#cp27978)">
<text xml:space="preserve" transform="matrix(1 0 -0 1 0 841.92)" font-size="14.04" font-family="Times New Roman"><tspan y="-748.3" x="230.81">&#x2019;</tspan></text>
</g>
</g>
<g id="Layer-1" data-name="P">
<clipPath id="cp27979">
<path transform="matrix(1,0,0,-1,0,841.92)" d="M .000008871 0 L 595.32 0 L 595.32 841.92 L .000008871 841.92 Z " fill-rule="evenodd"/>
</clipPath>
<g clip-path="url(#cp27979)">
<text xml:space="preserve" transform="matrix(1 0 -0 1 0 841.92)" font-size="14.04" font-family="Times New Roman"><tspan y="-748.3" x="235.37 239.31523 243.16219 248.56758 255.6297 261.37208 268.3359 272.28114 276.12809 282.36186 289.438 295.06803 299.01325">tish bilan to</tspan></text>
</g>
</g>
<g id="Layer-1" data-name="P">
<clipPath id="cp27980">
<path transform="matrix(1,0,0,-1,0,841.92)" d="M .000008871 0 L 595.32 0 L 595.32 841.92 L .000008871 841.92 Z " fill-rule="evenodd"/>
</clipPath>
<g clip-path="url(#cp27980)">
<text xml:space="preserve" transform="matrix(1 0 -0 1 0 841.92)" font-size="14.04" font-family="Times New Roman"><tspan y="-748.3" x="306.17">&#x2019;</tspan></text>
</g>
</g>
<g id="Layer-1" data-name="P">
<clipPath id="cp27981">
<path transform="matrix(1,0,0,-1,0,841.92)" d="M .000008871 0 L 595.32 0 L 595.32 841.92 L .000008871 841.92 Z " fill-rule="evenodd"/>
</clipPath>
<g clip-path="url(#cp27981)">
<text xml:space="preserve" transform="matrix(1 0 -0 1 0 841.92)" font-size="14.04" font-family="Times New Roman"><tspan y="-748.3" x="310.73 314.57698 321.63908 325.48603 330.16136 334.10658 337.95353 344.1873 351.15113 355.09635 358.60636 364.32066 374.40138 380.63514 385.31047 391.44596 395.39118 399.23814 403.18336 409.30479 416.36689 420.21385 427.27595 433.39738 440.45948 446.0895 453.1516 459.38539 463.23234 467.17756 471.0245 477.14595 484.20805 488.15327 494.99073 500.7331 504.58006 510.8138 517.88998 524.9521 531.07357 535.0188 541.98269 545.82968 552.7935 559.7574">ldiriladi. Yaratiladigan natijaviy jadvalning </tspan></text>
</g>
</g>
<g id="Layer-1" data-name="P">
<clipPath id="cp27982">
<path transform="matrix(1,0,0,-1,0,841.92)" d="M .000008871 0 L 595.32 0 L 595.32 841.92 L .000008871 841.92 Z " fill-rule="evenodd"/>
</clipPath>
<g clip-path="url(#cp27982)">
<text xml:space="preserve" transform="matrix(1 0 -0 1 0 841.92)" font-size="14.04" font-family="Times New Roman"><tspan y="-724.18" x="85.104 92.166118 98.39987 103.075199 106.44479 113.50691 117.452159 122.12748 125.63748 136.29386 142.63994 149.47742 156.53954 163.60166 170.56549 174.51073 181.47457 187.70833 191.21833 198.23833 204.38785 215.0723 222.13442 229.19654 235.4303 238.94029 245.9603">har bir maydoniga namuna bo</tspan></text>
</g>
</g>
<g id="Layer-1" data-name="P">
<clipPath id="cp27983">
<path transform="matrix(1,0,0,-1,0,841.92)" d="M .000008871 0 L 595.32 0 L 595.32 841.92 L .000008871 841.92 Z " fill-rule="evenodd"/>
</clipPath>
<g clip-path="url(#cp27983)">
<text xml:space="preserve" transform="matrix(1 0 -0 1 0 841.92)" font-size="14.04" font-family="Times New Roman"><tspan y="-724.18" x="253.25">&#x2019;</tspan></text>
</g>
</g>
<g id="Layer-1" data-name="P">
<clipPath id="cp27984">
<path transform="matrix(1,0,0,-1,0,841.92)" d="M .000008871 0 L 595.32 0 L 595.32 841.92 L .000008871 841.92 Z " fill-rule="evenodd"/>
</clipPath>
<g clip-path="url(#cp27984)">
<text xml:space="preserve" transform="matrix(1 0 -0 1 0 841.92)" font-size="14.04" font-family="Times New Roman"><tspan y="-724.18" x="257.81 264.64747 268.59269 274.82646 281.9026 288.13636 291.64637 297.02369">yicha so</tspan></text>
</g>
</g>
<g id="Layer-1" data-name="P">
<clipPath id="cp27985">
<path transform="matrix(1,0,0,-1,0,841.92)" d="M .000008871 0 L 595.32 0 L 595.32 841.92 L .000008871 841.92 Z " fill-rule="evenodd"/>
</clipPath>
<g clip-path="url(#cp27985)">
<text xml:space="preserve" transform="matrix(1 0 -0 1 0 841.92)" font-size="14.04" font-family="Times New Roman"><tspan y="-724.18" x="304.13">&#x2019;</tspan></text>
</g>
</g>
<g id="Layer-1" data-name="P">
<clipPath id="cp27986">
<path transform="matrix(1,0,0,-1,0,841.92)" d="M .000008871 0 L 595.32 0 L 595.32 841.92 L .000008871 841.92 Z " fill-rule="evenodd"/>
</clipPath>
<g clip-path="url(#cp27986)">
<text xml:space="preserve" transform="matrix(1 0 -0 1 0 841.92)" font-size="14.04" font-family="Times New Roman"><tspan y="-724.18" x="308.69 313.36534 320.44148 327.50358 331.01359 337.94935 341.89457 348.016 355.0781 362.04194 365.8889 372.951 376.79795 383.86006 390.92216 394.2777 401.24156 405.18678 409.03373 412.97895 419.2127 422.72273 429.65849 435.06388 438.91084 445.97294 452.93678 456.882 460.392 471.04838 478.11048 483.61415 487.12416 494.14414 500.29368 504.2389 510.47267 517.4365 521.3818">rov blankining bitta ustuni mos keladi.</tspan></text>
</g>
</g>
<g id="Layer-1" data-name="P">
<clipPath id="cp27987">
<path transform="matrix(1,0,0,-1,0,841.92)" d="M .000008871 0 L 595.32 0 L 595.32 841.92 L .000008871 841.92 Z " fill-rule="evenodd"/>
</clipPath>
<g clip-path="url(#cp27987)">
<text xml:space="preserve" transform="matrix(1 0 -0 1 0 841.92)" font-size="14.04" font-family="Times New Roman"><tspan y="-724.18" x="524.98"> </tspan></text>
</g>
</g>
<g id="Layer-1" data-name="P">
<clipPath id="cp27988">
<path transform="matrix(1,0,0,-1,0,841.92)" d="M .000008871 0 L 595.32 0 L 595.32 841.92 L .000008871 841.92 Z " fill-rule="evenodd"/>
</clipPath>
<g clip-path="url(#cp27988)">
<text xml:space="preserve" transform="matrix(1 0 -0 1 0 841.92)" font-size="14.04" font-family="Times New Roman"><tspan y="-700.06" x="120.5 127.58 134.66">10.</tspan></text>
</g>
<clipPath id="cp27989">
<path transform="matrix(1,0,0,-1,0,841.92)" d="M .000008871 0 L 595.32 0 L 595.32 841.92 L .000008871 841.92 Z " fill-rule="evenodd"/>
</clipPath>
<g clip-path="url(#cp27989)">
<text xml:space="preserve" transform="matrix(1 0 -0 1 0 841.92)" font-size="14.04" font-family="Times New Roman"><tspan y="-700.06" x="138.14"> </tspan></text>
</g>
<clipPath id="cp27990">
<path transform="matrix(1,0,0,-1,0,841.92)" d="M .000008871 0 L 595.32 0 L 595.32 841.92 L .000008871 841.92 Z " fill-rule="evenodd"/>
</clipPath>
<g clip-path="url(#cp27990)">
<text xml:space="preserve" transform="matrix(1 0 -0 1 0 841.92)" font-size="14.04" font-family="Times New Roman,Bold" font-weight="bold"><tspan y="-700.06" x="141.5">&#x00ab;</tspan></text>
</g>
</g>
<g id="Layer-1" data-name="P">
<clipPath id="cp27991">
<path transform="matrix(1,0,0,-1,0,841.92)" d="M .000008871 0 L 595.32 0 L 595.32 841.92 L .000008871 841.92 Z " fill-rule="evenodd"/>
</clipPath>
<g clip-path="url(#cp27991)">
<text xml:space="preserve" transform="matrix(1 0 -0 1 0 841.92)" font-size="14.04" font-family="Times New Roman,Bold" font-weight="bold"><tspan y="-700.06" x="148.58 159.50313 169.06436">&#x0418;&#x043c;&#x044f;</tspan></text>
</g>
</g>
<g id="Layer-1" data-name="P">
<clipPath id="cp27992">
<path transform="matrix(1,0,0,-1,0,841.92)" d="M .000008871 0 L 595.32 0 L 595.32 841.92 L .000008871 841.92 Z " fill-rule="evenodd"/>
</clipPath>
<g clip-path="url(#cp27992)">
<text xml:space="preserve" transform="matrix(1 0 -0 1 0 841.92)" font-size="14.04" font-family="Times New Roman,Bold" font-weight="bold"><tspan y="-700.06" x="176.54 183.60211 190.55191">&#x00bb; (</tspan></text>
</g>
</g>
<g id="Layer-1" data-name="P">
<clipPath id="cp27993">
<path transform="matrix(1,0,0,-1,0,841.92)" d="M .000008871 0 L 595.32 0 L 595.32 841.92 L .000008871 841.92 Z " fill-rule="evenodd"/>
</clipPath>
<g clip-path="url(#cp27993)">
<text xml:space="preserve" transform="matrix(1 0 -0 1 0 841.92)" font-size="14.04" font-family="Times New Roman"><tspan y="-700.06" x="195.29 205.37071 212.43283">Nom</tspan></text>
</g>
</g>
<g id="Layer-1" data-name="P">
<clipPath id="cp27994">
<path transform="matrix(1,0,0,-1,0,841.92)" d="M .000008871 0 L 595.32 0 L 595.32 841.92 L .000008871 841.92 Z " fill-rule="evenodd"/>
</clipPath>
<g clip-path="url(#cp27994)">
<text xml:space="preserve" transform="matrix(1 0 -0 1 0 841.92)" font-size="14.04" font-family="Times New Roman,Bold" font-weight="bold"><tspan y="-700.06" x="223.13">)</tspan></text>
</g>
</g>
<g id="Layer-1" data-name="P">
<clipPath id="cp27995">
<path transform="matrix(1,0,0,-1,0,841.92)" d="M .000008871 0 L 595.32 0 L 595.32 841.92 L .000008871 841.92 Z " fill-rule="evenodd"/>
</clipPath>
<g clip-path="url(#cp27995)">
<text xml:space="preserve" transform="matrix(1 0 -0 1 0 841.92)" font-size="14.04" font-family="Times New Roman"><tspan y="-700.06" x="227.81"> </tspan></text>
</g>
</g>
<g id="Layer-1" data-name="P">
<clipPath id="cp27996">
<path transform="matrix(1,0,0,-1,0,841.92)" d="M .000008871 0 L 595.32 0 L 595.32 841.92 L .000008871 841.92 Z " fill-rule="evenodd"/>
</clipPath>
<g clip-path="url(#cp27996)">
<text xml:space="preserve" transform="matrix(1 0 -0 1 0 841.92)" font-size="14.04" font-family="Times New Roman"><tspan y="-700.06" x="234.77 240.27368 246.50745 250.45269 255.01569 258.9609 266.02305 276.7075 283.0536 289.89106 296.95317 304.01527 310.9791 314.92433 321.15809 325.8334 332.79725 339.76109 343.60804 347.55326 354.61537 361.4388">satri maydonlar olib o</tspan></text>
</g>
</g>
<g id="Layer-1" data-name="P">
<clipPath id="cp27997">
<path transform="matrix(1,0,0,-1,0,841.92)" d="M .000008871 0 L 595.32 0 L 595.32 841.92 L .000008871 841.92 Z " fill-rule="evenodd"/>
</clipPath>
<g clip-path="url(#cp27997)">
<text xml:space="preserve" transform="matrix(1 0 -0 1 0 841.92)" font-size="14.04" font-family="Times New Roman"><tspan y="-700.06" x="368.71">&#x2019;</tspan></text>
</g>
</g>
<g id="Layer-1" data-name="P">
<clipPath id="cp27998">
<path transform="matrix(1,0,0,-1,0,841.92)" d="M .000008871 0 L 595.32 0 L 595.32 841.92 L .000008871 841.92 Z " fill-rule="evenodd"/>
</clipPath>
<g clip-path="url(#cp27998)">
<text xml:space="preserve" transform="matrix(1 0 -0 1 0 841.92)" font-size="14.04" font-family="Times New Roman"><tspan y="-700.06" x="373.27 377.2152 381.06217 385.0074 391.24116 398.09266 405.15476 409.09999 416.0638 422.29759 429.2614 436.32353 442.55729 449.50709 455.6285 462.6906 466.53758 473.5014 484.29817 490.53193 494.47715">tilayotganda avtomati</tspan></text>
</g>
</g>
<g id="Layer-1" data-name="P">
<clipPath id="cp27999">
<path transform="matrix(1,0,0,-1,0,841.92)" d="M .000008871 0 L 595.32 0 L 595.32 841.92 L .000008871 841.92 Z " fill-rule="evenodd"/>
</clipPath>
<g clip-path="url(#cp27999)">
<text xml:space="preserve" transform="matrix(1 0 -0 1 0 841.92)" font-size="14.04" font-family="Times New Roman"><tspan y="-700.06" x="498.58 505.6421 512.5919 517.2672 523.3887 530.4508 534.2978 539.7032 546.7653 553.7292 559.96298">k ravishda </tspan></text>
</g>
</g>
<g id="Layer-1" data-name="P">
<clipPath id="cp28000">
<path transform="matrix(1,0,0,-1,0,841.92)" d="M .000008871 0 L 595.32 0 L 595.32 841.92 L .000008871 841.92 Z " fill-rule="evenodd"/>
</clipPath>
<g clip-path="url(#cp28000)">
<text xml:space="preserve" transform="matrix(1 0 -0 1 0 841.92)" font-size="14.04" font-family="Times New Roman"><tspan y="-675.94" x="85.104 89.06402">to</tspan></text>
</g>
</g>
<g id="Layer-1" data-name="P">
<clipPath id="cp28001">
<path transform="matrix(1,0,0,-1,0,841.92)" d="M .000008871 0 L 595.32 0 L 595.32 841.92 L .000008871 841.92 Z " fill-rule="evenodd"/>
</clipPath>
<g clip-path="url(#cp28001)">
<text xml:space="preserve" transform="matrix(1 0 -0 1 0 841.92)" font-size="14.04" font-family="Times New Roman"><tspan y="-675.94" x="96.144">&#x2019;</tspan></text>
</g>
</g>
<g id="Layer-1" data-name="P">
<clipPath id="cp28002">
<path transform="matrix(1,0,0,-1,0,841.92)" d="M .000008871 0 L 595.32 0 L 595.32 841.92 L .000008871 841.92 Z " fill-rule="evenodd"/>
</clipPath>
<g clip-path="url(#cp28002)">
<text xml:space="preserve" transform="matrix(1 0 -0 1 0 841.92)" font-size="14.04" font-family="Times New Roman"><tspan y="-675.94" x="100.7 104.54696 111.60908 115.55432 120.117328 123.96429 127.90953 134.1433 141.10713 145.05237">ldiriladi.</tspan></text>
</g>
</g>
<g id="Layer-1" data-name="P">
<clipPath id="cp28003">
<path transform="matrix(1,0,0,-1,0,841.92)" d="M .000008871 0 L 595.32 0 L 595.32 841.92 L .000008871 841.92 Z " fill-rule="evenodd"/>
</clipPath>
<g clip-path="url(#cp28003)">
<text xml:space="preserve" transform="matrix(1 0 -0 1 0 841.92)" font-size="14.04" font-family="Times New Roman"><tspan y="-675.94" x="148.46"> </tspan></text>
</g>
</g>
<g id="Layer-1" data-name="P">
<clipPath id="cp28004">
<path transform="matrix(1,0,0,-1,0,841.92)" d="M .000008871 0 L 595.32 0 L 595.32 841.92 L .000008871 841.92 Z " fill-rule="evenodd"/>
</clipPath>
<g clip-path="url(#cp28004)">
<text xml:space="preserve" transform="matrix(1 0 -0 1 0 841.92)" font-size="14.04" font-family="Times New Roman"><tspan y="-651.7" x="120.5 127.58 134.66">11.</tspan></text>
</g>
<clipPath id="cp28005">
<path transform="matrix(1,0,0,-1,0,841.92)" d="M .000008871 0 L 595.32 0 L 595.32 841.92 L .000008871 841.92 Z " fill-rule="evenodd"/>
</clipPath>
<g clip-path="url(#cp28005)">
<text xml:space="preserve" transform="matrix(1 0 -0 1 0 841.92)" font-size="14.04" font-family="Times New Roman"><tspan y="-651.7" x="138.14"> </tspan></text>
</g>
<clipPath id="cp28006">
<path transform="matrix(1,0,0,-1,0,841.92)" d="M .000008871 0 L 595.32 0 L 595.32 841.92 L .000008871 841.92 Z " fill-rule="evenodd"/>
</clipPath>
<g clip-path="url(#cp28006)">
<text xml:space="preserve" transform="matrix(1 0 -0 1 0 841.92)" font-size="14.04" font-family="Times New Roman"><tspan y="-651.7" x="141.62 151.70072 158.66455 164.89832 169.57364">Agar </tspan></text>
</g>
<clipPath id="cp28007">
<path transform="matrix(1,0,0,-1,0,841.92)" d="M .000008871 0 L 595.32 0 L 595.32 841.92 L .000008871 841.92 Z " fill-rule="evenodd"/>
</clipPath>
<g clip-path="url(#cp28007)">
<text xml:space="preserve" transform="matrix(1 0 -0 1 0 841.92)" font-size="14.04" font-family="Times New Roman,Bold" font-weight="bold"><tspan y="-651.7" x="175.58">&#x00ab;</tspan></text>
</g>
</g>
<g id="Layer-1" data-name="P">
<clipPath id="cp28008">
<path transform="matrix(1,0,0,-1,0,841.92)" d="M .000008871 0 L 595.32 0 L 595.32 841.92 L .000008871 841.92 Z " fill-rule="evenodd"/>
</clipPath>
<g clip-path="url(#cp28008)">
<text xml:space="preserve" transform="matrix(1 0 -0 1 0 841.92)" font-size="14.04" font-family="Times New Roman,Bold" font-weight="bold"><tspan y="-651.7" x="182.66 192.61437 199.67649 207.35637 214.30619 222.3511 230.15735 237.10715 244.68875 252.70558">&#x0421;&#x043e;&#x0440;&#x0442;&#x0438;&#x0440;&#x043e;&#x0432;&#x043a;&#x0430;</tspan></text>
</g>
</g>
<g id="Layer-1" data-name="P">
<clipPath id="cp28009">
<path transform="matrix(1,0,0,-1,0,841.92)" d="M .000008871 0 L 595.32 0 L 595.32 841.92 L .000008871 841.92 Z " fill-rule="evenodd"/>
</clipPath>
<g clip-path="url(#cp28009)">
<text xml:space="preserve" transform="matrix(1 0 -0 1 0 841.92)" font-size="14.04" font-family="Times New Roman,Bold" font-weight="bold"><tspan y="-651.7" x="259.85 266.93">&#x00bb; </tspan></text>
</g>
</g>
<g id="Layer-1" data-name="P">
<clipPath id="cp28010">
<path transform="matrix(1,0,0,-1,0,841.92)" d="M .000008871 0 L 595.32 0 L 595.32 841.92 L .000008871 841.92 Z " fill-rule="evenodd"/>
</clipPath>
<g clip-path="url(#cp28010)">
<text xml:space="preserve" transform="matrix(1 0 -0 1 0 841.92)" font-size="14.04" font-family="Times New Roman"><tspan y="-651.7" x="272.93 277.60533 285.2852 291.51896 296.19429 302.42805 306.28904 312.5228 317.9282 324.9903 329.66563 335.53437 341.03804 347.2718 351.11875 355.79408 359.64103 366.70314 372.9369 378.93199 384.33738 388.2826 394.40403 401.36787 408.42997 415.3938 422.4559 428.57734 435.63945 441.8732 447.74195 451.68717 458.651 465.7131 476.50987 482.74363 488.9774 496.05354 502.17497 507.67863 511.62385 517.49258 524.4564 531.51858 536.92398 540.77096 544.7162 550.21987 556.3413 559.6969">(Saralash) satrida sichqoncha tugmachasi bosilsa, </tspan></text>
</g>
</g>
<g id="Layer-1" data-name="P">
<clipPath id="cp28011">
<path transform="matrix(1,0,0,-1,0,841.92)" d="M .000008871 0 L 595.32 0 L 595.32 841.92 L .000008871 841.92 Z " fill-rule="evenodd"/>
</clipPath>
<g clip-path="url(#cp28011)">
<text xml:space="preserve" transform="matrix(1 0 -0 1 0 841.92)" font-size="14.04" font-family="Times New Roman"><tspan y="-627.58" x="85.104 90.60768 96.84144 101.51676 107.65224 111.59748 117.71892 123.2226 130.28472 133.64028 137.58551 144.64763 149.21063 153.15587 159.38964 163.95264 167.79959 174.86171 178.80695 182.1625 189.22463">saralash turlarini ko</tspan></text>
</g>
</g>
<g id="Layer-1" data-name="P">
<clipPath id="cp28012">
<path transform="matrix(1,0,0,-1,0,841.92)" d="M .000008871 0 L 595.32 0 L 595.32 841.92 L .000008871 841.92 Z " fill-rule="evenodd"/>
</clipPath>
<g clip-path="url(#cp28012)">
<text xml:space="preserve" transform="matrix(1 0 -0 1 0 841.92)" font-size="14.04" font-family="Times New Roman"><tspan y="-627.58" x="196.49">&#x2019;</tspan></text>
</g>
</g>
<g id="Layer-1" data-name="P">
<clipPath id="cp28013">
<path transform="matrix(1,0,0,-1,0,841.92)" d="M .000008871 0 L 595.32 0 L 595.32 841.92 L .000008871 841.92 Z " fill-rule="evenodd"/>
</clipPath>
<g clip-path="url(#cp28013)">
<text xml:space="preserve" transform="matrix(1 0 -0 1 0 841.92)" font-size="14.04" font-family="Times New Roman"><tspan y="-627.58" x="201.05 205.613 211.11669 217.35045 221.1974 228.16124 235.22336 241.3448 248.40692 252.35216 255.86215 260.39707">rsatuvchi ro</tspan></text>
</g>
</g>
<g id="Layer-1" data-name="P">
<clipPath id="cp28014">
<path transform="matrix(1,0,0,-1,0,841.92)" d="M .000008871 0 L 595.32 0 L 595.32 841.92 L .000008871 841.92 Z " fill-rule="evenodd"/>
</clipPath>
<g clip-path="url(#cp28014)">
<text xml:space="preserve" transform="matrix(1 0 -0 1 0 841.92)" font-size="14.04" font-family="Times New Roman"><tspan y="-627.58" x="267.53">&#x2019;</tspan></text>
</g>
</g>
<g id="Layer-1" data-name="P">
<clipPath id="cp28015">
<path transform="matrix(1,0,0,-1,0,841.92)" d="M .000008871 0 L 595.32 0 L 595.32 841.92 L .000008871 841.92 Z " fill-rule="evenodd"/>
</clipPath>
<g clip-path="url(#cp28015)">
<text xml:space="preserve" transform="matrix(1 0 -0 1 0 841.92)" font-size="14.04" font-family="Times New Roman"><tspan y="-627.58" x="272.09 278.92747 285.98957 292.22334 296.16856 303.23066 307.17588 310.53144 317.59355 323.71498 330.77708 336.8985 343.9606 347.80757 354.86967 360.9911 368.0532 371.5632 375.36805 382.43016 389.49226 400.1767 406.41047 412.64424 419.72038 425.95414 429.46415 436.3999 442.52134 449.3588 456.4209 463.483 466.993 474.013">yxatni ochadigan tugmacha paydo bo</tspan></text>
</g>
</g>
<g id="Layer-1" data-name="P">
<clipPath id="cp28016">
<path transform="matrix(1,0,0,-1,0,841.92)" d="M .000008871 0 L 595.32 0 L 595.32 841.92 L .000008871 841.92 Z " fill-rule="evenodd"/>
</clipPath>
<g clip-path="url(#cp28016)">
<text xml:space="preserve" transform="matrix(1 0 -0 1 0 841.92)" font-size="14.04" font-family="Times New Roman"><tspan y="-627.58" x="481.42">&#x2019;</tspan></text>
</g>
</g>
<g id="Layer-1" data-name="P">
<clipPath id="cp28017">
<path transform="matrix(1,0,0,-1,0,841.92)" d="M .000008871 0 L 595.32 0 L 595.32 841.92 L .000008871 841.92 Z " fill-rule="evenodd"/>
</clipPath>
<g clip-path="url(#cp28017)">
<text xml:space="preserve" transform="matrix(1 0 -0 1 0 841.92)" font-size="14.04" font-family="Times New Roman"><tspan y="-627.58" x="485.98 489.92524 496.04667 503.10877 507.054">ladi.</tspan></text>
</g>
</g>
<g id="Layer-1" data-name="P">
<clipPath id="cp28018">
<path transform="matrix(1,0,0,-1,0,841.92)" d="M .000008871 0 L 595.32 0 L 595.32 841.92 L .000008871 841.92 Z " fill-rule="evenodd"/>
</clipPath>
<g clip-path="url(#cp28018)">
<text xml:space="preserve" transform="matrix(1 0 -0 1 0 841.92)" font-size="14.04" font-family="Times New Roman"><tspan y="-627.58" x="510.46"> </tspan></text>
</g>
</g>
<g id="Layer-1" data-name="P">
<clipPath id="cp28019">
<path transform="matrix(1,0,0,-1,0,841.92)" d="M .000008871 0 L 595.32 0 L 595.32 841.92 L .000008871 841.92 Z " fill-rule="evenodd"/>
</clipPath>
<g clip-path="url(#cp28019)">
<text xml:space="preserve" transform="matrix(1 0 -0 1 0 841.92)" font-size="14.04" font-family="Times New Roman"><tspan y="-603.46" x="120.5 127.56212 134.62424 138.13423">12. </tspan></text>
</g>
<clipPath id="cp28020">
<path transform="matrix(1,0,0,-1,0,841.92)" d="M .000008871 0 L 595.32 0 L 595.32 841.92 L .000008871 841.92 Z " fill-rule="evenodd"/>
</clipPath>
<g clip-path="url(#cp28020)">
<text xml:space="preserve" transform="matrix(1 0 -0 1 0 841.92)" font-size="14.04" font-family="Times New Roman,Bold" font-weight="bold"><tspan y="-603.46" x="144.74">&#x00ab;</tspan></text>
</g>
</g>
<g id="Layer-1" data-name="P">
<clipPath id="cp28021">
<path transform="matrix(1,0,0,-1,0,841.92)" d="M .000008871 0 L 595.32 0 L 595.32 841.92 L .000008871 841.92 Z " fill-rule="evenodd"/>
</clipPath>
<g clip-path="url(#cp28021)">
<text xml:space="preserve" transform="matrix(1 0 -0 1 0 841.92)" font-size="14.04" font-family="Times New Roman,Bold" font-weight="bold"><tspan y="-603.46" x="151.82 162.12537 168.26085 176.16536 183.22748 190.80908 198.82592">&#x0423;&#x0441;&#x043b;&#x043e;&#x0432;&#x0438;&#x0435;</tspan></text>
</g>
</g>
<g id="Layer-1" data-name="P">
<clipPath id="cp28022">
<path transform="matrix(1,0,0,-1,0,841.92)" d="M .000008871 0 L 595.32 0 L 595.32 841.92 L .000008871 841.92 Z " fill-rule="evenodd"/>
</clipPath>
<g clip-path="url(#cp28022)">
<text xml:space="preserve" transform="matrix(1 0 -0 1 0 841.92)" font-size="14.04" font-family="Times New Roman,Bold" font-weight="bold"><tspan y="-603.46" x="205.13"> </tspan></text>
</g>
</g>
<g id="Layer-1" data-name="P">
<clipPath id="cp28023">
<path transform="matrix(1,0,0,-1,0,841.92)" d="M .000008871 0 L 595.32 0 L 595.32 841.92 L .000008871 841.92 Z " fill-rule="evenodd"/>
</clipPath>
<g clip-path="url(#cp28023)">
<text xml:space="preserve" transform="matrix(1 0 -0 1 0 841.92)" font-size="14.04" font-family="Times New Roman,Bold" font-weight="bold"><tspan y="-603.46" x="211.73 218.69384 225.64365 232.60749 239.57132 247.37757">&#x043e;&#x0442;&#x0431;&#x043e;&#x0440;&#x0430;</tspan></text>
</g>
</g>
<g id="Layer-1" data-name="P">
<clipPath id="cp28024">
<path transform="matrix(1,0,0,-1,0,841.92)" d="M .000008871 0 L 595.32 0 L 595.32 841.92 L .000008871 841.92 Z " fill-rule="evenodd"/>
</clipPath>
<g clip-path="url(#cp28024)">
<text xml:space="preserve" transform="matrix(1 0 -0 1 0 841.92)" font-size="14.04" font-family="Times New Roman,Bold" font-weight="bold"><tspan y="-603.46" x="254.45 261.53">&#x00bb; </tspan></text>
</g>
</g>
<g id="Layer-1" data-name="P">
<clipPath id="cp28025">
<path transform="matrix(1,0,0,-1,0,841.92)" d="M .000008871 0 L 595.32 0 L 595.32 841.92 L .000008871 841.92 Z " fill-rule="evenodd"/>
</clipPath>
<g clip-path="url(#cp28025)">
<text xml:space="preserve" transform="matrix(1 0 -0 1 0 841.92)" font-size="14.04" font-family="Times New Roman"><tspan y="-603.46" x="268.25">(</tspan></text>
</g>
</g>
<g id="Layer-1" data-name="P">
<clipPath id="cp28026">
<path transform="matrix(1,0,0,-1,0,841.92)" d="M .000008871 0 L 595.32 0 L 595.32 841.92 L .000008871 841.92 Z " fill-rule="evenodd"/>
</clipPath>
<g clip-path="url(#cp28026)">
<text xml:space="preserve" transform="matrix(1 0 -0 1 0 841.92)" font-size="14.04" font-family="Times New Roman"><tspan y="-603.46" x="272.93">&#x0422;</tspan></text>
</g>
</g>
<g id="Layer-1" data-name="P">
<clipPath id="cp28027">
<path transform="matrix(1,0,0,-1,0,841.92)" d="M .000008871 0 L 595.32 0 L 595.32 841.92 L .000008871 841.92 Z " fill-rule="evenodd"/>
</clipPath>
<g clip-path="url(#cp28027)">
<text xml:space="preserve" transform="matrix(1 0 -0 1 0 841.92)" font-size="14.04" font-family="Times New Roman"><tspan y="-603.46" x="281.45 287.57145 294.53529 298.4805 304.71427 310.11967 317.18177 323.89289 329.29829 336.36039 342.59416 347.15715 351.0041 354.9493 359.5123 366.22343 371.72709 377.96086 381.90608 386.46907 390.316 397.3781 403.61189 410.323 417.3851 423.50654 427.3535 431.2987 435.14567 441.37944 448.34327 452.28849 459.12596 465.83708 469.68403 476.03013 483.09223 490.05607 496.28984 500.13679 507.19889 513.4326 520.14376 527.1076 531.05288 535.61587 539.5611 543.4081 547.25509 552.7587 559.7226">anlash sharti) satrida natijaviy jadvalga kiritish </tspan></text>
</g>
</g>
<g id="Layer-1" data-name="P">
<clipPath id="cp28028">
<path transform="matrix(1,0,0,-1,0,841.92)" d="M .000008871 0 L 595.32 0 L 595.32 841.92 L .000008871 841.92 Z " fill-rule="evenodd"/>
</clipPath>
<g clip-path="url(#cp28028)">
<text xml:space="preserve" transform="matrix(1 0 -0 1 0 841.92)" font-size="14.04" font-family="Times New Roman"><tspan y="-579.34" x="85.104 92.166118 98.28755 105.34967 112.31351 119.375629">uchun </tspan></text>
</g>
</g>
<g id="Layer-1" data-name="P">
<clipPath id="cp28029">
<path transform="matrix(1,0,0,-1,0,841.92)" d="M .000008871 0 L 595.32 0 L 595.32 841.92 L .000008871 841.92 Z " fill-rule="evenodd"/>
</clipPath>
<g clip-path="url(#cp28029)">
<text xml:space="preserve" transform="matrix(1 0 -0 1 0 841.92)" font-size="14.04" font-family="Times New Roman"><tspan y="-579.34" x="127.1 133.93747 140.99959 147.23336 154.30953 161.27336 165.2186 171.45236 176.01537 183.07749 189.31125 196.86476 203.8286">yozuvlarga qo</tspan></text>
</g>
</g>
<g id="Layer-1" data-name="P">
<clipPath id="cp28030">
<path transform="matrix(1,0,0,-1,0,841.92)" d="M .000008871 0 L 595.32 0 L 595.32 841.92 L .000008871 841.92 Z " fill-rule="evenodd"/>
</clipPath>
<g clip-path="url(#cp28030)">
<text xml:space="preserve" transform="matrix(1 0 -0 1 0 841.92)" font-size="14.04" font-family="Times New Roman"><tspan y="-579.34" x="211.01">&#x2019;</tspan></text>
</g>
</g>
<g id="Layer-1" data-name="P">
<clipPath id="cp28031">
<path transform="matrix(1,0,0,-1,0,841.92)" d="M .000008871 0 L 595.32 0 L 595.32 841.92 L .000008871 841.92 Z " fill-rule="evenodd"/>
</clipPath>
<g clip-path="url(#cp28031)">
<text xml:space="preserve" transform="matrix(1 0 -0 1 0 841.92)" font-size="14.04" font-family="Times New Roman"><tspan y="-579.34" x="215.69 222.52748 226.47272 230.41796 236.5394 243.60152 247.44847 254.51059 260.63203 267.69413 275.36 286.04444 292.2782 298.51197 305.5881 312.6502 320.31608 324.9914 330.49507 337.55717 343.6786 348.3539 352.29914 356.97447 364.64033 371.47779 378.5399 384.77366 388.6206 392.56584 398.68727 405.74937 409.69459 413.2046 420.84236 430.92308 437.15684 441.71983 449.38569 456.44779 460.393 465.06834 472.7342 483.41865 489.76475 496.6022 503.6643 510.7264 517.7885 525.45437 532.4182 538.652 545.61587 552.5797 559.5436">yiladigan mezon (shart) yoziladi. Har bir maydon uchun </tspan></text>
</g>
</g>
<g id="Layer-1" data-name="P">
<clipPath id="cp28032">
<path transform="matrix(1,0,0,-1,0,841.92)" d="M .000008871 0 L 595.32 0 L 595.32 841.92 L .000008871 841.92 Z " fill-rule="evenodd"/>
</clipPath>
<g clip-path="url(#cp28032)">
<text xml:space="preserve" transform="matrix(1 0 -0 1 0 841.92)" font-size="14.04" font-family="Times New Roman"><tspan y="-555.07" x="85.104">o</tspan></text>
</g>
</g>
<g id="Layer-1" data-name="P">
<clipPath id="cp28033">
<path transform="matrix(1,0,0,-1,0,841.92)" d="M .000008871 0 L 595.32 0 L 595.32 841.92 L .000008871 841.92 Z " fill-rule="evenodd"/>
</clipPath>
<g clip-path="url(#cp28033)">
<text xml:space="preserve" transform="matrix(1 0 -0 1 0 841.92)" font-size="14.04" font-family="Times New Roman"><tspan y="-555.07" x="92.184">&#x2019;</tspan></text>
</g>
</g>
<g id="Layer-1" data-name="P">
<clipPath id="cp28034">
<path transform="matrix(1,0,0,-1,0,841.92)" d="M .000008871 0 L 595.32 0 L 595.32 841.92 L .000008871 841.92 Z " fill-rule="evenodd"/>
</clipPath>
<g clip-path="url(#cp28034)">
<text xml:space="preserve" transform="matrix(1 0 -0 1 0 841.92)" font-size="14.04" font-family="Times New Roman"><tspan y="-555.07" x="96.744 102.97776 106.923007 113.88684 117.7338 124.79592 131.85803 135.2136 139.15883 145.3926 152.35643 156.30167 162.42311 167.8285 174.89063 178.40062 183.7639 190.82602 197.05979 201.62279 205.46974 209.41498 212.92498 216.3788 223.34264">zining tanlash sharti  bo</tspan></text>
</g>
</g>
<g id="Layer-1" data-name="P">
<clipPath id="cp28035">
<path transform="matrix(1,0,0,-1,0,841.92)" d="M .000008871 0 L 595.32 0 L 595.32 841.92 L .000008871 841.92 Z " fill-rule="evenodd"/>
</clipPath>
<g clip-path="url(#cp28035)">
<text xml:space="preserve" transform="matrix(1 0 -0 1 0 841.92)" font-size="14.04" font-family="Times New Roman"><tspan y="-555.07" x="230.57">&#x2019;</tspan></text>
</g>
</g>
<g id="Layer-1" data-name="P">
<clipPath id="cp28036">
<path transform="matrix(1,0,0,-1,0,841.92)" d="M .000008871 0 L 595.32 0 L 595.32 841.92 L .000008871 841.92 Z " fill-rule="evenodd"/>
</clipPath>
<g clip-path="url(#cp28036)">
<text xml:space="preserve" transform="matrix(1 0 -0 1 0 841.92)" font-size="14.04" font-family="Times New Roman"><tspan y="-555.07" x="235.13 239.07524 243.02048 248.42588 255.38971 259.33494 262.84495 273.5013 280.6898 291.37425 298.43635 302.38157 309.44367">lishi mumkin.</tspan></text>
</g>
</g>
<g id="Layer-1" data-name="P">
<clipPath id="cp28037">
<path transform="matrix(1,0,0,-1,0,841.92)" d="M .000008871 0 L 595.32 0 L 595.32 841.92 L .000008871 841.92 Z " fill-rule="evenodd"/>
</clipPath>
<g clip-path="url(#cp28037)">
<text xml:space="preserve" transform="matrix(1 0 -0 1 0 841.92)" font-size="14.04" font-family="Times New Roman"><tspan y="-555.07" x="313.01"> </tspan></text>
</g>
</g>
<g id="Layer-1" data-name="P">
<clipPath id="cp28038">
<path transform="matrix(1,0,0,-1,0,841.92)" d="M .000008871 0 L 595.32 0 L 595.32 841.92 L .000008871 841.92 Z " fill-rule="evenodd"/>
</clipPath>
<g clip-path="url(#cp28038)">
<text xml:space="preserve" transform="matrix(1 0 -0 1 0 841.92)" font-size="14.04" font-family="Times New Roman"><tspan y="-530.95" x="120.5 127.56212 134.62424 138.13423 144.32587 152.13211">13. So</tspan></text>
</g>
<clipPath id="cp28039">
<path transform="matrix(1,0,0,-1,0,841.92)" d="M .000008871 0 L 595.32 0 L 595.32 841.92 L .000008871 841.92 Z " fill-rule="evenodd"/>
</clipPath>
<g clip-path="url(#cp28039)">
<text xml:space="preserve" transform="matrix(1 0 -0 1 0 841.92)" font-size="14.04" font-family="Times New Roman"><tspan y="-530.95" x="159.26">&#x2019;</tspan></text>
</g>
<clipPath id="cp28040">
<path transform="matrix(1,0,0,-1,0,841.92)" d="M .000008871 0 L 595.32 0 L 595.32 841.92 L .000008871 841.92 Z " fill-rule="evenodd"/>
</clipPath>
<g clip-path="url(#cp28040)">
<text xml:space="preserve" transform="matrix(1 0 -0 1 0 841.92)" font-size="14.04" font-family="Times New Roman"><tspan y="-530.95" x="163.82 168.49533 175.45917 182.52129 189.48513 193.43036 199.65007 203.49703 209.0007 215.96454 223.02666 229.26042 235.49417 239.34113 246.40325 251.80864 258.7725 262.7177 267.39305 271.24 276.74366 283.7075">rovni ishga tushirish </tspan></text>
</g>
<clipPath id="cp28041">
<path transform="matrix(1,0,0,-1,0,841.92)" d="M .000008871 0 L 595.32 0 L 595.32 841.92 L .000008871 841.92 Z " fill-rule="evenodd"/>
</clipPath>
<g clip-path="url(#cp28041)">
<text xml:space="preserve" transform="matrix(1 0 -0 1 0 841.92)" font-size="14.04" font-family="Times New Roman,Bold" font-weight="bold"><tspan y="-530.95" x="290.21">&#x00ab;</tspan></text>
</g>
</g>
<g id="Layer-1" data-name="P">
<clipPath id="cp28042">
<path transform="matrix(1,0,0,-1,0,841.92)" d="M .000008871 0 L 595.32 0 L 595.32 841.92 L .000008871 841.92 Z " fill-rule="evenodd"/>
</clipPath>
<g clip-path="url(#cp28042)">
<text xml:space="preserve" transform="matrix(1 0 -0 1 0 841.92)" font-size="14.04" font-family="Times New Roman,Bold" font-weight="bold"><tspan y="-530.95" x="297.17 306.5347 314.56559">&#x0412;&#x0438;&#x0434;</tspan></text>
</g>
</g>
<g id="Layer-1" data-name="P">
<clipPath id="cp28043">
<path transform="matrix(1,0,0,-1,0,841.92)" d="M .000008871 0 L 595.32 0 L 595.32 841.92 L .000008871 841.92 Z " fill-rule="evenodd"/>
</clipPath>
<g clip-path="url(#cp28043)">
<text xml:space="preserve" transform="matrix(1 0 -0 1 0 841.92)" font-size="14.04" font-family="Times New Roman,Bold" font-weight="bold"><tspan y="-530.95" x="321.67 328.75">&#x00bb; </tspan></text>
</g>
</g>
<g id="Layer-1" data-name="P">
<clipPath id="cp28044">
<path transform="matrix(1,0,0,-1,0,841.92)" d="M .000008871 0 L 595.32 0 L 595.32 841.92 L .000008871 841.92 Z " fill-rule="evenodd"/>
</clipPath>
<g clip-path="url(#cp28044)">
<text xml:space="preserve" transform="matrix(1 0 -0 1 0 841.92)" font-size="14.04" font-family="Times New Roman"><tspan y="-530.95" x="335.11 339.7853 349.7537">(Ko</tspan></text>
</g>
</g>
<g id="Layer-1" data-name="P">
<clipPath id="cp28045">
<path transform="matrix(1,0,0,-1,0,841.92)" d="M .000008871 0 L 595.32 0 L 595.32 841.92 L .000008871 841.92 Z " fill-rule="evenodd"/>
</clipPath>
<g clip-path="url(#cp28045)">
<text xml:space="preserve" transform="matrix(1 0 -0 1 0 841.92)" font-size="14.04" font-family="Times New Roman"><tspan y="-530.95" x="356.83">&#x2019;</tspan></text>
</g>
</g>
<g id="Layer-1" data-name="P">
<clipPath id="cp28046">
<path transform="matrix(1,0,0,-1,0,841.92)" d="M .000008871 0 L 595.32 0 L 595.32 841.92 L .000008871 841.92 Z " fill-rule="evenodd"/>
</clipPath>
<g clip-path="url(#cp28046)">
<text xml:space="preserve" transform="matrix(1 0 -0 1 0 841.92)" font-size="14.04" font-family="Times New Roman"><tspan y="-530.95" x="361.39 366.06535 370.01057 376.9744 380.82136 386.325 393.38713 397.9501 404.2962 408.14317 415.107 422.1691 432.85356 439.0873 445.32109 452.39723 458.63099 464.14869 467.99565 474.95948 478.80644 485.15254 492.11637 499.17848 504.58387 508.52909 513.9345 520.99667 527.2164 534.2785 538.8415 545.9036 552.0251 555.97036 559.8173">rinish) tugmachasini bosish orqali </tspan></text>
</g>
</g>
<g id="Layer-1" data-name="P">
<clipPath id="cp28047">
<path transform="matrix(1,0,0,-1,0,841.92)" d="M .000008871 0 L 595.32 0 L 595.32 841.92 L .000008871 841.92 Z " fill-rule="evenodd"/>
</clipPath>
<g clip-path="url(#cp28047)">
<text xml:space="preserve" transform="matrix(1 0 -0 1 0 841.92)" font-size="14.04" font-family="Times New Roman"><tspan y="-506.83" x="85.104 92.166118 98.39987 102.24683 108.48059 113.155918 117.00288 120.94812 127.06956 134.13167 138.0769 141.5869 145.04073 154.99509 162.0572 169.11933 175.35309 178.72269 185.7848 191.90625 195.85149 199.79673 203.51732 209.75109 216.82726 220.77249 227.60997 231.11997 234.9248 241.15857 248.23474 255.29686 261.41828 265.3635 268.8735 275.80928 282.7731 288.27677 292.12373 296.06895 299.57896 306.5147">bajariladi. Unda natijaviy jadval hosil bo</tspan></text>
</g>
</g>
<g id="Layer-1" data-name="P">
<clipPath id="cp28048">
<path transform="matrix(1,0,0,-1,0,841.92)" d="M .000008871 0 L 595.32 0 L 595.32 841.92 L .000008871 841.92 Z " fill-rule="evenodd"/>
</clipPath>
<g clip-path="url(#cp28048)">
<text xml:space="preserve" transform="matrix(1 0 -0 1 0 841.92)" font-size="14.04" font-family="Times New Roman"><tspan y="-506.83" x="313.85">&#x2019;</tspan></text>
</g>
</g>
<g id="Layer-1" data-name="P">
<clipPath id="cp28049">
<path transform="matrix(1,0,0,-1,0,841.92)" d="M .000008871 0 L 595.32 0 L 595.32 841.92 L .000008871 841.92 Z " fill-rule="evenodd"/>
</clipPath>
<g clip-path="url(#cp28049)">
<text xml:space="preserve" transform="matrix(1 0 -0 1 0 841.92)" font-size="14.04" font-family="Times New Roman"><tspan y="-506.83" x="318.43 322.27696 328.5107 335.58686 339.53208">ladi.</tspan></text>
</g>
</g>
<g id="Layer-1" data-name="P">
<clipPath id="cp28050">
<path transform="matrix(1,0,0,-1,0,841.92)" d="M .000008871 0 L 595.32 0 L 595.32 841.92 L .000008871 841.92 Z " fill-rule="evenodd"/>
</clipPath>
<g clip-path="url(#cp28050)">
<text xml:space="preserve" transform="matrix(1 0 -0 1 0 841.92)" font-size="14.04" font-family="Times New Roman"><tspan y="-506.83" x="342.91"> </tspan></text>
</g>
</g>
<g id="Layer-1" data-name="P">
<clipPath id="cp28051">
<path transform="matrix(1,0,0,-1,0,841.92)" d="M .000008871 0 L 595.32 0 L 595.32 841.92 L .000008871 841.92 Z " fill-rule="evenodd"/>
</clipPath>
<g clip-path="url(#cp28051)">
<text xml:space="preserve" transform="matrix(1 0 -0 1 0 841.92)" font-size="14.04" font-family="Times New Roman"><tspan y="-482.71" x="120.5 127.56212 134.62424 138.13423 142.6551 152.73583 158.96959 162.81655 166.76178 170.60874 176.8425 183.80634 187.75157 194.58905 199.25032 203.09728 209.33104 216.40721 223.46933 229.59078 233.53601 240.49985">14. Natijaviy jadvalda</tspan></text>
</g>
<clipPath id="cp28052">
<path transform="matrix(1,0,0,-1,0,841.92)" d="M .000008871 0 L 595.32 0 L 595.32 841.92 L .000008871 841.92 Z " fill-rule="evenodd"/>
</clipPath>
<g clip-path="url(#cp28052)">
<text xml:space="preserve" transform="matrix(1 0 -0 1 0 841.92)" font-size="14.04" font-family="Times New Roman"><tspan y="-482.71" x="246.89 253.95212 258.5011 264.73487 271.6987 275.64393 282.60777 286.4547 291.95838 299.02049 303.56947 310.63157 316.86534 321.4143 328.37815 334.6119 345.29637 352.35847 359.42057 365.65434 370.2033 377.2654">n chiqish va namuna bo</tspan></text>
</g>
<clipPath id="cp28053">
<path transform="matrix(1,0,0,-1,0,841.92)" d="M .000008871 0 L 595.32 0 L 595.32 841.92 L .000008871 841.92 Z " fill-rule="evenodd"/>
</clipPath>
<g clip-path="url(#cp28053)">
<text xml:space="preserve" transform="matrix(1 0 -0 1 0 841.92)" font-size="14.04" font-family="Times New Roman"><tspan y="-482.71" x="384.55">&#x2019;</tspan></text>
</g>
<clipPath id="cp28054">
<path transform="matrix(1,0,0,-1,0,841.92)" d="M .000008871 0 L 595.32 0 L 595.32 841.92 L .000008871 841.92 Z " fill-rule="evenodd"/>
</clipPath>
<g clip-path="url(#cp28054)">
<text xml:space="preserve" transform="matrix(1 0 -0 1 0 841.92)" font-size="14.04" font-family="Times New Roman"><tspan y="-482.71" x="389.11 395.94746 399.89268 406.12644 413.20259 419.43635 423.98533 429.48899">yicha so</tspan></text>
</g>
<clipPath id="cp28055">
<path transform="matrix(1,0,0,-1,0,841.92)" d="M .000008871 0 L 595.32 0 L 595.32 841.92 L .000008871 841.92 Z " fill-rule="evenodd"/>
</clipPath>
<g clip-path="url(#cp28055)">
<text xml:space="preserve" transform="matrix(1 0 -0 1 0 841.92)" font-size="14.04" font-family="Times New Roman"><tspan y="-482.71" x="436.63">&#x2019;</tspan></text>
</g>
<clipPath id="cp28056">
<path transform="matrix(1,0,0,-1,0,841.92)" d="M .000008871 0 L 595.32 0 L 595.32 841.92 L .000008871 841.92 Z " fill-rule="evenodd"/>
</clipPath>
<g clip-path="url(#cp28056)">
<text xml:space="preserve" transform="matrix(1 0 -0 1 0 841.92)" font-size="14.04" font-family="Times New Roman"><tspan y="-482.71" x="441.22 445.89533 452.85917 459.92127 464.47026 471.53236 475.47758 481.599 488.6611 495.62495 501.8587 507.2641 511.20933 518.17318 524.4069 528.9559 535.7934 542.02719 549.10336 556.0672 559.9142">rov blankasida yangi </tspan></text>
</g>
<clipPath id="cp28057">
<path transform="matrix(1,0,0,-1,0,841.92)" d="M .000008871 0 L 595.32 0 L 595.32 841.92 L .000008871 841.92 Z " fill-rule="evenodd"/>
</clipPath>
<g clip-path="url(#cp28057)">
<text xml:space="preserve" transform="matrix(1 0 -0 1 0 841.92)" font-size="14.04" font-family="Times New Roman"><tspan y="-458.47" x="85.104 90.623958">so</tspan></text>
</g>
<clipPath id="cp28058">
<path transform="matrix(1,0,0,-1,0,841.92)" d="M .000008871 0 L 595.32 0 L 595.32 841.92 L .000008871 841.92 Z " fill-rule="evenodd"/>
</clipPath>
<g clip-path="url(#cp28058)">
<text xml:space="preserve" transform="matrix(1 0 -0 1 0 841.92)" font-size="14.04" font-family="Times New Roman"><tspan y="-458.47" x="97.704">&#x2019;</tspan></text>
</g>
<clipPath id="cp28059">
<path transform="matrix(1,0,0,-1,0,841.92)" d="M .000008871 0 L 595.32 0 L 595.32 841.92 L .000008871 841.92 Z " fill-rule="evenodd"/>
</clipPath>
<g clip-path="url(#cp28059)">
<text xml:space="preserve" transform="matrix(1 0 -0 1 0 841.92)" font-size="14.04" font-family="Times New Roman"><tspan y="-458.47" x="102.26 106.935329 113.89916 120.863 127.92512 131.87035 136.05426 142.89174 149.1255 153.80083 160.03459 163.8956 167.84084 173.24623 180.21007 187.27219 193.50595 197.57755 204.54138 210.77515 217.62667 221.5719 225.51714 231.02082 237.98465 242.16857 249.23069 255.35213 262.31599 269.37809 276.34193">rovni yaratishga qaytish uchun </tspan></text>
</g>
<clipPath id="cp28060">
<path transform="matrix(1,0,0,-1,0,841.92)" d="M .000008871 0 L 595.32 0 L 595.32 841.92 L .000008871 841.92 Z " fill-rule="evenodd"/>
</clipPath>
<g clip-path="url(#cp28060)">
<text xml:space="preserve" transform="matrix(1 0 -0 1 0 841.92)" font-size="14.04" font-family="Times New Roman,Bold" font-weight="bold"><tspan y="-458.47" x="280.73">&#x00ab;</tspan></text>
</g>
</g>
<g id="Layer-1" data-name="P">
<clipPath id="cp28061">
<path transform="matrix(1,0,0,-1,0,841.92)" d="M .000008871 0 L 595.32 0 L 595.32 841.92 L .000008871 841.92 Z " fill-rule="evenodd"/>
</clipPath>
<g clip-path="url(#cp28061)">
<text xml:space="preserve" transform="matrix(1 0 -0 1 0 841.92)" font-size="14.04" font-family="Times New Roman,Bold" font-weight="bold"><tspan y="-458.47" x="287.69 297.0547 305.08558">&#x0412;&#x0438;&#x0434;</tspan></text>
</g>
</g>
<g id="Layer-1" data-name="P">
<clipPath id="cp28062">
<path transform="matrix(1,0,0,-1,0,841.92)" d="M .000008871 0 L 595.32 0 L 595.32 841.92 L .000008871 841.92 Z " fill-rule="evenodd"/>
</clipPath>
<g clip-path="url(#cp28062)">
<text xml:space="preserve" transform="matrix(1 0 -0 1 0 841.92)" font-size="14.04" font-family="Times New Roman,Bold" font-weight="bold"><tspan y="-458.47" x="312.17 319.23213 323.30375">&#x00bb;  </tspan></text>
</g>
</g>
<g id="Layer-1" data-name="P">
<clipPath id="cp28063">
<path transform="matrix(1,0,0,-1,0,841.92)" d="M .000008871 0 L 595.32 0 L 595.32 841.92 L .000008871 841.92 Z " fill-rule="evenodd"/>
</clipPath>
<g clip-path="url(#cp28063)">
<text xml:space="preserve" transform="matrix(1 0 -0 1 0 841.92)" font-size="14.04" font-family="Times New Roman"><tspan y="-458.47" x="327.43 332.10533 342.18605">(Ko</tspan></text>
</g>
</g>
<g id="Layer-1" data-name="P">
<clipPath id="cp28064">
<path transform="matrix(1,0,0,-1,0,841.92)" d="M .000008871 0 L 595.32 0 L 595.32 841.92 L .000008871 841.92 Z " fill-rule="evenodd"/>
</clipPath>
<g clip-path="url(#cp28064)">
<text xml:space="preserve" transform="matrix(1 0 -0 1 0 841.92)" font-size="14.04" font-family="Times New Roman"><tspan y="-458.47" x="349.27">&#x2019;</tspan></text>
</g>
</g>
<g id="Layer-1" data-name="P">
<clipPath id="cp28065">
<path transform="matrix(1,0,0,-1,0,841.92)" d="M .000008871 0 L 595.32 0 L 595.32 841.92 L .000008871 841.92 Z " fill-rule="evenodd"/>
</clipPath>
<g clip-path="url(#cp28065)">
<text xml:space="preserve" transform="matrix(1 0 -0 1 0 841.92)" font-size="14.04" font-family="Times New Roman"><tspan y="-458.47" x="353.83 358.5053 362.45054 369.41438 373.3596 378.76499 385.8271 390.5024 394.57405 398.421 405.4831 412.5452 423.22966 429.4634 435.69718 442.77333 448.89476 454.3984 458.24537 465.30747 469.15443 473.33836 477.28358 483.405 490.4671 495.0301 502.0922 506.76753 512.889 519.9511 524.0227 530.9866 538.0487 543.4541 547.39938 552.80477 559.7686">rinish) tugmachasini takroran bosish </tspan></text>
</g>
</g>
<g id="Layer-1" data-name="P">
<clipPath id="cp28066">
<path transform="matrix(1,0,0,-1,0,841.92)" d="M .000008871 0 L 595.32 0 L 595.32 841.92 L .000008871 841.92 Z " fill-rule="evenodd"/>
</clipPath>
<g clip-path="url(#cp28066)">
<text xml:space="preserve" transform="matrix(1 0 -0 1 0 841.92)" font-size="14.04" font-family="Times New Roman"><tspan y="-434.35" x="85.104 92.166118 98.39987 103.075199 109.21067 116.27279">kerak.</tspan></text>
</g>
</g>
<g id="Layer-1" data-name="P">
<clipPath id="cp28067">
<path transform="matrix(1,0,0,-1,0,841.92)" d="M .000008871 0 L 595.32 0 L 595.32 841.92 L .000008871 841.92 Z " fill-rule="evenodd"/>
</clipPath>
<g clip-path="url(#cp28067)">
<text xml:space="preserve" transform="matrix(1 0 -0 1 0 841.92)" font-size="14.04" font-family="Times New Roman"><tspan y="-434.35" x="119.66"> </tspan></text>
</g>
</g>
<g id="Layer-1" data-name="P">
<clipPath id="cp28068">
<path transform="matrix(1,0,0,-1,0,841.92)" d="M .000008871 0 L 595.32 0 L 595.32 841.92 L .000008871 841.92 Z " fill-rule="evenodd"/>
</clipPath>
<g clip-path="url(#cp28068)">
<text xml:space="preserve" transform="matrix(1 0 -0 1 0 841.92)" font-size="14.04" font-family="Times New Roman,Italic" font-style="italic"><tspan y="-410.23" x="120.5 130.58072 135.25605 140.75972 147.72356 154.78568 160.19107 164.03803 167.98326 173.38866 177.3339 182.73929 189.8014 193.3114 198.67469 205.7368 210.2998 215.80348 222.76732 229.00109 232.84804 239.81188 245.31555 249.26079">O&#x2019;zgartirish so&#x2019;rovlari.</tspan></text>
</g>
<clipPath id="cp28069">
<path transform="matrix(1,0,0,-1,0,841.92)" d="M .000008871 0 L 595.32 0 L 595.32 841.92 L .000008871 841.92 Z " fill-rule="evenodd"/>
</clipPath>
<g clip-path="url(#cp28069)">
<text xml:space="preserve" transform="matrix(1 0 -0 1 0 841.92)" font-size="14.04" font-family="Times New Roman"><tspan y="-410.23" x="252.89"> </tspan></text>
</g>
</g>
<g id="Layer-1" data-name="P">
<clipPath id="cp28070">
<path transform="matrix(1,0,0,-1,0,841.92)" d="M .000008871 0 L 595.32 0 L 595.32 841.92 L .000008871 841.92 Z " fill-rule="evenodd"/>
</clipPath>
<g clip-path="url(#cp28070)">
<text xml:space="preserve" transform="matrix(1 0 -0 1 0 841.92)" font-size="14.04" font-family="Times New Roman"><tspan y="-410.23" x="256.37">&#x0422;</tspan></text>
</g>
</g>
<g id="Layer-1" data-name="P">
<clipPath id="cp28071">
<path transform="matrix(1,0,0,-1,0,841.92)" d="M .000008871 0 L 595.32 0 L 595.32 841.92 L .000008871 841.92 Z " fill-rule="evenodd"/>
</clipPath>
<g clip-path="url(#cp28071)">
<text xml:space="preserve" transform="matrix(1 0 -0 1 0 841.92)" font-size="14.04" font-family="Times New Roman"><tspan y="-410.23" x="264.89 271.12379 278.08763 282.03285 288.15428 295.21638 298.72639 305.66215 309.60737 313.4543 318.8597 325.9218 329.43183 334.7951">anlab olish so</tspan></text>
</g>
</g>
<g id="Layer-1" data-name="P">
<clipPath id="cp28072">
<path transform="matrix(1,0,0,-1,0,841.92)" d="M .000008871 0 L 595.32 0 L 595.32 841.92 L .000008871 841.92 Z " fill-rule="evenodd"/>
</clipPath>
<g clip-path="url(#cp28072)">
<text xml:space="preserve" transform="matrix(1 0 -0 1 0 841.92)" font-size="14.04" font-family="Times New Roman"><tspan y="-410.23" x="341.95">&#x2019;</tspan></text>
</g>
</g>
<g id="Layer-1" data-name="P">
<clipPath id="cp28073">
<path transform="matrix(1,0,0,-1,0,841.92)" d="M .000008871 0 L 595.32 0 L 595.32 841.92 L .000008871 841.92 Z " fill-rule="evenodd"/>
</clipPath>
<g clip-path="url(#cp28073)">
<text xml:space="preserve" transform="matrix(1 0 -0 1 0 841.92)" font-size="14.04" font-family="Times New Roman"><tspan y="-410.23" x="346.51 351.18534 358.14918 365.21128 369.1565 375.27793 379.95326 383.8002 390.8623 394.70927 401.6731 408.7352 412.2452 419.2652 425.41474 430.09007 436.32383 443.3017 449.53547 453.04548 456.86436 463.92646 468.60179 472.44874 478.57017 483.24549 487.1907 490.7007 497.7207 503.87025 510.83409 514.7793 518.6263 525.6884 531.8099 538.872 545.1058 548.95278 552.79977 559.8619">rovlarining barcha turlari vaqtinchalik </tspan></text>
</g>
</g>
<g id="Layer-1" data-name="P">
<clipPath id="cp28074">
<path transform="matrix(1,0,0,-1,0,841.92)" d="M .000008871 0 L 595.32 0 L 595.32 841.92 L .000008871 841.92 Z " fill-rule="evenodd"/>
</clipPath>
<g clip-path="url(#cp28074)">
<text xml:space="preserve" transform="matrix(1 0 -0 1 0 841.92)" font-size="14.04" font-family="Times New Roman"><tspan y="-386.09" x="85.104 92.166118 98.39987 102.24683 106.19208 110.03904 116.16048 123.222599 127.16784 134.00531 141.67115 145.5181 151.75186 158.82804 165.89015 172.12392 175.97087 179.9161 186.14987 190.71288 197.775 201.62195 209.28778 216.3499 223.41202 228.81742 232.76265 236.70789">natijaviy jadvallarni hosil </tspan></text>
</g>
</g>
<g id="Layer-1" data-name="P">
<clipPath id="cp28075">
<path transform="matrix(1,0,0,-1,0,841.92)" d="M .000008871 0 L 595.32 0 L 595.32 841.92 L .000008871 841.92 Z " fill-rule="evenodd"/>
</clipPath>
<g clip-path="url(#cp28075)">
<text xml:space="preserve" transform="matrix(1 0 -0 1 0 841.92)" font-size="14.04" font-family="Times New Roman"><tspan y="-386.09" x="244.61 251.57384 255.42079 259.36604 265.48747 272.54957 276.49479 280.0048 287.64256 297.00724 303.95704 311.01914 317.98298 324.1044 331.77027 338.83238 345.06614 351.2999 357.53367 364.55366 370.7874 377.70915 381.65437 389.32023 393.16719 399.40095 406.47709 413.44093 419.67469 423.52165 427.46687 433.70063 438.37596 446.05586">qiladi. Bunda bazadagi jadvallar o</tspan></text>
</g>
</g>
<g id="Layer-1" data-name="P">
<clipPath id="cp28076">
<path transform="matrix(1,0,0,-1,0,841.92)" d="M .000008871 0 L 595.32 0 L 595.32 841.92 L .000008871 841.92 Z " fill-rule="evenodd"/>
</clipPath>
<g clip-path="url(#cp28076)">
<text xml:space="preserve" transform="matrix(1 0 -0 1 0 841.92)" font-size="14.04" font-family="Times New Roman"><tspan y="-386.09" x="453.34">&#x2019;</tspan></text>
</g>
</g>
<g id="Layer-1" data-name="P">
<clipPath id="cp28077">
<path transform="matrix(1,0,0,-1,0,841.92)" d="M .000008871 0 L 595.32 0 L 595.32 841.92 L .000008871 841.92 Z " fill-rule="evenodd"/>
</clipPath>
<g clip-path="url(#cp28077)">
<text xml:space="preserve" transform="matrix(1 0 -0 1 0 841.92)" font-size="14.04" font-family="Times New Roman"><tspan y="-386.09" x="457.9 464.13377 471.2099 477.44367 482.00666 485.95188 491.35728 498.41938 503.82478 507.77 514.0037 521.66958 528.6334 535.5973 539.54257 545.7763 552.7402 556.58718 559.94277">zgarishsiz qoladi. </tspan></text>
</g>
</g>
<g id="Layer-1" data-name="P">
<clipPath id="cp28078">
<path transform="matrix(1,0,0,-1,0,841.92)" d="M .000008871 0 L 595.32 0 L 595.32 841.92 L .000008871 841.92 Z " fill-rule="evenodd"/>
</clipPath>
<g clip-path="url(#cp28078)">
<text xml:space="preserve" transform="matrix(1 0 -0 1 0 841.92)" font-size="14.04" font-family="Times New Roman"><tspan y="-361.97" x="85.104 92.91024 99.97236 106.936199 113.90003 120.96215 127.19591 136.78522 143.74906 149.98282 154.65814 160.8919 171.5904 177.82416 183.34189 190.404 196.52545 203.48929 213.0786 225.56017 234.92485 241.98697 245.9322 255.52152 262.35899 268.59275 273.26808 279.50184 283.36283 290.42494 297.48704 303.60847 310.5723 314.51753 318.36448 324.4859 329.16123 333.10646 342.69578 349.75788 355.8793 362.84315 369.90525 376.96736 386.43034 391.934">Shunga qaramasdan MBni yaratuvchilari uchun so</tspan></text>
</g>
</g>
<g id="Layer-1" data-name="P">
<clipPath id="cp28079">
<path transform="matrix(1,0,0,-1,0,841.92)" d="M .000008871 0 L 595.32 0 L 595.32 841.92 L .000008871 841.92 Z " fill-rule="evenodd"/>
</clipPath>
<g clip-path="url(#cp28079)">
<text xml:space="preserve" transform="matrix(1 0 -0 1 0 841.92)" font-size="14.04" font-family="Times New Roman"><tspan y="-361.97" x="399.31">&#x2019;</tspan></text>
</g>
</g>
<g id="Layer-1" data-name="P">
<clipPath id="cp28080">
<path transform="matrix(1,0,0,-1,0,841.92)" d="M .000008871 0 L 595.32 0 L 595.32 841.92 L .000008871 841.92 Z " fill-rule="evenodd"/>
</clipPath>
<g clip-path="url(#cp28080)">
<text xml:space="preserve" transform="matrix(1 0 -0 1 0 841.92)" font-size="14.04" font-family="Times New Roman"><tspan y="-361.97" x="403.87 408.54533 415.50917 422.57127 426.4182 432.65199 437.3273 444.30519 448.2504 455.21424 462.27635 471.86567 482.5501 488.78388 495.86003 501.36369 508.3275 513.8312 523.42056 530.3844 537.44656 542.1218 549.0857 556.04959 559.89657">rovlarning maxsus guruhi </tspan></text>
</g>
</g>
<g id="Layer-1" data-name="P">
<clipPath id="cp28081">
<path transform="matrix(1,0,0,-1,0,841.92)" d="M .000008871 0 L 595.32 0 L 595.32 841.92 L .000008871 841.92 Z " fill-rule="evenodd"/>
</clipPath>
<g clip-path="url(#cp28081)">
<text xml:space="preserve" transform="matrix(1 0 -0 1 0 841.92)" font-size="14.04" font-family="Times New Roman"><tspan y="-337.73" x="85.104 95.90076 102.134517 109.21067 113.05763 120.11975 127.08359 134.1457 138.09095 141.60094 145.88314 152.84697 156.7922 163.02597 167.7013 172.01157">mavjudki, ular o</tspan></text>
</g>
</g>
<g id="Layer-1" data-name="P">
<clipPath id="cp28082">
<path transform="matrix(1,0,0,-1,0,841.92)" d="M .000008871 0 L 595.32 0 L 595.32 841.92 L .000008871 841.92 Z " fill-rule="evenodd"/>
</clipPath>
<g clip-path="url(#cp28082)">
<text xml:space="preserve" transform="matrix(1 0 -0 1 0 841.92)" font-size="14.04" font-family="Times New Roman"><tspan y="-337.73" x="179.18">&#x2019;</tspan></text>
</g>
</g>
<g id="Layer-1" data-name="P">
<clipPath id="cp28083">
<path transform="matrix(1,0,0,-1,0,841.92)" d="M .000008871 0 L 595.32 0 L 595.32 841.92 L .000008871 841.92 Z " fill-rule="evenodd"/>
</clipPath>
<g clip-path="url(#cp28083)">
<text xml:space="preserve" transform="matrix(1 0 -0 1 0 841.92)" font-size="14.04" font-family="Times New Roman"><tspan y="-337.73" x="183.74 189.97377 197.04994 203.17139 207.73439 211.67963 215.62487 220.18787 224.1331 229.5385 236.60062 240.91089 246.31629">zgartirish so</tspan></text>
</g>
</g>
<g id="Layer-1" data-name="P">
<clipPath id="cp28084">
<path transform="matrix(1,0,0,-1,0,841.92)" d="M .000008871 0 L 595.32 0 L 595.32 841.92 L .000008871 841.92 Z " fill-rule="evenodd"/>
</clipPath>
<g clip-path="url(#cp28084)">
<text xml:space="preserve" transform="matrix(1 0 -0 1 0 841.92)" font-size="14.04" font-family="Times New Roman"><tspan y="-337.73" x="253.49">&#x2019;</tspan></text>
</g>
</g>
<g id="Layer-1" data-name="P">
<clipPath id="cp28085">
<path transform="matrix(1,0,0,-1,0,841.92)" d="M .000008871 0 L 595.32 0 L 595.32 841.92 L .000008871 841.92 Z " fill-rule="evenodd"/>
</clipPath>
<g clip-path="url(#cp28085)">
<text xml:space="preserve" transform="matrix(1 0 -0 1 0 841.92)" font-size="14.04" font-family="Times New Roman"><tspan y="-337.73" x="258.05 262.7253 269.80146 276.7653 280.7105 286.94429 291.50727 295.45249 299.7628 306.8249 313.05867 319.91017 323.85539 327.70234 333.9361 341.01225 344.95747 348.46748 352.74967">rovlari deyiladi. O</tspan></text>
</g>
</g>
<g id="Layer-1" data-name="P">
<clipPath id="cp28086">
<path transform="matrix(1,0,0,-1,0,841.92)" d="M .000008871 0 L 595.32 0 L 595.32 841.92 L .000008871 841.92 Z " fill-rule="evenodd"/>
</clipPath>
<g clip-path="url(#cp28086)">
<text xml:space="preserve" transform="matrix(1 0 -0 1 0 841.92)" font-size="14.04" font-family="Times New Roman"><tspan y="-337.73" x="362.95">&#x2019;</tspan></text>
</g>
</g>
<g id="Layer-1" data-name="P">
<clipPath id="cp28087">
<path transform="matrix(1,0,0,-1,0,841.92)" d="M .000008871 0 L 595.32 0 L 595.32 841.92 L .000008871 841.92 Z " fill-rule="evenodd"/>
</clipPath>
<g clip-path="url(#cp28087)">
<text xml:space="preserve" transform="matrix(1 0 -0 1 0 841.92)" font-size="14.04" font-family="Times New Roman"><tspan y="-337.73" x="367.51 373.74378 380.81993 387.05369 391.729 395.57597 399.52119 404.08418 408.0294 413.43479 420.4969 424.8072 430.2126">zgartirish so</tspan></text>
</g>
</g>
<g id="Layer-1" data-name="P">
<clipPath id="cp28088">
<path transform="matrix(1,0,0,-1,0,841.92)" d="M .000008871 0 L 595.32 0 L 595.32 841.92 L .000008871 841.92 Z " fill-rule="evenodd"/>
</clipPath>
<g clip-path="url(#cp28088)">
<text xml:space="preserve" transform="matrix(1 0 -0 1 0 841.92)" font-size="14.04" font-family="Times New Roman"><tspan y="-337.73" x="437.35">&#x2019;</tspan></text>
</g>
</g>
<g id="Layer-1" data-name="P">
<clipPath id="cp28089">
<path transform="matrix(1,0,0,-1,0,841.92)" d="M .000008871 0 L 595.32 0 L 595.32 841.92 L .000008871 841.92 Z " fill-rule="evenodd"/>
</clipPath>
<g clip-path="url(#cp28089)">
<text xml:space="preserve" transform="matrix(1 0 -0 1 0 841.92)" font-size="14.04" font-family="Times New Roman"><tspan y="-337.73" x="441.94 446.61534 453.69148 460.6553 464.60054 470.8343 475.39729 479.3425">rovlari </tspan></text>
</g>
</g>
<g id="Layer-1" data-name="P">
<clipPath id="cp28090">
<path transform="matrix(1,0,0,-1,0,841.92)" d="M .000008871 0 L 595.32 0 L 595.32 841.92 L .000008871 841.92 Z " fill-rule="evenodd"/>
</clipPath>
<g clip-path="url(#cp28090)">
<text xml:space="preserve" transform="matrix(1 0 -0 1 0 841.92)" font-size="14.04" font-family="Times New Roman"><tspan y="-337.73" x="483.7">&#x2014;</tspan></text>
</g>
</g>
<g id="Layer-1" data-name="P">
<clipPath id="cp28091">
<path transform="matrix(1,0,0,-1,0,841.92)" d="M .000008871 0 L 595.32 0 L 595.32 841.92 L .000008871 841.92 Z " fill-rule="evenodd"/>
</clipPath>
<g clip-path="url(#cp28091)">
<text xml:space="preserve" transform="matrix(1 0 -0 1 0 841.92)" font-size="14.04" font-family="Times New Roman"><tspan y="-337.73" x="497.74"> </tspan></text>
</g>
</g>
<g id="Layer-1" data-name="P">
<clipPath id="cp28092">
<path transform="matrix(1,0,0,-1,0,841.92)" d="M .000008871 0 L 595.32 0 L 595.32 841.92 L .000008871 841.92 Z " fill-rule="evenodd"/>
</clipPath>
<g clip-path="url(#cp28092)">
<text xml:space="preserve" transform="matrix(1 0 -0 1 0 841.92)" font-size="14.04" font-family="Times New Roman"><tspan y="-337.73" x="502.06 509.1221 513.0673 517.7426 522.0529 528.2867 538.97109 545.20486 549.1501 556.11398 559.96096">bir amalni </tspan></text>
</g>
</g>
<g id="Layer-1" data-name="P">
<clipPath id="cp28093">
<path transform="matrix(1,0,0,-1,0,841.92)" d="M .000008871 0 L 595.32 0 L 595.32 841.92 L .000008871 841.92 Z " fill-rule="evenodd"/>
</clipPath>
<g clip-path="url(#cp28093)">
<text xml:space="preserve" transform="matrix(1 0 -0 1 0 841.92)" font-size="14.04" font-family="Times New Roman"><tspan y="-313.61" x="85.104 92.166118 98.39987 102.24683 108.48059 113.155918 117.00288 122.40828 129.4704 133.30332 140.36544 144.21239 148.15763 154.27907 161.34119 165.1741 172.23622 176.08318 180.7585 184.59142 191.65354 197.8873 204.00875 211.07086 215.0161 221.24987 225.08278 230.48818">bajarish bilan bir nechta so</tspan></text>
</g>
</g>
<g id="Layer-1" data-name="P">
<clipPath id="cp28094">
<path transform="matrix(1,0,0,-1,0,841.92)" d="M .000008871 0 L 595.32 0 L 595.32 841.92 L .000008871 841.92 Z " fill-rule="evenodd"/>
</clipPath>
<g clip-path="url(#cp28094)">
<text xml:space="preserve" transform="matrix(1 0 -0 1 0 841.92)" font-size="14.04" font-family="Times New Roman"><tspan y="-313.61" x="237.77">&#x2019;</tspan></text>
</g>
</g>
<g id="Layer-1" data-name="P">
<clipPath id="cp28095">
<path transform="matrix(1,0,0,-1,0,841.92)" d="M .000008871 0 L 595.32 0 L 595.32 841.92 L .000008871 841.92 Z " fill-rule="evenodd"/>
</clipPath>
<g clip-path="url(#cp28095)">
<text xml:space="preserve" transform="matrix(1 0 -0 1 0 841.92)" font-size="14.04" font-family="Times New Roman"><tspan y="-313.61" x="242.33 247.00533 253.96916 261.03129 264.87825 271.112 275.78733 282.7652 288.99897 292.83189">rovlarga o</tspan></text>
</g>
</g>
<g id="Layer-1" data-name="P">
<clipPath id="cp28096">
<path transform="matrix(1,0,0,-1,0,841.92)" d="M .000008871 0 L 595.32 0 L 595.32 841.92 L .000008871 841.92 Z " fill-rule="evenodd"/>
</clipPath>
<g clip-path="url(#cp28096)">
<text xml:space="preserve" transform="matrix(1 0 -0 1 0 841.92)" font-size="14.04" font-family="Times New Roman"><tspan y="-313.61" x="299.93">&#x2019;</tspan></text>
</g>
</g>
<g id="Layer-1" data-name="P">
<clipPath id="cp28097">
<path transform="matrix(1,0,0,-1,0,841.92)" d="M .000008871 0 L 595.32 0 L 595.32 841.92 L .000008871 841.92 Z " fill-rule="evenodd"/>
</clipPath>
<g clip-path="url(#cp28097)">
<text xml:space="preserve" transform="matrix(1 0 -0 1 0 841.92)" font-size="14.04" font-family="Times New Roman"><tspan y="-313.61" x="304.49 310.72377 317.7999 323.92134 328.59666 332.54188 336.4871 341.05009 344.89704 350.4007 357.4628 361.29573 368.25956 372.20478 376.76777 380.71299 384.6582 390.77964 397.74348 401.6887 408.65254 414.8863 421.96244 425.79536 431.20075">zgartirish kiritadigan so</tspan></text>
</g>
</g>
<g id="Layer-1" data-name="P">
<clipPath id="cp28098">
<path transform="matrix(1,0,0,-1,0,841.92)" d="M .000008871 0 L 595.32 0 L 595.32 841.92 L .000008871 841.92 Z " fill-rule="evenodd"/>
</clipPath>
<g clip-path="url(#cp28098)">
<text xml:space="preserve" transform="matrix(1 0 -0 1 0 841.92)" font-size="14.04" font-family="Times New Roman"><tspan y="-313.61" x="438.43">&#x2019;</tspan></text>
</g>
</g>
<g id="Layer-1" data-name="P">
<clipPath id="cp28099">
<path transform="matrix(1,0,0,-1,0,841.92)" d="M .000008871 0 L 595.32 0 L 595.32 841.92 L .000008871 841.92 Z " fill-rule="evenodd"/>
</clipPath>
<g clip-path="url(#cp28099)">
<text xml:space="preserve" transform="matrix(1 0 -0 1 0 841.92)" font-size="14.04" font-family="Times New Roman"><tspan y="-313.61" x="443.02 447.6953 454.77146 461.7353 465.6805 471.91429 476.47727 483.4411 487.38633 492.06166 495.57167 499.3765 509.4572 513.40249 519.6362 524.3115 531.2894 535.1364 542.19857 549.2607 552.9672 559.9311">rovlardir. Ularning 4 </tspan></text>
</g>
</g>
<g id="Layer-1" data-name="P">
<clipPath id="cp28100">
<path transform="matrix(1,0,0,-1,0,841.92)" d="M .000008871 0 L 595.32 0 L 595.32 841.92 L .000008871 841.92 Z " fill-rule="evenodd"/>
</clipPath>
<g clip-path="url(#cp28100)">
<text xml:space="preserve" transform="matrix(1 0 -0 1 0 841.92)" font-size="14.04" font-family="Times New Roman"><tspan y="-289.49" x="85.104 89.04924 96.11136 100.67436 104.619609 115.64101 126.32545 132.5592 139.63538 143.48233 150.54445 157.50829 161.45352">turi mavjud: </tspan></text>
</g>
</g>
<g id="Layer-1" data-name="P">
<clipPath id="cp28101">
<path transform="matrix(1,0,0,-1,0,841.92)" d="M .000008871 0 L 595.32 0 L 595.32 841.92 L .000008871 841.92 Z " fill-rule="evenodd"/>
</clipPath>
<g clip-path="url(#cp28101)">
<text xml:space="preserve" transform="matrix(1 0 -0 1 0 841.92)" font-size="14.04" font-family="Times New Roman,Bold" font-weight="bold"><tspan y="-289.49" x="172.58 179.54001">yo</tspan></text>
</g>
</g>
<g id="Layer-1" data-name="P">
<clipPath id="cp28102">
<path transform="matrix(1,0,0,-1,0,841.92)" d="M .000008871 0 L 595.32 0 L 595.32 841.92 L .000008871 841.92 Z " fill-rule="evenodd"/>
</clipPath>
<g clip-path="url(#cp28102)">
<text xml:space="preserve" transform="matrix(1 0 -0 1 0 841.92)" font-size="14.04" font-family="Times New Roman,Bold" font-weight="bold"><tspan y="-289.49" x="186.62">&#x2019;</tspan></text>
</g>
</g>
<g id="Layer-1" data-name="P">
<clipPath id="cp28103">
<path transform="matrix(1,0,0,-1,0,841.92)" d="M .000008871 0 L 595.32 0 L 595.32 841.92 L .000008871 841.92 Z " fill-rule="evenodd"/>
</clipPath>
<g clip-path="url(#cp28103)">
<text xml:space="preserve" transform="matrix(1 0 -0 1 0 841.92)" font-size="14.04" font-family="Times New Roman,Bold" font-weight="bold"><tspan y="-289.49" x="191.33 199.00989 205.97373 210.64905 214.59429 220.09796 227.9042 231.4142 242.28116 249.245 256.3071 264.11335 271.06315 274.9101 278.85533 285.81916 291.3228 299.12907 302.63908 313.6324 320.59623 327.56007 333.79383 341.60008 348.5639 352.50914 359.57124 365.805 376.71409 384.52033">qotish, yangilash, yozuvlar qo</tspan></text>
</g>
</g>
<g id="Layer-1" data-name="P">
<clipPath id="cp28104">
<path transform="matrix(1,0,0,-1,0,841.92)" d="M .000008871 0 L 595.32 0 L 595.32 841.92 L .000008871 841.92 Z " fill-rule="evenodd"/>
</clipPath>
<g clip-path="url(#cp28104)">
<text xml:space="preserve" transform="matrix(1 0 -0 1 0 841.92)" font-size="14.04" font-family="Times New Roman,Bold" font-weight="bold"><tspan y="-289.49" x="391.75">&#x2019;</tspan></text>
</g>
</g>
<g id="Layer-1" data-name="P">
<clipPath id="cp28105">
<path transform="matrix(1,0,0,-1,0,841.92)" d="M .000008871 0 L 595.32 0 L 595.32 841.92 L .000008871 841.92 Z " fill-rule="evenodd"/>
</clipPath>
<g clip-path="url(#cp28105)">
<text xml:space="preserve" transform="matrix(1 0 -0 1 0 841.92)" font-size="14.04" font-family="Times New Roman,Bold" font-weight="bold"><tspan y="-289.49" x="396.31 401.81367 409.49354 413.43876 418.9424 426.74867 437.6437 444.60755 451.66966 462.69108 467.3664 474.33024 482.13648 489.08628 496.0501 499.99534 511.01676 517.9806 525.0427 531.1642 538.2263 542.9016 546.7486 552.154 559.83389">shish va jadval yaratish </tspan></text>
</g>
</g>
<g id="Layer-1" data-name="P">
<clipPath id="cp28106">
<path transform="matrix(1,0,0,-1,0,841.92)" d="M .000008871 0 L 595.32 0 L 595.32 841.92 L .000008871 841.92 Z " fill-rule="evenodd"/>
</clipPath>
<g clip-path="url(#cp28106)">
<text xml:space="preserve" transform="matrix(1 0 -0 1 0 841.92)" font-size="14.04" font-family="Times New Roman,Bold" font-weight="bold"><tspan y="-265.37" x="85.104 90.623958">so</tspan></text>
</g>
</g>
<g id="Layer-1" data-name="P">
<clipPath id="cp28107">
<path transform="matrix(1,0,0,-1,0,841.92)" d="M .000008871 0 L 595.32 0 L 595.32 841.92 L .000008871 841.92 Z " fill-rule="evenodd"/>
</clipPath>
<g clip-path="url(#cp28107)">
<text xml:space="preserve" transform="matrix(1 0 -0 1 0 841.92)" font-size="14.04" font-family="Times New Roman,Bold" font-weight="bold"><tspan y="-265.37" x="97.704">&#x2019;</tspan></text>
</g>
</g>
<g id="Layer-1" data-name="P">
<clipPath id="cp28108">
<path transform="matrix(1,0,0,-1,0,841.92)" d="M .000008871 0 L 595.32 0 L 595.32 841.92 L .000008871 841.92 Z " fill-rule="evenodd"/>
</clipPath>
<g clip-path="url(#cp28108)">
<text xml:space="preserve" transform="matrix(1 0 -0 1 0 841.92)" font-size="14.04" font-family="Times New Roman,Bold" font-weight="bold"><tspan y="-265.37" x="102.26 108.49376 115.457599 122.42143 126.36668 133.42879 139.55023">rovlari</tspan></text>
</g>
</g>
<g id="Layer-1" data-name="P">
<clipPath id="cp28109">
<path transform="matrix(1,0,0,-1,0,841.92)" d="M .000008871 0 L 595.32 0 L 595.32 841.92 L .000008871 841.92 Z " fill-rule="evenodd"/>
</clipPath>
<g clip-path="url(#cp28109)">
<text xml:space="preserve" transform="matrix(1 0 -0 1 0 841.92)" font-size="14.04" font-family="Times New Roman"><tspan y="-265.37" x="143.54">.</tspan></text>
</g>
</g>
<g id="Layer-1" data-name="P">
<clipPath id="cp28110">
<path transform="matrix(1,0,0,-1,0,841.92)" d="M .000008871 0 L 595.32 0 L 595.32 841.92 L .000008871 841.92 Z " fill-rule="evenodd"/>
</clipPath>
<g clip-path="url(#cp28110)">
<text xml:space="preserve" transform="matrix(1 0 -0 1 0 841.92)" font-size="14.04" font-family="Times New Roman"><tspan y="-265.37" x="146.9"> </tspan></text>
</g>
</g>
<g id="Layer-1" data-name="P">
<clipPath id="cp28111">
<path transform="matrix(1,0,0,-1,0,841.92)" d="M .000008871 0 L 595.32 0 L 595.32 841.92 L .000008871 841.92 Z " fill-rule="evenodd"/>
</clipPath>
<g clip-path="url(#cp28111)">
<text xml:space="preserve" transform="matrix(1 0 -0 1 0 841.92)" font-size="14.04" font-family="Times New Roman,Italic" font-style="italic"><tspan y="-241.13" x="120.5 128.30625 135.36837 139.93137 146.99349 153.95732 157.90256 161.74951 167.1549 174.21703 184.76107 190.16646 197.22858 201.79158 207.29526 214.2591 220.49286 224.33982 231.40193 236.80733">Yo&#x2019;qotish so&#x2019;rovlari</tspan></text>
</g>
<clipPath id="cp28112">
<path transform="matrix(1,0,0,-1,0,841.92)" d="M .000008871 0 L 595.32 0 L 595.32 841.92 L .000008871 841.92 Z " fill-rule="evenodd"/>
</clipPath>
<g clip-path="url(#cp28112)">
<text xml:space="preserve" transform="matrix(1 0 -0 1 0 841.92)" font-size="14.04" font-family="Times New Roman"><tspan y="-241.13" x="240.77 244.28 254.79596">. B</tspan></text>
</g>
<clipPath id="cp28113">
<path transform="matrix(1,0,0,-1,0,841.92)" d="M .000008871 0 L 595.32 0 L 595.32 841.92 L .000008871 841.92 Z " fill-rule="evenodd"/>
</clipPath>
<g clip-path="url(#cp28113)">
<text xml:space="preserve" transform="matrix(1 0 -0 1 0 841.92)" font-size="14.04" font-family="Times New Roman"><tspan y="-241.13" x="264.17 268.11524 272.79057 283.3346 290.17207 297.23417 304.29627 308.2415 318.67323 325.63706 329.58229 334.2576 344.80165 351.76548 357.8869 364.12068 371.1968 377.43058 387.98866 391.8356 397.95704 405.01914 412.08125 418.20268 422.04963 429.11174 435.23316 442.29527 452.8393 459.67677 466.73887 472.97264 479.93647 486.99858 490.9438 497.06523 501.74055 512.2846 519.2485 526.3106 530.8736 537.9357 544.8996 548.7466 555.8087 559.6557">ir yoki bir necha jadvaldan yozuvlar guruhini </tspan></text>
</g>
<clipPath id="cp28114">
<path transform="matrix(1,0,0,-1,0,841.92)" d="M .000008871 0 L 595.32 0 L 595.32 841.92 L .000008871 841.92 Z " fill-rule="evenodd"/>
</clipPath>
<g clip-path="url(#cp28114)">
<text xml:space="preserve" transform="matrix(1 0 -0 1 0 841.92)" font-size="14.04" font-family="Times New Roman"><tspan y="-216.98" x="85.104 91.944">yo</tspan></text>
</g>
<clipPath id="cp28115">
<path transform="matrix(1,0,0,-1,0,841.92)" d="M .000008871 0 L 595.32 0 L 595.32 841.92 L .000008871 841.92 Z " fill-rule="evenodd"/>
</clipPath>
<g clip-path="url(#cp28115)">
<text xml:space="preserve" transform="matrix(1 0 -0 1 0 841.92)" font-size="14.04" font-family="Times New Roman"><tspan y="-216.98" x="99.144">&#x2019;</tspan></text>
</g>
<clipPath id="cp28116">
<path transform="matrix(1,0,0,-1,0,841.92)" d="M .000008871 0 L 595.32 0 L 595.32 841.92 L .000008871 841.92 Z " fill-rule="evenodd"/>
</clipPath>
<g clip-path="url(#cp28116)">
<text xml:space="preserve" transform="matrix(1 0 -0 1 0 841.92)" font-size="14.04" font-family="Times New Roman"><tspan y="-216.98" x="103.7 110.762119 117.824237 121.671199 127.90495 134.86879 138.81403 142.32402 151.28154 161.36226">qotadi. Yo</tspan></text>
</g>
<clipPath id="cp28117">
<path transform="matrix(1,0,0,-1,0,841.92)" d="M .000008871 0 L 595.32 0 L 595.32 841.92 L .000008871 841.92 Z " fill-rule="evenodd"/>
</clipPath>
<g clip-path="url(#cp28117)">
<text xml:space="preserve" transform="matrix(1 0 -0 1 0 841.92)" font-size="14.04" font-family="Times New Roman"><tspan y="-216.98" x="168.5">&#x2019;</tspan></text>
</g>
<clipPath id="cp28118">
<path transform="matrix(1,0,0,-1,0,841.92)" d="M .000008871 0 L 595.32 0 L 595.32 841.92 L .000008871 841.92 Z " fill-rule="evenodd"/>
</clipPath>
<g clip-path="url(#cp28118)">
<text xml:space="preserve" transform="matrix(1 0 -0 1 0 841.92)" font-size="14.04" font-family="Times New Roman"><tspan y="-216.98" x="173.06 180.02384 187.08596 190.9329 194.77986 200.28354 207.24738 216.23297 221.63837">qotish so</tspan></text>
</g>
<clipPath id="cp28119">
<path transform="matrix(1,0,0,-1,0,841.92)" d="M .000008871 0 L 595.32 0 L 595.32 841.92 L .000008871 841.92 Z " fill-rule="evenodd"/>
</clipPath>
<g clip-path="url(#cp28119)">
<text xml:space="preserve" transform="matrix(1 0 -0 1 0 841.92)" font-size="14.04" font-family="Times New Roman"><tspan y="-216.98" x="228.77">&#x2019;</tspan></text>
</g>
<clipPath id="cp28120">
<path transform="matrix(1,0,0,-1,0,841.92)" d="M .000008871 0 L 595.32 0 L 595.32 841.92 L .000008871 841.92 Z " fill-rule="evenodd"/>
</clipPath>
<g clip-path="url(#cp28120)">
<text xml:space="preserve" transform="matrix(1 0 -0 1 0 841.92)" font-size="14.04" font-family="Times New Roman"><tspan y="-216.98" x="233.33 238.00533 245.0815 252.04534 255.99057 262.22434 266.78733 270.73255 279.5918 286.6539 291.32923 298.29307 304.52684 308.37379 312.319 321.3046 328.14207 335.20417 341.3256 348.3877 355.35154 362.41365 366.2606 375.2462 379.09315">rovlari orqali yozuvni to</tspan></text>
</g>
<clipPath id="cp28121">
<path transform="matrix(1,0,0,-1,0,841.92)" d="M .000008871 0 L 595.32 0 L 595.32 841.92 L .000008871 841.92 Z " fill-rule="evenodd"/>
</clipPath>
<g clip-path="url(#cp28121)">
<text xml:space="preserve" transform="matrix(1 0 -0 1 0 841.92)" font-size="14.04" font-family="Times New Roman"><tspan y="-216.98" x="386.35">&#x2019;</tspan></text>
</g>
<clipPath id="cp28122">
<path transform="matrix(1,0,0,-1,0,841.92)" d="M .000008871 0 L 595.32 0 L 595.32 841.92 L .000008871 841.92 Z " fill-rule="evenodd"/>
</clipPath>
<g clip-path="url(#cp28122)">
<text xml:space="preserve" transform="matrix(1 0 -0 1 0 841.92)" font-size="14.04" font-family="Times New Roman"><tspan y="-216.98" x="390.91 394.85523 400.97666 404.92189 408.76884">lalig</tspan></text>
</g>
<clipPath id="cp28123">
<path transform="matrix(1,0,0,-1,0,841.92)" d="M .000008871 0 L 595.32 0 L 595.32 841.92 L .000008871 841.92 Z " fill-rule="evenodd"/>
</clipPath>
<g clip-path="url(#cp28123)">
<text xml:space="preserve" transform="matrix(1 0 -0 1 0 841.92)" font-size="14.04" font-family="Times New Roman"><tspan y="-216.98" x="415.87 419.71696 425.9507 433.02687 439.1483 448.00755 454.845">icha yo</tspan></text>
</g>
<clipPath id="cp28124">
<path transform="matrix(1,0,0,-1,0,841.92)" d="M .000008871 0 L 595.32 0 L 595.32 841.92 L .000008871 841.92 Z " fill-rule="evenodd"/>
</clipPath>
<g clip-path="url(#cp28124)">
<text xml:space="preserve" transform="matrix(1 0 -0 1 0 841.92)" font-size="14.04" font-family="Times New Roman"><tspan y="-216.98" x="462.1">&#x2019;</tspan></text>
</g>
<clipPath id="cp28125">
<path transform="matrix(1,0,0,-1,0,841.92)" d="M .000008871 0 L 595.32 0 L 595.32 841.92 L .000008871 841.92 Z " fill-rule="evenodd"/>
</clipPath>
<g clip-path="url(#cp28125)">
<text xml:space="preserve" transform="matrix(1 0 -0 1 0 841.92)" font-size="14.04" font-family="Times New Roman"><tspan y="-216.98" x="466.66 473.7221 480.7842 484.63117 488.47813 493.98179 500.94563 509.9312 520.6156 527.8041 538.48849 545.5506 549.49588 556.558 559.9136">qotish mumkin. </tspan></text>
</g>
<clipPath id="cp28126">
<path transform="matrix(1,0,0,-1,0,841.92)" d="M .000008871 0 L 595.32 0 L 595.32 841.92 L .000008871 841.92 Z " fill-rule="evenodd"/>
</clipPath>
<g clip-path="url(#cp28126)">
<text xml:space="preserve" transform="matrix(1 0 -0 1 0 841.92)" font-size="14.04" font-family="Times New Roman"><tspan y="-192.86" x="85.104 95.184719 102.24683 106.093799 113.155918 120.21803 123.57359 127.51884 133.64028 140.7024 144.54935 151.61147 157.73291 164.79503 168.74027 172.25026 178.48403 185.29343 189.96875 193.91399 204.71076 208.22075 212.02559 218.25936 225.33553 232.39765 238.51909 242.46433 246.31128 252.54505 257.22038 264.19825 268.14347 271.65348 277.74684 281.69206 288.65589 295.718 299.56495 306.62705 312.8608 316.37083 323.1802">Uning ichidagi ayrim jadvallarni alohida yo</tspan></text>
</g>
<clipPath id="cp28127">
<path transform="matrix(1,0,0,-1,0,841.92)" d="M .000008871 0 L 595.32 0 L 595.32 841.92 L .000008871 841.92 Z " fill-rule="evenodd"/>
</clipPath>
<g clip-path="url(#cp28127)">
<text xml:space="preserve" transform="matrix(1 0 -0 1 0 841.92)" font-size="14.04" font-family="Times New Roman"><tspan y="-192.86" x="330.55">&#x2019;</tspan></text>
</g>
<clipPath id="cp28128">
<path transform="matrix(1,0,0,-1,0,841.92)" d="M .000008871 0 L 595.32 0 L 595.32 841.92 L .000008871 841.92 Z " fill-rule="evenodd"/>
</clipPath>
<g clip-path="url(#cp28128)">
<text xml:space="preserve" transform="matrix(1 0 -0 1 0 841.92)" font-size="14.04" font-family="Times New Roman"><tspan y="-192.86" x="335.11 342.1721 349.13594 353.08116 356.9281 363.9902 367.5002 374.43598">qotib bo</tspan></text>
</g>
<clipPath id="cp28129">
<path transform="matrix(1,0,0,-1,0,841.92)" d="M .000008871 0 L 595.32 0 L 595.32 841.92 L .000008871 841.92 Z " fill-rule="evenodd"/>
</clipPath>
<g clip-path="url(#cp28129)">
<text xml:space="preserve" transform="matrix(1 0 -0 1 0 841.92)" font-size="14.04" font-family="Times New Roman"><tspan y="-192.86" x="381.55">&#x2019;</tspan></text>
</g>
<clipPath id="cp28130">
<path transform="matrix(1,0,0,-1,0,841.92)" d="M .000008871 0 L 595.32 0 L 595.32 841.92 L .000008871 841.92 Z " fill-rule="evenodd"/>
</clipPath>
<g clip-path="url(#cp28130)">
<text xml:space="preserve" transform="matrix(1 0 -0 1 0 841.92)" font-size="14.04" font-family="Times New Roman"><tspan y="-192.86" x="386.11 390.0552 400.73966 407.08576 413.92323 420.98533 424.93055">lmaydi.</tspan></text>
</g>
<clipPath id="cp28131">
<path transform="matrix(1,0,0,-1,0,841.92)" d="M .000008871 0 L 595.32 0 L 595.32 841.92 L .000008871 841.92 Z " fill-rule="evenodd"/>
</clipPath>
<g clip-path="url(#cp28131)">
<text xml:space="preserve" transform="matrix(1 0 -0 1 0 841.92)" font-size="14.04" font-family="Times New Roman"><tspan y="-192.86" x="428.47"> </tspan></text>
</g>
</g>
<g id="Layer-1" data-name="P">
<clipPath id="cp28132">
<path transform="matrix(1,0,0,-1,0,841.92)" d="M .000008871 0 L 595.32 0 L 595.32 841.92 L .000008871 841.92 Z " fill-rule="evenodd"/>
</clipPath>
<g clip-path="url(#cp28132)">
<text xml:space="preserve" transform="matrix(1 0 -0 1 0 841.92)" font-size="14.04" font-family="Times New Roman,Italic" font-style="italic"><tspan y="-168.74" x="120.5 128.30625 135.36837 142.3322 149.29604 153.24127 157.08823 164.05207 169.55574 176.61786 185.96849 191.47217 198.436 203.11133 208.51673 215.57884 221.70029 225.64553 232.60936 238.11304">Yangilash so&#x2019;rovlari</tspan></text>
</g>
<clipPath id="cp28133">
<path transform="matrix(1,0,0,-1,0,841.92)" d="M .000008871 0 L 595.32 0 L 595.32 841.92 L .000008871 841.92 Z " fill-rule="evenodd"/>
</clipPath>
<g clip-path="url(#cp28133)">
<text xml:space="preserve" transform="matrix(1 0 -0 1 0 841.92)" font-size="14.04" font-family="Times New Roman"><tspan y="-168.74" x="242.09 245.59999 255.03487">. B</tspan></text>
</g>
<clipPath id="cp28134">
<path transform="matrix(1,0,0,-1,0,841.92)" d="M .000008871 0 L 595.32 0 L 595.32 841.92 L .000008871 841.92 Z " fill-rule="evenodd"/>
</clipPath>
<g clip-path="url(#cp28134)">
<text xml:space="preserve" transform="matrix(1 0 -0 1 0 841.92)" font-size="14.04" font-family="Times New Roman"><tspan y="-168.74" x="264.41 268.35523 273.03056 282.50758 289.34504 296.40715 303.46925 307.41447 316.7651 323.8272 327.77244 332.44776 341.7984 348.8605 355.09428 361.2157 368.2778 374.51158 383.9886 387.83555 394.0693 401.03315 408.09526 414.21669 418.1619 425.12574 431.3595 438.32334 442.26856 451.73155 458.569 465.6311 471.86488 478.8287 485.8908 489.83604 495.95747 500.63279 510.1098 517.07369 524.1358 528.6988 535.7609 542.7248 546.5718 553.53567 559.6571">ir yoki bir necha jadvaldagi yozuvlar guruhida </tspan></text>
</g>
<clipPath id="cp28135">
<path transform="matrix(1,0,0,-1,0,841.92)" d="M .000008871 0 L 595.32 0 L 595.32 841.92 L .000008871 841.92 Z " fill-rule="evenodd"/>
</clipPath>
<g clip-path="url(#cp28135)">
<text xml:space="preserve" transform="matrix(1 0 -0 1 0 841.92)" font-size="14.04" font-family="Times New Roman"><tspan y="-144.5" x="85.104 92.166118 102.850559 110.03903 120.72347 124.795078 131.75891 137.02391">umumiy o</tspan></text>
</g>
<clipPath id="cp28136">
<path transform="matrix(1,0,0,-1,0,841.92)" d="M .000008871 0 L 595.32 0 L 595.32 841.92 L .000008871 841.92 Z " fill-rule="evenodd"/>
</clipPath>
<g clip-path="url(#cp28136)">
<text xml:space="preserve" transform="matrix(1 0 -0 1 0 841.92)" font-size="14.04" font-family="Times New Roman"><tspan y="-144.5" x="144.14">&#x2019;</tspan></text>
</g>
<clipPath id="cp28137">
<path transform="matrix(1,0,0,-1,0,841.92)" d="M .000008871 0 L 595.32 0 L 595.32 841.92 L .000008871 841.92 Z " fill-rule="evenodd"/>
</clipPath>
<g clip-path="url(#cp28137)">
<text xml:space="preserve" transform="matrix(1 0 -0 1 0 841.92)" font-size="14.04" font-family="Times New Roman"><tspan y="-144.5" x="148.7 154.93376 162.00994 168.2437 172.91902 176.76598 180.71121 185.38654 189.23349 194.63889 201.701 205.54796 211.78173 216.45705 221.73609 228.7982 232.74344 237.30644 241.25168 245.19692 251.31836 258.2822 262.22743 265.73744 270.97438 281.05509 286.55876 293.52259 300.5847 307.6468 312.9118 318.3172">zgartirishlar kiritadi. Ushbu so</tspan></text>
</g>
<clipPath id="cp28138">
<path transform="matrix(1,0,0,-1,0,841.92)" d="M .000008871 0 L 595.32 0 L 595.32 841.92 L .000008871 841.92 Z " fill-rule="evenodd"/>
</clipPath>
<g clip-path="url(#cp28138)">
<text xml:space="preserve" transform="matrix(1 0 -0 1 0 841.92)" font-size="14.04" font-family="Times New Roman"><tspan y="-144.5" x="325.51">&#x2019;</tspan></text>
</g>
<clipPath id="cp28139">
<path transform="matrix(1,0,0,-1,0,841.92)" d="M .000008871 0 L 595.32 0 L 595.32 841.92 L .000008871 841.92 Z " fill-rule="evenodd"/>
</clipPath>
<g clip-path="url(#cp28139)">
<text xml:space="preserve" transform="matrix(1 0 -0 1 0 841.92)" font-size="14.04" font-family="Times New Roman"><tspan y="-144.5" x="330.07 334.74534 341.82148 348.88359 354.27494 364.95939 371.19316 378.2693 382.11625 389.17835 396.24046 401.50547 405.35243 411.58619 418.66233 425.62617 431.85993 435.70689 439.6521 445.77354 450.44886 457.525 463.64643 470.70854 474.65376 479.91877 490.6032">rov mavjud jadvallardagi ma</tspan></text>
</g>
<clipPath id="cp28140">
<path transform="matrix(1,0,0,-1,0,841.92)" d="M .000008871 0 L 595.32 0 L 595.32 841.92 L .000008871 841.92 Z " fill-rule="evenodd"/>
</clipPath>
<g clip-path="url(#cp28140)">
<text xml:space="preserve" transform="matrix(1 0 -0 1 0 841.92)" font-size="14.04" font-family="Times New Roman"><tspan y="-144.5" x="497.14">&#x2019;</tspan></text>
</g>
<clipPath id="cp28141">
<path transform="matrix(1,0,0,-1,0,841.92)" d="M .000008871 0 L 595.32 0 L 595.32 841.92 L .000008871 841.92 Z " fill-rule="evenodd"/>
</clipPath>
<g clip-path="url(#cp28141)">
<text xml:space="preserve" transform="matrix(1 0 -0 1 0 841.92)" font-size="14.04" font-family="Times New Roman"><tspan y="-144.5" x="501.7 505.64524 512.70736 523.3917 530.45388 534.3991 538.34439 544.5781 549.1411 556.105 559.95199">lumotlarni </tspan></text>
</g>
<clipPath id="cp28142">
<path transform="matrix(1,0,0,-1,0,841.92)" d="M .000008871 0 L 595.32 0 L 595.32 841.92 L .000008871 841.92 Z " fill-rule="evenodd"/>
</clipPath>
<g clip-path="url(#cp28142)">
<text xml:space="preserve" transform="matrix(1 0 -0 1 0 841.92)" font-size="14.04" font-family="Times New Roman"><tspan y="-120.38" x="85.104">o</tspan></text>
</g>
<clipPath id="cp28143">
<path transform="matrix(1,0,0,-1,0,841.92)" d="M .000008871 0 L 595.32 0 L 595.32 841.92 L .000008871 841.92 Z " fill-rule="evenodd"/>
</clipPath>
<g clip-path="url(#cp28143)">
<text xml:space="preserve" transform="matrix(1 0 -0 1 0 841.92)" font-size="14.04" font-family="Times New Roman"><tspan y="-120.38" x="92.184">&#x2019;</tspan></text>
</g>
<clipPath id="cp28144">
<path transform="matrix(1,0,0,-1,0,841.92)" d="M .000008871 0 L 595.32 0 L 595.32 841.92 L .000008871 841.92 Z " fill-rule="evenodd"/>
</clipPath>
<g clip-path="url(#cp28144)">
<text xml:space="preserve" transform="matrix(1 0 -0 1 0 841.92)" font-size="14.04" font-family="Times New Roman"><tspan y="-120.38" x="96.744 102.97776 110.05392 116.287677 120.85068 124.79592 128.74115 133.30416 137.15111 142.65479 149.7169 153.07247 157.0177 167.70215 174.76427 181.82639 188.8885 192.73546 199.6993">zgartirish imkonini</tspan></text>
</g>
<clipPath id="cp28145">
<path transform="matrix(1,0,0,-1,0,841.92)" d="M .000008871 0 L 595.32 0 L 595.32 841.92 L .000008871 841.92 Z " fill-rule="evenodd"/>
</clipPath>
<g clip-path="url(#cp28145)">
<text xml:space="preserve" transform="matrix(1 0 -0 1 0 841.92)" font-size="14.04" font-family="Times New Roman"><tspan y="-120.38" x="203.81"> </tspan></text>
</g>
<clipPath id="cp28146">
<path transform="matrix(1,0,0,-1,0,841.92)" d="M .000008871 0 L 595.32 0 L 595.32 841.92 L .000008871 841.92 Z " fill-rule="evenodd"/>
</clipPath>
<g clip-path="url(#cp28146)">
<text xml:space="preserve" transform="matrix(1 0 -0 1 0 841.92)" font-size="14.04" font-family="Times New Roman"><tspan y="-120.38" x="207.17 214.23212 220.46588 225.1412 231.27669 238.3388 242.28404">beradi.</tspan></text>
</g>
<clipPath id="cp28147">
<path transform="matrix(1,0,0,-1,0,841.92)" d="M .000008871 0 L 595.32 0 L 595.32 841.92 L .000008871 841.92 Z " fill-rule="evenodd"/>
</clipPath>
<g clip-path="url(#cp28147)">
<text xml:space="preserve" transform="matrix(1 0 -0 1 0 841.92)" font-size="14.04" font-family="Times New Roman"><tspan y="-120.38" x="245.69"> </tspan></text>
</g>
</g>
<g id="Layer-1" data-name="P">
<clipPath id="cp28148">
<path transform="matrix(1,0,0,-1,0,841.92)" d="M .000008871 0 L 595.32 0 L 595.32 841.92 L .000008871 841.92 Z " fill-rule="evenodd"/>
</clipPath>
<g clip-path="url(#cp28148)">
<text xml:space="preserve" transform="matrix(1 0 -0 1 0 841.92)" font-size="14.04" font-family="Times New Roman,Italic" font-style="italic"><tspan y="-96.264" x="120.5 128.30625 135.36837 140.77376 147.83588 153.95732 157.90256 164.8664 170.37007 176.23879 183.20262 190.26474 194.82775 200.33142 207.29526 211.14221 216.64589 223.70801 229.57672 234.98212 241.94596 246.62128 252.12496 259.0888 265.32258">Yozuvlar qo&#x2019;shish so&#x2019;rovi</tspan></text>
</g>
<clipPath id="cp28149">
<path transform="matrix(1,0,0,-1,0,841.92)" d="M .000008871 0 L 595.32 0 L 595.32 841.92 L .000008871 841.92 Z " fill-rule="evenodd"/>
</clipPath>
<g clip-path="url(#cp28149)">
<text xml:space="preserve" transform="matrix(1 0 -0 1 0 841.92)" font-size="14.04" font-family="Times New Roman"><tspan y="-96.264" x="269.45 272.96003 278.80067">. B</tspan></text>
</g>
<clipPath id="cp28150">
<path transform="matrix(1,0,0,-1,0,841.92)" d="M .000008871 0 L 595.32 0 L 595.32 841.92 L .000008871 841.92 Z " fill-rule="evenodd"/>
</clipPath>
<g clip-path="url(#cp28150)">
<text xml:space="preserve" transform="matrix(1 0 -0 1 0 841.92)" font-size="14.04" font-family="Times New Roman"><tspan y="-96.264" x="288.17 292.01698 296.6923 302.56105 309.3985 316.4606 323.5227 327.46794 333.33668 340.3005 344.24574 348.92106 354.7898 361.75364 367.9874 374.22117 381.2973 387.53108 393.3998 397.24678 403.48054 410.44438 417.50648 423.6279 427.57313 434.53697 440.77073 447.73457 451.67979 457.54853 464.386 471.4481 477.68186 484.758 491.72184 495.66706 501.90083 506.57615 512.3326 519.3947 526.45687 531.01986 537.9837 545.04586 548.8928 555.8567 559.7037">ir yoki bir necha jadvaldagi yozuvlar guruhini </tspan></text>
</g>
<clipPath id="cp28151">
<path transform="matrix(1,0,0,-1,0,841.92)" d="M .000008871 0 L 595.32 0 L 595.32 841.92 L .000008871 841.92 Z " fill-rule="evenodd"/>
</clipPath>
<g clip-path="url(#cp28151)">
<text xml:space="preserve" transform="matrix(1 0 -0 1 0 841.92)" font-size="14.04" font-family="Times New Roman"><tspan y="-72.144" x="85.104 92.166118 99.12995 104.535358 111.59747 118.65959 124.89335 128.26296 135.22679 139.17203 143.84735 147.35735 154.16675 161.22887 168.29099 172.23622 175.59178 182.6539 186.59914 191.27446 194.64406 201.6079 207.84166 214.07543 221.1516 227.38536 230.89536 234.71424 240.83568 247.8978 254.95992 261.08134 264.92829 271.9904 275.83735 282.80119 289.86329 293.3733 300.30906 307.37117 311.2181 315.89344 319.7404 326.8025 333.03627 336.54627 343.48204">boshqa bir yoki bir necha jadvalning oxiriga qo</tspan></text>
</g>
<clipPath id="cp28152">
<path transform="matrix(1,0,0,-1,0,841.92)" d="M .000008871 0 L 595.32 0 L 595.32 841.92 L .000008871 841.92 Z " fill-rule="evenodd"/>
</clipPath>
<g clip-path="url(#cp28152)">
<text xml:space="preserve" transform="matrix(1 0 -0 1 0 841.92)" font-size="14.04" font-family="Times New Roman"><tspan y="-72.144" x="350.83">&#x2019;</tspan></text>
</g>
<clipPath id="cp28153">
<path transform="matrix(1,0,0,-1,0,841.92)" d="M .000008871 0 L 595.32 0 L 595.32 841.92 L .000008871 841.92 Z " fill-rule="evenodd"/>
</clipPath>
<g clip-path="url(#cp28153)">
<text xml:space="preserve" transform="matrix(1 0 -0 1 0 841.92)" font-size="14.04" font-family="Times New Roman"><tspan y="-72.144" x="355.39 360.89369 367.8575 374.09129 381.0551 385.00035">shadi.</tspan></text>
</g>
<clipPath id="cp28154">
<path transform="matrix(1,0,0,-1,0,841.92)" d="M .000008871 0 L 595.32 0 L 595.32 841.92 L .000008871 841.92 Z " fill-rule="evenodd"/>
</clipPath>
<g clip-path="url(#cp28154)">
<text xml:space="preserve" transform="matrix(1 0 -0 1 0 841.92)" font-size="14.04" font-family="Times New Roman"><tspan y="-72.144" x="388.39"> </tspan></text>
</g>
</g>
</g>
</g>
</svg>
