<?xml version="1.0" encoding="UTF-8" standalone="no"?>
<!DOCTYPE svg PUBLIC "-//W3C//DTD SVG 1.1//EN" "http://www.w3.org/Graphics/SVG/1.1/DTD/svg11.dtd">
<svg xmlns="http://www.w3.org/2000/svg" xmlns:xlink="http://www.w3.org/1999/xlink" version="1.1" width="595.32pt" height="841.92pt" viewBox="0 0 595.32 841.92">
<g enable-background="new">
<g>
<g id="Layer-1" data-name="Artifact">
<clipPath id="cp29598">
<path transform="matrix(1,0,0,-1,0,841.92)" d="M .000008871 0 L 595.32 0 L 595.32 841.92 L .000008871 841.92 Z " fill-rule="evenodd"/>
</clipPath>
<g clip-path="url(#cp29598)">
<text xml:space="preserve" transform="matrix(1 0 -0 1 0 841.92)" font-size="11.04" font-family="Calibri"><tspan y="-51.864" x="314.09 319.72999 325.36997">179</tspan></text>
</g>
<clipPath id="cp29599">
<path transform="matrix(1,0,0,-1,0,841.92)" d="M .000008871 0 L 595.32 0 L 595.32 841.92 L .000008871 841.92 Z " fill-rule="evenodd"/>
</clipPath>
<g clip-path="url(#cp29599)">
<text xml:space="preserve" transform="matrix(1 0 -0 1 0 841.92)" font-size="11.04" font-family="Calibri"><tspan y="-51.864" x="331.03"> </tspan></text>
</g>
<clipPath id="cp29600">
<path transform="matrix(1,0,0,-1,0,841.92)" d="M .000008871 0 L 595.32 0 L 595.32 841.92 L .000008871 841.92 Z " fill-rule="evenodd"/>
</clipPath>
<g clip-path="url(#cp29600)">
</g>
<clipPath id="cp29601">
<path transform="matrix(1,0,0,-1,0,841.92)" d="M .000008871 0 L 595.32 0 L 595.32 841.92 L .000008871 841.92 Z " fill-rule="evenodd"/>
</clipPath>
<g clip-path="url(#cp29601)">
<text xml:space="preserve" transform="matrix(1 0 -0 1 0 841.92)" font-size="11.04" font-family="Calibri"><tspan y="-38.4" x="85.104"> </tspan></text>
</g>
<clipPath id="cp29602">
<path transform="matrix(1,0,0,-1,0,841.92)" d="M .000008871 0 L 595.32 0 L 595.32 841.92 L .000008871 841.92 Z " fill-rule="evenodd"/>
</clipPath>
<g clip-path="url(#cp29602)">
</g>
</g>
<g id="Layer-1" data-name="P">
<clipPath id="cp29603">
<path transform="matrix(1,0,0,-1,0,841.92)" d="M .000008871 0 L 595.32 0 L 595.32 841.92 L .000008871 841.92 Z " fill-rule="evenodd"/>
</clipPath>
<g clip-path="url(#cp29603)">
<text xml:space="preserve" transform="matrix(1 0 -0 1 0 841.92)" font-size="14.04" font-family="Times New Roman,Bold" font-weight="bold"><tspan y="-772.32" x="274.97">6</tspan></text>
</g>
</g>
<g id="Layer-1" data-name="P">
<clipPath id="cp29604">
<path transform="matrix(1,0,0,-1,0,841.92)" d="M .000008871 0 L 595.32 0 L 595.32 841.92 L .000008871 841.92 Z " fill-rule="evenodd"/>
</clipPath>
<g clip-path="url(#cp29604)">
<text xml:space="preserve" transform="matrix(1 0 -0 1 0 841.92)" font-size="14.04" font-family="Times New Roman,Bold" font-weight="bold"><tspan y="-772.32" x="282.05">-</tspan></text>
</g>
</g>
<g id="Layer-1" data-name="P">
<clipPath id="cp29605">
<path transform="matrix(1,0,0,-1,0,841.92)" d="M .000008871 0 L 595.32 0 L 595.32 841.92 L .000008871 841.92 Z " fill-rule="evenodd"/>
</clipPath>
<g clip-path="url(#cp29605)">
<text xml:space="preserve" transform="matrix(1 0 -0 1 0 841.92)" font-size="14.04" font-family="Times New Roman,Bold" font-weight="bold"><tspan y="-772.32" x="286.73"> </tspan></text>
</g>
</g>
<g id="Layer-1" data-name="P">
<clipPath id="cp29606">
<path transform="matrix(1,0,0,-1,0,841.92)" d="M .000008871 0 L 595.32 0 L 595.32 841.92 L .000008871 841.92 Z " fill-rule="evenodd"/>
</clipPath>
<g clip-path="url(#cp29606)">
<text xml:space="preserve" transform="matrix(1 0 -0 1 0 841.92)" font-size="14.04" font-family="Times New Roman,Bold" font-weight="bold"><tspan y="-772.32" x="290.21 298.01625 304.96604 312.77229 319.72209 326.78419 330.2942 338.10044 345.02217 348.96739 355.20115 358.57075 364.0744 371.03825 378.00209 385.06419 388.91114 392.7581 399.8202">bobga doir savollar</tspan></text>
</g>
</g>
<g id="Layer-1" data-name="P">
<clipPath id="cp29607">
<path transform="matrix(1,0,0,-1,0,841.92)" d="M .000008871 0 L 595.32 0 L 595.32 841.92 L .000008871 841.92 Z " fill-rule="evenodd"/>
</clipPath>
<g clip-path="url(#cp29607)">
<text xml:space="preserve" transform="matrix(1 0 -0 1 0 841.92)" font-size="14.04" font-family="Times New Roman,Bold" font-weight="bold"><tspan y="-772.32" x="406.03"> </tspan></text>
</g>
</g>
<g id="Layer-1" data-name="P">
<clipPath id="cp29608">
<path transform="matrix(1,0,0,-1,0,841.92)" d="M .000008871 0 L 595.32 0 L 595.32 841.92 L .000008871 841.92 Z " fill-rule="evenodd"/>
</clipPath>
<g clip-path="url(#cp29608)">
<text xml:space="preserve" transform="matrix(1 0 -0 1 0 841.92)" font-size="14.04" font-family="Times New Roman"><tspan y="-748.3" x="120.5 127.56212 131.07212">1. </tspan></text>
</g>
<clipPath id="cp29609">
<path transform="matrix(1,0,0,-1,0,841.92)" d="M .000008871 0 L 595.32 0 L 595.32 841.92 L .000008871 841.92 Z " fill-rule="evenodd"/>
</clipPath>
<g clip-path="url(#cp29609)">
<text xml:space="preserve" transform="matrix(1 0 -0 1 0 841.92)" font-size="14.04" font-family="Times New Roman"><tspan y="-748.3" x="134.54 147.01999">Ma</tspan></text>
</g>
<clipPath id="cp29610">
<path transform="matrix(1,0,0,-1,0,841.92)" d="M .000008871 0 L 595.32 0 L 595.32 841.92 L .000008871 841.92 Z " fill-rule="evenodd"/>
</clipPath>
<g clip-path="url(#cp29610)">
<text xml:space="preserve" transform="matrix(1 0 -0 1 0 841.92)" font-size="14.04" font-family="Times New Roman"><tspan y="-748.3" x="153.26">&#x2019;</tspan></text>
</g>
<clipPath id="cp29611">
<path transform="matrix(1,0,0,-1,0,841.92)" d="M .000008871 0 L 595.32 0 L 595.32 841.92 L .000008871 841.92 Z " fill-rule="evenodd"/>
</clipPath>
<g clip-path="url(#cp29611)">
<text xml:space="preserve" transform="matrix(1 0 -0 1 0 841.92)" font-size="14.04" font-family="Times New Roman"><tspan y="-748.3" x="157.82 161.76525 168.82736 179.51181 186.57393 190.51917 194.4644 200.58585 205.26117 208.77117 215.79117 221.94069 228.17446 234.40822 239.82767 243.7729 247.2829 254.21866 258.16389 268.84834 275.0821 281.4282">lumotlar bazasi nima? </tspan></text>
</g>
<clipPath id="cp29612">
<path transform="matrix(1,0,0,-1,0,841.92)" d="M .000008871 0 L 595.32 0 L 595.32 841.92 L .000008871 841.92 Z " fill-rule="evenodd"/>
</clipPath>
<g clip-path="url(#cp29612)">
<text xml:space="preserve" transform="matrix(1 0 -0 1 0 841.92)" font-size="14.04" font-family="Times New Roman"><tspan y="-748.3" x="285.05"> </tspan></text>
</g>
</g>
<g id="Layer-1" data-name="P">
<clipPath id="cp29613">
<path transform="matrix(1,0,0,-1,0,841.92)" d="M .000008871 0 L 595.32 0 L 595.32 841.92 L .000008871 841.92 Z " fill-rule="evenodd"/>
</clipPath>
<g clip-path="url(#cp29613)">
<text xml:space="preserve" transform="matrix(1 0 -0 1 0 841.92)" font-size="14.04" font-family="Times New Roman"><tspan y="-724.18" x="120.5 127.56212 131.07212 139.66458 152.14615">2. Ma</tspan></text>
</g>
<clipPath id="cp29614">
<path transform="matrix(1,0,0,-1,0,841.92)" d="M .000008871 0 L 595.32 0 L 595.32 841.92 L .000008871 841.92 Z " fill-rule="evenodd"/>
</clipPath>
<g clip-path="url(#cp29614)">
<text xml:space="preserve" transform="matrix(1 0 -0 1 0 841.92)" font-size="14.04" font-family="Times New Roman"><tspan y="-724.18" x="158.42">&#x2019;</tspan></text>
</g>
<clipPath id="cp29615">
<path transform="matrix(1,0,0,-1,0,841.92)" d="M .000008871 0 L 595.32 0 L 595.32 841.92 L .000008871 841.92 Z " fill-rule="evenodd"/>
</clipPath>
<g clip-path="url(#cp29615)">
<text xml:space="preserve" transform="matrix(1 0 -0 1 0 841.92)" font-size="14.04" font-family="Times New Roman"><tspan y="-724.18" x="162.98 166.82695 173.88907 184.57352 191.63564 195.58087 199.52611 205.75988 210.4352 218.95748 226.01959 232.25336 238.3748 244.60857 250.1263 253.97325 260.9371 264.88233 271.84617 278.90827 287.4165 294.4786 300.60005 307.66215 314.62599 320.85975 327.71125 336.33183 340.27705 347.33915 352.01448 355.86143 362.09519 366.7705 370.72978 379.238 386.3001 393.26396 397.82695 404.17304 412.7936 422.87434 426.81956 432.94099 437.6163 444.58015 448.4271 455.4892 462.5513 471.17189 475.73487 481.96864 486.64396 493.62184 497.56706 503.8008 508.3638 512.309 519.2729 523.21817 531.8387 538.07247 544.924 548.86929 552.5899 559.5538">lumotlar bazasining qanday turlari bor? Ularning farqlarini aytib </tspan></text>
</g>
<clipPath id="cp29616">
<path transform="matrix(1,0,0,-1,0,841.92)" d="M .000008871 0 L 595.32 0 L 595.32 841.92 L .000008871 841.92 Z " fill-rule="evenodd"/>
</clipPath>
<g clip-path="url(#cp29616)">
<text xml:space="preserve" transform="matrix(1 0 -0 1 0 841.92)" font-size="14.04" font-family="Times New Roman"><tspan y="-700.06" x="85.104 92.166118 98.39987 102.962879 106.90812 113.871959 120.934078">bering.</tspan></text>
</g>
<clipPath id="cp29617">
<path transform="matrix(1,0,0,-1,0,841.92)" d="M .000008871 0 L 595.32 0 L 595.32 841.92 L .000008871 841.92 Z " fill-rule="evenodd"/>
</clipPath>
<g clip-path="url(#cp29617)">
<text xml:space="preserve" transform="matrix(1 0 -0 1 0 841.92)" font-size="14.04" font-family="Times New Roman"><tspan y="-700.06" x="124.34"> </tspan></text>
</g>
</g>
<g id="Layer-1" data-name="P">
<clipPath id="cp29618">
<path transform="matrix(1,0,0,-1,0,841.92)" d="M .000008871 0 L 595.32 0 L 595.32 841.92 L .000008871 841.92 Z " fill-rule="evenodd"/>
</clipPath>
<g clip-path="url(#cp29618)">
<text xml:space="preserve" transform="matrix(1 0 -0 1 0 841.92)" font-size="14.04" font-family="Times New Roman"><tspan y="-675.94" x="120.5 127.56212 131.07212 134.52594 147.0075">3. Ma</tspan></text>
</g>
<clipPath id="cp29619">
<path transform="matrix(1,0,0,-1,0,841.92)" d="M .000008871 0 L 595.32 0 L 595.32 841.92 L .000008871 841.92 Z " fill-rule="evenodd"/>
</clipPath>
<g clip-path="url(#cp29619)">
<text xml:space="preserve" transform="matrix(1 0 -0 1 0 841.92)" font-size="14.04" font-family="Times New Roman"><tspan y="-675.94" x="153.26">&#x2019;</tspan></text>
</g>
<clipPath id="cp29620">
<path transform="matrix(1,0,0,-1,0,841.92)" d="M .000008871 0 L 595.32 0 L 595.32 841.92 L .000008871 841.92 Z " fill-rule="evenodd"/>
</clipPath>
<g clip-path="url(#cp29620)">
<text xml:space="preserve" transform="matrix(1 0 -0 1 0 841.92)" font-size="14.04" font-family="Times New Roman"><tspan y="-675.94" x="157.82 161.76525 168.82736 179.51181 186.57393 190.51917 194.4644 200.58585 205.26117 208.77117 215.79117 221.94069 228.17446 234.40822 239.82767 243.7729 250.73674 254.68198 258.192 265.12776 272.09159 277.59526 284.55909 291.6212 297.85496 302.41795 306.36317 311.76856 318.83067 322.18623 326.13145 330.07667 336.1981 340.1433 350.82777 354.77299 358.283 362.9583 375.43989 384.80458">lumotlar bazasini boshqarish tizimi (MBB</tspan></text>
</g>
</g>
<g id="Layer-1" data-name="P">
<clipPath id="cp29621">
<path transform="matrix(1,0,0,-1,0,841.92)" d="M .000008871 0 L 595.32 0 L 595.32 841.92 L .000008871 841.92 Z " fill-rule="evenodd"/>
</clipPath>
<g clip-path="url(#cp29621)">
<text xml:space="preserve" transform="matrix(1 0 -0 1 0 841.92)" font-size="14.04" font-family="Times New Roman"><tspan y="-675.94" x="394.39">&#x0422;</tspan></text>
</g>
</g>
<g id="Layer-1" data-name="P">
<clipPath id="cp29622">
<path transform="matrix(1,0,0,-1,0,841.92)" d="M .000008871 0 L 595.32 0 L 595.32 841.92 L .000008871 841.92 Z " fill-rule="evenodd"/>
</clipPath>
<g clip-path="url(#cp29622)">
<text xml:space="preserve" transform="matrix(1 0 -0 1 0 841.92)" font-size="14.04" font-family="Times New Roman"><tspan y="-675.94" x="402.91 407.58534 411.09535 418.0311 421.97633 432.66078 438.89454">) nima?</tspan></text>
</g>
</g>
<g id="Layer-1" data-name="P">
<clipPath id="cp29623">
<path transform="matrix(1,0,0,-1,0,841.92)" d="M .000008871 0 L 595.32 0 L 595.32 841.92 L .000008871 841.92 Z " fill-rule="evenodd"/>
</clipPath>
<g clip-path="url(#cp29623)">
<text xml:space="preserve" transform="matrix(1 0 -0 1 0 841.92)" font-size="14.04" font-family="Times New Roman"><tspan y="-675.94" x="445.3"> </tspan></text>
</g>
</g>
<g id="Layer-1" data-name="P">
<clipPath id="cp29624">
<path transform="matrix(1,0,0,-1,0,841.92)" d="M .000008871 0 L 595.32 0 L 595.32 841.92 L .000008871 841.92 Z " fill-rule="evenodd"/>
</clipPath>
<g clip-path="url(#cp29624)">
<text xml:space="preserve" transform="matrix(1 0 -0 1 0 841.92)" font-size="14.04" font-family="Times New Roman"><tspan y="-651.7" x="120.5 127.56212 131.07212 134.52594 144.60666 150.84043 157.80426 164.86638 171.10015 177.95166 181.46166 193.94322 203.3079">4. Qanday MBB</tspan></text>
</g>
</g>
<g id="Layer-1" data-name="P">
<clipPath id="cp29625">
<path transform="matrix(1,0,0,-1,0,841.92)" d="M .000008871 0 L 595.32 0 L 595.32 841.92 L .000008871 841.92 Z " fill-rule="evenodd"/>
</clipPath>
<g clip-path="url(#cp29625)">
<text xml:space="preserve" transform="matrix(1 0 -0 1 0 841.92)" font-size="14.04" font-family="Times New Roman"><tspan y="-651.7" x="212.69">&#x0422;</tspan></text>
</g>
</g>
<g id="Layer-1" data-name="P">
<clipPath id="cp29626">
<path transform="matrix(1,0,0,-1,0,841.92)" d="M .000008871 0 L 595.32 0 L 595.32 841.92 L .000008871 841.92 Z " fill-rule="evenodd"/>
</clipPath>
<g clip-path="url(#cp29626)">
<text xml:space="preserve" transform="matrix(1 0 -0 1 0 841.92)" font-size="14.04" font-family="Times New Roman"><tspan y="-651.7" x="221.21"> </tspan></text>
</g>
</g>
<g id="Layer-1" data-name="P">
<clipPath id="cp29627">
<path transform="matrix(1,0,0,-1,0,841.92)" d="M .000008871 0 L 595.32 0 L 595.32 841.92 L .000008871 841.92 Z " fill-rule="evenodd"/>
</clipPath>
<g clip-path="url(#cp29627)">
<text xml:space="preserve" transform="matrix(1 0 -0 1 0 841.92)" font-size="14.04" font-family="Times New Roman"><tspan y="-651.7" x="224.69 228.63524 234.869 239.54433 243.50362 250.46746 254.41269 257.9227 264.85847 268.80369 272.65065 278.8844 284.2898 288.23503 294.35646">larini bilasiz?</tspan></text>
</g>
</g>
<g id="Layer-1" data-name="P">
<clipPath id="cp29628">
<path transform="matrix(1,0,0,-1,0,841.92)" d="M .000008871 0 L 595.32 0 L 595.32 841.92 L .000008871 841.92 Z " fill-rule="evenodd"/>
</clipPath>
<g clip-path="url(#cp29628)">
<text xml:space="preserve" transform="matrix(1 0 -0 1 0 841.92)" font-size="14.04" font-family="Times New Roman"><tspan y="-651.7" x="300.65"> </tspan></text>
</g>
</g>
<g id="Layer-1" data-name="P">
<clipPath id="cp29629">
<path transform="matrix(1,0,0,-1,0,841.92)" d="M .000008871 0 L 595.32 0 L 595.32 841.92 L .000008871 841.92 Z " fill-rule="evenodd"/>
</clipPath>
<g clip-path="url(#cp29629)">
<text xml:space="preserve" transform="matrix(1 0 -0 1 0 841.92)" font-size="14.04" font-family="Times New Roman"><tspan y="-627.58" x="120.5 127.56212 131.07212 134.52594 147.0075 156.3722 160.20511 166.43888 171.1142 174.96115 182.02327 188.25704 191.62664 198.68875 204.09415 208.03939 215.00322 222.06534 225.4209 232.48302 238.71678 242.08638 247.59006 253.82382 257.67079 262.3461 266.29133 272.5251 277.2004 280.57 287.53385 291.47908 302.1635 308.39729 311.9073 318.92729 325.18913 332.25123 335.76124 341.995 345.8981 352.04765 355.99287 362.1143 369.1764 373.02336">5. MBlarida ustun va satrlar nima deb ataladi?</tspan></text>
</g>
<clipPath id="cp29630">
<path transform="matrix(1,0,0,-1,0,841.92)" d="M .000008871 0 L 595.32 0 L 595.32 841.92 L .000008871 841.92 Z " fill-rule="evenodd"/>
</clipPath>
<g clip-path="url(#cp29630)">
<text xml:space="preserve" transform="matrix(1 0 -0 1 0 841.92)" font-size="14.04" font-family="Times New Roman"><tspan y="-627.58" x="379.51"> </tspan></text>
</g>
</g>
<g id="Layer-1" data-name="P">
<clipPath id="cp29631">
<path transform="matrix(1,0,0,-1,0,841.92)" d="M .000008871 0 L 595.32 0 L 595.32 841.92 L .000008871 841.92 Z " fill-rule="evenodd"/>
</clipPath>
<g clip-path="url(#cp29631)">
<text xml:space="preserve" transform="matrix(1 0 -0 1 0 841.92)" font-size="14.04" font-family="Times New Roman"><tspan y="-603.46" x="120.5 127.56212 131.07212 134.52594 147.0075 153.24127 160.09279 167.1549 174.21703 181.18087 185.1261 191.35987 195.92287 202.8867 206.83194 213.79578 220.8579 224.36789 231.30365 238.26749 243.77117 250.735 256.23869 260.1839 267.02137 273.25514 277.20036 281.0473 287.28108 291.9564 295.80335 302.76719 306.7124 310.2224 316.45619 323.26557 327.2108 331.156 338.2181 341.57368 348.63578 354.86955 359.43254 363.37776 370.34159 377.4037">6. Maydonlarning xususiyatlarini aytib bering.</tspan></text>
</g>
<clipPath id="cp29632">
<path transform="matrix(1,0,0,-1,0,841.92)" d="M .000008871 0 L 595.32 0 L 595.32 841.92 L .000008871 841.92 Z " fill-rule="evenodd"/>
</clipPath>
<g clip-path="url(#cp29632)">
<text xml:space="preserve" transform="matrix(1 0 -0 1 0 841.92)" font-size="14.04" font-family="Times New Roman"><tspan y="-603.46" x="381.07"> </tspan></text>
</g>
</g>
<g id="Layer-1" data-name="P">
<clipPath id="cp29633">
<path transform="matrix(1,0,0,-1,0,841.92)" d="M .000008871 0 L 595.32 0 L 595.32 841.92 L .000008871 841.92 Z " fill-rule="evenodd"/>
</clipPath>
<g clip-path="url(#cp29633)">
<text xml:space="preserve" transform="matrix(1 0 -0 1 0 841.92)" font-size="14.04" font-family="Times New Roman"><tspan y="-579.34" x="120.5 127.56212 131.07212 134.52594 147.0075 156.3722 163.32199 167.26723 170.77722 177.58663 183.82039 188.49571 194.72948 198.68877 202.53572 208.0394 215.10152 218.45708 225.42092 232.48303 237.88843 244.95055 248.89579 255.01723 261.98109 265.9263 272.16007 276.72306 280.66828 287.6321 291.57734 295.08735 301.3211 308.1305 312.0757 316.02095 323.08305 326.4386 333.5007 339.73448 344.29747 348.1444 355.10826 362.17036">7. MBni yaratish bosqichlarini aytib bering.</tspan></text>
</g>
<clipPath id="cp29634">
<path transform="matrix(1,0,0,-1,0,841.92)" d="M .000008871 0 L 595.32 0 L 595.32 841.92 L .000008871 841.92 Z " fill-rule="evenodd"/>
</clipPath>
<g clip-path="url(#cp29634)">
<text xml:space="preserve" transform="matrix(1 0 -0 1 0 841.92)" font-size="14.04" font-family="Times New Roman"><tspan y="-579.34" x="365.95"> </tspan></text>
</g>
</g>
<g id="Layer-1" data-name="P">
<clipPath id="cp29635">
<path transform="matrix(1,0,0,-1,0,841.92)" d="M .000008871 0 L 595.32 0 L 595.32 841.92 L .000008871 841.92 Z " fill-rule="evenodd"/>
</clipPath>
<g clip-path="url(#cp29635)">
<text xml:space="preserve" transform="matrix(1 0 -0 1 0 841.92)" font-size="14.04" font-family="Times New Roman"><tspan y="-555.07" x="120.5 127.56212 131.07212 134.52594 144.60666 151.66878 162.35323 169.54172 176.3792 183.44132 187.38655 193.62032 198.18332 205.24544 211.4792 214.9892 227.47077 236.68102 243.74314 247.68837 251.19837 258.00776 264.24153">8. Kompyuterda MBni yar</tspan></text>
</g>
<clipPath id="cp29636">
<path transform="matrix(1,0,0,-1,0,841.92)" d="M .000008871 0 L 595.32 0 L 595.32 841.92 L .000008871 841.92 Z " fill-rule="evenodd"/>
</clipPath>
<g clip-path="url(#cp29636)">
<text xml:space="preserve" transform="matrix(1 0 -0 1 0 841.92)" font-size="14.04" font-family="Times New Roman"><tspan y="-555.07" x="269.09 275.32377 279.26899 283.11595 288.52134 295.58345 299.09346 306.0292 313.0913 318.4967 325.46055 329.40577 335.5272 342.5893 346.53453 352.65596 357.21894 361.16416 368.128 372.0732 375.58323 379.48634 385.63587 392.5997 398.10337 402.04859 406.61158 410.5568 416.67823 423.74034 427.25035 434.1861 440.41987 445.09519 448.94215 455.90599 462.96809">atish bosqichlarini tavsiflab bering.</tspan></text>
</g>
<clipPath id="cp29637">
<path transform="matrix(1,0,0,-1,0,841.92)" d="M .000008871 0 L 595.32 0 L 595.32 841.92 L .000008871 841.92 Z " fill-rule="evenodd"/>
</clipPath>
<g clip-path="url(#cp29637)">
<text xml:space="preserve" transform="matrix(1 0 -0 1 0 841.92)" font-size="14.04" font-family="Times New Roman"><tspan y="-555.07" x="466.66"> </tspan></text>
</g>
</g>
<g id="Layer-1" data-name="P">
<clipPath id="cp29638">
<path transform="matrix(1,0,0,-1,0,841.92)" d="M .000008871 0 L 595.32 0 L 595.32 841.92 L .000008871 841.92 Z " fill-rule="evenodd"/>
</clipPath>
<g clip-path="url(#cp29638)">
<text xml:space="preserve" transform="matrix(1 0 -0 1 0 841.92)" font-size="14.04" font-family="Times New Roman"><tspan y="-530.95" x="120.5 127.56212 131.07212 134.52594 147.0075 156.3722">9. MBB</tspan></text>
</g>
</g>
<g id="Layer-1" data-name="P">
<clipPath id="cp29639">
<path transform="matrix(1,0,0,-1,0,841.92)" d="M .000008871 0 L 595.32 0 L 595.32 841.92 L .000008871 841.92 Z " fill-rule="evenodd"/>
</clipPath>
<g clip-path="url(#cp29639)">
<text xml:space="preserve" transform="matrix(1 0 -0 1 0 841.92)" font-size="14.04" font-family="Times New Roman"><tspan y="-530.95" x="165.74">&#x0422;</tspan></text>
</g>
</g>
<g id="Layer-1" data-name="P">
<clipPath id="cp29640">
<path transform="matrix(1,0,0,-1,0,841.92)" d="M .000008871 0 L 595.32 0 L 595.32 841.92 L .000008871 841.92 Z " fill-rule="evenodd"/>
</clipPath>
<g clip-path="url(#cp29640)">
<text xml:space="preserve" transform="matrix(1 0 -0 1 0 841.92)" font-size="14.04" font-family="Times New Roman"><tspan y="-530.95" x="174.26"> </tspan></text>
</g>
</g>
<g id="Layer-1" data-name="P">
<clipPath id="cp29641">
<path transform="matrix(1,0,0,-1,0,841.92)" d="M .000008871 0 L 595.32 0 L 595.32 841.92 L .000008871 841.92 Z " fill-rule="evenodd"/>
</clipPath>
<g clip-path="url(#cp29641)">
<text xml:space="preserve" transform="matrix(1 0 -0 1 0 841.92)" font-size="14.04" font-family="Times New Roman"><tspan y="-530.95" x="177.74 184.70384 188.64908 192.49604 198.7298 205.80597 209.16153 213.10677 218.51216 225.57428 229.42124 235.655 242.61884 248.8526 255.81644 262.87855 269.1123 272.6223 279.55809 286.62019 297.30464 304.4931 311.33058 318.39268 322.3379 328.57167 333.24699 336.757 342.86439 349.92649 354.6018 360.72325 367.78535 371.6323 378.6944 384.92817 388.29777 395.35987 399.30509 409.98954 416.2233 420.16853 426.40229 431.0776 434.58763 440.82139 447.77119 451.61814 458.68025 464.914 469.58934 473.43629 477.28324 483.517 490.59315 494.4401">bilan ishlaganda kompyuter ekraniga nimalar chiqariladi?</tspan></text>
</g>
</g>
<g id="Layer-1" data-name="P">
<clipPath id="cp29642">
<path transform="matrix(1,0,0,-1,0,841.92)" d="M .000008871 0 L 595.32 0 L 595.32 841.92 L .000008871 841.92 Z " fill-rule="evenodd"/>
</clipPath>
<g clip-path="url(#cp29642)">
<text xml:space="preserve" transform="matrix(1 0 -0 1 0 841.92)" font-size="14.04" font-family="Times New Roman"><tspan y="-530.95" x="500.86"> </tspan></text>
</g>
</g>
<g id="Layer-1" data-name="P">
<clipPath id="cp29643">
<path transform="matrix(1,0,0,-1,0,841.92)" d="M .000008871 0 L 595.32 0 L 595.32 841.92 L .000008871 841.92 Z " fill-rule="evenodd"/>
</clipPath>
<g clip-path="url(#cp29643)">
<text xml:space="preserve" transform="matrix(1 0 -0 1 0 841.92)" font-size="14.04" font-family="Times New Roman"><tspan y="-506.83" x="120.5 127.56212 134.62424 138.13423 141.58806 151.66878 155.61402 166.29846 172.53223 178.04996 185.0138 188.95903 195.92287 199.8681 205.2735 212.33562 215.69118 222.7533 229.81542 234.37842 240.49987 245.17519 249.12042 252.63042 259.5662 263.5114 274.19587 280.42964 283.93965 290.95964 297.22148 304.28358 311.2474 318.3095 321.81953 325.62437 331.02976 338.09187 342.03709 348.1585 352.00547 355.95069 359.79765 366.0314 373.10755 376.9545">10. Almashinish buferi nima uchun ishlatiladi?</tspan></text>
</g>
<clipPath id="cp29644">
<path transform="matrix(1,0,0,-1,0,841.92)" d="M .000008871 0 L 595.32 0 L 595.32 841.92 L .000008871 841.92 Z " fill-rule="evenodd"/>
</clipPath>
<g clip-path="url(#cp29644)">
<text xml:space="preserve" transform="matrix(1 0 -0 1 0 841.92)" font-size="14.04" font-family="Times New Roman"><tspan y="-506.83" x="383.35"> </tspan></text>
</g>
</g>
<g id="Layer-1" data-name="P">
<clipPath id="cp29645">
<path transform="matrix(1,0,0,-1,0,841.92)" d="M .000008871 0 L 595.32 0 L 595.32 841.92 L .000008871 841.92 Z " fill-rule="evenodd"/>
</clipPath>
<g clip-path="url(#cp29645)">
<text xml:space="preserve" transform="matrix(1 0 -0 1 0 841.92)" font-size="14.04" font-family="Times New Roman"><tspan y="-482.71" x="120.5 127.56212 134.62424 138.13423 141.58806 154.06963 160.19107 167.25319 174.09067 181.15279 188.2149 194.33635 201.30019 205.24542 208.75542 215.69118 222.7533 229.59078 234.2661 241.34227 248.40439 252.34963 258.47105 263.14637 270.1102 274.05543 277.56544 281.46855 287.61808 294.5819 298.52714 304.64857 310.15223 317.21434 320.5699 327.632 333.03739 340.00123 343.94645 347.89167 354.12544 358.68843 362.53538 369.59748 373.5427 376.89826 380.84349 387.8073 393.2127 400.2748 407.23866 414.30076 418.1477 422.09294 426.6559 430.60115 437.66325 441.0188 448.0809 454.31468 458.87767 462.7246 469.7867 476.84883">11. Menyudagi buyruqlarni tanlash usullarini tushuntirib bering.</tspan></text>
</g>
<clipPath id="cp29646">
<path transform="matrix(1,0,0,-1,0,841.92)" d="M .000008871 0 L 595.32 0 L 595.32 841.92 L .000008871 841.92 Z " fill-rule="evenodd"/>
</clipPath>
<g clip-path="url(#cp29646)">
<text xml:space="preserve" transform="matrix(1 0 -0 1 0 841.92)" font-size="14.04" font-family="Times New Roman"><tspan y="-482.71" x="480.7"> </tspan></text>
</g>
</g>
<g id="Layer-1" data-name="P">
<clipPath id="cp29647">
<path transform="matrix(1,0,0,-1,0,841.92)" d="M .000008871 0 L 595.32 0 L 595.32 841.92 L .000008871 841.92 Z " fill-rule="evenodd"/>
</clipPath>
<g clip-path="url(#cp29647)">
<text xml:space="preserve" transform="matrix(1 0 -0 1 0 841.92)" font-size="14.04" font-family="Times New Roman"><tspan y="-458.47" x="120.5 127.56212 134.62424 138.13423 141.58806 149.26795 156.33007 163.16754 170.22966 176.46343 180.40866 186.5301 193.59223 200.55606 207.61818 213.73963 220.70346 224.6487 228.15869 231.96353 239.02565 242.8726 246.81784 253.65532 260.71745 265.39277 269.33799 276.30183 282.53559 289.49943 293.44465 296.95466 303.8904 310.9525 317.78999 322.4653 329.54145 336.50529 340.4505 346.68428 351.3596">12. Foydalanuvchi ixtiyoridagi buyruqlar </tspan></text>
</g>
<clipPath id="cp29648">
<path transform="matrix(1,0,0,-1,0,841.92)" d="M .000008871 0 L 595.32 0 L 595.32 841.92 L .000008871 841.92 Z " fill-rule="evenodd"/>
</clipPath>
<g clip-path="url(#cp29648)">
<text xml:space="preserve" transform="matrix(1 0 -0 1 0 841.92)" font-size="14.04" font-family="Times New Roman"><tspan y="-458.47" x="355.15 362.11384 369.17594 373.85127 380.8151 387.77894 391.72416 397.95793 402.5209 406.46614 413.42997 417.37519 420.8852 427.11897 433.92835 437.87358 441.8188 448.8809 452.23646 459.29856 465.53233 470.0953 473.94227 480.9061 487.9682">guruhlarini aytib bering.</tspan></text>
</g>
<clipPath id="cp29649">
<path transform="matrix(1,0,0,-1,0,841.92)" d="M .000008871 0 L 595.32 0 L 595.32 841.92 L .000008871 841.92 Z " fill-rule="evenodd"/>
</clipPath>
<g clip-path="url(#cp29649)">
<text xml:space="preserve" transform="matrix(1 0 -0 1 0 841.92)" font-size="14.04" font-family="Times New Roman"><tspan y="-458.47" x="491.62"> </tspan></text>
</g>
</g>
<g id="Layer-1" data-name="P">
<clipPath id="cp29650">
<path transform="matrix(1,0,0,-1,0,841.92)" d="M .000008871 0 L 595.32 0 L 595.32 841.92 L .000008871 841.92 Z " fill-rule="evenodd"/>
</clipPath>
<g clip-path="url(#cp29650)">
<text xml:space="preserve" transform="matrix(1 0 -0 1 0 841.92)" font-size="14.04" font-family="Times New Roman"><tspan y="-434.35" x="120.5 127.56212 134.62424 138.13423 141.58806 154.06963 163.30796">13. MBB</tspan></text>
</g>
</g>
<g id="Layer-1" data-name="P">
<clipPath id="cp29651">
<path transform="matrix(1,0,0,-1,0,841.92)" d="M .000008871 0 L 595.32 0 L 595.32 841.92 L .000008871 841.92 Z " fill-rule="evenodd"/>
</clipPath>
<g clip-path="url(#cp29651)">
<text xml:space="preserve" transform="matrix(1 0 -0 1 0 841.92)" font-size="14.04" font-family="Times New Roman"><tspan y="-434.35" x="172.7">&#x0422;</tspan></text>
</g>
</g>
<g id="Layer-1" data-name="P">
<clipPath id="cp29652">
<path transform="matrix(1,0,0,-1,0,841.92)" d="M .000008871 0 L 595.32 0 L 595.32 841.92 L .000008871 841.92 Z " fill-rule="evenodd"/>
</clipPath>
<g clip-path="url(#cp29652)">
<text xml:space="preserve" transform="matrix(1 0 -0 1 0 841.92)" font-size="14.04" font-family="Times New Roman"><tspan y="-434.35" x="181.22"> </tspan></text>
</g>
</g>
<g id="Layer-1" data-name="P">
<clipPath id="cp29653">
<path transform="matrix(1,0,0,-1,0,841.92)" d="M .000008871 0 L 595.32 0 L 595.32 841.92 L .000008871 841.92 Z " fill-rule="evenodd"/>
</clipPath>
<g clip-path="url(#cp29653)">
<text xml:space="preserve" transform="matrix(1 0 -0 1 0 841.92)" font-size="14.04" font-family="Times New Roman"><tspan y="-434.35" x="184.7 191.76212 195.60907 199.5543 205.67575 212.73787 216.24787 220.0527 225.4581 232.52022 236.46546 242.5869 248.09058 255.1527 258.50825 262.45347 268.5749 275.637 282.60084 289.66294 293.5099 300.47373 307.53584 311.48106 318.3185 324.55229 330.06999 333.91694 340.88078 344.826 348.336 354.56977 361.50553 365.45075 369.2977 376.3598 379.8698 386.80558 393.03935 397.71467 401.5616 408.52546 415.58757 419.09757">bilan ishlash texnologiyasini aytib bering. </tspan></text>
</g>
</g>
<g id="Layer-1" data-name="P">
<clipPath id="cp29654">
<path transform="matrix(1,0,0,-1,0,841.92)" d="M .000008871 0 L 595.32 0 L 595.32 841.92 L .000008871 841.92 Z " fill-rule="evenodd"/>
</clipPath>
<g clip-path="url(#cp29654)">
<text xml:space="preserve" transform="matrix(1 0 -0 1 0 841.92)" font-size="14.04" font-family="Times New Roman"><tspan y="-434.35" x="422.83"> </tspan></text>
</g>
</g>
<g id="Layer-1" data-name="P">
<clipPath id="cp29655">
<path transform="matrix(1,0,0,-1,0,841.92)" d="M .000008871 0 L 595.32 0 L 595.32 841.92 L .000008871 841.92 Z " fill-rule="evenodd"/>
</clipPath>
<g clip-path="url(#cp29655)">
<text xml:space="preserve" transform="matrix(1 0 -0 1 0 841.92)" font-size="14.04" font-family="Times New Roman"><tspan y="-410.23" x="120.5 127.56212 134.62424 138.13423 150.46137 158.26761 161.7776 171.81621 178.04998 184.28374 190.5175 195.93695 201.44063 204.95063 211.88639 218.85022 224.3539 231.31774 235.26297 241.38442 248.44654">14.MS Access boshlang</tspan></text>
</g>
<clipPath id="cp29656">
<path transform="matrix(1,0,0,-1,0,841.92)" d="M .000008871 0 L 595.32 0 L 595.32 841.92 L .000008871 841.92 Z " fill-rule="evenodd"/>
</clipPath>
<g clip-path="url(#cp29656)">
<text xml:space="preserve" transform="matrix(1 0 -0 1 0 841.92)" font-size="14.04" font-family="Times New Roman"><tspan y="-410.23" x="255.65">&#x2019;</tspan></text>
</g>
<clipPath id="cp29657">
<path transform="matrix(1,0,0,-1,0,841.92)" d="M .000008871 0 L 595.32 0 L 595.32 841.92 L .000008871 841.92 Z " fill-rule="evenodd"/>
</clipPath>
<g clip-path="url(#cp29657)">
<text xml:space="preserve" transform="matrix(1 0 -0 1 0 841.92)" font-size="14.04" font-family="Times New Roman"><tspan y="-410.23" x="260.21 264.1552 270.27665 277.33876 280.84877 287.86875 294.73429 301.7964 307.91783 313.42149 317.26844 324.33055 328.1775 335.14134 342.20344 345.71345 349.51829 353.4635 360.42735 367.48945 373.7232 377.23323 381.76814 388.83024">ich oynasining ilova (ob</tspan></text>
</g>
<clipPath id="cp29658">
<path transform="matrix(1,0,0,-1,0,841.92)" d="M .000008871 0 L 595.32 0 L 595.32 841.92 L .000008871 841.92 Z " fill-rule="evenodd"/>
</clipPath>
<g clip-path="url(#cp29658)">
<text xml:space="preserve" transform="matrix(1 0 -0 1 0 841.92)" font-size="14.04" font-family="Times New Roman"><tspan y="-410.23" x="396.07">&#x2019;</tspan></text>
</g>
<clipPath id="cp29659">
<path transform="matrix(1,0,0,-1,0,841.92)" d="M .000008871 0 L 595.32 0 L 595.32 841.92 L .000008871 841.92 Z " fill-rule="evenodd"/>
</clipPath>
<g clip-path="url(#cp29659)">
<text xml:space="preserve" transform="matrix(1 0 -0 1 0 841.92)" font-size="14.04" font-family="Times New Roman"><tspan y="-410.23" x="400.63 407.46748 413.70124 420.77738 424.7226 429.39793 432.90794 436.81105 443.0448 447.6359 451.48286 458.54496 462.49018 465.84574 471.3494 477.47084 484.53294 490.65437 497.71647 501.22648 508.24647 514.4802 519.0713 522.9183 529.9804 537.04257">yekt) larini sanab bering.</tspan></text>
</g>
<clipPath id="cp29660">
<path transform="matrix(1,0,0,-1,0,841.92)" d="M .000008871 0 L 595.32 0 L 595.32 841.92 L .000008871 841.92 Z " fill-rule="evenodd"/>
</clipPath>
<g clip-path="url(#cp29660)">
<text xml:space="preserve" transform="matrix(1 0 -0 1 0 841.92)" font-size="14.04" font-family="Times New Roman"><tspan y="-410.23" x="540.58"> </tspan></text>
</g>
</g>
<g id="Layer-1" data-name="P">
<clipPath id="cp29661">
<path transform="matrix(1,0,0,-1,0,841.92)" d="M .000008871 0 L 595.32 0 L 595.32 841.92 L .000008871 841.92 Z " fill-rule="evenodd"/>
</clipPath>
<g clip-path="url(#cp29661)">
<text xml:space="preserve" transform="matrix(1 0 -0 1 0 841.92)" font-size="14.04" font-family="Times New Roman"><tspan y="-386.09" x="120.5 127.56212 134.62424 138.13423 141.58806 149.26795">15. So</tspan></text>
</g>
<clipPath id="cp29662">
<path transform="matrix(1,0,0,-1,0,841.92)" d="M .000008871 0 L 595.32 0 L 595.32 841.92 L .000008871 841.92 Z " fill-rule="evenodd"/>
</clipPath>
<g clip-path="url(#cp29662)">
<text xml:space="preserve" transform="matrix(1 0 -0 1 0 841.92)" font-size="14.04" font-family="Times New Roman"><tspan y="-386.09" x="156.38">&#x2019;</tspan></text>
</g>
<clipPath id="cp29663">
<path transform="matrix(1,0,0,-1,0,841.92)" d="M .000008871 0 L 595.32 0 L 595.32 841.92 L .000008871 841.92 Z " fill-rule="evenodd"/>
</clipPath>
<g clip-path="url(#cp29663)">
<text xml:space="preserve" transform="matrix(1 0 -0 1 0 841.92)" font-size="14.04" font-family="Times New Roman"><tspan y="-386.09" x="160.94 165.61533 172.6915 179.65534 183.60057 189.83434 194.50966 197.87926 204.94138">rovlar ob</tspan></text>
</g>
<clipPath id="cp29664">
<path transform="matrix(1,0,0,-1,0,841.92)" d="M .000008871 0 L 595.32 0 L 595.32 841.92 L .000008871 841.92 Z " fill-rule="evenodd"/>
</clipPath>
<g clip-path="url(#cp29664)">
<text xml:space="preserve" transform="matrix(1 0 -0 1 0 841.92)" font-size="14.04" font-family="Times New Roman"><tspan y="-386.09" x="212.09">&#x2019;</tspan></text>
</g>
<clipPath id="cp29665">
<path transform="matrix(1,0,0,-1,0,841.92)" d="M .000008871 0 L 595.32 0 L 595.32 841.92 L .000008871 841.92 Z " fill-rule="evenodd"/>
</clipPath>
<g clip-path="url(#cp29665)">
<text xml:space="preserve" transform="matrix(1 0 -0 1 0 841.92)" font-size="14.04" font-family="Times New Roman"><tspan y="-386.09" x="216.65 223.48748 229.72124 236.79741 240.64437 244.5896 248.0996 251.55342 258.61555 264.73698 271.79908 278.7629 284.99668 291.84819 295.3582 302.37818 308.61195 314.87379 318.819 323.49433 329.61576 333.56098 339.79475 344.35774 351.41984 355.36506 358.7206 365.7827 372.01649 375.86344 382.0972 386.77253 392.90803 399.97013 403.81709">yekti  qanday vazifalarni bajaradi?</tspan></text>
</g>
<clipPath id="cp29666">
<path transform="matrix(1,0,0,-1,0,841.92)" d="M .000008871 0 L 595.32 0 L 595.32 841.92 L .000008871 841.92 Z " fill-rule="evenodd"/>
</clipPath>
<g clip-path="url(#cp29666)">
<text xml:space="preserve" transform="matrix(1 0 -0 1 0 841.92)" font-size="14.04" font-family="Times New Roman"><tspan y="-386.09" x="410.23"> </tspan></text>
</g>
</g>
<g id="Layer-1" data-name="P">
<clipPath id="cp29667">
<path transform="matrix(1,0,0,-1,0,841.92)" d="M .000008871 0 L 595.32 0 L 595.32 841.92 L .000008871 841.92 Z " fill-rule="evenodd"/>
</clipPath>
<g clip-path="url(#cp29667)">
<text xml:space="preserve" transform="matrix(1 0 -0 1 0 841.92)" font-size="14.04" font-family="Times New Roman"><tspan y="-361.97" x="120.5 127.56212 134.62424 138.13423 141.58806 154.06963">16. Ma</tspan></text>
</g>
<clipPath id="cp29668">
<path transform="matrix(1,0,0,-1,0,841.92)" d="M .000008871 0 L 595.32 0 L 595.32 841.92 L .000008871 841.92 Z " fill-rule="evenodd"/>
</clipPath>
<g clip-path="url(#cp29668)">
<text xml:space="preserve" transform="matrix(1 0 -0 1 0 841.92)" font-size="14.04" font-family="Times New Roman"><tspan y="-361.97" x="160.34">&#x2019;</tspan></text>
</g>
<clipPath id="cp29669">
<path transform="matrix(1,0,0,-1,0,841.92)" d="M .000008871 0 L 595.32 0 L 595.32 841.92 L .000008871 841.92 Z " fill-rule="evenodd"/>
</clipPath>
<g clip-path="url(#cp29669)">
<text xml:space="preserve" transform="matrix(1 0 -0 1 0 841.92)" font-size="14.04" font-family="Times New Roman"><tspan y="-361.97" x="164.9 168.74695 175.80907 186.49352 193.55564 197.50087 201.4461 207.67987 212.24288 219.20671 223.15195 226.66194 232.8957 239.83147 246.89359 253.9557 257.4657 263.55906 267.406 271.35124 276.75663 283.81874 287.32875 294.34873 300.49827 307.4621 314.5242 321.5863 324.94187 332.00398 338.23774 345.08924 350.5929 354.53813 357.89369 364.95579">lumotlarni chop etish uchun qaysi ob</tspan></text>
</g>
<clipPath id="cp29670">
<path transform="matrix(1,0,0,-1,0,841.92)" d="M .000008871 0 L 595.32 0 L 595.32 841.92 L .000008871 841.92 Z " fill-rule="evenodd"/>
</clipPath>
<g clip-path="url(#cp29670)">
<text xml:space="preserve" transform="matrix(1 0 -0 1 0 841.92)" font-size="14.04" font-family="Times New Roman"><tspan y="-361.97" x="372.31">&#x2019;</tspan></text>
</g>
<clipPath id="cp29671">
<path transform="matrix(1,0,0,-1,0,841.92)" d="M .000008871 0 L 595.32 0 L 595.32 841.92 L .000008871 841.92 Z " fill-rule="evenodd"/>
</clipPath>
<g clip-path="url(#cp29671)">
<text xml:space="preserve" transform="matrix(1 0 -0 1 0 841.92)" font-size="14.04" font-family="Times New Roman"><tspan y="-361.97" x="376.87 383.70747 389.94123 397.01737 400.9626">yekt </tspan></text>
</g>
<clipPath id="cp29672">
<path transform="matrix(1,0,0,-1,0,841.92)" d="M .000008871 0 L 595.32 0 L 595.32 841.92 L .000008871 841.92 Z " fill-rule="evenodd"/>
</clipPath>
<g clip-path="url(#cp29672)">
<text xml:space="preserve" transform="matrix(1 0 -0 1 0 841.92)" font-size="14.04" font-family="Times New Roman"><tspan y="-361.97" x="404.47 408.31697 413.82063 420.78446 424.72969 430.8511 434.79634 438.64329 442.5885 448.70994 455.77204 459.619">ishlatiladi?</tspan></text>
</g>
<clipPath id="cp29673">
<path transform="matrix(1,0,0,-1,0,841.92)" d="M .000008871 0 L 595.32 0 L 595.32 841.92 L .000008871 841.92 Z " fill-rule="evenodd"/>
</clipPath>
<g clip-path="url(#cp29673)">
<text xml:space="preserve" transform="matrix(1 0 -0 1 0 841.92)" font-size="14.04" font-family="Times New Roman"><tspan y="-361.97" x="465.94"> </tspan></text>
</g>
</g>
<g id="Layer-1" data-name="P">
<clipPath id="cp29674">
<path transform="matrix(1,0,0,-1,0,841.92)" d="M .000008871 0 L 595.32 0 L 595.32 841.92 L .000008871 841.92 Z " fill-rule="evenodd"/>
</clipPath>
<g clip-path="url(#cp29674)">
<text xml:space="preserve" transform="matrix(1 0 -0 1 0 841.92)" font-size="14.04" font-family="Times New Roman"><tspan y="-337.73" x="120.5 127.56212 134.62424 138.13423 141.58806 154.06963 160.19107 167.25319 171.8162 178.78003 184.2837 187.7937 194.8137 200.96323 208.02535 214.14679 221.20891 228.17275 234.40651 237.9165 244.93651 248.92388 259.6083 265.84208 272.9182 276.86344 280.37345 283.8273 287.67427 294.73637 300.14176 307.1056 314.1677 321.13154 327.3653 332.7707 336.7159 342.83735">17. Makros deganda nimani  tushunasiz?</tspan></text>
</g>
<clipPath id="cp29675">
<path transform="matrix(1,0,0,-1,0,841.92)" d="M .000008871 0 L 595.32 0 L 595.32 841.92 L .000008871 841.92 Z " fill-rule="evenodd"/>
</clipPath>
<g clip-path="url(#cp29675)">
<text xml:space="preserve" transform="matrix(1 0 -0 1 0 841.92)" font-size="14.04" font-family="Times New Roman"><tspan y="-337.73" x="349.27"> </tspan></text>
</g>
</g>
<g id="Layer-1" data-name="P">
<clipPath id="cp29676">
<path transform="matrix(1,0,0,-1,0,841.92)" d="M .000008871 0 L 595.32 0 L 595.32 841.92 L .000008871 841.92 Z " fill-rule="evenodd"/>
</clipPath>
<g clip-path="url(#cp29676)">
<text xml:space="preserve" transform="matrix(1 0 -0 1 0 841.92)" font-size="14.04" font-family="Times New Roman"><tspan y="-313.61" x="120.5 127.56212 134.62424 138.13423 141.58806 154.06963 161.87587 165.38587 175.42447 181.65824 187.77968 194.01345 199.41884 204.92252 208.43251 215.45252 221.60204 227.00743 230.95267 238.01479 242.57779 246.52303 250.03302 257.053 263.20256 270.16639 277.2285 283.46226 290.31376 293.82377 297.72688 303.2586 310.22245 317.28456 323.5183 327.02833 330.8472 337.81105 343.3147 350.27854 354.22377 358.78675 362.6337 366.57893 372.81269 379.77653 383.62348">18. MS Access dasturi qanday ishga tushiriladi?</tspan></text>
</g>
<clipPath id="cp29677">
<path transform="matrix(1,0,0,-1,0,841.92)" d="M .000008871 0 L 595.32 0 L 595.32 841.92 L .000008871 841.92 Z " fill-rule="evenodd"/>
</clipPath>
<g clip-path="url(#cp29677)">
<text xml:space="preserve" transform="matrix(1 0 -0 1 0 841.92)" font-size="14.04" font-family="Times New Roman"><tspan y="-313.61" x="390.07"> </tspan></text>
</g>
</g>
<g id="Layer-1" data-name="P">
<clipPath id="cp29678">
<path transform="matrix(1,0,0,-1,0,841.92)" d="M .000008871 0 L 595.32 0 L 595.32 841.92 L .000008871 841.92 Z " fill-rule="evenodd"/>
</clipPath>
<g clip-path="url(#cp29678)">
<text xml:space="preserve" transform="matrix(1 0 -0 1 0 841.92)" font-size="14.04" font-family="Times New Roman"><tspan y="-289.49" x="120.5 127.56212 134.62424 138.13423 141.58806 154.06963 163.30796 170.27179 174.21703 181.18087 188.24298 191.75298 198.68874 204.9225 210.3279 214.27313 218.12009 224.35385 231.31769 238.28153 242.12848 245.63848 252.65848 259.52403 266.58613 272.8199 278.3376 282.18455 289.24665 295.36808 302.43019 306.3754 309.73097 316.79307 323.85517 330.69264 335.36796 342.3318 349.3939 353.3391 359.46055 364.02354 371.08564 374.9326 381.89643 388.95854 392.46855 399.48854 405.7223 411.87184 415.81706 420.49238 426.6138 430.55903 436.7928 441.35578 445.20274 452.26484 456.21006 459.72007 465.95384 472.7632 476.70845 480.5554 487.6175 491.1275 498.1475 504.29704 508.97236 512.81936 519.8815 526.9436">19. MBning dastlabki oynasidagi buyruqlarning vazifalarini aytib bering.</tspan></text>
</g>
<clipPath id="cp29679">
<path transform="matrix(1,0,0,-1,0,841.92)" d="M .000008871 0 L 595.32 0 L 595.32 841.92 L .000008871 841.92 Z " fill-rule="evenodd"/>
</clipPath>
<g clip-path="url(#cp29679)">
<text xml:space="preserve" transform="matrix(1 0 -0 1 0 841.92)" font-size="14.04" font-family="Times New Roman"><tspan y="-289.49" x="530.74"> </tspan></text>
</g>
</g>
<g id="Layer-1" data-name="P">
<clipPath id="cp29680">
<path transform="matrix(1,0,0,-1,0,841.92)" d="M .000008871 0 L 595.32 0 L 595.32 841.92 L .000008871 841.92 Z " fill-rule="evenodd"/>
</clipPath>
<g clip-path="url(#cp29680)">
<text xml:space="preserve" transform="matrix(1 0 -0 1 0 841.92)" font-size="14.04" font-family="Times New Roman"><tspan y="-265.37" x="120.5 127.56212 134.62424 138.13423 141.58806 154.06963 163.30796 170.27179 174.21703 177.72702 184.53643 190.77019 195.44551 201.67928 205.63857 209.5838 214.9892 221.95304 229.01515 232.8621 239.82595 246.88806 250.39806 257.41807 263.5676 269.80137 276.8775 283.11128 286.48088 293.4447 297.38993 301.33515 304.6907 311.7528 317.1582 324.2203 328.06727 332.01249 335.36805 342.43016 349.49226 354.05525">20. MBni yaratishning necha xil usuli bor?</tspan></text>
</g>
<clipPath id="cp29681">
<path transform="matrix(1,0,0,-1,0,841.92)" d="M .000008871 0 L 595.32 0 L 595.32 841.92 L .000008871 841.92 Z " fill-rule="evenodd"/>
</clipPath>
<g clip-path="url(#cp29681)">
<text xml:space="preserve" transform="matrix(1 0 -0 1 0 841.92)" font-size="14.04" font-family="Times New Roman"><tspan y="-265.37" x="360.43"> </tspan></text>
</g>
</g>
<g id="Layer-1" data-name="P">
<clipPath id="cp29682">
<path transform="matrix(1,0,0,-1,0,841.92)" d="M .000008871 0 L 595.32 0 L 595.32 841.92 L .000008871 841.92 Z " fill-rule="evenodd"/>
</clipPath>
<g clip-path="url(#cp29682)">
<text xml:space="preserve" transform="matrix(1 0 -0 1 0 841.92)" font-size="14.04" font-family="Times New Roman"><tspan y="-241.13" x="120.5 127.56212 134.62424 138.13423">21. </tspan></text>
</g>
<clipPath id="cp29683">
<path transform="matrix(1,0,0,-1,0,841.92)" d="M .000008871 0 L 595.32 0 L 595.32 841.92 L .000008871 841.92 Z " fill-rule="evenodd"/>
</clipPath>
<g clip-path="url(#cp29683)">
<text xml:space="preserve" transform="matrix(1 0 -0 1 0 841.92)" font-size="14.04" font-family="Times New Roman,Bold" font-weight="bold"><tspan y="-241.13" x="141.5">&#x00ab;</tspan></text>
</g>
</g>
<g id="Layer-1" data-name="P">
<clipPath id="cp29684">
<path transform="matrix(1,0,0,-1,0,841.92)" d="M .000008871 0 L 595.32 0 L 595.32 841.92 L .000008871 841.92 Z " fill-rule="evenodd"/>
</clipPath>
<g clip-path="url(#cp29684)">
<text xml:space="preserve" transform="matrix(1 0 -0 1 0 841.92)" font-size="14.04" font-family="Times New Roman,Bold" font-weight="bold"><tspan y="-241.13" x="148.58 161.7776 168.83972 174.96117 181.91098 188.14475">&#x041c;&#x0430;&#x0441;&#x0442;&#x0435;&#x0440;</tspan></text>
</g>
</g>
<g id="Layer-1" data-name="P">
<clipPath id="cp29685">
<path transform="matrix(1,0,0,-1,0,841.92)" d="M .000008871 0 L 595.32 0 L 595.32 841.92 L .000008871 841.92 Z " fill-rule="evenodd"/>
</clipPath>
<g clip-path="url(#cp29685)">
<text xml:space="preserve" transform="matrix(1 0 -0 1 0 841.92)" font-size="14.04" font-family="Times New Roman,Bold" font-weight="bold"><tspan y="-241.13" x="195.89 202.97">&#x00bb; </tspan></text>
</g>
</g>
<g id="Layer-1" data-name="P">
<clipPath id="cp29686">
<path transform="matrix(1,0,0,-1,0,841.92)" d="M .000008871 0 L 595.32 0 L 595.32 841.92 L .000008871 841.92 Z " fill-rule="evenodd"/>
</clipPath>
<g clip-path="url(#cp29686)">
<text xml:space="preserve" transform="matrix(1 0 -0 1 0 841.92)" font-size="14.04" font-family="Times New Roman"><tspan y="-241.13" x="206.45 211.12532 221.20604 226.61144 230.55667 236.79044 241.35344 244.93364 251.77112 258.83323 263.50856 270.5847 276.81846 287.5029 291.44813 298.51023 304.744 308.254 320.73558 330.10026 333.42774 340.48985 346.61128 353.67338 360.6372 366.87098 373.72248">(Usta) yordamida MB qanday </tspan></text>
</g>
</g>
<g id="Layer-1" data-name="P">
<clipPath id="cp29687">
<path transform="matrix(1,0,0,-1,0,841.92)" d="M .000008871 0 L 595.32 0 L 595.32 841.92 L .000008871 841.92 Z " fill-rule="evenodd"/>
</clipPath>
<g clip-path="url(#cp29687)">
<text xml:space="preserve" transform="matrix(1 0 -0 1 0 841.92)" font-size="14.04" font-family="Times New Roman"><tspan y="-241.13" x="377.47 384.30747 390.54124 395.21656 401.45033 405.40959 409.3548 413.30003 419.42146 426.48356 430.3305">yaratiladi?</tspan></text>
</g>
</g>
<g id="Layer-1" data-name="P">
<clipPath id="cp29688">
<path transform="matrix(1,0,0,-1,0,841.92)" d="M .000008871 0 L 595.32 0 L 595.32 841.92 L .000008871 841.92 Z " fill-rule="evenodd"/>
</clipPath>
<g clip-path="url(#cp29688)">
<text xml:space="preserve" transform="matrix(1 0 -0 1 0 841.92)" font-size="14.04" font-family="Times New Roman"><tspan y="-241.13" x="436.63"> </tspan></text>
</g>
</g>
<g id="Layer-1" data-name="P">
<clipPath id="cp29689">
<path transform="matrix(1,0,0,-1,0,841.92)" d="M .000008871 0 L 595.32 0 L 595.32 841.92 L .000008871 841.92 Z " fill-rule="evenodd"/>
</clipPath>
<g clip-path="url(#cp29689)">
<text xml:space="preserve" transform="matrix(1 0 -0 1 0 841.92)" font-size="14.04" font-family="Times New Roman"><tspan y="-216.98" x="120.5 127.56212 134.62424 138.13423 141.58806 154.06963 163.30796 170.27179 174.21703 177.72702 188.38339 195.44551 200.94919 204.89443 211.12819 218.09203 221.93898 225.88422 229.39421 236.20362 242.5497 247.22502 253.45879 257.30577 261.25099 266.65638 273.71849 277.2285 284.24848 290.398 297.36186 304.42396 311.48606 314.8416 321.90373 328.02516 334.98899 342.0511 348.28486 355.13636 358.64637 362.54948 368.0812 375.04505 378.99028 385.22404 389.78703 396.84913 400.79435 404.1499 411.212 417.44578 421.29273 427.5265 432.08949 436.0347 441.4401 448.5022 452.0122 458.94798 465.18174 469.85707 475.99256 482.9564">22. MBni mustaqil yaratish uchun qanday ishlarni bajarish kerak?</tspan></text>
</g>
<clipPath id="cp29690">
<path transform="matrix(1,0,0,-1,0,841.92)" d="M .000008871 0 L 595.32 0 L 595.32 841.92 L .000008871 841.92 Z " fill-rule="evenodd"/>
</clipPath>
<g clip-path="url(#cp29690)">
<text xml:space="preserve" transform="matrix(1 0 -0 1 0 841.92)" font-size="14.04" font-family="Times New Roman"><tspan y="-216.98" x="489.58"> </tspan></text>
</g>
</g>
<g id="Layer-1" data-name="P">
<clipPath id="cp29691">
<path transform="matrix(1,0,0,-1,0,841.92)" d="M .000008871 0 L 595.32 0 L 595.32 841.92 L .000008871 841.92 Z " fill-rule="evenodd"/>
</clipPath>
<g clip-path="url(#cp29691)">
<text xml:space="preserve" transform="matrix(1 0 -0 1 0 841.92)" font-size="14.04" font-family="Times New Roman"><tspan y="-192.86" x="120.5 127.56212 134.62424 138.13423 141.58806 154.06963 163.30796 170.27179 174.21703 177.72702 184.74703 190.89655 197.86038 201.80562 207.21102 214.27313 217.78313 221.58797 227.82173 232.49706 238.63254 245.47002 252.53214 259.59425 263.53947 270.5033 274.44853 277.95854 284.1923 291.00169 294.9469 298.89213 305.95423 309.30979 316.3719 322.60566 327.16865 331.11387 338.0777 345.1398 348.6498">23. MBni ochish jarayonini aytib bering. </tspan></text>
</g>
<clipPath id="cp29692">
<path transform="matrix(1,0,0,-1,0,841.92)" d="M .000008871 0 L 595.32 0 L 595.32 841.92 L .000008871 841.92 Z " fill-rule="evenodd"/>
</clipPath>
<g clip-path="url(#cp29692)">
<text xml:space="preserve" transform="matrix(1 0 -0 1 0 841.92)" font-size="14.04" font-family="Times New Roman"><tspan y="-192.86" x="352.27"> </tspan></text>
</g>
</g>
</g>
</g>
</svg>
