<?xml version="1.0" encoding="UTF-8" standalone="no"?>
<!DOCTYPE svg PUBLIC "-//W3C//DTD SVG 1.1//EN" "http://www.w3.org/Graphics/SVG/1.1/DTD/svg11.dtd">
<svg xmlns="http://www.w3.org/2000/svg" xmlns:xlink="http://www.w3.org/1999/xlink" version="1.1" width="595.32pt" height="841.92pt" viewBox="0 0 595.32 841.92">
<g enable-background="new">
<g>
<g id="Layer-1" data-name="Artifact">
<clipPath id="cp29821">
<path transform="matrix(1,0,0,-1,0,841.92)" d="M .000008871 0 L 595.32 0 L 595.32 841.92 L .000008871 841.92 Z " fill-rule="evenodd"/>
</clipPath>
<g clip-path="url(#cp29821)">
<text xml:space="preserve" transform="matrix(1 0 -0 1 0 841.92)" font-size="11.04" font-family="Calibri"><tspan y="-51.864" x="314.09 319.72999 325.36997">181</tspan></text>
</g>
<clipPath id="cp29822">
<path transform="matrix(1,0,0,-1,0,841.92)" d="M .000008871 0 L 595.32 0 L 595.32 841.92 L .000008871 841.92 Z " fill-rule="evenodd"/>
</clipPath>
<g clip-path="url(#cp29822)">
<text xml:space="preserve" transform="matrix(1 0 -0 1 0 841.92)" font-size="11.04" font-family="Calibri"><tspan y="-51.864" x="331.03"> </tspan></text>
</g>
<clipPath id="cp29823">
<path transform="matrix(1,0,0,-1,0,841.92)" d="M .000008871 0 L 595.32 0 L 595.32 841.92 L .000008871 841.92 Z " fill-rule="evenodd"/>
</clipPath>
<g clip-path="url(#cp29823)">
</g>
<clipPath id="cp29824">
<path transform="matrix(1,0,0,-1,0,841.92)" d="M .000008871 0 L 595.32 0 L 595.32 841.92 L .000008871 841.92 Z " fill-rule="evenodd"/>
</clipPath>
<g clip-path="url(#cp29824)">
<text xml:space="preserve" transform="matrix(1 0 -0 1 0 841.92)" font-size="11.04" font-family="Calibri"><tspan y="-38.4" x="85.104"> </tspan></text>
</g>
<clipPath id="cp29825">
<path transform="matrix(1,0,0,-1,0,841.92)" d="M .000008871 0 L 595.32 0 L 595.32 841.92 L .000008871 841.92 Z " fill-rule="evenodd"/>
</clipPath>
<g clip-path="url(#cp29825)">
</g>
</g>
<g id="Layer-1" data-name="P">
<clipPath id="cp29826">
<path transform="matrix(1,0,0,-1,0,841.92)" d="M .000008871 0 L 595.32 0 L 595.32 841.92 L .000008871 841.92 Z " fill-rule="evenodd"/>
</clipPath>
<g clip-path="url(#cp29826)">
<text xml:space="preserve" transform="matrix(1 0 -0 1 0 841.92)" font-size="14.04" font-family="Times New Roman,Bold" font-weight="bold"><tspan y="-772.56" x="113.42 124.34312 131.40523 142.93207 150.73831 157.80043 165.60668 170.282 176.51576 182.6372 186.58245 193.54628 199.78005 207.58629 211.53153 219.19736 226.87725 230.7242">Kompyuterlarni bir</tspan></text>
</g>
<clipPath id="cp29827">
<path transform="matrix(1,0,0,-1,0,841.92)" d="M .000008871 0 L 595.32 0 L 595.32 841.92 L .000008871 841.92 Z " fill-rule="evenodd"/>
</clipPath>
<g clip-path="url(#cp29827)">
<text xml:space="preserve" transform="matrix(1 0 -0 1 0 841.92)" font-size="14.04" font-family="Times New Roman,Bold" font-weight="bold"><tspan y="-772.56" x="237.05">-</tspan></text>
</g>
<clipPath id="cp29828">
<path transform="matrix(1,0,0,-1,0,841.92)" d="M .000008871 0 L 595.32 0 L 595.32 841.92 L .000008871 841.92 Z " fill-rule="evenodd"/>
</clipPath>
<g clip-path="url(#cp29828)">
<text xml:space="preserve" transform="matrix(1 0 -0 1 0 841.92)" font-size="14.04" font-family="Times New Roman,Bold" font-weight="bold"><tspan y="-772.56" x="241.73 249.53624 253.48148 259.6029 263.54814 271.214 279.02024 282.85316 286.79838 293.86048 301.66673 309.33259 317.01246 324.07456">biri bilan bog</tspan></text>
</g>
<clipPath id="cp29829">
<path transform="matrix(1,0,0,-1,0,841.92)" d="M .000008871 0 L 595.32 0 L 595.32 841.92 L .000008871 841.92 Z " fill-rule="evenodd"/>
</clipPath>
<g clip-path="url(#cp29829)">
<text xml:space="preserve" transform="matrix(1 0 -0 1 0 841.92)" font-size="14.04" font-family="Times New Roman,Bold" font-weight="bold"><tspan y="-772.56" x="331.15">&#x2019;</tspan></text>
</g>
<clipPath id="cp29830">
<path transform="matrix(1,0,0,-1,0,841.92)" d="M .000008871 0 L 595.32 0 L 595.32 841.92 L .000008871 841.92 Z " fill-rule="evenodd"/>
</clipPath>
<g clip-path="url(#cp29830)">
<text xml:space="preserve" transform="matrix(1 0 -0 1 0 841.92)" font-size="14.04" font-family="Times New Roman,Bold" font-weight="bold"><tspan y="-772.56" x="335.83 339.67695 346.73905 352.14445 359.95069">lash.</tspan></text>
</g>
<clipPath id="cp29831">
<path transform="matrix(1,0,0,-1,0,841.92)" d="M .000008871 0 L 595.32 0 L 595.32 841.92 L .000008871 841.92 Z " fill-rule="evenodd"/>
</clipPath>
<g clip-path="url(#cp29831)">
<text xml:space="preserve" transform="matrix(1 0 -0 1 0 841.92)" font-size="14.04" font-family="Times New Roman"><tspan y="-772.56" x="363.43"> </tspan></text>
</g>
<clipPath id="cp29832">
<path transform="matrix(1,0,0,-1,0,841.92)" d="M .000008871 0 L 595.32 0 L 595.32 841.92 L .000008871 841.92 Z " fill-rule="evenodd"/>
</clipPath>
<g clip-path="url(#cp29832)">
<text xml:space="preserve" transform="matrix(1 0 -0 1 0 841.92)" font-size="14.04" font-family="Times New Roman"><tspan y="-772.56" x="371.11 381.1907 388.37919 399.06364 406.2521 413.08958 420.15168 424.0969 430.33067 434.89366 438.83888 445.07264 449.74797 457.42787 464.48997 469.05296 475.2867 480.8044 484.65138 491.71348 497.94725 505.6131 516.2975">Kompyuterlar orasida ma</tspan></text>
</g>
<clipPath id="cp29833">
<path transform="matrix(1,0,0,-1,0,841.92)" d="M .000008871 0 L 595.32 0 L 595.32 841.92 L .000008871 841.92 Z " fill-rule="evenodd"/>
</clipPath>
<g clip-path="url(#cp29833)">
<text xml:space="preserve" transform="matrix(1 0 -0 1 0 841.92)" font-size="14.04" font-family="Times New Roman"><tspan y="-772.56" x="522.82">&#x2019;</tspan></text>
</g>
<clipPath id="cp29834">
<path transform="matrix(1,0,0,-1,0,841.92)" d="M .000008871 0 L 595.32 0 L 595.32 841.92 L .000008871 841.92 Z " fill-rule="evenodd"/>
</clipPath>
<g clip-path="url(#cp29834)">
<text xml:space="preserve" transform="matrix(1 0 -0 1 0 841.92)" font-size="14.04" font-family="Times New Roman"><tspan y="-772.56" x="527.38 531.32528 538.3874 549.0718 556.1339 559.9809">lumot </tspan></text>
</g>
<clipPath id="cp29835">
<path transform="matrix(1,0,0,-1,0,841.92)" d="M .000008871 0 L 595.32 0 L 595.32 841.92 L .000008871 841.92 Z " fill-rule="evenodd"/>
</clipPath>
<g clip-path="url(#cp29835)">
<text xml:space="preserve" transform="matrix(1 0 -0 1 0 841.92)" font-size="14.04" font-family="Times New Roman"><tspan y="-748.3" x="85.104 91.33775 95.283 105.96744 112.201198 117.71892 124.78104 128.62799 134.13167 141.19379 146.34647 153.3103 159.54407 164.69675 171.75887 182.44332 189.6318 200.31626 204.26149 211.22533 216.49033 227.17478 233.40854 238.92627 245.16004 249.10527 255.33904 259.28428 265.51805 270.08103 277.14314 281.08836 286.24104 293.20487 297.1501 301.71308 308.77519 314.8966 318.84184 322.68879 329.7509 336.71473 342.9485 348.10118 354.93864 361.1724 367.40617 374.4823 378.42753 383.83293 390.89503 396.0477 403.1098 409.23124 416.29335 423.25718 430.31929 435.47196 442.4358 449.4979 460.29466 467.1321 474.1942 478.13945 484.3732 489.04853 493.00779 499.24156 503.80455 510.86665 514.8119 519.9646 526.92849 530.8737">almashish va umumiy masalalarni birgalikda yechish uchun komyuterlarni bir</tspan></text>
</g>
<clipPath id="cp29836">
<path transform="matrix(1,0,0,-1,0,841.92)" d="M .000008871 0 L 595.32 0 L 595.32 841.92 L .000008871 841.92 Z " fill-rule="evenodd"/>
</clipPath>
<g clip-path="url(#cp29836)">
<text xml:space="preserve" transform="matrix(1 0 -0 1 0 841.92)" font-size="14.04" font-family="Times New Roman"><tspan y="-748.3" x="536.14">-</tspan></text>
</g>
<clipPath id="cp29837">
<path transform="matrix(1,0,0,-1,0,841.92)" d="M .000008871 0 L 595.32 0 L 595.32 841.92 L .000008871 841.92 Z " fill-rule="evenodd"/>
</clipPath>
<g clip-path="url(#cp29837)">
<text xml:space="preserve" transform="matrix(1 0 -0 1 0 841.92)" font-size="14.04" font-family="Times New Roman"><tspan y="-748.3" x="540.7 547.6639 551.60916 556.1721 560.0191">biri </tspan></text>
</g>
<clipPath id="cp29838">
<path transform="matrix(1,0,0,-1,0,841.92)" d="M .000008871 0 L 595.32 0 L 595.32 841.92 L .000008871 841.92 Z " fill-rule="evenodd"/>
</clipPath>
<g clip-path="url(#cp29838)">
<text xml:space="preserve" transform="matrix(1 0 -0 1 0 841.92)" font-size="14.04" font-family="Times New Roman"><tspan y="-724.18" x="85.104 92.166118 96.01308 99.95832 106.07976 113.14188 117.3258 124.289638 131.35175">bilan bog</tspan></text>
</g>
<clipPath id="cp29839">
<path transform="matrix(1,0,0,-1,0,841.92)" d="M .000008871 0 L 595.32 0 L 595.32 841.92 L .000008871 841.92 Z " fill-rule="evenodd"/>
</clipPath>
<g clip-path="url(#cp29839)">
<text xml:space="preserve" transform="matrix(1 0 -0 1 0 841.92)" font-size="14.04" font-family="Times New Roman"><tspan y="-724.18" x="138.5">&#x2019;</tspan></text>
</g>
<clipPath id="cp29840">
<path transform="matrix(1,0,0,-1,0,841.92)" d="M .000008871 0 L 595.32 0 L 595.32 841.92 L .000008871 841.92 Z " fill-rule="evenodd"/>
</clipPath>
<g clip-path="url(#cp29840)">
<text xml:space="preserve" transform="matrix(1 0 -0 1 0 841.92)" font-size="14.04" font-family="Times New Roman"><tspan y="-724.18" x="143.06 147.00524 153.12668 158.63036 165.69248 169.87639 175.99784 183.05995 186.9069 190.85214 197.68962 204.75174 208.5987 212.54393 216.72785 223.78997 230.02373 236.87525 243.93737 250.99948 255.1834 262.2455">lash ehtiyoji paydo bo</tspan></text>
</g>
<clipPath id="cp29841">
<path transform="matrix(1,0,0,-1,0,841.92)" d="M .000008871 0 L 595.32 0 L 595.32 841.92 L .000008871 841.92 Z " fill-rule="evenodd"/>
</clipPath>
<g clip-path="url(#cp29841)">
<text xml:space="preserve" transform="matrix(1 0 -0 1 0 841.92)" font-size="14.04" font-family="Times New Roman"><tspan y="-724.18" x="269.57">&#x2019;</tspan></text>
</g>
<clipPath id="cp29842">
<path transform="matrix(1,0,0,-1,0,841.92)" d="M .000008871 0 L 595.32 0 L 595.32 841.92 L .000008871 841.92 Z " fill-rule="evenodd"/>
</clipPath>
<g clip-path="url(#cp29842)">
<text xml:space="preserve" transform="matrix(1 0 -0 1 0 841.92)" font-size="14.04" font-family="Times New Roman"><tspan y="-724.18" x="274.13 278.07524 284.19667 291.1605 295.1057 298.61573 302.77159 312.8523 319.9144 330.59886 337.78733 344.6248 351.6869 355.6321 361.86589 366.5412 370.50047 376.73423 381.2972 388.3593 392.30455 396.37617 403.43827 407.38349">ladi. Kompyuterlarni bir</tspan></text>
</g>
<clipPath id="cp29843">
<path transform="matrix(1,0,0,-1,0,841.92)" d="M .000008871 0 L 595.32 0 L 595.32 841.92 L .000008871 841.92 Z " fill-rule="evenodd"/>
</clipPath>
<g clip-path="url(#cp29843)">
<text xml:space="preserve" transform="matrix(1 0 -0 1 0 841.92)" font-size="14.04" font-family="Times New Roman"><tspan y="-724.18" x="412.27">-</tspan></text>
</g>
<clipPath id="cp29844">
<path transform="matrix(1,0,0,-1,0,841.92)" d="M .000008871 0 L 595.32 0 L 595.32 841.92 L .000008871 841.92 Z " fill-rule="evenodd"/>
</clipPath>
<g clip-path="url(#cp29844)">
<text xml:space="preserve" transform="matrix(1 0 -0 1 0 841.92)" font-size="14.04" font-family="Times New Roman"><tspan y="-724.18" x="416.83 423.79383 427.73905 432.41438 436.3596 440.4312 447.49333 451.34028 455.2855 461.40693 468.46903 472.65296 479.6168 486.6789">biri bilan bog</tspan></text>
</g>
<clipPath id="cp29845">
<path transform="matrix(1,0,0,-1,0,841.92)" d="M .000008871 0 L 595.32 0 L 595.32 841.92 L .000008871 841.92 Z " fill-rule="evenodd"/>
</clipPath>
<g clip-path="url(#cp29845)">
<text xml:space="preserve" transform="matrix(1 0 -0 1 0 841.92)" font-size="14.04" font-family="Times New Roman"><tspan y="-724.18" x="493.9">&#x2019;</tspan></text>
</g>
<clipPath id="cp29846">
<path transform="matrix(1,0,0,-1,0,841.92)" d="M .000008871 0 L 595.32 0 L 595.32 841.92 L .000008871 841.92 Z " fill-rule="evenodd"/>
</clipPath>
<g clip-path="url(#cp29846)">
<text xml:space="preserve" transform="matrix(1 0 -0 1 0 841.92)" font-size="14.04" font-family="Times New Roman"><tspan y="-724.18" x="498.46 502.4052 508.52665 514.03036 520.9942 528.05636 534.2901 538.4881 542.3351 549.29898 556.2628 559.98348">lashda ikki </tspan></text>
</g>
<clipPath id="cp29847">
<path transform="matrix(1,0,0,-1,0,841.92)" d="M .000008871 0 L 595.32 0 L 595.32 841.92 L .000008871 841.92 Z " fill-rule="evenodd"/>
</clipPath>
<g clip-path="url(#cp29847)">
<text xml:space="preserve" transform="matrix(1 0 -0 1 0 841.92)" font-size="14.04" font-family="Times New Roman"><tspan y="-700.06" x="85.104 92.166118 96.01308 99.95832 103.46832 110.404079 115.80948 122.8716 126.71856 133.78067 139.90212 146.96424 150.47423 155.14955 162.16956 169.04917">xil usuldan foyd</tspan></text>
</g>
<clipPath id="cp29848">
<path transform="matrix(1,0,0,-1,0,841.92)" d="M .000008871 0 L 595.32 0 L 595.32 841.92 L .000008871 841.92 Z " fill-rule="evenodd"/>
</clipPath>
<g clip-path="url(#cp29848)">
<text xml:space="preserve" transform="matrix(1 0 -0 1 0 841.92)" font-size="14.04" font-family="Times New Roman"><tspan y="-700.06" x="176.18 182.41376 186.26071 192.49448 199.45832 203.30527 207.15222 213.38599 220.46216 224.30912">alaniladi:</tspan></text>
</g>
<clipPath id="cp29849">
<path transform="matrix(1,0,0,-1,0,841.92)" d="M .000008871 0 L 595.32 0 L 595.32 841.92 L .000008871 841.92 Z " fill-rule="evenodd"/>
</clipPath>
<g clip-path="url(#cp29849)">
<text xml:space="preserve" transform="matrix(1 0 -0 1 0 841.92)" font-size="14.04" font-family="Times New Roman"><tspan y="-700.06" x="228.17"> </tspan></text>
</g>
</g>
<g id="Layer-1" data-name="P">
<clipPath id="cp29850">
<path transform="matrix(1,0,0,-1,0,841.92)" d="M .000008871 0 L 595.32 0 L 595.32 841.92 L .000008871 841.92 Z " fill-rule="evenodd"/>
</clipPath>
<g clip-path="url(#cp29850)">
<text xml:space="preserve" transform="matrix(1 0 -0 1 0 841.92)" font-size="14.04" font-family="Times New Roman,Bold" font-weight="bold"><tspan y="-675.94" x="113.42">1</tspan></text>
</g>
<clipPath id="cp29851">
<path transform="matrix(1,0,0,-1,0,841.92)" d="M .000008871 0 L 595.32 0 L 595.32 841.92 L .000008871 841.92 Z " fill-rule="evenodd"/>
</clipPath>
<g clip-path="url(#cp29851)">
<text xml:space="preserve" transform="matrix(1 0 -0 1 0 841.92)" font-size="14.04" font-family="Times New Roman"><tspan y="-675.94" x="120.5 123.98">. </tspan></text>
</g>
<clipPath id="cp29852">
<path transform="matrix(1,0,0,-1,0,841.92)" d="M .000008871 0 L 595.32 0 L 595.32 841.92 L .000008871 841.92 Z " fill-rule="evenodd"/>
</clipPath>
<g clip-path="url(#cp29852)">
<text xml:space="preserve" transform="matrix(1 0 -0 1 0 841.92)" font-size="14.04" font-family="Times New Roman,Bold" font-weight="bold"><tspan y="-675.94" x="130.34 141.26313 148.32524 156.00513 162.23889 166.18413 172.40384 179.46596 186.52808 192.64952 200.45577 207.51789 219.04473 222.98996 230.66985 237.73197 244.07804 251.88428 258.83409">Kabel yordamida bog</tspan></text>
</g>
<clipPath id="cp29853">
<path transform="matrix(1,0,0,-1,0,841.92)" d="M .000008871 0 L 595.32 0 L 595.32 841.92 L .000008871 841.92 Z " fill-rule="evenodd"/>
</clipPath>
<g clip-path="url(#cp29853)">
<text xml:space="preserve" transform="matrix(1 0 -0 1 0 841.92)" font-size="14.04" font-family="Times New Roman,Bold" font-weight="bold"><tspan y="-675.94" x="266.09">&#x2019;</tspan></text>
</g>
<clipPath id="cp29854">
<path transform="matrix(1,0,0,-1,0,841.92)" d="M .000008871 0 L 595.32 0 L 595.32 841.92 L .000008871 841.92 Z " fill-rule="evenodd"/>
</clipPath>
<g clip-path="url(#cp29854)">
<text xml:space="preserve" transform="matrix(1 0 -0 1 0 841.92)" font-size="14.04" font-family="Times New Roman,Bold" font-weight="bold"><tspan y="-675.94" x="270.65 274.5952 281.55906 287.0627 294.86897">lash.</tspan></text>
</g>
<clipPath id="cp29855">
<path transform="matrix(1,0,0,-1,0,841.92)" d="M .000008871 0 L 595.32 0 L 595.32 841.92 L .000008871 841.92 Z " fill-rule="evenodd"/>
</clipPath>
<g clip-path="url(#cp29855)">
<text xml:space="preserve" transform="matrix(1 0 -0 1 0 841.92)" font-size="14.04" font-family="Times New Roman"><tspan y="-675.94" x="298.37"> </tspan></text>
</g>
<clipPath id="cp29856">
<path transform="matrix(1,0,0,-1,0,841.92)" d="M .000008871 0 L 595.32 0 L 595.32 841.92 L .000008871 841.92 Z " fill-rule="evenodd"/>
</clipPath>
<g clip-path="url(#cp29856)">
<text xml:space="preserve" transform="matrix(1 0 -0 1 0 841.92)" font-size="14.04" font-family="Times New Roman"><tspan y="-675.94" x="304.73 314.0947 321.0445 328.00834 335.07044 341.3042 347.53797 354.60008 361.66218 372.34663 379.40873 386.2462 393.3083 397.2535 403.48728 408.1626 412.12187 418.35563 423.03096 429.2647 436.3268 440.17378">Bunda kompyuterlar bir</tspan></text>
</g>
<clipPath id="cp29857">
<path transform="matrix(1,0,0,-1,0,841.92)" d="M .000008871 0 L 595.32 0 L 595.32 841.92 L .000008871 841.92 Z " fill-rule="evenodd"/>
</clipPath>
<g clip-path="url(#cp29857)">
<text xml:space="preserve" transform="matrix(1 0 -0 1 0 841.92)" font-size="14.04" font-family="Times New Roman"><tspan y="-675.94" x="445.06">-</tspan></text>
</g>
<clipPath id="cp29858">
<path transform="matrix(1,0,0,-1,0,841.92)" d="M .000008871 0 L 595.32 0 L 595.32 841.92 L .000008871 841.92 Z " fill-rule="evenodd"/>
</clipPath>
<g clip-path="url(#cp29858)">
<text xml:space="preserve" transform="matrix(1 0 -0 1 0 841.92)" font-size="14.04" font-family="Times New Roman"><tspan y="-675.94" x="449.74 456.70384 460.64906 465.21205 469.059 475.4051 482.4672 486.31416 490.25938 496.49314 503.56929 509.789 516.75289 523.815 530.04879 537.01266 542.418 546.3633 552.59707 556.5423 559.8979">biri bilan koaksial, </tspan></text>
</g>
<clipPath id="cp29859">
<path transform="matrix(1,0,0,-1,0,841.92)" d="M .000008871 0 L 595.32 0 L 595.32 841.92 L .000008871 841.92 Z " fill-rule="evenodd"/>
</clipPath>
<g clip-path="url(#cp29859)">
<text xml:space="preserve" transform="matrix(1 0 -0 1 0 841.92)" font-size="14.04" font-family="Times New Roman"><tspan y="-651.7" x="85.104">o</tspan></text>
</g>
<clipPath id="cp29860">
<path transform="matrix(1,0,0,-1,0,841.92)" d="M .000008871 0 L 595.32 0 L 595.32 841.92 L .000008871 841.92 Z " fill-rule="evenodd"/>
</clipPath>
<g clip-path="url(#cp29860)">
<text xml:space="preserve" transform="matrix(1 0 -0 1 0 841.92)" font-size="14.04" font-family="Times New Roman"><tspan y="-651.7" x="92.184">&#x2019;</tspan></text>
</g>
<clipPath id="cp29861">
<path transform="matrix(1,0,0,-1,0,841.92)" d="M .000008871 0 L 595.32 0 L 595.32 841.92 L .000008871 841.92 Z " fill-rule="evenodd"/>
</clipPath>
<g clip-path="url(#cp29861)">
<text xml:space="preserve" transform="matrix(1 0 -0 1 0 841.92)" font-size="14.04" font-family="Times New Roman"><tspan y="-651.7" x="96.744 101.41933 107.65308 111.612369 118.5762 124.80996 131.88613 136.30872 140.02931 147.09143 151.76676 155.61371 159.55895 163.4059 170.46802 174.77829 181.84041 187.96186 195.02397 201.25774 205.10469 209.04993 213.47252 218.14785 228.22856 236.75084 244.55709 249.2324 253.655 260.49247 267.55458 274.61668 278.5619 282.8722 288.37586 295.3397 299.18666 304.6903 311.7524 317.98619 322.29649 326.14344 333.20555 337.15077 343.2722 347.11915 351.06437 355.48698 362.4508 368.68458 375.7607 381.88215 385.7291 389.67433 395.90809 400.5834 404.8937 411.9558 416.63114 423.59498 429.82875 433.6757 437.6209 441.9312 452.72798 458.96174 466.03788 471.54154 478.50538 484.00904 488.31935 492.26457 498.49833 503.17366 513.85806 520.92019 527.9823 532.4049 539.3688 543.314 549.4355 553.2825 559.40396">ralgan juftlik kabeli (UTP) yoki shisha tolali kabellar orqali maxsus tarmoq plata </tspan></text>
</g>
<clipPath id="cp29862">
<path transform="matrix(1,0,0,-1,0,841.92)" d="M .000008871 0 L 595.32 0 L 595.32 841.92 L .000008871 841.92 Z " fill-rule="evenodd"/>
</clipPath>
<g clip-path="url(#cp29862)">
<text xml:space="preserve" transform="matrix(1 0 -0 1 0 841.92)" font-size="14.04" font-family="Times New Roman"><tspan y="-627.58" x="85.104 91.941478 99.00359 103.67892 110.75507 116.98883 127.67327 131.6185 138.68062 144.91439 148.42438 155.44438 162.46439">yordamida bog</tspan></text>
</g>
<clipPath id="cp29863">
<path transform="matrix(1,0,0,-1,0,841.92)" d="M .000008871 0 L 595.32 0 L 595.32 841.92 L .000008871 841.92 Z " fill-rule="evenodd"/>
</clipPath>
<g clip-path="url(#cp29863)">
<text xml:space="preserve" transform="matrix(1 0 -0 1 0 841.92)" font-size="14.04" font-family="Times New Roman"><tspan y="-627.58" x="169.58">&#x2019;</tspan></text>
</g>
<clipPath id="cp29864">
<path transform="matrix(1,0,0,-1,0,841.92)" d="M .000008871 0 L 595.32 0 L 595.32 841.92 L .000008871 841.92 Z " fill-rule="evenodd"/>
</clipPath>
<g clip-path="url(#cp29864)">
<text xml:space="preserve" transform="matrix(1 0 -0 1 0 841.92)" font-size="14.04" font-family="Times New Roman"><tspan y="-627.58" x="174.14 178.08524 184.319 191.28284 197.5166 204.48044 208.42568">lanadi.</tspan></text>
</g>
<clipPath id="cp29865">
<path transform="matrix(1,0,0,-1,0,841.92)" d="M .000008871 0 L 595.32 0 L 595.32 841.92 L .000008871 841.92 Z " fill-rule="evenodd"/>
</clipPath>
<g clip-path="url(#cp29865)">
<text xml:space="preserve" transform="matrix(1 0 -0 1 0 841.92)" font-size="14.04" font-family="Times New Roman"><tspan y="-627.58" x="211.97"> </tspan></text>
</g>
</g>
<g id="Layer-1" data-name="P">
<clipPath id="cp29866">
<path transform="matrix(1,0,0,-1,0,841.92)" d="M .000008871 0 L 595.32 0 L 595.32 841.92 L .000008871 841.92 Z " fill-rule="evenodd"/>
</clipPath>
<g clip-path="url(#cp29866)">
<text xml:space="preserve" transform="matrix(1 0 -0 1 0 841.92)" font-size="14.04" font-family="Times New Roman,Bold" font-weight="bold"><tspan y="-603.46" x="113.42">2</tspan></text>
</g>
<clipPath id="cp29867">
<path transform="matrix(1,0,0,-1,0,841.92)" d="M .000008871 0 L 595.32 0 L 595.32 841.92 L .000008871 841.92 Z " fill-rule="evenodd"/>
</clipPath>
<g clip-path="url(#cp29867)">
<text xml:space="preserve" transform="matrix(1 0 -0 1 0 841.92)" font-size="14.04" font-family="Times New Roman"><tspan y="-603.46" x="120.5 123.98">. </tspan></text>
</g>
<clipPath id="cp29868">
<path transform="matrix(1,0,0,-1,0,841.92)" d="M .000008871 0 L 595.32 0 L 595.32 841.92 L .000008871 841.92 Z " fill-rule="evenodd"/>
</clipPath>
<g clip-path="url(#cp29868)">
<text xml:space="preserve" transform="matrix(1 0 -0 1 0 841.92)" font-size="14.04" font-family="Times New Roman,Bold" font-weight="bold"><tspan y="-603.46" x="128.18 135.98624 139.93148 151.45832 156.96199 160.80895 167.04271 171.24066 178.92055 185.98267">Simsiz bog</tspan></text>
</g>
<clipPath id="cp29869">
<path transform="matrix(1,0,0,-1,0,841.92)" d="M .000008871 0 L 595.32 0 L 595.32 841.92 L .000008871 841.92 Z " fill-rule="evenodd"/>
</clipPath>
<g clip-path="url(#cp29869)">
<text xml:space="preserve" transform="matrix(1 0 -0 1 0 841.92)" font-size="14.04" font-family="Times New Roman,Bold" font-weight="bold"><tspan y="-603.46" x="193.01">&#x2019;</tspan></text>
</g>
<clipPath id="cp29870">
<path transform="matrix(1,0,0,-1,0,841.92)" d="M .000008871 0 L 595.32 0 L 595.32 841.92 L .000008871 841.92 Z " fill-rule="evenodd"/>
</clipPath>
<g clip-path="url(#cp29870)">
<text xml:space="preserve" transform="matrix(1 0 -0 1 0 841.92)" font-size="14.04" font-family="Times New Roman,Bold" font-weight="bold"><tspan y="-603.46" x="197.69 201.53696 208.59908 216.40532 220.23824 225.74192">lanish</tspan></text>
</g>
<clipPath id="cp29871">
<path transform="matrix(1,0,0,-1,0,841.92)" d="M .000008871 0 L 595.32 0 L 595.32 841.92 L .000008871 841.92 Z " fill-rule="evenodd"/>
</clipPath>
<g clip-path="url(#cp29871)">
<text xml:space="preserve" transform="matrix(1 0 -0 1 0 841.92)" font-size="14.04" font-family="Times New Roman"><tspan y="-603.46" x="233.45 236.95999 241.11583 250.48052 257.43034 264.49244 271.55455 277.67597 281.8599 288.82374 295.88584 306.57029 313.6324 320.46986 327.53196 331.47718 337.71095 342.38627 346.34553 352.46696 357.14228 361.3262 368.29005 372.23527">. Bunda kompyuterlar bir</tspan></text>
</g>
<clipPath id="cp29872">
<path transform="matrix(1,0,0,-1,0,841.92)" d="M .000008871 0 L 595.32 0 L 595.32 841.92 L .000008871 841.92 Z " fill-rule="evenodd"/>
</clipPath>
<g clip-path="url(#cp29872)">
<text xml:space="preserve" transform="matrix(1 0 -0 1 0 841.92)" font-size="14.04" font-family="Times New Roman"><tspan y="-603.46" x="377.11">-</tspan></text>
</g>
<clipPath id="cp29873">
<path transform="matrix(1,0,0,-1,0,841.92)" d="M .000008871 0 L 595.32 0 L 595.32 841.92 L .000008871 841.92 Z " fill-rule="evenodd"/>
</clipPath>
<g clip-path="url(#cp29873)">
<text xml:space="preserve" transform="matrix(1 0 -0 1 0 841.92)" font-size="14.04" font-family="Times New Roman"><tspan y="-603.46" x="381.67 388.73213 392.67735 397.24034 401.18556 405.25718 412.31929 416.16624 420.11146 426.23289 433.29499 437.3666 442.87028 446.8155 457.49995 463.0036 466.94883 473.07026 477.25419 483.48796">biri bilan simsiz al</tspan></text>
</g>
<clipPath id="cp29874">
<path transform="matrix(1,0,0,-1,0,841.92)" d="M .000008871 0 L 595.32 0 L 595.32 841.92 L .000008871 841.92 Z " fill-rule="evenodd"/>
</clipPath>
<g clip-path="url(#cp29874)">
<text xml:space="preserve" transform="matrix(1 0 -0 1 0 841.92)" font-size="14.04" font-family="Times New Roman"><tspan y="-603.46" x="487.54 494.6021 501.56596 507.7997 511.87135 518.9335 525.89736 531.401 535.248 539.19326 545.3147 549.25997 555.3814 559.9444">oqa vositalar </tspan></text>
</g>
<clipPath id="cp29875">
<path transform="matrix(1,0,0,-1,0,841.92)" d="M .000008871 0 L 595.32 0 L 595.32 841.92 L .000008871 841.92 Z " fill-rule="evenodd"/>
</clipPath>
<g clip-path="url(#cp29875)">
<text xml:space="preserve" transform="matrix(1 0 -0 1 0 841.92)" font-size="14.04" font-family="Times New Roman"><tspan y="-579.34" x="85.104 91.941478 99.00359 103.67892 110.75507 116.98883 127.67327 131.6185 138.68062 144.91439 148.42438 162.54862 169.3861">yordamida, ya</tspan></text>
</g>
<clipPath id="cp29876">
<path transform="matrix(1,0,0,-1,0,841.92)" d="M .000008871 0 L 595.32 0 L 595.32 841.92 L .000008871 841.92 Z " fill-rule="evenodd"/>
</clipPath>
<g clip-path="url(#cp29876)">
<text xml:space="preserve" transform="matrix(1 0 -0 1 0 841.92)" font-size="14.04" font-family="Times New Roman"><tspan y="-579.34" x="175.82">&#x2019;</tspan></text>
</g>
<clipPath id="cp29877">
<path transform="matrix(1,0,0,-1,0,841.92)" d="M .000008871 0 L 595.32 0 L 595.32 841.92 L .000008871 841.92 Z " fill-rule="evenodd"/>
</clipPath>
<g clip-path="url(#cp29877)">
<text xml:space="preserve" transform="matrix(1 0 -0 1 0 841.92)" font-size="14.04" font-family="Times New Roman"><tspan y="-579.34" x="180.38 187.44213 191.38736 205.41332 210.08864 216.3224 223.3003 227.24553 234.30765 248.3336 252.18056">ni radio to</tspan></text>
</g>
<clipPath id="cp29878">
<path transform="matrix(1,0,0,-1,0,841.92)" d="M .000008871 0 L 595.32 0 L 595.32 841.92 L .000008871 841.92 Z " fill-rule="evenodd"/>
</clipPath>
<g clip-path="url(#cp29878)">
<text xml:space="preserve" transform="matrix(1 0 -0 1 0 841.92)" font-size="14.04" font-family="Times New Roman"><tspan y="-579.34" x="259.37">&#x2019;</tspan></text>
</g>
<clipPath id="cp29879">
<path transform="matrix(1,0,0,-1,0,841.92)" d="M .000008871 0 L 595.32 0 L 595.32 841.92 L .000008871 841.92 Z " fill-rule="evenodd"/>
</clipPath>
<g clip-path="url(#cp29879)">
<text xml:space="preserve" transform="matrix(1 0 -0 1 0 841.92)" font-size="14.04" font-family="Times New Roman"><tspan y="-579.34" x="263.93 267.8752 274.83906 278.78428 285.7481 289.69334 295.9271 300.60243 304.11244 318.12437 321.9713 329.03343 333.70875 338.38407 344.51957 351.58168 355.42863 361.66239 365.50935 369.45457 383.48054 390.54264 397.50648 402.1818 406.127 412.24845 416.92378 420.43379 434.43168 447.51695 451.46217 459.2684 463.21363 477.2396 484.3017 490.53547 504.56144 513.9261 517.87136 524.9335 531.05496 534.9019 541.96408 548.9279 552.7749 559.7388">lqinlar, infraqizil nurlar, WiFi va Bluetooth </tspan></text>
</g>
<clipPath id="cp29880">
<path transform="matrix(1,0,0,-1,0,841.92)" d="M .000008871 0 L 595.32 0 L 595.32 841.92 L .000008871 841.92 Z " fill-rule="evenodd"/>
</clipPath>
<g clip-path="url(#cp29880)">
<text xml:space="preserve" transform="matrix(1 0 -0 1 0 841.92)" font-size="14.04" font-family="Times New Roman"><tspan y="-555.07" x="85.104 89.04924 95.283 102.24683 109.21067 116.27279 120.11975 127.08359 134.1457 138.09095 144.92842 151.16219 155.10742 161.34119 165.90419 169.84943 173.35942 180.16883 187.23094 191.90627 198.98244 205.10388 215.78833 219.73357 226.79569 233.02945 236.53945 243.55945 250.57946">texnologiyalari yordamida bog</tspan></text>
</g>
<clipPath id="cp29881">
<path transform="matrix(1,0,0,-1,0,841.92)" d="M .000008871 0 L 595.32 0 L 595.32 841.92 L .000008871 841.92 Z " fill-rule="evenodd"/>
</clipPath>
<g clip-path="url(#cp29881)">
<text xml:space="preserve" transform="matrix(1 0 -0 1 0 841.92)" font-size="14.04" font-family="Times New Roman"><tspan y="-555.07" x="257.81">&#x2019;</tspan></text>
</g>
<clipPath id="cp29882">
<path transform="matrix(1,0,0,-1,0,841.92)" d="M .000008871 0 L 595.32 0 L 595.32 841.92 L .000008871 841.92 Z " fill-rule="evenodd"/>
</clipPath>
<g clip-path="url(#cp29882)">
<text xml:space="preserve" transform="matrix(1 0 -0 1 0 841.92)" font-size="14.04" font-family="Times New Roman"><tspan y="-555.07" x="262.37 266.31523 272.54899 279.62513 285.74656 292.7104 296.6556">lanadi.</tspan></text>
</g>
<clipPath id="cp29883">
<path transform="matrix(1,0,0,-1,0,841.92)" d="M .000008871 0 L 595.32 0 L 595.32 841.92 L .000008871 841.92 Z " fill-rule="evenodd"/>
</clipPath>
<g clip-path="url(#cp29883)">
<text xml:space="preserve" transform="matrix(1 0 -0 1 0 841.92)" font-size="14.04" font-family="Times New Roman"><tspan y="-555.07" x="300.17"> </tspan></text>
</g>
</g>
<g id="Layer-1" data-name="P">
<clipPath id="cp29884">
<path transform="matrix(1,0,0,-1,0,841.92)" d="M .000008871 0 L 595.32 0 L 595.32 841.92 L .000008871 841.92 Z " fill-rule="evenodd"/>
</clipPath>
<g clip-path="url(#cp29884)">
<text xml:space="preserve" transform="matrix(1 0 -0 1 0 841.92)" font-size="14.04" font-family="Times New Roman"><tspan y="-530.95" x="113.42 122.784679 126.72992">Bir</tspan></text>
</g>
<clipPath id="cp29885">
<path transform="matrix(1,0,0,-1,0,841.92)" d="M .000008871 0 L 595.32 0 L 595.32 841.92 L .000008871 841.92 Z " fill-rule="evenodd"/>
</clipPath>
<g clip-path="url(#cp29885)">
<text xml:space="preserve" transform="matrix(1 0 -0 1 0 841.92)" font-size="14.04" font-family="Times New Roman"><tspan y="-530.95" x="131.42">-</tspan></text>
</g>
<clipPath id="cp29886">
<path transform="matrix(1,0,0,-1,0,841.92)" d="M .000008871 0 L 595.32 0 L 595.32 841.92 L .000008871 841.92 Z " fill-rule="evenodd"/>
</clipPath>
<g clip-path="url(#cp29886)">
<text xml:space="preserve" transform="matrix(1 0 -0 1 0 841.92)" font-size="14.04" font-family="Times New Roman"><tspan y="-530.95" x="135.98 143.04212 146.98735 151.55036 155.49559 164.84622 171.90834 175.7553 179.70053 185.82198 192.8841 202.34705 209.31089 216.373">biri bilan bog</tspan></text>
</g>
<clipPath id="cp29887">
<path transform="matrix(1,0,0,-1,0,841.92)" d="M .000008871 0 L 595.32 0 L 595.32 841.92 L .000008871 841.92 Z " fill-rule="evenodd"/>
</clipPath>
<g clip-path="url(#cp29887)">
<text xml:space="preserve" transform="matrix(1 0 -0 1 0 841.92)" font-size="14.04" font-family="Times New Roman"><tspan y="-530.95" x="223.61">&#x2019;</tspan></text>
</g>
<clipPath id="cp29888">
<path transform="matrix(1,0,0,-1,0,841.92)" d="M .000008871 0 L 595.32 0 L 595.32 841.92 L .000008871 841.92 Z " fill-rule="evenodd"/>
</clipPath>
<g clip-path="url(#cp29888)">
<text xml:space="preserve" transform="matrix(1 0 -0 1 0 841.92)" font-size="14.04" font-family="Times New Roman"><tspan y="-530.95" x="228.17 232.01696 238.25072 245.21456 252.27667 258.51045 265.58659 274.93724 281.90107 288.96318 299.6476 306.8361 313.67356 320.73567 324.68089 330.91465 335.58998 339.43693 345.6707 350.23368 357.29579 361.14274 368.10658 375.16868 384.63166 391.5955 398.6576 405.62144 412.68354 418.9173 425.7688 435.35813 446.04258 452.27635 456.22157 467.14469 474.2068 480.44056 485.84596 489.79118 499.1418 506.20393 513.26608 523.95046 531.0126 537.8501 544.91226 548.8575 555.09127 559.65426">langan kompyuterlarning bunday majmuasi kompyuter </tspan></text>
</g>
<clipPath id="cp29889">
<path transform="matrix(1,0,0,-1,0,841.92)" d="M .000008871 0 L 595.32 0 L 595.32 841.92 L .000008871 841.92 Z " fill-rule="evenodd"/>
</clipPath>
<g clip-path="url(#cp29889)">
<text xml:space="preserve" transform="matrix(1 0 -0 1 0 841.92)" font-size="14.04" font-family="Times New Roman"><tspan y="-506.83" x="85.104 89.04924 95.283 99.95832 110.64276 117.70488">tarmog</tspan></text>
</g>
<clipPath id="cp29890">
<path transform="matrix(1,0,0,-1,0,841.92)" d="M .000008871 0 L 595.32 0 L 595.32 841.92 L .000008871 841.92 Z " fill-rule="evenodd"/>
</clipPath>
<g clip-path="url(#cp29890)">
<text xml:space="preserve" transform="matrix(1 0 -0 1 0 841.92)" font-size="14.04" font-family="Times New Roman"><tspan y="-506.83" x="124.82">&#x2019;</tspan></text>
</g>
<clipPath id="cp29891">
<path transform="matrix(1,0,0,-1,0,841.92)" d="M .000008871 0 L 595.32 0 L 595.32 841.92 L .000008871 841.92 Z " fill-rule="evenodd"/>
</clipPath>
<g clip-path="url(#cp29891)">
<text xml:space="preserve" transform="matrix(1 0 -0 1 0 841.92)" font-size="14.04" font-family="Times New Roman"><tspan y="-506.83" x="129.38 133.32524 140.38736 144.3326 147.68816 151.63339 157.75484 163.25852 170.22235 177.18619 181.13143 185.07666 188.58666 194.68003 198.62526 204.7467 211.80883 215.75406">ini tashkil etadi.</tspan></text>
</g>
</g>
<g id="Layer-1" data-name="P">
<clipPath id="cp29892">
<path transform="matrix(1,0,0,-1,0,841.92)" d="M .000008871 0 L 595.32 0 L 595.32 841.92 L .000008871 841.92 Z " fill-rule="evenodd"/>
</clipPath>
<g clip-path="url(#cp29892)">
<text xml:space="preserve" transform="matrix(1 0 -0 1 0 841.92)" font-size="14.04" font-family="Times New Roman"><tspan y="-506.83" x="219.29"> </tspan></text>
</g>
</g>
<g id="Layer-1" data-name="P">
<clipPath id="cp29893">
<path transform="matrix(1,0,0,-1,0,841.92)" d="M .000008871 0 L 595.32 0 L 595.32 841.92 L .000008871 841.92 Z " fill-rule="evenodd"/>
</clipPath>
<g clip-path="url(#cp29893)">
<text xml:space="preserve" transform="matrix(1 0 -0 1 0 841.92)" font-size="14.04" font-family="Times New Roman"><tspan y="-482.71" x="113.42 121.942279 128.17604 132.96369 143.64813 150.71025 157.77237">Tarmoq </tspan></text>
</g>
<clipPath id="cp29894">
<path transform="matrix(1,0,0,-1,0,841.92)" d="M .000008871 0 L 595.32 0 L 595.32 841.92 L .000008871 841.92 Z " fill-rule="evenodd"/>
</clipPath>
<g clip-path="url(#cp29894)">
<text xml:space="preserve" transform="matrix(1 0 -0 1 0 841.92)" font-size="14.04" font-family="Times New Roman"><tspan y="-482.71" x="167.3">-</tspan></text>
</g>
<clipPath id="cp29895">
<path transform="matrix(1,0,0,-1,0,841.92)" d="M .000008871 0 L 595.32 0 L 595.32 841.92 L .000008871 841.92 Z " fill-rule="evenodd"/>
</clipPath>
<g clip-path="url(#cp29895)">
<text xml:space="preserve" transform="matrix(1 0 -0 1 0 841.92)" font-size="14.04" font-family="Times New Roman"><tspan y="-482.71" x="171.98"> </tspan></text>
</g>
<clipPath id="cp29896">
<path transform="matrix(1,0,0,-1,0,841.92)" d="M .000008871 0 L 595.32 0 L 595.32 841.92 L .000008871 841.92 Z " fill-rule="evenodd"/>
</clipPath>
<g clip-path="url(#cp29896)">
<text xml:space="preserve" transform="matrix(1 0 -0 1 0 841.92)" font-size="14.04" font-family="Times New Roman"><tspan y="-482.71" x="181.46 188.52213 195.58425 206.26869 213.33081 220.16829 227.23041 231.17565 237.40941 242.08473 246.04402 252.27779 256.9531 260.4631 269.91206 273.85728 279.9787 284.65403 295.33848 299.2837 306.3458 312.57957 316.4265 320.37174 326.6055 331.28083 340.75785 347.72169">kompyuterlar, terminallar va</tspan></text>
</g>
<clipPath id="cp29897">
<path transform="matrix(1,0,0,-1,0,841.92)" d="M .000008871 0 L 595.32 0 L 595.32 841.92 L .000008871 841.92 Z " fill-rule="evenodd"/>
</clipPath>
<g clip-path="url(#cp29897)">
<text xml:space="preserve" transform="matrix(1 0 -0 1 0 841.92)" font-size="14.04" font-family="Times New Roman"><tspan y="-482.71" x="354.19"> </tspan></text>
</g>
<clipPath id="cp29898">
<path transform="matrix(1,0,0,-1,0,841.92)" d="M .000008871 0 L 595.32 0 L 595.32 841.92 L .000008871 841.92 Z " fill-rule="evenodd"/>
</clipPath>
<g clip-path="url(#cp29898)">
<text xml:space="preserve" transform="matrix(1 0 -0 1 0 841.92)" font-size="14.04" font-family="Times New Roman"><tspan y="-482.71" x="363.67 370.73213 377.69596 383.19963 390.16346 397.22557 403.45933 412.93635 419.90019 426.96229 431.52528 435.4705 439.4157 450.10017 456.33393 460.27915 466.40058 471.0759 478.15205 481.999 488.96284 496.02494 505.4879 516.1723">boshqa qurilmalarning ma</tspan></text>
</g>
<clipPath id="cp29899">
<path transform="matrix(1,0,0,-1,0,841.92)" d="M .000008871 0 L 595.32 0 L 595.32 841.92 L .000008871 841.92 Z " fill-rule="evenodd"/>
</clipPath>
<g clip-path="url(#cp29899)">
<text xml:space="preserve" transform="matrix(1 0 -0 1 0 841.92)" font-size="14.04" font-family="Times New Roman"><tspan y="-482.71" x="522.7">&#x2019;</tspan></text>
</g>
<clipPath id="cp29900">
<path transform="matrix(1,0,0,-1,0,841.92)" d="M .000008871 0 L 595.32 0 L 595.32 841.92 L .000008871 841.92 Z " fill-rule="evenodd"/>
</clipPath>
<g clip-path="url(#cp29900)">
<text xml:space="preserve" transform="matrix(1 0 -0 1 0 841.92)" font-size="14.04" font-family="Times New Roman"><tspan y="-482.71" x="527.26 531.20529 538.39376 549.0781 556.14028 559.98727">lumot </tspan></text>
</g>
<clipPath id="cp29901">
<path transform="matrix(1,0,0,-1,0,841.92)" d="M .000008871 0 L 595.32 0 L 595.32 841.92 L .000008871 841.92 Z " fill-rule="evenodd"/>
</clipPath>
<g clip-path="url(#cp29901)">
<text xml:space="preserve" transform="matrix(1 0 -0 1 0 841.92)" font-size="14.04" font-family="Times New Roman"><tspan y="-458.47" x="85.104 91.33775 95.283 105.96744 112.201198 117.71892 124.78104 128.62799 134.13167 141.0955 148.05934 152.00458 162.07126 166.0165">almashishni ta</tspan></text>
</g>
<clipPath id="cp29902">
<path transform="matrix(1,0,0,-1,0,841.92)" d="M .000008871 0 L 595.32 0 L 595.32 841.92 L .000008871 841.92 Z " fill-rule="evenodd"/>
</clipPath>
<g clip-path="url(#cp29902)">
<text xml:space="preserve" transform="matrix(1 0 -0 1 0 841.92)" font-size="14.04" font-family="Times New Roman"><tspan y="-458.47" x="172.34">&#x2019;</tspan></text>
</g>
<clipPath id="cp29903">
<path transform="matrix(1,0,0,-1,0,841.92)" d="M .000008871 0 L 595.32 0 L 595.32 841.92 L .000008871 841.92 Z " fill-rule="evenodd"/>
</clipPath>
<g clip-path="url(#cp29903)">
<text xml:space="preserve" transform="matrix(1 0 -0 1 0 841.92)" font-size="14.04" font-family="Times New Roman"><tspan y="-458.47" x="177.02 187.70446 191.64969 198.7118 202.55876 208.79253 215.64405 222.70616 226.6514 233.71352 239.83496 246.89708 256.96376 263.1975 267.04447 274.10658 281.16868 287.40245 297.3568 304.4189 310.54035 317.60246 323.72389 327.6691 331.61433 337.73576 342.41108 346.3563 356.42298 363.3868 367.33204 371.179 377.41276 384.4889 394.55558">minlaydigan aloqa kanallari bilan o</tspan></text>
</g>
<clipPath id="cp29904">
<path transform="matrix(1,0,0,-1,0,841.92)" d="M .000008871 0 L 595.32 0 L 595.32 841.92 L .000008871 841.92 Z " fill-rule="evenodd"/>
</clipPath>
<g clip-path="url(#cp29904)">
<text xml:space="preserve" transform="matrix(1 0 -0 1 0 841.92)" font-size="14.04" font-family="Times New Roman"><tspan y="-458.47" x="401.95">&#x2019;</tspan></text>
</g>
<clipPath id="cp29905">
<path transform="matrix(1,0,0,-1,0,841.92)" d="M .000008871 0 L 595.32 0 L 595.32 841.92 L .000008871 841.92 Z " fill-rule="evenodd"/>
</clipPath>
<g clip-path="url(#cp29905)">
<text xml:space="preserve" transform="matrix(1 0 -0 1 0 841.92)" font-size="14.04" font-family="Times New Roman"><tspan y="-458.47" x="406.51 412.74378 418.97755 423.5546 430.6167 440.68339 447.74549 454.70933">zaro bog</tspan></text>
</g>
<clipPath id="cp29906">
<path transform="matrix(1,0,0,-1,0,841.92)" d="M .000008871 0 L 595.32 0 L 595.32 841.92 L .000008871 841.92 Z " fill-rule="evenodd"/>
</clipPath>
<g clip-path="url(#cp29906)">
<text xml:space="preserve" transform="matrix(1 0 -0 1 0 841.92)" font-size="14.04" font-family="Times New Roman"><tspan y="-458.47" x="461.86">&#x2019;</tspan></text>
</g>
<clipPath id="cp29907">
<path transform="matrix(1,0,0,-1,0,841.92)" d="M .000008871 0 L 595.32 0 L 595.32 841.92 L .000008871 841.92 Z " fill-rule="evenodd"/>
</clipPath>
<g clip-path="url(#cp29907)">
<text xml:space="preserve" transform="matrix(1 0 -0 1 0 841.92)" font-size="14.04" font-family="Times New Roman"><tspan y="-458.47" x="466.42 470.36524 476.48667 483.54878 490.61088 496.7323 503.7944 513.8611 524.5455 530.77926 534.7245 545.4089 552.471 556.41629 559.9263">langan majmui. </tspan></text>
</g>
<clipPath id="cp29908">
<path transform="matrix(1,0,0,-1,0,841.92)" d="M .000008871 0 L 595.32 0 L 595.32 841.92 L .000008871 841.92 Z " fill-rule="evenodd"/>
</clipPath>
<g clip-path="url(#cp29908)">
<text xml:space="preserve" transform="matrix(1 0 -0 1 0 841.92)" font-size="14.04" font-family="Times New Roman"><tspan y="-434.35" x="85.104 95.184719 102.24683 112.931278 120.11975 126.95723 134.01935 137.96459 144.19835 148.87368 152.83296 158.9544 163.62973 168.30504 174.5388 179.21413 186.2903 190.95157 201.74834">Kompyuterlar aro ma</tspan></text>
</g>
<clipPath id="cp29909">
<path transform="matrix(1,0,0,-1,0,841.92)" d="M .000008871 0 L 595.32 0 L 595.32 841.92 L .000008871 841.92 Z " fill-rule="evenodd"/>
</clipPath>
<g clip-path="url(#cp29909)">
<text xml:space="preserve" transform="matrix(1 0 -0 1 0 841.92)" font-size="14.04" font-family="Times New Roman"><tspan y="-434.35" x="208.13">&#x2019;</tspan></text>
</g>
<clipPath id="cp29910">
<path transform="matrix(1,0,0,-1,0,841.92)" d="M .000008871 0 L 595.32 0 L 595.32 841.92 L .000008871 841.92 Z " fill-rule="evenodd"/>
</clipPath>
<g clip-path="url(#cp29910)">
<text xml:space="preserve" transform="matrix(1 0 -0 1 0 841.92)" font-size="14.04" font-family="Times New Roman"><tspan y="-434.35" x="212.69 216.63524 223.69736 234.3818 241.44393 245.38916 249.3344 255.56816 260.13114 267.19325 271.13847 275.79975 282.0335 285.97874 296.66319 302.89695 308.41465 315.37849 319.22544 324.7291 331.69294 338.65678 342.602 347.26329 351.2085">lumotlarni almashishni ta</tspan></text>
</g>
<clipPath id="cp29911">
<path transform="matrix(1,0,0,-1,0,841.92)" d="M .000008871 0 L 595.32 0 L 595.32 841.92 L .000008871 841.92 Z " fill-rule="evenodd"/>
</clipPath>
<g clip-path="url(#cp29911)">
<text xml:space="preserve" transform="matrix(1 0 -0 1 0 841.92)" font-size="14.04" font-family="Times New Roman"><tspan y="-434.35" x="357.67">&#x2019;</tspan></text>
</g>
<clipPath id="cp29912">
<path transform="matrix(1,0,0,-1,0,841.92)" d="M .000008871 0 L 595.32 0 L 595.32 841.92 L .000008871 841.92 Z " fill-rule="evenodd"/>
</clipPath>
<g clip-path="url(#cp29912)">
<text xml:space="preserve" transform="matrix(1 0 -0 1 0 841.92)" font-size="14.04" font-family="Times New Roman"><tspan y="-434.35" x="362.35 373.03446 376.97969 384.04179 387.987 394.10844 401.17054 405.83183 412.89393 419.1277 423.69068 430.6545 437.61836 443.8521 450.92826 454.87348 459.42247 466.48457 473.4484 480.41224 487.47434 493.7081 500.5596 505.2209 509.1661 515.39987 520.18746 530.8718 537.93399 544.9961 548.94137 555.1751 559.7381">minlab beruvchi bunday tarmoqlar </tspan></text>
</g>
<clipPath id="cp29913">
<path transform="matrix(1,0,0,-1,0,841.92)" d="M .000008871 0 L 595.32 0 L 595.32 841.92 L .000008871 841.92 Z " fill-rule="evenodd"/>
</clipPath>
<g clip-path="url(#cp29913)">
<text xml:space="preserve" transform="matrix(1 0 -0 1 0 841.92)" font-size="14.04" font-family="Times New Roman"><tspan y="-410.23" x="85.104 92.166118 99.22823 109.912677 116.97479 123.81227 130.87439 134.81963 141.05339 145.72872 149.23871 153.14183 159.40367 164.079 174.76345 181.82556 188.88768 192.73464 198.9684 203.64373 207.49068 211.00067 218.02068 224.25444 231.35869 234.86869 240.96205 244.90729 251.02873 254.97397 261.0954 268.1575 272.10273">kompyuter tarmoqlari deb ataladi.</tspan></text>
</g>
<clipPath id="cp29914">
<path transform="matrix(1,0,0,-1,0,841.92)" d="M .000008871 0 L 595.32 0 L 595.32 841.92 L .000008871 841.92 Z " fill-rule="evenodd"/>
</clipPath>
<g clip-path="url(#cp29914)">
<text xml:space="preserve" transform="matrix(1 0 -0 1 0 841.92)" font-size="14.04" font-family="Times New Roman"><tspan y="-410.23" x="275.69"> </tspan></text>
</g>
</g>
<g id="Layer-1" data-name="P">
<clipPath id="cp29915">
<path transform="matrix(1,0,0,-1,0,841.92)" d="M .000008871 0 L 595.32 0 L 595.32 841.92 L .000008871 841.92 Z " fill-rule="evenodd"/>
</clipPath>
<g clip-path="url(#cp29915)">
<text xml:space="preserve" transform="matrix(1 0 -0 1 0 841.92)" font-size="14.04" font-family="Times New Roman"><tspan y="-386.09" x="113.42 121.942279 128.17604 132.96369 143.64813 150.71025 157.77237 161.28237 168.30237 172.97769 179.9977 186.23146 190.05034 193.99558 197.57578 203.69722 210.75934 217.72318 224.7853 229.3483 236.41042 240.25737 244.2026 250.43637 254.99938 262.0615 265.90846 269.48866 276.55076 282.67219 289.63603 296.69813 300.27833 310.96278 317.19654 322.71424">Tarmoq orqali axborotlarni uzoq maso</tspan></text>
</g>
<clipPath id="cp29916">
<path transform="matrix(1,0,0,-1,0,841.92)" d="M .000008871 0 L 595.32 0 L 595.32 841.92 L .000008871 841.92 Z " fill-rule="evenodd"/>
</clipPath>
<g clip-path="url(#cp29916)">
<text xml:space="preserve" transform="matrix(1 0 -0 1 0 841.92)" font-size="14.04" font-family="Times New Roman"><tspan y="-386.09" x="330.07 334.74534 340.86677 344.81199 350.9334 355.60874 362.68489 368.91865 372.42866 379.44865 385.71049 391.8319 395.77714 399.62409 405.02949 412.09159 415.67179 419.617 430.30146 437.36357 444.3274 451.3895 455.33473 462.17219 468.40596 472.2529 476.19813 479.77833 486.74217 493.80427 497.6512 504.61506 511.5789 518.641 524.87478 528.38479 535.4048 541.5543 545.4996 552.46347 556.4087 559.7643">falarga uzatish imkoniyati vujudga keldi. </tspan></text>
</g>
<clipPath id="cp29917">
<path transform="matrix(1,0,0,-1,0,841.92)" d="M .000008871 0 L 595.32 0 L 595.32 841.92 L .000008871 841.92 Z " fill-rule="evenodd"/>
</clipPath>
<g clip-path="url(#cp29917)">
<text xml:space="preserve" transform="matrix(1 0 -0 1 0 841.92)" font-size="14.04" font-family="Times New Roman"><tspan y="-361.97" x="85.104 93.626277 99.86003 104.647678 115.332118 122.39423 129.45635 135.08638 141.20783 148.26995 155.23378 162.2959 166.8589 173.82274 177.76798 181.71321 187.94698 192.50998 199.47382 203.32077 208.9508 216.01293 222.24669 228.36814 232.21509 236.16033 241.56572 248.62784 252.13784 257.73979 263.8612 267.80644 274.77027 281.7341 285.67933 292.74143 298.86286 304.4929 309.1682 316.24436 323.08183 330.14393 336.3777 340.22465 346.4584 353.42225 357.2692 361.21443 367.44819 374.29969 381.3618 385.307 392.27085 398.5046 405.58076 411.08445 418.04829 425.11039 435.79484 442.85694 449.6944 456.7565 460.70173 466.9355 471.6108 475.57008 481.80384 486.36683 493.42893 497.27589 502.9059 509.86976 513.815 518.378 525.4401 531.5616 535.50686 539.3538 546.41598 553.3798 559.5013">Tarmoq axborotlarni uzatish, alohida foydalanilayotgan kompyuterlarni birgalikda </tspan></text>
</g>
<clipPath id="cp29918">
<path transform="matrix(1,0,0,-1,0,841.92)" d="M .000008871 0 L 595.32 0 L 595.32 841.92 L .000008871 841.92 Z " fill-rule="evenodd"/>
</clipPath>
<g clip-path="url(#cp29918)">
<text xml:space="preserve" transform="matrix(1 0 -0 1 0 841.92)" font-size="14.04" font-family="Times New Roman"><tspan y="-337.73" x="85.104 89.04924 94.45464 101.51676 105.36372 111.59748 117.002887 124.065 127.911968 134.8758 138.82103 145.40578 149.25273 155.4865 160.89189 167.85573 174.91785 178.7648 182.71004 189.18247 196.24459 200.09154 203.93849 207.88373 213.28913 220.35124 223.86124 230.41791 237.38175 241.2287 245.17394 249.11917 255.24062 261.82539 272.50984 278.7436 284.2613 290.49507 294.44029 300.67405 307.63789 311.5831 318.05555 325.01939 328.9646 333.63993 340.11238 347.17448 353.40824 359.52967 366.59178 370.537 376.65843 383.2432 390.20704 397.26914 407.95359 415.14207 421.97953 429.04164 432.98686 439.2206 443.7836 450.36839 457.20585 464.26795 468.94328 476.0194 482.25318 492.93763 496.88285 503.94496 510.1787 516.7775 523.61508 529.8488 536.0826 543.15878 547.104 552.5094 559.47329">ishlashini tashkil qilish, bitta masalani bir nechta kompyuter yordamida yechish </tspan></text>
</g>
<clipPath id="cp29919">
<path transform="matrix(1,0,0,-1,0,841.92)" d="M .000008871 0 L 595.32 0 L 595.32 841.92 L .000008871 841.92 Z " fill-rule="evenodd"/>
</clipPath>
<g clip-path="url(#cp29919)">
<text xml:space="preserve" transform="matrix(1 0 -0 1 0 841.92)" font-size="14.04" font-family="Times New Roman"><tspan y="-313.61" x="85.104 89.04924 99.73368 106.7958 113.85792 120.92004 124.86528 131.70276 137.93653 141.88176 145.72872 151.96248 156.6378 160.48476 167.4486 171.39383 177.26255 184.32466 190.4461 195.12143 201.24288 208.305 212.25023 215.76023 221.60086 230.83919 237.9013 244.86515 251.92726 258.04869 265.11079 270.97953 274.82649 281.06025 286.46565 293.42948 300.49159 306.72535 311.40068 315.35993 321.1023 328.1644 334.39817 339.0735 344.8299 351.892 355.83723 360.51255 366.26896 373.33106 380.39317 391.0776">imkoniyatlarini beradi. Bundan tashqari har bir komp</tspan></text>
</g>
<clipPath id="cp29920">
<path transform="matrix(1,0,0,-1,0,841.92)" d="M .000008871 0 L 595.32 0 L 595.32 841.92 L .000008871 841.92 Z " fill-rule="evenodd"/>
</clipPath>
<g clip-path="url(#cp29920)">
<text xml:space="preserve" transform="matrix(1 0 -0 1 0 841.92)" font-size="14.04" font-family="Times New Roman"><tspan y="-313.61" x="398.59 405.42747 412.48957 416.43479 422.66856 427.34388 434.32176 438.26698 444.00935 454.8061">yuterni ma</tspan></text>
</g>
<clipPath id="cp29921">
<path transform="matrix(1,0,0,-1,0,841.92)" d="M .000008871 0 L 595.32 0 L 595.32 841.92 L .000008871 841.92 Z " fill-rule="evenodd"/>
</clipPath>
<g clip-path="url(#cp29921)">
<text xml:space="preserve" transform="matrix(1 0 -0 1 0 841.92)" font-size="14.04" font-family="Times New Roman"><tspan y="-313.61" x="461.14">&#x2019;</tspan></text>
</g>
<clipPath id="cp29922">
<path transform="matrix(1,0,0,-1,0,841.92)" d="M .000008871 0 L 595.32 0 L 595.32 841.92 L .000008871 841.92 Z " fill-rule="evenodd"/>
</clipPath>
<g clip-path="url(#cp29922)">
<text xml:space="preserve" transform="matrix(1 0 -0 1 0 841.92)" font-size="14.04" font-family="Times New Roman"><tspan y="-313.61" x="465.7 469.64524 476.8337 487.51817 493.3869 500.449 504.39424 509.06956 514.93826 522.00039 528.23416 534.3556 538.30087 542.97616 549.0976 556.06149 559.90847">lum bir vazifani </tspan></text>
</g>
<clipPath id="cp29923">
<path transform="matrix(1,0,0,-1,0,841.92)" d="M .000008871 0 L 595.32 0 L 595.32 841.92 L .000008871 841.92 Z " fill-rule="evenodd"/>
</clipPath>
<g clip-path="url(#cp29923)">
<text xml:space="preserve" transform="matrix(1 0 -0 1 0 841.92)" font-size="14.04" font-family="Times New Roman"><tspan y="-289.49" x="85.104 92.166118 98.39987 102.24683 108.48059 113.155918 117.00288 122.40828 129.4704 136.43424 142.668 155.13552 158.98247 166.04459 169.89154 173.7385 179.24217 186.20601 191.70969 195.55664 201.7904 207.1958 214.25792 218.10488 222.05011 226.61312 230.55835 235.96375 243.02587 255.49338 262.4572 268.69099 281.1585 288.12236 295.18446 305.8689 312.931 319.76847 326.95695 330.90217 337.13594 341.6989 345.64414 351.8779 356.4409 363.503 367.34996 374.41206 381.47416 393.8153 398.49064 404.7244 410.1298 417.1919 421.75489 427.25856 431.1055 437.33927 442.0146 445.86155 452.92366 459.04508 466.10719 478.5747 483.25004 493.93449">bajarishga ixtisoslashtirish va kompyuterlarning resurslaridan (ma</tspan></text>
</g>
<clipPath id="cp29924">
<path transform="matrix(1,0,0,-1,0,841.92)" d="M .000008871 0 L 595.32 0 L 595.32 841.92 L .000008871 841.92 Z " fill-rule="evenodd"/>
</clipPath>
<g clip-path="url(#cp29924)">
<text xml:space="preserve" transform="matrix(1 0 -0 1 0 841.92)" font-size="14.04" font-family="Times New Roman"><tspan y="-289.49" x="500.74">&#x2019;</tspan></text>
</g>
<clipPath id="cp29925">
<path transform="matrix(1,0,0,-1,0,841.92)" d="M .000008871 0 L 595.32 0 L 595.32 841.92 L .000008871 841.92 Z " fill-rule="evenodd"/>
</clipPath>
<g clip-path="url(#cp29925)">
<text xml:space="preserve" transform="matrix(1 0 -0 1 0 841.92)" font-size="14.04" font-family="Times New Roman"><tspan y="-289.49" x="505.3 509.2452 516.3073 526.9917 534.05386 537.9991 541.94436 548.1781 552.7411 556.5881 559.94369">lumotlari, </tspan></text>
</g>
<clipPath id="cp29926">
<path transform="matrix(1,0,0,-1,0,841.92)" d="M .000008871 0 L 595.32 0 L 595.32 841.92 L .000008871 841.92 Z " fill-rule="evenodd"/>
</clipPath>
<g clip-path="url(#cp29926)">
<text xml:space="preserve" transform="matrix(1 0 -0 1 0 841.92)" font-size="14.04" font-family="Times New Roman"><tspan y="-265.37" x="85.104 92.166118 99.12995 103.075199 106.92216 111.59748 117.83124 123.23664 127.181888 131.85721 142.16257 149.22469 153.16992 157.73293 164.79505 170.91649 174.86173 178.70868 185.67252 192.73464 198.85608 209.2878 213.96312 221.03929 227.87677 234.93889 241.17266 245.11789 251.23934 258.30146 262.1484 267.65208 274.71418 278.22419 288.50148 295.56358 301.79734 312.48179 319.54389 325.77766 336.20939 343.27149 350.23533 354.08229 361.14439 368.20649 378.51185 385.57395 392.53779 399.59989 406.43736 413.49946 423.93119 430.9933 437.95713 448.64158 455.83006 462.6675 469.7296 473.67485 479.9086 484.58393 488.54319 494.77696 499.33995 503.28517 510.249 514.1942 524.6259">xotirasi) birgalikda foydalanish, hamda butun dunyo kompyuterlarini o</tspan></text>
</g>
<clipPath id="cp29927">
<path transform="matrix(1,0,0,-1,0,841.92)" d="M .000008871 0 L 595.32 0 L 595.32 841.92 L .000008871 841.92 Z " fill-rule="evenodd"/>
</clipPath>
<g clip-path="url(#cp29927)">
<text xml:space="preserve" transform="matrix(1 0 -0 1 0 841.92)" font-size="14.04" font-family="Times New Roman"><tspan y="-265.37" x="532.3">&#x2019;</tspan></text>
</g>
<clipPath id="cp29928">
<path transform="matrix(1,0,0,-1,0,841.92)" d="M .000008871 0 L 595.32 0 L 595.32 841.92 L .000008871 841.92 Z " fill-rule="evenodd"/>
</clipPath>
<g clip-path="url(#cp29928)">
<text xml:space="preserve" transform="matrix(1 0 -0 1 0 841.92)" font-size="14.04" font-family="Times New Roman"><tspan y="-265.37" x="536.86 543.09378 546.94076 554.00289 559.9979">zida </tspan></text>
</g>
<clipPath id="cp29929">
<path transform="matrix(1,0,0,-1,0,841.92)" d="M .000008871 0 L 595.32 0 L 595.32 841.92 L .000008871 841.92 Z " fill-rule="evenodd"/>
</clipPath>
<g clip-path="url(#cp29929)">
<text xml:space="preserve" transform="matrix(1 0 -0 1 0 841.92)" font-size="14.04" font-family="Times New Roman"><tspan y="-241.13" x="85.104 92.166118 96.11136 100.67436 104.619609 110.74104 116.24473 123.208568 127.05553 131.00077 135.67609 142.63993 148.87369 155.94986 159.45986 163.99478 170.95862 174.90386 181.13762 185.70063 192.76274 198.9965 202.94174 206.2973 210.24254 216.4763 221.15163 231.83608 238.8982">birlashtirgan Internet tarmog</tspan></text>
</g>
<clipPath id="cp29930">
<path transform="matrix(1,0,0,-1,0,841.92)" d="M .000008871 0 L 595.32 0 L 595.32 841.92 L .000008871 841.92 Z " fill-rule="evenodd"/>
</clipPath>
<g clip-path="url(#cp29930)">
<text xml:space="preserve" transform="matrix(1 0 -0 1 0 841.92)" font-size="14.04" font-family="Times New Roman"><tspan y="-241.13" x="246.17">&#x2019;</tspan></text>
</g>
<clipPath id="cp29931">
<path transform="matrix(1,0,0,-1,0,841.92)" d="M .000008871 0 L 595.32 0 L 595.32 841.92 L .000008871 841.92 Z " fill-rule="evenodd"/>
</clipPath>
<g clip-path="url(#cp29931)">
<text xml:space="preserve" transform="matrix(1 0 -0 1 0 841.92)" font-size="14.04" font-family="Times New Roman"><tspan y="-241.13" x="250.73 254.67523 261.73735 267.9711 271.3407 278.4028 285.36665">iga bog</tspan></text>
</g>
<clipPath id="cp29932">
<path transform="matrix(1,0,0,-1,0,841.92)" d="M .000008871 0 L 595.32 0 L 595.32 841.92 L .000008871 841.92 Z " fill-rule="evenodd"/>
</clipPath>
<g clip-path="url(#cp29932)">
<text xml:space="preserve" transform="matrix(1 0 -0 1 0 841.92)" font-size="14.04" font-family="Times New Roman"><tspan y="-241.13" x="292.49">&#x2019;</tspan></text>
</g>
<clipPath id="cp29933">
<path transform="matrix(1,0,0,-1,0,841.92)" d="M .000008871 0 L 595.32 0 L 595.32 841.92 L .000008871 841.92 Z " fill-rule="evenodd"/>
</clipPath>
<g clip-path="url(#cp29933)">
<text xml:space="preserve" transform="matrix(1 0 -0 1 0 841.92)" font-size="14.04" font-family="Times New Roman"><tspan y="-241.13" x="297.05 300.9952 307.11665 314.17875 318.0257 323.4311 330.4932 334.0032 344.65959 351.84806 362.5325 369.5946 373.53984 380.60194">lanish mumkin.</tspan></text>
</g>
<clipPath id="cp29934">
<path transform="matrix(1,0,0,-1,0,841.92)" d="M .000008871 0 L 595.32 0 L 595.32 841.92 L .000008871 841.92 Z " fill-rule="evenodd"/>
</clipPath>
<g clip-path="url(#cp29934)">
<text xml:space="preserve" transform="matrix(1 0 -0 1 0 841.92)" font-size="14.04" font-family="Times New Roman"><tspan y="-241.13" x="384.19"> </tspan></text>
</g>
</g>
<g id="Layer-1" data-name="P">
<clipPath id="cp29935">
<path transform="matrix(1,0,0,-1,0,841.92)" d="M .000008871 0 L 595.32 0 L 595.32 841.92 L .000008871 841.92 Z " fill-rule="evenodd"/>
</clipPath>
<g clip-path="url(#cp29935)">
<text xml:space="preserve" transform="matrix(1 0 -0 1 0 841.92)" font-size="14.04" font-family="Times New Roman,Bold" font-weight="bold"><tspan y="-216.98" x="113.42 122.784679 129.84679 136.08055 147.60739 154.66951 162.47576 170.96996 175.64528 182.60912 190.41536 198.2216 202.1528 213.67964 222.18788 228.42165 233.09697 240.17314 247.97939 251.8123 258.77616 265.83827">Tarmoq taqdim etadigan</tspan></text>
</g>
<clipPath id="cp29936">
<path transform="matrix(1,0,0,-1,0,841.92)" d="M .000008871 0 L 595.32 0 L 595.32 841.92 L .000008871 841.92 Z " fill-rule="evenodd"/>
</clipPath>
<g clip-path="url(#cp29936)">
<text xml:space="preserve" transform="matrix(1 0 -0 1 0 841.92)" font-size="14.04" font-family="Times New Roman,Bold" font-weight="bold"><tspan y="-216.98" x="273.77"> </tspan></text>
</g>
<clipPath id="cp29937">
<path transform="matrix(1,0,0,-1,0,841.92)" d="M .000008871 0 L 595.32 0 L 595.32 841.92 L .000008871 841.92 Z " fill-rule="evenodd"/>
</clipPath>
<g clip-path="url(#cp29937)">
<text xml:space="preserve" transform="matrix(1 0 -0 1 0 841.92)" font-size="14.04" font-family="Times New Roman,Bold" font-weight="bold"><tspan y="-216.98" x="282.29 290.09626 293.92918 300.16294 311.68977 318.75187 323.4272 327.27415 334.33625">hizmatlar</tspan></text>
</g>
<clipPath id="cp29938">
<path transform="matrix(1,0,0,-1,0,841.92)" d="M .000008871 0 L 595.32 0 L 595.32 841.92 L .000008871 841.92 Z " fill-rule="evenodd"/>
</clipPath>
<g clip-path="url(#cp29938)">
<text xml:space="preserve" transform="matrix(1 0 -0 1 0 841.92)" font-size="14.04" font-family="Times New Roman"><tspan y="-216.98" x="340.63 344.14 352.49385 362.57456 369.63667 380.3211 387.50959 394.34706 401.40916 405.35438 411.58815 416.26347 424.78575 428.73097 434.8524 439.5277 450.21217 457.27427 464.33638 468.2816 474.403 479.07835 483.02357 491.5318 497.65324 504.71534 511.67918 518.7413 523.30429 530.3664 534.2134 538.1586 544.3924 548.9554 555.91928 559.76626">. Kompyuter tarmoqlari axborotlarni </tspan></text>
</g>
<clipPath id="cp29939">
<path transform="matrix(1,0,0,-1,0,841.92)" d="M .000008871 0 L 595.32 0 L 595.32 841.92 L .000008871 841.92 Z " fill-rule="evenodd"/>
</clipPath>
<g clip-path="url(#cp29939)">
<text xml:space="preserve" transform="matrix(1 0 -0 1 0 841.92)" font-size="14.04" font-family="Times New Roman"><tspan y="-192.86" x="85.104 91.33775 95.283 101.404438 108.46655 112.4118 116.9748 126.91512 132.32051 136.26575 143.22959 150.2917 156.41315 160.35839 164.20534 170.4391 175.11443 178.96138 188.90169 195.86553">elektr signallari ko</tspan></text>
</g>
<clipPath id="cp29940">
<path transform="matrix(1,0,0,-1,0,841.92)" d="M .000008871 0 L 595.32 0 L 595.32 841.92 L .000008871 841.92 Z " fill-rule="evenodd"/>
</clipPath>
<g clip-path="url(#cp29940)">
<text xml:space="preserve" transform="matrix(1 0 -0 1 0 841.92)" font-size="14.04" font-family="Times New Roman"><tspan y="-192.86" x="203.09">&#x2019;</tspan></text>
</g>
<clipPath id="cp29941">
<path transform="matrix(1,0,0,-1,0,841.92)" d="M .000008871 0 L 595.32 0 L 595.32 841.92 L .000008871 841.92 Z " fill-rule="evenodd"/>
</clipPath>
<g clip-path="url(#cp29941)">
<text xml:space="preserve" transform="matrix(1 0 -0 1 0 841.92)" font-size="14.04" font-family="Times New Roman"><tspan y="-192.86" x="207.65 212.32532 216.27056 223.23439 227.08135 232.58502 239.54886 243.4941 250.45793 256.69169 266.51969 273.5818 279.81556 285.93699 289.8822 293.72917 299.23283 306.19667 316.137 323.1991 329.32054 339.26087 346.32298 352.4444 359.5065 366.47035 370.41557 380.24357 387.30567 391.15263 394.99958 398.9448 404.3502 411.31404 418.37614 424.6099 434.4379 438.38313 445.34696 449.1939 453.13914 458.54454 465.60664 471.01203 474.95726 481.07868 486.58235 493.54618 500.60829 506.7297 513.7918 523.7321 534.4165 541.47866 548.5408 552.38778 556.23477 559.59036">rinishida uzatish va qabul qilishga ixtisoslashgan muhit. </tspan></text>
</g>
<clipPath id="cp29942">
<path transform="matrix(1,0,0,-1,0,841.92)" d="M .000008871 0 L 595.32 0 L 595.32 841.92 L .000008871 841.92 Z " fill-rule="evenodd"/>
</clipPath>
<g clip-path="url(#cp29942)">
<text xml:space="preserve" transform="matrix(1 0 -0 1 0 841.92)" font-size="14.04" font-family="Times New Roman"><tspan y="-168.74" x="85.104 93.626277 99.86003 104.647678 115.332118 122.39423 129.45635 133.40158 139.52303 144.19835 149.22467 156.1885 160.13375 164.80907 171.88524 176.56056 181.58689 192.27133 198.5051 205.58127 211.08495 217.31871 224.28255 231.34467 237.57843 242.60475 248.83852 253.40152 257.24848 262.75215 269.71598 273.6612 279.0666 286.1287 291.15504 298.11888 304.35264 311.31648 318.2803 325.24415 330.27049 337.33259 344.39469 348.95768 352.9029 356.74986 362.9836 369.94746 373.89268 377.40269 382.40095 389.2384">Tarmoqlar biror maqsadga erishish uchun quriladi, ya</tspan></text>
</g>
<clipPath id="cp29943">
<path transform="matrix(1,0,0,-1,0,841.92)" d="M .000008871 0 L 595.32 0 L 595.32 841.92 L .000008871 841.92 Z " fill-rule="evenodd"/>
</clipPath>
<g clip-path="url(#cp29943)">
<text xml:space="preserve" transform="matrix(1 0 -0 1 0 841.92)" font-size="14.04" font-family="Times New Roman"><tspan y="-168.74" x="395.95">&#x2019;</tspan></text>
</g>
<clipPath id="cp29944">
<path transform="matrix(1,0,0,-1,0,841.92)" d="M .000008871 0 L 595.32 0 L 595.32 841.92 L .000008871 841.92 Z " fill-rule="evenodd"/>
</clipPath>
<g clip-path="url(#cp29944)">
<text xml:space="preserve" transform="matrix(1 0 -0 1 0 841.92)" font-size="14.04" font-family="Times New Roman"><tspan y="-168.74" x="400.51 407.5721 411.51734 416.54368 423.60578 430.5696">ni bog</tspan></text>
</g>
<clipPath id="cp29945">
<path transform="matrix(1,0,0,-1,0,841.92)" d="M .000008871 0 L 595.32 0 L 595.32 841.92 L .000008871 841.92 Z " fill-rule="evenodd"/>
</clipPath>
<g clip-path="url(#cp29945)">
<text xml:space="preserve" transform="matrix(1 0 -0 1 0 841.92)" font-size="14.04" font-family="Times New Roman"><tspan y="-168.74" x="437.71">&#x2019;</tspan></text>
</g>
<clipPath id="cp29946">
<path transform="matrix(1,0,0,-1,0,841.92)" d="M .000008871 0 L 595.32 0 L 595.32 841.92 L .000008871 841.92 Z " fill-rule="evenodd"/>
</clipPath>
<g clip-path="url(#cp29946)">
<text xml:space="preserve" transform="matrix(1 0 -0 1 0 841.92)" font-size="14.04" font-family="Times New Roman"><tspan y="-168.74" x="442.3 446.14695 452.3807 459.34455 466.40666 472.6404 479.71656 484.61653 491.67863 498.74073 509.42518 516.4873 523.3248 530.38699 534.3322 540.566 545.2413 549.20059 555.322 559.885">langan kompyuterlar </tspan></text>
</g>
<clipPath id="cp29947">
<path transform="matrix(1,0,0,-1,0,841.92)" d="M .000008871 0 L 595.32 0 L 595.32 841.92 L .000008871 841.92 Z " fill-rule="evenodd"/>
</clipPath>
<g clip-path="url(#cp29947)">
<text xml:space="preserve" transform="matrix(1 0 -0 1 0 841.92)" font-size="14.04" font-family="Times New Roman"><tspan y="-144.5" x="85.104 92.166118 96.84144 103.805278 110.03903 113.885997 117.83124 126.21312 133.27524 137.1222 141.79752 148.87369 153.54901 161.94493 172.62938 178.86315 184.38088 190.61464 194.55988 200.79364 204.6406 210.87436 215.54969 222.52758 226.47281 234.85469 241.69217 247.92594 254.1597 261.23585 265.18107 270.58647 277.64857 286.03047 293.09257 299.214 306.2761 313.23994 320.20378 328.58567 332.53089 339.593 343.43995 347.38517 352.79057 359.7544 365.25807 369.20329 375.3247 380.7301 387.7922">orqali biror masalalarni yechish uchun ixtisoslasht</tspan></text>
</g>
<clipPath id="cp29948">
<path transform="matrix(1,0,0,-1,0,841.92)" d="M .000008871 0 L 595.32 0 L 595.32 841.92 L .000008871 841.92 Z " fill-rule="evenodd"/>
</clipPath>
<g clip-path="url(#cp29948)">
<text xml:space="preserve" transform="matrix(1 0 -0 1 0 841.92)" font-size="14.04" font-family="Times New Roman"><tspan y="-144.5" x="391.99 395.9352 400.4982 404.44343 408.38865 414.51008 421.4739 425.41914 428.92915 437.28297 445.80525 452.039 456.82667 467.5111 474.5732 481.6353 490.0172 497.0793 500.92628 507.16004 517.8444 524.0782 528.02346 531.9687 538.20248 542.87777 546.72476 553.78689 559.7819">iriladi. Tarmoq xizmatlariga </tspan></text>
</g>
<clipPath id="cp29949">
<path transform="matrix(1,0,0,-1,0,841.92)" d="M .000008871 0 L 595.32 0 L 595.32 841.92 L .000008871 841.92 Z " fill-rule="evenodd"/>
</clipPath>
<g clip-path="url(#cp29949)">
<text xml:space="preserve" transform="matrix(1 0 -0 1 0 841.92)" font-size="14.04" font-family="Times New Roman"><tspan y="-120.38" x="85.104 92.166118 99.22823 106.06571 110.010959 117.073078 123.19451 130.15834 134.10358 138.04882 144.17026 148.84558 155.80942 159.75466 163.26465 173.92102 177.86626 183.36994 190.43206 194.37729 197.73285 201.5798 207.81357 212.48889 216.33585 223.39797 229.63173 235.03713 238.88408 245.9462 252.17996 255.68996 262.62574 268.8595 272.70646 276.65168 280.5969 285.15989 289.00685 294.5105 301.5726 305.0826 315.73899 322.8011 333.48554 340.54765 344.49287 351.55497">quyidagilarni misol tariqasida keltirish mumkin:</tspan></text>
</g>
<clipPath id="cp29950">
<path transform="matrix(1,0,0,-1,0,841.92)" d="M .000008871 0 L 595.32 0 L 595.32 841.92 L .000008871 841.92 Z " fill-rule="evenodd"/>
</clipPath>
<g clip-path="url(#cp29950)">
<text xml:space="preserve" transform="matrix(1 0 -0 1 0 841.92)" font-size="14.04" font-family="Times New Roman"><tspan y="-120.38" x="355.75"> </tspan></text>
</g>
</g>
</g>
</g>
</svg>
