<?xml version="1.0" encoding="UTF-8" standalone="no"?>
<!DOCTYPE svg PUBLIC "-//W3C//DTD SVG 1.1//EN" "http://www.w3.org/Graphics/SVG/1.1/DTD/svg11.dtd">
<svg xmlns="http://www.w3.org/2000/svg" xmlns:xlink="http://www.w3.org/1999/xlink" version="1.1" width="595.32pt" height="841.92pt" viewBox="0 0 595.32 841.92">
<g enable-background="new">
<g>
<g id="Layer-1" data-name="Artifact">
<clipPath id="cp30060">
<path transform="matrix(1,0,0,-1,0,841.92)" d="M .000008871 0 L 595.32 0 L 595.32 841.92 L .000008871 841.92 Z " fill-rule="evenodd"/>
</clipPath>
<g clip-path="url(#cp30060)">
<text xml:space="preserve" transform="matrix(1 0 -0 1 0 841.92)" font-size="11.04" font-family="Calibri"><tspan y="-51.864" x="314.09 319.72999 325.36997">183</tspan></text>
</g>
<clipPath id="cp30061">
<path transform="matrix(1,0,0,-1,0,841.92)" d="M .000008871 0 L 595.32 0 L 595.32 841.92 L .000008871 841.92 Z " fill-rule="evenodd"/>
</clipPath>
<g clip-path="url(#cp30061)">
<text xml:space="preserve" transform="matrix(1 0 -0 1 0 841.92)" font-size="11.04" font-family="Calibri"><tspan y="-51.864" x="331.03"> </tspan></text>
</g>
<clipPath id="cp30062">
<path transform="matrix(1,0,0,-1,0,841.92)" d="M .000008871 0 L 595.32 0 L 595.32 841.92 L .000008871 841.92 Z " fill-rule="evenodd"/>
</clipPath>
<g clip-path="url(#cp30062)">
</g>
<clipPath id="cp30063">
<path transform="matrix(1,0,0,-1,0,841.92)" d="M .000008871 0 L 595.32 0 L 595.32 841.92 L .000008871 841.92 Z " fill-rule="evenodd"/>
</clipPath>
<g clip-path="url(#cp30063)">
<text xml:space="preserve" transform="matrix(1 0 -0 1 0 841.92)" font-size="11.04" font-family="Calibri"><tspan y="-38.4" x="85.104"> </tspan></text>
</g>
<clipPath id="cp30064">
<path transform="matrix(1,0,0,-1,0,841.92)" d="M .000008871 0 L 595.32 0 L 595.32 841.92 L .000008871 841.92 Z " fill-rule="evenodd"/>
</clipPath>
<g clip-path="url(#cp30064)">
</g>
</g>
<g id="Layer-1" data-name="P">
<clipPath id="cp30065">
<path transform="matrix(1,0,0,-1,0,841.92)" d="M .000008871 0 L 595.32 0 L 595.32 841.92 L .000008871 841.92 Z " fill-rule="evenodd"/>
</clipPath>
<g clip-path="url(#cp30065)">
<text xml:space="preserve" transform="matrix(1 0 -0 1 0 841.92)" font-size="14.04" font-family="Times New Roman"><tspan y="-772.56" x="113.42 120.48212 123.99212 132.5846 145.06616 151.29993 158.3761 164.49755 168.44278 172.38802 181.00858 187.97241 195.03453 205.71898 212.7811 219.61858 226.6807 230.62593 236.8597 241.53502 250.16962 257.23173 264.19557 268.14079 272.086 276.649 282.88276 288.28816 292.23338 299.1972 303.04417 310.10627 317.16838 325.78895 332.75279 336.59974 342.1034 352.90016 356.84538 363.07914 367.64213 371.58735 378.55119 382.4964 386.0064 394.5989 401.661 408.7231 419.40757 426.46968 433.30714 440.36924 444.31446 450.54823 455.22355 463.85816 470.92027 474.7672 479.44255 483.38777 487.2347 491.17994 496.58534">1. Manzil kompyuter xotirasining qismlarini, kompyuter kiritish</tspan></text>
</g>
<clipPath id="cp30066">
<path transform="matrix(1,0,0,-1,0,841.92)" d="M .000008871 0 L 595.32 0 L 595.32 841.92 L .000008871 841.92 Z " fill-rule="evenodd"/>
</clipPath>
<g clip-path="url(#cp30066)">
<text xml:space="preserve" transform="matrix(1 0 -0 1 0 841.92)" font-size="14.04" font-family="Times New Roman"><tspan y="-772.56" x="504.22">-</tspan></text>
</g>
<clipPath id="cp30067">
<path transform="matrix(1,0,0,-1,0,841.92)" d="M .000008871 0 L 595.32 0 L 595.32 841.92 L .000008871 841.92 Z " fill-rule="evenodd"/>
</clipPath>
<g clip-path="url(#cp30067)">
<text xml:space="preserve" transform="matrix(1 0 -0 1 0 841.92)" font-size="14.04" font-family="Times New Roman"><tspan y="-772.56" x="508.78 515.01376 521.9776 525.92288 532.8867 539.1205 543.7958 547.64279 553.04818 560.012 563.52206">chiqarish  </tspan></text>
</g>
<clipPath id="cp30068">
<path transform="matrix(1,0,0,-1,0,841.92)" d="M .000008871 0 L 595.32 0 L 595.32 841.92 L .000008871 841.92 Z " fill-rule="evenodd"/>
</clipPath>
<g clip-path="url(#cp30068)">
</g>
<clipPath id="cp30069">
<path transform="matrix(1,0,0,-1,0,841.92)" d="M .000008871 0 L 595.32 0 L 595.32 841.92 L .000008871 841.92 Z " fill-rule="evenodd"/>
</clipPath>
<g clip-path="url(#cp30069)">
<text xml:space="preserve" transform="matrix(1 0 -0 1 0 841.92)" font-size="14.04" font-family="Times New Roman"><tspan y="-748.3" x="85.104 92.166118 99.22823 103.79124 107.6382 111.58344 122.26788 128.50165 132.44689 138.68065 143.35597 147.31526 154.26506 161.32718 168.29102 172.96634 176.8133 180.75853 187.72237 191.6676 195.1776 202.0993 209.16143 213.00838 218.41378 225.47589 232.43973 236.38497 242.50641 248.01009 255.0722 262.022 265.96723 272.08866 276.76399 287.44844 294.51054">qurilmalari portini, hisoblash tarmog</tspan></text>
</g>
<clipPath id="cp30070">
<path transform="matrix(1,0,0,-1,0,841.92)" d="M .000008871 0 L 595.32 0 L 595.32 841.92 L .000008871 841.92 Z " fill-rule="evenodd"/>
</clipPath>
<g clip-path="url(#cp30070)">
<text xml:space="preserve" transform="matrix(1 0 -0 1 0 841.92)" font-size="14.04" font-family="Times New Roman"><tspan y="-748.3" x="301.85">&#x2019;</tspan></text>
</g>
<clipPath id="cp30071">
<path transform="matrix(1,0,0,-1,0,841.92)" d="M .000008871 0 L 595.32 0 L 595.32 841.92 L .000008871 841.92 Z " fill-rule="evenodd"/>
</clipPath>
<g clip-path="url(#cp30071)">
<text xml:space="preserve" transform="matrix(1 0 -0 1 0 841.92)" font-size="14.04" font-family="Times New Roman"><tspan y="-748.3" x="306.41 310.35523 317.30503 324.36714 331.42924 342.11369 349.30216 356.13963 363.20173 367.14695 373.3807 378.05604 381.90299 388.13676 392.81208 396.65904 403.62287 407.56809 414.51789 421.58 427.81376 438.4982 445.5603 451.79408 458.74388 465.80598 472.7698 478.27348 485.2373 492.2994 498.53318 505.48298 516.16738">i kompyuterlarini hamda boshqa ma</tspan></text>
</g>
<clipPath id="cp30072">
<path transform="matrix(1,0,0,-1,0,841.92)" d="M .000008871 0 L 595.32 0 L 595.32 841.92 L .000008871 841.92 Z " fill-rule="evenodd"/>
</clipPath>
<g clip-path="url(#cp30072)">
<text xml:space="preserve" transform="matrix(1 0 -0 1 0 841.92)" font-size="14.04" font-family="Times New Roman"><tspan y="-748.3" x="522.82">&#x2019;</tspan></text>
</g>
<clipPath id="cp30073">
<path transform="matrix(1,0,0,-1,0,841.92)" d="M .000008871 0 L 595.32 0 L 595.32 841.92 L .000008871 841.92 Z " fill-rule="evenodd"/>
</clipPath>
<g clip-path="url(#cp30073)">
<text xml:space="preserve" transform="matrix(1 0 -0 1 0 841.92)" font-size="14.04" font-family="Times New Roman"><tspan y="-748.3" x="527.38 531.32528 538.3874 549.0718 556.1339 559.9809">lumot </tspan></text>
</g>
<clipPath id="cp30074">
<path transform="matrix(1,0,0,-1,0,841.92)" d="M .000008871 0 L 595.32 0 L 595.32 841.92 L .000008871 841.92 Z " fill-rule="evenodd"/>
</clipPath>
<g clip-path="url(#cp30074)">
</g>
<clipPath id="cp30075">
<path transform="matrix(1,0,0,-1,0,841.92)" d="M .000008871 0 L 595.32 0 L 595.32 841.92 L .000008871 841.92 Z " fill-rule="evenodd"/>
</clipPath>
<g clip-path="url(#cp30075)">
<text xml:space="preserve" transform="matrix(1 0 -0 1 0 841.92)" font-size="14.04" font-family="Times New Roman"><tspan y="-724.18" x="85.104 95.90076 102.134517 109.21067 116.27279 122.394229 126.33947 132.57323 137.13623 141.08147 148.0453 151.99054 155.50054 162.30994 169.37206 176.43418 180.37941 183.73497 190.79709 194.74233 200.86377 205.42678 212.48889 216.43413 219.78969 226.8518 233.08557 239.20702 243.15225 246.9992 252.4046 259.4667 262.9767 269.9967 276.14625 283.11009 290.17219 297.23429 300.58985 307.65196 313.77339 317.7186 324.68244 328.62767 332.57289 338.6943 345.65815 352.72026 358.84169 365.90379 369.4138 373.21864 380.28074 387.1182 394.1803 398.12553 401.63554 407.8693 414.80506 418.652 425.7141 429.65934 435.8931 442.7446 449.8067 453.75193">manbalarini yoki ularni uzatish uchun belgilangan joyni aniqlaydi.</tspan></text>
</g>
<clipPath id="cp30076">
<path transform="matrix(1,0,0,-1,0,841.92)" d="M .000008871 0 L 595.32 0 L 595.32 841.92 L .000008871 841.92 Z " fill-rule="evenodd"/>
</clipPath>
<g clip-path="url(#cp30076)">
<text xml:space="preserve" transform="matrix(1 0 -0 1 0 841.92)" font-size="14.04" font-family="Times New Roman"><tspan y="-724.18" x="457.66"> </tspan></text>
</g>
<clipPath id="cp30077">
<path transform="matrix(1,0,0,-1,0,841.92)" d="M .000008871 0 L 595.32 0 L 595.32 841.92 L .000008871 841.92 Z " fill-rule="evenodd"/>
</clipPath>
<g clip-path="url(#cp30077)">
</g>
</g>
<g id="Layer-1" data-name="P">
<clipPath id="cp30078">
<path transform="matrix(1,0,0,-1,0,841.92)" d="M .000008871 0 L 595.32 0 L 595.32 841.92 L .000008871 841.92 Z " fill-rule="evenodd"/>
</clipPath>
<g clip-path="url(#cp30078)">
<text xml:space="preserve" transform="matrix(1 0 -0 1 0 841.92)" font-size="14.04" font-family="Times New Roman"><tspan y="-700.06" x="113.42 120.48212 123.99212 129.59409 142.07566 148.1971 155.25922 161.49298 165.33994 169.28517 174.78885 181.85097 185.69792 191.2016 198.16544 205.12928 209.07451 215.19596 220.69963 227.76175 233.26543 237.21067 243.44443 248.11975 258.8042 265.8663 272.9284 276.87364 283.1074 287.67039 291.51734">2. Manzil hisoblash tarmoqlarid</tspan></text>
</g>
<clipPath id="cp30079">
<path transform="matrix(1,0,0,-1,0,841.92)" d="M .000008871 0 L 595.32 0 L 595.32 841.92 L .000008871 841.92 Z " fill-rule="evenodd"/>
</clipPath>
<g clip-path="url(#cp30079)">
<text xml:space="preserve" transform="matrix(1 0 -0 1 0 841.92)" font-size="14.04" font-family="Times New Roman"><tspan y="-700.06" x="298.85 305.08378 310.6015 317.6636 323.89738 330.0188 333.96403 337.81098 341.7562 347.98997 354.84147 361.90357 365.75053 372.81263 378.93406 385.99617 391.6262 402.31065">a uzatilayotgan ma</tspan></text>
</g>
<clipPath id="cp30080">
<path transform="matrix(1,0,0,-1,0,841.92)" d="M .000008871 0 L 595.32 0 L 595.32 841.92 L .000008871 841.92 Z " fill-rule="evenodd"/>
</clipPath>
<g clip-path="url(#cp30080)">
<text xml:space="preserve" transform="matrix(1 0 -0 1 0 841.92)" font-size="14.04" font-family="Times New Roman"><tspan y="-700.06" x="408.79">&#x2019;</tspan></text>
</g>
<clipPath id="cp30081">
<path transform="matrix(1,0,0,-1,0,841.92)" d="M .000008871 0 L 595.32 0 L 595.32 841.92 L .000008871 841.92 Z " fill-rule="evenodd"/>
</clipPath>
<g clip-path="url(#cp30081)">
<text xml:space="preserve" transform="matrix(1 0 -0 1 0 841.92)" font-size="14.04" font-family="Times New Roman"><tspan y="-700.06" x="413.35 417.29524 424.35734 435.04179 442.10389 446.0491 449.99433 456.2281 460.79109 467.85319 471.7984 477.3021 484.3642 490.48564 497.54774 504.51158 508.4568 514.08688 521.0507 524.8977 528.84298 535.8068 542.86898 548.9904 555.9543 559.8013">lumotlarni qabul qiluvchi </tspan></text>
</g>
<clipPath id="cp30082">
<path transform="matrix(1,0,0,-1,0,841.92)" d="M .000008871 0 L 595.32 0 L 595.32 841.92 L .000008871 841.92 Z " fill-rule="evenodd"/>
</clipPath>
<g clip-path="url(#cp30082)">
</g>
<clipPath id="cp30083">
<path transform="matrix(1,0,0,-1,0,841.92)" d="M .000008871 0 L 595.32 0 L 595.32 841.92 L .000008871 841.92 Z " fill-rule="evenodd"/>
</clipPath>
<g clip-path="url(#cp30083)">
<text xml:space="preserve" transform="matrix(1 0 -0 1 0 841.92)" font-size="14.04" font-family="Times New Roman"><tspan y="-675.94" x="85.104 91.941478 99.00359 106.06571 110.010959 113.52096 117.3258">yoki jo</tspan></text>
</g>
<clipPath id="cp30084">
<path transform="matrix(1,0,0,-1,0,841.92)" d="M .000008871 0 L 595.32 0 L 595.32 841.92 L .000008871 841.92 Z " fill-rule="evenodd"/>
</clipPath>
<g clip-path="url(#cp30084)">
<text xml:space="preserve" transform="matrix(1 0 -0 1 0 841.92)" font-size="14.04" font-family="Times New Roman"><tspan y="-675.94" x="124.46">&#x2019;</tspan></text>
</g>
<clipPath id="cp30085">
<path transform="matrix(1,0,0,-1,0,841.92)" d="M .000008871 0 L 595.32 0 L 595.32 841.92 L .000008871 841.92 Z " fill-rule="evenodd"/>
</clipPath>
<g clip-path="url(#cp30085)">
<text xml:space="preserve" transform="matrix(1 0 -0 1 0 841.92)" font-size="14.04" font-family="Times New Roman"><tspan y="-675.94" x="129.02 136.08213 142.31589 146.16284 153.12668 160.1888 166.42256 173.3864 177.23336 181.17859 187.41236 191.97536 199.03748 202.98271 206.33827 212.57204 219.64821 223.49517 230.459 234.40424 241.36808 248.43019 254.55164 261.61375 265.55897 269.06898 279.72535">natuvchilarni aniqlovchi ma</tspan></text>
</g>
<clipPath id="cp30086">
<path transform="matrix(1,0,0,-1,0,841.92)" d="M .000008871 0 L 595.32 0 L 595.32 841.92 L .000008871 841.92 Z " fill-rule="evenodd"/>
</clipPath>
<g clip-path="url(#cp30086)">
<text xml:space="preserve" transform="matrix(1 0 -0 1 0 841.92)" font-size="14.04" font-family="Times New Roman"><tspan y="-675.94" x="286.13">&#x2019;</tspan></text>
</g>
<clipPath id="cp30087">
<path transform="matrix(1,0,0,-1,0,841.92)" d="M .000008871 0 L 595.32 0 L 595.32 841.92 L .000008871 841.92 Z " fill-rule="evenodd"/>
</clipPath>
<g clip-path="url(#cp30087)">
<text xml:space="preserve" transform="matrix(1 0 -0 1 0 841.92)" font-size="14.04" font-family="Times New Roman"><tspan y="-675.94" x="290.69 294.63523 301.8237 312.50816 319.57026 323.51548 327.36244 333.5962 338.2715 341.78153 348.8015 354.9651 358.9103 369.59477">lumotlar ketma</tspan></text>
</g>
<clipPath id="cp30088">
<path transform="matrix(1,0,0,-1,0,841.92)" d="M .000008871 0 L 595.32 0 L 595.32 841.92 L .000008871 841.92 Z " fill-rule="evenodd"/>
</clipPath>
<g clip-path="url(#cp30088)">
<text xml:space="preserve" transform="matrix(1 0 -0 1 0 841.92)" font-size="14.04" font-family="Times New Roman"><tspan y="-675.94" x="375.91">-</tspan></text>
</g>
<clipPath id="cp30089">
<path transform="matrix(1,0,0,-1,0,841.92)" d="M .000008871 0 L 595.32 0 L 595.32 841.92 L .000008871 841.92 Z " fill-rule="evenodd"/>
</clipPath>
<g clip-path="url(#cp30089)">
<text xml:space="preserve" transform="matrix(1 0 -0 1 0 841.92)" font-size="14.04" font-family="Times New Roman"><tspan y="-675.94" x="380.59 387.6521 393.88587 397.8311 401.67805 405.525 412.5871 416.53233">ketligi.</tspan></text>
</g>
<clipPath id="cp30090">
<path transform="matrix(1,0,0,-1,0,841.92)" d="M .000008871 0 L 595.32 0 L 595.32 841.92 L .000008871 841.92 Z " fill-rule="evenodd"/>
</clipPath>
<g clip-path="url(#cp30090)">
<text xml:space="preserve" transform="matrix(1 0 -0 1 0 841.92)" font-size="14.04" font-family="Times New Roman"><tspan y="-675.94" x="419.95"> </tspan></text>
</g>
<clipPath id="cp30091">
<path transform="matrix(1,0,0,-1,0,841.92)" d="M .000008871 0 L 595.32 0 L 595.32 841.92 L .000008871 841.92 Z " fill-rule="evenodd"/>
</clipPath>
<g clip-path="url(#cp30091)">
</g>
</g>
<g id="Layer-1" data-name="P">
<clipPath id="cp30092">
<path transform="matrix(1,0,0,-1,0,841.92)" d="M .000008871 0 L 595.32 0 L 595.32 841.92 L .000008871 841.92 Z " fill-rule="evenodd"/>
</clipPath>
<g clip-path="url(#cp30092)">
<text xml:space="preserve" transform="matrix(1 0 -0 1 0 841.92)" font-size="12" font-family="Times New Roman,Bold" font-weight="bold"><tspan y="-653.26" x="340.51"> </tspan></text>
</g>
</g>
<g id="Layer-1" data-name="P">
<clipPath id="cp30093">
<path transform="matrix(1,0,0,-1,0,841.92)" d="M .000008871 0 L 595.32 0 L 595.32 841.92 L .000008871 841.92 Z " fill-rule="evenodd"/>
</clipPath>
<g clip-path="url(#cp30093)">
<text xml:space="preserve" transform="matrix(1 0 -0 1 0 841.92)" font-size="14.04" font-family="Times New Roman,Bold" font-weight="bold"><tspan y="-630.82" x="194.21 201.27213 204.78212 211.80213 215.31212 218.82212 228.03237 235.09449 242.64801 249.71013 253.65537 257.16539 260.7175 272.24433 276.18955 283.9958 288.6711 295.73323 303.4131 310.37693 317.43904 321.28599 328.34809 331.8581 338.79386 345.85597 349.21153 356.27363 360.12059 367.18269 374.86256 381.92466 385.86988 389.37989 393.9148 400.9769 407.21067 418.7375 425.7996 433.60585 437.55107 444.5149">7.2. Lokal, mintaqaviy va global tarmoqlar</tspan></text>
</g>
<clipPath id="cp30094">
<path transform="matrix(1,0,0,-1,0,841.92)" d="M .000008871 0 L 595.32 0 L 595.32 841.92 L .000008871 841.92 Z " fill-rule="evenodd"/>
</clipPath>
<g clip-path="url(#cp30094)">
<text xml:space="preserve" transform="matrix(1 0 -0 1 0 841.92)" font-size="14.04" font-family="Times New Roman,Bold" font-weight="bold"><tspan y="-630.82" x="450.94"> </tspan></text>
</g>
</g>
<g id="Layer-1" data-name="P">
<clipPath id="cp30095">
<path transform="matrix(1,0,0,-1,0,841.92)" d="M .000008871 0 L 595.32 0 L 595.32 841.92 L .000008871 841.92 Z " fill-rule="evenodd"/>
</clipPath>
<g clip-path="url(#cp30095)">
<text xml:space="preserve" transform="matrix(1 0 -0 1 0 841.92)" font-size="14.04" font-family="Times New Roman,Bold" font-weight="bold"><tspan y="-606.7" x="322.51"> </tspan></text>
</g>
</g>
<g id="Layer-1" data-name="P">
<clipPath id="cp30096">
<path transform="matrix(1,0,0,-1,0,841.92)" d="M .000008871 0 L 595.32 0 L 595.32 841.92 L .000008871 841.92 Z " fill-rule="evenodd"/>
</clipPath>
<g clip-path="url(#cp30096)">
<text xml:space="preserve" transform="matrix(1 0 -0 1 0 841.92)" font-size="14.04" font-family="Times New Roman"><tspan y="-582.7" x="113.42 123.50072 130.56284 141.24729 148.43578 155.27326 162.33538 166.28061 172.51438 177.1897 186.42801 190.37325 196.60701 201.28234 211.96678 219.0289 226.09102 229.93798 236.17174 240.84706 244.69402 251.75614 255.70137 264.92567 271.8895 275.83473 282.06849 286.63148 293.5953 297.54054 304.50437 311.56648 320.79078 327.85289 333.9743 340.93815 348.00025 352.56324 358.797 363.47233 367.31929 374.38139 383.60569 387.45265 394.51475 401.3522 405.29743 411.5312 417.0489 424.01274 427.95796 433.36335 440.42546 444.37068 447.88069 457.07688 467.76133 474.10743 479.61109 485.01649 492.07859 495.92555 502.1593 509.12315 513.06838 522.29269 529.3548 535.58859 546.27297 553.3351 559.45657">Kompyuter tarmoqlarini ularning geografik joylashishi, masshtabi hamda </tspan></text>
</g>
<clipPath id="cp30097">
<path transform="matrix(1,0,0,-1,0,841.92)" d="M .000008871 0 L 595.32 0 L 595.32 841.92 L .000008871 841.92 Z " fill-rule="evenodd"/>
</clipPath>
<g clip-path="url(#cp30097)">
<text xml:space="preserve" transform="matrix(1 0 -0 1 0 841.92)" font-size="14.04" font-family="Times New Roman"><tspan y="-558.55" x="85.104 92.166118 98.39987 102.24683 112.931278 116.87652 123.93864 130.1724 133.68239 140.7024 146.96424 151.63956 157.761 164.82312">hajmiga qarab </tspan></text>
</g>
<clipPath id="cp30098">
<path transform="matrix(1,0,0,-1,0,841.92)" d="M .000008871 0 L 595.32 0 L 595.32 841.92 L .000008871 841.92 Z " fill-rule="evenodd"/>
</clipPath>
<g clip-path="url(#cp30098)">
<text xml:space="preserve" transform="matrix(1 0 -0 1 0 841.92)" font-size="14.04" font-family="Times New Roman"><tspan y="-558.55" x="168.38 175.34384 182.40596 189.24344 193.18868 200.2508 206.37224 213.43436">quyidagi</tspan></text>
</g>
<clipPath id="cp30099">
<path transform="matrix(1,0,0,-1,0,841.92)" d="M .000008871 0 L 595.32 0 L 595.32 841.92 L .000008871 841.92 Z " fill-rule="evenodd"/>
</clipPath>
<g clip-path="url(#cp30099)">
<text xml:space="preserve" transform="matrix(1 0 -0 1 0 841.92)" font-size="14.04" font-family="Times New Roman"><tspan y="-558.55" x="217.49"> </tspan></text>
</g>
<clipPath id="cp30100">
<path transform="matrix(1,0,0,-1,0,841.92)" d="M .000008871 0 L 595.32 0 L 595.32 841.92 L .000008871 841.92 Z " fill-rule="evenodd"/>
</clipPath>
<g clip-path="url(#cp30100)">
<text xml:space="preserve" transform="matrix(1 0 -0 1 0 841.92)" font-size="14.04" font-family="Times New Roman"><tspan y="-558.55" x="220.85 224.79524 231.85736 236.42037 240.3656 246.59937 251.16237 258.2245 264.45826 267.96827 274.20204 278.0209 282.69624 288.81767 292.76289 296.60984 302.01524 309.07734 312.58735 323.35603 330.41813 341.10258 348.16468 352.1099">turlarga ajratish mumkin</tspan></text>
</g>
<clipPath id="cp30101">
<path transform="matrix(1,0,0,-1,0,841.92)" d="M .000008871 0 L 595.32 0 L 595.32 841.92 L .000008871 841.92 Z " fill-rule="evenodd"/>
</clipPath>
<g clip-path="url(#cp30101)">
<text xml:space="preserve" transform="matrix(1 0 -0 1 0 841.92)" font-size="14.04" font-family="Times New Roman"><tspan y="-558.55" x="359.35">:</tspan></text>
</g>
<clipPath id="cp30102">
<path transform="matrix(1,0,0,-1,0,841.92)" d="M .000008871 0 L 595.32 0 L 595.32 841.92 L .000008871 841.92 Z " fill-rule="evenodd"/>
</clipPath>
<g clip-path="url(#cp30102)">
<text xml:space="preserve" transform="matrix(1 0 -0 1 0 841.92)" font-size="14.04" font-family="Times New Roman"><tspan y="-558.55" x="363.19"> </tspan></text>
</g>
</g>
<g id="Layer-1" data-name="P">
<clipPath id="cp30103">
<path transform="matrix(1,0,0,-1,0,841.92)" d="M .000008871 0 L 595.32 0 L 595.32 841.92 L .000008871 841.92 Z " fill-rule="evenodd"/>
</clipPath>
<g clip-path="url(#cp30103)">
<text xml:space="preserve" transform="matrix(1 0 -0 1 0 841.92)" font-size="14.04" font-family="Times New Roman,Bold" font-weight="bold"><tspan y="-534.43" x="113.42 122.784679 129.84679 137.40032 144.46244 148.40767 153.30762 157.98294 165.05912 171.29288 182.81972 189.88184">Lokal tarmoq</tspan></text>
</g>
<clipPath id="cp30104">
<path transform="matrix(1,0,0,-1,0,841.92)" d="M .000008871 0 L 595.32 0 L 595.32 841.92 L .000008871 841.92 Z " fill-rule="evenodd"/>
</clipPath>
<g clip-path="url(#cp30104)">
<text xml:space="preserve" transform="matrix(1 0 -0 1 0 841.92)" font-size="14.04" font-family="Times New Roman,Bold" font-weight="bold"><tspan y="-534.43" x="197.81"> </tspan></text>
</g>
<clipPath id="cp30105">
<path transform="matrix(1,0,0,-1,0,841.92)" d="M .000008871 0 L 595.32 0 L 595.32 841.92 L .000008871 841.92 Z " fill-rule="evenodd"/>
</clipPath>
<g clip-path="url(#cp30105)">
<text xml:space="preserve" transform="matrix(1 0 -0 1 0 841.92)" font-size="14.04" font-family="Times New Roman,Bold" font-weight="bold"><tspan y="-534.43" x="202.73">&#x2013;</tspan></text>
</g>
<clipPath id="cp30106">
<path transform="matrix(1,0,0,-1,0,841.92)" d="M .000008871 0 L 595.32 0 L 595.32 841.92 L .000008871 841.92 Z " fill-rule="evenodd"/>
</clipPath>
<g clip-path="url(#cp30106)">
<text xml:space="preserve" transform="matrix(1 0 -0 1 0 841.92)" font-size="14.04" font-family="Times New Roman,Bold" font-weight="bold"><tspan y="-534.43" x="209.81"> </tspan></text>
</g>
<clipPath id="cp30107">
<path transform="matrix(1,0,0,-1,0,841.92)" d="M .000008871 0 L 595.32 0 L 595.32 841.92 L .000008871 841.92 Z " fill-rule="evenodd"/>
</clipPath>
<g clip-path="url(#cp30107)">
<text xml:space="preserve" transform="matrix(1 0 -0 1 0 841.92)" font-size="14.04" font-family="Times New Roman"><tspan y="-534.43" x="214.73 221.79212 225.73735 230.41268 235.32668 242.3888 249.45092 254.01392 260.97776 268.03987 275.0037 281.23747 286.15147 292.98893 300.05104 307.11314 311.05836 316.0847 326.76914 333.83125 340.065 345.5827 351.08638 357.2078 362.71147 368.94523 375.90907 382.14283 389.10667 393.05189 397.95185 404.91569 408.8609 413.53623 418.45024 425.51234 431.7461 437.86753 444.92964 448.77659 455.01036 459.92436 466.7618 473.1079 480.17 484.01698 491.07908 495.97904 502.94288 506.8881 513.8519 520.91409 524.76107 530.9948 535.6701 542.648 548.8818 555.73336 559.5803">bir korxona yoki muassasadagi bir nechta yaqin binolardagi </tspan></text>
</g>
<clipPath id="cp30108">
<path transform="matrix(1,0,0,-1,0,841.92)" d="M .000008871 0 L 595.32 0 L 595.32 841.92 L .000008871 841.92 Z " fill-rule="evenodd"/>
</clipPath>
<g clip-path="url(#cp30108)">
<text xml:space="preserve" transform="matrix(1 0 -0 1 0 841.92)" font-size="14.04" font-family="Times New Roman"><tspan y="-510.31" x="85.104 92.166118 99.22823 109.912677 116.97479 123.81227 130.87439 134.81963 141.05339 145.72872 149.688 155.92177 160.48477 167.44861 171.39385 174.90384">kompyuterlarni o</tspan></text>
</g>
<clipPath id="cp30109">
<path transform="matrix(1,0,0,-1,0,841.92)" d="M .000008871 0 L 595.32 0 L 595.32 841.92 L .000008871 841.92 Z " fill-rule="evenodd"/>
</clipPath>
<g clip-path="url(#cp30109)">
<text xml:space="preserve" transform="matrix(1 0 -0 1 0 841.92)" font-size="14.04" font-family="Times New Roman"><tspan y="-510.31" x="182.06">&#x2019;</tspan></text>
</g>
<clipPath id="cp30110">
<path transform="matrix(1,0,0,-1,0,841.92)" d="M .000008871 0 L 595.32 0 L 595.32 841.92 L .000008871 841.92 Z " fill-rule="evenodd"/>
</clipPath>
<g clip-path="url(#cp30110)">
<text xml:space="preserve" transform="matrix(1 0 -0 1 0 841.92)" font-size="14.04" font-family="Times New Roman"><tspan y="-510.31" x="186.62 192.85376 199.08753 203.66457 210.72669 214.23668 221.17244 228.23456">zaro bog</tspan></text>
</g>
<clipPath id="cp30111">
<path transform="matrix(1,0,0,-1,0,841.92)" d="M .000008871 0 L 595.32 0 L 595.32 841.92 L .000008871 841.92 Z " fill-rule="evenodd"/>
</clipPath>
<g clip-path="url(#cp30111)">
<text xml:space="preserve" transform="matrix(1 0 -0 1 0 841.92)" font-size="14.04" font-family="Times New Roman"><tspan y="-510.31" x="235.37">&#x2019;</tspan></text>
</g>
<clipPath id="cp30112">
<path transform="matrix(1,0,0,-1,0,841.92)" d="M .000008871 0 L 595.32 0 L 595.32 841.92 L .000008871 841.92 Z " fill-rule="evenodd"/>
</clipPath>
<g clip-path="url(#cp30112)">
<text xml:space="preserve" transform="matrix(1 0 -0 1 0 841.92)" font-size="14.04" font-family="Times New Roman"><tspan y="-510.31" x="239.93 243.87523 249.99668 257.05879 263.1802 270.2423 273.75233 277.55717 283.79093 288.46626 299.1507 306.2128 313.2749">lagan tarmoq.</tspan></text>
</g>
<clipPath id="cp30113">
<path transform="matrix(1,0,0,-1,0,841.92)" d="M .000008871 0 L 595.32 0 L 595.32 841.92 L .000008871 841.92 Z " fill-rule="evenodd"/>
</clipPath>
<g clip-path="url(#cp30113)">
<text xml:space="preserve" transform="matrix(1 0 -0 1 0 841.92)" font-size="14.04" font-family="Times New Roman"><tspan y="-510.31" x="316.87"> </tspan></text>
</g>
</g>
<g id="Layer-1" data-name="P">
<clipPath id="cp30114">
<path transform="matrix(1,0,0,-1,0,841.92)" d="M .000008871 0 L 595.32 0 L 595.32 841.92 L .000008871 841.92 Z " fill-rule="evenodd"/>
</clipPath>
<g clip-path="url(#cp30114)">
<text xml:space="preserve" transform="matrix(1 0 -0 1 0 841.92)" font-size="14.04" font-family="Times New Roman,Bold" font-weight="bold"><tspan y="-486.07" x="113.42 126.6176 130.56284 138.36908 143.0444 150.10652 157.7864 164.75025 171.81237 175.65932 182.72144 195.55399 200.11699 207.17911 213.41287 224.93972 232.00183 239.80808 243.75331 250.71715">Mintaqaviy tarmoqlar</tspan></text>
</g>
<clipPath id="cp30115">
<path transform="matrix(1,0,0,-1,0,841.92)" d="M .000008871 0 L 595.32 0 L 595.32 841.92 L .000008871 841.92 Z " fill-rule="evenodd"/>
</clipPath>
<g clip-path="url(#cp30115)">
<text xml:space="preserve" transform="matrix(1 0 -0 1 0 841.92)" font-size="14.04" font-family="Times New Roman,Bold" font-weight="bold"><tspan y="-486.07" x="257.09"> </tspan></text>
</g>
<clipPath id="cp30116">
<path transform="matrix(1,0,0,-1,0,841.92)" d="M .000008871 0 L 595.32 0 L 595.32 841.92 L .000008871 841.92 Z " fill-rule="evenodd"/>
</clipPath>
<g clip-path="url(#cp30116)">
<text xml:space="preserve" transform="matrix(1 0 -0 1 0 841.92)" font-size="14.04" font-family="Times New Roman,Bold" font-weight="bold"><tspan y="-486.07" x="269.93">&#x2013;</tspan></text>
</g>
<clipPath id="cp30117">
<path transform="matrix(1,0,0,-1,0,841.92)" d="M .000008871 0 L 595.32 0 L 595.32 841.92 L .000008871 841.92 Z " fill-rule="evenodd"/>
</clipPath>
<g clip-path="url(#cp30117)">
<text xml:space="preserve" transform="matrix(1 0 -0 1 0 841.92)" font-size="14.04" font-family="Times New Roman,Bold" font-weight="bold"><tspan y="-486.07" x="277.01"> </tspan></text>
</g>
<clipPath id="cp30118">
<path transform="matrix(1,0,0,-1,0,841.92)" d="M .000008871 0 L 595.32 0 L 595.32 841.92 L .000008871 841.92 Z " fill-rule="evenodd"/>
</clipPath>
<g clip-path="url(#cp30118)">
<text xml:space="preserve" transform="matrix(1 0 -0 1 0 841.92)" font-size="14.04" font-family="Times New Roman"><tspan y="-486.07" x="289.85 300.53446 306.88056 317.565 321.51023 327.744 334.82014 341.0539 344.9991 348.35469 361.18727 366.69093 373.75303 379.87446 386.93656 393.17033 397.84565 410.5659 417.628 423.86177 436.69435 443.65818 447.50514 451.45036 458.51246 465.3499 471.58369 475.5289 479.37586 485.60963 490.28495 503.11753 510.17964 516.3011 520.9764 527.21017 531.0571 537.2909 542.6963 546.64157 553.6054 559.72689">mamlakat, shahar va viloyatlar darajasida </tspan></text>
</g>
<clipPath id="cp30119">
<path transform="matrix(1,0,0,-1,0,841.92)" d="M .000008871 0 L 595.32 0 L 595.32 841.92 L .000008871 841.92 Z " fill-rule="evenodd"/>
</clipPath>
<g clip-path="url(#cp30119)">
<text xml:space="preserve" transform="matrix(1 0 -0 1 0 841.92)" font-size="14.04" font-family="Times New Roman"><tspan y="-461.95" x="85.104 92.166118 99.22823 109.912677 116.97479 123.81227 130.87439 134.81963 141.05339 145.72872 149.688 155.92177 160.48477 167.44861 171.39385 181.57285 188.53668 194.77045 204.83713 208.78237 215.7462 222.80832 228.92977 232.875 243.054 246.90096 253.13472 257.81004 268.49449 275.55659 282.61869 286.5639 292.79768 297.36067 304.42277 308.2697 318.3364 329.13316 335.3669 342.44306 347.94673 354.91056 360.4142 370.59324 376.71467 380.5616 387.62373 394.68583 400.9196 411.11265">kompyuterlarni va lokal tarmoqlarni maxsus aloqa y</tspan></text>
</g>
<clipPath id="cp30120">
<path transform="matrix(1,0,0,-1,0,841.92)" d="M .000008871 0 L 595.32 0 L 595.32 841.92 L .000008871 841.92 Z " fill-rule="evenodd"/>
</clipPath>
<g clip-path="url(#cp30120)">
<text xml:space="preserve" transform="matrix(1 0 -0 1 0 841.92)" font-size="14.04" font-family="Times New Roman"><tspan y="-461.95" x="418.39 425.45213 432.41596 436.2629 446.44194 450.38716 456.6209 460.46788 466.70164 473.66548 480.72758 491.52433 502.20878 509.27088 516.333 520.27828 527.3404 533.46188 537.4071 542.8125 546.75778 553.5953 559.82907">oki telekommunikatsiya </tspan></text>
</g>
<clipPath id="cp30121">
<path transform="matrix(1,0,0,-1,0,841.92)" d="M .000008871 0 L 595.32 0 L 595.32 841.92 L .000008871 841.92 Z " fill-rule="evenodd"/>
</clipPath>
<g clip-path="url(#cp30121)">
<text xml:space="preserve" transform="matrix(1 0 -0 1 0 841.92)" font-size="14.04" font-family="Times New Roman"><tspan y="-437.83" x="85.104 92.166118 98.28755 105.34967 111.58343 115.43039 119.37563 125.60939 130.1724 134.11763 137.62763 144.56339 149.23871 156.31488 162.43633 166.28328 170.22852 173.73851">kanallari orqali o</tspan></text>
</g>
<clipPath id="cp30122">
<path transform="matrix(1,0,0,-1,0,841.92)" d="M .000008871 0 L 595.32 0 L 595.32 841.92 L .000008871 841.92 Z " fill-rule="evenodd"/>
</clipPath>
<g clip-path="url(#cp30122)">
<text xml:space="preserve" transform="matrix(1 0 -0 1 0 841.92)" font-size="14.04" font-family="Times New Roman"><tspan y="-437.83" x="180.86">&#x2019;</tspan></text>
</g>
<clipPath id="cp30123">
<path transform="matrix(1,0,0,-1,0,841.92)" d="M .000008871 0 L 595.32 0 L 595.32 841.92 L .000008871 841.92 Z " fill-rule="evenodd"/>
</clipPath>
<g clip-path="url(#cp30123)">
<text xml:space="preserve" transform="matrix(1 0 -0 1 0 841.92)" font-size="14.04" font-family="Times New Roman"><tspan y="-437.83" x="185.42 191.65377 197.88753 202.46457 209.52669 213.03668 219.97245 227.03456">zaro bog</tspan></text>
</g>
<clipPath id="cp30124">
<path transform="matrix(1,0,0,-1,0,841.92)" d="M .000008871 0 L 595.32 0 L 595.32 841.92 L .000008871 841.92 Z " fill-rule="evenodd"/>
</clipPath>
<g clip-path="url(#cp30124)">
<text xml:space="preserve" transform="matrix(1 0 -0 1 0 841.92)" font-size="14.04" font-family="Times New Roman"><tspan y="-437.83" x="234.17">&#x2019;</tspan></text>
</g>
<clipPath id="cp30125">
<path transform="matrix(1,0,0,-1,0,841.92)" d="M .000008871 0 L 595.32 0 L 595.32 841.92 L .000008871 841.92 Z " fill-rule="evenodd"/>
</clipPath>
<g clip-path="url(#cp30125)">
<text xml:space="preserve" transform="matrix(1 0 -0 1 0 841.92)" font-size="14.04" font-family="Times New Roman"><tspan y="-437.83" x="238.73 242.67523 248.79668 255.8588 261.98023 269.04234 272.55235 276.35719 282.59095 287.26628 297.9507 305.01283 312.07493 316.02015 322.14158 326.8169">lagan tarmoqlar.</tspan></text>
</g>
<clipPath id="cp30126">
<path transform="matrix(1,0,0,-1,0,841.92)" d="M .000008871 0 L 595.32 0 L 595.32 841.92 L .000008871 841.92 Z " fill-rule="evenodd"/>
</clipPath>
<g clip-path="url(#cp30126)">
<text xml:space="preserve" transform="matrix(1 0 -0 1 0 841.92)" font-size="14.04" font-family="Times New Roman"><tspan y="-437.83" x="330.43"> </tspan></text>
</g>
</g>
<g id="Layer-1" data-name="P">
<clipPath id="cp30127">
<path transform="matrix(1,0,0,-1,0,841.92)" d="M .000008871 0 L 595.32 0 L 595.32 841.92 L .000008871 841.92 Z " fill-rule="evenodd"/>
</clipPath>
<g clip-path="url(#cp30127)">
<text xml:space="preserve" transform="matrix(1 0 -0 1 0 841.92)" font-size="14.04" font-family="Times New Roman,Bold" font-weight="bold"><tspan y="-413.71" x="113.42 124.34312 128.28835 135.25218 143.05843 150.00823 153.95346 158.50241 163.17774 170.14157 176.37534 187.90218 194.9643 202.77054 206.71578 213.67961">Global tarmoqlar</tspan></text>
</g>
<clipPath id="cp30128">
<path transform="matrix(1,0,0,-1,0,841.92)" d="M .000008871 0 L 595.32 0 L 595.32 841.92 L .000008871 841.92 Z " fill-rule="evenodd"/>
</clipPath>
<g clip-path="url(#cp30128)">
<text xml:space="preserve" transform="matrix(1 0 -0 1 0 841.92)" font-size="14.04" font-family="Times New Roman,Bold" font-weight="bold"><tspan y="-413.71" x="220.01"> </tspan></text>
</g>
<clipPath id="cp30129">
<path transform="matrix(1,0,0,-1,0,841.92)" d="M .000008871 0 L 595.32 0 L 595.32 841.92 L .000008871 841.92 Z " fill-rule="evenodd"/>
</clipPath>
<g clip-path="url(#cp30129)">
<text xml:space="preserve" transform="matrix(1 0 -0 1 0 841.92)" font-size="14.04" font-family="Times New Roman,Bold" font-weight="bold"><tspan y="-413.71" x="224.57">&#x2013;</tspan></text>
</g>
<clipPath id="cp30130">
<path transform="matrix(1,0,0,-1,0,841.92)" d="M .000008871 0 L 595.32 0 L 595.32 841.92 L .000008871 841.92 Z " fill-rule="evenodd"/>
</clipPath>
<g clip-path="url(#cp30130)">
<text xml:space="preserve" transform="matrix(1 0 -0 1 0 841.92)" font-size="14.04" font-family="Times New Roman,Bold" font-weight="bold"><tspan y="-413.71" x="231.65"> </tspan></text>
</g>
<clipPath id="cp30131">
<path transform="matrix(1,0,0,-1,0,841.92)" d="M .000008871 0 L 595.32 0 L 595.32 841.92 L .000008871 841.92 Z " fill-rule="evenodd"/>
</clipPath>
<g clip-path="url(#cp30131)">
<text xml:space="preserve" transform="matrix(1 0 -0 1 0 841.92)" font-size="14.04" font-family="Times New Roman"><tspan y="-413.71" x="236.09">o</tspan></text>
</g>
<clipPath id="cp30132">
<path transform="matrix(1,0,0,-1,0,841.92)" d="M .000008871 0 L 595.32 0 L 595.32 841.92 L .000008871 841.92 Z " fill-rule="evenodd"/>
</clipPath>
<g clip-path="url(#cp30132)">
<text xml:space="preserve" transform="matrix(1 0 -0 1 0 841.92)" font-size="14.04" font-family="Times New Roman"><tspan y="-413.71" x="243.17">&#x2019;</tspan></text>
</g>
<clipPath id="cp30133">
<path transform="matrix(1,0,0,-1,0,841.92)" d="M .000008871 0 L 595.32 0 L 595.32 841.92 L .000008871 841.92 Z " fill-rule="evenodd"/>
</clipPath>
<g clip-path="url(#cp30133)">
<text xml:space="preserve" transform="matrix(1 0 -0 1 0 841.92)" font-size="14.04" font-family="Times New Roman"><tspan y="-413.71" x="247.73 253.96376 257.909 264.9711 271.20487 275.6415 282.60536 289.66746 293.5144 300.5765 307.6386 312.06123 319.12333 326.08717 333.14927 339.98674 347.04884 351.5978 358.56166 365.62376 376.3082 383.49668 390.33415 397.39625 401.34147 407.57524 412.25056 416.0975 422.33128 427.0066 430.85356 437.81739 441.7626 445.2726 449.79353 456.02729 462.99113 470.05323 477.01707 483.25083 490.32698 494.17393 498.11915 504.3529 508.9159 512.7629 519.825 523.77029 527.2803 531.80117 535.64816 542.612 549.67416 555.7956 559.6426">ziga butun dunyo kompyuterlarini, abonentlarini, lokal </tspan></text>
</g>
<clipPath id="cp30134">
<path transform="matrix(1,0,0,-1,0,841.92)" d="M .000008871 0 L 595.32 0 L 595.32 841.92 L .000008871 841.92 Z " fill-rule="evenodd"/>
</clipPath>
<g clip-path="url(#cp30134)">
<text xml:space="preserve" transform="matrix(1 0 -0 1 0 841.92)" font-size="14.04" font-family="Times New Roman"><tspan y="-389.57" x="85.104 92.166118 98.39987 104.39495 115.07939 119.024639 126.086757 130.03199 136.15343 143.21555 149.33699 156.30083 160.24607 167.08354 173.06458 177.00981 183.24358 187.9189 198.60335 205.79184 212.85396 216.7992 222.92064 227.59597 231.44292 238.50504 242.35199 248.33303 252.17998 258.41374 262.35896 268.48039 275.4442 282.50633 293.30308 303.98753 311.04963 318.11174 322.05696 329.11906 335.3528 339.19978 344.60517 348.55039 355.38786 361.6216 367.6167 372.29203 379.36817 385.60194 392.56578 398.79954 402.64649 406.5917 410.53694 413.8925 419.87355 425.27894 429.22416 440.0209 445.52458 449.4698 455.70356 459.21357 465.0542 470.4596 477.5217">va mintaqaviy tarmoqlarini telekommunikatsiya (kabelli, simsiz, sun</tspan></text>
</g>
<clipPath id="cp30135">
<path transform="matrix(1,0,0,-1,0,841.92)" d="M .000008871 0 L 595.32 0 L 595.32 841.92 L .000008871 841.92 Z " fill-rule="evenodd"/>
</clipPath>
<g clip-path="url(#cp30135)">
<text xml:space="preserve" transform="matrix(1 0 -0 1 0 841.92)" font-size="14.04" font-family="Times New Roman"><tspan y="-389.57" x="485.14">&#x2019;</tspan></text>
</g>
<clipPath id="cp30136">
<path transform="matrix(1,0,0,-1,0,841.92)" d="M .000008871 0 L 595.32 0 L 595.32 841.92 L .000008871 841.92 Z " fill-rule="evenodd"/>
</clipPath>
<g clip-path="url(#cp30136)">
<text xml:space="preserve" transform="matrix(1 0 -0 1 0 841.92)" font-size="14.04" font-family="Times New Roman"><tspan y="-389.57" x="489.7 493.64524 500.4827 506.46376 513.3013">iy yo</tspan></text>
</g>
<clipPath id="cp30137">
<path transform="matrix(1,0,0,-1,0,841.92)" d="M .000008871 0 L 595.32 0 L 595.32 841.92 L .000008871 841.92 Z " fill-rule="evenodd"/>
</clipPath>
<g clip-path="url(#cp30137)">
<text xml:space="preserve" transform="matrix(1 0 -0 1 0 841.92)" font-size="14.04" font-family="Times New Roman"><tspan y="-389.57" x="520.42">&#x2019;</tspan></text>
</g>
<clipPath id="cp30138">
<path transform="matrix(1,0,0,-1,0,841.92)" d="M .000008871 0 L 595.32 0 L 595.32 841.92 L .000008871 841.92 Z " fill-rule="evenodd"/>
</clipPath>
<g clip-path="url(#cp30138)">
<text xml:space="preserve" transform="matrix(1 0 -0 1 0 841.92)" font-size="14.04" font-family="Times New Roman"><tspan y="-389.57" x="524.98 528.92526 535.98739 543.0495 548.4549 555.517 559.9536">ldosh) </tspan></text>
</g>
<clipPath id="cp30139">
<path transform="matrix(1,0,0,-1,0,841.92)" d="M .000008871 0 L 595.32 0 L 595.32 841.92 L .000008871 841.92 Z " fill-rule="evenodd"/>
</clipPath>
<g clip-path="url(#cp30139)">
<text xml:space="preserve" transform="matrix(1 0 -0 1 0 841.92)" font-size="14.04" font-family="Times New Roman"><tspan y="-365.33" x="85.104 91.33775 95.283 102.24683 109.30895 115.43039 119.37563 125.60939 130.1724 134.11763 137.62763 141.53075 147.68027 152.35559 163.04004 170.10216">aloqalari tarmog</tspan></text>
</g>
<clipPath id="cp30140">
<path transform="matrix(1,0,0,-1,0,841.92)" d="M .000008871 0 L 595.32 0 L 595.32 841.92 L .000008871 841.92 Z " fill-rule="evenodd"/>
</clipPath>
<g clip-path="url(#cp30140)">
<text xml:space="preserve" transform="matrix(1 0 -0 1 0 841.92)" font-size="14.04" font-family="Times New Roman"><tspan y="-365.33" x="177.26">&#x2019;</tspan></text>
</g>
<clipPath id="cp30141">
<path transform="matrix(1,0,0,-1,0,841.92)" d="M .000008871 0 L 595.32 0 L 595.32 841.92 L .000008871 841.92 Z " fill-rule="evenodd"/>
</clipPath>
<g clip-path="url(#cp30141)">
<text xml:space="preserve" transform="matrix(1 0 -0 1 0 841.92)" font-size="14.04" font-family="Times New Roman"><tspan y="-365.33" x="181.82 185.76525 189.27524 196.29524 200.88632 207.94844 214.1822 218.02916 221.9744 225.32996 232.39208 239.35591">i orqali bog</tspan></text>
</g>
<clipPath id="cp30142">
<path transform="matrix(1,0,0,-1,0,841.92)" d="M .000008871 0 L 595.32 0 L 595.32 841.92 L .000008871 841.92 Z " fill-rule="evenodd"/>
</clipPath>
<g clip-path="url(#cp30142)">
<text xml:space="preserve" transform="matrix(1 0 -0 1 0 841.92)" font-size="14.04" font-family="Times New Roman"><tspan y="-365.33" x="246.53">&#x2019;</tspan></text>
</g>
<clipPath id="cp30143">
<path transform="matrix(1,0,0,-1,0,841.92)" d="M .000008871 0 L 595.32 0 L 595.32 841.92 L .000008871 841.92 Z " fill-rule="evenodd"/>
</clipPath>
<g clip-path="url(#cp30143)">
<text xml:space="preserve" transform="matrix(1 0 -0 1 0 841.92)" font-size="14.04" font-family="Times New Roman"><tspan y="-365.33" x="251.09 255.03524 261.26899 268.23283 274.46659 281.54273 285.05274 291.86213 295.80735 300.48268 304.32963 311.39173 314.90174 318.70658 324.94035 329.61567 340.3001 347.3622 354.42433">lagan yirik tarmoq.</tspan></text>
</g>
<clipPath id="cp30144">
<path transform="matrix(1,0,0,-1,0,841.92)" d="M .000008871 0 L 595.32 0 L 595.32 841.92 L .000008871 841.92 Z " fill-rule="evenodd"/>
</clipPath>
<g clip-path="url(#cp30144)">
<text xml:space="preserve" transform="matrix(1 0 -0 1 0 841.92)" font-size="14.04" font-family="Times New Roman"><tspan y="-365.33" x="358.03"> </tspan></text>
</g>
</g>
<g id="Layer-1" data-name="P">
<clipPath id="cp30145">
<path transform="matrix(1,0,0,-1,0,841.92)" d="M .000008871 0 L 595.32 0 L 595.32 841.92 L .000008871 841.92 Z " fill-rule="evenodd"/>
</clipPath>
<g clip-path="url(#cp30145)">
<text xml:space="preserve" transform="matrix(1 0 -0 1 0 841.92)" font-size="14.04" font-family="Times New Roman"><tspan y="-341.21" x="113.42 123.50072 130.56284 137.52667 144.58879 149.1518 156.21392 160.15915 166.63158 177.31603 184.37815 191.44026 195.3855 199.23246 203.0794 210.14153 216.37529 222.84772 226.79296 232.9144 239.14817 243.0934 246.94036 254.00247 260.4749 264.32188 271.38398 276.78938 283.7532 290.8153 297.77915 304.0129 311.08906 317.21049 322.61589 326.5611 330.0711 336.50144 343.56355 347.50877 352.07176 356.01698 359.86393 366.92604 370.77299 377.00675 381.68208 385.64134 391.98744 399.04954 405.2833 411.75575 417.9895 424.95335 432.01545 438.97929 443.6546 450.61845 454.56367 461.0361 468.0982 474.21965 481.28175 487.5155 491.36247 495.30769 501.54145 506.10444 510.04966 516.5221 521.9275 525.87277">Axborot muhitida tezlik tushunchasi, birliklari va axborot kanallari sig</tspan></text>
</g>
<clipPath id="cp30146">
<path transform="matrix(1,0,0,-1,0,841.92)" d="M .000008871 0 L 595.32 0 L 595.32 841.92 L .000008871 841.92 Z " fill-rule="evenodd"/>
</clipPath>
<g clip-path="url(#cp30146)">
<text xml:space="preserve" transform="matrix(1 0 -0 1 0 841.92)" font-size="14.04" font-family="Times New Roman"><tspan y="-341.21" x="533.5">&#x2019;</tspan></text>
</g>
<clipPath id="cp30147">
<path transform="matrix(1,0,0,-1,0,841.92)" d="M .000008871 0 L 595.32 0 L 595.32 841.92 L .000008871 841.92 Z " fill-rule="evenodd"/>
</clipPath>
<g clip-path="url(#cp30147)">
<text xml:space="preserve" transform="matrix(1 0 -0 1 0 841.92)" font-size="14.04" font-family="Times New Roman"><tspan y="-341.21" x="538.06 542.00527 552.68966 556.6349 559.9905">imi. </tspan></text>
</g>
<clipPath id="cp30148">
<path transform="matrix(1,0,0,-1,0,841.92)" d="M .000008871 0 L 595.32 0 L 595.32 841.92 L .000008871 841.92 Z " fill-rule="evenodd"/>
</clipPath>
<g clip-path="url(#cp30148)">
<text xml:space="preserve" transform="matrix(1 0 -0 1 0 841.92)" font-size="14.04" font-family="Times New Roman"><tspan y="-317.09" x="85.104 97.584">Ma</tspan></text>
</g>
<clipPath id="cp30149">
<path transform="matrix(1,0,0,-1,0,841.92)" d="M .000008871 0 L 595.32 0 L 595.32 841.92 L .000008871 841.92 Z " fill-rule="evenodd"/>
</clipPath>
<g clip-path="url(#cp30149)">
<text xml:space="preserve" transform="matrix(1 0 -0 1 0 841.92)" font-size="14.04" font-family="Times New Roman"><tspan y="-317.09" x="103.82">&#x2019;</tspan></text>
</g>
<clipPath id="cp30150">
<path transform="matrix(1,0,0,-1,0,841.92)" d="M .000008871 0 L 595.32 0 L 595.32 841.92 L .000008871 841.92 Z " fill-rule="evenodd"/>
</clipPath>
<g clip-path="url(#cp30150)">
<text xml:space="preserve" transform="matrix(1 0 -0 1 0 841.92)" font-size="14.04" font-family="Times New Roman"><tspan y="-317.09" x="108.38 112.32524 119.38736 130.07181 135.81417 142.87628 149.11005 156.18622 160.03318 165.77553 172.83765 177.40065 183.63442 187.48137 191.4266">lum vaqt oralig</tspan></text>
</g>
<clipPath id="cp30151">
<path transform="matrix(1,0,0,-1,0,841.92)" d="M .000008871 0 L 595.32 0 L 595.32 841.92 L .000008871 841.92 Z " fill-rule="evenodd"/>
</clipPath>
<g clip-path="url(#cp30151)">
<text xml:space="preserve" transform="matrix(1 0 -0 1 0 841.92)" font-size="14.04" font-family="Times New Roman"><tspan y="-317.09" x="198.65">&#x2019;</tspan></text>
</g>
<clipPath id="cp30152">
<path transform="matrix(1,0,0,-1,0,841.92)" d="M .000008871 0 L 595.32 0 L 595.32 841.92 L .000008871 841.92 Z " fill-rule="evenodd"/>
</clipPath>
<g clip-path="url(#cp30152)">
<text xml:space="preserve" transform="matrix(1 0 -0 1 0 841.92)" font-size="14.04" font-family="Times New Roman"><tspan y="-317.09" x="203.21 207.05696 214.11908 220.35285 226.10924 232.23069 236.07764 243.13976 250.20188 256.3233 262.06568 272.75013 279.81224 286.87434 290.81956 294.6665 298.61174 304.8455 309.40849 313.3537 318.98374 325.94758 330.6229 337.69905 343.82048 347.7657 351.7109 357.34095 364.40306 370.6368 376.75825 380.6052 384.5504 388.49565 394.61708 401.5809 405.52613 412.48997 418.72373 425.79988 431.4299 437.66368 444.6275 451.6896 458.7517 463.3147 470.27854 474.22377 479.8538 486.9159 493.14967 496.9966 507.68107 511.62629">ida aloqa muhitlari orqali uzatiladigan axborot hajmi </tspan></text>
</g>
<clipPath id="cp30153">
<path transform="matrix(1,0,0,-1,0,841.92)" d="M .000008871 0 L 595.32 0 L 595.32 841.92 L .000008871 841.92 Z " fill-rule="evenodd"/>
</clipPath>
<g clip-path="url(#cp30153)">
<text xml:space="preserve" transform="matrix(1 0 -0 1 0 841.92)" font-size="14.04" font-family="Times New Roman"><tspan y="-317.09" x="517.78">-</tspan></text>
</g>
<clipPath id="cp30154">
<path transform="matrix(1,0,0,-1,0,841.92)" d="M .000008871 0 L 595.32 0 L 595.32 841.92 L .000008871 841.92 Z " fill-rule="evenodd"/>
</clipPath>
<g clip-path="url(#cp30154)">
<text xml:space="preserve" transform="matrix(1 0 -0 1 0 841.92)" font-size="14.04" font-family="Times New Roman"><tspan y="-317.09" x="522.46"> </tspan></text>
</g>
<clipPath id="cp30155">
<path transform="matrix(1,0,0,-1,0,841.92)" d="M .000008871 0 L 595.32 0 L 595.32 841.92 L .000008871 841.92 Z " fill-rule="evenodd"/>
</clipPath>
<g clip-path="url(#cp30155)">
<text xml:space="preserve" transform="matrix(1 0 -0 1 0 841.92)" font-size="14.04" font-family="Times New Roman"><tspan y="-317.09" x="528.22 535.2821 542.246 546.1912 553.02877 559.9926">uning </tspan></text>
</g>
<clipPath id="cp30156">
<path transform="matrix(1,0,0,-1,0,841.92)" d="M .000008871 0 L 595.32 0 L 595.32 841.92 L .000008871 841.92 Z " fill-rule="evenodd"/>
</clipPath>
<g clip-path="url(#cp30156)">
<text xml:space="preserve" transform="matrix(1 0 -0 1 0 841.92)" font-size="14.04" font-family="Times New Roman"><tspan y="-292.97" x="85.104 92.166118 98.39987 104.52131 108.46655 112.313518 116.25876 120.10572 125.51112 132.57324 136.08324 139.98636 146.13588 152.36965 156.2166 160.16184 167.12567 170.97263 178.03475 181.97998 185.33554 192.39766 198.63143 202.47838 209.5405 213.38745 217.33269 223.56645 230.41797 237.48009 241.42533">uzatilish tezligini belgilaydi.</tspan></text>
</g>
<clipPath id="cp30157">
<path transform="matrix(1,0,0,-1,0,841.92)" d="M .000008871 0 L 595.32 0 L 595.32 841.92 L .000008871 841.92 Z " fill-rule="evenodd"/>
</clipPath>
<g clip-path="url(#cp30157)">
<text xml:space="preserve" transform="matrix(1 0 -0 1 0 841.92)" font-size="14.04" font-family="Times New Roman"><tspan y="-292.97" x="244.97"> </tspan></text>
</g>
</g>
<g id="Layer-1" data-name="P">
<clipPath id="cp30158">
<path transform="matrix(1,0,0,-1,0,841.92)" d="M .000008871 0 L 595.32 0 L 595.32 841.92 L .000008871 841.92 Z " fill-rule="evenodd"/>
</clipPath>
<g clip-path="url(#cp30158)">
<text xml:space="preserve" transform="matrix(1 0 -0 1 0 841.92)" font-size="14.04" font-family="Times New Roman"><tspan y="-268.73" x="113.42 123.50072 129.73448 134.4098 138.72008 145.7822 152.01596 158.9798 166.04192 172.27568 179.1272 183.43747 190.49959 196.73336 201.40868 207.64244 214.71862 220.84006 224.7853 228.63225 234.7537 241.81581 248.77965 255.84177 261.9632 269.0253 272.97053 277.28083 281.12779 284.97474 290.4784 301.27516 305.58546 312.64756 318.88133 323.31797 334.0024 341.0645 348.12663 355.09046 361.32423">Har qanday harakatlanuvchi jism va modda </tspan></text>
</g>
<clipPath id="cp30159">
<path transform="matrix(1,0,0,-1,0,841.92)" d="M .000008871 0 L 595.32 0 L 595.32 841.92 L .000008871 841.92 Z " fill-rule="evenodd"/>
</clipPath>
<g clip-path="url(#cp30159)">
<text xml:space="preserve" transform="matrix(1 0 -0 1 0 841.92)" font-size="14.04" font-family="Times New Roman"><tspan y="-268.73" x="365.95 373.01213 379.24589 386.20973 393.17356 400.23567 404.54597 408.49119 414.72496 420.84638 424.7916 428.63856 435.70066 440.01097 443.8579 450.92 456.3254 463.28926 470.35136 477.3152 483.54896 490.6251 496.74653 502.25019 506.1954 510.5057 517.46957 523.7033 528.0136 535.07577 542.0396 545.8866 552.85049 559.81436">uchun tezlik tushunchasi va uning </tspan></text>
</g>
<clipPath id="cp30160">
<path transform="matrix(1,0,0,-1,0,841.92)" d="M .000008871 0 L 595.32 0 L 595.32 841.92 L .000008871 841.92 Z " fill-rule="evenodd"/>
</clipPath>
<g clip-path="url(#cp30160)">
<text xml:space="preserve" transform="matrix(1 0 -0 1 0 841.92)" font-size="14.04" font-family="Times New Roman"><tspan y="-244.61" x="85.104">o</tspan></text>
</g>
<clipPath id="cp30161">
<path transform="matrix(1,0,0,-1,0,841.92)" d="M .000008871 0 L 595.32 0 L 595.32 841.92 L .000008871 841.92 Z " fill-rule="evenodd"/>
</clipPath>
<g clip-path="url(#cp30161)">
<text xml:space="preserve" transform="matrix(1 0 -0 1 0 841.92)" font-size="14.04" font-family="Times New Roman"><tspan y="-244.61" x="92.184">&#x2019;</tspan></text>
</g>
<clipPath id="cp30162">
<path transform="matrix(1,0,0,-1,0,841.92)" d="M .000008871 0 L 595.32 0 L 595.32 841.92 L .000008871 841.92 Z " fill-rule="evenodd"/>
</clipPath>
<g clip-path="url(#cp30162)">
<text xml:space="preserve" transform="matrix(1 0 -0 1 0 841.92)" font-size="14.04" font-family="Times New Roman"><tspan y="-244.61" x="96.744 100.68925 106.923007 113.88684 120.85068 127.912799 136.29468 143.25852 147.20375 151.76676 155.71199 159.55895 166.52278 170.46802 176.70178 181.3771 185.22406 193.60594 204.40271 210.63648 217.71265 221.5596 228.52344 235.58556 243.85512 250.91724">lchov birliklari mavjud bo</tspan></text>
</g>
<clipPath id="cp30163">
<path transform="matrix(1,0,0,-1,0,841.92)" d="M .000008871 0 L 595.32 0 L 595.32 841.92 L .000008871 841.92 Z " fill-rule="evenodd"/>
</clipPath>
<g clip-path="url(#cp30163)">
<text xml:space="preserve" transform="matrix(1 0 -0 1 0 841.92)" font-size="14.04" font-family="Times New Roman"><tspan y="-244.61" x="258.17">&#x2019;</tspan></text>
</g>
<clipPath id="cp30164">
<path transform="matrix(1,0,0,-1,0,841.92)" d="M .000008871 0 L 595.32 0 L 595.32 841.92 L .000008871 841.92 Z " fill-rule="evenodd"/>
</clipPath>
<g clip-path="url(#cp30164)">
<text xml:space="preserve" transform="matrix(1 0 -0 1 0 841.92)" font-size="14.04" font-family="Times New Roman"><tspan y="-244.61" x="262.73 266.57698 273.63908 279.7605 286.8226 290.66957 297.73167 303.8531 310.9152 314.4252 322.6667 328.90046 335.8643 342.9264 349.9885 354.55149 361.51533 365.46055 372.42439 376.3696 383.33345 390.39555 398.6651 405.7272 411.96098 422.64543 431.0273 438.08943 444.32319 450.55696 454.5162 458.36317 463.76856 470.83067 479.21257 483.0595 489.29328 495.52705 499.374 503.22096 510.28306 514.2283 522.49789 529.56 535.79379 546.47817 553.5403 559.66177">lganidek, axborotning ham uzatish tezligi hamda </tspan></text>
</g>
<clipPath id="cp30165">
<path transform="matrix(1,0,0,-1,0,841.92)" d="M .000008871 0 L 595.32 0 L 595.32 841.92 L .000008871 841.92 Z " fill-rule="evenodd"/>
</clipPath>
<g clip-path="url(#cp30165)">
<text xml:space="preserve" transform="matrix(1 0 -0 1 0 841.92)" font-size="14.04" font-family="Times New Roman"><tspan y="-220.49" x="85.104">o</tspan></text>
</g>
<clipPath id="cp30166">
<path transform="matrix(1,0,0,-1,0,841.92)" d="M .000008871 0 L 595.32 0 L 595.32 841.92 L .000008871 841.92 Z " fill-rule="evenodd"/>
</clipPath>
<g clip-path="url(#cp30166)">
<text xml:space="preserve" transform="matrix(1 0 -0 1 0 841.92)" font-size="14.04" font-family="Times New Roman"><tspan y="-220.49" x="92.184">&#x2019;</tspan></text>
</g>
<clipPath id="cp30167">
<path transform="matrix(1,0,0,-1,0,841.92)" d="M .000008871 0 L 595.32 0 L 595.32 841.92 L .000008871 841.92 Z " fill-rule="evenodd"/>
</clipPath>
<g clip-path="url(#cp30167)">
<text xml:space="preserve" transform="matrix(1 0 -0 1 0 841.92)" font-size="14.04" font-family="Times New Roman"><tspan y="-220.49" x="96.744 100.68925 106.923007 113.88684 120.85068 127.912799 131.42279 138.35855 142.30379 146.97911 150.82607 154.67302 161.73514 165.68038 171.80182 176.47714 180.42238 183.93238 194.58875 200.93483 207.99695 211.8439 218.80774 225.86986 232.8337 236.77893 241.45426 244.96425 248.41808 255.38191 262.34577 266.291 272.52476 277.20008">lchov birliklari mavjuddir, bular:</tspan></text>
</g>
</g>
<g id="Layer-1" data-name="P">
<clipPath id="cp30168">
<path transform="matrix(1,0,0,-1,0,841.92)" d="M .000008871 0 L 595.32 0 L 595.32 841.92 L .000008871 841.92 Z " fill-rule="evenodd"/>
</clipPath>
<g clip-path="url(#cp30168)">
<text xml:space="preserve" transform="matrix(1 0 -0 1 0 841.92)" font-size="14.04" font-family="Times New Roman"><tspan y="-220.49" x="281.21"> </tspan></text>
</g>
</g>
<g id="Layer-1" data-name="P">
<clipPath id="cp30169">
<path transform="matrix(1,0,0,-1,0,841.92)" d="M .000008871 0 L 595.32 0 L 595.32 841.92 L .000008871 841.92 Z " fill-rule="evenodd"/>
</clipPath>
<g clip-path="url(#cp30169)">
<text xml:space="preserve" transform="matrix(1 0 -0 1 0 841.92)" font-size="14.04" font-family="Times New Roman"><tspan y="-196.34" x="113.42">-</tspan></text>
</g>
<clipPath id="cp30170">
<path transform="matrix(1,0,0,-1,0,841.92)" d="M .000008871 0 L 595.32 0 L 595.32 841.92 L .000008871 841.92 Z " fill-rule="evenodd"/>
</clipPath>
<g clip-path="url(#cp30170)">
<text xml:space="preserve" transform="matrix(1 0 -0 1 0 841.92)" font-size="14.04" font-family="Times New Roman"><tspan y="-196.34" x="118.1"> </tspan></text>
</g>
<clipPath id="cp30171">
<path transform="matrix(1,0,0,-1,0,841.92)" d="M .000008871 0 L 595.32 0 L 595.32 841.92 L .000008871 841.92 Z " fill-rule="evenodd"/>
</clipPath>
<g clip-path="url(#cp30171)">
<text xml:space="preserve" transform="matrix(1 0 -0 1 0 841.92)" font-size="14.04" font-family="Times New Roman"><tspan y="-196.34" x="120.5 129.86469 133.80992 137.65688 141.50383 147.0075 153.24127 160.20511 167.16895 174.23107">Bit/sekund</tspan></text>
</g>
<clipPath id="cp30172">
<path transform="matrix(1,0,0,-1,0,841.92)" d="M .000008871 0 L 595.32 0 L 595.32 841.92 L .000008871 841.92 Z " fill-rule="evenodd"/>
</clipPath>
<g clip-path="url(#cp30172)">
<text xml:space="preserve" transform="matrix(1 0 -0 1 0 841.92)" font-size="14.04" font-family="Times New Roman,Bold" font-weight="bold"><tspan y="-196.34" x="181.34"> </tspan></text>
</g>
<clipPath id="cp30173">
<path transform="matrix(1,0,0,-1,0,841.92)" d="M .000008871 0 L 595.32 0 L 595.32 841.92 L .000008871 841.92 Z " fill-rule="evenodd"/>
</clipPath>
<g clip-path="url(#cp30173)">
<text xml:space="preserve" transform="matrix(1 0 -0 1 0 841.92)" font-size="14.04" font-family="Times New Roman,Bold" font-weight="bold"><tspan y="-196.34" x="184.7">&#x2013;</tspan></text>
</g>
<clipPath id="cp30174">
<path transform="matrix(1,0,0,-1,0,841.92)" d="M .000008871 0 L 595.32 0 L 595.32 841.92 L .000008871 841.92 Z " fill-rule="evenodd"/>
</clipPath>
<g clip-path="url(#cp30174)">
<text xml:space="preserve" transform="matrix(1 0 -0 1 0 841.92)" font-size="14.04" font-family="Times New Roman,Bold" font-weight="bold"><tspan y="-196.34" x="191.81"> </tspan></text>
</g>
<clipPath id="cp30175">
<path transform="matrix(1,0,0,-1,0,841.92)" d="M .000008871 0 L 595.32 0 L 595.32 841.92 L .000008871 841.92 Z " fill-rule="evenodd"/>
</clipPath>
<g clip-path="url(#cp30175)">
<text xml:space="preserve" transform="matrix(1 0 -0 1 0 841.92)" font-size="14.04" font-family="Times New Roman"><tspan y="-196.34" x="195.29 202.25383 206.19907 210.87439 214.24399 219.74767 226.7115 233.77362 237.62058 244.45806 250.69182 257.76799 264.00175 267.51176 273.7455 277.64863 284.6686 291.6886 297.95045 301.46046 312.11683 319.17893 326.24104 330.18626 334.0332 337.97843 341.33399 348.3961 353.0714 360.03526 366.269 370.21424 374.15946 377.515 384.57713 390.81089 396.9323 400.87754 404.7245 408.6697 414.79115 421.75498 425.7002 432.7623 438.88374 445.94584 449.3014 456.3635 460.21046 464.15568 468.00263 474.2364 478.9117 482.42173 487.88328 494.90327 501.83903 505.78425">bir soniyada aloqa muhiti orqali uzatiladigan bitlar soni;</tspan></text>
</g>
<clipPath id="cp30176">
<path transform="matrix(1,0,0,-1,0,841.92)" d="M .000008871 0 L 595.32 0 L 595.32 841.92 L .000008871 841.92 Z " fill-rule="evenodd"/>
</clipPath>
<g clip-path="url(#cp30176)">
<text xml:space="preserve" transform="matrix(1 0 -0 1 0 841.92)" font-size="14.04" font-family="Times New Roman"><tspan y="-196.34" x="509.98"> </tspan></text>
</g>
</g>
<g id="Layer-1" data-name="P">
<clipPath id="cp30177">
<path transform="matrix(1,0,0,-1,0,841.92)" d="M .000008871 0 L 595.32 0 L 595.32 841.92 L .000008871 841.92 Z " fill-rule="evenodd"/>
</clipPath>
<g clip-path="url(#cp30177)">
<text xml:space="preserve" transform="matrix(1 0 -0 1 0 841.92)" font-size="14.04" font-family="Times New Roman"><tspan y="-172.1" x="113.42">-</tspan></text>
</g>
<clipPath id="cp30178">
<path transform="matrix(1,0,0,-1,0,841.92)" d="M .000008871 0 L 595.32 0 L 595.32 841.92 L .000008871 841.92 Z " fill-rule="evenodd"/>
</clipPath>
<g clip-path="url(#cp30178)">
<text xml:space="preserve" transform="matrix(1 0 -0 1 0 841.92)" font-size="14.04" font-family="Times New Roman"><tspan y="-172.1" x="118.1"> </tspan></text>
</g>
<clipPath id="cp30179">
<path transform="matrix(1,0,0,-1,0,841.92)" d="M .000008871 0 L 595.32 0 L 595.32 841.92 L .000008871 841.92 Z " fill-rule="evenodd"/>
</clipPath>
<g clip-path="url(#cp30179)">
<text xml:space="preserve" transform="matrix(1 0 -0 1 0 841.92)" font-size="14.04" font-family="Times New Roman"><tspan y="-172.1" x="120.5 130.58072 137.64284 141.48979 145.43503 149.28199 154.78566 160.9071 167.96923 174.93306 181.8969">Kbit/sekund</tspan></text>
</g>
<clipPath id="cp30180">
<path transform="matrix(1,0,0,-1,0,841.92)" d="M .000008871 0 L 595.32 0 L 595.32 841.92 L .000008871 841.92 Z " fill-rule="evenodd"/>
</clipPath>
<g clip-path="url(#cp30180)">
<text xml:space="preserve" transform="matrix(1 0 -0 1 0 841.92)" font-size="14.04" font-family="Times New Roman,Bold" font-weight="bold"><tspan y="-172.1" x="189.05"> </tspan></text>
</g>
<clipPath id="cp30181">
<path transform="matrix(1,0,0,-1,0,841.92)" d="M .000008871 0 L 595.32 0 L 595.32 841.92 L .000008871 841.92 Z " fill-rule="evenodd"/>
</clipPath>
<g clip-path="url(#cp30181)">
<text xml:space="preserve" transform="matrix(1 0 -0 1 0 841.92)" font-size="14.04" font-family="Times New Roman,Bold" font-weight="bold"><tspan y="-172.1" x="199.61">&#x2013;</tspan></text>
</g>
<clipPath id="cp30182">
<path transform="matrix(1,0,0,-1,0,841.92)" d="M .000008871 0 L 595.32 0 L 595.32 841.92 L .000008871 841.92 Z " fill-rule="evenodd"/>
</clipPath>
<g clip-path="url(#cp30182)">
<text xml:space="preserve" transform="matrix(1 0 -0 1 0 841.92)" font-size="14.04" font-family="Times New Roman,Bold" font-weight="bold"><tspan y="-172.1" x="206.69"> </tspan></text>
</g>
<clipPath id="cp30183">
<path transform="matrix(1,0,0,-1,0,841.92)" d="M .000008871 0 L 595.32 0 L 595.32 841.92 L .000008871 841.92 Z " fill-rule="evenodd"/>
</clipPath>
<g clip-path="url(#cp30183)">
<text xml:space="preserve" transform="matrix(1 0 -0 1 0 841.92)" font-size="14.04" font-family="Times New Roman"><tspan y="-172.1" x="217.25 224.21384 228.15908 232.72208 243.26612 248.76979 255.83191 262.79576 266.74098 273.57844 279.8122 286.88835 293.1221 303.68019 309.91395 313.7609 320.823 327.78684">bir soniyada aloqa</tspan></text>
</g>
<clipPath id="cp30184">
<path transform="matrix(1,0,0,-1,0,841.92)" d="M .000008871 0 L 595.32 0 L 595.32 841.92 L .000008871 841.92 Z " fill-rule="evenodd"/>
</clipPath>
<g clip-path="url(#cp30184)">
<text xml:space="preserve" transform="matrix(1 0 -0 1 0 841.92)" font-size="14.04" font-family="Times New Roman"><tspan y="-172.1" x="334.15"> </tspan></text>
</g>
<clipPath id="cp30185">
<path transform="matrix(1,0,0,-1,0,841.92)" d="M .000008871 0 L 595.32 0 L 595.32 841.92 L .000008871 841.92 Z " fill-rule="evenodd"/>
</clipPath>
<g clip-path="url(#cp30185)">
<text xml:space="preserve" transform="matrix(1 0 -0 1 0 841.92)" font-size="14.04" font-family="Times New Roman"><tspan y="-172.1" x="344.71 355.39445 362.45655 369.51866 373.46388 377.4091 381.3543 391.78605 398.84815 403.52348 410.4873 416.72108 420.56803 424.51325 435.05729 442.1194 448.35316 454.47459 458.32154 462.26676 466.1137 472.34748 479.4236 483.27058 490.33268 496.4541 503.5162 514.06027 524.7446 528.6899 535.752 542.81417 546.7594 552.75448 559.7183">muhiti orqali uzatiladigan minglab </tspan></text>
</g>
<clipPath id="cp30186">
<path transform="matrix(1,0,0,-1,0,841.92)" d="M .000008871 0 L 595.32 0 L 595.32 841.92 L .000008871 841.92 Z " fill-rule="evenodd"/>
</clipPath>
<g clip-path="url(#cp30186)">
<text xml:space="preserve" transform="matrix(1 0 -0 1 0 841.92)" font-size="14.04" font-family="Times New Roman"><tspan y="-147.98" x="85.104 91.941478 98.17523 105.25139 109.19663 113.14188 116.98884 120.93408 127.05552 134.11763 141.08147 147.31523 154.3914 157.74697 164.80908 168.65604 172.50299 176.44823 182.68199 187.35732 190.86731 196.24463 203.20847 210.27059 214.11754">yaxlitlangan bitlar soni;</tspan></text>
</g>
<clipPath id="cp30187">
<path transform="matrix(1,0,0,-1,0,841.92)" d="M .000008871 0 L 595.32 0 L 595.32 841.92 L .000008871 841.92 Z " fill-rule="evenodd"/>
</clipPath>
<g clip-path="url(#cp30187)">
<text xml:space="preserve" transform="matrix(1 0 -0 1 0 841.92)" font-size="14.04" font-family="Times New Roman"><tspan y="-147.98" x="218.09"> </tspan></text>
</g>
</g>
<g id="Layer-1" data-name="P">
<clipPath id="cp30188">
<path transform="matrix(1,0,0,-1,0,841.92)" d="M .000008871 0 L 595.32 0 L 595.32 841.92 L .000008871 841.92 Z " fill-rule="evenodd"/>
</clipPath>
<g clip-path="url(#cp30188)">
<text xml:space="preserve" transform="matrix(1 0 -0 1 0 841.92)" font-size="14.04" font-family="Times New Roman"><tspan y="-123.86" x="113.42">-</tspan></text>
</g>
<clipPath id="cp30189">
<path transform="matrix(1,0,0,-1,0,841.92)" d="M .000008871 0 L 595.32 0 L 595.32 841.92 L .000008871 841.92 Z " fill-rule="evenodd"/>
</clipPath>
<g clip-path="url(#cp30189)">
<text xml:space="preserve" transform="matrix(1 0 -0 1 0 841.92)" font-size="14.04" font-family="Times New Roman"><tspan y="-123.86" x="118.1"> </tspan></text>
</g>
<clipPath id="cp30190">
<path transform="matrix(1,0,0,-1,0,841.92)" d="M .000008871 0 L 595.32 0 L 595.32 841.92 L .000008871 841.92 Z " fill-rule="evenodd"/>
</clipPath>
<g clip-path="url(#cp30190)">
<text xml:space="preserve" transform="matrix(1 0 -0 1 0 841.92)" font-size="14.04" font-family="Times New Roman"><tspan y="-123.86" x="120.5 132.98157 139.9454 143.89064 147.7376 151.68283 157.18651 163.30796 170.27179 177.33391 184.29775">Mbit/sekund</tspan></text>
</g>
<clipPath id="cp30191">
<path transform="matrix(1,0,0,-1,0,841.92)" d="M .000008871 0 L 595.32 0 L 595.32 841.92 L .000008871 841.92 Z " fill-rule="evenodd"/>
</clipPath>
<g clip-path="url(#cp30191)">
<text xml:space="preserve" transform="matrix(1 0 -0 1 0 841.92)" font-size="14.04" font-family="Times New Roman,Bold" font-weight="bold"><tspan y="-123.86" x="191.45"> </tspan></text>
</g>
<clipPath id="cp30192">
<path transform="matrix(1,0,0,-1,0,841.92)" d="M .000008871 0 L 595.32 0 L 595.32 841.92 L .000008871 841.92 Z " fill-rule="evenodd"/>
</clipPath>
<g clip-path="url(#cp30192)">
<text xml:space="preserve" transform="matrix(1 0 -0 1 0 841.92)" font-size="14.04" font-family="Times New Roman,Bold" font-weight="bold"><tspan y="-123.86" x="200.21">&#x2013;</tspan></text>
</g>
<clipPath id="cp30193">
<path transform="matrix(1,0,0,-1,0,841.92)" d="M .000008871 0 L 595.32 0 L 595.32 841.92 L .000008871 841.92 Z " fill-rule="evenodd"/>
</clipPath>
<g clip-path="url(#cp30193)">
<text xml:space="preserve" transform="matrix(1 0 -0 1 0 841.92)" font-size="14.04" font-family="Times New Roman,Bold" font-weight="bold"><tspan y="-123.86" x="207.29"> </tspan></text>
</g>
<clipPath id="cp30194">
<path transform="matrix(1,0,0,-1,0,841.92)" d="M .000008871 0 L 595.32 0 L 595.32 841.92 L .000008871 841.92 Z " fill-rule="evenodd"/>
</clipPath>
<g clip-path="url(#cp30194)">
<text xml:space="preserve" transform="matrix(1 0 -0 1 0 841.92)" font-size="14.04" font-family="Times New Roman"><tspan y="-123.86" x="216.05 223.11212 227.05736 231.62036 240.36728 245.87096 252.8348 259.79866 263.74388 270.58134 276.8151 283.89125 290.125 298.9983 305.23207 309.079 316.04286 323.10496 329.3387 338.212 348.89646 355.95857 363.02067 366.96589 370.81285 374.75807 383.50498 390.56709 395.2424 402.20625 408.44 412.28697 416.23219 424.9791 432.0412 438.27497 444.3964 448.3416 452.18858 456.1338 462.25523 469.31733 473.16429 480.1281 486.36189 493.43803 502.29728 512.9817 516.92697 520.8722 524.7192 528.6644 535.6283 542.6904 546.5374 552.6589 559.62277">bir soniyada aloqa muhiti orqali uzatiladigan millionlab </tspan></text>
</g>
<clipPath id="cp30195">
<path transform="matrix(1,0,0,-1,0,841.92)" d="M .000008871 0 L 595.32 0 L 595.32 841.92 L .000008871 841.92 Z " fill-rule="evenodd"/>
</clipPath>
<g clip-path="url(#cp30195)">
<text xml:space="preserve" transform="matrix(1 0 -0 1 0 841.92)" font-size="14.04" font-family="Times New Roman"><tspan y="-99.744" x="85.104 91.941478 98.17523 105.25139 109.19663 113.14188 116.98884 120.93408 127.05552 134.11763 141.08147 147.31523 154.3914 157.74697 164.80908 168.65604 172.50299 176.44823 182.68199 187.35732 190.86731 196.24463 203.20847 210.27059 214.11754">yaxlitlangan bitlar soni;</tspan></text>
</g>
<clipPath id="cp30196">
<path transform="matrix(1,0,0,-1,0,841.92)" d="M .000008871 0 L 595.32 0 L 595.32 841.92 L .000008871 841.92 Z " fill-rule="evenodd"/>
</clipPath>
<g clip-path="url(#cp30196)">
<text xml:space="preserve" transform="matrix(1 0 -0 1 0 841.92)" font-size="14.04" font-family="Times New Roman"><tspan y="-99.744" x="218.09"> </tspan></text>
</g>
</g>
</g>
</g>
</svg>
