<?xml version="1.0" encoding="UTF-8" standalone="no"?>
<!DOCTYPE svg PUBLIC "-//W3C//DTD SVG 1.1//EN" "http://www.w3.org/Graphics/SVG/1.1/DTD/svg11.dtd">
<svg xmlns="http://www.w3.org/2000/svg" xmlns:xlink="http://www.w3.org/1999/xlink" version="1.1" width="595.32pt" height="841.92pt" viewBox="0 0 595.32 841.92">
<g enable-background="new">
<g>
<g id="Layer-1" data-name="Artifact">
<clipPath id="cp30273">
<path transform="matrix(1,0,0,-1,0,841.92)" d="M .000008871 0 L 595.32 0 L 595.32 841.92 L .000008871 841.92 Z " fill-rule="evenodd"/>
</clipPath>
<g clip-path="url(#cp30273)">
<text xml:space="preserve" transform="matrix(1 0 -0 1 0 841.92)" font-size="11.04" font-family="Calibri"><tspan y="-51.864" x="314.09 319.72999 325.36997">185</tspan></text>
</g>
<clipPath id="cp30274">
<path transform="matrix(1,0,0,-1,0,841.92)" d="M .000008871 0 L 595.32 0 L 595.32 841.92 L .000008871 841.92 Z " fill-rule="evenodd"/>
</clipPath>
<g clip-path="url(#cp30274)">
<text xml:space="preserve" transform="matrix(1 0 -0 1 0 841.92)" font-size="11.04" font-family="Calibri"><tspan y="-51.864" x="331.03"> </tspan></text>
</g>
<clipPath id="cp30275">
<path transform="matrix(1,0,0,-1,0,841.92)" d="M .000008871 0 L 595.32 0 L 595.32 841.92 L .000008871 841.92 Z " fill-rule="evenodd"/>
</clipPath>
<g clip-path="url(#cp30275)">
</g>
<clipPath id="cp30276">
<path transform="matrix(1,0,0,-1,0,841.92)" d="M .000008871 0 L 595.32 0 L 595.32 841.92 L .000008871 841.92 Z " fill-rule="evenodd"/>
</clipPath>
<g clip-path="url(#cp30276)">
<text xml:space="preserve" transform="matrix(1 0 -0 1 0 841.92)" font-size="11.04" font-family="Calibri"><tspan y="-38.4" x="85.104"> </tspan></text>
</g>
<clipPath id="cp30277">
<path transform="matrix(1,0,0,-1,0,841.92)" d="M .000008871 0 L 595.32 0 L 595.32 841.92 L .000008871 841.92 Z " fill-rule="evenodd"/>
</clipPath>
<g clip-path="url(#cp30277)">
</g>
</g>
<g id="Layer-1" data-name="P">
<clipPath id="cp30278">
<path transform="matrix(1,0,0,-1,0,841.92)" d="M .000008871 0 L 595.32 0 L 595.32 841.92 L .000008871 841.92 Z " fill-rule="evenodd"/>
</clipPath>
<g clip-path="url(#cp30278)">
<text xml:space="preserve" transform="matrix(1 0 -0 1 0 841.92)" font-size="14.04" font-family="Times New Roman,Italic" font-style="italic"><tspan y="-772.56" x="370.87 380.9507 388.01283 393.51649 397.0265 403.96226 410.9261 417.9882 424.95204 432.01414 438.2479 441.6175 448.6796 452.52656 456.3735 460.31874 470.39945 473.90946 480.92945 484.83256 490.19584 497.25794 501.20317 504.55873 511.62083 516.18386 523.246 529.47976 534.88516 541.849 545.79428 552.7581 559.82028">Har qanday bilim bizni g&#x2019;ayratga </tspan></text>
</g>
<clipPath id="cp30279">
<path transform="matrix(1,0,0,-1,0,841.92)" d="M .000008871 0 L 595.32 0 L 595.32 841.92 L .000008871 841.92 Z " fill-rule="evenodd"/>
</clipPath>
<g clip-path="url(#cp30279)">
<text xml:space="preserve" transform="matrix(1 0 -0 1 0 841.92)" font-size="14.04" font-family="Times New Roman,Italic" font-style="italic"><tspan y="-772.56" x="563.38"> </tspan></text>
</g>
</g>
<g id="Layer-1" data-name="P">
<clipPath id="cp30280">
<path transform="matrix(1,0,0,-1,0,841.92)" d="M .000008871 0 L 595.32 0 L 595.32 841.92 L .000008871 841.92 Z " fill-rule="evenodd"/>
</clipPath>
<g clip-path="url(#cp30280)">
<text xml:space="preserve" transform="matrix(1 0 -0 1 0 841.92)" font-size="14.04" font-family="Times New Roman,Italic" font-style="italic"><tspan y="-748.3" x="361.15 368.2121 375.17594 382.13978 389.20188 396.1657 403.12956 410.19166 413.70167 417.5065 424.5686 431.53245 438.49629 442.4415">undagan taqdir</tspan></text>
</g>
<clipPath id="cp30281">
<path transform="matrix(1,0,0,-1,0,841.92)" d="M .000008871 0 L 595.32 0 L 595.32 841.92 L .000008871 841.92 Z " fill-rule="evenodd"/>
</clipPath>
<g clip-path="url(#cp30281)">
<text xml:space="preserve" transform="matrix(1 0 -0 1 0 841.92)" font-size="14.04" font-family="Times New Roman,Italic" font-style="italic"><tspan y="-748.3" x="447.94">d</tspan></text>
</g>
<clipPath id="cp30282">
<path transform="matrix(1,0,0,-1,0,841.92)" d="M .000008871 0 L 595.32 0 L 595.32 841.92 L .000008871 841.92 Z " fill-rule="evenodd"/>
</clipPath>
<g clip-path="url(#cp30282)">
<text xml:space="preserve" transform="matrix(1 0 -0 1 0 841.92)" font-size="14.04" font-family="Times New Roman,Italic" font-style="italic"><tspan y="-748.3" x="454.9 461.9621 468.92594 472.87117 479.835 486.8971 490.4071 497.34288 501.2881 511.3688 521.4495 528.51168 532.35867 536.2056 540.1509 547.11477 551.06">agina qimmatlidir</tspan></text>
</g>
<clipPath id="cp30283">
<path transform="matrix(1,0,0,-1,0,841.92)" d="M .000008871 0 L 595.32 0 L 595.32 841.92 L .000008871 841.92 Z " fill-rule="evenodd"/>
</clipPath>
<g clip-path="url(#cp30283)">
<text xml:space="preserve" transform="matrix(1 0 -0 1 0 841.92)" font-size="14.04" font-family="Times New Roman,Italic" font-style="italic"><tspan y="-748.3" x="556.66">.</tspan></text>
</g>
<clipPath id="cp30284">
<path transform="matrix(1,0,0,-1,0,841.92)" d="M .000008871 0 L 595.32 0 L 595.32 841.92 L .000008871 841.92 Z " fill-rule="evenodd"/>
</clipPath>
<g clip-path="url(#cp30284)">
<text xml:space="preserve" transform="matrix(1 0 -0 1 0 841.92)" font-size="14.04" font-family="Times New Roman,Italic" font-style="italic"><tspan y="-748.3" x="560.02"> </tspan></text>
</g>
</g>
<g id="Layer-1" data-name="P">
<clipPath id="cp30285">
<path transform="matrix(1,0,0,-1,0,841.92)" d="M .000008871 0 L 595.32 0 L 595.32 841.92 L .000008871 841.92 Z " fill-rule="evenodd"/>
</clipPath>
<g clip-path="url(#cp30285)">
<text xml:space="preserve" transform="matrix(1 0 -0 1 0 841.92)" font-size="14.04" font-family="Times New Roman,Bold" font-weight="bold"><tspan y="-723.94" x="518.38 523.88369 527.3937 536.75839 541.43368 548.36947 554.6032">I.Etves</tspan></text>
</g>
<clipPath id="cp30286">
<path transform="matrix(1,0,0,-1,0,841.92)" d="M .000008871 0 L 595.32 0 L 595.32 841.92 L .000008871 841.92 Z " fill-rule="evenodd"/>
</clipPath>
<g clip-path="url(#cp30286)">
<text xml:space="preserve" transform="matrix(1 0 -0 1 0 841.92)" font-size="14.04" font-family="Times New Roman,Bold" font-weight="bold"><tspan y="-723.94" x="560.02"> </tspan></text>
</g>
</g>
<g id="Layer-1" data-name="P">
<clipPath id="cp30287">
<path transform="matrix(1,0,0,-1,0,841.92)" d="M .000008871 0 L 595.32 0 L 595.32 841.92 L .000008871 841.92 Z " fill-rule="evenodd"/>
</clipPath>
<g clip-path="url(#cp30287)">
<text xml:space="preserve" transform="matrix(1 0 -0 1 0 841.92)" font-size="14.04" font-family="Times New Roman,Bold" font-weight="bold"><tspan y="-699.82" x="340.51"> </tspan></text>
</g>
</g>
<g id="Layer-1" data-name="P">
<clipPath id="cp30288">
<path transform="matrix(1,0,0,-1,0,841.92)" d="M .000008871 0 L 595.32 0 L 595.32 841.92 L .000008871 841.92 Z " fill-rule="evenodd"/>
</clipPath>
<g clip-path="url(#cp30288)">
<text xml:space="preserve" transform="matrix(1 0 -0 1 0 841.92)" font-size="14.04" font-family="Times New Roman,Bold" font-weight="bold"><tspan y="-675.7" x="163.22">8</tspan></text>
</g>
<clipPath id="cp30289">
<path transform="matrix(1,0,0,-1,0,841.92)" d="M .000008871 0 L 595.32 0 L 595.32 841.92 L .000008871 841.92 Z " fill-rule="evenodd"/>
</clipPath>
<g clip-path="url(#cp30289)">
<text xml:space="preserve" transform="matrix(1 0 -0 1 0 841.92)" font-size="14.04" font-family="Times New Roman,Bold" font-weight="bold"><tspan y="-675.7" x="170.3">-</tspan></text>
</g>
<clipPath id="cp30290">
<path transform="matrix(1,0,0,-1,0,841.92)" d="M .000008871 0 L 595.32 0 L 595.32 841.92 L .000008871 841.92 Z " fill-rule="evenodd"/>
</clipPath>
<g clip-path="url(#cp30290)">
<text xml:space="preserve" transform="matrix(1 0 -0 1 0 841.92)" font-size="14.04" font-family="Times New Roman,Bold" font-weight="bold"><tspan y="-675.7" x="174.98 184.34468 195.2678 204.63249 208.10037 211.45594 216.95961 227.04033 236.40502 245.7697 255.83638 265.9171 275.2818 284.5201 288.03013 298.08277 308.16349 311.6735 317.13505 327.2719 336.6366 346.68925 356.76997 366.85069 376.21537 385.58006 389.09007 399.12867 404.7587 413.997 427.1946 437.27534 446.64 456.0047 466.07139 476.1521">BOB. INTERNET VA INTRANET XIZMATLARI</tspan></text>
</g>
<clipPath id="cp30291">
<path transform="matrix(1,0,0,-1,0,841.92)" d="M .000008871 0 L 595.32 0 L 595.32 841.92 L .000008871 841.92 Z " fill-rule="evenodd"/>
</clipPath>
<g clip-path="url(#cp30291)">
<text xml:space="preserve" transform="matrix(1 0 -0 1 0 841.92)" font-size="14.04" font-family="Times New Roman,Bold" font-weight="bold"><tspan y="-675.7" x="481.9"> </tspan></text>
</g>
</g>
<g id="Layer-1" data-name="P">
<clipPath id="cp30292">
<path transform="matrix(1,0,0,-1,0,841.92)" d="M .000008871 0 L 595.32 0 L 595.32 841.92 L .000008871 841.92 Z " fill-rule="evenodd"/>
</clipPath>
<g clip-path="url(#cp30292)">
<text xml:space="preserve" transform="matrix(1 0 -0 1 0 841.92)" font-size="14.04" font-family="Times New Roman,Bold" font-weight="bold"><tspan y="-651.46" x="163.82 170.88213 174.39212 181.41213 184.92212">8.1. </tspan></text>
</g>
<clipPath id="cp30293">
<path transform="matrix(1,0,0,-1,0,841.92)" d="M .000008871 0 L 595.32 0 L 595.32 841.92 L .000008871 841.92 Z " fill-rule="evenodd"/>
</clipPath>
<g clip-path="url(#cp30293)">
<text xml:space="preserve" transform="matrix(1 0 -0 1 0 841.92)" font-size="14.04" font-family="Times New Roman,Bold" font-weight="bold"><tspan y="-651.46" x="188.42 193.8254 201.63164 206.30696 212.54073 218.77449 226.58074 232.70218 237.3775 240.8875 247.82326 254.88538 258.3954 262.2985 270.10475 274.6818 280.80323 287.86534 295.67158 301.90534 306.58067 310.09068 314.62559 321.68769 327.92146 339.44828 346.51039 353.57249 358.13548 362.0807 365.5907 369.04457 376.8508 380.68373 387.74583 393.97959 401.65946 405.60469 409.1147 413.79 420.72578 426.22944 434.03569 441.5892 445.53443 449.47966 452.98966 459.22343 463.89875 467.71763 473.22129 481.02754 484.53755">Internet va intranet tarmog&#x2019;i, ularni tashkil etish  </tspan></text>
</g>
<clipPath id="cp30294">
<path transform="matrix(1,0,0,-1,0,841.92)" d="M .000008871 0 L 595.32 0 L 595.32 841.92 L .000008871 841.92 Z " fill-rule="evenodd"/>
</clipPath>
<g clip-path="url(#cp30294)">
<text xml:space="preserve" transform="matrix(1 0 -0 1 0 841.92)" font-size="12" font-family="Times New Roman,Bold" font-weight="bold"><tspan y="-651.46" x="488.26"> </tspan></text>
</g>
</g>
<g id="Layer-1" data-name="P">
<clipPath id="cp30295">
<path transform="matrix(1,0,0,-1,0,841.92)" d="M .000008871 0 L 595.32 0 L 595.32 841.92 L .000008871 841.92 Z " fill-rule="evenodd"/>
</clipPath>
<g clip-path="url(#cp30295)">
<text xml:space="preserve" transform="matrix(1 0 -0 1 0 841.92)" font-size="14.04" font-family="Times New Roman"><tspan y="-627.58" x="113.42 126.50528 133.5674 138.24272 142.18796 149.25008 157.39327 170.47855 174.42378 181.4859 187.71967 195.8769 208.96219 215.19596 222.27213 230.54169 237.6038 244.56764 251.53148 255.47672 262.31419 270.4574 277.5195 281.46473 285.40995 289.2569 296.319 304.46223 314.54295 320.7767 327.85285 335.99607 343.05818 349.1796 356.2417 364.38493 370.61869 374.5639 380.68534 384.63056 390.75199 397.8141 401.7593 405.26933 413.38447 422.74916 429.81126 437.95448 444.9183 451.88215 455.82737 462.06114 466.6241 473.68623 479.91999 483.76695 490.82905 497.0628 505.22007 515.9045">World Wide Web oddiy qilib web deb ataladi. Bu unternetda ma</tspan></text>
</g>
<clipPath id="cp30296">
<path transform="matrix(1,0,0,-1,0,841.92)" d="M .000008871 0 L 595.32 0 L 595.32 841.92 L .000008871 841.92 Z " fill-rule="evenodd"/>
</clipPath>
<g clip-path="url(#cp30296)">
<text xml:space="preserve" transform="matrix(1 0 -0 1 0 841.92)" font-size="14.04" font-family="Times New Roman"><tspan y="-627.58" x="522.82">&#x2019;</tspan></text>
</g>
<clipPath id="cp30297">
<path transform="matrix(1,0,0,-1,0,841.92)" d="M .000008871 0 L 595.32 0 L 595.32 841.92 L .000008871 841.92 Z " fill-rule="evenodd"/>
</clipPath>
<g clip-path="url(#cp30297)">
<text xml:space="preserve" transform="matrix(1 0 -0 1 0 841.92)" font-size="14.04" font-family="Times New Roman"><tspan y="-627.58" x="527.38 531.32528 538.3874 549.0718 556.1339 559.9809">lumot </tspan></text>
</g>
<clipPath id="cp30298">
<path transform="matrix(1,0,0,-1,0,841.92)" d="M .000008871 0 L 595.32 0 L 595.32 841.92 L .000008871 841.92 Z " fill-rule="evenodd"/>
</clipPath>
<g clip-path="url(#cp30298)">
</g>
<clipPath id="cp30299">
<path transform="matrix(1,0,0,-1,0,841.92)" d="M .000008871 0 L 595.32 0 L 595.32 841.92 L .000008871 841.92 Z " fill-rule="evenodd"/>
</clipPath>
<g clip-path="url(#cp30299)">
<text xml:space="preserve" transform="matrix(1 0 -0 1 0 841.92)" font-size="14.04" font-family="Times New Roman"><tspan y="-603.46" x="85.104 91.33775 95.283 105.96744 112.201198 117.71892 124.78104 128.62799 134.13167 141.0955 148.15763 154.39139 160.62514 171.30959">almashishga mo</tspan></text>
</g>
<clipPath id="cp30300">
<path transform="matrix(1,0,0,-1,0,841.92)" d="M .000008871 0 L 595.32 0 L 595.32 841.92 L .000008871 841.92 Z " fill-rule="evenodd"/>
</clipPath>
<g clip-path="url(#cp30300)">
<text xml:space="preserve" transform="matrix(1 0 -0 1 0 841.92)" font-size="14.04" font-family="Times New Roman"><tspan y="-603.46" x="178.46">&#x2019;</tspan></text>
</g>
<clipPath id="cp30301">
<path transform="matrix(1,0,0,-1,0,841.92)" d="M .000008871 0 L 595.32 0 L 595.32 841.92 L .000008871 841.92 Z " fill-rule="evenodd"/>
</clipPath>
<g clip-path="url(#cp30301)">
<text xml:space="preserve" transform="matrix(1 0 -0 1 0 841.92)" font-size="14.04" font-family="Times New Roman"><tspan y="-603.46" x="183.02 186.96524 190.8122 197.04596 200.9912 204.83815 211.07192 218.03575 225.09787 231.33164 238.4078 244.5152 249.9206">ljallangan so</tspan></text>
</g>
<clipPath id="cp30302">
<path transform="matrix(1,0,0,-1,0,841.92)" d="M .000008871 0 L 595.32 0 L 595.32 841.92 L .000008871 841.92 Z " fill-rule="evenodd"/>
</clipPath>
<g clip-path="url(#cp30302)">
<text xml:space="preserve" transform="matrix(1 0 -0 1 0 841.92)" font-size="14.04" font-family="Times New Roman"><tspan y="-603.46" x="257.09">&#x2019;</tspan></text>
</g>
<clipPath id="cp30303">
<path transform="matrix(1,0,0,-1,0,841.92)" d="M .000008871 0 L 595.32 0 L 595.32 841.92 L .000008871 841.92 Z " fill-rule="evenodd"/>
</clipPath>
<g clip-path="url(#cp30303)">
<text xml:space="preserve" transform="matrix(1 0 -0 1 0 841.92)" font-size="14.04" font-family="Times New Roman"><tspan y="-603.46" x="261.65 268.7121 275.67594 282.73805 286.68327 292.79069 299.85279 305.9742 311.47789 315.32484 322.38694 326.94993 330.45994 336.65159 346.7323 352.95204 363.03276 371.55503 380.0773 387.88356 394.10328 401.16539 407.39915 412.91685 416.7638 423.8259 428.50123 432.44645 438.56788 443.2432 447.09016 454.15226 457.9992 464.96305 472.02516 478.24488 485.30699 491.4284 498.39225 505.45436 511.67408 515.52108 521.7548 526.4301 537.1145 544.17666">nggi dastur. U HTTP dasturlarining keng tarmog</tspan></text>
</g>
<clipPath id="cp30304">
<path transform="matrix(1,0,0,-1,0,841.92)" d="M .000008871 0 L 595.32 0 L 595.32 841.92 L .000008871 841.92 Z " fill-rule="evenodd"/>
</clipPath>
<g clip-path="url(#cp30304)">
<text xml:space="preserve" transform="matrix(1 0 -0 1 0 841.92)" font-size="14.04" font-family="Times New Roman"><tspan y="-603.46" x="551.62">&#x2019;</tspan></text>
</g>
<clipPath id="cp30305">
<path transform="matrix(1,0,0,-1,0,841.92)" d="M .000008871 0 L 595.32 0 L 595.32 841.92 L .000008871 841.92 Z " fill-rule="evenodd"/>
</clipPath>
<g clip-path="url(#cp30305)">
<text xml:space="preserve" transform="matrix(1 0 -0 1 0 841.92)" font-size="14.04" font-family="Times New Roman"><tspan y="-603.46" x="556.18 560.02">i </tspan></text>
</g>
<clipPath id="cp30306">
<path transform="matrix(1,0,0,-1,0,841.92)" d="M .000008871 0 L 595.32 0 L 595.32 841.92 L .000008871 841.92 Z " fill-rule="evenodd"/>
</clipPath>
<g clip-path="url(#cp30306)">
</g>
<clipPath id="cp30307">
<path transform="matrix(1,0,0,-1,0,841.92)" d="M .000008871 0 L 595.32 0 L 595.32 841.92 L .000008871 841.92 Z " fill-rule="evenodd"/>
</clipPath>
<g clip-path="url(#cp30307)">
<text xml:space="preserve" transform="matrix(1 0 -0 1 0 841.92)" font-size="14.04" font-family="Times New Roman"><tspan y="-579.34" x="85.104 92.184">bo</tspan></text>
</g>
<clipPath id="cp30308">
<path transform="matrix(1,0,0,-1,0,841.92)" d="M .000008871 0 L 595.32 0 L 595.32 841.92 L .000008871 841.92 Z " fill-rule="evenodd"/>
</clipPath>
<g clip-path="url(#cp30308)">
<text xml:space="preserve" transform="matrix(1 0 -0 1 0 841.92)" font-size="14.04" font-family="Times New Roman"><tspan y="-579.34" x="99.264">&#x2019;</tspan></text>
</g>
<clipPath id="cp30309">
<path transform="matrix(1,0,0,-1,0,841.92)" d="M .000008871 0 L 595.32 0 L 595.32 841.92 L .000008871 841.92 Z " fill-rule="evenodd"/>
</clipPath>
<g clip-path="url(#cp30309)">
<text xml:space="preserve" transform="matrix(1 0 -0 1 0 841.92)" font-size="14.04" font-family="Times New Roman"><tspan y="-579.34" x="103.82 107.66696 111.612209 118.674327 122.184329 129.21837 136.28049 143.24433 150.30644 156.5402 163.72869 169.13408 175.36785 182.33168 186.27692 192.39836 199.46048 205.58193 212.4194 219.48152 223.42676 230.48888 236.72264 243.79882 250.98729 255.5503 261.78407 268.63557 272.58079 276.526 282.75978 287.4351 294.63764 304.71836 310.95213 318.02827 325.0904 330.59407 336.82783 343.79167 347.73689 352.4122 358.53364 362.47886 368.71263 373.38795 380.4641 387.5262 393.64765 400.70976 407.89823 414.132 418.0772 424.19865 428.14387 434.2653 441.3274 445.17436 452.36283 459.42494 465.6587 472.84718 482.9279 493.0086 503.08934 510.39015 517.22769 524.2898 531.3519 535.2972 542.48568 549.4495 559.40396">lib, unda saqlanayotgan fayllar web sahifalar deb ataladi va www yoki 3w </tspan></text>
</g>
<clipPath id="cp30310">
<path transform="matrix(1,0,0,-1,0,841.92)" d="M .000008871 0 L 595.32 0 L 595.32 841.92 L .000008871 841.92 Z " fill-rule="evenodd"/>
</clipPath>
<g clip-path="url(#cp30310)">
</g>
<clipPath id="cp30311">
<path transform="matrix(1,0,0,-1,0,841.92)" d="M .000008871 0 L 595.32 0 L 595.32 841.92 L .000008871 841.92 Z " fill-rule="evenodd"/>
</clipPath>
<g clip-path="url(#cp30311)">
<text xml:space="preserve" transform="matrix(1 0 -0 1 0 841.92)" font-size="14.04" font-family="Times New Roman"><tspan y="-555.07" x="85.104 92.166118 99.22823 103.79124 107.6382 114.70032 118.54728 123.95268 131.0148 134.86176 141.92388 148.15764 154.26503 161.22887 165.07582 170.5795 177.64162 183.76306 188.43839 192.28534 196.23058 200.79358 204.64054 208.58577 214.81954 221.78337 225.7286 229.2386 235.31792 244.6826 251.74472 257.72578 261.671 268.63484 272.58006 278.8138 283.3768 290.4389 296.56034 300.4073 307.4694 313.70317 319.81059 330.60734">korinishida qisqartiriladi. Bu internetda ma</tspan></text>
</g>
<clipPath id="cp30312">
<path transform="matrix(1,0,0,-1,0,841.92)" d="M .000008871 0 L 595.32 0 L 595.32 841.92 L .000008871 841.92 Z " fill-rule="evenodd"/>
</clipPath>
<g clip-path="url(#cp30312)">
<text xml:space="preserve" transform="matrix(1 0 -0 1 0 841.92)" font-size="14.04" font-family="Times New Roman"><tspan y="-555.07" x="337.15">&#x2019;</tspan></text>
</g>
<clipPath id="cp30313">
<path transform="matrix(1,0,0,-1,0,841.92)" d="M .000008871 0 L 595.32 0 L 595.32 841.92 L .000008871 841.92 Z " fill-rule="evenodd"/>
</clipPath>
<g clip-path="url(#cp30313)">
<text xml:space="preserve" transform="matrix(1 0 -0 1 0 841.92)" font-size="14.04" font-family="Times New Roman"><tspan y="-555.07" x="341.71 345.6552 352.8437 363.52815 370.59025 374.53547 380.64289 387.705 391.55195 398.51579 402.461 407.13633 410.98329 416.38868 423.45079 429.5582 436.6203 442.74174 448.84916 455.91127 459.7582 463.70344 469.10884 476.17094 483.13478 486.98173 494.04383 501.10594 507.21336 513.3348 520.29867 527.3608 533.4682 540.43209 545.9357 552.77328 559.7371">lumot qidirish va olishning eng oson </tspan></text>
</g>
<clipPath id="cp30314">
<path transform="matrix(1,0,0,-1,0,841.92)" d="M .000008871 0 L 595.32 0 L 595.32 841.92 L .000008871 841.92 Z " fill-rule="evenodd"/>
</clipPath>
<g clip-path="url(#cp30314)">
</g>
<clipPath id="cp30315">
<path transform="matrix(1,0,0,-1,0,841.92)" d="M .000008871 0 L 595.32 0 L 595.32 841.92 L .000008871 841.92 Z " fill-rule="evenodd"/>
</clipPath>
<g clip-path="url(#cp30315)">
<text xml:space="preserve" transform="matrix(1 0 -0 1 0 841.92)" font-size="14.04" font-family="Times New Roman"><tspan y="-530.95" x="85.104 91.944">yo</tspan></text>
</g>
<clipPath id="cp30316">
<path transform="matrix(1,0,0,-1,0,841.92)" d="M .000008871 0 L 595.32 0 L 595.32 841.92 L .000008871 841.92 Z " fill-rule="evenodd"/>
</clipPath>
<g clip-path="url(#cp30316)">
<text xml:space="preserve" transform="matrix(1 0 -0 1 0 841.92)" font-size="14.04" font-family="Times New Roman"><tspan y="-530.95" x="99.144">&#x2019;</tspan></text>
</g>
<clipPath id="cp30317">
<path transform="matrix(1,0,0,-1,0,841.92)" d="M .000008871 0 L 595.32 0 L 595.32 841.92 L .000008871 841.92 Z " fill-rule="evenodd"/>
</clipPath>
<g clip-path="url(#cp30317)">
<text xml:space="preserve" transform="matrix(1 0 -0 1 0 841.92)" font-size="14.04" font-family="Times New Roman"><tspan y="-530.95" x="103.7 107.66002 111.62004">li.</tspan></text>
</g>
<clipPath id="cp30318">
<path transform="matrix(1,0,0,-1,0,841.92)" d="M .000008871 0 L 595.32 0 L 595.32 841.92 L .000008871 841.92 Z " fill-rule="evenodd"/>
</clipPath>
<g clip-path="url(#cp30318)">
<text xml:space="preserve" transform="matrix(1 0 -0 1 0 841.92)" font-size="14.04" font-family="Times New Roman"><tspan y="-530.95" x="115.1"> </tspan></text>
</g>
<clipPath id="cp30319">
<path transform="matrix(1,0,0,-1,0,841.92)" d="M .000008871 0 L 595.32 0 L 595.32 841.92 L .000008871 841.92 Z " fill-rule="evenodd"/>
</clipPath>
<g clip-path="url(#cp30319)">
</g>
</g>
<g id="Layer-1" data-name="P">
<clipPath id="cp30320">
<path transform="matrix(1,0,0,-1,0,841.92)" d="M .000008871 0 L 595.32 0 L 595.32 841.92 L .000008871 841.92 Z " fill-rule="evenodd"/>
</clipPath>
<g clip-path="url(#cp30320)">
<text xml:space="preserve" transform="matrix(1 0 -0 1 0 841.92)" font-size="14.04" font-family="Times New Roman,BoldItalic" font-weight="bold" font-style="italic"><tspan y="-506.47" x="113.42 120.5">1.</tspan></text>
</g>
<clipPath id="cp30321">
<path transform="matrix(1,0,0,-1,0,841.92)" d="M .000008871 0 L 595.32 0 L 595.32 841.92 L .000008871 841.92 Z " fill-rule="evenodd"/>
</clipPath>
<g clip-path="url(#cp30321)">
<text xml:space="preserve" transform="matrix(1 0 -0 1 0 841.92)" font-size="14.04" font-family="Arial,BoldItalic" font-weight="bold" font-style="italic"><tspan y="-506.47" x="123.98"> </tspan></text>
</g>
<clipPath id="cp30322">
<path transform="matrix(1,0,0,-1,0,841.92)" d="M .000008871 0 L 595.32 0 L 595.32 841.92 L .000008871 841.92 Z " fill-rule="evenodd"/>
</clipPath>
<g clip-path="url(#cp30322)">
<text xml:space="preserve" transform="matrix(1 0 -0 1 0 841.92)" font-size="14.04" font-family="Times New Roman,BoldItalic" font-weight="bold" font-style="italic"><tspan y="-506.47" x="127.7 137.78072 141.72595 148.68979 152.63503 158.1387 165.94495 172.17871">Qidiruv </tspan></text>
</g>
<clipPath id="cp30323">
<path transform="matrix(1,0,0,-1,0,841.92)" d="M .000008871 0 L 595.32 0 L 595.32 841.92 L .000008871 841.92 Z " fill-rule="evenodd"/>
</clipPath>
<g clip-path="url(#cp30323)">
<text xml:space="preserve" transform="matrix(1 0 -0 1 0 841.92)" font-size="14.04" font-family="Times New Roman,BoldItalic" font-weight="bold" font-style="italic"><tspan y="-506.47" x="175.58 179.52524 183.3722 188.77759 192.49819 203.64595 207.4929 214.45674 219.96042">tizimlari</tspan></text>
</g>
<clipPath id="cp30324">
<path transform="matrix(1,0,0,-1,0,841.92)" d="M .000008871 0 L 595.32 0 L 595.32 841.92 L .000008871 841.92 Z " fill-rule="evenodd"/>
</clipPath>
<g clip-path="url(#cp30324)">
<text xml:space="preserve" transform="matrix(1 0 -0 1 0 841.92)" font-size="14.04" font-family="Times New Roman,BoldItalic" font-weight="bold" font-style="italic"><tspan y="-506.47" x="223.85"> </tspan></text>
</g>
<clipPath id="cp30325">
<path transform="matrix(1,0,0,-1,0,841.92)" d="M .000008871 0 L 595.32 0 L 595.32 841.92 L .000008871 841.92 Z " fill-rule="evenodd"/>
</clipPath>
<g clip-path="url(#cp30325)">
</g>
</g>
<g id="Layer-1" data-name="P">
<clipPath id="cp30326">
<path transform="matrix(1,0,0,-1,0,841.92)" d="M .000008871 0 L 595.32 0 L 595.32 841.92 L .000008871 841.92 Z " fill-rule="evenodd"/>
</clipPath>
<g clip-path="url(#cp30326)">
<text xml:space="preserve" transform="matrix(1 0 -0 1 0 841.92)" font-size="14.04" font-family="Times New Roman"><tspan y="-482.71" x="113.42 123.50072 127.44596 134.40979 138.35503 143.03035 149.99419 157.0563 166.28058 173.24442 177.18965 183.42342 194.10787 200.34163 204.28687 208.2321 214.46587 219.02887 222.9741 232.19838 236.04534 243.10746 247.05269 253.17414 257.84947 264.9256 271.04704 274.89399 281.9561 288.18986 297.4282 308.11265">Qidiruv xizmatlari internetda ma</tspan></text>
</g>
<clipPath id="cp30327">
<path transform="matrix(1,0,0,-1,0,841.92)" d="M .000008871 0 L 595.32 0 L 595.32 841.92 L .000008871 841.92 Z " fill-rule="evenodd"/>
</clipPath>
<g clip-path="url(#cp30327)">
<text xml:space="preserve" transform="matrix(1 0 -0 1 0 841.92)" font-size="14.04" font-family="Times New Roman"><tspan y="-482.71" x="314.69">&#x2019;</tspan></text>
</g>
<clipPath id="cp30328">
<path transform="matrix(1,0,0,-1,0,841.92)" d="M .000008871 0 L 595.32 0 L 595.32 841.92 L .000008871 841.92 Z " fill-rule="evenodd"/>
</clipPath>
<g clip-path="url(#cp30328)">
<text xml:space="preserve" transform="matrix(1 0 -0 1 0 841.92)" font-size="14.04" font-family="Times New Roman"><tspan y="-482.71" x="319.27 323.2152 330.4037 341.08815 348.15025 351.9972 361.2215 368.2836 372.22883 379.19267 383.13789 387.70088 391.6461 397.05149 404.1136 413.3379 420.4 426.52143 433.48527 440.54737 447.60948 456.83378 461.5091 468.47294 475.3104 482.3725 488.60627 492.55149 498.78526 505.74909 509.6943 513.6395 519.761 526.72488 530.6701 534.1801 543.37637 552.741 559.69088">lumot qidirish uchun foydalaniladi. Bu </tspan></text>
</g>
<clipPath id="cp30329">
<path transform="matrix(1,0,0,-1,0,841.92)" d="M .000008871 0 L 595.32 0 L 595.32 841.92 L .000008871 841.92 Z " fill-rule="evenodd"/>
</clipPath>
<g clip-path="url(#cp30329)">
</g>
<clipPath id="cp30330">
<path transform="matrix(1,0,0,-1,0,841.92)" d="M .000008871 0 L 595.32 0 L 595.32 841.92 L .000008871 841.92 Z " fill-rule="evenodd"/>
</clipPath>
<g clip-path="url(#cp30330)">
<text xml:space="preserve" transform="matrix(1 0 -0 1 0 841.92)" font-size="14.04" font-family="Times New Roman"><tspan y="-458.47" x="85.104 92.166118 96.11136 102.345119 113.02956 119.26331 123.20856 127.86984 134.83368 138.77892 145.74275 149.68799 154.25099 161.31311 168.37523 172.92418 179.9863 186.10774 190.05298 193.99822 197.84517 203.96662 207.91185 214.14562 218.70862 222.65386 229.61769 233.56293 238.2242 245.18804 251.4218 255.26876 259.214 263.06095 269.2947 273.23994 279.4737 284.14903 288.82435 293.38734">xizmat qidiruv natijalarini natijalar ro</tspan></text>
</g>
<clipPath id="cp30331">
<path transform="matrix(1,0,0,-1,0,841.92)" d="M .000008871 0 L 595.32 0 L 595.32 841.92 L .000008871 841.92 Z " fill-rule="evenodd"/>
</clipPath>
<g clip-path="url(#cp30331)">
<text xml:space="preserve" transform="matrix(1 0 -0 1 0 841.92)" font-size="14.04" font-family="Times New Roman"><tspan y="-458.47" x="300.77">&#x2019;</tspan></text>
</g>
<clipPath id="cp30332">
<path transform="matrix(1,0,0,-1,0,841.92)" d="M .000008871 0 L 595.32 0 L 595.32 841.92 L .000008871 841.92 Z " fill-rule="evenodd"/>
</clipPath>
<g clip-path="url(#cp30332)">
<text xml:space="preserve" transform="matrix(1 0 -0 1 0 841.92)" font-size="14.04" font-family="Times New Roman"><tspan y="-458.47" x="305.33 312.16746 319.22956 325.46333 329.40855 333.2555 340.3176 346.55137 351.10035 358.16246 364.3962 369.07154 375.20704 382.26914 386.21437 389.72438 394.35758 403.5959 410.55973 414.50495 420.7387 425.41404 430.08937 440.17008 446.2915 453.3536 458.0149 463.51856 469.63999 476.60383 480.54905 485.22438 491.3458 495.29103 501.52479 506.2001 509.7101 514.35739 519.03268 525.1541 530.6578 541.34219 545.2874 551.5212 556.1965 559.7065">yxatida beradi. Bular web sahifalar, rasmlar, </tspan></text>
</g>
<clipPath id="cp30333">
<path transform="matrix(1,0,0,-1,0,841.92)" d="M .000008871 0 L 595.32 0 L 595.32 841.92 L .000008871 841.92 Z " fill-rule="evenodd"/>
</clipPath>
<g clip-path="url(#cp30333)">
</g>
<clipPath id="cp30334">
<path transform="matrix(1,0,0,-1,0,841.92)" d="M .000008871 0 L 595.32 0 L 595.32 841.92 L .000008871 841.92 Z " fill-rule="evenodd"/>
</clipPath>
<g clip-path="url(#cp30334)">
<text xml:space="preserve" transform="matrix(1 0 -0 1 0 841.92)" font-size="14.04" font-family="Times New Roman"><tspan y="-434.35" x="85.104 92.166118 96.01308 103.075199 109.19663 116.25875 120.10571 126.33947 131.01479 135.21274 142.05022 149.11234 156.17446 160.11969 164.3036 168.97893 175.21269 182.06421 186.00945 193.07157 196.91852 203.88236 210.94448 215.12839 222.09223 229.15435 234.55974 241.62186 248.5857 254.81946 259.01744 262.86439 269.92649 274.6018 278.54704 284.66847 289.34379 293.289 297.47294 304.43678">videolar yoki faylning boshqa turlari bo</tspan></text>
</g>
<clipPath id="cp30335">
<path transform="matrix(1,0,0,-1,0,841.92)" d="M .000008871 0 L 595.32 0 L 595.32 841.92 L .000008871 841.92 Z " fill-rule="evenodd"/>
</clipPath>
<g clip-path="url(#cp30335)">
<text xml:space="preserve" transform="matrix(1 0 -0 1 0 841.92)" font-size="14.04" font-family="Times New Roman"><tspan y="-434.35" x="311.81">&#x2019;</tspan></text>
</g>
<clipPath id="cp30336">
<path transform="matrix(1,0,0,-1,0,841.92)" d="M .000008871 0 L 595.32 0 L 595.32 841.92 L .000008871 841.92 Z " fill-rule="evenodd"/>
</clipPath>
<g clip-path="url(#cp30336)">
<text xml:space="preserve" transform="matrix(1 0 -0 1 0 841.92)" font-size="14.04" font-family="Times New Roman"><tspan y="-434.35" x="316.39 320.33525 324.1822 329.68586 336.6497 340.5949 344.77885 355.4633 362.65177 373.3362 380.39833 384.34355 391.40565 394.91566 399.0715 403.74684 409.9806 413.93986 420.06129 427.12339 434.08723 440.20866 447.27076 451.58106 462.2655">lishi mumkin. Izlangan ma</tspan></text>
</g>
<clipPath id="cp30337">
<path transform="matrix(1,0,0,-1,0,841.92)" d="M .000008871 0 L 595.32 0 L 595.32 841.92 L .000008871 841.92 Z " fill-rule="evenodd"/>
</clipPath>
<g clip-path="url(#cp30337)">
<text xml:space="preserve" transform="matrix(1 0 -0 1 0 841.92)" font-size="14.04" font-family="Times New Roman"><tspan y="-434.35" x="468.7">&#x2019;</tspan></text>
</g>
<clipPath id="cp30338">
<path transform="matrix(1,0,0,-1,0,841.92)" d="M .000008871 0 L 595.32 0 L 595.32 841.92 L .000008871 841.92 Z " fill-rule="evenodd"/>
</clipPath>
<g clip-path="url(#cp30338)">
<text xml:space="preserve" transform="matrix(1 0 -0 1 0 841.92)" font-size="14.04" font-family="Times New Roman"><tspan y="-434.35" x="473.26 477.20524 484.3937 495.07817 502.14027 506.08549 513.0493 516.99459 521.1785 528.01608 531.9613">lumotni yig</tspan></text>
</g>
<clipPath id="cp30339">
<path transform="matrix(1,0,0,-1,0,841.92)" d="M .000008871 0 L 595.32 0 L 595.32 841.92 L .000008871 841.92 Z " fill-rule="evenodd"/>
</clipPath>
<g clip-path="url(#cp30339)">
<text xml:space="preserve" transform="matrix(1 0 -0 1 0 841.92)" font-size="14.04" font-family="Times New Roman"><tspan y="-434.35" x="539.14">&#x2019;</tspan></text>
</g>
<clipPath id="cp30340">
<path transform="matrix(1,0,0,-1,0,841.92)" d="M .000008871 0 L 595.32 0 L 595.32 841.92 L .000008871 841.92 Z " fill-rule="evenodd"/>
</clipPath>
<g clip-path="url(#cp30340)">
<text xml:space="preserve" transform="matrix(1 0 -0 1 0 841.92)" font-size="14.04" font-family="Times New Roman"><tspan y="-434.35" x="543.7 547.64529 553.1489 559.98648">ish </tspan></text>
</g>
<clipPath id="cp30341">
<path transform="matrix(1,0,0,-1,0,841.92)" d="M .000008871 0 L 595.32 0 L 595.32 841.92 L .000008871 841.92 Z " fill-rule="evenodd"/>
</clipPath>
<g clip-path="url(#cp30341)">
</g>
<clipPath id="cp30342">
<path transform="matrix(1,0,0,-1,0,841.92)" d="M .000008871 0 L 595.32 0 L 595.32 841.92 L .000008871 841.92 Z " fill-rule="evenodd"/>
</clipPath>
<g clip-path="url(#cp30342)">
<text xml:space="preserve" transform="matrix(1 0 -0 1 0 841.92)" font-size="14.04" font-family="Times New Roman"><tspan y="-410.23" x="85.104 92.166118 98.39987 110.86739">va t</tspan></text>
</g>
<clipPath id="cp30343">
<path transform="matrix(1,0,0,-1,0,841.92)" d="M .000008871 0 L 595.32 0 L 595.32 841.92 L .000008871 841.92 Z " fill-rule="evenodd"/>
</clipPath>
<g clip-path="url(#cp30343)">
<text xml:space="preserve" transform="matrix(1 0 -0 1 0 841.92)" font-size="14.04" font-family="Times New Roman"><tspan y="-410.23" x="114.86 120.98144 127.945278 135.00739 138.95262 149.63707 162.10459 168.33835 172.28359 176.22882 181.63422 188.69634 201.03749 208.09961 214.22106 221.28318 228.24701 235.30913 247.77664 254.74048 260.97425 265.64958 278.13114 285.09498 289.0402 293.7155 306.18305 313.14689 316.99385 324.05595 328.00117 332.56416 339.52799 346.5901 359.05763 366.11973 372.24116 376.0881 383.1502 387.82554 391.6725 398.63633 402.58155 409.54539 416.60749 429.075">aqdim etish uchun har bir qidiruv daturining o</tspan></text>
</g>
<clipPath id="cp30344">
<path transform="matrix(1,0,0,-1,0,841.92)" d="M .000008871 0 L 595.32 0 L 595.32 841.92 L .000008871 841.92 Z " fill-rule="evenodd"/>
</clipPath>
<g clip-path="url(#cp30344)">
<text xml:space="preserve" transform="matrix(1 0 -0 1 0 841.92)" font-size="14.04" font-family="Times New Roman"><tspan y="-410.23" x="436.39">&#x2019;</tspan></text>
</g>
<clipPath id="cp30345">
<path transform="matrix(1,0,0,-1,0,841.92)" d="M .000008871 0 L 595.32 0 L 595.32 841.92 L .000008871 841.92 Z " fill-rule="evenodd"/>
</clipPath>
<g clip-path="url(#cp30345)">
<text xml:space="preserve" transform="matrix(1 0 -0 1 0 841.92)" font-size="14.04" font-family="Times New Roman"><tspan y="-410.23" x="440.98 447.21379 459.6813 466.7434 472.97718 476.9224 487.60685">z ketma</tspan></text>
</g>
<clipPath id="cp30346">
<path transform="matrix(1,0,0,-1,0,841.92)" d="M .000008871 0 L 595.32 0 L 595.32 841.92 L .000008871 841.92 Z " fill-rule="evenodd"/>
</clipPath>
<g clip-path="url(#cp30346)">
<text xml:space="preserve" transform="matrix(1 0 -0 1 0 841.92)" font-size="14.04" font-family="Times New Roman"><tspan y="-410.23" x="493.9">-</tspan></text>
</g>
<clipPath id="cp30347">
<path transform="matrix(1,0,0,-1,0,841.92)" d="M .000008871 0 L 595.32 0 L 595.32 841.92 L .000008871 841.92 Z " fill-rule="evenodd"/>
</clipPath>
<g clip-path="url(#cp30347)">
<text xml:space="preserve" transform="matrix(1 0 -0 1 0 841.92)" font-size="14.04" font-family="Times New Roman"><tspan y="-410.23" x="498.58 505.6421 511.87586 515.8211 519.6681 523.5151 530.5772 534.52249 546.86367 553.8275 559.949">ketligi va </tspan></text>
</g>
<clipPath id="cp30348">
<path transform="matrix(1,0,0,-1,0,841.92)" d="M .000008871 0 L 595.32 0 L 595.32 841.92 L .000008871 841.92 Z " fill-rule="evenodd"/>
</clipPath>
<g clip-path="url(#cp30348)">
</g>
<clipPath id="cp30349">
<path transform="matrix(1,0,0,-1,0,841.92)" d="M .000008871 0 L 595.32 0 L 595.32 841.92 L .000008871 841.92 Z " fill-rule="evenodd"/>
</clipPath>
<g clip-path="url(#cp30349)">
<text xml:space="preserve" transform="matrix(1 0 -0 1 0 841.92)" font-size="14.04" font-family="Times New Roman"><tspan y="-386.09" x="85.104 95.78844 102.850559 108.35424 112.299488 118.53324 123.938648 131.00077 137.9646 145.02672 151.14817 158.21028 164.33173 171.39385 175.2408 179.18604 186.14987 190.09511 194.04035 204.83712 211.07088 218.14705 221.994 228.95784 236.01996 239.52996 243.44712 253.52783 260.58995 266.71138 270.6566 275.21958 282.28169 286.2269 290.0598 297.02366 304.08576 311.0496 318.1117 324.23313 328.17839 335.24049 342.2043 349.16816 356.23027 360.0772 366.31098 369.82099 376.05476 383.1028 393.78727 397.7325 403.96629 411.04243 418.10453 421.93745 428.99955 439.7963 450.59306 456.8268 463.90296 470.96507 477.9289 481.87416 488.93626 495.17 499.00294 502.94816 509.18193 515.30337 519.2486 526.21249 530.1577 537.1216 541.06686 545.6298 552.5937 559.4312">moslashuvchanligi mavjud. Hozirgi kunda google.com eng ommabob va tez qidiruv </tspan></text>
</g>
<clipPath id="cp30350">
<path transform="matrix(1,0,0,-1,0,841.92)" d="M .000008871 0 L 595.32 0 L 595.32 841.92 L .000008871 841.92 Z " fill-rule="evenodd"/>
</clipPath>
<g clip-path="url(#cp30350)">
</g>
<clipPath id="cp30351">
<path transform="matrix(1,0,0,-1,0,841.92)" d="M .000008871 0 L 595.32 0 L 595.32 841.92 L .000008871 841.92 Z " fill-rule="evenodd"/>
</clipPath>
<g clip-path="url(#cp30351)">
<text xml:space="preserve" transform="matrix(1 0 -0 1 0 841.92)" font-size="14.04" font-family="Times New Roman"><tspan y="-361.97" x="85.104 92.166118 96.11136 102.345119 113.02956 119.26331 123.20856 127.1538 130.50937 137.57149 141.41844 146.92212 153.88596 160.8498 164.79503 170.91648 177.97859 184.21236 191.1762 195.12143">xizmati hisoblanadi.</tspan></text>
</g>
<clipPath id="cp30352">
<path transform="matrix(1,0,0,-1,0,841.92)" d="M .000008871 0 L 595.32 0 L 595.32 841.92 L .000008871 841.92 Z " fill-rule="evenodd"/>
</clipPath>
<g clip-path="url(#cp30352)">
<text xml:space="preserve" transform="matrix(1 0 -0 1 0 841.92)" font-size="14.04" font-family="Times New Roman"><tspan y="-361.97" x="198.65"> </tspan></text>
</g>
<clipPath id="cp30353">
<path transform="matrix(1,0,0,-1,0,841.92)" d="M .000008871 0 L 595.32 0 L 595.32 841.92 L .000008871 841.92 Z " fill-rule="evenodd"/>
</clipPath>
<g clip-path="url(#cp30353)">
</g>
</g>
<g id="Layer-1" data-name="P">
<clipPath id="cp30354">
<path transform="matrix(1,0,0,-1,0,841.92)" d="M .000008871 0 L 595.32 0 L 595.32 841.92 L .000008871 841.92 Z " fill-rule="evenodd"/>
</clipPath>
<g clip-path="url(#cp30354)">
<text xml:space="preserve" transform="matrix(1 0 -0 1 0 841.92)" font-size="14.04" font-family="Times New Roman,BoldItalic" font-weight="bold" font-style="italic"><tspan y="-337.37" x="113.42 120.5">2.</tspan></text>
</g>
<clipPath id="cp30355">
<path transform="matrix(1,0,0,-1,0,841.92)" d="M .000008871 0 L 595.32 0 L 595.32 841.92 L .000008871 841.92 Z " fill-rule="evenodd"/>
</clipPath>
<g clip-path="url(#cp30355)">
<text xml:space="preserve" transform="matrix(1 0 -0 1 0 841.92)" font-size="14.04" font-family="Arial,BoldItalic" font-weight="bold" font-style="italic"><tspan y="-337.37" x="123.98"> </tspan></text>
</g>
<clipPath id="cp30356">
<path transform="matrix(1,0,0,-1,0,841.92)" d="M .000008871 0 L 595.32 0 L 595.32 841.92 L .000008871 841.92 Z " fill-rule="evenodd"/>
</clipPath>
<g clip-path="url(#cp30356)">
<text xml:space="preserve" transform="matrix(1 0 -0 1 0 841.92)" font-size="14.04" font-family="Times New Roman,BoldItalic" font-weight="bold" font-style="italic"><tspan y="-337.37" x="127.7 140.18157 146.41533 153.4915">Web </tspan></text>
</g>
<clipPath id="cp30357">
<path transform="matrix(1,0,0,-1,0,841.92)" d="M .000008871 0 L 595.32 0 L 595.32 841.92 L .000008871 841.92 Z " fill-rule="evenodd"/>
</clipPath>
<g clip-path="url(#cp30357)">
<text xml:space="preserve" transform="matrix(1 0 -0 1 0 841.92)" font-size="14.04" font-family="Times New Roman,BoldItalic" font-weight="bold" font-style="italic"><tspan y="-337.37" x="156.86 163.92212 169.32752 176.38964 184.06952 189.5732 195.80696">brauzer</tspan></text>
</g>
<clipPath id="cp30358">
<path transform="matrix(1,0,0,-1,0,841.92)" d="M .000008871 0 L 595.32 0 L 595.32 841.92 L .000008871 841.92 Z " fill-rule="evenodd"/>
</clipPath>
<g clip-path="url(#cp30358)">
<text xml:space="preserve" transform="matrix(1 0 -0 1 0 841.92)" font-size="14.04" font-family="Times New Roman,BoldItalic" font-weight="bold" font-style="italic"><tspan y="-337.37" x="201.29 205.13695 212.19907">lar</tspan></text>
</g>
<clipPath id="cp30359">
<path transform="matrix(1,0,0,-1,0,841.92)" d="M .000008871 0 L 595.32 0 L 595.32 841.92 L .000008871 841.92 Z " fill-rule="evenodd"/>
</clipPath>
<g clip-path="url(#cp30359)">
<text xml:space="preserve" transform="matrix(1 0 -0 1 0 841.92)" font-size="14.04" font-family="Times New Roman,BoldItalic" font-weight="bold" font-style="italic"><tspan y="-337.37" x="217.61"> </tspan></text>
</g>
<clipPath id="cp30360">
<path transform="matrix(1,0,0,-1,0,841.92)" d="M .000008871 0 L 595.32 0 L 595.32 841.92 L .000008871 841.92 Z " fill-rule="evenodd"/>
</clipPath>
<g clip-path="url(#cp30360)">
</g>
</g>
<g id="Layer-1" data-name="P">
<clipPath id="cp30361">
<path transform="matrix(1,0,0,-1,0,841.92)" d="M .000008871 0 L 595.32 0 L 595.32 841.92 L .000008871 841.92 Z " fill-rule="evenodd"/>
</clipPath>
<g clip-path="url(#cp30361)">
<text xml:space="preserve" transform="matrix(1 0 -0 1 0 841.92)" font-size="14.04" font-family="Times New Roman"><tspan y="-313.61" x="113.42 126.50528 132.73905 139.81522">Web </tspan></text>
</g>
<clipPath id="cp30362">
<path transform="matrix(1,0,0,-1,0,841.92)" d="M .000008871 0 L 595.32 0 L 595.32 841.92 L .000008871 841.92 Z " fill-rule="evenodd"/>
</clipPath>
<g clip-path="url(#cp30362)">
<text xml:space="preserve" transform="matrix(1 0 -0 1 0 841.92)" font-size="14.04" font-family="Times New Roman"><tspan y="-313.61" x="147.5 154.56212 159.23744 165.4712 172.54738 178.66883 184.90259">brauzer</tspan></text>
</g>
<clipPath id="cp30363">
<path transform="matrix(1,0,0,-1,0,841.92)" d="M .000008871 0 L 595.32 0 L 595.32 841.92 L .000008871 841.92 Z " fill-rule="evenodd"/>
</clipPath>
<g clip-path="url(#cp30363)">
<text xml:space="preserve" transform="matrix(1 0 -0 1 0 841.92)" font-size="14.04" font-family="Times New Roman"><tspan y="-313.61" x="189.65 193.49695 199.73072 204.40604 212.0859 215.93286 222.99498 226.94022 233.06166 237.73699 244.81316 250.9346 254.87984 261.94197 268.0634 275.1255 282.79136 293.4758">lar internetdan ma</tspan></text>
</g>
<clipPath id="cp30364">
<path transform="matrix(1,0,0,-1,0,841.92)" d="M .000008871 0 L 595.32 0 L 595.32 841.92 L .000008871 841.92 Z " fill-rule="evenodd"/>
</clipPath>
<g clip-path="url(#cp30364)">
<text xml:space="preserve" transform="matrix(1 0 -0 1 0 841.92)" font-size="14.04" font-family="Times New Roman"><tspan y="-313.61" x="299.93">&#x2019;</tspan></text>
</g>
<clipPath id="cp30365">
<path transform="matrix(1,0,0,-1,0,841.92)" d="M .000008871 0 L 595.32 0 L 595.32 841.92 L .000008871 841.92 Z " fill-rule="evenodd"/>
</clipPath>
<g clip-path="url(#cp30365)">
<text xml:space="preserve" transform="matrix(1 0 -0 1 0 841.92)" font-size="14.04" font-family="Times New Roman"><tspan y="-313.61" x="304.49 308.4352 315.4973 326.18177 333.24388 337.1891 344.85496 349.53028 355.76405 361.28175 368.34385 372.90684 378.31224 382.25746 388.4912 393.0542 396.99943 403.96327 407.90849 415.57435 422.63645 428.8702 435.7217 439.66694 445.9007 453.56657 457.4135 462.91719 469.881 473.72798 479.96174 485.47944 492.54154 500.08103 507.14314 513.3769 521.0427 524.8897 531.1235 538.08737 545.0512 548.99649 559.68087">lumot resurslarini qayta ishlash va taqdim </tspan></text>
</g>
<clipPath id="cp30366">
<path transform="matrix(1,0,0,-1,0,841.92)" d="M .000008871 0 L 595.32 0 L 595.32 841.92 L .000008871 841.92 Z " fill-rule="evenodd"/>
</clipPath>
<g clip-path="url(#cp30366)">
</g>
<clipPath id="cp30367">
<path transform="matrix(1,0,0,-1,0,841.92)" d="M .000008871 0 L 595.32 0 L 595.32 841.92 L .000008871 841.92 Z " fill-rule="evenodd"/>
</clipPath>
<g clip-path="url(#cp30367)">
<text xml:space="preserve" transform="matrix(1 0 -0 1 0 841.92)" font-size="14.04" font-family="Times New Roman"><tspan y="-289.49" x="85.104 92.166118 96.01308">qil</tspan></text>
</g>
<clipPath id="cp30368">
<path transform="matrix(1,0,0,-1,0,841.92)" d="M .000008871 0 L 595.32 0 L 595.32 841.92 L .000008871 841.92 Z " fill-rule="evenodd"/>
</clipPath>
<g clip-path="url(#cp30368)">
<text xml:space="preserve" transform="matrix(1 0 -0 1 0 841.92)" font-size="14.04" font-family="Times New Roman"><tspan y="-289.49" x="99.984 103.83096 109.23637 116.298488 120.48241 127.544528 133.77829 140.74213 147.70597 154.76808 159.07836 169.7628">ish uchun mo</tspan></text>
</g>
<clipPath id="cp30369">
<path transform="matrix(1,0,0,-1,0,841.92)" d="M .000008871 0 L 595.32 0 L 595.32 841.92 L .000008871 841.92 Z " fill-rule="evenodd"/>
</clipPath>
<g clip-path="url(#cp30369)">
<text xml:space="preserve" transform="matrix(1 0 -0 1 0 841.92)" font-size="14.04" font-family="Times New Roman"><tspan y="-289.49" x="176.9">&#x2019;</tspan></text>
</g>
<clipPath id="cp30370">
<path transform="matrix(1,0,0,-1,0,841.92)" d="M .000008871 0 L 595.32 0 L 595.32 841.92 L .000008871 841.92 Z " fill-rule="evenodd"/>
</clipPath>
<g clip-path="url(#cp30370)">
<text xml:space="preserve" transform="matrix(1 0 -0 1 0 841.92)" font-size="14.04" font-family="Times New Roman"><tspan y="-289.49" x="181.46 185.40525 189.2522 195.48596 199.4312 203.27816 209.51192 216.47576 223.53787 229.77164 236.73548 241.04575 248.10787 254.22931 259.6347 263.57994 270.64204 275.20503 279.15025 285.384 289.947 297.0091 303.13053 310.19264 314.37657 321.43867 325.2856 329.96095 333.90617 337.41618 341.69837 354.17994">ljallangan dasturlardan biri. Ma</tspan></text>
</g>
<clipPath id="cp30371">
<path transform="matrix(1,0,0,-1,0,841.92)" d="M .000008871 0 L 595.32 0 L 595.32 841.92 L .000008871 841.92 Z " fill-rule="evenodd"/>
</clipPath>
<g clip-path="url(#cp30371)">
<text xml:space="preserve" transform="matrix(1 0 -0 1 0 841.92)" font-size="14.04" font-family="Times New Roman"><tspan y="-289.49" x="360.67">&#x2019;</tspan></text>
</g>
<clipPath id="cp30372">
<path transform="matrix(1,0,0,-1,0,841.92)" d="M .000008871 0 L 595.32 0 L 595.32 841.92 L .000008871 841.92 Z " fill-rule="evenodd"/>
</clipPath>
<g clip-path="url(#cp30372)">
<text xml:space="preserve" transform="matrix(1 0 -0 1 0 841.92)" font-size="14.04" font-family="Times New Roman"><tspan y="-289.49" x="365.23 369.07698 376.13908 386.82353 393.88563 397.83085 402.14115 406.81648 413.05024 418.45564 425.51774 430.08073 435.58439 439.5296 445.65104 450.32637 454.27159 458.58189 469.26634 475.5001 479.4453 486.50743 490.01744 494.29963 498.97496 505.09638 510.60005 521.2844 524.79446 529.07669 536.1388 543.2009 550.26309 556.3845 559.7401">lumot resurslari matn, rasm, ovoz, </tspan></text>
</g>
<clipPath id="cp30373">
<path transform="matrix(1,0,0,-1,0,841.92)" d="M .000008871 0 L 595.32 0 L 595.32 841.92 L .000008871 841.92 Z " fill-rule="evenodd"/>
</clipPath>
<g clip-path="url(#cp30373)">
</g>
<clipPath id="cp30374">
<path transform="matrix(1,0,0,-1,0,841.92)" d="M .000008871 0 L 595.32 0 L 595.32 841.92 L .000008871 841.92 Z " fill-rule="evenodd"/>
</clipPath>
<g clip-path="url(#cp30374)">
<text xml:space="preserve" transform="matrix(1 0 -0 1 0 841.92)" font-size="14.04" font-family="Times New Roman"><tspan y="-265.37" x="85.104 92.166118 96.01308 103.075199 109.19663 116.25875 122.96987 129.9337">video ko</tspan></text>
</g>
<clipPath id="cp30375">
<path transform="matrix(1,0,0,-1,0,841.92)" d="M .000008871 0 L 595.32 0 L 595.32 841.92 L .000008871 841.92 Z " fill-rule="evenodd"/>
</clipPath>
<g clip-path="url(#cp30375)">
<text xml:space="preserve" transform="matrix(1 0 -0 1 0 841.92)" font-size="14.04" font-family="Times New Roman"><tspan y="-265.37" x="137.06">&#x2019;</tspan></text>
</g>
<clipPath id="cp30376">
<path transform="matrix(1,0,0,-1,0,841.92)" d="M .000008871 0 L 595.32 0 L 595.32 841.92 L .000008871 841.92 Z " fill-rule="evenodd"/>
</clipPath>
<g clip-path="url(#cp30376)">
<text xml:space="preserve" transform="matrix(1 0 -0 1 0 841.92)" font-size="14.04" font-family="Times New Roman"><tspan y="-265.37" x="141.62 146.29532 150.14228 157.20439 161.05135 166.45674 173.51886 177.36582 184.42794 190.6617 197.2605 204.22434">rinishida bo</tspan></text>
</g>
<clipPath id="cp30377">
<path transform="matrix(1,0,0,-1,0,841.92)" d="M .000008871 0 L 595.32 0 L 595.32 841.92 L .000008871 841.92 Z " fill-rule="evenodd"/>
</clipPath>
<g clip-path="url(#cp30377)">
<text xml:space="preserve" transform="matrix(1 0 -0 1 0 841.92)" font-size="14.04" font-family="Times New Roman"><tspan y="-265.37" x="211.37">&#x2019;</tspan></text>
</g>
<clipPath id="cp30378">
<path transform="matrix(1,0,0,-1,0,841.92)" d="M .000008871 0 L 595.32 0 L 595.32 841.92 L .000008871 841.92 Z " fill-rule="evenodd"/>
</clipPath>
<g clip-path="url(#cp30378)">
<text xml:space="preserve" transform="matrix(1 0 -0 1 0 841.92)" font-size="14.04" font-family="Times New Roman"><tspan y="-265.37" x="215.93 219.87523 223.72219 229.22586 236.1897 240.13494 246.84606 257.5305 261.60209 272.28654 279.34864 283.29386 290.35597 293.86598 300.53498 310.6157 317.57954 324.54338 328.4886 335.32606 342.03718 349.09928 353.0445 356.89146 360.83668 367.89878 374.48356 380.71733 387.56883 391.51405 398.57615 404.8099 411.77375 418.83586 425.0696 428.57963 435.13633 448.2216 454.45536 461.5315">lishi mimkin. Oddiy qilib aytganda, Web </tspan></text>
</g>
<clipPath id="cp30379">
<path transform="matrix(1,0,0,-1,0,841.92)" d="M .000008871 0 L 595.32 0 L 595.32 841.92 L .000008871 841.92 Z " fill-rule="evenodd"/>
</clipPath>
<g clip-path="url(#cp30379)">
<text xml:space="preserve" transform="matrix(1 0 -0 1 0 841.92)" font-size="14.04" font-family="Times New Roman"><tspan y="-265.37" x="468.58 475.6421 480.3174 486.55119 493.52906 499.76283 505.99659">brauzer</tspan></text>
</g>
<clipPath id="cp30380">
<path transform="matrix(1,0,0,-1,0,841.92)" d="M .000008871 0 L 595.32 0 L 595.32 841.92 L .000008871 841.92 Z " fill-rule="evenodd"/>
</clipPath>
<g clip-path="url(#cp30380)">
<text xml:space="preserve" transform="matrix(1 0 -0 1 0 841.92)" font-size="14.04" font-family="Times New Roman"><tspan y="-265.37" x="510.58 514.5252 520.759 525.32199 532.3841 536.32937 542.9141 549.97628 553.82327 559.9447">larni biz </tspan></text>
</g>
<clipPath id="cp30381">
<path transform="matrix(1,0,0,-1,0,841.92)" d="M .000008871 0 L 595.32 0 L 595.32 841.92 L .000008871 841.92 Z " fill-rule="evenodd"/>
</clipPath>
<g clip-path="url(#cp30381)">
</g>
<clipPath id="cp30382">
<path transform="matrix(1,0,0,-1,0,841.92)" d="M .000008871 0 L 595.32 0 L 595.32 841.92 L .000008871 841.92 Z " fill-rule="evenodd"/>
</clipPath>
<g clip-path="url(#cp30382)">
<text xml:space="preserve" transform="matrix(1 0 -0 1 0 841.92)" font-size="14.04" font-family="Times New Roman"><tspan y="-241.13" x="85.104 89.04924 96.01308 99.95832 106.19208 110.75508 117.8172 123.93864 127.88388 134.84772 141.08148 146.23416 150.1794 155.5848 162.64691 166.49387 172.72763 178.13303 185.19515 190.34783 197.40995 203.53139 210.5935 217.55735 224.61946 229.77214 236.0059 242.23967 246.81671 253.87883 258.55415 263.70683 270.67066">internetda ishlash uchun zarur bo</tspan></text>
</g>
<clipPath id="cp30383">
<path transform="matrix(1,0,0,-1,0,841.92)" d="M .000008871 0 L 595.32 0 L 595.32 841.92 L .000008871 841.92 Z " fill-rule="evenodd"/>
</clipPath>
<g clip-path="url(#cp30383)">
<text xml:space="preserve" transform="matrix(1 0 -0 1 0 841.92)" font-size="14.04" font-family="Times New Roman"><tspan y="-241.13" x="277.97">&#x2019;</tspan></text>
</g>
<clipPath id="cp30384">
<path transform="matrix(1,0,0,-1,0,841.92)" d="M .000008871 0 L 595.32 0 L 595.32 841.92 L .000008871 841.92 Z " fill-rule="evenodd"/>
</clipPath>
<g clip-path="url(#cp30384)">
<text xml:space="preserve" transform="matrix(1 0 -0 1 0 841.92)" font-size="14.04" font-family="Times New Roman"><tspan y="-241.13" x="282.53 286.47523 293.53733 299.65876 306.72087 311.87355 318.93565 325.05708 330.56074 334.40769 341.4698 346.1451 351.2978 355.14476 362.20686 366.88218 370.8274 375.98008 382.9439 389.17768 396.2538 401.4065 405.25346 411.4872 418.45106 425.51316 429.3601 435.59388 440.99928 448.06138 452.0066 462.69105 466.63627 472.87004 478.14909 488.83354 496.022 506.70646 513.76858 517.7138 524.77597 528.28598 533.39657 546.4819 552.71566 559.6795">lgan dastur turi deb izohlashimiz mumkin. Web </tspan></text>
</g>
<clipPath id="cp30385">
<path transform="matrix(1,0,0,-1,0,841.92)" d="M .000008871 0 L 595.32 0 L 595.32 841.92 L .000008871 841.92 Z " fill-rule="evenodd"/>
</clipPath>
<g clip-path="url(#cp30385)">
</g>
<clipPath id="cp30386">
<path transform="matrix(1,0,0,-1,0,841.92)" d="M .000008871 0 L 595.32 0 L 595.32 841.92 L .000008871 841.92 Z " fill-rule="evenodd"/>
</clipPath>
<g clip-path="url(#cp30386)">
<text xml:space="preserve" transform="matrix(1 0 -0 1 0 841.92)" font-size="14.04" font-family="Times New Roman"><tspan y="-216.98" x="85.104 92.166118 96.84144 102.962879 110.024997 116.25875 122.49251">brauzer</tspan></text>
</g>
<clipPath id="cp30387">
<path transform="matrix(1,0,0,-1,0,841.92)" d="M .000008871 0 L 595.32 0 L 595.32 841.92 L .000008871 841.92 Z " fill-rule="evenodd"/>
</clipPath>
<g clip-path="url(#cp30387)">
<text xml:space="preserve" transform="matrix(1 0 -0 1 0 841.92)" font-size="14.04" font-family="Times New Roman"><tspan y="-216.98" x="127.1 131.04523 137.27899 141.842 148.90412 152.75107 159.7149 166.77703 170.28702 177.22278 184.2849 191.12238 195.06761 202.03145 208.26522 215.34139 219.28662 222.64218 226.48914 233.55126 238.22658 242.17182 248.29326 252.96858 256.91383 260.42384 271.0802 277.31398 284.3901 288.23707 295.29917 302.36128 305.87129 309.77439">larning quyidagi turlari mavjud : </tspan></text>
</g>
<clipPath id="cp30388">
<path transform="matrix(1,0,0,-1,0,841.92)" d="M .000008871 0 L 595.32 0 L 595.32 841.92 L .000008871 841.92 Z " fill-rule="evenodd"/>
</clipPath>
<g clip-path="url(#cp30388)">
<text xml:space="preserve" transform="matrix(1 0 -0 1 0 841.92)" font-size="14.04" font-family="Times New Roman"><tspan y="-216.98" x="313.37"> </tspan></text>
</g>
<clipPath id="cp30389">
<path transform="matrix(1,0,0,-1,0,841.92)" d="M .000008871 0 L 595.32 0 L 595.32 841.92 L .000008871 841.92 Z " fill-rule="evenodd"/>
</clipPath>
<g clip-path="url(#cp30389)">
</g>
</g>
<g id="Layer-1" data-name="P">
<clipPath id="cp30390">
<path transform="matrix(1,0,0,-1,0,841.92)" d="M .000008871 0 L 595.32 0 L 595.32 841.92 L .000008871 841.92 Z " fill-rule="evenodd"/>
</clipPath>
<g clip-path="url(#cp30390)">
<text xml:space="preserve" transform="matrix(1 0 -0 1 0 841.92)" font-size="14.04" font-family="Calibri"><tspan y="-192.62" x="113.42">-</tspan></text>
</g>
<clipPath id="cp30391">
<path transform="matrix(1,0,0,-1,0,841.92)" d="M .000008871 0 L 595.32 0 L 595.32 841.92 L .000008871 841.92 Z " fill-rule="evenodd"/>
</clipPath>
<g clip-path="url(#cp30391)">
<text xml:space="preserve" transform="matrix(1 0 -0 1 0 841.92)" font-size="14.04" font-family="Arial"><tspan y="-192.62" x="117.74"> </tspan></text>
</g>
<clipPath id="cp30392">
<path transform="matrix(1,0,0,-1,0,841.92)" d="M .000008871 0 L 595.32 0 L 595.32 841.92 L .000008871 841.92 Z " fill-rule="evenodd"/>
</clipPath>
<g clip-path="url(#cp30392)">
<text xml:space="preserve" transform="matrix(1 0 -0 1 0 841.92)" font-size="14.04" font-family="Times New Roman"><tspan y="-192.62" x="127.7">M</tspan></text>
</g>
<clipPath id="cp30393">
<path transform="matrix(1,0,0,-1,0,841.92)" d="M .000008871 0 L 595.32 0 L 595.32 841.92 L .000008871 841.92 Z " fill-rule="evenodd"/>
</clipPath>
<g clip-path="url(#cp30393)">
<text xml:space="preserve" transform="matrix(1 0 -0 1 0 841.92)" font-size="14.04" font-family="Times New Roman"><tspan y="-192.62" x="140.18">S</tspan></text>
</g>
<clipPath id="cp30394">
<path transform="matrix(1,0,0,-1,0,841.92)" d="M .000008871 0 L 595.32 0 L 595.32 841.92 L .000008871 841.92 Z " fill-rule="evenodd"/>
</clipPath>
<g clip-path="url(#cp30394)">
<text xml:space="preserve" transform="matrix(1 0 -0 1 0 841.92)" font-size="14.04" font-family="Times New Roman"><tspan y="-192.62" x="147.98"> </tspan></text>
</g>
<clipPath id="cp30395">
<path transform="matrix(1,0,0,-1,0,841.92)" d="M .000008871 0 L 595.32 0 L 595.32 841.92 L .000008871 841.92 Z " fill-rule="evenodd"/>
</clipPath>
<g clip-path="url(#cp30395)">
<text xml:space="preserve" transform="matrix(1 0 -0 1 0 841.92)" font-size="14.04" font-family="Times New Roman"><tspan y="-192.62" x="151.46 156.13533 163.09917">Int</tspan></text>
</g>
<clipPath id="cp30396">
<path transform="matrix(1,0,0,-1,0,841.92)" d="M .000008871 0 L 595.32 0 L 595.32 841.92 L .000008871 841.92 Z " fill-rule="evenodd"/>
</clipPath>
<g clip-path="url(#cp30396)">
<text xml:space="preserve" transform="matrix(1 0 -0 1 0 841.92)" font-size="14.04" font-family="Times New Roman"><tspan y="-192.62" x="167.06 173.29376 177.85677 184.91889 191.15265">ernet</tspan></text>
</g>
<clipPath id="cp30397">
<path transform="matrix(1,0,0,-1,0,841.92)" d="M .000008871 0 L 595.32 0 L 595.32 841.92 L .000008871 841.92 Z " fill-rule="evenodd"/>
</clipPath>
<g clip-path="url(#cp30397)">
<text xml:space="preserve" transform="matrix(1 0 -0 1 0 841.92)" font-size="14.04" font-family="Times New Roman"><tspan y="-192.62" x="195.17"> </tspan></text>
</g>
<clipPath id="cp30398">
<path transform="matrix(1,0,0,-1,0,841.92)" d="M .000008871 0 L 595.32 0 L 595.32 841.92 L .000008871 841.92 Z " fill-rule="evenodd"/>
</clipPath>
<g clip-path="url(#cp30398)">
<text xml:space="preserve" transform="matrix(1 0 -0 1 0 841.92)" font-size="14.04" font-family="Times New Roman"><tspan y="-192.62" x="198.65 207.04592 214.10803 221.07187 224.91883 231.98094 236.65627 242.89003">Explorer</tspan></text>
</g>
<clipPath id="cp30399">
<path transform="matrix(1,0,0,-1,0,841.92)" d="M .000008871 0 L 595.32 0 L 595.32 841.92 L .000008871 841.92 Z " fill-rule="evenodd"/>
</clipPath>
<g clip-path="url(#cp30399)">
<text xml:space="preserve" transform="matrix(1 0 -0 1 0 841.92)" font-size="14.04" font-family="Times New Roman"><tspan y="-192.62" x="247.49"> </tspan></text>
</g>
<clipPath id="cp30400">
<path transform="matrix(1,0,0,-1,0,841.92)" d="M .000008871 0 L 595.32 0 L 595.32 841.92 L .000008871 841.92 Z " fill-rule="evenodd"/>
</clipPath>
<g clip-path="url(#cp30400)">
</g>
</g>
<g id="Layer-1" data-name="P">
<clipPath id="cp30401">
<path transform="matrix(1,0,0,-1,0,841.92)" d="M .000008871 0 L 595.32 0 L 595.32 841.92 L .000008871 841.92 Z " fill-rule="evenodd"/>
</clipPath>
<g clip-path="url(#cp30401)">
<text xml:space="preserve" transform="matrix(1 0 -0 1 0 841.92)" font-size="14.04" font-family="Calibri"><tspan y="-168.26" x="113.42">-</tspan></text>
</g>
<clipPath id="cp30402">
<path transform="matrix(1,0,0,-1,0,841.92)" d="M .000008871 0 L 595.32 0 L 595.32 841.92 L .000008871 841.92 Z " fill-rule="evenodd"/>
</clipPath>
<g clip-path="url(#cp30402)">
<text xml:space="preserve" transform="matrix(1 0 -0 1 0 841.92)" font-size="14.04" font-family="Arial"><tspan y="-168.26" x="117.74"> </tspan></text>
</g>
<clipPath id="cp30403">
<path transform="matrix(1,0,0,-1,0,841.92)" d="M .000008871 0 L 595.32 0 L 595.32 841.92 L .000008871 841.92 Z " fill-rule="evenodd"/>
</clipPath>
<g clip-path="url(#cp30403)">
<text xml:space="preserve" transform="matrix(1 0 -0 1 0 841.92)" font-size="14.04" font-family="Times New Roman"><tspan y="-168.26" x="127.7 140.18157 147.24369 153.36513 157.31037 161.15732 165.10256 171.33632 174.84632 182.49813 186.44336 191.11869 197.35245 205.04637 212.10849">Mozilla FireFox</tspan></text>
</g>
<clipPath id="cp30404">
<path transform="matrix(1,0,0,-1,0,841.92)" d="M .000008871 0 L 595.32 0 L 595.32 841.92 L .000008871 841.92 Z " fill-rule="evenodd"/>
</clipPath>
<g clip-path="url(#cp30404)">
<text xml:space="preserve" transform="matrix(1 0 -0 1 0 841.92)" font-size="14.04" font-family="Times New Roman"><tspan y="-168.26" x="219.17"> </tspan></text>
</g>
<clipPath id="cp30405">
<path transform="matrix(1,0,0,-1,0,841.92)" d="M .000008871 0 L 595.32 0 L 595.32 841.92 L .000008871 841.92 Z " fill-rule="evenodd"/>
</clipPath>
<g clip-path="url(#cp30405)">
</g>
</g>
<g id="Layer-1" data-name="P">
<clipPath id="cp30406">
<path transform="matrix(1,0,0,-1,0,841.92)" d="M .000008871 0 L 595.32 0 L 595.32 841.92 L .000008871 841.92 Z " fill-rule="evenodd"/>
</clipPath>
<g clip-path="url(#cp30406)">
<text xml:space="preserve" transform="matrix(1 0 -0 1 0 841.92)" font-size="14.04" font-family="Calibri"><tspan y="-143.78" x="113.42">-</tspan></text>
</g>
<clipPath id="cp30407">
<path transform="matrix(1,0,0,-1,0,841.92)" d="M .000008871 0 L 595.32 0 L 595.32 841.92 L .000008871 841.92 Z " fill-rule="evenodd"/>
</clipPath>
<g clip-path="url(#cp30407)">
<text xml:space="preserve" transform="matrix(1 0 -0 1 0 841.92)" font-size="14.04" font-family="Arial"><tspan y="-143.78" x="117.74"> </tspan></text>
</g>
<clipPath id="cp30408">
<path transform="matrix(1,0,0,-1,0,841.92)" d="M .000008871 0 L 595.32 0 L 595.32 841.92 L .000008871 841.92 Z " fill-rule="evenodd"/>
</clipPath>
<g clip-path="url(#cp30408)">
<text xml:space="preserve" transform="matrix(1 0 -0 1 0 841.92)" font-size="14.04" font-family="Times New Roman"><tspan y="-143.78" x="127.7 137.78072 144.84284 151.0766 155.75193 161.98569">Opera </tspan></text>
</g>
<clipPath id="cp30409">
<path transform="matrix(1,0,0,-1,0,841.92)" d="M .000008871 0 L 595.32 0 L 595.32 841.92 L .000008871 841.92 Z " fill-rule="evenodd"/>
</clipPath>
<g clip-path="url(#cp30409)">
<text xml:space="preserve" transform="matrix(1 0 -0 1 0 841.92)" font-size="14.04" font-family="Times New Roman"><tspan y="-143.78" x="165.38"> </tspan></text>
</g>
<clipPath id="cp30410">
<path transform="matrix(1,0,0,-1,0,841.92)" d="M .000008871 0 L 595.32 0 L 595.32 841.92 L .000008871 841.92 Z " fill-rule="evenodd"/>
</clipPath>
<g clip-path="url(#cp30410)">
</g>
</g>
<g id="Layer-1" data-name="P">
<clipPath id="cp30411">
<path transform="matrix(1,0,0,-1,0,841.92)" d="M .000008871 0 L 595.32 0 L 595.32 841.92 L .000008871 841.92 Z " fill-rule="evenodd"/>
</clipPath>
<g clip-path="url(#cp30411)">
<text xml:space="preserve" transform="matrix(1 0 -0 1 0 841.92)" font-size="14.04" font-family="Calibri"><tspan y="-119.42" x="113.42">-</tspan></text>
</g>
<clipPath id="cp30412">
<path transform="matrix(1,0,0,-1,0,841.92)" d="M .000008871 0 L 595.32 0 L 595.32 841.92 L .000008871 841.92 Z " fill-rule="evenodd"/>
</clipPath>
<g clip-path="url(#cp30412)">
<text xml:space="preserve" transform="matrix(1 0 -0 1 0 841.92)" font-size="14.04" font-family="Arial"><tspan y="-119.42" x="117.74"> </tspan></text>
</g>
<clipPath id="cp30413">
<path transform="matrix(1,0,0,-1,0,841.92)" d="M .000008871 0 L 595.32 0 L 595.32 841.92 L .000008871 841.92 Z " fill-rule="evenodd"/>
</clipPath>
<g clip-path="url(#cp30413)">
<text xml:space="preserve" transform="matrix(1 0 -0 1 0 841.92)" font-size="14.04" font-family="Times New Roman"><tspan y="-119.42" x="127.7 135.50624 141.74 146.41533 152.6491 157.32442">Safari</tspan></text>
</g>
<clipPath id="cp30414">
<path transform="matrix(1,0,0,-1,0,841.92)" d="M .000008871 0 L 595.32 0 L 595.32 841.92 L .000008871 841.92 Z " fill-rule="evenodd"/>
</clipPath>
<g clip-path="url(#cp30414)">
<text xml:space="preserve" transform="matrix(1 0 -0 1 0 841.92)" font-size="14.04" font-family="Times New Roman"><tspan y="-119.42" x="161.18"> </tspan></text>
</g>
<clipPath id="cp30415">
<path transform="matrix(1,0,0,-1,0,841.92)" d="M .000008871 0 L 595.32 0 L 595.32 841.92 L .000008871 841.92 Z " fill-rule="evenodd"/>
</clipPath>
<g clip-path="url(#cp30415)">
</g>
</g>
<g id="Layer-1" data-name="P">
<clipPath id="cp30416">
<path transform="matrix(1,0,0,-1,0,841.92)" d="M .000008871 0 L 595.32 0 L 595.32 841.92 L .000008871 841.92 Z " fill-rule="evenodd"/>
</clipPath>
<g clip-path="url(#cp30416)">
<text xml:space="preserve" transform="matrix(1 0 -0 1 0 841.92)" font-size="14.04" font-family="Calibri"><tspan y="-94.944" x="113.42">-</tspan></text>
</g>
<clipPath id="cp30417">
<path transform="matrix(1,0,0,-1,0,841.92)" d="M .000008871 0 L 595.32 0 L 595.32 841.92 L .000008871 841.92 Z " fill-rule="evenodd"/>
</clipPath>
<g clip-path="url(#cp30417)">
<text xml:space="preserve" transform="matrix(1 0 -0 1 0 841.92)" font-size="14.04" font-family="Arial"><tspan y="-94.944" x="117.74"> </tspan></text>
</g>
<clipPath id="cp30418">
<path transform="matrix(1,0,0,-1,0,841.92)" d="M .000008871 0 L 595.32 0 L 595.32 841.92 L .000008871 841.92 Z " fill-rule="evenodd"/>
</clipPath>
<g clip-path="url(#cp30418)">
<text xml:space="preserve" transform="matrix(1 0 -0 1 0 841.92)" font-size="14.04" font-family="Times New Roman"><tspan y="-94.944" x="127.7 137.78072 144.84284 151.80667 158.86879 162.71575">Google</tspan></text>
</g>
<clipPath id="cp30419">
<path transform="matrix(1,0,0,-1,0,841.92)" d="M .000008871 0 L 595.32 0 L 595.32 841.92 L .000008871 841.92 Z " fill-rule="evenodd"/>
</clipPath>
<g clip-path="url(#cp30419)">
<text xml:space="preserve" transform="matrix(1 0 -0 1 0 841.92)" font-size="14.04" font-family="Times New Roman"><tspan y="-94.944" x="168.98"> </tspan></text>
</g>
<clipPath id="cp30420">
<path transform="matrix(1,0,0,-1,0,841.92)" d="M .000008871 0 L 595.32 0 L 595.32 841.92 L .000008871 841.92 Z " fill-rule="evenodd"/>
</clipPath>
<g clip-path="url(#cp30420)">
<text xml:space="preserve" transform="matrix(1 0 -0 1 0 841.92)" font-size="14.04" font-family="Times New Roman"><tspan y="-94.944" x="172.46 181.82469 188.88681 193.44982 200.51194 211.19638">Chrome</tspan></text>
</g>
<clipPath id="cp30421">
<path transform="matrix(1,0,0,-1,0,841.92)" d="M .000008871 0 L 595.32 0 L 595.32 841.92 L .000008871 841.92 Z " fill-rule="evenodd"/>
</clipPath>
<g clip-path="url(#cp30421)">
<text xml:space="preserve" transform="matrix(1 0 -0 1 0 841.92)" font-size="14.04" font-family="Times New Roman"><tspan y="-94.944" x="217.61"> </tspan></text>
</g>
<clipPath id="cp30422">
<path transform="matrix(1,0,0,-1,0,841.92)" d="M .000008871 0 L 595.32 0 L 595.32 841.92 L .000008871 841.92 Z " fill-rule="evenodd"/>
</clipPath>
<g clip-path="url(#cp30422)">
</g>
</g>
<g id="Layer-1" data-name="P">
<clipPath id="cp30423">
<path transform="matrix(1,0,0,-1,0,841.92)" d="M .000008871 0 L 595.32 0 L 595.32 841.92 L .000008871 841.92 Z " fill-rule="evenodd"/>
</clipPath>
<g clip-path="url(#cp30423)">
<text xml:space="preserve" transform="matrix(1 0 -0 1 0 841.92)" font-size="14.04" font-family="Times New Roman,BoldItalic" font-weight="bold" font-style="italic"><tspan y="-70.464" x="113.42 120.5">3.</tspan></text>
</g>
<clipPath id="cp30424">
<path transform="matrix(1,0,0,-1,0,841.92)" d="M .000008871 0 L 595.32 0 L 595.32 841.92 L .000008871 841.92 Z " fill-rule="evenodd"/>
</clipPath>
<g clip-path="url(#cp30424)">
<text xml:space="preserve" transform="matrix(1 0 -0 1 0 841.92)" font-size="14.04" font-family="Arial,BoldItalic" font-weight="bold" font-style="italic"><tspan y="-70.464" x="123.98"> </tspan></text>
</g>
<clipPath id="cp30425">
<path transform="matrix(1,0,0,-1,0,841.92)" d="M .000008871 0 L 595.32 0 L 595.32 841.92 L .000008871 841.92 Z " fill-rule="evenodd"/>
</clipPath>
<g clip-path="url(#cp30425)">
<text xml:space="preserve" transform="matrix(1 0 -0 1 0 841.92)" font-size="14.04" font-family="Times New Roman,BoldItalic" font-weight="bold" font-style="italic"><tspan y="-70.464" x="127.7 136.32056 143.2844 151.09064 158.04044 161.98567 165.83263 169.67958 176.7417 180.2517 187.2717 194.97966 200.48334 208.28958 215.96947 219.9147 226.87854 232.38222 236.32746">Yangilik guruhlari </tspan></text>
</g>
<clipPath id="cp30426">
<path transform="matrix(1,0,0,-1,0,841.92)" d="M .000008871 0 L 595.32 0 L 595.32 841.92 L .000008871 841.92 Z " fill-rule="evenodd"/>
</clipPath>
<g clip-path="url(#cp30426)">
<text xml:space="preserve" transform="matrix(1 0 -0 1 0 841.92)" font-size="14.04" font-family="Times New Roman,BoldItalic" font-weight="bold" font-style="italic"><tspan y="-70.464" x="239.81"> </tspan></text>
</g>
<clipPath id="cp30427">
<path transform="matrix(1,0,0,-1,0,841.92)" d="M .000008871 0 L 595.32 0 L 595.32 841.92 L .000008871 841.92 Z " fill-rule="evenodd"/>
</clipPath>
<g clip-path="url(#cp30427)">
</g>
</g>
</g>
</g>
</svg>
