<?xml version="1.0" encoding="UTF-8" standalone="no"?>
<!DOCTYPE svg PUBLIC "-//W3C//DTD SVG 1.1//EN" "http://www.w3.org/Graphics/SVG/1.1/DTD/svg11.dtd">
<svg xmlns="http://www.w3.org/2000/svg" xmlns:xlink="http://www.w3.org/1999/xlink" version="1.1" width="595.32pt" height="841.92pt" viewBox="0 0 595.32 841.92">
<g enable-background="new">
<g>
<g id="Layer-1" data-name="Artifact">
<clipPath id="cp30428">
<path transform="matrix(1,0,0,-1,0,841.92)" d="M .000008871 0 L 595.32 0 L 595.32 841.92 L .000008871 841.92 Z " fill-rule="evenodd"/>
</clipPath>
<g clip-path="url(#cp30428)">
<text xml:space="preserve" transform="matrix(1 0 -0 1 0 841.92)" font-size="11.04" font-family="Calibri"><tspan y="-51.864" x="314.09 319.72999 325.36997">186</tspan></text>
</g>
<clipPath id="cp30429">
<path transform="matrix(1,0,0,-1,0,841.92)" d="M .000008871 0 L 595.32 0 L 595.32 841.92 L .000008871 841.92 Z " fill-rule="evenodd"/>
</clipPath>
<g clip-path="url(#cp30429)">
<text xml:space="preserve" transform="matrix(1 0 -0 1 0 841.92)" font-size="11.04" font-family="Calibri"><tspan y="-51.864" x="331.03"> </tspan></text>
</g>
<clipPath id="cp30430">
<path transform="matrix(1,0,0,-1,0,841.92)" d="M .000008871 0 L 595.32 0 L 595.32 841.92 L .000008871 841.92 Z " fill-rule="evenodd"/>
</clipPath>
<g clip-path="url(#cp30430)">
</g>
<clipPath id="cp30431">
<path transform="matrix(1,0,0,-1,0,841.92)" d="M .000008871 0 L 595.32 0 L 595.32 841.92 L .000008871 841.92 Z " fill-rule="evenodd"/>
</clipPath>
<g clip-path="url(#cp30431)">
<text xml:space="preserve" transform="matrix(1 0 -0 1 0 841.92)" font-size="11.04" font-family="Calibri"><tspan y="-38.4" x="85.104"> </tspan></text>
</g>
<clipPath id="cp30432">
<path transform="matrix(1,0,0,-1,0,841.92)" d="M .000008871 0 L 595.32 0 L 595.32 841.92 L .000008871 841.92 Z " fill-rule="evenodd"/>
</clipPath>
<g clip-path="url(#cp30432)">
</g>
</g>
<g id="Layer-1" data-name="P">
<clipPath id="cp30433">
<path transform="matrix(1,0,0,-1,0,841.92)" d="M .000008871 0 L 595.32 0 L 595.32 841.92 L .000008871 841.92 Z " fill-rule="evenodd"/>
</clipPath>
<g clip-path="url(#cp30433)">
<text xml:space="preserve" transform="matrix(1 0 -0 1 0 841.92)" font-size="14.04" font-family="Times New Roman"><tspan y="-772.56" x="113.42 123.50072 129.73448 136.81066 143.77449 147.71973 151.56668 155.41364 162.47576 173.25847 180.32059 187.28443 191.95975 198.92359 205.9857 209.83266 216.06642 220.74175 224.70104 235.37143 242.43355 249.49567 260.27839 264.12535 271.08918 275.0344 281.26817 285.83116 292.89326 299.127 302.97398 310.03608 316.26985 327.06663 334.03047 337.97569 342.53868 349.60078 354.16377 364.94648 372.00859 375.9538 380.62913 391.5382 402.22267 408.45643 415.53257 421.76634 428.84248 439.62519 446.58903 452.82279 459.78663 463.73185 470.69569 476.8171 487.7262 494.56367 501.62577 507.85954 511.80476 517.21017 524.2723 534.95669 541.1904 545.1357 551.36947 556.04476 559.55477">Yangilik guruhlari bu internetda biror bir mavzu haqida yozishmalar, </tspan></text>
</g>
<clipPath id="cp30434">
<path transform="matrix(1,0,0,-1,0,841.92)" d="M .000008871 0 L 595.32 0 L 595.32 841.92 L .000008871 841.92 Z " fill-rule="evenodd"/>
</clipPath>
<g clip-path="url(#cp30434)">
</g>
<clipPath id="cp30435">
<path transform="matrix(1,0,0,-1,0,841.92)" d="M .000008871 0 L 595.32 0 L 595.32 841.92 L .000008871 841.92 Z " fill-rule="evenodd"/>
</clipPath>
<g clip-path="url(#cp30435)">
<text xml:space="preserve" transform="matrix(1 0 -0 1 0 841.92)" font-size="14.04" font-family="Times New Roman"><tspan y="-748.3" x="85.104 95.90076 102.134517 107.65224 111.59748 117.71892 124.78104 131.0148 134.86176 138.80699 144.92844 150.43212 157.39595 161.2429 166.74658 173.71042 177.65566 183.88942 188.56475 194.7985 199.3615 206.32534 211.00066 218.07683 228.76128 232.70652 239.76863 243.71387 248.38919 251.89919 258.10487 267.34318 274.40528 280.625 284.47196 290.70573 295.38105 301.6148 308.4663 315.5284 322.5905 328.69795 332.64317 339.607 343.55223 349.78599 354.34898 361.41108 367.5325 371.47773 378.44157 384.67533 390.9091 397.03053 407.11125 413.345 423.42573 428.92939 435.1491 440.65278 446.7742 451.44953 458.52568 464.75944 469.32243 474.82609 481.05986">maslahatlashishlar forumidir. Bu jarayon internetda &#x201c;News servers&#x201d; </tspan></text>
</g>
<clipPath id="cp30436">
<path transform="matrix(1,0,0,-1,0,841.92)" d="M .000008871 0 L 595.32 0 L 595.32 841.92 L .000008871 841.92 Z " fill-rule="evenodd"/>
</clipPath>
<g clip-path="url(#cp30436)">
<text xml:space="preserve" transform="matrix(1 0 -0 1 0 841.92)" font-size="14.04" font-family="Times New Roman"><tspan y="-748.3" x="487.66 494.7221 500.95588 507.9197 511.86494 518.08468 528.76907 535.0028 542.079 547.58267 554.5465 559.9519">kabi maxsus </tspan></text>
</g>
<clipPath id="cp30437">
<path transform="matrix(1,0,0,-1,0,841.92)" d="M .000008871 0 L 595.32 0 L 595.32 841.92 L .000008871 841.92 Z " fill-rule="evenodd"/>
</clipPath>
<g clip-path="url(#cp30437)">
</g>
<clipPath id="cp30438">
<path transform="matrix(1,0,0,-1,0,841.92)" d="M .000008871 0 L 595.32 0 L 595.32 841.92 L .000008871 841.92 Z " fill-rule="evenodd"/>
</clipPath>
<g clip-path="url(#cp30438)">
<text xml:space="preserve" transform="matrix(1 0 -0 1 0 841.92)" font-size="14.04" font-family="Times New Roman"><tspan y="-724.18" x="85.104 90.60768 96.84144 101.40444 108.46656 114.70032 119.26332 123.208568 129.44232 134.11765 138.79296 142.73819 149.80031 160.48476 167.54688 174.51071 178.45595 185.51807 191.63951 198.70163 203.3629 210.42502 217.38886 222.79425 229.85637 236.91849 243.03993 247.71526 251.56221 255.50745 261.62889 268.69099 272.6362 276.1462 280.77943 284.62638 291.68849 296.3638 300.21076 304.15599 308.81727 315.87937 319.72633 323.57328 328.36094 335.1984 341.43217 348.5083 355.5704 359.41737 363.36259 367.20954 374.27165 378.93293 385.99504 392.95887 397.6342 404.59803 411.66014 415.50709 421.74085 426.41618 430.26313 435.05079 438.89775 445.86158 450.5369 454.48213 458.32908 463.11674 473.80119 480.03495 487.11109 492.61476 498.8485 505.81236 509.75758 515.99136 520.6666 525.342 532.4041 538.5256 545.5877 552.42526 559.3891">serverlar tomonidan boshqariladi, turli xil yangilik guruhlari turli maqsadlar uchun </tspan></text>
</g>
<clipPath id="cp30439">
<path transform="matrix(1,0,0,-1,0,841.92)" d="M .000008871 0 L 595.32 0 L 595.32 841.92 L .000008871 841.92 Z " fill-rule="evenodd"/>
</clipPath>
<g clip-path="url(#cp30439)">
</g>
<clipPath id="cp30440">
<path transform="matrix(1,0,0,-1,0,841.92)" d="M .000008871 0 L 595.32 0 L 595.32 841.92 L .000008871 841.92 Z " fill-rule="evenodd"/>
</clipPath>
<g clip-path="url(#cp30440)">
<text xml:space="preserve" transform="matrix(1 0 -0 1 0 841.92)" font-size="14.04" font-family="Times New Roman"><tspan y="-700.06" x="85.104 95.90076 102.134517 109.21067 113.05763 120.11975 127.18187 130.69187 134.72135 147.20291 153.32436 158.82804 164.94948 168.89472 175.01616 182.07828 185.58827 189.61775 196.58159 200.52683 205.08983 212.15195 216.82727 220.7725 227.83463 231.77986 236.34287 240.41446 247.25194 253.4857 260.56187 267.62397 271.47093 275.41615 279.2631 286.3252 290.27046 297.23429 304.2964 308.9717 315.93556 322.89939 329.9615 334.0331 340.99696 344.94218 351.0636 358.1257 364.24714 369.7508 373.69606 380.75816 386.9919 393.95576 397.8027 404.8648 411.09858 415.1702 425.85466">mavjud. Masalan, biror bir yangilik guruhu biznes haqida ma</tspan></text>
</g>
<clipPath id="cp30441">
<path transform="matrix(1,0,0,-1,0,841.92)" d="M .000008871 0 L 595.32 0 L 595.32 841.92 L .000008871 841.92 Z " fill-rule="evenodd"/>
</clipPath>
<g clip-path="url(#cp30441)">
<text xml:space="preserve" transform="matrix(1 0 -0 1 0 841.92)" font-size="14.04" font-family="Times New Roman"><tspan y="-700.06" x="432.55">&#x2019;</tspan></text>
</g>
<clipPath id="cp30442">
<path transform="matrix(1,0,0,-1,0,841.92)" d="M .000008871 0 L 595.32 0 L 595.32 841.92 L .000008871 841.92 Z " fill-rule="evenodd"/>
</clipPath>
<g clip-path="url(#cp30442)">
<text xml:space="preserve" transform="matrix(1 0 -0 1 0 841.92)" font-size="14.04" font-family="Times New Roman"><tspan y="-700.06" x="437.11 441.18159 448.24369 458.92814 465.99024 469.93547 474.00709 481.06919 487.30296 491.86595 497.3696 503.60337 507.11338 511.03056 518.09268 525.0565 530.4619 537.52407 544.4879 550.7217 556.0148 559.86178">lumot bersa, boshqasi </tspan></text>
</g>
<clipPath id="cp30443">
<path transform="matrix(1,0,0,-1,0,841.92)" d="M .000008871 0 L 595.32 0 L 595.32 841.92 L .000008871 841.92 Z " fill-rule="evenodd"/>
</clipPath>
<g clip-path="url(#cp30443)">
</g>
<clipPath id="cp30444">
<path transform="matrix(1,0,0,-1,0,841.92)" d="M .000008871 0 L 595.32 0 L 595.32 841.92 L .000008871 841.92 Z " fill-rule="evenodd"/>
</clipPath>
<g clip-path="url(#cp30444)">
<text xml:space="preserve" transform="matrix(1 0 -0 1 0 841.92)" font-size="14.04" font-family="Times New Roman"><tspan y="-675.94" x="85.104 90.60768 96.84144 101.40444 108.46656 112.31352 117.81721 121.32721 127.56097 131.37984 138.34368 145.40579 151.52724 155.47248 161.70624 166.38156 170.34085 173.69641 180.75853 186.87998 193.9421 197.78905 204.75289 210.98665 214.58089 225.26534">servis aloqalari haqida ma</tspan></text>
</g>
<clipPath id="cp30445">
<path transform="matrix(1,0,0,-1,0,841.92)" d="M .000008871 0 L 595.32 0 L 595.32 841.92 L .000008871 841.92 Z " fill-rule="evenodd"/>
</clipPath>
<g clip-path="url(#cp30445)">
<text xml:space="preserve" transform="matrix(1 0 -0 1 0 841.92)" font-size="14.04" font-family="Times New Roman"><tspan y="-675.94" x="231.65">&#x2019;</tspan></text>
</g>
<clipPath id="cp30446">
<path transform="matrix(1,0,0,-1,0,841.92)" d="M .000008871 0 L 595.32 0 L 595.32 841.92 L .000008871 841.92 Z " fill-rule="evenodd"/>
</clipPath>
<g clip-path="url(#cp30446)">
<text xml:space="preserve" transform="matrix(1 0 -0 1 0 841.92)" font-size="14.04" font-family="Times New Roman"><tspan y="-675.94" x="236.21 240.15525 247.34374 258.02818 265.09028 269.0355 272.5455 279.5655 285.79927 290.47459 296.63816 303.602 307.5472 311.05723">lumot beradi. </tspan></text>
</g>
<clipPath id="cp30447">
<path transform="matrix(1,0,0,-1,0,841.92)" d="M .000008871 0 L 595.32 0 L 595.32 841.92 L .000008871 841.92 Z " fill-rule="evenodd"/>
</clipPath>
<g clip-path="url(#cp30447)">
<text xml:space="preserve" transform="matrix(1 0 -0 1 0 841.92)" font-size="14.04" font-family="Times New Roman"><tspan y="-675.94" x="314.57"> </tspan></text>
</g>
<clipPath id="cp30448">
<path transform="matrix(1,0,0,-1,0,841.92)" d="M .000008871 0 L 595.32 0 L 595.32 841.92 L .000008871 841.92 Z " fill-rule="evenodd"/>
</clipPath>
<g clip-path="url(#cp30448)">
</g>
</g>
<g id="Layer-1" data-name="P">
<clipPath id="cp30449">
<path transform="matrix(1,0,0,-1,0,841.92)" d="M .000008871 0 L 595.32 0 L 595.32 841.92 L .000008871 841.92 Z " fill-rule="evenodd"/>
</clipPath>
<g clip-path="url(#cp30449)">
<text xml:space="preserve" transform="matrix(1 0 -0 1 0 841.92)" font-size="14.04" font-family="Times New Roman,BoldItalic" font-weight="bold" font-style="italic"><tspan y="-651.34" x="113.42 122.784679 131.30695">FTP</tspan></text>
</g>
<clipPath id="cp30450">
<path transform="matrix(1,0,0,-1,0,841.92)" d="M .000008871 0 L 595.32 0 L 595.32 841.92 L .000008871 841.92 Z " fill-rule="evenodd"/>
</clipPath>
<g clip-path="url(#cp30450)">
<text xml:space="preserve" transform="matrix(1 0 -0 1 0 841.92)" font-size="14.04" font-family="Times New Roman,BoldItalic" font-weight="bold" font-style="italic"><tspan y="-651.34" x="139.82"> </tspan></text>
</g>
<clipPath id="cp30451">
<path transform="matrix(1,0,0,-1,0,841.92)" d="M .000008871 0 L 595.32 0 L 595.32 841.92 L .000008871 841.92 Z " fill-rule="evenodd"/>
</clipPath>
<g clip-path="url(#cp30451)">
</g>
</g>
<g id="Layer-1" data-name="P">
<clipPath id="cp30452">
<path transform="matrix(1,0,0,-1,0,841.92)" d="M .000008871 0 L 595.32 0 L 595.32 841.92 L .000008871 841.92 Z " fill-rule="evenodd"/>
</clipPath>
<g clip-path="url(#cp30452)">
<text xml:space="preserve" transform="matrix(1 0 -0 1 0 841.92)" font-size="14.04" font-family="Times New Roman"><tspan y="-627.58" x="113.42 121.22624 129.73448 137.54073 142.44068 147.116 154.92224 158.86748 162.81272 169.04648 173.96048 182.48276 187.15808 193.27953 200.34165 205.74704 210.42237 216.65613 221.33145 226.25949 233.93938 238.6147 244.84847 248.80776 255.04152 261.16294 268.12678 272.072 276.7473 281.66133 288.62516">FTP (File Transfer Pratacol) bu</tspan></text>
</g>
<clipPath id="cp30453">
<path transform="matrix(1,0,0,-1,0,841.92)" d="M .000008871 0 L 595.32 0 L 595.32 841.92 L .000008871 841.92 Z " fill-rule="evenodd"/>
</clipPath>
<g clip-path="url(#cp30453)">
<text xml:space="preserve" transform="matrix(1 0 -0 1 0 841.92)" font-size="14.04" font-family="Times New Roman"><tspan y="-627.58" x="295.85"> </tspan></text>
</g>
<clipPath id="cp30454">
<path transform="matrix(1,0,0,-1,0,841.92)" d="M .000008871 0 L 595.32 0 L 595.32 841.92 L .000008871 841.92 Z " fill-rule="evenodd"/>
</clipPath>
<g clip-path="url(#cp30454)">
<text xml:space="preserve" transform="matrix(1 0 -0 1 0 841.92)" font-size="14.04" font-family="Times New Roman"><tspan y="-627.58" x="300.77 305.4453 311.67909 318.53059 322.4758 326.42103 332.6548 337.21778 344.27989 348.2251 353.01277 360.07487 367.0387 372.4441 379.5062 386.5683 392.68974 396.63496 402.8687 407.4317 414.4938 420.72758 425.51524 429.46046 436.4243 440.3695 446.60328 451.16627 458.22837 464.3498 468.295 473.19499 480.25709 484.9324 491.89625 498.13 501.97697 505.92219 510.82215 517.65969 524.7218 531.78396 538.84609 543.40908 547.25607 552.66146 559.6253">fayllarni boshqalarga internet orqali yuborish </tspan></text>
</g>
<clipPath id="cp30455">
<path transform="matrix(1,0,0,-1,0,841.92)" d="M .000008871 0 L 595.32 0 L 595.32 841.92 L .000008871 841.92 Z " fill-rule="evenodd"/>
</clipPath>
<g clip-path="url(#cp30455)">
</g>
<clipPath id="cp30456">
<path transform="matrix(1,0,0,-1,0,841.92)" d="M .000008871 0 L 595.32 0 L 595.32 841.92 L .000008871 841.92 Z " fill-rule="evenodd"/>
</clipPath>
<g clip-path="url(#cp30456)">
<text xml:space="preserve" transform="matrix(1 0 -0 1 0 841.92)" font-size="14.04" font-family="Times New Roman"><tspan y="-603.46" x="85.104 89.04924 99.73368 106.7958 113.85792 120.92004 124.86528 131.70276 137.93653 141.88176 145.72872 152.69255 156.63779 161.31311 164.8231 169.82134 177.62758 183.86135 190.69882 194.64406 198.5893 204.71074 209.38607 214.41239 222.21863 230.72687 238.53311 243.55944 249.06311 255.29688 259.85987 266.92198 273.15574 277.83106 282.74507 289.80717 295.9286 302.9907 308.01704 314.98088 321.9447 332.62916 336.57438 342.80815 349.88429 356.94639 363.18016 370.2563 375.15626 380.6599 386.89369 391.45668 398.51878 404.75254 409.31553 416.37763 422.6114 427.63774 431.48469 438.44853 445.28599 449.2312 455.46498 462.5411 468.77488 475.7387 479.68394 484.71028 491.6741 497.90788 502.9342 509.9963 514.5593 521.5232 528.5853 534.089 540.21047 544.88577 548.831 554.95248 559.38906">imkoniyatidir. Fayllar FTP server deb nomlangan serverga joylanadi va brouserlar </tspan></text>
</g>
<clipPath id="cp30457">
<path transform="matrix(1,0,0,-1,0,841.92)" d="M .000008871 0 L 595.32 0 L 595.32 841.92 L .000008871 841.92 Z " fill-rule="evenodd"/>
</clipPath>
<g clip-path="url(#cp30457)">
</g>
<clipPath id="cp30458">
<path transform="matrix(1,0,0,-1,0,841.92)" d="M .000008871 0 L 595.32 0 L 595.32 841.92 L .000008871 841.92 Z " fill-rule="evenodd"/>
</clipPath>
<g clip-path="url(#cp30458)">
<text xml:space="preserve" transform="matrix(1 0 -0 1 0 841.92)" font-size="14.04" font-family="Times New Roman"><tspan y="-579.34" x="85.104 92.91024 101.41848 109.224727 116.63785 122.14153 128.37529 133.05062 140.0285 146.26227 150.93759 154.78455 161.84667 167.96811 175.03023 182.45738 187.1327 193.36647 200.21799 204.16323 208.10846 214.34223 218.90523 225.96735 229.91259 237.33974 244.17722 251.23934 258.2032 265.2653 269.9406 273.78758 277.7328 281.57975 286.98515 294.04725 297.99247 305.29328 312.35539 318.58915 323.15214 329.3859 336.46205 343.88923 350.85307">FTP serveridan fayllarni yuborilishi kerak bo</tspan></text>
</g>
<clipPath id="cp30459">
<path transform="matrix(1,0,0,-1,0,841.92)" d="M .000008871 0 L 595.32 0 L 595.32 841.92 L .000008871 841.92 Z " fill-rule="evenodd"/>
</clipPath>
<g clip-path="url(#cp30459)">
<text xml:space="preserve" transform="matrix(1 0 -0 1 0 841.92)" font-size="14.04" font-family="Times New Roman"><tspan y="-579.34" x="358.27">&#x2019;</tspan></text>
</g>
<clipPath id="cp30460">
<path transform="matrix(1,0,0,-1,0,841.92)" d="M .000008871 0 L 595.32 0 L 595.32 841.92 L .000008871 841.92 Z " fill-rule="evenodd"/>
</clipPath>
<g clip-path="url(#cp30460)">
<text xml:space="preserve" transform="matrix(1 0 -0 1 0 841.92)" font-size="14.04" font-family="Times New Roman"><tspan y="-579.34" x="362.83 366.7752 373.73905 379.9728 387.04896 394.34977 401.41188 408.47398 419.15843 426.22053 433.05799 440.1201 444.0653 450.29908 454.9744 458.93367 465.16743 469.7304 476.7925 483.02629 490.45344 497.2909 504.353 511.31684 518.37899 523.05429 526.90127 532.30667 539.3688 545.60256 552.5664 556.4134 559.769">lgan kompyuterlarga yuborishadi, </tspan></text>
</g>
<clipPath id="cp30461">
<path transform="matrix(1,0,0,-1,0,841.92)" d="M .000008871 0 L 595.32 0 L 595.32 841.92 L .000008871 841.92 Z " fill-rule="evenodd"/>
</clipPath>
<g clip-path="url(#cp30461)">
</g>
<clipPath id="cp30462">
<path transform="matrix(1,0,0,-1,0,841.92)" d="M .000008871 0 L 595.32 0 L 595.32 841.92 L .000008871 841.92 Z " fill-rule="evenodd"/>
</clipPath>
<g clip-path="url(#cp30462)">
<text xml:space="preserve" transform="matrix(1 0 -0 1 0 841.92)" font-size="14.04" font-family="Times New Roman"><tspan y="-555.07" x="85.104 91.45007 102.24683 112.931278 119.99339 123.503398 130.52339 137.6136 141.1236 145.79892 152.03269 158.85613 162.80136 166.7466 172.98036 177.65569 181.16568 187.98912 195.05124 202.01508 209.0772 213.75252 217.59947 221.44643 225.39167 230.79706 237.85918 241.70613 248.66997 252.6152 259.57905 266.64115 270.15116 273.956 280.91984 287.98194 294.2157 297.7257 303.10304 309.3368 316.30064 320.14759 327.2097 330.7197 337.65547 343.15913 350.12297 353.9699">ammo bu fayllar yuborilishining juda sekin usuli</tspan></text>
</g>
<clipPath id="cp30463">
<path transform="matrix(1,0,0,-1,0,841.92)" d="M .000008871 0 L 595.32 0 L 595.32 841.92 L .000008871 841.92 Z " fill-rule="evenodd"/>
</clipPath>
<g clip-path="url(#cp30463)">
<text xml:space="preserve" transform="matrix(1 0 -0 1 0 841.92)" font-size="14.04" font-family="Times New Roman"><tspan y="-555.07" x="358.15 361.63">. </tspan></text>
</g>
<clipPath id="cp30464">
<path transform="matrix(1,0,0,-1,0,841.92)" d="M .000008871 0 L 595.32 0 L 595.32 841.92 L .000008871 841.92 Z " fill-rule="evenodd"/>
</clipPath>
<g clip-path="url(#cp30464)">
<text xml:space="preserve" transform="matrix(1 0 -0 1 0 841.92)" font-size="14.04" font-family="Times New Roman"><tspan y="-555.07" x="365.11"> </tspan></text>
</g>
<clipPath id="cp30465">
<path transform="matrix(1,0,0,-1,0,841.92)" d="M .000008871 0 L 595.32 0 L 595.32 841.92 L .000008871 841.92 Z " fill-rule="evenodd"/>
</clipPath>
<g clip-path="url(#cp30465)">
</g>
</g>
<g id="Layer-1" data-name="P">
<clipPath id="cp30466">
<path transform="matrix(1,0,0,-1,0,841.92)" d="M .000008871 0 L 595.32 0 L 595.32 841.92 L .000008871 841.92 Z " fill-rule="evenodd"/>
</clipPath>
<g clip-path="url(#cp30466)">
<text xml:space="preserve" transform="matrix(1 0 -0 1 0 841.92)" font-size="14.04" font-family="Times New Roman,BoldItalic" font-weight="bold" font-style="italic"><tspan y="-530.59" x="113.42 125.90156 133.7078 137.54071 144.60283 151.56667 158.5305 162.47574 165.98574 172.9215 176.86673 180.71369 184.65892 190.1626">Muloqot qilish</tspan></text>
</g>
<clipPath id="cp30467">
<path transform="matrix(1,0,0,-1,0,841.92)" d="M .000008871 0 L 595.32 0 L 595.32 841.92 L .000008871 841.92 Z " fill-rule="evenodd"/>
</clipPath>
<g clip-path="url(#cp30467)">
<text xml:space="preserve" transform="matrix(1 0 -0 1 0 841.92)" font-size="14.04" font-family="Times New Roman,BoldItalic" font-weight="bold" font-style="italic"><tspan y="-530.59" x="197.93"> </tspan></text>
</g>
<clipPath id="cp30468">
<path transform="matrix(1,0,0,-1,0,841.92)" d="M .000008871 0 L 595.32 0 L 595.32 841.92 L .000008871 841.92 Z " fill-rule="evenodd"/>
</clipPath>
<g clip-path="url(#cp30468)">
</g>
</g>
<g id="Layer-1" data-name="P">
<clipPath id="cp30469">
<path transform="matrix(1,0,0,-1,0,841.92)" d="M .000008871 0 L 595.32 0 L 595.32 841.92 L .000008871 841.92 Z " fill-rule="evenodd"/>
</clipPath>
<g clip-path="url(#cp30469)">
<text xml:space="preserve" transform="matrix(1 0 -0 1 0 841.92)" font-size="14.04" font-family="Times New Roman"><tspan y="-506.83" x="113.42 118.09532 125.17148 129.01844 135.2522 139.92752 146.90541 153.13918 157.08441 163.06545">Internet o</tspan></text>
</g>
<clipPath id="cp30470">
<path transform="matrix(1,0,0,-1,0,841.92)" d="M .000008871 0 L 595.32 0 L 595.32 841.92 L .000008871 841.92 Z " fill-rule="evenodd"/>
</clipPath>
<g clip-path="url(#cp30470)">
<text xml:space="preserve" transform="matrix(1 0 -0 1 0 841.92)" font-size="14.04" font-family="Times New Roman"><tspan y="-506.83" x="170.18">&#x2019;</tspan></text>
</g>
<clipPath id="cp30471">
<path transform="matrix(1,0,0,-1,0,841.92)" d="M .000008871 0 L 595.32 0 L 595.32 841.92 L .000008871 841.92 Z " fill-rule="evenodd"/>
</clipPath>
<g clip-path="url(#cp30471)">
<text xml:space="preserve" transform="matrix(1 0 -0 1 0 841.92)" font-size="14.04" font-family="Times New Roman"><tspan y="-506.83" x="174.74 180.97377 187.08116 191.75649 198.83266 205.67014 212.73226 218.96602 222.91126 229.14502 236.10886 243.17098 250.13481 256.36857 263.3324 267.27763 271.12458 277.35835 282.03367 285.8806 292.94273 299.17649 305.17158 312.23368 319.1975 323.14274 329.3765 336.228 343.2901 349.39753 353.24449 359.47825 364.15357 370.38734 377.46348 383.69725 389.69233 396.75444 403.71827 410.78038 417.61784 424.67994 430.78736 437.84947">z foydalanuvchilariga onlayn tarzda dunyo bo</tspan></text>
</g>
<clipPath id="cp30472">
<path transform="matrix(1,0,0,-1,0,841.92)" d="M .000008871 0 L 595.32 0 L 595.32 841.92 L .000008871 841.92 Z " fill-rule="evenodd"/>
</clipPath>
<g clip-path="url(#cp30472)">
<text xml:space="preserve" transform="matrix(1 0 -0 1 0 841.92)" font-size="14.04" font-family="Times New Roman"><tspan y="-506.83" x="445.3">&#x2019;</tspan></text>
</g>
<clipPath id="cp30473">
<path transform="matrix(1,0,0,-1,0,841.92)" d="M .000008871 0 L 595.32 0 L 595.32 841.92 L .000008871 841.92 Z " fill-rule="evenodd"/>
</clipPath>
<g clip-path="url(#cp30473)">
<text xml:space="preserve" transform="matrix(1 0 -0 1 0 841.92)" font-size="14.04" font-family="Times New Roman"><tspan y="-506.83" x="449.86 456.69746 460.64268 466.87644 473.84028 479.9477 487.0098 494.0719 500.30567 510.9901 514.93539 521.1691 525.8444 531.9659 539.028 542.875 546.82028 552.9417 559.9056">ylab odamlar bilan </tspan></text>
</g>
<clipPath id="cp30474">
<path transform="matrix(1,0,0,-1,0,841.92)" d="M .000008871 0 L 595.32 0 L 595.32 841.92 L .000008871 841.92 Z " fill-rule="evenodd"/>
</clipPath>
<g clip-path="url(#cp30474)">
</g>
<clipPath id="cp30475">
<path transform="matrix(1,0,0,-1,0,841.92)" d="M .000008871 0 L 595.32 0 L 595.32 841.92 L .000008871 841.92 Z " fill-rule="evenodd"/>
</clipPath>
<g clip-path="url(#cp30475)">
<text xml:space="preserve" transform="matrix(1 0 -0 1 0 841.92)" font-size="14.04" font-family="Times New Roman"><tspan y="-482.71" x="85.104 95.78844 102.850559 106.7958 113.85792 120.92004 127.88387 131.8291 135.53566 142.59778 146.44474 150.38997 154.23693 159.64232 166.70444 170.53736 174.48259 185.16704 192.22916 199.29128 206.25511 210.20035 217.03783 223.27159 227.21683 231.16207 238.1259 242.07114 245.90406 252.86789 259.10166 263.77699 269.91249 276.97459 280.9198 284.4298 288.2206 300.70219 308.50843 318.5751 322.28169 334.76325 340.997 346.4024 351.90608 358.0275 365.0896 372.1517 378.27314 382.94847 386.45848 390.2633 400.34403 406.5778 413.54164 420.60374 427.66584 431.49876 443.85395 450.0877 455.6054 461.0108 467.24458 474.2084 481.2705 487.50428 492.1796 495.6896 499.49446 504.16978 513.5344 523.6152 527.1252 530.916 540.99679 551.0775 559.47348">muloqot qilish imkoniyatini beradi. MSN Messenger, Yahoo Messenger, ICQ, AOL </tspan></text>
</g>
<clipPath id="cp30476">
<path transform="matrix(1,0,0,-1,0,841.92)" d="M .000008871 0 L 595.32 0 L 595.32 841.92 L .000008871 841.92 Z " fill-rule="evenodd"/>
</clipPath>
<g clip-path="url(#cp30476)">
</g>
<clipPath id="cp30477">
<path transform="matrix(1,0,0,-1,0,841.92)" d="M .000008871 0 L 595.32 0 L 595.32 841.92 L .000008871 841.92 Z " fill-rule="evenodd"/>
</clipPath>
<g clip-path="url(#cp30477)">
<text xml:space="preserve" transform="matrix(1 0 -0 1 0 841.92)" font-size="14.04" font-family="Times New Roman"><tspan y="-458.47" x="85.104 92.166118 98.39987 103.42619 110.39003 117.45215 122.85755 129.82138 136.8835 143.11727 148.14359 152.08882 159.05266 163.72798 167.57494 171.52017 176.5465 183.51033 187.45557 191.4008 196.42713 203.39096 209.62473 215.14246 218.98941 226.05153 230.61454 234.55977 240.79354 245.46886 250.50922 254.35617 261.41828 265.26524 271.499 276.17433 283.1522 289.38597 293.2329 300.295 306.52879 311.5551 322.35188 329.41398 333.26094 340.22477 347.28688 354.2507 358.19593 363.22227 370.1861 374.13133 377.97828 381.9235 387.3289 394.391 399.41734 406.47944 412.60087 419.5647 426.6268 433.6889 438.58888 449.38563 455.6194 462.69554 466.54249 473.60459 480.6667 484.1767 489.17497 498.53965 505.60176 510.62809 517.6902 523.81167 529.21707 533.1623 540.2244 544.7874 548.73269 554.96646 559.41708">va boshqa turli xil dasturlar internetda muloqot qilish uchun mavjud. Bu dasturlar </tspan></text>
</g>
<clipPath id="cp30478">
<path transform="matrix(1,0,0,-1,0,841.92)" d="M .000008871 0 L 595.32 0 L 595.32 841.92 L .000008871 841.92 Z " fill-rule="evenodd"/>
</clipPath>
<g clip-path="url(#cp30478)">
</g>
<clipPath id="cp30479">
<path transform="matrix(1,0,0,-1,0,841.92)" d="M .000008871 0 L 595.32 0 L 595.32 841.92 L .000008871 841.92 Z " fill-rule="evenodd"/>
</clipPath>
<g clip-path="url(#cp30479)">
<text xml:space="preserve" transform="matrix(1 0 -0 1 0 841.92)" font-size="14.04" font-family="Times New Roman"><tspan y="-434.35" x="85.104 89.04924 96.01308">int</tspan></text>
</g>
<clipPath id="cp30480">
<path transform="matrix(1,0,0,-1,0,841.92)" d="M .000008871 0 L 595.32 0 L 595.32 841.92 L .000008871 841.92 Z " fill-rule="evenodd"/>
</clipPath>
<g clip-path="url(#cp30480)">
<text xml:space="preserve" transform="matrix(1 0 -0 1 0 841.92)" font-size="14.04" font-family="Times New Roman"><tspan y="-434.35" x="99.984 106.21776 110.78076 117.84288 123.96432 127.90956 134.8734 141.10717 147.57959 154.54343 158.48867 169.17311 175.64554 182.70766 189.76978 193.61673 199.8505 206.81433 213.87645 217.7234 221.66864 228.63248 232.57772 238.92378 245.9859 252.21967 258.6921 265.52958 272.59169 278.82545 282.6724 288.0778 295.1399 305.82435 312.0581 316.00334 322.2371 326.9124 333.38487 340.22233 347.28443 353.5182 357.4634 362.8688 369.9309 376.993 383.11445 389.58689 396.42436 403.48646 410.54856 414.49378 420.83988 427.07365 430.9206 437.88444 444.94654 448.7935 455.8556 462.08937 468.43547 473.93913 480.90296 487.8668 494.9289 501.16267 505.0096 511.48207 518.4459 525.50808 530.07107 534.0163 539.4217 546.38558 553.3494 559.4709">ernetda kim onlaynligi va yozishmalar yozishga yoki alohida suhbat qurishga </tspan></text>
</g>
<clipPath id="cp30481">
<path transform="matrix(1,0,0,-1,0,841.92)" d="M .000008871 0 L 595.32 0 L 595.32 841.92 L .000008871 841.92 Z " fill-rule="evenodd"/>
</clipPath>
<g clip-path="url(#cp30481)">
</g>
<clipPath id="cp30482">
<path transform="matrix(1,0,0,-1,0,841.92)" d="M .000008871 0 L 595.32 0 L 595.32 841.92 L .000008871 841.92 Z " fill-rule="evenodd"/>
</clipPath>
<g clip-path="url(#cp30482)">
<text xml:space="preserve" transform="matrix(1 0 -0 1 0 841.92)" font-size="14.04" font-family="Times New Roman"><tspan y="-410.23" x="85.104 89.04924 99.73368 106.7958 113.85792 120.92004 124.86528 131.70276 137.93653 141.88176 147.8628 154.70027 160.93404 165.60936 171.84313 175.80242 182.03618 189.00002 192.94525 196.45525 202.29589 211.66057 218.72269 224.84413 228.78937 234.7704 239.44573 246.40956 253.47168 264.15614 268.10136 274.3351 279.01045 285.00553 289.68086 296.757 303.59446 310.65657 316.89033 320.73728 326.97105 333.93489 340.99699 348.05909 354.1805 361.14436 365.08958 369.0348 375.15623 379.83155 386.90769 393.14146 399.0102 405.97404 413.03614 416.98136 423.21513 430.06663 437.12873 443.10978 448.61344 455.57728 462.5411 469.6032 475.83699 479.68394 483.62916 489.8629 494.53825 500.42103 507.48313 514.3206 518.26589 523.76956 530.7334 534.67868 538.52566 543.2009 547.0479 552.4533 559.4172">imkoniyat yaratadi. Chat roomlar foydalanuvchilarga onlayn suhbatlar uyishtirish </tspan></text>
</g>
<clipPath id="cp30483">
<path transform="matrix(1,0,0,-1,0,841.92)" d="M .000008871 0 L 595.32 0 L 595.32 841.92 L .000008871 841.92 Z " fill-rule="evenodd"/>
</clipPath>
<g clip-path="url(#cp30483)">
</g>
<clipPath id="cp30484">
<path transform="matrix(1,0,0,-1,0,841.92)" d="M .000008871 0 L 595.32 0 L 595.32 841.92 L .000008871 841.92 Z " fill-rule="evenodd"/>
</clipPath>
<g clip-path="url(#cp30484)">
<text xml:space="preserve" transform="matrix(1 0 -0 1 0 841.92)" font-size="14.04" font-family="Times New Roman"><tspan y="-386.09" x="85.104 89.04924 99.73368 106.7958 113.85792 120.92004 124.86528 131.70276 137.93653 141.88176 145.72872 152.69255 156.63779 163.3489 170.41103 176.64479 181.2078 187.44156 194.4054 198.35063 201.70619 208.41732 217.782 224.84412 231.07788 235.02312 241.73424 246.29724 253.35936 260.42149 271.10594 277.81706 284.87916 291.94126 298.65238 305.6162 312.6783 318.0837 325.1458 332.10966 338.3434 342.28865 348.5224 353.19773 359.79655 366.85865 370.7056 374.65083 380.77226 387.83436 394.54548 405.22993 412.29203 416.23725 423.29936 430.26319 437.22703 441.17225 447.88337">imkoniyatini beradi. Chat room bu boshqalar bilan muloqot o</tspan></text>
</g>
<clipPath id="cp30485">
<path transform="matrix(1,0,0,-1,0,841.92)" d="M .000008871 0 L 595.32 0 L 595.32 841.92 L .000008871 841.92 Z " fill-rule="evenodd"/>
</clipPath>
<g clip-path="url(#cp30485)">
<text xml:space="preserve" transform="matrix(1 0 -0 1 0 841.92)" font-size="14.04" font-family="Times New Roman"><tspan y="-386.09" x="455.5">&#x2019;</tspan></text>
</g>
<clipPath id="cp30486">
<path transform="matrix(1,0,0,-1,0,841.92)" d="M .000008871 0 L 595.32 0 L 595.32 841.92 L .000008871 841.92 Z " fill-rule="evenodd"/>
</clipPath>
<g clip-path="url(#cp30486)">
<text xml:space="preserve" transform="matrix(1 0 -0 1 0 841.92)" font-size="14.04" font-family="Times New Roman"><tspan y="-386.09" x="460.06 464.73533 471.81147 477.9329 481.8781 487.38179 493.61555 500.21437 507.27647">rnatsa bo</tspan></text>
</g>
<clipPath id="cp30487">
<path transform="matrix(1,0,0,-1,0,841.92)" d="M .000008871 0 L 595.32 0 L 595.32 841.92 L .000008871 841.92 Z " fill-rule="evenodd"/>
</clipPath>
<g clip-path="url(#cp30487)">
<text xml:space="preserve" transform="matrix(1 0 -0 1 0 841.92)" font-size="14.04" font-family="Times New Roman"><tspan y="-386.09" x="514.42">&#x2019;</tspan></text>
</g>
<clipPath id="cp30488">
<path transform="matrix(1,0,0,-1,0,841.92)" d="M .000008871 0 L 595.32 0 L 595.32 841.92 L .000008871 841.92 Z " fill-rule="evenodd"/>
</clipPath>
<g clip-path="url(#cp30488)">
<text xml:space="preserve" transform="matrix(1 0 -0 1 0 841.92)" font-size="14.04" font-family="Times New Roman"><tspan y="-386.09" x="518.98 522.92526 529.0467 536.01058 539.9558 546.9197 553.15347 560.005">ladigan </tspan></text>
</g>
<clipPath id="cp30489">
<path transform="matrix(1,0,0,-1,0,841.92)" d="M .000008871 0 L 595.32 0 L 595.32 841.92 L .000008871 841.92 Z " fill-rule="evenodd"/>
</clipPath>
<g clip-path="url(#cp30489)">
</g>
<clipPath id="cp30490">
<path transform="matrix(1,0,0,-1,0,841.92)" d="M .000008871 0 L 595.32 0 L 595.32 841.92 L .000008871 841.92 Z " fill-rule="evenodd"/>
</clipPath>
<g clip-path="url(#cp30490)">
<text xml:space="preserve" transform="matrix(1 0 -0 1 0 841.92)" font-size="14.04" font-family="Times New Roman"><tspan y="-361.97" x="85.104 89.04924 95.283 99.95832 110.64276 117.70488 124.767 131.82912 137.95056 144.9144 148.85964 152.36963 159.30539 166.36751 173.33135 180.29518 187.3573 190.8673">tarmoqdagi hudud. </tspan></text>
</g>
<clipPath id="cp30491">
<path transform="matrix(1,0,0,-1,0,841.92)" d="M .000008871 0 L 595.32 0 L 595.32 841.92 L .000008871 841.92 Z " fill-rule="evenodd"/>
</clipPath>
<g clip-path="url(#cp30491)">
<text xml:space="preserve" transform="matrix(1 0 -0 1 0 841.92)" font-size="14.04" font-family="Times New Roman"><tspan y="-361.97" x="194.45"> </tspan></text>
</g>
<clipPath id="cp30492">
<path transform="matrix(1,0,0,-1,0,841.92)" d="M .000008871 0 L 595.32 0 L 595.32 841.92 L .000008871 841.92 Z " fill-rule="evenodd"/>
</clipPath>
<g clip-path="url(#cp30492)">
</g>
</g>
<g id="Layer-1" data-name="P">
<clipPath id="cp30493">
<path transform="matrix(1,0,0,-1,0,841.92)" d="M .000008871 0 L 595.32 0 L 595.32 841.92 L .000008871 841.92 Z " fill-rule="evenodd"/>
</clipPath>
<g clip-path="url(#cp30493)">
<text xml:space="preserve" transform="matrix(1 0 -0 1 0 841.92)" font-size="14.04" font-family="Times New Roman,BoldItalic" font-weight="bold" font-style="italic"><tspan y="-337.37" x="113.42 122.78">El</tspan></text>
</g>
<clipPath id="cp30494">
<path transform="matrix(1,0,0,-1,0,841.92)" d="M .000008871 0 L 595.32 0 L 595.32 841.92 L .000008871 841.92 Z " fill-rule="evenodd"/>
</clipPath>
<g clip-path="url(#cp30494)">
<text xml:space="preserve" transform="matrix(1 0 -0 1 0 841.92)" font-size="14.04" font-family="Times New Roman,BoldItalic" font-weight="bold" font-style="italic"><tspan y="-337.37" x="126.74 132.86144 139.92356 143.77051 149.27419 156.23802 164.04427 167.55426 172.91754 179.97966 186.1011 193.16323 200.12706 204.0723 211.03614">ektron savdolar</tspan></text>
</g>
<clipPath id="cp30495">
<path transform="matrix(1,0,0,-1,0,841.92)" d="M .000008871 0 L 595.32 0 L 595.32 841.92 L .000008871 841.92 Z " fill-rule="evenodd"/>
</clipPath>
<g clip-path="url(#cp30495)">
<text xml:space="preserve" transform="matrix(1 0 -0 1 0 841.92)" font-size="14.04" font-family="Times New Roman,BoldItalic" font-weight="bold" font-style="italic"><tspan y="-337.37" x="216.53"> </tspan></text>
</g>
<clipPath id="cp30496">
<path transform="matrix(1,0,0,-1,0,841.92)" d="M .000008871 0 L 595.32 0 L 595.32 841.92 L .000008871 841.92 Z " fill-rule="evenodd"/>
</clipPath>
<g clip-path="url(#cp30496)">
</g>
</g>
<g id="Layer-1" data-name="P">
<clipPath id="cp30497">
<path transform="matrix(1,0,0,-1,0,841.92)" d="M .000008871 0 L 595.32 0 L 595.32 841.92 L .000008871 841.92 Z " fill-rule="evenodd"/>
</clipPath>
<g clip-path="url(#cp30497)">
<text xml:space="preserve" transform="matrix(1 0 -0 1 0 841.92)" font-size="14.04" font-family="Times New Roman"><tspan y="-313.61" x="113.42 121.942279 125.88752 132.12128 139.08512 143.03035 147.59336 154.65547 161.71759 168.19002 173.6937 179.81514 186.87726 193.8411 200.80493 204.75017 210.98394 215.65926 222.13169 226.07692 233.04076 236.986 243.21976 247.78276 254.84488 261.07865 264.9256 271.88945 275.83467 282.7985 289.8606 296.44538 302.5668 309.53065 316.59275 323.17753 333.86198 340.92408 347.98619 354.95 365.74678 372.33155 379.39366 383.33888 389.57264 400.25709 406.49085 410.43608 414.3813 420.61506 425.29039 429.13734 436.19944 442.32087 449.38298 455.8554 462.9175 466.86274 471.42573 475.27268 481.85746 488.91957">Elektron savdolar internetning eng muhum xizmatlaridan biri bo</tspan></text>
</g>
<clipPath id="cp30498">
<path transform="matrix(1,0,0,-1,0,841.92)" d="M .000008871 0 L 595.32 0 L 595.32 841.92 L .000008871 841.92 Z " fill-rule="evenodd"/>
</clipPath>
<g clip-path="url(#cp30498)">
<text xml:space="preserve" transform="matrix(1 0 -0 1 0 841.92)" font-size="14.04" font-family="Times New Roman"><tspan y="-313.61" x="496.54">&#x2019;</tspan></text>
</g>
<clipPath id="cp30499">
<path transform="matrix(1,0,0,-1,0,841.92)" d="M .000008871 0 L 595.32 0 L 595.32 841.92 L .000008871 841.92 Z " fill-rule="evenodd"/>
</clipPath>
<g clip-path="url(#cp30499)">
<text xml:space="preserve" transform="matrix(1 0 -0 1 0 841.92)" font-size="14.04" font-family="Times New Roman"><tspan y="-313.61" x="501.1 504.94697 508.89219 515.9543 519.4643 525.89468 532.8585 539.92068 546.8845 553.8484 559.96987">lib, bunda </tspan></text>
</g>
<clipPath id="cp30500">
<path transform="matrix(1,0,0,-1,0,841.92)" d="M .000008871 0 L 595.32 0 L 595.32 841.92 L .000008871 841.92 Z " fill-rule="evenodd"/>
</clipPath>
<g clip-path="url(#cp30500)">
</g>
<clipPath id="cp30501">
<path transform="matrix(1,0,0,-1,0,841.92)" d="M .000008871 0 L 595.32 0 L 595.32 841.92 L .000008871 841.92 Z " fill-rule="evenodd"/>
</clipPath>
<g clip-path="url(#cp30501)">
<text xml:space="preserve" transform="matrix(1 0 -0 1 0 841.92)" font-size="14.04" font-family="Times New Roman"><tspan y="-289.49" x="85.104 95.78844 102.850559 106.7958 110.74104 117.57852 123.81228 130.88845 134.83368 141.67116 151.61147 158.67359 165.7357 171.96947 176.64479 182.87856 186.73957 192.14496 196.0902 203.05403 209.2878 213.23303 219.4668 224.14212 233.98416 237.83112 244.89324 248.83847 255.07224 259.63523 266.69734 272.81877 276.76399 286.59199 293.65409 298.21708 305.27919 311.51295 315.3599 319.20686 329.1472 335.38096 346.0654 352.29917 356.2444 363.3065 369.54026 379.49464 386.45848 391.96214 398.92597 402.8712 407.43418 411.3794 415.32463 421.44606 428.40989 432.3551 435.71067 445.651 455.0157 462.0778 471.9058 478.9679 485.08934 489.03456 496.09666 502.21809 506.8934 513.96957 523.79757 530.7614 534.70669 540.8281 547.89028 554.0117 559.4171">moliyaviy operatsiyalar internet orqali amalga oshiriladi. Bu xalqaro biznes </tspan></text>
</g>
<clipPath id="cp30502">
<path transform="matrix(1,0,0,-1,0,841.92)" d="M .000008871 0 L 595.32 0 L 595.32 841.92 L .000008871 841.92 Z " fill-rule="evenodd"/>
</clipPath>
<g clip-path="url(#cp30502)">
</g>
<clipPath id="cp30503">
<path transform="matrix(1,0,0,-1,0,841.92)" d="M .000008871 0 L 595.32 0 L 595.32 841.92 L .000008871 841.92 Z " fill-rule="evenodd"/>
</clipPath>
<g clip-path="url(#cp30503)">
<text xml:space="preserve" transform="matrix(1 0 -0 1 0 841.92)" font-size="14.04" font-family="Times New Roman"><tspan y="-265.37" x="85.104 91.941478 99.00359 103.67892 107.62416 111.569408 115.41637 120.92005 127.88389 134.84772 138.79296 145.75679 152.81891 157.84523 163.96668 170.20044 180.88489 187.947 195.00913 201.24289 208.31906 212.2643 219.10178 224.1281 231.19022 236.59561 243.65773 247.50469 254.5668 259.46678 266.52888 270.37583 275.78123 282.84333 289.80717 293.75239 299.8738 306.9359 313.05735 320.02119 323.9664 327.4764 332.47468 342.5554 349.6175 355.85127 360.52659 365.44059 372.40443 376.34965 381.02497 387.9888 392.66413 397.69047 404.6543 408.59953 413.27485 418.18885 425.25096 429.0979 435.33168 442.2955 448.52928 454.04698 459.0733 463.74864 469.87007 476.93217 480.7791 484.72434 491.5618 497.79557 501.74079 506.76713 510.71235 516.8338 521.5091 532.1935 539.2556 546.31777 553.2816 559.4031">yuritishning zamonaviy usulu hisoblanadi. Agar biror bir biznes faoliyat tarmoqqa </tspan></text>
</g>
<clipPath id="cp30504">
<path transform="matrix(1,0,0,-1,0,841.92)" d="M .000008871 0 L 595.32 0 L 595.32 841.92 L .000008871 841.92 Z " fill-rule="evenodd"/>
</clipPath>
<g clip-path="url(#cp30504)">
</g>
<clipPath id="cp30505">
<path transform="matrix(1,0,0,-1,0,841.92)" d="M .000008871 0 L 595.32 0 L 595.32 841.92 L .000008871 841.92 Z " fill-rule="evenodd"/>
</clipPath>
<g clip-path="url(#cp30505)">
<text xml:space="preserve" transform="matrix(1 0 -0 1 0 841.92)" font-size="14.04" font-family="Times New Roman"><tspan y="-241.13" x="85.104 92.166118 96.11136 102.232799 109.19663 116.25875 122.38019">ulangan</tspan></text>
</g>
<clipPath id="cp30506">
<path transform="matrix(1,0,0,-1,0,841.92)" d="M .000008871 0 L 595.32 0 L 595.32 841.92 L .000008871 841.92 Z " fill-rule="evenodd"/>
</clipPath>
<g clip-path="url(#cp30506)">
<text xml:space="preserve" transform="matrix(1 0 -0 1 0 841.92)" font-size="14.04" font-family="Times New Roman"><tspan y="-241.13" x="129.5"> </tspan></text>
</g>
<clipPath id="cp30507">
<path transform="matrix(1,0,0,-1,0,841.92)" d="M .000008871 0 L 595.32 0 L 595.32 841.92 L .000008871 841.92 Z " fill-rule="evenodd"/>
</clipPath>
<g clip-path="url(#cp30507)">
<text xml:space="preserve" transform="matrix(1 0 -0 1 0 841.92)" font-size="14.04" font-family="Times New Roman"><tspan y="-241.13" x="134.9 141.96212 149.02423 159.70868 166.7708 173.60828 180.6704 184.61563 190.8494 195.52472 200.91608 207.9782 212.65352 219.61736 225.85112 229.69808 233.64331 239.03467 245.26844 255.95288 262.18666 266.13188 273.19398 279.42774 284.8191 291.8812 297.2866 304.3487 308.19566 312.87098 316.71794 320.56489 326.06855 332.3023 335.81233 341.1756 348.2377 355.2998 360.69117 364.53813 370.77189 375.4472 381.68098 388.53248 395.59458 402.65669 408.04804 415.01188 422.07398 428.1954 432.14064 439.10447 445.33824 450.72959 456.96336 460.90858 467.14234 473.3761 477.22306 481.89839 488.8622 495.92433 501.31568 506.81935 512.9408 519.90469 526.9668 534.02896 539.4203 546.38418 552.6179 559.4695">kompyuter orqali amalga oshirilsa, bu jarayon odatda electron savdo deb </tspan></text>
</g>
<clipPath id="cp30508">
<path transform="matrix(1,0,0,-1,0,841.92)" d="M .000008871 0 L 595.32 0 L 595.32 841.92 L .000008871 841.92 Z " fill-rule="evenodd"/>
</clipPath>
<g clip-path="url(#cp30508)">
</g>
<clipPath id="cp30509">
<path transform="matrix(1,0,0,-1,0,841.92)" d="M .000008871 0 L 595.32 0 L 595.32 841.92 L .000008871 841.92 Z " fill-rule="evenodd"/>
</clipPath>
<g clip-path="url(#cp30509)">
<text xml:space="preserve" transform="matrix(1 0 -0 1 0 841.92)" font-size="14.04" font-family="Times New Roman"><tspan y="-216.98" x="85.104 91.941478 99.00359 103.67892 107.62416 111.569408 115.41637 119.36161 125.48305 132.54517 136.4904 140.0004 144.39492 152.91719 156.86243 162.98387 170.04599 173.99123 178.55423 185.51807 192.58019 197.00278 202.40818 208.64194 215.60578 222.6679 229.73001 234.1526 241.21472 245.77773 252.83985 258.96128 262.9065 266.8517 271.16203 278.22413 285.18797 292.25007 299.08753 306.14964 313.21174 317.0587 324.02253 331.08464 335.50724 339.45246 344.85786 348.80308 354.9245 358.86973 365.83357 372.06733 379.14347 383.56608 390.40354 396.6373 401.31263 405.27189 412.33399 418.4554 425.51753 430.0665 440.86326 447.09703 454.17317 459.57856 466.5424 470.4876 477.45146 481.2984 485.24363 491.4774 496.1527 500.58937 505.99476 513.0569 516.9039 520.8491 527.91128 532.33389 539.2977 543.1447 547.08999 552.369 559.3329">yuritiladi. Elektron savdo orqali dunyoning istalgan yeridan maxsulotlar sotib olish </tspan></text>
</g>
<clipPath id="cp30510">
<path transform="matrix(1,0,0,-1,0,841.92)" d="M .000008871 0 L 595.32 0 L 595.32 841.92 L .000008871 841.92 Z " fill-rule="evenodd"/>
</clipPath>
<g clip-path="url(#cp30510)">
</g>
<clipPath id="cp30511">
<path transform="matrix(1,0,0,-1,0,841.92)" d="M .000008871 0 L 595.32 0 L 595.32 841.92 L .000008871 841.92 Z " fill-rule="evenodd"/>
</clipPath>
<g clip-path="url(#cp30511)">
<text xml:space="preserve" transform="matrix(1 0 -0 1 0 841.92)" font-size="14.04" font-family="Times New Roman"><tspan y="-192.86" x="85.104 92.166118 98.39987 106.06571 111.471118 118.53323 122.380199 126.32544 131.73084 138.79296 146.45879 150.40402 161.08847 168.15059 175.2127 182.17655 186.12178 192.95926 199.19303 203.13826 206.98522 214.7774 225.46186 231.69562 238.77179 242.61875 249.68087 256.74299 260.253 267.89076 277.97148 282.6468 288.88056 295.9567 299.80366 303.74888 311.41474 318.47685 324.7106 329.2736 333.2188 339.45259 343.29954 349.5333 354.20863 361.88853 368.95063 375.1844 385.86885 393.5347 397.47993">va sotish imkoniyati mavjud. Kredit kartalar ham to</tspan></text>
</g>
<clipPath id="cp30512">
<path transform="matrix(1,0,0,-1,0,841.92)" d="M .000008871 0 L 595.32 0 L 595.32 841.92 L .000008871 841.92 Z " fill-rule="evenodd"/>
</clipPath>
<g clip-path="url(#cp30512)">
<text xml:space="preserve" transform="matrix(1 0 -0 1 0 841.92)" font-size="14.04" font-family="Times New Roman"><tspan y="-192.86" x="404.95">&#x2019;</tspan></text>
</g>
<clipPath id="cp30513">
<path transform="matrix(1,0,0,-1,0,841.92)" d="M .000008871 0 L 595.32 0 L 595.32 841.92 L .000008871 841.92 Z " fill-rule="evenodd"/>
</clipPath>
<g clip-path="url(#cp30513)">
<text xml:space="preserve" transform="matrix(1 0 -0 1 0 841.92)" font-size="14.04" font-family="Times New Roman"><tspan y="-192.86" x="409.51 413.45524 420.51734 427.57945 435.2453 442.3074 448.42884 455.49095 462.45478 469.51689 477.18275 481.0297 486.53337 493.4972 497.4424 503.56385 507.50907 511.35603 515.3013 521.4227 528.48489 532.4301 535.9401 543.5779 552.8162 559.7801">lov uchun ishlatiladi. Bu </tspan></text>
</g>
<clipPath id="cp30514">
<path transform="matrix(1,0,0,-1,0,841.92)" d="M .000008871 0 L 595.32 0 L 595.32 841.92 L .000008871 841.92 Z " fill-rule="evenodd"/>
</clipPath>
<g clip-path="url(#cp30514)">
</g>
<clipPath id="cp30515">
<path transform="matrix(1,0,0,-1,0,841.92)" d="M .000008871 0 L 595.32 0 L 595.32 841.92 L .000008871 841.92 Z " fill-rule="evenodd"/>
</clipPath>
<g clip-path="url(#cp30515)">
<text xml:space="preserve" transform="matrix(1 0 -0 1 0 841.92)" font-size="14.04" font-family="Times New Roman"><tspan y="-168.74" x="85.104 90.60768 97.57152 104.535358 111.59747 118.65959 124.78103 131.84314 137.34682 144.40894 150.6427 154.48966 161.45349 165.39873 171.63249 175.47945 182.44329 186.38852 189.89852 195.50048">shundan dalolatki, e</tspan></text>
</g>
<clipPath id="cp30516">
<path transform="matrix(1,0,0,-1,0,841.92)" d="M .000008871 0 L 595.32 0 L 595.32 841.92 L .000008871 841.92 Z " fill-rule="evenodd"/>
</clipPath>
<g clip-path="url(#cp30516)">
<text xml:space="preserve" transform="matrix(1 0 -0 1 0 841.92)" font-size="14.04" font-family="Times New Roman"><tspan y="-168.74" x="201.89 205.73696 211.97072 218.20449 222.16378 226.72678 233.7889 240.85102 246.35469 251.85837 257.9798 265.0419 272.00575 279.06785 284.57154 291.63365 297.8674 301.71437 312.3988 316.34403 322.0864 329.1485 336.11235 343.17445 350.0119 357.074 362.70405 369.66789">lectron savdo hajmi dunyo bo</tspan></text>
</g>
<clipPath id="cp30517">
<path transform="matrix(1,0,0,-1,0,841.92)" d="M .000008871 0 L 595.32 0 L 595.32 841.92 L .000008871 841.92 Z " fill-rule="evenodd"/>
</clipPath>
<g clip-path="url(#cp30517)">
<text xml:space="preserve" transform="matrix(1 0 -0 1 0 841.92)" font-size="14.04" font-family="Times New Roman"><tspan y="-168.74" x="376.99">&#x2019;</tspan></text>
</g>
<clipPath id="cp30518">
<path transform="matrix(1,0,0,-1,0,841.92)" d="M .000008871 0 L 595.32 0 L 595.32 841.92 L .000008871 841.92 Z " fill-rule="evenodd"/>
</clipPath>
<g clip-path="url(#cp30518)">
<text xml:space="preserve" transform="matrix(1 0 -0 1 0 841.92)" font-size="14.04" font-family="Times New Roman"><tspan y="-168.74" x="381.67 388.50749 392.4527 398.68647 405.7626 411.99638 417.5141 424.5762 430.80998 435.4853 441.00303 448.06513 454.9026 461.9647 468.19847 473.8285 480.8906 487.9527 499.59187">yicha har oyda 10% </tspan></text>
</g>
<clipPath id="cp30519">
<path transform="matrix(1,0,0,-1,0,841.92)" d="M .000008871 0 L 595.32 0 L 595.32 841.92 L .000008871 841.92 Z " fill-rule="evenodd"/>
</clipPath>
<g clip-path="url(#cp30519)">
<text xml:space="preserve" transform="matrix(1 0 -0 1 0 841.92)" font-size="14.04" font-family="Times New Roman"><tspan y="-168.74" x="505.42">-</tspan></text>
</g>
<clipPath id="cp30520">
<path transform="matrix(1,0,0,-1,0,841.92)" d="M .000008871 0 L 595.32 0 L 595.32 841.92 L .000008871 841.92 Z " fill-rule="evenodd"/>
</clipPath>
<g clip-path="url(#cp30520)">
<text xml:space="preserve" transform="matrix(1 0 -0 1 0 841.92)" font-size="14.04" font-family="Times New Roman"><tspan y="-168.74" x="510.1"> </tspan></text>
</g>
<clipPath id="cp30521">
<path transform="matrix(1,0,0,-1,0,841.92)" d="M .000008871 0 L 595.32 0 L 595.32 841.92 L .000008871 841.92 Z " fill-rule="evenodd"/>
</clipPath>
<g clip-path="url(#cp30521)">
<text xml:space="preserve" transform="matrix(1 0 -0 1 0 841.92)" font-size="14.04" font-family="Times New Roman"><tspan y="-168.74" x="515.62 522.6821 529.74429 541.3834 546.8871 553.85098 559.9724">15% ga </tspan></text>
</g>
<clipPath id="cp30522">
<path transform="matrix(1,0,0,-1,0,841.92)" d="M .000008871 0 L 595.32 0 L 595.32 841.92 L .000008871 841.92 Z " fill-rule="evenodd"/>
</clipPath>
<g clip-path="url(#cp30522)">
</g>
<clipPath id="cp30523">
<path transform="matrix(1,0,0,-1,0,841.92)" d="M .000008871 0 L 595.32 0 L 595.32 841.92 L .000008871 841.92 Z " fill-rule="evenodd"/>
</clipPath>
<g clip-path="url(#cp30523)">
<text xml:space="preserve" transform="matrix(1 0 -0 1 0 841.92)" font-size="14.04" font-family="Times New Roman"><tspan y="-144.5" x="85.104">o</tspan></text>
</g>
<clipPath id="cp30524">
<path transform="matrix(1,0,0,-1,0,841.92)" d="M .000008871 0 L 595.32 0 L 595.32 841.92 L .000008871 841.92 Z " fill-rule="evenodd"/>
</clipPath>
<g clip-path="url(#cp30524)">
<text xml:space="preserve" transform="matrix(1 0 -0 1 0 841.92)" font-size="14.04" font-family="Times New Roman"><tspan y="-144.5" x="92.184">&#x2019;</tspan></text>
</g>
<clipPath id="cp30525">
<path transform="matrix(1,0,0,-1,0,841.92)" d="M .000008871 0 L 595.32 0 L 595.32 841.92 L .000008871 841.92 Z " fill-rule="evenodd"/>
</clipPath>
<g clip-path="url(#cp30525)">
<text xml:space="preserve" transform="matrix(1 0 -0 1 0 841.92)" font-size="14.04" font-family="Times New Roman"><tspan y="-144.5" x="96.744 102.24769 112.93213 119.99425 127.056369 134.11849 140.35225 143.86225 152.23007 160.75235 164.69759 170.81903 177.88115 181.82639 186.38939 193.35323 200.31707 208.69895 214.20262 220.43639 227.40023 234.36406 241.42618 248.4883 254.72206 263.11799 273.80244 277.74766 283.2513 290.21516 294.16038 302.54228 309.5061 313.45133 317.29829 321.14524 328.20735 331.71736 340.07118 347.035 354.0971 358.04234 364.2761 371.1276 378.1897 386.5716 391.977 399.0391 406.00294 412.96678 420.02888 423.87583 430.83967 437.90177 441.41178 449.7656 456.8277 463.79154 467.73677 473.97053 480.82203 487.88414 496.26603 500.94136 507.1751 514.153 518.09829 524.33206 535.0164 541.2502 545.19546 551.4292 556.1045 559.4741">smoqda. Elektron savdoga misol qilib, onlayn shopping, onlayn reklamalar, </tspan></text>
</g>
<clipPath id="cp30526">
<path transform="matrix(1,0,0,-1,0,841.92)" d="M .000008871 0 L 595.32 0 L 595.32 841.92 L .000008871 841.92 Z " fill-rule="evenodd"/>
</clipPath>
<g clip-path="url(#cp30526)">
</g>
<clipPath id="cp30527">
<path transform="matrix(1,0,0,-1,0,841.92)" d="M .000008871 0 L 595.32 0 L 595.32 841.92 L .000008871 841.92 Z " fill-rule="evenodd"/>
</clipPath>
<g clip-path="url(#cp30527)">
<text xml:space="preserve" transform="matrix(1 0 -0 1 0 841.92)" font-size="14.04" font-family="Times New Roman"><tspan y="-120.38" x="85.104 92.166118 99.12995 103.075199 109.30895 116.16047 123.22259 126.73259 133.7526 139.90212 146.96424 153.92807 157.77503 164.83715 171.89926 175.25482 182.31694 188.5507 191.9203 198.98242 205.94626 211.44994 218.41378 225.47589 231.59734 235.54257 241.77634 246.33934 253.40146 257.34669 260.70225 267.76435 273.88578 277.831 281.67796 285.62318 290.18617 294.13139 299.53678 306.59889 310.5441 321.22856 325.17378 331.40754 335.00178 345.68623 352.8747 363.55915 370.62126 374.56648 381.62858">onlayn banking va boshqalarni keltirishimiz mumkin.</tspan></text>
</g>
<clipPath id="cp30528">
<path transform="matrix(1,0,0,-1,0,841.92)" d="M .000008871 0 L 595.32 0 L 595.32 841.92 L .000008871 841.92 Z " fill-rule="evenodd"/>
</clipPath>
<g clip-path="url(#cp30528)">
<text xml:space="preserve" transform="matrix(1 0 -0 1 0 841.92)" font-size="14.04" font-family="Times New Roman"><tspan y="-120.38" x="385.39"> </tspan></text>
</g>
<clipPath id="cp30529">
<path transform="matrix(1,0,0,-1,0,841.92)" d="M .000008871 0 L 595.32 0 L 595.32 841.92 L .000008871 841.92 Z " fill-rule="evenodd"/>
</clipPath>
<g clip-path="url(#cp30529)">
</g>
</g>
<g id="Layer-1" data-name="P">
<clipPath id="cp30530">
<path transform="matrix(1,0,0,-1,0,841.92)" d="M .000008871 0 L 595.32 0 L 595.32 841.92 L .000008871 841.92 Z " fill-rule="evenodd"/>
</clipPath>
<g clip-path="url(#cp30530)">
<text xml:space="preserve" transform="matrix(1 0 -0 1 0 841.92)" font-size="14.04" font-family="Times New Roman,BoldItalic" font-weight="bold" font-style="italic"><tspan y="-95.904" x="113.42 120.5">4.</tspan></text>
</g>
<clipPath id="cp30531">
<path transform="matrix(1,0,0,-1,0,841.92)" d="M .000008871 0 L 595.32 0 L 595.32 841.92 L .000008871 841.92 Z " fill-rule="evenodd"/>
</clipPath>
<g clip-path="url(#cp30531)">
<text xml:space="preserve" transform="matrix(1 0 -0 1 0 841.92)" font-size="14.04" font-family="Arial,BoldItalic" font-weight="bold" font-style="italic"><tspan y="-95.904" x="123.98"> </tspan></text>
</g>
<clipPath id="cp30532">
<path transform="matrix(1,0,0,-1,0,841.92)" d="M .000008871 0 L 595.32 0 L 595.32 841.92 L .000008871 841.92 Z " fill-rule="evenodd"/>
</clipPath>
<g clip-path="url(#cp30532)">
<text xml:space="preserve" transform="matrix(1 0 -0 1 0 841.92)" font-size="14.04" font-family="Times New Roman,BoldItalic" font-weight="bold" font-style="italic"><tspan y="-95.904" x="134.78 143.30228 149.53604 153.48128 161.28752 167.52129">Telnet</tspan></text>
</g>
<clipPath id="cp30533">
<path transform="matrix(1,0,0,-1,0,841.92)" d="M .000008871 0 L 595.32 0 L 595.32 841.92 L .000008871 841.92 Z " fill-rule="evenodd"/>
</clipPath>
<g clip-path="url(#cp30533)">
<text xml:space="preserve" transform="matrix(1 0 -0 1 0 841.92)" font-size="14.04" font-family="Times New Roman,BoldItalic" font-weight="bold" font-style="italic"><tspan y="-95.904" x="171.38"> </tspan></text>
</g>
<clipPath id="cp30534">
<path transform="matrix(1,0,0,-1,0,841.92)" d="M .000008871 0 L 595.32 0 L 595.32 841.92 L .000008871 841.92 Z " fill-rule="evenodd"/>
</clipPath>
<g clip-path="url(#cp30534)">
</g>
</g>
</g>
</g>
</svg>
