<?xml version="1.0" encoding="UTF-8" standalone="no"?>
<!DOCTYPE svg PUBLIC "-//W3C//DTD SVG 1.1//EN" "http://www.w3.org/Graphics/SVG/1.1/DTD/svg11.dtd">
<svg xmlns="http://www.w3.org/2000/svg" xmlns:xlink="http://www.w3.org/1999/xlink" version="1.1" width="595.32pt" height="841.92pt" viewBox="0 0 595.32 841.92">
<g enable-background="new">
<g>
<g id="Layer-1" data-name="Artifact">
<clipPath id="cp30672">
<path transform="matrix(1,0,0,-1,0,841.92)" d="M .000008871 0 L 595.32 0 L 595.32 841.92 L .000008871 841.92 Z " fill-rule="evenodd"/>
</clipPath>
<g clip-path="url(#cp30672)">
<text xml:space="preserve" transform="matrix(1 0 -0 1 0 841.92)" font-size="11.04" font-family="Calibri"><tspan y="-51.864" x="314.09 319.72999 325.36997">188</tspan></text>
</g>
<clipPath id="cp30673">
<path transform="matrix(1,0,0,-1,0,841.92)" d="M .000008871 0 L 595.32 0 L 595.32 841.92 L .000008871 841.92 Z " fill-rule="evenodd"/>
</clipPath>
<g clip-path="url(#cp30673)">
<text xml:space="preserve" transform="matrix(1 0 -0 1 0 841.92)" font-size="11.04" font-family="Calibri"><tspan y="-51.864" x="331.03"> </tspan></text>
</g>
<clipPath id="cp30674">
<path transform="matrix(1,0,0,-1,0,841.92)" d="M .000008871 0 L 595.32 0 L 595.32 841.92 L .000008871 841.92 Z " fill-rule="evenodd"/>
</clipPath>
<g clip-path="url(#cp30674)">
</g>
<clipPath id="cp30675">
<path transform="matrix(1,0,0,-1,0,841.92)" d="M .000008871 0 L 595.32 0 L 595.32 841.92 L .000008871 841.92 Z " fill-rule="evenodd"/>
</clipPath>
<g clip-path="url(#cp30675)">
<text xml:space="preserve" transform="matrix(1 0 -0 1 0 841.92)" font-size="11.04" font-family="Calibri"><tspan y="-38.4" x="85.104"> </tspan></text>
</g>
<clipPath id="cp30676">
<path transform="matrix(1,0,0,-1,0,841.92)" d="M .000008871 0 L 595.32 0 L 595.32 841.92 L .000008871 841.92 Z " fill-rule="evenodd"/>
</clipPath>
<g clip-path="url(#cp30676)">
</g>
</g>
<g id="Layer-1" data-name="P">
<clipPath id="cp30677">
<path transform="matrix(1,0,0,-1,0,841.92)" d="M .000008871 0 L 595.32 0 L 595.32 841.92 L .000008871 841.92 Z " fill-rule="evenodd"/>
</clipPath>
<g clip-path="url(#cp30677)">
<text xml:space="preserve" transform="matrix(1 0 -0 1 0 841.92)" font-size="14.04" font-family="Times New Roman"><tspan y="-772.56" x="85.104 95.184719 101.41847 105.363719 115.444438 122.50655 127.06956 134.13167 140.36544">Network&#x201d; </tspan></text>
</g>
<clipPath id="cp30678">
<path transform="matrix(1,0,0,-1,0,841.92)" d="M .000008871 0 L 595.32 0 L 595.32 841.92 L .000008871 841.92 Z " fill-rule="evenodd"/>
</clipPath>
<g clip-path="url(#cp30678)">
<text xml:space="preserve" transform="matrix(1 0 -0 1 0 841.92)" font-size="14.04" font-family="Times New Roman"><tspan y="-772.56" x="147.14">-</tspan></text>
</g>
<clipPath id="cp30679">
<path transform="matrix(1,0,0,-1,0,841.92)" d="M .000008871 0 L 595.32 0 L 595.32 841.92 L .000008871 841.92 Z " fill-rule="evenodd"/>
</clipPath>
<g clip-path="url(#cp30679)">
<text xml:space="preserve" transform="matrix(1 0 -0 1 0 841.92)" font-size="14.04" font-family="Times New Roman"><tspan y="-772.56" x="151.7"> </tspan></text>
</g>
<clipPath id="cp30680">
<path transform="matrix(1,0,0,-1,0,841.92)" d="M .000008871 0 L 595.32 0 L 595.32 841.92 L .000008871 841.92 Z " fill-rule="evenodd"/>
</clipPath>
<g clip-path="url(#cp30680)">
<text xml:space="preserve" transform="matrix(1 0 -0 1 0 841.92)" font-size="14.04" font-family="Times New Roman"><tspan y="-772.56" x="158.42 165.48212 171.60356 175.45052 182.51264 188.7464 193.3094 200.37152 206.95627 210.9015 217.13527 221.8106 232.49504 239.55716 246.61928 253.3304 260.29426 266.528 273.23915 279.23423 283.90956 290.9857 294.9309 301.16468 305.84 311.9755 319.0376 326.00144 333.06355 339.2973 345.41874 349.36396 355.48539 362.5475 369.2586 376.22245 382.4562 386.40144 396.35578 403.41789 408.0932 415.05705 420.5607 426.79447 433.50559 440.34306 444.19 450.42378 455.0991 465.78355 472.84565 479.90776 483.85298 490.08674 494.76206 500.99583 505.57289 512.635 519.5989 526.31 533.27389 539.5076 546.4715 552.59298 559.5568">xalqaro tarmoq va &#x201c;Interconnected networks&#x201d; &#x00ab;tarmoqlararo&#x00bb; degan </tspan></text>
</g>
<clipPath id="cp30681">
<path transform="matrix(1,0,0,-1,0,841.92)" d="M .000008871 0 L 595.32 0 L 595.32 841.92 L .000008871 841.92 Z " fill-rule="evenodd"/>
</clipPath>
<g clip-path="url(#cp30681)">
<text xml:space="preserve" transform="matrix(1 0 -0 1 0 841.92)" font-size="14.04" font-family="Times New Roman"><tspan y="-748.3" x="85.104 95.90411">ma</tspan></text>
</g>
<clipPath id="cp30682">
<path transform="matrix(1,0,0,-1,0,841.92)" d="M .000008871 0 L 595.32 0 L 595.32 841.92 L .000008871 841.92 Z " fill-rule="evenodd"/>
</clipPath>
<g clip-path="url(#cp30682)">
<text xml:space="preserve" transform="matrix(1 0 -0 1 0 841.92)" font-size="14.04" font-family="Times New Roman"><tspan y="-748.3" x="102.14">&#x2019;</tspan></text>
</g>
<clipPath id="cp30683">
<path transform="matrix(1,0,0,-1,0,841.92)" d="M .000008871 0 L 595.32 0 L 595.32 841.92 L .000008871 841.92 Z " fill-rule="evenodd"/>
</clipPath>
<g clip-path="url(#cp30683)">
<text xml:space="preserve" transform="matrix(1 0 -0 1 0 841.92)" font-size="14.04" font-family="Times New Roman"><tspan y="-748.3" x="106.7 113.762119 120.824237 127.88635 131.83159 141.65958 147.89334 154.85718 161.82102 165.76625 172.00002 175.84697 182.08074 189.04457 192.9898 196.4998 206.29972 216.38043 226.32074 237.00519 243.23896 250.31513 256.5489 260.4941 264.43934 268.38456 275.22203 285.05003 289.72535 293.67057 300.73268 307.79478 313.9162 317.86143 322.4244 332.2524 339.3145 346.37663 357.06108 364.24955 371.087 378.1491 382.09434 388.3281 393.00343 402.84547 406.79069 413.02445 417.69978 428.38423 435.44633 442.41017 446.35539 452.58915 457.15214 464.21424 468.15946 477.98747 484.9513 488.8965 493.4595 497.40473 503.6385 509.04389">noni anglatadi. U mahalliy (lokal) kompyuter tarmoqlarni birlash</tspan></text>
</g>
<clipPath id="cp30684">
<path transform="matrix(1,0,0,-1,0,841.92)" d="M .000008871 0 L 595.32 0 L 595.32 841.92 L .000008871 841.92 Z " fill-rule="evenodd"/>
</clipPath>
<g clip-path="url(#cp30684)">
<text xml:space="preserve" transform="matrix(1 0 -0 1 0 841.92)" font-size="14.04" font-family="Times New Roman"><tspan y="-748.3" x="516.58 520.52529 524.4705 529.0335 535.9974 543.0595 549.18099 556.14486 559.9918">tiruvchi </tspan></text>
</g>
<clipPath id="cp30685">
<path transform="matrix(1,0,0,-1,0,841.92)" d="M .000008871 0 L 595.32 0 L 595.32 841.92 L .000008871 841.92 Z " fill-rule="evenodd"/>
</clipPath>
<g clip-path="url(#cp30685)">
<text xml:space="preserve" transform="matrix(1 0 -0 1 0 841.92)" font-size="14.04" font-family="Times New Roman"><tspan y="-724.18" x="85.104 91.33775 98.30159 105.36371 112.42583 116.98883 123.95267 127.89791 134.96004 138.80699 142.75223 148.986 152.93123 163.61568 167.56092 174.62303 181.68515">axborot tizimi bo</tspan></text>
</g>
<clipPath id="cp30686">
<path transform="matrix(1,0,0,-1,0,841.92)" d="M .000008871 0 L 595.32 0 L 595.32 841.92 L .000008871 841.92 Z " fill-rule="evenodd"/>
</clipPath>
<g clip-path="url(#cp30686)">
<text xml:space="preserve" transform="matrix(1 0 -0 1 0 841.92)" font-size="14.04" font-family="Times New Roman"><tspan y="-724.18" x="188.9">&#x2019;</tspan></text>
</g>
<clipPath id="cp30687">
<path transform="matrix(1,0,0,-1,0,841.92)" d="M .000008871 0 L 595.32 0 L 595.32 841.92 L .000008871 841.92 Z " fill-rule="evenodd"/>
</clipPath>
<g clip-path="url(#cp30687)">
<text xml:space="preserve" transform="matrix(1 0 -0 1 0 841.92)" font-size="14.04" font-family="Times New Roman"><tspan y="-724.18" x="193.49 197.33696 201.18392 208.24604 211.75603 218.79007">lib, o</tspan></text>
</g>
<clipPath id="cp30688">
<path transform="matrix(1,0,0,-1,0,841.92)" d="M .000008871 0 L 595.32 0 L 595.32 841.92 L .000008871 841.92 Z " fill-rule="evenodd"/>
</clipPath>
<g clip-path="url(#cp30688)">
<text xml:space="preserve" transform="matrix(1 0 -0 1 0 841.92)" font-size="14.04" font-family="Times New Roman"><tspan y="-724.18" x="225.89">&#x2019;</tspan></text>
</g>
<clipPath id="cp30689">
<path transform="matrix(1,0,0,-1,0,841.92)" d="M .000008871 0 L 595.32 0 L 595.32 841.92 L .000008871 841.92 Z " fill-rule="evenodd"/>
</clipPath>
<g clip-path="url(#cp30689)">
<text xml:space="preserve" transform="matrix(1 0 -0 1 0 841.92)" font-size="14.04" font-family="Times New Roman"><tspan y="-724.18" x="230.45 236.68376 240.53072 247.59284 251.43979 258.40364 265.46574 272.52787 278.76164 282.60859 289.57243 296.63453 300.48149 307.54359 313.77735 320.72715 327.78929 334.02305 341.09919 348.06303 355.12513 359.6881 366.7502 370.69544 377.75758 388.44203 394.78813 401.62559 408.68769 415.7498 422.71363 426.56059 433.62269 439.7441 446.80625 453.04 460.11616 466.3499 473.4261 480.38993">zining alohida  axborot maydoniga ega bo</tspan></text>
</g>
<clipPath id="cp30690">
<path transform="matrix(1,0,0,-1,0,841.92)" d="M .000008871 0 L 595.32 0 L 595.32 841.92 L .000008871 841.92 Z " fill-rule="evenodd"/>
</clipPath>
<g clip-path="url(#cp30690)">
<text xml:space="preserve" transform="matrix(1 0 -0 1 0 841.92)" font-size="14.04" font-family="Times New Roman"><tspan y="-724.18" x="487.78">&#x2019;</tspan></text>
</g>
<clipPath id="cp30691">
<path transform="matrix(1,0,0,-1,0,841.92)" d="M .000008871 0 L 595.32 0 L 595.32 841.92 L .000008871 841.92 Z " fill-rule="evenodd"/>
</clipPath>
<g clip-path="url(#cp30691)">
<text xml:space="preserve" transform="matrix(1 0 -0 1 0 841.92)" font-size="14.04" font-family="Times New Roman"><tspan y="-724.18" x="492.34 496.18696 503.24906 509.48283 516.55899 523.5088 530.47268 534.4179 539.0932 542.9402 550.0023 556.1238 559.97079">lgan virtual </tspan></text>
</g>
<clipPath id="cp30692">
<path transform="matrix(1,0,0,-1,0,841.92)" d="M .000008871 0 L 595.32 0 L 595.32 841.92 L .000008871 841.92 Z " fill-rule="evenodd"/>
</clipPath>
<g clip-path="url(#cp30692)">
<text xml:space="preserve" transform="matrix(1 0 -0 1 0 841.92)" font-size="14.04" font-family="Times New Roman"><tspan y="-700.06" x="85.104 89.06402">to</tspan></text>
</g>
<clipPath id="cp30693">
<path transform="matrix(1,0,0,-1,0,841.92)" d="M .000008871 0 L 595.32 0 L 595.32 841.92 L .000008871 841.92 Z " fill-rule="evenodd"/>
</clipPath>
<g clip-path="url(#cp30693)">
<text xml:space="preserve" transform="matrix(1 0 -0 1 0 841.92)" font-size="14.04" font-family="Times New Roman"><tspan y="-700.06" x="96.144">&#x2019;</tspan></text>
</g>
<clipPath id="cp30694">
<path transform="matrix(1,0,0,-1,0,841.92)" d="M .000008871 0 L 595.32 0 L 595.32 841.92 L .000008871 841.92 Z " fill-rule="evenodd"/>
</clipPath>
<g clip-path="url(#cp30694)">
<text xml:space="preserve" transform="matrix(1 0 -0 1 0 841.92)" font-size="14.04" font-family="Times New Roman"><tspan y="-700.06" x="100.7 107.66383 111.60908 117.842838 128.52729 135.5894 141.82317 148.89934 152.40933 156.31246 162.46198 167.86737 174.92949 181.89333 185.83856 189.7838 193.13936 197.0846 204.04843 211.11055 217.232 224.29412 228.23935">plamdan tashkil topadi.</tspan></text>
</g>
<clipPath id="cp30695">
<path transform="matrix(1,0,0,-1,0,841.92)" d="M .000008871 0 L 595.32 0 L 595.32 841.92 L .000008871 841.92 Z " fill-rule="evenodd"/>
</clipPath>
<g clip-path="url(#cp30695)">
<text xml:space="preserve" transform="matrix(1 0 -0 1 0 841.92)" font-size="14.04" font-family="Times New Roman"><tspan y="-700.06" x="231.77"> </tspan></text>
</g>
</g>
<g id="Layer-1" data-name="P">
<clipPath id="cp30696">
<path transform="matrix(1,0,0,-1,0,841.92)" d="M .000008871 0 L 595.32 0 L 595.32 841.92 L .000008871 841.92 Z " fill-rule="evenodd"/>
</clipPath>
<g clip-path="url(#cp30696)">
<text xml:space="preserve" transform="matrix(1 0 -0 1 0 841.92)" font-size="14.04" font-family="Times New Roman"><tspan y="-675.94" x="113.42 118.09532 125.17148 129.01844 135.2522 139.92752 146.90541 153.13918 157.08441 161.26833 165.21356 171.44733 176.12265 186.8071 193.86922 200.93134">Internet tarmoqg</tspan></text>
</g>
<clipPath id="cp30697">
<path transform="matrix(1,0,0,-1,0,841.92)" d="M .000008871 0 L 595.32 0 L 595.32 841.92 L .000008871 841.92 Z " fill-rule="evenodd"/>
</clipPath>
<g clip-path="url(#cp30697)">
<text xml:space="preserve" transform="matrix(1 0 -0 1 0 841.92)" font-size="14.04" font-family="Times New Roman"><tspan y="-675.94" x="208.13">&#x2019;</tspan></text>
</g>
<clipPath id="cp30698">
<path transform="matrix(1,0,0,-1,0,841.92)" d="M .000008871 0 L 595.32 0 L 595.32 841.92 L .000008871 841.92 Z " fill-rule="evenodd"/>
</clipPath>
<g clip-path="url(#cp30698)">
<text xml:space="preserve" transform="matrix(1 0 -0 1 0 841.92)" font-size="14.04" font-family="Times New Roman"><tspan y="-675.94" x="212.69 216.63524 220.14524 224.30107 231.26491 238.32703 245.29087 251.52463 255.8349 262.79875 266.74397 272.8654 279.9275 286.89134 293.1251 300.20124 304.38517 311.44728 317.68104 322.35636 328.49186 335.55397 341.78773 345.9857 352.94953 360.01164 370.69609 377.88456 384.72203 391.78413 395.72935 401.9631 406.63844 410.48539 416.71916 421.39448 428.37236 432.2193 439.2814 446.3435 450.52745">i, unga ulangan barcha kompyuterlarning o</tspan></text>
</g>
<clipPath id="cp30699">
<path transform="matrix(1,0,0,-1,0,841.92)" d="M .000008871 0 L 595.32 0 L 595.32 841.92 L .000008871 841.92 Z " fill-rule="evenodd"/>
</clipPath>
<g clip-path="url(#cp30699)">
<text xml:space="preserve" transform="matrix(1 0 -0 1 0 841.92)" font-size="14.04" font-family="Times New Roman"><tspan y="-675.94" x="457.9">&#x2019;</tspan></text>
</g>
<clipPath id="cp30700">
<path transform="matrix(1,0,0,-1,0,841.92)" d="M .000008871 0 L 595.32 0 L 595.32 841.92 L .000008871 841.92 Z " fill-rule="evenodd"/>
</clipPath>
<g clip-path="url(#cp30700)">
<text xml:space="preserve" transform="matrix(1 0 -0 1 0 841.92)" font-size="14.04" font-family="Times New Roman"><tspan y="-675.94" x="462.46 468.69377 474.8152 479.4905 486.56666 490.87696 501.5614">zaro ma</tspan></text>
</g>
<clipPath id="cp30701">
<path transform="matrix(1,0,0,-1,0,841.92)" d="M .000008871 0 L 595.32 0 L 595.32 841.92 L .000008871 841.92 Z " fill-rule="evenodd"/>
</clipPath>
<g clip-path="url(#cp30701)">
<text xml:space="preserve" transform="matrix(1 0 -0 1 0 841.92)" font-size="14.04" font-family="Times New Roman"><tspan y="-675.94" x="507.94">&#x2019;</tspan></text>
</g>
<clipPath id="cp30702">
<path transform="matrix(1,0,0,-1,0,841.92)" d="M .000008871 0 L 595.32 0 L 595.32 841.92 L .000008871 841.92 Z " fill-rule="evenodd"/>
</clipPath>
<g clip-path="url(#cp30702)">
<text xml:space="preserve" transform="matrix(1 0 -0 1 0 841.92)" font-size="14.04" font-family="Times New Roman"><tspan y="-675.94" x="512.5 516.44528 523.5074 534.1918 541.2539 545.19918 549.1444 555.3782 559.94119">lumotlar </tspan></text>
</g>
<clipPath id="cp30703">
<path transform="matrix(1,0,0,-1,0,841.92)" d="M .000008871 0 L 595.32 0 L 595.32 841.92 L .000008871 841.92 Z " fill-rule="evenodd"/>
</clipPath>
<g clip-path="url(#cp30703)">
<text xml:space="preserve" transform="matrix(1 0 -0 1 0 841.92)" font-size="14.04" font-family="Times New Roman"><tspan y="-651.7" x="85.104 91.33775 95.283 105.96744 112.201198 117.71892 124.78104 128.62799 134.13167 141.0955 145.27942 149.22466 159.9091 166.97122 174.03334 180.99718 184.94242 191.77989 198.01366 201.9589 205.80585 212.86797 216.8132 220.99712 227.8346 234.06836 238.74369 244.97745 248.83846 252.68541 259.74754 263.93147 270.8953 277.12907 281.80439 287.93989 295.00199 298.9472 302.4572 306.4867 311.16203 318.12586 322.07109 328.1925 332.86784 339.94398 346.0654 350.01063 354.19456 358.0415 364.27528 368.9506 379.63505 386.69715">almashish imkoniyatini yaratib beradi. Internet tarmog</tspan></text>
</g>
<clipPath id="cp30704">
<path transform="matrix(1,0,0,-1,0,841.92)" d="M .000008871 0 L 595.32 0 L 595.32 841.92 L .000008871 841.92 Z " fill-rule="evenodd"/>
</clipPath>
<g clip-path="url(#cp30704)">
<text xml:space="preserve" transform="matrix(1 0 -0 1 0 841.92)" font-size="14.04" font-family="Times New Roman"><tspan y="-651.7" x="394.15">&#x2019;</tspan></text>
</g>
<clipPath id="cp30705">
<path transform="matrix(1,0,0,-1,0,841.92)" d="M .000008871 0 L 595.32 0 L 595.32 841.92 L .000008871 841.92 Z " fill-rule="evenodd"/>
</clipPath>
<g clip-path="url(#cp30705)">
<text xml:space="preserve" transform="matrix(1 0 -0 1 0 841.92)" font-size="14.04" font-family="Times New Roman"><tspan y="-651.7" x="398.71 402.6552 409.71733 413.56428 420.5281 427.5902 431.66184 438.72395 444.9577 449.5207">ining har </tspan></text>
</g>
<clipPath id="cp30706">
<path transform="matrix(1,0,0,-1,0,841.92)" d="M .000008871 0 L 595.32 0 L 595.32 841.92 L .000008871 841.92 Z " fill-rule="evenodd"/>
</clipPath>
<g clip-path="url(#cp30706)">
<text xml:space="preserve" transform="matrix(1 0 -0 1 0 841.92)" font-size="14.04" font-family="Times New Roman"><tspan y="-651.7" x="453.82 460.8821 464.72908 469.4044 473.58833 484.27278 488.218 492.06495 499.12705 505.3608 509.30604 513.3776">bir mijozi o</tspan></text>
</g>
<clipPath id="cp30707">
<path transform="matrix(1,0,0,-1,0,841.92)" d="M .000008871 0 L 595.32 0 L 595.32 841.92 L .000008871 841.92 Z " fill-rule="evenodd"/>
</clipPath>
<g clip-path="url(#cp30707)">
<text xml:space="preserve" transform="matrix(1 0 -0 1 0 841.92)" font-size="14.04" font-family="Times New Roman"><tspan y="-651.7" x="520.54">&#x2019;</tspan></text>
</g>
<clipPath id="cp30708">
<path transform="matrix(1,0,0,-1,0,841.92)" d="M .000008871 0 L 595.32 0 L 595.32 841.92 L .000008871 841.92 Z " fill-rule="evenodd"/>
</clipPath>
<g clip-path="url(#cp30708)">
<text xml:space="preserve" transform="matrix(1 0 -0 1 0 841.92)" font-size="14.04" font-family="Times New Roman"><tspan y="-651.7" x="525.1 531.33377 535.279 542.24288 546.08987 553.0537 560.0176">zining </tspan></text>
</g>
<clipPath id="cp30709">
<path transform="matrix(1,0,0,-1,0,841.92)" d="M .000008871 0 L 595.32 0 L 595.32 841.92 L .000008871 841.92 Z " fill-rule="evenodd"/>
</clipPath>
<g clip-path="url(#cp30709)">
<text xml:space="preserve" transform="matrix(1 0 -0 1 0 841.92)" font-size="14.04" font-family="Times New Roman"><tspan y="-627.58" x="85.104 90.60768 97.6698 103.79124 110.75507 116.25876 120.204 127.04148 136.9818 144.04392 151.10604 161.79048 168.8526 175.69008 182.7522 186.69744 192.9312 197.60652 201.45348 211.39379 218.4559 223.13123 230.2074 236.32884 240.1758 244.12104 254.06134 261.02519 268.08729 273.49269 280.4565 287.51863 293.75239 303.70677 309.11216 316.17427 322.2957 329.3578 335.59156 340.26689 350.22126 357.05873 364.12083 371.18293 375.12815 385.06849 395.75294 402.09904 412.78349 416.7287 422.96247 430.0386 436.27238 440.11933 447.18144 453.4152 463.36958 469.491 476.5531 483.51695 490.57905 495.14204 502.20414 506.14936 515.97738 523.0395 529.27328 535.3947 539.33999 543.18698 548.59237 555.6545 559.3751">shaxsiy kompyuteri orqali boshqa shahar yoki mamlakatga axborot uzatishi </tspan></text>
</g>
<clipPath id="cp30710">
<path transform="matrix(1,0,0,-1,0,841.92)" d="M .000008871 0 L 595.32 0 L 595.32 841.92 L .000008871 841.92 Z " fill-rule="evenodd"/>
</clipPath>
<g clip-path="url(#cp30710)">
<text xml:space="preserve" transform="matrix(1 0 -0 1 0 841.92)" font-size="14.04" font-family="Times New Roman"><tspan y="-603.46" x="85.104 95.78844 102.97691 113.661357 120.72347 124.66872 131.73084 135.24083 139.39667 151.87824 158.112 163.61568 169.84944 173.6964 179.93016 187.00634 190.51633 194.67217 204.62653 210.86029 216.37802 223.34186 227.18881 234.25093 241.21477 245.06172 252.12384 259.08769 266.14979 272.2712 279.3333 283.27854 287.46247 297.54319 304.50703 311.47087 318.53297 323.09596 329.3297 334.8474 340.35108 344.4227 351.4848 358.44865 362.2956 369.3577 376.32154 383.28538 390.34748 397.40959 403.531 408.9364 412.88163 417.06556 424.12767 430.24909 434.1943 440.31575 444.1627 451.2248 458.18864 462.03559 469.0977 473.0429 477.22685 484.19068">mumkin. Masalan, Vashingtondagi Kongress kutubxonasi katalogini ko</tspan></text>
</g>
<clipPath id="cp30711">
<path transform="matrix(1,0,0,-1,0,841.92)" d="M .000008871 0 L 595.32 0 L 595.32 841.92 L .000008871 841.92 Z " fill-rule="evenodd"/>
</clipPath>
<g clip-path="url(#cp30711)">
<text xml:space="preserve" transform="matrix(1 0 -0 1 0 841.92)" font-size="14.04" font-family="Times New Roman"><tspan y="-603.46" x="491.74">&#x2019;</tspan></text>
</g>
<clipPath id="cp30712">
<path transform="matrix(1,0,0,-1,0,841.92)" d="M .000008871 0 L 595.32 0 L 595.32 841.92 L .000008871 841.92 Z " fill-rule="evenodd"/>
</clipPath>
<g clip-path="url(#cp30712)">
<text xml:space="preserve" transform="matrix(1 0 -0 1 0 841.92)" font-size="14.04" font-family="Times New Roman"><tspan y="-603.46" x="496.3 500.9753 504.82228 511.88438 516.0683 522.30209 529.2659 533.2112 540.17507 544.02206 549.5257 556.5878 559.9434">rib chiqish, </tspan></text>
</g>
<clipPath id="cp30713">
<path transform="matrix(1,0,0,-1,0,841.92)" d="M .000008871 0 L 595.32 0 L 595.32 841.92 L .000008871 841.92 Z " fill-rule="evenodd"/>
</clipPath>
<g clip-path="url(#cp30713)">
<text xml:space="preserve" transform="matrix(1 0 -0 1 0 841.92)" font-size="14.04" font-family="Times New Roman"><tspan y="-579.34" x="85.104 95.283 102.120479">Nyu</tspan></text>
</g>
<clipPath id="cp30714">
<path transform="matrix(1,0,0,-1,0,841.92)" d="M .000008871 0 L 595.32 0 L 595.32 841.92 L .000008871 841.92 Z " fill-rule="evenodd"/>
</clipPath>
<g clip-path="url(#cp30714)">
<text xml:space="preserve" transform="matrix(1 0 -0 1 0 841.92)" font-size="14.04" font-family="Times New Roman"><tspan y="-579.34" x="109.22">-</tspan></text>
</g>
<clipPath id="cp30715">
<path transform="matrix(1,0,0,-1,0,841.92)" d="M .000008871 0 L 595.32 0 L 595.32 841.92 L .000008871 841.92 Z " fill-rule="evenodd"/>
</clipPath>
<g clip-path="url(#cp30715)">
<text xml:space="preserve" transform="matrix(1 0 -0 1 0 841.92)" font-size="14.04" font-family="Times New Roman"><tspan y="-579.34" x="113.9 123.98072 131.04283 135.71816 142.68199 149.74411 155.86556 162.82939 166.77463 173.83675 186.31832 192.55208 196.39904 200.96204 208.02416 214.98799 221.95183 225.89707 229.74402 233.68926 239.8107 246.87282 253.93494 264.6194 271.6815 277.91526 284.26136 291.09883 295.04405 302.10615 305.9531 312.91694 319.88078 326.9429 334.005 340.96885 344.91407 349.47706 356.53916 360.48439 367.43418 374.49629">Yorkdagi Metropoliten muzeyining oxirgi ko</tspan></text>
</g>
<clipPath id="cp30716">
<path transform="matrix(1,0,0,-1,0,841.92)" d="M .000008871 0 L 595.32 0 L 595.32 841.92 L .000008871 841.92 Z " fill-rule="evenodd"/>
</clipPath>
<g clip-path="url(#cp30716)">
<text xml:space="preserve" transform="matrix(1 0 -0 1 0 841.92)" font-size="14.04" font-family="Times New Roman"><tspan y="-579.34" x="381.91">&#x2019;</tspan></text>
</g>
<clipPath id="cp30717">
<path transform="matrix(1,0,0,-1,0,841.92)" d="M .000008871 0 L 595.32 0 L 595.32 841.92 L .000008871 841.92 Z " fill-rule="evenodd"/>
</clipPath>
<g clip-path="url(#cp30717)">
<text xml:space="preserve" transform="matrix(1 0 -0 1 0 841.92)" font-size="14.04" font-family="Times New Roman"><tspan y="-579.34" x="386.47 391.14533 398.10917 404.34294 410.5767 421.27519 427.50895 433.02665 436.97187 444.03398 450.26774 457.3439 464.30775">rgazmasiga qo</tspan></text>
</g>
<clipPath id="cp30718">
<path transform="matrix(1,0,0,-1,0,841.92)" d="M .000008871 0 L 595.32 0 L 595.32 841.92 L .000008871 841.92 Z " fill-rule="evenodd"/>
</clipPath>
<g clip-path="url(#cp30718)">
<text xml:space="preserve" transform="matrix(1 0 -0 1 0 841.92)" font-size="14.04" font-family="Times New Roman"><tspan y="-579.34" x="471.46">&#x2019;</tspan></text>
</g>
<clipPath id="cp30719">
<path transform="matrix(1,0,0,-1,0,841.92)" d="M .000008871 0 L 595.32 0 L 595.32 841.92 L .000008871 841.92 Z " fill-rule="evenodd"/>
</clipPath>
<g clip-path="url(#cp30719)">
<text xml:space="preserve" transform="matrix(1 0 -0 1 0 841.92)" font-size="14.04" font-family="Times New Roman"><tspan y="-579.34" x="476.02 482.85746 486.80268 490.7479 497.81 503.93144 510.99354 518.05569 523.46109 530.5232 535.1985 541.31997 545.2652 549.21047 555.3319 559.8949">yilgan suratlar </tspan></text>
</g>
<clipPath id="cp30720">
<path transform="matrix(1,0,0,-1,0,841.92)" d="M .000008871 0 L 595.32 0 L 595.32 841.92 L .000008871 841.92 Z " fill-rule="evenodd"/>
</clipPath>
<g clip-path="url(#cp30720)">
<text xml:space="preserve" transform="matrix(1 0 -0 1 0 841.92)" font-size="14.04" font-family="Times New Roman"><tspan y="-555.07" x="85.104 92.166118 96.01308 99.95832 106.07976 113.14188">bilan </tspan></text>
</g>
<clipPath id="cp30721">
<path transform="matrix(1,0,0,-1,0,841.92)" d="M .000008871 0 L 595.32 0 L 595.32 841.92 L .000008871 841.92 Z " fill-rule="evenodd"/>
</clipPath>
<g clip-path="url(#cp30721)">
<text xml:space="preserve" transform="matrix(1 0 -0 1 0 841.92)" font-size="14.04" font-family="Times New Roman"><tspan y="-555.07" x="119.78 123.72524 129.959 136.92284 140.76979 146.27347 153.2373 157.18254 162.58794 169.65006 173.16005 179.71672 186.77884 192.90029 196.84552 203.80936 210.04312 214.71845 221.79462 228.37937 234.61313 241.6893 245.53626 252.59838 263.2828 269.51658 276.5927 280.53794 286.65937 291.3347 298.41084 304.53227 311.24339 315.09034 320.49574 327.55784 331.4048 335.35 339.913 346.9751 353.93894 360.65007 366.88383 370.73078 374.57774 380.0814 387.1435 390.6535 397.2102 404.2723 410.39375 417.35758 424.41969 431.1308 441.92756 448.98966 456.05177 466.7362 472.96998 476.9152 483.14897 487.09419 493.2156 497.89094 501.73789 508.8 512.647 519.3581 525.59188 536.27627 542.51 546.45529 553.4191 559.5406">tanishish, xalqaro anjumanlarda ishtirok etish, bank muomalalarini amalga </tspan></text>
</g>
<clipPath id="cp30722">
<path transform="matrix(1,0,0,-1,0,841.92)" d="M .000008871 0 L 595.32 0 L 595.32 841.92 L .000008871 841.92 Z " fill-rule="evenodd"/>
</clipPath>
<g clip-path="url(#cp30722)">
<text xml:space="preserve" transform="matrix(1 0 -0 1 0 841.92)" font-size="14.04" font-family="Times New Roman"><tspan y="-530.95" x="85.104 92.166118 97.57152 104.535358 108.4806 113.15592 117.002887 122.50657 129.4704 133.41564 142.40123 149.46335 155.69712 164.68271 171.74483 177.86627 181.81151 185.65847 192.72058 201.70618 208.7683 215.73213 221.13753 228.19965 235.26177 241.38321 250.49517 261.1796 267.5257 278.21015 282.15538 288.38914 295.46528 301.69905 305.64427 309.58949 315.82325 320.38624 327.44834 333.6821 342.6677 346.6129 352.0183 355.96354 359.8105 366.77433 373.83644 384.52088 390.75465 394.69987 403.81184 410.87394 414.7209 418.6661 425.62995 432.69206 438.81349 445.87559 449.8208 458.93278 463.49577 470.4596 474.40483 480.63859 485.20158 492.26368 498.3851 502.33033 511.4423 515.3875 521.509 526.18429 536.86868 543.9308">oshirishi va hatto boshqa mamlakatlarda istiqomat qiluvchi Internet tarmog</tspan></text>
</g>
<clipPath id="cp30723">
<path transform="matrix(1,0,0,-1,0,841.92)" d="M .000008871 0 L 595.32 0 L 595.32 841.92 L .000008871 841.92 Z " fill-rule="evenodd"/>
</clipPath>
<g clip-path="url(#cp30723)">
<text xml:space="preserve" transform="matrix(1 0 -0 1 0 841.92)" font-size="14.04" font-family="Times New Roman"><tspan y="-530.95" x="551.62">&#x2019;</tspan></text>
</g>
<clipPath id="cp30724">
<path transform="matrix(1,0,0,-1,0,841.92)" d="M .000008871 0 L 595.32 0 L 595.32 841.92 L .000008871 841.92 Z " fill-rule="evenodd"/>
</clipPath>
<g clip-path="url(#cp30724)">
<text xml:space="preserve" transform="matrix(1 0 -0 1 0 841.92)" font-size="14.04" font-family="Times New Roman"><tspan y="-530.95" x="556.18 560.02">i </tspan></text>
</g>
<clipPath id="cp30725">
<path transform="matrix(1,0,0,-1,0,841.92)" d="M .000008871 0 L 595.32 0 L 595.32 841.92 L .000008871 841.92 Z " fill-rule="evenodd"/>
</clipPath>
<g clip-path="url(#cp30725)">
<text xml:space="preserve" transform="matrix(1 0 -0 1 0 841.92)" font-size="14.04" font-family="Times New Roman"><tspan y="-506.83" x="85.104 95.78844 99.86004 103.707 110.76912 117.00288 120.94812 127.18188 131.74488 135.69011 139.2001 146.13587 150.0811 153.92806 160.16182 167.23799 170.59355 176.09723 183.06107 189.29483 196.371 207.05545 213.28922 217.23445 220.74445">mijozlari bilan shaxmat o</tspan></text>
</g>
<clipPath id="cp30726">
<path transform="matrix(1,0,0,-1,0,841.92)" d="M .000008871 0 L 595.32 0 L 595.32 841.92 L .000008871 841.92 Z " fill-rule="evenodd"/>
</clipPath>
<g clip-path="url(#cp30726)">
<text xml:space="preserve" transform="matrix(1 0 -0 1 0 841.92)" font-size="14.04" font-family="Times New Roman"><tspan y="-506.83" x="227.93">&#x2019;</tspan></text>
</g>
<clipPath id="cp30727">
<path transform="matrix(1,0,0,-1,0,841.92)" d="M .000008871 0 L 595.32 0 L 595.32 841.92 L .000008871 841.92 Z " fill-rule="evenodd"/>
</clipPath>
<g clip-path="url(#cp30727)">
<text xml:space="preserve" transform="matrix(1 0 -0 1 0 841.92)" font-size="14.04" font-family="Times New Roman"><tspan y="-506.83" x="232.49 239.32749 246.3896 252.62337 258.14109 265.2032 268.7132 279.36958 286.55805 297.2425 304.3046 308.24983 315.31193">ynash mumkin.</tspan></text>
</g>
<clipPath id="cp30728">
<path transform="matrix(1,0,0,-1,0,841.92)" d="M .000008871 0 L 595.32 0 L 595.32 841.92 L .000008871 841.92 Z " fill-rule="evenodd"/>
</clipPath>
<g clip-path="url(#cp30728)">
<text xml:space="preserve" transform="matrix(1 0 -0 1 0 841.92)" font-size="14.04" font-family="Times New Roman"><tspan y="-506.83" x="318.79"> </tspan></text>
</g>
</g>
<g id="Layer-1" data-name="P">
<clipPath id="cp30729">
<path transform="matrix(1,0,0,-1,0,841.92)" d="M .000008871 0 L 595.32 0 L 595.32 841.92 L .000008871 841.92 Z " fill-rule="evenodd"/>
</clipPath>
<g clip-path="url(#cp30729)">
<text xml:space="preserve" transform="matrix(1 0 -0 1 0 841.92)" font-size="14.04" font-family="Times New Roman,Bold" font-weight="bold"><tspan y="-482.71" x="113.42 124.34312 128.28835 135.25218 143.05843 150.00823 153.95346 158.37606 162.93906 170.00118 176.23494 187.76178 194.8239 202.63014 207.05274 211.72806 219.40795 224.91162 232.5915 240.39775 248.204 254.43776 262.244 269.1938 274.69746">Global tarmoq tushunchasi</tspan></text>
</g>
<clipPath id="cp30730">
<path transform="matrix(1,0,0,-1,0,841.92)" d="M .000008871 0 L 595.32 0 L 595.32 841.92 L .000008871 841.92 Z " fill-rule="evenodd"/>
</clipPath>
<g clip-path="url(#cp30730)">
<text xml:space="preserve" transform="matrix(1 0 -0 1 0 841.92)" font-size="14.04" font-family="Times New Roman"><tspan y="-482.71" x="278.81 282.32 286.6022 291.27754 298.24137 302.18659 308.42036 312.98335 320.04545 326.16688 330.1121 334.4224 338.3676 344.60139 349.16438 359.84883 366.91093">. Internet tarmog</tspan></text>
</g>
<clipPath id="cp30731">
<path transform="matrix(1,0,0,-1,0,841.92)" d="M .000008871 0 L 595.32 0 L 595.32 841.92 L .000008871 841.92 Z " fill-rule="evenodd"/>
</clipPath>
<g clip-path="url(#cp30731)">
<text xml:space="preserve" transform="matrix(1 0 -0 1 0 841.92)" font-size="14.04" font-family="Times New Roman"><tspan y="-482.71" x="374.11">&#x2019;</tspan></text>
</g>
<clipPath id="cp30732">
<path transform="matrix(1,0,0,-1,0,841.92)" d="M .000008871 0 L 595.32 0 L 595.32 841.92 L .000008871 841.92 Z " fill-rule="evenodd"/>
</clipPath>
<g clip-path="url(#cp30732)">
<text xml:space="preserve" transform="matrix(1 0 -0 1 0 841.92)" font-size="14.04" font-family="Times New Roman"><tspan y="-482.71" x="378.67 382.61524 389.67735 393.62257 400.5864 407.6485 412.0711 418.19255 423.59794 430.66004 436.06544 440.01066 446.8481">ining asosiy </tspan></text>
</g>
<clipPath id="cp30733">
<path transform="matrix(1,0,0,-1,0,841.92)" d="M .000008871 0 L 595.32 0 L 595.32 841.92 L .000008871 841.92 Z " fill-rule="evenodd"/>
</clipPath>
<g clip-path="url(#cp30733)">
<text xml:space="preserve" transform="matrix(1 0 -0 1 0 841.92)" font-size="14.04" font-family="Times New Roman"><tspan y="-482.71" x="451.42 458.48213 464.71589 468.56285 474.7966">katak</tspan></text>
</g>
<clipPath id="cp30734">
<path transform="matrix(1,0,0,-1,0,841.92)" d="M .000008871 0 L 595.32 0 L 595.32 841.92 L .000008871 841.92 Z " fill-rule="evenodd"/>
</clipPath>
<g clip-path="url(#cp30734)">
<text xml:space="preserve" transform="matrix(1 0 -0 1 0 841.92)" font-size="14.04" font-family="Times New Roman"><tspan y="-482.71" x="481.9 485.74696 491.9807 496.65605">lari</tspan></text>
</g>
<clipPath id="cp30735">
<path transform="matrix(1,0,0,-1,0,841.92)" d="M .000008871 0 L 595.32 0 L 595.32 841.92 L .000008871 841.92 Z " fill-rule="evenodd"/>
</clipPath>
<g clip-path="url(#cp30735)">
<text xml:space="preserve" transform="matrix(1 0 -0 1 0 841.92)" font-size="14.04" font-family="Times New Roman"><tspan y="-482.71" x="500.5"> </tspan></text>
</g>
<clipPath id="cp30736">
<path transform="matrix(1,0,0,-1,0,841.92)" d="M .000008871 0 L 595.32 0 L 595.32 841.92 L .000008871 841.92 Z " fill-rule="evenodd"/>
</clipPath>
<g clip-path="url(#cp30736)">
<text xml:space="preserve" transform="matrix(1 0 -0 1 0 841.92)" font-size="14.04" font-family="Times New Roman"><tspan y="-482.71" x="504.94 509.61534 516.57919 520.42617 525.9298 536.6142 540.55947 546.7932 551.4685 555.4278 559.9908">(qismlari) </tspan></text>
</g>
<clipPath id="cp30737">
<path transform="matrix(1,0,0,-1,0,841.92)" d="M .000008871 0 L 595.32 0 L 595.32 841.92 L .000008871 841.92 Z " fill-rule="evenodd"/>
</clipPath>
<g clip-path="url(#cp30737)">
<text xml:space="preserve" transform="matrix(1 0 -0 1 0 841.92)" font-size="14.04" font-family="Times New Roman"><tspan y="-458.47" x="85.104 92.166118 99.22823 105.33563 110.741039 117.803157 124.03691 131.00075 136.40615 140.35138 147.18886 153.40857 160.47069 167.5328 178.21726 185.40575 192.24323 199.30535 203.25058 209.48435 214.15967 218.11896 224.35272 229.02805 235.14948 242.2116 248.44536 254.55275 261.61488 265.46183 271.6956 276.3709 283.3488 287.294 293.40144">bu shaxsiy kompyuterlar va ularni o</tspan></text>
</g>
<clipPath id="cp30738">
<path transform="matrix(1,0,0,-1,0,841.92)" d="M .000008871 0 L 595.32 0 L 595.32 841.92 L .000008871 841.92 Z " fill-rule="evenodd"/>
</clipPath>
<g clip-path="url(#cp30738)">
<text xml:space="preserve" transform="matrix(1 0 -0 1 0 841.92)" font-size="14.04" font-family="Times New Roman"><tspan y="-458.47" x="300.77">&#x2019;</tspan></text>
</g>
<clipPath id="cp30739">
<path transform="matrix(1,0,0,-1,0,841.92)" d="M .000008871 0 L 595.32 0 L 595.32 841.92 L .000008871 841.92 Z " fill-rule="evenodd"/>
</clipPath>
<g clip-path="url(#cp30739)">
<text xml:space="preserve" transform="matrix(1 0 -0 1 0 841.92)" font-size="14.04" font-family="Times New Roman"><tspan y="-458.47" x="305.33 311.56376 317.79753 322.47285 329.54899 335.7687 342.73255 349.69639">zaro bog</tspan></text>
</g>
<clipPath id="cp30740">
<path transform="matrix(1,0,0,-1,0,841.92)" d="M .000008871 0 L 595.32 0 L 595.32 841.92 L .000008871 841.92 Z " fill-rule="evenodd"/>
</clipPath>
<g clip-path="url(#cp30740)">
<text xml:space="preserve" transform="matrix(1 0 -0 1 0 841.92)" font-size="14.04" font-family="Times New Roman"><tspan y="-458.47" x="356.83">&#x2019;</tspan></text>
</g>
<clipPath id="cp30741">
<path transform="matrix(1,0,0,-1,0,841.92)" d="M .000008871 0 L 595.32 0 L 595.32 841.92 L .000008871 841.92 Z " fill-rule="evenodd"/>
</clipPath>
<g clip-path="url(#cp30741)">
<text xml:space="preserve" transform="matrix(1 0 -0 1 0 841.92)" font-size="14.04" font-family="Times New Roman"><tspan y="-458.47" x="361.39 365.33525 372.29908 379.36119 385.4826 392.5447 396.48994 402.59736 406.54258 413.5064 420.5685 426.68995 430.63517 436.8549 440.70185 446.9356 451.61094 462.29539 469.35749 476.4196 480.3648 486.59858 491.16157 498.22367 502.16889 506.8442 510.35423 516.5599 521.12289 528.185 532.032 538.26577 542.94107 549.91897 556.0404 559.76107">lovchi lokal tarmoqlardir. Internet </tspan></text>
</g>
<clipPath id="cp30742">
<path transform="matrix(1,0,0,-1,0,841.92)" d="M .000008871 0 L 595.32 0 L 595.32 841.92 L .000008871 841.92 Z " fill-rule="evenodd"/>
</clipPath>
<g clip-path="url(#cp30742)">
<text xml:space="preserve" transform="matrix(1 0 -0 1 0 841.92)" font-size="14.04" font-family="Times New Roman"><tspan y="-434.35" x="85.104 89.04924 95.283 99.95832 110.64276 117.70488">tarmog</tspan></text>
</g>
<clipPath id="cp30743">
<path transform="matrix(1,0,0,-1,0,841.92)" d="M .000008871 0 L 595.32 0 L 595.32 841.92 L .000008871 841.92 Z " fill-rule="evenodd"/>
</clipPath>
<g clip-path="url(#cp30743)">
<text xml:space="preserve" transform="matrix(1 0 -0 1 0 841.92)" font-size="14.04" font-family="Times New Roman"><tspan y="-434.35" x="124.82">&#x2019;</tspan></text>
</g>
<clipPath id="cp30744">
<path transform="matrix(1,0,0,-1,0,841.92)" d="M .000008871 0 L 595.32 0 L 595.32 841.92 L .000008871 841.92 Z " fill-rule="evenodd"/>
</clipPath>
<g clip-path="url(#cp30744)">
<text xml:space="preserve" transform="matrix(1 0 -0 1 0 841.92)" font-size="14.04" font-family="Times New Roman"><tspan y="-434.35" x="129.38 133.34003">i </tspan></text>
</g>
<clipPath id="cp30745">
<path transform="matrix(1,0,0,-1,0,841.92)" d="M .000008871 0 L 595.32 0 L 595.32 841.92 L .000008871 841.92 Z " fill-rule="evenodd"/>
</clipPath>
<g clip-path="url(#cp30745)">
<text xml:space="preserve" transform="matrix(1 0 -0 1 0 841.92)" font-size="14.04" font-family="Times New Roman"><tspan y="-434.35" x="136.82">-</tspan></text>
</g>
<clipPath id="cp30746">
<path transform="matrix(1,0,0,-1,0,841.92)" d="M .000008871 0 L 595.32 0 L 595.32 841.92 L .000008871 841.92 Z " fill-rule="evenodd"/>
</clipPath>
<g clip-path="url(#cp30746)">
<text xml:space="preserve" transform="matrix(1 0 -0 1 0 841.92)" font-size="14.04" font-family="Times New Roman"><tspan y="-434.35" x="141.5"> </tspan></text>
</g>
<clipPath id="cp30747">
<path transform="matrix(1,0,0,-1,0,841.92)" d="M .000008871 0 L 595.32 0 L 595.32 841.92 L .000008871 841.92 Z " fill-rule="evenodd"/>
</clipPath>
<g clip-path="url(#cp30747)">
<text xml:space="preserve" transform="matrix(1 0 -0 1 0 841.92)" font-size="14.04" font-family="Times New Roman"><tspan y="-434.35" x="144.98 152.04212 159.10424 162.4598 169.52191 173.36887 180.3327 187.39482 193.51627 197.4615 200.9715 204.77634 211.0101 215.68543 226.36988 233.43199 240.49411 244.0041 251.02411 257.25788 264.27787 268.18098 272.08409 275.98719 279.37083 286.43293 290.27989 295.78355 302.74739 309.7112 313.65644 319.77787 326.7417 332.97547 340.0516 343.99684">bu global tarmoq vakili hisoblanadi.</tspan></text>
</g>
<clipPath id="cp30748">
<path transform="matrix(1,0,0,-1,0,841.92)" d="M .000008871 0 L 595.32 0 L 595.32 841.92 L .000008871 841.92 Z " fill-rule="evenodd"/>
</clipPath>
<g clip-path="url(#cp30748)">
<text xml:space="preserve" transform="matrix(1 0 -0 1 0 841.92)" font-size="14.04" font-family="Times New Roman"><tspan y="-434.35" x="347.59"> </tspan></text>
</g>
</g>
<g id="Layer-1" data-name="P">
<clipPath id="cp30749">
<path transform="matrix(1,0,0,-1,0,841.92)" d="M .000008871 0 L 595.32 0 L 595.32 841.92 L .000008871 841.92 Z " fill-rule="evenodd"/>
</clipPath>
<g clip-path="url(#cp30749)">
<text xml:space="preserve" transform="matrix(1 0 -0 1 0 841.92)" font-size="14.04" font-family="Times New Roman"><tspan y="-410.23" x="113.42 118.09532 125.17148 129.01844 135.2522 139.92752 146.90541 153.13918 157.08441 165.11528 171.34905 175.196 182.25812 189.22196 193.06891 200.13103 206.36479 214.52204 222.5529 229.51674 236.57886 247.2633 254.4518 261.28929 268.35139 272.2966 278.53038 283.2057 287.05265 293.2864 297.96174 305.9926">Internet alohida  kompyuterlar o</tspan></text>
</g>
<clipPath id="cp30750">
<path transform="matrix(1,0,0,-1,0,841.92)" d="M .000008871 0 L 595.32 0 L 595.32 841.92 L .000008871 841.92 Z " fill-rule="evenodd"/>
</clipPath>
<g clip-path="url(#cp30750)">
<text xml:space="preserve" transform="matrix(1 0 -0 1 0 841.92)" font-size="14.04" font-family="Times New Roman"><tspan y="-410.23" x="313.25">&#x2019;</tspan></text>
</g>
<clipPath id="cp30751">
<path transform="matrix(1,0,0,-1,0,841.92)" d="M .000008871 0 L 595.32 0 L 595.32 841.92 L .000008871 841.92 Z " fill-rule="evenodd"/>
</clipPath>
<g clip-path="url(#cp30751)">
<text xml:space="preserve" transform="matrix(1 0 -0 1 0 841.92)" font-size="14.04" font-family="Times New Roman"><tspan y="-410.23" x="317.83 322.5053 326.45054 332.6843 338.0897 342.0349 348.99876 355.2325 363.38978 369.62355 373.4705 380.5326 387.49644 393.7302 401.88746">rtasida aloqa o</tspan></text>
</g>
<clipPath id="cp30752">
<path transform="matrix(1,0,0,-1,0,841.92)" d="M .000008871 0 L 595.32 0 L 595.32 841.92 L .000008871 841.92 Z " fill-rule="evenodd"/>
</clipPath>
<g clip-path="url(#cp30752)">
<text xml:space="preserve" transform="matrix(1 0 -0 1 0 841.92)" font-size="14.04" font-family="Times New Roman"><tspan y="-410.23" x="409.03">&#x2019;</tspan></text>
</g>
<clipPath id="cp30753">
<path transform="matrix(1,0,0,-1,0,841.92)" d="M .000008871 0 L 595.32 0 L 595.32 841.92 L .000008871 841.92 Z " fill-rule="evenodd"/>
</clipPath>
<g clip-path="url(#cp30753)">
<text xml:space="preserve" transform="matrix(1 0 -0 1 0 841.92)" font-size="14.04" font-family="Times New Roman"><tspan y="-410.23" x="413.59 418.26533 425.22917 431.46293 435.30989 439.2551 446.21894 453.18278 457.128 464.09184 470.21327 478.35649 485.41859 492.38243 496.32765 507.0121 513.35818 520.1957 523.7057 531.8208 538.88296 545.1167 549.06198 556.0258 559.8728">rnatibgina qolmay, balki </tspan></text>
</g>
<clipPath id="cp30754">
<path transform="matrix(1,0,0,-1,0,841.92)" d="M .000008871 0 L 595.32 0 L 595.32 841.92 L .000008871 841.92 Z " fill-rule="evenodd"/>
</clipPath>
<g clip-path="url(#cp30754)">
<text xml:space="preserve" transform="matrix(1 0 -0 1 0 841.92)" font-size="14.04" font-family="Times New Roman"><tspan y="-386.09" x="85.104 92.166118 99.22823 109.912677 116.97479 123.81227 130.87439 134.81963 141.05339 145.72872 149.688 155.92177 160.48477 168.38928 175.35312 182.41524 186.97824 194.04036 201.0042 204.85115 211.91327 215.8585 223.6507">kompyuterlar guruhini o</tspan></text>
</g>
<clipPath id="cp30755">
<path transform="matrix(1,0,0,-1,0,841.92)" d="M .000008871 0 L 595.32 0 L 595.32 841.92 L .000008871 841.92 Z " fill-rule="evenodd"/>
</clipPath>
<g clip-path="url(#cp30755)">
<text xml:space="preserve" transform="matrix(1 0 -0 1 0 841.92)" font-size="14.04" font-family="Times New Roman"><tspan y="-386.09" x="230.93">&#x2019;</tspan></text>
</g>
<clipPath id="cp30756">
<path transform="matrix(1,0,0,-1,0,841.92)" d="M .000008871 0 L 595.32 0 L 595.32 841.92 L .000008871 841.92 Z " fill-rule="evenodd"/>
</clipPath>
<g clip-path="url(#cp30756)">
<text xml:space="preserve" transform="matrix(1 0 -0 1 0 841.92)" font-size="14.04" font-family="Times New Roman"><tspan y="-386.09" x="235.49 241.72377 247.95754 252.63286 259.61076">zaro </tspan></text>
</g>
<clipPath id="cp30757">
<path transform="matrix(1,0,0,-1,0,841.92)" d="M .000008871 0 L 595.32 0 L 595.32 841.92 L .000008871 841.92 Z " fill-rule="evenodd"/>
</clipPath>
<g clip-path="url(#cp30757)">
<text xml:space="preserve" transform="matrix(1 0 -0 1 0 841.92)" font-size="14.04" font-family="Times New Roman"><tspan y="-386.09" x="267.53 274.49385 278.43907 283.00205 286.94728 293.18104 298.58644 305.55027 309.49549 313.4407 318.0037 321.85066 327.25605 334.31816 342.2227 346.1679 356.85237 363.91447 370.8783 377.9404 381.78736 388.84947 392.6964 400.60096 407.5648 413.79856 424.483 432.38755 439.44966 445.6834 450.35874 456.5925 463.57038 467.5156 471.0256 478.90208 488.9828 496.0449 502.27867 506.84165 514.74618 521.71 525.6553 530.21829 537.2804 544.24429 551.2081 555.1534 559.7164">birlashtirish imkonini ham beradi. Agar bironbir </tspan></text>
</g>
<clipPath id="cp30758">
<path transform="matrix(1,0,0,-1,0,841.92)" d="M .000008871 0 L 595.32 0 L 595.32 841.92 L .000008871 841.92 Z " fill-rule="evenodd"/>
</clipPath>
<g clip-path="url(#cp30758)">
<text xml:space="preserve" transform="matrix(1 0 -0 1 0 841.92)" font-size="14.04" font-family="Times New Roman"><tspan y="-361.97" x="85.104 95.90076 102.134517 109.21067 115.44443 119.29139 123.23663 127.18188 134.01935 137.52935 141.43247 147.66623 152.48195 163.1664 170.22852 177.29064 180.80063 187.82064 193.97016 200.93399 207.99611 213.4015 217.34674 221.1937 227.42746 230.93746 234.84058 241.86058 245.7637 251.99747 256.58857 263.65068 269.7721 273.71733 280.68116 286.91493 290.42494 297.44493 301.43226 307.55369 314.51753 321.48136 327.71513 334.79127 338.30128 345.23704">mahalliy tarmoq bevosita internetga ulangan bo</tspan></text>
</g>
<clipPath id="cp30759">
<path transform="matrix(1,0,0,-1,0,841.92)" d="M .000008871 0 L 595.32 0 L 595.32 841.92 L .000008871 841.92 Z " fill-rule="evenodd"/>
</clipPath>
<g clip-path="url(#cp30759)">
<text xml:space="preserve" transform="matrix(1 0 -0 1 0 841.92)" font-size="14.04" font-family="Times New Roman"><tspan y="-361.97" x="352.51">&#x2019;</tspan></text>
</g>
<clipPath id="cp30760">
<path transform="matrix(1,0,0,-1,0,841.92)" d="M .000008871 0 L 595.32 0 L 595.32 841.92 L .000008871 841.92 Z " fill-rule="evenodd"/>
</clipPath>
<g clip-path="url(#cp30760)">
<text xml:space="preserve" transform="matrix(1 0 -0 1 0 841.92)" font-size="14.04" font-family="Times New Roman"><tspan y="-361.97" x="357.07 361.01524 366.5189 372.75267 376.26268 379.71653 386.77864 390.28865 397.2244 404.2865 408.13346 415.19557 421.42933 424.93934 428.5055 439.30226 445.536 451.76979 458.74766 465.80976 470.48509 473.9951 477.8982 484.13197 488.83537 499.5198 506.5819 513.64407 520.6079 524.4549 531.517 538.57919 542.0892 549.02499 555.2587 559.8217">lsa, u holda  mazkur tarmoqning har </tspan></text>
</g>
<clipPath id="cp30761">
<path transform="matrix(1,0,0,-1,0,841.92)" d="M .000008871 0 L 595.32 0 L 595.32 841.92 L .000008871 841.92 Z " fill-rule="evenodd"/>
</clipPath>
<g clip-path="url(#cp30761)">
<text xml:space="preserve" transform="matrix(1 0 -0 1 0 841.92)" font-size="14.04" font-family="Times New Roman"><tspan y="-337.73" x="85.104 92.166118 96.11136 100.67436 108.943927 112.790889 118.19629 125.25841 131.49217 138.45601 142.40125 150.54444 156.04811 159.89507 166.12883 173.09267 178.59635 182.54158 189.37906 195.61283 201.01822 204.86518 213.13474 217.81006 224.7739 231.83602 242.52046 249.70896 256.54643 263.60853 267.55375 273.7875 278.3505 282.29573 286.97105 295.2406 299.8036 306.8657 310.71266 316.9464 321.5094 328.5715 334.80528 338.65223 346.92179 353.88563 357.83085 364.0646 374.74906 380.98283 384.92805 388.87327 395.10704 399.67 403.61524 410.57908 416.81285 423.77668 432.04624 436.72157 443.6854 450.52287 457.58497 463.81874 467.76396 473.9977 480.96156 484.90678 490.31217 497.37428 501.22123 509.49079 520.1752 527.36367 538.04806 545.11019 549.0554 556.11758 559.47317">bir ishchi stansiyasi (kompyuteri) Internet xizmatlaridan foydalanishi mumkin. </tspan></text>
</g>
<clipPath id="cp30762">
<path transform="matrix(1,0,0,-1,0,841.92)" d="M .000008871 0 L 595.32 0 L 595.32 841.92 L .000008871 841.92 Z " fill-rule="evenodd"/>
</clipPath>
<g clip-path="url(#cp30762)">
<text xml:space="preserve" transform="matrix(1 0 -0 1 0 841.92)" font-size="14.04" font-family="Times New Roman"><tspan y="-313.61" x="85.104 92.91024 99.97236 106.936199 113.90003 117.845279 124.80911 131.77295 138.83507 144.95652 152.01863 155.52863 164.00878 168.6841 175.76027 179.7055 185.82695 190.50228 197.57845 203.69989 207.54685 216.05509 220.00032 226.23409 230.90941 241.59386 248.65598 255.7181 260.28108 264.2263 271.2884 277.52217 286.15678 296.84123 303.90333 309.40699 313.3522 319.47364 326.43748 330.3827 334.3279 342.83616 347.51148 353.6329 360.695">Shuningdek, Internet tarmog&#x2019;iga mustaqil ravi</tspan></text>
</g>
<clipPath id="cp30763">
<path transform="matrix(1,0,0,-1,0,841.92)" d="M .000008871 0 L 595.32 0 L 595.32 841.92 L .000008871 841.92 Z " fill-rule="evenodd"/>
</clipPath>
<g clip-path="url(#cp30763)">
<text xml:space="preserve" transform="matrix(1 0 -0 1 0 841.92)" font-size="14.04" font-family="Times New Roman"><tspan y="-313.61" x="364.87 370.2754 377.3375 384.3996 390.63337 399.0293 406.0914 410.03663 416.15806 423.1219 430.184 436.30543 443.26927 451.7775 458.8396 465.9017 476.58616 483.77464 490.6121 497.6742 501.61943 507.85319 512.4162 516.36148 522.5952 527.2705 535.7928 542.8549 549.0887 559.7731">shda ulangan kompyuterlar ham </tspan></text>
</g>
<clipPath id="cp30764">
<path transform="matrix(1,0,0,-1,0,841.92)" d="M .000008871 0 L 595.32 0 L 595.32 841.92 L .000008871 841.92 Z " fill-rule="evenodd"/>
</clipPath>
<g clip-path="url(#cp30764)">
<text xml:space="preserve" transform="matrix(1 0 -0 1 0 841.92)" font-size="14.04" font-family="Times New Roman"><tspan y="-289.49" x="85.104 95.90076 102.134517 109.21067 113.05763 120.11975 127.18187 133.40158 140.36542 147.42754 151.99054 155.93578 159.78273 166.84485 170.35485 176.54648 183.6086 187.55384 193.67528 198.3506 205.31444 209.25968 215.47939 222.5415 229.50534 235.00902 238.95426 245.06165 252.12377 259.18589 269.87034 276.93244 283.7699 290.832 294.77723 301.011 305.6863 309.64558 315.87934 320.55467 326.67613 331.35145 338.42759 345.39143 350.7968 354.74205">mavjud bo&#x2019;lib, ularni xost kompyuterlar (host </tspan></text>
</g>
<clipPath id="cp30765">
<path transform="matrix(1,0,0,-1,0,841.92)" d="M .000008871 0 L 595.32 0 L 595.32 841.92 L .000008871 841.92 Z " fill-rule="evenodd"/>
</clipPath>
<g clip-path="url(#cp30765)">
<text xml:space="preserve" transform="matrix(1 0 -0 1 0 841.92)" font-size="14.04" font-family="Times New Roman"><tspan y="-289.49" x="361.39">-</tspan></text>
</g>
<clipPath id="cp30766">
<path transform="matrix(1,0,0,-1,0,841.92)" d="M .000008871 0 L 595.32 0 L 595.32 841.92 L .000008871 841.92 Z " fill-rule="evenodd"/>
</clipPath>
<g clip-path="url(#cp30766)">
<text xml:space="preserve" transform="matrix(1 0 -0 1 0 841.92)" font-size="14.04" font-family="Times New Roman"><tspan y="-289.49" x="366.07"> </tspan></text>
</g>
<clipPath id="cp30767">
<path transform="matrix(1,0,0,-1,0,841.92)" d="M .000008871 0 L 595.32 0 L 595.32 841.92 L .000008871 841.92 Z " fill-rule="evenodd"/>
</clipPath>
<g clip-path="url(#cp30767)">
<text xml:space="preserve" transform="matrix(1 0 -0 1 0 841.92)" font-size="14.04" font-family="Times New Roman"><tspan y="-289.49" x="372.31 378.54377 384.06147 391.0253 396.52897 400.47419 407.31166 413.53138 420.59349 424.5387 429.9441 437.0062 443.97004 447.817 454.05076 459.56846 466.63056 472.85029 483.53474 489.7685 495.2862 502.3483 506.19526 513.2574 519.37887 524.8825 528.82778 533.50308 539.7368 546.7007 552.82217 559.786">asosiy hisoblash mashinasi) deb </tspan></text>
</g>
<clipPath id="cp30768">
<path transform="matrix(1,0,0,-1,0,841.92)" d="M .000008871 0 L 595.32 0 L 595.32 841.92 L .000008871 841.92 Z " fill-rule="evenodd"/>
</clipPath>
<g clip-path="url(#cp30768)">
<text xml:space="preserve" transform="matrix(1 0 -0 1 0 841.92)" font-size="14.04" font-family="Times New Roman"><tspan y="-265.37" x="85.104 91.33775 95.283 101.404438 106.90812 113.97024 120.091678 127.05551 131.00075">atashadi.</tspan></text>
</g>
<clipPath id="cp30769">
<path transform="matrix(1,0,0,-1,0,841.92)" d="M .000008871 0 L 595.32 0 L 595.32 841.92 L .000008871 841.92 Z " fill-rule="evenodd"/>
</clipPath>
<g clip-path="url(#cp30769)">
<text xml:space="preserve" transform="matrix(1 0 -0 1 0 841.92)" font-size="14.04" font-family="Times New Roman"><tspan y="-265.37" x="134.42"> </tspan></text>
</g>
</g>
<g id="Layer-1" data-name="P">
<clipPath id="cp30770">
<path transform="matrix(1,0,0,-1,0,841.92)" d="M .000008871 0 L 595.32 0 L 595.32 841.92 L .000008871 841.92 Z " fill-rule="evenodd"/>
</clipPath>
<g clip-path="url(#cp30770)">
<text xml:space="preserve" transform="matrix(1 0 -0 1 0 841.92)" font-size="14.04" font-family="Times New Roman"><tspan y="-241.13" x="113.42 121.942279 128.17604 132.96369 143.64813 150.71025 157.77237 164.7362 170.96997 178.76216 185.726 189.67124 195.79268 202.8548 209.81864 216.0524 223.12857 230.7944 237.85652 244.09029 248.76561 256.4455 263.5076 267.45283 272.12815 279.794 286.75785 293.81996 304.5044 311.69288 318.53034 325.59245 329.53767 335.77143 340.44676 348.12666 355.18876 359.75175 365.9855 373.90409 384.58854 390.8223 397.89845 404.1322 408.07743 411.92439 415.77134 422.83345 429.0672 436.8594 442.98085 450.04295 456.2767 463.94258 471.00468 477.23844 484.9043 491.9664 499.7586 506.59608 513.6582 518.3335 525.40969 531.64346 542.3278 546.2731 553.3352 559.45669">Tarmoqqa ulangan har bir kompyuter o&#x2019;z manziliga ega va u yordamida </tspan></text>
</g>
<clipPath id="cp30771">
<path transform="matrix(1,0,0,-1,0,841.92)" d="M .000008871 0 L 595.32 0 L 595.32 841.92 L .000008871 841.92 Z " fill-rule="evenodd"/>
</clipPath>
<g clip-path="url(#cp30771)">
<text xml:space="preserve" transform="matrix(1 0 -0 1 0 841.92)" font-size="14.04" font-family="Times New Roman"><tspan y="-216.98" x="85.104 92.166118 99.12995 106.19207 113.02955 120.09167 127.055507 131.00074 137.96457 145.02669 151.97649 155.92173 161.32712 165.27236 171.3938 175.33904 182.40116 188.5226 195.58472 202.53452 209.59664 216.56047 223.5243 227.46955 233.70331 239.1087 242.95566 250.01778 256.25154 263.21537 267.16059 274.11039 278.0556 283.461 287.40623 293.52766 297.47288 304.4367 310.67048 317.7466 324.6964 329.37174 336.44789 343.28535 350.34745 356.5812 360.52644 366.64787 373.70997 380.6738 387.7359 393.85734 400.82118 404.7664 411.82853 418.79237 422.6393 426.58454 432.8183 439.78215 446.73194 457.41639 464.4785 468.4237 475.4858 482.5479 489.51176 493.45698">dunyoning istalgan nuqtasidagi istalgan foydalanuvchi bilan muloqot </tspan></text>
</g>
<clipPath id="cp30772">
<path transform="matrix(1,0,0,-1,0,841.92)" d="M .000008871 0 L 595.32 0 L 595.32 841.92 L .000008871 841.92 Z " fill-rule="evenodd"/>
</clipPath>
<g clip-path="url(#cp30772)">
<text xml:space="preserve" transform="matrix(1 0 -0 1 0 841.92)" font-size="14.04" font-family="Times New Roman"><tspan y="-216.98" x="500.98 508.0421 511.88908 515.8343 522.06808 529.0179 535.98178 539.927 543.774 549.27767 556.1152 559.96218">qila olishi </tspan></text>
</g>
<clipPath id="cp30773">
<path transform="matrix(1,0,0,-1,0,841.92)" d="M .000008871 0 L 595.32 0 L 595.32 841.92 L .000008871 841.92 Z " fill-rule="evenodd"/>
</clipPath>
<g clip-path="url(#cp30773)">
<text xml:space="preserve" transform="matrix(1 0 -0 1 0 841.92)" font-size="14.04" font-family="Times New Roman"><tspan y="-192.86" x="85.104 95.78844 102.97691 113.661357 120.72347 124.66872 131.73084">mumkin.</tspan></text>
</g>
<clipPath id="cp30774">
<path transform="matrix(1,0,0,-1,0,841.92)" d="M .000008871 0 L 595.32 0 L 595.32 841.92 L .000008871 841.92 Z " fill-rule="evenodd"/>
</clipPath>
<g clip-path="url(#cp30774)">
<text xml:space="preserve" transform="matrix(1 0 -0 1 0 841.92)" font-size="14.04" font-family="Times New Roman"><tspan y="-192.86" x="135.26"> </tspan></text>
</g>
</g>
<g id="Layer-1" data-name="P">
<clipPath id="cp30775">
<path transform="matrix(1,0,0,-1,0,841.92)" d="M .000008871 0 L 595.32 0 L 595.32 841.92 L .000008871 841.92 Z " fill-rule="evenodd"/>
</clipPath>
<g clip-path="url(#cp30775)">
<text xml:space="preserve" transform="matrix(1 0 -0 1 0 841.92)" font-size="14.04" font-family="Times New Roman"><tspan y="-168.74" x="113.42 118.09532 125.17148 129.01844 135.2522 139.92752 146.90541 153.13918 157.08441 166.9124 170.75936 176.99312 181.66844 192.35289 199.41501 206.47713 211.04013 214.98537 222.04749 225.89444 232.85828 239.9204 249.74839 253.69362 260.65748 266.89125 270.7382 274.6834 278.53038 283.93577 290.99787 294.94309 298.4531 308.25303 312.92835 319.89219 323.8374 330.07118 334.63417 341.69627 347.8177 351.66465 361.49266 368.55476 373.11775 379.3515">Internet tarmog&#x2019;ining tuzilishi. Internet o&#x2019;z </tspan></text>
</g>
<clipPath id="cp30776">
<path transform="matrix(1,0,0,-1,0,841.92)" d="M .000008871 0 L 595.32 0 L 595.32 841.92 L .000008871 841.92 Z " fill-rule="evenodd"/>
</clipPath>
<g clip-path="url(#cp30776)">
<text xml:space="preserve" transform="matrix(1 0 -0 1 0 841.92)" font-size="14.04" font-family="Times New Roman"><tspan y="-168.74" x="389.47">-</tspan></text>
</g>
<clipPath id="cp30777">
<path transform="matrix(1,0,0,-1,0,841.92)" d="M .000008871 0 L 595.32 0 L 595.32 841.92 L .000008871 841.92 Z " fill-rule="evenodd"/>
</clipPath>
<g clip-path="url(#cp30777)">
<text xml:space="preserve" transform="matrix(1 0 -0 1 0 841.92)" font-size="14.04" font-family="Times New Roman"><tspan y="-168.74" x="394.15"> </tspan></text>
</g>
<clipPath id="cp30778">
<path transform="matrix(1,0,0,-1,0,841.92)" d="M .000008871 0 L 595.32 0 L 595.32 841.92 L .000008871 841.92 Z " fill-rule="evenodd"/>
</clipPath>
<g clip-path="url(#cp30778)">
<text xml:space="preserve" transform="matrix(1 0 -0 1 0 841.92)" font-size="14.04" font-family="Times New Roman"><tspan y="-168.74" x="403.99 411.0521 415.61509 421.84886 425.79408 432.85618 436.8014 446.6294 452.13307 459.0969 465.33067 472.2945 476.23973 480.18495 486.30638 493.2702 497.21543 501.16065 505.72364 512.6875 519.74966 525.8711 532.9332 536.8785 546.7065 553.67037 559.7918">o&#x2019;zini shakllantiruvchi va </tspan></text>
</g>
<clipPath id="cp30779">
<path transform="matrix(1,0,0,-1,0,841.92)" d="M .000008871 0 L 595.32 0 L 595.32 841.92 L .000008871 841.92 Z " fill-rule="evenodd"/>
</clipPath>
<g clip-path="url(#cp30779)">
<text xml:space="preserve" transform="matrix(1 0 -0 1 0 841.92)" font-size="14.04" font-family="Times New Roman"><tspan y="-144.5" x="85.104 92.166118 99.12995 104.535358 111.59747 118.65959 124.78103 129.45635 136.42018 143.4823 149.60375 156.66587 160.6111 164.1211 174.77747 181.83959 186.51491 192.74868 199.72657 206.6904 212.92417 220.00034 223.51033 227.31517 231.2604 237.38185 241.32709 252.01154 255.52153 262.54154 269.6317 274.1947 278.13993 282.08515 289.14726 292.65727 296.1111 302.23255 307.7362 314.70005 320.2037 326.32514 333.38725 336.89726 343.91725 350.06678 357.0306 360.97584 367.2096 370.7196 374.6227 380.77226 385.44758 392.4114 396.25837 403.32048 407.2657 414.10316 417.61317 424.63316 428.60646 434.1101 444.79457 451.85667 457.9781 465.0402 468.5502 472.4533 478.60285 484.1065 491.07035 498.03419 501.9794 505.92463 509.28019 513.2254 520.1893 527.15316 534.2153 540.33676 547.39889">boshqaruvchi murakkab tizim bo&#x2019;lib, asosan uchta tarkibiy qismdan tashkil topgan:</tspan></text>
</g>
<clipPath id="cp30780">
<path transform="matrix(1,0,0,-1,0,841.92)" d="M .000008871 0 L 595.32 0 L 595.32 841.92 L .000008871 841.92 Z " fill-rule="evenodd"/>
</clipPath>
<g clip-path="url(#cp30780)">
<text xml:space="preserve" transform="matrix(1 0 -0 1 0 841.92)" font-size="14.04" font-family="Times New Roman"><tspan y="-144.5" x="551.74"> </tspan></text>
</g>
</g>
<g id="Layer-1" data-name="P">
<clipPath id="cp30781">
<path transform="matrix(1,0,0,-1,0,841.92)" d="M .000008871 0 L 595.32 0 L 595.32 841.92 L .000008871 841.92 Z " fill-rule="evenodd"/>
</clipPath>
<g clip-path="url(#cp30781)">
<text xml:space="preserve" transform="matrix(1 0 -0 1 0 841.92)" font-size="14.04" font-family="Times New Roman"><tspan y="-120.38" x="113.42">-</tspan></text>
</g>
<clipPath id="cp30782">
<path transform="matrix(1,0,0,-1,0,841.92)" d="M .000008871 0 L 595.32 0 L 595.32 841.92 L .000008871 841.92 Z " fill-rule="evenodd"/>
</clipPath>
<g clip-path="url(#cp30782)">
<text xml:space="preserve" transform="matrix(1 0 -0 1 0 841.92)" font-size="14.04" font-family="Times New Roman"><tspan y="-120.38" x="118.1"> </tspan></text>
</g>
<clipPath id="cp30783">
<path transform="matrix(1,0,0,-1,0,841.92)" d="M .000008871 0 L 595.32 0 L 595.32 841.92 L .000008871 841.92 Z " fill-rule="evenodd"/>
</clipPath>
<g clip-path="url(#cp30783)">
<text xml:space="preserve" transform="matrix(1 0 -0 1 0 841.92)" font-size="14.04" font-family="Times New Roman"><tspan y="-120.38" x="120.5 124.445247 130.679 137.64284 144.60668 148.55191 155.51575">texnik;</tspan></text>
</g>
<clipPath id="cp30784">
<path transform="matrix(1,0,0,-1,0,841.92)" d="M .000008871 0 L 595.32 0 L 595.32 841.92 L .000008871 841.92 Z " fill-rule="evenodd"/>
</clipPath>
<g clip-path="url(#cp30784)">
<text xml:space="preserve" transform="matrix(1 0 -0 1 0 841.92)" font-size="14.04" font-family="Times New Roman"><tspan y="-120.38" x="159.38"> </tspan></text>
</g>
</g>
<g id="Layer-1" data-name="P">
<clipPath id="cp30785">
<path transform="matrix(1,0,0,-1,0,841.92)" d="M .000008871 0 L 595.32 0 L 595.32 841.92 L .000008871 841.92 Z " fill-rule="evenodd"/>
</clipPath>
<g clip-path="url(#cp30785)">
<text xml:space="preserve" transform="matrix(1 0 -0 1 0 841.92)" font-size="14.04" font-family="Times New Roman"><tspan y="-96.264" x="113.42">-</tspan></text>
</g>
<clipPath id="cp30786">
<path transform="matrix(1,0,0,-1,0,841.92)" d="M .000008871 0 L 595.32 0 L 595.32 841.92 L .000008871 841.92 Z " fill-rule="evenodd"/>
</clipPath>
<g clip-path="url(#cp30786)">
<text xml:space="preserve" transform="matrix(1 0 -0 1 0 841.92)" font-size="14.04" font-family="Times New Roman"><tspan y="-96.264" x="118.1"> </tspan></text>
</g>
<clipPath id="cp30787">
<path transform="matrix(1,0,0,-1,0,841.92)" d="M .000008871 0 L 595.32 0 L 595.32 841.92 L .000008871 841.92 Z " fill-rule="evenodd"/>
</clipPath>
<g clip-path="url(#cp30787)">
<text xml:space="preserve" transform="matrix(1 0 -0 1 0 841.92)" font-size="14.04" font-family="Times New Roman"><tspan y="-96.264" x="120.5 127.56212 133.79589 139.20128 143.04824 150.11035 154.78568 158.73091 165.56839">dasturiy;</tspan></text>
</g>
<clipPath id="cp30788">
<path transform="matrix(1,0,0,-1,0,841.92)" d="M .000008871 0 L 595.32 0 L 595.32 841.92 L .000008871 841.92 Z " fill-rule="evenodd"/>
</clipPath>
<g clip-path="url(#cp30788)">
<text xml:space="preserve" transform="matrix(1 0 -0 1 0 841.92)" font-size="14.04" font-family="Times New Roman"><tspan y="-96.264" x="169.46"> </tspan></text>
</g>
</g>
<g id="Layer-1" data-name="P">
<clipPath id="cp30789">
<path transform="matrix(1,0,0,-1,0,841.92)" d="M .000008871 0 L 595.32 0 L 595.32 841.92 L .000008871 841.92 Z " fill-rule="evenodd"/>
</clipPath>
<g clip-path="url(#cp30789)">
<text xml:space="preserve" transform="matrix(1 0 -0 1 0 841.92)" font-size="14.04" font-family="Times New Roman"><tspan y="-72.144" x="113.42">-</tspan></text>
</g>
<clipPath id="cp30790">
<path transform="matrix(1,0,0,-1,0,841.92)" d="M .000008871 0 L 595.32 0 L 595.32 841.92 L .000008871 841.92 Z " fill-rule="evenodd"/>
</clipPath>
<g clip-path="url(#cp30790)">
<text xml:space="preserve" transform="matrix(1 0 -0 1 0 841.92)" font-size="14.04" font-family="Times New Roman"><tspan y="-72.144" x="118.1"> </tspan></text>
</g>
<clipPath id="cp30791">
<path transform="matrix(1,0,0,-1,0,841.92)" d="M .000008871 0 L 595.32 0 L 595.32 841.92 L .000008871 841.92 Z " fill-rule="evenodd"/>
</clipPath>
<g clip-path="url(#cp30791)">
<text xml:space="preserve" transform="matrix(1 0 -0 1 0 841.92)" font-size="14.04" font-family="Times New Roman"><tspan y="-72.144" x="120.5 126.73376 133.69759 140.7597 147.82183 152.38483 159.34867 163.2939">axborot.</tspan></text>
</g>
<clipPath id="cp30792">
<path transform="matrix(1,0,0,-1,0,841.92)" d="M .000008871 0 L 595.32 0 L 595.32 841.92 L .000008871 841.92 Z " fill-rule="evenodd"/>
</clipPath>
<g clip-path="url(#cp30792)">
<text xml:space="preserve" transform="matrix(1 0 -0 1 0 841.92)" font-size="14.04" font-family="Times New Roman"><tspan y="-72.144" x="166.82"> </tspan></text>
</g>
</g>
</g>
</g>
</svg>
