<?xml version="1.0" encoding="UTF-8" standalone="no"?>
<!DOCTYPE svg PUBLIC "-//W3C//DTD SVG 1.1//EN" "http://www.w3.org/Graphics/SVG/1.1/DTD/svg11.dtd">
<svg xmlns="http://www.w3.org/2000/svg" xmlns:xlink="http://www.w3.org/1999/xlink" version="1.1" width="595.32pt" height="841.92pt" viewBox="0 0 595.32 841.92">
<g enable-background="new">
<g>
<g id="Layer-1" data-name="Artifact">
<clipPath id="cp30793">
<path transform="matrix(1,0,0,-1,0,841.92)" d="M .000008871 0 L 595.32 0 L 595.32 841.92 L .000008871 841.92 Z " fill-rule="evenodd"/>
</clipPath>
<g clip-path="url(#cp30793)">
<text xml:space="preserve" transform="matrix(1 0 -0 1 0 841.92)" font-size="11.04" font-family="Calibri"><tspan y="-51.864" x="314.09 319.72999 325.36997">189</tspan></text>
</g>
<clipPath id="cp30794">
<path transform="matrix(1,0,0,-1,0,841.92)" d="M .000008871 0 L 595.32 0 L 595.32 841.92 L .000008871 841.92 Z " fill-rule="evenodd"/>
</clipPath>
<g clip-path="url(#cp30794)">
<text xml:space="preserve" transform="matrix(1 0 -0 1 0 841.92)" font-size="11.04" font-family="Calibri"><tspan y="-51.864" x="331.03"> </tspan></text>
</g>
<clipPath id="cp30795">
<path transform="matrix(1,0,0,-1,0,841.92)" d="M .000008871 0 L 595.32 0 L 595.32 841.92 L .000008871 841.92 Z " fill-rule="evenodd"/>
</clipPath>
<g clip-path="url(#cp30795)">
</g>
<clipPath id="cp30796">
<path transform="matrix(1,0,0,-1,0,841.92)" d="M .000008871 0 L 595.32 0 L 595.32 841.92 L .000008871 841.92 Z " fill-rule="evenodd"/>
</clipPath>
<g clip-path="url(#cp30796)">
<text xml:space="preserve" transform="matrix(1 0 -0 1 0 841.92)" font-size="11.04" font-family="Calibri"><tspan y="-38.4" x="85.104"> </tspan></text>
</g>
<clipPath id="cp30797">
<path transform="matrix(1,0,0,-1,0,841.92)" d="M .000008871 0 L 595.32 0 L 595.32 841.92 L .000008871 841.92 Z " fill-rule="evenodd"/>
</clipPath>
<g clip-path="url(#cp30797)">
</g>
</g>
<g id="Layer-1" data-name="P">
<clipPath id="cp30798">
<path transform="matrix(1,0,0,-1,0,841.92)" d="M .000008871 0 L 595.32 0 L 595.32 841.92 L .000008871 841.92 Z " fill-rule="evenodd"/>
</clipPath>
<g clip-path="url(#cp30798)">
<text xml:space="preserve" transform="matrix(1 0 -0 1 0 841.92)" font-size="14.04" font-family="Times New Roman"><tspan y="-772.56" x="113.42 118.09532 125.17148 129.01844 135.2522 139.92752 146.90541 153.13918 157.08441 164.75025 168.69548 174.81693 179.49225 190.1767 197.23882 204.30094 208.86394 212.80918 219.87129 223.71825 230.68209 237.7442 245.41004 249.35527 255.58904 262.5529 269.51673 273.46195 280.52406 288.1899 292.03688 298.27064 302.94596 313.6304 317.57563 324.63774 331.69984 335.54679 339.492 347.15788 354.21998 360.45375 365.12907 372.80897 379.7728 383.71803">Internet tarmog&#x2019;ining texnik ta&#x2019;minoti har xil</tspan></text>
</g>
<clipPath id="cp30799">
<path transform="matrix(1,0,0,-1,0,841.92)" d="M .000008871 0 L 595.32 0 L 595.32 841.92 L .000008871 841.92 Z " fill-rule="evenodd"/>
</clipPath>
<g clip-path="url(#cp30799)">
<text xml:space="preserve" transform="matrix(1 0 -0 1 0 841.92)" font-size="14.04" font-family="Times New Roman"><tspan y="-772.56" x="388.03"> </tspan></text>
</g>
<clipPath id="cp30800">
<path transform="matrix(1,0,0,-1,0,841.92)" d="M .000008871 0 L 595.32 0 L 595.32 841.92 L .000008871 841.92 Z " fill-rule="evenodd"/>
</clipPath>
<g clip-path="url(#cp30800)">
<text xml:space="preserve" transform="matrix(1 0 -0 1 0 841.92)" font-size="14.04" font-family="Times New Roman"><tspan y="-772.56" x="395.71 399.55696 406.61906 411.18205 418.24415 424.4779 431.44175 435.38697 443.05284 450.01667 457.07878 467.87553 474.93763 481.7751 488.8372 492.7824 499.01618 503.57917 507.52439 513.7581 518.4334 521.9434 529.5952 535.829 539.67599 546.7381 553.70199 559.8234">turdagi kompyuterlar, aloqa </tspan></text>
</g>
<clipPath id="cp30801">
<path transform="matrix(1,0,0,-1,0,841.92)" d="M .000008871 0 L 595.32 0 L 595.32 841.92 L .000008871 841.92 Z " fill-rule="evenodd"/>
</clipPath>
<g clip-path="url(#cp30801)">
<text xml:space="preserve" transform="matrix(1 0 -0 1 0 841.92)" font-size="14.04" font-family="Times New Roman"><tspan y="-748.3" x="85.104 92.166118 98.28755 105.34967 111.58343 115.43039 119.37563 125.60939 130.1724 134.11763 137.95055 142.51355 146.45879 152.58023 156.52547 162.75923 167.32224 174.38436 181.44647 184.80204 188.63495 194.04035 201.00418 208.0663 212.6293 216.57454 223.41202 227.35726 234.19474 241.25685 245.81986 249.76509 256.8272 263.8893 269.2947 276.3568 279.86683 283.54533 289.04899 296.01283 299.85978 305.36344 312.42555 318.54698 322.25355 326.19877 333.1626 337.10783 343.22926 347.17448 351.02143 354.85435 361.91645 368.03788 371.8708 378.83464 385.79847 391.30213 398.26597 405.32807 411.4495 415.2824 419.11534 422.96229 430.02439 434.58738 441.5512 447.78498 454.8611 458.70808 462.541 466.38795 472.6217 477.29704 487.98149 495.04359 502.10569 505.9386 512.90249 519.1362 526.2124 532.33389 536.18087 540.1261 546.35989 551.03518 554.88217 559.4451">kanallari (telefon, sun&#x2019;iy yo&#x2019;ldosh, shisha tolali va boshqa  turdagi tarmoq kanallari) </tspan></text>
</g>
<clipPath id="cp30802">
<path transform="matrix(1,0,0,-1,0,841.92)" d="M .000008871 0 L 595.32 0 L 595.32 841.92 L .000008871 841.92 Z " fill-rule="evenodd"/>
</clipPath>
<g clip-path="url(#cp30802)">
<text xml:space="preserve" transform="matrix(1 0 -0 1 0 841.92)" font-size="14.04" font-family="Times New Roman"><tspan y="-724.18" x="85.104 92.166118 98.39987 109.08431 116.14643 122.38019 125.89019 129.7933 136.02707 140.73047 151.41492 158.47704 165.53916 172.50299 176.44823 183.41207 190.47418 193.98418 197.78902 203.91046 210.97258 217.93642 221.78337 228.84549 232.35549 239.29125 246.35337 251.75876 255.704 259.55097 265.78474 269.72996 275.85139 280.5267 284.47193 287.98194 298.6383 304.87208 308.8173 319.74043 326.80253 330.64949 337.71159 343.833 350.8951 354.40513 358.30824 364.45777 369.86317 376.92527 383.8891 387.83433 391.77955 395.1351 398.98207 406.04417 413.008 420.0701 426.19154 433.25364">hamda tarmoqning texnik vositalari majmuidan tashkil topgan.</tspan></text>
</g>
<clipPath id="cp30803">
<path transform="matrix(1,0,0,-1,0,841.92)" d="M .000008871 0 L 595.32 0 L 595.32 841.92 L .000008871 841.92 Z " fill-rule="evenodd"/>
</clipPath>
<g clip-path="url(#cp30803)">
<text xml:space="preserve" transform="matrix(1 0 -0 1 0 841.92)" font-size="14.04" font-family="Times New Roman"><tspan y="-724.18" x="436.99"> </tspan></text>
</g>
</g>
<g id="Layer-1" data-name="P">
<clipPath id="cp30804">
<path transform="matrix(1,0,0,-1,0,841.92)" d="M .000008871 0 L 595.32 0 L 595.32 841.92 L .000008871 841.92 Z " fill-rule="evenodd"/>
</clipPath>
<g clip-path="url(#cp30804)">
<text xml:space="preserve" transform="matrix(1 0 -0 1 0 841.92)" font-size="14.04" font-family="Times New Roman,Bold" font-weight="bold"><tspan y="-700.06" x="113.42 118.92368 126.72993 131.40525 137.639 143.87277 151.5667 157.80046 162.47579 167.1511 171.82642 178.79026 185.02402 196.55086 203.61298">Internet tarmog</tspan></text>
</g>
<clipPath id="cp30805">
<path transform="matrix(1,0,0,-1,0,841.92)" d="M .000008871 0 L 595.32 0 L 595.32 841.92 L .000008871 841.92 Z " fill-rule="evenodd"/>
</clipPath>
<g clip-path="url(#cp30805)">
<text xml:space="preserve" transform="matrix(1 0 -0 1 0 841.92)" font-size="14.04" font-family="Times New Roman,Bold" font-weight="bold"><tspan y="-700.06" x="210.77">&#x2019;</tspan></text>
</g>
<clipPath id="cp30806">
<path transform="matrix(1,0,0,-1,0,841.92)" d="M .000008871 0 L 595.32 0 L 595.32 841.92 L .000008871 841.92 Z " fill-rule="evenodd"/>
</clipPath>
<g clip-path="url(#cp30806)">
<text xml:space="preserve" transform="matrix(1 0 -0 1 0 841.92)" font-size="14.04" font-family="Times New Roman,Bold" font-weight="bold"><tspan y="-700.06" x="215.33 219.27524 227.08148 230.9144 238.72064 245.78276 250.44403 258.25028 265.20008 270.70375 275.37907 283.05894 289.2927 293.13966 300.20176 304.86305 309.53837">ining dasturiy ta</tspan></text>
</g>
<clipPath id="cp30807">
<path transform="matrix(1,0,0,-1,0,841.92)" d="M .000008871 0 L 595.32 0 L 595.32 841.92 L .000008871 841.92 Z " fill-rule="evenodd"/>
</clipPath>
<g clip-path="url(#cp30807)">
<text xml:space="preserve" transform="matrix(1 0 -0 1 0 841.92)" font-size="14.04" font-family="Times New Roman,Bold" font-weight="bold"><tspan y="-700.06" x="316.63">&#x2019;</tspan></text>
</g>
<clipPath id="cp30808">
<path transform="matrix(1,0,0,-1,0,841.92)" d="M .000008871 0 L 595.32 0 L 595.32 841.92 L .000008871 841.92 Z " fill-rule="evenodd"/>
</clipPath>
<g clip-path="url(#cp30808)">
<text xml:space="preserve" transform="matrix(1 0 -0 1 0 841.92)" font-size="14.04" font-family="Times New Roman,Bold" font-weight="bold"><tspan y="-700.06" x="321.31 332.83683 336.78205 344.5883 351.5381 356.2134 360.15864">minoti </tspan></text>
</g>
<clipPath id="cp30809">
<path transform="matrix(1,0,0,-1,0,841.92)" d="M .000008871 0 L 595.32 0 L 595.32 841.92 L .000008871 841.92 Z " fill-rule="evenodd"/>
</clipPath>
<g clip-path="url(#cp30809)">
<text xml:space="preserve" transform="matrix(1 0 -0 1 0 841.92)" font-size="14.04" font-family="Times New Roman"><tspan y="-700.06" x="364.87 369.54533 373.39228 379.62605 384.30137 391.27925 395.1262 402.1883 406.1335 412.97099 417.63227 424.69438 428.54133 434.04499 444.72944 448.67466 453.34999 458.0253 461.97053 468.20429 472.8796 483.56407 490.62617 497.68827 504.75038 510.98414 515.6595 522.62338 526.5686 532.80239 539.76626 546.82839 552.8234 559.7873">(tarkibiy qismi) tarmoqqa ulangan </tspan></text>
</g>
<clipPath id="cp30810">
<path transform="matrix(1,0,0,-1,0,841.92)" d="M .000008871 0 L 595.32 0 L 595.32 841.92 L .000008871 841.92 Z " fill-rule="evenodd"/>
</clipPath>
<g clip-path="url(#cp30810)">
<text xml:space="preserve" transform="matrix(1 0 -0 1 0 841.92)" font-size="14.04" font-family="Times New Roman"><tspan y="-675.94" x="85.104 92.166118 96.01308">xil</tspan></text>
</g>
<clipPath id="cp30811">
<path transform="matrix(1,0,0,-1,0,841.92)" d="M .000008871 0 L 595.32 0 L 595.32 841.92 L .000008871 841.92 Z " fill-rule="evenodd"/>
</clipPath>
<g clip-path="url(#cp30811)">
<text xml:space="preserve" transform="matrix(1 0 -0 1 0 841.92)" font-size="14.04" font-family="Times New Roman"><tspan y="-675.94" x="99.984 110.66412">ma</tspan></text>
</g>
<clipPath id="cp30812">
<path transform="matrix(1,0,0,-1,0,841.92)" d="M .000008871 0 L 595.32 0 L 595.32 841.92 L .000008871 841.92 Z " fill-rule="evenodd"/>
</clipPath>
<g clip-path="url(#cp30812)">
<text xml:space="preserve" transform="matrix(1 0 -0 1 0 841.92)" font-size="14.04" font-family="Times New Roman"><tspan y="-675.94" x="116.9">-</tspan></text>
</g>
<clipPath id="cp30813">
<path transform="matrix(1,0,0,-1,0,841.92)" d="M .000008871 0 L 595.32 0 L 595.32 841.92 L .000008871 841.92 Z " fill-rule="evenodd"/>
</clipPath>
<g clip-path="url(#cp30813)">
<text xml:space="preserve" transform="matrix(1 0 -0 1 0 841.92)" font-size="14.04" font-family="Times New Roman"><tspan y="-675.94" x="121.58 128.64212 132.58736 136.5326 139.88816 146.95027 154.01239 164.69684 171.75896 178.59644 185.65856 189.60379 195.83756 200.51288 204.35984 210.5936 215.26892 218.77892 225.79892 232.06076 235.57076 239.47388 245.70764 250.38297 261.0955 268.1576 275.2197 278.7297 285.66548 292.6293 298.13298 301.97993 305.92515 312.04658 315.9918 322.22557 326.78855 330.73377 337.6976 341.64283 345.15284 351.96223 358.19599 365.27214 372.33424 379.29808 385.53184 389.04185 394.5034 398.4065 404.64027 411.57603 418.63813 424.8719 429.43489 433.3801 436.8901 443.12388 448.5012 455.5633 460.9687 464.81565 471.87776 478.1115 481.62153 486.29685 493.12028 499.35404 506.43019 513.4923 520.4562 526.68997 530.19998 534.1031 538.0062 541.8111 548.8732 554.9947 559.5577">xil kompyuterlar va tarmoq vositalarini yagona standart asosida (yagona tilda) </tspan></text>
</g>
<clipPath id="cp30814">
<path transform="matrix(1,0,0,-1,0,841.92)" d="M .000008871 0 L 595.32 0 L 595.32 841.92 L .000008871 841.92 Z " fill-rule="evenodd"/>
</clipPath>
<g clip-path="url(#cp30814)">
<text xml:space="preserve" transform="matrix(1 0 -0 1 0 841.92)" font-size="14.04" font-family="Times New Roman"><tspan y="-651.7" x="85.104 89.04924 94.45464 101.51676 105.36372 111.59748 117.002887 124.065 127.911968 134.8758 138.82103 142.33103 146.23415">ishlashini ta</tspan></text>
</g>
<clipPath id="cp30815">
<path transform="matrix(1,0,0,-1,0,841.92)" d="M .000008871 0 L 595.32 0 L 595.32 841.92 L .000008871 841.92 Z " fill-rule="evenodd"/>
</clipPath>
<g clip-path="url(#cp30815)">
<text xml:space="preserve" transform="matrix(1 0 -0 1 0 841.92)" font-size="14.04" font-family="Times New Roman"><tspan y="-651.7" x="152.54">&#x2019;</tspan></text>
</g>
<clipPath id="cp30816">
<path transform="matrix(1,0,0,-1,0,841.92)" d="M .000008871 0 L 595.32 0 L 595.32 841.92 L .000008871 841.92 Z " fill-rule="evenodd"/>
</clipPath>
<g clip-path="url(#cp30816)">
<text xml:space="preserve" transform="matrix(1 0 -0 1 0 841.92)" font-size="14.04" font-family="Times New Roman"><tspan y="-651.7" x="157.1 167.78446 171.72969 178.79181 182.73705 189.70088 196.763 202.88445 209.94657 213.8918 217.24736 224.30948 230.43093 235.9346 239.78156 246.84368 251.40668 255.35192 261.58567 266.261">minlovchi dasturlar.</tspan></text>
</g>
<clipPath id="cp30817">
<path transform="matrix(1,0,0,-1,0,841.92)" d="M .000008871 0 L 595.32 0 L 595.32 841.92 L .000008871 841.92 Z " fill-rule="evenodd"/>
</clipPath>
<g clip-path="url(#cp30817)">
<text xml:space="preserve" transform="matrix(1 0 -0 1 0 841.92)" font-size="14.04" font-family="Times New Roman"><tspan y="-651.7" x="269.81"> </tspan></text>
</g>
</g>
<g id="Layer-1" data-name="P">
<clipPath id="cp30818">
<path transform="matrix(1,0,0,-1,0,841.92)" d="M .000008871 0 L 595.32 0 L 595.32 841.92 L .000008871 841.92 Z " fill-rule="evenodd"/>
</clipPath>
<g clip-path="url(#cp30818)">
<text xml:space="preserve" transform="matrix(1 0 -0 1 0 841.92)" font-size="14.04" font-family="Times New Roman"><tspan y="-627.58" x="113.42 118.09532 125.17148 129.01844 135.2522 139.92752 146.90541 153.13918 157.08441 163.55684 167.50208 173.73584 178.41117 189.09561 196.15773">Internet tarmog</tspan></text>
</g>
<clipPath id="cp30819">
<path transform="matrix(1,0,0,-1,0,841.92)" d="M .000008871 0 L 595.32 0 L 595.32 841.92 L .000008871 841.92 Z " fill-rule="evenodd"/>
</clipPath>
<g clip-path="url(#cp30819)">
<text xml:space="preserve" transform="matrix(1 0 -0 1 0 841.92)" font-size="14.04" font-family="Times New Roman"><tspan y="-627.58" x="203.33">&#x2019;</tspan></text>
</g>
<clipPath id="cp30820">
<path transform="matrix(1,0,0,-1,0,841.92)" d="M .000008871 0 L 595.32 0 L 595.32 841.92 L .000008871 841.92 Z " fill-rule="evenodd"/>
</clipPath>
<g clip-path="url(#cp30820)">
<text xml:space="preserve" transform="matrix(1 0 -0 1 0 841.92)" font-size="14.04" font-family="Times New Roman"><tspan y="-627.58" x="207.89 211.83524 218.79907 222.74431 229.70815 236.77027 243.35501 249.47646 256.53858 263.5024 270.5645 275.1275 282.1896 286.13484 292.60728 296.5525">ining axborot ta</tspan></text>
</g>
<clipPath id="cp30821">
<path transform="matrix(1,0,0,-1,0,841.92)" d="M .000008871 0 L 595.32 0 L 595.32 841.92 L .000008871 841.92 Z " fill-rule="evenodd"/>
</clipPath>
<g clip-path="url(#cp30821)">
<text xml:space="preserve" transform="matrix(1 0 -0 1 0 841.92)" font-size="14.04" font-family="Times New Roman"><tspan y="-627.58" x="302.93">&#x2019;</tspan></text>
</g>
<clipPath id="cp30822">
<path transform="matrix(1,0,0,-1,0,841.92)" d="M .000008871 0 L 595.32 0 L 595.32 841.92 L .000008871 841.92 Z " fill-rule="evenodd"/>
</clipPath>
<g clip-path="url(#cp30822)">
<text xml:space="preserve" transform="matrix(1 0 -0 1 0 841.92)" font-size="14.04" font-family="Times New Roman"><tspan y="-627.58" x="307.49 318.17445 322.11967 329.18177 336.24388 340.09083 344.03605 350.50849 355.1838 362.25996 366.1069 372.34068 377.016 383.99388 390.22764 394.17286 400.6453 404.5905 410.82429 415.4996 426.18406 433.24617">minoti Internet tarmog</tspan></text>
</g>
<clipPath id="cp30823">
<path transform="matrix(1,0,0,-1,0,841.92)" d="M .000008871 0 L 595.32 0 L 595.32 841.92 L .000008871 841.92 Z " fill-rule="evenodd"/>
</clipPath>
<g clip-path="url(#cp30823)">
<text xml:space="preserve" transform="matrix(1 0 -0 1 0 841.92)" font-size="14.04" font-family="Times New Roman"><tspan y="-627.58" x="440.47">&#x2019;</tspan></text>
</g>
<clipPath id="cp30824">
<path transform="matrix(1,0,0,-1,0,841.92)" d="M .000008871 0 L 595.32 0 L 595.32 841.92 L .000008871 841.92 Z " fill-rule="evenodd"/>
</clipPath>
<g clip-path="url(#cp30824)">
<text xml:space="preserve" transform="matrix(1 0 -0 1 0 841.92)" font-size="14.04" font-family="Times New Roman"><tspan y="-627.58" x="445.06 449.00523 456.06733 462.18876 468.6612 479.45796 485.6917 492.76786 496.6148 503.6769 510.739 517.2115 524.2736">ida mavjud bo</tspan></text>
</g>
<clipPath id="cp30825">
<path transform="matrix(1,0,0,-1,0,841.92)" d="M .000008871 0 L 595.32 0 L 595.32 841.92 L .000008871 841.92 Z " fill-rule="evenodd"/>
</clipPath>
<g clip-path="url(#cp30825)">
<text xml:space="preserve" transform="matrix(1 0 -0 1 0 841.92)" font-size="14.04" font-family="Times New Roman"><tspan y="-627.58" x="531.46">&#x2019;</tspan></text>
</g>
<clipPath id="cp30826">
<path transform="matrix(1,0,0,-1,0,841.92)" d="M .000008871 0 L 595.32 0 L 595.32 841.92 L .000008871 841.92 Z " fill-rule="evenodd"/>
</clipPath>
<g clip-path="url(#cp30826)">
<text xml:space="preserve" transform="matrix(1 0 -0 1 0 841.92)" font-size="14.04" font-family="Times New Roman"><tspan y="-627.58" x="536.02 539.867 546.92916 553.0506 560.01449">lgan </tspan></text>
</g>
<clipPath id="cp30827">
<path transform="matrix(1,0,0,-1,0,841.92)" d="M .000008871 0 L 595.32 0 L 595.32 841.92 L .000008871 841.92 Z " fill-rule="evenodd"/>
</clipPath>
<g clip-path="url(#cp30827)">
<text xml:space="preserve" transform="matrix(1 0 -0 1 0 841.92)" font-size="14.04" font-family="Times New Roman"><tspan y="-603.46" x="85.104 89.04924 96.11136 100.67436 104.521327 108.46657 113.49289 119.72665 123.67189 129.79334 136.75717 140.70241 145.37773 152.34157 159.40369 164.43001 171.39385 178.45597 182.30292 186.14987 192.38364 196.23059 200.17583 206.29727 210.9726 214.48259 219.48082 226.54294 231.21826 237.45203 242.12735 245.98836 253.05048 258.0768 262.75215 268.87358 274.37724 285.06169 288.5717 293.56996 299.8037 306.87986 313.94197 317.88719 324.851 330.0037 336.84117 343.90327 350.13703 357.10087 364.16297 367.67298 372.67124 379.73335 383.5803 390.6424 396.76383 403.82594 408.85227 412.7975 418.9189 424.3243 431.3864 435.33164">turli elektron hujjatlar, grafik rasm, audio yozuv, video tasvir</tspan></text>
</g>
<clipPath id="cp30828">
<path transform="matrix(1,0,0,-1,0,841.92)" d="M .000008871 0 L 595.32 0 L 595.32 841.92 L .000008871 841.92 Z " fill-rule="evenodd"/>
</clipPath>
<g clip-path="url(#cp30828)">
<text xml:space="preserve" transform="matrix(1 0 -0 1 0 841.92)" font-size="14.04" font-family="Times New Roman"><tspan y="-603.46" x="440.47 443.82557 448.8519 455.914 462.14778">, veb</tspan></text>
</g>
<clipPath id="cp30829">
<path transform="matrix(1,0,0,-1,0,841.92)" d="M .000008871 0 L 595.32 0 L 595.32 841.92 L .000008871 841.92 Z " fill-rule="evenodd"/>
</clipPath>
<g clip-path="url(#cp30829)">
<text xml:space="preserve" transform="matrix(1 0 -0 1 0 841.92)" font-size="14.04" font-family="Times New Roman"><tspan y="-603.46" x="469.3">-</tspan></text>
</g>
<clipPath id="cp30830">
<path transform="matrix(1,0,0,-1,0,841.92)" d="M .000008871 0 L 595.32 0 L 595.32 841.92 L .000008871 841.92 Z " fill-rule="evenodd"/>
</clipPath>
<g clip-path="url(#cp30830)">
<text xml:space="preserve" transform="matrix(1 0 -0 1 0 841.92)" font-size="14.04" font-family="Times New Roman"><tspan y="-603.46" x="473.86 479.36366 485.5974 492.4489 496.39414 501.42048 508.48258 514.7163 519.7426 526.7065 533.67037 540.7325 546.96627 552.97537 559.9392">sayt va hokazo </tspan></text>
</g>
<clipPath id="cp30831">
<path transform="matrix(1,0,0,-1,0,841.92)" d="M .000008871 0 L 595.32 0 L 595.32 841.92 L .000008871 841.92 Z " fill-rule="evenodd"/>
</clipPath>
<g clip-path="url(#cp30831)">
<text xml:space="preserve" transform="matrix(1 0 -0 1 0 841.92)" font-size="14.04" font-family="Times New Roman"><tspan y="-579.34" x="85.104 92.184">ko</tspan></text>
</g>
<clipPath id="cp30832">
<path transform="matrix(1,0,0,-1,0,841.92)" d="M .000008871 0 L 595.32 0 L 595.32 841.92 L .000008871 841.92 Z " fill-rule="evenodd"/>
</clipPath>
<g clip-path="url(#cp30832)">
<text xml:space="preserve" transform="matrix(1 0 -0 1 0 841.92)" font-size="14.04" font-family="Times New Roman"><tspan y="-579.34" x="99.264">&#x2019;</tspan></text>
</g>
<clipPath id="cp30833">
<path transform="matrix(1,0,0,-1,0,841.92)" d="M .000008871 0 L 595.32 0 L 595.32 841.92 L .000008871 841.92 Z " fill-rule="evenodd"/>
</clipPath>
<g clip-path="url(#cp30833)">
<text xml:space="preserve" transform="matrix(1 0 -0 1 0 841.92)" font-size="14.04" font-family="Times New Roman"><tspan y="-579.34" x="103.82 108.49532 112.342288 119.4044 123.251369 128.65676 135.71887 142.68271 148.91648 155.88031 159.82555 163.33554 169.42891 176.49103 183.45487 190.51699 195.07999 202.1421 205.98906 209.9343 216.16806 220.84339 224.35338 235.00975 241.24352 245.18875 255.8732 262.9353 269.16908 274.68678 278.632 285.6941 291.81553 298.87763 302.38764 306.29075 312.44029 317.84568 324.8095 331.8716 335.71858 339.6638 343.1738 346.97865 353.94248 361.00459 368.06669 374.1881 381.2502">rinishdagi axborotlar majmuasidan tashkil topgan.</tspan></text>
</g>
<clipPath id="cp30834">
<path transform="matrix(1,0,0,-1,0,841.92)" d="M .000008871 0 L 595.32 0 L 595.32 841.92 L .000008871 841.92 Z " fill-rule="evenodd"/>
</clipPath>
<g clip-path="url(#cp30834)">
<text xml:space="preserve" transform="matrix(1 0 -0 1 0 841.92)" font-size="14.04" font-family="Times New Roman"><tspan y="-579.34" x="384.91"> </tspan></text>
</g>
</g>
<g id="Layer-1" data-name="P">
<clipPath id="cp30835">
<path transform="matrix(1,0,0,-1,0,841.92)" d="M .000008871 0 L 595.32 0 L 595.32 841.92 L .000008871 841.92 Z " fill-rule="evenodd"/>
</clipPath>
<g clip-path="url(#cp30835)">
<text xml:space="preserve" transform="matrix(1 0 -0 1 0 841.92)" font-size="14.04" font-family="Times New Roman"><tspan y="-555.07" x="113.42 118.09532 125.17148 129.01844 135.2522 139.92752 146.90541 153.13918 156.98613 164.04825 167.8952 174.85904 181.92116 188.63228 192.47924 199.54135 206.50519 210.45043 214.29738 220.53115 227.24227 233.47603 238.99376 245.9576 251.46128 255.40651 262.244 268.9551 276.0172 282.25099 288.48475 292.444 297.007 303.24076 308.64616 312.59138 319.3025 326.26634 333.32844 337.89143 341.83665 345.6836 352.64744 356.15745 362.82646 369.88856 376.95066 383.9145 387.76145 394.82356 401.88566 408.59678 415.5606 419.50584 424.06883 428.01405 434.97789 441.21165 448.17549 452.1207 457.5261 461.4713 468.18244 474.30387 481.36598 488.3298 495.3919 499.9549 507.017 510.96223 517.67337 528.3577 534.5915 541.66769 548.7298 555.69369 559.54067">Internetning ikkita asosiy vazifasi bo&#x2019;lib, buning birinchisi axborot makoni </tspan></text>
</g>
<clipPath id="cp30836">
<path transform="matrix(1,0,0,-1,0,841.92)" d="M .000008871 0 L 595.32 0 L 595.32 841.92 L .000008871 841.92 Z " fill-rule="evenodd"/>
</clipPath>
<g clip-path="url(#cp30836)">
<text xml:space="preserve" transform="matrix(1 0 -0 1 0 841.92)" font-size="14.04" font-family="Times New Roman"><tspan y="-530.95" x="85.104 92.166118 99.22823 103.79124 107.6382 113.141887 119.37564 122.88564 126.339488 130.18643 137.24855 144.21239 148.05934 155.12146 161.2429 168.30503 172.15198 177.65566 181.60089 185.11089 191.20426 196.70793 202.9417 206.3113 213.37342 220.43553 231.2323 241.91675 248.97887 256.041 259.9862 266.95005 273.1838 277.03077 282.53443 286.38139 293.3452 300.40733 303.91734 310.8531 317.9152 323.3206 327.16755 331.11277 337.34654 342.75193 346.59889 353.66099 357.6062 362.28153">bo&#x2019;lsa, ikkinchisi esa kommunikatsion vositasidir.</tspan></text>
</g>
<clipPath id="cp30837">
<path transform="matrix(1,0,0,-1,0,841.92)" d="M .000008871 0 L 595.32 0 L 595.32 841.92 L .000008871 841.92 Z " fill-rule="evenodd"/>
</clipPath>
<g clip-path="url(#cp30837)">
<text xml:space="preserve" transform="matrix(1 0 -0 1 0 841.92)" font-size="14.04" font-family="Times New Roman"><tspan y="-530.95" x="365.95"> </tspan></text>
</g>
</g>
<g id="Layer-1" data-name="P">
<clipPath id="cp30838">
<path transform="matrix(1,0,0,-1,0,841.92)" d="M .000008871 0 L 595.32 0 L 595.32 841.92 L .000008871 841.92 Z " fill-rule="evenodd"/>
</clipPath>
<g clip-path="url(#cp30838)">
<text xml:space="preserve" transform="matrix(1 0 -0 1 0 841.92)" font-size="14.04" font-family="Times New Roman"><tspan y="-506.83" x="113.42 118.09532 125.17148 129.01844 135.2522 139.92752 146.90541 153.13918 156.98613 164.04825 170.28202 174.11493 181.07877 188.0426 195.10472 199.66773 203.61296 209.84673 216.81056 220.65752 226.1612 233.12503 236.63503 240.42583 245.10115 252.17733 256.12257 262.35633 266.9193 273.9814 280.10285 284.04808 287.88099 291.8262 298.05998 302.7353 313.41975 320.48185 327.54396 332.10694 336.05216 343.016 349.24977 353.08268 360.14479 364.09 370.21144 377.17527 381.12049 386.52589 393.58799 397.4209 403.65467 407.50163">Internetga bog&#x2019;lanish. Internet tarmog&#x2019;iga ulanish ajr</tspan></text>
</g>
<clipPath id="cp30839">
<path transform="matrix(1,0,0,-1,0,841.92)" d="M .000008871 0 L 595.32 0 L 595.32 841.92 L .000008871 841.92 Z " fill-rule="evenodd"/>
</clipPath>
<g clip-path="url(#cp30839)">
<text xml:space="preserve" transform="matrix(1 0 -0 1 0 841.92)" font-size="14.04" font-family="Times New Roman"><tspan y="-506.83" x="412.51 418.74378 422.59074 426.43769 430.3829 437.445 443.56645 450.62855 454.46147 460.5829 464.5281 471.49195 478.55406 484.7878 488.62074 495.68284 501.80427 508.86637 514.9878 518.8348 522.78 526.613 531.28829 538.25216 545.3143 549.16128 552.8819 559.84579">atilgan aloqa kanali (optik </tspan></text>
</g>
<clipPath id="cp30840">
<path transform="matrix(1,0,0,-1,0,841.92)" d="M .000008871 0 L 595.32 0 L 595.32 841.92 L .000008871 841.92 Z " fill-rule="evenodd"/>
</clipPath>
<g clip-path="url(#cp30840)">
<text xml:space="preserve" transform="matrix(1 0 -0 1 0 841.92)" font-size="14.04" font-family="Times New Roman"><tspan y="-482.71" x="85.104 89.04924 96.01308 99.95832 106.19208 109.70208 119.02464 124.430049 131.39388 138.456 143.019 146.96424 153.80171 163.26467 170.10214 177.16426 181.72727 185.6725 192.73462 199.79674 205.20214 212.26425 221.61489 227.84865 231.6956 238.65944 245.72156 251.843 257.34669 261.2919 264.8019 274.12449 278.7998 284.92124 291.88508 295.8303 302.79414 309.85624 315.97767 322.9415 329.17527 333.12049 336.6305 345.95307 352.18684 356.03379 360.7091 366.94288 370.78984 374.63679 378.582 385.6441 391.76554 398.82765 408.05195 415.11405 422.17616 432.9729 443.76966 450.83177 454.77699 460.8984 464.74537 470.24903 474.19425 481.0317 487.26548 491.2107 497.33213 504.39424 515.0786 521.4247 528.2622 535.32437 539.2696 546.3317 552.4532 559.41708">tola, sun&#x2019;iy yo&#x2019;ldosh aloqasi, radiokanal, ajratilgan kommutatsiyalanmaydigan </tspan></text>
</g>
<clipPath id="cp30841">
<path transform="matrix(1,0,0,-1,0,841.92)" d="M .000008871 0 L 595.32 0 L 595.32 841.92 L .000008871 841.92 Z " fill-rule="evenodd"/>
</clipPath>
<g clip-path="url(#cp30841)">
<text xml:space="preserve" transform="matrix(1 0 -0 1 0 841.92)" font-size="14.04" font-family="Times New Roman"><tspan y="-458.47" x="85.104 89.04924 95.283 99.12996 105.363719 110.03904 117.016918 124.07903 132.6996 136.54656 140.49179 147.45563 151.40087 158.23834 164.4721 169.98984 173.93508 178.6104 187.245 194.20883 201.27095 205.83396 212.67144 216.61667 222.85044 229.9266 236.16037 244.79497 251.85709 258.82093 262.76615 273.4506 277.5222 284.35966 292.98023 300.04234 303.98756 310.2213 317.29747 321.1444 326.5498 333.6119 337.12193 345.71443 351.21809 358.18193 365.24403 372.20787 376.0548 383.1169 390.08076 397.14286 403.26429 410.3264 413.8364 422.4289 429.491 436.5531 447.23756 457.922 464.9841 468.92933 475.1631 479.1083 484.61198 488.5572 495.39466 501.62843 505.57365 511.69508 518.7572 524.87869 531.9408 535.7878 542.8499 548.9714 556.0335 559.3891">telefon liniyasi) bo&#x2019;yicha doimiy ulanish, shuningdek, kommutatsiyalanadigan, </tspan></text>
</g>
<clipPath id="cp30842">
<path transform="matrix(1,0,0,-1,0,841.92)" d="M .000008871 0 L 595.32 0 L 595.32 841.92 L .000008871 841.92 Z " fill-rule="evenodd"/>
</clipPath>
<g clip-path="url(#cp30842)">
<text xml:space="preserve" transform="matrix(1 0 -0 1 0 841.92)" font-size="14.04" font-family="Times New Roman"><tspan y="-434.35" x="85.104 91.941478 98.28755 102.850559 109.912677 113.85792 124.28964 131.35176 137.58553 141.43248">ya&#x2019;ni uzib</tspan></text>
</g>
<clipPath id="cp30843">
<path transform="matrix(1,0,0,-1,0,841.92)" d="M .000008871 0 L 595.32 0 L 595.32 841.92 L .000008871 841.92 Z " fill-rule="evenodd"/>
</clipPath>
<g clip-path="url(#cp30843)">
<text xml:space="preserve" transform="matrix(1 0 -0 1 0 841.92)" font-size="14.04" font-family="Times New Roman"><tspan y="-434.35" x="148.58">-</tspan></text>
</g>
<clipPath id="cp30844">
<path transform="matrix(1,0,0,-1,0,841.92)" d="M .000008871 0 L 595.32 0 L 595.32 841.92 L .000008871 841.92 Z " fill-rule="evenodd"/>
</clipPath>
<g clip-path="url(#cp30844)">
<text xml:space="preserve" transform="matrix(1 0 -0 1 0 841.92)" font-size="14.04" font-family="Times New Roman"><tspan y="-434.35" x="153.14 160.20212 164.04907 170.28284 177.24668 183.48044 190.44428 194.38951 201.35335 207.4748 214.53691 224.96863 231.93247 235.8777 242.11147 249.0753 252.92226 258.42594 265.48805 275.91978 280.5951 290.56349 294.5087 300.74247">ulanadigan ulanish (Dial</tspan></text>
</g>
<clipPath id="cp30845">
<path transform="matrix(1,0,0,-1,0,841.92)" d="M .000008871 0 L 595.32 0 L 595.32 841.92 L .000008871 841.92 Z " fill-rule="evenodd"/>
</clipPath>
<g clip-path="url(#cp30845)">
<text xml:space="preserve" transform="matrix(1 0 -0 1 0 841.92)" font-size="14.04" font-family="Times New Roman"><tspan y="-434.35" x="304.85">-</tspan></text>
</g>
<clipPath id="cp30846">
<path transform="matrix(1,0,0,-1,0,841.92)" d="M .000008871 0 L 595.32 0 L 595.32 841.92 L .000008871 841.92 Z " fill-rule="evenodd"/>
</clipPath>
<g clip-path="url(#cp30846)">
<text xml:space="preserve" transform="matrix(1 0 -0 1 0 841.92)" font-size="14.04" font-family="Times New Roman"><tspan y="-434.35" x="309.41 316.37385 323.33769 333.7694 340.00318 346.23695 352.4707 358.70448 364.16603 369.62757 373.13758 383.55528 393.636 397.5812 403.81498">up access, Dial</tspan></text>
</g>
<clipPath id="cp30847">
<path transform="matrix(1,0,0,-1,0,841.92)" d="M .000008871 0 L 595.32 0 L 595.32 841.92 L .000008871 841.92 Z " fill-rule="evenodd"/>
</clipPath>
<g clip-path="url(#cp30847)">
<text xml:space="preserve" transform="matrix(1 0 -0 1 0 841.92)" font-size="14.04" font-family="Times New Roman"><tspan y="-434.35" x="407.71">-</tspan></text>
</g>
<clipPath id="cp30848">
<path transform="matrix(1,0,0,-1,0,841.92)" d="M .000008871 0 L 595.32 0 L 595.32 841.92 L .000008871 841.92 Z " fill-rule="evenodd"/>
</clipPath>
<g clip-path="url(#cp30848)">
<text xml:space="preserve" transform="matrix(1 0 -0 1 0 841.92)" font-size="14.04" font-family="Times New Roman"><tspan y="-434.35" x="412.39 419.35386 426.41596 431.09129 441.39665 448.45875 455.52085 460.08384 464.75917 468.6061 475.6682 479.51518 484.92057 491.98268 495.82963 502.89173 509.1255 519.5572 525.79098 536.47537">up) ko&#x2019;rinishida ama</tspan></text>
</g>
<clipPath id="cp30849">
<path transform="matrix(1,0,0,-1,0,841.92)" d="M .000008871 0 L 595.32 0 L 595.32 841.92 L .000008871 841.92 Z " fill-rule="evenodd"/>
</clipPath>
<g clip-path="url(#cp30849)">
<text xml:space="preserve" transform="matrix(1 0 -0 1 0 841.92)" font-size="14.04" font-family="Times New Roman"><tspan y="-434.35" x="542.86 546.80526 553.8674 559.98886">lga </tspan></text>
</g>
<clipPath id="cp30850">
<path transform="matrix(1,0,0,-1,0,841.92)" d="M .000008871 0 L 595.32 0 L 595.32 841.92 L .000008871 841.92 Z " fill-rule="evenodd"/>
</clipPath>
<g clip-path="url(#cp30850)">
<text xml:space="preserve" transform="matrix(1 0 -0 1 0 841.92)" font-size="14.04" font-family="Times New Roman"><tspan y="-410.23" x="85.104 92.166118 97.57152 104.535358 108.4806 113.15592 117.002887 120.94813 127.069568 134.13169 138.07692">oshiriladi.</tspan></text>
</g>
<clipPath id="cp30851">
<path transform="matrix(1,0,0,-1,0,841.92)" d="M .000008871 0 L 595.32 0 L 595.32 841.92 L .000008871 841.92 Z " fill-rule="evenodd"/>
</clipPath>
<g clip-path="url(#cp30851)">
<text xml:space="preserve" transform="matrix(1 0 -0 1 0 841.92)" font-size="14.04" font-family="Times New Roman"><tspan y="-410.23" x="141.5"> </tspan></text>
</g>
</g>
<g id="Layer-1" data-name="P">
<clipPath id="cp30852">
<path transform="matrix(1,0,0,-1,0,841.92)" d="M .000008871 0 L 595.32 0 L 595.32 841.92 L .000008871 841.92 Z " fill-rule="evenodd"/>
</clipPath>
<g clip-path="url(#cp30852)">
<text xml:space="preserve" transform="matrix(1 0 -0 1 0 841.92)" font-size="14.04" font-family="Times New Roman"><tspan y="-386.09" x="113.42 121.942279 128.17604 132.12128 138.35504 142.91805 149.98017 157.04228 163.62703 167.47399 171.41922 178.38306 182.3283 189.16577 195.39954 200.91727 204.8625 211.44725 218.50937 223.07238 230.03621 236.26998 240.21521 244.06217 250.77329 254.62024 261.68235 265.5293 271.76307 276.4384 283.41627 289.65003 293.49699 300.55909 306.79286 313.39167 320.3555 324.30073 330.42216 337.48426 341.3312 346.7366 353.7987 357.30873 363.97773 368.5407 375.6028 379.54804 385.7818 390.3448 397.4069 403.52833 407.47355 414.05833 418.00355 424.2373 428.91264 439.59709 446.65919">Telefon liniyasi orqali internetga ulanish. Internet tarmog</tspan></text>
</g>
<clipPath id="cp30853">
<path transform="matrix(1,0,0,-1,0,841.92)" d="M .000008871 0 L 595.32 0 L 595.32 841.92 L .000008871 841.92 Z " fill-rule="evenodd"/>
</clipPath>
<g clip-path="url(#cp30853)">
<text xml:space="preserve" transform="matrix(1 0 -0 1 0 841.92)" font-size="14.04" font-family="Times New Roman"><tspan y="-386.09" x="454.18">&#x2019;</tspan></text>
</g>
<clipPath id="cp30854">
<path transform="matrix(1,0,0,-1,0,841.92)" d="M .000008871 0 L 595.32 0 L 595.32 841.92 L .000008871 841.92 Z " fill-rule="evenodd"/>
</clipPath>
<g clip-path="url(#cp30854)">
<text xml:space="preserve" transform="matrix(1 0 -0 1 0 841.92)" font-size="14.04" font-family="Times New Roman"><tspan y="-386.09" x="458.74 462.6852 469.64906 475.8828 482.59394 489.55778 496.61988 503.5837 507.52894 514.36648 521.0776 525.0228 531.2566 535.1036 541.33737 546.01266 552.99057 559.9544">iga oddiy telefon </tspan></text>
</g>
<clipPath id="cp30855">
<path transform="matrix(1,0,0,-1,0,841.92)" d="M .000008871 0 L 595.32 0 L 595.32 841.92 L .000008871 841.92 Z " fill-rule="evenodd"/>
</clipPath>
<g clip-path="url(#cp30855)">
<text xml:space="preserve" transform="matrix(1 0 -0 1 0 841.92)" font-size="14.04" font-family="Times New Roman"><tspan y="-361.97" x="85.104 89.04924 95.283 99.95832 110.64276 117.70488 124.767 128.71224 134.946 139.509 143.45424 148.48056 155.54268 160.218 167.18184 173.4156 177.26256 181.2078 186.36048 191.76587 195.7111 201.83255 208.89467 215.8585 222.09227 226.7676 230.72689 235.87957 246.56401 253.62613 260.68824 266.922 277.60646 282.75914 289.82124 296.88334 301.55867 305.4056 309.35084 320.14759 326.38136 330.32658 336.56034 341.12333 345.06855 350.22123 357.0587 364.1208 368.7961 375.87226 382.10603 392.79048 396.7357 403.7978 410.03157 415.18424 422.14808 426.0933 432.21473 439.17857 443.12379 448.52919 455.59129 460.74397 471.4284 478.61689 489.30134 496.36344 500.30867 507.37077 510.88078 515.99136 524.5136 530.7474 534.6926 540.9264 545.4894 552.45327 559.4171">tarmoqlari orqali standart modem qurilmalari yordamida ulanish mumkin. Telefon </tspan></text>
</g>
<clipPath id="cp30856">
<path transform="matrix(1,0,0,-1,0,841.92)" d="M .000008871 0 L 595.32 0 L 595.32 841.92 L .000008871 841.92 Z " fill-rule="evenodd"/>
</clipPath>
<g clip-path="url(#cp30856)">
<text xml:space="preserve" transform="matrix(1 0 -0 1 0 841.92)" font-size="14.04" font-family="Times New Roman"><tspan y="-337.73" x="85.104 89.04924 92.8962 99.95832 103.903568 110.74104 116.9748 122.49252 126.43777 130.62169 137.6838 142.24681 149.30893 155.5427 159.38965 163.33489 167.64516 172.20816 179.27028 183.21552 189.33696 194.01229 201.08846 207.2099 211.15514 218.21726 224.45102 228.64897 235.71109 239.55805 245.79181 252.75565 256.6026 262.10627 269.0701 276.1322 282.36598 286.67628 297.36073 304.42283 311.48493 317.7187 328.52949 332.83979 339.9019 346.964 351.52699 355.4722 359.41743 370.10188 376.33564 381.85334 385.7003 392.7624 398.88383 405.94593 410.25624 414.20146 420.32289 425.82655 432.79039 439.85249 446.08625 450.64924 454.59446 458.90476 469.5892 475.82298 482.8991 488.40278 495.46488 500.96855 505.15248 512.2146 518.33609 523.8397 527.6867 534.74887 539.3118 546.2757 552.39718 559.361">liniyasi orqali Internetga ulanishda modem qurilmasidan tashqari maxsus dasturdan </tspan></text>
</g>
<clipPath id="cp30857">
<path transform="matrix(1,0,0,-1,0,841.92)" d="M .000008871 0 L 595.32 0 L 595.32 841.92 L .000008871 841.92 Z " fill-rule="evenodd"/>
</clipPath>
<g clip-path="url(#cp30857)">
<text xml:space="preserve" transform="matrix(1 0 -0 1 0 841.92)" font-size="14.04" font-family="Times New Roman"><tspan y="-313.61" x="85.104 89.77932 96.85548 101.41848 108.4806 112.32756 119.2914 126.353519 133.31735 137.26259 141.93791 146.61322 153.67534 159.9091 170.59355 175.38118 180.0565 187.13268 193.97016 201.03227 207.26604 211.21128 217.44504 224.40888 228.25583 232.20107 238.32251 245.38463 249.32987 252.83986 257.59944 266.83775 273.80158 280.86369 287.92579 294.15956 298.83488 305.7987 311.30238 318.2662 325.23005 332.29216 337.0798 344.04365 350.2774 355.6828 359.62803 366.59187 371.26719 376.05485 382.8923 389.9544 394.62974 401.70588 407.93965 418.62409 422.5693 429.6314 435.86518 440.65284 445.21583 452.27793 456.22315 462.34458 467.0199 474.09605 480.21748 484.06443 491.12654 497.3603 502.0356 509.09773 513.04299 519.1644 526.1283 533.1904 539.3119 546.374 553.3379 559.45938">(protokol) ham foydalaniladi. Bunda ushbu dastur yordamida Internetga ulanganda </tspan></text>
</g>
<clipPath id="cp30858">
<path transform="matrix(1,0,0,-1,0,841.92)" d="M .000008871 0 L 595.32 0 L 595.32 841.92 L .000008871 841.92 Z " fill-rule="evenodd"/>
</clipPath>
<g clip-path="url(#cp30858)">
<text xml:space="preserve" transform="matrix(1 0 -0 1 0 841.92)" font-size="14.04" font-family="Times New Roman"><tspan y="-289.49" x="85.104 89.04924 95.283 99.12996 105.363719 110.03904 117.016918 124.07903 128.62799 132.57323 136.42018 143.4823 147.42754 154.26502 160.49878 166.01651 169.96175 174.5107 181.57282 187.69426 194.6581 201.72022 206.26917 213.33129 217.17824 221.12348 224.97043 232.03255 238.15399 245.11783 249.06307 252.57306 257.20628 262.70994 268.9437 275.06513 282.02897 287.53263 292.1939 296.04087 303.10298 310.0668 316.30058 323.2644 329.49818 336.462 343.5241 349.75788 356.834 361.383 366.7884">telefon liniyasi band qilinadi, seans tugagandan so</tspan></text>
</g>
<clipPath id="cp30859">
<path transform="matrix(1,0,0,-1,0,841.92)" d="M .000008871 0 L 595.32 0 L 595.32 841.92 L .000008871 841.92 Z " fill-rule="evenodd"/>
</clipPath>
<g clip-path="url(#cp30859)">
<text xml:space="preserve" transform="matrix(1 0 -0 1 0 841.92)" font-size="14.04" font-family="Times New Roman"><tspan y="-289.49" x="374.23">&#x2019;</tspan></text>
</g>
<clipPath id="cp30860">
<path transform="matrix(1,0,0,-1,0,841.92)" d="M .000008871 0 L 595.32 0 L 595.32 841.92 L .000008871 841.92 Z " fill-rule="evenodd"/>
</clipPath>
<g clip-path="url(#cp30860)">
<text xml:space="preserve" transform="matrix(1 0 -0 1 0 841.92)" font-size="14.04" font-family="Times New Roman"><tspan y="-289.49" x="378.79 385.8521 392.9142 397.4632 401.40843 407.64219 411.48915 417.7229 422.39823 429.3761 436.4382 440.98719 444.83415 451.0679 455.74324 466.42768 473.48979">ng telefon tarmog</tspan></text>
</g>
<clipPath id="cp30861">
<path transform="matrix(1,0,0,-1,0,841.92)" d="M .000008871 0 L 595.32 0 L 595.32 841.92 L .000008871 841.92 Z " fill-rule="evenodd"/>
</clipPath>
<g clip-path="url(#cp30861)">
<text xml:space="preserve" transform="matrix(1 0 -0 1 0 841.92)" font-size="14.04" font-family="Times New Roman"><tspan y="-289.49" x="480.7">&#x2019;</tspan></text>
</g>
<clipPath id="cp30862">
<path transform="matrix(1,0,0,-1,0,841.92)" d="M .000008871 0 L 595.32 0 L 595.32 841.92 L .000008871 841.92 Z " fill-rule="evenodd"/>
</clipPath>
<g clip-path="url(#cp30862)">
<text xml:space="preserve" transform="matrix(1 0 -0 1 0 841.92)" font-size="14.04" font-family="Times New Roman"><tspan y="-289.49" x="485.26 489.20524 493.86653 500.92863">i bo</tspan></text>
</g>
<clipPath id="cp30863">
<path transform="matrix(1,0,0,-1,0,841.92)" d="M .000008871 0 L 595.32 0 L 595.32 841.92 L .000008871 841.92 Z " fill-rule="evenodd"/>
</clipPath>
<g clip-path="url(#cp30863)">
<text xml:space="preserve" transform="matrix(1 0 -0 1 0 841.92)" font-size="14.04" font-family="Times New Roman"><tspan y="-289.49" x="508.06">&#x2019;</tspan></text>
</g>
<clipPath id="cp30864">
<path transform="matrix(1,0,0,-1,0,841.92)" d="M .000008871 0 L 595.32 0 L 595.32 841.92 L .000008871 841.92 Z " fill-rule="evenodd"/>
</clipPath>
<g clip-path="url(#cp30864)">
<text xml:space="preserve" transform="matrix(1 0 -0 1 0 841.92)" font-size="14.04" font-family="Times New Roman"><tspan y="-289.49" x="512.62 518.12368 525.0875 531.3213 535.1683 539.1135 542.9605 549.1943 556.15817 560.0051">shatiladi </tspan></text>
</g>
<clipPath id="cp30865">
<path transform="matrix(1,0,0,-1,0,841.92)" d="M .000008871 0 L 595.32 0 L 595.32 841.92 L .000008871 841.92 Z " fill-rule="evenodd"/>
</clipPath>
<g clip-path="url(#cp30865)">
<text xml:space="preserve" transform="matrix(1 0 -0 1 0 841.92)" font-size="14.04" font-family="Times New Roman"><tspan y="-265.37" x="85.104 92.166118 98.39987 103.67892 110.741039 117.70487 124.76699 130.88843 136.27979 143.24362 150.30574 155.71114 162.67498 169.73709 175.97086 181.36222 185.92522 192.98734 199.82482 206.88694 213.1207 217.06594 223.18738 230.2495 237.21334 244.27545 250.3969 257.459 261.30598 266.69734 271.2603 278.32243 285.15989 292.222 298.45576 302.40098 308.5224 315.5845 319.43147 323.37669 328.78208 335.84419 339.7894 345.18077 355.8652 362.9273 373.61177 380.67387 384.61909 391.68119 395.1912 400.54045 405.21577 412.1796 416.12483 422.35859 426.92158 433.98368 440.1051 444.05033 451.01417 457.24794 462.63929 469.60313 473.54835 479.66978 486.73188 490.57884 496.0825 503.04634 510.01017 513.9554 519.34677 525.5805 536.2649 542.49868 546.34567 553.3095 559.43099">va unda boshqa foydalanuvchi foydalaniishi mumkin. Internetga ulanishni amalga </tspan></text>
</g>
<clipPath id="cp30866">
<path transform="matrix(1,0,0,-1,0,841.92)" d="M .000008871 0 L 595.32 0 L 595.32 841.92 L .000008871 841.92 Z " fill-rule="evenodd"/>
</clipPath>
<g clip-path="url(#cp30866)">
<text xml:space="preserve" transform="matrix(1 0 -0 1 0 841.92)" font-size="14.04" font-family="Times New Roman"><tspan y="-241.13" x="85.104 92.166118 97.57152 104.535358 108.4806 113.15592 120.11976 127.18188 133.30332 140.36544 144.31067 148.38227">oshiruvchi d</tspan></text>
</g>
<clipPath id="cp30867">
<path transform="matrix(1,0,0,-1,0,841.92)" d="M .000008871 0 L 595.32 0 L 595.32 841.92 L .000008871 841.92 Z " fill-rule="evenodd"/>
</clipPath>
<g clip-path="url(#cp30867)">
<text xml:space="preserve" transform="matrix(1 0 -0 1 0 841.92)" font-size="14.04" font-family="Times New Roman"><tspan y="-241.13" x="155.54 161.77376 167.17916 171.02611 178.08823 182.65123 189.71335 193.5603 200.62242 207.58626 211.89653 218.73401 225.79613 229.74137 236.7052">asturning yutug</tspan></text>
</g>
<clipPath id="cp30868">
<path transform="matrix(1,0,0,-1,0,841.92)" d="M .000008871 0 L 595.32 0 L 595.32 841.92 L .000008871 841.92 Z " fill-rule="evenodd"/>
</clipPath>
<g clip-path="url(#cp30868)">
<text xml:space="preserve" transform="matrix(1 0 -0 1 0 841.92)" font-size="14.04" font-family="Times New Roman"><tspan y="-241.13" x="243.89">&#x2019;</tspan></text>
</g>
<clipPath id="cp30869">
<path transform="matrix(1,0,0,-1,0,841.92)" d="M .000008871 0 L 595.32 0 L 595.32 841.92 L .000008871 841.92 Z " fill-rule="evenodd"/>
</clipPath>
<g clip-path="url(#cp30869)">
<text xml:space="preserve" transform="matrix(1 0 -0 1 0 841.92)" font-size="14.04" font-family="Times New Roman"><tspan y="-241.13" x="248.45 252.39524 256.57917 262.08283 269.04667 276.0105 283.0726 290.03645 296.2702 303.23405 307.17927 310.68928 314.84513 321.90724 325.75419 331.98796 336.66328 340.86125 345.53657 352.6127 356.45967 362.69343 367.36875 374.34663 380.58039 384.42735 391.48945 397.7232 401.92118 405.76814">i shundaki, ular Internetga to</tspan></text>
</g>
<clipPath id="cp30870">
<path transform="matrix(1,0,0,-1,0,841.92)" d="M .000008871 0 L 595.32 0 L 595.32 841.92 L .000008871 841.92 Z " fill-rule="evenodd"/>
</clipPath>
<g clip-path="url(#cp30870)">
<text xml:space="preserve" transform="matrix(1 0 -0 1 0 841.92)" font-size="14.04" font-family="Times New Roman"><tspan y="-241.13" x="412.99">&#x2019;</tspan></text>
</g>
<clipPath id="cp30871">
<path transform="matrix(1,0,0,-1,0,841.92)" d="M .000008871 0 L 595.32 0 L 595.32 841.92 L .000008871 841.92 Z " fill-rule="evenodd"/>
</clipPath>
<g clip-path="url(#cp30871)">
<text xml:space="preserve" transform="matrix(1 0 -0 1 0 841.92)" font-size="14.04" font-family="Times New Roman"><tspan y="-241.13" x="417.55">g</tspan></text>
</g>
<clipPath id="cp30872">
<path transform="matrix(1,0,0,-1,0,841.92)" d="M .000008871 0 L 595.32 0 L 595.32 841.92 L .000008871 841.92 Z " fill-rule="evenodd"/>
</clipPath>
<g clip-path="url(#cp30872)">
<text xml:space="preserve" transform="matrix(1 0 -0 1 0 841.92)" font-size="14.04" font-family="Times New Roman"><tspan y="-241.13" x="424.63">&#x2019;</tspan></text>
</g>
<clipPath id="cp30873">
<path transform="matrix(1,0,0,-1,0,841.92)" d="M .000008871 0 L 595.32 0 L 595.32 841.92 L .000008871 841.92 Z " fill-rule="evenodd"/>
</clipPath>
<g clip-path="url(#cp30873)">
<text xml:space="preserve" transform="matrix(1 0 -0 1 0 841.92)" font-size="14.04" font-family="Times New Roman"><tspan y="-241.13" x="429.19 433.86534 437.81056 444.77439 451.00816 458.0843 462.26823 466.45216 470.39738">ridan  to</tspan></text>
</g>
<clipPath id="cp30874">
<path transform="matrix(1,0,0,-1,0,841.92)" d="M .000008871 0 L 595.32 0 L 595.32 841.92 L .000008871 841.92 Z " fill-rule="evenodd"/>
</clipPath>
<g clip-path="url(#cp30874)">
<text xml:space="preserve" transform="matrix(1 0 -0 1 0 841.92)" font-size="14.04" font-family="Times New Roman"><tspan y="-241.13" x="477.58">&#x2019;</tspan></text>
</g>
<clipPath id="cp30875">
<path transform="matrix(1,0,0,-1,0,841.92)" d="M .000008871 0 L 595.32 0 L 595.32 841.92 L .000008871 841.92 Z " fill-rule="evenodd"/>
</clipPath>
<g clip-path="url(#cp30875)">
<text xml:space="preserve" transform="matrix(1 0 -0 1 0 841.92)" font-size="14.04" font-family="Times New Roman"><tspan y="-241.13" x="482.14">g</tspan></text>
</g>
<clipPath id="cp30876">
<path transform="matrix(1,0,0,-1,0,841.92)" d="M .000008871 0 L 595.32 0 L 595.32 841.92 L .000008871 841.92 Z " fill-rule="evenodd"/>
</clipPath>
<g clip-path="url(#cp30876)">
<text xml:space="preserve" transform="matrix(1 0 -0 1 0 841.92)" font-size="14.04" font-family="Times New Roman"><tspan y="-241.13" x="489.22">&#x2019;</tspan></text>
</g>
<clipPath id="cp30877">
<path transform="matrix(1,0,0,-1,0,841.92)" d="M .000008871 0 L 595.32 0 L 595.32 841.92 L .000008871 841.92 Z " fill-rule="evenodd"/>
</clipPath>
<g clip-path="url(#cp30877)">
<text xml:space="preserve" transform="matrix(1 0 -0 1 0 841.92)" font-size="14.04" font-family="Times New Roman"><tspan y="-241.13" x="493.78 498.45533 502.40055 506.58448 513.54837 517.4936 523.61508 530.6772 534.5242 540.02786 546.86538 553.8292 559.9507">ri ulanishga </tspan></text>
</g>
<clipPath id="cp30878">
<path transform="matrix(1,0,0,-1,0,841.92)" d="M .000008871 0 L 595.32 0 L 595.32 841.92 L .000008871 841.92 Z " fill-rule="evenodd"/>
</clipPath>
<g clip-path="url(#cp30878)">
<text xml:space="preserve" transform="matrix(1 0 -0 1 0 841.92)" font-size="14.04" font-family="Times New Roman"><tspan y="-216.98" x="85.104 89.04924 99.73368 106.7958 113.85792 120.92004 124.43004 131.3658 137.59957 142.27489 148.41037 155.47249 159.41773">imkon beradi.</tspan></text>
</g>
<clipPath id="cp30879">
<path transform="matrix(1,0,0,-1,0,841.92)" d="M .000008871 0 L 595.32 0 L 595.32 841.92 L .000008871 841.92 Z " fill-rule="evenodd"/>
</clipPath>
<g clip-path="url(#cp30879)">
<text xml:space="preserve" transform="matrix(1 0 -0 1 0 841.92)" font-size="14.04" font-family="Times New Roman"><tspan y="-216.98" x="162.86"> </tspan></text>
</g>
</g>
<g id="Layer-1" data-name="P">
<clipPath id="cp30880">
<path transform="matrix(1,0,0,-1,0,841.92)" d="M .000008871 0 L 595.32 0 L 595.32 841.92 L .000008871 841.92 Z " fill-rule="evenodd"/>
</clipPath>
<g clip-path="url(#cp30880)">
<text xml:space="preserve" transform="matrix(1 0 -0 1 0 841.92)" font-size="14.04" font-family="Times New Roman"><tspan y="-192.86" x="113.42 121.942279 128.17604 132.12128 138.35504 142.91805 149.98017 157.04228 164.70812 168.65335 172.5003 179.46414 183.40938 190.24686 196.48062 201.99835 205.94359 213.73578 220.7979 225.3609 232.32474 238.5585 242.50374 246.44898 254.24117 261.20503 270.44334 277.50544 283.62687 290.68898 294.6342 299.19718 306.161 313.2231 320.18696 327.97917 334.943">Telefon liniyasi orqali &#x00ab;Chaqiruv&#x00bb; bo</tspan></text>
</g>
<clipPath id="cp30881">
<path transform="matrix(1,0,0,-1,0,841.92)" d="M .000008871 0 L 595.32 0 L 595.32 841.92 L .000008871 841.92 Z " fill-rule="evenodd"/>
</clipPath>
<g clip-path="url(#cp30881)">
<text xml:space="preserve" transform="matrix(1 0 -0 1 0 841.92)" font-size="14.04" font-family="Times New Roman"><tspan y="-192.86" x="342.31">&#x2019;</tspan></text>
</g>
<clipPath id="cp30882">
<path transform="matrix(1,0,0,-1,0,841.92)" d="M .000008871 0 L 595.32 0 L 595.32 841.92 L .000008871 841.92 Z " fill-rule="evenodd"/>
</clipPath>
<g clip-path="url(#cp30882)">
<text xml:space="preserve" transform="matrix(1 0 -0 1 0 841.92)" font-size="14.04" font-family="Times New Roman"><tspan y="-192.86" x="346.99 353.95384 357.89906 364.1328 371.09666 377.3304 385.12263 389.79795 396.76179 400.707 406.94078 411.50376 418.56587 424.6873 428.6325 435.59635 441.8301 449.6223 456.58616 463.55">yicha Internetga bog</tspan></text>
</g>
<clipPath id="cp30883">
<path transform="matrix(1,0,0,-1,0,841.92)" d="M .000008871 0 L 595.32 0 L 595.32 841.92 L .000008871 841.92 Z " fill-rule="evenodd"/>
</clipPath>
<g clip-path="url(#cp30883)">
<text xml:space="preserve" transform="matrix(1 0 -0 1 0 841.92)" font-size="14.04" font-family="Times New Roman"><tspan y="-192.86" x="470.74">&#x2019;</tspan></text>
</g>
<clipPath id="cp30884">
<path transform="matrix(1,0,0,-1,0,841.92)" d="M .000008871 0 L 595.32 0 L 595.32 841.92 L .000008871 841.92 Z " fill-rule="evenodd"/>
</clipPath>
<g clip-path="url(#cp30884)">
<text xml:space="preserve" transform="matrix(1 0 -0 1 0 841.92)" font-size="14.04" font-family="Times New Roman"><tspan y="-192.86" x="475.3 479.2452 485.47898 492.4428 496.28977 501.79344 508.85554 516.64779 521.21078 528.1746 532.1199 538.35366 542.9166 549.97879 556.1002 559.9472">lanish Internet </tspan></text>
</g>
<clipPath id="cp30885">
<path transform="matrix(1,0,0,-1,0,841.92)" d="M .000008871 0 L 595.32 0 L 595.32 841.92 L .000008871 841.92 Z " fill-rule="evenodd"/>
</clipPath>
<g clip-path="url(#cp30885)">
<text xml:space="preserve" transform="matrix(1 0 -0 1 0 841.92)" font-size="14.04" font-family="Times New Roman"><tspan y="-168.74" x="85.104 92.166118 96.11136 102.345119 113.02956 119.26331 123.20856 127.1538 133.38756 137.95056 141.79752 148.85964 152.80487 156.16043 160.10567 166.22711 173.28923 180.25307 184.1983 194.88275 198.39275 204.71076 208.65599 215.61983 222.68195 228.80339 235.86551 239.81075 243.1663 250.22843 254.79143 261.85356 268.81739 275.05116 281.90266 288.96476 295.19853 299.87385 303.38386 310.40385 314.30696 318.21006 324.3596 331.4217 334.9317 345.58808 349.5333 353.38026 360.44236 366.67613 370.18614">xizmatlarini taqdim etuvchi provayder bilan mijoz o</tspan></text>
</g>
<clipPath id="cp30886">
<path transform="matrix(1,0,0,-1,0,841.92)" d="M .000008871 0 L 595.32 0 L 595.32 841.92 L .000008871 841.92 Z " fill-rule="evenodd"/>
</clipPath>
<g clip-path="url(#cp30886)">
<text xml:space="preserve" transform="matrix(1 0 -0 1 0 841.92)" font-size="14.04" font-family="Times New Roman"><tspan y="-168.74" x="377.59">&#x2019;</tspan></text>
</g>
<clipPath id="cp30887">
<path transform="matrix(1,0,0,-1,0,841.92)" d="M .000008871 0 L 595.32 0 L 595.32 841.92 L .000008871 841.92 Z " fill-rule="evenodd"/>
</clipPath>
<g clip-path="url(#cp30887)">
<text xml:space="preserve" transform="matrix(1 0 -0 1 0 841.92)" font-size="14.04" font-family="Times New Roman"><tspan y="-168.74" x="382.15 386.82533 390.77055 397.0043 402.4097 406.35493 413.41703 419.6508 423.1608 429.39457 440.05094 446.2847 450.22993 457.29203 463.5258 466.8954 473.85923 479.36289 486.32673 490.27195 494.83494 498.78016 502.72538 508.8468 515.81069 519.7559 523.2659">rtasida amalga oshiriladi. </tspan></text>
</g>
<clipPath id="cp30888">
<path transform="matrix(1,0,0,-1,0,841.92)" d="M .000008871 0 L 595.32 0 L 595.32 841.92 L .000008871 841.92 Z " fill-rule="evenodd"/>
</clipPath>
<g clip-path="url(#cp30888)">
<text xml:space="preserve" transform="matrix(1 0 -0 1 0 841.92)" font-size="14.04" font-family="Times New Roman"><tspan y="-168.74" x="526.9"> </tspan></text>
</g>
</g>
<g id="Layer-1" data-name="P">
<clipPath id="cp30889">
<path transform="matrix(1,0,0,-1,0,841.92)" d="M .000008871 0 L 595.32 0 L 595.32 841.92 L .000008871 841.92 Z " fill-rule="evenodd"/>
</clipPath>
<g clip-path="url(#cp30889)">
<text xml:space="preserve" transform="matrix(1 0 -0 1 0 841.92)" font-size="14.04" font-family="Times New Roman"><tspan y="-144.5" x="113.42 122.784679 129.73447 136.79659 143.8587 150.09247 154.29042 158.85343 165.91555 172.75302 179.81514 186.0489 189.99414">Bunda foydala</tspan></text>
</g>
<clipPath id="cp30890">
<path transform="matrix(1,0,0,-1,0,841.92)" d="M .000008871 0 L 595.32 0 L 595.32 841.92 L .000008871 841.92 Z " fill-rule="evenodd"/>
</clipPath>
<g clip-path="url(#cp30890)">
<text xml:space="preserve" transform="matrix(1 0 -0 1 0 841.92)" font-size="14.04" font-family="Times New Roman"><tspan y="-144.5" x="196.25 203.31212 210.27596 217.33808 223.45952 230.52164 234.36859 238.67887 249.36331 255.59708 262.67323 266.61845 270.56367 277.5275 281.47273 288.31019 292.4941 299.5562 306.61833 317.41508 321.599 326.27433 330.21955 337.28166 344.24549 348.09245 355.05628 359.7316 363.91554 370.97764 377.2114 381.5217 392.20616 398.4399 405.51606 410.19139 414.1366 420.97407 425.158 432.2201 438.45387 442.39909 449.3629 453.30815 457.49208 462.1674 469.24354 475.36497 480.04029 487.11643 490.96339 495.6387 499.82264 506.6601 513.7222 518.3975 525.4737 531.70748 542.39187 546.3371 553.39926 559.5207">nuvchi mantiqiy nom (login) va maxfiy belgi (parol) yordamida </tspan></text>
</g>
<clipPath id="cp30891">
<path transform="matrix(1,0,0,-1,0,841.92)" d="M .000008871 0 L 595.32 0 L 595.32 841.92 L .000008871 841.92 Z " fill-rule="evenodd"/>
</clipPath>
<g clip-path="url(#cp30891)">
<text xml:space="preserve" transform="matrix(1 0 -0 1 0 841.92)" font-size="14.04" font-family="Times New Roman"><tspan y="-120.38" x="85.104 89.77932 96.85548 100.70244 106.936199 111.61152 118.58939 124.82315 128.6701 135.73223 141.96599 145.33559 149.28083">Internetga to</tspan></text>
</g>
<clipPath id="cp30892">
<path transform="matrix(1,0,0,-1,0,841.92)" d="M .000008871 0 L 595.32 0 L 595.32 841.92 L .000008871 841.92 Z " fill-rule="evenodd"/>
</clipPath>
<g clip-path="url(#cp30892)">
<text xml:space="preserve" transform="matrix(1 0 -0 1 0 841.92)" font-size="14.04" font-family="Times New Roman"><tspan y="-120.38" x="156.38">&#x2019;</tspan></text>
</g>
<clipPath id="cp30893">
<path transform="matrix(1,0,0,-1,0,841.92)" d="M .000008871 0 L 595.32 0 L 595.32 841.92 L .000008871 841.92 Z " fill-rule="evenodd"/>
</clipPath>
<g clip-path="url(#cp30893)">
<text xml:space="preserve" transform="matrix(1 0 -0 1 0 841.92)" font-size="14.04" font-family="Times New Roman"><tspan y="-120.38" x="160.94">g</tspan></text>
</g>
<clipPath id="cp30894">
<path transform="matrix(1,0,0,-1,0,841.92)" d="M .000008871 0 L 595.32 0 L 595.32 841.92 L .000008871 841.92 Z " fill-rule="evenodd"/>
</clipPath>
<g clip-path="url(#cp30894)">
<text xml:space="preserve" transform="matrix(1 0 -0 1 0 841.92)" font-size="14.04" font-family="Times New Roman"><tspan y="-120.38" x="168.02">&#x2019;</tspan></text>
</g>
<clipPath id="cp30895">
<path transform="matrix(1,0,0,-1,0,841.92)" d="M .000008871 0 L 595.32 0 L 595.32 841.92 L .000008871 841.92 Z " fill-rule="evenodd"/>
</clipPath>
<g clip-path="url(#cp30895)">
<text xml:space="preserve" transform="matrix(1 0 -0 1 0 841.92)" font-size="14.04" font-family="Times New Roman"><tspan y="-120.38" x="172.58 177.25533 181.10228 188.1644 194.39817">ridan</tspan></text>
</g>
<clipPath id="cp30896">
<path transform="matrix(1,0,0,-1,0,841.92)" d="M .000008871 0 L 595.32 0 L 595.32 841.92 L .000008871 841.92 Z " fill-rule="evenodd"/>
</clipPath>
<g clip-path="url(#cp30896)">
<text xml:space="preserve" transform="matrix(1 0 -0 1 0 841.92)" font-size="14.04" font-family="Times New Roman"><tspan y="-120.38" x="201.41">-</tspan></text>
</g>
<clipPath id="cp30897">
<path transform="matrix(1,0,0,-1,0,841.92)" d="M .000008871 0 L 595.32 0 L 595.32 841.92 L .000008871 841.92 Z " fill-rule="evenodd"/>
</clipPath>
<g clip-path="url(#cp30897)">
<text xml:space="preserve" transform="matrix(1 0 -0 1 0 841.92)" font-size="14.04" font-family="Times New Roman"><tspan y="-120.38" x="205.97 209.93003">to</tspan></text>
</g>
<clipPath id="cp30898">
<path transform="matrix(1,0,0,-1,0,841.92)" d="M .000008871 0 L 595.32 0 L 595.32 841.92 L .000008871 841.92 Z " fill-rule="evenodd"/>
</clipPath>
<g clip-path="url(#cp30898)">
<text xml:space="preserve" transform="matrix(1 0 -0 1 0 841.92)" font-size="14.04" font-family="Times New Roman"><tspan y="-120.38" x="217.01">&#x2019;</tspan></text>
</g>
<clipPath id="cp30899">
<path transform="matrix(1,0,0,-1,0,841.92)" d="M .000008871 0 L 595.32 0 L 595.32 841.92 L .000008871 841.92 Z " fill-rule="evenodd"/>
</clipPath>
<g clip-path="url(#cp30899)">
<text xml:space="preserve" transform="matrix(1 0 -0 1 0 841.92)" font-size="14.04" font-family="Times New Roman"><tspan y="-120.38" x="221.57">g</tspan></text>
</g>
<clipPath id="cp30900">
<path transform="matrix(1,0,0,-1,0,841.92)" d="M .000008871 0 L 595.32 0 L 595.32 841.92 L .000008871 841.92 Z " fill-rule="evenodd"/>
</clipPath>
<g clip-path="url(#cp30900)">
<text xml:space="preserve" transform="matrix(1 0 -0 1 0 841.92)" font-size="14.04" font-family="Times New Roman"><tspan y="-120.38" x="228.65">&#x2019;</tspan></text>
</g>
<clipPath id="cp30901">
<path transform="matrix(1,0,0,-1,0,841.92)" d="M .000008871 0 L 595.32 0 L 595.32 841.92 L .000008871 841.92 Z " fill-rule="evenodd"/>
</clipPath>
<g clip-path="url(#cp30901)">
<text xml:space="preserve" transform="matrix(1 0 -0 1 0 841.92)" font-size="14.04" font-family="Times New Roman"><tspan y="-120.38" x="233.21 237.88533 241.83057 245.34056 252.27632 256.22157 262.343 269.4051 275.52653 282.58863 286.53385">ri ulanadi.</tspan></text>
</g>
<clipPath id="cp30902">
<path transform="matrix(1,0,0,-1,0,841.92)" d="M .000008871 0 L 595.32 0 L 595.32 841.92 L .000008871 841.92 Z " fill-rule="evenodd"/>
</clipPath>
<g clip-path="url(#cp30902)">
<text xml:space="preserve" transform="matrix(1 0 -0 1 0 841.92)" font-size="14.04" font-family="Times New Roman"><tspan y="-120.38" x="289.97"> </tspan></text>
</g>
</g>
<g id="Layer-1" data-name="P">
<clipPath id="cp30903">
<path transform="matrix(1,0,0,-1,0,841.92)" d="M .000008871 0 L 595.32 0 L 595.32 841.92 L .000008871 841.92 Z " fill-rule="evenodd"/>
</clipPath>
<g clip-path="url(#cp30903)">
<text xml:space="preserve" transform="matrix(1 0 -0 1 0 841.92)" font-size="14.04" font-family="Times New Roman"><tspan y="-96.264" x="113.42 125.90156 132.86539 139.9275 143.77446 147.7197 156.94397 163.17774 167.02469 174.0868 181.14893 187.38269 196.49465 203.55677 210.5206 216.02428 219.87123 223.81647 229.93791 233.78487 240.01863 244.69396 248.65325 257.87754 264.715 271.7771 276.45243 283.52857 289.76234 300.44679 304.392 311.4541 317.68788 326.9262 330.87144 337.83528 341.7805 348.01426 352.57725 359.63935 365.8731 369.72007 376.78218 383.01594 392.25428 399.2181 403.16334 409.28477 416.34687 420.19383 425.5992 432.66133 436.17134 445.36753 450.04286 457.119 460.96595 467.1997 471.7627 478.8248 485.05857 489.00379 498.2281 502.07505 508.3088 512.98416 523.6685 530.73068">Mobil aloqa vositalari yordamida internetga ulanish. Internet tarmog</tspan></text>
</g>
<clipPath id="cp30904">
<path transform="matrix(1,0,0,-1,0,841.92)" d="M .000008871 0 L 595.32 0 L 595.32 841.92 L .000008871 841.92 Z " fill-rule="evenodd"/>
</clipPath>
<g clip-path="url(#cp30904)">
<text xml:space="preserve" transform="matrix(1 0 -0 1 0 841.92)" font-size="14.04" font-family="Times New Roman"><tspan y="-96.264" x="538.3">&#x2019;</tspan></text>
</g>
<clipPath id="cp30905">
<path transform="matrix(1,0,0,-1,0,841.92)" d="M .000008871 0 L 595.32 0 L 595.32 841.92 L .000008871 841.92 Z " fill-rule="evenodd"/>
</clipPath>
<g clip-path="url(#cp30905)">
<text xml:space="preserve" transform="matrix(1 0 -0 1 0 841.92)" font-size="14.04" font-family="Times New Roman"><tspan y="-96.264" x="542.86 546.80526 553.8674 559.98886">iga </tspan></text>
</g>
<clipPath id="cp30906">
<path transform="matrix(1,0,0,-1,0,841.92)" d="M .000008871 0 L 595.32 0 L 595.32 841.92 L .000008871 841.92 Z " fill-rule="evenodd"/>
</clipPath>
<g clip-path="url(#cp30906)">
<text xml:space="preserve" transform="matrix(1 0 -0 1 0 841.92)" font-size="14.04" font-family="Times New Roman"><tspan y="-72.144" x="85.104 92.166118 98.39987 103.075199 109.21067 116.27279 122.394229 126.33947 131.3658 138.42792 144.54936 151.61148 157.84525 161.79048 166.8168 173.65428 180.7164 187.68024 191.62548 196.6518 200.59703 206.71848 210.66371 216.89748 221.46048 228.5226 235.58472 240.61104 244.458 248.30495 255.36707 259.3123 266.14976 272.3835 277.9012 281.84645 286.87278 293.93489 298.49787 305.55998 311.6814 315.62663 319.57185 324.4718 329.97547 333.9207 344.60514 348.55036 352.49559 357.5219 364.584 368.43098 374.66474 381.62858 385.5738 390.9792 398.0413 403.06764 413.75209 420.94056 431.625 438.6871 442.63233 449.69444 453.20445 458.2027 465.2648 471.49858 475.34553 482.30937 486.25459 491.40727 502.0917 509.1538 516.21597 520.0629 524.0082 529.0345 535.26828 539.11526 546.17739 553.14126">nafaqat kabel yoki telefon liniyasi orqali simli ulanish mumkin, balki mobil aloqa</tspan></text>
</g>
<clipPath id="cp30907">
<path transform="matrix(1,0,0,-1,0,841.92)" d="M .000008871 0 L 595.32 0 L 595.32 841.92 L .000008871 841.92 Z " fill-rule="evenodd"/>
</clipPath>
<g clip-path="url(#cp30907)">
<text xml:space="preserve" transform="matrix(1 0 -0 1 0 841.92)" font-size="14.04" font-family="Times New Roman"><tspan y="-72.144" x="560.02"> </tspan></text>
</g>
</g>
</g>
</g>
</svg>
