<?xml version="1.0" encoding="UTF-8" standalone="no"?>
<!DOCTYPE svg PUBLIC "-//W3C//DTD SVG 1.1//EN" "http://www.w3.org/Graphics/SVG/1.1/DTD/svg11.dtd">
<svg xmlns="http://www.w3.org/2000/svg" xmlns:xlink="http://www.w3.org/1999/xlink" version="1.1" width="595.32pt" height="841.92pt" viewBox="0 0 595.32 841.92">
<g enable-background="new">
<g>
<g id="Layer-1" data-name="Artifact">
<clipPath id="cp30908">
<path transform="matrix(1,0,0,-1,0,841.92)" d="M .000008871 0 L 595.32 0 L 595.32 841.92 L .000008871 841.92 Z " fill-rule="evenodd"/>
</clipPath>
<g clip-path="url(#cp30908)">
<text xml:space="preserve" transform="matrix(1 0 -0 1 0 841.92)" font-size="11.04" font-family="Calibri"><tspan y="-51.864" x="314.09 319.72999 325.36997">190</tspan></text>
</g>
<clipPath id="cp30909">
<path transform="matrix(1,0,0,-1,0,841.92)" d="M .000008871 0 L 595.32 0 L 595.32 841.92 L .000008871 841.92 Z " fill-rule="evenodd"/>
</clipPath>
<g clip-path="url(#cp30909)">
<text xml:space="preserve" transform="matrix(1 0 -0 1 0 841.92)" font-size="11.04" font-family="Calibri"><tspan y="-51.864" x="331.03"> </tspan></text>
</g>
<clipPath id="cp30910">
<path transform="matrix(1,0,0,-1,0,841.92)" d="M .000008871 0 L 595.32 0 L 595.32 841.92 L .000008871 841.92 Z " fill-rule="evenodd"/>
</clipPath>
<g clip-path="url(#cp30910)">
</g>
<clipPath id="cp30911">
<path transform="matrix(1,0,0,-1,0,841.92)" d="M .000008871 0 L 595.32 0 L 595.32 841.92 L .000008871 841.92 Z " fill-rule="evenodd"/>
</clipPath>
<g clip-path="url(#cp30911)">
<text xml:space="preserve" transform="matrix(1 0 -0 1 0 841.92)" font-size="11.04" font-family="Calibri"><tspan y="-38.4" x="85.104"> </tspan></text>
</g>
<clipPath id="cp30912">
<path transform="matrix(1,0,0,-1,0,841.92)" d="M .000008871 0 L 595.32 0 L 595.32 841.92 L .000008871 841.92 Z " fill-rule="evenodd"/>
</clipPath>
<g clip-path="url(#cp30912)">
</g>
</g>
<g id="Layer-1" data-name="P">
<clipPath id="cp30913">
<path transform="matrix(1,0,0,-1,0,841.92)" d="M .000008871 0 L 595.32 0 L 595.32 841.92 L .000008871 841.92 Z " fill-rule="evenodd"/>
</clipPath>
<g clip-path="url(#cp30913)">
<text xml:space="preserve" transform="matrix(1 0 -0 1 0 841.92)" font-size="14.04" font-family="Times New Roman"><tspan y="-772.56" x="85.104 92.166118 99.12995 104.535358 108.4806 112.42584 118.54728 122.49252 128.72629 133.28929 137.23453 146.22013 153.0576 160.11972 164.79505 171.87122 178.10498 188.78943 192.73467 199.79679 205.91823 214.90383 220.4075 224.35274 235.03719 240.54087 244.4861 250.71987 259.59315 266.55699 270.5022 276.62364 283.68574 287.53269 293.03636 300.00019 308.98579 315.94963 322.07106 332.7555 341.86747 352.6642 359.8527 370.53715 377.59925 381.54447 388.60658 392.11659 401.0741 405.6371 412.6992 416.6444 422.87818 427.44117 434.50328 440.6247 444.47166 453.45726 457.40248 463.63624 468.31156 478.996 486.0581">vositalari yordamida simsiz ulanish ham mumkin. Internet tarmog</tspan></text>
</g>
<clipPath id="cp30914">
<path transform="matrix(1,0,0,-1,0,841.92)" d="M .000008871 0 L 595.32 0 L 595.32 841.92 L .000008871 841.92 Z " fill-rule="evenodd"/>
</clipPath>
<g clip-path="url(#cp30914)">
<text xml:space="preserve" transform="matrix(1 0 -0 1 0 841.92)" font-size="14.04" font-family="Times New Roman"><tspan y="-772.56" x="493.66">&#x2019;</tspan></text>
</g>
<clipPath id="cp30915">
<path transform="matrix(1,0,0,-1,0,841.92)" d="M .000008871 0 L 595.32 0 L 595.32 841.92 L .000008871 841.92 Z " fill-rule="evenodd"/>
</clipPath>
<g clip-path="url(#cp30915)">
<text xml:space="preserve" transform="matrix(1 0 -0 1 0 841.92)" font-size="14.04" font-family="Times New Roman"><tspan y="-772.56" x="498.22 502.16523 509.22734 515.34878 524.33438 529.73977 533.685 544.3694 549.87307 553.8183 559.93978">iga simsiz </tspan></text>
</g>
<clipPath id="cp30916">
<path transform="matrix(1,0,0,-1,0,841.92)" d="M .000008871 0 L 595.32 0 L 595.32 841.92 L .000008871 841.92 Z " fill-rule="evenodd"/>
</clipPath>
<g clip-path="url(#cp30916)">
<text xml:space="preserve" transform="matrix(1 0 -0 1 0 841.92)" font-size="14.04" font-family="Times New Roman"><tspan y="-748.3" x="85.104 92.166118 96.11136 102.232799 109.19663 113.14188 118.54728 125.6094 132.19416 139.15799 146.22011 156.90456 164.09305 170.93053 177.99265 181.93788 188.17165 192.84697 199.44577 206.4096 211.08493 218.1611 224.28255 228.22779 232.17302 238.75777 245.59525 252.65737 259.71949 263.6647 270.24949 280.93394 287.99604 295.05815 299.00337 302.94859 309.53337 313.47859 319.6 323.44697 329.68074 334.35606 341.33393 348.39604 355.35987 359.20683 366.26893 373.33103 379.9158">ulanish kompyuter orqali yoki mobil telefonning o</tspan></text>
</g>
<clipPath id="cp30917">
<path transform="matrix(1,0,0,-1,0,841.92)" d="M .000008871 0 L 595.32 0 L 595.32 841.92 L .000008871 841.92 Z " fill-rule="evenodd"/>
</clipPath>
<g clip-path="url(#cp30917)">
<text xml:space="preserve" transform="matrix(1 0 -0 1 0 841.92)" font-size="14.04" font-family="Times New Roman"><tspan y="-748.3" x="387.43">&#x2019;</tspan></text>
</g>
<clipPath id="cp30918">
<path transform="matrix(1,0,0,-1,0,841.92)" d="M .000008871 0 L 595.32 0 L 595.32 841.92 L .000008871 841.92 Z " fill-rule="evenodd"/>
</clipPath>
<g clip-path="url(#cp30918)">
<text xml:space="preserve" transform="matrix(1 0 -0 1 0 841.92)" font-size="14.04" font-family="Times New Roman"><tspan y="-748.3" x="391.99 398.22377 402.0707 409.1328 415.36659 421.9654 428.19917 438.8836 445.2297 449.17494 456.23704 462.4708 468.94325 476.00535 481.41075 488.47285 492.41807 496.98106 500.828 504.77323 510.89466 517.9568 521.90206 525.41207 531.96878 542.0495 549.11166 555.2331 559.7961">zida amalga oshiriladi. Agar </tspan></text>
</g>
<clipPath id="cp30919">
<path transform="matrix(1,0,0,-1,0,841.92)" d="M .000008871 0 L 595.32 0 L 595.32 841.92 L .000008871 841.92 Z " fill-rule="evenodd"/>
</clipPath>
<g clip-path="url(#cp30919)">
<text xml:space="preserve" transform="matrix(1 0 -0 1 0 841.92)" font-size="14.04" font-family="Times New Roman"><tspan y="-724.18" x="85.104 92.166118 99.22823 109.912677 116.97479 123.81227 130.87439 134.81963 141.05339 145.72872 152.43984 159.50196 164.06496 171.12708 177.36084 181.2078 185.15303 191.86415 196.53948 203.50331 207.35027 213.58403 218.25936 225.33553 231.45697 235.4022 242.36605 248.59981 255.31093 260.71635 264.66157 275.346 280.84968 284.7949 291.02867 297.73979 304.80189 308.7471 314.86854 321.83238 325.67933 331.18299 338.2451 344.82987 351.89198 358.12574 362.80107 368.93656 375.99867 382.70979 389.6736">kompyuter orqali Internetga simsiz ulanish kerak bo</tspan></text>
</g>
<clipPath id="cp30920">
<path transform="matrix(1,0,0,-1,0,841.92)" d="M .000008871 0 L 595.32 0 L 595.32 841.92 L .000008871 841.92 Z " fill-rule="evenodd"/>
</clipPath>
<g clip-path="url(#cp30920)">
<text xml:space="preserve" transform="matrix(1 0 -0 1 0 841.92)" font-size="14.04" font-family="Times New Roman"><tspan y="-724.18" x="397.15">&#x2019;</tspan></text>
</g>
<clipPath id="cp30921">
<path transform="matrix(1,0,0,-1,0,841.92)" d="M .000008871 0 L 595.32 0 L 595.32 841.92 L .000008871 841.92 Z " fill-rule="evenodd"/>
</clipPath>
<g clip-path="url(#cp30921)">
<text xml:space="preserve" transform="matrix(1 0 -0 1 0 841.92)" font-size="14.04" font-family="Times New Roman"><tspan y="-724.18" x="401.71 405.6552 411.15888 417.39265 420.90266 427.5857 434.6478 441.23258 448.1964 455.2585 459.10548 466.16758 472.40135 479.11247 486.0763 493.1384 503.82286 510.88496 517.7225 524.7846 528.72988 534.9636 539.6389 546.7151 552.83657 559.8004">lsa, u holda kompyuterdan </tspan></text>
</g>
<clipPath id="cp30922">
<path transform="matrix(1,0,0,-1,0,841.92)" d="M .000008871 0 L 595.32 0 L 595.32 841.92 L .000008871 841.92 Z " fill-rule="evenodd"/>
</clipPath>
<g clip-path="url(#cp30922)">
<text xml:space="preserve" transform="matrix(1 0 -0 1 0 841.92)" font-size="14.04" font-family="Times New Roman"><tspan y="-700.06" x="85.104 89.04924 95.283 100.6884 107.65224 114.714359 120.94811 125.511119 129.45635 134.96002 139.63535 146.71152 150.55847 156.79224 161.46756 168.44545 174.67922 178.62445 184.12813 191.09197 195.0372 201.15865 211.95542">tashqari Internet xizma</tspan></text>
</g>
<clipPath id="cp30923">
<path transform="matrix(1,0,0,-1,0,841.92)" d="M .000008871 0 L 595.32 0 L 595.32 841.92 L .000008871 841.92 Z " fill-rule="evenodd"/>
</clipPath>
<g clip-path="url(#cp30923)">
<text xml:space="preserve" transform="matrix(1 0 -0 1 0 841.92)" font-size="14.04" font-family="Times New Roman"><tspan y="-700.06" x="218.33 222.27524 226.22048 232.45424 237.01725 240.96248 247.92632 251.87155 257.3752 262.8789 266.82414 273.0579 280.02174 287.08384 291.02906 301.7135 307.2172 313.45097 317.39619 324.45829 331.42213 337.65589 344.61973 348.56495 354.06864 361.13075 368.09458 374.32835 379.00367 385.13917 389.08439 396.14649 400.8218 406.3255 413.16297 420.22508 427.28718 431.2324 436.62376 443.68586 448.36119 455.325 462.38713 468.62089 475.47239 482.5345 488.76826 493.33125 500.39335 504.2403 511.20414 518.26626 523.7699 529.27359 533.2188 543.9032 549.40689 553.25387 559.4876">tlarini  taqdim etuvchi operator yoki provayderning simsiz </tspan></text>
</g>
<clipPath id="cp30924">
<path transform="matrix(1,0,0,-1,0,841.92)" d="M .000008871 0 L 595.32 0 L 595.32 841.92 L .000008871 841.92 Z " fill-rule="evenodd"/>
</clipPath>
<g clip-path="url(#cp30924)">
<text xml:space="preserve" transform="matrix(1 0 -0 1 0 841.92)" font-size="14.04" font-family="Times New Roman"><tspan y="-675.94" x="85.104 89.04924 94.45464 101.51676 105.36372 112.32756 119.38968 125.511119 132.57323 136.51847 140.02846 150.68483 157.74695 164.80907 171.04283 181.72728 185.67252 189.25272 196.0902 203.15232 210.21443 214.15967 217.51523 224.57735 231.54119 238.50502 245.56714 249.51238 252.86794 258.3716 265.33546 272.39756 275.7531 282.81523 289.04899 295.1704 299.11564 303.79096 309.91239 316.9745 320.9197 324.27528 331.33738 337.57115 341.4181 347.65187 352.32719 359.30506 366.36717 372.4886 379.45243 383.39765 386.90766 397.56404 404.62614 411.68824 415.63346 419.57868 422.93424 426.87947 433.11323 436.96018 443.0816 447.75694 454.83308 461.89518 465.25074 471.4845 478.44834 485.51045 491.7442 496.41954 502.55503 506.40199 510.3472 513.8572 520.09097 526.3247 530.87368 537.9358 542.6111 546.1211">ishlovchi modemi yoki xuddi shu vazifani bajaruvchi mobil telefon apparati zarur. </tspan></text>
</g>
<clipPath id="cp30925">
<path transform="matrix(1,0,0,-1,0,841.92)" d="M .000008871 0 L 595.32 0 L 595.32 841.92 L .000008871 841.92 Z " fill-rule="evenodd"/>
</clipPath>
<g clip-path="url(#cp30925)">
<text xml:space="preserve" transform="matrix(1 0 -0 1 0 841.92)" font-size="14.04" font-family="Times New Roman"><tspan y="-675.94" x="550.18"> </tspan></text>
</g>
</g>
<g id="Layer-1" data-name="P">
<clipPath id="cp30926">
<path transform="matrix(1,0,0,-1,0,841.92)" d="M .000008871 0 L 595.32 0 L 595.32 841.92 L .000008871 841.92 Z " fill-rule="evenodd"/>
</clipPath>
<g clip-path="url(#cp30926)">
<text xml:space="preserve" transform="matrix(1 0 -0 1 0 841.92)" font-size="14.04" font-family="Times New Roman"><tspan y="-651.7" x="113.42 123.50072 130.56284 136.7966 141.47193 152.14232 162.82677 169.88889 176.951 180.89624 184.84148 195.51187 199.35883 205.59259 209.53783 215.65927 220.3346 227.29843 234.26227 241.32439 245.17134 252.13518 259.1973 269.8677">Agar mobil telefonning o</tspan></text>
</g>
<clipPath id="cp30927">
<path transform="matrix(1,0,0,-1,0,841.92)" d="M .000008871 0 L 595.32 0 L 595.32 841.92 L .000008871 841.92 Z " fill-rule="evenodd"/>
</clipPath>
<g clip-path="url(#cp30927)">
<text xml:space="preserve" transform="matrix(1 0 -0 1 0 841.92)" font-size="14.04" font-family="Times New Roman"><tspan y="-651.7" x="277.13">&#x2019;</tspan></text>
</g>
<clipPath id="cp30928">
<path transform="matrix(1,0,0,-1,0,841.92)" d="M .000008871 0 L 595.32 0 L 595.32 841.92 L .000008871 841.92 Z " fill-rule="evenodd"/>
</clipPath>
<g clip-path="url(#cp30928)">
<text xml:space="preserve" transform="matrix(1 0 -0 1 0 841.92)" font-size="14.04" font-family="Times New Roman"><tspan y="-651.7" x="281.69 287.92378 291.869 298.83283 305.0666 315.737 319.58396 326.64607 331.32139 335.16835 342.23045 352.77449 357.4498 364.52595 368.3729 374.60667 379.28199 386.25987 392.49363 396.34059 403.40269 409.63645 420.30686 427.2707 434.23454">zida turib Internetga bog</tspan></text>
</g>
<clipPath id="cp30929">
<path transform="matrix(1,0,0,-1,0,841.92)" d="M .000008871 0 L 595.32 0 L 595.32 841.92 L .000008871 841.92 Z " fill-rule="evenodd"/>
</clipPath>
<g clip-path="url(#cp30929)">
<text xml:space="preserve" transform="matrix(1 0 -0 1 0 841.92)" font-size="14.04" font-family="Times New Roman"><tspan y="-651.7" x="441.46">&#x2019;</tspan></text>
</g>
<clipPath id="cp30930">
<path transform="matrix(1,0,0,-1,0,841.92)" d="M .000008871 0 L 595.32 0 L 595.32 841.92 L .000008871 841.92 Z " fill-rule="evenodd"/>
</clipPath>
<g clip-path="url(#cp30930)">
<text xml:space="preserve" transform="matrix(1 0 -0 1 0 841.92)" font-size="14.04" font-family="Times New Roman"><tspan y="-651.7" x="446.02 449.9652 456.19898 463.1628 467.00978 472.41517 479.47727 490.14768 496.98515 504.04725 511.10935 515.05459 525.725 532.68887 539.6527 546.71487 552.9486 559.9125">lanish yoki undan </tspan></text>
</g>
<clipPath id="cp30931">
<path transform="matrix(1,0,0,-1,0,841.92)" d="M .000008871 0 L 595.32 0 L 595.32 841.92 L .000008871 841.92 Z " fill-rule="evenodd"/>
</clipPath>
<g clip-path="url(#cp30931)">
<text xml:space="preserve" transform="matrix(1 0 -0 1 0 841.92)" font-size="14.04" font-family="Times New Roman"><tspan y="-627.58" x="85.104 89.77932 96.85548 103.692958 110.75507 116.98883 120.934078 127.05551 134.11763 137.96459 143.36998 150.4321 161.45349 168.51561 174.74938 179.4247 185.56018 192.6223 203.64369 210.70581">foydalanish kerak bo</tspan></text>
</g>
<clipPath id="cp30932">
<path transform="matrix(1,0,0,-1,0,841.92)" d="M .000008871 0 L 595.32 0 L 595.32 841.92 L .000008871 841.92 Z " fill-rule="evenodd"/>
</clipPath>
<g clip-path="url(#cp30932)">
<text xml:space="preserve" transform="matrix(1 0 -0 1 0 841.92)" font-size="14.04" font-family="Times New Roman"><tspan y="-627.58" x="217.97">&#x2019;</tspan></text>
</g>
<clipPath id="cp30933">
<path transform="matrix(1,0,0,-1,0,841.92)" d="M .000008871 0 L 595.32 0 L 595.32 841.92 L .000008871 841.92 Z " fill-rule="evenodd"/>
</clipPath>
<g clip-path="url(#cp30933)">
<text xml:space="preserve" transform="matrix(1 0 -0 1 0 841.92)" font-size="14.04" font-family="Times New Roman"><tspan y="-627.58" x="222.53 226.37696 231.88063 238.1144 241.62439 252.63175 259.69386 270.71528 277.6791 284.7412 288.58818 295.65028 301.88404 312.9195 317.59483 324.55867 328.50389 334.73765 339.30064 346.36274 352.5965 356.54173 367.4508 374.5129">lsa, u holda Internet xi</tspan></text>
</g>
<clipPath id="cp30934">
<path transform="matrix(1,0,0,-1,0,841.92)" d="M .000008871 0 L 595.32 0 L 595.32 841.92 L .000008871 841.92 Z " fill-rule="evenodd"/>
</clipPath>
<g clip-path="url(#cp30934)">
<text xml:space="preserve" transform="matrix(1 0 -0 1 0 841.92)" font-size="14.04" font-family="Times New Roman"><tspan y="-627.58" x="378.67 384.90379 395.58824 401.822 405.7672 409.71244 415.9462 420.5092 424.35615 431.41825 435.36347 446.27256 453.33467">zmatlarini ko</tspan></text>
</g>
<clipPath id="cp30935">
<path transform="matrix(1,0,0,-1,0,841.92)" d="M .000008871 0 L 595.32 0 L 595.32 841.92 L .000008871 841.92 Z " fill-rule="evenodd"/>
</clipPath>
<g clip-path="url(#cp30935)">
<text xml:space="preserve" transform="matrix(1 0 -0 1 0 841.92)" font-size="14.04" font-family="Times New Roman"><tspan y="-627.58" x="460.54">&#x2019;</tspan></text>
</g>
<clipPath id="cp30936">
<path transform="matrix(1,0,0,-1,0,841.92)" d="M .000008871 0 L 595.32 0 L 595.32 841.92 L .000008871 841.92 Z " fill-rule="evenodd"/>
</clipPath>
<g clip-path="url(#cp30936)">
<text xml:space="preserve" transform="matrix(1 0 -0 1 0 841.92)" font-size="14.04" font-family="Times New Roman"><tspan y="-627.58" x="465.1 469.77534 475.279 481.40043 485.24739 492.30949 499.27333 505.50709 512.47097 516.4162 527.56399 538.24838 545.3105 552.3726 556.09329 559.94027">rsatuvchi mobil </tspan></text>
</g>
<clipPath id="cp30937">
<path transform="matrix(1,0,0,-1,0,841.92)" d="M .000008871 0 L 595.32 0 L 595.32 841.92 L .000008871 841.92 Z " fill-rule="evenodd"/>
</clipPath>
<g clip-path="url(#cp30937)">
<text xml:space="preserve" transform="matrix(1 0 -0 1 0 841.92)" font-size="14.04" font-family="Times New Roman"><tspan y="-603.46" x="85.104 92.166118 99.12995 105.36371 110.03903 116.27279 120.13379 127.19591 131.75891 138.72275 142.66799 149.63182 156.69394 163.75606 174.4405 178.38574 182.2327 189.29482 195.52858 199.47382 206.53594 213.59806">operatorning mijozi bo</tspan></text>
</g>
<clipPath id="cp30938">
<path transform="matrix(1,0,0,-1,0,841.92)" d="M .000008871 0 L 595.32 0 L 595.32 841.92 L .000008871 841.92 Z " fill-rule="evenodd"/>
</clipPath>
<g clip-path="url(#cp30938)">
<text xml:space="preserve" transform="matrix(1 0 -0 1 0 841.92)" font-size="14.04" font-family="Times New Roman"><tspan y="-603.46" x="220.85">&#x2019;</tspan></text>
</g>
<clipPath id="cp30939">
<path transform="matrix(1,0,0,-1,0,841.92)" d="M .000008871 0 L 595.32 0 L 595.32 841.92 L .000008871 841.92 Z " fill-rule="evenodd"/>
</clipPath>
<g clip-path="url(#cp30939)">
<text xml:space="preserve" transform="matrix(1 0 -0 1 0 841.92)" font-size="14.04" font-family="Times New Roman"><tspan y="-603.46" x="225.41 229.25696 233.2022 238.60759 245.66971 249.51667 256.4805 263.5426 267.38957 273.62333 280.6995 287.7616 293.99537 301.07154 308.03538 315.09748 322.0613 328.18275 335.24488 345.3256 353.13185 362.49653 370.30278 377.35087 384.41297 388.3582 394.59196 405.2764 411.51017 415.45539 419.4006 426.58909 433.42655 440.48866 447.45249 451.3977 455.24467 462.30677 468.4282 475.4903 482.55244 489.61454">lishingiz va unda GPRS xizmati yoqilgan bo</tspan></text>
</g>
<clipPath id="cp30940">
<path transform="matrix(1,0,0,-1,0,841.92)" d="M .000008871 0 L 595.32 0 L 595.32 841.92 L .000008871 841.92 Z " fill-rule="evenodd"/>
</clipPath>
<g clip-path="url(#cp30940)">
<text xml:space="preserve" transform="matrix(1 0 -0 1 0 841.92)" font-size="14.04" font-family="Times New Roman"><tspan y="-603.46" x="497.02">&#x2019;</tspan></text>
</g>
<clipPath id="cp30941">
<path transform="matrix(1,0,0,-1,0,841.92)" d="M .000008871 0 L 595.32 0 L 595.32 841.92 L .000008871 841.92 Z " fill-rule="evenodd"/>
</clipPath>
<g clip-path="url(#cp30941)">
<text xml:space="preserve" transform="matrix(1 0 -0 1 0 841.92)" font-size="14.04" font-family="Times New Roman"><tspan y="-603.46" x="501.58 505.42695 509.37217 514.7776 521.74148 525.6867 532.74887 536.6941 542.92788 546.77487 553.0086 559.9725">lishi talab </tspan></text>
</g>
<clipPath id="cp30942">
<path transform="matrix(1,0,0,-1,0,841.92)" d="M .000008871 0 L 595.32 0 L 595.32 841.92 L .000008871 841.92 Z " fill-rule="evenodd"/>
</clipPath>
<g clip-path="url(#cp30942)">
<text xml:space="preserve" transform="matrix(1 0 -0 1 0 841.92)" font-size="14.04" font-family="Times New Roman"><tspan y="-579.34" x="85.104 92.166118 96.01308 99.95832 103.80528 110.8674 116.98884 123.952678 127.89792 131.40792">qilinadi. </tspan></text>
</g>
</g>
<g id="Layer-1" data-name="P">
<clipPath id="cp30943">
<path transform="matrix(1,0,0,-1,0,841.92)" d="M .000008871 0 L 595.32 0 L 595.32 841.92 L .000008871 841.92 Z " fill-rule="evenodd"/>
</clipPath>
<g clip-path="url(#cp30943)">
<text xml:space="preserve" transform="matrix(1 0 -0 1 0 841.92)" font-size="14.04" font-family="Times New Roman"><tspan y="-579.34" x="141.02 153.50157 160.46541 167.42925 171.37448 175.31972 184.78267 191.01644 194.86339 201.82723 208.88935 215.12311 224.6001 231.66222 238.62606 244.03145 247.97669 251.92192 258.04335 261.98857 268.22233 272.7853 276.73054 286.31986 293.15733 300.21943 304.89476 311.9709 318.09233 328.77677 332.722 339.7841 346.01786 355.60719 360.2825 367.35865 371.30387 377.4253 382.10063 389.17677 395.2982 399.14515 406.20726 412.32868 419.39079 428.9801 433.5431 440.50694 447.3444 454.4065 460.64027 464.58549 470.81925 477.78309 481.7283 485.57527 492.63737 498.7588 505.8209 512.7847 519.0185 528.60787 541.6932 551.7739 559.58016">Mobil aloqa vositalari yordamida Internetdan foydalanilganda WAP </tspan></text>
</g>
</g>
<g id="Layer-1" data-name="P">
<clipPath id="cp30944">
<path transform="matrix(1,0,0,-1,0,841.92)" d="M .000008871 0 L 595.32 0 L 595.32 841.92 L .000008871 841.92 Z " fill-rule="evenodd"/>
</clipPath>
<g clip-path="url(#cp30944)">
<text xml:space="preserve" transform="matrix(1 0 -0 1 0 841.92)" font-size="14.04" font-family="Times New Roman"><tspan y="-555.07" x="85.104 89.04924 95.283 102.24683 109.21067 116.27279 120.11975 127.08359 134.1457 138.09095 144.92842 151.16219 156.67992 160.62516 172.13794 176.08318 183.04701 186.99225 193.22602 197.78902 204.75286 210.98662 214.93186 221.89569 228.12946 235.20563 246.71842 252.22209 256.16734 266.85179 272.35545 276.30067 282.53443 294.17359 298.8489 305.92506 312.7625 319.82463 325.94606 329.89128 336.12504 343.08888 346.93583 352.43949 359.5016 371.1267 375.07194 385.75639 392.81849 399.78233 406.84443 410.69139 417.6552 421.60044 433.22557 440.28767 446.4091 451.0844 457.31819 464.29606 468.24128 471.75129 483.34834 495.8299 502.79374 509.85585 513.7028 517.6481 529.2732 535.50698 539.35397 546.4161 553.37997">texnologiyasi internetdan simsiz foydalanish imkonini beradi. Mobil aloqa</tspan></text>
</g>
</g>
<g id="Layer-1" data-name="P">
<clipPath id="cp30945">
<path transform="matrix(1,0,0,-1,0,841.92)" d="M .000008871 0 L 595.32 0 L 595.32 841.92 L .000008871 841.92 Z " fill-rule="evenodd"/>
</clipPath>
<g clip-path="url(#cp30945)">
<text xml:space="preserve" transform="matrix(1 0 -0 1 0 841.92)" font-size="14.04" font-family="Times New Roman"><tspan y="-555.07" x="560.02"> </tspan></text>
</g>
</g>
<g id="Layer-1" data-name="P">
<clipPath id="cp30946">
<path transform="matrix(1,0,0,-1,0,841.92)" d="M .000008871 0 L 595.32 0 L 595.32 841.92 L .000008871 841.92 Z " fill-rule="evenodd"/>
</clipPath>
<g clip-path="url(#cp30946)">
<text xml:space="preserve" transform="matrix(1 0 -0 1 0 841.92)" font-size="14.04" font-family="Times New Roman"><tspan y="-530.95" x="85.104 89.04924 95.283 99.95832 110.64276 117.70488 124.767 128.71224 134.946 139.509 143.35596 150.41808 156.65184 169.48439 174.88979">tarmoqlarida so</tspan></text>
</g>
</g>
<g id="Layer-1" data-name="P">
<clipPath id="cp30947">
<path transform="matrix(1,0,0,-1,0,841.92)" d="M .000008871 0 L 595.32 0 L 595.32 841.92 L .000008871 841.92 Z " fill-rule="evenodd"/>
</clipPath>
<g clip-path="url(#cp30947)">
<text xml:space="preserve" transform="matrix(1 0 -0 1 0 841.92)" font-size="14.04" font-family="Times New Roman"><tspan y="-530.95" x="182.06">&#x2019;</tspan></text>
</g>
</g>
<g id="Layer-1" data-name="P">
<clipPath id="cp30948">
<path transform="matrix(1,0,0,-1,0,841.92)" d="M .000008871 0 L 595.32 0 L 595.32 841.92 L .000008871 841.92 Z " fill-rule="evenodd"/>
</clipPath>
<g clip-path="url(#cp30948)">
<text xml:space="preserve" transform="matrix(1 0 -0 1 0 841.92)" font-size="14.04" font-family="Times New Roman"><tspan y="-530.95" x="186.62 191.29532 198.25916 205.22299 209.16823 215.402 219.965 227.02712 230.97235 243.67855 250.74066 256.97444 269.807 280.49147">rovlarni va ma</tspan></text>
</g>
</g>
<g id="Layer-1" data-name="P">
<clipPath id="cp30949">
<path transform="matrix(1,0,0,-1,0,841.92)" d="M .000008871 0 L 595.32 0 L 595.32 841.92 L .000008871 841.92 Z " fill-rule="evenodd"/>
</clipPath>
<g clip-path="url(#cp30949)">
<text xml:space="preserve" transform="matrix(1 0 -0 1 0 841.92)" font-size="14.04" font-family="Times New Roman"><tspan y="-530.95" x="286.97">&#x2019;</tspan></text>
</g>
</g>
<g id="Layer-1" data-name="P">
<clipPath id="cp30950">
<path transform="matrix(1,0,0,-1,0,841.92)" d="M .000008871 0 L 595.32 0 L 595.32 841.92 L .000008871 841.92 Z " fill-rule="evenodd"/>
</clipPath>
<g clip-path="url(#cp30950)">
<text xml:space="preserve" transform="matrix(1 0 -0 1 0 841.92)" font-size="14.04" font-family="Times New Roman"><tspan y="-530.95" x="291.53 295.47523 302.53733 313.22178 320.28388 324.2291 328.17433 334.40809 338.97108 346.03318 349.9784 362.6846 369.7467 375.98048 382.1019 386.04713 389.89408 395.29948 402.36158 415.19416 422.25627 428.3777 435.34153 442.30537 449.36747 462.20005 472.28077 480.087 489.4517 497.25794 510.06245 514.0077 518.683 524.80447 531.7683 537.272 544.23587 551.298 555.86099 559.70797">lumotlarni uzatish uchun GPRS transport </tspan></text>
</g>
</g>
<g id="Layer-1" data-name="P">
<clipPath id="cp30951">
<path transform="matrix(1,0,0,-1,0,841.92)" d="M .000008871 0 L 595.32 0 L 595.32 841.92 L .000008871 841.92 Z " fill-rule="evenodd"/>
</clipPath>
<g clip-path="url(#cp30951)">
<text xml:space="preserve" transform="matrix(1 0 -0 1 0 841.92)" font-size="14.04" font-family="Times New Roman"><tspan y="-506.83" x="85.104 92.166118 96.11136 102.345119 113.02956 119.26331 123.20856 127.05552 134.11763 140.23908 147.3012 150.81119 155.48651 162.50652 169.38613 176.44824 182.682 186.52896 192.76273 199.72657 203.6718 207.51876 213.75252 220.82869 224.77393">xizmatidan foydalaniladi.</tspan></text>
</g>
</g>
<g id="Layer-1" data-name="P">
<clipPath id="cp30952">
<path transform="matrix(1,0,0,-1,0,841.92)" d="M .000008871 0 L 595.32 0 L 595.32 841.92 L .000008871 841.92 Z " fill-rule="evenodd"/>
</clipPath>
<g clip-path="url(#cp30952)">
<text xml:space="preserve" transform="matrix(1 0 -0 1 0 841.92)" font-size="14.04" font-family="Times New Roman"><tspan y="-506.83" x="228.29"> </tspan></text>
</g>
</g>
<g id="Layer-1" data-name="P">
<clipPath id="cp30953">
<path transform="matrix(1,0,0,-1,0,841.92)" d="M .000008871 0 L 595.32 0 L 595.32 841.92 L .000008871 841.92 Z " fill-rule="evenodd"/>
</clipPath>
<g clip-path="url(#cp30953)">
<text xml:space="preserve" transform="matrix(1 0 -0 1 0 841.92)" font-size="14.04" font-family="Times New Roman,Bold" font-weight="bold"><tspan y="-482.71" x="113.42 126.6176 133.67972 141.48596 147.71973 159.24657 166.19637 170.87169 178.67794 184.18161 191.98786 199.7941 207.60034 213.8341 221.49996 228.56208 233.96747 237.9127 244.8625 251.82634 258.88847 265.83827 273.6445 281.32438 285.2696 292.94947 300.01158 306.96138 313.9252 320.9873 327.10874 331.05397 335.61695 342.67906 348.08445 352.02967">Modem tushunchasi va uning vazifasi.</tspan></text>
</g>
<clipPath id="cp30954">
<path transform="matrix(1,0,0,-1,0,841.92)" d="M .000008871 0 L 595.32 0 L 595.32 841.92 L .000008871 841.92 Z " fill-rule="evenodd"/>
</clipPath>
<g clip-path="url(#cp30954)">
<text xml:space="preserve" transform="matrix(1 0 -0 1 0 841.92)" font-size="14.04" font-family="Times New Roman"><tspan y="-482.71" x="355.63"> </tspan></text>
</g>
<clipPath id="cp30955">
<path transform="matrix(1,0,0,-1,0,841.92)" d="M .000008871 0 L 595.32 0 L 595.32 841.92 L .000008871 841.92 Z " fill-rule="evenodd"/>
</clipPath>
<g clip-path="url(#cp30955)">
<text xml:space="preserve" transform="matrix(1 0 -0 1 0 841.92)" font-size="14.04" font-family="Times New Roman"><tspan y="-482.71" x="362.59 375.07157 382.0354 389.0975 395.33128 406.01573 413.07786 423.7623 430.8244 437.8865 444.9486 448.89384 455.7313 461.96507 465.91029 472.97239">Modem modulyator</tspan></text>
</g>
<clipPath id="cp30956">
<path transform="matrix(1,0,0,-1,0,841.92)" d="M .000008871 0 L 595.32 0 L 595.32 841.92 L .000008871 841.92 Z " fill-rule="evenodd"/>
</clipPath>
<g clip-path="url(#cp30956)">
<text xml:space="preserve" transform="matrix(1 0 -0 1 0 841.92)" font-size="14.04" font-family="Times New Roman"><tspan y="-482.71" x="477.7">-</tspan></text>
</g>
<clipPath id="cp30957">
<path transform="matrix(1,0,0,-1,0,841.92)" d="M .000008871 0 L 595.32 0 L 595.32 841.92 L .000008871 841.92 Z " fill-rule="evenodd"/>
</clipPath>
<g clip-path="url(#cp30957)">
<text xml:space="preserve" transform="matrix(1 0 -0 1 0 841.92)" font-size="14.04" font-family="Times New Roman"><tspan y="-482.71" x="482.38 489.4421 495.67588 506.36033 513.4224 520.48458 527.4484 531.3937 538.2312 544.46499 548.4102 555.3741 559.9371">demodulyator </tspan></text>
</g>
<clipPath id="cp30958">
<path transform="matrix(1,0,0,-1,0,841.92)" d="M .000008871 0 L 595.32 0 L 595.32 841.92 L .000008871 841.92 Z " fill-rule="evenodd"/>
</clipPath>
<g clip-path="url(#cp30958)">
<text xml:space="preserve" transform="matrix(1 0 -0 1 0 841.92)" font-size="14.04" font-family="Times New Roman"><tspan y="-458.47" x="85.104 90.623958">so</tspan></text>
</g>
<clipPath id="cp30959">
<path transform="matrix(1,0,0,-1,0,841.92)" d="M .000008871 0 L 595.32 0 L 595.32 841.92 L .000008871 841.92 Z " fill-rule="evenodd"/>
</clipPath>
<g clip-path="url(#cp30959)">
<text xml:space="preserve" transform="matrix(1 0 -0 1 0 841.92)" font-size="14.04" font-family="Times New Roman"><tspan y="-458.47" x="97.704">&#x2019;</tspan></text>
</g>
<clipPath id="cp30960">
<path transform="matrix(1,0,0,-1,0,841.92)" d="M .000008871 0 L 595.32 0 L 595.32 841.92 L .000008871 841.92 Z " fill-rule="evenodd"/>
</clipPath>
<g clip-path="url(#cp30960)">
<text xml:space="preserve" transform="matrix(1 0 -0 1 0 841.92)" font-size="14.04" font-family="Times New Roman"><tspan y="-458.47" x="102.26 108.49376 112.439 118.56044 123.23576 127.082729 134.14484 137.99179 144.95563 152.01775 167.2371 174.29923 178.14618 183.55158 190.6137 196.84746 201.52278 205.36974 216.1665 222.40027 227.918 231.86324 247.0826 254.14472 257.99168 263.49534 270.45918 277.423 281.36824 287.48966 294.55177 300.78553 307.74937 311.69459 315.05015 330.39588 340.4766 345.98027 352.9441 359.90794 366.97004 382.1894 389.2515 396.3136 400.8766 404.72355 408.66877 419.3532 425.58699 432.66313 436.60835 443.67045 450.63429 465.98 472.21379 477.61918 484.583 490.08668 494.0319 500.86936 516.2151 523.2772 529.511 535.63247 539.5777 544.253 550.37448 555.6535 559.5005">zlarining qisqartmasi hisoblanadi. Ushbu qurilmaning asosiy vazifasi </tspan></text>
</g>
<clipPath id="cp30961">
<path transform="matrix(1,0,0,-1,0,841.92)" d="M .000008871 0 L 595.32 0 L 595.32 841.92 L .000008871 841.92 Z " fill-rule="evenodd"/>
</clipPath>
<g clip-path="url(#cp30961)">
<text xml:space="preserve" transform="matrix(1 0 -0 1 0 841.92)" font-size="14.04" font-family="Times New Roman"><tspan y="-434.35" x="85.104 92.166118 99.22823 109.912677 116.97479 123.81227 130.87439 134.81963 141.05339 145.72872 152.80489 158.92633 165.98845 169.82137 176.7852 180.63216 184.5774 191.54123 198.60335 204.7248 211.78691 215.61983 220.29515 226.52892 233.5068 239.74057 250.42502 254.37026 258.3155 262.1484 267.65208 271.49903 278.56114 285.52497 291.75874 295.60569 302.6678 306.613 310.31959 317.38169 323.5031 329.73689 333.6821 337.52906 342.93446 349.99656 353.82948 360.89158 367.013 373.97685 381.03895 388.10105 391.93397 398.0554 405.1175 411.23893 415.18415 422.14799 429.21009 433.043 438.4484 445.41224 451.646 458.72215 462.5691 466.41606 473.47816 479.7119 483.54484 489.7786 496.6301 500.57533 506.80909 513.77297 517.7182 521.66348 526.22647 530.0734 535.5771 542.6392 546.34579 553.30966 559.4311">kompyuterdan olingan raqamli signalni uzatish uchun analog shakliga aylantirish va </tspan></text>
</g>
<clipPath id="cp30962">
<path transform="matrix(1,0,0,-1,0,841.92)" d="M .000008871 0 L 595.32 0 L 595.32 841.92 L .000008871 841.92 Z " fill-rule="evenodd"/>
</clipPath>
<g clip-path="url(#cp30962)">
<text xml:space="preserve" transform="matrix(1 0 -0 1 0 841.92)" font-size="14.04" font-family="Times New Roman"><tspan y="-410.23" x="85.104 92.166118 98.28755 105.34967 112.31351 116.25875 119.76875 126.704509 130.64974 134.49669 138.34365 145.40576 152.3696 158.60337 165.67954 169.0351 174.53878 178.38573 185.34957 192.41168 198.64545 202.4924 209.55452 213.49976 217.00975 223.10312 230.16524 236.28668 240.23192 247.19576 254.25788 257.76789 263.13117 270.19328 276.3147 283.27854 287.22377 294.28587 300.4073 307.4694 310.9794 315.65473 321.74809 328.81019 335.04396 345.7284 349.6736 353.61885 357.12886 362.5904 369.61039 375.84416 382.7799 386.72514 393.68898 399.92274 403.43275 410.45274 416.71458 423.55204 427.49726 433.73103 438.294 442.14097 447.64463 454.70674">qabul qilingan signalni analog shakldan raqamli shaklga qaytarish </tspan></text>
</g>
<clipPath id="cp30963">
<path transform="matrix(1,0,0,-1,0,841.92)" d="M .000008871 0 L 595.32 0 L 595.32 841.92 L .000008871 841.92 Z " fill-rule="evenodd"/>
</clipPath>
<g clip-path="url(#cp30963)">
<text xml:space="preserve" transform="matrix(1 0 -0 1 0 841.92)" font-size="14.04" font-family="Times New Roman"><tspan y="-410.23" x="458.5"> </tspan></text>
</g>
</g>
<g id="Layer-1" data-name="P">
<clipPath id="cp30964">
<path transform="matrix(1,0,0,-1,0,841.92)" d="M .000008871 0 L 595.32 0 L 595.32 841.92 L .000008871 841.92 Z " fill-rule="evenodd"/>
</clipPath>
<g clip-path="url(#cp30964)">
<text xml:space="preserve" transform="matrix(1 0 -0 1 0 841.92)" font-size="14.04" font-family="Times New Roman"><tspan y="-386.09" x="85.104 92.166118 98.39987 109.08431 116.14643 122.38019 132.33455 138.56832 142.41527 149.47739 156.5395 162.66095 172.60126 179.5651 185.79886 192.87503 198.99648 202.84343 206.69039 212.92415 217.59947 221.55876 231.38675 238.44887">hamda aloqa kanallari bo</tspan></text>
</g>
<clipPath id="cp30965">
<path transform="matrix(1,0,0,-1,0,841.92)" d="M .000008871 0 L 595.32 0 L 595.32 841.92 L .000008871 841.92 Z " fill-rule="evenodd"/>
</clipPath>
<g clip-path="url(#cp30965)">
<text xml:space="preserve" transform="matrix(1 0 -0 1 0 841.92)" font-size="14.04" font-family="Times New Roman"><tspan y="-386.09" x="245.69">&#x2019;</tspan></text>
</g>
<clipPath id="cp30966">
<path transform="matrix(1,0,0,-1,0,841.92)" d="M .000008871 0 L 595.32 0 L 595.32 841.92 L .000008871 841.92 Z " fill-rule="evenodd"/>
</clipPath>
<g clip-path="url(#cp30966)">
<text xml:space="preserve" transform="matrix(1 0 -0 1 0 841.92)" font-size="14.04" font-family="Times New Roman"><tspan y="-386.09" x="250.25 257.08747 261.03269 267.26646 274.3426 284.28294 291.24678 297.48054 303.60197 307.54719 311.39414 316.8978">ylab uzatish</tspan></text>
</g>
<clipPath id="cp30967">
<path transform="matrix(1,0,0,-1,0,841.92)" d="M .000008871 0 L 595.32 0 L 595.32 841.92 L .000008871 841.92 Z " fill-rule="evenodd"/>
</clipPath>
<g clip-path="url(#cp30967)">
<text xml:space="preserve" transform="matrix(1 0 -0 1 0 841.92)" font-size="14.04" font-family="Times New Roman"><tspan y="-386.09" x="323.95 331.01213 337.13356 344.19566 354.136 357.98295 364.94679 372.00889 376.6842 382.80564 386.75086 390.26087 400.17314 412.6547 419.61854 426.68064 432.9144 443.59886 453.53919 459.04286 462.8898 469.85365 476.91575 483.1495 486.99647 493.9603 497.90553 507.84587 512.5212 518.64266 525.6065 532.66867 539.7308 544.29379 551.2576 555.2029 559.76589">dan iborat. Modem signalni (axborot) </tspan></text>
</g>
<clipPath id="cp30968">
<path transform="matrix(1,0,0,-1,0,841.92)" d="M .000008871 0 L 595.32 0 L 595.32 841.92 L .000008871 841.92 Z " fill-rule="evenodd"/>
</clipPath>
<g clip-path="url(#cp30968)">
<text xml:space="preserve" transform="matrix(1 0 -0 1 0 841.92)" font-size="14.04" font-family="Times New Roman"><tspan y="-361.97" x="85.104 89.04924 95.283 99.12996 105.363719 112.32755 119.38967 130.18643 140.87088 147.933 154.99512 158.94036 166.00247 172.12392 176.06916 181.47455 185.41979 192.25727 198.49103 202.00102 209.02103 215.17055 222.23267 228.46643 232.31339 236.25862 242.49239 247.16771 250.53731 257.59944">telekommunikatsiya kanallar bo</tspan></text>
</g>
<clipPath id="cp30969">
<path transform="matrix(1,0,0,-1,0,841.92)" d="M .000008871 0 L 595.32 0 L 595.32 841.92 L .000008871 841.92 Z " fill-rule="evenodd"/>
</clipPath>
<g clip-path="url(#cp30969)">
<text xml:space="preserve" transform="matrix(1 0 -0 1 0 841.92)" font-size="14.04" font-family="Times New Roman"><tspan y="-361.97" x="264.89">&#x2019;</tspan></text>
</g>
<clipPath id="cp30970">
<path transform="matrix(1,0,0,-1,0,841.92)" d="M .000008871 0 L 595.32 0 L 595.32 841.92 L .000008871 841.92 Z " fill-rule="evenodd"/>
</clipPath>
<g clip-path="url(#cp30970)">
<text xml:space="preserve" transform="matrix(1 0 -0 1 0 841.92)" font-size="14.04" font-family="Times New Roman"><tspan y="-361.97" x="269.45 276.28749 280.2327 286.46647 293.5426 297.0526 304.0726 310.22215 316.4559 320.30287 324.1498 329.65348 336.6173 343.58116 347.52638 351.03639 354.93949">ylab uzatishni ta</tspan></text>
</g>
<clipPath id="cp30971">
<path transform="matrix(1,0,0,-1,0,841.92)" d="M .000008871 0 L 595.32 0 L 595.32 841.92 L .000008871 841.92 Z " fill-rule="evenodd"/>
</clipPath>
<g clip-path="url(#cp30971)">
<text xml:space="preserve" transform="matrix(1 0 -0 1 0 841.92)" font-size="14.04" font-family="Times New Roman"><tspan y="-361.97" x="361.27">&#x2019;</tspan></text>
</g>
<clipPath id="cp30972">
<path transform="matrix(1,0,0,-1,0,841.92)" d="M .000008871 0 L 595.32 0 L 595.32 841.92 L .000008871 841.92 Z " fill-rule="evenodd"/>
</clipPath>
<g clip-path="url(#cp30972)">
<text xml:space="preserve" transform="matrix(1 0 -0 1 0 841.92)" font-size="14.04" font-family="Times New Roman"><tspan y="-361.97" x="365.83 376.51445 380.45967 387.52177 391.46699 397.70075 404.55226 411.61436 415.55958 419.06959">minlaydi. </tspan></text>
</g>
<clipPath id="cp30973">
<path transform="matrix(1,0,0,-1,0,841.92)" d="M .000008871 0 L 595.32 0 L 595.32 841.92 L .000008871 841.92 Z " fill-rule="evenodd"/>
</clipPath>
<g clip-path="url(#cp30973)">
<text xml:space="preserve" transform="matrix(1 0 -0 1 0 841.92)" font-size="14.04" font-family="Times New Roman"><tspan y="-361.97" x="422.59"> </tspan></text>
</g>
</g>
<g id="Layer-1" data-name="P">
<clipPath id="cp30974">
<path transform="matrix(1,0,0,-1,0,841.92)" d="M .000008871 0 L 595.32 0 L 595.32 841.92 L .000008871 841.92 Z " fill-rule="evenodd"/>
</clipPath>
<g clip-path="url(#cp30974)">
<text xml:space="preserve" transform="matrix(1 0 -0 1 0 841.92)" font-size="14.04" font-family="Times New Roman"><tspan y="-337.73" x="113.42 125.90156 132.86539 139.9275 146.16127 156.84572 161.74567 165.6909 171.92467 179.00084 186.06296 190.0082 194.79582 201.85794 208.0917 213.0057 216.95095 223.07239 228.57607 235.5399 242.60202 246.54726 251.4472 255.29416 262.35627 266.91926 270.86448 277.09825 281.66123 288.72334 294.9571 299.8711 306.83494">Modem ichki va tashqi turlarga bo</tspan></text>
</g>
<clipPath id="cp30975">
<path transform="matrix(1,0,0,-1,0,841.92)" d="M .000008871 0 L 595.32 0 L 595.32 841.92 L .000008871 841.92 Z " fill-rule="evenodd"/>
</clipPath>
<g clip-path="url(#cp30975)">
<text xml:space="preserve" transform="matrix(1 0 -0 1 0 841.92)" font-size="14.04" font-family="Times New Roman"><tspan y="-337.73" x="314.21">&#x2019;</tspan></text>
</g>
<clipPath id="cp30976">
<path transform="matrix(1,0,0,-1,0,841.92)" d="M .000008871 0 L 595.32 0 L 595.32 841.92 L .000008871 841.92 Z " fill-rule="evenodd"/>
</clipPath>
<g clip-path="url(#cp30976)">
<text xml:space="preserve" transform="matrix(1 0 -0 1 0 841.92)" font-size="14.04" font-family="Times New Roman"><tspan y="-337.73" x="318.79 322.73524 326.58219 333.6443 339.76573 346.82783 350.77305 355.5607 362.6228 368.85658 373.77058 380.83268 387.06645 391.74177 396.54347 400.48869 407.4525 414.51463 420.63606 424.58128 430.7027 436.20637 440.15159 445.05155 452.01539 458.24916 469.05995 473.9599 477.90513 484.96723 488.91246 495.03388 499.7092 506.78535 512.9068 516.7538 523.8159 530.0497 534.9637 541.8012 548.86337 555.8272 559.6742">linadi va har ikkalasi ham internetga yoki </tspan></text>
</g>
<clipPath id="cp30977">
<path transform="matrix(1,0,0,-1,0,841.92)" d="M .000008871 0 L 595.32 0 L 595.32 841.92 L .000008871 841.92 Z " fill-rule="evenodd"/>
</clipPath>
<g clip-path="url(#cp30977)">
<text xml:space="preserve" transform="matrix(1 0 -0 1 0 841.92)" font-size="14.04" font-family="Times New Roman"><tspan y="-313.61" x="85.104 89.04924 95.283 99.12996 105.363719 112.32755 119.38967 130.18643 140.87088 147.933 154.99512 158.94036 166.00247 172.12392 176.06916 181.47455 185.41979 192.25727 198.49103 202.00102 205.90415 212.13791 216.84131 227.52576 234.58788 241.65 245.59523 251.829 256.5043 260.35127 267.41337 273.64714 277.01673 284.07884 287.92579 294.15956 301.12339 305.0686 310.474 317.5361 320.89167 327.8555 334.08927 341.0531 348.1152 355.1773 358.53288 365.59498 369.5402 375.77397 386.4584 392.69218 396.6374 400.1474 407.08317 411.02839 414.9736 421.09504 428.05888 432.0041">telekommunikatsiya tarmoqlariga ulanish uchun xizmat qiladi.</tspan></text>
</g>
<clipPath id="cp30978">
<path transform="matrix(1,0,0,-1,0,841.92)" d="M .000008871 0 L 595.32 0 L 595.32 841.92 L .000008871 841.92 Z " fill-rule="evenodd"/>
</clipPath>
<g clip-path="url(#cp30978)">
<text xml:space="preserve" transform="matrix(1 0 -0 1 0 841.92)" font-size="14.04" font-family="Times New Roman"><tspan y="-313.61" x="435.91"> </tspan></text>
</g>
</g>
<g id="Layer-1" data-name="P">
<clipPath id="cp30979">
<path transform="matrix(1,0,0,-1,0,841.92)" d="M .000008871 0 L 595.32 0 L 595.32 841.92 L .000008871 841.92 Z " fill-rule="evenodd"/>
</clipPath>
<g clip-path="url(#cp30979)">
<text xml:space="preserve" transform="matrix(1 0 -0 1 0 841.92)" font-size="14.04" font-family="Times New Roman,Bold" font-weight="bold"><tspan y="-289.25" x="113.42">O</tspan></text>
</g>
<clipPath id="cp30980">
<path transform="matrix(1,0,0,-1,0,841.92)" d="M .000008871 0 L 595.32 0 L 595.32 841.92 L .000008871 841.92 Z " fill-rule="evenodd"/>
</clipPath>
<g clip-path="url(#cp30980)">
<text xml:space="preserve" transform="matrix(1 0 -0 1 0 841.92)" font-size="14.04" font-family="Times New Roman,Bold" font-weight="bold"><tspan y="-289.25" x="124.34">&#x2019;</tspan></text>
</g>
<clipPath id="cp30981">
<path transform="matrix(1,0,0,-1,0,841.92)" d="M .000008871 0 L 595.32 0 L 595.32 841.92 L .000008871 841.92 Z " fill-rule="evenodd"/>
</clipPath>
<g clip-path="url(#cp30981)">
<text xml:space="preserve" transform="matrix(1 0 -0 1 0 841.92)" font-size="14.04" font-family="Times New Roman,Bold" font-weight="bold"><tspan y="-289.25" x="129.02 135.25377 143.06002 149.29378 156.86135 160.80658 166.31026 170.98558 178.06175 185.868 203.85323 213.93395 220.05539 225.55907 233.23896 241.0452 248.85144 252.78264 256.72789">zbekiston Respublik</tspan></text>
</g>
<clipPath id="cp30982">
<path transform="matrix(1,0,0,-1,0,841.92)" d="M .000008871 0 L 595.32 0 L 595.32 841.92 L .000008871 841.92 Z " fill-rule="evenodd"/>
</clipPath>
<g clip-path="url(#cp30982)">
<text xml:space="preserve" transform="matrix(1 0 -0 1 0 841.92)" font-size="14.04" font-family="Times New Roman,Bold" font-weight="bold"><tspan y="-289.25" x="264.41 271.4721 276.97578 280.921 288.60087 295.5647 302.6268 306.57203 324.44496 329.9486 337.75486 342.43019 348.5516 354.67304 362.47929 368.71305 373.38838 391.37364 396.04896 403.1251 409.35887 420.88569 427.84953">asidagi Internet tarmog</tspan></text>
</g>
<clipPath id="cp30983">
<path transform="matrix(1,0,0,-1,0,841.92)" d="M .000008871 0 L 595.32 0 L 595.32 841.92 L .000008871 841.92 Z " fill-rule="evenodd"/>
</clipPath>
<g clip-path="url(#cp30983)">
<text xml:space="preserve" transform="matrix(1 0 -0 1 0 841.92)" font-size="14.04" font-family="Times New Roman,Bold" font-weight="bold"><tspan y="-289.25" x="435.07">&#x2019;</tspan></text>
</g>
<clipPath id="cp30984">
<path transform="matrix(1,0,0,-1,0,841.92)" d="M .000008871 0 L 595.32 0 L 595.32 841.92 L .000008871 841.92 Z " fill-rule="evenodd"/>
</clipPath>
<g clip-path="url(#cp30984)">
<text xml:space="preserve" transform="matrix(1 0 -0 1 0 841.92)" font-size="14.04" font-family="Times New Roman,Bold" font-weight="bold"><tspan y="-289.25" x="439.75 443.69523 451.3751 455.3203 463.00019 469.96403 487.94929 494.18305 498.12828 505.0921 512.15426 516.7172 520.6625 527.62637 535.43258 539.2655 544.76919 552.5754 556.5206">ining rivojlanishi.</tspan></text>
</g>
<clipPath id="cp30985">
<path transform="matrix(1,0,0,-1,0,841.92)" d="M .000008871 0 L 595.32 0 L 595.32 841.92 L .000008871 841.92 Z " fill-rule="evenodd"/>
</clipPath>
<g clip-path="url(#cp30985)">
<text xml:space="preserve" transform="matrix(1 0 -0 1 0 841.92)" font-size="14.04" font-family="Times New Roman"><tspan y="-289.25" x="560.02"> </tspan></text>
</g>
<clipPath id="cp30986">
<path transform="matrix(1,0,0,-1,0,841.92)" d="M .000008871 0 L 595.32 0 L 595.32 841.92 L .000008871 841.92 Z " fill-rule="evenodd"/>
</clipPath>
<g clip-path="url(#cp30986)">
<text xml:space="preserve" transform="matrix(1 0 -0 1 0 841.92)" font-size="14.04" font-family="Times New Roman"><tspan y="-265.37" x="85.104 94.46867 100.70243 106.107837 113.16995 120.13379 127.097629 131.04286 134.88982 141.95194 148.1857 158.87015 162.81539 169.04915 176.12532 182.35909 190.99369 201.67813 205.62337 209.5686 213.41556 217.3608 224.19828 232.81884 237.49416 244.57033 248.51557 254.74933 259.31233 266.37443 272.49586">Respublikamizda milliy Internet</tspan></text>
</g>
<clipPath id="cp30987">
<path transform="matrix(1,0,0,-1,0,841.92)" d="M .000008871 0 L 595.32 0 L 595.32 841.92 L .000008871 841.92 Z " fill-rule="evenodd"/>
</clipPath>
<g clip-path="url(#cp30987)">
<text xml:space="preserve" transform="matrix(1 0 -0 1 0 841.92)" font-size="14.04" font-family="Times New Roman"><tspan y="-265.37" x="276.65">-</tspan></text>
</g>
<clipPath id="cp30988">
<path transform="matrix(1,0,0,-1,0,841.92)" d="M .000008871 0 L 595.32 0 L 595.32 841.92 L .000008871 841.92 Z " fill-rule="evenodd"/>
</clipPath>
<g clip-path="url(#cp30988)">
<text xml:space="preserve" transform="matrix(1 0 -0 1 0 841.92)" font-size="14.04" font-family="Times New Roman"><tspan y="-265.37" x="281.33 286.73539 292.96916 300.0453 310.72975 316.9635 324.03965 327.8866 331.83183 338.79566 342.74089 351.36146 356.03678 359.88374 366.84757 373.90968 377.75663 381.70185 387.82328 394.88539 398.73234 402.67756 407.24055 411.18577 416.59117 423.65327 432.1615 439.2236">segmentini rivojlantirish bo</tspan></text>
</g>
<clipPath id="cp30989">
<path transform="matrix(1,0,0,-1,0,841.92)" d="M .000008871 0 L 595.32 0 L 595.32 841.92 L .000008871 841.92 Z " fill-rule="evenodd"/>
</clipPath>
<g clip-path="url(#cp30989)">
<text xml:space="preserve" transform="matrix(1 0 -0 1 0 841.92)" font-size="14.04" font-family="Times New Roman"><tspan y="-265.37" x="446.38">&#x2019;</tspan></text>
</g>
<clipPath id="cp30990">
<path transform="matrix(1,0,0,-1,0,841.92)" d="M .000008871 0 L 595.32 0 L 595.32 841.92 L .000008871 841.92 Z " fill-rule="evenodd"/>
</clipPath>
<g clip-path="url(#cp30990)">
<text xml:space="preserve" transform="matrix(1 0 -0 1 0 841.92)" font-size="14.04" font-family="Times New Roman"><tspan y="-265.37" x="451.06 457.89747 461.84269 468.07646 475.1526 481.38636 490.02098 493.86793 499.37159 506.33543 510.28065 516.5144 521.1897 529.8243">yicha ishlar O</tspan></text>
</g>
<clipPath id="cp30991">
<path transform="matrix(1,0,0,-1,0,841.92)" d="M .000008871 0 L 595.32 0 L 595.32 841.92 L .000008871 841.92 Z " fill-rule="evenodd"/>
</clipPath>
<g clip-path="url(#cp30991)">
<text xml:space="preserve" transform="matrix(1 0 -0 1 0 841.92)" font-size="14.04" font-family="Times New Roman"><tspan y="-265.37" x="539.98">&#x2019;</tspan></text>
</g>
<clipPath id="cp30992">
<path transform="matrix(1,0,0,-1,0,841.92)" d="M .000008871 0 L 595.32 0 L 595.32 841.92 L .000008871 841.92 Z " fill-rule="evenodd"/>
</clipPath>
<g clip-path="url(#cp30992)">
<text xml:space="preserve" transform="matrix(1 0 -0 1 0 841.92)" font-size="14.04" font-family="Times New Roman"><tspan y="-265.37" x="544.54 550.77377 560.0261">zR </tspan></text>
</g>
<clipPath id="cp30993">
<path transform="matrix(1,0,0,-1,0,841.92)" d="M .000008871 0 L 595.32 0 L 595.32 841.92 L .000008871 841.92 Z " fill-rule="evenodd"/>
</clipPath>
<g clip-path="url(#cp30993)">
<text xml:space="preserve" transform="matrix(1 0 -0 1 0 841.92)" font-size="14.04" font-family="Times New Roman"><tspan y="-241.13" x="85.104 95.184719 101.41847 107.65223 111.61151 116.286838 120.1338 126.36755 131.04288 136.67292 149.15448 155.27593 162.33805 169.30188 175.53565 186.2201 192.45386 197.97159 201.91683 208.97895 212.8259 219.78974 226.85186 232.48189 238.60334 248.68405 255.87255 266.55699 273.74546 280.58293 287.64503 291.59025 297.824 302.387 306.3322 312.56599 317.97138 325.03349 328.88044 332.82566 337.38865 341.33387 346.73927 353.80137 360.7652 364.71043 370.34046 377.17793 383.41169 390.48783 396.7216 403.79774 410.0315 415.66154 420.22453 424.07148 431.13359 438.0974 441.94438 445.8896 452.12336 459.0872 463.0324 466.97764 471.54063 475.38758 480.89125 487.95335 493.45704 500.51914 506.7529 512.38296 518.6167 525.58059 532.54446 539.60659 544.16958 551.2317">Vazirlar Mahkamasining &#x201c;Kompyuterlashtirishni yanada rivojlantirish va axborot</tspan></text>
</g>
<clipPath id="cp30994">
<path transform="matrix(1,0,0,-1,0,841.92)" d="M .000008871 0 L 595.32 0 L 595.32 841.92 L .000008871 841.92 Z " fill-rule="evenodd"/>
</clipPath>
<g clip-path="url(#cp30994)">
<text xml:space="preserve" transform="matrix(1 0 -0 1 0 841.92)" font-size="14.04" font-family="Times New Roman"><tspan y="-241.13" x="555.58">-</tspan></text>
</g>
<clipPath id="cp30995">
<path transform="matrix(1,0,0,-1,0,841.92)" d="M .000008871 0 L 595.32 0 L 595.32 841.92 L .000008871 841.92 Z " fill-rule="evenodd"/>
</clipPath>
<g clip-path="url(#cp30995)">
<text xml:space="preserve" transform="matrix(1 0 -0 1 0 841.92)" font-size="14.04" font-family="Times New Roman"><tspan y="-216.98" x="85.104 92.166118 99.22823 110.024997 120.709438 127.77155 134.83367 138.7789 145.74274 151.9765 155.82346 161.32714 165.27237 172.10985 178.34362 182.28885 186.23409 192.35553 199.41765 206.38149 213.4436 217.29056 224.2544 231.31652 235.26175 242.09923 248.333 252.27823 258.512 263.07499 267.0202 273.98405 277.92927 281.8745 285.72148 292.78358 297.34657 301.29179 308.12925 312.0745 318.30827 322.25349 326.10044 331.6041 338.6662 342.61146 348.73289 355.69673 362.75883 367.43415">kommunikatsiya texnologiyalarini joriy etish chora</tspan></text>
</g>
<clipPath id="cp30996">
<path transform="matrix(1,0,0,-1,0,841.92)" d="M .000008871 0 L 595.32 0 L 595.32 841.92 L .000008871 841.92 Z " fill-rule="evenodd"/>
</clipPath>
<g clip-path="url(#cp30996)">
<text xml:space="preserve" transform="matrix(1 0 -0 1 0 841.92)" font-size="14.04" font-family="Times New Roman"><tspan y="-216.98" x="374.11">-</tspan></text>
</g>
<clipPath id="cp30997">
<path transform="matrix(1,0,0,-1,0,841.92)" d="M .000008871 0 L 595.32 0 L 595.32 841.92 L .000008871 841.92 Z " fill-rule="evenodd"/>
</clipPath>
<g clip-path="url(#cp30997)">
<text xml:space="preserve" transform="matrix(1 0 -0 1 0 841.92)" font-size="14.04" font-family="Times New Roman"><tspan y="-216.98" x="378.67 382.61524 388.73667">tad</tspan></text>
</g>
<clipPath id="cp30998">
<path transform="matrix(1,0,0,-1,0,841.92)" d="M .000008871 0 L 595.32 0 L 595.32 841.92 L .000008871 841.92 Z " fill-rule="evenodd"/>
</clipPath>
<g clip-path="url(#cp30998)">
<text xml:space="preserve" transform="matrix(1 0 -0 1 0 841.92)" font-size="14.04" font-family="Times New Roman"><tspan y="-216.98" x="395.83 402.79383 406.73905 411.30204 415.24726 421.48103 426.044 429.98924 433.93449 437.78144">birlari to</tspan></text>
</g>
<clipPath id="cp30999">
<path transform="matrix(1,0,0,-1,0,841.92)" d="M .000008871 0 L 595.32 0 L 595.32 841.92 L .000008871 841.92 Z " fill-rule="evenodd"/>
</clipPath>
<g clip-path="url(#cp30999)">
<text xml:space="preserve" transform="matrix(1 0 -0 1 0 841.92)" font-size="14.04" font-family="Times New Roman"><tspan y="-216.98" x="444.82">&#x2019;</tspan></text>
</g>
<clipPath id="cp31000">
<path transform="matrix(1,0,0,-1,0,841.92)" d="M .000008871 0 L 595.32 0 L 595.32 841.92 L .000008871 841.92 Z " fill-rule="evenodd"/>
</clipPath>
<g clip-path="url(#cp31000)">
<text xml:space="preserve" transform="matrix(1 0 -0 1 0 841.92)" font-size="14.04" font-family="Times New Roman"><tspan y="-216.98" x="449.38">g</tspan></text>
</g>
<clipPath id="cp31001">
<path transform="matrix(1,0,0,-1,0,841.92)" d="M .000008871 0 L 595.32 0 L 595.32 841.92 L .000008871 841.92 Z " fill-rule="evenodd"/>
</clipPath>
<g clip-path="url(#cp31001)">
<text xml:space="preserve" transform="matrix(1 0 -0 1 0 841.92)" font-size="14.04" font-family="Times New Roman"><tspan y="-216.98" x="456.46">&#x2019;</tspan></text>
</g>
<clipPath id="cp31002">
<path transform="matrix(1,0,0,-1,0,841.92)" d="M .000008871 0 L 595.32 0 L 595.32 841.92 L .000008871 841.92 Z " fill-rule="evenodd"/>
</clipPath>
<g clip-path="url(#cp31002)">
<text xml:space="preserve" transform="matrix(1 0 -0 1 0 841.92)" font-size="14.04" font-family="Times New Roman"><tspan y="-216.98" x="461.02 465.6953 469.64054 475.1442 478.99116 486.05326 492.28703 498.52079 502.3537 509.4158 516.37966 523.3435 530.40567 534.3509 541.1884 545.13369 549.0789 552.91189 559.87576">risida&#x201d; 2002 yil 6 </tspan></text>
</g>
<clipPath id="cp31003">
<path transform="matrix(1,0,0,-1,0,841.92)" d="M .000008871 0 L 595.32 0 L 595.32 841.92 L .000008871 841.92 Z " fill-rule="evenodd"/>
</clipPath>
<g clip-path="url(#cp31003)">
<text xml:space="preserve" transform="matrix(1 0 -0 1 0 841.92)" font-size="14.04" font-family="Times New Roman"><tspan y="-192.86" x="85.104 89.04924 95.88672 102.94884 110.010959 117.073078 123.19451 130.15834 134.10358 137.9365 144.90033 151.86417">iyundagi 200</tspan></text>
</g>
<clipPath id="cp31004">
<path transform="matrix(1,0,0,-1,0,841.92)" d="M .000008871 0 L 595.32 0 L 595.32 841.92 L .000008871 841.92 Z " fill-rule="evenodd"/>
</clipPath>
<g clip-path="url(#cp31004)">
<text xml:space="preserve" transform="matrix(1 0 -0 1 0 841.92)" font-size="14.04" font-family="Times New Roman"><tspan y="-192.86" x="159.02">-</tspan></text>
</g>
<clipPath id="cp31005">
<path transform="matrix(1,0,0,-1,0,841.92)" d="M .000008871 0 L 595.32 0 L 595.32 841.92 L .000008871 841.92 Z " fill-rule="evenodd"/>
</clipPath>
<g clip-path="url(#cp31005)">
<text xml:space="preserve" transform="matrix(1 0 -0 1 0 841.92)" font-size="14.04" font-family="Times New Roman"><tspan y="-192.86" x="163.7 169.1054 176.06923 183.13135 186.96427 194.02639 200.26015 204.82315 211.88527 216.5606 220.50583 224.21239 231.2745 235.12146 239.0667 245.18814 252.25026 256.08317 259.9301 266.16389 271.56929 278.63139 282.47834 289.44218 293.3874 299.50883 306.57093 313.63304 319.75447 326.7183 330.66355 336.65864 343.72074 350.78285 357.74668">son qarori bilan tasdiqlangan &#x201c;2002</tspan></text>
</g>
<clipPath id="cp31006">
<path transform="matrix(1,0,0,-1,0,841.92)" d="M .000008871 0 L 595.32 0 L 595.32 841.92 L .000008871 841.92 Z " fill-rule="evenodd"/>
</clipPath>
<g clip-path="url(#cp31006)">
<text xml:space="preserve" transform="matrix(1 0 -0 1 0 841.92)" font-size="14.04" font-family="Times New Roman"><tspan y="-192.86" x="365.11">-</tspan></text>
</g>
<clipPath id="cp31007">
<path transform="matrix(1,0,0,-1,0,841.92)" d="M .000008871 0 L 595.32 0 L 595.32 841.92 L .000008871 841.92 Z " fill-rule="evenodd"/>
</clipPath>
<g clip-path="url(#cp31007)">
<text xml:space="preserve" transform="matrix(1 0 -0 1 0 841.92)" font-size="14.04" font-family="Times New Roman"><tspan y="-192.86" x="369.67 376.73213 383.69596 390.6598 397.7219 401.5548 408.39228 412.3375 416.2827 420.22795 426.4617 431.0247 438.0868 444.32057 448.02714 455.08924 462.15135 472.8358 479.8979 486.73536 493.79747 497.74269 503.97645 508.65177 512.611 518.7325 524.1379 531.2 535.047 538.99227 543.66757 547.5145 552.7936 559.75747">2010 yillarda kompyuterlashtirish </tspan></text>
</g>
<clipPath id="cp31008">
<path transform="matrix(1,0,0,-1,0,841.92)" d="M .000008871 0 L 595.32 0 L 595.32 841.92 L .000008871 841.92 Z " fill-rule="evenodd"/>
</clipPath>
<g clip-path="url(#cp31008)">
<text xml:space="preserve" transform="matrix(1 0 -0 1 0 841.92)" font-size="14.04" font-family="Times New Roman"><tspan y="-168.74" x="85.104 92.166118 98.39987 110.03903 116.16047 123.124309 130.18642 137.24854 141.81154 148.77538">va axborot</tspan></text>
</g>
<clipPath id="cp31009">
<path transform="matrix(1,0,0,-1,0,841.92)" d="M .000008871 0 L 595.32 0 L 595.32 841.92 L .000008871 841.92 Z " fill-rule="evenodd"/>
</clipPath>
<g clip-path="url(#cp31009)">
<text xml:space="preserve" transform="matrix(1 0 -0 1 0 841.92)" font-size="14.04" font-family="Times New Roman"><tspan y="-168.74" x="152.78">-</tspan></text>
</g>
<clipPath id="cp31010">
<path transform="matrix(1,0,0,-1,0,841.92)" d="M .000008871 0 L 595.32 0 L 595.32 841.92 L .000008871 841.92 Z " fill-rule="evenodd"/>
</clipPath>
<g clip-path="url(#cp31010)">
<text xml:space="preserve" transform="matrix(1 0 -0 1 0 841.92)" font-size="14.04" font-family="Times New Roman"><tspan y="-168.74" x="157.46 164.42385 171.48596 182.28273 192.96718 200.0293 207.09142 211.03665 218.09877 224.22022 228.06717 233.57085 237.51609 244.35356 250.58733 262.22648 266.1717 272.29313 279.35523 286.31907 293.2829 297.22813 304.19197 311.1558 315.101 321.93849 328.28459 332.2298 338.46357 343.02656 346.97178 353.9356 357.88084 369.50596 374.06895 378.01417 384.978 392.0401 395.88706 399.83229 405.9537 412.91755 416.86277 420.80799 425.37098 429.3162 434.7216 441.68544 453.31056 460.37266 466.49409 471.99775 475.8447 482.9068 487.4698 491.415 497.64878 504.6126 510.84638 522.48556 528.607 534.11068 541.0745 546.5782 552.57327 559.5371">kommunikatsiya texnologiyalarini rivojlantirish dasturi&#x201d;ga asosan </tspan></text>
</g>
<clipPath id="cp31011">
<path transform="matrix(1,0,0,-1,0,841.92)" d="M .000008871 0 L 595.32 0 L 595.32 841.92 L .000008871 841.92 Z " fill-rule="evenodd"/>
</clipPath>
<g clip-path="url(#cp31011)">
<text xml:space="preserve" transform="matrix(1 0 -0 1 0 841.92)" font-size="14.04" font-family="Times New Roman"><tspan y="-144.5" x="85.104 91.45007 102.134517 108.36827 112.313518 119.37563 125.60939 128.97899 136.0411 141.4465 148.50862 152.35558 157.0309 160.87786 164.82309 175.50754 182.56966 189.63178 196.6939 202.92766">amalga oshirilmoqda.</tspan></text>
</g>
<clipPath id="cp31012">
<path transform="matrix(1,0,0,-1,0,841.92)" d="M .000008871 0 L 595.32 0 L 595.32 841.92 L .000008871 841.92 Z " fill-rule="evenodd"/>
</clipPath>
<g clip-path="url(#cp31012)">
<text xml:space="preserve" transform="matrix(1 0 -0 1 0 841.92)" font-size="14.04" font-family="Times New Roman"><tspan y="-144.5" x="206.45"> </tspan></text>
</g>
</g>
<g id="Layer-1" data-name="P">
<clipPath id="cp31013">
<path transform="matrix(1,0,0,-1,0,841.92)" d="M .000008871 0 L 595.32 0 L 595.32 841.92 L .000008871 841.92 Z " fill-rule="evenodd"/>
</clipPath>
<g clip-path="url(#cp31013)">
<text xml:space="preserve" transform="matrix(1 0 -0 1 0 841.92)" font-size="14.04" font-family="Times New Roman"><tspan y="-120.38" x="113.42 122.784679 129.01844 134.42383 141.48595 148.44979 155.41362 159.35886 163.20581 170.26793 176.5017 192.81616 196.7614 202.88285 206.82808 212.94953 219.91336 226.8772 237.80033 248.47074 255.53285 262.59498 266.5402 273.6023 279.72373 283.66896 289.07435 293.01957 299.85704 306.0908 322.40528 326.3505 330.29573 336.52949 340.37644 351.06089 355.0061 361.23988 365.9152 369.87446 376.93656 380.88179 397.18223">Respublika telekommunikatsiya tizimlarini m</tspan></text>
</g>
<clipPath id="cp31014">
<path transform="matrix(1,0,0,-1,0,841.92)" d="M .000008871 0 L 595.32 0 L 595.32 841.92 L .000008871 841.92 Z " fill-rule="evenodd"/>
</clipPath>
<g clip-path="url(#cp31014)">
<text xml:space="preserve" transform="matrix(1 0 -0 1 0 841.92)" font-size="14.04" font-family="Times New Roman"><tspan y="-120.38" x="408.19 415.2521 422.3142 428.54798 433.2233 440.20118 444.1464 450.38017 456.5016 460.34855 465.8522 469.79743 476.6349 482.86866 499.18315 506.24525 510.19047 514.0374 517.8844 523.38809 530.4502 546.6383 553.70046 559.8219">odernizatsiya qilish va </tspan></text>
</g>
<clipPath id="cp31015">
<path transform="matrix(1,0,0,-1,0,841.92)" d="M .000008871 0 L 595.32 0 L 595.32 841.92 L .000008871 841.92 Z " fill-rule="evenodd"/>
</clipPath>
<g clip-path="url(#cp31015)">
<text xml:space="preserve" transform="matrix(1 0 -0 1 0 841.92)" font-size="14.04" font-family="Times New Roman"><tspan y="-96.264" x="85.104 89.77932 93.72456 100.6884 107.75052 111.59748 115.542728 121.66416 128.62799 132.57323 136.51847 141.08147 144.92842 150.4321 157.49422 169.83538 176.79921">rivojlantirish bo</tspan></text>
</g>
<clipPath id="cp31016">
<path transform="matrix(1,0,0,-1,0,841.92)" d="M .000008871 0 L 595.32 0 L 595.32 841.92 L .000008871 841.92 Z " fill-rule="evenodd"/>
</clipPath>
<g clip-path="url(#cp31016)">
<text xml:space="preserve" transform="matrix(1 0 -0 1 0 841.92)" font-size="14.04" font-family="Times New Roman"><tspan y="-96.264" x="183.98">&#x2019;</tspan></text>
</g>
<clipPath id="cp31017">
<path transform="matrix(1,0,0,-1,0,841.92)" d="M .000008871 0 L 595.32 0 L 595.32 841.92 L .000008871 841.92 Z " fill-rule="evenodd"/>
</clipPath>
<g clip-path="url(#cp31017)">
<text xml:space="preserve" transform="matrix(1 0 -0 1 0 841.92)" font-size="14.04" font-family="Times New Roman"><tspan y="-96.264" x="188.54 195.37747 199.32271 205.55648 212.63265 218.86641 231.2216 235.06856 242.13068 248.96816 252.91339 259.9755 266.20927 270.0562 276.28999 280.9653 287.94319 291.8884 304.22956 310.46333 321.14778 327.49388 331.4391 338.5012 344.73497 356.9638 364.0259 369.4313 376.39515 380.34037 385.0157 388.86265 394.26805 401.33015 413.6713 420.7334 426.85484 430.80006 434.74528 438.59223 444.71366 450.11906 454.06428 461.12638 467.36015 479.71537 490.3998 496.7459 507.43037 511.37559 517.6093 524.6855 530.91928 534.76626 538.7115 549.3959 553.3411 559.5749">yicha loyihalarni amalga oshirish natijasida mamlakatimiz </tspan></text>
</g>
<clipPath id="cp31018">
<path transform="matrix(1,0,0,-1,0,841.92)" d="M .000008871 0 L 595.32 0 L 595.32 841.92 L .000008871 841.92 Z " fill-rule="evenodd"/>
</clipPath>
<g clip-path="url(#cp31018)">
<text xml:space="preserve" transform="matrix(1 0 -0 1 0 841.92)" font-size="14.04" font-family="Times New Roman"><tspan y="-72.144" x="85.104 91.33775 98.30159 105.36371 109.21067 113.155918 118.56132 122.40828 129.4704 133.31735 140.37947 147.44159 153.6613 160.72342 166.95719 173.92102 180.98314 187.32921 194.29305 200.52681 204.37377 208.319 214.55277 225.23722 229.18245 235.41622 240.09154 244.05083 250.3969 257.459 263.58045 270.64256 277.60639 284.6685 291.0146 295.6899 302.65376 306.59898 312.83274 317.39573 324.35957 330.59333 334.53855 340.88465 347.84849 351.7937 358.02748 368.7119 374.94569 378.8909 382.83613 389.0699 393.7452 397.59217 404.65428 410.7757 417.8378 424.1839 428.85923 435.93537 442.77284 449.83494 456.0687 459.91566 466.1494 473.11326 476.9602 482.46388 489.52598 495.87208 502.8359 509.898 514.461 521.52316 527.6446">aholisining keng qatlamlari uchun Internet xizmatlaridan foydalanish borgan</tspan></text>
</g>
<clipPath id="cp31019">
<path transform="matrix(1,0,0,-1,0,841.92)" d="M .000008871 0 L 595.32 0 L 595.32 841.92 L .000008871 841.92 Z " fill-rule="evenodd"/>
</clipPath>
<g clip-path="url(#cp31019)">
<text xml:space="preserve" transform="matrix(1 0 -0 1 0 841.92)" font-size="14.04" font-family="Times New Roman"><tspan y="-72.144" x="535.3">-</tspan></text>
</g>
<clipPath id="cp31020">
<path transform="matrix(1,0,0,-1,0,841.92)" d="M .000008871 0 L 595.32 0 L 595.32 841.92 L .000008871 841.92 Z " fill-rule="evenodd"/>
</clipPath>
<g clip-path="url(#cp31020)">
<text xml:space="preserve" transform="matrix(1 0 -0 1 0 841.92)" font-size="14.04" font-family="Times New Roman"><tspan y="-72.144" x="539.98 545.3854 551.61917 556.1821 560.0291">sari </tspan></text>
</g>
</g>
</g>
</g>
</svg>
