<?xml version="1.0" encoding="UTF-8" standalone="no"?>
<!DOCTYPE svg PUBLIC "-//W3C//DTD SVG 1.1//EN" "http://www.w3.org/Graphics/SVG/1.1/DTD/svg11.dtd">
<svg xmlns="http://www.w3.org/2000/svg" xmlns:xlink="http://www.w3.org/1999/xlink" version="1.1" width="595.32pt" height="841.92pt" viewBox="0 0 595.32 841.92">
<g enable-background="new">
<g>
<g id="Layer-1" data-name="Artifact">
<clipPath id="cp31133">
<path transform="matrix(1,0,0,-1,0,841.92)" d="M .000008871 0 L 595.32 0 L 595.32 841.92 L .000008871 841.92 Z " fill-rule="evenodd"/>
</clipPath>
<g clip-path="url(#cp31133)">
<text xml:space="preserve" transform="matrix(1 0 -0 1 0 841.92)" font-size="11.04" font-family="Calibri"><tspan y="-51.864" x="314.09 319.72999 325.36997">192</tspan></text>
</g>
<clipPath id="cp31134">
<path transform="matrix(1,0,0,-1,0,841.92)" d="M .000008871 0 L 595.32 0 L 595.32 841.92 L .000008871 841.92 Z " fill-rule="evenodd"/>
</clipPath>
<g clip-path="url(#cp31134)">
<text xml:space="preserve" transform="matrix(1 0 -0 1 0 841.92)" font-size="11.04" font-family="Calibri"><tspan y="-51.864" x="331.03"> </tspan></text>
</g>
<clipPath id="cp31135">
<path transform="matrix(1,0,0,-1,0,841.92)" d="M .000008871 0 L 595.32 0 L 595.32 841.92 L .000008871 841.92 Z " fill-rule="evenodd"/>
</clipPath>
<g clip-path="url(#cp31135)">
</g>
<clipPath id="cp31136">
<path transform="matrix(1,0,0,-1,0,841.92)" d="M .000008871 0 L 595.32 0 L 595.32 841.92 L .000008871 841.92 Z " fill-rule="evenodd"/>
</clipPath>
<g clip-path="url(#cp31136)">
<text xml:space="preserve" transform="matrix(1 0 -0 1 0 841.92)" font-size="11.04" font-family="Calibri"><tspan y="-38.4" x="85.104"> </tspan></text>
</g>
<clipPath id="cp31137">
<path transform="matrix(1,0,0,-1,0,841.92)" d="M .000008871 0 L 595.32 0 L 595.32 841.92 L .000008871 841.92 Z " fill-rule="evenodd"/>
</clipPath>
<g clip-path="url(#cp31137)">
</g>
</g>
<g id="Layer-1" data-name="P">
<clipPath id="cp31138">
<path transform="matrix(1,0,0,-1,0,841.92)" d="M .000008871 0 L 595.32 0 L 595.32 841.92 L .000008871 841.92 Z " fill-rule="evenodd"/>
</clipPath>
<g clip-path="url(#cp31138)">
<text xml:space="preserve" transform="matrix(1 0 -0 1 0 841.92)" font-size="14.04" font-family="Times New Roman,Bold" font-weight="bold"><tspan y="-772.32" x="173.42 180.48212 183.99211 191.01212 194.52211 198.0321 203.39539 211.20163 215.87696 222.11072 228.34449 236.15073 242.27217 246.9475 254.75374 261.81587 265.17143 272.23353 280.03977 286.27354 292.39497 297.89863 301.40864 306.08396 313.8902 319.35176 327.158 334.8519 342.65815 348.8919 356.57179 363.63389 369.03929 372.9845 376.4945 383.43028 390.49238 394.00239 401.80863 409.44639 413.29335 421.09959 428.16169 431.6717 436.34703 444.15327 450.2466 454.19184 461.15568 467.38945 471.33467 474.84468">8.2. Internetda adres tushunchasi va uning turlari  </tspan></text>
</g>
<clipPath id="cp31139">
<path transform="matrix(1,0,0,-1,0,841.92)" d="M .000008871 0 L 595.32 0 L 595.32 841.92 L .000008871 841.92 Z " fill-rule="evenodd"/>
</clipPath>
<g clip-path="url(#cp31139)">
<text xml:space="preserve" transform="matrix(1 0 -0 1 0 841.92)" font-size="12" font-family="Times New Roman,Bold" font-weight="bold"><tspan y="-772.32" x="478.42"> </tspan></text>
</g>
</g>
<g id="Layer-1" data-name="P">
<clipPath id="cp31140">
<path transform="matrix(1,0,0,-1,0,841.92)" d="M .000008871 0 L 595.32 0 L 595.32 841.92 L .000008871 841.92 Z " fill-rule="evenodd"/>
</clipPath>
<g clip-path="url(#cp31140)">
<text xml:space="preserve" transform="matrix(1 0 -0 1 0 841.92)" font-size="14.04" font-family="Times New Roman,Bold" font-weight="bold"><tspan y="-748.06" x="113.42"> </tspan></text>
</g>
</g>
<g id="Layer-1" data-name="P">
<clipPath id="cp31141">
<path transform="matrix(1,0,0,-1,0,841.92)" d="M .000008871 0 L 595.32 0 L 595.32 841.92 L .000008871 841.92 Z " fill-rule="evenodd"/>
</clipPath>
<g clip-path="url(#cp31141)">
<text xml:space="preserve" transform="matrix(1 0 -0 1 0 841.92)" font-size="14.04" font-family="Times New Roman,Bold" font-weight="bold"><tspan y="-724.18" x="113.42 127.46 141.5 155.54 161.64739 166.32271 174.12895 179.63263 187.43888 195.24512 202.91097 209.14473 216.95098 223.91481 229.3202 233.16716 236.67716">WWW tushunchasi. </tspan></text>
</g>
<clipPath id="cp31142">
<path transform="matrix(1,0,0,-1,0,841.92)" d="M .000008871 0 L 595.32 0 L 595.32 841.92 L .000008871 841.92 Z " fill-rule="evenodd"/>
</clipPath>
<g clip-path="url(#cp31142)">
<text xml:space="preserve" transform="matrix(1 0 -0 1 0 841.92)" font-size="14.04" font-family="Times New Roman"><tspan y="-724.18" x="242.93 256.1276 269.3252 282.5228 288.63023 293.41789 306.50315 313.56526 318.24058 322.1858 329.2479 335.35533 348.44059 352.3858 359.4479 365.68168 371.7891 384.87437 391.10813 398.18428 402.8596">WWW (World Wide Web) </tspan></text>
</g>
<clipPath id="cp31143">
<path transform="matrix(1,0,0,-1,0,841.92)" d="M .000008871 0 L 595.32 0 L 595.32 841.92 L .000008871 841.92 Z " fill-rule="evenodd"/>
</clipPath>
<g clip-path="url(#cp31143)">
<text xml:space="preserve" transform="matrix(1 0 -0 1 0 841.92)" font-size="14.04" font-family="Times New Roman"><tspan y="-724.18" x="409.15">-</tspan></text>
</g>
<clipPath id="cp31144">
<path transform="matrix(1,0,0,-1,0,841.92)" d="M .000008871 0 L 595.32 0 L 595.32 841.92 L .000008871 841.92 Z " fill-rule="evenodd"/>
</clipPath>
<g clip-path="url(#cp31144)">
<text xml:space="preserve" transform="matrix(1 0 -0 1 0 841.92)" font-size="14.04" font-family="Times New Roman"><tspan y="-724.18" x="413.83"> </tspan></text>
</g>
<clipPath id="cp31145">
<path transform="matrix(1,0,0,-1,0,841.92)" d="M .000008871 0 L 595.32 0 L 595.32 841.92 L .000008871 841.92 Z " fill-rule="evenodd"/>
</clipPath>
<g clip-path="url(#cp31145)">
<text xml:space="preserve" transform="matrix(1 0 -0 1 0 841.92)" font-size="14.04" font-family="Times New Roman"><tspan y="-724.18" x="419.95 427.01213 434.07423 438.01945 444.98329 452.04539 458.1528 461.99977 468.23353 475.19737 482.25947 489.32157 495.429">butun jahon o</tspan></text>
</g>
<clipPath id="cp31146">
<path transform="matrix(1,0,0,-1,0,841.92)" d="M .000008871 0 L 595.32 0 L 595.32 841.92 L .000008871 841.92 Z " fill-rule="evenodd"/>
</clipPath>
<g clip-path="url(#cp31146)">
<text xml:space="preserve" transform="matrix(1 0 -0 1 0 841.92)" font-size="14.04" font-family="Times New Roman"><tspan y="-724.18" x="502.66">&#x2019;</tspan></text>
</g>
<clipPath id="cp31147">
<path transform="matrix(1,0,0,-1,0,841.92)" d="M .000008871 0 L 595.32 0 L 595.32 841.92 L .000008871 841.92 Z " fill-rule="evenodd"/>
</clipPath>
<g clip-path="url(#cp31147)">
<text xml:space="preserve" transform="matrix(1 0 -0 1 0 841.92)" font-size="14.04" font-family="Times New Roman"><tspan y="-724.18" x="507.22 511.9">rg</tspan></text>
</g>
<clipPath id="cp31148">
<path transform="matrix(1,0,0,-1,0,841.92)" d="M .000008871 0 L 595.32 0 L 595.32 841.92 L .000008871 841.92 Z " fill-rule="evenodd"/>
</clipPath>
<g clip-path="url(#cp31148)">
<text xml:space="preserve" transform="matrix(1 0 -0 1 0 841.92)" font-size="14.04" font-family="Times New Roman"><tspan y="-724.18" x="518.86">i</tspan></text>
</g>
<clipPath id="cp31149">
<path transform="matrix(1,0,0,-1,0,841.92)" d="M .000008871 0 L 595.32 0 L 595.32 841.92 L .000008871 841.92 Z " fill-rule="evenodd"/>
</clipPath>
<g clip-path="url(#cp31149)">
<text xml:space="preserve" transform="matrix(1 0 -0 1 0 841.92)" font-size="14.04" font-family="Times New Roman"><tspan y="-724.18" x="522.82 533.5044 539.73818 546.81436 553.0481 560.01199">mchak </tspan></text>
</g>
<clipPath id="cp31150">
<path transform="matrix(1,0,0,-1,0,841.92)" d="M .000008871 0 L 595.32 0 L 595.32 841.92 L .000008871 841.92 Z " fill-rule="evenodd"/>
</clipPath>
<g clip-path="url(#cp31150)">
<text xml:space="preserve" transform="matrix(1 0 -0 1 0 841.92)" font-size="14.04" font-family="Times New Roman"><tspan y="-700.06" x="85.104 89.06402">to</tspan></text>
</g>
<clipPath id="cp31151">
<path transform="matrix(1,0,0,-1,0,841.92)" d="M .000008871 0 L 595.32 0 L 595.32 841.92 L .000008871 841.92 Z " fill-rule="evenodd"/>
</clipPath>
<g clip-path="url(#cp31151)">
<text xml:space="preserve" transform="matrix(1 0 -0 1 0 841.92)" font-size="14.04" font-family="Times New Roman"><tspan y="-700.06" x="96.144">&#x2019;</tspan></text>
</g>
<clipPath id="cp31152">
<path transform="matrix(1,0,0,-1,0,841.92)" d="M .000008871 0 L 595.32 0 L 595.32 841.92 L .000008871 841.92 Z " fill-rule="evenodd"/>
</clipPath>
<g clip-path="url(#cp31152)">
<text xml:space="preserve" transform="matrix(1 0 -0 1 0 841.92)" font-size="14.04" font-family="Times New Roman"><tspan y="-700.06" x="100.7 105.37532 109.320568 115.66665 122.72877 128.8502 135.91233 142.25839 149.32051 156.38263 167.06708 171.01232 177.24608 184.20992 191.27204 198.23587 204.35732 211.41944 215.36467 221.71074 225.65598 231.88974 236.56507 247.24951 254.31163 261.37376 264.88377 271.3141 284.39936 297.59696 310.68223">ri deb nomlanuvchi tarmoq. WWW </tspan></text>
</g>
<clipPath id="cp31153">
<path transform="matrix(1,0,0,-1,0,841.92)" d="M .000008871 0 L 595.32 0 L 595.32 841.92 L .000008871 841.92 Z " fill-rule="evenodd"/>
</clipPath>
<g clip-path="url(#cp31153)">
<text xml:space="preserve" transform="matrix(1 0 -0 1 0 841.92)" font-size="14.04" font-family="Times New Roman"><tspan y="-700.06" x="317.47">-</tspan></text>
</g>
<clipPath id="cp31154">
<path transform="matrix(1,0,0,-1,0,841.92)" d="M .000008871 0 L 595.32 0 L 595.32 841.92 L .000008871 841.92 Z " fill-rule="evenodd"/>
</clipPath>
<g clip-path="url(#cp31154)">
<text xml:space="preserve" transform="matrix(1 0 -0 1 0 841.92)" font-size="14.04" font-family="Times New Roman"><tspan y="-700.06" x="322.27"> </tspan></text>
</g>
<clipPath id="cp31155">
<path transform="matrix(1,0,0,-1,0,841.92)" d="M .000008871 0 L 595.32 0 L 595.32 841.92 L .000008871 841.92 Z " fill-rule="evenodd"/>
</clipPath>
<g clip-path="url(#cp31155)">
<text xml:space="preserve" transform="matrix(1 0 -0 1 0 841.92)" font-size="14.04" font-family="Times New Roman"><tspan y="-700.06" x="328.75 335.71385 342.77595 349.24839 353.81138 360.87348 364.8187 370.94013 375.61546 382.6916 388.81303 392.65998 399.72209 405.95585 412.30195 419.36405 423.211 429.44477 436.4086 443.37245 449.6062 456.68235 463.02845 466.97367 474.03578 478.59877 482.4457 486.39094 492.86338 499.33583 503.18278 510.24488 517.0824 521.02767 527.2614 532.6668 539.6307 546.6928 552.8143 559.77816">bu Internetga ulangan turli  joylashgan </tspan></text>
</g>
<clipPath id="cp31156">
<path transform="matrix(1,0,0,-1,0,841.92)" d="M .000008871 0 L 595.32 0 L 595.32 841.92 L .000008871 841.92 Z " fill-rule="evenodd"/>
</clipPath>
<g clip-path="url(#cp31156)">
<text xml:space="preserve" transform="matrix(1 0 -0 1 0 841.92)" font-size="14.04" font-family="Times New Roman"><tspan y="-675.94" x="85.104">o</tspan></text>
</g>
<clipPath id="cp31157">
<path transform="matrix(1,0,0,-1,0,841.92)" d="M .000008871 0 L 595.32 0 L 595.32 841.92 L .000008871 841.92 Z " fill-rule="evenodd"/>
</clipPath>
<g clip-path="url(#cp31157)">
<text xml:space="preserve" transform="matrix(1 0 -0 1 0 841.92)" font-size="14.04" font-family="Times New Roman"><tspan y="-675.94" x="92.184">&#x2019;</tspan></text>
</g>
<clipPath id="cp31158">
<path transform="matrix(1,0,0,-1,0,841.92)" d="M .000008871 0 L 595.32 0 L 595.32 841.92 L .000008871 841.92 Z " fill-rule="evenodd"/>
</clipPath>
<g clip-path="url(#cp31158)">
<text xml:space="preserve" transform="matrix(1 0 -0 1 0 841.92)" font-size="14.04" font-family="Times New Roman"><tspan y="-675.94" x="96.744 102.97776 109.21152 113.88684 120.963 124.66956 131.63339 138.69551">zaro bog</tspan></text>
</g>
<clipPath id="cp31159">
<path transform="matrix(1,0,0,-1,0,841.92)" d="M .000008871 0 L 595.32 0 L 595.32 841.92 L .000008871 841.92 Z " fill-rule="evenodd"/>
</clipPath>
<g clip-path="url(#cp31159)">
<text xml:space="preserve" transform="matrix(1 0 -0 1 0 841.92)" font-size="14.04" font-family="Times New Roman"><tspan y="-675.94" x="145.82">&#x2019;</tspan></text>
</g>
<clipPath id="cp31160">
<path transform="matrix(1,0,0,-1,0,841.92)" d="M .000008871 0 L 595.32 0 L 595.32 841.92 L .000008871 841.92 Z " fill-rule="evenodd"/>
</clipPath>
<g clip-path="url(#cp31160)">
<text xml:space="preserve" transform="matrix(1 0 -0 1 0 841.92)" font-size="14.04" font-family="Times New Roman"><tspan y="-675.94" x="150.38 154.32524 160.44669 167.5088 174.47264 180.7064 187.67024 191.50316 198.467 205.43083 209.27779 213.12474 219.3585 223.30374 227.24898 233.48274 238.04575 245.10787 251.34163 255.17455 265.85899 272.92109 277.5964 284.67256 288.5195 294.75328 300.98704 304.9463 308.65287 315.6167 319.56193 323.40888 327.25584 332.7595 339.72334 346.68717 350.6324 354.4653 358.41053">langan hujjatlarga murojaat qilishni ta</tspan></text>
</g>
<clipPath id="cp31161">
<path transform="matrix(1,0,0,-1,0,841.92)" d="M .000008871 0 L 595.32 0 L 595.32 841.92 L .000008871 841.92 Z " fill-rule="evenodd"/>
</clipPath>
<g clip-path="url(#cp31161)">
<text xml:space="preserve" transform="matrix(1 0 -0 1 0 841.92)" font-size="14.04" font-family="Times New Roman"><tspan y="-675.94" x="364.87">&#x2019;</tspan></text>
</g>
<clipPath id="cp31162">
<path transform="matrix(1,0,0,-1,0,841.92)" d="M .000008871 0 L 595.32 0 L 595.32 841.92 L .000008871 841.92 Z " fill-rule="evenodd"/>
</clipPath>
<g clip-path="url(#cp31162)">
<text xml:space="preserve" transform="matrix(1 0 -0 1 0 841.92)" font-size="14.04" font-family="Times New Roman"><tspan y="-675.94" x="369.43 380.11445 384.05967 391.12178 395.067 401.18843 408.25053 412.08345 419.04728 425.28105 429.95637 436.93424 443.99635 450.11778 457.17988 461.1251 464.83168 468.7769 475.01066 479.68598 490.37043 497.43254 504.49464 508.2012 512.1464 515.9934 522.2272 526.1724 536.8568 540.80209 547.8642 551.80947 556.37246 559.728">minlab beruvchi tarmoq tizimidir. </tspan></text>
</g>
<clipPath id="cp31163">
<path transform="matrix(1,0,0,-1,0,841.92)" d="M .000008871 0 L 595.32 0 L 595.32 841.92 L .000008871 841.92 Z " fill-rule="evenodd"/>
</clipPath>
<g clip-path="url(#cp31163)">
<text xml:space="preserve" transform="matrix(1 0 -0 1 0 841.92)" font-size="14.04" font-family="Times New Roman"><tspan y="-651.7" x="85.104 95.283 102.120479 109.182598 115.41635 122.49251 139.28435 149.9688 156.20256 163.27873 169.5125 186.30434 191.80802 198.87014 205.83397 222.62581 229.68793 233.63317 239.86693 250.55138 256.78514 260.73036 277.5222 282.1975 289.27366 293.21888 299.45265 304.01564 311.07774 317.19917 321.14439 328.10823 334.34199 341.41813 358.20997 362.88529 369.96144 376.7989 383.861 390.09477 393.9417 400.17549 407.1393 411.08454 416.48994 423.45378 430.51588 434.36283 451.15467 456.65834 463.72044 470.68428 477.74638 483.8678 487.81303 493.93446 499.4381 506.40196 510.2489 514.19418 518.86947 525.8333 529.77859 546.57046 553.40798 559.5294">Aynan mana shu xizmat Internetdan foydalanishni soddalashtirdi va </tspan></text>
</g>
<clipPath id="cp31164">
<path transform="matrix(1,0,0,-1,0,841.92)" d="M .000008871 0 L 595.32 0 L 595.32 841.92 L .000008871 841.92 Z " fill-rule="evenodd"/>
</clipPath>
<g clip-path="url(#cp31164)">
<text xml:space="preserve" transform="matrix(1 0 -0 1 0 841.92)" font-size="14.04" font-family="Times New Roman"><tspan y="-627.58" x="85.104 92.166118 102.962879 113.759639">omma</tspan></text>
</g>
<clipPath id="cp31165">
<path transform="matrix(1,0,0,-1,0,841.92)" d="M .000008871 0 L 595.32 0 L 595.32 841.92 L .000008871 841.92 Z " fill-rule="evenodd"/>
</clipPath>
<g clip-path="url(#cp31165)">
<text xml:space="preserve" transform="matrix(1 0 -0 1 0 841.92)" font-size="14.04" font-family="Times New Roman"><tspan y="-627.58" x="120.02 127.082118 131.02735 137.86483 141.81006 148.04383 153.56156 160.52539 164.47063 168.31758 172.9929 179.95674 183.90198 187.41197 190.8658 204.0634 217.261 230.34629 233.85628 240.09004 245.5516 252.65586 258.15953 262.00648 269.06858 275.30235 278.67195 282.61717">viylashtirdi. WWW asosida to</tspan></text>
</g>
<clipPath id="cp31166">
<path transform="matrix(1,0,0,-1,0,841.92)" d="M .000008871 0 L 595.32 0 L 595.32 841.92 L .000008871 841.92 Z " fill-rule="evenodd"/>
</clipPath>
<g clip-path="url(#cp31166)">
<text xml:space="preserve" transform="matrix(1 0 -0 1 0 841.92)" font-size="14.04" font-family="Times New Roman"><tspan y="-627.58" x="289.85">&#x2019;</tspan></text>
</g>
<clipPath id="cp31167">
<path transform="matrix(1,0,0,-1,0,841.92)" d="M .000008871 0 L 595.32 0 L 595.32 841.92 L .000008871 841.92 Z " fill-rule="evenodd"/>
</clipPath>
<g clip-path="url(#cp31167)">
<text xml:space="preserve" transform="matrix(1 0 -0 1 0 841.92)" font-size="14.04" font-family="Times New Roman"><tspan y="-627.58" x="294.41 299.08534 302.93229 306.8775 313.11128 316.62129 323.55705 330.61915 337.4566 344.5187 350.75248 357.7163 364.7784 369.45375 372.96376 383.62013 389.85389 396.93003 400.77699 407.83909 414.90119">rtta poydevor mavjud:</tspan></text>
</g>
<clipPath id="cp31168">
<path transform="matrix(1,0,0,-1,0,841.92)" d="M .000008871 0 L 595.32 0 L 595.32 841.92 L .000008871 841.92 Z " fill-rule="evenodd"/>
</clipPath>
<g clip-path="url(#cp31168)">
<text xml:space="preserve" transform="matrix(1 0 -0 1 0 841.92)" font-size="14.04" font-family="Times New Roman"><tspan y="-627.58" x="418.87"> </tspan></text>
</g>
</g>
<g id="Layer-1" data-name="P">
<clipPath id="cp31169">
<path transform="matrix(1,0,0,-1,0,841.92)" d="M .000008871 0 L 595.32 0 L 595.32 841.92 L .000008871 841.92 Z " fill-rule="evenodd"/>
</clipPath>
<g clip-path="url(#cp31169)">
<text xml:space="preserve" transform="matrix(1 0 -0 1 0 841.92)" font-size="14.04" font-family="Times New Roman"><tspan y="-603.46" x="113.42 120.48212 123.99212 127.44596 136.81064 143.0444 147.71973 153.84117 160.90329 167.13706 170.64705 177.58281 184.64493 188.49188 192.33884 198.5726 202.41956 206.36479 212.59856 217.16156 224.22368 228.07064 235.03447 242.09659 245.60659 252.41599 258.64976 265.7259 272.788 279.75184 285.9856 289.4956 294.17094 301.19093 305.89433 316.57878 322.81254 326.75776 330.70298 334.21299 338.7479 344.25157 351.31367 357.4351 364.4972 368.34416 372.28938 376.85237">1. Barcha hujjatlarning yagona formati (shakli);</tspan></text>
</g>
<clipPath id="cp31170">
<path transform="matrix(1,0,0,-1,0,841.92)" d="M .000008871 0 L 595.32 0 L 595.32 841.92 L .000008871 841.92 Z " fill-rule="evenodd"/>
</clipPath>
<g clip-path="url(#cp31170)">
<text xml:space="preserve" transform="matrix(1 0 -0 1 0 841.92)" font-size="14.04" font-family="Times New Roman"><tspan y="-603.46" x="380.95"> </tspan></text>
</g>
</g>
<g id="Layer-1" data-name="P">
<clipPath id="cp31171">
<path transform="matrix(1,0,0,-1,0,841.92)" d="M .000008871 0 L 595.32 0 L 595.32 841.92 L .000008871 841.92 Z " fill-rule="evenodd"/>
</clipPath>
<g clip-path="url(#cp31171)">
<text xml:space="preserve" transform="matrix(1 0 -0 1 0 841.92)" font-size="14.04" font-family="Times New Roman"><tspan y="-579.34" x="113.42 120.48212 123.99212 127.44596 137.52667 141.47191 148.43575 154.66951 159.34484 170.02928 176.26305 180.20829 187.2704">2. Gipermatn;</tspan></text>
</g>
<clipPath id="cp31172">
<path transform="matrix(1,0,0,-1,0,841.92)" d="M .000008871 0 L 595.32 0 L 595.32 841.92 L .000008871 841.92 Z " fill-rule="evenodd"/>
</clipPath>
<g clip-path="url(#cp31172)">
<text xml:space="preserve" transform="matrix(1 0 -0 1 0 841.92)" font-size="14.04" font-family="Times New Roman"><tspan y="-579.34" x="191.21"> </tspan></text>
</g>
</g>
<g id="Layer-1" data-name="P">
<clipPath id="cp31173">
<path transform="matrix(1,0,0,-1,0,841.92)" d="M .000008871 0 L 595.32 0 L 595.32 841.92 L .000008871 841.92 Z " fill-rule="evenodd"/>
</clipPath>
<g clip-path="url(#cp31173)">
<text xml:space="preserve" transform="matrix(1 0 -0 1 0 841.92)" font-size="14.04" font-family="Times New Roman"><tspan y="-555.07" x="113.42 120.48212 123.99212 127.44596 137.52667 144.58879 148.43575 152.2827 158.51647 162.4617 166.40694 172.52838 177.2037 184.16754 188.11278 191.62277 198.55854">3. Hujjatlarni ko</tspan></text>
</g>
<clipPath id="cp31174">
<path transform="matrix(1,0,0,-1,0,841.92)" d="M .000008871 0 L 595.32 0 L 595.32 841.92 L .000008871 841.92 Z " fill-rule="evenodd"/>
</clipPath>
<g clip-path="url(#cp31174)">
<text xml:space="preserve" transform="matrix(1 0 -0 1 0 841.92)" font-size="14.04" font-family="Times New Roman"><tspan y="-555.07" x="205.73">&#x2019;</tspan></text>
</g>
<clipPath id="cp31175">
<path transform="matrix(1,0,0,-1,0,841.92)" d="M .000008871 0 L 595.32 0 L 595.32 841.92 L .000008871 841.92 Z " fill-rule="evenodd"/>
</clipPath>
<g clip-path="url(#cp31175)">
<text xml:space="preserve" transform="matrix(1 0 -0 1 0 841.92)" font-size="14.04" font-family="Times New Roman"><tspan y="-555.07" x="210.29 214.96532 218.81227 224.31595 231.37807 234.73363 241.79575 247.91719 254.97931 261.94316 269.00526 272.51527 283.17164 289.4054 296.48155 301.9852 308.94905 314.4527 317.9627 324.9827 331.13224 336.53764 340.48286 347.54496 352.10795 355.9549 362.18867 366.86399 370.374">rish uchun maxsus dasturlar (</tspan></text>
</g>
<clipPath id="cp31176">
<path transform="matrix(1,0,0,-1,0,841.92)" d="M .000008871 0 L 595.32 0 L 595.32 841.92 L .000008871 841.92 Z " fill-rule="evenodd"/>
</clipPath>
<g clip-path="url(#cp31176)">
<text xml:space="preserve" transform="matrix(1 0 -0 1 0 841.92)" font-size="14.04" font-family="Times New Roman"><tspan y="-555.07" x="375.19 382.2521 386.92744 393.04887 400.11097 406.34474 412.46617">brauzer</tspan></text>
</g>
<clipPath id="cp31177">
<path transform="matrix(1,0,0,-1,0,841.92)" d="M .000008871 0 L 595.32 0 L 595.32 841.92 L .000008871 841.92 Z " fill-rule="evenodd"/>
</clipPath>
<g clip-path="url(#cp31177)">
<text xml:space="preserve" transform="matrix(1 0 -0 1 0 841.92)" font-size="14.04" font-family="Times New Roman"><tspan y="-555.07" x="417.19 421.87">);</tspan></text>
</g>
<clipPath id="cp31178">
<path transform="matrix(1,0,0,-1,0,841.92)" d="M .000008871 0 L 595.32 0 L 595.32 841.92 L .000008871 841.92 Z " fill-rule="evenodd"/>
</clipPath>
<g clip-path="url(#cp31178)">
<text xml:space="preserve" transform="matrix(1 0 -0 1 0 841.92)" font-size="14.04" font-family="Times New Roman"><tspan y="-555.07" x="425.71"> </tspan></text>
</g>
</g>
<g id="Layer-1" data-name="P">
<clipPath id="cp31179">
<path transform="matrix(1,0,0,-1,0,841.92)" d="M .000008871 0 L 595.32 0 L 595.32 841.92 L .000008871 841.92 Z " fill-rule="evenodd"/>
</clipPath>
<g clip-path="url(#cp31179)">
<text xml:space="preserve" transform="matrix(1 0 -0 1 0 841.92)" font-size="14.04" font-family="Times New Roman"><tspan y="-530.95" x="113.42 120.48212 123.99212 127.44596 137.52667 143.76044 150.72428 157.78639 164.84851 171.08228 174.59227 185.24864 191.4824 198.55858 204.79235 208.6393 212.58454 219.54837 223.4936 226.84917 233.813">4. Yagona manzilni ko</tspan></text>
</g>
<clipPath id="cp31180">
<path transform="matrix(1,0,0,-1,0,841.92)" d="M .000008871 0 L 595.32 0 L 595.32 841.92 L .000008871 841.92 Z " fill-rule="evenodd"/>
</clipPath>
<g clip-path="url(#cp31180)">
<text xml:space="preserve" transform="matrix(1 0 -0 1 0 841.92)" font-size="14.04" font-family="Times New Roman"><tspan y="-530.95" x="241.01">&#x2019;</tspan></text>
</g>
<clipPath id="cp31181">
<path transform="matrix(1,0,0,-1,0,841.92)" d="M .000008871 0 L 595.32 0 L 595.32 841.92 L .000008871 841.92 Z " fill-rule="evenodd"/>
</clipPath>
<g clip-path="url(#cp31181)">
<text xml:space="preserve" transform="matrix(1 0 -0 1 0 841.92)" font-size="14.04" font-family="Times New Roman"><tspan y="-530.95" x="245.57 250.24533 255.74901 261.98277 265.8297 269.67668 275.18034 282.24244 285.598 289.5432 293.48844 299.60987 303.55509 314.23954 318.18476 321.69477 326.3701 333.39009 340.4943 351.29106 357.5248 364.60096 369.16395">rsatish tizimi (domen);</tspan></text>
</g>
<clipPath id="cp31182">
<path transform="matrix(1,0,0,-1,0,841.92)" d="M .000008871 0 L 595.32 0 L 595.32 841.92 L .000008871 841.92 Z " fill-rule="evenodd"/>
</clipPath>
<g clip-path="url(#cp31182)">
<text xml:space="preserve" transform="matrix(1 0 -0 1 0 841.92)" font-size="14.04" font-family="Times New Roman"><tspan y="-530.95" x="373.15"> </tspan></text>
</g>
</g>
<g id="Layer-1" data-name="P">
<clipPath id="cp31183">
<path transform="matrix(1,0,0,-1,0,841.92)" d="M .000008871 0 L 595.32 0 L 595.32 841.92 L .000008871 841.92 Z " fill-rule="evenodd"/>
</clipPath>
<g clip-path="url(#cp31183)">
<text xml:space="preserve" transform="matrix(1 0 -0 1 0 841.92)" font-size="14.04" font-family="Times New Roman,Bold" font-weight="bold"><tspan y="-506.83" x="113.42 118.92368 126.72993 131.40525 137.639 143.87277 151.5667 157.80046 162.47579 167.51615 175.32239 181.4298 188.49192 195.45575 202.41959 209.4817 217.28795 223.52172 229.64316 233.49011 240.55223 246.786 250.63295 255.65927 262.6231 269.6852 274.71156 282.39143 286.33665 293.39875 299.52018 307.32643 311.27165 318.9515 326.0136 330.91358 337.97569 344.9395 351.17329">Internet provayderlari va ularning vazi</tspan></text>
</g>
<clipPath id="cp31184">
<path transform="matrix(1,0,0,-1,0,841.92)" d="M .000008871 0 L 595.32 0 L 595.32 841.92 L .000008871 841.92 Z " fill-rule="evenodd"/>
</clipPath>
<g clip-path="url(#cp31184)">
<text xml:space="preserve" transform="matrix(1 0 -0 1 0 841.92)" font-size="14.04" font-family="Times New Roman,Bold" font-weight="bold"><tspan y="-506.83" x="355.27 359.9453 367.02146 370.8684 377.9305 384.05195 387.99717">falari.</tspan></text>
</g>
<clipPath id="cp31185">
<path transform="matrix(1,0,0,-1,0,841.92)" d="M .000008871 0 L 595.32 0 L 595.32 841.92 L .000008871 841.92 Z " fill-rule="evenodd"/>
</clipPath>
<g clip-path="url(#cp31185)">
<text xml:space="preserve" transform="matrix(1 0 -0 1 0 841.92)" font-size="14.04" font-family="Times New Roman"><tspan y="-506.83" x="391.51"> </tspan></text>
</g>
<clipPath id="cp31186">
<path transform="matrix(1,0,0,-1,0,841.92)" d="M .000008871 0 L 595.32 0 L 595.32 841.92 L .000008871 841.92 Z " fill-rule="evenodd"/>
</clipPath>
<g clip-path="url(#cp31186)">
<text xml:space="preserve" transform="matrix(1 0 -0 1 0 841.92)" font-size="14.04" font-family="Times New Roman"><tspan y="-506.83" x="396.55 401.11299 408.17509 412.1203 418.35408 422.91706 429.97917 436.1006 440.0458 444.94578 452.00788 456.6832 463.64704 470.70915 476.83058 483.66804 490.73014 496.9639 501.63923">Internet provayder </tspan></text>
</g>
<clipPath id="cp31187">
<path transform="matrix(1,0,0,-1,0,841.92)" d="M .000008871 0 L 595.32 0 L 595.32 841.92 L .000008871 841.92 Z " fill-rule="evenodd"/>
</clipPath>
<g clip-path="url(#cp31187)">
<text xml:space="preserve" transform="matrix(1 0 -0 1 0 841.92)" font-size="14.04" font-family="Times New Roman"><tspan y="-506.83" x="506.86">-</tspan></text>
</g>
<clipPath id="cp31188">
<path transform="matrix(1,0,0,-1,0,841.92)" d="M .000008871 0 L 595.32 0 L 595.32 841.92 L .000008871 841.92 Z " fill-rule="evenodd"/>
</clipPath>
<g clip-path="url(#cp31188)">
<text xml:space="preserve" transform="matrix(1 0 -0 1 0 841.92)" font-size="14.04" font-family="Times New Roman"><tspan y="-506.83" x="511.54"> </tspan></text>
</g>
<clipPath id="cp31189">
<path transform="matrix(1,0,0,-1,0,841.92)" d="M .000008871 0 L 595.32 0 L 595.32 841.92 L .000008871 841.92 Z " fill-rule="evenodd"/>
</clipPath>
<g clip-path="url(#cp31189)">
<text xml:space="preserve" transform="matrix(1 0 -0 1 0 841.92)" font-size="14.04" font-family="Times New Roman"><tspan y="-506.83" x="516.58 521.2553 528.3315 532.17849 538.41226 543.0875 550.0654 556.1869 560.0339">Internet </tspan></text>
</g>
<clipPath id="cp31190">
<path transform="matrix(1,0,0,-1,0,841.92)" d="M .000008871 0 L 595.32 0 L 595.32 841.92 L .000008871 841.92 Z " fill-rule="evenodd"/>
</clipPath>
<g clip-path="url(#cp31190)">
<text xml:space="preserve" transform="matrix(1 0 -0 1 0 841.92)" font-size="14.04" font-family="Times New Roman"><tspan y="-482.71" x="85.104 89.04924 95.283 99.95832 110.64276 117.70488">tarmog</tspan></text>
</g>
<clipPath id="cp31191">
<path transform="matrix(1,0,0,-1,0,841.92)" d="M .000008871 0 L 595.32 0 L 595.32 841.92 L .000008871 841.92 Z " fill-rule="evenodd"/>
</clipPath>
<g clip-path="url(#cp31191)">
<text xml:space="preserve" transform="matrix(1 0 -0 1 0 841.92)" font-size="14.04" font-family="Times New Roman"><tspan y="-482.71" x="124.82">&#x2019;</tspan></text>
</g>
<clipPath id="cp31192">
<path transform="matrix(1,0,0,-1,0,841.92)" d="M .000008871 0 L 595.32 0 L 595.32 841.92 L .000008871 841.92 Z " fill-rule="evenodd"/>
</clipPath>
<g clip-path="url(#cp31192)">
<text xml:space="preserve" transform="matrix(1 0 -0 1 0 841.92)" font-size="14.04" font-family="Times New Roman"><tspan y="-482.71" x="129.38 133.32524 146.27011 153.33223 157.27747 163.51123 174.19568 180.42945 184.37468 188.31992 194.55368 199.11669 202.96364 210.02576 213.971 226.91587 230.8611 236.98255 243.94638 251.0085 254.95374 265.63819 278.58308 284.81684 288.76206 295.82417 302.88627 309.0077 315.97154 319.81849 332.76338 336.7086 342.94236 348.34776 355.40986 362.3737 366.3189 370.16587 377.1297 381.07493 388.03877 391.98399 396.6593 400.1693 413.08613 423.16685 430.22895 436.4627 440.30967 444.985 452.06114 456.00636 468.83894 475.90104 482.86488 489.92698 496.8908 503.12458 516.0835 520.7588 527.72268 531.6679 537.9017 542.46469 549.5268 555.76058 559.4812">i xizmatlarini taqdim etuvchi tashkilotdir. Hozirgi kunda Internet </tspan></text>
</g>
<clipPath id="cp31193">
<path transform="matrix(1,0,0,-1,0,841.92)" d="M .000008871 0 L 595.32 0 L 595.32 841.92 L .000008871 841.92 Z " fill-rule="evenodd"/>
</clipPath>
<g clip-path="url(#cp31193)">
<text xml:space="preserve" transform="matrix(1 0 -0 1 0 841.92)" font-size="14.04" font-family="Times New Roman"><tspan y="-458.47" x="85.104 92.166118 96.84144 103.805278 110.86739 117.10115 123.95267 131.01479 137.24855 141.81156 145.75679 151.99056 156.55356 160.4988 167.46263 171.40787 178.3717 185.43383 189.50542 193.45066 200.41449 207.37833 211.32357 215.50748 219.35443 226.41655 231.09188 235.03711 239.22103 249.90547 256.13923 263.21537 267.06233 274.12443 281.08827 285.03349 289.2174 293.7804 300.8425 304.78773 310.90916 315.58448 322.6606 328.78205 332.72727 339.78938 346.02314 350.09477 357.0586 361.0038 367.23759 374.20143 378.04838 383.55204 390.61415 394.68577 401.74787 407.98164 412.05326 419.11537 423.06059 429.182 436.14585 440.09107 445.49647 452.55857 456.7425 463.8046 469.92604 476.98814 483.10957 487.05479 490.90174 497.1355 501.81083 505.65779 512.62167 516.5669 520.75088 524.6961 530.81759 537.78146 544.84359 548.7888 559.34689">provayderlarining ikki turi mavjud: Internetga ulanish va ulanish kanallarini taqdim </tspan></text>
</g>
<clipPath id="cp31194">
<path transform="matrix(1,0,0,-1,0,841.92)" d="M .000008871 0 L 595.32 0 L 595.32 841.92 L .000008871 841.92 Z " fill-rule="evenodd"/>
</clipPath>
<g clip-path="url(#cp31194)">
<text xml:space="preserve" transform="matrix(1 0 -0 1 0 841.92)" font-size="14.04" font-family="Times New Roman"><tspan y="-434.35" x="85.104 91.33775 95.283 102.24683 109.30895 115.43039 122.394229 126.33947 129.84947 136.86948 141.46056 148.4244 155.48651 161.72028 168.5718 175.63391 181.86768 186.543 190.053 197.073 203.33484 206.6904 211.36573 218.4419 222.28885 228.52262 233.19794 240.17583 246.40959 250.35483 253.71039 260.7725 264.61946 270.8532 281.53767 287.77143 291.71665 295.66188 301.89564 306.57096 310.4179 317.48 321.42524 324.7808 328.62776 334.8615 341.82536 348.88746 352.83268 363.51713 367.02714 373.2609 377.164 384.26823 391.23207 397.46583 404.42967 408.37489 411.8849">etuvchi provayder va Internet xizmatlarini taqdim etuvchi p</tspan></text>
</g>
<clipPath id="cp31195">
<path transform="matrix(1,0,0,-1,0,841.92)" d="M .000008871 0 L 595.32 0 L 595.32 841.92 L .000008871 841.92 Z " fill-rule="evenodd"/>
</clipPath>
<g clip-path="url(#cp31195)">
<text xml:space="preserve" transform="matrix(1 0 -0 1 0 841.92)" font-size="14.04" font-family="Times New Roman"><tspan y="-434.35" x="419.23 423.793 430.75685 437.81895 444.0527 450.9042 457.9663 464.20008 468.8754">rovayder.</tspan></text>
</g>
<clipPath id="cp31196">
<path transform="matrix(1,0,0,-1,0,841.92)" d="M .000008871 0 L 595.32 0 L 595.32 841.92 L .000008871 841.92 Z " fill-rule="evenodd"/>
</clipPath>
<g clip-path="url(#cp31196)">
<text xml:space="preserve" transform="matrix(1 0 -0 1 0 841.92)" font-size="14.04" font-family="Times New Roman"><tspan y="-434.35" x="472.3"> </tspan></text>
</g>
</g>
<g id="Layer-1" data-name="P">
<clipPath id="cp31197">
<path transform="matrix(1,0,0,-1,0,841.92)" d="M .000008871 0 L 595.32 0 L 595.32 841.92 L .000008871 841.92 Z " fill-rule="evenodd"/>
</clipPath>
<g clip-path="url(#cp31197)">
<text xml:space="preserve" transform="matrix(1 0 -0 1 0 841.92)" font-size="14.04" font-family="Times New Roman"><tspan y="-410.23" x="113.42 118.09532 125.17148 129.01844 135.2522 139.92752 146.90541 153.13918 157.08441 163.30413 170.26796 174.2132 180.44696 191.13141 197.36518 201.31041 205.25565 211.48941 216.05242 219.99765 226.96149 230.80844 237.02816 240.97339 247.20716 254.17099 261.2331 265.1783 275.86277 282.0825 288.31626 292.26148 299.32359 306.38569 312.5071 319.5692 323.51445 329.73417 336.698 341.37333 348.33717 355.39927 361.63304 368.48454 375.54664 381.7804 386.45573 390.41499 396.5364 401.21174 407.4455 411.39073 418.45283 429.13728 436.19938 443.26148 447.10844 454.17054 460.29197 467.2558 473.47554 483.55625 493.63697 503.81596 507.32597 513.5176 519.75137 523.6966 529.93038 537.00656 540.9518 545.5148 552.47866 559.4425">Internet xizmatlarini taqdim etuvchi provayderlar tomonidan www, elektron </tspan></text>
</g>
<clipPath id="cp31198">
<path transform="matrix(1,0,0,-1,0,841.92)" d="M .000008871 0 L 595.32 0 L 595.32 841.92 L .000008871 841.92 Z " fill-rule="evenodd"/>
</clipPath>
<g clip-path="url(#cp31198)">
<text xml:space="preserve" transform="matrix(1 0 -0 1 0 841.92)" font-size="14.04" font-family="Times New Roman"><tspan y="-386.09" x="85.104 92.166118 99.12995 105.36371 112.327548 116.27279 122.506549 126.01655 141.69924 148.76136 155.72519 161.13059 165.07582 168.92278 175.88661 182.94873 198.7718 203.33481 210.39693 216.51837 223.58049 239.40357 244.07889 250.20034 255.70401 262.66786 267.34318 272.74858 276.6938 282.92756 287.49055 294.55265 298.3996 314.2227 318.06965 325.03349 331.87095 335.81617 342.04994 347.56764 354.62974 358.47669 362.4219 366.9849 370.9301 376.3355 383.3976 388.07295 403.7837 410.8458 416.96723 424.02934 427.87629 443.58705 448.26237 455.3385 459.18547 465.41923 470.09455 477.07243 483.30619 487.15315 502.97624 509.94007 513.8853 520.1191 530.80349 537.03726 540.9825 544.92776 551.1615 555.7245 559.5715">pochta, xosting (veb resurslarni joylashtirish) kabi Internet xizmatlari </tspan></text>
</g>
<clipPath id="cp31199">
<path transform="matrix(1,0,0,-1,0,841.92)" d="M .000008871 0 L 595.32 0 L 595.32 841.92 L .000008871 841.92 Z " fill-rule="evenodd"/>
</clipPath>
<g clip-path="url(#cp31199)">
<text xml:space="preserve" transform="matrix(1 0 -0 1 0 841.92)" font-size="14.04" font-family="Times New Roman"><tspan y="-361.97" x="85.104 92.184">ko</tspan></text>
</g>
<clipPath id="cp31200">
<path transform="matrix(1,0,0,-1,0,841.92)" d="M .000008871 0 L 595.32 0 L 595.32 841.92 L .000008871 841.92 Z " fill-rule="evenodd"/>
</clipPath>
<g clip-path="url(#cp31200)">
<text xml:space="preserve" transform="matrix(1 0 -0 1 0 841.92)" font-size="14.04" font-family="Times New Roman"><tspan y="-361.97" x="99.264">&#x2019;</tspan></text>
</g>
<clipPath id="cp31201">
<path transform="matrix(1,0,0,-1,0,841.92)" d="M .000008871 0 L 595.32 0 L 595.32 841.92 L .000008871 841.92 Z " fill-rule="evenodd"/>
</clipPath>
<g clip-path="url(#cp31201)">
<text xml:space="preserve" transform="matrix(1 0 -0 1 0 841.92)" font-size="14.04" font-family="Times New Roman"><tspan y="-361.97" x="103.82 108.49532 113.99901 120.120449 123.96741 127.91265 131.85788 142.54233 149.60445 156.66657 163.6304 169.86417 173.37416 180.8996 185.57492 192.53876 196.484 202.71776 207.28076 214.34288 220.57665 224.4236 231.48572 237.71949 245.14664 252.11048 256.0557 262.17713 269.23924 276.30134 282.42277 289.48487 296.91206 300.85728 307.09104 311.76637 322.4508 329.5129 336.575 340.52024 346.64167 351.317 358.28083 362.22605 369.6532 376.7153 383.7774 388.3404 392.18736 397.691 404.65486 411.71696 417.9507 425.37788 432.43998 439.4038 446.36766 452.6014 459.67756 463.5245 471.064 478.02784 485.08995 495.77439 502.96287 509.80033 516.8624 520.8077 527.04147 531.60446 535.5497 541.78347 546.34646 553.3103 559.43179">rsatilmoqda. Internetga ulangan tarmoqlarni qurishda undagi kompyuterlarga </tspan></text>
</g>
<clipPath id="cp31202">
<path transform="matrix(1,0,0,-1,0,841.92)" d="M .000008871 0 L 595.32 0 L 595.32 841.92 L .000008871 841.92 Z " fill-rule="evenodd"/>
</clipPath>
<g clip-path="url(#cp31202)">
<text xml:space="preserve" transform="matrix(1 0 -0 1 0 841.92)" font-size="14.04" font-family="Times New Roman"><tspan y="-337.73" x="85.104 92.166118 98.39987 102.962879 106.90812 110.85336 116.9748 123.93864 127.88388 134.84772 141.08148 148.15766 154.7424 165.42685 171.66062 178.73679 184.97055 188.8175 192.76274 196.6097 202.84346">beriladigan manzillar</tspan></text>
</g>
<clipPath id="cp31203">
<path transform="matrix(1,0,0,-1,0,841.92)" d="M .000008871 0 L 595.32 0 L 595.32 841.92 L .000008871 841.92 Z " fill-rule="evenodd"/>
</clipPath>
<g clip-path="url(#cp31203)">
<text xml:space="preserve" transform="matrix(1 0 -0 1 0 841.92)" font-size="14.04" font-family="Times New Roman"><tspan y="-337.73" x="207.53"> </tspan></text>
</g>
<clipPath id="cp31204">
<path transform="matrix(1,0,0,-1,0,841.92)" d="M .000008871 0 L 595.32 0 L 595.32 841.92 L .000008871 841.92 Z " fill-rule="evenodd"/>
</clipPath>
<g clip-path="url(#cp31204)">
<text xml:space="preserve" transform="matrix(1 0 -0 1 0 841.92)" font-size="14.04" font-family="Times New Roman"><tspan y="-337.73" x="214.13 218.80533 223.48065 231.2869 237.87165 248.55609 254.78986 261.866 268.09977 272.04499 275.9902 280.66554 287.13798 294.20008 298.76307 305.82518 312.789 319.02278 325.9866 333.0487 339.28248 343.9578 350.43025 354.37547 361.43757 372.122 379.1841 386.14796 390.09318 397.15528 403.2767 410.3388 416.81126 420.75648 426.8779 433.94 440.90385 444.7508 455.54756 462.13233 468.3661 472.3113 476.25654 480.1035 487.1656 493.28703 500.34913 506.82157 513.88369 518.55899 524.6804 528.6257 532.47268 539.5348 546.49868 552.6201 559.584">(IP manzil) provayder tomonidan taqdim etilgan oraliqdan </tspan></text>
</g>
<clipPath id="cp31205">
<path transform="matrix(1,0,0,-1,0,841.92)" d="M .000008871 0 L 595.32 0 L 595.32 841.92 L .000008871 841.92 Z " fill-rule="evenodd"/>
</clipPath>
<g clip-path="url(#cp31205)">
<text xml:space="preserve" transform="matrix(1 0 -0 1 0 841.92)" font-size="14.04" font-family="Times New Roman"><tspan y="-313.61" x="85.104 89.04924 95.283 102.24683 106.19208 112.313518 119.37563 122.885639 129.8214 133.66835 137.61359 144.6757 150.79715 157.76099 161.70623">tanlab olinadi.</tspan></text>
</g>
<clipPath id="cp31206">
<path transform="matrix(1,0,0,-1,0,841.92)" d="M .000008871 0 L 595.32 0 L 595.32 841.92 L .000008871 841.92 Z " fill-rule="evenodd"/>
</clipPath>
<g clip-path="url(#cp31206)">
<text xml:space="preserve" transform="matrix(1 0 -0 1 0 841.92)" font-size="14.04" font-family="Times New Roman"><tspan y="-313.61" x="165.14"> </tspan></text>
</g>
</g>
<g id="Layer-1" data-name="P">
<clipPath id="cp31207">
<path transform="matrix(1,0,0,-1,0,841.92)" d="M .000008871 0 L 595.32 0 L 595.32 841.92 L .000008871 841.92 Z " fill-rule="evenodd"/>
</clipPath>
<g clip-path="url(#cp31207)">
<text xml:space="preserve" transform="matrix(1 0 -0 1 0 841.92)" font-size="14.04" font-family="Times New Roman"><tspan y="-289.49" x="113.42 121.22624 125.901569 132.8654 139.92752 146.16129 153.0128 160.07492 166.30869 170.98401 181.41573 185.26268 192.3248 203.00925 210.07137 217.13349 220.98044 228.04256 234.164 241.22612 251.53148 258.5936 264.82737 269.39036 273.33558 277.18254 284.24464 290.36607 297.42817 307.8599 318.54435 324.7781 331.85426 338.088 342.03324 345.8802 349.8254 355.94685 360.62217 367.6983 373.93208 384.3638 390.48524 397.54734 403.66877 414.1005 421.06434">Provayder tomonidan berilgan manzillarga ega bo</tspan></text>
</g>
<clipPath id="cp31208">
<path transform="matrix(1,0,0,-1,0,841.92)" d="M .000008871 0 L 595.32 0 L 595.32 841.92 L .000008871 841.92 Z " fill-rule="evenodd"/>
</clipPath>
<g clip-path="url(#cp31208)">
<text xml:space="preserve" transform="matrix(1 0 -0 1 0 841.92)" font-size="14.04" font-family="Times New Roman"><tspan y="-289.49" x="428.47">&#x2019;</tspan></text>
</g>
<clipPath id="cp31209">
<path transform="matrix(1,0,0,-1,0,841.92)" d="M .000008871 0 L 595.32 0 L 595.32 841.92 L .000008871 841.92 Z " fill-rule="evenodd"/>
</clipPath>
<g clip-path="url(#cp31209)">
<text xml:space="preserve" transform="matrix(1 0 -0 1 0 841.92)" font-size="14.04" font-family="Times New Roman"><tspan y="-289.49" x="433.03 436.97523 447.65968 453.89344 460.96958 467.20335 474.16719 484.5989 491.56275 498.62486 509.3093 516.49777 523.33529 530.3974 534.34268 540.5764 545.2517 549.0987 555.33248 559.89547">lmagan kompyuterlar </tspan></text>
</g>
<clipPath id="cp31210">
<path transform="matrix(1,0,0,-1,0,841.92)" d="M .000008871 0 L 595.32 0 L 595.32 841.92 L .000008871 841.92 Z " fill-rule="evenodd"/>
</clipPath>
<g clip-path="url(#cp31210)">
<text xml:space="preserve" transform="matrix(1 0 -0 1 0 841.92)" font-size="14.04" font-family="Times New Roman"><tspan y="-265.37" x="85.104 95.90076 102.134517 109.21067 115.44443 119.29139 123.23663 127.18188 134.01935 142.40123 146.34647 152.58023 157.25556 167.94 175.00212 182.06424 186.00948 192.24324 196.91857 205.20217 212.26428 218.38573 225.44785 232.41168 239.4738 247.85569 254.08945 260.21089 267.27299 271.2182 275.7812 282.01496 285.96018 292.0816 299.04545 306.10755 312.22898 319.29109 327.67298 334.73509 339.4104 345.53184 349.47706 353.324 360.28785 367.34996 373.5837 380.54756 384.49278 392.87467 403.5591 409.79289 416.86903 423.10279 427.048 430.89497 434.84019 441.07395 445.63694 452.69905 458.9328 467.32875 473.5625 480.52635 486.7601 495.15605 502.11988">mahalliy tarmoqlar uchun zahiralangan oraliqdagi manzillarga ega bo</tspan></text>
</g>
<clipPath id="cp31211">
<path transform="matrix(1,0,0,-1,0,841.92)" d="M .000008871 0 L 595.32 0 L 595.32 841.92 L .000008871 841.92 Z " fill-rule="evenodd"/>
</clipPath>
<g clip-path="url(#cp31211)">
<text xml:space="preserve" transform="matrix(1 0 -0 1 0 841.92)" font-size="14.04" font-family="Times New Roman"><tspan y="-265.37" x="509.74">&#x2019;</tspan></text>
</g>
<clipPath id="cp31212">
<path transform="matrix(1,0,0,-1,0,841.92)" d="M .000008871 0 L 595.32 0 L 595.32 841.92 L .000008871 841.92 Z " fill-rule="evenodd"/>
</clipPath>
<g clip-path="url(#cp31212)">
<text xml:space="preserve" transform="matrix(1 0 -0 1 0 841.92)" font-size="14.04" font-family="Times New Roman"><tspan y="-265.37" x="514.3 518.24526 522.0922 527.5959 534.55978 538.505 546.8869 553.85079 559.9722">lishi va </tspan></text>
</g>
<clipPath id="cp31213">
<path transform="matrix(1,0,0,-1,0,841.92)" d="M .000008871 0 L 595.32 0 L 595.32 841.92 L .000008871 841.92 Z " fill-rule="evenodd"/>
</clipPath>
<g clip-path="url(#cp31213)">
<text xml:space="preserve" transform="matrix(1 0 -0 1 0 841.92)" font-size="14.04" font-family="Times New Roman"><tspan y="-241.13" x="85.104 95.90076 102.134517 109.21067 115.44443 119.29139 123.23663 127.18188 134.01935 148.76134 152.70658 158.94034 163.61566 174.30011 181.36223 188.42435 203.16634 210.22846 217.29058 227.97502 235.03714 241.87462 248.93674 252.88198 259.11573 263.79106 267.7503 273.98408 278.6594 293.30314 300.36524 304.2122 308.1574 314.27885 321.24269 335.98469 339.9299">mahalliy tarmoq kompyuterlar bilan is</tspan></text>
</g>
<clipPath id="cp31214">
<path transform="matrix(1,0,0,-1,0,841.92)" d="M .000008871 0 L 595.32 0 L 595.32 841.92 L .000008871 841.92 Z " fill-rule="evenodd"/>
</clipPath>
<g clip-path="url(#cp31214)">
<text xml:space="preserve" transform="matrix(1 0 -0 1 0 841.92)" font-size="14.04" font-family="Times New Roman"><tspan y="-241.13" x="345.67 352.73213 356.67735 362.79878 368.20417 375.26628 379.2115 393.9535 404.63795 411.82643 422.51087 429.57298 433.5182 440.48204 444.42726 459.16926 473.91127 480.97337 487.9372 494.9993 498.5093 505.44508 512.40896 519.47109 522.9811 530.0011 533.38479 540.4469">hlashi mumkin:  192.168.0.1 </tspan></text>
</g>
<clipPath id="cp31215">
<path transform="matrix(1,0,0,-1,0,841.92)" d="M .000008871 0 L 595.32 0 L 595.32 841.92 L .000008871 841.92 Z " fill-rule="evenodd"/>
</clipPath>
<g clip-path="url(#cp31215)">
<text xml:space="preserve" transform="matrix(1 0 -0 1 0 841.92)" font-size="14.04" font-family="Times New Roman"><tspan y="-241.13" x="555.46">-</tspan></text>
</g>
<clipPath id="cp31216">
<path transform="matrix(1,0,0,-1,0,841.92)" d="M .000008871 0 L 595.32 0 L 595.32 841.92 L .000008871 841.92 Z " fill-rule="evenodd"/>
</clipPath>
<g clip-path="url(#cp31216)">
<text xml:space="preserve" transform="matrix(1 0 -0 1 0 841.92)" font-size="14.04" font-family="Times New Roman"><tspan y="-241.13" x="560.02"> </tspan></text>
</g>
<clipPath id="cp31217">
<path transform="matrix(1,0,0,-1,0,841.92)" d="M .000008871 0 L 595.32 0 L 595.32 841.92 L .000008871 841.92 Z " fill-rule="evenodd"/>
</clipPath>
<g clip-path="url(#cp31217)">
<text xml:space="preserve" transform="matrix(1 0 -0 1 0 841.92)" font-size="14.04" font-family="Times New Roman"><tspan y="-216.98" x="85.104 92.166118 99.12995 106.19207 109.70207 116.637828 123.60166 130.66378 134.17377 141.10953 148.07337 155.13549 158.64548 165.58124 172.64336 179.70548 183.21547 186.54294 193.60506 200.5689 207.53273 211.04273 218.06273 225.15294 228.5085 235.57062 239.08061 246.10062">192.168.255.255, 172.16.0.1 </tspan></text>
</g>
<clipPath id="cp31218">
<path transform="matrix(1,0,0,-1,0,841.92)" d="M .000008871 0 L 595.32 0 L 595.32 841.92 L .000008871 841.92 Z " fill-rule="evenodd"/>
</clipPath>
<g clip-path="url(#cp31218)">
<text xml:space="preserve" transform="matrix(1 0 -0 1 0 841.92)" font-size="14.04" font-family="Times New Roman"><tspan y="-216.98" x="249.77">-</tspan></text>
</g>
<clipPath id="cp31219">
<path transform="matrix(1,0,0,-1,0,841.92)" d="M .000008871 0 L 595.32 0 L 595.32 841.92 L .000008871 841.92 Z " fill-rule="evenodd"/>
</clipPath>
<g clip-path="url(#cp31219)">
<text xml:space="preserve" transform="matrix(1 0 -0 1 0 841.92)" font-size="14.04" font-family="Times New Roman"><tspan y="-216.98" x="254.45"> </tspan></text>
</g>
<clipPath id="cp31220">
<path transform="matrix(1,0,0,-1,0,841.92)" d="M .000008871 0 L 595.32 0 L 595.32 841.92 L .000008871 841.92 Z " fill-rule="evenodd"/>
</clipPath>
<g clip-path="url(#cp31220)">
<text xml:space="preserve" transform="matrix(1 0 -0 1 0 841.92)" font-size="14.04" font-family="Times New Roman"><tspan y="-216.98" x="257.81 264.8721 271.83595 278.89805 282.40806 289.3438 296.4059 299.76148 306.82359 313.7874 320.84953 324.20509 331.26719 338.23103">172.16.255.255</tspan></text>
</g>
<clipPath id="cp31221">
<path transform="matrix(1,0,0,-1,0,841.92)" d="M .000008871 0 L 595.32 0 L 595.32 841.92 L .000008871 841.92 Z " fill-rule="evenodd"/>
</clipPath>
<g clip-path="url(#cp31221)">
<text xml:space="preserve" transform="matrix(1 0 -0 1 0 841.92)" font-size="14.04" font-family="Times New Roman"><tspan y="-216.98" x="345.31"> </tspan></text>
</g>
</g>
<g id="Layer-1" data-name="P">
<clipPath id="cp31222">
<path transform="matrix(1,0,0,-1,0,841.92)" d="M .000008871 0 L 595.32 0 L 595.32 841.92 L .000008871 841.92 Z " fill-rule="evenodd"/>
</clipPath>
<g clip-path="url(#cp31222)">
<text xml:space="preserve" transform="matrix(1 0 -0 1 0 841.92)" font-size="14.04" font-family="Times New Roman"><tspan y="-192.86" x="120.5 125.17532 132.2515 136.09845 142.33222 147.00754 153.98543 160.2192 164.16443 169.79447 176.02823 179.87519 186.10895 193.07279 197.01802 201.58103 208.64315 215.70526 221.3353 228.29914 235.36125 241.4827 248.54482 252.49005 258.72383 264.35386 269.02919">Internet elektron pochta (e</tspan></text>
</g>
<clipPath id="cp31223">
<path transform="matrix(1,0,0,-1,0,841.92)" d="M .000008871 0 L 595.32 0 L 595.32 841.92 L .000008871 841.92 Z " fill-rule="evenodd"/>
</clipPath>
<g clip-path="url(#cp31223)">
<text xml:space="preserve" transform="matrix(1 0 -0 1 0 841.92)" font-size="14.04" font-family="Times New Roman"><tspan y="-192.86" x="275.45">-</tspan></text>
</g>
<clipPath id="cp31224">
<path transform="matrix(1,0,0,-1,0,841.92)" d="M .000008871 0 L 595.32 0 L 595.32 841.92 L .000008871 841.92 Z " fill-rule="evenodd"/>
</clipPath>
<g clip-path="url(#cp31224)">
<text xml:space="preserve" transform="matrix(1 0 -0 1 0 841.92)" font-size="14.04" font-family="Times New Roman"><tspan y="-192.86" x="280.13 290.81446 297.04823 300.99345 304.93867 309.61399 315.24403 322.20787 326.15309 332.38685 343.0713 349.30506 353.25028 357.1955 364.15934 368.10456 373.7346 380.7967 387.03047 397.84126 403.47129 410.5334 417.5955 422.15849 426.8338 432.33747 438.57124 442.41819 448.65196 455.61579 459.561 463.071 468.67298 477.19526 481.14048 487.37425 494.45039 498.29734 502.97267 509.9365 516.9986 522.62869 529.5925 536.65469 542.7761 549.74 553.587 559.70846">mail) xizmatini ham ko&#x2018;rsatadi. Elektron pochta </tspan></text>
</g>
<clipPath id="cp31225">
<path transform="matrix(1,0,0,-1,0,841.92)" d="M .000008871 0 L 595.32 0 L 595.32 841.92 L .000008871 841.92 Z " fill-rule="evenodd"/>
</clipPath>
<g clip-path="url(#cp31225)">
<text xml:space="preserve" transform="matrix(1 0 -0 1 0 841.92)" font-size="14.04" font-family="Times New Roman"><tspan y="-168.74" x="85.104 92.166118 96.11136 106.7958 113.02956 119.37563 127.40652 135.92879 139.87403 145.99547 152.9593 156.90454 161.57987 168.5437 175.60582 183.51033 190.57245 197.63457 203.75601 210.81813 214.76337 220.99713 229.028 239.71245 245.94622 253.02239 258.4278 265.4899 270.99357 278.8981 285.9602 292.08164 297.5853 301.43226 308.49436 313.16969 321.07423 328.13633 335.19844 339.7614 343.60838 347.5536 354.6157 358.1257 366.00218 373.06428 380.0281 383.87507 390.93717 397.99928 406.03016 412.8676 419.92973 424.60505 431.68119 437.8026 448.48707 452.43229 459.4944 465.72816 473.75904 481.56529 485.5105 491.74427 499.77516 506.73899 513.8011 520.8632 527.70077 534.7629 541.72677 545.5737 552.5376 559.3751">nima? Elektron pochta maxsus dastur bo&#x2018;lib, uning yordamida Siz dunyoning </tspan></text>
</g>
<clipPath id="cp31226">
<path transform="matrix(1,0,0,-1,0,841.92)" d="M .000008871 0 L 595.32 0 L 595.32 841.92 L .000008871 841.92 Z " fill-rule="evenodd"/>
</clipPath>
<g clip-path="url(#cp31226)">
<text xml:space="preserve" transform="matrix(1 0 -0 1 0 841.92)" font-size="14.04" font-family="Times New Roman"><tspan y="-144.5" x="85.104 89.04924 96.01308 99.95832 103.903568 110.74104 117.80316 122.478488 126.42373 133.2612 143.9316 147.77855 154.84067 161.67815 165.62339 172.6855 178.91927 185.99544 189.94068 200.61107 206.73252 210.67775 216.91152 223.87535 227.82059 232.38359 239.34743 246.40955 257.07997 263.31373 270.38987 275.0652 281.1866 286.592 293.6541 299.88789 310.5583 317.6204 323.74183 327.58879 331.0988 341.74113 348.80323 355.86534 359.71229 363.55924 369.793 373.73823 384.40864 391.47074 397.7045 408.3749 415.437 426.12147 433.30995 443.9944 450.22816 457.3043 467.9747 471.91993 478.88377 482.7307 486.67594 493.5134 500.5755 505.25083 509.19606 516.03359 526.704 531.3793 537.72537 544.56289 548.5081 555.57028 559.41726">ixtiyoriy joyidagi elektron adresga xat, hujjat va umuman ixtiyoriy faylni </tspan></text>
</g>
<clipPath id="cp31227">
<path transform="matrix(1,0,0,-1,0,841.92)" d="M .000008871 0 L 595.32 0 L 595.32 841.92 L .000008871 841.92 Z " fill-rule="evenodd"/>
</clipPath>
<g clip-path="url(#cp31227)">
<text xml:space="preserve" transform="matrix(1 0 -0 1 0 841.92)" font-size="14.04" font-family="Times New Roman"><tspan y="-120.38" x="85.104 88.95096 96.01308 100.57608 107.6382 113.871959 117.8172 121.66416 127.069568 134.13169 137.97864 144.94248 152.0046 155.94983 162.1836 169.02108 176.08319 182.31696 189.26676 196.32888 202.45032 209.51244 216.47628 220.42151 227.3713 234.33515 238.28038 242.12734 245.97429 253.0364 259.9862">jo&#x2018;natishingiz va qabul qilib o</tspan></text>
</g>
<clipPath id="cp31228">
<path transform="matrix(1,0,0,-1,0,841.92)" d="M .000008871 0 L 595.32 0 L 595.32 841.92 L .000008871 841.92 Z " fill-rule="evenodd"/>
</clipPath>
<g clip-path="url(#cp31228)">
<text xml:space="preserve" transform="matrix(1 0 -0 1 0 841.92)" font-size="14.04" font-family="Times New Roman"><tspan y="-120.38" x="267.29 271.13697 275.08219 280.48759 287.45143 291.39665 298.36048 305.3243 309.26954 315.5033 322.4531 333.13755 340.32603 351.01048 358.07258 362.0178 369.0799 372.5899">lishingiz mumkin. </tspan></text>
</g>
</g>
<g id="Layer-1" data-name="P">
<clipPath id="cp31229">
<path transform="matrix(1,0,0,-1,0,841.92)" d="M .000008871 0 L 595.32 0 L 595.32 841.92 L .000008871 841.92 Z " fill-rule="evenodd"/>
</clipPath>
<g clip-path="url(#cp31229)">
<text xml:space="preserve" transform="matrix(1 0 -0 1 0 841.92)" font-size="14.04" font-family="Times New Roman"><tspan y="-120.38" x="379.63">&#x0425;</tspan></text>
</g>
</g>
<g id="Layer-1" data-name="P">
<clipPath id="cp31230">
<path transform="matrix(1,0,0,-1,0,841.92)" d="M .000008871 0 L 595.32 0 L 595.32 841.92 L .000008871 841.92 Z " fill-rule="evenodd"/>
</clipPath>
<g clip-path="url(#cp31230)">
<text xml:space="preserve" transform="matrix(1 0 -0 1 0 841.92)" font-size="14.04" font-family="Times New Roman"><tspan y="-120.38" x="389.71 395.94377 399.88899 406.83879 413.90089 417.8461 422.52143 429.47123 435.705 442.66883 453.35328 460.41539 466.64915 473.7253 484.52207 490.75584 497.83198 504.06575 508.01097 511.8579 518.92007 525.1538 532.10366 538.94119 545.1749 549.0219 552.8689 559.83279">at bir zumda manzilga yetib </tspan></text>
</g>
</g>
<g id="Layer-1" data-name="P">
<clipPath id="cp31231">
<path transform="matrix(1,0,0,-1,0,841.92)" d="M .000008871 0 L 595.32 0 L 595.32 841.92 L .000008871 841.92 Z " fill-rule="evenodd"/>
</clipPath>
<g clip-path="url(#cp31231)">
<text xml:space="preserve" transform="matrix(1 0 -0 1 0 841.92)" font-size="14.04" font-family="Times New Roman"><tspan y="-96.264" x="85.104 92.166118 99.22823 103.79124 110.024997 116.98883 120.934078 124.44408 130.15836 138.68064 144.9144 151.87824 155.82347 162.88559 168.51563 175.47946 182.54158 189.50542 195.73918 202.70302 208.44538 213.1207 220.19687 227.03435 234.09647 240.33023 244.27547 250.39691 257.459 261.30598 266.71138 273.77348 279.51585 286.57795 292.69938 299.6632 306.7253 313.7874 319.41746 324.82286 328.76808 335.00184 340.75825 351.4427 357.67646 364.7526 370.25627 377.2201 382.72377 388.46614 395.42997 402.49208 408.6135 415.6756 419.52256 425.75633 431.51274 435.45796 441.6917 446.2547 456.93916 464.00126 471.06336 475.62635 479.57157 485.4403 492.27778 499.33988 506.40199 510.3472 516.08956 520.76486 527.7287 531.67398 537.9077 542.4707 549.53286 555.5279 559.3749">boradi. Lekin undan foydalanish uchun siz maxsus pochta tarmog&#x2018;i yoki Internet </tspan></text>
</g>
</g>
<g id="Layer-1" data-name="P">
<clipPath id="cp31232">
<path transform="matrix(1,0,0,-1,0,841.92)" d="M .000008871 0 L 595.32 0 L 595.32 841.92 L .000008871 841.92 Z " fill-rule="evenodd"/>
</clipPath>
<g clip-path="url(#cp31232)">
<text xml:space="preserve" transform="matrix(1 0 -0 1 0 841.92)" font-size="14.04" font-family="Times New Roman"><tspan y="-72.144" x="85.104 89.04924 95.283 99.95832 110.64276 117.70488 124.767 129.33 133.27524 140.33736 146.57112 154.12464 161.08847 168.0523 175.11443 179.67743 183.62267 189.85643 196.82027 203.7841 210.01787 217.09404 224.63352 231.59735 238.65947 243.22248 247.16771 251.01467 256.51835 263.48219 267.32914 274.39125 281.35508 285.3003 291.53407 299.0876 306.05143 312.2852 319.8387 326.07249 330.0177 336.25148 343.2153 347.16053 351.7235 358.68736 365.74946 373.28895 379.5227 386.59886 391.27418 397.3956 402.801 409.8631 416.09687 423.6504 429.88417 436.9603 443.08174 450.62123 457.68333 464.74543 469.3084 473.25364 477.1006 482.60426 489.56809 493.41505 500.47715 507.44099 511.3862 517.61996 525.17349 532.1373 538.3711 543.0464 549.1819 556.14578 559.50137">tarmog&#x2018;iga bog&#x2018;langan bo&#x2018;lishingiz va elektron adresga ega bo&#x2018;lishingiz kerak. </tspan></text>
</g>
</g>
</g>
</g>
</svg>
