<?xml version="1.0" encoding="UTF-8" standalone="no"?>
<!DOCTYPE svg PUBLIC "-//W3C//DTD SVG 1.1//EN" "http://www.w3.org/Graphics/SVG/1.1/DTD/svg11.dtd">
<svg xmlns="http://www.w3.org/2000/svg" xmlns:xlink="http://www.w3.org/1999/xlink" version="1.1" width="595.32pt" height="841.92pt" viewBox="0 0 595.32 841.92">
<g enable-background="new">
<g>
<g id="Layer-1" data-name="Artifact">
<clipPath id="cp34383">
<path transform="matrix(1,0,0,-1,0,841.92)" d="M .000008871 0 L 595.32 0 L 595.32 841.92 L .000008871 841.92 Z " fill-rule="evenodd"/>
</clipPath>
<g clip-path="url(#cp34383)">
<text xml:space="preserve" transform="matrix(1 0 -0 1 0 841.92)" font-size="11.04" font-family="Calibri"><tspan y="-51.864" x="314.09 319.72999 325.36997">215</tspan></text>
</g>
<clipPath id="cp34384">
<path transform="matrix(1,0,0,-1,0,841.92)" d="M .000008871 0 L 595.32 0 L 595.32 841.92 L .000008871 841.92 Z " fill-rule="evenodd"/>
</clipPath>
<g clip-path="url(#cp34384)">
<text xml:space="preserve" transform="matrix(1 0 -0 1 0 841.92)" font-size="11.04" font-family="Calibri"><tspan y="-51.864" x="331.03"> </tspan></text>
</g>
<clipPath id="cp34385">
<path transform="matrix(1,0,0,-1,0,841.92)" d="M .000008871 0 L 595.32 0 L 595.32 841.92 L .000008871 841.92 Z " fill-rule="evenodd"/>
</clipPath>
<g clip-path="url(#cp34385)">
</g>
<clipPath id="cp34386">
<path transform="matrix(1,0,0,-1,0,841.92)" d="M .000008871 0 L 595.32 0 L 595.32 841.92 L .000008871 841.92 Z " fill-rule="evenodd"/>
</clipPath>
<g clip-path="url(#cp34386)">
<text xml:space="preserve" transform="matrix(1 0 -0 1 0 841.92)" font-size="11.04" font-family="Calibri"><tspan y="-38.4" x="85.104"> </tspan></text>
</g>
<clipPath id="cp34387">
<path transform="matrix(1,0,0,-1,0,841.92)" d="M .000008871 0 L 595.32 0 L 595.32 841.92 L .000008871 841.92 Z " fill-rule="evenodd"/>
</clipPath>
<g clip-path="url(#cp34387)">
</g>
</g>
<g id="Layer-1" data-name="P">
<clipPath id="cp34388">
<path transform="matrix(1,0,0,-1,0,841.92)" d="M .000008871 0 L 595.32 0 L 595.32 841.92 L .000008871 841.92 Z " fill-rule="evenodd"/>
</clipPath>
<g clip-path="url(#cp34388)">
<text xml:space="preserve" transform="matrix(1 0 -0 1 0 841.92)" font-size="14.04" font-family="Times New Roman"><tspan y="-772.56" x="113.42 118.1 122.78 127.46 132.14">(III)</tspan></text>
</g>
<clipPath id="cp34389">
<path transform="matrix(1,0,0,-1,0,841.92)" d="M .000008871 0 L 595.32 0 L 595.32 841.92 L .000008871 841.92 Z " fill-rule="evenodd"/>
</clipPath>
<g clip-path="url(#cp34389)">
<text xml:space="preserve" transform="matrix(1 0 -0 1 0 841.92)" font-size="14.04" font-family="Arial"><tspan y="-772.56" x="136.7"> </tspan></text>
</g>
<clipPath id="cp34390">
<path transform="matrix(1,0,0,-1,0,841.92)" d="M .000008871 0 L 595.32 0 L 595.32 841.92 L .000008871 841.92 Z " fill-rule="evenodd"/>
</clipPath>
<g clip-path="url(#cp34390)">
<text xml:space="preserve" transform="matrix(1 0 -0 1 0 841.92)" font-size="14.04" font-family="Times New Roman"><tspan y="-772.56" x="141.74 151.82073 158.05449 163.57222 167.41918 174.4813 179.0443 182.98954 189.2233 194.6287 201.69081 205.2008 209.00565 212.8526 216.79784 220.74308 226.86452 231.53984 235.3868 242.44892 248.57036 255.63248 259.1425 266.16249 273.18247">Dasturlash tillaridan bog</tspan></text>
</g>
<clipPath id="cp34391">
<path transform="matrix(1,0,0,-1,0,841.92)" d="M .000008871 0 L 595.32 0 L 595.32 841.92 L .000008871 841.92 Z " fill-rule="evenodd"/>
</clipPath>
<g clip-path="url(#cp34391)">
<text xml:space="preserve" transform="matrix(1 0 -0 1 0 841.92)" font-size="14.04" font-family="Times New Roman"><tspan y="-772.56" x="280.37">&#x2019;</tspan></text>
</g>
<clipPath id="cp34392">
<path transform="matrix(1,0,0,-1,0,841.92)" d="M .000008871 0 L 595.32 0 L 595.32 841.92 L .000008871 841.92 Z " fill-rule="evenodd"/>
</clipPath>
<g clip-path="url(#cp34392)">
<text xml:space="preserve" transform="matrix(1 0 -0 1 0 841.92)" font-size="14.04" font-family="Times New Roman"><tspan y="-772.56" x="284.93 288.8752 292.72218 299.78428 303.29429 309.52806 320.18443 326.41819 331.93589 335.8811 339.72807 346.79017 350.73539 354.2454 357.57289 364.63499 370.7564 377.72026 384.78236 388.6293 392.57453 399.53837 403.3853">liq emasligi, ozodligi;</tspan></text>
</g>
<clipPath id="cp34393">
<path transform="matrix(1,0,0,-1,0,841.92)" d="M .000008871 0 L 595.32 0 L 595.32 841.92 L .000008871 841.92 Z " fill-rule="evenodd"/>
</clipPath>
<g clip-path="url(#cp34393)">
<text xml:space="preserve" transform="matrix(1 0 -0 1 0 841.92)" font-size="14.04" font-family="Times New Roman"><tspan y="-772.56" x="407.35"> </tspan></text>
</g>
<clipPath id="cp34394">
<path transform="matrix(1,0,0,-1,0,841.92)" d="M .000008871 0 L 595.32 0 L 595.32 841.92 L .000008871 841.92 Z " fill-rule="evenodd"/>
</clipPath>
<g clip-path="url(#cp34394)">
</g>
</g>
<g id="Layer-1" data-name="P">
<clipPath id="cp34395">
<path transform="matrix(1,0,0,-1,0,841.92)" d="M .000008871 0 L 595.32 0 L 595.32 841.92 L .000008871 841.92 Z " fill-rule="evenodd"/>
</clipPath>
<g clip-path="url(#cp34395)">
<text xml:space="preserve" transform="matrix(1 0 -0 1 0 841.92)" font-size="14.04" font-family="Times New Roman"><tspan y="-748.3" x="113.42 118.09532 122.770648 132.86542">(IV)</tspan></text>
</g>
<clipPath id="cp34396">
<path transform="matrix(1,0,0,-1,0,841.92)" d="M .000008871 0 L 595.32 0 L 595.32 841.92 L .000008871 841.92 Z " fill-rule="evenodd"/>
</clipPath>
<g clip-path="url(#cp34396)">
<text xml:space="preserve" transform="matrix(1 0 -0 1 0 841.92)" font-size="14.04" font-family="Arial"><tspan y="-748.3" x="137.54"> </tspan></text>
</g>
<clipPath id="cp34397">
<path transform="matrix(1,0,0,-1,0,841.92)" d="M .000008871 0 L 595.32 0 L 595.32 841.92 L .000008871 841.92 Z " fill-rule="evenodd"/>
</clipPath>
<g clip-path="url(#cp34397)">
<text xml:space="preserve" transform="matrix(1 0 -0 1 0 841.92)" font-size="14.04" font-family="Times New Roman"><tspan y="-748.3" x="141.74 151.82073 158.88285 169.56729 176.75579 183.59326 190.65538 194.60062 200.83438 205.5097 212.58588 218.81964 226.73819 232.85964 236.80487 243.7687 250.83083 255.39383 259.33906 263.186 273.87046 280.93257 284.87779 291.93989 299.00199 306.90653 313.96864">Kompyuterga algoritmning ha</tspan></text>
</g>
<clipPath id="cp34398">
<path transform="matrix(1,0,0,-1,0,841.92)" d="M .000008871 0 L 595.32 0 L 595.32 841.92 L .000008871 841.92 Z " fill-rule="evenodd"/>
</clipPath>
<g clip-path="url(#cp34398)">
<text xml:space="preserve" transform="matrix(1 0 -0 1 0 841.92)" font-size="14.04" font-family="Times New Roman"><tspan y="-748.3" x="320.47 325.14533 332.93754 339.99964 343.94486 348.62019 356.52473 363.48857 370.4524 375.95606 382.9199 386.8651 393.09889 400.0627 404.00794 411.91249 418.8763 424.37998 431.3438 438.30766 442.25288 446.09983 453.16194 459.28337 466.34547 472.57923 480.4978 487.46165 494.42549 501.48759 505.33454 511.5683 518.6445 522.49148 527.89688 534.959 538.90426 546.8088 553.6463 559.76779">r bir bosqichi osonlikcha kodlanishi va </tspan></text>
</g>
<clipPath id="cp34399">
<path transform="matrix(1,0,0,-1,0,841.92)" d="M .000008871 0 L 595.32 0 L 595.32 841.92 L .000008871 841.92 Z " fill-rule="evenodd"/>
</clipPath>
<g clip-path="url(#cp34399)">
</g>
<clipPath id="cp34400">
<path transform="matrix(1,0,0,-1,0,841.92)" d="M .000008871 0 L 595.32 0 L 595.32 841.92 L .000008871 841.92 Z " fill-rule="evenodd"/>
</clipPath>
<g clip-path="url(#cp34400)">
<text xml:space="preserve" transform="matrix(1 0 -0 1 0 841.92)" font-size="14.04" font-family="Times New Roman"><tspan y="-724.18" x="85.104 92.166118 98.39987 103.805278 107.65224 114.714359 119.27736 126.33948 130.18643 137.24855 144.31067 147.82067 154.63007 161.69219 168.65602 175.71814 180.28115 184.22638 187.73638 194.75638 200.99015 205.58123 211.81499 215.66194 221.8957 228.97188 235.09333 242.15544 246.10068 249.45624 256.51835 263.48219 270.446 274.39125 280.625 286.0304 292.99424 296.93946 300.88468 305.44767 309.39289 314.79829 321.86039 325.21595 329.16117 333.00813 336.95335 340.8003 347.8624 354.09617 357.60618 368.26255 375.32466 380.8283 384.33833 391.3583 397.50785 401.45307 405.30003 410.7054 417.76753 421.71275">dasturning yuqori darajadagi kodlashtirish tiliga mos kelishi.</tspan></text>
</g>
<clipPath id="cp34401">
<path transform="matrix(1,0,0,-1,0,841.92)" d="M .000008871 0 L 595.32 0 L 595.32 841.92 L .000008871 841.92 Z " fill-rule="evenodd"/>
</clipPath>
<g clip-path="url(#cp34401)">
<text xml:space="preserve" transform="matrix(1 0 -0 1 0 841.92)" font-size="14.04" font-family="Times New Roman,Bold" font-weight="bold"><tspan y="-724.18" x="425.47"> </tspan></text>
</g>
<clipPath id="cp34402">
<path transform="matrix(1,0,0,-1,0,841.92)" d="M .000008871 0 L 595.32 0 L 595.32 841.92 L .000008871 841.92 Z " fill-rule="evenodd"/>
</clipPath>
<g clip-path="url(#cp34402)">
</g>
</g>
<g id="Layer-1" data-name="P">
<clipPath id="cp34403">
<path transform="matrix(1,0,0,-1,0,841.92)" d="M .000008871 0 L 595.32 0 L 595.32 841.92 L .000008871 841.92 Z " fill-rule="evenodd"/>
</clipPath>
<g clip-path="url(#cp34403)">
<text xml:space="preserve" transform="matrix(1 0 -0 1 0 841.92)" font-size="12" font-family="Times New Roman,Bold" font-weight="bold"><tspan y="-701.62" x="172.34"> </tspan></text>
</g>
</g>
<g id="Layer-1" data-name="P">
<clipPath id="cp34404">
<path transform="matrix(1,0,0,-1,0,841.92)" d="M .000008871 0 L 595.32 0 L 595.32 841.92 L .000008871 841.92 Z " fill-rule="evenodd"/>
</clipPath>
<g clip-path="url(#cp34404)">
<text xml:space="preserve" transform="matrix(1 0 -0 1 0 841.92)" font-size="14.04" font-family="Times New Roman,Bold" font-weight="bold"><tspan y="-679.06" x="148.1 155.16213 162.22425 165.5798 172.64192 176.15192 179.60575 192.80333 200.60958 205.2849 212.24874 219.21257 226.27469 231.68009 237.18376 241.03072 246.43611 250.38135 254.32659 262.00645 269.81269 276.8748 280.3848 287.32057 291.26579 299.07203 302.58204 314.06675 321.12886 326.6325 333.59635 337.4433 344.5054 348.35237 355.41447 361.64823 369.3281 373.27333 376.78334 383.7191 389.8405 396.07429 403.88053 407.72749 413.23115 421.03739 424.5474 431.46913 435.41435 442.37818 449.44029 455.5617 459.50694 464.18226 475.70909 479.6543 486.7164 492.83784">10.2. Mutaxassislikka oid masalalarni yechish algoritmlari</tspan></text>
</g>
<clipPath id="cp34405">
<path transform="matrix(1,0,0,-1,0,841.92)" d="M .000008871 0 L 595.32 0 L 595.32 841.92 L .000008871 841.92 Z " fill-rule="evenodd"/>
</clipPath>
<g clip-path="url(#cp34405)">
<text xml:space="preserve" transform="matrix(1 0 -0 1 0 841.92)" font-size="12" font-family="Times New Roman,Bold" font-weight="bold"><tspan y="-679.06" x="497.02"> </tspan></text>
</g>
</g>
<g id="Layer-1" data-name="P">
<clipPath id="cp34406">
<path transform="matrix(1,0,0,-1,0,841.92)" d="M .000008871 0 L 595.32 0 L 595.32 841.92 L .000008871 841.92 Z " fill-rule="evenodd"/>
</clipPath>
<g clip-path="url(#cp34406)">
<text xml:space="preserve" transform="matrix(1 0 -0 1 0 841.92)" font-size="14.04" font-family="Times New Roman,Bold" font-weight="bold"><tspan y="-654.94" x="223.25 228.75368 236.43357 244.11345 248.05869 252.73401 259.81016 263.32017 268.7817 275.8719 283.55177 291.358 295.30323 298.65879">Ikkita sonni o</tspan></text>
</g>
<clipPath id="cp34407">
<path transform="matrix(1,0,0,-1,0,841.92)" d="M .000008871 0 L 595.32 0 L 595.32 841.92 L .000008871 841.92 Z " fill-rule="evenodd"/>
</clipPath>
<g clip-path="url(#cp34407)">
<text xml:space="preserve" transform="matrix(1 0 -0 1 0 841.92)" font-size="14.04" font-family="Times New Roman,Bold" font-weight="bold"><tspan y="-654.94" x="305.81">&#x2019;</tspan></text>
</g>
<clipPath id="cp34408">
<path transform="matrix(1,0,0,-1,0,841.92)" d="M .000008871 0 L 595.32 0 L 595.32 841.92 L .000008871 841.92 Z " fill-rule="evenodd"/>
</clipPath>
<g clip-path="url(#cp34408)">
<text xml:space="preserve" transform="matrix(1 0 -0 1 0 841.92)" font-size="14.04" font-family="Times New Roman,Bold" font-weight="bold"><tspan y="-654.94" x="310.49 316.72377 324.40364 328.34886 336.1551 340.1003 343.45588 350.51799 354.4632 365.99003 373.05213 378.5558 386.23567 390.91099 394.8562 400.97764 404.8246 410.32826 418.1345">rnini almashtirish.</tspan></text>
</g>
<clipPath id="cp34409">
<path transform="matrix(1,0,0,-1,0,841.92)" d="M .000008871 0 L 595.32 0 L 595.32 841.92 L .000008871 841.92 Z " fill-rule="evenodd"/>
</clipPath>
<g clip-path="url(#cp34409)">
<text xml:space="preserve" transform="matrix(1 0 -0 1 0 841.92)" font-size="14.04" font-family="Times New Roman,Bold" font-weight="bold"><tspan y="-654.94" x="421.75"> </tspan></text>
</g>
</g>
<g id="Layer-1" data-name="P">
<clipPath id="cp34410">
<path transform="matrix(1,0,0,-1,0,841.92)" d="M .000008871 0 L 595.32 0 L 595.32 841.92 L .000008871 841.92 Z " fill-rule="evenodd"/>
</clipPath>
<g clip-path="url(#cp34410)">
<text xml:space="preserve" transform="matrix(1 0 -0 1 0 841.92)" font-size="14.04" font-family="Times New Roman"><tspan y="-631.06" x="113.42"> </tspan></text>
</g>
</g>
<g id="Layer-1" data-name="P">
<clipPath id="cp34411">
<path transform="matrix(1,0,0,-1,0,841.92)" d="M .000008871 0 L 595.32 0 L 595.32 841.92 L .000008871 841.92 Z " fill-rule="evenodd"/>
</clipPath>
<g clip-path="url(#cp34411)">
<text xml:space="preserve" transform="matrix(1 0 -0 1 0 841.92)" font-size="14.04" font-family="Times New Roman"><tspan y="-631.06" x="116.9 126.26468 132.49845 137.17377 141.02072 144.96596 152.02808 158.14952 165.21164 168.72164 172.52648 179.49031 186.55243 190.39939 194.34462 200.57839 203.94799 209.45166 216.4155 223.47762 226.83318 236.9139 240.42389 243.87772 253.2424 256.7524 266.1171 270.0202 276.25398 279.76399 286.71379 293.77589 297.2859 302.64918 309.71128 316.6751 320.62034 326.8541 331.41709 338.4792 342.4244 345.93443 349.2619">Berilgan ikkita son A, B.Biz bu sonlarni  o</tspan></text>
</g>
</g>
<g id="Layer-1" data-name="P">
<clipPath id="cp34412">
<path transform="matrix(1,0,0,-1,0,841.92)" d="M .000008871 0 L 595.32 0 L 595.32 841.92 L .000008871 841.92 Z " fill-rule="evenodd"/>
</clipPath>
<g clip-path="url(#cp34412)">
<text xml:space="preserve" transform="matrix(1 0 -0 1 0 841.92)" font-size="14.04" font-family="Times New Roman"><tspan y="-631.06" x="356.59">&#x2019;</tspan></text>
</g>
</g>
<g id="Layer-1" data-name="P">
<clipPath id="cp34413">
<path transform="matrix(1,0,0,-1,0,841.92)" d="M .000008871 0 L 595.32 0 L 595.32 841.92 L .000008871 841.92 Z " fill-rule="evenodd"/>
</clipPath>
<g clip-path="url(#cp34413)">
<text xml:space="preserve" transform="matrix(1 0 -0 1 0 841.92)" font-size="14.04" font-family="Times New Roman"><tspan y="-631.06" x="361.15 365.82533 372.90147 376.7484 383.81053 387.75575 391.26576 397.3591 401.30433 411.98878 418.22254 423.74024 430.80235 434.6493 438.5945 443.1575 447.10273 452.50813 459.47196 463.3189 474.00337 477.94859 484.18235 487.69236 494.71235 500.97419 505.6495 511.88328 518.9594 522.4694 525.9233 529.4333">rnini almashtirishimiz kerak.   </tspan></text>
</g>
</g>
<g id="Layer-1" data-name="P">
<clipPath id="cp34414">
<path transform="matrix(1,0,0,-1,0,841.92)" d="M .000008871 0 L 595.32 0 L 595.32 841.92 L .000008871 841.92 Z " fill-rule="evenodd"/>
</clipPath>
<g clip-path="url(#cp34414)">
<text xml:space="preserve" transform="matrix(1 0 -0 1 0 841.92)" font-size="14.04" font-family="Times New Roman"><tspan y="-631.06" x="533.02"> </tspan></text>
</g>
</g>
<g id="Layer-1" data-name="P">
<clipPath id="cp34415">
<path transform="matrix(1,0,0,-1,0,841.92)" d="M .000008871 0 L 595.32 0 L 595.32 841.92 L .000008871 841.92 Z " fill-rule="evenodd"/>
</clipPath>
<g clip-path="url(#cp34415)">
<text xml:space="preserve" transform="matrix(1 0 -0 1 0 841.92)" font-size="14.04" font-family="Times New Roman"><tspan y="-606.94" x="113.42 120.5">1.</tspan></text>
</g>
<clipPath id="cp34416">
<path transform="matrix(1,0,0,-1,0,841.92)" d="M .000008871 0 L 595.32 0 L 595.32 841.92 L .000008871 841.92 Z " fill-rule="evenodd"/>
</clipPath>
<g clip-path="url(#cp34416)">
<text xml:space="preserve" transform="matrix(1 0 -0 1 0 841.92)" font-size="14.04" font-family="Arial"><tspan y="-606.94" x="123.98"> </tspan></text>
</g>
</g>
<g id="Layer-1" data-name="P">
<clipPath id="cp34417">
<path transform="matrix(1,0,0,-1,0,841.92)" d="M .000008871 0 L 595.32 0 L 595.32 841.92 L .000008871 841.92 Z " fill-rule="evenodd"/>
</clipPath>
<g clip-path="url(#cp34417)">
<text xml:space="preserve" transform="matrix(1 0 -0 1 0 841.92)" font-size="14.04" font-family="Times New Roman"><tspan y="-606.94" x="131.66 136.33533 146.41605 154.22229 164.30301 172.82529 176.33528 186.38793 189.89792 193.35175">INPUT A, &#x0412;</tspan></text>
</g>
</g>
<g id="Layer-1" data-name="P">
<clipPath id="cp34418">
<path transform="matrix(1,0,0,-1,0,841.92)" d="M .000008871 0 L 595.32 0 L 595.32 841.92 L .000008871 841.92 Z " fill-rule="evenodd"/>
</clipPath>
<g clip-path="url(#cp34418)">
<text xml:space="preserve" transform="matrix(1 0 -0 1 0 841.92)" font-size="14.04" font-family="Times New Roman"><tspan y="-606.94" x="202.85"> </tspan></text>
</g>
<clipPath id="cp34419">
<path transform="matrix(1,0,0,-1,0,841.92)" d="M .000008871 0 L 595.32 0 L 595.32 841.92 L .000008871 841.92 Z " fill-rule="evenodd"/>
</clipPath>
<g clip-path="url(#cp34419)">
</g>
</g>
<g id="Layer-1" data-name="P">
<clipPath id="cp34420">
<path transform="matrix(1,0,0,-1,0,841.92)" d="M .000008871 0 L 595.32 0 L 595.32 841.92 L .000008871 841.92 Z " fill-rule="evenodd"/>
</clipPath>
<g clip-path="url(#cp34420)">
<text xml:space="preserve" transform="matrix(1 0 -0 1 0 841.92)" font-size="14.04" font-family="Times New Roman"><tspan y="-582.7" x="113.42 120.5">2.</tspan></text>
</g>
<clipPath id="cp34421">
<path transform="matrix(1,0,0,-1,0,841.92)" d="M .000008871 0 L 595.32 0 L 595.32 841.92 L .000008871 841.92 Z " fill-rule="evenodd"/>
</clipPath>
<g clip-path="url(#cp34421)">
<text xml:space="preserve" transform="matrix(1 0 -0 1 0 841.92)" font-size="14.04" font-family="Arial"><tspan y="-582.7" x="123.98"> </tspan></text>
</g>
</g>
<g id="Layer-1" data-name="P">
<clipPath id="cp34422">
<path transform="matrix(1,0,0,-1,0,841.92)" d="M .000008871 0 L 595.32 0 L 595.32 841.92 L .000008871 841.92 Z " fill-rule="evenodd"/>
</clipPath>
<g clip-path="url(#cp34422)">
<text xml:space="preserve" transform="matrix(1 0 -0 1 0 841.92)" font-size="14.04" font-family="Times New Roman"><tspan y="-582.7" x="131.78 140.30228 148.82456 161.30612 169.11237 172.62236">TEMP &#x003c;</tspan></text>
</g>
</g>
<g id="Layer-1" data-name="P">
<clipPath id="cp34423">
<path transform="matrix(1,0,0,-1,0,841.92)" d="M .000008871 0 L 595.32 0 L 595.32 841.92 L .000008871 841.92 Z " fill-rule="evenodd"/>
</clipPath>
<g clip-path="url(#cp34423)">
<text xml:space="preserve" transform="matrix(1 0 -0 1 0 841.92)" font-size="14.04" font-family="Times New Roman"><tspan y="-582.7" x="180.5">-</tspan></text>
</g>
</g>
<g id="Layer-1" data-name="P">
<clipPath id="cp34424">
<path transform="matrix(1,0,0,-1,0,841.92)" d="M .000008871 0 L 595.32 0 L 595.32 841.92 L .000008871 841.92 Z " fill-rule="evenodd"/>
</clipPath>
<g clip-path="url(#cp34424)">
<text xml:space="preserve" transform="matrix(1 0 -0 1 0 841.92)" font-size="14.04" font-family="Times New Roman"><tspan y="-582.7" x="185.18"> </tspan></text>
</g>
</g>
<g id="Layer-1" data-name="P">
<clipPath id="cp34425">
<path transform="matrix(1,0,0,-1,0,841.92)" d="M .000008871 0 L 595.32 0 L 595.32 841.92 L .000008871 841.92 Z " fill-rule="evenodd"/>
</clipPath>
<g clip-path="url(#cp34425)">
<text xml:space="preserve" transform="matrix(1 0 -0 1 0 841.92)" font-size="14.04" font-family="Times New Roman"><tspan y="-582.7" x="188.66">A</tspan></text>
</g>
</g>
<g id="Layer-1" data-name="P">
<clipPath id="cp34426">
<path transform="matrix(1,0,0,-1,0,841.92)" d="M .000008871 0 L 595.32 0 L 595.32 841.92 L .000008871 841.92 Z " fill-rule="evenodd"/>
</clipPath>
<g clip-path="url(#cp34426)">
<text xml:space="preserve" transform="matrix(1 0 -0 1 0 841.92)" font-size="14.04" font-family="Times New Roman"><tspan y="-582.7" x="198.77"> </tspan></text>
</g>
<clipPath id="cp34427">
<path transform="matrix(1,0,0,-1,0,841.92)" d="M .000008871 0 L 595.32 0 L 595.32 841.92 L .000008871 841.92 Z " fill-rule="evenodd"/>
</clipPath>
<g clip-path="url(#cp34427)">
</g>
</g>
<g id="Layer-1" data-name="P">
<clipPath id="cp34428">
<path transform="matrix(1,0,0,-1,0,841.92)" d="M .000008871 0 L 595.32 0 L 595.32 841.92 L .000008871 841.92 Z " fill-rule="evenodd"/>
</clipPath>
<g clip-path="url(#cp34428)">
<text xml:space="preserve" transform="matrix(1 0 -0 1 0 841.92)" font-size="14.04" font-family="Times New Roman"><tspan y="-558.55" x="113.42 123.50072 127.01072">A &#x003c;</tspan></text>
</g>
<clipPath id="cp34429">
<path transform="matrix(1,0,0,-1,0,841.92)" d="M .000008871 0 L 595.32 0 L 595.32 841.92 L .000008871 841.92 Z " fill-rule="evenodd"/>
</clipPath>
<g clip-path="url(#cp34429)">
<text xml:space="preserve" transform="matrix(1 0 -0 1 0 841.92)" font-size="14.04" font-family="Times New Roman"><tspan y="-558.55" x="134.9">-</tspan></text>
</g>
<clipPath id="cp34430">
<path transform="matrix(1,0,0,-1,0,841.92)" d="M .000008871 0 L 595.32 0 L 595.32 841.92 L .000008871 841.92 Z " fill-rule="evenodd"/>
</clipPath>
<g clip-path="url(#cp34430)">
<text xml:space="preserve" transform="matrix(1 0 -0 1 0 841.92)" font-size="14.04" font-family="Times New Roman"><tspan y="-558.55" x="139.58"> </tspan></text>
</g>
<clipPath id="cp34431">
<path transform="matrix(1,0,0,-1,0,841.92)" d="M .000008871 0 L 595.32 0 L 595.32 841.92 L .000008871 841.92 Z " fill-rule="evenodd"/>
</clipPath>
<g clip-path="url(#cp34431)">
<text xml:space="preserve" transform="matrix(1 0 -0 1 0 841.92)" font-size="14.04" font-family="Times New Roman"><tspan y="-558.55" x="143.06 152.42469 155.93468 165.29936 168.73915">&#x0412; &#x0412; &#x003c;</tspan></text>
</g>
<clipPath id="cp34432">
<path transform="matrix(1,0,0,-1,0,841.92)" d="M .000008871 0 L 595.32 0 L 595.32 841.92 L .000008871 841.92 Z " fill-rule="evenodd"/>
</clipPath>
<g clip-path="url(#cp34432)">
<text xml:space="preserve" transform="matrix(1 0 -0 1 0 841.92)" font-size="14.04" font-family="Times New Roman"><tspan y="-558.55" x="176.66">-</tspan></text>
</g>
<clipPath id="cp34433">
<path transform="matrix(1,0,0,-1,0,841.92)" d="M .000008871 0 L 595.32 0 L 595.32 841.92 L .000008871 841.92 Z " fill-rule="evenodd"/>
</clipPath>
<g clip-path="url(#cp34433)">
<text xml:space="preserve" transform="matrix(1 0 -0 1 0 841.92)" font-size="14.04" font-family="Times New Roman"><tspan y="-558.55" x="181.34"> </tspan></text>
</g>
<clipPath id="cp34434">
<path transform="matrix(1,0,0,-1,0,841.92)" d="M .000008871 0 L 595.32 0 L 595.32 841.92 L .000008871 841.92 Z " fill-rule="evenodd"/>
</clipPath>
<g clip-path="url(#cp34434)">
<text xml:space="preserve" transform="matrix(1 0 -0 1 0 841.92)" font-size="14.04" font-family="Times New Roman"><tspan y="-558.55" x="184.82 193.34229 201.86457 214.34613">TEMP</tspan></text>
</g>
<clipPath id="cp34435">
<path transform="matrix(1,0,0,-1,0,841.92)" d="M .000008871 0 L 595.32 0 L 595.32 841.92 L .000008871 841.92 Z " fill-rule="evenodd"/>
</clipPath>
<g clip-path="url(#cp34435)">
<text xml:space="preserve" transform="matrix(1 0 -0 1 0 841.92)" font-size="14.04" font-family="Times New Roman"><tspan y="-558.55" x="222.17"> </tspan></text>
</g>
</g>
<g id="Layer-1" data-name="P">
<clipPath id="cp34436">
<path transform="matrix(1,0,0,-1,0,841.92)" d="M .000008871 0 L 595.32 0 L 595.32 841.92 L .000008871 841.92 Z " fill-rule="evenodd"/>
</clipPath>
<g clip-path="url(#cp34436)">
<text xml:space="preserve" transform="matrix(1 0 -0 1 0 841.92)" font-size="14.04" font-family="Times New Roman"><tspan y="-534.43" x="113.42 120.5">3.</tspan></text>
</g>
<clipPath id="cp34437">
<path transform="matrix(1,0,0,-1,0,841.92)" d="M .000008871 0 L 595.32 0 L 595.32 841.92 L .000008871 841.92 Z " fill-rule="evenodd"/>
</clipPath>
<g clip-path="url(#cp34437)">
<text xml:space="preserve" transform="matrix(1 0 -0 1 0 841.92)" font-size="14.04" font-family="Arial"><tspan y="-534.43" x="123.98"> </tspan></text>
</g>
<clipPath id="cp34438">
<path transform="matrix(1,0,0,-1,0,841.92)" d="M .000008871 0 L 595.32 0 L 595.32 841.92 L .000008871 841.92 Z " fill-rule="evenodd"/>
</clipPath>
<g clip-path="url(#cp34438)">
<text xml:space="preserve" transform="matrix(1 0 -0 1 0 841.92)" font-size="14.04" font-family="Times New Roman"><tspan y="-534.43" x="131.9 144.98526 149.66059 153.60582 157.55106 163.78482 167.37906">Write &#x201c;</tspan></text>
</g>
<clipPath id="cp34439">
<path transform="matrix(1,0,0,-1,0,841.92)" d="M .000008871 0 L 595.32 0 L 595.32 841.92 L .000008871 841.92 Z " fill-rule="evenodd"/>
</clipPath>
<g clip-path="url(#cp34439)">
<text xml:space="preserve" transform="matrix(1 0 -0 1 0 841.92)" font-size="14.04" font-family="Times New Roman"><tspan y="-534.43" x="173.42 181.94228 189.0044 195.23816 202.31433 208.43578 215.4979 222.56002 228.68146 235.74358 239.09914 246.16126 252.2827 256.22795 263.29005 269.41148">Exchanged values</tspan></text>
</g>
<clipPath id="cp34440">
<path transform="matrix(1,0,0,-1,0,841.92)" d="M .000008871 0 L 595.32 0 L 595.32 841.92 L .000008871 841.92 Z " fill-rule="evenodd"/>
</clipPath>
<g clip-path="url(#cp34440)">
<text xml:space="preserve" transform="matrix(1 0 -0 1 0 841.92)" font-size="14.04" font-family="Times New Roman"><tspan y="-534.43" x="275.09"> </tspan></text>
</g>
<clipPath id="cp34441">
<path transform="matrix(1,0,0,-1,0,841.92)" d="M .000008871 0 L 595.32 0 L 595.32 841.92 L .000008871 841.92 Z " fill-rule="evenodd"/>
</clipPath>
<g clip-path="url(#cp34441)">
<text xml:space="preserve" transform="matrix(1 0 -0 1 0 841.92)" font-size="14.04" font-family="Times New Roman"><tspan y="-534.43" x="278.57 284.80378 289.4791 295.71287 299.0965 305.33027 308.84028 312.29414 322.37486 325.88487">are &#x201d;, A, </tspan></text>
</g>
</g>
<g id="Layer-1" data-name="P">
<clipPath id="cp34442">
<path transform="matrix(1,0,0,-1,0,841.92)" d="M .000008871 0 L 595.32 0 L 595.32 841.92 L .000008871 841.92 Z " fill-rule="evenodd"/>
</clipPath>
<g clip-path="url(#cp34442)">
<text xml:space="preserve" transform="matrix(1 0 -0 1 0 841.92)" font-size="14.04" font-family="Times New Roman"><tspan y="-534.43" x="329.35">&#x0412;</tspan></text>
</g>
</g>
<g id="Layer-1" data-name="P">
<clipPath id="cp34443">
<path transform="matrix(1,0,0,-1,0,841.92)" d="M .000008871 0 L 595.32 0 L 595.32 841.92 L .000008871 841.92 Z " fill-rule="evenodd"/>
</clipPath>
<g clip-path="url(#cp34443)">
<text xml:space="preserve" transform="matrix(1 0 -0 1 0 841.92)" font-size="14.04" font-family="Times New Roman"><tspan y="-534.43" x="338.71"> </tspan></text>
</g>
<clipPath id="cp34444">
<path transform="matrix(1,0,0,-1,0,841.92)" d="M .000008871 0 L 595.32 0 L 595.32 841.92 L .000008871 841.92 Z " fill-rule="evenodd"/>
</clipPath>
<g clip-path="url(#cp34444)">
</g>
</g>
<g id="Layer-1" data-name="P">
<clipPath id="cp34445">
<path transform="matrix(1,0,0,-1,0,841.92)" d="M .000008871 0 L 595.32 0 L 595.32 841.92 L .000008871 841.92 Z " fill-rule="evenodd"/>
</clipPath>
<g clip-path="url(#cp34445)">
<text xml:space="preserve" transform="matrix(1 0 -0 1 0 841.92)" font-size="14.04" font-family="Times New Roman"><tspan y="-510.31" x="113.42 120.5">4.</tspan></text>
</g>
<clipPath id="cp34446">
<path transform="matrix(1,0,0,-1,0,841.92)" d="M .000008871 0 L 595.32 0 L 595.32 841.92 L .000008871 841.92 Z " fill-rule="evenodd"/>
</clipPath>
<g clip-path="url(#cp34446)">
<text xml:space="preserve" transform="matrix(1 0 -0 1 0 841.92)" font-size="14.04" font-family="Arial"><tspan y="-510.31" x="123.98"> </tspan></text>
</g>
</g>
<g id="Layer-1" data-name="P">
<clipPath id="cp34447">
<path transform="matrix(1,0,0,-1,0,841.92)" d="M .000008871 0 L 595.32 0 L 595.32 841.92 L .000008871 841.92 Z " fill-rule="evenodd"/>
</clipPath>
<g clip-path="url(#cp34447)">
<text xml:space="preserve" transform="matrix(1 0 -0 1 0 841.92)" font-size="14.04" font-family="Times New Roman"><tspan y="-510.31" x="132.14 140.66228 147.7244 154.78652">End.</tspan></text>
</g>
</g>
<g id="Layer-1" data-name="P">
<clipPath id="cp34448">
<path transform="matrix(1,0,0,-1,0,841.92)" d="M .000008871 0 L 595.32 0 L 595.32 841.92 L .000008871 841.92 Z " fill-rule="evenodd"/>
</clipPath>
<g clip-path="url(#cp34448)">
<text xml:space="preserve" transform="matrix(1 0 -0 1 0 841.92)" font-size="14.04" font-family="Times New Roman"><tspan y="-510.31" x="158.18"> </tspan></text>
</g>
<clipPath id="cp34449">
<path transform="matrix(1,0,0,-1,0,841.92)" d="M .000008871 0 L 595.32 0 L 595.32 841.92 L .000008871 841.92 Z " fill-rule="evenodd"/>
</clipPath>
<g clip-path="url(#cp34449)">
</g>
</g>
<g id="Layer-1" data-name="P">
<clipPath id="cp34450">
<path transform="matrix(1,0,0,-1,0,841.92)" d="M .000008871 0 L 595.32 0 L 595.32 841.92 L .000008871 841.92 Z " fill-rule="evenodd"/>
</clipPath>
<g clip-path="url(#cp34450)">
<text xml:space="preserve" transform="matrix(1 0 -0 1 0 841.92)" font-size="14.04" font-family="Times New Roman,Bold" font-weight="bold"><tspan y="-485.83" x="206.93 217.01071 223.24448 231.05072 235.72605 242.80222 246.31221 251.67549 258.7376 266.54386 270.05387 273.8587 280.09248 287.8987 291.74568 299.5519 306.614 314.42027">Uchta son ichidan </tspan></text>
</g>
</g>
<g id="Layer-1" data-name="P">
<clipPath id="cp34451">
<path transform="matrix(1,0,0,-1,0,841.92)" d="M .000008871 0 L 595.32 0 L 595.32 841.92 L .000008871 841.92 Z " fill-rule="evenodd"/>
</clipPath>
<g clip-path="url(#cp34451)">
<text xml:space="preserve" transform="matrix(1 0 -0 1 0 841.92)" font-size="14.04" font-family="Times New Roman,Bold" font-weight="bold"><tspan y="-485.83" x="317.95 324.07145 331.8777 338.9398 342.4498 349.97526 357.03736 361.71269 366.388 373.46415 378.86955">eng kattasi</tspan></text>
</g>
</g>
<g id="Layer-1" data-name="P">
<clipPath id="cp34452">
<path transform="matrix(1,0,0,-1,0,841.92)" d="M .000008871 0 L 595.32 0 L 595.32 841.92 L .000008871 841.92 Z " fill-rule="evenodd"/>
</clipPath>
<g clip-path="url(#cp34452)">
<text xml:space="preserve" transform="matrix(1 0 -0 1 0 841.92)" font-size="14.04" font-family="Times New Roman,Bold" font-weight="bold"><tspan y="-485.83" x="382.87 390.67625 394.62147 398.13148 402.66639 409.7285 417.40837 421.35359 426.85725 434.66349">ni topish.</tspan></text>
</g>
</g>
<g id="Layer-1" data-name="P">
<clipPath id="cp34453">
<path transform="matrix(1,0,0,-1,0,841.92)" d="M .000008871 0 L 595.32 0 L 595.32 841.92 L .000008871 841.92 Z " fill-rule="evenodd"/>
</clipPath>
<g clip-path="url(#cp34453)">
<text xml:space="preserve" transform="matrix(1 0 -0 1 0 841.92)" font-size="14.04" font-family="Times New Roman,Bold" font-weight="bold"><tspan y="-485.83" x="438.07"> </tspan></text>
</g>
</g>
<g id="Layer-1" data-name="P">
<clipPath id="cp34454">
<path transform="matrix(1,0,0,-1,0,841.92)" d="M .000008871 0 L 595.32 0 L 595.32 841.92 L .000008871 841.92 Z " fill-rule="evenodd"/>
</clipPath>
<g clip-path="url(#cp34454)">
<text xml:space="preserve" transform="matrix(1 0 -0 1 0 841.92)" font-size="14.04" font-family="Times New Roman"><tspan y="-461.95" x="113.42"> </tspan></text>
</g>
</g>
<g id="Layer-1" data-name="P">
<clipPath id="cp34455">
<path transform="matrix(1,0,0,-1,0,841.92)" d="M .000008871 0 L 595.32 0 L 595.32 841.92 L .000008871 841.92 Z " fill-rule="evenodd"/>
</clipPath>
<g clip-path="url(#cp34455)">
<text xml:space="preserve" transform="matrix(1 0 -0 1 0 841.92)" font-size="14.04" font-family="Times New Roman"><tspan y="-461.95" x="116.9 126.26468 132.49845 137.17377 141.02072 144.96596 152.02808 158.14952 165.21164 169.99927 177.06139 183.29515 190.25899 194.20423 200.43799 205.22562 210.7293 217.69313 224.75525 229.54288 239.6236 243.13359 248.00547 257.37016 260.88017 265.75205 275.11674">Berilgan uchta son A, B, C.</tspan></text>
</g>
</g>
<g id="Layer-1" data-name="P">
<clipPath id="cp34456">
<path transform="matrix(1,0,0,-1,0,841.92)" d="M .000008871 0 L 595.32 0 L 595.32 841.92 L .000008871 841.92 Z " fill-rule="evenodd"/>
</clipPath>
<g clip-path="url(#cp34456)">
<text xml:space="preserve" transform="matrix(1 0 -0 1 0 841.92)" font-size="14.04" font-family="Times New Roman"><tspan y="-461.95" x="278.81"> </tspan></text>
</g>
</g>
<g id="Layer-1" data-name="P">
<clipPath id="cp34457">
<path transform="matrix(1,0,0,-1,0,841.92)" d="M .000008871 0 L 595.32 0 L 595.32 841.92 L .000008871 841.92 Z " fill-rule="evenodd"/>
</clipPath>
<g clip-path="url(#cp34457)">
<text xml:space="preserve" transform="matrix(1 0 -0 1 0 841.92)" font-size="14.04" font-family="Times New Roman"><tspan y="-461.95" x="283.73 293.0947 297.03993 303.27369 308.18769 315.2498 322.3119 327.09956 332.6032 339.56706 346.53089 350.37785 356.6116 361.28694 368.2648 372.21003 377.11 381.0552 387.17665 394.23875 398.0857 405.1478 411.26924 418.33134 423.2313 429.35273 436.41484 443.47694 448.2646 455.3267 461.44813 465.39335 469.2403 475.47407 480.99177 484.8387 491.80256 495.74778 500.64775 504.4947 511.5568 518.5206 522.3676 527.8713 534.83517 538.7804 549.4648 553.41006 559.6438">Biz bu sonlarni ichidan eng kattasini topishimiz </tspan></text>
</g>
</g>
<g id="Layer-1" data-name="P">
<clipPath id="cp34458">
<path transform="matrix(1,0,0,-1,0,841.92)" d="M .000008871 0 L 595.32 0 L 595.32 841.92 L .000008871 841.92 Z " fill-rule="evenodd"/>
</clipPath>
<g clip-path="url(#cp34458)">
<text xml:space="preserve" transform="matrix(1 0 -0 1 0 841.92)" font-size="14.04" font-family="Times New Roman"><tspan y="-437.83" x="85.104 92.166118 98.39987 103.075199 109.21067">kerak</tspan></text>
</g>
</g>
<g id="Layer-1" data-name="P">
<clipPath id="cp34459">
<path transform="matrix(1,0,0,-1,0,841.92)" d="M .000008871 0 L 595.32 0 L 595.32 841.92 L .000008871 841.92 Z " fill-rule="evenodd"/>
</clipPath>
<g clip-path="url(#cp34459)">
<text xml:space="preserve" transform="matrix(1 0 -0 1 0 841.92)" font-size="14.04" font-family="Times New Roman"><tspan y="-437.83" x="116.3">.</tspan></text>
</g>
</g>
<g id="Layer-1" data-name="P">
<clipPath id="cp34460">
<path transform="matrix(1,0,0,-1,0,841.92)" d="M .000008871 0 L 595.32 0 L 595.32 841.92 L .000008871 841.92 Z " fill-rule="evenodd"/>
</clipPath>
<g clip-path="url(#cp34460)">
<text xml:space="preserve" transform="matrix(1 0 -0 1 0 841.92)" font-size="14.04" font-family="Times New Roman,Bold" font-weight="bold"><tspan y="-437.83" x="119.78 123.26 126.740009">   </tspan></text>
</g>
</g>
<g id="Layer-1" data-name="P">
<clipPath id="cp34461">
<path transform="matrix(1,0,0,-1,0,841.92)" d="M .000008871 0 L 595.32 0 L 595.32 841.92 L .000008871 841.92 Z " fill-rule="evenodd"/>
</clipPath>
<g clip-path="url(#cp34461)">
<text xml:space="preserve" transform="matrix(1 0 -0 1 0 841.92)" font-size="14.04" font-family="Times New Roman,Bold" font-weight="bold"><tspan y="-437.83" x="130.22"> </tspan></text>
</g>
</g>
<g id="Layer-1" data-name="P">
<clipPath id="cp34462">
<path transform="matrix(1,0,0,-1,0,841.92)" d="M .000008871 0 L 595.32 0 L 595.32 841.92 L .000008871 841.92 Z " fill-rule="evenodd"/>
</clipPath>
<g clip-path="url(#cp34462)">
<text xml:space="preserve" transform="matrix(1 0 -0 1 0 841.92)" font-size="14.04" font-family="Century Schoolbook"><tspan y="-412.99" x="113.42 121.22">1.</tspan></text>
</g>
<clipPath id="cp34463">
<path transform="matrix(1,0,0,-1,0,841.92)" d="M .000008871 0 L 595.32 0 L 595.32 841.92 L .000008871 841.92 Z " fill-rule="evenodd"/>
</clipPath>
<g clip-path="url(#cp34463)">
<text xml:space="preserve" transform="matrix(1 0 -0 1 0 841.92)" font-size="14.04" font-family="Arial"><tspan y="-412.99" x="125.06"> </tspan></text>
</g>
<clipPath id="cp34464">
<path transform="matrix(1,0,0,-1,0,841.92)" d="M .000008871 0 L 595.32 0 L 595.32 841.92 L .000008871 841.92 Z " fill-rule="evenodd"/>
</clipPath>
<g clip-path="url(#cp34464)">
<text xml:space="preserve" transform="matrix(1 0 -0 1 0 841.92)" font-size="14.04" font-family="Times New Roman"><tspan y="-412.99" x="127.7 132.37532 142.45604 150.26229 160.343 168.86528 172.37528 182.42792 185.93791 189.39174 198.75643 202.26642 205.7062">INPUT A, B, C</tspan></text>
</g>
<clipPath id="cp34465">
<path transform="matrix(1,0,0,-1,0,841.92)" d="M .000008871 0 L 595.32 0 L 595.32 841.92 L .000008871 841.92 Z " fill-rule="evenodd"/>
</clipPath>
<g clip-path="url(#cp34465)">
<text xml:space="preserve" transform="matrix(1 0 -0 1 0 841.92)" font-size="14.04" font-family="Times New Roman"><tspan y="-412.99" x="215.21"> </tspan></text>
</g>
<clipPath id="cp34466">
<path transform="matrix(1,0,0,-1,0,841.92)" d="M .000008871 0 L 595.32 0 L 595.32 841.92 L .000008871 841.92 Z " fill-rule="evenodd"/>
</clipPath>
<g clip-path="url(#cp34466)">
</g>
</g>
<g id="Layer-1" data-name="P">
<clipPath id="cp34467">
<path transform="matrix(1,0,0,-1,0,841.92)" d="M .000008871 0 L 595.32 0 L 595.32 841.92 L .000008871 841.92 Z " fill-rule="evenodd"/>
</clipPath>
<g clip-path="url(#cp34467)">
<text xml:space="preserve" transform="matrix(1 0 -0 1 0 841.92)" font-size="14.04" font-family="Century Schoolbook"><tspan y="-388.01" x="113.42 121.22">2.</tspan></text>
</g>
<clipPath id="cp34468">
<path transform="matrix(1,0,0,-1,0,841.92)" d="M .000008871 0 L 595.32 0 L 595.32 841.92 L .000008871 841.92 Z " fill-rule="evenodd"/>
</clipPath>
<g clip-path="url(#cp34468)">
<text xml:space="preserve" transform="matrix(1 0 -0 1 0 841.92)" font-size="14.04" font-family="Arial"><tspan y="-388.01" x="125.06"> </tspan></text>
</g>
<clipPath id="cp34469">
<path transform="matrix(1,0,0,-1,0,841.92)" d="M .000008871 0 L 595.32 0 L 595.32 841.92 L .000008871 841.92 Z " fill-rule="evenodd"/>
</clipPath>
<g clip-path="url(#cp34469)">
<text xml:space="preserve" transform="matrix(1 0 -0 1 0 841.92)" font-size="14.04" font-family="Times New Roman"><tspan y="-388.01" x="127.7"> </tspan></text>
</g>
<clipPath id="cp34470">
<path transform="matrix(1,0,0,-1,0,841.92)" d="M .000008871 0 L 595.32 0 L 595.32 841.92 L .000008871 841.92 Z " fill-rule="evenodd"/>
</clipPath>
<g clip-path="url(#cp34470)">
<text xml:space="preserve" transform="matrix(1 0 -0 1 0 841.92)" font-size="14.04" font-family="Times New Roman"><tspan y="-388.01" x="131.18 135.85532 143.66156">IF </tspan></text>
</g>
<clipPath id="cp34471">
<path transform="matrix(1,0,0,-1,0,841.92)" d="M .000008871 0 L 595.32 0 L 595.32 841.92 L .000008871 841.92 Z " fill-rule="evenodd"/>
</clipPath>
<g clip-path="url(#cp34471)">
<text xml:space="preserve" transform="matrix(1 0 -0 1 0 841.92)" font-size="14.04" font-family="Times New Roman"><tspan y="-388.01" x="151.82 156.49533 166.57605">(A </tspan></text>
</g>
<clipPath id="cp34472">
<path transform="matrix(1,0,0,-1,0,841.92)" d="M .000008871 0 L 595.32 0 L 595.32 841.92 L .000008871 841.92 Z " fill-rule="evenodd"/>
</clipPath>
<g clip-path="url(#cp34472)">
<text xml:space="preserve" transform="matrix(1 0 -0 1 0 841.92)" font-size="14.04" font-family="Times New Roman"><tspan y="-388.01" x="174.74">&#x003e;</tspan></text>
</g>
<clipPath id="cp34473">
<path transform="matrix(1,0,0,-1,0,841.92)" d="M .000008871 0 L 595.32 0 L 595.32 841.92 L .000008871 841.92 Z " fill-rule="evenodd"/>
</clipPath>
<g clip-path="url(#cp34473)">
<text xml:space="preserve" transform="matrix(1 0 -0 1 0 841.92)" font-size="14.04" font-family="Times New Roman"><tspan y="-388.01" x="182.66 192.02 196.69065">B) </tspan></text>
</g>
<clipPath id="cp34474">
<path transform="matrix(1,0,0,-1,0,841.92)" d="M .000008871 0 L 595.32 0 L 595.32 841.92 L .000008871 841.92 Z " fill-rule="evenodd"/>
</clipPath>
<g clip-path="url(#cp34474)">
<text xml:space="preserve" transform="matrix(1 0 -0 1 0 841.92)" font-size="14.04" font-family="Times New Roman"><tspan y="-388.01" x="204.89 213.41228 223.493 232.01528 241.96964">THEN </tspan></text>
</g>
<clipPath id="cp34475">
<path transform="matrix(1,0,0,-1,0,841.92)" d="M .000008871 0 L 595.32 0 L 595.32 841.92 L .000008871 841.92 Z " fill-rule="evenodd"/>
</clipPath>
<g clip-path="url(#cp34475)">
</g>
<clipPath id="cp34476">
<path transform="matrix(1,0,0,-1,0,841.92)" d="M .000008871 0 L 595.32 0 L 595.32 841.92 L .000008871 841.92 Z " fill-rule="evenodd"/>
</clipPath>
<g clip-path="url(#cp34476)">
<text xml:space="preserve" transform="matrix(1 0 -0 1 0 841.92)" font-size="14.04" font-family="Times New Roman"><tspan y="-363.89" x="85.104 94.46867 100.70243 107.66627 111.61151">Begin</tspan></text>
</g>
<clipPath id="cp34477">
<path transform="matrix(1,0,0,-1,0,841.92)" d="M .000008871 0 L 595.32 0 L 595.32 841.92 L .000008871 841.92 Z " fill-rule="evenodd"/>
</clipPath>
<g clip-path="url(#cp34477)">
<text xml:space="preserve" transform="matrix(1 0 -0 1 0 841.92)" font-size="14.04" font-family="Times New Roman"><tspan y="-363.89" x="118.58"> </tspan></text>
</g>
<clipPath id="cp34478">
<path transform="matrix(1,0,0,-1,0,841.92)" d="M .000008871 0 L 595.32 0 L 595.32 841.92 L .000008871 841.92 Z " fill-rule="evenodd"/>
</clipPath>
<g clip-path="url(#cp34478)">
</g>
</g>
<g id="Layer-1" data-name="P">
<clipPath id="cp34479">
<path transform="matrix(1,0,0,-1,0,841.92)" d="M .000008871 0 L 595.32 0 L 595.32 841.92 L .000008871 841.92 Z " fill-rule="evenodd"/>
</clipPath>
<g clip-path="url(#cp34479)">
<text xml:space="preserve" transform="matrix(1 0 -0 1 0 841.92)" font-size="14.04" font-family="Times New Roman"><tspan y="-339.77" x="113.42 118.09532 125.901569">IF </tspan></text>
</g>
<clipPath id="cp34480">
<path transform="matrix(1,0,0,-1,0,841.92)" d="M .000008871 0 L 595.32 0 L 595.32 841.92 L .000008871 841.92 Z " fill-rule="evenodd"/>
</clipPath>
<g clip-path="url(#cp34480)">
<text xml:space="preserve" transform="matrix(1 0 -0 1 0 841.92)" font-size="14.04" font-family="Times New Roman"><tspan y="-339.77" x="129.38 134.05533 144.13605 147.64604 155.5646 159.01844 168.38312 173.05844">(A &#x003e; C) </tspan></text>
</g>
<clipPath id="cp34481">
<path transform="matrix(1,0,0,-1,0,841.92)" d="M .000008871 0 L 595.32 0 L 595.32 841.92 L .000008871 841.92 Z " fill-rule="evenodd"/>
</clipPath>
<g clip-path="url(#cp34481)">
<text xml:space="preserve" transform="matrix(1 0 -0 1 0 841.92)" font-size="14.04" font-family="Times New Roman"><tspan y="-339.77" x="176.54 185.06003 195.1385 203.65854">THEN</tspan></text>
</g>
<clipPath id="cp34482">
<path transform="matrix(1,0,0,-1,0,841.92)" d="M .000008871 0 L 595.32 0 L 595.32 841.92 L .000008871 841.92 Z " fill-rule="evenodd"/>
</clipPath>
<g clip-path="url(#cp34482)">
<text xml:space="preserve" transform="matrix(1 0 -0 1 0 841.92)" font-size="14.04" font-family="Times New Roman"><tspan y="-339.77" x="213.89"> </tspan></text>
</g>
</g>
<g id="Layer-1" data-name="P">
<clipPath id="cp34483">
<path transform="matrix(1,0,0,-1,0,841.92)" d="M .000008871 0 L 595.32 0 L 595.32 841.92 L .000008871 841.92 Z " fill-rule="evenodd"/>
</clipPath>
<g clip-path="url(#cp34483)">
<text xml:space="preserve" transform="matrix(1 0 -0 1 0 841.92)" font-size="14.04" font-family="Times New Roman"><tspan y="-315.65" x="113.42 126.50528 131.1806 135.12584 139.07108 145.30484 148.89908 154.89417 164.25885 168.20409 175.16793 182.23004 188.4638 193.8692 197.81444 201.32444 208.2602 215.32231 226.00676 233.06888 239.30265 243.97797 247.48796 251.39109 256.85264 263.0864 266.5543 270.0643">Write &#x201c;Biggest number is&#x201d;, A</tspan></text>
</g>
<clipPath id="cp34484">
<path transform="matrix(1,0,0,-1,0,841.92)" d="M .000008871 0 L 595.32 0 L 595.32 841.92 L .000008871 841.92 Z " fill-rule="evenodd"/>
</clipPath>
<g clip-path="url(#cp34484)">
<text xml:space="preserve" transform="matrix(1 0 -0 1 0 841.92)" font-size="14.04" font-family="Times New Roman"><tspan y="-315.65" x="280.25"> </tspan></text>
</g>
</g>
<g id="Layer-1" data-name="P">
<clipPath id="cp34485">
<path transform="matrix(1,0,0,-1,0,841.92)" d="M .000008871 0 L 595.32 0 L 595.32 841.92 L .000008871 841.92 Z " fill-rule="evenodd"/>
</clipPath>
<g clip-path="url(#cp34485)">
<text xml:space="preserve" transform="matrix(1 0 -0 1 0 841.92)" font-size="14.04" font-family="Times New Roman"><tspan y="-291.41" x="113.42 121.942279 130.46456 138.2708">ELSE</tspan></text>
</g>
<clipPath id="cp34486">
<path transform="matrix(1,0,0,-1,0,841.92)" d="M .000008871 0 L 595.32 0 L 595.32 841.92 L .000008871 841.92 Z " fill-rule="evenodd"/>
</clipPath>
<g clip-path="url(#cp34486)">
<text xml:space="preserve" transform="matrix(1 0 -0 1 0 841.92)" font-size="14.04" font-family="Times New Roman"><tspan y="-291.41" x="146.9"> </tspan></text>
</g>
</g>
<g id="Layer-1" data-name="P">
<clipPath id="cp34487">
<path transform="matrix(1,0,0,-1,0,841.92)" d="M .000008871 0 L 595.32 0 L 595.32 841.92 L .000008871 841.92 Z " fill-rule="evenodd"/>
</clipPath>
<g clip-path="url(#cp34487)">
<text xml:space="preserve" transform="matrix(1 0 -0 1 0 841.92)" font-size="14.04" font-family="Times New Roman"><tspan y="-267.29" x="113.42 126.50528 131.1806 135.12584 139.07108 145.30484 148.89908 154.89417 164.25885 168.20409 175.16793 182.23004 188.4638 193.8692 197.81444 201.32444 208.2602 215.32231 226.00676 233.06888 239.30265 243.97797 247.48796 251.39109 256.85264 263.0864 266.5543 270.0643">Write &#x201c;Biggest number is&#x201d;, C</tspan></text>
</g>
<clipPath id="cp34488">
<path transform="matrix(1,0,0,-1,0,841.92)" d="M .000008871 0 L 595.32 0 L 595.32 841.92 L .000008871 841.92 Z " fill-rule="evenodd"/>
</clipPath>
<g clip-path="url(#cp34488)">
<text xml:space="preserve" transform="matrix(1 0 -0 1 0 841.92)" font-size="14.04" font-family="Times New Roman"><tspan y="-267.29" x="279.53"> </tspan></text>
</g>
</g>
<g id="Layer-1" data-name="P">
<clipPath id="cp34489">
<path transform="matrix(1,0,0,-1,0,841.92)" d="M .000008871 0 L 595.32 0 L 595.32 841.92 L .000008871 841.92 Z " fill-rule="evenodd"/>
</clipPath>
<g clip-path="url(#cp34489)">
<text xml:space="preserve" transform="matrix(1 0 -0 1 0 841.92)" font-size="14.04" font-family="Times New Roman"><tspan y="-243.17" x="113.42 121.942279 129.0044">End</tspan></text>
</g>
<clipPath id="cp34490">
<path transform="matrix(1,0,0,-1,0,841.92)" d="M .000008871 0 L 595.32 0 L 595.32 841.92 L .000008871 841.92 Z " fill-rule="evenodd"/>
</clipPath>
<g clip-path="url(#cp34490)">
<text xml:space="preserve" transform="matrix(1 0 -0 1 0 841.92)" font-size="14.04" font-family="Times New Roman"><tspan y="-243.17" x="135.98"> </tspan></text>
</g>
</g>
<g id="Layer-1" data-name="P">
<clipPath id="cp34491">
<path transform="matrix(1,0,0,-1,0,841.92)" d="M .000008871 0 L 595.32 0 L 595.32 841.92 L .000008871 841.92 Z " fill-rule="evenodd"/>
</clipPath>
<g clip-path="url(#cp34491)">
<text xml:space="preserve" transform="matrix(1 0 -0 1 0 841.92)" font-size="14.04" font-family="Times New Roman"><tspan y="-219.05" x="113.42 121.942279 130.46456 138.2708">ELSE</tspan></text>
</g>
<clipPath id="cp34492">
<path transform="matrix(1,0,0,-1,0,841.92)" d="M .000008871 0 L 595.32 0 L 595.32 841.92 L .000008871 841.92 Z " fill-rule="evenodd"/>
</clipPath>
<g clip-path="url(#cp34492)">
<text xml:space="preserve" transform="matrix(1 0 -0 1 0 841.92)" font-size="14.04" font-family="Times New Roman"><tspan y="-219.05" x="146.9"> </tspan></text>
</g>
</g>
<g id="Layer-1" data-name="P">
<clipPath id="cp34493">
<path transform="matrix(1,0,0,-1,0,841.92)" d="M .000008871 0 L 595.32 0 L 595.32 841.92 L .000008871 841.92 Z " fill-rule="evenodd"/>
</clipPath>
<g clip-path="url(#cp34493)">
<text xml:space="preserve" transform="matrix(1 0 -0 1 0 841.92)" font-size="14.04" font-family="Times New Roman"><tspan y="-194.78" x="113.42 122.784679 129.01844 135.98227 139.9275">Begin</tspan></text>
</g>
<clipPath id="cp34494">
<path transform="matrix(1,0,0,-1,0,841.92)" d="M .000008871 0 L 595.32 0 L 595.32 841.92 L .000008871 841.92 Z " fill-rule="evenodd"/>
</clipPath>
<g clip-path="url(#cp34494)">
<text xml:space="preserve" transform="matrix(1 0 -0 1 0 841.92)" font-size="14.04" font-family="Times New Roman"><tspan y="-194.78" x="146.9"> </tspan></text>
</g>
</g>
<g id="Layer-1" data-name="P">
<clipPath id="cp34495">
<path transform="matrix(1,0,0,-1,0,841.92)" d="M .000008871 0 L 595.32 0 L 595.32 841.92 L .000008871 841.92 Z " fill-rule="evenodd"/>
</clipPath>
<g clip-path="url(#cp34495)">
<text xml:space="preserve" transform="matrix(1 0 -0 1 0 841.92)" font-size="14.04" font-family="Times New Roman"><tspan y="-170.66" x="113.42 118.09532 125.901569">IF </tspan></text>
</g>
<clipPath id="cp34496">
<path transform="matrix(1,0,0,-1,0,841.92)" d="M .000008871 0 L 595.32 0 L 595.32 841.92 L .000008871 841.92 Z " fill-rule="evenodd"/>
</clipPath>
<g clip-path="url(#cp34496)">
<text xml:space="preserve" transform="matrix(1 0 -0 1 0 841.92)" font-size="14.04" font-family="Times New Roman"><tspan y="-170.66" x="129.38 134.05533 143.42002 146.93001 154.84857 158.3024 167.66709 172.3424">(B &#x003e; C) </tspan></text>
</g>
<clipPath id="cp34497">
<path transform="matrix(1,0,0,-1,0,841.92)" d="M .000008871 0 L 595.32 0 L 595.32 841.92 L .000008871 841.92 Z " fill-rule="evenodd"/>
</clipPath>
<g clip-path="url(#cp34497)">
<text xml:space="preserve" transform="matrix(1 0 -0 1 0 841.92)" font-size="14.04" font-family="Times New Roman"><tspan y="-170.66" x="175.82 184.34004 194.41852 202.93856">THEN</tspan></text>
</g>
<clipPath id="cp34498">
<path transform="matrix(1,0,0,-1,0,841.92)" d="M .000008871 0 L 595.32 0 L 595.32 841.92 L .000008871 841.92 Z " fill-rule="evenodd"/>
</clipPath>
<g clip-path="url(#cp34498)">
<text xml:space="preserve" transform="matrix(1 0 -0 1 0 841.92)" font-size="14.04" font-family="Times New Roman"><tspan y="-170.66" x="213.17"> </tspan></text>
</g>
</g>
<g id="Layer-1" data-name="P">
<clipPath id="cp34499">
<path transform="matrix(1,0,0,-1,0,841.92)" d="M .000008871 0 L 595.32 0 L 595.32 841.92 L .000008871 841.92 Z " fill-rule="evenodd"/>
</clipPath>
<g clip-path="url(#cp34499)">
<text xml:space="preserve" transform="matrix(1 0 -0 1 0 841.92)" font-size="14.04" font-family="Times New Roman"><tspan y="-146.54" x="113.42 126.50528 131.1806 135.12584 139.07108 145.30484 148.89908 154.89417 164.25885 168.20409 175.16793 182.23004 188.4638 193.8692 197.81444 201.32444 208.2602 215.32231 226.00676 233.06888 239.30265 243.97797 247.48796 251.39109 256.85264 263.0864 266.5543 270.0643">Write &#x201c;Biggest number is&#x201d;, B</tspan></text>
</g>
<clipPath id="cp34500">
<path transform="matrix(1,0,0,-1,0,841.92)" d="M .000008871 0 L 595.32 0 L 595.32 841.92 L .000008871 841.92 Z " fill-rule="evenodd"/>
</clipPath>
<g clip-path="url(#cp34500)">
<text xml:space="preserve" transform="matrix(1 0 -0 1 0 841.92)" font-size="14.04" font-family="Times New Roman"><tspan y="-146.54" x="279.53"> </tspan></text>
</g>
</g>
<g id="Layer-1" data-name="P">
<clipPath id="cp34501">
<path transform="matrix(1,0,0,-1,0,841.92)" d="M .000008871 0 L 595.32 0 L 595.32 841.92 L .000008871 841.92 Z " fill-rule="evenodd"/>
</clipPath>
<g clip-path="url(#cp34501)">
<text xml:space="preserve" transform="matrix(1 0 -0 1 0 841.92)" font-size="14.04" font-family="Times New Roman"><tspan y="-122.42" x="113.42 121.942279 130.46456 138.2708">ELSE</tspan></text>
</g>
<clipPath id="cp34502">
<path transform="matrix(1,0,0,-1,0,841.92)" d="M .000008871 0 L 595.32 0 L 595.32 841.92 L .000008871 841.92 Z " fill-rule="evenodd"/>
</clipPath>
<g clip-path="url(#cp34502)">
<text xml:space="preserve" transform="matrix(1 0 -0 1 0 841.92)" font-size="14.04" font-family="Times New Roman"><tspan y="-122.42" x="146.9"> </tspan></text>
</g>
</g>
<g id="Layer-1" data-name="P">
<clipPath id="cp34503">
<path transform="matrix(1,0,0,-1,0,841.92)" d="M .000008871 0 L 595.32 0 L 595.32 841.92 L .000008871 841.92 Z " fill-rule="evenodd"/>
</clipPath>
<g clip-path="url(#cp34503)">
<text xml:space="preserve" transform="matrix(1 0 -0 1 0 841.92)" font-size="14.04" font-family="Times New Roman"><tspan y="-98.184" x="113.42 126.50528 131.1806 135.12584 139.07108 145.30484 148.89908 154.89417 164.25885 168.20409 175.16793 182.23004 188.4638 193.8692 197.81444 201.32444 208.2602 215.32231 226.00676 233.06888 239.30265 243.97797 247.48796 251.39109 256.85264 263.0864 266.5543 270.0643">Write &#x201c;Biggest number is&#x201d;, C</tspan></text>
</g>
<clipPath id="cp34504">
<path transform="matrix(1,0,0,-1,0,841.92)" d="M .000008871 0 L 595.32 0 L 595.32 841.92 L .000008871 841.92 Z " fill-rule="evenodd"/>
</clipPath>
<g clip-path="url(#cp34504)">
<text xml:space="preserve" transform="matrix(1 0 -0 1 0 841.92)" font-size="14.04" font-family="Times New Roman"><tspan y="-98.184" x="279.53"> </tspan></text>
</g>
</g>
<g id="Layer-1" data-name="P">
<clipPath id="cp34505">
<path transform="matrix(1,0,0,-1,0,841.92)" d="M .000008871 0 L 595.32 0 L 595.32 841.92 L .000008871 841.92 Z " fill-rule="evenodd"/>
</clipPath>
<g clip-path="url(#cp34505)">
<text xml:space="preserve" transform="matrix(1 0 -0 1 0 841.92)" font-size="14.04" font-family="Times New Roman"><tspan y="-74.064" x="113.42 121.942279 129.0044">End</tspan></text>
</g>
<clipPath id="cp34506">
<path transform="matrix(1,0,0,-1,0,841.92)" d="M .000008871 0 L 595.32 0 L 595.32 841.92 L .000008871 841.92 Z " fill-rule="evenodd"/>
</clipPath>
<g clip-path="url(#cp34506)">
<text xml:space="preserve" transform="matrix(1 0 -0 1 0 841.92)" font-size="14.04" font-family="Times New Roman"><tspan y="-74.064" x="135.98"> </tspan></text>
</g>
</g>
</g>
</g>
</svg>
