<?xml version="1.0" encoding="UTF-8" standalone="no"?>
<!DOCTYPE svg PUBLIC "-//W3C//DTD SVG 1.1//EN" "http://www.w3.org/Graphics/SVG/1.1/DTD/svg11.dtd">
<svg xmlns="http://www.w3.org/2000/svg" xmlns:xlink="http://www.w3.org/1999/xlink" version="1.1" width="595.32pt" height="841.92pt" viewBox="0 0 595.32 841.92">
<g enable-background="new">
<g>
<g id="Layer-1" data-name="Artifact">
<clipPath id="cp35456">
<path transform="matrix(1,0,0,-1,0,841.92)" d="M .000008871 0 L 595.32 0 L 595.32 841.92 L .000008871 841.92 Z " fill-rule="evenodd"/>
</clipPath>
<g clip-path="url(#cp35456)">
<text xml:space="preserve" transform="matrix(1 0 -0 1 0 841.92)" font-size="11.04" font-family="Calibri"><tspan y="-51.864" x="314.09 319.72999 325.36997">223</tspan></text>
</g>
<clipPath id="cp35457">
<path transform="matrix(1,0,0,-1,0,841.92)" d="M .000008871 0 L 595.32 0 L 595.32 841.92 L .000008871 841.92 Z " fill-rule="evenodd"/>
</clipPath>
<g clip-path="url(#cp35457)">
<text xml:space="preserve" transform="matrix(1 0 -0 1 0 841.92)" font-size="11.04" font-family="Calibri"><tspan y="-51.864" x="331.03"> </tspan></text>
</g>
<clipPath id="cp35458">
<path transform="matrix(1,0,0,-1,0,841.92)" d="M .000008871 0 L 595.32 0 L 595.32 841.92 L .000008871 841.92 Z " fill-rule="evenodd"/>
</clipPath>
<g clip-path="url(#cp35458)">
</g>
<clipPath id="cp35459">
<path transform="matrix(1,0,0,-1,0,841.92)" d="M .000008871 0 L 595.32 0 L 595.32 841.92 L .000008871 841.92 Z " fill-rule="evenodd"/>
</clipPath>
<g clip-path="url(#cp35459)">
<text xml:space="preserve" transform="matrix(1 0 -0 1 0 841.92)" font-size="11.04" font-family="Calibri"><tspan y="-38.4" x="85.104"> </tspan></text>
</g>
<clipPath id="cp35460">
<path transform="matrix(1,0,0,-1,0,841.92)" d="M .000008871 0 L 595.32 0 L 595.32 841.92 L .000008871 841.92 Z " fill-rule="evenodd"/>
</clipPath>
<g clip-path="url(#cp35460)">
</g>
</g>
<g id="Layer-1" data-name="P">
<clipPath id="cp35461">
<path transform="matrix(1,0,0,-1,0,841.92)" d="M .000008871 0 L 595.32 0 L 595.32 841.92 L .000008871 841.92 Z " fill-rule="evenodd"/>
</clipPath>
<g clip-path="url(#cp35461)">
<text xml:space="preserve" transform="matrix(1 0 -0 1 0 841.92)" font-size="14.04" font-family="Times New Roman"><tspan y="-772.56" x="85.104 89.04924 99.73368 106.7958 113.85792 120.92004 124.86528 131.70276 137.93653 141.88176 145.72872 151.96248 156.6378 160.48476 165.51108 172.47492 176.42015 180.2671 186.50087 193.57704 198.47699 205.44083 209.38607">imkoniyatlari bilan bir</tspan></text>
</g>
<clipPath id="cp35462">
<path transform="matrix(1,0,0,-1,0,841.92)" d="M .000008871 0 L 595.32 0 L 595.32 841.92 L .000008871 841.92 Z " fill-rule="evenodd"/>
</clipPath>
<g clip-path="url(#cp35462)">
<text xml:space="preserve" transform="matrix(1 0 -0 1 0 841.92)" font-size="14.04" font-family="Times New Roman"><tspan y="-772.56" x="214.25">&#x2013;</tspan></text>
</g>
<clipPath id="cp35463">
<path transform="matrix(1,0,0,-1,0,841.92)" d="M .000008871 0 L 595.32 0 L 595.32 841.92 L .000008871 841.92 Z " fill-rule="evenodd"/>
</clipPath>
<g clip-path="url(#cp35463)">
<text xml:space="preserve" transform="matrix(1 0 -0 1 0 841.92)" font-size="14.04" font-family="Times New Roman"><tspan y="-772.56" x="221.21 228.17385 232.11908 236.7944 240.64136 247.70348 253.82492 260.88703 265.91337 270.58869 276.7101 281.38545 288.46159 293.36155 300.32539 304.2706 308.21583 314.33726 321.3011 325.14805 328.65806 333.6563 343.73704 350.79914 356.3028 362.53657 367.09956 371.04478 377.88224 384.116 388.06123 393.08757 400.14967 406.2711 411.67649 415.6217 422.6838 427.2468 431.19203 437.31346 442.71885 449.78096 453.6279 457.57313 462.1361 466.08134 471.48674 478.54884 483.57518 494.2596 501.32173 508.38383 512.2308 516.176 520.1213 526.24276 530.918 534.765 541.82717 545.67416 552.638 559.60189">biridan farq qiladi. Aksariyat dasturlashtirish muhitlarining </tspan></text>
</g>
<clipPath id="cp35464">
<path transform="matrix(1,0,0,-1,0,841.92)" d="M .000008871 0 L 595.32 0 L 595.32 841.92 L .000008871 841.92 Z " fill-rule="evenodd"/>
</clipPath>
<g clip-path="url(#cp35464)">
<text xml:space="preserve" transform="matrix(1 0 -0 1 0 841.92)" font-size="14.04" font-family="Times New Roman"><tspan y="-748.3" x="85.104 89.77932 96.85548 103.81931 110.88143 117.11519">fundam</tspan></text>
</g>
</g>
<g id="Layer-1" data-name="P">
<clipPath id="cp35465">
<path transform="matrix(1,0,0,-1,0,841.92)" d="M .000008871 0 L 595.32 0 L 595.32 841.92 L .000008871 841.92 Z " fill-rule="evenodd"/>
</clipPath>
<g clip-path="url(#cp35465)">
<text xml:space="preserve" transform="matrix(1 0 -0 1 0 841.92)" font-size="14.04" font-family="Times New Roman"><tspan y="-748.3" x="127.82">&#x0435;</tspan></text>
</g>
</g>
<g id="Layer-1" data-name="P">
<clipPath id="cp35466">
<path transform="matrix(1,0,0,-1,0,841.92)" d="M .000008871 0 L 595.32 0 L 595.32 841.92 L .000008871 841.92 Z " fill-rule="evenodd"/>
</clipPath>
<g clip-path="url(#cp35466)">
<text xml:space="preserve" transform="matrix(1 0 -0 1 0 841.92)" font-size="14.04" font-family="Times New Roman"><tspan y="-748.3" x="134.06 141.12212 145.06735 151.1888 155.13404 159.20563 165.32707 170.73247 177.79459 183.19998 187.14522 191.21681 200.45514 208.3737 216.29227 220.36386 224.21082 228.15605 232.003 235.84996 242.91208 249.14585 253.09108 260.1532 267.2153 271.7783 275.62525 282.68736 286.75898 290.60594 296.8397 303.80354 310.0373 313.9825 320.10395 327.16606 331.11128 334.62129 338.65077 343.21376 350.17759">ntal asosi C++ tiliga borib taqaladi. Int</tspan></text>
</g>
</g>
<g id="Layer-1" data-name="P">
<clipPath id="cp35467">
<path transform="matrix(1,0,0,-1,0,841.92)" d="M .000008871 0 L 595.32 0 L 595.32 841.92 L .000008871 841.92 Z " fill-rule="evenodd"/>
</clipPath>
<g clip-path="url(#cp35467)">
<text xml:space="preserve" transform="matrix(1 0 -0 1 0 841.92)" font-size="14.04" font-family="Times New Roman"><tspan y="-748.3" x="354.43">&#x0435;</tspan></text>
</g>
</g>
<g id="Layer-1" data-name="P">
<clipPath id="cp35468">
<path transform="matrix(1,0,0,-1,0,841.92)" d="M .000008871 0 L 595.32 0 L 595.32 841.92 L .000008871 841.92 Z " fill-rule="evenodd"/>
</clipPath>
<g clip-path="url(#cp35468)">
<text xml:space="preserve" transform="matrix(1 0 -0 1 0 841.92)" font-size="14.04" font-family="Times New Roman"><tspan y="-748.3" x="360.67 365.233 372.2951">rpr</tspan></text>
</g>
</g>
<g id="Layer-1" data-name="P">
<clipPath id="cp35469">
<path transform="matrix(1,0,0,-1,0,841.92)" d="M .000008871 0 L 595.32 0 L 595.32 841.92 L .000008871 841.92 Z " fill-rule="evenodd"/>
</clipPath>
<g clip-path="url(#cp35469)">
<text xml:space="preserve" transform="matrix(1 0 -0 1 0 841.92)" font-size="14.04" font-family="Times New Roman"><tspan y="-748.3" x="376.99">&#x0435;</tspan></text>
</g>
</g>
<g id="Layer-1" data-name="P">
<clipPath id="cp35470">
<path transform="matrix(1,0,0,-1,0,841.92)" d="M .000008871 0 L 595.32 0 L 595.32 841.92 L .000008871 841.92 Z " fill-rule="evenodd"/>
</clipPath>
<g clip-path="url(#cp35470)">
<text xml:space="preserve" transform="matrix(1 0 -0 1 0 841.92)" font-size="14.04" font-family="Times New Roman"><tspan y="-748.3" x="383.11 387.0552 393.28898 397.13594 404.19804 408.87336 412.8186 419.8807 426.00215 431.5058 435.35276 442.3166 446.9919 454.06806 457.915 461.98664">tator dasturni o</tspan></text>
</g>
</g>
<g id="Layer-1" data-name="P">
<clipPath id="cp35471">
<path transform="matrix(1,0,0,-1,0,841.92)" d="M .000008871 0 L 595.32 0 L 595.32 841.92 L .000008871 841.92 Z " fill-rule="evenodd"/>
</clipPath>
<g clip-path="url(#cp35471)">
<text xml:space="preserve" transform="matrix(1 0 -0 1 0 841.92)" font-size="14.04" font-family="Times New Roman"><tspan y="-748.3" x="469.18">&#x2019;</tspan></text>
</g>
</g>
<g id="Layer-1" data-name="P">
<clipPath id="cp35472">
<path transform="matrix(1,0,0,-1,0,841.92)" d="M .000008871 0 L 595.32 0 L 595.32 841.92 L .000008871 841.92 Z " fill-rule="evenodd"/>
</clipPath>
<g clip-path="url(#cp35472)">
<text xml:space="preserve" transform="matrix(1 0 -0 1 0 841.92)" font-size="14.04" font-family="Times New Roman"><tspan y="-748.3" x="473.74 480.70384 484.64906 490.05445 497.11656 501.18818 505.03514 511.2689 515.9442 522.178 529.02957 536.0917 543.05557 547.0008 553.8383 559.9598">qish jarayonida </tspan></text>
</g>
</g>
<g id="Layer-1" data-name="P">
<clipPath id="cp35473">
<path transform="matrix(1,0,0,-1,0,841.92)" d="M .000008871 0 L 595.32 0 L 595.32 841.92 L .000008871 841.92 Z " fill-rule="evenodd"/>
</clipPath>
<g clip-path="url(#cp35473)">
<text xml:space="preserve" transform="matrix(1 0 -0 1 0 841.92)" font-size="14.04" font-family="Times New Roman"><tspan y="-724.18" x="85.104 92.166118 99.12995 102.97691 110.03903 117.10115 122.36615 129.32999 136.3921 147.07656 153.31032 160.38649 167.44861 173.68238 177.62761 183.74906 188.42438 192.27133 199.33345 203.1804 208.57176">uning komandalarini k</tspan></text>
</g>
</g>
<g id="Layer-1" data-name="P">
<clipPath id="cp35474">
<path transform="matrix(1,0,0,-1,0,841.92)" d="M .000008871 0 L 595.32 0 L 595.32 841.92 L .000008871 841.92 Z " fill-rule="evenodd"/>
</clipPath>
<g clip-path="url(#cp35474)">
<text xml:space="preserve" transform="matrix(1 0 -0 1 0 841.92)" font-size="14.04" font-family="Times New Roman"><tspan y="-724.18" x="215.81">&#x0435;</tspan></text>
</g>
</g>
<g id="Layer-1" data-name="P">
<clipPath id="cp35475">
<path transform="matrix(1,0,0,-1,0,841.92)" d="M .000008871 0 L 595.32 0 L 595.32 841.92 L .000008871 841.92 Z " fill-rule="evenodd"/>
</clipPath>
<g clip-path="url(#cp35475)">
<text xml:space="preserve" transform="matrix(1 0 -0 1 0 841.92)" font-size="14.04" font-family="Times New Roman"><tspan y="-724.18" x="221.93 225.87523 236.55968 242.79344">tma </tspan></text>
</g>
</g>
<g id="Layer-1" data-name="P">
<clipPath id="cp35476">
<path transform="matrix(1,0,0,-1,0,841.92)" d="M .000008871 0 L 595.32 0 L 595.32 841.92 L .000008871 841.92 Z " fill-rule="evenodd"/>
</clipPath>
<g clip-path="url(#cp35476)">
<text xml:space="preserve" transform="matrix(1 0 -0 1 0 841.92)" font-size="14.04" font-family="Times New Roman"><tspan y="-724.18" x="248.21">-</tspan></text>
</g>
</g>
<g id="Layer-1" data-name="P">
<clipPath id="cp35477">
<path transform="matrix(1,0,0,-1,0,841.92)" d="M .000008871 0 L 595.32 0 L 595.32 841.92 L .000008871 841.92 Z " fill-rule="evenodd"/>
</clipPath>
<g clip-path="url(#cp35477)">
<text xml:space="preserve" transform="matrix(1 0 -0 1 0 841.92)" font-size="14.04" font-family="Times New Roman"><tspan y="-724.18" x="252.89"> </tspan></text>
</g>
</g>
<g id="Layer-1" data-name="P">
<clipPath id="cp35478">
<path transform="matrix(1,0,0,-1,0,841.92)" d="M .000008871 0 L 595.32 0 L 595.32 841.92 L .000008871 841.92 Z " fill-rule="evenodd"/>
</clipPath>
<g clip-path="url(#cp35478)">
<text xml:space="preserve" transform="matrix(1 0 -0 1 0 841.92)" font-size="14.04" font-family="Times New Roman"><tspan y="-724.18" x="258.29">k</tspan></text>
</g>
</g>
<g id="Layer-1" data-name="P">
<clipPath id="cp35479">
<path transform="matrix(1,0,0,-1,0,841.92)" d="M .000008871 0 L 595.32 0 L 595.32 841.92 L .000008871 841.92 Z " fill-rule="evenodd"/>
</clipPath>
<g clip-path="url(#cp35479)">
<text xml:space="preserve" transform="matrix(1 0 -0 1 0 841.92)" font-size="14.04" font-family="Times New Roman"><tspan y="-724.18" x="265.37">&#x0435;</tspan></text>
</g>
</g>
<g id="Layer-1" data-name="P">
<clipPath id="cp35480">
<path transform="matrix(1,0,0,-1,0,841.92)" d="M .000008871 0 L 595.32 0 L 595.32 841.92 L .000008871 841.92 Z " fill-rule="evenodd"/>
</clipPath>
<g clip-path="url(#cp35480)">
<text xml:space="preserve" transform="matrix(1 0 -0 1 0 841.92)" font-size="14.04" font-family="Times New Roman"><tspan y="-724.18" x="271.61 275.5552 280.94657 291.631 297.86479 303.38249 310.44459 314.29154 321.25538 327.48915 332.8805 336.8257">t mashina ti</tspan></text>
</g>
</g>
<g id="Layer-1" data-name="P">
<clipPath id="cp35481">
<path transform="matrix(1,0,0,-1,0,841.92)" d="M .000008871 0 L 595.32 0 L 595.32 841.92 L .000008871 841.92 Z " fill-rule="evenodd"/>
</clipPath>
<g clip-path="url(#cp35481)">
<text xml:space="preserve" transform="matrix(1 0 -0 1 0 841.92)" font-size="14.04" font-family="Times New Roman"><tspan y="-724.18" x="340.75 344.59696 348.54219 355.506 361.73979 367.13114">liga o</tspan></text>
</g>
</g>
<g id="Layer-1" data-name="P">
<clipPath id="cp35482">
<path transform="matrix(1,0,0,-1,0,841.92)" d="M .000008871 0 L 595.32 0 L 595.32 841.92 L .000008871 841.92 Z " fill-rule="evenodd"/>
</clipPath>
<g clip-path="url(#cp35482)">
<text xml:space="preserve" transform="matrix(1 0 -0 1 0 841.92)" font-size="14.04" font-family="Times New Roman"><tspan y="-724.18" x="374.23">&#x2019;</tspan></text>
</g>
</g>
<g id="Layer-1" data-name="P">
<clipPath id="cp35483">
<path transform="matrix(1,0,0,-1,0,841.92)" d="M .000008871 0 L 595.32 0 L 595.32 841.92 L .000008871 841.92 Z " fill-rule="evenodd"/>
</clipPath>
<g clip-path="url(#cp35483)">
<text xml:space="preserve" transform="matrix(1 0 -0 1 0 841.92)" font-size="14.04" font-family="Times New Roman"><tspan y="-724.18" x="378.79 382.63697 389.69908 395.93284 402.1666 408.3021 415.26594 419.21116 422.72117 428.0704 438.15113 445.21324 455.89768 462.95979 466.905 470.85023 477.68769 483.92146 487.86668 494.92878 499.6041 504.99546 511.11689 516.62057 522.8543 528.24569 535.0832 541.31698 548.3931 552.2401 556.0871 559.80776">tkazadi. Kompilyator esa yaxlit </tspan></text>
</g>
</g>
<g id="Layer-1" data-name="P">
<clipPath id="cp35484">
<path transform="matrix(1,0,0,-1,0,841.92)" d="M .000008871 0 L 595.32 0 L 595.32 841.92 L .000008871 841.92 Z " fill-rule="evenodd"/>
</clipPath>
<g clip-path="url(#cp35484)">
<text xml:space="preserve" transform="matrix(1 0 -0 1 0 841.92)" font-size="14.04" font-family="Times New Roman"><tspan y="-700.06" x="85.104 92.166118 96.84144 103.805278 110.86739 115.54272 121.776477 132.58728 143.27173 149.5055 155.97792 163.04004 170.10216 177.066 180.91295 187.97507 191.9203 198.26638 205.23021 209.17545 213.85077 220.8146 225.48993 231.96236 238.9262 242.87143 247.54676 253.89282 260.95494 265.63026 271.75169 275.59864 279.54386 286.60597 292.95207 297.62739 304.70353 309.37886 320.0633 326.29707">programma kodini biror bir oraliq forma </tspan></text>
</g>
</g>
<g id="Layer-1" data-name="P">
<clipPath id="cp35485">
<path transform="matrix(1,0,0,-1,0,841.92)" d="M .000008871 0 L 595.32 0 L 595.32 841.92 L .000008871 841.92 Z " fill-rule="evenodd"/>
</clipPath>
<g clip-path="url(#cp35485)">
<text xml:space="preserve" transform="matrix(1 0 -0 1 0 841.92)" font-size="14.04" font-family="Times New Roman"><tspan y="-700.06" x="333.07">-</tspan></text>
</g>
</g>
<g id="Layer-1" data-name="P">
<clipPath id="cp35486">
<path transform="matrix(1,0,0,-1,0,841.92)" d="M .000008871 0 L 595.32 0 L 595.32 841.92 L .000008871 841.92 Z " fill-rule="evenodd"/>
</clipPath>
<g clip-path="url(#cp35486)">
<text xml:space="preserve" transform="matrix(1 0 -0 1 0 841.92)" font-size="14.04" font-family="Times New Roman"><tspan y="-700.06" x="337.75"> </tspan></text>
</g>
</g>
<g id="Layer-1" data-name="P">
<clipPath id="cp35487">
<path transform="matrix(1,0,0,-1,0,841.92)" d="M .000008871 0 L 595.32 0 L 595.32 841.92 L .000008871 841.92 Z " fill-rule="evenodd"/>
</clipPath>
<g clip-path="url(#cp35487)">
<text xml:space="preserve" transform="matrix(1 0 -0 1 0 841.92)" font-size="14.04" font-family="Times New Roman"><tspan y="-700.06" x="344.23 351.19">ob</tspan></text>
</g>
</g>
<g id="Layer-1" data-name="P">
<clipPath id="cp35488">
<path transform="matrix(1,0,0,-1,0,841.92)" d="M .000008871 0 L 595.32 0 L 595.32 841.92 L .000008871 841.92 Z " fill-rule="evenodd"/>
</clipPath>
<g clip-path="url(#cp35488)">
<text xml:space="preserve" transform="matrix(1 0 -0 1 0 841.92)" font-size="14.04" font-family="Times New Roman"><tspan y="-700.06" x="358.27">&#x2019;</tspan></text>
</g>
</g>
<g id="Layer-1" data-name="P">
<clipPath id="cp35489">
<path transform="matrix(1,0,0,-1,0,841.92)" d="M .000008871 0 L 595.32 0 L 595.32 841.92 L .000008871 841.92 Z " fill-rule="evenodd"/>
</clipPath>
<g clip-path="url(#cp35489)">
<text xml:space="preserve" transform="matrix(1 0 -0 1 0 841.92)" font-size="14.04" font-family="Times New Roman"><tspan y="-700.06" x="362.83">&#x0435;</tspan></text>
</g>
</g>
<g id="Layer-1" data-name="P">
<clipPath id="cp35490">
<path transform="matrix(1,0,0,-1,0,841.92)" d="M .000008871 0 L 595.32 0 L 595.32 841.92 L .000008871 841.92 Z " fill-rule="evenodd"/>
</clipPath>
<g clip-path="url(#cp35490)">
<text xml:space="preserve" transform="matrix(1 0 -0 1 0 841.92)" font-size="14.04" font-family="Times New Roman"><tspan y="-700.06" x="369.07 376.03385 379.97908 386.4515 391.12684 397.3606 404.2121 408.15733 412.00428 419.06639 425.30015 431.64625">kt fayliga o</tspan></text>
</g>
</g>
<g id="Layer-1" data-name="P">
<clipPath id="cp35491">
<path transform="matrix(1,0,0,-1,0,841.92)" d="M .000008871 0 L 595.32 0 L 595.32 841.92 L .000008871 841.92 Z " fill-rule="evenodd"/>
</clipPath>
<g clip-path="url(#cp35491)">
<text xml:space="preserve" transform="matrix(1 0 -0 1 0 841.92)" font-size="14.04" font-family="Times New Roman"><tspan y="-700.06" x="438.79">&#x2019;</tspan></text>
</g>
</g>
<g id="Layer-1" data-name="P">
<clipPath id="cp35492">
<path transform="matrix(1,0,0,-1,0,841.92)" d="M .000008871 0 L 595.32 0 L 595.32 841.92 L .000008871 841.92 Z " fill-rule="evenodd"/>
</clipPath>
<g clip-path="url(#cp35492)">
<text xml:space="preserve" transform="matrix(1 0 -0 1 0 841.92)" font-size="14.04" font-family="Times New Roman"><tspan y="-700.06" x="443.38 447.32524 454.38734 460.6211 466.85487 472.99037 479.9542 483.8994 487.40943 493.83976 503.20445 510.15425 516.6267 523.5906 530.55447 536.0581 543.022 546.9672 552.9623 559.92617">tkazadi. Bu bosqich </tspan></text>
</g>
</g>
<g id="Layer-1" data-name="P">
<clipPath id="cp35493">
<path transform="matrix(1,0,0,-1,0,841.92)" d="M .000008871 0 L 595.32 0 L 595.32 841.92 L .000008871 841.92 Z " fill-rule="evenodd"/>
</clipPath>
<g clip-path="url(#cp35493)">
<text xml:space="preserve" transform="matrix(1 0 -0 1 0 841.92)" font-size="14.04" font-family="Times New Roman"><tspan y="-675.94" x="85.104 92.166118 99.22823 109.912677 116.97479 120.92004 124.86528 131.70276 137.93653 141.88176 147.28716 151.23239 158.06987 164.30364 172.22219 179.2843 186.24814 191.65354 198.71566 202.5626 208.79637 215.87255 219.7195 227.62401">kompilyatsiya bosqichi d</tspan></text>
</g>
</g>
<g id="Layer-1" data-name="P">
<clipPath id="cp35494">
<path transform="matrix(1,0,0,-1,0,841.92)" d="M .000008871 0 L 595.32 0 L 595.32 841.92 L .000008871 841.92 Z " fill-rule="evenodd"/>
</clipPath>
<g clip-path="url(#cp35494)">
<text xml:space="preserve" transform="matrix(1 0 -0 1 0 841.92)" font-size="14.04" font-family="Times New Roman"><tspan y="-675.94" x="234.89">&#x0435;</tspan></text>
</g>
</g>
<g id="Layer-1" data-name="P">
<clipPath id="cp35495">
<path transform="matrix(1,0,0,-1,0,841.92)" d="M .000008871 0 L 595.32 0 L 595.32 841.92 L .000008871 841.92 Z " fill-rule="evenodd"/>
</clipPath>
<g clip-path="url(#cp35495)">
<text xml:space="preserve" transform="matrix(1 0 -0 1 0 841.92)" font-size="14.04" font-family="Times New Roman"><tspan y="-675.94" x="241.13 247.96749 251.91272 255.85796 261.97938 268.9432 272.88844 276.39845 284.2749 293.6396 297.4725 302.14784 305.99479 313.0569 319.1783 326.24043 330.18565 337.97785 344.2116">yiladi. Birinchi el</tspan></text>
</g>
</g>
<g id="Layer-1" data-name="P">
<clipPath id="cp35496">
<path transform="matrix(1,0,0,-1,0,841.92)" d="M .000008871 0 L 595.32 0 L 595.32 841.92 L .000008871 841.92 Z " fill-rule="evenodd"/>
</clipPath>
<g clip-path="url(#cp35496)">
<text xml:space="preserve" transform="matrix(1 0 -0 1 0 841.92)" font-size="14.04" font-family="Times New Roman"><tspan y="-675.94" x="348.31">&#x0435;</tspan></text>
</g>
</g>
<g id="Layer-1" data-name="P">
<clipPath id="cp35497">
<path transform="matrix(1,0,0,-1,0,841.92)" d="M .000008871 0 L 595.32 0 L 595.32 841.92 L .000008871 841.92 Z " fill-rule="evenodd"/>
</clipPath>
<g clip-path="url(#cp35497)">
<text xml:space="preserve" transform="matrix(1 0 -0 1 0 841.92)" font-size="14.04" font-family="Times New Roman"><tspan y="-675.94" x="354.43 361.39384 365.33906 370.01438 376.9782 384.0403 391.83253 398.89463 402.74159 408.14698 415.20909 422.1729 426.11814 432.23957 437.64497 444.70707 452.6116 463.29606 469.52983 475.04753 482.10963 485.95658 493.01869 499.25245 503.0994 509.33317 514.0085 517.85549 525.76 532.82217 539.0559 545.9075 552.9696 559.8071">ktron hisoblash mashinalari paydo </tspan></text>
</g>
</g>
<g id="Layer-1" data-name="P">
<clipPath id="cp35498">
<path transform="matrix(1,0,0,-1,0,841.92)" d="M .000008871 0 L 595.32 0 L 595.32 841.92 L .000008871 841.92 Z " fill-rule="evenodd"/>
</clipPath>
<g clip-path="url(#cp35498)">
<text xml:space="preserve" transform="matrix(1 0 -0 1 0 841.92)" font-size="14.04" font-family="Times New Roman"><tspan y="-651.7" x="85.104 92.184">bo</tspan></text>
</g>
</g>
<g id="Layer-1" data-name="P">
<clipPath id="cp35499">
<path transform="matrix(1,0,0,-1,0,841.92)" d="M .000008871 0 L 595.32 0 L 595.32 841.92 L .000008871 841.92 Z " fill-rule="evenodd"/>
</clipPath>
<g clip-path="url(#cp35499)">
<text xml:space="preserve" transform="matrix(1 0 -0 1 0 841.92)" font-size="14.04" font-family="Times New Roman"><tspan y="-651.7" x="99.264">&#x2019;</tspan></text>
</g>
</g>
<g id="Layer-1" data-name="P">
<clipPath id="cp35500">
<path transform="matrix(1,0,0,-1,0,841.92)" d="M .000008871 0 L 595.32 0 L 595.32 841.92 L .000008871 841.92 Z " fill-rule="evenodd"/>
</clipPath>
<g clip-path="url(#cp35500)">
<text xml:space="preserve" transform="matrix(1 0 -0 1 0 841.92)" font-size="14.04" font-family="Times New Roman"><tspan y="-651.7" x="103.82 107.66696 111.612209 117.01761 124.07973 128.02497 134.97476 142.03688 145.88384 149.82907 155.95052 163.01264 170.07476 177.13687 183.25832 188.762 192.60895 199.67107 204.23407 208.1793 214.41307 219.81847 226.88059 233.9427 237.78966 241.7349 245.58185 249.52709 255.76085 260.32383 264.26905 271.33119 277.56495 284.52879 291.4926 295.43785 302.2753 309.3374 313.28263 318.68803 322.53498 329.37245 335.6062 341.1239 345.06913 352.13127 359.19337 366.1572 371.66087 378.6247 382.56993 388.69136 395.75346 401.87489 408.93699 412.8822">lishi bilan dasturlash tillari evolyutsiyasi boshlanadi.</tspan></text>
</g>
</g>
<g id="Layer-1" data-name="P">
<clipPath id="cp35501">
<path transform="matrix(1,0,0,-1,0,841.92)" d="M .000008871 0 L 595.32 0 L 595.32 841.92 L .000008871 841.92 Z " fill-rule="evenodd"/>
</clipPath>
<g clip-path="url(#cp35501)">
<text xml:space="preserve" transform="matrix(1 0 -0 1 0 841.92)" font-size="14.04" font-family="Times New Roman"><tspan y="-651.7" x="416.83"> </tspan></text>
</g>
</g>
<g id="Layer-1" data-name="P">
<clipPath id="cp35502">
<path transform="matrix(1,0,0,-1,0,841.92)" d="M .000008871 0 L 595.32 0 L 595.32 841.92 L .000008871 841.92 Z " fill-rule="evenodd"/>
</clipPath>
<g clip-path="url(#cp35502)">
<text xml:space="preserve" transform="matrix(1 0 -0 1 0 841.92)" font-size="14.04" font-family="Times New Roman"><tspan y="-651.7" x="423.91 433.99073 440.2245 445.62989 449.5751 453.52033 459.64176 466.6056 473.6677 477.6129 484.5627 491.62483 498.68693 509.37138 516.4335 523.271 530.3331">Dastlabki kompyut</tspan></text>
</g>
</g>
<g id="Layer-1" data-name="P">
<clipPath id="cp35503">
<path transform="matrix(1,0,0,-1,0,841.92)" d="M .000008871 0 L 595.32 0 L 595.32 841.92 L .000008871 841.92 Z " fill-rule="evenodd"/>
</clipPath>
<g clip-path="url(#cp35503)">
<text xml:space="preserve" transform="matrix(1 0 -0 1 0 841.92)" font-size="14.04" font-family="Times New Roman"><tspan y="-651.7" x="534.46">&#x0435;</tspan></text>
</g>
</g>
<g id="Layer-1" data-name="P">
<clipPath id="cp35504">
<path transform="matrix(1,0,0,-1,0,841.92)" d="M .000008871 0 L 595.32 0 L 595.32 841.92 L .000008871 841.92 Z " fill-rule="evenodd"/>
</clipPath>
<g clip-path="url(#cp35504)">
<text xml:space="preserve" transform="matrix(1 0 -0 1 0 841.92)" font-size="14.04" font-family="Times New Roman"><tspan y="-651.7" x="540.7 545.3753 549.32058 555.442 560.005">rlar </tspan></text>
</g>
</g>
<g id="Layer-1" data-name="P">
<clipPath id="cp35505">
<path transform="matrix(1,0,0,-1,0,841.92)" d="M .000008871 0 L 595.32 0 L 595.32 841.92 L .000008871 841.92 Z " fill-rule="evenodd"/>
</clipPath>
<g clip-path="url(#cp35505)">
<text xml:space="preserve" transform="matrix(1 0 -0 1 0 841.92)" font-size="14.04" font-family="Times New Roman"><tspan y="-627.58" x="85.104 89.04924 96.01308 103.075199 106.92216 113.984279 120.10571 127.06955 131.01479 139.28435 143.1313 149.36507 156.44124 163.40508 170.4672 178.61038 185.6725 190.34783 197.31166 202.71706 209.77918 213.72441 221.8676 228.92972 235.05117 242.11328 245.96024 249.90547 256.86933 263.1031 271.37266 277.6064 282.28175 286.1287 290.0739 293.92088">ikkinchi jahon urushi vaqtida artill</tspan></text>
</g>
</g>
<g id="Layer-1" data-name="P">
<clipPath id="cp35506">
<path transform="matrix(1,0,0,-1,0,841.92)" d="M .000008871 0 L 595.32 0 L 595.32 841.92 L .000008871 841.92 Z " fill-rule="evenodd"/>
</clipPath>
<g clip-path="url(#cp35506)">
<text xml:space="preserve" transform="matrix(1 0 -0 1 0 841.92)" font-size="14.04" font-family="Times New Roman"><tspan y="-627.58" x="298.13">&#x0435;</tspan></text>
</g>
</g>
<g id="Layer-1" data-name="P">
<clipPath id="cp35507">
<path transform="matrix(1,0,0,-1,0,841.92)" d="M .000008871 0 L 595.32 0 L 595.32 841.92 L .000008871 841.92 Z " fill-rule="evenodd"/>
</clipPath>
<g clip-path="url(#cp35507)">
<text xml:space="preserve" transform="matrix(1 0 -0 1 0 841.92)" font-size="14.04" font-family="Times New Roman"><tspan y="-627.58" x="304.37 308.93299 312.8782 319.71568 325.94944 334.219 339.72267 346.78477 352.9062 357.5815 364.433 370.66679 377.74293 381.68815 387.9219 392.4849 396.4301 403.39396 407.2409 414.303 421.3651 429.50834 436.47218 442.70594 447.38127 453.61503 460.69117 466.8126 470.7578 479.02738 482.87434 487.54966">riya snaryadlarining harakat tra</tspan></text>
</g>
</g>
<g id="Layer-1" data-name="P">
<clipPath id="cp35508">
<path transform="matrix(1,0,0,-1,0,841.92)" d="M .000008871 0 L 595.32 0 L 595.32 841.92 L .000008871 841.92 Z " fill-rule="evenodd"/>
</clipPath>
<g clip-path="url(#cp35508)">
<text xml:space="preserve" transform="matrix(1 0 -0 1 0 841.92)" font-size="14.04" font-family="Times New Roman"><tspan y="-627.58" x="494.02">&#x0435;</tspan></text>
</g>
</g>
<g id="Layer-1" data-name="P">
<clipPath id="cp35509">
<path transform="matrix(1,0,0,-1,0,841.92)" d="M .000008871 0 L 595.32 0 L 595.32 841.92 L .000008871 841.92 Z " fill-rule="evenodd"/>
</clipPath>
<g clip-path="url(#cp35509)">
<text xml:space="preserve" transform="matrix(1 0 -0 1 0 841.92)" font-size="14.04" font-family="Times New Roman"><tspan y="-627.58" x="500.14 507.20213 511.04908 518.1112 522.6742 526.61947 533.457 539.69076 545.20846 549.1537 556.11758 559.96456">ktoriyasini </tspan></text>
</g>
</g>
<g id="Layer-1" data-name="P">
<clipPath id="cp35510">
<path transform="matrix(1,0,0,-1,0,841.92)" d="M .000008871 0 L 595.32 0 L 595.32 841.92 L .000008871 841.92 Z " fill-rule="evenodd"/>
</clipPath>
<g clip-path="url(#cp35510)">
<text xml:space="preserve" transform="matrix(1 0 -0 1 0 841.92)" font-size="14.04" font-family="Times New Roman"><tspan y="-603.46" x="85.104 92.166118 96.01308 101.41848 108.4806">hisob</tspan></text>
</g>
</g>
<g id="Layer-1" data-name="P">
<clipPath id="cp35511">
<path transform="matrix(1,0,0,-1,0,841.92)" d="M .000008871 0 L 595.32 0 L 595.32 841.92 L .000008871 841.92 Z " fill-rule="evenodd"/>
</clipPath>
<g clip-path="url(#cp35511)">
<text xml:space="preserve" transform="matrix(1 0 -0 1 0 841.92)" font-size="14.04" font-family="Times New Roman"><tspan y="-603.46" x="115.58">-</tspan></text>
</g>
</g>
<g id="Layer-1" data-name="P">
<clipPath id="cp35512">
<path transform="matrix(1,0,0,-1,0,841.92)" d="M .000008871 0 L 595.32 0 L 595.32 841.92 L .000008871 841.92 Z " fill-rule="evenodd"/>
</clipPath>
<g clip-path="url(#cp35512)">
<text xml:space="preserve" transform="matrix(1 0 -0 1 0 841.92)" font-size="14.04" font-family="Times New Roman"><tspan y="-603.46" x="120.14 127.103839 131.04907 134.89603 141.95815 149.02027 155.0013 162.06342 165.91037 169.75733 173.70256 179.10796 186.17008 192.27747 203.07424 209.308 216.38417 221.78957 228.02333 234.98717 238.83412 245.89624 252.13 258.2374 265.20124 272.26335 276.82633 280.77156 284.6185 291.6806 297.80204 304.86415 310.97157 317.20533 324.16917 328.11439 331.6244 337.7037 347.78443 351.72966 358.69349 362.6387 369.7008 375.68186 382.74397 388.8654 394.36906 398.216 405.2781 409.95344 416.07487 423.13697 426.98393 430.92915 437.1629 441.7259 447.8333 454.06709 461.14323 468.20533 474.18638 479.69004 486.65388 493.6177 500.6798 506.91358 513.021 523.7054 529.93917 535.45687 542.519 546.46426 553.30178 559.4232">kitob qilish maqsadida qurilgan edi. Oldin dasturchilar eng sodda mashina </tspan></text>
</g>
</g>
<g id="Layer-1" data-name="P">
<clipPath id="cp35513">
<path transform="matrix(1,0,0,-1,0,841.92)" d="M .000008871 0 L 595.32 0 L 595.32 841.92 L .000008871 841.92 Z " fill-rule="evenodd"/>
</clipPath>
<g clip-path="url(#cp35513)">
<text xml:space="preserve" transform="matrix(1 0 -0 1 0 841.92)" font-size="14.04" font-family="Times New Roman"><tspan y="-579.34" x="85.104 89.04924 92.8962 96.841449 100.68841 107.652248 111.59749 116.98885">tilini o</tspan></text>
</g>
</g>
<g id="Layer-1" data-name="P">
<clipPath id="cp35514">
<path transform="matrix(1,0,0,-1,0,841.92)" d="M .000008871 0 L 595.32 0 L 595.32 841.92 L .000008871 841.92 Z " fill-rule="evenodd"/>
</clipPath>
<g clip-path="url(#cp35514)">
<text xml:space="preserve" transform="matrix(1 0 -0 1 0 841.92)" font-size="14.04" font-family="Times New Roman"><tspan y="-579.34" x="124.1">&#x2019;</tspan></text>
</g>
</g>
<g id="Layer-1" data-name="P">
<clipPath id="cp35515">
<path transform="matrix(1,0,0,-1,0,841.92)" d="M .000008871 0 L 595.32 0 L 595.32 841.92 L .000008871 841.92 Z " fill-rule="evenodd"/>
</clipPath>
<g clip-path="url(#cp35515)">
<text xml:space="preserve" transform="matrix(1 0 -0 1 0 841.92)" font-size="14.04" font-family="Times New Roman"><tspan y="-579.34" x="128.66 134.89377 138.839 145.90113 152.13489 157.52625 161.3732 166.04853 173.01236 180.07448 186.19593 190.14116 197.105 204.06884 210.3026 217.37877 221.324 226.589 233.65113 240.71324 251.39769 258.4598 265.29728 272.35939">zida ifodalovchi kompyut</tspan></text>
</g>
</g>
<g id="Layer-1" data-name="P">
<clipPath id="cp35516">
<path transform="matrix(1,0,0,-1,0,841.92)" d="M .000008871 0 L 595.32 0 L 595.32 841.92 L .000008871 841.92 Z " fill-rule="evenodd"/>
</clipPath>
<g clip-path="url(#cp35516)">
<text xml:space="preserve" transform="matrix(1 0 -0 1 0 841.92)" font-size="14.04" font-family="Times New Roman"><tspan y="-579.34" x="276.53">&#x0435;</tspan></text>
</g>
</g>
<g id="Layer-1" data-name="P">
<clipPath id="cp35517">
<path transform="matrix(1,0,0,-1,0,841.92)" d="M .000008871 0 L 595.32 0 L 595.32 841.92 L .000008871 841.92 Z " fill-rule="evenodd"/>
</clipPath>
<g clip-path="url(#cp35517)">
<text xml:space="preserve" transform="matrix(1 0 -0 1 0 841.92)" font-size="14.04" font-family="Times New Roman"><tspan y="-579.34" x="282.77 287.4453 292.83668 299.89878 306.96089 317.64533 323.8791 330.95524 337.91908 344.15284 348.09806 354.33183 358.8948 362.84004 368.23139 375.19523 379.14045 382.9874 389.22117 396.2973 401.68867 405.5356 411.03929 418.0031 421.94834 428.06977 435.13188 441.2533 448.3154 452.26063 458.38206 463.05738 466.56739 471.93067 481.29536 488.35746">r komandalari bilan ishlaganlar. Bu </tspan></text>
</g>
</g>
<g id="Layer-1" data-name="P">
<clipPath id="cp35518">
<path transform="matrix(1,0,0,-1,0,841.92)" d="M .000008871 0 L 595.32 0 L 595.32 841.92 L .000008871 841.92 Z " fill-rule="evenodd"/>
</clipPath>
<g clip-path="url(#cp35518)">
<text xml:space="preserve" transform="matrix(1 0 -0 1 0 841.92)" font-size="14.04" font-family="Times New Roman"><tspan y="-579.34" x="494.02 501.0821 508.1442 518.8286 525.0624 532.13858 539.2007 545.32217 549.2674 555.38888 559.95187">komandalar </tspan></text>
</g>
</g>
<g id="Layer-1" data-name="P">
<clipPath id="cp35519">
<path transform="matrix(1,0,0,-1,0,841.92)" d="M .000008871 0 L 595.32 0 L 595.32 841.92 L .000008871 841.92 Z " fill-rule="evenodd"/>
</clipPath>
<g clip-path="url(#cp35519)">
<text xml:space="preserve" transform="matrix(1 0 -0 1 0 841.92)" font-size="14.04" font-family="Times New Roman"><tspan y="-555.07" x="85.104 92.166118 99.12995 103.075199 109.786319 116.848438 123.08219 129.79332 136.85544 140.80068 145.36368 149.30892 155.54268 160.10569 167.1678 173.28925 180.35137 187.06249 191.00772 197.24149 202.64688 209.709 216.67284 220.61808 224.46503 231.28847 235.13542 242.09926 249.16138 256.22349 262.3449 269.407 276.11814 283.18025 289.30168 296.36378 303.42588 310.137 317.1991 323.32054 327.26576 334.32786 338.89085 342.83607 349.06983 353.6328 360.69493 366.81636 373.87846 380.58958 384.5348 391.49864 398.56074 403.23606 409.35749 413.3027 420.01383 427.07594">nol va birlardan tashkil topgan uzun qatorlardan iborat bo</tspan></text>
</g>
</g>
<g id="Layer-1" data-name="P">
<clipPath id="cp35520">
<path transform="matrix(1,0,0,-1,0,841.92)" d="M .000008871 0 L 595.32 0 L 595.32 841.92 L .000008871 841.92 Z " fill-rule="evenodd"/>
</clipPath>
<g clip-path="url(#cp35520)">
<text xml:space="preserve" transform="matrix(1 0 -0 1 0 841.92)" font-size="14.04" font-family="Times New Roman"><tspan y="-555.07" x="434.71">&#x2019;</tspan></text>
</g>
</g>
<g id="Layer-1" data-name="P">
<clipPath id="cp35521">
<path transform="matrix(1,0,0,-1,0,841.92)" d="M .000008871 0 L 595.32 0 L 595.32 841.92 L .000008871 841.92 Z " fill-rule="evenodd"/>
</clipPath>
<g clip-path="url(#cp35521)">
<text xml:space="preserve" transform="matrix(1 0 -0 1 0 841.92)" font-size="14.04" font-family="Times New Roman"><tspan y="-555.07" x="439.27 443.11695 449.3507 454.02604 460.86354 467.0973 474.06114 478.00636 481.51637 488.31175">lar edi. K</tspan></text>
</g>
</g>
<g id="Layer-1" data-name="P">
<clipPath id="cp35522">
<path transform="matrix(1,0,0,-1,0,841.92)" d="M .000008871 0 L 595.32 0 L 595.32 841.92 L .000008871 841.92 Z " fill-rule="evenodd"/>
</clipPath>
<g clip-path="url(#cp35522)">
<text xml:space="preserve" transform="matrix(1 0 -0 1 0 841.92)" font-size="14.04" font-family="Times New Roman"><tspan y="-555.07" x="498.46">&#x0435;</tspan></text>
</g>
</g>
<g id="Layer-1" data-name="P">
<clipPath id="cp35523">
<path transform="matrix(1,0,0,-1,0,841.92)" d="M .000008871 0 L 595.32 0 L 595.32 841.92 L .000008871 841.92 Z " fill-rule="evenodd"/>
</clipPath>
<g clip-path="url(#cp35523)">
<text xml:space="preserve" transform="matrix(1 0 -0 1 0 841.92)" font-size="14.04" font-family="Times New Roman"><tspan y="-555.07" x="504.7 511.53749 515.4827 522.54489 528.6663 535.72848 541.9622 545.8092 549.6562 556.62008 559.97567">yinchalik, </tspan></text>
</g>
</g>
<g id="Layer-1" data-name="P">
<clipPath id="cp35524">
<path transform="matrix(1,0,0,-1,0,841.92)" d="M .000008871 0 L 595.32 0 L 595.32 841.92 L .000008871 841.92 Z " fill-rule="evenodd"/>
</clipPath>
<g clip-path="url(#cp35524)">
<text xml:space="preserve" transform="matrix(1 0 -0 1 0 841.92)" font-size="14.04" font-family="Times New Roman"><tspan y="-530.95" x="85.104 89.04924 96.01308 101.41848 108.4806 115.444438 119.38968 125.623439 130.29875 141.69924 148.76136 154.8828 161.94492 168.90876 175.97087 187.48368 191.33063 198.29447 203.69986 210.76198 217.72582 224.78794 231.0217 235.5847 239.43166 243.37689 254.88968 261.85353">insonlar uchun tushunarli bo</tspan></text>
</g>
</g>
<g id="Layer-1" data-name="P">
<clipPath id="cp35525">
<path transform="matrix(1,0,0,-1,0,841.92)" d="M .000008871 0 L 595.32 0 L 595.32 841.92 L .000008871 841.92 Z " fill-rule="evenodd"/>
</clipPath>
<g clip-path="url(#cp35525)">
<text xml:space="preserve" transform="matrix(1 0 -0 1 0 841.92)" font-size="14.04" font-family="Times New Roman"><tspan y="-530.95" x="269.09">&#x2019;</tspan></text>
</g>
</g>
<g id="Layer-1" data-name="P">
<clipPath id="cp35526">
<path transform="matrix(1,0,0,-1,0,841.92)" d="M .000008871 0 L 595.32 0 L 595.32 841.92 L .000008871 841.92 Z " fill-rule="evenodd"/>
</clipPath>
<g clip-path="url(#cp35526)">
<text xml:space="preserve" transform="matrix(1 0 -0 1 0 841.92)" font-size="14.04" font-family="Times New Roman"><tspan y="-530.95" x="273.65 277.5952 284.65733 290.77876 297.84086 309.35368 320.03813 326.38423 331.88789 338.8517 342.69868 349.76078 355.99455 367.50736 374.4712 381.5333 392.21775 398.4515 405.52766 412.58976 418.71119 422.6564 428.89018 433.45317 437.39839 444.3622 448.20918 459.722">lgan mashina komandalarini o</tspan></text>
</g>
</g>
<g id="Layer-1" data-name="P">
<clipPath id="cp35527">
<path transform="matrix(1,0,0,-1,0,841.92)" d="M .000008871 0 L 595.32 0 L 595.32 841.92 L .000008871 841.92 Z " fill-rule="evenodd"/>
</clipPath>
<g clip-path="url(#cp35527)">
<text xml:space="preserve" transform="matrix(1 0 -0 1 0 841.92)" font-size="14.04" font-family="Times New Roman"><tspan y="-530.95" x="467.02">&#x2019;</tspan></text>
</g>
</g>
<g id="Layer-1" data-name="P">
<clipPath id="cp35528">
<path transform="matrix(1,0,0,-1,0,841.92)" d="M .000008871 0 L 595.32 0 L 595.32 841.92 L .000008871 841.92 Z " fill-rule="evenodd"/>
</clipPath>
<g clip-path="url(#cp35528)">
<text xml:space="preserve" transform="matrix(1 0 -0 1 0 841.92)" font-size="14.04" font-family="Times New Roman"><tspan y="-530.95" x="471.58 477.81376 481.75898 488.82109 495.05485 506.44129 511.94496 518.0664 525.12857 528.9755 535.9394 543.0015 549.123 556.08688 559.93386">zida saqlovchi </tspan></text>
</g>
</g>
<g id="Layer-1" data-name="P">
<clipPath id="cp35529">
<path transform="matrix(1,0,0,-1,0,841.92)" d="M .000008871 0 L 595.32 0 L 595.32 841.92 L .000008871 841.92 Z " fill-rule="evenodd"/>
</clipPath>
<g clip-path="url(#cp35529)">
<text xml:space="preserve" transform="matrix(1 0 -0 1 0 841.92)" font-size="14.04" font-family="Times New Roman"><tspan y="-506.83" x="85.104 89.89164 100.57608 106.80984 112.32756 118.56132 122.50656 128.628 135.69013 139.20012 147.44159 157.52231 167.60303 177.68375 185.95331 193.01543 199.24919 207.40644 219.888 229.96872 240.04944 248.319 255.38112 262.44325 273.1277 279.36146 286.4376 293.4997 299.62113 303.56636 309.8001 314.3631 318.30833 322.8713 331.14088 337.37464 342.89234">(masalan, ADD va MOV komandalari) ass</tspan></text>
</g>
</g>
<g id="Layer-1" data-name="P">
<clipPath id="cp35530">
<path transform="matrix(1,0,0,-1,0,841.92)" d="M .000008871 0 L 595.32 0 L 595.32 841.92 L .000008871 841.92 Z " fill-rule="evenodd"/>
</clipPath>
<g clip-path="url(#cp35530)">
<text xml:space="preserve" transform="matrix(1 0 -0 1 0 841.92)" font-size="14.04" font-family="Times New Roman"><tspan y="-506.83" x="348.55">&#x0435;</tspan></text>
</g>
</g>
<g id="Layer-1" data-name="P">
<clipPath id="cp35531">
<path transform="matrix(1,0,0,-1,0,841.92)" d="M .000008871 0 L 595.32 0 L 595.32 841.92 L .000008871 841.92 Z " fill-rule="evenodd"/>
</clipPath>
<g clip-path="url(#cp35531)">
<text xml:space="preserve" transform="matrix(1 0 -0 1 0 841.92)" font-size="14.04" font-family="Times New Roman"><tspan y="-506.83" x="354.79 365.47447 372.53657">mbl</tspan></text>
</g>
</g>
<g id="Layer-1" data-name="P">
<clipPath id="cp35532">
<path transform="matrix(1,0,0,-1,0,841.92)" d="M .000008871 0 L 595.32 0 L 595.32 841.92 L .000008871 841.92 Z " fill-rule="evenodd"/>
</clipPath>
<g clip-path="url(#cp35532)">
<text xml:space="preserve" transform="matrix(1 0 -0 1 0 841.92)" font-size="14.04" font-family="Times New Roman"><tspan y="-506.83" x="376.51">&#x0435;</tspan></text>
</g>
</g>
<g id="Layer-1" data-name="P">
<clipPath id="cp35533">
<path transform="matrix(1,0,0,-1,0,841.92)" d="M .000008871 0 L 595.32 0 L 595.32 841.92 L .000008871 841.92 Z " fill-rule="evenodd"/>
</clipPath>
<g clip-path="url(#cp35533)">
<text xml:space="preserve" transform="matrix(1 0 -0 1 0 841.92)" font-size="14.04" font-family="Times New Roman"><tspan y="-506.83" x="382.75 387.42533 395.6949 399.54185 403.48707 407.334 411.27925 419.5488 426.38627 432.62004 437.29536 443.5291 447.48838 451.33534 455.28056 462.2444 466.1896 469.69963 477.9411 485.62098 492.68309 499.74519 507.8884 514.9505 521.07199 528.1341 531.9811 535.92636 542.1601 546.7231 553.68698 559.8084">r tili yaratildi. Shu vaqtlarda </tspan></text>
</g>
</g>
<g id="Layer-1" data-name="P">
<clipPath id="cp35534">
<path transform="matrix(1,0,0,-1,0,841.92)" d="M .000008871 0 L 595.32 0 L 595.32 841.92 L .000008871 841.92 Z " fill-rule="evenodd"/>
</clipPath>
<g clip-path="url(#cp35534)">
<text xml:space="preserve" transform="matrix(1 0 -0 1 0 841.92)" font-size="14.04" font-family="Times New Roman"><tspan y="-482.71" x="85.104 94.46867 104.54939 112.35564 117.03096 126.39564 131.16924 138.23136 144.46512 149.25275 158.61743 168.69815 178.06284 188.14356 196.66584 201.45346 206.95714">BASIC va COBOL si</tspan></text>
</g>
</g>
<g id="Layer-1" data-name="P">
<clipPath id="cp35535">
<path transform="matrix(1,0,0,-1,0,841.92)" d="M .000008871 0 L 595.32 0 L 595.32 841.92 L .000008871 841.92 Z " fill-rule="evenodd"/>
</clipPath>
<g clip-path="url(#cp35535)">
<text xml:space="preserve" transform="matrix(1 0 -0 1 0 841.92)" font-size="14.04" font-family="Times New Roman"><tspan y="-482.71" x="211.01 217.97383 225.03595 231.26972 235.83272 239.77796 244.56558 251.40306 258.46519 265.52729 272.5894 277.15238 281.0976 285.88526 291.38893 297.62269 301.46965 308.43348 312.3787 316.3239 321.11158 324.95854 328.80549 332.7507 336.69593 342.81736 347.49269 352.28034 359.34245 365.5762 376.387 381.17466 388.23677 394.47053 401.32203 408.38414 415.44624 420.2339 427.296">ngari yuqori sathli tillar ham paydo bo</tspan></text>
</g>
</g>
<g id="Layer-1" data-name="P">
<clipPath id="cp35536">
<path transform="matrix(1,0,0,-1,0,841.92)" d="M .000008871 0 L 595.32 0 L 595.32 841.92 L .000008871 841.92 Z " fill-rule="evenodd"/>
</clipPath>
<g clip-path="url(#cp35536)">
<text xml:space="preserve" transform="matrix(1 0 -0 1 0 841.92)" font-size="14.04" font-family="Times New Roman"><tspan y="-482.71" x="434.71">&#x2019;</tspan></text>
</g>
</g>
<g id="Layer-1" data-name="P">
<clipPath id="cp35537">
<path transform="matrix(1,0,0,-1,0,841.92)" d="M .000008871 0 L 595.32 0 L 595.32 841.92 L .000008871 841.92 Z " fill-rule="evenodd"/>
</clipPath>
<g clip-path="url(#cp35537)">
<text xml:space="preserve" transform="matrix(1 0 -0 1 0 841.92)" font-size="14.04" font-family="Times New Roman"><tspan y="-482.71" x="439.27 443.2152 450.17906 454.12428 461.0881 465.03334 468.54335 473.30293 480.36503 487.42713 492.21479 496.06175 499.9087 503.8539 507.79914 514.0329 518.7082 523.5099 527.3569 534.419 539.0943 545.32809 552.1796 556.0266 559.8736">ldiki, bu tillar tufayli </tspan></text>
</g>
</g>
<g id="Layer-1" data-name="P">
<clipPath id="cp35538">
<path transform="matrix(1,0,0,-1,0,841.92)" d="M .000008871 0 L 595.32 0 L 595.32 841.92 L .000008871 841.92 Z " fill-rule="evenodd"/>
</clipPath>
<g clip-path="url(#cp35538)">
<text xml:space="preserve" transform="matrix(1 0 -0 1 0 841.92)" font-size="14.04" font-family="Times New Roman"><tspan y="-458.47" x="85.104 90.623958">so</tspan></text>
</g>
</g>
<g id="Layer-1" data-name="P">
<clipPath id="cp35539">
<path transform="matrix(1,0,0,-1,0,841.92)" d="M .000008871 0 L 595.32 0 L 595.32 841.92 L .000008871 841.92 Z " fill-rule="evenodd"/>
</clipPath>
<g clip-path="url(#cp35539)">
<text xml:space="preserve" transform="matrix(1 0 -0 1 0 841.92)" font-size="14.04" font-family="Times New Roman"><tspan y="-458.47" x="97.704">&#x2019;</tspan></text>
</g>
</g>
<g id="Layer-1" data-name="P">
<clipPath id="cp35540">
<path transform="matrix(1,0,0,-1,0,841.92)" d="M .000008871 0 L 595.32 0 L 595.32 841.92 L .000008871 841.92 Z " fill-rule="evenodd"/>
</clipPath>
<g clip-path="url(#cp35540)">
<text xml:space="preserve" transform="matrix(1 0 -0 1 0 841.92)" font-size="14.04" font-family="Times New Roman"><tspan y="-458.47" x="102.26 108.49376 115.09256 122.15468 128.38845 134.86087 141.92299 148.15676 155.12059 159.06583 165.29959 169.8626 176.82643 180.77167 187.7355 194.79763 201.27005 212.06682 218.30059 225.37676 229.32199 233.16895 240.13278 244.07802 250.9155 257.50025 264.56236 271.62446 278.5883 284.09196 288.03718 292.60017 299.564 306.6261 310.47306 315.9767 319.82368 326.66114 332.8949 338.4126 342.35783 349.41993 355.54136 362.60346 369.18824 373.86357 380.9397 387.77717 394.83927 401.07304 405.01826 411.13969 418.10353 422.04875 429.11085 435.58329 442.6454 448.87916 454.28456 458.1315 465.1936 469.86894 473.71589 479.94966 485.35505 492.41716 499.00193 502.94715 513.63156 520.69369 527.7558 534.71969 538.6649 545.50247 551.7362 555.5832 559.4302">z va gaplarning mantiqiy konstruktsiyasidan foydalanib dasturlash imkoniyati </tspan></text>
</g>
</g>
<g id="Layer-1" data-name="P">
<clipPath id="cp35541">
<path transform="matrix(1,0,0,-1,0,841.92)" d="M .000008871 0 L 595.32 0 L 595.32 841.92 L .000008871 841.92 Z " fill-rule="evenodd"/>
</clipPath>
<g clip-path="url(#cp35541)">
<text xml:space="preserve" transform="matrix(1 0 -0 1 0 841.92)" font-size="14.04" font-family="Times New Roman"><tspan y="-434.35" x="85.104 91.941478 98.17523 102.850559 109.08431 113.043598 116.98884 120.8358 127.89792 131.84316 135.35315 146.10779 155.34612 162.40824 173.19095 180.15479 187.2169 197.90135 204.13512 211.21129 218.17513 224.40889 228.35413 234.58789 239.1509 246.11473 250.05997 260.84269 271.52714 277.7609 283.2786 290.3407 294.18766 301.24977 307.48353 318.2803 322.12727 325.9742 329.91944 333.7664 340.8285 347.06227 357.73268 361.6779 368.64173">yaratildi. Bu komandalarni mashina tiliga int</tspan></text>
</g>
</g>
<g id="Layer-1" data-name="P">
<clipPath id="cp35542">
<path transform="matrix(1,0,0,-1,0,841.92)" d="M .000008871 0 L 595.32 0 L 595.32 841.92 L .000008871 841.92 Z " fill-rule="evenodd"/>
</clipPath>
<g clip-path="url(#cp35542)">
<text xml:space="preserve" transform="matrix(1 0 -0 1 0 841.92)" font-size="14.04" font-family="Times New Roman"><tspan y="-434.35" x="372.91">&#x0435;</tspan></text>
</g>
</g>
<g id="Layer-1" data-name="P">
<clipPath id="cp35543">
<path transform="matrix(1,0,0,-1,0,841.92)" d="M .000008871 0 L 595.32 0 L 595.32 841.92 L .000008871 841.92 Z " fill-rule="evenodd"/>
</clipPath>
<g clip-path="url(#cp35543)">
<text xml:space="preserve" transform="matrix(1 0 -0 1 0 841.92)" font-size="14.04" font-family="Times New Roman"><tspan y="-434.35" x="379.15 383.71299 390.7751">rpr</tspan></text>
</g>
</g>
<g id="Layer-1" data-name="P">
<clipPath id="cp35544">
<path transform="matrix(1,0,0,-1,0,841.92)" d="M .000008871 0 L 595.32 0 L 595.32 841.92 L .000008871 841.92 Z " fill-rule="evenodd"/>
</clipPath>
<g clip-path="url(#cp35544)">
<text xml:space="preserve" transform="matrix(1 0 -0 1 0 841.92)" font-size="14.04" font-family="Times New Roman"><tspan y="-434.35" x="395.47">&#x0435;</tspan></text>
</g>
</g>
<g id="Layer-1" data-name="P">
<clipPath id="cp35545">
<path transform="matrix(1,0,0,-1,0,841.92)" d="M .000008871 0 L 595.32 0 L 595.32 841.92 L .000008871 841.92 Z " fill-rule="evenodd"/>
</clipPath>
<g clip-path="url(#cp35545)">
<text xml:space="preserve" transform="matrix(1 0 -0 1 0 841.92)" font-size="14.04" font-family="Times New Roman"><tspan y="-434.35" x="401.59 405.53523 411.65666 415.60188 422.66398 427.22697 431.17219 437.40596 441.96894 452.75166 459.81376 466.04753 476.8443 483.80815 490.87025 501.5547 508.6168 512.562 516.50729 523.3448 529.57858 533.5238 540.58596 545.1489 549.0942 555.21566 559.7786">tatorlar va kompilyatorlar </tspan></text>
</g>
</g>
<g id="Layer-1" data-name="P">
<clipPath id="cp35546">
<path transform="matrix(1,0,0,-1,0,841.92)" d="M .000008871 0 L 595.32 0 L 595.32 841.92 L .000008871 841.92 Z " fill-rule="evenodd"/>
</clipPath>
<g clip-path="url(#cp35546)">
<text xml:space="preserve" transform="matrix(1 0 -0 1 0 841.92)" font-size="14.04" font-family="Times New Roman"><tspan y="-410.23" x="85.104 92.184">ko</tspan></text>
</g>
</g>
<g id="Layer-1" data-name="P">
<clipPath id="cp35547">
<path transform="matrix(1,0,0,-1,0,841.92)" d="M .000008871 0 L 595.32 0 L 595.32 841.92 L .000008871 841.92 Z " fill-rule="evenodd"/>
</clipPath>
<g clip-path="url(#cp35547)">
<text xml:space="preserve" transform="matrix(1 0 -0 1 0 841.92)" font-size="14.04" font-family="Times New Roman"><tspan y="-410.23" x="99.264">&#x2019;</tspan></text>
</g>
</g>
<g id="Layer-1" data-name="P">
<clipPath id="cp35548">
<path transform="matrix(1,0,0,-1,0,841.92)" d="M .000008871 0 L 595.32 0 L 595.32 841.92 L .000008871 841.92 Z " fill-rule="evenodd"/>
</clipPath>
<g clip-path="url(#cp35548)">
<text xml:space="preserve" transform="matrix(1 0 -0 1 0 841.92)" font-size="14.04" font-family="Times New Roman"><tspan y="-410.23" x="103.82 110.05376 117.01759 120.96284 125.63816 131.87192 136.54724 146.75432 152.87577 159.8396 163.78484 167.29483 177.44574 186.81043 193.76023 200.82234 207.78618 214.01995 221.09612 231.27512 236.68051">chirar edi. Bundan so</tspan></text>
</g>
</g>
<g id="Layer-1" data-name="P">
<clipPath id="cp35549">
<path transform="matrix(1,0,0,-1,0,841.92)" d="M .000008871 0 L 595.32 0 L 595.32 841.92 L .000008871 841.92 Z " fill-rule="evenodd"/>
</clipPath>
<g clip-path="url(#cp35549)">
<text xml:space="preserve" transform="matrix(1 0 -0 1 0 841.92)" font-size="14.04" font-family="Times New Roman"><tspan y="-410.23" x="243.89">&#x2019;</tspan></text>
</g>
</g>
<g id="Layer-1" data-name="P">
<clipPath id="cp35550">
<path transform="matrix(1,0,0,-1,0,841.92)" d="M .000008871 0 L 595.32 0 L 595.32 841.92 L .000008871 841.92 Z " fill-rule="evenodd"/>
</clipPath>
<g clip-path="url(#cp35550)">
<text xml:space="preserve" transform="matrix(1 0 -0 1 0 841.92)" font-size="14.04" font-family="Times New Roman"><tspan y="-410.23" x="248.45 255.53 262.61">ng </tspan></text>
</g>
</g>
<g id="Layer-1" data-name="P">
<clipPath id="cp35551">
<path transform="matrix(1,0,0,-1,0,841.92)" d="M .000008871 0 L 595.32 0 L 595.32 841.92 L .000008871 841.92 Z " fill-rule="evenodd"/>
</clipPath>
<g clip-path="url(#cp35551)">
<text xml:space="preserve" transform="matrix(1 0 -0 1 0 841.92)" font-size="14.04" font-family="Times New Roman"><tspan y="-410.23" x="272.69 279.7521 286.8142 297.49867 304.56077 308.50599 312.4512 319.28868 325.52244 329.3694 336.4315 341.1068 351.29988 358.2637">kompilyator ob</tspan></text>
</g>
</g>
<g id="Layer-1" data-name="P">
<clipPath id="cp35552">
<path transform="matrix(1,0,0,-1,0,841.92)" d="M .000008871 0 L 595.32 0 L 595.32 841.92 L .000008871 841.92 Z " fill-rule="evenodd"/>
</clipPath>
<g clip-path="url(#cp35552)">
<text xml:space="preserve" transform="matrix(1 0 -0 1 0 841.92)" font-size="14.04" font-family="Times New Roman"><tspan y="-410.23" x="365.47">&#x2019;</tspan></text>
</g>
</g>
<g id="Layer-1" data-name="P">
<clipPath id="cp35553">
<path transform="matrix(1,0,0,-1,0,841.92)" d="M .000008871 0 L 595.32 0 L 595.32 841.92 L .000008871 841.92 Z " fill-rule="evenodd"/>
</clipPath>
<g clip-path="url(#cp35553)">
<text xml:space="preserve" transform="matrix(1 0 -0 1 0 841.92)" font-size="14.04" font-family="Times New Roman"><tspan y="-410.23" x="370.03">&#x0435;</tspan></text>
</g>
</g>
<g id="Layer-1" data-name="P">
<clipPath id="cp35554">
<path transform="matrix(1,0,0,-1,0,841.92)" d="M .000008871 0 L 595.32 0 L 595.32 841.92 L .000008871 841.92 Z " fill-rule="evenodd"/>
</clipPath>
<g clip-path="url(#cp35554)">
<text xml:space="preserve" transform="matrix(1 0 -0 1 0 841.92)" font-size="14.04" font-family="Times New Roman"><tspan y="-410.23" x="376.27 383.3321 387.17906 391.026 394.97123 405.15025 409.82557 416.05934 422.91084 426.85606 433.91816 437.86338 447.93006 454.99217 461.22593 465.07289 471.30665 475.98197 479.82893 483.67588 490.73799 497.7018 503.93559 510.8994 514.84469 525.0237 529.699 535.93276 542.7843 546.72958 553.6934 559.8149">ktli faylni bajariluvchi faylga </tspan></text>
</g>
</g>
<g id="Layer-1" data-name="P">
<clipPath id="cp35555">
<path transform="matrix(1,0,0,-1,0,841.92)" d="M .000008871 0 L 595.32 0 L 595.32 841.92 L .000008871 841.92 Z " fill-rule="evenodd"/>
</clipPath>
<g clip-path="url(#cp35555)">
<text xml:space="preserve" transform="matrix(1 0 -0 1 0 841.92)" font-size="14.04" font-family="Times New Roman"><tspan y="-386.09" x="85.104 91.33775 98.18927 102.134517 108.36827 115.44443 119.29139 123.23663 127.91196 134.0334 141.09552 144.94248 152.0046 158.12604 165.18816 176.20955 183.17339 190.2355 201.03227 208.09439 214.21584 221.27796 228.24179 235.20563 242.26775 248.50151 259.53697 266.59907 272.7205 278.1259 282.0711 289.1332 293.6962 297.54316 304.60527 308.55049 319.45957 325.69334 332.76948 338.8909 345.953 349.89823 354.4612 360.69499 367.6588 371.60404">aylantiradigan kompanovka dasturini chaqiradi.</tspan></text>
</g>
</g>
<g id="Layer-1" data-name="P">
<clipPath id="cp35556">
<path transform="matrix(1,0,0,-1,0,841.92)" d="M .000008871 0 L 595.32 0 L 595.32 841.92 L .000008871 841.92 Z " fill-rule="evenodd"/>
</clipPath>
<g clip-path="url(#cp35556)">
<text xml:space="preserve" transform="matrix(1 0 -0 1 0 841.92)" font-size="14.04" font-family="Times New Roman"><tspan y="-386.09" x="375.43"> </tspan></text>
</g>
</g>
<g id="Layer-1" data-name="P">
<clipPath id="cp35557">
<path transform="matrix(1,0,0,-1,0,841.92)" d="M .000008871 0 L 595.32 0 L 595.32 841.92 L .000008871 841.92 Z " fill-rule="evenodd"/>
</clipPath>
<g clip-path="url(#cp35557)">
<text xml:space="preserve" transform="matrix(1 0 -0 1 0 841.92)" font-size="14.04" font-family="Times New Roman"><tspan y="-386.09" x="386.47 391.14533 398.10917">Int</tspan></text>
</g>
</g>
<g id="Layer-1" data-name="P">
<clipPath id="cp35558">
<path transform="matrix(1,0,0,-1,0,841.92)" d="M .000008871 0 L 595.32 0 L 595.32 841.92 L .000008871 841.92 Z " fill-rule="evenodd"/>
</clipPath>
<g clip-path="url(#cp35558)">
<text xml:space="preserve" transform="matrix(1 0 -0 1 0 841.92)" font-size="14.04" font-family="Times New Roman"><tspan y="-386.09" x="402.07">&#x0435;</tspan></text>
</g>
</g>
<g id="Layer-1" data-name="P">
<clipPath id="cp35559">
<path transform="matrix(1,0,0,-1,0,841.92)" d="M .000008871 0 L 595.32 0 L 595.32 841.92 L .000008871 841.92 Z " fill-rule="evenodd"/>
</clipPath>
<g clip-path="url(#cp35559)">
<text xml:space="preserve" transform="matrix(1 0 -0 1 0 841.92)" font-size="14.04" font-family="Times New Roman"><tspan y="-386.09" x="408.31 412.873 419.9351">rpr</tspan></text>
</g>
</g>
<g id="Layer-1" data-name="P">
<clipPath id="cp35560">
<path transform="matrix(1,0,0,-1,0,841.92)" d="M .000008871 0 L 595.32 0 L 595.32 841.92 L .000008871 841.92 Z " fill-rule="evenodd"/>
</clipPath>
<g clip-path="url(#cp35560)">
<text xml:space="preserve" transform="matrix(1 0 -0 1 0 841.92)" font-size="14.04" font-family="Times New Roman"><tspan y="-386.09" x="424.63">&#x0435;</tspan></text>
</g>
</g>
<g id="Layer-1" data-name="P">
<clipPath id="cp35561">
<path transform="matrix(1,0,0,-1,0,841.92)" d="M .000008871 0 L 595.32 0 L 595.32 841.92 L .000008871 841.92 Z " fill-rule="evenodd"/>
</clipPath>
<g clip-path="url(#cp35561)">
<text xml:space="preserve" transform="matrix(1 0 -0 1 0 841.92)" font-size="14.04" font-family="Times New Roman"><tspan y="-386.09" x="430.75 434.69523 440.81666 444.76188 451.82398 456.38697 460.33219 466.56596 471.24128 482.1644 489.2265 493.07347 497.01869 503.1401 510.2022 521.22366 525.0706 530.476 537.53817 541.4834 547.60488 552.8839 559.8478">tatorlar bilan ishlash </tspan></text>
</g>
</g>
<g id="Layer-1" data-name="P">
<clipPath id="cp35562">
<path transform="matrix(1,0,0,-1,0,841.92)" d="M .000008871 0 L 595.32 0 L 595.32 841.92 L .000008871 841.92 Z " fill-rule="evenodd"/>
</clipPath>
<g clip-path="url(#cp35562)">
<text xml:space="preserve" transform="matrix(1 0 -0 1 0 841.92)" font-size="14.04" font-family="Times New Roman"><tspan y="-361.97" x="85.104 92.166118 97.57152 104.535358 111.59747 116.2728 123.23663 130.29875 133.80875 139.52303 145.64447 152.70659 159.67043 166.63426 173.69638 177.64162 183.27165 190.33377 196.45522 201.9589 205.80585 212.86797 217.54329 223.29969 230.26352 237.32564 248.01009 254.24385 261.32 268.3821 274.50355 278.44877 284.68254 289.2455 293.19075 298.9331 305.9952 312.11665 319.08049 326.0443 332.27809 339.12959 344.87196">osonroq, chunki dastur komandalari qanday k</tspan></text>
</g>
</g>
<g id="Layer-1" data-name="P">
<clipPath id="cp35563">
<path transform="matrix(1,0,0,-1,0,841.92)" d="M .000008871 0 L 595.32 0 L 595.32 841.92 L .000008871 841.92 Z " fill-rule="evenodd"/>
</clipPath>
<g clip-path="url(#cp35563)">
<text xml:space="preserve" transform="matrix(1 0 -0 1 0 841.92)" font-size="14.04" font-family="Times New Roman"><tspan y="-361.97" x="352.27">&#x0435;</tspan></text>
</g>
</g>
<g id="Layer-1" data-name="P">
<clipPath id="cp35564">
<path transform="matrix(1,0,0,-1,0,841.92)" d="M .000008871 0 L 595.32 0 L 595.32 841.92 L .000008871 841.92 Z " fill-rule="evenodd"/>
</clipPath>
<g clip-path="url(#cp35564)">
<text xml:space="preserve" transform="matrix(1 0 -0 1 0 841.92)" font-size="14.04" font-family="Times New Roman"><tspan y="-361.97" x="358.51 362.5816 373.26606 379.49983">tma </tspan></text>
</g>
</g>
<g id="Layer-1" data-name="P">
<clipPath id="cp35565">
<path transform="matrix(1,0,0,-1,0,841.92)" d="M .000008871 0 L 595.32 0 L 595.32 841.92 L .000008871 841.92 Z " fill-rule="evenodd"/>
</clipPath>
<g clip-path="url(#cp35565)">
<text xml:space="preserve" transform="matrix(1 0 -0 1 0 841.92)" font-size="14.04" font-family="Times New Roman"><tspan y="-361.97" x="385.27">-</tspan></text>
</g>
</g>
<g id="Layer-1" data-name="P">
<clipPath id="cp35566">
<path transform="matrix(1,0,0,-1,0,841.92)" d="M .000008871 0 L 595.32 0 L 595.32 841.92 L .000008871 841.92 Z " fill-rule="evenodd"/>
</clipPath>
<g clip-path="url(#cp35566)">
<text xml:space="preserve" transform="matrix(1 0 -0 1 0 841.92)" font-size="14.04" font-family="Times New Roman"><tspan y="-361.97" x="389.95"> </tspan></text>
</g>
</g>
<g id="Layer-1" data-name="P">
<clipPath id="cp35567">
<path transform="matrix(1,0,0,-1,0,841.92)" d="M .000008871 0 L 595.32 0 L 595.32 841.92 L .000008871 841.92 Z " fill-rule="evenodd"/>
</clipPath>
<g clip-path="url(#cp35567)">
<text xml:space="preserve" transform="matrix(1 0 -0 1 0 841.92)" font-size="14.04" font-family="Times New Roman"><tspan y="-361.97" x="395.71">k</tspan></text>
</g>
</g>
<g id="Layer-1" data-name="P">
<clipPath id="cp35568">
<path transform="matrix(1,0,0,-1,0,841.92)" d="M .000008871 0 L 595.32 0 L 595.32 841.92 L .000008871 841.92 Z " fill-rule="evenodd"/>
</clipPath>
<g clip-path="url(#cp35568)">
<text xml:space="preserve" transform="matrix(1 0 -0 1 0 841.92)" font-size="14.04" font-family="Times New Roman"><tspan y="-361.97" x="402.79">&#x0435;</tspan></text>
</g>
</g>
<g id="Layer-1" data-name="P">
<clipPath id="cp35569">
<path transform="matrix(1,0,0,-1,0,841.92)" d="M .000008871 0 L 595.32 0 L 595.32 841.92 L .000008871 841.92 Z " fill-rule="evenodd"/>
</clipPath>
<g clip-path="url(#cp35569)">
<text xml:space="preserve" transform="matrix(1 0 -0 1 0 841.92)" font-size="14.04" font-family="Times New Roman"><tspan y="-361.97" x="409.03 412.87696 416.82218 420.66914 427.63298 434.69508 440.92884 446.55888 453.39634 460.45845 466.6922 470.63743 474.58265 481.54649 487.78025 494.85639 500.48643 507.54853">tlikda yozilgan bo</tspan></text>
</g>
</g>
<g id="Layer-1" data-name="P">
<clipPath id="cp35570">
<path transform="matrix(1,0,0,-1,0,841.92)" d="M .000008871 0 L 595.32 0 L 595.32 841.92 L .000008871 841.92 Z " fill-rule="evenodd"/>
</clipPath>
<g clip-path="url(#cp35570)">
<text xml:space="preserve" transform="matrix(1 0 -0 1 0 841.92)" font-size="14.04" font-family="Times New Roman"><tspan y="-361.97" x="514.78">&#x2019;</tspan></text>
</g>
</g>
<g id="Layer-1" data-name="P">
<clipPath id="cp35571">
<path transform="matrix(1,0,0,-1,0,841.92)" d="M .000008871 0 L 595.32 0 L 595.32 841.92 L .000008871 841.92 Z " fill-rule="evenodd"/>
</clipPath>
<g clip-path="url(#cp35571)">
<text xml:space="preserve" transform="matrix(1 0 -0 1 0 841.92)" font-size="14.04" font-family="Times New Roman"><tspan y="-361.97" x="519.34 523.187 528.6907 534.92446 540.68087 546.08627 553.0501 560.014">lsa shu </tspan></text>
</g>
</g>
<g id="Layer-1" data-name="P">
<clipPath id="cp35572">
<path transform="matrix(1,0,0,-1,0,841.92)" d="M .000008871 0 L 595.32 0 L 595.32 841.92 L .000008871 841.92 Z " fill-rule="evenodd"/>
</clipPath>
<g clip-path="url(#cp35572)">
<text xml:space="preserve" transform="matrix(1 0 -0 1 0 841.92)" font-size="14.04" font-family="Times New Roman"><tspan y="-337.73" x="85.104 89.04924 95.283 99.95832 106.093799 113.155918 119.38967 129.8214 136.78524 143.019 146.86595 153.09972 157.77504 161.622 165.56723 171.68868 178.7508 182.69603 186.20603 196.59561 205.83394 212.89606 223.32778 229.56154 235.07927 241.31304 251.6184 258.6805 264.80195 270.3056 274.15257 281.21467 285.88999 296.32173 303.28556 309.51933 313.36628 319.60005 324.27537 328.1223 332.06755 335.9145 341.41816 348.382 352.22895 359.29106 363.23628 373.54164 380.60374 386.8375 392.95893">tarzda bajariladi. Bu esa dastur bajarilishini nazo</tspan></text>
</g>
</g>
<g id="Layer-1" data-name="P">
<clipPath id="cp35573">
<path transform="matrix(1,0,0,-1,0,841.92)" d="M .000008871 0 L 595.32 0 L 595.32 841.92 L .000008871 841.92 Z " fill-rule="evenodd"/>
</clipPath>
<g clip-path="url(#cp35573)">
<text xml:space="preserve" transform="matrix(1 0 -0 1 0 841.92)" font-size="14.04" font-family="Times New Roman"><tspan y="-337.73" x="400.39 405.06535 411.18678 415.132 425.56373 432.52757 436.47279 440.31974 444.26496 449.67036 456.73246 463.6963 467.6415 478.07325 485.03709 490.44248 497.50459 504.4684 508.41365 514.5351 520.03878 527.0026 530.9479 534.79489 539.47018 545.7039 552.6818 556.5288 559.8844">rat qilishni osonlashtiradi. </tspan></text>
</g>
</g>
<g id="Layer-1" data-name="P">
<clipPath id="cp35574">
<path transform="matrix(1,0,0,-1,0,841.92)" d="M .000008871 0 L 595.32 0 L 595.32 841.92 L .000008871 841.92 Z " fill-rule="evenodd"/>
</clipPath>
<g clip-path="url(#cp35574)">
<text xml:space="preserve" transform="matrix(1 0 -0 1 0 841.92)" font-size="14.04" font-family="Times New Roman"><tspan y="-313.61" x="85.104 95.184719 102.24683 112.931278 119.99339 123.93864 127.88388 134.72136 140.95513 144.90036 151.96248 156.6378 164.19132 170.31276 175.81644 182.0502 189.47736 196.4412 203.40503 214.08948 221.1516 225.09683 229.04207 235.87955 242.11331 246.05855 251.56223 255.50746 262.34495 268.5787 276.13224 283.19435 289.4281 296.8553 303.9174 310.9795 321.66395 328.72605 334.84748 341.90959 348.8734 355.83726 362.89936 369.13313 376.5603 383.6224 389.74385 396.80595 400.75117 408.17835 415.14219">Kompilyator esa kompilyatsiya va kompanovka kabi qo</tspan></text>
</g>
</g>
<g id="Layer-1" data-name="P">
<clipPath id="cp35575">
<path transform="matrix(1,0,0,-1,0,841.92)" d="M .000008871 0 L 595.32 0 L 595.32 841.92 L .000008871 841.92 Z " fill-rule="evenodd"/>
</clipPath>
<g clip-path="url(#cp35575)">
<text xml:space="preserve" transform="matrix(1 0 -0 1 0 841.92)" font-size="14.04" font-family="Times New Roman"><tspan y="-313.61" x="422.71">&#x2019;</tspan></text>
</g>
</g>
<g id="Layer-1" data-name="P">
<clipPath id="cp35576">
<path transform="matrix(1,0,0,-1,0,841.92)" d="M .000008871 0 L 595.32 0 L 595.32 841.92 L .000008871 841.92 Z " fill-rule="evenodd"/>
</clipPath>
<g clip-path="url(#cp35576)">
<text xml:space="preserve" transform="matrix(1 0 -0 1 0 841.92)" font-size="14.04" font-family="Times New Roman"><tspan y="-313.61" x="427.27 432.77366 439.7375 443.58445 454.3812 460.61497 467.6911 473.92488 481.4784 488.44224 495.40608 500.90974 507.87358 511.8188 517.94027 525.0024 528.94766 535.0691 539.7444 546.82058 552.942 559.9059">shimcha bosqichlardan </tspan></text>
</g>
</g>
<g id="Layer-1" data-name="P">
<clipPath id="cp35577">
<path transform="matrix(1,0,0,-1,0,841.92)" d="M .000008871 0 L 595.32 0 L 595.32 841.92 L .000008871 841.92 Z " fill-rule="evenodd"/>
</clipPath>
<g clip-path="url(#cp35577)">
<text xml:space="preserve" transform="matrix(1 0 -0 1 0 841.92)" font-size="14.04" font-family="Times New Roman"><tspan y="-289.49" x="85.104 89.04924 96.01308 103.075199 107.75052 113.871959 117.8172 122.2398 129.20363">iborat bo</tspan></text>
</g>
</g>
<g id="Layer-1" data-name="P">
<clipPath id="cp35578">
<path transform="matrix(1,0,0,-1,0,841.92)" d="M .000008871 0 L 595.32 0 L 595.32 841.92 L .000008871 841.92 Z " fill-rule="evenodd"/>
</clipPath>
<g clip-path="url(#cp35578)">
<text xml:space="preserve" transform="matrix(1 0 -0 1 0 841.92)" font-size="14.04" font-family="Times New Roman"><tspan y="-289.49" x="136.34">&#x2019;</tspan></text>
</g>
</g>
<g id="Layer-1" data-name="P">
<clipPath id="cp35579">
<path transform="matrix(1,0,0,-1,0,841.92)" d="M .000008871 0 L 595.32 0 L 595.32 841.92 L .000008871 841.92 Z " fill-rule="evenodd"/>
</clipPath>
<g clip-path="url(#cp35579)">
<text xml:space="preserve" transform="matrix(1 0 -0 1 0 841.92)" font-size="14.04" font-family="Times New Roman"><tspan y="-289.49" x="140.9 144.84523 151.90735 158.0288 164.99263 168.93787 172.78482 179.84694 183.79218 188.10245 195.16457 201.28601 208.34813 215.31197 222.37409 226.79668 233.76052 237.70575 243.93952 248.50252 255.56464 261.68608 268.74818 273.17079 280.1346 287.19673 292.6021 296.54734 300.49256 304.80287 311.86497">lganligi uchun ulardan hosil bo</tspan></text>
</g>
</g>
<g id="Layer-1" data-name="P">
<clipPath id="cp35580">
<path transform="matrix(1,0,0,-1,0,841.92)" d="M .000008871 0 L 595.32 0 L 595.32 841.92 L .000008871 841.92 Z " fill-rule="evenodd"/>
</clipPath>
<g clip-path="url(#cp35580)">
<text xml:space="preserve" transform="matrix(1 0 -0 1 0 841.92)" font-size="14.04" font-family="Times New Roman"><tspan y="-289.49" x="319.27">&#x2019;</tspan></text>
</g>
</g>
<g id="Layer-1" data-name="P">
<clipPath id="cp35581">
<path transform="matrix(1,0,0,-1,0,841.92)" d="M .000008871 0 L 595.32 0 L 595.32 841.92 L .000008871 841.92 Z " fill-rule="evenodd"/>
</clipPath>
<g clip-path="url(#cp35581)">
<text xml:space="preserve" transform="matrix(1 0 -0 1 0 841.92)" font-size="14.04" font-family="Times New Roman"><tspan y="-289.49" x="323.83 327.7752 334.00898 340.9728 344.81977 351.88188 358.0033 365.0654 369.488 376.5501 382.78388 386.63084 392.8646 397.42759 401.3728 405.21977 412.28187 419.2457 425.47947 432.4433 436.38853 440.81114 445.3741 451.60789 458.45939 462.4046 469.4667 473.41194 477.83454 481.77976 487.90119 494.9633 498.81025 502.75547 506.70069 511.011 518.0731 521.9201 525.86538 529.71237 535.11776 542.1799 546.6025 553.56637 559.6878">ladigan bajariluvchi faylni tahlil qilish va </tspan></text>
</g>
</g>
<g id="Layer-1" data-name="P">
<clipPath id="cp35582">
<path transform="matrix(1,0,0,-1,0,841.92)" d="M .000008871 0 L 595.32 0 L 595.32 841.92 L .000008871 841.92 Z " fill-rule="evenodd"/>
</clipPath>
<g clip-path="url(#cp35582)">
<text xml:space="preserve" transform="matrix(1 0 -0 1 0 841.92)" font-size="14.04" font-family="Times New Roman"><tspan y="-265.37" x="85.104">o</tspan></text>
</g>
</g>
<g id="Layer-1" data-name="P">
<clipPath id="cp35583">
<path transform="matrix(1,0,0,-1,0,841.92)" d="M .000008871 0 L 595.32 0 L 595.32 841.92 L .000008871 841.92 Z " fill-rule="evenodd"/>
</clipPath>
<g clip-path="url(#cp35583)">
<text xml:space="preserve" transform="matrix(1 0 -0 1 0 841.92)" font-size="14.04" font-family="Times New Roman"><tspan y="-265.37" x="92.184">&#x2019;</tspan></text>
</g>
</g>
<g id="Layer-1" data-name="P">
<clipPath id="cp35584">
<path transform="matrix(1,0,0,-1,0,841.92)" d="M .000008871 0 L 595.32 0 L 595.32 841.92 L .000008871 841.92 Z " fill-rule="evenodd"/>
</clipPath>
<g clip-path="url(#cp35584)">
<text xml:space="preserve" transform="matrix(1 0 -0 1 0 841.92)" font-size="14.04" font-family="Times New Roman"><tspan y="-265.37" x="96.744 102.97776 110.05392 116.287677 120.85068 124.79592 128.74115 133.30416 137.15111 142.65479 149.7169 154.37818 158.32341 169.00786 176.06998 183.1321 190.09593 194.04117 200.87865 207.11241 211.05765 215.00289 219.79051 230.47496 236.70873 243.7849 247.63185 254.69397 261.75608 266.41737 272.65113 283.33558 289.56935 295.08705 298.59706 303.35664 311.16288 317.39665 324.36048 330.59425 334.53947 341.5033 345.35026 352.41236 358.64613 363.32145 370.38356 377.44566 388.1301 395.1922 399.13743 403.08265 409.9201 416.15388 420.0991 425.5045 429.4497 436.28718 442.52095 447.3086 454.3707 458.21766 462.0646 466.00984">zgartirish imkoniyati mavjud emas. Faqatgina kompilyatsiya qilin</tspan></text>
</g>
</g>
<g id="Layer-1" data-name="P">
<clipPath id="cp35585">
<path transform="matrix(1,0,0,-1,0,841.92)" d="M .000008871 0 L 595.32 0 L 595.32 841.92 L .000008871 841.92 Z " fill-rule="evenodd"/>
</clipPath>
<g clip-path="url(#cp35585)">
<text xml:space="preserve" transform="matrix(1 0 -0 1 0 841.92)" font-size="14.04" font-family="Times New Roman"><tspan y="-265.37" x="473.5 480.5621 486.68354 493.74565 498.5333 503.20863 509.44239 516.29397 520.2392 525.02688">gan fayl t</tspan></text>
</g>
</g>
<g id="Layer-1" data-name="P">
<clipPath id="cp35586">
<path transform="matrix(1,0,0,-1,0,841.92)" d="M .000008871 0 L 595.32 0 L 595.32 841.92 L .000008871 841.92 Z " fill-rule="evenodd"/>
</clipPath>
<g clip-path="url(#cp35586)">
<text xml:space="preserve" transform="matrix(1 0 -0 1 0 841.92)" font-size="14.04" font-family="Times New Roman"><tspan y="-265.37" x="529.06">&#x0435;</tspan></text>
</g>
</g>
<g id="Layer-1" data-name="P">
<clipPath id="cp35587">
<path transform="matrix(1,0,0,-1,0,841.92)" d="M .000008871 0 L 595.32 0 L 595.32 841.92 L .000008871 841.92 Z " fill-rule="evenodd"/>
</clipPath>
<g clip-path="url(#cp35587)">
<text xml:space="preserve" transform="matrix(1 0 -0 1 0 841.92)" font-size="14.04" font-family="Times New Roman"><tspan y="-265.37" x="535.18 541.41378 546.08908 553.06698">zroq</tspan></text>
</g>
</g>
<g id="Layer-1" data-name="P">
<clipPath id="cp35588">
<path transform="matrix(1,0,0,-1,0,841.92)" d="M .000008871 0 L 595.32 0 L 595.32 841.92 L .000008871 841.92 Z " fill-rule="evenodd"/>
</clipPath>
<g clip-path="url(#cp35588)">
<text xml:space="preserve" transform="matrix(1 0 -0 1 0 841.92)" font-size="14.04" font-family="Times New Roman"><tspan y="-265.37" x="560.02"> </tspan></text>
</g>
</g>
<g id="Layer-1" data-name="P">
<clipPath id="cp35589">
<path transform="matrix(1,0,0,-1,0,841.92)" d="M .000008871 0 L 595.32 0 L 595.32 841.92 L .000008871 841.92 Z " fill-rule="evenodd"/>
</clipPath>
<g clip-path="url(#cp35589)">
<text xml:space="preserve" transform="matrix(1 0 -0 1 0 841.92)" font-size="14.04" font-family="Times New Roman"><tspan y="-241.13" x="85.104 92.166118 98.39987 102.24683 108.48059 113.155918 117.00288 120.94812 127.06956 134.13167 138.0769 141.5869 149.33698 155.57074 162.53458 169.49842 176.56053 183.52437 187.4696 195.37412 202.33795 209.40007 216.3639 223.42603 229.54747 236.60959 240.55483 248.34702 255.31085 262.37297 273.0574 279.29118 286.3673 293.4294 299.66319 303.51014 309.7439 314.41923 322.21144 329.27354 336.33564 347.02009 354.08219 358.0274 361.97264 368.8101 375.04386 378.98908 384.39448 388.3397 395.17716 401.41093 409.3295 413.17646 419.41023 424.08555 430.3193 437.1708 444.35929 451.4214 455.26835 462.33045 468.5642 476.4828 487.16725 493.401 498.9187 505.9808 509.82777 516.8899 523.12368 530.9159 534.7629 538.7081 542.5551 546.50039 553.3379 559.45938">bajariladi, chunki bundagi komandalar kompilyatsiya jarayonida mashina tiliga </tspan></text>
</g>
</g>
<g id="Layer-1" data-name="P">
<clipPath id="cp35590">
<path transform="matrix(1,0,0,-1,0,841.92)" d="M .000008871 0 L 595.32 0 L 595.32 841.92 L .000008871 841.92 Z " fill-rule="evenodd"/>
</clipPath>
<g clip-path="url(#cp35590)">
<text xml:space="preserve" transform="matrix(1 0 -0 1 0 841.92)" font-size="14.04" font-family="Times New Roman"><tspan y="-216.98" x="85.104">o</tspan></text>
</g>
</g>
<g id="Layer-1" data-name="P">
<clipPath id="cp35591">
<path transform="matrix(1,0,0,-1,0,841.92)" d="M .000008871 0 L 595.32 0 L 595.32 841.92 L .000008871 841.92 Z " fill-rule="evenodd"/>
</clipPath>
<g clip-path="url(#cp35591)">
<text xml:space="preserve" transform="matrix(1 0 -0 1 0 841.92)" font-size="14.04" font-family="Times New Roman"><tspan y="-216.98" x="92.184">&#x2019;</tspan></text>
</g>
</g>
<g id="Layer-1" data-name="P">
<clipPath id="cp35592">
<path transform="matrix(1,0,0,-1,0,841.92)" d="M .000008871 0 L 595.32 0 L 595.32 841.92 L .000008871 841.92 Z " fill-rule="evenodd"/>
</clipPath>
<g clip-path="url(#cp35592)">
<text xml:space="preserve" transform="matrix(1 0 -0 1 0 841.92)" font-size="14.04" font-family="Times New Roman"><tspan y="-216.98" x="96.744 100.68925 107.751369 113.98512 120.10656 123.95352 127.898769 134.8626 141.09636 148.17253 154.15357 161.1174">tkazilgan bo</tspan></text>
</g>
</g>
<g id="Layer-1" data-name="P">
<clipPath id="cp35593">
<path transform="matrix(1,0,0,-1,0,841.92)" d="M .000008871 0 L 595.32 0 L 595.32 841.92 L .000008871 841.92 Z " fill-rule="evenodd"/>
</clipPath>
<g clip-path="url(#cp35593)">
<text xml:space="preserve" transform="matrix(1 0 -0 1 0 841.92)" font-size="14.04" font-family="Times New Roman"><tspan y="-216.98" x="168.26">&#x2019;</tspan></text>
</g>
</g>
<g id="Layer-1" data-name="P">
<clipPath id="cp35594">
<path transform="matrix(1,0,0,-1,0,841.92)" d="M .000008871 0 L 595.32 0 L 595.32 841.92 L .000008871 841.92 Z " fill-rule="evenodd"/>
</clipPath>
<g clip-path="url(#cp35594)">
<text xml:space="preserve" transform="matrix(1 0 -0 1 0 841.92)" font-size="14.04" font-family="Times New Roman"><tspan y="-216.98" x="172.82 176.76525 182.88669 189.9488 193.89405 197.40404 203.24468 212.60936 220.52793 228.44649 234.42752 241.48964 247.61109 254.6732 258.61845 264.48719 271.5493 278.6114 289.29585 296.35795 300.30317 304.24839 311.08586 317.3196 321.16658 326.67024 330.61546 337.4529 343.68669 349.68177 356.74388 360.59083 364.53605 371.49989 378.56199 384.6834 391.7455 395.69075 401.55949 408.62159 414.85536 420.26075 424.1077 431.1698 435.84513 439.69209 445.92585 451.44355 458.50566 464.3744 468.3196 472.16658 476.1118 479.95875 486.1925 490.86784 494.71479 501.67863 505.62385 511.6049 518.4424 524.67617 531.7523 537.9861 543.9812 551.04336 554.9886 559.4252">ladi. C++ kabi kompilyatsiya qiluvchi dasturlash tillarini yana bir </tspan></text>
</g>
</g>
<g id="Layer-1" data-name="P">
<clipPath id="cp35595">
<path transform="matrix(1,0,0,-1,0,841.92)" d="M .000008871 0 L 595.32 0 L 595.32 841.92 L .000008871 841.92 Z " fill-rule="evenodd"/>
</clipPath>
<g clip-path="url(#cp35595)">
<text xml:space="preserve" transform="matrix(1 0 -0 1 0 841.92)" font-size="14.04" font-family="Times New Roman"><tspan y="-192.86" x="85.104 91.33775 96.01308 102.24683 108.48059 112.38371 116.18855 120.1338 127.09763 131.04286 139.9021 146.86594 153.92806 159.33345 163.1804 167.12564 175.98488 182.94872">afzalligi hosil bo</tspan></text>
</g>
</g>
<g id="Layer-1" data-name="P">
<clipPath id="cp35596">
<path transform="matrix(1,0,0,-1,0,841.92)" d="M .000008871 0 L 595.32 0 L 595.32 841.92 L .000008871 841.92 Z " fill-rule="evenodd"/>
</clipPath>
<g clip-path="url(#cp35596)">
<text xml:space="preserve" transform="matrix(1 0 -0 1 0 841.92)" font-size="14.04" font-family="Times New Roman"><tspan y="-192.86" x="190.13">&#x2019;</tspan></text>
</g>
</g>
<g id="Layer-1" data-name="P">
<clipPath id="cp35597">
<path transform="matrix(1,0,0,-1,0,841.92)" d="M .000008871 0 L 595.32 0 L 595.32 841.92 L .000008871 841.92 Z " fill-rule="evenodd"/>
</clipPath>
<g clip-path="url(#cp35597)">
<text xml:space="preserve" transform="matrix(1 0 -0 1 0 841.92)" font-size="14.04" font-family="Times New Roman"><tspan y="-192.86" x="194.69 198.63524 205.59908 211.83284 218.90901 227.76825 234.83037 240.95182 246.35721 250.30245 257.36457 262.0399 270.7868 277.8489 284.911 295.59547 302.65757 309.49504 316.55714">lgan dastur kompyut</tspan></text>
</g>
</g>
<g id="Layer-1" data-name="P">
<clipPath id="cp35598">
<path transform="matrix(1,0,0,-1,0,841.92)" d="M .000008871 0 L 595.32 0 L 595.32 841.92 L .000008871 841.92 Z " fill-rule="evenodd"/>
</clipPath>
<g clip-path="url(#cp35598)">
<text xml:space="preserve" transform="matrix(1 0 -0 1 0 841.92)" font-size="14.04" font-family="Times New Roman"><tspan y="-192.86" x="320.71">&#x0435;</tspan></text>
</g>
</g>
<g id="Layer-1" data-name="P">
<clipPath id="cp35599">
<path transform="matrix(1,0,0,-1,0,841.92)" d="M .000008871 0 L 595.32 0 L 595.32 841.92 L .000008871 841.92 Z " fill-rule="evenodd"/>
</clipPath>
<g clip-path="url(#cp35599)">
<text xml:space="preserve" transform="matrix(1 0 -0 1 0 841.92)" font-size="14.04" font-family="Times New Roman"><tspan y="-192.86" x="326.95 331.62535 338.70149 344.93525 353.80854 360.77238 367.83448 378.51893 385.58103 389.52626 393.47148 400.30894 406.5427 410.4879 417.55003 422.113 427.5184 431.46363 437.6974 446.57069 453.63279 459.86656 470.551 479.41026 486.47236 492.70613 496.55308 502.78684 507.46217 511.42143 515.36666 521.4881">rda kompilyatorsiz ham bajarilav</tspan></text>
</g>
</g>
<g id="Layer-1" data-name="P">
<clipPath id="cp35600">
<path transform="matrix(1,0,0,-1,0,841.92)" d="M .000008871 0 L 595.32 0 L 595.32 841.92 L .000008871 841.92 Z " fill-rule="evenodd"/>
</clipPath>
<g clip-path="url(#cp35600)">
<text xml:space="preserve" transform="matrix(1 0 -0 1 0 841.92)" font-size="14.04" font-family="Times New Roman"><tspan y="-192.86" x="528.82">&#x0435;</tspan></text>
</g>
</g>
<g id="Layer-1" data-name="P">
<clipPath id="cp35601">
<path transform="matrix(1,0,0,-1,0,841.92)" d="M .000008871 0 L 595.32 0 L 595.32 841.92 L .000008871 841.92 Z " fill-rule="evenodd"/>
</clipPath>
<g clip-path="url(#cp35601)">
<text xml:space="preserve" transform="matrix(1 0 -0 1 0 841.92)" font-size="14.04" font-family="Times New Roman"><tspan y="-192.86" x="535.06 539.7353 545.85678 552.8206 556.6676 560.0232">radi. </tspan></text>
</g>
</g>
<g id="Layer-1" data-name="P">
<clipPath id="cp35602">
<path transform="matrix(1,0,0,-1,0,841.92)" d="M .000008871 0 L 595.32 0 L 595.32 841.92 L .000008871 841.92 Z " fill-rule="evenodd"/>
</clipPath>
<g clip-path="url(#cp35602)">
<text xml:space="preserve" transform="matrix(1 0 -0 1 0 841.92)" font-size="14.04" font-family="Times New Roman"><tspan y="-168.74" x="85.104">I</tspan></text>
</g>
</g>
<g id="Layer-1" data-name="P">
<clipPath id="cp35603">
<path transform="matrix(1,0,0,-1,0,841.92)" d="M .000008871 0 L 595.32 0 L 595.32 841.92 L .000008871 841.92 Z " fill-rule="evenodd"/>
</clipPath>
<g clip-path="url(#cp35603)">
<text xml:space="preserve" transform="matrix(1 0 -0 1 0 841.92)" font-size="14.04" font-family="Times New Roman"><tspan y="-168.74" x="89.784 96.864">nt</tspan></text>
</g>
</g>
<g id="Layer-1" data-name="P">
<clipPath id="cp35604">
<path transform="matrix(1,0,0,-1,0,841.92)" d="M .000008871 0 L 595.32 0 L 595.32 841.92 L .000008871 841.92 Z " fill-rule="evenodd"/>
</clipPath>
<g clip-path="url(#cp35604)">
<text xml:space="preserve" transform="matrix(1 0 -0 1 0 841.92)" font-size="14.04" font-family="Times New Roman"><tspan y="-168.74" x="100.7">&#x0435;</tspan></text>
</g>
</g>
<g id="Layer-1" data-name="P">
<clipPath id="cp35605">
<path transform="matrix(1,0,0,-1,0,841.92)" d="M .000008871 0 L 595.32 0 L 595.32 841.92 L .000008871 841.92 Z " fill-rule="evenodd"/>
</clipPath>
<g clip-path="url(#cp35605)">
<text xml:space="preserve" transform="matrix(1 0 -0 1 0 841.92)" font-size="14.04" font-family="Times New Roman"><tspan y="-168.74" x="106.94 111.615329 118.57916">rpr</tspan></text>
</g>
</g>
<g id="Layer-1" data-name="P">
<clipPath id="cp35606">
<path transform="matrix(1,0,0,-1,0,841.92)" d="M .000008871 0 L 595.32 0 L 595.32 841.92 L .000008871 841.92 Z " fill-rule="evenodd"/>
</clipPath>
<g clip-path="url(#cp35606)">
<text xml:space="preserve" transform="matrix(1 0 -0 1 0 841.92)" font-size="14.04" font-family="Times New Roman"><tspan y="-168.74" x="123.26">&#x0435;</tspan></text>
</g>
</g>
<g id="Layer-1" data-name="P">
<clipPath id="cp35607">
<path transform="matrix(1,0,0,-1,0,841.92)" d="M .000008871 0 L 595.32 0 L 595.32 841.92 L .000008871 841.92 Z " fill-rule="evenodd"/>
</clipPath>
<g clip-path="url(#cp35607)">
<text xml:space="preserve" transform="matrix(1 0 -0 1 0 841.92)" font-size="14.04" font-family="Times New Roman"><tspan y="-168.74" x="129.5 133.34696 139.58072 143.42768 148.93135 152.87659 159.71407 165.94783 173.50135 180.56346 184.41042 188.25737 195.31949 202.28333 208.51709 215.59326 219.5385 226.96566 230.91089 234.75785 238.6048 242.55004 248.7838 253.3468 260.4089 266.64268 274.1962 280.42997 285.83537 292.06913 299.62266 303.56788 309.80165 316.65315 323.61698 330.67909 335.3544 342.90794 349.97004 356.09147 361.49687 365.44209 372.50419 377.06718 384.031 387.97624 395.51573 399.36268 404.86634 411.83018 415.7754 421.89683 425.84205 429.689 435.0944 442.05824 449.59773 456.65983 462.8936 469.85743 476.82127 483.88337 491.42286 497.65663 501.50358 508.56568 514.68716 518.6324 522.4794 528.71316 536.26669 546.95108 554.0132 559.51687">tatsiya qiluvchi tillarda esa tayyor dasturni ishlatish uchun albatta mos </tspan></text>
</g>
</g>
<g id="Layer-1" data-name="P">
<clipPath id="cp35608">
<path transform="matrix(1,0,0,-1,0,841.92)" d="M .000008871 0 L 595.32 0 L 595.32 841.92 L .000008871 841.92 Z " fill-rule="evenodd"/>
</clipPath>
<g clip-path="url(#cp35608)">
<text xml:space="preserve" transform="matrix(1 0 -0 1 0 841.92)" font-size="14.04" font-family="Times New Roman"><tspan y="-144.5" x="85.104 89.04924 96.01308">int</tspan></text>
</g>
</g>
<g id="Layer-1" data-name="P">
<clipPath id="cp35609">
<path transform="matrix(1,0,0,-1,0,841.92)" d="M .000008871 0 L 595.32 0 L 595.32 841.92 L .000008871 841.92 Z " fill-rule="evenodd"/>
</clipPath>
<g clip-path="url(#cp35609)">
<text xml:space="preserve" transform="matrix(1 0 -0 1 0 841.92)" font-size="14.04" font-family="Times New Roman"><tspan y="-144.5" x="99.984">&#x0435;</tspan></text>
</g>
</g>
<g id="Layer-1" data-name="P">
<clipPath id="cp35610">
<path transform="matrix(1,0,0,-1,0,841.92)" d="M .000008871 0 L 595.32 0 L 595.32 841.92 L .000008871 841.92 Z " fill-rule="evenodd"/>
</clipPath>
<g clip-path="url(#cp35610)">
<text xml:space="preserve" transform="matrix(1 0 -0 1 0 841.92)" font-size="14.04" font-family="Times New Roman"><tspan y="-144.5" x="106.22 110.783008 117.84512">rpr</tspan></text>
</g>
</g>
<g id="Layer-1" data-name="P">
<clipPath id="cp35611">
<path transform="matrix(1,0,0,-1,0,841.92)" d="M .000008871 0 L 595.32 0 L 595.32 841.92 L .000008871 841.92 Z " fill-rule="evenodd"/>
</clipPath>
<g clip-path="url(#cp35611)">
<text xml:space="preserve" transform="matrix(1 0 -0 1 0 841.92)" font-size="14.04" font-family="Times New Roman"><tspan y="-144.5" x="122.54">&#x0435;</tspan></text>
</g>
</g>
<g id="Layer-1" data-name="P">
<clipPath id="cp35612">
<path transform="matrix(1,0,0,-1,0,841.92)" d="M .000008871 0 L 595.32 0 L 595.32 841.92 L .000008871 841.92 Z " fill-rule="evenodd"/>
</clipPath>
<g clip-path="url(#cp35612)">
<text xml:space="preserve" transform="matrix(1 0 -0 1 0 841.92)" font-size="14.04" font-family="Times New Roman"><tspan y="-144.5" x="128.66 132.60524 138.72669 142.67192 149.73404 154.29705 163.28264 170.24648 176.48024 181.88564 185.83087 192.79471 197.47003 201.31699 210.30258 214.24782 220.36927 224.3145 230.43595 237.49806 246.48366 253.4475 257.29447 261.2397 265.08665 272.14875 278.27018 285.33229 289.2775 292.7875 301.74504 311.69938">tator dasturi talab qilinadi. Ko</tspan></text>
</g>
</g>
<g id="Layer-1" data-name="P">
<clipPath id="cp35613">
<path transform="matrix(1,0,0,-1,0,841.92)" d="M .000008871 0 L 595.32 0 L 595.32 841.92 L .000008871 841.92 Z " fill-rule="evenodd"/>
</clipPath>
<g clip-path="url(#cp35613)">
<text xml:space="preserve" transform="matrix(1 0 -0 1 0 841.92)" font-size="14.04" font-family="Times New Roman"><tspan y="-144.5" x="319.03">&#x2019;</tspan></text>
</g>
</g>
<g id="Layer-1" data-name="P">
<clipPath id="cp35614">
<path transform="matrix(1,0,0,-1,0,841.92)" d="M .000008871 0 L 595.32 0 L 595.32 841.92 L .000008871 841.92 Z " fill-rule="evenodd"/>
</clipPath>
<g clip-path="url(#cp35614)">
<text xml:space="preserve" transform="matrix(1 0 -0 1 0 841.92)" font-size="14.04" font-family="Times New Roman"><tspan y="-144.5" x="323.59 330.6521 339.6377 346.47517 350.42039 354.3656 358.21257 364.44633 369.12165 377.99494 385.05705 391.17848 398.24058 405.30268 415.98713 419.93235 426.99446 433.2282 442.1015 449.1636 455.39738 460.80278 464.64973 471.71183 476.38716 480.2341 486.46788 491.1432 498.12107 501.96803 509.03013 515.99398 524.97958 531.2133 536.6187 543.5826 549.08627 553.0315 559.75668">p yillar davomida dasturlarning asosiy </tspan></text>
</g>
</g>
<g id="Layer-1" data-name="P">
<clipPath id="cp35615">
<path transform="matrix(1,0,0,-1,0,841.92)" d="M .000008871 0 L 595.32 0 L 595.32 841.92 L .000008871 841.92 Z " fill-rule="evenodd"/>
</clipPath>
<g clip-path="url(#cp35615)">
<text xml:space="preserve" transform="matrix(1 0 -0 1 0 841.92)" font-size="14.04" font-family="Times New Roman"><tspan y="-120.38" x="85.104 89.04924 99.73368 106.7958 113.85792 120.92004 124.86528 131.70276 137.93653 141.88176 145.827 151.33068 158.39279 165.35663 169.20359 176.2657 183.32782 188.95786 195.92169 199.76865 205.17404 212.23616 218.46993 222.31688 226.16384 233.22595 237.17119 242.80123 249.76506 255.99883 261.62886">imkoniyati uning qisqaligi va t</tspan></text>
</g>
</g>
<g id="Layer-1" data-name="P">
<clipPath id="cp35616">
<path transform="matrix(1,0,0,-1,0,841.92)" d="M .000008871 0 L 595.32 0 L 595.32 841.92 L .000008871 841.92 Z " fill-rule="evenodd"/>
</clipPath>
<g clip-path="url(#cp35616)">
<text xml:space="preserve" transform="matrix(1 0 -0 1 0 841.92)" font-size="14.04" font-family="Times New Roman"><tspan y="-120.38" x="265.85">&#x0435;</tspan></text>
</g>
</g>
<g id="Layer-1" data-name="P">
<clipPath id="cp35617">
<path transform="matrix(1,0,0,-1,0,841.92)" d="M .000008871 0 L 595.32 0 L 595.32 841.92 L .000008871 841.92 Z " fill-rule="evenodd"/>
</clipPath>
<g clip-path="url(#cp35617)">
<text xml:space="preserve" transform="matrix(1 0 -0 1 0 841.92)" font-size="14.04" font-family="Times New Roman"><tspan y="-120.38" x="272.09 278.32377 283.9538 290.91764 297.1514 300.99836 307.23213 311.90745 315.7544 319.69963 323.54658 329.05024 336.01408 339.9593 345.58934 352.55317 356.49839 360.4436 366.56504 373.62715 379.25718">z bajarilishi bilan b</tspan></text>
</g>
</g>
<g id="Layer-1" data-name="P">
<clipPath id="cp35618">
<path transform="matrix(1,0,0,-1,0,841.92)" d="M .000008871 0 L 595.32 0 L 595.32 841.92 L .000008871 841.92 Z " fill-rule="evenodd"/>
</clipPath>
<g clip-path="url(#cp35618)">
<text xml:space="preserve" transform="matrix(1 0 -0 1 0 841.92)" font-size="14.04" font-family="Times New Roman"><tspan y="-120.38" x="386.35">&#x0435;</tspan></text>
</g>
</g>
<g id="Layer-1" data-name="P">
<clipPath id="cp35619">
<path transform="matrix(1,0,0,-1,0,841.92)" d="M .000008871 0 L 595.32 0 L 595.32 841.92 L .000008871 841.92 Z " fill-rule="evenodd"/>
</clipPath>
<g clip-path="url(#cp35619)">
<text xml:space="preserve" transform="matrix(1 0 -0 1 0 841.92)" font-size="14.04" font-family="Times New Roman"><tspan y="-120.38" x="392.59 396.43696 403.49906 407.346 411.29124 417.41267 424.47477 428.32173 435.38383 440.8875">lgilanib k</tspan></text>
</g>
</g>
<g id="Layer-1" data-name="P">
<clipPath id="cp35620">
<path transform="matrix(1,0,0,-1,0,841.92)" d="M .000008871 0 L 595.32 0 L 595.32 841.92 L .000008871 841.92 Z " fill-rule="evenodd"/>
</clipPath>
<g clip-path="url(#cp35620)">
<text xml:space="preserve" transform="matrix(1 0 -0 1 0 841.92)" font-size="14.04" font-family="Times New Roman"><tspan y="-120.38" x="448.06">&#x0435;</tspan></text>
</g>
</g>
<g id="Layer-1" data-name="P">
<clipPath id="cp35621">
<path transform="matrix(1,0,0,-1,0,841.92)" d="M .000008871 0 L 595.32 0 L 595.32 841.92 L .000008871 841.92 Z " fill-rule="evenodd"/>
</clipPath>
<g clip-path="url(#cp35621)">
<text xml:space="preserve" transform="matrix(1 0 -0 1 0 841.92)" font-size="14.04" font-family="Times New Roman"><tspan y="-120.38" x="454.3 458.14695 461.9939 469.056 475.28977 479.9651 485.59513 491.8289 498.79273 502.73796 506.24797 511.8499 521.93069 528.1644 533.5698 537.5151 544.5772 549.1402 556.10409 559.95108">linar edi. Dasturni </tspan></text>
</g>
</g>
<g id="Layer-1" data-name="P">
<clipPath id="cp35622">
<path transform="matrix(1,0,0,-1,0,841.92)" d="M .000008871 0 L 595.32 0 L 595.32 841.92 L .000008871 841.92 Z " fill-rule="evenodd"/>
</clipPath>
<g clip-path="url(#cp35622)">
<text xml:space="preserve" transform="matrix(1 0 -0 1 0 841.92)" font-size="14.04" font-family="Times New Roman"><tspan y="-96.264" x="85.104 92.166118 96.11136 102.232799 109.19663 113.14188 120.10571 124.78104 131.74488 138.80699">kichikroq </tspan></text>
</g>
</g>
<g id="Layer-1" data-name="P">
<clipPath id="cp35623">
<path transform="matrix(1,0,0,-1,0,841.92)" d="M .000008871 0 L 595.32 0 L 595.32 841.92 L .000008871 841.92 Z " fill-rule="evenodd"/>
</clipPath>
<g clip-path="url(#cp35623)">
<text xml:space="preserve" transform="matrix(1 0 -0 1 0 841.92)" font-size="14.04" font-family="Times New Roman"><tspan y="-96.264" x="142.46 149.42385 153.36908 157.21604 161.16127 166.56667 173.5305 180.59262 186.82639 190.42063 194.26758 201.3297 205.17665 209.12189 212.96884 216.91408 222.31948 229.38159 232.96179 239.92563 246.98775 257.67219 264.73429 271.57176 278.63386">qilishga intilish kompyut</tspan></text>
</g>
</g>
<g id="Layer-1" data-name="P">
<clipPath id="cp35624">
<path transform="matrix(1,0,0,-1,0,841.92)" d="M .000008871 0 L 595.32 0 L 595.32 841.92 L .000008871 841.92 Z " fill-rule="evenodd"/>
</clipPath>
<g clip-path="url(#cp35624)">
<text xml:space="preserve" transform="matrix(1 0 -0 1 0 841.92)" font-size="14.04" font-family="Times New Roman"><tspan y="-96.264" x="282.77">&#x0435;</tspan></text>
</g>
</g>
<g id="Layer-1" data-name="P">
<clipPath id="cp35625">
<path transform="matrix(1,0,0,-1,0,841.92)" d="M .000008871 0 L 595.32 0 L 595.32 841.92 L .000008871 841.92 Z " fill-rule="evenodd"/>
</clipPath>
<g clip-path="url(#cp35625)">
<text xml:space="preserve" transform="matrix(1 0 -0 1 0 841.92)" font-size="14.04" font-family="Times New Roman"><tspan y="-96.264" x="289.01 293.68534 297.27958 304.34169 311.3055 315.25074 319.19596 323.75895 329.9927 335.5104 339.35737 346.3212 350.26643 353.84663 357.69358 364.75569 371.81779 378.05155 381.56156 388.58155 392.56889 403.36564 414.05009 420.28385 424.22908 428.1743 432.1195 439.08335 442.9303 446.5105 453.5726 457.51783 461.36479 467.59855 474.67469 478.1847 485.20469 492.22468">r xotirasini juda qimmatligi bilan bog</tspan></text>
</g>
</g>
<g id="Layer-1" data-name="P">
<clipPath id="cp35626">
<path transform="matrix(1,0,0,-1,0,841.92)" d="M .000008871 0 L 595.32 0 L 595.32 841.92 L .000008871 841.92 Z " fill-rule="evenodd"/>
</clipPath>
<g clip-path="url(#cp35626)">
<text xml:space="preserve" transform="matrix(1 0 -0 1 0 841.92)" font-size="14.04" font-family="Times New Roman"><tspan y="-96.264" x="499.54">&#x2019;</tspan></text>
</g>
</g>
<g id="Layer-1" data-name="P">
<clipPath id="cp35627">
<path transform="matrix(1,0,0,-1,0,841.92)" d="M .000008871 0 L 595.32 0 L 595.32 841.92 L .000008871 841.92 Z " fill-rule="evenodd"/>
</clipPath>
<g clip-path="url(#cp35627)">
<text xml:space="preserve" transform="matrix(1 0 -0 1 0 841.92)" font-size="14.04" font-family="Times New Roman"><tspan y="-96.264" x="504.1 508.04524 511.89219 518.9543 522.5345 529.49838">liq bo</tspan></text>
</g>
</g>
<g id="Layer-1" data-name="P">
<clipPath id="cp35628">
<path transform="matrix(1,0,0,-1,0,841.92)" d="M .000008871 0 L 595.32 0 L 595.32 841.92 L .000008871 841.92 Z " fill-rule="evenodd"/>
</clipPath>
<g clip-path="url(#cp35628)">
<text xml:space="preserve" transform="matrix(1 0 -0 1 0 841.92)" font-size="14.04" font-family="Times New Roman"><tspan y="-96.264" x="536.62">&#x2019;</tspan></text>
</g>
</g>
<g id="Layer-1" data-name="P">
<clipPath id="cp35629">
<path transform="matrix(1,0,0,-1,0,841.92)" d="M .000008871 0 L 595.32 0 L 595.32 841.92 L .000008871 841.92 Z " fill-rule="evenodd"/>
</clipPath>
<g clip-path="url(#cp35629)">
<text xml:space="preserve" transform="matrix(1 0 -0 1 0 841.92)" font-size="14.04" font-family="Times New Roman"><tspan y="-96.264" x="541.18 545.12527 550.53067 556.6521 560.0077">lsa, </tspan></text>
</g>
</g>
<g id="Layer-1" data-name="P">
<clipPath id="cp35630">
<path transform="matrix(1,0,0,-1,0,841.92)" d="M .000008871 0 L 595.32 0 L 595.32 841.92 L .000008871 841.92 Z " fill-rule="evenodd"/>
</clipPath>
<g clip-path="url(#cp35630)">
<text xml:space="preserve" transform="matrix(1 0 -0 1 0 841.92)" font-size="14.04" font-family="Times New Roman"><tspan y="-72.144" x="85.104 92.166118 99.12995 102.97691 110.03903 117.10115 122.001117">uning t</tspan></text>
</g>
</g>
<g id="Layer-1" data-name="P">
<clipPath id="cp35631">
<path transform="matrix(1,0,0,-1,0,841.92)" d="M .000008871 0 L 595.32 0 L 595.32 841.92 L .000008871 841.92 Z " fill-rule="evenodd"/>
</clipPath>
<g clip-path="url(#cp35631)">
<text xml:space="preserve" transform="matrix(1 0 -0 1 0 841.92)" font-size="14.04" font-family="Times New Roman"><tspan y="-72.144" x="126.02">&#x0435;</tspan></text>
</g>
</g>
<g id="Layer-1" data-name="P">
<clipPath id="cp35632">
<path transform="matrix(1,0,0,-1,0,841.92)" d="M .000008871 0 L 595.32 0 L 595.32 841.92 L .000008871 841.92 Z " fill-rule="evenodd"/>
</clipPath>
<g clip-path="url(#cp35632)">
<text xml:space="preserve" transform="matrix(1 0 -0 1 0 841.92)" font-size="14.04" font-family="Times New Roman"><tspan y="-72.144" x="132.26 138.49376 143.52008 150.48392 156.71768 160.56464 166.7984 171.47373 175.32068 179.26592 183.11287 188.61655 195.58039 199.42734 206.39118 212.62494 217.65126 224.71338 228.65862 234.78006 238.62702 245.68914 249.53609 255.03977 262.10188 267.00184 274.06394 278.62693 285.68904 289.53599">z bajarilishiga qiziqish prots</tspan></text>
</g>
</g>
<g id="Layer-1" data-name="P">
<clipPath id="cp35633">
<path transform="matrix(1,0,0,-1,0,841.92)" d="M .000008871 0 L 595.32 0 L 595.32 841.92 L .000008871 841.92 Z " fill-rule="evenodd"/>
</clipPath>
<g clip-path="url(#cp35633)">
<text xml:space="preserve" transform="matrix(1 0 -0 1 0 841.92)" font-size="14.04" font-family="Times New Roman"><tspan y="-72.144" x="295.25">&#x0435;</tspan></text>
</g>
</g>
<g id="Layer-1" data-name="P">
<clipPath id="cp35634">
<path transform="matrix(1,0,0,-1,0,841.92)" d="M .000008871 0 L 595.32 0 L 595.32 841.92 L .000008871 841.92 Z " fill-rule="evenodd"/>
</clipPath>
<g clip-path="url(#cp35634)">
<text xml:space="preserve" transform="matrix(1 0 -0 1 0 841.92)" font-size="14.04" font-family="Times New Roman"><tspan y="-72.144" x="301.37 306.87367 312.27906 319.34117 324.01649 328.93049 335.99259 342.114 349.17613 353.02308 356.9683 363.93214 367.77909 374.8412 381.9033 386.80326 393.86537 397.81059 408.60734 419.29179 425.52555 429.47077 436.53288 442.76664 449.73048 456.79258 460.63954 464.58476 471.54859 475.39555 482.45765 488.6914 493.71775 500.68159 507.64543">ssor vaqtining qimmatbaholigiga bog</tspan></text>
</g>
</g>
<g id="Layer-1" data-name="P">
<clipPath id="cp35635">
<path transform="matrix(1,0,0,-1,0,841.92)" d="M .000008871 0 L 595.32 0 L 595.32 841.92 L .000008871 841.92 Z " fill-rule="evenodd"/>
</clipPath>
<g clip-path="url(#cp35635)">
<text xml:space="preserve" transform="matrix(1 0 -0 1 0 841.92)" font-size="14.04" font-family="Times New Roman"><tspan y="-72.144" x="515.02">&#x2019;</tspan></text>
</g>
</g>
<g id="Layer-1" data-name="P">
<clipPath id="cp35636">
<path transform="matrix(1,0,0,-1,0,841.92)" d="M .000008871 0 L 595.32 0 L 595.32 841.92 L .000008871 841.92 Z " fill-rule="evenodd"/>
</clipPath>
<g clip-path="url(#cp35636)">
<text xml:space="preserve" transform="matrix(1 0 -0 1 0 841.92)" font-size="14.04" font-family="Times New Roman"><tspan y="-72.144" x="519.58 523.52529 527.37228 534.4344 539.4607 545.69448 552.6583 556.6036 559.95919">liq edi. </tspan></text>
</g>
</g>
</g>
</g>
</svg>
