<?xml version="1.0" encoding="UTF-8" standalone="no"?>
<!DOCTYPE svg PUBLIC "-//W3C//DTD SVG 1.1//EN" "http://www.w3.org/Graphics/SVG/1.1/DTD/svg11.dtd">
<svg xmlns="http://www.w3.org/2000/svg" xmlns:xlink="http://www.w3.org/1999/xlink" version="1.1" width="595.32pt" height="841.92pt" viewBox="0 0 595.32 841.92">
<g enable-background="new">
<g>
<g id="Layer-1" data-name="Artifact">
<clipPath id="cp35977">
<path transform="matrix(1,0,0,-1,0,841.92)" d="M .000008871 0 L 595.32 0 L 595.32 841.92 L .000008871 841.92 Z " fill-rule="evenodd"/>
</clipPath>
<g clip-path="url(#cp35977)">
<text xml:space="preserve" transform="matrix(1 0 -0 1 0 841.92)" font-size="11.04" font-family="Calibri"><tspan y="-51.864" x="314.09 319.72999 325.36997">226</tspan></text>
</g>
<clipPath id="cp35978">
<path transform="matrix(1,0,0,-1,0,841.92)" d="M .000008871 0 L 595.32 0 L 595.32 841.92 L .000008871 841.92 Z " fill-rule="evenodd"/>
</clipPath>
<g clip-path="url(#cp35978)">
<text xml:space="preserve" transform="matrix(1 0 -0 1 0 841.92)" font-size="11.04" font-family="Calibri"><tspan y="-51.864" x="331.03"> </tspan></text>
</g>
<clipPath id="cp35979">
<path transform="matrix(1,0,0,-1,0,841.92)" d="M .000008871 0 L 595.32 0 L 595.32 841.92 L .000008871 841.92 Z " fill-rule="evenodd"/>
</clipPath>
<g clip-path="url(#cp35979)">
</g>
<clipPath id="cp35980">
<path transform="matrix(1,0,0,-1,0,841.92)" d="M .000008871 0 L 595.32 0 L 595.32 841.92 L .000008871 841.92 Z " fill-rule="evenodd"/>
</clipPath>
<g clip-path="url(#cp35980)">
<text xml:space="preserve" transform="matrix(1 0 -0 1 0 841.92)" font-size="11.04" font-family="Calibri"><tspan y="-38.4" x="85.104"> </tspan></text>
</g>
<clipPath id="cp35981">
<path transform="matrix(1,0,0,-1,0,841.92)" d="M .000008871 0 L 595.32 0 L 595.32 841.92 L .000008871 841.92 Z " fill-rule="evenodd"/>
</clipPath>
<g clip-path="url(#cp35981)">
</g>
</g>
<g id="Layer-1" data-name="P">
<clipPath id="cp35982">
<path transform="matrix(1,0,0,-1,0,841.92)" d="M .000008871 0 L 595.32 0 L 595.32 841.92 L .000008871 841.92 Z " fill-rule="evenodd"/>
</clipPath>
<g clip-path="url(#cp35982)">
<text xml:space="preserve" transform="matrix(1 0 -0 1 0 841.92)" font-size="14.04" font-family="Times New Roman"><tspan y="-772.56" x="121.1 131.18071 137.41448 142.9322 146.77916 153.84128 158.5166 171.2228 178.28491 184.40636 191.3702 195.31543 202.27927 208.51303 221.21923 228.28134 232.1283 237.53369 244.59581 250.82958 256.951 264.0131 270.24687 282.95307 290.01518 296.1366 302.37037 308.60414 313.18119 317.1264 323.96388 336.79646 347.5932">Dastur haqida qisqacha nazariy ma</tspan></text>
</g>
<clipPath id="cp35983">
<path transform="matrix(1,0,0,-1,0,841.92)" d="M .000008871 0 L 595.32 0 L 595.32 841.92 L .000008871 841.92 Z " fill-rule="evenodd"/>
</clipPath>
<g clip-path="url(#cp35983)">
<text xml:space="preserve" transform="matrix(1 0 -0 1 0 841.92)" font-size="14.04" font-family="Times New Roman"><tspan y="-772.56" x="354.07">&#x2019;</tspan></text>
</g>
<clipPath id="cp35984">
<path transform="matrix(1,0,0,-1,0,841.92)" d="M .000008871 0 L 595.32 0 L 595.32 841.92 L .000008871 841.92 Z " fill-rule="evenodd"/>
</clipPath>
<g clip-path="url(#cp35984)">
<text xml:space="preserve" transform="matrix(1 0 -0 1 0 841.92)" font-size="14.04" font-family="Times New Roman"><tspan y="-772.56" x="358.75 362.69523 369.75733 380.44178 387.50389 391.4491 395.29606 401.52983 406.20515 409.71516 422.40733 432.48805">lumotlar. Ko</tspan></text>
</g>
<clipPath id="cp35985">
<path transform="matrix(1,0,0,-1,0,841.92)" d="M .000008871 0 L 595.32 0 L 595.32 841.92 L .000008871 841.92 Z " fill-rule="evenodd"/>
</clipPath>
<g clip-path="url(#cp35985)">
<text xml:space="preserve" transform="matrix(1 0 -0 1 0 841.92)" font-size="14.04" font-family="Times New Roman"><tspan y="-772.56" x="439.63">&#x2019;</tspan></text>
</g>
<clipPath id="cp35986">
<path transform="matrix(1,0,0,-1,0,841.92)" d="M .000008871 0 L 595.32 0 L 595.32 841.92 L .000008871 841.92 Z " fill-rule="evenodd"/>
</clipPath>
<g clip-path="url(#cp35986)">
<text xml:space="preserve" transform="matrix(1 0 -0 1 0 841.92)" font-size="14.04" font-family="Times New Roman"><tspan y="-772.56" x="444.22 448.89533 452.84056 459.90266 472.60887 476.4558 483.5179 488.19325 495.15708 501.39085 508.35469 512.20169 519.2638 526.22769 530.1729 536.2944 543.3565 549.47799 556.5401 559.8957">rib turganingizdek, </tspan></text>
</g>
<clipPath id="cp35987">
<path transform="matrix(1,0,0,-1,0,841.92)" d="M .000008871 0 L 595.32 0 L 595.32 841.92 L .000008871 841.92 Z " fill-rule="evenodd"/>
</clipPath>
<g clip-path="url(#cp35987)">
<text xml:space="preserve" transform="matrix(1 0 -0 1 0 841.92)" font-size="14.04" font-family="Times New Roman"><tspan y="-748.3" x="85.104 92.166118 96.01308 103.075199 107.02044 117.70488 121.65012 127.88388 134.96006 141.19382 145.86913 152.93125">oldimizga qo</tspan></text>
</g>
<clipPath id="cp35988">
<path transform="matrix(1,0,0,-1,0,841.92)" d="M .000008871 0 L 595.32 0 L 595.32 841.92 L .000008871 841.92 Z " fill-rule="evenodd"/>
</clipPath>
<g clip-path="url(#cp35988)">
<text xml:space="preserve" transform="matrix(1 0 -0 1 0 841.92)" font-size="14.04" font-family="Times New Roman"><tspan y="-748.3" x="160.1">&#x2019;</tspan></text>
</g>
<clipPath id="cp35989">
<path transform="matrix(1,0,0,-1,0,841.92)" d="M .000008871 0 L 595.32 0 L 595.32 841.92 L .000008871 841.92 Z " fill-rule="evenodd"/>
</clipPath>
<g clip-path="url(#cp35989)">
<text xml:space="preserve" transform="matrix(1 0 -0 1 0 841.92)" font-size="14.04" font-family="Times New Roman"><tspan y="-748.3" x="164.66 171.49748 175.44272 179.38796 186.45008 192.57152 199.63364 204.42127 215.21804 221.4518 226.96953 233.2033 237.14853 243.26998 250.33209 256.56587 261.35353 268.31736 272.26258 278.384 285.4461 291.56755 298.62965 303.4173 308.92097">yilgan masalada bizdan so</tspan></text>
</g>
<clipPath id="cp35990">
<path transform="matrix(1,0,0,-1,0,841.92)" d="M .000008871 0 L 595.32 0 L 595.32 841.92 L .000008871 841.92 Z " fill-rule="evenodd"/>
</clipPath>
<g clip-path="url(#cp35990)">
<text xml:space="preserve" transform="matrix(1 0 -0 1 0 841.92)" font-size="14.04" font-family="Times New Roman"><tspan y="-748.3" x="316.27">&#x2019;</tspan></text>
</g>
<clipPath id="cp35991">
<path transform="matrix(1,0,0,-1,0,841.92)" d="M .000008871 0 L 595.32 0 L 595.32 841.92 L .000008871 841.92 Z " fill-rule="evenodd"/>
</clipPath>
<g clip-path="url(#cp35991)">
<text xml:space="preserve" transform="matrix(1 0 -0 1 0 841.92)" font-size="14.04" font-family="Times New Roman"><tspan y="-748.3" x="320.83 325.39299 331.62675 335.57197 341.80574 348.65724 355.71934 359.56629 366.6284 372.86216 379.9383">ralayotgan </tspan></text>
</g>
<clipPath id="cp35992">
<path transform="matrix(1,0,0,-1,0,841.92)" d="M .000008871 0 L 595.32 0 L 595.32 841.92 L .000008871 841.92 Z " fill-rule="evenodd"/>
</clipPath>
<g clip-path="url(#cp35992)">
<text xml:space="preserve" transform="matrix(1 0 -0 1 0 841.92)" font-size="14.04" font-family="Times New Roman"><tspan y="-748.3" x="384.79">&#x2018;</tspan></text>
</g>
<clipPath id="cp35993">
<path transform="matrix(1,0,0,-1,0,841.92)" d="M .000008871 0 L 595.32 0 L 595.32 841.92 L .000008871 841.92 Z " fill-rule="evenodd"/>
</clipPath>
<g clip-path="url(#cp35993)">
<text xml:space="preserve" transform="matrix(1 0 -0 1 0 841.92)" font-size="14.04" font-family="Times New Roman"><tspan y="-748.3" x="389.35">Z</tspan></text>
</g>
<clipPath id="cp35994">
<path transform="matrix(1,0,0,-1,0,841.92)" d="M .000008871 0 L 595.32 0 L 595.32 841.92 L .000008871 841.92 Z " fill-rule="evenodd"/>
</clipPath>
<g clip-path="url(#cp35994)">
<text xml:space="preserve" transform="matrix(1 0 -0 1 0 841.92)" font-size="14.04" font-family="Times New Roman"><tspan y="-748.3" x="397.87">&#x2019;</tspan></text>
</g>
<clipPath id="cp35995">
<path transform="matrix(1,0,0,-1,0,841.92)" d="M .000008871 0 L 595.32 0 L 595.32 841.92 L .000008871 841.92 Z " fill-rule="evenodd"/>
</clipPath>
<g clip-path="url(#cp35995)">
<text xml:space="preserve" transform="matrix(1 0 -0 1 0 841.92)" font-size="14.04" font-family="Times New Roman"><tspan y="-748.3" x="402.43"> </tspan></text>
</g>
<clipPath id="cp35996">
<path transform="matrix(1,0,0,-1,0,841.92)" d="M .000008871 0 L 595.32 0 L 595.32 841.92 L .000008871 841.92 Z " fill-rule="evenodd"/>
</clipPath>
<g clip-path="url(#cp35996)">
<text xml:space="preserve" transform="matrix(1 0 -0 1 0 841.92)" font-size="14.04" font-family="Times New Roman"><tspan y="-748.3" x="407.23 412.73368 419.79579 426.85789 430.8031 435.4644 442.5265 447.31416 454.37626 460.61003 465.39768 472.23515 477.0228 484.0849 488.03013 495.09223 502.15434 506.8156 513.87777 517.823 522.4983 527.17367 534.2358 538.181 542.744 546.591 553.5549 559.67636">soni x va y ning bir biriga </tspan></text>
</g>
<clipPath id="cp35997">
<path transform="matrix(1,0,0,-1,0,841.92)" d="M .000008871 0 L 595.32 0 L 595.32 841.92 L .000008871 841.92 Z " fill-rule="evenodd"/>
</clipPath>
<g clip-path="url(#cp35997)">
<text xml:space="preserve" transform="matrix(1 0 -0 1 0 841.92)" font-size="14.04" font-family="Times New Roman"><tspan y="-724.18" x="85.104 95.78844 102.850559 109.912677 116.97479 122.47848 128.59992 135.66204 141.8958 145.74275 149.68799 153.75959 157.70482 164.66866 169.34398 175.57775 182.42926 186.3745 190.31974 194.50365 201.46749 205.53908 212.6012 216.44815 220.39339 224.46498 231.5271">munosabati tufayli 2 hil bo</tspan></text>
</g>
<clipPath id="cp35998">
<path transform="matrix(1,0,0,-1,0,841.92)" d="M .000008871 0 L 595.32 0 L 595.32 841.92 L .000008871 841.92 Z " fill-rule="evenodd"/>
</clipPath>
<g clip-path="url(#cp35998)">
<text xml:space="preserve" transform="matrix(1 0 -0 1 0 841.92)" font-size="14.04" font-family="Times New Roman"><tspan y="-724.18" x="238.85">&#x2019;</tspan></text>
</g>
<clipPath id="cp35999">
<path transform="matrix(1,0,0,-1,0,841.92)" d="M .000008871 0 L 595.32 0 L 595.32 841.92 L .000008871 841.92 Z " fill-rule="evenodd"/>
</clipPath>
<g clip-path="url(#cp35999)">
<text xml:space="preserve" transform="matrix(1 0 -0 1 0 841.92)" font-size="14.04" font-family="Times New Roman"><tspan y="-724.18" x="243.41 247.25696 251.2022 256.6076 263.6697 267.51667 271.7006 278.66444 285.72654 296.41099 303.47309 307.4183 314.4804 317.99043 322.0199 332.10063 338.44673 349.13117 355.36494 362.44108 366.625 373.6871 377.53407 383.76783 387.9658 394.08723 401.14933 408.11317 414.34693 418.19389 425.25599 429.4399 433.28688 437.9622 442.0338 447.53749 451.38444 458.44654 463.00953 470.07164 473.91859 480.98069 485.656 491.77745 497.2811 501.12806 508.19017 514.4239 518.4955 524.72927 528.57626 535.5401 542.60226 546.4492 553.51138 559.6328">lishi kumkin. Demak biz avvalo if sturkturasiga alohida </tspan></text>
</g>
<clipPath id="cp36000">
<path transform="matrix(1,0,0,-1,0,841.92)" d="M .000008871 0 L 595.32 0 L 595.32 841.92 L .000008871 841.92 Z " fill-rule="evenodd"/>
</clipPath>
<g clip-path="url(#cp36000)">
<text xml:space="preserve" transform="matrix(1 0 -0 1 0 841.92)" font-size="14.04" font-family="Times New Roman"><tspan y="-700.06" x="85.104 89.06402">to</tspan></text>
</g>
<clipPath id="cp36001">
<path transform="matrix(1,0,0,-1,0,841.92)" d="M .000008871 0 L 595.32 0 L 595.32 841.92 L .000008871 841.92 Z " fill-rule="evenodd"/>
</clipPath>
<g clip-path="url(#cp36001)">
<text xml:space="preserve" transform="matrix(1 0 -0 1 0 841.92)" font-size="14.04" font-family="Times New Roman"><tspan y="-700.06" x="96.144">&#x2019;</tspan></text>
</g>
<clipPath id="cp36002">
<path transform="matrix(1,0,0,-1,0,841.92)" d="M .000008871 0 L 595.32 0 L 595.32 841.92 L .000008871 841.92 Z " fill-rule="evenodd"/>
</clipPath>
<g clip-path="url(#cp36002)">
<text xml:space="preserve" transform="matrix(1 0 -0 1 0 841.92)" font-size="14.04" font-family="Times New Roman"><tspan y="-700.06" x="100.7 107.66383 111.60908 117.842838 121.6898 125.53676 131.04044 138.00428 141.94951 152.63396 156.5792 162.81296 166.4072 171.91088 178.97299 185.09444 189.76976 193.715 197.22499 200.67882 204.52577 209.2011 212.79534 220.60158 229.10982 238.4745 248.55522 258.63597 267.15824 277.23896 286.60365 296.68437 304.4906 309.16593 312.74613 322.1108 326.05604 332.2898 335.88404 341.3877 348.35154 354.5853 359.26063 363.10758 370.16969 376.40345 379.91346 386.8492">xtalishimiz shart. if STRUKTURASI Biz shartga ko</tspan></text>
</g>
<clipPath id="cp36003">
<path transform="matrix(1,0,0,-1,0,841.92)" d="M .000008871 0 L 595.32 0 L 595.32 841.92 L .000008871 841.92 Z " fill-rule="evenodd"/>
</clipPath>
<g clip-path="url(#cp36003)">
<text xml:space="preserve" transform="matrix(1 0 -0 1 0 841.92)" font-size="14.04" font-family="Times New Roman"><tspan y="-700.06" x="394.15">&#x2019;</tspan></text>
</g>
<clipPath id="cp36004">
<path transform="matrix(1,0,0,-1,0,841.92)" d="M .000008871 0 L 595.32 0 L 595.32 841.92 L .000008871 841.92 Z " fill-rule="evenodd"/>
</clipPath>
<g clip-path="url(#cp36004)">
<text xml:space="preserve" transform="matrix(1 0 -0 1 0 841.92)" font-size="14.04" font-family="Times New Roman"><tspan y="-700.06" x="398.71 403.3853 409.61909 413.21333 420.27543 424.12239 428.7977 432.39195 439.45405 445.57548 451.80924 458.88539 465.11915 468.62916 475.64915 481.91099 486.5863 492.70774 499.76985 505.89128 509.8365 513.4167 520.2542">ra bir necha harakat yo</tspan></text>
</g>
<clipPath id="cp36005">
<path transform="matrix(1,0,0,-1,0,841.92)" d="M .000008871 0 L 595.32 0 L 595.32 841.92 L .000008871 841.92 Z " fill-rule="evenodd"/>
</clipPath>
<g clip-path="url(#cp36005)">
<text xml:space="preserve" transform="matrix(1 0 -0 1 0 841.92)" font-size="14.04" font-family="Times New Roman"><tspan y="-700.06" x="527.5">&#x2019;</tspan></text>
</g>
<clipPath id="cp36006">
<path transform="matrix(1,0,0,-1,0,841.92)" d="M .000008871 0 L 595.32 0 L 595.32 841.92 L .000008871 841.92 Z " fill-rule="evenodd"/>
</clipPath>
<g clip-path="url(#cp36006)">
<text xml:space="preserve" transform="matrix(1 0 -0 1 0 841.92)" font-size="14.04" font-family="Times New Roman"><tspan y="-700.06" x="532.06 536.00527 539.9505 547.01266 553.0077 559.97158">lidan </tspan></text>
</g>
<clipPath id="cp36007">
<path transform="matrix(1,0,0,-1,0,841.92)" d="M .000008871 0 L 595.32 0 L 595.32 841.92 L .000008871 841.92 Z " fill-rule="evenodd"/>
</clipPath>
<g clip-path="url(#cp36007)">
<text xml:space="preserve" transform="matrix(1 0 -0 1 0 841.92)" font-size="14.04" font-family="Times New Roman"><tspan y="-675.94" x="85.104 92.166118 96.01308 99.95832 103.80528 110.03904 115.44444 119.38969 126.35352 130.29875 134.72135 138.66658 144.78803 151.85015 155.79538 162.02915 168.99298 179.67743 183.62267 189.85643 193.36643 197.8873 210.36887 214.3141 219.7195 226.68334 230.62857 235.17752 242.14136 248.37512 255.33896 262.3028 269.3649 273.31013 277.8591 283.98054 291.04264 297.2764 301.95173 306.38838 313.3522 320.31605 324.26127 330.49504 337.45887 341.30583 348.36793 355.43003 359.979 366.81648 373.87858 379.28398 386.2478 390.19303 394.742 401.8041 406.2267 413.28883 419.52259 423.95924 427.90446">bittasini tanlaymiz. Misol uchun: agar bolaning yoshi 7 ga te</tspan></text>
</g>
<clipPath id="cp36008">
<path transform="matrix(1,0,0,-1,0,841.92)" d="M .000008871 0 L 595.32 0 L 595.32 841.92 L .000008871 841.92 Z " fill-rule="evenodd"/>
</clipPath>
<g clip-path="url(#cp36008)">
<text xml:space="preserve" transform="matrix(1 0 -0 1 0 841.92)" font-size="14.04" font-family="Times New Roman"><tspan y="-675.94" x="434.47 441.43385 448.49595 453.04493 459.8824 466.9445 474.0066 477.9518 482.37443 489.43653 495.55796 499.50318 503.35014 509.5839 514.1328 521.0967">ng yoki katta bo</tspan></text>
</g>
<clipPath id="cp36009">
<path transform="matrix(1,0,0,-1,0,841.92)" d="M .000008871 0 L 595.32 0 L 595.32 841.92 L .000008871 841.92 Z " fill-rule="evenodd"/>
</clipPath>
<g clip-path="url(#cp36009)">
<text xml:space="preserve" transform="matrix(1 0 -0 1 0 841.92)" font-size="14.04" font-family="Times New Roman"><tspan y="-675.94" x="528.34">&#x2019;</tspan></text>
</g>
<clipPath id="cp36010">
<path transform="matrix(1,0,0,-1,0,841.92)" d="M .000008871 0 L 595.32 0 L 595.32 841.92 L .000008871 841.92 Z " fill-rule="evenodd"/>
</clipPath>
<g clip-path="url(#cp36010)">
<text xml:space="preserve" transform="matrix(1 0 -0 1 0 841.92)" font-size="14.04" font-family="Times New Roman"><tspan y="-675.94" x="532.9 536.8453 542.34896 548.5827 553.01937 559.9832">lsa u </tspan></text>
</g>
<clipPath id="cp36011">
<path transform="matrix(1,0,0,-1,0,841.92)" d="M .000008871 0 L 595.32 0 L 595.32 841.92 L .000008871 841.92 Z " fill-rule="evenodd"/>
</clipPath>
<g clip-path="url(#cp36011)">
<text xml:space="preserve" transform="matrix(1 0 -0 1 0 841.92)" font-size="14.04" font-family="Times New Roman"><tspan y="-651.7" x="85.104 95.90076 102.134517 109.21067 113.155918 119.27735 126.33947 133.40158 139.63535 143.00495 149.96878 157.0309 161.70623 165.55318 170.95858 178.02069 181.96593 185.47592 196.1323 203.19441 213.87886 220.94098 224.88622 231.94834 235.45833 242.47834">maktabga borishi mumkin bo</tspan></text>
</g>
<clipPath id="cp36012">
<path transform="matrix(1,0,0,-1,0,841.92)" d="M .000008871 0 L 595.32 0 L 595.32 841.92 L .000008871 841.92 Z " fill-rule="evenodd"/>
</clipPath>
<g clip-path="url(#cp36012)">
<text xml:space="preserve" transform="matrix(1 0 -0 1 0 841.92)" font-size="14.04" font-family="Times New Roman"><tspan y="-651.7" x="249.77">&#x2019;</tspan></text>
</g>
<clipPath id="cp36013">
<path transform="matrix(1,0,0,-1,0,841.92)" d="M .000008871 0 L 595.32 0 L 595.32 841.92 L .000008871 841.92 Z " fill-rule="evenodd"/>
</clipPath>
<g clip-path="url(#cp36013)">
<text xml:space="preserve" transform="matrix(1 0 -0 1 0 841.92)" font-size="14.04" font-family="Times New Roman"><tspan y="-651.7" x="254.33 258.17698 263.68064 267.5276 274.5897 278.0997 281.55357 290.91825 297.86805 304.83189 308.7771 312.2871 321.49736 329.4159 337.33445 340.84446 347.86445 354.0982 357.60823 361.45518 366.1305 369.6405 376.57627 380.52149 384.0315 390.96726">lsin. Buni C++ da if ni qo</tspan></text>
</g>
<clipPath id="cp36014">
<path transform="matrix(1,0,0,-1,0,841.92)" d="M .000008871 0 L 595.32 0 L 595.32 841.92 L .000008871 841.92 Z " fill-rule="evenodd"/>
</clipPath>
<g clip-path="url(#cp36014)">
<text xml:space="preserve" transform="matrix(1 0 -0 1 0 841.92)" font-size="14.04" font-family="Times New Roman"><tspan y="-651.7" x="398.11">&#x2019;</tspan></text>
</g>
<clipPath id="cp36015">
<path transform="matrix(1,0,0,-1,0,841.92)" d="M .000008871 0 L 595.32 0 L 595.32 841.92 L .000008871 841.92 Z " fill-rule="evenodd"/>
</clipPath>
<g clip-path="url(#cp36015)">
<text xml:space="preserve" transform="matrix(1 0 -0 1 0 841.92)" font-size="14.04" font-family="Times New Roman"><tspan y="-651.7" x="402.67 406.61524 410.56047 416.6819 423.744 427.254 434.0634 441.1255 447.35926 453.59303 460.44453 464.38975 468.33497 475.39707 478.90708 482.36094 486.30616 490.98149 494.4915 499.1668 505.99024 513.05239 518.45779 525.5199 529.0299 536.9485 544.86709 548.3209 555.2848 559.8478">llab yozaylik. if (yosh &#x003e;= 7) </tspan></text>
</g>
<clipPath id="cp36016">
<path transform="matrix(1,0,0,-1,0,841.92)" d="M .000008871 0 L 595.32 0 L 595.32 841.92 L .000008871 841.92 Z " fill-rule="evenodd"/>
</clipPath>
<g clip-path="url(#cp36016)">
<text xml:space="preserve" transform="matrix(1 0 -0 1 0 841.92)" font-size="14.04" font-family="Times New Roman"><tspan y="-627.58" x="85.104 95.90076 102.134517 109.21067 113.155918 119.27735 126.33947 131.01479 135.69011 139.6494">maktab(); </tspan></text>
</g>
<clipPath id="cp36017">
<path transform="matrix(1,0,0,-1,0,841.92)" d="M .000008871 0 L 595.32 0 L 595.32 841.92 L .000008871 841.92 Z " fill-rule="evenodd"/>
</clipPath>
<g clip-path="url(#cp36017)">
<text xml:space="preserve" transform="matrix(1 0 -0 1 0 841.92)" font-size="14.04" font-family="Times New Roman"><tspan y="-627.58" x="143.06"> </tspan></text>
</g>
</g>
<g id="Layer-1" data-name="P">
<clipPath id="cp36018">
<path transform="matrix(1,0,0,-1,0,841.92)" d="M .000008871 0 L 595.32 0 L 595.32 841.92 L .000008871 841.92 Z " fill-rule="evenodd"/>
</clipPath>
<g clip-path="url(#cp36018)">
<text xml:space="preserve" transform="matrix(1 0 -0 1 0 841.92)" font-size="14.04" font-family="Times New Roman"><tspan y="-603.46" x="113.42 122.784679 129.84679 133.55335 140.39083 146.62459 151.29991 158.37609 164.60985 168.20409 173.70777 180.6716 186.90537 191.58069 195.42765 199.1342 206.19632 212.43009 216.27704 222.5108 227.0738 230.92076 234.76772 238.71295 244.11835 251.18047 255.02742 258.73399 265.57145 272.63356 279.69566 283.64088 287.22108 294.28318 300.51695 304.3639 310.59767 315.16065 319.10588 323.0511 333.73554 339.9693 345.487 349.33396 353.1809 360.243 364.18824 367.8948 378.57926 385.64137 396.3258 403.3879 407.33314 414.39524 417.90525 421.58375 431.66447 438.72657 444.96034 449.52333 453.2299 460.06736 467.12947 472.63313 479.69523 483.27543">Bu yerda shart bajarilishi yoki bajarilmasligi mumkin. Agar yosh o</tspan></text>
</g>
<clipPath id="cp36019">
<path transform="matrix(1,0,0,-1,0,841.92)" d="M .000008871 0 L 595.32 0 L 595.32 841.92 L .000008871 841.92 Z " fill-rule="evenodd"/>
</clipPath>
<g clip-path="url(#cp36019)">
<text xml:space="preserve" transform="matrix(1 0 -0 1 0 841.92)" font-size="14.04" font-family="Times New Roman"><tspan y="-603.46" x="490.9">&#x2019;</tspan></text>
</g>
<clipPath id="cp36020">
<path transform="matrix(1,0,0,-1,0,841.92)" d="M .000008871 0 L 595.32 0 L 595.32 841.92 L .000008871 841.92 Z " fill-rule="evenodd"/>
</clipPath>
<g clip-path="url(#cp36020)">
<text xml:space="preserve" transform="matrix(1 0 -0 1 0 841.92)" font-size="14.04" font-family="Times New Roman"><tspan y="-603.46" x="495.46 501.69377 508.7699 515.00369 519.56668 526.6288 533.6909 539.8124 546.77627 550.7215 556.1269 559.9739">zgaruvchisi </tspan></text>
</g>
<clipPath id="cp36021">
<path transform="matrix(1,0,0,-1,0,841.92)" d="M .000008871 0 L 595.32 0 L 595.32 841.92 L .000008871 841.92 Z " fill-rule="evenodd"/>
</clipPath>
<g clip-path="url(#cp36021)">
<text xml:space="preserve" transform="matrix(1 0 -0 1 0 841.92)" font-size="14.04" font-family="Times New Roman"><tspan y="-579.34" x="85.104 92.166118 95.87268 102.9348 109.16856 112.87512 116.820369 122.9418 129.90564 136.96776 140.67432 147.5118 154.57392 161.63603 165.58127 169.28783 176.25167 183.31378 190.27762 196.51139 203.58756 207.16776 214.22988 220.46364 224.3106 228.25583 234.4896 238.19615 245.15999">7 ga teng yoki undan katta bo</tspan></text>
</g>
<clipPath id="cp36022">
<path transform="matrix(1,0,0,-1,0,841.92)" d="M .000008871 0 L 595.32 0 L 595.32 841.92 L .000008871 841.92 Z " fill-rule="evenodd"/>
</clipPath>
<g clip-path="url(#cp36022)">
<text xml:space="preserve" transform="matrix(1 0 -0 1 0 841.92)" font-size="14.04" font-family="Times New Roman"><tspan y="-579.34" x="252.53">&#x2019;</tspan></text>
</g>
<clipPath id="cp36023">
<path transform="matrix(1,0,0,-1,0,841.92)" d="M .000008871 0 L 595.32 0 L 595.32 841.92 L .000008871 841.92 Z " fill-rule="evenodd"/>
</clipPath>
<g clip-path="url(#cp36023)">
<text xml:space="preserve" transform="matrix(1 0 -0 1 0 841.92)" font-size="14.04" font-family="Times New Roman"><tspan y="-579.34" x="257.09 261.03523 266.4406 272.67439 276.38096 281.8846 288.84846 295.0822 299.75755 303.7168 307.297 314.3591 320.59288 324.43983 330.67359 335.3489 339.19587 343.14109 349.37486 356.33869 360.2839 363.99049 371.05259 377.28636 380.99293 391.67738 397.91114 404.98728 408.9325">lsa shart bajariladi va makta</tspan></text>
</g>
<clipPath id="cp36024">
<path transform="matrix(1,0,0,-1,0,841.92)" d="M .000008871 0 L 595.32 0 L 595.32 841.92 L .000008871 841.92 Z " fill-rule="evenodd"/>
</clipPath>
<g clip-path="url(#cp36024)">
<text xml:space="preserve" transform="matrix(1 0 -0 1 0 841.92)" font-size="14.04" font-family="Times New Roman"><tspan y="-579.34" x="415.39 422.35386 427.02919 431.7045 435.4251 440.10044 447.06428 454.12638 461.0902 466.4956 470.44084 477.2783 483.51206 489.02976 492.97499 496.68156 502.9153 509.99147 516.1129 523.17507 527.02206 531.6973 535.5443 539.48959 545.611 552.67318 556.52017 559.87576">b() funksiyasi chaqiriladi. </tspan></text>
</g>
<clipPath id="cp36025">
<path transform="matrix(1,0,0,-1,0,841.92)" d="M .000008871 0 L 595.32 0 L 595.32 841.92 L .000008871 841.92 Z " fill-rule="evenodd"/>
</clipPath>
<g clip-path="url(#cp36025)">
<text xml:space="preserve" transform="matrix(1 0 -0 1 0 841.92)" font-size="14.04" font-family="Times New Roman"><tspan y="-555.07" x="85.104 94.46867 101.53079 107.39951 114.36335 121.32719 125.27243 131.39388 135.33911 141.20783 145.15306 149.71607 156.77819 163.01195 168.88066 173.44367 177.3889">Bu holat true (to</tspan></text>
</g>
<clipPath id="cp36026">
<path transform="matrix(1,0,0,-1,0,841.92)" d="M .000008871 0 L 595.32 0 L 595.32 841.92 L .000008871 841.92 Z " fill-rule="evenodd"/>
</clipPath>
<g clip-path="url(#cp36026)">
<text xml:space="preserve" transform="matrix(1 0 -0 1 0 841.92)" font-size="14.04" font-family="Times New Roman"><tspan y="-555.07" x="184.58">&#x2019;</tspan></text>
</g>
<clipPath id="cp36027">
<path transform="matrix(1,0,0,-1,0,841.92)" d="M .000008871 0 L 595.32 0 L 595.32 841.92 L .000008871 841.92 Z " fill-rule="evenodd"/>
</clipPath>
<g clip-path="url(#cp36027)">
<text xml:space="preserve" transform="matrix(1 0 -0 1 0 841.92)" font-size="14.04" font-family="Times New Roman"><tspan y="-555.07" x="189.17">g</tspan></text>
</g>
<clipPath id="cp36028">
<path transform="matrix(1,0,0,-1,0,841.92)" d="M .000008871 0 L 595.32 0 L 595.32 841.92 L .000008871 841.92 Z " fill-rule="evenodd"/>
</clipPath>
<g clip-path="url(#cp36028)">
<text xml:space="preserve" transform="matrix(1 0 -0 1 0 841.92)" font-size="14.04" font-family="Times New Roman"><tspan y="-555.07" x="196.25">&#x2019;</tspan></text>
</g>
<clipPath id="cp36029">
<path transform="matrix(1,0,0,-1,0,841.92)" d="M .000008871 0 L 595.32 0 L 595.32 841.92 L .000008871 841.92 Z " fill-rule="evenodd"/>
</clipPath>
<g clip-path="url(#cp36029)">
<text xml:space="preserve" transform="matrix(1 0 -0 1 0 841.92)" font-size="14.04" font-family="Times New Roman"><tspan y="-555.07" x="200.81 205.373 209.31824 213.99356 219.86228 226.82611 233.05988 239.91139 243.85663 247.80187 254.03563 260.99949 264.9447 268.4547 274.29536 284.37608 291.43818 297.67195 302.34727 308.23005 315.0675 322.1296 327.535 334.5971 340.46586 347.52796 353.27033 360.33244 366.45387 373.51597 379.3847 386.34855 390.29377 396.4152 403.37904 407.32426 414.38636 420.12873 427.09257">ri) deyiladi. Agar yosh 7 dan kichik bo</tspan></text>
</g>
<clipPath id="cp36030">
<path transform="matrix(1,0,0,-1,0,841.92)" d="M .000008871 0 L 595.32 0 L 595.32 841.92 L .000008871 841.92 Z " fill-rule="evenodd"/>
</clipPath>
<g clip-path="url(#cp36030)">
<text xml:space="preserve" transform="matrix(1 0 -0 1 0 841.92)" font-size="14.04" font-family="Times New Roman"><tspan y="-555.07" x="434.47">&#x2019;</tspan></text>
</g>
<clipPath id="cp36031">
<path transform="matrix(1,0,0,-1,0,841.92)" d="M .000008871 0 L 595.32 0 L 595.32 841.92 L .000008871 841.92 Z " fill-rule="evenodd"/>
</clipPath>
<g clip-path="url(#cp36031)">
<text xml:space="preserve" transform="matrix(1 0 -0 1 0 841.92)" font-size="14.04" font-family="Times New Roman"><tspan y="-555.07" x="439.03 442.97523 448.3806 454.61439 458.1244 464.0914 474.77586 481.0096 488.08576 492.03099 498.1524 505.2145 509.88984 514.5651 520.43386 524.2808 530.5146 535.92 542.88388 546.8291 552.95059 559.9144">lsa, maktab() tashlab </tspan></text>
</g>
<clipPath id="cp36032">
<path transform="matrix(1,0,0,-1,0,841.92)" d="M .000008871 0 L 595.32 0 L 595.32 841.92 L .000008871 841.92 Z " fill-rule="evenodd"/>
</clipPath>
<g clip-path="url(#cp36032)">
<text xml:space="preserve" transform="matrix(1 0 -0 1 0 841.92)" font-size="14.04" font-family="Times New Roman"><tspan y="-530.95" x="85.104">o</tspan></text>
</g>
<clipPath id="cp36033">
<path transform="matrix(1,0,0,-1,0,841.92)" d="M .000008871 0 L 595.32 0 L 595.32 841.92 L .000008871 841.92 Z " fill-rule="evenodd"/>
</clipPath>
<g clip-path="url(#cp36033)">
<text xml:space="preserve" transform="matrix(1 0 -0 1 0 841.92)" font-size="14.04" font-family="Times New Roman"><tspan y="-530.95" x="92.184">&#x2019;</tspan></text>
</g>
<clipPath id="cp36034">
<path transform="matrix(1,0,0,-1,0,841.92)" d="M .000008871 0 L 595.32 0 L 595.32 841.92 L .000008871 841.92 Z " fill-rule="evenodd"/>
</clipPath>
<g clip-path="url(#cp36034)">
<text xml:space="preserve" transform="matrix(1 0 -0 1 0 841.92)" font-size="14.04" font-family="Times New Roman"><tspan y="-530.95" x="96.744 100.68925 104.53621 108.48145 114.71521 121.67905 125.62429 129.1343 134.3712 144.45192 150.68569 157.76186 161.70709 166.97209 171.64742 177.76886 181.7141 187.11949 193.35326 198.6323 203.30762 210.38379 217.34763 221.19458">tiladi. Yani false (noto</tspan></text>
</g>
<clipPath id="cp36035">
<path transform="matrix(1,0,0,-1,0,841.92)" d="M .000008871 0 L 595.32 0 L 595.32 841.92 L .000008871 841.92 Z " fill-rule="evenodd"/>
</clipPath>
<g clip-path="url(#cp36035)">
<text xml:space="preserve" transform="matrix(1 0 -0 1 0 841.92)" font-size="14.04" font-family="Times New Roman"><tspan y="-530.95" x="228.41">&#x2019;</tspan></text>
</g>
<clipPath id="cp36036">
<path transform="matrix(1,0,0,-1,0,841.92)" d="M .000008871 0 L 595.32 0 L 595.32 841.92 L .000008871 841.92 Z " fill-rule="evenodd"/>
</clipPath>
<g clip-path="url(#cp36036)">
<text xml:space="preserve" transform="matrix(1 0 -0 1 0 841.92)" font-size="14.04" font-family="Times New Roman"><tspan y="-530.95" x="232.97">g</tspan></text>
</g>
<clipPath id="cp36037">
<path transform="matrix(1,0,0,-1,0,841.92)" d="M .000008871 0 L 595.32 0 L 595.32 841.92 L .000008871 841.92 Z " fill-rule="evenodd"/>
</clipPath>
<g clip-path="url(#cp36037)">
<text xml:space="preserve" transform="matrix(1 0 -0 1 0 841.92)" font-size="14.04" font-family="Times New Roman"><tspan y="-530.95" x="240.05">&#x2019;</tspan></text>
</g>
<clipPath id="cp36038">
<path transform="matrix(1,0,0,-1,0,841.92)" d="M .000008871 0 L 595.32 0 L 595.32 841.92 L .000008871 841.92 Z " fill-rule="evenodd"/>
</clipPath>
<g clip-path="url(#cp36038)">
<text xml:space="preserve" transform="matrix(1 0 -0 1 0 841.92)" font-size="14.04" font-family="Times New Roman"><tspan y="-530.95" x="244.61 249.28533 253.23056 257.90589 263.1709 270.233 277.19685 281.14207 287.2635 291.2087 296.47373 303.3112 310.3733 316.60707 322.84083 329.91697 336.15074 341.42979 348.49189 354.6133 358.55854 364.67997 371.74208 375.6873 379.1973 384.43424 394.51496 400.01863 403.86558 407.71253 414.77464 421.0084 426.28746 432.5212 438.0389 444.16035 449.42536 454.92903 461.99113 468.22489 472.78788 476.7331 483.7952 489.91664 496.88047 500.82569 506.0907 510.03593 514.59896 521.6611 528.7232 534.84469 541.80856 545.7538 552.5913 559.5552">ri) holat yuzaga keladi. Aslida esa shartdagi ifodaning </tspan></text>
</g>
<clipPath id="cp36039">
<path transform="matrix(1,0,0,-1,0,841.92)" d="M .000008871 0 L 595.32 0 L 595.32 841.92 L .000008871 841.92 Z " fill-rule="evenodd"/>
</clipPath>
<g clip-path="url(#cp36039)">
<text xml:space="preserve" transform="matrix(1 0 -0 1 0 841.92)" font-size="14.04" font-family="Times New Roman"><tspan y="-506.83" x="85.104 92.184">ko</tspan></text>
</g>
<clipPath id="cp36040">
<path transform="matrix(1,0,0,-1,0,841.92)" d="M .000008871 0 L 595.32 0 L 595.32 841.92 L .000008871 841.92 Z " fill-rule="evenodd"/>
</clipPath>
<g clip-path="url(#cp36040)">
<text xml:space="preserve" transform="matrix(1 0 -0 1 0 841.92)" font-size="14.04" font-family="Times New Roman"><tspan y="-506.83" x="99.264">&#x2019;</tspan></text>
</g>
<clipPath id="cp36041">
<path transform="matrix(1,0,0,-1,0,841.92)" d="M .000008871 0 L 595.32 0 L 595.32 841.92 L .000008871 841.92 Z " fill-rule="evenodd"/>
</clipPath>
<g clip-path="url(#cp36041)">
<text xml:space="preserve" transform="matrix(1 0 -0 1 0 841.92)" font-size="14.04" font-family="Times New Roman"><tspan y="-506.83" x="103.82 108.49532 112.342288 119.4044 123.251369 128.65676 135.71887 139.56583 144.46578 155.15023 162.21234 169.27446 173.2197 183.90415 188.8041 195.15018 205.94695 212.18071 217.69844">rinishi muhim emas </tspan></text>
</g>
<clipPath id="cp36042">
<path transform="matrix(1,0,0,-1,0,841.92)" d="M .000008871 0 L 595.32 0 L 595.32 841.92 L .000008871 841.92 Z " fill-rule="evenodd"/>
</clipPath>
<g clip-path="url(#cp36042)">
<text xml:space="preserve" transform="matrix(1 0 -0 1 0 841.92)" font-size="14.04" font-family="Times New Roman"><tspan y="-506.83" x="222.65">&#x2013;</tspan></text>
</g>
<clipPath id="cp36043">
<path transform="matrix(1,0,0,-1,0,841.92)" d="M .000008871 0 L 595.32 0 L 595.32 841.92 L .000008871 841.92 Z " fill-rule="evenodd"/>
</clipPath>
<g clip-path="url(#cp36043)">
<text xml:space="preserve" transform="matrix(1 0 -0 1 0 841.92)" font-size="14.04" font-family="Times New Roman"><tspan y="-506.83" x="229.73"> </tspan></text>
</g>
<clipPath id="cp36044">
<path transform="matrix(1,0,0,-1,0,841.92)" d="M .000008871 0 L 595.32 0 L 595.32 841.92 L .000008871 841.92 Z " fill-rule="evenodd"/>
</clipPath>
<g clip-path="url(#cp36044)">
<text xml:space="preserve" transform="matrix(1 0 -0 1 0 841.92)" font-size="14.04" font-family="Times New Roman"><tspan y="-506.83" x="234.65 240.77144 247.83356 254.06732 258.74266 263.54435 267.48957 272.05256 279.11466 286.0785 292.31227 299.2761 303.2213 308.00898 315.07109 322.0349 325.88188 332.94398 339.17774 343.9654 351.0275 357.14894 361.09416 364.9411 368.88633 373.56166 377.4086 382.814 389.8761 394.77607 405.4605 412.649 423.33345 430.39555 434.34077 441.40287 446.19053">agar ifodani nolga keltirish mumkin b</tspan></text>
</g>
<clipPath id="cp36045">
<path transform="matrix(1,0,0,-1,0,841.92)" d="M .000008871 0 L 595.32 0 L 595.32 841.92 L .000008871 841.92 Z " fill-rule="evenodd"/>
</clipPath>
<g clip-path="url(#cp36045)">
<text xml:space="preserve" transform="matrix(1 0 -0 1 0 841.92)" font-size="14.04" font-family="Times New Roman"><tspan y="-506.83" x="453.58">o</tspan></text>
</g>
<clipPath id="cp36046">
<path transform="matrix(1,0,0,-1,0,841.92)" d="M .000008871 0 L 595.32 0 L 595.32 841.92 L .000008871 841.92 Z " fill-rule="evenodd"/>
</clipPath>
<g clip-path="url(#cp36046)">
<text xml:space="preserve" transform="matrix(1 0 -0 1 0 841.92)" font-size="14.04" font-family="Times New Roman"><tspan y="-506.83" x="460.66">&#x2019;</tspan></text>
</g>
<clipPath id="cp36047">
<path transform="matrix(1,0,0,-1,0,841.92)" d="M .000008871 0 L 595.32 0 L 595.32 841.92 L .000008871 841.92 Z " fill-rule="evenodd"/>
</clipPath>
<g clip-path="url(#cp36047)">
<text xml:space="preserve" transform="matrix(1 0 -0 1 0 841.92)" font-size="14.04" font-family="Times New Roman"><tspan y="-506.83" x="465.22 469.06697 474.57063 480.80439 485.71839 490.3937 496.51515 500.3621 505.86576 512.0995 516.88717 523.9493">lsa false bo</tspan></text>
</g>
<clipPath id="cp36048">
<path transform="matrix(1,0,0,-1,0,841.92)" d="M .000008871 0 L 595.32 0 L 595.32 841.92 L .000008871 841.92 Z " fill-rule="evenodd"/>
</clipPath>
<g clip-path="url(#cp36048)">
<text xml:space="preserve" transform="matrix(1 0 -0 1 0 841.92)" font-size="14.04" font-family="Times New Roman"><tspan y="-506.83" x="531.1">&#x2019;</tspan></text>
</g>
<clipPath id="cp36049">
<path transform="matrix(1,0,0,-1,0,841.92)" d="M .000008871 0 L 595.32 0 L 595.32 841.92 L .000008871 841.92 Z " fill-rule="evenodd"/>
</clipPath>
<g clip-path="url(#cp36049)">
<text xml:space="preserve" transform="matrix(1 0 -0 1 0 841.92)" font-size="14.04" font-family="Times New Roman"><tspan y="-506.83" x="535.66 539.6052 545.7267 552.69058 556.6358 559.9914">ladi, </tspan></text>
</g>
<clipPath id="cp36050">
<path transform="matrix(1,0,0,-1,0,841.92)" d="M .000008871 0 L 595.32 0 L 595.32 841.92 L .000008871 841.92 Z " fill-rule="evenodd"/>
</clipPath>
<g clip-path="url(#cp36050)">
<text xml:space="preserve" transform="matrix(1 0 -0 1 0 841.92)" font-size="14.04" font-family="Times New Roman"><tspan y="-482.71" x="85.104 92.166118 99.12995 102.97691 110.03903 116.27279 123.348949 128.50164 133.06464 139.2984 143.97373 150.95162 154.79857 158.7438 163.89649 167.74344 173.9772 180.94104 188.00316 195.06528 200.0916 207.05544">noldan farqli javob bo</tspan></text>
</g>
<clipPath id="cp36051">
<path transform="matrix(1,0,0,-1,0,841.92)" d="M .000008871 0 L 595.32 0 L 595.32 841.92 L .000008871 841.92 Z " fill-rule="evenodd"/>
</clipPath>
<g clip-path="url(#cp36051)">
<text xml:space="preserve" transform="matrix(1 0 -0 1 0 841.92)" font-size="14.04" font-family="Times New Roman"><tspan y="-482.71" x="214.25">&#x2019;</tspan></text>
</g>
<clipPath id="cp36052">
<path transform="matrix(1,0,0,-1,0,841.92)" d="M .000008871 0 L 595.32 0 L 595.32 841.92 L .000008871 841.92 Z " fill-rule="evenodd"/>
</clipPath>
<g clip-path="url(#cp36052)">
<text xml:space="preserve" transform="matrix(1 0 -0 1 0 841.92)" font-size="14.04" font-family="Times New Roman"><tspan y="-482.71" x="218.81 222.75524 228.25891 234.49268 238.00267 243.12726 253.8117 260.8738 266.37748 273.43959 279.561 283.50624 294.19068 298.1359 301.6459 306.88285 317.5673 323.9134 330.9755 335.65083 339.59605 346.55989 357.24433 361.18955 364.69956 369.81013 373.75535 378.43067 385.5068 391.74058 396.7669 403.829 410.79286 414.73808 420.8595 424.80473 429.9574 437.0195 443.14094 449.9784 457.0405 464.1026 469.25529 476.31739">lsa, musbatmi, manfiymi, true holat paydo bo</tspan></text>
</g>
<clipPath id="cp36053">
<path transform="matrix(1,0,0,-1,0,841.92)" d="M .000008871 0 L 595.32 0 L 595.32 841.92 L .000008871 841.92 Z " fill-rule="evenodd"/>
</clipPath>
<g clip-path="url(#cp36053)">
<text xml:space="preserve" transform="matrix(1 0 -0 1 0 841.92)" font-size="14.04" font-family="Times New Roman"><tspan y="-482.71" x="483.82">&#x2019;</tspan></text>
</g>
<clipPath id="cp36054">
<path transform="matrix(1,0,0,-1,0,841.92)" d="M .000008871 0 L 595.32 0 L 595.32 841.92 L .000008871 841.92 Z " fill-rule="evenodd"/>
</clipPath>
<g clip-path="url(#cp36054)">
<text xml:space="preserve" transform="matrix(1 0 -0 1 0 841.92)" font-size="14.04" font-family="Times New Roman"><tspan y="-482.71" x="488.38 492.32524 498.44667 505.50877 509.45399 514.4803 521.5424 527.7762 532.8025 538.30618 545.3683 551.48977 556.05276 559.8997">ladi va shart </tspan></text>
</g>
<clipPath id="cp36055">
<path transform="matrix(1,0,0,-1,0,841.92)" d="M .000008871 0 L 595.32 0 L 595.32 841.92 L .000008871 841.92 Z " fill-rule="evenodd"/>
</clipPath>
<g clip-path="url(#cp36055)">
<text xml:space="preserve" transform="matrix(1 0 -0 1 0 841.92)" font-size="14.04" font-family="Times New Roman"><tspan y="-458.47" x="85.104 92.166118 98.39987 102.24683 108.48059 113.155918 117.00288 120.94812 127.06956 134.13167 138.0769 141.5869 145.50406 154.74239 161.8045 168.76834 175.83046 182.06423 186.00946 192.9733">bajariladi. Bunga qo</tspan></text>
</g>
<clipPath id="cp36056">
<path transform="matrix(1,0,0,-1,0,841.92)" d="M .000008871 0 L 595.32 0 L 595.32 841.92 L .000008871 841.92 Z " fill-rule="evenodd"/>
</clipPath>
<g clip-path="url(#cp36056)">
<text xml:space="preserve" transform="matrix(1 0 -0 1 0 841.92)" font-size="14.04" font-family="Times New Roman"><tspan y="-458.47" x="200.21">&#x2019;</tspan></text>
</g>
<clipPath id="cp36057">
<path transform="matrix(1,0,0,-1,0,841.92)" d="M .000008871 0 L 595.32 0 L 595.32 841.92 L .000008871 841.92 Z " fill-rule="evenodd"/>
</clipPath>
<g clip-path="url(#cp36057)">
<text xml:space="preserve" transform="matrix(1 0 -0 1 0 841.92)" font-size="14.04" font-family="Times New Roman"><tspan y="-458.47" x="204.77 210.27368 217.23752 221.18276 231.8672 238.10097 245.17714 251.4109 255.35614 262.41825 266.36347 270.21043 274.05738 281.11949 285.06474">shimcha qilib o</tspan></text>
</g>
<clipPath id="cp36058">
<path transform="matrix(1,0,0,-1,0,841.92)" d="M .000008871 0 L 595.32 0 L 595.32 841.92 L .000008871 841.92 Z " fill-rule="evenodd"/>
</clipPath>
<g clip-path="url(#cp36058)">
<text xml:space="preserve" transform="matrix(1 0 -0 1 0 841.92)" font-size="14.04" font-family="Times New Roman"><tspan y="-458.47" x="292.25">&#x2019;</tspan></text>
</g>
<clipPath id="cp36059">
<path transform="matrix(1,0,0,-1,0,841.92)" d="M .000008871 0 L 595.32 0 L 595.32 841.92 L .000008871 841.92 Z " fill-rule="evenodd"/>
</clipPath>
<g clip-path="url(#cp36059)">
<text xml:space="preserve" transform="matrix(1 0 -0 1 0 841.92)" font-size="14.04" font-family="Times New Roman"><tspan y="-458.47" x="296.81 300.75523 304.60218 310.10585 317.16795 321.00086 328.06297 334.29673 338.97206 345.10755 352.07139 359.13349 363.0787 366.5887 370.5059 379.87059 387.78913 395.70768 399.65293 406.71504 412.9488 416.89405 427.5785 433.81227 440.8884 446.39207 453.3559 458.85957 462.8048 469.76866 476.83076 483.7946 487.7398 491.68507 495.532 499.47724 506.44108 510.3863 514.33157 525.0159 531.2497 538.32589 542.17288 549.235 556.2971 559.6527">tish kerakki, C++ da mahsus bool tipi mavjud. </tspan></text>
</g>
<clipPath id="cp36060">
<path transform="matrix(1,0,0,-1,0,841.92)" d="M .000008871 0 L 595.32 0 L 595.32 841.92 L .000008871 841.92 Z " fill-rule="evenodd"/>
</clipPath>
<g clip-path="url(#cp36060)">
<text xml:space="preserve" transform="matrix(1 0 -0 1 0 841.92)" font-size="14.04" font-family="Times New Roman"><tspan y="-434.35" x="85.104 94.46867 101.53079 108.24191 112.088878 116.03412 122.997959 130.06008 136.18152 143.14536 147.09059 153.80171">Bu tipdagi o</tspan></text>
</g>
<clipPath id="cp36061">
<path transform="matrix(1,0,0,-1,0,841.92)" d="M .000008871 0 L 595.32 0 L 595.32 841.92 L .000008871 841.92 Z " fill-rule="evenodd"/>
</clipPath>
<g clip-path="url(#cp36061)">
<text xml:space="preserve" transform="matrix(1 0 -0 1 0 841.92)" font-size="14.04" font-family="Times New Roman"><tspan y="-434.35" x="160.94">&#x2019;</tspan></text>
</g>
<clipPath id="cp36062">
<path transform="matrix(1,0,0,-1,0,841.92)" d="M .000008871 0 L 595.32 0 L 595.32 841.92 L .000008871 841.92 Z " fill-rule="evenodd"/>
</clipPath>
<g clip-path="url(#cp36062)">
<text xml:space="preserve" transform="matrix(1 0 -0 1 0 841.92)" font-size="14.04" font-family="Times New Roman"><tspan y="-434.35" x="165.5 171.73377 178.80994 185.0437 189.6067 196.57054 203.53438 209.76815 216.84432 220.69127 224.6365 230.87027 235.43328 242.39711 246.34235 253.30619 260.3683 267.0794 273.91688 280.97898 285.6543 292.73045 298.9642 309.64866 313.59388 320.5577">zgaruvchilarning yordamida</tspan></text>
</g>
<clipPath id="cp36063">
<path transform="matrix(1,0,0,-1,0,841.92)" d="M .000008871 0 L 595.32 0 L 595.32 841.92 L .000008871 841.92 Z " fill-rule="evenodd"/>
</clipPath>
<g clip-path="url(#cp36063)">
<text xml:space="preserve" transform="matrix(1 0 -0 1 0 841.92)" font-size="14.04" font-family="Times New Roman"><tspan y="-434.35" x="326.95"> </tspan></text>
</g>
<clipPath id="cp36064">
<path transform="matrix(1,0,0,-1,0,841.92)" d="M .000008871 0 L 595.32 0 L 595.32 841.92 L .000008871 841.92 Z " fill-rule="evenodd"/>
</clipPath>
<g clip-path="url(#cp36064)">
<text xml:space="preserve" transform="matrix(1 0 -0 1 0 841.92)" font-size="14.04" font-family="Times New Roman"><tspan y="-434.35" x="333.67 340.73213 347.69596 351.64118 358.3523 363.02763 373.71208 379.94584 387.02198 390.9672 394.81416 401.87626 405.82148 412.65895 417.33427 424.04539 430.27915 434.95448 438.80143 443.58909 454.27354 460.5073 464.4525 468.39775 475.36158 481.59535 487.00074 490.94596 497.9098 501.855">bul (mantiqiy) arifmetikasini </tspan></text>
</g>
<clipPath id="cp36065">
<path transform="matrix(1,0,0,-1,0,841.92)" d="M .000008871 0 L 595.32 0 L 595.32 841.92 L .000008871 841.92 Z " fill-rule="evenodd"/>
</clipPath>
<g clip-path="url(#cp36065)">
<text xml:space="preserve" transform="matrix(1 0 -0 1 0 841.92)" font-size="14.04" font-family="Times New Roman"><tspan y="-434.35" x="508.78 515.01376 525.6981 531.9319 535.87716 542.9393 549.17306 559.9838">amalgam </tspan></text>
</g>
<clipPath id="cp36066">
<path transform="matrix(1,0,0,-1,0,841.92)" d="M .000008871 0 L 595.32 0 L 595.32 841.92 L .000008871 841.92 Z " fill-rule="evenodd"/>
</clipPath>
<g clip-path="url(#cp36066)">
<text xml:space="preserve" transform="matrix(1 0 -0 1 0 841.92)" font-size="14.04" font-family="Times New Roman"><tspan y="-410.23" x="85.104 92.166118 97.57152 104.535358 108.4806 113.15592 117.002887 122.50657 129.56868 136.0411 146.72556 153.91405 164.5985 171.66062 175.60585 182.66797 186.17797 192.49596 199.55808 206.52191 213.58403 217.52927 223.87534">oshirish mumkin. bool o</tspan></text>
</g>
<clipPath id="cp36067">
<path transform="matrix(1,0,0,-1,0,841.92)" d="M .000008871 0 L 595.32 0 L 595.32 841.92 L .000008871 841.92 Z " fill-rule="evenodd"/>
</clipPath>
<g clip-path="url(#cp36067)">
<text xml:space="preserve" transform="matrix(1 0 -0 1 0 841.92)" font-size="14.04" font-family="Times New Roman"><tspan y="-410.23" x="231.17">&#x2019;</tspan></text>
</g>
<clipPath id="cp36068">
<path transform="matrix(1,0,0,-1,0,841.92)" d="M .000008871 0 L 595.32 0 L 595.32 841.92 L .000008871 841.92 Z " fill-rule="evenodd"/>
</clipPath>
<g clip-path="url(#cp36068)">
<text xml:space="preserve" transform="matrix(1 0 -0 1 0 841.92)" font-size="14.04" font-family="Times New Roman"><tspan y="-410.23" x="235.73 241.96376 249.03993 255.2737 259.83668 266.89878 273.8626 280.09638 287.0602 291.00544 294.8524 301.08616 305.76148 312.23393 316.90925 323.03068 330.09278 336.32655 340.27177 346.61787 350.56309 355.12608 362.18818 368.42195 374.89439 381.73185 388.79396 395.85606 399.80128 406.2737 410.94905 417.07048 420.91743 426.42109 432.65486 439.00096 446.06306 450.00828 456.9721 467.65657 473.89033 477.83555 481.78077 488.01454 492.68986 496.5368 503.50065 507.44587 513.91836 520.8822 524.82748 528.67446 534.07986 541.14199 545.0872 551.2087 555.884 559.6046">zgaruvchilar faqat true yoki false qiymatlarini olishlari </tspan></text>
</g>
<clipPath id="cp36069">
<path transform="matrix(1,0,0,-1,0,841.92)" d="M .000008871 0 L 595.32 0 L 595.32 841.92 L .000008871 841.92 Z " fill-rule="evenodd"/>
</clipPath>
<g clip-path="url(#cp36069)">
<text xml:space="preserve" transform="matrix(1 0 -0 1 0 841.92)" font-size="14.04" font-family="Times New Roman"><tspan y="-386.09" x="85.104 95.78844 102.97691 113.661357 120.72347 124.66872 131.73084 135.24083 141.67115 145.61638 150.2917 154.23694 160.35839 164.30362 169.70902 175.94278 182.4152 190.22145 198.72969 208.09438 218.1751 228.25582 236.77809 246.85881 256.22349 266.3042 274.11045 278.78578 285.24418 289.1894 293.86473 300.33717 307.39927 311.34449 317.69059 324.7527">mumkin. if/else STRUKTURASI if ni qo</tspan></text>
</g>
<clipPath id="cp36070">
<path transform="matrix(1,0,0,-1,0,841.92)" d="M .000008871 0 L 595.32 0 L 595.32 841.92 L .000008871 841.92 Z " fill-rule="evenodd"/>
</clipPath>
<g clip-path="url(#cp36070)">
<text xml:space="preserve" transform="matrix(1 0 -0 1 0 841.92)" font-size="14.04" font-family="Times New Roman"><tspan y="-386.09" x="332.11">&#x2019;</tspan></text>
</g>
<clipPath id="cp36071">
<path transform="matrix(1,0,0,-1,0,841.92)" d="M .000008871 0 L 595.32 0 L 595.32 841.92 L .000008871 841.92 Z " fill-rule="evenodd"/>
</clipPath>
<g clip-path="url(#cp36071)">
<text xml:space="preserve" transform="matrix(1 0 -0 1 0 841.92)" font-size="14.04" font-family="Times New Roman"><tspan y="-386.09" x="336.67 340.51698 344.4622 350.58363 357.64573 363.8795 370.84333 374.78855 385.473 389.4182 395.65199 402.72813 408.96189 415.43434 419.37956 423.94255 430.90638 437.8702 444.10398 450.57643 455.25175 461.4855 468.56166 474.68309 478.6283 485.10075 490.50614 497.56825 503.802 508.365 512.31027 518.7827 525.7466 531.98037 538.9442 542.7912 549.85336 556.0871 559.80776">llaganimizda ifoda faqat shart haqiqat </tspan></text>
</g>
<clipPath id="cp36072">
<path transform="matrix(1,0,0,-1,0,841.92)" d="M .000008871 0 L 595.32 0 L 595.32 841.92 L .000008871 841.92 Z " fill-rule="evenodd"/>
</clipPath>
<g clip-path="url(#cp36072)">
<text xml:space="preserve" transform="matrix(1 0 -0 1 0 841.92)" font-size="14.04" font-family="Times New Roman"><tspan y="-361.97" x="85.104 92.184">bo</tspan></text>
</g>
<clipPath id="cp36073">
<path transform="matrix(1,0,0,-1,0,841.92)" d="M .000008871 0 L 595.32 0 L 595.32 841.92 L .000008871 841.92 Z " fill-rule="evenodd"/>
</clipPath>
<g clip-path="url(#cp36073)">
<text xml:space="preserve" transform="matrix(1 0 -0 1 0 841.92)" font-size="14.04" font-family="Times New Roman"><tspan y="-361.97" x="99.264">&#x2019;</tspan></text>
</g>
<clipPath id="cp36074">
<path transform="matrix(1,0,0,-1,0,841.92)" d="M .000008871 0 L 595.32 0 L 595.32 841.92 L .000008871 841.92 Z " fill-rule="evenodd"/>
</clipPath>
<g clip-path="url(#cp36074)">
<text xml:space="preserve" transform="matrix(1 0 -0 1 0 841.92)" font-size="14.04" font-family="Times New Roman"><tspan y="-361.97" x="103.82 107.66696 114.72908 120.85052 127.912639 134.97475 141.09619 148.06003 152.00527 158.9691 165.20287 171.31026 178.37238 184.60614 188.4531 194.68686 199.24987 203.09682 206.94377 213.17754 220.25371 224.19895 227.70894 233.6619 239.89566 246.8595 252.36318 258.47059 265.43443 272.39826 276.34349 283.3073 289.54109 295.6485 299.59373 305.71516 311.12055 318.18266 322.12788 328.2493 335.3114 339.15837 346.22047 352.2015">lgandagina bajariladi, aks holda tashlanib o</tspan></text>
</g>
<clipPath id="cp36075">
<path transform="matrix(1,0,0,-1,0,841.92)" d="M .000008871 0 L 595.32 0 L 595.32 841.92 L .000008871 841.92 Z " fill-rule="evenodd"/>
</clipPath>
<g clip-path="url(#cp36075)">
<text xml:space="preserve" transform="matrix(1 0 -0 1 0 841.92)" font-size="14.04" font-family="Times New Roman"><tspan y="-361.97" x="359.59">&#x2019;</tspan></text>
</g>
<clipPath id="cp36076">
<path transform="matrix(1,0,0,-1,0,841.92)" d="M .000008871 0 L 595.32 0 L 595.32 841.92 L .000008871 841.92 Z " fill-rule="evenodd"/>
</clipPath>
<g clip-path="url(#cp36076)">
<text xml:space="preserve" transform="matrix(1 0 -0 1 0 841.92)" font-size="14.04" font-family="Times New Roman"><tspan y="-361.97" x="364.15 368.0952 372.04045 375.8874 382.12117 389.085 393.0302 396.54023 402.61955 406.4665 411.1418 415.08705 421.20848 425.05543 430.55909 436.79286 442.90028 449.8641 456.9262 461.60154 468.56538 474.79914 485.48359 489.4288 496.4909 502.72468 508.8321 515.06588 520.58358 526.8173 532.81246 538.21786 545.27999 551.51376 555.96438 559.81137">tiladi. if/else yordamida esa shart </tspan></text>
</g>
<clipPath id="cp36077">
<path transform="matrix(1,0,0,-1,0,841.92)" d="M .000008871 0 L 595.32 0 L 595.32 841.92 L .000008871 841.92 Z " fill-rule="evenodd"/>
</clipPath>
<g clip-path="url(#cp36077)">
<text xml:space="preserve" transform="matrix(1 0 -0 1 0 841.92)" font-size="14.04" font-family="Times New Roman"><tspan y="-337.73" x="85.104 92.166118 98.39987 102.24683 108.48059 113.155918">bajari</tspan></text>
</g>
<clipPath id="cp36078">
<path transform="matrix(1,0,0,-1,0,841.92)" d="M .000008871 0 L 595.32 0 L 595.32 841.92 L .000008871 841.92 Z " fill-rule="evenodd"/>
</clipPath>
<g clip-path="url(#cp36078)">
<text xml:space="preserve" transform="matrix(1 0 -0 1 0 841.92)" font-size="14.04" font-family="Times New Roman"><tspan y="-337.73" x="117.02 120.96524 131.64969 137.88346 144.95963 151.19339 158.15723 165.21935 171.45311 178.76795 183.44327 188.11859 194.25408 198.19931 203.6047 209.83847 217.1533 224.21543 230.33687 234.2821 238.22734 242.0743 248.30806 255.6229 261.74433 268.80644 272.65339 279.61723 286.67933 292.80076 299.86286 306.92497 313.0464 317.7217 324.9102 331.14396 335.08918 340.49458 346.72834 354.04319 361.1053 365.66828 372.73039 378.8518 382.79704 386.74226 393.93074 400.89457 407.95668 413.36207 420.3259 427.388 433.62178 440.81025 447.87236 451.81758 456.4929 463.80775 470.6452">lmaganda (false natija chiqqanda) else orqali boshqa bir yo</tspan></text>
</g>
<clipPath id="cp36079">
<path transform="matrix(1,0,0,-1,0,841.92)" d="M .000008871 0 L 595.32 0 L 595.32 841.92 L .000008871 841.92 Z " fill-rule="evenodd"/>
</clipPath>
<g clip-path="url(#cp36079)">
<text xml:space="preserve" transform="matrix(1 0 -0 1 0 841.92)" font-size="14.04" font-family="Times New Roman"><tspan y="-337.73" x="478.18">&#x2019;</tspan></text>
</g>
<clipPath id="cp36080">
<path transform="matrix(1,0,0,-1,0,841.92)" d="M .000008871 0 L 595.32 0 L 595.32 841.92 L .000008871 841.92 Z " fill-rule="evenodd"/>
</clipPath>
<g clip-path="url(#cp36080)">
<text xml:space="preserve" transform="matrix(1 0 -0 1 0 841.92)" font-size="14.04" font-family="Times New Roman"><tspan y="-337.73" x="482.74 486.6852 493.7473 499.86875 506.93086 514.1193 521.18148 528.2436 532.8066 536.65359 542.1572 549.1211 556.08499 559.93197">ldan borishni </tspan></text>
</g>
<clipPath id="cp36081">
<path transform="matrix(1,0,0,-1,0,841.92)" d="M .000008871 0 L 595.32 0 L 595.32 841.92 L .000008871 841.92 Z " fill-rule="evenodd"/>
</clipPath>
<g clip-path="url(#cp36081)">
<text xml:space="preserve" transform="matrix(1 0 -0 1 0 841.92)" font-size="14.04" font-family="Times New Roman"><tspan y="-313.61" x="85.104 92.166118 98.39987 102.24683 109.21067 113.155918 117.00288 123.23663 128.64203 135.70415 142.2889 152.97335 160.16184 170.84629 177.9084 181.85364 188.91576 192.42575 198.98242 211.46399 215.40923 220.81462 227.77846 231.7237 235.66893 246.35338 250.29862 256.53239 263.49623 267.44145 274.0262 277.97145 284.09288 291.15498 298.21708 308.90153 312.84675 316.79197 320.63893 326.87269 332.39039 339.35423 343.20118 347.1464 351.82173 357.2271 363.46089 370.53703 374.04704 380.60374 389.84205 396.90415 400.7511 406.98487 413.58369 420.64579 427.23057 434.06803 441.13014 446.6338 453.6959 460.28068 467.11814 474.18025 481.14408 485.0893 491.67408 498.6379 505.7 512.6639 518.89767 525.9738 532.4463 539.5084 545.6299 549.47689 553.32388 559.4453">belgilash mumkin. Misolimizni takomillashtirsak. Bola 7 yosh yoki undan katta </tspan></text>
</g>
<clipPath id="cp36082">
<path transform="matrix(1,0,0,-1,0,841.92)" d="M .000008871 0 L 595.32 0 L 595.32 841.92 L .000008871 841.92 Z " fill-rule="evenodd"/>
</clipPath>
<g clip-path="url(#cp36082)">
<text xml:space="preserve" transform="matrix(1 0 -0 1 0 841.92)" font-size="14.04" font-family="Times New Roman"><tspan y="-289.49" x="85.104 92.184">bo</tspan></text>
</g>
<clipPath id="cp36083">
<path transform="matrix(1,0,0,-1,0,841.92)" d="M .000008871 0 L 595.32 0 L 595.32 841.92 L .000008871 841.92 Z " fill-rule="evenodd"/>
</clipPath>
<g clip-path="url(#cp36083)">
<text xml:space="preserve" transform="matrix(1 0 -0 1 0 841.92)" font-size="14.04" font-family="Times New Roman"><tspan y="-289.49" x="99.264">&#x2019;</tspan></text>
</g>
<clipPath id="cp36084">
<path transform="matrix(1,0,0,-1,0,841.92)" d="M .000008871 0 L 595.32 0 L 595.32 841.92 L .000008871 841.92 Z " fill-rule="evenodd"/>
</clipPath>
<g clip-path="url(#cp36084)">
<text xml:space="preserve" transform="matrix(1 0 -0 1 0 841.92)" font-size="14.04" font-family="Times New Roman"><tspan y="-289.49" x="103.82 107.66696 113.17065 119.4044 123.95337 134.63782 140.87158 147.94776 151.89299 158.12676 165.09059 172.15271 178.38648 181.89647 186.30503 193.36714 197.91609 204.87993 211.1137 218.18987 222.73882 229.70265 233.64789 239.76934 246.73317 253.79529 257.64225 264.70436 270.9381 275.37477 282.43687">lsa maktabga, 7 dan kichkina bo</tspan></text>
</g>
<clipPath id="cp36085">
<path transform="matrix(1,0,0,-1,0,841.92)" d="M .000008871 0 L 595.32 0 L 595.32 841.92 L .000008871 841.92 Z " fill-rule="evenodd"/>
</clipPath>
<g clip-path="url(#cp36085)">
<text xml:space="preserve" transform="matrix(1 0 -0 1 0 841.92)" font-size="14.04" font-family="Times New Roman"><tspan y="-289.49" x="289.73">&#x2019;</tspan></text>
</g>
<clipPath id="cp36086">
<path transform="matrix(1,0,0,-1,0,841.92)" d="M .000008871 0 L 595.32 0 L 595.32 841.92 L .000008871 841.92 Z " fill-rule="evenodd"/>
</clipPath>
<g clip-path="url(#cp36086)">
<text xml:space="preserve" transform="matrix(1 0 -0 1 0 841.92)" font-size="14.04" font-family="Times New Roman"><tspan y="-289.49" x="294.29 298.13697 303.64064 309.8744 314.42338 321.3872 328.4493">lsa bog</tspan></text>
</g>
<clipPath id="cp36087">
<path transform="matrix(1,0,0,-1,0,841.92)" d="M .000008871 0 L 595.32 0 L 595.32 841.92 L .000008871 841.92 Z " fill-rule="evenodd"/>
</clipPath>
<g clip-path="url(#cp36087)">
<text xml:space="preserve" transform="matrix(1 0 -0 1 0 841.92)" font-size="14.04" font-family="Times New Roman"><tspan y="-289.49" x="335.59">&#x2019;</tspan></text>
</g>
<clipPath id="cp36088">
<path transform="matrix(1,0,0,-1,0,841.92)" d="M .000008871 0 L 595.32 0 L 595.32 841.92 L .000008871 841.92 Z " fill-rule="evenodd"/>
</clipPath>
<g clip-path="url(#cp36088)">
<text xml:space="preserve" transform="matrix(1 0 -0 1 0 841.92)" font-size="14.04" font-family="Times New Roman"><tspan y="-289.49" x="340.15 346.38377 353.3476 359.58137 366.6575 372.89128 377.3279 384.29176 391.35386 396.02919 401.43458 405.28153 412.34364 415.85365 420.37455 424.31977 428.9951 433.54408 438.10707 444.94453 452.00663 457.51029 464.5724 469.12138 477.03993 484.95848 489.38108 496.44319 501.1185 505.66749 516.35189 522.58566 529.6618 533.60708 539.8408 546.917 551.48 556.04299 559.7636">chaga borsin. if (yosh &#x003e;= 7) maktab(); </tspan></text>
</g>
<clipPath id="cp36089">
<path transform="matrix(1,0,0,-1,0,841.92)" d="M .000008871 0 L 595.32 0 L 595.32 841.92 L .000008871 841.92 Z " fill-rule="evenodd"/>
</clipPath>
<g clip-path="url(#cp36089)">
<text xml:space="preserve" transform="matrix(1 0 -0 1 0 841.92)" font-size="14.04" font-family="Times New Roman"><tspan y="-265.37" x="85.104 89.04924 92.8962 99.95832 106.92216 113.885997 117.83124">//nuqta</tspan></text>
</g>
<clipPath id="cp36090">
<path transform="matrix(1,0,0,-1,0,841.92)" d="M .000008871 0 L 595.32 0 L 595.32 841.92 L .000008871 841.92 Z " fill-rule="evenodd"/>
</clipPath>
<g clip-path="url(#cp36090)">
<text xml:space="preserve" transform="matrix(1 0 -0 1 0 841.92)" font-size="14.04" font-family="Times New Roman"><tspan y="-265.37" x="124.1">-</tspan></text>
</g>
<clipPath id="cp36091">
<path transform="matrix(1,0,0,-1,0,841.92)" d="M .000008871 0 L 595.32 0 L 595.32 841.92 L .000008871 841.92 Z " fill-rule="evenodd"/>
</clipPath>
<g clip-path="url(#cp36091)">
<text xml:space="preserve" transform="matrix(1 0 -0 1 0 841.92)" font-size="14.04" font-family="Times New Roman"><tspan y="-265.37" x="128.66 135.72212 141.95589 146.51889 153.58101 160.54485 164.49008 169.03903 179.72348 185.95725 189.8042 196.86632 203.92844 208.60376">vergul majburi</tspan></text>
</g>
<clipPath id="cp36092">
<path transform="matrix(1,0,0,-1,0,841.92)" d="M .000008871 0 L 595.32 0 L 595.32 841.92 L .000008871 841.92 Z " fill-rule="evenodd"/>
</clipPath>
<g clip-path="url(#cp36092)">
<text xml:space="preserve" transform="matrix(1 0 -0 1 0 841.92)" font-size="14.04" font-family="Times New Roman"><tspan y="-265.37" x="212.69 219.52748 226.5896 230.53484 235.21016 239.75911 245.88056 249.82579 255.32947 261.56324 265.99989 272.9637 280.02583 287.08793 293.20936 300.27146 306.50523 311.0682 315.74354 319.68876 324.11137 334.19209 341.25419 348.21803 355.28013 359.95545 363.8024 370.8645 377.09828 381.5349 385.48014 390.15547 394.5921 401.6542 407.88798 412.43696 416.2839 422.51768 429.4815 433.42674 438.83213 445.79597 449.74119 453.6864 458.109 465.1711">ydir else bogcha(); Yuqorida if ga tegishli bo</tspan></text>
</g>
<clipPath id="cp36093">
<path transform="matrix(1,0,0,-1,0,841.92)" d="M .000008871 0 L 595.32 0 L 595.32 841.92 L .000008871 841.92 Z " fill-rule="evenodd"/>
</clipPath>
<g clip-path="url(#cp36093)">
<text xml:space="preserve" transform="matrix(1 0 -0 1 0 841.92)" font-size="14.04" font-family="Times New Roman"><tspan y="-265.37" x="472.66">&#x2019;</tspan></text>
</g>
<clipPath id="cp36094">
<path transform="matrix(1,0,0,-1,0,841.92)" d="M .000008871 0 L 595.32 0 L 595.32 841.92 L .000008871 841.92 Z " fill-rule="evenodd"/>
</clipPath>
<g clip-path="url(#cp36094)">
<text xml:space="preserve" transform="matrix(1 0 -0 1 0 841.92)" font-size="14.04" font-family="Times New Roman"><tspan y="-265.37" x="477.22 481.06697 488.12907 494.2505 501.3126 505.86158 512.82546 516.6724 523.73458 530.7967 535.2193 542.28146 546.1284 549.9754 553.8224 559.94387">lgan blok bitta </tspan></text>
</g>
<clipPath id="cp36095">
<path transform="matrix(1,0,0,-1,0,841.92)" d="M .000008871 0 L 595.32 0 L 595.32 841.92 L .000008871 841.92 Z " fill-rule="evenodd"/>
</clipPath>
<g clip-path="url(#cp36095)">
<text xml:space="preserve" transform="matrix(1 0 -0 1 0 841.92)" font-size="14.04" font-family="Times New Roman"><tspan y="-241.13" x="85.104 89.04924 93.72456 100.6884 107.75052 113.871959 120.934078 127.05551 134.11763 140.4637 145.13903 155.82347 162.05724 169.1334 173.07865 179.31241 186.27625 190.95157 195.62689 200.30222 206.53597 210.4812 217.44504 224.50716 229.18248 235.30393 239.24916 242.75916 249.07715 256.8834 263.8332 270.8953 277.11503 282.61869 288.85246 295.81629 302.05006 309.0139 312.9591 316.90434 323.12406 330.18617 337.15 344.11384 348.05906">ifodadan (maktab()) iborat. Shu sababli nuqta</tspan></text>
</g>
<clipPath id="cp36096">
<path transform="matrix(1,0,0,-1,0,841.92)" d="M .000008871 0 L 595.32 0 L 595.32 841.92 L .000008871 841.92 Z " fill-rule="evenodd"/>
</clipPath>
<g clip-path="url(#cp36096)">
<text xml:space="preserve" transform="matrix(1 0 -0 1 0 841.92)" font-size="14.04" font-family="Times New Roman"><tspan y="-241.13" x="354.67">-</tspan></text>
</g>
<clipPath id="cp36097">
<path transform="matrix(1,0,0,-1,0,841.92)" d="M .000008871 0 L 595.32 0 L 595.32 841.92 L .000008871 841.92 Z " fill-rule="evenodd"/>
</clipPath>
<g clip-path="url(#cp36097)">
<text xml:space="preserve" transform="matrix(1 0 -0 1 0 841.92)" font-size="14.04" font-family="Times New Roman"><tspan y="-241.13" x="359.23 366.2921 372.52589 377.08888 384.15098 391.1148 395.06004 401.40614 408.36997">vergul qo</tspan></text>
</g>
<clipPath id="cp36098">
<path transform="matrix(1,0,0,-1,0,841.92)" d="M .000008871 0 L 595.32 0 L 595.32 841.92 L .000008871 841.92 Z " fill-rule="evenodd"/>
</clipPath>
<g clip-path="url(#cp36098)">
<text xml:space="preserve" transform="matrix(1 0 -0 1 0 841.92)" font-size="14.04" font-family="Times New Roman"><tspan y="-241.13" x="415.51">&#x2019;</tspan></text>
</g>
<clipPath id="cp36099">
<path transform="matrix(1,0,0,-1,0,841.92)" d="M .000008871 0 L 595.32 0 L 595.32 841.92 L .000008871 841.92 Z " fill-rule="evenodd"/>
</clipPath>
<g clip-path="url(#cp36099)">
<text xml:space="preserve" transform="matrix(1 0 -0 1 0 841.92)" font-size="14.04" font-family="Times New Roman"><tspan y="-241.13" x="420.07 426.90748 430.8527 434.7979 438.74314 444.14854 451.21064 455.15586 461.37559 466.87925 473.84309 480.07685 484.75218 488.71144 492.22145 498.53947 507.77778 514.74166 521.8038 525.749 532.0951 538.32888 545.1804 549.1257 552.8463 559.8102">yilishi shart. Buni aytib </tspan></text>
</g>
<clipPath id="cp36100">
<path transform="matrix(1,0,0,-1,0,841.92)" d="M .000008871 0 L 595.32 0 L 595.32 841.92 L .000008871 841.92 Z " fill-rule="evenodd"/>
</clipPath>
<g clip-path="url(#cp36100)">
<text xml:space="preserve" transform="matrix(1 0 -0 1 0 841.92)" font-size="14.04" font-family="Times New Roman"><tspan y="-216.98" x="85.104">o</tspan></text>
</g>
<clipPath id="cp36101">
<path transform="matrix(1,0,0,-1,0,841.92)" d="M .000008871 0 L 595.32 0 L 595.32 841.92 L .000008871 841.92 Z " fill-rule="evenodd"/>
</clipPath>
<g clip-path="url(#cp36101)">
<text xml:space="preserve" transform="matrix(1 0 -0 1 0 841.92)" font-size="14.04" font-family="Times New Roman"><tspan y="-216.98" x="92.184">&#x2019;</tspan></text>
</g>
<clipPath id="cp36102">
<path transform="matrix(1,0,0,-1,0,841.92)" d="M .000008871 0 L 595.32 0 L 595.32 841.92 L .000008871 841.92 Z " fill-rule="evenodd"/>
</clipPath>
<g clip-path="url(#cp36102)">
<text xml:space="preserve" transform="matrix(1 0 -0 1 0 841.92)" font-size="14.04" font-family="Times New Roman"><tspan y="-216.98" x="96.744 100.68925 104.53621 110.039897 117.00373 120.948978 131.63343 135.57866 141.81243 148.8886 152.73555 159.79767 166.7615 171.54914 177.05281 183.17426 190.23638 196.35782 203.32166 207.16861 210.6786 215.55048 226.23493 232.46869 237.98642 244.22019 248.16542 252.95305 260.75929 266.86668 272.37034 278.6041 284.72554 288.57249 295.63459 301.86836 306.54368 313.60578 319.83955 325.96098 333.02308 337.68437 344.74647 350.98023 355.65556 361.06095 367.2947 371.97004 379.03215">tishimizning sababi, masal Pascalda hech narsa qo</tspan></text>
</g>
<clipPath id="cp36103">
<path transform="matrix(1,0,0,-1,0,841.92)" d="M .000008871 0 L 595.32 0 L 595.32 841.92 L .000008871 841.92 Z " fill-rule="evenodd"/>
</clipPath>
<g clip-path="url(#cp36103)">
<text xml:space="preserve" transform="matrix(1 0 -0 1 0 841.92)" font-size="14.04" font-family="Times New Roman"><tspan y="-216.98" x="386.47">&#x2019;</tspan></text>
</g>
<clipPath id="cp36104">
<path transform="matrix(1,0,0,-1,0,841.92)" d="M .000008871 0 L 595.32 0 L 595.32 841.92 L .000008871 841.92 Z " fill-rule="evenodd"/>
</clipPath>
<g clip-path="url(#cp36104)">
<text xml:space="preserve" transform="matrix(1 0 -0 1 0 841.92)" font-size="14.04" font-family="Times New Roman"><tspan y="-216.98" x="391.03 397.86747 401.81269 405.88429 416.56874 422.8025 428.3202 432.2654 436.11238 443.0762 446.92317 451.71083 457.21449 464.1783 470.41209 475.0874 479.04667 482.55668 487.18989 496.55458 504.4731 512.39169 517.053 524.1151 530.3489 535.02426 542.08639 545.93338 549.78036 553.7256 559.84707">yilmasligi shart. C++ da bitta </tspan></text>
</g>
<clipPath id="cp36105">
<path transform="matrix(1,0,0,-1,0,841.92)" d="M .000008871 0 L 595.32 0 L 595.32 841.92 L .000008871 841.92 Z " fill-rule="evenodd"/>
</clipPath>
<g clip-path="url(#cp36105)">
<text xml:space="preserve" transform="matrix(1 0 -0 1 0 841.92)" font-size="14.04" font-family="Times New Roman"><tspan y="-192.86" x="85.104 89.04924 93.72456 100.6884 106.192089 112.42584 119.26332 123.11028 130.1724 134.7354 141.79752 148.03128 155.10746 161.9309 165.77785 172.83997 179.67745 186.73957 192.97333 199.8108 203.65776 208.33309 215.40926 222.3731 228.60686 232.5521 238.67354 243.34886">ifosa turgan joyga ifodalar </tspan></text>
</g>
<clipPath id="cp36106">
<path transform="matrix(1,0,0,-1,0,841.92)" d="M .000008871 0 L 595.32 0 L 595.32 841.92 L .000008871 841.92 Z " fill-rule="evenodd"/>
</clipPath>
<g clip-path="url(#cp36106)">
<text xml:space="preserve" transform="matrix(1 0 -0 1 0 841.92)" font-size="14.04" font-family="Times New Roman"><tspan y="-192.86" x="250.37 257.4321 264.4942 269.0572 276.02104 283.08314 286.93009 293.89393 297.83915 304.6626 311.4018 318.141 325.04869 332.11079 338.2322 345.2943 350.6997 354.64494 360.8787 365.44169 372.50379 378.73756 385.57505 392.53889 396.4841 400.33106 407.39317 414.357 420.59077 427.6669 434.49037 441.4542 448.5163 452.36326 459.42536 465.65913 472.4966 479.46046">guruhini {} qavslarda olingan holda qo</tspan></text>
</g>
<clipPath id="cp36107">
<path transform="matrix(1,0,0,-1,0,841.92)" d="M .000008871 0 L 595.32 0 L 595.32 841.92 L .000008871 841.92 Z " fill-rule="evenodd"/>
</clipPath>
<g clip-path="url(#cp36107)">
<text xml:space="preserve" transform="matrix(1 0 -0 1 0 841.92)" font-size="14.04" font-family="Times New Roman"><tspan y="-192.86" x="486.82">&#x2019;</tspan></text>
</g>
<clipPath id="cp36108">
<path transform="matrix(1,0,0,-1,0,841.92)" d="M .000008871 0 L 595.32 0 L 595.32 841.92 L .000008871 841.92 Z " fill-rule="evenodd"/>
</clipPath>
<g clip-path="url(#cp36108)">
<text xml:space="preserve" transform="matrix(1 0 -0 1 0 841.92)" font-size="14.04" font-family="Times New Roman"><tspan y="-192.86" x="491.38 498.21748 503.72114 509.9549 516.79238 523.8545">ysa bo</tspan></text>
</g>
<clipPath id="cp36109">
<path transform="matrix(1,0,0,-1,0,841.92)" d="M .000008871 0 L 595.32 0 L 595.32 841.92 L .000008871 841.92 Z " fill-rule="evenodd"/>
</clipPath>
<g clip-path="url(#cp36109)">
<text xml:space="preserve" transform="matrix(1 0 -0 1 0 841.92)" font-size="14.04" font-family="Times New Roman"><tspan y="-192.86" x="530.98">&#x2019;</tspan></text>
</g>
<clipPath id="cp36110">
<path transform="matrix(1,0,0,-1,0,841.92)" d="M .000008871 0 L 595.32 0 L 595.32 841.92 L .000008871 841.92 Z " fill-rule="evenodd"/>
</clipPath>
<g clip-path="url(#cp36110)">
<text xml:space="preserve" transform="matrix(1 0 -0 1 0 841.92)" font-size="14.04" font-family="Times New Roman"><tspan y="-192.86" x="535.54 539.4852 545.719 552.79519 556.64218 559.99777">ladi. </tspan></text>
</g>
<clipPath id="cp36111">
<path transform="matrix(1,0,0,-1,0,841.92)" d="M .000008871 0 L 595.32 0 L 595.32 841.92 L .000008871 841.92 Z " fill-rule="evenodd"/>
</clipPath>
<g clip-path="url(#cp36111)">
<text xml:space="preserve" transform="matrix(1 0 -0 1 0 841.92)" font-size="14.04" font-family="Times New Roman"><tspan y="-168.74" x="85.104 97.585559 103.81931 109.323 115.444438 119.38968 125.511119 132.57323 136.51847 144.1843 148.12953 152.80486 160.59705 165.27237 172.12389 179.186 184.5914 191.65352 199.44571 207.25196 215.17052 222.9627 230.02483 234.70015 241.43935 249.2175 255.33895 262.3028 269.3649 273.31013 280.97599 288.89454 296.81309 304.6053 310.33363 322.73097 328.8524 335.9145 339.8597 345.98115 352.94499 360.00709 366.24085">Masalan: if (yosh &#x003e;= 7){ cout &#x003c;&#x003c; "Maktabga!</tspan></text>
</g>
<clipPath id="cp36112">
<path transform="matrix(1,0,0,-1,0,841.92)" d="M .000008871 0 L 595.32 0 L 595.32 841.92 L .000008871 841.92 Z " fill-rule="evenodd"/>
</clipPath>
<g clip-path="url(#cp36112)">
<text xml:space="preserve" transform="matrix(1 0 -0 1 0 841.92)" font-size="14.04" font-family="Times New Roman"><tspan y="-168.74" x="371.11">\</tspan></text>
</g>
<clipPath id="cp36113">
<path transform="matrix(1,0,0,-1,0,841.92)" d="M .000008871 0 L 595.32 0 L 595.32 841.92 L .000008871 841.92 Z " fill-rule="evenodd"/>
</clipPath>
<g clip-path="url(#cp36113)">
<text xml:space="preserve" transform="matrix(1 0 -0 1 0 841.92)" font-size="14.04" font-family="Times New Roman"><tspan y="-168.74" x="375.07 382.03385 387.76219 391.73548 399.52769 410.21214 416.4459 423.52204 427.46726 433.58869 440.6508 445.3261 449.8891 453.83433 461.62654 468.36573 476.12986 482.25129 486.1965 491.70018 497.93394 504.67314 512.32498 518.5587 525.5226 532.48648 536.4317 544.22396 552.0302 559.8365">n"; maktab(); } else{ cout &#x003c;&#x003c; </tspan></text>
</g>
<clipPath id="cp36114">
<path transform="matrix(1,0,0,-1,0,841.92)" d="M .000008871 0 L 595.32 0 L 595.32 841.92 L .000008871 841.92 Z " fill-rule="evenodd"/>
</clipPath>
<g clip-path="url(#cp36114)">
<text xml:space="preserve" transform="matrix(1 0 -0 1 0 841.92)" font-size="14.04" font-family="Times New Roman"><tspan y="-144.5" x="85.104 90.83231 100.19699 107.21699">"Bog</tspan></text>
</g>
<clipPath id="cp36115">
<path transform="matrix(1,0,0,-1,0,841.92)" d="M .000008871 0 L 595.32 0 L 595.32 841.92 L .000008871 841.92 Z " fill-rule="evenodd"/>
</clipPath>
<g clip-path="url(#cp36115)">
<text xml:space="preserve" transform="matrix(1 0 -0 1 0 841.92)" font-size="14.04" font-family="Times New Roman"><tspan y="-144.5" x="114.26">&#x2019;</tspan></text>
</g>
<clipPath id="cp36116">
<path transform="matrix(1,0,0,-1,0,841.92)" d="M .000008871 0 L 595.32 0 L 595.32 841.92 L .000008871 841.92 Z " fill-rule="evenodd"/>
</clipPath>
<g clip-path="url(#cp36116)">
<text xml:space="preserve" transform="matrix(1 0 -0 1 0 841.92)" font-size="14.04" font-family="Times New Roman"><tspan y="-144.5" x="118.82 125.05376 132.12993 138.25138 145.31349 151.54726">chaga!</tspan></text>
</g>
<clipPath id="cp36117">
<path transform="matrix(1,0,0,-1,0,841.92)" d="M .000008871 0 L 595.32 0 L 595.32 841.92 L .000008871 841.92 Z " fill-rule="evenodd"/>
</clipPath>
<g clip-path="url(#cp36117)">
<text xml:space="preserve" transform="matrix(1 0 -0 1 0 841.92)" font-size="14.04" font-family="Times New Roman"><tspan y="-144.5" x="156.14">\</tspan></text>
</g>
<clipPath id="cp36118">
<path transform="matrix(1,0,0,-1,0,841.92)" d="M .000008871 0 L 595.32 0 L 595.32 841.92 L .000008871 841.92 Z " fill-rule="evenodd"/>
</clipPath>
<g clip-path="url(#cp36118)">
<text xml:space="preserve" transform="matrix(1 0 -0 1 0 841.92)" font-size="14.04" font-family="Times New Roman"><tspan y="-144.5" x="160.1 167.06385 172.79216 176.76549 183.8276 190.88973 197.85356 204.8174 211.05117 218.12734 224.3611 229.03643 233.61347 237.5587 244.74718 251.48638 258.64677 268.72749 274.23115 278.0781 282.02333 288.98716 295.22093 302.4094 309.4715 315.70527 320.38059 327.45677 334.51887 341.4827 345.42793 356.11238 363.30085 370.04005 376.84944 384.0379 391.1 397.33378 404.2976 409.80128 413.7465 419.86793 424.54325 431.50709 435.4523 442.64079 449.6046">n"; bogcha(); } Aslida har doim {} qavslarni qo</tspan></text>
</g>
<clipPath id="cp36119">
<path transform="matrix(1,0,0,-1,0,841.92)" d="M .000008871 0 L 595.32 0 L 595.32 841.92 L .000008871 841.92 Z " fill-rule="evenodd"/>
</clipPath>
<g clip-path="url(#cp36119)">
<text xml:space="preserve" transform="matrix(1 0 -0 1 0 841.92)" font-size="14.04" font-family="Times New Roman"><tspan y="-144.5" x="457.06">&#x2019;</tspan></text>
</g>
<clipPath id="cp36120">
<path transform="matrix(1,0,0,-1,0,841.92)" d="M .000008871 0 L 595.32 0 L 595.32 841.92 L .000008871 841.92 Z " fill-rule="evenodd"/>
</clipPath>
<g clip-path="url(#cp36120)">
<text xml:space="preserve" transform="matrix(1 0 -0 1 0 841.92)" font-size="14.04" font-family="Times New Roman"><tspan y="-144.5" x="461.74 468.57746 472.52268 478.02635 485.08845 492.27693 499.11439 505.34815 512.4243 517.8297 524.89187 528.8371 535.89926 542.96139 549.92526 556.0467 559.8937">yish yahshi odat </tspan></text>
</g>
<clipPath id="cp36121">
<path transform="matrix(1,0,0,-1,0,841.92)" d="M .000008871 0 L 595.32 0 L 595.32 841.92 L .000008871 841.92 Z " fill-rule="evenodd"/>
</clipPath>
<g clip-path="url(#cp36121)">
<text xml:space="preserve" transform="matrix(1 0 -0 1 0 841.92)" font-size="14.04" font-family="Times New Roman"><tspan y="-120.38" x="85.104 92.166118 96.01308 101.41848 108.4806 115.444438 119.38968 125.511119 132.57323 138.80699 145.77083 149.61779 153.56302 159.0667 166.12882 172.36258 179.2141 183.15933 190.22145 196.3429 203.30673 209.5405 213.48574 217.33269 224.3948 229.89849 236.86232 240.80756 245.48288 251.11292 254.95987 259.6352 266.59904 273.66114 279.8949 285.41264 289.25959 296.3217 300.997 307.96086 314.1946 321.15846 326.78849 330.63545 337.69755 344.535 351.5971 357.83088 363.4609 370.42475">hisoblanadi; keyinchalik bir ifoda turgan joyga qo</tspan></text>
</g>
<clipPath id="cp36122">
<path transform="matrix(1,0,0,-1,0,841.92)" d="M .000008871 0 L 595.32 0 L 595.32 841.92 L .000008871 841.92 Z " fill-rule="evenodd"/>
</clipPath>
<g clip-path="url(#cp36122)">
<text xml:space="preserve" transform="matrix(1 0 -0 1 0 841.92)" font-size="14.04" font-family="Times New Roman"><tspan y="-120.38" x="377.83">&#x2019;</tspan></text>
</g>
<clipPath id="cp36123">
<path transform="matrix(1,0,0,-1,0,841.92)" d="M .000008871 0 L 595.32 0 L 595.32 841.92 L .000008871 841.92 Z " fill-rule="evenodd"/>
</clipPath>
<g clip-path="url(#cp36123)">
<text xml:space="preserve" transform="matrix(1 0 -0 1 0 841.92)" font-size="14.04" font-family="Times New Roman"><tspan y="-120.38" x="382.39 387.90998">sh</tspan></text>
</g>
<clipPath id="cp36124">
<path transform="matrix(1,0,0,-1,0,841.92)" d="M .000008871 0 L 595.32 0 L 595.32 841.92 L .000008871 841.92 Z " fill-rule="evenodd"/>
</clipPath>
<g clip-path="url(#cp36124)">
<text xml:space="preserve" transform="matrix(1 0 -0 1 0 841.92)" font-size="14.04" font-family="Times New Roman"><tspan y="-120.38" x="394.87 398.81523 409.49967 415.73344 422.80958 429.04335 434.67338 441.6372 445.58244 449.42939 453.3746 460.33845 467.40055 473.52198 480.4858 487.5479 493.78169 499.2994 506.3615 512.483 519.5451 524.9505 528.89578 535.1295 539.6925 546.75466 552.8761 559.83999">imcha qilinganda qavslardan </tspan></text>
</g>
<clipPath id="cp36125">
<path transform="matrix(1,0,0,-1,0,841.92)" d="M .000008871 0 L 595.32 0 L 595.32 841.92 L .000008871 841.92 Z " fill-rule="evenodd"/>
</clipPath>
<g clip-path="url(#cp36125)">
<text xml:space="preserve" transform="matrix(1 0 -0 1 0 841.92)" font-size="14.04" font-family="Times New Roman"><tspan y="-96.264" x="85.104 92.166118 96.11136 100.67436 104.619609 108.12961 115.06536 122.0292 129.09131 132.93827 136.78522 140.73046 144.57741 151.63953 155.14952 162.08528 169.04912 172.99436 183.6788 190.02489 196.86237 204.05086 207.9961">biri unutilib qolmaydi.</tspan></text>
</g>
<clipPath id="cp36126">
<path transform="matrix(1,0,0,-1,0,841.92)" d="M .000008871 0 L 595.32 0 L 595.32 841.92 L .000008871 841.92 Z " fill-rule="evenodd"/>
</clipPath>
<g clip-path="url(#cp36126)">
<text xml:space="preserve" transform="matrix(1 0 -0 1 0 841.92)" font-size="14.04" font-family="Times New Roman"><tspan y="-96.264" x="211.61"> </tspan></text>
</g>
<clipPath id="cp36127">
<path transform="matrix(1,0,0,-1,0,841.92)" d="M .000008871 0 L 595.32 0 L 595.32 841.92 L .000008871 841.92 Z " fill-rule="evenodd"/>
</clipPath>
<g clip-path="url(#cp36127)">
<text xml:space="preserve" transform="matrix(1 0 -0 1 0 841.92)" font-size="14.04" font-family="Times New Roman"><tspan y="-96.264" x="215.09"> </tspan></text>
</g>
</g>
</g>
</g>
</svg>
