<?xml version="1.0" encoding="UTF-8" standalone="no"?>
<!DOCTYPE svg PUBLIC "-//W3C//DTD SVG 1.1//EN" "http://www.w3.org/Graphics/SVG/1.1/DTD/svg11.dtd">
<svg xmlns="http://www.w3.org/2000/svg" xmlns:xlink="http://www.w3.org/1999/xlink" version="1.1" width="595.32pt" height="841.92pt" viewBox="0 0 595.32 841.92">
<g enable-background="new">
<g>
<g id="Layer-1" data-name="Artifact">
<clipPath id="cp36128">
<path transform="matrix(1,0,0,-1,0,841.92)" d="M .000008871 0 L 595.32 0 L 595.32 841.92 L .000008871 841.92 Z " fill-rule="evenodd"/>
</clipPath>
<g clip-path="url(#cp36128)">
<text xml:space="preserve" transform="matrix(1 0 -0 1 0 841.92)" font-size="11.04" font-family="Calibri"><tspan y="-51.864" x="314.09 319.72999 325.36997">227</tspan></text>
</g>
<clipPath id="cp36129">
<path transform="matrix(1,0,0,-1,0,841.92)" d="M .000008871 0 L 595.32 0 L 595.32 841.92 L .000008871 841.92 Z " fill-rule="evenodd"/>
</clipPath>
<g clip-path="url(#cp36129)">
<text xml:space="preserve" transform="matrix(1 0 -0 1 0 841.92)" font-size="11.04" font-family="Calibri"><tspan y="-51.864" x="331.03"> </tspan></text>
</g>
<clipPath id="cp36130">
<path transform="matrix(1,0,0,-1,0,841.92)" d="M .000008871 0 L 595.32 0 L 595.32 841.92 L .000008871 841.92 Z " fill-rule="evenodd"/>
</clipPath>
<g clip-path="url(#cp36130)">
</g>
<clipPath id="cp36131">
<path transform="matrix(1,0,0,-1,0,841.92)" d="M .000008871 0 L 595.32 0 L 595.32 841.92 L .000008871 841.92 Z " fill-rule="evenodd"/>
</clipPath>
<g clip-path="url(#cp36131)">
<text xml:space="preserve" transform="matrix(1 0 -0 1 0 841.92)" font-size="11.04" font-family="Calibri"><tspan y="-38.4" x="85.104"> </tspan></text>
</g>
<clipPath id="cp36132">
<path transform="matrix(1,0,0,-1,0,841.92)" d="M .000008871 0 L 595.32 0 L 595.32 841.92 L .000008871 841.92 Z " fill-rule="evenodd"/>
</clipPath>
<g clip-path="url(#cp36132)">
</g>
</g>
<g id="Layer-1" data-name="P">
<clipPath id="cp36133">
<path transform="matrix(1,0,0,-1,0,841.92)" d="M .000008871 0 L 595.32 0 L 595.32 841.92 L .000008871 841.92 Z " fill-rule="evenodd"/>
</clipPath>
<g clip-path="url(#cp36133)">
<text xml:space="preserve" transform="matrix(1 0 -0 1 0 841.92)" font-size="14.04" font-family="Times New Roman"><tspan y="-772.56" x="113.42 121.22624 125.171489 129.73448 136.7966 143.85872 148.42173 155.48384 160.15917 166.28061 170.22585 174.17108 178.24268 185.3048 191.42624 196.92992 200.77687 207.83899 212.51432 216.36127 222.59503 228.00043 234.96427 242.02639 245.87334 252.83718 259.8993 264.08323 270.9207 277.15446 284.2306 290.46437 294.66233 301.72444 305.66966 310.34498 314.5289 321.591 327.82478 332.38777 338.62153 345.58537 349.53059 355.652 360.32734 364.27256 368.21778 372.4017 376.24867 383.31077 390.14823 394.09346 398.27738 403.78105 410.74488 417.80699 424.7708 431.83293 437.95436 444.91819 448.8634 453.04734 456.99256 463.11399 470.1761 477.13993 481.08515 487.9226 494.15638 498.1016 503.60527 507.55049 514.388 520.62179 524.1318 528.2876 535.34976">Strukrurali dasturlashning yana bir harakterli joyi shundaki tabulyatsiya, bo</tspan></text>
</g>
<clipPath id="cp36134">
<path transform="matrix(1,0,0,-1,0,841.92)" d="M .000008871 0 L 595.32 0 L 595.32 841.92 L .000008871 841.92 Z " fill-rule="evenodd"/>
</clipPath>
<g clip-path="url(#cp36134)">
<text xml:space="preserve" transform="matrix(1 0 -0 1 0 841.92)" font-size="14.04" font-family="Times New Roman"><tspan y="-772.56" x="543.1">&#x2019;</tspan></text>
</g>
<clipPath id="cp36135">
<path transform="matrix(1,0,0,-1,0,841.92)" d="M .000008871 0 L 595.32 0 L 595.32 841.92 L .000008871 841.92 Z " fill-rule="evenodd"/>
</clipPath>
<g clip-path="url(#cp36135)">
<text xml:space="preserve" transform="matrix(1 0 -0 1 0 841.92)" font-size="14.04" font-family="Times New Roman"><tspan y="-772.56" x="547.66 553.05996 560.0183">sh </tspan></text>
</g>
<clipPath id="cp36136">
<path transform="matrix(1,0,0,-1,0,841.92)" d="M .000008871 0 L 595.32 0 L 595.32 841.92 L .000008871 841.92 Z " fill-rule="evenodd"/>
</clipPath>
<g clip-path="url(#cp36136)">
<text xml:space="preserve" transform="matrix(1 0 -0 1 0 841.92)" font-size="14.04" font-family="Times New Roman"><tspan y="-748.3" x="85.104 88.95096 96.01308 102.97691 110.516399 117.578517 123.81227 131.47812 138.3156 144.54936 151.62554 158.58937 162.5346 170.07408 175.57776 181.81153 185.65848 190.3338 194.27904 200.40048 204.96349 212.50296 219.56508">joy va yangi satrlar ko</tspan></text>
</g>
<clipPath id="cp36137">
<path transform="matrix(1,0,0,-1,0,841.92)" d="M .000008871 0 L 595.32 0 L 595.32 841.92 L .000008871 841.92 Z " fill-rule="evenodd"/>
</clipPath>
<g clip-path="url(#cp36137)">
<text xml:space="preserve" transform="matrix(1 0 -0 1 0 841.92)" font-size="14.04" font-family="Times New Roman"><tspan y="-748.3" x="226.85">&#x2019;</tspan></text>
</g>
<clipPath id="cp36138">
<path transform="matrix(1,0,0,-1,0,841.92)" d="M .000008871 0 L 595.32 0 L 595.32 841.92 L .000008871 841.92 Z " fill-rule="evenodd"/>
</clipPath>
<g clip-path="url(#cp36138)">
<text xml:space="preserve" transform="matrix(1 0 -0 1 0 841.92)" font-size="14.04" font-family="Times New Roman"><tspan y="-748.3" x="231.41 238.47212 246.0116 253.07372">p qo</tspan></text>
</g>
<clipPath id="cp36139">
<path transform="matrix(1,0,0,-1,0,841.92)" d="M .000008871 0 L 595.32 0 L 595.32 841.92 L .000008871 841.92 Z " fill-rule="evenodd"/>
</clipPath>
<g clip-path="url(#cp36139)">
<text xml:space="preserve" transform="matrix(1 0 -0 1 0 841.92)" font-size="14.04" font-family="Times New Roman"><tspan y="-748.3" x="260.21">&#x2019;</tspan></text>
</g>
<clipPath id="cp36140">
<path transform="matrix(1,0,0,-1,0,841.92)" d="M .000008871 0 L 595.32 0 L 595.32 841.92 L .000008871 841.92 Z " fill-rule="evenodd"/>
</clipPath>
<g clip-path="url(#cp36140)">
<text xml:space="preserve" transform="matrix(1 0 -0 1 0 841.92)" font-size="14.04" font-family="Times New Roman"><tspan y="-748.3" x="264.77 268.61695 272.56217 278.6836 285.7457 289.59266 293.53788 299.6593 306.7214 310.66664 314.17665 321.5757 330.9404 338.0025 345.542 352.6041 357.16709 364.2292 371.19303 375.86836 382.1021 392.9129 403.59736 409.83113 416.90727 420.85249 428.39198">llaniladi. Bu programmani o</tspan></text>
</g>
<clipPath id="cp36141">
<path transform="matrix(1,0,0,-1,0,841.92)" d="M .000008871 0 L 595.32 0 L 595.32 841.92 L .000008871 841.92 Z " fill-rule="evenodd"/>
</clipPath>
<g clip-path="url(#cp36141)">
<text xml:space="preserve" transform="matrix(1 0 -0 1 0 841.92)" font-size="14.04" font-family="Times New Roman"><tspan y="-748.3" x="435.67">&#x2019;</tspan></text>
</g>
<clipPath id="cp36142">
<path transform="matrix(1,0,0,-1,0,841.92)" d="M .000008871 0 L 595.32 0 L 595.32 841.92 L .000008871 841.92 Z " fill-rule="evenodd"/>
</clipPath>
<g clip-path="url(#cp36142)">
<text xml:space="preserve" transform="matrix(1 0 -0 1 0 841.92)" font-size="14.04" font-family="Times New Roman"><tspan y="-748.3" x="440.35 447.4121 451.25907 456.66447 463.72657 470.6904 474.63563 482.1751 489.2372 494.6426 501.60646 508.66856 512.5155 518.74929 524.15469 531.2168 535.0638 539.00906 543.572 547.5173 552.92269 559.88656">qishni osonlashtirish </tspan></text>
</g>
<clipPath id="cp36143">
<path transform="matrix(1,0,0,-1,0,841.92)" d="M .000008871 0 L 595.32 0 L 595.32 841.92 L .000008871 841.92 Z " fill-rule="evenodd"/>
</clipPath>
<g clip-path="url(#cp36143)">
<text xml:space="preserve" transform="matrix(1 0 -0 1 0 841.92)" font-size="14.04" font-family="Times New Roman"><tspan y="-724.18" x="85.104 92.166118 98.28755 105.34967 112.31351 119.375629 123.55955 130.52338 134.46862 138.31557 142.2608 149.22464 155.4584 162.42224 166.36748 169.87747 174.03331 183.398 191.31656 199.23513 203.41904 210.48116 216.6026 223.66472 230.62856 237.69068 241.87459 248.83843">uchun qilinadi. C++ uchun bo</tspan></text>
</g>
<clipPath id="cp36144">
<path transform="matrix(1,0,0,-1,0,841.92)" d="M .000008871 0 L 595.32 0 L 595.32 841.92 L .000008871 841.92 Z " fill-rule="evenodd"/>
</clipPath>
<g clip-path="url(#cp36144)">
<text xml:space="preserve" transform="matrix(1 0 -0 1 0 841.92)" font-size="14.04" font-family="Times New Roman"><tspan y="-724.18" x="256.13">&#x2019;</tspan></text>
</g>
<clipPath id="cp36145">
<path transform="matrix(1,0,0,-1,0,841.92)" d="M .000008871 0 L 595.32 0 L 595.32 841.92 L .000008871 841.92 Z " fill-rule="evenodd"/>
</clipPath>
<g clip-path="url(#cp36145)">
<text xml:space="preserve" transform="matrix(1 0 -0 1 0 841.92)" font-size="14.04" font-family="Times New Roman"><tspan y="-724.18" x="260.69 266.19367 273.25578 277.4397 281.28666 288.34877 295.18623 302.24833 306.19355 313.15739 320.21949 324.4034 331.4655 337.69929">sh joyning hec</tspan></text>
</g>
<clipPath id="cp36146">
<path transform="matrix(1,0,0,-1,0,841.92)" d="M .000008871 0 L 595.32 0 L 595.32 841.92 L .000008871 841.92 Z " fill-rule="evenodd"/>
</clipPath>
<g clip-path="url(#cp36146)">
<text xml:space="preserve" transform="matrix(1 0 -0 1 0 841.92)" font-size="14.04" font-family="Times New Roman"><tspan y="-724.18" x="343.99 351.0521 355.23603 361.4698 368.54594 374.7797 385.46415 389.40937 396.24684 402.4806 406.4258 410.37104 414.68135 421.5188">h ahamiyati yo</tspan></text>
</g>
<clipPath id="cp36147">
<path transform="matrix(1,0,0,-1,0,841.92)" d="M .000008871 0 L 595.32 0 L 595.32 841.92 L .000008871 841.92 Z " fill-rule="evenodd"/>
</clipPath>
<g clip-path="url(#cp36147)">
<text xml:space="preserve" transform="matrix(1 0 -0 1 0 841.92)" font-size="14.04" font-family="Times New Roman"><tspan y="-724.18" x="428.71">&#x2019;</tspan></text>
</g>
<clipPath id="cp36148">
<path transform="matrix(1,0,0,-1,0,841.92)" d="M .000008871 0 L 595.32 0 L 595.32 841.92 L .000008871 841.92 Z " fill-rule="evenodd"/>
</clipPath>
<g clip-path="url(#cp36148)">
<text xml:space="preserve" transform="matrix(1 0 -0 1 0 841.92)" font-size="14.04" font-family="Times New Roman"><tspan y="-724.18" x="433.27 440.3321 443.9123 448.09623 452.04145 458.2752 465.35136 469.1983 476.2604 480.44435 487.50645 493.62788 499.03327 502.9785 510.0406 514.6036 521.56747 525.5127 529.69668 533.6419 539.76339 546.8255 551.3885 555.2355 559.79849">q, lekin dasturni tahrir </tspan></text>
</g>
<clipPath id="cp36149">
<path transform="matrix(1,0,0,-1,0,841.92)" d="M .000008871 0 L 595.32 0 L 595.32 841.92 L .000008871 841.92 Z " fill-rule="evenodd"/>
</clipPath>
<g clip-path="url(#cp36149)">
<text xml:space="preserve" transform="matrix(1 0 -0 1 0 841.92)" font-size="14.04" font-family="Times New Roman"><tspan y="-700.06" x="85.104 92.166118 96.01308 99.95832 106.19208 113.043598 119.27735 123.222599 130.28472 136.40616 143.46828 150.89543 157.95755 165.01967 171.25344 181.93788 189 195.23377 202.78728 209.8494 216.91152 223.749 228.42432 235.50049 242.46433 246.40956 252.64333 257.31864 264.75987 271.7237 278.7858 283.46113 290.42497 297.3888 301.334 308.29786 312.24308 315.75309 323.2645 330.3266 334.17356 341.1374 348.1995 352.1447 358.26615 362.94148 369.9053 373.85054 381.39 385.33525 391.45668 398.4205 405.4826 409.42784 416.2653 422.49906 426.44429 431.84968 435.7949 442.63236 448.86613 456.41966 463.2571 470.3192 474.99455 482.07069 488.30445 498.9889 502.9341 509.99623 516.23 523.7835 530.0173 533.86428 538.53958 544.7733 548.7326 552.45327 559.4171">qilayatgan odamga buyruqlar guruhini, bloklarni tabulyatsiya yordamida ajratib </tspan></text>
</g>
<clipPath id="cp36150">
<path transform="matrix(1,0,0,-1,0,841.92)" d="M .000008871 0 L 595.32 0 L 595.32 841.92 L .000008871 841.92 Z " fill-rule="evenodd"/>
</clipPath>
<g clip-path="url(#cp36150)">
<text xml:space="preserve" transform="matrix(1 0 -0 1 0 841.92)" font-size="14.04" font-family="Times New Roman"><tspan y="-675.94" x="85.104 92.166118 98.39987 102.962879 108.46656 114.70032 121.776477 125.286479 128.61396 135.67607 142.63991 149.70203 155.93579 159.30539 166.36751 172.48896 176.43419 180.37943 186.61319 190.12319 196.93259 203.89643 208.57175 215.64792 221.88169 232.56613 236.07613 243.09613">bersak, unga katta yordam bo</tspan></text>
</g>
<clipPath id="cp36151">
<path transform="matrix(1,0,0,-1,0,841.92)" d="M .000008871 0 L 595.32 0 L 595.32 841.92 L .000008871 841.92 Z " fill-rule="evenodd"/>
</clipPath>
<g clip-path="url(#cp36151)">
<text xml:space="preserve" transform="matrix(1 0 -0 1 0 841.92)" font-size="14.04" font-family="Times New Roman"><tspan y="-675.94" x="250.37">&#x2019;</tspan></text>
</g>
<clipPath id="cp36152">
<path transform="matrix(1,0,0,-1,0,841.92)" d="M .000008871 0 L 595.32 0 L 595.32 841.92 L .000008871 841.92 Z " fill-rule="evenodd"/>
</clipPath>
<g clip-path="url(#cp36152)">
<text xml:space="preserve" transform="matrix(1 0 -0 1 0 841.92)" font-size="14.04" font-family="Times New Roman"><tspan y="-675.94" x="254.93 258.8752 265.10899 272.0728 276.01805 279.52806 282.9819 293.06263 300.12474 307.08857 314.15068 318.71366 322.5606 329.6227 335.74415 342.80625 346.6532 353.7153 357.66053 361.01609 367.97993 375.04203 381.8795 385.8247 392.8868 399.12059 406.0844 410.02964 416.15107 423.21318 429.44694 432.95695 439.8927 446.2388 456.92326 460.50346 467.3409 474.403 480.63679 484.582 489.9874 497.0495 500.5595 511.21589 518.40438 529.08877 536.1509 540.0961 547.15829 551.1035">ladi. Yuqoridagini quyidagicha ham yozish mumkin: </tspan></text>
</g>
<clipPath id="cp36153">
<path transform="matrix(1,0,0,-1,0,841.92)" d="M .000008871 0 L 595.32 0 L 595.32 841.92 L .000008871 841.92 Z " fill-rule="evenodd"/>
</clipPath>
<g clip-path="url(#cp36153)">
<text xml:space="preserve" transform="matrix(1 0 -0 1 0 841.92)" font-size="14.04" font-family="Times New Roman"><tspan y="-675.94" x="554.86"> </tspan></text>
</g>
</g>
<g id="Layer-1" data-name="P">
<clipPath id="cp36154">
<path transform="matrix(1,0,0,-1,0,841.92)" d="M .000008871 0 L 595.32 0 L 595.32 841.92 L .000008871 841.92 Z " fill-rule="evenodd"/>
</clipPath>
<g clip-path="url(#cp36154)">
<text xml:space="preserve" transform="matrix(1 0 -0 1 0 841.92)" font-size="14.04" font-family="Times New Roman"><tspan y="-651.7" x="113.42 117.36524 122.040569 126.71589 133.5674 140.62952 146.1332 153.09703 161.0156 168.82184 175.88396 180.55928 187.29848 193.40589 200.468 207.43184 211.37708 219.29564 227.10189 232.74596 245.22753 251.46129 258.42515 262.37037 268.4918 275.5539 282.616 288.73744">if(yosh&#x003e;=7){cout&#x003c;&#x003c;"Maktabga!</tspan></text>
</g>
<clipPath id="cp36155">
<path transform="matrix(1,0,0,-1,0,841.92)" d="M .000008871 0 L 595.32 0 L 595.32 841.92 L .000008871 841.92 Z " fill-rule="evenodd"/>
</clipPath>
<g clip-path="url(#cp36155)">
<text xml:space="preserve" transform="matrix(1 0 -0 1 0 841.92)" font-size="14.04" font-family="Times New Roman"><tspan y="-651.7" x="293.57">\</tspan></text>
</g>
<clipPath id="cp36156">
<path transform="matrix(1,0,0,-1,0,841.92)" d="M .000008871 0 L 595.32 0 L 595.32 841.92 L .000008871 841.92 Z " fill-rule="evenodd"/>
</clipPath>
<g clip-path="url(#cp36156)">
<text xml:space="preserve" transform="matrix(1 0 -0 1 0 841.92)" font-size="14.04" font-family="Times New Roman"><tspan y="-651.7" x="297.41 304.4721 310.1162 314.06144 324.74589 330.97966 338.0558 342.001 348.23478 355.1986 359.87394 364.54927 371.28846 377.52223 381.35514 386.8588 393.09257 399.83177 405.93916 413.00126 419.9651 423.9103 431.82887 439.63508 445.3634 454.62983 461.69194">n";maktab()}else{cout&#x003c;&#x003c;"Bog</tspan></text>
</g>
<clipPath id="cp36157">
<path transform="matrix(1,0,0,-1,0,841.92)" d="M .000008871 0 L 595.32 0 L 595.32 841.92 L .000008871 841.92 Z " fill-rule="evenodd"/>
</clipPath>
<g clip-path="url(#cp36157)">
<text xml:space="preserve" transform="matrix(1 0 -0 1 0 841.92)" font-size="14.04" font-family="Times New Roman"><tspan y="-651.7" x="468.94">&#x2019;</tspan></text>
</g>
<clipPath id="cp36158">
<path transform="matrix(1,0,0,-1,0,841.92)" d="M .000008871 0 L 595.32 0 L 595.32 841.92 L .000008871 841.92 Z " fill-rule="evenodd"/>
</clipPath>
<g clip-path="url(#cp36158)">
<text xml:space="preserve" transform="matrix(1 0 -0 1 0 841.92)" font-size="14.04" font-family="Times New Roman"><tspan y="-651.7" x="473.5 479.73377 486.8099 492.93135 499.99345 506.2272">chaga!</tspan></text>
</g>
<clipPath id="cp36159">
<path transform="matrix(1,0,0,-1,0,841.92)" d="M .000008871 0 L 595.32 0 L 595.32 841.92 L .000008871 841.92 Z " fill-rule="evenodd"/>
</clipPath>
<g clip-path="url(#cp36159)">
<text xml:space="preserve" transform="matrix(1 0 -0 1 0 841.92)" font-size="14.04" font-family="Times New Roman"><tspan y="-651.7" x="510.82">\</tspan></text>
</g>
<clipPath id="cp36160">
<path transform="matrix(1,0,0,-1,0,841.92)" d="M .000008871 0 L 595.32 0 L 595.32 841.92 L .000008871 841.92 Z " fill-rule="evenodd"/>
</clipPath>
<g clip-path="url(#cp36160)">
<text xml:space="preserve" transform="matrix(1 0 -0 1 0 841.92)" font-size="14.04" font-family="Times New Roman"><tspan y="-651.7" x="514.78 521.7439 527.4722 531.37539 538.2971 545.35928 552.3231">n";bogc</tspan></text>
</g>
<clipPath id="cp36161">
<path transform="matrix(1,0,0,-1,0,841.92)" d="M .000008871 0 L 595.32 0 L 595.32 841.92 L .000008871 841.92 Z " fill-rule="evenodd"/>
</clipPath>
<g clip-path="url(#cp36161)">
<text xml:space="preserve" transform="matrix(1 0 -0 1 0 841.92)" font-size="14.04" font-family="Times New Roman"><tspan y="-627.58" x="85.104 92.166118 98.39987 103.075199 107.75052 114.36336 118.3086 126.339488 135.70417 139.6494 144.2124 151.27452 158.33664 166.36751 173.33135 180.29518 187.3573 191.30254 199.3334">ha()}; Biroq buni o</tspan></text>
</g>
<clipPath id="cp36162">
<path transform="matrix(1,0,0,-1,0,841.92)" d="M .000008871 0 L 595.32 0 L 595.32 841.92 L .000008871 841.92 Z " fill-rule="evenodd"/>
</clipPath>
<g clip-path="url(#cp36162)">
<text xml:space="preserve" transform="matrix(1 0 -0 1 0 841.92)" font-size="14.04" font-family="Times New Roman"><tspan y="-627.58" x="206.45">&#x2019;</tspan></text>
</g>
<clipPath id="cp36163">
<path transform="matrix(1,0,0,-1,0,841.92)" d="M .000008871 0 L 595.32 0 L 595.32 841.92 L .000008871 841.92 Z " fill-rule="evenodd"/>
</clipPath>
<g clip-path="url(#cp36163)">
<text xml:space="preserve" transform="matrix(1 0 -0 1 0 841.92)" font-size="14.04" font-family="Times New Roman"><tspan y="-627.58" x="211.01 218.07212 222.01735 227.42275 234.48487 242.51573 248.7495 255.82567 261.94709 269.0092 275.24296 283.27384 293.95829 301.0204 305.6957 311.92948 319.0056 325.96946 332.20323 339.27937 347.31025 351.25547 356.66087 363.6247 370.6868 374.53376 379.20909 382.7191 390.7219 400.08659 408.00514 415.92369 423.95457 431.01667 437.25044 445.2813 449.22654 453.90187 457.7488 463.98258 467.82954 473.3332 479.56697 487.59785 493.00325 496.94847 501.62379 508.58763 515.55148 519.4967 526.55886 531.1218 537.3556 542.761 546.70626 553.54379 559.6652">qish ancha murakkab ishdir. C++ da if/else strukturasiga </tspan></text>
</g>
<clipPath id="cp36164">
<path transform="matrix(1,0,0,-1,0,841.92)" d="M .000008871 0 L 595.32 0 L 595.32 841.92 L .000008871 841.92 Z " fill-rule="evenodd"/>
</clipPath>
<g clip-path="url(#cp36164)">
<text xml:space="preserve" transform="matrix(1 0 -0 1 0 841.92)" font-size="14.04" font-family="Times New Roman"><tspan y="-603.46" x="85.104">o</tspan></text>
</g>
<clipPath id="cp36165">
<path transform="matrix(1,0,0,-1,0,841.92)" d="M .000008871 0 L 595.32 0 L 595.32 841.92 L .000008871 841.92 Z " fill-rule="evenodd"/>
</clipPath>
<g clip-path="url(#cp36165)">
<text xml:space="preserve" transform="matrix(1 0 -0 1 0 841.92)" font-size="14.04" font-family="Times New Roman"><tspan y="-603.46" x="92.184">&#x2019;</tspan></text>
</g>
<clipPath id="cp36166">
<path transform="matrix(1,0,0,-1,0,841.92)" d="M .000008871 0 L 595.32 0 L 595.32 841.92 L .000008871 841.92 Z " fill-rule="evenodd"/>
</clipPath>
<g clip-path="url(#cp36166)">
<text xml:space="preserve" transform="matrix(1 0 -0 1 0 841.92)" font-size="14.04" font-family="Times New Roman"><tspan y="-603.46" x="96.744 103.80612 109.211528 116.27364 122.39508 127.898769 134.96088 138.54108 144.77484 148.72008 152.42664 157.83203 164.89415 171.12792 175.69092 179.63616 183.34272 190.30655 197.36867 203.49011 208.16544 214.3992 218.24616 225.30828 229.9836 233.92884 237.63539 242.1984 248.43216 255.396 262.4581 269.42195 273.2689 277.2141 281.06108 288.0249 295.087 301.32078 305.266 308.8462 315.9083 322.87214 329.1059 333.78123 340.01499 343.87599 350.93809 355.6134 360.28874 363.88298 370.94508 377.17884 387.86329 391.56986 398.63197 405.69407 410.3694 417.33323 421.27845 425.95378 429.46379 433.14228 442.38059 449.4427 453.14927 462.51396 470.4325 478.35105 481.93125 488.99336 492.8403 499.9024 506.9645 510.5447 517.6068 521.4538 525.3008 529.24606 535.3675 542.4296 546.2766 553.2405 559.36196">hshash ?: shart operatori (conditional operator) ham bordir. Bu C++ ning bittagina </tspan></text>
</g>
<clipPath id="cp36167">
<path transform="matrix(1,0,0,-1,0,841.92)" d="M .000008871 0 L 595.32 0 L 595.32 841.92 L .000008871 841.92 Z " fill-rule="evenodd"/>
</clipPath>
<g clip-path="url(#cp36167)">
<text xml:space="preserve" transform="matrix(1 0 -0 1 0 841.92)" font-size="14.04" font-family="Times New Roman"><tspan y="-579.34" x="85.104 92.166118 98.28755 105.34967 109.294918 115.52867 121.52375 127.64519 132.32051 139.28435 146.34647 157.03092 163.26468 170.34085 174.28609 180.26712 187.23096 191.1762 198.14003 205.10387 211.33763 218.4138 222.35904 228.22776 235.19159 242.25371 248.48748 253.1628 259.29829 263.14524 270.20735 274.88267 278.82789 282.3379 288.29087 298.37159 304.493 311.5551 317.53617 324.5 331.5621 337.79588 342.4712 348.6067 355.57054 362.63264 368.61369 375.67579 381.90956 387.7783 393.1837 400.2458 406.47956 411.15489 415.11415 420.98289 427.94673 435.00883 441.24259 445.80558 452.03935 455.98457 462.9484 467.62373 471.56895 477.43769 482.94136 489.90519 496.13896 500.81428 504.77354 510.64228 514.5875 519.1505 526.21267 533.2748 539.39627 544.80166 548.7469 555.5844">uchta argument oluvchi operatori. Uch operand va shart operatori shart ifodasini</tspan></text>
</g>
<clipPath id="cp36168">
<path transform="matrix(1,0,0,-1,0,841.92)" d="M .000008871 0 L 595.32 0 L 595.32 841.92 L .000008871 841.92 Z " fill-rule="evenodd"/>
</clipPath>
<g clip-path="url(#cp36168)">
<text xml:space="preserve" transform="matrix(1 0 -0 1 0 841.92)" font-size="14.04" font-family="Times New Roman"><tspan y="-579.34" x="560.02"> </tspan></text>
</g>
<clipPath id="cp36169">
<path transform="matrix(1,0,0,-1,0,841.92)" d="M .000008871 0 L 595.32 0 L 595.32 841.92 L .000008871 841.92 Z " fill-rule="evenodd"/>
</clipPath>
<g clip-path="url(#cp36169)">
<text xml:space="preserve" transform="matrix(1 0 -0 1 0 841.92)" font-size="14.04" font-family="Times New Roman"><tspan y="-555.07" x="85.104 92.166118 98.39987 103.075199 109.21067 116.27279 120.21803 123.728038 129.44232 138.807 142.75225 147.31525 151.1622 158.22432 164.34577 171.40789 175.35312 181.09548 188.05931 195.12143 201.3552 205.9182 212.15196 219.1158 226.17792 232.04663 239.01047 243.68579 250.76197 256.8834 260.73036 264.67558 270.5443 275.9497 283.0118 289.24559 293.80857 297.65553 301.60075 312.2852 316.2304 322.46418 329.5403 333.48554 339.2279 346.29 352.52378 357.08677 363.32054 374.00498 377.9502 384.18397 387.69398 393.5346 398.20994 405.28608 412.2499 416.19514 423.15898 429.39274 436.35658 440.20353 446.07228 452.30604 456.98136 463.95924 471.02134 481.70579 487.93955 495.0157 498.9609 504.82966 510.23506 517.2972 523.53097 528.09396 532.0392 537.78158 541.7268 546.2898 553.3519 559.4734">beradi. Birinchi operand orqali shartimizni beramiz. Ikkinchi argument shart true </tspan></text>
</g>
<clipPath id="cp36170">
<path transform="matrix(1,0,0,-1,0,841.92)" d="M .000008871 0 L 595.32 0 L 595.32 841.92 L .000008871 841.92 Z " fill-rule="evenodd"/>
</clipPath>
<g clip-path="url(#cp36170)">
<text xml:space="preserve" transform="matrix(1 0 -0 1 0 841.92)" font-size="14.04" font-family="Times New Roman"><tspan y="-530.95" x="85.104 89.77932 96.85548 102.97691 110.03903 113.885997 120.94811 127.06955 131.01479 135.69011 142.63991 149.60375">(haqiqat) bo</tspan></text>
</g>
<clipPath id="cp36171">
<path transform="matrix(1,0,0,-1,0,841.92)" d="M .000008871 0 L 595.32 0 L 595.32 841.92 L .000008871 841.92 Z " fill-rule="evenodd"/>
</clipPath>
<g clip-path="url(#cp36171)">
<text xml:space="preserve" transform="matrix(1 0 -0 1 0 841.92)" font-size="14.04" font-family="Times New Roman"><tspan y="-530.95" x="156.74">&#x2019;</tspan></text>
</g>
<clipPath id="cp36172">
<path transform="matrix(1,0,0,-1,0,841.92)" d="M .000008871 0 L 595.32 0 L 595.32 841.92 L .000008871 841.92 Z " fill-rule="evenodd"/>
</clipPath>
<g clip-path="url(#cp36172)">
<text xml:space="preserve" transform="matrix(1 0 -0 1 0 841.92)" font-size="14.04" font-family="Times New Roman"><tspan y="-530.95" x="161.3 165.24524 169.0922 176.15431 183.10411 189.33788 196.30171 200.24695 207.21079 214.2729 220.39435 227.45647 234.51859 240.64003 247.60387 251.5491 258.4989 265.561 272.52485 276.3718 283.4339 290.496 297.4458 302.8512 309.9133 316.14707 320.71006 324.557 331.5068 335.45204 340.12736 347.0912 354.1533 360.38706 365.79246 369.6394 376.7015 380.54847 387.5123 394.5744 401.5242 405.37117 411.60493 418.68107 425.6449 432.707 439.6568 446.62065 450.56587 457.5297 468.21415 474.4479 478.39314 482.33836 489.40046 493.34568 498.021 501.531 508.45274 518.53347 524.7672 531.7311 535.67636 542.6402 548.87399 555.7255 559.5725">lib chiqqandagi butun shart ifodasining javob qiymatidir. Uchinchi </tspan></text>
</g>
<clipPath id="cp36173">
<path transform="matrix(1,0,0,-1,0,841.92)" d="M .000008871 0 L 595.32 0 L 595.32 841.92 L .000008871 841.92 Z " fill-rule="evenodd"/>
</clipPath>
<g clip-path="url(#cp36173)">
<text xml:space="preserve" transform="matrix(1 0 -0 1 0 841.92)" font-size="14.04" font-family="Times New Roman"><tspan y="-506.83" x="85.104 92.166118 99.12995 105.36371 110.03903 116.17451 123.236629 130.29874 133.6543 139.15798 146.12181 152.35558 157.0309 160.87786 164.82309 175.50754 179.45278 185.68654 189.19654 196.21654 202.47838 206.32534 212.5591 217.23442 221.08138 225.02661 235.71106 242.05715 249.02098 252.53098 257.2063 261.88163 268.1154 272.04658 277.55024 283.67167 288.347 291.857 298.79277 305.85487 309.7018 316.76393 322.88536 329.94746 336.9113 343.14506 350.1089 354.0541 357.56413 364.49989 371.4637 375.40895 382.37278 389.43489 392.9449 398.30818 405.37028 411.60404 416.16703 420.11225 423.62226 427.52537 432.11647 439.0803 446.1424 452.37617 457.78157 461.6285 468.6906 472.53758 479.5014 486.5635 490.07353 497.00929 500.9545 507.91835 518.6027 524.8365 528.78176 532.727 539.7891 543.7344 548.40969">operand shartimiz bajarilmay (false) qolgandagi butun shart ifodasining qiymatidir.</tspan></text>
</g>
<clipPath id="cp36174">
<path transform="matrix(1,0,0,-1,0,841.92)" d="M .000008871 0 L 595.32 0 L 595.32 841.92 L .000008871 841.92 Z " fill-rule="evenodd"/>
</clipPath>
<g clip-path="url(#cp36174)">
<text xml:space="preserve" transform="matrix(1 0 -0 1 0 841.92)" font-size="11.04" font-family="Times New Roman"><tspan y="-506.83" x="552.22"> </tspan></text>
</g>
</g>
<g id="Layer-1" data-name="P">
<clipPath id="cp36175">
<path transform="matrix(1,0,0,-1,0,841.92)" d="M .000008871 0 L 595.32 0 L 595.32 841.92 L .000008871 841.92 Z " fill-rule="evenodd"/>
</clipPath>
<g clip-path="url(#cp36175)">
<text xml:space="preserve" transform="matrix(1 0 -0 1 0 841.92)" font-size="14.04" font-family="Times New Roman"><tspan y="-482.71" x="113.42 117.36524 122.040569 125.88753 132.12129 135.96825 141.47193 147.70569 153.09705">if/else s</tspan></text>
</g>
<clipPath id="cp36176">
<path transform="matrix(1,0,0,-1,0,841.92)" d="M .000008871 0 L 595.32 0 L 595.32 841.92 L .000008871 841.92 Z " fill-rule="evenodd"/>
</clipPath>
<g clip-path="url(#cp36176)">
<text xml:space="preserve" transform="matrix(1 0 -0 1 0 841.92)" font-size="14.04" font-family="Times New Roman"><tspan y="-482.71" x="158.66 162.60524 167.16825 174.13208 181.1942 185.04116 192.10327 196.7786 202.90004 206.84528 213.07904 217.64205 221.58728 228.55112 232.39807 237.90175 244.96387 248.9091">trukturalarini bir</tspan></text>
</g>
<clipPath id="cp36177">
<path transform="matrix(1,0,0,-1,0,841.92)" d="M .000008871 0 L 595.32 0 L 595.32 841.92 L .000008871 841.92 Z " fill-rule="evenodd"/>
</clipPath>
<g clip-path="url(#cp36177)">
<text xml:space="preserve" transform="matrix(1 0 -0 1 0 841.92)" font-size="14.04" font-family="Times New Roman"><tspan y="-482.71" x="253.61">-</tspan></text>
</g>
<clipPath id="cp36178">
<path transform="matrix(1,0,0,-1,0,841.92)" d="M .000008871 0 L 595.32 0 L 595.32 841.92 L .000008871 841.92 Z " fill-rule="evenodd"/>
</clipPath>
<g clip-path="url(#cp36178)">
<text xml:space="preserve" transform="matrix(1 0 -0 1 0 841.92)" font-size="14.04" font-family="Times New Roman"><tspan y="-482.71" x="258.29 265.25386 269.19908 273.76206 277.70729 284.6711 288.61634 295.58018 302.64228 308.03364 311.97886 318.10029 325.16239 329.00935 336.07145 342.3052 347.82295 354.6604 361.7225 367.95628 371.80323 377.20863 384.27073 388.21595 398.9004 402.8456 409.07939 414.5971 425.28157 432.47004 443.15449 450.21659 454.1618 461.2239 464.73393 470.20954 479.57423 486.52403 493.58613 500.64823 506.882 512.2734 519.23727 523.1825 529.41629 534.09158 539.4829 546.54507 550.4903">birining ichida yozishimiz mumkin. Bunda ular bir</tspan></text>
</g>
<clipPath id="cp36179">
<path transform="matrix(1,0,0,-1,0,841.92)" d="M .000008871 0 L 595.32 0 L 595.32 841.92 L .000008871 841.92 Z " fill-rule="evenodd"/>
</clipPath>
<g clip-path="url(#cp36179)">
<text xml:space="preserve" transform="matrix(1 0 -0 1 0 841.92)" font-size="14.04" font-family="Times New Roman"><tspan y="-482.71" x="555.46">-</tspan></text>
</g>
<clipPath id="cp36180">
<path transform="matrix(1,0,0,-1,0,841.92)" d="M .000008871 0 L 595.32 0 L 595.32 841.92 L .000008871 841.92 Z " fill-rule="evenodd"/>
</clipPath>
<g clip-path="url(#cp36180)">
<text xml:space="preserve" transform="matrix(1 0 -0 1 0 841.92)" font-size="14.04" font-family="Times New Roman"><tspan y="-458.47" x="85.104 92.166118 96.11136 100.67436 104.521327 111.58344 117.8172 124.893367 131.95548 135.90071 142.02216 148.986 152.93123 159.99335 167.05547 174.11759 180.23903 184.18427 190.30571 197.36783 201.31307 204.66863 211.8571 224.33867 228.2839 233.6893 240.65314 244.59838 251.78685 258.7507 264.98448 271.9483 278.91215 285.97425 293.16273 297.10795 303.22938 309.46315 313.3101 317.15705 324.12089 331.18299 335.02995 341.99378 349.05589 356.24436 363.30647 369.4279 373.27485 377.22007 383.45384 387.30079 391.14775 398.20985 402.0568 409.1189 415.35267 422.42884 429.49095 435.7247 440.40003 446.53553 453.59764 460.7861 464.63307 470.86683 475.54216 479.5014 490.18586 496.41963 503.49577 507.44099 514.5031 521.56527 527.799 531.646 538.60989 542.5551 546.50039 552.4954 559.4593">biriga ulanib ketadi. Misol uchun tezlikning kattaligiga qarab jarimani belgilab </tspan></text>
</g>
<clipPath id="cp36181">
<path transform="matrix(1,0,0,-1,0,841.92)" d="M .000008871 0 L 595.32 0 L 595.32 841.92 L .000008871 841.92 Z " fill-rule="evenodd"/>
</clipPath>
<g clip-path="url(#cp36181)">
<text xml:space="preserve" transform="matrix(1 0 -0 1 0 841.92)" font-size="14.04" font-family="Times New Roman"><tspan y="-434.35" x="85.104 92.166118 98.39987 102.962879 110.024997 116.98883 123.22259 130.18642 134.13166 139.76169 146.8238 150.67076 157.73288 164.69672 171.66056 175.60579 181.34815 188.18563 195.24774 201.4815 207.60295 214.44043 218.38567 222.3309 229.39302 232.90302 238.6173 242.56253 247.23786 252.99425 257.55723 261.50245 267.7362 273.85765 277.7046 281.6498 288.7119 294.34196 302.2605 308.00288 314.9667 321.93055 328.89439 333.5697 339.3261 345.55989 352.5237 359.58583 363.53105 369.16108 377.07963 384.99818 390.74055 396.38465 401.8883 408.12208 412.68507 416.63029 427.31474 433.5485 439.3049 446.367 453.4291 460.39295 467.35679 474.41889 480.16127 485.56666">beruvchi blokni yozaylik. if (tezlik &#x003e; 120) cout &#x003c;&#x003c; "Jarima 10000 so</tspan></text>
</g>
<clipPath id="cp36182">
<path transform="matrix(1,0,0,-1,0,841.92)" d="M .000008871 0 L 595.32 0 L 595.32 841.92 L .000008871 841.92 Z " fill-rule="evenodd"/>
</clipPath>
<g clip-path="url(#cp36182)">
<text xml:space="preserve" transform="matrix(1 0 -0 1 0 841.92)" font-size="14.04" font-family="Times New Roman"><tspan y="-434.35" x="493.18">&#x2019;</tspan></text>
</g>
<clipPath id="cp36183">
<path transform="matrix(1,0,0,-1,0,841.92)" d="M .000008871 0 L 595.32 0 L 595.32 841.92 L .000008871 841.92 Z " fill-rule="evenodd"/>
</clipPath>
<g clip-path="url(#cp36183)">
<text xml:space="preserve" transform="matrix(1 0 -0 1 0 841.92)" font-size="14.04" font-family="Times New Roman"><tspan y="-434.35" x="497.86 508.54444 514.27279 518.2461 523.98849 530.2222 534.0692 539.5729 545.80667 551.4367 555.38198 559.94497">m"; else if </tspan></text>
</g>
<clipPath id="cp36184">
<path transform="matrix(1,0,0,-1,0,841.92)" d="M .000008871 0 L 595.32 0 L 595.32 841.92 L .000008871 841.92 Z " fill-rule="evenodd"/>
</clipPath>
<g clip-path="url(#cp36184)">
<text xml:space="preserve" transform="matrix(1 0 -0 1 0 841.92)" font-size="14.04" font-family="Times New Roman"><tspan y="-410.23" x="85.104 89.77932 93.72456 99.95832 106.07976 110.025 113.87196 120.93408 126.32545 134.244 139.63536 146.5992 153.56304 160.62516 165.30048 170.69184 176.9256 183.88944 190.85327 194.79851 200.18987 208.10843 216.027 221.41835 227.14667">(tezlik &#x003e; 100) cout &#x003c;&#x003c; "J</tspan></text>
</g>
<clipPath id="cp36185">
<path transform="matrix(1,0,0,-1,0,841.92)" d="M .000008871 0 L 595.32 0 L 595.32 841.92 L .000008871 841.92 Z " fill-rule="evenodd"/>
</clipPath>
<g clip-path="url(#cp36185)">
<text xml:space="preserve" transform="matrix(1 0 -0 1 0 841.92)" font-size="14.04" font-family="Times New Roman"><tspan y="-410.23" x="232.85 239.08377 243.64678 247.59201 258.27647 264.51023 269.90159 276.96369 284.0258 290.98963 298.05174 303.44309 308.84849">arima 7000 so</tspan></text>
</g>
<clipPath id="cp36186">
<path transform="matrix(1,0,0,-1,0,841.92)" d="M .000008871 0 L 595.32 0 L 595.32 841.92 L .000008871 841.92 Z " fill-rule="evenodd"/>
</clipPath>
<g clip-path="url(#cp36186)">
<text xml:space="preserve" transform="matrix(1 0 -0 1 0 841.92)" font-size="14.04" font-family="Times New Roman"><tspan y="-410.23" x="316.03">&#x2019;</tspan></text>
</g>
<clipPath id="cp36187">
<path transform="matrix(1,0,0,-1,0,841.92)" d="M .000008871 0 L 595.32 0 L 595.32 841.92 L .000008871 841.92 Z " fill-rule="evenodd"/>
</clipPath>
<g clip-path="url(#cp36187)">
<text xml:space="preserve" transform="matrix(1 0 -0 1 0 841.92)" font-size="14.04" font-family="Times New Roman"><tspan y="-410.23" x="320.59 331.27445 337.00279 340.97608 346.36744 352.6012 356.54643 362.05009 368.28385 373.6752 377.62043 382.29576 387.6871 392.36244 396.20939 402.44316 408.6769 412.52388 416.37083 423.43293 428.82429 436.74284 442.1342 449.1963 456.2584 460.93373 466.32508 472.4465 479.41035 486.47245 490.41767 495.80903 503.72758 511.64613 516.91116 522.63949 528.1712 534.40499 538.96798 542.9132 553.5976 559.71908">m"; else if (tezlik &#x003e; 85) cout &#x003c;&#x003c; "Jarima </tspan></text>
</g>
<clipPath id="cp36188">
<path transform="matrix(1,0,0,-1,0,841.92)" d="M .000008871 0 L 595.32 0 L 595.32 841.92 L .000008871 841.92 Z " fill-rule="evenodd"/>
</clipPath>
<g clip-path="url(#cp36188)">
<text xml:space="preserve" transform="matrix(1 0 -0 1 0 841.92)" font-size="14.04" font-family="Times New Roman"><tspan y="-386.09" x="85.104 92.166118 99.12995 106.09379 113.15591 120.218029 125.72171">3000 so</tspan></text>
</g>
<clipPath id="cp36189">
<path transform="matrix(1,0,0,-1,0,841.92)" d="M .000008871 0 L 595.32 0 L 595.32 841.92 L .000008871 841.92 Z " fill-rule="evenodd"/>
</clipPath>
<g clip-path="url(#cp36189)">
<text xml:space="preserve" transform="matrix(1 0 -0 1 0 841.92)" font-size="14.04" font-family="Times New Roman"><tspan y="-386.09" x="132.86">&#x2019;</tspan></text>
</g>
<clipPath id="cp36190">
<path transform="matrix(1,0,0,-1,0,841.92)" d="M .000008871 0 L 595.32 0 L 595.32 841.92 L .000008871 841.92 Z " fill-rule="evenodd"/>
</clipPath>
<g clip-path="url(#cp36190)">
<text xml:space="preserve" transform="matrix(1 0 -0 1 0 841.92)" font-size="14.04" font-family="Times New Roman"><tspan y="-386.09" x="137.42 148.10445 153.83277 157.80609 164.86821 171.10198 175.04721 180.55089 186.78466 193.86081 200.09458 207.05841 214.12053 218.06577 225.12789 233.04645 240.96501 248.02713 253.75545 262.3339 268.56767 274.80143 278.6203 282.46726 289.52937 296.5915 303.6536 310.61744 315.29277 326.10356 332.3373 339.41346 345.64723 351.29133 355.23655 362.29869 372.3794 379.4415 385.67527 390.3506 397.42677 401.37199 407.4934 413.72718 417.57414 421.51936 428.58146 435.6436 442.60743 449.66954 456.73164 463.79377 470.7576 476.99137 484.0675 491.12965 498.19175 504.31318 508.16014 512.10537 518.3391 525.4153 532.37918">m"; else cout &#x003c;&#x003c; "Tezlik normada"; Agar tezlik 120 dan katta bo</tspan></text>
</g>
<clipPath id="cp36191">
<path transform="matrix(1,0,0,-1,0,841.92)" d="M .000008871 0 L 595.32 0 L 595.32 841.92 L .000008871 841.92 Z " fill-rule="evenodd"/>
</clipPath>
<g clip-path="url(#cp36191)">
<text xml:space="preserve" transform="matrix(1 0 -0 1 0 841.92)" font-size="14.04" font-family="Times New Roman"><tspan y="-386.09" x="539.98">&#x2019;</tspan></text>
</g>
<clipPath id="cp36192">
<path transform="matrix(1,0,0,-1,0,841.92)" d="M .000008871 0 L 595.32 0 L 595.32 841.92 L .000008871 841.92 Z " fill-rule="evenodd"/>
</clipPath>
<g clip-path="url(#cp36192)">
<text xml:space="preserve" transform="matrix(1 0 -0 1 0 841.92)" font-size="14.04" font-family="Times New Roman"><tspan y="-386.09" x="544.54 548.4852 553.8906 560.0121">lsa </tspan></text>
</g>
<clipPath id="cp36193">
<path transform="matrix(1,0,0,-1,0,841.92)" d="M .000008871 0 L 595.32 0 L 595.32 841.92 L .000008871 841.92 Z " fill-rule="evenodd"/>
</clipPath>
<g clip-path="url(#cp36193)">
<text xml:space="preserve" transform="matrix(1 0 -0 1 0 841.92)" font-size="14.04" font-family="Times New Roman"><tspan y="-361.97" x="85.104 92.166118 96.11136 100.67436 104.521327 111.58344 117.70488 124.767 128.71224 134.10359 138.04883 142.61183 146.55707 152.67852 156.62375 162.12743 168.36119 173.64023 179.1439 183.08914 187.65215 194.61598 201.6781 205.52506 212.58718 217.2625 223.38394 228.88762 232.73458 239.79669 243.64365 250.60749 257.6696 263.06095 270.12306 276.24449 283.30659 287.15354 294.21565 300.33708 304.2823 309.67366 315.07905 322.04289 328.27665 332.95198 336.79893 340.74415 346.1355 353.1976 359.43138 363.27833 369.5121 374.1874 378.03437 381.97959 388.101 395.16313 399.10835 402.61836 407.9676 418.0483 424.28208 429.67344 436.73554 443.69938 449.09074 456.15284 463.21495 467.0619 474.124 480.35777 485.7491 491.98289 495.82984 502.89195 509.01338 512.86038 516.8056 523.03939 528.4307 532.376 538.60977 544.7312 548.67648 552.3971 559.36099">birinchi if/else strukturasining haqiqat sharti bajariladi. Va bu holda albatta tezlik </tspan></text>
</g>
<clipPath id="cp36194">
<path transform="matrix(1,0,0,-1,0,841.92)" d="M .000008871 0 L 595.32 0 L 595.32 841.92 L .000008871 841.92 Z " fill-rule="evenodd"/>
</clipPath>
<g clip-path="url(#cp36194)">
<text xml:space="preserve" transform="matrix(1 0 -0 1 0 841.92)" font-size="14.04" font-family="Times New Roman"><tspan y="-337.73" x="85.104">o</tspan></text>
</g>
<clipPath id="cp36195">
<path transform="matrix(1,0,0,-1,0,841.92)" d="M .000008871 0 L 595.32 0 L 595.32 841.92 L .000008871 841.92 Z " fill-rule="evenodd"/>
</clipPath>
<g clip-path="url(#cp36195)">
<text xml:space="preserve" transform="matrix(1 0 -0 1 0 841.92)" font-size="14.04" font-family="Times New Roman"><tspan y="-337.73" x="92.184">&#x2019;</tspan></text>
</g>
<clipPath id="cp36196">
<path transform="matrix(1,0,0,-1,0,841.92)" d="M .000008871 0 L 595.32 0 L 595.32 841.92 L .000008871 841.92 Z " fill-rule="evenodd"/>
</clipPath>
<g clip-path="url(#cp36196)">
<text xml:space="preserve" transform="matrix(1 0 -0 1 0 841.92)" font-size="14.04" font-family="Times New Roman"><tspan y="-337.73" x="96.744 102.97776 110.05392 116.287677 120.85068 127.912799 134.87664 141.1104 148.07424 152.01947 162.70392 166.64916 172.88292 179.95909 183.80605 190.86817 197.93029 204.40271 211.46483 215.41007 222.3739 233.05835 239.29212 243.23735 247.18259 253.76734 257.71257 264.6764 271.64024 275.58546 282.5493 288.78306 295.7469 299.6921 306.2769">zgaruvchimizning qiymati ikkinchi v</tspan></text>
</g>
<clipPath id="cp36197">
<path transform="matrix(1,0,0,-1,0,841.92)" d="M .000008871 0 L 595.32 0 L 595.32 841.92 L .000008871 841.92 Z " fill-rule="evenodd"/>
</clipPath>
<g clip-path="url(#cp36197)">
<text xml:space="preserve" transform="matrix(1 0 -0 1 0 841.92)" font-size="14.04" font-family="Times New Roman"><tspan y="-337.73" x="313.61 319.84376 326.3162 333.3783 339.49974 346.56184 350.40879 357.4709 363.59233 370.65443 374.59965 381.07209 385.0173 389.69264 393.63786 399.75929 403.60624 409.1099 415.34367 421.94248 425.8877 436.57215 440.51737 446.75114 453.82728 457.7725 464.24494 471.30705 477.5408 488.22526 494.81004 501.87214 508.93424 515.99636 519.8433 526.8072 530.75247 534.6977 539.2607 545.49447 552.4583 556.3053 559.6609">a uchinchi if/else imizni ham qoniqtiradi. </tspan></text>
</g>
<clipPath id="cp36198">
<path transform="matrix(1,0,0,-1,0,841.92)" d="M .000008871 0 L 595.32 0 L 595.32 841.92 L .000008871 841.92 Z " fill-rule="evenodd"/>
</clipPath>
<g clip-path="url(#cp36198)">
<text xml:space="preserve" transform="matrix(1 0 -0 1 0 841.92)" font-size="14.04" font-family="Times New Roman"><tspan y="-313.61" x="85.104 93.626277 99.86003 106.93619 110.78315 117.84527 121.42547 126.92915 133.89299 137.83823 141.68518 147.09058 154.1527 157.99965 161.94489 166.62021 170.46717 175.87256 182.93468 186.64124 193.60507 197.55031 203.67176 208.34708 215.42325 221.65702 227.77846 234.84058 241.07434 244.66858 251.63242 258.69453 263.36985 274.0543 280.4004 287.23786 294.29997 298.24519 301.7552 305.4337 311.66746 318.7436 325.70744 332.76954 339.73338 343.6786 347.2588 354.3209 358.2661 364.38755 369.06288 372.76945 379.73329 383.6785 388.2415 392.1867 399.2488 405.37025 412.33409 416.2793 419.98588 423.83283 428.50816 432.45338 438.5748 442.42176 447.82716 454.0609 457.7675 464.73133 468.67655 475.64039 482.70249 486.40907 492.5305 496.4757 501.8811 508.11488 511.82145 518.7853 522.7305 528.2342 538.9186 542.86386 549.92599 556.0474 559.403">Lekin solishtirish ulargacha bormaydi, chunki ular birinchi if/else ning else qismida, </tspan></text>
</g>
<clipPath id="cp36199">
<path transform="matrix(1,0,0,-1,0,841.92)" d="M .000008871 0 L 595.32 0 L 595.32 841.92 L .000008871 841.92 Z " fill-rule="evenodd"/>
</clipPath>
<g clip-path="url(#cp36199)">
<text xml:space="preserve" transform="matrix(1 0 -0 1 0 841.92)" font-size="14.04" font-family="Times New Roman"><tspan y="-289.49" x="85.104 91.941478 98.17523 105.25139 109.19663 114.826679 121.79051 128.85263 132.69959">yani noto</tspan></text>
</g>
<clipPath id="cp36200">
<path transform="matrix(1,0,0,-1,0,841.92)" d="M .000008871 0 L 595.32 0 L 595.32 841.92 L .000008871 841.92 Z " fill-rule="evenodd"/>
</clipPath>
<g clip-path="url(#cp36200)">
<text xml:space="preserve" transform="matrix(1 0 -0 1 0 841.92)" font-size="14.04" font-family="Times New Roman"><tspan y="-289.49" x="139.82">&#x2019;</tspan></text>
</g>
<clipPath id="cp36201">
<path transform="matrix(1,0,0,-1,0,841.92)" d="M .000008871 0 L 595.32 0 L 595.32 841.92 L .000008871 841.92 Z " fill-rule="evenodd"/>
</clipPath>
<g clip-path="url(#cp36201)">
<text xml:space="preserve" transform="matrix(1 0 -0 1 0 841.92)" font-size="14.04" font-family="Times New Roman"><tspan y="-289.49" x="144.38">g</tspan></text>
</g>
<clipPath id="cp36202">
<path transform="matrix(1,0,0,-1,0,841.92)" d="M .000008871 0 L 595.32 0 L 595.32 841.92 L .000008871 841.92 Z " fill-rule="evenodd"/>
</clipPath>
<g clip-path="url(#cp36202)">
<text xml:space="preserve" transform="matrix(1 0 -0 1 0 841.92)" font-size="14.04" font-family="Times New Roman"><tspan y="-289.49" x="151.46">&#x2019;</tspan></text>
</g>
<clipPath id="cp36203">
<path transform="matrix(1,0,0,-1,0,841.92)" d="M .000008871 0 L 595.32 0 L 595.32 841.92 L .000008871 841.92 Z " fill-rule="evenodd"/>
</clipPath>
<g clip-path="url(#cp36203)">
<text xml:space="preserve" transform="matrix(1 0 -0 1 0 841.92)" font-size="14.04" font-family="Times New Roman"><tspan y="-289.49" x="156.02 160.69533 164.64057 170.2706 174.11756 180.35132 187.31516 194.37728 201.43939 206.94307 214.00519 217.85214 223.35582 234.04027 237.9855 245.04763 251.28139 256.9114 260.75837 267.82048 274.65794 278.60316 284.8369 290.2423 297.3044 304.36653 310.48796 317.45179 324.5139 328.36085 333.03617 336.54618 342.14814 349.95439 357.01649 360.86344 364.7104 370.21406 377.1779 381.1231 384.97007 389.6454 393.49235 398.996 406.0581 411.5618 418.52565 422.47087 427.14619 430.99314 438.05525 444.17668 451.23878 455.184 460.68769 464.6329 469.1959 473.1411 479.37489 483.22184 488.7255 494.95927 500.477 507.5391 513.7728 519.2905 523.2358 530.19967 537.2618 543.38327 548.6623 555.62619 559.47317">ri javob qismida joylashgandir. Solishtirish birinchi if/else da tugashi </tspan></text>
</g>
<clipPath id="cp36204">
<path transform="matrix(1,0,0,-1,0,841.92)" d="M .000008871 0 L 595.32 0 L 595.32 841.92 L .000008871 841.92 Z " fill-rule="evenodd"/>
</clipPath>
<g clip-path="url(#cp36204)">
<text xml:space="preserve" transform="matrix(1 0 -0 1 0 841.92)" font-size="14.04" font-family="Times New Roman"><tspan y="-265.37" x="85.104 89.77932 96.01308 102.86459 109.92671 116.16047 123.236629 128.26296 133.66835 140.63219 147.6943 152.72063 163.40508 167.35031 172.85399 179.9161 183.76306 190.82518 197.05895 201.62195 205.4689 211.70267 218.77884 222.6258 228.85956 234.26496 241.32707 246.3534 252.58716 263.2716 269.50538 273.4506 277.3958 284.35966 288.30488 293.20484 297.15007 303.38383 309.50526 313.45048 319.68424">(aynan shu misolda)tanlash amalini tezlas</tspan></text>
</g>
<clipPath id="cp36205">
<path transform="matrix(1,0,0,-1,0,841.92)" d="M .000008871 0 L 595.32 0 L 595.32 841.92 L .000008871 841.92 Z " fill-rule="evenodd"/>
</clipPath>
<g clip-path="url(#cp36205)">
<text xml:space="preserve" transform="matrix(1 0 -0 1 0 841.92)" font-size="14.04" font-family="Times New Roman"><tspan y="-265.37" x="325.39 332.45213 336.29908 340.2443 344.91963 351.04106 358.10316 362.04838 365.55839 370.55665 380.63737 386.7588 393.72264 397.66786 402.69419 409.65803 413.60325">htiradi. Yani bir</tspan></text>
</g>
<clipPath id="cp36206">
<path transform="matrix(1,0,0,-1,0,841.92)" d="M .000008871 0 L 595.32 0 L 595.32 841.92 L .000008871 841.92 Z " fill-rule="evenodd"/>
</clipPath>
<g clip-path="url(#cp36206)">
<text xml:space="preserve" transform="matrix(1 0 -0 1 0 841.92)" font-size="14.04" font-family="Times New Roman"><tspan y="-265.37" x="418.39">-</tspan></text>
</g>
<clipPath id="cp36207">
<path transform="matrix(1,0,0,-1,0,841.92)" d="M .000008871 0 L 595.32 0 L 595.32 841.92 L .000008871 841.92 Z " fill-rule="evenodd"/>
</clipPath>
<g clip-path="url(#cp36207)">
<text xml:space="preserve" transform="matrix(1 0 -0 1 0 841.92)" font-size="14.04" font-family="Times New Roman"><tspan y="-265.37" x="422.95 430.01213 433.95735 438.52033 442.36729 449.42939 455.66316 460.57716 467.63926 474.6031">biriga bog</tspan></text>
</g>
<clipPath id="cp36208">
<path transform="matrix(1,0,0,-1,0,841.92)" d="M .000008871 0 L 595.32 0 L 595.32 841.92 L .000008871 841.92 Z " fill-rule="evenodd"/>
</clipPath>
<g clip-path="url(#cp36208)">
<text xml:space="preserve" transform="matrix(1 0 -0 1 0 841.92)" font-size="14.04" font-family="Times New Roman"><tspan y="-265.37" x="481.78">&#x2019;</tspan></text>
</g>
<clipPath id="cp36209">
<path transform="matrix(1,0,0,-1,0,841.92)" d="M .000008871 0 L 595.32 0 L 595.32 841.92 L .000008871 841.92 Z " fill-rule="evenodd"/>
</clipPath>
<g clip-path="url(#cp36209)">
<text xml:space="preserve" transform="matrix(1 0 -0 1 0 841.92)" font-size="14.04" font-family="Times New Roman"><tspan y="-265.37" x="486.34 490.28523 494.13218 501.19429 506.2206 510.06758 514.74288 518.6881 524.8096 528.65658 534.1602 540.394 545.4203 549.2673 555.38876 559.9517">liq if/else lar </tspan></text>
</g>
<clipPath id="cp36210">
<path transform="matrix(1,0,0,-1,0,841.92)" d="M .000008871 0 L 595.32 0 L 595.32 841.92 L .000008871 841.92 Z " fill-rule="evenodd"/>
</clipPath>
<g clip-path="url(#cp36210)">
<text xml:space="preserve" transform="matrix(1 0 -0 1 0 841.92)" font-size="14.04" font-family="Times New Roman"><tspan y="-241.13" x="85.104 91.33775 95.283 102.24683 109.21067 113.155918 120.11975 126.35351 131.74488 135.69011 140.36544 145.75679 151.26047 155.10742 159.78275 166.74658 173.8087 177.65566 184.71778 189.3931">alohida if struktura</tspan></text>
</g>
<clipPath id="cp36211">
<path transform="matrix(1,0,0,-1,0,841.92)" d="M .000008871 0 L 595.32 0 L 595.32 841.92 L .000008871 841.92 Z " fill-rule="evenodd"/>
</clipPath>
<g clip-path="url(#cp36211)">
<text xml:space="preserve" transform="matrix(1 0 -0 1 0 841.92)" font-size="14.04" font-family="Times New Roman"><tspan y="-241.13" x="195.65">-</tspan></text>
</g>
<clipPath id="cp36212">
<path transform="matrix(1,0,0,-1,0,841.92)" d="M .000008871 0 L 595.32 0 L 595.32 841.92 L .000008871 841.92 Z " fill-rule="evenodd"/>
</clipPath>
<g clip-path="url(#cp36212)">
<text xml:space="preserve" transform="matrix(1 0 -0 1 0 841.92)" font-size="14.04" font-family="Times New Roman"><tspan y="-241.13" x="200.33 204.17696 210.41072 215.08605 219.04534 224.43669 231.40053 235.34577 242.3096 249.27344 253.21868 260.2808 266.40223 273.46434 278.85569 282.8009 288.92234 295.1561 299.83143 306.8093 313.8714 319.26277 326.2266 332.46037 336.3073 342.54109 347.2164 351.17567 355.0226 358.86958 364.37324 371.33708 375.2823 380.78599 391.47044 398.6589 409.34336 416.40547 420.35069 427.41279 430.9228 436.27204 442.39347 449.45558 456.4194 463.38325 470.44535 474.39057 479.78193 486.74577 490.69099 495.25398 499.1992 506.16304 512.3968 519.36068 523.3059 528.69729 535.66116 542.72329 546.57028 553.5341 559.6556">lari blokidan tezroq bajarilishi mumkin, chunki birinchi holda </tspan></text>
</g>
<clipPath id="cp36213">
<path transform="matrix(1,0,0,-1,0,841.92)" d="M .000008871 0 L 595.32 0 L 595.32 841.92 L .000008871 841.92 Z " fill-rule="evenodd"/>
</clipPath>
<g clip-path="url(#cp36213)">
<text xml:space="preserve" transform="matrix(1 0 -0 1 0 841.92)" font-size="14.04" font-family="Times New Roman"><tspan y="-216.98" x="85.104 89.04924 93.72456 97.571529 103.80528 107.652248 113.15593 119.38969 124.41601 131.47812 135.32508 142.28891 149.35103 153.19799 160.2601 166.38155 173.44367 178.59635 185.56018 191.79395 198.75778 202.70302 206.54998 210.49521 215.17053 222.13437 229.19649 234.34917 240.47061 247.43445 251.37969 258.34355 262.28877 267.69416 274.75627 279.7826 283.7278 294.41227 301.47438 308.53648 315.5003 319.44554 324.47187 331.53398 338.59608 343.2714 346.7814 351.906 359.58589 366.5497 373.61183 378.7645 384.1699 390.40367 397.3675 403.60127 410.5651 414.5103 418.35728 423.50996 427.45518 433.5766">if/else blokidan vaqtliroq chiqish imkoni bor. Shu sababli ich</tspan></text>
</g>
<clipPath id="cp36214">
<path transform="matrix(1,0,0,-1,0,841.92)" d="M .000008871 0 L 595.32 0 L 595.32 841.92 L .000008871 841.92 Z " fill-rule="evenodd"/>
</clipPath>
<g clip-path="url(#cp36214)">
<text xml:space="preserve" transform="matrix(1 0 -0 1 0 841.92)" font-size="14.04" font-family="Times New Roman"><tspan y="-216.98" x="441.1">-</tspan></text>
</g>
<clipPath id="cp36215">
<path transform="matrix(1,0,0,-1,0,841.92)" d="M .000008871 0 L 595.32 0 L 595.32 841.92 L .000008871 841.92 Z " fill-rule="evenodd"/>
</clipPath>
<g clip-path="url(#cp36215)">
<text xml:space="preserve" transform="matrix(1 0 -0 1 0 841.92)" font-size="14.04" font-family="Times New Roman"><tspan y="-216.98" x="445.66 449.60523 455.839 462.80284 466.64979 473.71189 479.94566 484.972 492.0341 495.9793 500.5423 507.6044 513.7258 520.78799 525.8143 529.7595 534.4348 538.2818 544.51559 548.36257 553.76797 559.8894">ichiga kirgan if/else </tspan></text>
</g>
<clipPath id="cp36216">
<path transform="matrix(1,0,0,-1,0,841.92)" d="M .000008871 0 L 595.32 0 L 595.32 841.92 L .000008871 841.92 Z " fill-rule="evenodd"/>
</clipPath>
<g clip-path="url(#cp36216)">
<text xml:space="preserve" transform="matrix(1 0 -0 1 0 841.92)" font-size="14.04" font-family="Times New Roman"><tspan y="-192.86" x="85.104 89.04924 95.283 99.95832 107.51184 114.47568 121.537799 126.1008 133.06464 140.12676 143.97371 151.03583 157.26959 164.8231 168.67006 173.34539 180.42156 186.65532 194.08248 201.04631">lar guruhida true bo</tspan></text>
</g>
<clipPath id="cp36217">
<path transform="matrix(1,0,0,-1,0,841.92)" d="M .000008871 0 L 595.32 0 L 595.32 841.92 L .000008871 841.92 Z " fill-rule="evenodd"/>
</clipPath>
<g clip-path="url(#cp36217)">
<text xml:space="preserve" transform="matrix(1 0 -0 1 0 841.92)" font-size="14.04" font-family="Times New Roman"><tspan y="-192.86" x="208.25">&#x2019;</tspan></text>
</g>
<clipPath id="cp36218">
<path transform="matrix(1,0,0,-1,0,841.92)" d="M .000008871 0 L 595.32 0 L 595.32 841.92 L .000008871 841.92 Z " fill-rule="evenodd"/>
</clipPath>
<g clip-path="url(#cp36218)">
<text xml:space="preserve" transform="matrix(1 0 -0 1 0 841.92)" font-size="14.04" font-family="Times New Roman"><tspan y="-192.86" x="212.81 216.75524 220.60219 226.10587 233.16799 240.59514 244.54038 255.22483 262.28694 269.34904 276.41114 280.35636 287.7835 294.74736">lish imkoni ko</tspan></text>
</g>
<clipPath id="cp36219">
<path transform="matrix(1,0,0,-1,0,841.92)" d="M .000008871 0 L 595.32 0 L 595.32 841.92 L .000008871 841.92 Z " fill-rule="evenodd"/>
</clipPath>
<g clip-path="url(#cp36219)">
<text xml:space="preserve" transform="matrix(1 0 -0 1 0 841.92)" font-size="14.04" font-family="Times New Roman"><tspan y="-192.86" x="301.97">&#x2019;</tspan></text>
</g>
<clipPath id="cp36220">
<path transform="matrix(1,0,0,-1,0,841.92)" d="M .000008871 0 L 595.32 0 L 595.32 841.92 L .000008871 841.92 Z " fill-rule="evenodd"/>
</clipPath>
<g clip-path="url(#cp36220)">
<text xml:space="preserve" transform="matrix(1 0 -0 1 0 841.92)" font-size="14.04" font-family="Times New Roman"><tspan y="-192.86" x="306.53 313.5921 318.1551 325.2172 332.2793 339.70649">proq b</tspan></text>
</g>
<clipPath id="cp36221">
<path transform="matrix(1,0,0,-1,0,841.92)" d="M .000008871 0 L 595.32 0 L 595.32 841.92 L .000008871 841.92 Z " fill-rule="evenodd"/>
</clipPath>
<g clip-path="url(#cp36221)">
<text xml:space="preserve" transform="matrix(1 0 -0 1 0 841.92)" font-size="14.04" font-family="Times New Roman"><tspan y="-192.86" x="346.87">o</tspan></text>
</g>
<clipPath id="cp36222">
<path transform="matrix(1,0,0,-1,0,841.92)" d="M .000008871 0 L 595.32 0 L 595.32 841.92 L .000008871 841.92 Z " fill-rule="evenodd"/>
</clipPath>
<g clip-path="url(#cp36222)">
<text xml:space="preserve" transform="matrix(1 0 -0 1 0 841.92)" font-size="14.04" font-family="Times New Roman"><tspan y="-192.86" x="353.95">&#x2019;</tspan></text>
</g>
<clipPath id="cp36223">
<path transform="matrix(1,0,0,-1,0,841.92)" d="M .000008871 0 L 595.32 0 L 595.32 841.92 L .000008871 841.92 Z " fill-rule="evenodd"/>
</clipPath>
<g clip-path="url(#cp36223)">
<text xml:space="preserve" transform="matrix(1 0 -0 1 0 841.92)" font-size="14.04" font-family="Times New Roman"><tspan y="-192.86" x="358.51 362.35697 369.41908 375.5405 382.6026 390.1421 395.5475 402.6096 408.84336 413.40635 417.35157 421.19853 427.43229 432.1076 439.08549 443.0307 450.5702 457.53404 461.47926 468.44309 472.29005 479.35215 484.02748 490.9913 498.0534 505.5929 509.43986 515.6736 522.63748 528.04287 535.105 539.05026 543.6132 547.4602 552.96389 559.8014">lgan shartlarni oldinroq tekshirish </tspan></text>
</g>
<clipPath id="cp36224">
<path transform="matrix(1,0,0,-1,0,841.92)" d="M .000008871 0 L 595.32 0 L 595.32 841.92 L .000008871 841.92 Z " fill-rule="evenodd"/>
</clipPath>
<g clip-path="url(#cp36224)">
<text xml:space="preserve" transform="matrix(1 0 -0 1 0 841.92)" font-size="14.04" font-family="Times New Roman"><tspan y="-168.74" x="85.104 92.166118 98.39987 103.075199 109.21067 116.27279 119.78279 127.78559 137.15027 144.10007 151.16219 158.12602 164.35979 171.43596 179.46683 183.31378 189.54755 194.95294 201.91678 208.9789 215.21266 219.77567 223.7209 231.75177 239.55802 252.62924 257.30458 265.82685 275.19154 285.3705 293.4014 298.90507 302.85029 307.5256 314.48945 321.45329 325.3985 332.4606 337.0236 343.25736 348.66276 352.60798 360.63887 367.70097 373.93473 384.61918 392.7624 403.55915 409.7929 416.86906 420.716 427.7781 434.8402 442.8711 449.9332">kerak. Bundan tashqari SWITCH strukturasi ham mavjud bo</tspan></text>
</g>
<clipPath id="cp36225">
<path transform="matrix(1,0,0,-1,0,841.92)" d="M .000008871 0 L 595.32 0 L 595.32 841.92 L .000008871 841.92 Z " fill-rule="evenodd"/>
</clipPath>
<g clip-path="url(#cp36225)">
<text xml:space="preserve" transform="matrix(1 0 -0 1 0 841.92)" font-size="14.04" font-family="Times New Roman"><tspan y="-168.74" x="457.42">&#x2019;</tspan></text>
</g>
<clipPath id="cp36226">
<path transform="matrix(1,0,0,-1,0,841.92)" d="M .000008871 0 L 595.32 0 L 595.32 841.92 L .000008871 841.92 Z " fill-rule="evenodd"/>
</clipPath>
<g clip-path="url(#cp36226)">
<text xml:space="preserve" transform="matrix(1 0 -0 1 0 841.92)" font-size="14.04" font-family="Times New Roman"><tspan y="-168.74" x="461.98 465.82698 469.7722 476.8343 480.3443 488.3471 495.31095 502.37306 510.40394 515.8093 519.7546 524.4299 531.39376 538.3576 542.30288 549.2667 553.8297 559.9512">lib, bu struktura </tspan></text>
</g>
<clipPath id="cp36227">
<path transform="matrix(1,0,0,-1,0,841.92)" d="M .000008871 0 L 595.32 0 L 595.32 841.92 L .000008871 841.92 Z " fill-rule="evenodd"/>
</clipPath>
<g clip-path="url(#cp36227)">
<text xml:space="preserve" transform="matrix(1 0 -0 1 0 841.92)" font-size="14.04" font-family="Times New Roman"><tspan y="-144.5" x="85.104 90.60768 97.6698 103.79124 108.46656 112.31352 116.258769 122.49252 127.16785 131.12712 138.18924 142.13448 149.1966 155.31804 159.38964 166.35347 173.3173 180.37943 186.61319 193.57703 197.64862 204.61246 209.28778 213.23302 217.07997 224.14209 228.08733 235.05117 242.11328 245.96024 249.90547 256.13923 260.7022 267.7643 273.99809 277.94334 281.88856 287.29396 294.25779 298.203 304.43678 308.28373 312.13069 316.0759 319.92286 325.32826 332.39036 336.2373 340.30894 350.99339 357.22715 364.30329 369.80696 376.0407 383.00456 390.06666 396.3004 400.37205 411.0565 418.1186 425.08244 432.14454 436.81986 440.6668 447.63066 451.14067 455.17015 464.53483 468.48005 474.7138 478.65907 485.6229 492.685 496.63026 502.1339 506.07914 510.64213 517.60598 524.6681 528.5151 535.5772 540.2525 546.37399 553.3378 559.4593">shartlar 3 va undan ortiq hollarda ishlatilishi maqsadga muvofiq. Biz bu strukturaga </tspan></text>
</g>
<clipPath id="cp36228">
<path transform="matrix(1,0,0,-1,0,841.92)" d="M .000008871 0 L 595.32 0 L 595.32 841.92 L .000008871 841.92 Z " fill-rule="evenodd"/>
</clipPath>
<g clip-path="url(#cp36228)">
<text xml:space="preserve" transform="matrix(1 0 -0 1 0 841.92)" font-size="14.04" font-family="Times New Roman"><tspan y="-120.38" x="85.104 92.184">qo</tspan></text>
</g>
<clipPath id="cp36229">
<path transform="matrix(1,0,0,-1,0,841.92)" d="M .000008871 0 L 595.32 0 L 595.32 841.92 L .000008871 841.92 Z " fill-rule="evenodd"/>
</clipPath>
<g clip-path="url(#cp36229)">
<text xml:space="preserve" transform="matrix(1 0 -0 1 0 841.92)" font-size="14.04" font-family="Times New Roman"><tspan y="-120.38" x="99.264">&#x2019;</tspan></text>
</g>
<clipPath id="cp36230">
<path transform="matrix(1,0,0,-1,0,841.92)" d="M .000008871 0 L 595.32 0 L 595.32 841.92 L .000008871 841.92 Z " fill-rule="evenodd"/>
</clipPath>
<g clip-path="url(#cp36230)">
<text xml:space="preserve" transform="matrix(1 0 -0 1 0 841.92)" font-size="14.04" font-family="Times New Roman"><tspan y="-120.38" x="103.82 110.65748 114.60272 118.547969 125.610088 131.73152 138.79364 143.81996 154.50441 160.73818 166.2559 172.48967 176.4349 182.66867 189.74485 195.86629 202.83013 207.85645 214.09021 221.16638 227.40015 231.2471 238.30922 244.54299 249.5693 255.69075 262.75288 266.59983 273.56367 277.50889 284.57099 289.47096 296.53306 302.7668 306.71205 317.39649 323.63026 329.14796 332.9949 336.94013 344.00224 348.9022 355.9643 362.08573 369.14784 376.11167 383.17378 388.2001 394.43388 398.28083 405.24467 412.30677 416.15373 423.21583 429.4496 434.47593">yilgan masaladan chetga chiqib ketmaslik uchun alohida t</tspan></text>
</g>
<clipPath id="cp36231">
<path transform="matrix(1,0,0,-1,0,841.92)" d="M .000008871 0 L 595.32 0 L 595.32 841.92 L .000008871 841.92 Z " fill-rule="evenodd"/>
</clipPath>
<g clip-path="url(#cp36231)">
<text xml:space="preserve" transform="matrix(1 0 -0 1 0 841.92)" font-size="14.04" font-family="Times New Roman"><tspan y="-120.38" x="438.79">o</tspan></text>
</g>
<clipPath id="cp36232">
<path transform="matrix(1,0,0,-1,0,841.92)" d="M .000008871 0 L 595.32 0 L 595.32 841.92 L .000008871 841.92 Z " fill-rule="evenodd"/>
</clipPath>
<g clip-path="url(#cp36232)">
<text xml:space="preserve" transform="matrix(1 0 -0 1 0 841.92)" font-size="14.04" font-family="Times New Roman"><tspan y="-120.38" x="445.78">&#x2019;</tspan></text>
</g>
<clipPath id="cp36233">
<path transform="matrix(1,0,0,-1,0,841.92)" d="M .000008871 0 L 595.32 0 L 595.32 841.92 L .000008871 841.92 Z " fill-rule="evenodd"/>
</clipPath>
<g clip-path="url(#cp36233)">
<text xml:space="preserve" transform="matrix(1 0 -0 1 0 841.92)" font-size="14.04" font-family="Times New Roman"><tspan y="-120.38" x="450.34 457.4021 461.34733 467.5811 471.42805 475.37327 482.43537 487.33534">xtalib o</tspan></text>
</g>
<clipPath id="cp36234">
<path transform="matrix(1,0,0,-1,0,841.92)" d="M .000008871 0 L 595.32 0 L 595.32 841.92 L .000008871 841.92 Z " fill-rule="evenodd"/>
</clipPath>
<g clip-path="url(#cp36234)">
<text xml:space="preserve" transform="matrix(1 0 -0 1 0 841.92)" font-size="14.04" font-family="Times New Roman"><tspan y="-120.38" x="494.5">&#x2019;</tspan></text>
</g>
<clipPath id="cp36235">
<path transform="matrix(1,0,0,-1,0,841.92)" d="M .000008871 0 L 595.32 0 L 595.32 841.92 L .000008871 841.92 Z " fill-rule="evenodd"/>
</clipPath>
<g clip-path="url(#cp36235)">
<text xml:space="preserve" transform="matrix(1 0 -0 1 0 841.92)" font-size="14.04" font-family="Times New Roman"><tspan y="-120.38" x="499.06 503.00523 506.95045 511.62577 522.3102 528.65628 535.6201 546.3045 550.24978 556.4835 559.9935">tirmaymiz. </tspan></text>
</g>
<clipPath id="cp36236">
<path transform="matrix(1,0,0,-1,0,841.92)" d="M .000008871 0 L 595.32 0 L 595.32 841.92 L .000008871 841.92 Z " fill-rule="evenodd"/>
</clipPath>
<g clip-path="url(#cp36236)">
<text xml:space="preserve" transform="matrix(1 0 -0 1 0 841.92)" font-size="14.04" font-family="Times New Roman"><tspan y="-96.264" x="85.104">O</tspan></text>
</g>
<clipPath id="cp36237">
<path transform="matrix(1,0,0,-1,0,841.92)" d="M .000008871 0 L 595.32 0 L 595.32 841.92 L .000008871 841.92 Z " fill-rule="evenodd"/>
</clipPath>
<g clip-path="url(#cp36237)">
<text xml:space="preserve" transform="matrix(1 0 -0 1 0 841.92)" font-size="14.04" font-family="Times New Roman"><tspan y="-96.264" x="95.184">&#x2019;</tspan></text>
</g>
<clipPath id="cp36238">
<path transform="matrix(1,0,0,-1,0,841.92)" d="M .000008871 0 L 595.32 0 L 595.32 841.92 L .000008871 841.92 Z " fill-rule="evenodd"/>
</clipPath>
<g clip-path="url(#cp36238)">
<text xml:space="preserve" transform="matrix(1 0 -0 1 0 841.92)" font-size="14.04" font-family="Times New Roman"><tspan y="-96.264" x="99.744 105.97776 111.6078 118.66992 124.90368 131.97985 139.04196 145.1634 149.10865 152.9556 160.01772 166.25148 171.88152 178.94364 184.44731 191.50943 197.7432 203.26091 210.22475 215.85478 222.9169 226.86214 233.82598 244.51042 250.74419 254.68943 258.63465 264.8684 269.54374 275.17378 285.2545 290.88453 297.94664 304.1804 309.81044 319.1751 324.91749 335.71424 341.948 347.4657 352.96937 356.8163 363.87843 367.72538 373.95915 378.63447 385.61235 389.4593 396.5214 403.5835 409.0872 416.1493 422.27073 429.33283 433.27806 439.39949 443.96247 447.90769 453.53773 460.37519 464.3204">z navbatida x va y qiymatlar A va B massivlarning hadlari yig</tspan></text>
</g>
<clipPath id="cp36239">
<path transform="matrix(1,0,0,-1,0,841.92)" d="M .000008871 0 L 595.32 0 L 595.32 841.92 L .000008871 841.92 Z " fill-rule="evenodd"/>
</clipPath>
<g clip-path="url(#cp36239)">
<text xml:space="preserve" transform="matrix(1 0 -0 1 0 841.92)" font-size="14.04" font-family="Times New Roman"><tspan y="-96.264" x="471.94">&#x2019;</tspan></text>
</g>
<clipPath id="cp36240">
<path transform="matrix(1,0,0,-1,0,841.92)" d="M .000008871 0 L 595.32 0 L 595.32 841.92 L .000008871 841.92 Z " fill-rule="evenodd"/>
</clipPath>
<g clip-path="url(#cp36240)">
<text xml:space="preserve" transform="matrix(1 0 -0 1 0 841.92)" font-size="14.04" font-family="Times New Roman"><tspan y="-96.264" x="476.5 480.44523 487.50733 494.47117 498.41639 503.82179 507.767 513.39706 520.3609">indisi bo</tspan></text>
</g>
<clipPath id="cp36241">
<path transform="matrix(1,0,0,-1,0,841.92)" d="M .000008871 0 L 595.32 0 L 595.32 841.92 L .000008871 841.92 Z " fill-rule="evenodd"/>
</clipPath>
<g clip-path="url(#cp36241)">
<text xml:space="preserve" transform="matrix(1 0 -0 1 0 841.92)" font-size="14.04" font-family="Times New Roman"><tspan y="-96.264" x="527.5">&#x2019;</tspan></text>
</g>
<clipPath id="cp36242">
<path transform="matrix(1,0,0,-1,0,841.92)" d="M .000008871 0 L 595.32 0 L 595.32 841.92 L .000008871 841.92 Z " fill-rule="evenodd"/>
</clipPath>
<g clip-path="url(#cp36242)">
<text xml:space="preserve" transform="matrix(1 0 -0 1 0 841.92)" font-size="14.04" font-family="Times New Roman"><tspan y="-96.264" x="532.06 536.00527 543.0674 549.18887 556.1527 559.9997">lgani </tspan></text>
</g>
</g>
</g>
</g>
</svg>
