<?xml version="1.0" encoding="UTF-8" standalone="no"?>
<!DOCTYPE svg PUBLIC "-//W3C//DTD SVG 1.1//EN" "http://www.w3.org/Graphics/SVG/1.1/DTD/svg11.dtd">
<svg xmlns="http://www.w3.org/2000/svg" xmlns:xlink="http://www.w3.org/1999/xlink" version="1.1" width="595.32pt" height="841.92pt" viewBox="0 0 595.32 841.92">
<g enable-background="new">
<g>
<g id="Layer-1" data-name="Artifact">
<clipPath id="cp36793">
<path transform="matrix(1,0,0,-1,0,841.92)" d="M .000008871 0 L 595.32 0 L 595.32 841.92 L .000008871 841.92 Z " fill-rule="evenodd"/>
</clipPath>
<g clip-path="url(#cp36793)">
<text xml:space="preserve" transform="matrix(1 0 -0 1 0 841.92)" font-size="11.04" font-family="Calibri"><tspan y="-51.864" x="314.09 319.72999 325.36997">231</tspan></text>
</g>
<clipPath id="cp36794">
<path transform="matrix(1,0,0,-1,0,841.92)" d="M .000008871 0 L 595.32 0 L 595.32 841.92 L .000008871 841.92 Z " fill-rule="evenodd"/>
</clipPath>
<g clip-path="url(#cp36794)">
<text xml:space="preserve" transform="matrix(1 0 -0 1 0 841.92)" font-size="11.04" font-family="Calibri"><tspan y="-51.864" x="331.03"> </tspan></text>
</g>
<clipPath id="cp36795">
<path transform="matrix(1,0,0,-1,0,841.92)" d="M .000008871 0 L 595.32 0 L 595.32 841.92 L .000008871 841.92 Z " fill-rule="evenodd"/>
</clipPath>
<g clip-path="url(#cp36795)">
</g>
<clipPath id="cp36796">
<path transform="matrix(1,0,0,-1,0,841.92)" d="M .000008871 0 L 595.32 0 L 595.32 841.92 L .000008871 841.92 Z " fill-rule="evenodd"/>
</clipPath>
<g clip-path="url(#cp36796)">
<text xml:space="preserve" transform="matrix(1 0 -0 1 0 841.92)" font-size="11.04" font-family="Calibri"><tspan y="-38.4" x="85.104"> </tspan></text>
</g>
<clipPath id="cp36797">
<path transform="matrix(1,0,0,-1,0,841.92)" d="M .000008871 0 L 595.32 0 L 595.32 841.92 L .000008871 841.92 Z " fill-rule="evenodd"/>
</clipPath>
<g clip-path="url(#cp36797)">
</g>
</g>
<g id="Layer-1" data-name="P">
<clipPath id="cp36798">
<path transform="matrix(1,0,0,-1,0,841.92)" d="M .000008871 0 L 595.32 0 L 595.32 841.92 L .000008871 841.92 Z " fill-rule="evenodd"/>
</clipPath>
<g clip-path="url(#cp36798)">
<text xml:space="preserve" transform="matrix(1 0 -0 1 0 841.92)" font-size="14.04" font-family="Times New Roman"><tspan y="-772.56" x="85.104 89.77932 96.85548 103.81931 110.78315 116.286838 120.23208 127.06956">funksiya</tspan></text>
</g>
<clipPath id="cp36799">
<path transform="matrix(1,0,0,-1,0,841.92)" d="M .000008871 0 L 595.32 0 L 595.32 841.92 L .000008871 841.92 Z " fill-rule="evenodd"/>
</clipPath>
<g clip-path="url(#cp36799)">
<text xml:space="preserve" transform="matrix(1 0 -0 1 0 841.92)" font-size="14.04" font-family="Times New Roman"><tspan y="-772.56" x="133.34 138.84368 142.69063 149.65447 153.5997 158.26097">sini o</tspan></text>
</g>
<clipPath id="cp36800">
<path transform="matrix(1,0,0,-1,0,841.92)" d="M .000008871 0 L 595.32 0 L 595.32 841.92 L .000008871 841.92 Z " fill-rule="evenodd"/>
</clipPath>
<g clip-path="url(#cp36800)">
<text xml:space="preserve" transform="matrix(1 0 -0 1 0 841.92)" font-size="14.04" font-family="Times New Roman"><tspan y="-772.56" x="165.38">&#x2019;</tspan></text>
</g>
<clipPath id="cp36801">
<path transform="matrix(1,0,0,-1,0,841.92)" d="M .000008871 0 L 595.32 0 L 595.32 841.92 L .000008871 841.92 Z " fill-rule="evenodd"/>
</clipPath>
<g clip-path="url(#cp36801)">
<text xml:space="preserve" transform="matrix(1 0 -0 1 0 841.92)" font-size="14.04" font-family="Times New Roman"><tspan y="-772.56" x="169.94 176.17377 180.119 187.18112 193.41489 197.96384 208.64829 215.83678 219.68373 225.9175 231.43523 236.9389 243.17267 253.85712 257.80235 264.0361 269.5538 276.51765 280.3646 284.3098 288.98515 295.10658 302.16868 306.1139 309.6239">zida mujassamlashtiradi. </tspan></text>
</g>
<clipPath id="cp36802">
<path transform="matrix(1,0,0,-1,0,841.92)" d="M .000008871 0 L 595.32 0 L 595.32 841.92 L .000008871 841.92 Z " fill-rule="evenodd"/>
</clipPath>
<g clip-path="url(#cp36802)">
<text xml:space="preserve" transform="matrix(1 0 -0 1 0 841.92)" font-size="14.04" font-family="Times New Roman"><tspan y="-772.56" x="314.45 322.25627 329.31837 336.2822 343.24604 348.7497 352.69493 359.53239">Funksiya</tspan></text>
</g>
<clipPath id="cp36803">
<path transform="matrix(1,0,0,-1,0,841.92)" d="M .000008871 0 L 595.32 0 L 595.32 841.92 L .000008871 841.92 Z " fill-rule="evenodd"/>
</clipPath>
<g clip-path="url(#cp36803)">
<text xml:space="preserve" transform="matrix(1 0 -0 1 0 841.92)" font-size="14.04" font-family="Times New Roman"><tspan y="-772.56" x="365.83 369.7752 376.00898 380.57197 387.63407 391.57929 396.24058 403.07804 409.3118 416.38795 421.79335 428.85545 432.7024 437.36369 441.3089 447.54267 454.39418 461.45628 466.1316 470.0768 476.31059 481.71598 488.77809 492.7233 496.2333 500.86653 507.92863 514.05007 519.45547 523.4007 530.4628 535.0258 541.9897 545.93496 552.77249 559.7363">larni yaxshi tayorlashi, dasturning </tspan></text>
</g>
<clipPath id="cp36804">
<path transform="matrix(1,0,0,-1,0,841.92)" d="M .000008871 0 L 595.32 0 L 595.32 841.92 L .000008871 841.92 Z " fill-rule="evenodd"/>
</clipPath>
<g clip-path="url(#cp36804)">
<text xml:space="preserve" transform="matrix(1 0 -0 1 0 841.92)" font-size="14.04" font-family="Times New Roman"><tspan y="-748.3" x="85.104 91.343997 96.02555">eff</tspan></text>
</g>
</g>
<g id="Layer-1" data-name="P">
<clipPath id="cp36805">
<path transform="matrix(1,0,0,-1,0,841.92)" d="M .000008871 0 L 595.32 0 L 595.32 841.92 L .000008871 841.92 Z " fill-rule="evenodd"/>
</clipPath>
<g clip-path="url(#cp36805)">
<text xml:space="preserve" transform="matrix(1 0 -0 1 0 841.92)" font-size="14.04" font-family="Times New Roman"><tspan y="-748.3" x="100.7">&#x0435;</tspan></text>
</g>
</g>
<g id="Layer-1" data-name="P">
<clipPath id="cp36806">
<path transform="matrix(1,0,0,-1,0,841.92)" d="M .000008871 0 L 595.32 0 L 595.32 841.92 L .000008871 841.92 Z " fill-rule="evenodd"/>
</clipPath>
<g clip-path="url(#cp36806)">
<text xml:space="preserve" transform="matrix(1 0 -0 1 0 841.92)" font-size="14.04" font-family="Times New Roman"><tspan y="-748.3" x="106.94 113.90384 117.7508 121.696048 125.64129 134.86557 141.92769 148.16146 157.39977 161.345 166.7504 173.71424 180.77635 187.74019 193.97396 200.93779 204.78475 208.72998 218.08061 221.92757 227.43125 234.39508 238.34032 244.46176 249.86716 256.92927 260.7762 267.83833 271.78355 281.00785 284.95307">ktli va ishonchli ishlashini ta</tspan></text>
</g>
</g>
<g id="Layer-1" data-name="P">
<clipPath id="cp36807">
<path transform="matrix(1,0,0,-1,0,841.92)" d="M .000008871 0 L 595.32 0 L 595.32 841.92 L .000008871 841.92 Z " fill-rule="evenodd"/>
</clipPath>
<g clip-path="url(#cp36807)">
<text xml:space="preserve" transform="matrix(1 0 -0 1 0 841.92)" font-size="14.04" font-family="Times New Roman"><tspan y="-748.3" x="291.41">&#x2019;</tspan></text>
</g>
</g>
<g id="Layer-1" data-name="P">
<clipPath id="cp36808">
<path transform="matrix(1,0,0,-1,0,841.92)" d="M .000008871 0 L 595.32 0 L 595.32 841.92 L .000008871 841.92 Z " fill-rule="evenodd"/>
</clipPath>
<g clip-path="url(#cp36808)">
<text xml:space="preserve" transform="matrix(1 0 -0 1 0 841.92)" font-size="14.04" font-family="Times New Roman"><tspan y="-748.3" x="295.97 306.65446 310.59968 317.66178 321.607 327.84077 334.69227 341.75437 345.6996 349.2096">minlaydi. </tspan></text>
</g>
</g>
<g id="Layer-1" data-name="P">
<clipPath id="cp36809">
<path transform="matrix(1,0,0,-1,0,841.92)" d="M .000008871 0 L 595.32 0 L 595.32 841.92 L .000008871 841.92 Z " fill-rule="evenodd"/>
</clipPath>
<g clip-path="url(#cp36809)">
<text xml:space="preserve" transform="matrix(1 0 -0 1 0 841.92)" font-size="14.04" font-family="Times New Roman"><tspan y="-748.3" x="358.63 366.43626 373.49836 380.4622 387.42604 392.9297 396.8749 403.71238">Funksiya</tspan></text>
</g>
</g>
<g id="Layer-1" data-name="P">
<clipPath id="cp36810">
<path transform="matrix(1,0,0,-1,0,841.92)" d="M .000008871 0 L 595.32 0 L 595.32 841.92 L .000008871 841.92 Z " fill-rule="evenodd"/>
</clipPath>
<g clip-path="url(#cp36810)">
<text xml:space="preserve" transform="matrix(1 0 -0 1 0 841.92)" font-size="14.04" font-family="Times New Roman"><tspan y="-748.3" x="409.99 413.9352 420.16899 424.8443 434.08265 437.9296 444.9917 451.22547 455.07243 458.91938 462.8646 468.27 475.3321 479.17906 486.14289 490.0881 497.05195 504.11405 513.3383 520.40048 531.08486 538.2733 548.9577 553.0293 559.8668">lar tuzilishining umumiy </tspan></text>
</g>
</g>
<g id="Layer-1" data-name="P">
<clipPath id="cp36811">
<path transform="matrix(1,0,0,-1,0,841.92)" d="M .000008871 0 L 595.32 0 L 595.32 841.92 L .000008871 841.92 Z " fill-rule="evenodd"/>
</clipPath>
<g clip-path="url(#cp36811)">
<text xml:space="preserve" transform="matrix(1 0 -0 1 0 841.92)" font-size="14.04" font-family="Times New Roman"><tspan y="-724.18" x="85.104 92.184">ko</tspan></text>
</g>
</g>
<g id="Layer-1" data-name="P">
<clipPath id="cp36812">
<path transform="matrix(1,0,0,-1,0,841.92)" d="M .000008871 0 L 595.32 0 L 595.32 841.92 L .000008871 841.92 Z " fill-rule="evenodd"/>
</clipPath>
<g clip-path="url(#cp36812)">
<text xml:space="preserve" transform="matrix(1 0 -0 1 0 841.92)" font-size="14.04" font-family="Times New Roman"><tspan y="-724.18" x="99.264">&#x2019;</tspan></text>
</g>
</g>
<g id="Layer-1" data-name="P">
<clipPath id="cp36813">
<path transform="matrix(1,0,0,-1,0,841.92)" d="M .000008871 0 L 595.32 0 L 595.32 841.92 L .000008871 841.92 Z " fill-rule="evenodd"/>
</clipPath>
<g clip-path="url(#cp36813)">
<text xml:space="preserve" transform="matrix(1 0 -0 1 0 841.92)" font-size="14.04" font-family="Times New Roman"><tspan y="-724.18" x="103.82 108.49532 112.342288 119.4044 123.251369 128.65676 135.71887 139.66411">rinishi.</tspan></text>
</g>
</g>
<g id="Layer-1" data-name="P">
<clipPath id="cp36814">
<path transform="matrix(1,0,0,-1,0,841.92)" d="M .000008871 0 L 595.32 0 L 595.32 841.92 L .000008871 841.92 Z " fill-rule="evenodd"/>
</clipPath>
<g clip-path="url(#cp36814)">
<text xml:space="preserve" transform="matrix(1 0 -0 1 0 841.92)" font-size="14.04" font-family="Times New Roman"><tspan y="-724.18" x="143.18"> </tspan></text>
</g>
</g>
<g id="Layer-1" data-name="P">
<clipPath id="cp36815">
<path transform="matrix(1,0,0,-1,0,841.92)" d="M .000008871 0 L 595.32 0 L 595.32 841.92 L .000008871 841.92 Z " fill-rule="evenodd"/>
</clipPath>
<g clip-path="url(#cp36815)">
<text xml:space="preserve" transform="matrix(1 0 -0 1 0 841.92)" font-size="14.04" font-family="Times New Roman"><tspan y="-724.18" x="149.78 157.58625 164.53604 171.49988 178.562 183.96739 187.91263 194.7501">Funksiya</tspan></text>
</g>
</g>
<g id="Layer-1" data-name="P">
<clipPath id="cp36816">
<path transform="matrix(1,0,0,-1,0,841.92)" d="M .000008871 0 L 595.32 0 L 595.32 841.92 L .000008871 841.92 Z " fill-rule="evenodd"/>
</clipPath>
<g clip-path="url(#cp36816)">
<text xml:space="preserve" transform="matrix(1 0 -0 1 0 841.92)" font-size="14.04" font-family="Times New Roman"><tspan y="-724.18" x="201.05"> </tspan></text>
</g>
</g>
<g id="Layer-1" data-name="P">
<clipPath id="cp36817">
<path transform="matrix(1,0,0,-1,0,841.92)" d="M .000008871 0 L 595.32 0 L 595.32 841.92 L .000008871 841.92 Z " fill-rule="evenodd"/>
</clipPath>
<g clip-path="url(#cp36817)">
<text xml:space="preserve" transform="matrix(1 0 -0 1 0 841.92)" font-size="14.04" font-family="Times New Roman"><tspan y="-724.18" x="207.77 214.83213 221.06589 226.47129 230.31824 237.38036 242.05568 245.90264 252.86647 256.8117 263.77555 270.83766 277.42243 284.38627 291.44837 302.24513 308.8299">dasturining nom b</tspan></text>
</g>
</g>
<g id="Layer-1" data-name="P">
<clipPath id="cp36818">
<path transform="matrix(1,0,0,-1,0,841.92)" d="M .000008871 0 L 595.32 0 L 595.32 841.92 L .000008871 841.92 Z " fill-rule="evenodd"/>
</clipPath>
<g clip-path="url(#cp36818)">
<text xml:space="preserve" transform="matrix(1 0 -0 1 0 841.92)" font-size="14.04" font-family="Times New Roman"><tspan y="-724.18" x="316.03">&#x0435;</tspan></text>
</g>
</g>
<g id="Layer-1" data-name="P">
<clipPath id="cp36819">
<path transform="matrix(1,0,0,-1,0,841.92)" d="M .000008871 0 L 595.32 0 L 595.32 841.92 L .000008871 841.92 Z " fill-rule="evenodd"/>
</clipPath>
<g clip-path="url(#cp36819)">
<text xml:space="preserve" transform="matrix(1 0 -0 1 0 841.92)" font-size="14.04" font-family="Times New Roman"><tspan y="-724.18" x="322.27 326.9453 330.89054 334.7375 341.7996 347.92103 354.98313 361.5679 367.07157 374.0354 380.99925 388.06135 395.02519 401.25895 408.11045 414.69523 421.75733 425.70256 431.2062 441.89067 445.96226 453.02436 456.96958 460.47959 467.0363 474.00013 481.06224 488.02607 494.25984 500.85865 507.92076 514.0422 519.54586 523.3928 530.45498 535.01797 542.0801 545.8007 552.7646 559.72848">rilgan shunday qismiki, unga dasturning </tspan></text>
</g>
</g>
<g id="Layer-1" data-name="P">
<clipPath id="cp36820">
<path transform="matrix(1,0,0,-1,0,841.92)" d="M .000008871 0 L 595.32 0 L 595.32 841.92 L .000008871 841.92 Z " fill-rule="evenodd"/>
</clipPath>
<g clip-path="url(#cp36820)">
<text xml:space="preserve" transform="matrix(1 0 -0 1 0 841.92)" font-size="14.04" font-family="Times New Roman"><tspan y="-700.06" x="85.104 92.166118 99.12995 104.535358 111.59747 118.65959 124.89335">boshqa </tspan></text>
</g>
</g>
<g id="Layer-1" data-name="P">
<clipPath id="cp36821">
<path transform="matrix(1,0,0,-1,0,841.92)" d="M .000008871 0 L 595.32 0 L 595.32 841.92 L .000008871 841.92 Z " fill-rule="evenodd"/>
</clipPath>
<g clip-path="url(#cp36821)">
<text xml:space="preserve" transform="matrix(1 0 -0 1 0 841.92)" font-size="14.04" font-family="Times New Roman"><tspan y="-700.06" x="137.18 144.85988 151.922 158.88584 165.84967 171.35335 175.29859 182.13607">Funksiya</tspan></text>
</g>
</g>
<g id="Layer-1" data-name="P">
<clipPath id="cp36822">
<path transform="matrix(1,0,0,-1,0,841.92)" d="M .000008871 0 L 595.32 0 L 595.32 841.92 L .000008871 841.92 Z " fill-rule="evenodd"/>
</clipPath>
<g clip-path="url(#cp36822)">
<text xml:space="preserve" transform="matrix(1 0 -0 1 0 841.92)" font-size="14.04" font-family="Times New Roman"><tspan y="-700.06" x="188.42 192.36524 198.599 203.162 210.22412 214.07108 221.03491 228.09703 240.32587 244.2711 251.23494 257.4687 261.31565 265.26087 269.10783 274.5132 281.57533 293.80418 300.86628 306.27168 313.2355 317.18074 321.02769 328.08979 334.32356 346.5524 350.39936">larning tuzilish usuliga to</tspan></text>
</g>
</g>
<g id="Layer-1" data-name="P">
<clipPath id="cp36823">
<path transform="matrix(1,0,0,-1,0,841.92)" d="M .000008871 0 L 595.32 0 L 595.32 841.92 L .000008871 841.92 Z " fill-rule="evenodd"/>
</clipPath>
<g clip-path="url(#cp36823)">
<text xml:space="preserve" transform="matrix(1 0 -0 1 0 841.92)" font-size="14.04" font-family="Times New Roman"><tspan y="-700.06" x="357.67">&#x2019;</tspan></text>
</g>
</g>
<g id="Layer-1" data-name="P">
<clipPath id="cp36824">
<path transform="matrix(1,0,0,-1,0,841.92)" d="M .000008871 0 L 595.32 0 L 595.32 841.92 L .000008871 841.92 Z " fill-rule="evenodd"/>
</clipPath>
<g clip-path="url(#cp36824)">
<text xml:space="preserve" transform="matrix(1 0 -0 1 0 841.92)" font-size="14.04" font-family="Times New Roman"><tspan y="-700.06" x="362.23 369.2921 373.23735 379.35877 383.304 387.15095 394.21305 406.4419">xtalib o</tspan></text>
</g>
</g>
<g id="Layer-1" data-name="P">
<clipPath id="cp36825">
<path transform="matrix(1,0,0,-1,0,841.92)" d="M .000008871 0 L 595.32 0 L 595.32 841.92 L .000008871 841.92 Z " fill-rule="evenodd"/>
</clipPath>
<g clip-path="url(#cp36825)">
<text xml:space="preserve" transform="matrix(1 0 -0 1 0 841.92)" font-size="14.04" font-family="Times New Roman"><tspan y="-700.06" x="413.59">&#x2019;</tspan></text>
</g>
</g>
<g id="Layer-1" data-name="P">
<clipPath id="cp36826">
<path transform="matrix(1,0,0,-1,0,841.92)" d="M .000008871 0 L 595.32 0 L 595.32 841.92 L .000008871 841.92 Z " fill-rule="evenodd"/>
</clipPath>
<g clip-path="url(#cp36826)">
<text xml:space="preserve" transform="matrix(1 0 -0 1 0 841.92)" font-size="14.04" font-family="Times New Roman"><tspan y="-700.06" x="418.15 421.99003">ti</tspan></text>
</g>
</g>
<g id="Layer-1" data-name="P">
<clipPath id="cp36827">
<path transform="matrix(1,0,0,-1,0,841.92)" d="M .000008871 0 L 595.32 0 L 595.32 841.92 L .000008871 841.92 Z " fill-rule="evenodd"/>
</clipPath>
<g clip-path="url(#cp36827)">
<text xml:space="preserve" transform="matrix(1 0 -0 1 0 841.92)" font-size="14.04" font-family="Times New Roman"><tspan y="-700.06" x="425.95 431.3554 438.31925 445.38136 451.50279 458.56489 470.79374 477.85585 481.7028 488.66664 492.61186 499.67396">shdan oldin </tspan></text>
</g>
</g>
<g id="Layer-1" data-name="P">
<clipPath id="cp36828">
<path transform="matrix(1,0,0,-1,0,841.92)" d="M .000008871 0 L 595.32 0 L 595.32 841.92 L .000008871 841.92 Z " fill-rule="evenodd"/>
</clipPath>
<g clip-path="url(#cp36828)">
<text xml:space="preserve" transform="matrix(1 0 -0 1 0 841.92)" font-size="14.04" font-family="Times New Roman"><tspan y="-700.06" x="512.02 516.583 523.64517 530.609 537.5729 543.07656 547.0218 553.8593">funksiya</tspan></text>
</g>
</g>
<g id="Layer-1" data-name="P">
<clipPath id="cp36829">
<path transform="matrix(1,0,0,-1,0,841.92)" d="M .000008871 0 L 595.32 0 L 595.32 841.92 L .000008871 841.92 Z " fill-rule="evenodd"/>
</clipPath>
<g clip-path="url(#cp36829)">
<text xml:space="preserve" transform="matrix(1 0 -0 1 0 841.92)" font-size="14.04" font-family="Times New Roman"><tspan y="-700.06" x="560.02"> </tspan></text>
</g>
</g>
<g id="Layer-1" data-name="P">
<clipPath id="cp36830">
<path transform="matrix(1,0,0,-1,0,841.92)" d="M .000008871 0 L 595.32 0 L 595.32 841.92 L .000008871 841.92 Z " fill-rule="evenodd"/>
</clipPath>
<g clip-path="url(#cp36830)">
<text xml:space="preserve" transform="matrix(1 0 -0 1 0 841.92)" font-size="14.04" font-family="Times New Roman"><tspan y="-675.94" x="85.104 89.04924 96.01308 101.41848 108.4806 112.32756 119.38968 125.511119 132.57323 138.80699 144.21239 148.05934 155.12146 161.35523 166.14286 173.10669 177.05193 181.72725 186.40256 193.46468">tushinchasiga bir bo</tspan></text>
</g>
</g>
<g id="Layer-1" data-name="P">
<clipPath id="cp36831">
<path transform="matrix(1,0,0,-1,0,841.92)" d="M .000008871 0 L 595.32 0 L 595.32 841.92 L .000008871 841.92 Z " fill-rule="evenodd"/>
</clipPath>
<g clip-path="url(#cp36831)">
<text xml:space="preserve" transform="matrix(1 0 -0 1 0 841.92)" font-size="14.04" font-family="Times New Roman"><tspan y="-675.94" x="200.69">&#x2019;</tspan></text>
</g>
</g>
<g id="Layer-1" data-name="P">
<clipPath id="cp36832">
<path transform="matrix(1,0,0,-1,0,841.92)" d="M .000008871 0 L 595.32 0 L 595.32 841.92 L .000008871 841.92 Z " fill-rule="evenodd"/>
</clipPath>
<g clip-path="url(#cp36832)">
<text xml:space="preserve" transform="matrix(1 0 -0 1 0 841.92)" font-size="14.04" font-family="Times New Roman"><tspan y="-675.94" x="205.13 209.07524 213.02048 223.70493 227.65016 234.71228 240.83373 247.89585 252.68347 259.74559 265.867 272.9291 279.05055 286.11265 292.3464 297.02174 300.96696 307.2007 311.04768 317.28144 324.24528 329.03294 336.09504 339.942 343.8872 347.73417 354.698 360.20167 366.43544 369.94544 374.70503 380.1104 387.17253 394.13636 401.19847 407.3199 414.382 420.61576 425.4034 436.08787 443.14997 447.8253 454.90144 458.74839 464.98216 468.92738 473.58866 480.65077 484.4977 488.44294 492.2899 497.69529 504.7574 509.54505 520.22946 527.4179 538.1023 545.1644 549.1097 556.1718 559.5274">limidan qancha talab qilinsa, shuncha murojat qilish mumkin. </tspan></text>
</g>
</g>
<g id="Layer-1" data-name="P">
<clipPath id="cp36833">
<path transform="matrix(1,0,0,-1,0,841.92)" d="M .000008871 0 L 595.32 0 L 595.32 841.92 L .000008871 841.92 Z " fill-rule="evenodd"/>
</clipPath>
<g clip-path="url(#cp36833)">
<text xml:space="preserve" transform="matrix(1 0 -0 1 0 841.92)" font-size="14.04" font-family="Times New Roman"><tspan y="-651.7" x="85.104 95.184719 105.265438 113.07168 117.747 127.926 137.29068 147.46968 152.97336 156.9186 163.15236 170.1162 177.17832 183.41208 187.97509 191.92032 195.76728 202.73111 208.96488 219.27024 229.95468 237.0168 242.52048 252.69948 259.7616 266.72544 270.67066 277.6345 283.86827 294.0613 301.1234 308.08726 315.0511 318.9963 325.11775 332.17985 338.30128 345.36338">ANSI C standartiga mos holda xoxlagan </tspan></text>
</g>
</g>
<g id="Layer-1" data-name="P">
<clipPath id="cp36834">
<path transform="matrix(1,0,0,-1,0,841.92)" d="M .000008871 0 L 595.32 0 L 595.32 841.92 L .000008871 841.92 Z " fill-rule="evenodd"/>
</clipPath>
<g clip-path="url(#cp36834)">
<text xml:space="preserve" transform="matrix(1 0 -0 1 0 841.92)" font-size="14.04" font-family="Times New Roman"><tspan y="-651.7" x="355.87 360.54533 367.50917 374.57127 381.5351 387.03877 390.98399 397.82145">funksiya</tspan></text>
</g>
</g>
<g id="Layer-1" data-name="P">
<clipPath id="cp36835">
<path transform="matrix(1,0,0,-1,0,841.92)" d="M .000008871 0 L 595.32 0 L 595.32 841.92 L .000008871 841.92 Z " fill-rule="evenodd"/>
</clipPath>
<g clip-path="url(#cp36835)">
<text xml:space="preserve" transform="matrix(1 0 -0 1 0 841.92)" font-size="14.04" font-family="Times New Roman"><tspan y="-651.7" x="404.11 411.1721 415.01905 421.98289 429.04499 439.224 445.34544 450.02076 457.0969 464.159">ning argum</tspan></text>
</g>
</g>
<g id="Layer-1" data-name="P">
<clipPath id="cp36836">
<path transform="matrix(1,0,0,-1,0,841.92)" d="M .000008871 0 L 595.32 0 L 595.32 841.92 L .000008871 841.92 Z " fill-rule="evenodd"/>
</clipPath>
<g clip-path="url(#cp36836)">
<text xml:space="preserve" transform="matrix(1 0 -0 1 0 841.92)" font-size="14.04" font-family="Times New Roman"><tspan y="-651.7" x="474.94">&#x0435;</tspan></text>
</g>
</g>
<g id="Layer-1" data-name="P">
<clipPath id="cp36837">
<path transform="matrix(1,0,0,-1,0,841.92)" d="M .000008871 0 L 595.32 0 L 595.32 841.92 L .000008871 841.92 Z " fill-rule="evenodd"/>
</clipPath>
<g clip-path="url(#cp36837)">
<text xml:space="preserve" transform="matrix(1 0 -0 1 0 841.92)" font-size="14.04" font-family="Times New Roman"><tspan y="-651.7" x="481.18 488.2421 492.18733 502.36634 506.2133 513.2754 517.8384 521.7836 528.0174 532.5804 536.52566 546.70468 553.7668 559.88827">nt turlari va </tspan></text>
</g>
</g>
<g id="Layer-1" data-name="P">
<clipPath id="cp36838">
<path transform="matrix(1,0,0,-1,0,841.92)" d="M .000008871 0 L 595.32 0 L 595.32 841.92 L .000008871 841.92 Z " fill-rule="evenodd"/>
</clipPath>
<g clip-path="url(#cp36838)">
<text xml:space="preserve" transform="matrix(1 0 -0 1 0 841.92)" font-size="14.04" font-family="Times New Roman"><tspan y="-627.58" x="85.104 91.33775 98.41391 102.26087 109.32299 115.55675 120.11975 123.96671 131.02883 137.15027 144.21239 148.15763 153.42263 157.26958 164.3317 169.00702 174.27202 181.33414 188.39626 199.0807 203.02594 208.4173 215.47942 219.32637 226.2902 230.23545 237.19928 244.2614 250.38285 257.44496 262.8363 267.51164 273.63307 279.03846 286.10057 291.50596 295.45118 302.28865 307.68 314.7421 318.58906 325.5529 332.615 339.57884 345.8126 352.88874 358.15376 365.11759 369.0628 376.02665 379.8736 386.9357 391.61103 397.00239 403.1238 407.06904 414.03288 421.09498 426.36 433.4221 437.26905 441.116 444.96296 452.02507 455.872 461.2774 468.3395 472.28474 477.54975 481.49497 488.4588 494.69258 498.6378 509.32225 512.8322 518.18148 528.2622 535.32437 542.16189 546.1071 553.16928 559.403">chiqarivchi tur nomi oldindan (asosiy blokdan oldin) elon qilinishi lozim. Quyida </tspan></text>
</g>
</g>
<g id="Layer-1" data-name="P">
<clipPath id="cp36839">
<path transform="matrix(1,0,0,-1,0,841.92)" d="M .000008871 0 L 595.32 0 L 595.32 841.92 L .000008871 841.92 Z " fill-rule="evenodd"/>
</clipPath>
<g clip-path="url(#cp36839)">
<text xml:space="preserve" transform="matrix(1 0 -0 1 0 841.92)" font-size="14.04" font-family="Times New Roman"><tspan y="-603.46" x="85.104 89.77932 96.85548 103.81931 110.78315 116.286838 120.23208 127.06956">funksiya</tspan></text>
</g>
</g>
<g id="Layer-1" data-name="P">
<clipPath id="cp36840">
<path transform="matrix(1,0,0,-1,0,841.92)" d="M .000008871 0 L 595.32 0 L 595.32 841.92 L .000008871 841.92 Z " fill-rule="evenodd"/>
</clipPath>
<g clip-path="url(#cp36840)">
<text xml:space="preserve" transform="matrix(1 0 -0 1 0 841.92)" font-size="14.04" font-family="Times New Roman"><tspan y="-603.46" x="133.34 140.40212 144.24907 151.2129 158.27503 173.85942 180.92154 191.60599 198.6681 209.35256 213.42417 220.388 235.9724 243.03452 250.09664 253.94359 261.0057 267.23948 282.83793 288.95936 292.90458 299.8684 306.83226 322.41667 329.47877 333.3257 337.27095 343.5047 354.18916 358.13438 364.36814 368.31336 383.89778 393.9785 400.21226 404.15748 408.1027 411.94966 418.07109 433.6555 440.7176 444.56455 451.62666 456.30198 460.2472">ning umumiy holda elon qilamiz: Natija _turi </tspan></text>
</g>
</g>
<g id="Layer-1" data-name="P">
<clipPath id="cp36841">
<path transform="matrix(1,0,0,-1,0,841.92)" d="M .000008871 0 L 595.32 0 L 595.32 841.92 L .000008871 841.92 Z " fill-rule="evenodd"/>
</clipPath>
<g clip-path="url(#cp36841)">
<text xml:space="preserve" transform="matrix(1 0 -0 1 0 841.92)" font-size="14.04" font-family="Times New Roman"><tspan y="-603.46" x="476.26 480.823 487.78684 494.84895 501.81278 507.31645 511.26167 518.0992">funksiya</tspan></text>
</g>
</g>
<g id="Layer-1" data-name="P">
<clipPath id="cp36842">
<path transform="matrix(1,0,0,-1,0,841.92)" d="M .000008871 0 L 595.32 0 L 595.32 841.92 L .000008871 841.92 Z " fill-rule="evenodd"/>
</clipPath>
<g clip-path="url(#cp36842)">
<text xml:space="preserve" transform="matrix(1 0 -0 1 0 841.92)" font-size="14.04" font-family="Times New Roman"><tspan y="-603.46" x="524.38 531.3439 538.30776 545.3699 556.05429 559.9995">_nomi </tspan></text>
</g>
</g>
<g id="Layer-1" data-name="P">
<clipPath id="cp36843">
<path transform="matrix(1,0,0,-1,0,841.92)" d="M .000008871 0 L 595.32 0 L 595.32 841.92 L .000008871 841.92 Z " fill-rule="evenodd"/>
</clipPath>
<g clip-path="url(#cp36843)">
<text xml:space="preserve" transform="matrix(1 0 -0 1 0 841.92)" font-size="14.04" font-family="Times New Roman"><tspan y="-579.34" x="85.104 89.77932 96.01308 100.6884 107.666278 114.72839">(argum</tspan></text>
</g>
</g>
<g id="Layer-1" data-name="P">
<clipPath id="cp36844">
<path transform="matrix(1,0,0,-1,0,841.92)" d="M .000008871 0 L 595.32 0 L 595.32 841.92 L .000008871 841.92 Z " fill-rule="evenodd"/>
</clipPath>
<g clip-path="url(#cp36844)">
<text xml:space="preserve" transform="matrix(1 0 -0 1 0 841.92)" font-size="14.04" font-family="Times New Roman"><tspan y="-579.34" x="125.42">&#x0435;</tspan></text>
</g>
</g>
<g id="Layer-1" data-name="P">
<clipPath id="cp36845">
<path transform="matrix(1,0,0,-1,0,841.92)" d="M .000008871 0 L 595.32 0 L 595.32 841.92 L .000008871 841.92 Z " fill-rule="evenodd"/>
</clipPath>
<g clip-path="url(#cp36845)">
<text xml:space="preserve" transform="matrix(1 0 -0 1 0 841.92)" font-size="14.04" font-family="Times New Roman"><tspan y="-579.34" x="131.66 138.72212 142.66736 149.6312 153.57643 160.54027 165.21559 169.16083 175.5069 180.9123 187.97441 194.20818 198.77118 202.61814 209.68025 216.64409">nt_turi shart_bo</tspan></text>
</g>
</g>
<g id="Layer-1" data-name="P">
<clipPath id="cp36846">
<path transform="matrix(1,0,0,-1,0,841.92)" d="M .000008871 0 L 595.32 0 L 595.32 841.92 L .000008871 841.92 Z " fill-rule="evenodd"/>
</clipPath>
<g clip-path="url(#cp36846)">
<text xml:space="preserve" transform="matrix(1 0 -0 1 0 841.92)" font-size="14.04" font-family="Times New Roman"><tspan y="-579.34" x="223.85">&#x2019;</tspan></text>
</g>
</g>
<g id="Layer-1" data-name="P">
<clipPath id="cp36847">
<path transform="matrix(1,0,0,-1,0,841.92)" d="M .000008871 0 L 595.32 0 L 595.32 841.92 L .000008871 841.92 Z " fill-rule="evenodd"/>
</clipPath>
<g clip-path="url(#cp36847)">
<text xml:space="preserve" transform="matrix(1 0 -0 1 0 841.92)" font-size="14.04" font-family="Times New Roman"><tspan y="-579.34" x="228.41 232.35524 243.03969 249.27346 256.3496 262.58338 269.65953 276.62336 282.85713 287.53245 294.5103 301.57243">lmagan_argum</tspan></text>
</g>
</g>
<g id="Layer-1" data-name="P">
<clipPath id="cp36848">
<path transform="matrix(1,0,0,-1,0,841.92)" d="M .000008871 0 L 595.32 0 L 595.32 841.92 L .000008871 841.92 Z " fill-rule="evenodd"/>
</clipPath>
<g clip-path="url(#cp36848)">
<text xml:space="preserve" transform="matrix(1 0 -0 1 0 841.92)" font-size="14.04" font-family="Times New Roman"><tspan y="-579.34" x="312.29">&#x0435;</tspan></text>
</g>
</g>
<g id="Layer-1" data-name="P">
<clipPath id="cp36849">
<path transform="matrix(1,0,0,-1,0,841.92)" d="M .000008871 0 L 595.32 0 L 595.32 841.92 L .000008871 841.92 Z " fill-rule="evenodd"/>
</clipPath>
<g clip-path="url(#cp36849)">
<text xml:space="preserve" transform="matrix(1 0 -0 1 0 841.92)" font-size="14.04" font-family="Times New Roman"><tspan y="-579.34" x="318.55 325.6121 329.45906 336.42289 343.485 350.5471 361.23155 365.17677 371.6492 376.32453 379.83454 393.87455 398.40946 403.08479 407.03">nt_nomi [,&#x2026;]); </tspan></text>
</g>
</g>
<g id="Layer-1" data-name="P">
<clipPath id="cp36850">
<path transform="matrix(1,0,0,-1,0,841.92)" d="M .000008871 0 L 595.32 0 L 595.32 841.92 L .000008871 841.92 Z " fill-rule="evenodd"/>
</clipPath>
<g clip-path="url(#cp36850)">
<text xml:space="preserve" transform="matrix(1 0 -0 1 0 841.92)" font-size="14.04" font-family="Times New Roman"><tspan y="-579.34" x="413.59 421.26988 428.33198 435.2958 442.3579 447.7633 451.70854 458.546">Funksiya</tspan></text>
</g>
</g>
<g id="Layer-1" data-name="P">
<clipPath id="cp36851">
<path transform="matrix(1,0,0,-1,0,841.92)" d="M .000008871 0 L 595.32 0 L 595.32 841.92 L .000008871 841.92 Z " fill-rule="evenodd"/>
</clipPath>
<g clip-path="url(#cp36851)">
<text xml:space="preserve" transform="matrix(1 0 -0 1 0 841.92)" font-size="14.04" font-family="Times New Roman"><tspan y="-579.34" x="464.86"> </tspan></text>
</g>
</g>
<g id="Layer-1" data-name="P">
<clipPath id="cp36852">
<path transform="matrix(1,0,0,-1,0,841.92)" d="M .000008871 0 L 595.32 0 L 595.32 841.92 L .000008871 841.92 Z " fill-rule="evenodd"/>
</clipPath>
<g clip-path="url(#cp36852)">
<text xml:space="preserve" transform="matrix(1 0 -0 1 0 841.92)" font-size="14.04" font-family="Times New Roman"><tspan y="-579.34" x="471.34 478.4021 485.36595 489.2129 496.275 499.785 506.21534 510.0623 517.0261 520.9714 524.4814 530.91177 535.58706 539.434 546.49618 552.6176 556.4646 559.9746">void, int, float, </tspan></text>
</g>
</g>
<g id="Layer-1" data-name="P">
<clipPath id="cp36853">
<path transform="matrix(1,0,0,-1,0,841.92)" d="M .000008871 0 L 595.32 0 L 595.32 841.92 L .000008871 841.92 Z " fill-rule="evenodd"/>
</clipPath>
<g clip-path="url(#cp36853)">
<text xml:space="preserve" transform="matrix(1 0 -0 1 0 841.92)" font-size="14.04" font-family="Times New Roman"><tspan y="-555.07" x="85.104 91.33775 98.41391 104.64767 109.32299 112.83299 121.91688 128.97899 135.21276 144.45107 151.51319 154.86875 161.93087 171.15514 175.00209 182.06421 186.62722 193.68933 199.9231 206.88694 210.83217 220.05644 227.02028 230.96552 237.92935 248.6138 254.84757 258.7928 262.738 268.97178 273.6471 280.72325 286.84468 293.90678 303.13108 310.0949 314.04014 318.60313 322.54835 329.51219 333.4574 342.6817">char, va h.k turdagi qiymatlardan birini b</tspan></text>
</g>
</g>
<g id="Layer-1" data-name="P">
<clipPath id="cp36854">
<path transform="matrix(1,0,0,-1,0,841.92)" d="M .000008871 0 L 595.32 0 L 595.32 841.92 L .000008871 841.92 Z " fill-rule="evenodd"/>
</clipPath>
<g clip-path="url(#cp36854)">
<text xml:space="preserve" transform="matrix(1 0 -0 1 0 841.92)" font-size="14.04" font-family="Times New Roman"><tspan y="-555.07" x="350.11">&#x0435;</tspan></text>
</g>
</g>
<g id="Layer-1" data-name="P">
<clipPath id="cp36855">
<path transform="matrix(1,0,0,-1,0,841.92)" d="M .000008871 0 L 595.32 0 L 595.32 841.92 L .000008871 841.92 Z " fill-rule="evenodd"/>
</clipPath>
<g clip-path="url(#cp36855)">
<text xml:space="preserve" transform="matrix(1 0 -0 1 0 841.92)" font-size="14.04" font-family="Times New Roman"><tspan y="-555.07" x="356.35 360.913 364.75996 370.2636 377.22746 381.17268 390.39698 401.08143 408.2699 418.95436 426.01646 429.96168 437.02378 446.24809 450.81108 457.87318 464.10694 470.95845 474.90367 481.13743 485.81275 489.6597 495.16337 502.1272 506.07243 510.74775 514.25778 523.454 533.5347 538.9401 546.00228 552.8398 559.80368">rishi mumkin (qaytarishi). Ushbu </tspan></text>
</g>
</g>
<g id="Layer-1" data-name="P">
<clipPath id="cp36856">
<path transform="matrix(1,0,0,-1,0,841.92)" d="M .000008871 0 L 595.32 0 L 595.32 841.92 L .000008871 841.92 Z " fill-rule="evenodd"/>
</clipPath>
<g clip-path="url(#cp36856)">
<text xml:space="preserve" transform="matrix(1 0 -0 1 0 841.92)" font-size="14.04" font-family="Times New Roman"><tspan y="-530.95" x="85.104 92.184">ko</tspan></text>
</g>
</g>
<g id="Layer-1" data-name="P">
<clipPath id="cp36857">
<path transform="matrix(1,0,0,-1,0,841.92)" d="M .000008871 0 L 595.32 0 L 595.32 841.92 L .000008871 841.92 Z " fill-rule="evenodd"/>
</clipPath>
<g clip-path="url(#cp36857)">
<text xml:space="preserve" transform="matrix(1 0 -0 1 0 841.92)" font-size="14.04" font-family="Times New Roman"><tspan y="-530.95" x="99.264">&#x2019;</tspan></text>
</g>
</g>
<g id="Layer-1" data-name="P">
<clipPath id="cp36858">
<path transform="matrix(1,0,0,-1,0,841.92)" d="M .000008871 0 L 595.32 0 L 595.32 841.92 L .000008871 841.92 Z " fill-rule="evenodd"/>
</clipPath>
<g clip-path="url(#cp36858)">
<text xml:space="preserve" transform="matrix(1 0 -0 1 0 841.92)" font-size="14.04" font-family="Times New Roman"><tspan y="-530.95" x="103.82 108.49532 112.342288 119.4044 123.251369 128.65676 135.71887 139.79047 150.47492 156.70868 160.65392 167.71604 172.39136 177.06668">rinish main() </tspan></text>
</g>
</g>
<g id="Layer-1" data-name="P">
<clipPath id="cp36859">
<path transform="matrix(1,0,0,-1,0,841.92)" d="M .000008871 0 L 595.32 0 L 595.32 841.92 L .000008871 841.92 Z " fill-rule="evenodd"/>
</clipPath>
<g clip-path="url(#cp36859)">
<text xml:space="preserve" transform="matrix(1 0 -0 1 0 841.92)" font-size="14.04" font-family="Times New Roman"><tspan y="-530.95" x="181.22 185.783 192.74684 199.80896 206.7728 212.27648 216.22171 223.05919">funksiya</tspan></text>
</g>
</g>
<g id="Layer-1" data-name="P">
<clipPath id="cp36860">
<path transform="matrix(1,0,0,-1,0,841.92)" d="M .000008871 0 L 595.32 0 L 595.32 841.92 L .000008871 841.92 Z " fill-rule="evenodd"/>
</clipPath>
<g clip-path="url(#cp36860)">
<text xml:space="preserve" transform="matrix(1 0 -0 1 0 841.92)" font-size="14.04" font-family="Times New Roman"><tspan y="-530.95" x="229.37 234.87368 238.72063 242.79222 247.46755 253.70131 259.10673 266.07057 271.57423 275.51945 282.3569 286.42854 293.49064 299.61207 305.11573 308.96269 316.02479 320.7001 325.2631 329.20835 336.27046 342.39189 349.45399 353.39924 360.46134 364.3083 371.3704 375.21736 382.27946 386.35108 393.18855 400.25065 406.4844 410.33137 414.27659 420.398 427.4601 431.40534 434.7609">si (asosiy dastur) dan oldin yoziladi. </tspan></text>
</g>
</g>
<g id="Layer-1" data-name="P">
<clipPath id="cp36861">
<path transform="matrix(1,0,0,-1,0,841.92)" d="M .000008871 0 L 595.32 0 L 595.32 841.92 L .000008871 841.92 Z " fill-rule="evenodd"/>
</clipPath>
<g clip-path="url(#cp36861)">
<text xml:space="preserve" transform="matrix(1 0 -0 1 0 841.92)" font-size="14.04" font-family="Times New Roman"><tspan y="-530.95" x="439.15 446.82987 453.89198 460.8558 467.81965 473.3233 477.26853 484.106">Funksiya</tspan></text>
</g>
</g>
<g id="Layer-1" data-name="P">
<clipPath id="cp36862">
<path transform="matrix(1,0,0,-1,0,841.92)" d="M .000008871 0 L 595.32 0 L 595.32 841.92 L .000008871 841.92 Z " fill-rule="evenodd"/>
</clipPath>
<g clip-path="url(#cp36862)">
<text xml:space="preserve" transform="matrix(1 0 -0 1 0 841.92)" font-size="14.04" font-family="Times New Roman"><tspan y="-530.95" x="490.42"> </tspan></text>
</g>
</g>
<g id="Layer-1" data-name="P">
<clipPath id="cp36863">
<path transform="matrix(1,0,0,-1,0,841.92)" d="M .000008871 0 L 595.32 0 L 595.32 841.92 L .000008871 841.92 Z " fill-rule="evenodd"/>
</clipPath>
<g clip-path="url(#cp36863)">
<text xml:space="preserve" transform="matrix(1 0 -0 1 0 841.92)" font-size="14.04" font-family="Times New Roman"><tspan y="-530.95" x="494.5 501.46385 508.52595 515.4898 519.43508 523.50668 534.19107 540.4248 544.37008 551.4322 555.37747 559.9404">kodi main ( </tspan></text>
</g>
</g>
<g id="Layer-1" data-name="P">
<clipPath id="cp36864">
<path transform="matrix(1,0,0,-1,0,841.92)" d="M .000008871 0 L 595.32 0 L 595.32 841.92 L .000008871 841.92 Z " fill-rule="evenodd"/>
</clipPath>
<g clip-path="url(#cp36864)">
<text xml:space="preserve" transform="matrix(1 0 -0 1 0 841.92)" font-size="14.04" font-family="Times New Roman"><tspan y="-506.83" x="85.104 89.784">) </tspan></text>
</g>
</g>
<g id="Layer-1" data-name="P">
<clipPath id="cp36865">
<path transform="matrix(1,0,0,-1,0,841.92)" d="M .000008871 0 L 595.32 0 L 595.32 841.92 L .000008871 841.92 Z " fill-rule="evenodd"/>
</clipPath>
<g clip-path="url(#cp36865)">
<text xml:space="preserve" transform="matrix(1 0 -0 1 0 841.92)" font-size="14.04" font-family="Times New Roman"><tspan y="-506.83" x="93.384 98.059329 105.02316 111.987 119.04912 124.45452 128.39975 135.23723">funksiya</tspan></text>
</g>
</g>
<g id="Layer-1" data-name="P">
<clipPath id="cp36866">
<path transform="matrix(1,0,0,-1,0,841.92)" d="M .000008871 0 L 595.32 0 L 595.32 841.92 L .000008871 841.92 Z " fill-rule="evenodd"/>
</clipPath>
<g clip-path="url(#cp36866)">
<text xml:space="preserve" transform="matrix(1 0 -0 1 0 841.92)" font-size="14.04" font-family="Times New Roman"><tspan y="-506.83" x="141.5 147.00368 150.94892 157.91275 164.14652 171.11035 174.69055 180.92432 187.88816 194.95027 201.07172 204.91867 208.49887 215.33635 222.39847 229.46059 233.40583 236.91582">sidan avval yoki k</tspan></text>
</g>
</g>
<g id="Layer-1" data-name="P">
<clipPath id="cp36867">
<path transform="matrix(1,0,0,-1,0,841.92)" d="M .000008871 0 L 595.32 0 L 595.32 841.92 L .000008871 841.92 Z " fill-rule="evenodd"/>
</clipPath>
<g clip-path="url(#cp36867)">
<text xml:space="preserve" transform="matrix(1 0 -0 1 0 841.92)" font-size="14.04" font-family="Times New Roman"><tspan y="-506.83" x="244.13">&#x0435;</tspan></text>
</g>
</g>
<g id="Layer-1" data-name="P">
<clipPath id="cp36868">
<path transform="matrix(1,0,0,-1,0,841.92)" d="M .000008871 0 L 595.32 0 L 595.32 841.92 L .000008871 841.92 Z " fill-rule="evenodd"/>
</clipPath>
<g clip-path="url(#cp36868)">
<text xml:space="preserve" transform="matrix(1 0 -0 1 0 841.92)" font-size="14.04" font-family="Times New Roman"><tspan y="-506.83" x="250.37 257.20747 261.15269 268.21479 271.79499 278.63246 285.69456 291.9283 295.77528 299.7205 305.84193 312.90403 316.75099 320.6962 324.2062 334.25886 340.4926 344.43785 348.38307 352.23 358.35145 365.41355 369.2605 376.3226 380.8856 384.8308">yin yoziladi: Natija_turi </tspan></text>
</g>
</g>
<g id="Layer-1" data-name="P">
<clipPath id="cp36869">
<path transform="matrix(1,0,0,-1,0,841.92)" d="M .000008871 0 L 595.32 0 L 595.32 841.92 L .000008871 841.92 Z " fill-rule="evenodd"/>
</clipPath>
<g clip-path="url(#cp36869)">
<text xml:space="preserve" transform="matrix(1 0 -0 1 0 841.92)" font-size="14.04" font-family="Times New Roman"><tspan y="-506.83" x="388.63 393.193 400.2551 407.21894 414.18278 419.68644 423.63166 430.46913">funksiya</tspan></text>
</g>
</g>
<g id="Layer-1" data-name="P">
<clipPath id="cp36870">
<path transform="matrix(1,0,0,-1,0,841.92)" d="M .000008871 0 L 595.32 0 L 595.32 841.92 L .000008871 841.92 Z " fill-rule="evenodd"/>
</clipPath>
<g clip-path="url(#cp36870)">
<text xml:space="preserve" transform="matrix(1 0 -0 1 0 841.92)" font-size="14.04" font-family="Times New Roman"><tspan y="-506.83" x="436.75 443.71385 450.77595 457.83805 468.5225 472.4677 476.0479 480.72325 486.957 491.53407 498.59617 505.65827">_nomi (argum</tspan></text>
</g>
</g>
<g id="Layer-1" data-name="P">
<clipPath id="cp36871">
<path transform="matrix(1,0,0,-1,0,841.92)" d="M .000008871 0 L 595.32 0 L 595.32 841.92 L .000008871 841.92 Z " fill-rule="evenodd"/>
</clipPath>
<g clip-path="url(#cp36871)">
<text xml:space="preserve" transform="matrix(1 0 -0 1 0 841.92)" font-size="14.04" font-family="Times New Roman"><tspan y="-506.83" x="516.46">&#x0435;</tspan></text>
</g>
</g>
<g id="Layer-1" data-name="P">
<clipPath id="cp36872">
<path transform="matrix(1,0,0,-1,0,841.92)" d="M .000008871 0 L 595.32 0 L 595.32 841.92 L .000008871 841.92 Z " fill-rule="evenodd"/>
</clipPath>
<g clip-path="url(#cp36872)">
<text xml:space="preserve" transform="matrix(1 0 -0 1 0 841.92)" font-size="14.04" font-family="Times New Roman"><tspan y="-506.83" x="522.7 529.76217 533.60916 540.67129 544.51828 551.5804 556.1434 559.99038">nt_turi </tspan></text>
</g>
</g>
<g id="Layer-1" data-name="P">
<clipPath id="cp36873">
<path transform="matrix(1,0,0,-1,0,841.92)" d="M .000008871 0 L 595.32 0 L 595.32 841.92 L .000008871 841.92 Z " fill-rule="evenodd"/>
</clipPath>
<g clip-path="url(#cp36873)">
<text xml:space="preserve" transform="matrix(1 0 -0 1 0 841.92)" font-size="14.04" font-family="Times New Roman"><tspan y="-482.71" x="85.104 91.33775 96.01308 102.99095 110.05307">argum</tspan></text>
</g>
</g>
<g id="Layer-1" data-name="P">
<clipPath id="cp36874">
<path transform="matrix(1,0,0,-1,0,841.92)" d="M .000008871 0 L 595.32 0 L 595.32 841.92 L .000008871 841.92 Z " fill-rule="evenodd"/>
</clipPath>
<g clip-path="url(#cp36874)">
<text xml:space="preserve" transform="matrix(1 0 -0 1 0 841.92)" font-size="14.04" font-family="Times New Roman"><tspan y="-482.71" x="120.74">&#x0435;</tspan></text>
</g>
</g>
<g id="Layer-1" data-name="P">
<clipPath id="cp36875">
<path transform="matrix(1,0,0,-1,0,841.92)" d="M .000008871 0 L 595.32 0 L 595.32 841.92 L .000008871 841.92 Z " fill-rule="evenodd"/>
</clipPath>
<g clip-path="url(#cp36875)">
<text xml:space="preserve" transform="matrix(1 0 -0 1 0 841.92)" font-size="14.04" font-family="Times New Roman"><tspan y="-482.71" x="126.98 134.04212 137.98735 144.95119 152.0133 159.07543 169.75988 173.70511 181.13227 185.80759 189.31758 203.21718 207.78018 212.4555 219.88266 226.62186 240.66185 244.11568 247.62567">nt_nomi [,&#x2026;]) {&#x2026;.. </tspan></text>
</g>
</g>
<g id="Layer-1" data-name="P">
<clipPath id="cp36876">
<path transform="matrix(1,0,0,-1,0,841.92)" d="M .000008871 0 L 595.32 0 L 595.32 841.92 L .000008871 841.92 Z " fill-rule="evenodd"/>
</clipPath>
<g clip-path="url(#cp36876)">
<text xml:space="preserve" transform="matrix(1 0 -0 1 0 841.92)" font-size="14.04" font-family="Times New Roman"><tspan y="-482.71" x="255.17 259.8453 266.92146 273.88529 280.9474 286.35279 290.298 297.13548">funksiya</tspan></text>
</g>
</g>
<g id="Layer-1" data-name="P">
<clipPath id="cp36877">
<path transform="matrix(1,0,0,-1,0,841.92)" d="M .000008871 0 L 595.32 0 L 595.32 841.92 L .000008871 841.92 Z " fill-rule="evenodd"/>
</clipPath>
<g clip-path="url(#cp36877)">
<text xml:space="preserve" transform="matrix(1 0 -0 1 0 841.92)" font-size="14.04" font-family="Times New Roman"><tspan y="-482.71" x="303.41 310.4721 314.41734 320.53877 327.60087 333.83464 339.24003 343.18525 350.61244 357.35163 371.39164 374.8455 378.3555 385.75459 394.15049 398.0957 401.94267 409.00477 415.9686 420.64393 428.0711">_tanasi }&#x2026;.. Etibor b</tspan></text>
</g>
</g>
<g id="Layer-1" data-name="P">
<clipPath id="cp36878">
<path transform="matrix(1,0,0,-1,0,841.92)" d="M .000008871 0 L 595.32 0 L 595.32 841.92 L .000008871 841.92 Z " fill-rule="evenodd"/>
</clipPath>
<g clip-path="url(#cp36878)">
<text xml:space="preserve" transform="matrix(1 0 -0 1 0 841.92)" font-size="14.04" font-family="Times New Roman"><tspan y="-482.71" x="435.19">&#x0435;</tspan></text>
</g>
</g>
<g id="Layer-1" data-name="P">
<clipPath id="cp36879">
<path transform="matrix(1,0,0,-1,0,841.92)" d="M .000008871 0 L 595.32 0 L 595.32 841.92 L .000008871 841.92 Z " fill-rule="evenodd"/>
</clipPath>
<g clip-path="url(#cp36879)">
<text xml:space="preserve" transform="matrix(1 0 -0 1 0 841.92)" font-size="14.04" font-family="Times New Roman"><tspan y="-482.71" x="441.34 446.01533 449.96055 457.02265 464.32347 471.38557 477.507 482.1823 488.41609 493.82148 500.05525 507.13139 514.4322 521.39608 528.4582">rib qarasak bu </tspan></text>
</g>
</g>
<g id="Layer-1" data-name="P">
<clipPath id="cp36880">
<path transform="matrix(1,0,0,-1,0,841.92)" d="M .000008871 0 L 595.32 0 L 595.32 841.92 L .000008871 841.92 Z " fill-rule="evenodd"/>
</clipPath>
<g clip-path="url(#cp36880)">
<text xml:space="preserve" transform="matrix(1 0 -0 1 0 841.92)" font-size="14.04" font-family="Times New Roman"><tspan y="-482.71" x="536.02">&#x0435;</tspan></text>
</g>
</g>
<g id="Layer-1" data-name="P">
<clipPath id="cp36881">
<path transform="matrix(1,0,0,-1,0,841.92)" d="M .000008871 0 L 595.32 0 L 595.32 841.92 L .000008871 841.92 Z " fill-rule="evenodd"/>
</clipPath>
<g clip-path="url(#cp36881)">
<text xml:space="preserve" transform="matrix(1 0 -0 1 0 841.92)" font-size="14.04" font-family="Times New Roman"><tspan y="-482.71" x="542.26 546.823 553.88516 560.0066">rda </tspan></text>
</g>
</g>
<g id="Layer-1" data-name="P">
<clipPath id="cp36882">
<path transform="matrix(1,0,0,-1,0,841.92)" d="M .000008871 0 L 595.32 0 L 595.32 841.92 L .000008871 841.92 Z " fill-rule="evenodd"/>
</clipPath>
<g clip-path="url(#cp36882)">
<text xml:space="preserve" transform="matrix(1 0 -0 1 0 841.92)" font-size="14.04" font-family="Times New Roman"><tspan y="-458.47" x="85.104 89.77932 96.85548 103.81931 110.78315 116.286838 120.23208 127.06956">funksiya</tspan></text>
</g>
</g>
<g id="Layer-1" data-name="P">
<clipPath id="cp36883">
<path transform="matrix(1,0,0,-1,0,841.92)" d="M .000008871 0 L 595.32 0 L 595.32 841.92 L .000008871 841.92 Z " fill-rule="evenodd"/>
</clipPath>
<g clip-path="url(#cp36883)">
<text xml:space="preserve" transform="matrix(1 0 -0 1 0 841.92)" font-size="14.04" font-family="Times New Roman"><tspan y="-458.47" x="133.34 140.40212 144.24907 151.2129 158.27503 166.06722 173.03105 180.09317 190.77762 194.72286 200.95662 208.03279 211.87975 217.28514 224.34726 232.13945 237.64313 243.76457 247.70981 252.38513 256.33036 263.99623 271.05833 274.90528 278.8505 284.97193 292.03404 299.82624 306.06">ning nomlanish satri bilan el</tspan></text>
</g>
</g>
<g id="Layer-1" data-name="P">
<clipPath id="cp36884">
<path transform="matrix(1,0,0,-1,0,841.92)" d="M .000008871 0 L 595.32 0 L 595.32 841.92 L .000008871 841.92 Z " fill-rule="evenodd"/>
</clipPath>
<g clip-path="url(#cp36884)">
<text xml:space="preserve" transform="matrix(1 0 -0 1 0 841.92)" font-size="14.04" font-family="Times New Roman"><tspan y="-458.47" x="310.13 317.09385 324.15596 331.94816 338.912 342.8572 346.70417 350.64939 356.05479 363.11689 370.9091 376.31449 382.54826 386.49348 391.05647 395.00169 402.79389 409.856 414.41899 420.65275 426.05815 430.00337 436.9672 443.20097 450.99317 458.05528 462.0005 468.12193 475.08576 482.14787 485.9948 493.05693 499.29069 507.0829 511.7582 517.99197 522.569 529.6311 537.42337 544.3872 551.44937 555.8859 559.7329">on qilish satri orasida kichgina farq bor: </tspan></text>
</g>
</g>
<g id="Layer-1" data-name="P">
<clipPath id="cp36885">
<path transform="matrix(1,0,0,-1,0,841.92)" d="M .000008871 0 L 595.32 0 L 595.32 841.92 L .000008871 841.92 Z " fill-rule="evenodd"/>
</clipPath>
<g clip-path="url(#cp36885)">
<text xml:space="preserve" transform="matrix(1 0 -0 1 0 841.92)" font-size="14.04" font-family="Times New Roman"><tspan y="-434.35" x="85.104 92.166118 99.22823 109.912677 113.85792 120.091678 127.05551 131.00075 136.40615 143.46826 148.01721 153.52089 159.64234 163.58757 167.43453 172.10985 176.05509 180.60404 187.56787 193.80164 198.35059 204.58435 209.1333 213.07854 217.62749 223.86125 228.4102 235.47232">nomlanish satiri da &#x201d; ; &#x201d; qo</tspan></text>
</g>
</g>
<g id="Layer-1" data-name="P">
<clipPath id="cp36886">
<path transform="matrix(1,0,0,-1,0,841.92)" d="M .000008871 0 L 595.32 0 L 595.32 841.92 L .000008871 841.92 Z " fill-rule="evenodd"/>
</clipPath>
<g clip-path="url(#cp36886)">
<text xml:space="preserve" transform="matrix(1 0 -0 1 0 841.92)" font-size="14.04" font-family="Times New Roman"><tspan y="-434.35" x="242.81">&#x2019;</tspan></text>
</g>
</g>
<g id="Layer-1" data-name="P">
<clipPath id="cp36887">
<path transform="matrix(1,0,0,-1,0,841.92)" d="M .000008871 0 L 595.32 0 L 595.32 841.92 L .000008871 841.92 Z " fill-rule="evenodd"/>
</clipPath>
<g clip-path="url(#cp36887)">
<text xml:space="preserve" transform="matrix(1 0 -0 1 0 841.92)" font-size="14.04" font-family="Times New Roman"><tspan y="-434.35" x="247.37 254.20748 258.1527 262.2243 272.90876 279.14253 286.21867 292.45243 299.52857 303.03858 307.55949 316.92417">yilmagan. Ba</tspan></text>
</g>
</g>
<g id="Layer-1" data-name="P">
<clipPath id="cp36888">
<path transform="matrix(1,0,0,-1,0,841.92)" d="M .000008871 0 L 595.32 0 L 595.32 841.92 L .000008871 841.92 Z " fill-rule="evenodd"/>
</clipPath>
<g clip-path="url(#cp36888)">
<text xml:space="preserve" transform="matrix(1 0 -0 1 0 841.92)" font-size="14.04" font-family="Times New Roman"><tspan y="-434.35" x="323.23">&#x2019;</tspan></text>
</g>
</g>
<g id="Layer-1" data-name="P">
<clipPath id="cp36889">
<path transform="matrix(1,0,0,-1,0,841.92)" d="M .000008871 0 L 595.32 0 L 595.32 841.92 L .000008871 841.92 Z " fill-rule="evenodd"/>
</clipPath>
<g clip-path="url(#cp36889)">
<text xml:space="preserve" transform="matrix(1 0 -0 1 0 841.92)" font-size="14.04" font-family="Times New Roman"><tspan y="-434.35" x="327.79 334.02378 337.969 342.63029 353.31474 359.5485 365.0662 371.29997 375.24519 381.47895 385.42417 391.65794 396.22093 403.28303 409.51679 414.06578 418.62876 425.69087 432.6547 439.61854 445.02394 448.96916 455.8066 462.04039 466.58937 470.53459 476.76835 482.28605 489.24989 496.31199 500.15895 504.10417 508.65315 514.8869 518.7339 522.67916 526.5261 533.58828 539.7097 546.6736 553.63748 559.7589">zi masalalarda funksiya tashkil etilganda </tspan></text>
</g>
</g>
<g id="Layer-1" data-name="P">
<clipPath id="cp36890">
<path transform="matrix(1,0,0,-1,0,841.92)" d="M .000008871 0 L 595.32 0 L 595.32 841.92 L .000008871 841.92 Z " fill-rule="evenodd"/>
</clipPath>
<g clip-path="url(#cp36890)">
<text xml:space="preserve" transform="matrix(1 0 -0 1 0 841.92)" font-size="14.04" font-family="Times New Roman"><tspan y="-410.23" x="85.104 89.77932 96.85548 103.81931 110.78315 116.286838 120.23208 127.06956 133.30332 140.37949 144.32472 148.26996 152.2152 158.33664 163.84032 170.80416 177.86627 181.71323 185.65847 189.73006 195.8515 199.79674 205.91819 212.9803 216.82726 223.88938 230.01082 237.07294 241.14453 248.20665 254.3281 259.00343 265.23719 275.92164 282.1554 286.10063 290.77595 294.84757 301.90968 305.8549 312.81874 323.61549 329.84925 333.79447 339.9159 343.8611 348.53645 352.3834 359.34724 363.29246 367.36408">funksiyani tashkil etadigan parametr qiymatalrini o</tspan></text>
</g>
</g>
<g id="Layer-1" data-name="P">
<clipPath id="cp36891">
<path transform="matrix(1,0,0,-1,0,841.92)" d="M .000008871 0 L 595.32 0 L 595.32 841.92 L .000008871 841.92 Z " fill-rule="evenodd"/>
</clipPath>
<g clip-path="url(#cp36891)">
<text xml:space="preserve" transform="matrix(1 0 -0 1 0 841.92)" font-size="14.04" font-family="Times New Roman"><tspan y="-410.23" x="374.83">&#x2019;</tspan></text>
</g>
</g>
<g id="Layer-1" data-name="P">
<clipPath id="cp36892">
<path transform="matrix(1,0,0,-1,0,841.92)" d="M .000008871 0 L 595.32 0 L 595.32 841.92 L .000008871 841.92 Z " fill-rule="evenodd"/>
</clipPath>
<g clip-path="url(#cp36892)">
<text xml:space="preserve" transform="matrix(1 0 -0 1 0 841.92)" font-size="14.04" font-family="Times New Roman"><tspan y="-410.23" x="379.39 385.62379 392.69993 398.9337 403.49668 407.34364 411.28886 415.96418 419.81114 425.21653 432.27864 439.34074 445.46217 449.53379 453.479">zgartirishga to</tspan></text>
</g>
</g>
<g id="Layer-1" data-name="P">
<clipPath id="cp36893">
<path transform="matrix(1,0,0,-1,0,841.92)" d="M .000008871 0 L 595.32 0 L 595.32 841.92 L .000008871 841.92 Z " fill-rule="evenodd"/>
</clipPath>
<g clip-path="url(#cp36893)">
<text xml:space="preserve" transform="matrix(1 0 -0 1 0 841.92)" font-size="14.04" font-family="Times New Roman"><tspan y="-410.23" x="460.66">&#x2019;</tspan></text>
</g>
</g>
<g id="Layer-1" data-name="P">
<clipPath id="cp36894">
<path transform="matrix(1,0,0,-1,0,841.92)" d="M .000008871 0 L 595.32 0 L 595.32 841.92 L .000008871 841.92 Z " fill-rule="evenodd"/>
</clipPath>
<g clip-path="url(#cp36894)">
<text xml:space="preserve" transform="matrix(1 0 -0 1 0 841.92)" font-size="14.04" font-family="Times New Roman"><tspan y="-410.23" x="465.22">g</tspan></text>
</g>
</g>
<g id="Layer-1" data-name="P">
<clipPath id="cp36895">
<path transform="matrix(1,0,0,-1,0,841.92)" d="M .000008871 0 L 595.32 0 L 595.32 841.92 L .000008871 841.92 Z " fill-rule="evenodd"/>
</clipPath>
<g clip-path="url(#cp36895)">
<text xml:space="preserve" transform="matrix(1 0 -0 1 0 841.92)" font-size="14.04" font-family="Times New Roman"><tspan y="-410.23" x="472.3">&#x2019;</tspan></text>
</g>
</g>
<g id="Layer-1" data-name="P">
<clipPath id="cp36896">
<path transform="matrix(1,0,0,-1,0,841.92)" d="M .000008871 0 L 595.32 0 L 595.32 841.92 L .000008871 841.92 Z " fill-rule="evenodd"/>
</clipPath>
<g clip-path="url(#cp36896)">
<text xml:space="preserve" transform="matrix(1 0 -0 1 0 841.92)" font-size="14.04" font-family="Times New Roman"><tspan y="-410.23" x="476.86 481.5353 485.48054 489.55216 496.61427 502.7357 506.6809 512.80239 519.8645 523.80978 527.31979 531.34927 538.18679">ri keladi, ya</tspan></text>
</g>
</g>
<g id="Layer-1" data-name="P">
<clipPath id="cp36897">
<path transform="matrix(1,0,0,-1,0,841.92)" d="M .000008871 0 L 595.32 0 L 595.32 841.92 L .000008871 841.92 Z " fill-rule="evenodd"/>
</clipPath>
<g clip-path="url(#cp36897)">
<text xml:space="preserve" transform="matrix(1 0 -0 1 0 841.92)" font-size="14.04" font-family="Times New Roman"><tspan y="-410.23" x="544.54">&#x2019;</tspan></text>
</g>
</g>
<g id="Layer-1" data-name="P">
<clipPath id="cp36898">
<path transform="matrix(1,0,0,-1,0,841.92)" d="M .000008871 0 L 595.32 0 L 595.32 841.92 L .000008871 841.92 Z " fill-rule="evenodd"/>
</clipPath>
<g clip-path="url(#cp36898)">
<text xml:space="preserve" transform="matrix(1 0 -0 1 0 841.92)" font-size="14.04" font-family="Times New Roman"><tspan y="-410.23" x="549.1 556.1621 560.0091">ni </tspan></text>
</g>
</g>
<g id="Layer-1" data-name="P">
<clipPath id="cp36899">
<path transform="matrix(1,0,0,-1,0,841.92)" d="M .000008871 0 L 595.32 0 L 595.32 841.92 L .000008871 841.92 Z " fill-rule="evenodd"/>
</clipPath>
<g clip-path="url(#cp36899)">
<text xml:space="preserve" transform="matrix(1 0 -0 1 0 841.92)" font-size="14.04" font-family="Times New Roman"><tspan y="-386.09" x="85.104 92.166118 98.39987 102.24683 106.19208 110.03904 116.2728 121.66416 128.72628 134.22995 140.46372 151.14817 157.38193 162.89966 166.40966 171.88526 178.94738 182.89261 187.45561 194.51773 200.7515 206.87294 213.93506 220.16883 225.68654 231.80799 238.8701 242.71706 249.6809 253.62613 259.03153 266.09364 269.94059 275.44429 282.50639 288.6278 293.30314 299.5369 306.61305 312.0044 318.96824">natija 1 emas, birnecha chiqishi kerak bo</tspan></text>
</g>
</g>
<g id="Layer-1" data-name="P">
<clipPath id="cp36900">
<path transform="matrix(1,0,0,-1,0,841.92)" d="M .000008871 0 L 595.32 0 L 595.32 841.92 L .000008871 841.92 Z " fill-rule="evenodd"/>
</clipPath>
<g clip-path="url(#cp36900)">
<text xml:space="preserve" transform="matrix(1 0 -0 1 0 841.92)" font-size="14.04" font-family="Times New Roman"><tspan y="-386.09" x="326.23">&#x2019;</tspan></text>
</g>
</g>
<g id="Layer-1" data-name="P">
<clipPath id="cp36901">
<path transform="matrix(1,0,0,-1,0,841.92)" d="M .000008871 0 L 595.32 0 L 595.32 841.92 L .000008871 841.92 Z " fill-rule="evenodd"/>
</clipPath>
<g clip-path="url(#cp36901)">
<text xml:space="preserve" transform="matrix(1 0 -0 1 0 841.92)" font-size="14.04" font-family="Times New Roman"><tspan y="-386.09" x="330.79 334.73524 340.969 348.04515 351.99037 355.50038 360.97599 370.2143 377.17814 384.24024 391.30235 397.5361 404.3876 409.8913 414.56663 421.53047 428.59257 435.5564 441.06007 444.907 451.74449 457.97825 461.92347 468.15724 472.83256 479.9087 483.8539 489.24528 496.30738 500.87037 507.93247 514.1662 520.28768 527.3498 534.4119 538.9749 545.2087 549.05569 555.1771 559.7401">ladi. Bunday funksiyalarni proceduralar </tspan></text>
</g>
</g>
<g id="Layer-1" data-name="P">
<clipPath id="cp36902">
<path transform="matrix(1,0,0,-1,0,841.92)" d="M .000008871 0 L 595.32 0 L 595.32 841.92 L .000008871 841.92 Z " fill-rule="evenodd"/>
</clipPath>
<g clip-path="url(#cp36902)">
<text xml:space="preserve" transform="matrix(1 0 -0 1 0 841.92)" font-size="14.04" font-family="Times New Roman"><tspan y="-361.97" x="85.104 92.166118 98.28755 105.34967 111.33071 118.16819 125.23031 129.90563 133.85086 137.69782 141.64305 145.58829 151.70973 158.67357 162.6188 166.1288 172.08176 179.888 184.56333 191.52716 197.76093 203.88237 210.94449 218.0066 222.56961 228.80338 234.79845 241.86057 247.98201 252.65734 258.89109 269.57554 275.8093 279.75453 284.42985 288.37507 294.60884 299.1718 303.11705 309.09809 316.1602 322.28163 326.12858 333.19068 337.866 341.71296 348.77507 355.00883 360.87757 367.93968 374.0611 378.00633 381.95155 385.7985 391.91993 395.86515 402.0989 406.77424 412.657 419.71913 426.78123 437.46568 441.4109 447.64466 452.31999 456.27925 462.26029 469.22413 475.4579 486.14234 492.12339 499.1855">deb yuritiladi. Procedura parametrlari qatorida natijalar nomlari ham ko</tspan></text>
</g>
</g>
<g id="Layer-1" data-name="P">
<clipPath id="cp36903">
<path transform="matrix(1,0,0,-1,0,841.92)" d="M .000008871 0 L 595.32 0 L 595.32 841.92 L .000008871 841.92 Z " fill-rule="evenodd"/>
</clipPath>
<g clip-path="url(#cp36903)">
<text xml:space="preserve" transform="matrix(1 0 -0 1 0 841.92)" font-size="14.04" font-family="Times New Roman"><tspan y="-361.97" x="506.86">&#x2019;</tspan></text>
</g>
</g>
<g id="Layer-1" data-name="P">
<clipPath id="cp36904">
<path transform="matrix(1,0,0,-1,0,841.92)" d="M .000008871 0 L 595.32 0 L 595.32 841.92 L .000008871 841.92 Z " fill-rule="evenodd"/>
</clipPath>
<g clip-path="url(#cp36904)">
<text xml:space="preserve" transform="matrix(1 0 -0 1 0 841.92)" font-size="14.04" font-family="Times New Roman"><tspan y="-361.97" x="511.42 516.09536 521.599 527.83279 531.778 535.625 539.57028 545.6917 552.75387 556.6008 559.9564">rsatiladi. </tspan></text>
</g>
</g>
<g id="Layer-1" data-name="P">
<clipPath id="cp36905">
<path transform="matrix(1,0,0,-1,0,841.92)" d="M .000008871 0 L 595.32 0 L 595.32 841.92 L .000008871 841.92 Z " fill-rule="evenodd"/>
</clipPath>
<g clip-path="url(#cp36905)">
<text xml:space="preserve" transform="matrix(1 0 -0 1 0 841.92)" font-size="14.04" font-family="Times New Roman"><tspan y="-337.73" x="85.104 92.91024 99.97236 106.936199 113.90003 117.845279 124.80911 131.87123 141.81154 148.87366 154.9951 162.05722 169.02106 176.08318 186.02349 193.0856 197.76093 204.72476 210.95853 217.19229 224.17018 231.2323 235.90763 242.14139 252.09575 256.041 262.27476 267.68016 274.64399 281.7061 285.55305 289.49827 299.4386 306.5007 310.34767 314.29289 320.52665 327.37815 334.44026 338.2872 345.3493 351.47074 358.53285 362.47807 373.1625 377.10774 383.3415 390.41764 396.6514 406.60578 413.5696 420.6317 424.47868 431.4425 438.5046 448.5713 452.5165 459.48036 463.42558 468.1009 474.22233 479.72599 483.57295 490.53678 494.482 504.54869 511.5125 518.4764 522.42166 529.48379 539.4241 546.4862 552.48129 559.4451">Shuning uchun procedura tashkil qilayotganimizda uning toifasini void deb </tspan></text>
</g>
</g>
<g id="Layer-1" data-name="P">
<clipPath id="cp36906">
<path transform="matrix(1,0,0,-1,0,841.92)" d="M .000008871 0 L 595.32 0 L 595.32 841.92 L .000008871 841.92 Z " fill-rule="evenodd"/>
</clipPath>
<g clip-path="url(#cp36906)">
<text xml:space="preserve" transform="matrix(1 0 -0 1 0 841.92)" font-size="14.04" font-family="Times New Roman"><tspan y="-313.61" x="85.104 92.184">ko</tspan></text>
</g>
</g>
<g id="Layer-1" data-name="P">
<clipPath id="cp36907">
<path transform="matrix(1,0,0,-1,0,841.92)" d="M .000008871 0 L 595.32 0 L 595.32 841.92 L .000008871 841.92 Z " fill-rule="evenodd"/>
</clipPath>
<g clip-path="url(#cp36907)">
<text xml:space="preserve" transform="matrix(1 0 -0 1 0 841.92)" font-size="14.04" font-family="Times New Roman"><tspan y="-313.61" x="99.264">&#x2019;</tspan></text>
</g>
</g>
<g id="Layer-1" data-name="P">
<clipPath id="cp36908">
<path transform="matrix(1,0,0,-1,0,841.92)" d="M .000008871 0 L 595.32 0 L 595.32 841.92 L .000008871 841.92 Z " fill-rule="evenodd"/>
</clipPath>
<g clip-path="url(#cp36908)">
<text xml:space="preserve" transform="matrix(1 0 -0 1 0 841.92)" font-size="14.04" font-family="Times New Roman"><tspan y="-313.61" x="103.82 108.49532 113.99901 120.120449 123.96741 131.02953 137.15097 144.21309 152.00528 162.68973">rsatgan ma</tspan></text>
</g>
</g>
<g id="Layer-1" data-name="P">
<clipPath id="cp36909">
<path transform="matrix(1,0,0,-1,0,841.92)" d="M .000008871 0 L 595.32 0 L 595.32 841.92 L .000008871 841.92 Z " fill-rule="evenodd"/>
</clipPath>
<g clip-path="url(#cp36909)">
<text xml:space="preserve" transform="matrix(1 0 -0 1 0 841.92)" font-size="14.04" font-family="Times New Roman"><tspan y="-313.61" x="168.98">&#x2019;</tspan></text>
</g>
</g>
<g id="Layer-1" data-name="P">
<clipPath id="cp36910">
<path transform="matrix(1,0,0,-1,0,841.92)" d="M .000008871 0 L 595.32 0 L 595.32 841.92 L .000008871 841.92 Z " fill-rule="evenodd"/>
</clipPath>
<g clip-path="url(#cp36910)">
<text xml:space="preserve" transform="matrix(1 0 -0 1 0 841.92)" font-size="14.04" font-family="Times New Roman"><tspan y="-313.61" x="173.54 180.60211 187.66423 191.60947 199.2753 203.95063 208.62595 214.85971 218.72072 225.78284 230.45816 237.53433 245.0738 252.13593 258.3697 263.045 269.1805 276.2426 283.90849 290.8723">qul (return kerak bo</tspan></text>
</g>
</g>
<g id="Layer-1" data-name="P">
<clipPath id="cp36911">
<path transform="matrix(1,0,0,-1,0,841.92)" d="M .000008871 0 L 595.32 0 L 595.32 841.92 L .000008871 841.92 Z " fill-rule="evenodd"/>
</clipPath>
<g clip-path="url(#cp36911)">
<text xml:space="preserve" transform="matrix(1 0 -0 1 0 841.92)" font-size="14.04" font-family="Times New Roman"><tspan y="-313.61" x="298.13">&#x2019;</tspan></text>
</g>
</g>
<g id="Layer-1" data-name="P">
<clipPath id="cp36912">
<path transform="matrix(1,0,0,-1,0,841.92)" d="M .000008871 0 L 595.32 0 L 595.32 841.92 L .000008871 841.92 Z " fill-rule="evenodd"/>
</clipPath>
<g clip-path="url(#cp36912)">
<text xml:space="preserve" transform="matrix(1 0 -0 1 0 841.92)" font-size="14.04" font-family="Times New Roman"><tspan y="-313.61" x="302.69 306.63523 317.31968 323.66578 330.50325 337.56535 341.51057 346.18589 350.1311 357.79698 365.6032 370.27854 377.34065 383.5744 389.69584 396.65968 403.72178 408.3971 414.51853 421.58064 427.8144 435.48027 446.277">lmaydi); Proceduraga mu</tspan></text>
</g>
</g>
<g id="Layer-1" data-name="P">
<clipPath id="cp36913">
<path transform="matrix(1,0,0,-1,0,841.92)" d="M .000008871 0 L 595.32 0 L 595.32 841.92 L .000008871 841.92 Z " fill-rule="evenodd"/>
</clipPath>
<g clip-path="url(#cp36913)">
<text xml:space="preserve" transform="matrix(1 0 -0 1 0 841.92)" font-size="14.04" font-family="Times New Roman"><tspan y="-313.61" x="453.58 458.2553 465.33146 469.1784 475.29985 479.24507 486.91093 493.87477 497.81999 501.66694 508.72904 514.85049 521.9126 528.87649 535.1102">rojat qilganda </tspan></text>
</g>
</g>
<g id="Layer-1" data-name="P">
<clipPath id="cp36914">
<path transform="matrix(1,0,0,-1,0,841.92)" d="M .000008871 0 L 595.32 0 L 595.32 841.92 L .000008871 841.92 Z " fill-rule="evenodd"/>
</clipPath>
<g clip-path="url(#cp36914)">
<text xml:space="preserve" transform="matrix(1 0 -0 1 0 841.92)" font-size="14.04" font-family="Times New Roman"><tspan y="-313.61" x="542.86">&#x2018;</tspan></text>
</g>
</g>
<g id="Layer-1" data-name="P">
<clipPath id="cp36915">
<path transform="matrix(1,0,0,-1,0,841.92)" d="M .000008871 0 L 595.32 0 L 595.32 841.92 L .000008871 841.92 Z " fill-rule="evenodd"/>
</clipPath>
<g clip-path="url(#cp36915)">
<text xml:space="preserve" transform="matrix(1 0 -0 1 0 841.92)" font-size="14.04" font-family="Times New Roman"><tspan y="-313.61" x="547.42">=</tspan></text>
</g>
</g>
<g id="Layer-1" data-name="P">
<clipPath id="cp36916">
<path transform="matrix(1,0,0,-1,0,841.92)" d="M .000008871 0 L 595.32 0 L 595.32 841.92 L .000008871 841.92 Z " fill-rule="evenodd"/>
</clipPath>
<g clip-path="url(#cp36916)">
<text xml:space="preserve" transform="matrix(1 0 -0 1 0 841.92)" font-size="14.04" font-family="Times New Roman"><tspan y="-313.61" x="555.34">&#x2018;</tspan></text>
</g>
</g>
<g id="Layer-1" data-name="P">
<clipPath id="cp36917">
<path transform="matrix(1,0,0,-1,0,841.92)" d="M .000008871 0 L 595.32 0 L 595.32 841.92 L .000008871 841.92 Z " fill-rule="evenodd"/>
</clipPath>
<g clip-path="url(#cp36917)">
<text xml:space="preserve" transform="matrix(1 0 -0 1 0 841.92)" font-size="14.04" font-family="Times New Roman"><tspan y="-313.61" x="560.02"> </tspan></text>
</g>
</g>
<g id="Layer-1" data-name="P">
<clipPath id="cp36918">
<path transform="matrix(1,0,0,-1,0,841.92)" d="M .000008871 0 L 595.32 0 L 595.32 841.92 L .000008871 841.92 Z " fill-rule="evenodd"/>
</clipPath>
<g clip-path="url(#cp36918)">
<text xml:space="preserve" transform="matrix(1 0 -0 1 0 841.92)" font-size="14.04" font-family="Times New Roman"><tspan y="-289.49" x="85.104 92.166118 98.39987 103.075199 109.21067 116.27279 131.61852 137.85228 148.53673 154.7705 160.28823 163.79822 179.11585 186.92209 191.59741 198.65953 204.78098 211.01474 217.97858 225.0407 229.71602 235.94979 251.30954 255.25478 261.3762 266.7816 273.8437 280.80754 284.65449 288.5997 303.94544 310.90928 314.8545 318.70146 322.5484 328.05207 335.0159 342.078 348.31178 363.6575 369.77894 376.84104 383.0748 387.75013 402.98353 410.04563 416.2794 420.12635 424.07157 427.91853 434.15229 437.99925 444.12068 448.796 464.14173 471.20384 475.14906 479.71205 486.77415 492.89558 499.95768 503.80464 510.0384 525.3841 532.34799">kerak emas. Procedura tashkil qilishda agar natijalar birne4ta bo</tspan></text>
</g>
</g>
<g id="Layer-1" data-name="P">
<clipPath id="cp36919">
<path transform="matrix(1,0,0,-1,0,841.92)" d="M .000008871 0 L 595.32 0 L 595.32 841.92 L .000008871 841.92 Z " fill-rule="evenodd"/>
</clipPath>
<g clip-path="url(#cp36919)">
<text xml:space="preserve" transform="matrix(1 0 -0 1 0 841.92)" font-size="14.04" font-family="Times New Roman"><tspan y="-289.49" x="539.86">&#x2019;</tspan></text>
</g>
</g>
<g id="Layer-1" data-name="P">
<clipPath id="cp36920">
<path transform="matrix(1,0,0,-1,0,841.92)" d="M .000008871 0 L 595.32 0 L 595.32 841.92 L .000008871 841.92 Z " fill-rule="evenodd"/>
</clipPath>
<g clip-path="url(#cp36920)">
<text xml:space="preserve" transform="matrix(1 0 -0 1 0 841.92)" font-size="14.04" font-family="Times New Roman"><tspan y="-289.49" x="544.42 548.36526 553.8689 559.99038">lsa </tspan></text>
</g>
</g>
<g id="Layer-1" data-name="P">
<clipPath id="cp36921">
<path transform="matrix(1,0,0,-1,0,841.92)" d="M .000008871 0 L 595.32 0 L 595.32 841.92 L .000008871 841.92 Z " fill-rule="evenodd"/>
</clipPath>
<g clip-path="url(#cp36921)">
<text xml:space="preserve" transform="matrix(1 0 -0 1 0 841.92)" font-size="14.04" font-family="Times New Roman"><tspan y="-265.37" x="85.104 92.166118 99.12995 103.075199 107.6382 113.141887 119.37564 123.2226 130.18643 134.13167 140.25312 147.31523 151.26047 157.38191 162.05724 169.1334 175.25485 182.31697 189.37909 194.05442 201.01825 207.85573 214.91785 221.15161 225.09685 231.33061 238.29445 242.23969 246.18492 252.30637 259.2702 263.21543 266.72544 273.7595 283.8402">ko;rsatkichlardan foydalaniladi. Ko</tspan></text>
</g>
</g>
<g id="Layer-1" data-name="P">
<clipPath id="cp36922">
<path transform="matrix(1,0,0,-1,0,841.92)" d="M .000008871 0 L 595.32 0 L 595.32 841.92 L .000008871 841.92 Z " fill-rule="evenodd"/>
</clipPath>
<g clip-path="url(#cp36922)">
<text xml:space="preserve" transform="matrix(1 0 -0 1 0 841.92)" font-size="14.04" font-family="Times New Roman"><tspan y="-265.37" x="291.17">&#x2019;</tspan></text>
</g>
</g>
<g id="Layer-1" data-name="P">
<clipPath id="cp36923">
<path transform="matrix(1,0,0,-1,0,841.92)" d="M .000008871 0 L 595.32 0 L 595.32 841.92 L .000008871 841.92 Z " fill-rule="evenodd"/>
</clipPath>
<g clip-path="url(#cp36923)">
<text xml:space="preserve" transform="matrix(1 0 -0 1 0 841.92)" font-size="14.04" font-family="Times New Roman"><tspan y="-265.37" x="295.73 300.40534 305.909 312.14277 315.98973 322.95356 326.89878 333.13255 340.20869">rsatkich </tspan></text>
</g>
</g>
<g id="Layer-1" data-name="P">
<clipPath id="cp36924">
<path transform="matrix(1,0,0,-1,0,841.92)" d="M .000008871 0 L 595.32 0 L 595.32 841.92 L .000008871 841.92 Z " fill-rule="evenodd"/>
</clipPath>
<g clip-path="url(#cp36924)">
<text xml:space="preserve" transform="matrix(1 0 -0 1 0 841.92)" font-size="14.04" font-family="Times New Roman"><tspan y="-265.37" x="347.23">&#x2013;</tspan></text>
</g>
</g>
<g id="Layer-1" data-name="P">
<clipPath id="cp36925">
<path transform="matrix(1,0,0,-1,0,841.92)" d="M .000008871 0 L 595.32 0 L 595.32 841.92 L .000008871 841.92 Z " fill-rule="evenodd"/>
</clipPath>
<g clip-path="url(#cp36925)">
<text xml:space="preserve" transform="matrix(1 0 -0 1 0 841.92)" font-size="14.04" font-family="Times New Roman"><tspan y="-265.37" x="354.31"> </tspan></text>
</g>
</g>
<g id="Layer-1" data-name="P">
<clipPath id="cp36926">
<path transform="matrix(1,0,0,-1,0,841.92)" d="M .000008871 0 L 595.32 0 L 595.32 841.92 L .000008871 841.92 Z " fill-rule="evenodd"/>
</clipPath>
<g clip-path="url(#cp36926)">
<text xml:space="preserve" transform="matrix(1 0 -0 1 0 841.92)" font-size="14.04" font-family="Times New Roman"><tspan y="-265.37" x="361.39 368.45213 375.51423 382.46403 389.52613 393.47135 398.03434 405.09645 409.77177 416.84794">bu biror o</tspan></text>
</g>
</g>
<g id="Layer-1" data-name="P">
<clipPath id="cp36927">
<path transform="matrix(1,0,0,-1,0,841.92)" d="M .000008871 0 L 595.32 0 L 595.32 841.92 L .000008871 841.92 Z " fill-rule="evenodd"/>
</clipPath>
<g clip-path="url(#cp36927)">
<text xml:space="preserve" transform="matrix(1 0 -0 1 0 841.92)" font-size="14.04" font-family="Times New Roman"><tspan y="-265.37" x="424.03">&#x2019;</tspan></text>
</g>
</g>
<g id="Layer-1" data-name="P">
<clipPath id="cp36928">
<path transform="matrix(1,0,0,-1,0,841.92)" d="M .000008871 0 L 595.32 0 L 595.32 841.92 L .000008871 841.92 Z " fill-rule="evenodd"/>
</clipPath>
<g clip-path="url(#cp36928)">
<text xml:space="preserve" transform="matrix(1 0 -0 1 0 841.92)" font-size="14.04" font-family="Times New Roman"><tspan y="-265.37" x="428.59 434.82377 441.7876 448.02137 452.6967 459.67457 466.73667 472.8581 479.9202 483.76716 490.82926 494.6762 501.64006 508.70216 515.7643 521.99807 529.0742 533.7495 539.871 545.27639 549.2216 556.05917 559.9061">zgaruvchining adresini </tspan></text>
</g>
</g>
<g id="Layer-1" data-name="P">
<clipPath id="cp36929">
<path transform="matrix(1,0,0,-1,0,841.92)" d="M .000008871 0 L 595.32 0 L 595.32 841.92 L .000008871 841.92 Z " fill-rule="evenodd"/>
</clipPath>
<g clip-path="url(#cp36929)">
<text xml:space="preserve" transform="matrix(1 0 -0 1 0 841.92)" font-size="14.04" font-family="Times New Roman"><tspan y="-241.13" x="85.104">o</tspan></text>
</g>
</g>
<g id="Layer-1" data-name="P">
<clipPath id="cp36930">
<path transform="matrix(1,0,0,-1,0,841.92)" d="M .000008871 0 L 595.32 0 L 595.32 841.92 L .000008871 841.92 Z " fill-rule="evenodd"/>
</clipPath>
<g clip-path="url(#cp36930)">
<text xml:space="preserve" transform="matrix(1 0 -0 1 0 841.92)" font-size="14.04" font-family="Times New Roman"><tspan y="-241.13" x="92.184">&#x2019;</tspan></text>
</g>
</g>
<g id="Layer-1" data-name="P">
<clipPath id="cp36931">
<path transform="matrix(1,0,0,-1,0,841.92)" d="M .000008871 0 L 595.32 0 L 595.32 841.92 L .000008871 841.92 Z " fill-rule="evenodd"/>
</clipPath>
<g clip-path="url(#cp36931)">
<text xml:space="preserve" transform="matrix(1 0 -0 1 0 841.92)" font-size="14.04" font-family="Times New Roman"><tspan y="-241.13" x="96.744 102.97776 106.923007 113.98512 120.21888 125.84892 131.3526 137.58637 144.5502 148.39716 155.45928 162.42311 168.65688 175.62071 179.56595 185.3083 192.37042 198.49187 202.4371 206.28406 212.51782 216.46306 220.31002 227.37213 230.88213 236.5964 246.67713">zida saqlovchi kattalik. Ko</tspan></text>
</g>
</g>
<g id="Layer-1" data-name="P">
<clipPath id="cp36932">
<path transform="matrix(1,0,0,-1,0,841.92)" d="M .000008871 0 L 595.32 0 L 595.32 841.92 L .000008871 841.92 Z " fill-rule="evenodd"/>
</clipPath>
<g clip-path="url(#cp36932)">
<text xml:space="preserve" transform="matrix(1 0 -0 1 0 841.92)" font-size="14.04" font-family="Times New Roman"><tspan y="-241.13" x="253.97">&#x2019;</tspan></text>
</g>
</g>
<g id="Layer-1" data-name="P">
<clipPath id="cp36933">
<path transform="matrix(1,0,0,-1,0,841.92)" d="M .000008871 0 L 595.32 0 L 595.32 841.92 L .000008871 841.92 Z " fill-rule="evenodd"/>
</clipPath>
<g clip-path="url(#cp36933)">
<text xml:space="preserve" transform="matrix(1 0 -0 1 0 841.92)" font-size="14.04" font-family="Times New Roman"><tspan y="-241.13" x="258.53 263.20533 268.70899 272.6542 278.77565 285.73948 289.6847 295.80613 302.86824 309.83207 313.77729 319.51966">rstakichni e</tspan></text>
</g>
</g>
<g id="Layer-1" data-name="P">
<clipPath id="cp36934">
<path transform="matrix(1,0,0,-1,0,841.92)" d="M .000008871 0 L 595.32 0 L 595.32 841.92 L .000008871 841.92 Z " fill-rule="evenodd"/>
</clipPath>
<g clip-path="url(#cp36934)">
<text xml:space="preserve" transform="matrix(1 0 -0 1 0 841.92)" font-size="14.04" font-family="Times New Roman"><tspan y="-241.13" x="325.87">&#x2019;</tspan></text>
</g>
</g>
<g id="Layer-1" data-name="P">
<clipPath id="cp36935">
<path transform="matrix(1,0,0,-1,0,841.92)" d="M .000008871 0 L 595.32 0 L 595.32 841.92 L .000008871 841.92 Z " fill-rule="evenodd"/>
</clipPath>
<g clip-path="url(#cp36935)">
<text xml:space="preserve" transform="matrix(1 0 -0 1 0 841.92)" font-size="14.04" font-family="Times New Roman"><tspan y="-241.13" x="330.43 334.3752 341.43733 348.49943 354.2418 361.20564 365.15086 368.9978 372.94303 378.34843 385.31227 392.37437 398.60813 404.36454 412.28309 416.13005 423.19215 427.0391 431.71443 437.94819 443.7046 450.7667">lon qilishda &#x003c;toifa *o</tspan></text>
</g>
</g>
<g id="Layer-1" data-name="P">
<clipPath id="cp36936">
<path transform="matrix(1,0,0,-1,0,841.92)" d="M .000008871 0 L 595.32 0 L 595.32 841.92 L .000008871 841.92 Z " fill-rule="evenodd"/>
</clipPath>
<g clip-path="url(#cp36936)">
<text xml:space="preserve" transform="matrix(1 0 -0 1 0 841.92)" font-size="14.04" font-family="Times New Roman"><tspan y="-241.13" x="458.02">&#x2019;</tspan></text>
</g>
</g>
<g id="Layer-1" data-name="P">
<clipPath id="cp36937">
<path transform="matrix(1,0,0,-1,0,841.92)" d="M .000008871 0 L 595.32 0 L 595.32 841.92 L .000008871 841.92 Z " fill-rule="evenodd"/>
</clipPath>
<g clip-path="url(#cp36937)">
<text xml:space="preserve" transform="matrix(1 0 -0 1 0 841.92)" font-size="14.04" font-family="Times New Roman"><tspan y="-241.13" x="462.58 468.81376 475.7776 482.01136 486.68669 493.66456 500.72666 506.84809 513.9102 517.85549 523.48556 530.54769 537.6098 548.2942 552.1412 559.94747">zgaruvchi nomi&#x003e; </tspan></text>
</g>
</g>
<g id="Layer-1" data-name="P">
<clipPath id="cp36938">
<path transform="matrix(1,0,0,-1,0,841.92)" d="M .000008871 0 L 595.32 0 L 595.32 841.92 L .000008871 841.92 Z " fill-rule="evenodd"/>
</clipPath>
<g clip-path="url(#cp36938)">
<text xml:space="preserve" transform="matrix(1 0 -0 1 0 841.92)" font-size="14.04" font-family="Times New Roman"><tspan y="-216.98" x="85.104 92.166118 98.28755 105.34967">dan </tspan></text>
</g>
</g>
<g id="Layer-1" data-name="P">
<clipPath id="cp36939">
<path transform="matrix(1,0,0,-1,0,841.92)" d="M .000008871 0 L 595.32 0 L 595.32 841.92 L .000008871 841.92 Z " fill-rule="evenodd"/>
</clipPath>
<g clip-path="url(#cp36939)">
<text xml:space="preserve" transform="matrix(1 0 -0 1 0 841.92)" font-size="14.04" font-family="Times New Roman"><tspan y="-216.98" x="112.22 116.895328 123.97148 130.80896 137.87108 144.10485 148.05008 154.17153 161.23365 165.0806 169.02584 175.14728 182.2094 186.15464 189.66463 196.45998 206.5407">foydalaniladi. Ko</tspan></text>
</g>
</g>
<g id="Layer-1" data-name="P">
<clipPath id="cp36940">
<path transform="matrix(1,0,0,-1,0,841.92)" d="M .000008871 0 L 595.32 0 L 595.32 841.92 L .000008871 841.92 Z " fill-rule="evenodd"/>
</clipPath>
<g clip-path="url(#cp36940)">
<text xml:space="preserve" transform="matrix(1 0 -0 1 0 841.92)" font-size="14.04" font-family="Times New Roman"><tspan y="-216.98" x="213.77">&#x2019;</tspan></text>
</g>
</g>
<g id="Layer-1" data-name="P">
<clipPath id="cp36941">
<path transform="matrix(1,0,0,-1,0,841.92)" d="M .000008871 0 L 595.32 0 L 595.32 841.92 L .000008871 841.92 Z " fill-rule="evenodd"/>
</clipPath>
<g clip-path="url(#cp36941)">
<text xml:space="preserve" transform="matrix(1 0 -0 1 0 841.92)" font-size="14.04" font-family="Times New Roman"><tspan y="-216.98" x="218.33 223.00533 228.509 234.74277 238.58972 245.55356 249.4988 255.73256 262.6964 266.64164 272.8754 277.4384 284.5005 290.62193 297.68403 304.50749 309.1828 316.25895 323.0964 330.1585 336.39228 340.23924 346.473 353.43684 357.28379 361.229 368.2911 374.41255 381.37638 388.43849 394.67225 401.50975 408.3472 412.29243 418.52619 423.2015 430.27766 434.22288 440.934 447.9961 453.4015 460.36534 467.42744 471.37266 477.49409 482.89949 489.96159 493.80854 497.75376 502.31675 506.26197 511.66737 518.7295 525.5529 532.61508 538.7365 545.79867 552.63619 559.60006">rsatkichlardan foydalanilganda ylarni osonlashtirish uchun </tspan></text>
</g>
</g>
<g id="Layer-1" data-name="P">
<clipPath id="cp36942">
<path transform="matrix(1,0,0,-1,0,841.92)" d="M .000008871 0 L 595.32 0 L 595.32 841.92 L .000008871 841.92 Z " fill-rule="evenodd"/>
</clipPath>
<g clip-path="url(#cp36942)">
<text xml:space="preserve" transform="matrix(1 0 -0 1 0 841.92)" font-size="14.04" font-family="Times New Roman"><tspan y="-192.86" x="85.104">&#x2018;</tspan></text>
</g>
</g>
<g id="Layer-1" data-name="P">
<clipPath id="cp36943">
<path transform="matrix(1,0,0,-1,0,841.92)" d="M .000008871 0 L 595.32 0 L 595.32 841.92 L .000008871 841.92 Z " fill-rule="evenodd"/>
</clipPath>
<g clip-path="url(#cp36943)">
<text xml:space="preserve" transform="matrix(1 0 -0 1 0 841.92)" font-size="14.04" font-family="Times New Roman"><tspan y="-192.86" x="89.664 95.89776 102.973918 107.64924 113.882999 119.2884 126.35052 130.29575 135.56075 142.52458">adresni ol</tspan></text>
</g>
</g>
<g id="Layer-1" data-name="P">
<clipPath id="cp36944">
<path transform="matrix(1,0,0,-1,0,841.92)" d="M .000008871 0 L 595.32 0 L 595.32 841.92 L .000008871 841.92 Z " fill-rule="evenodd"/>
</clipPath>
<g clip-path="url(#cp36944)">
<text xml:space="preserve" transform="matrix(1 0 -0 1 0 841.92)" font-size="14.04" font-family="Times New Roman"><tspan y="-192.86" x="146.54">&#x2019;</tspan></text>
</g>
</g>
<g id="Layer-1" data-name="P">
<clipPath id="cp36945">
<path transform="matrix(1,0,0,-1,0,841.92)" d="M .000008871 0 L 595.32 0 L 595.32 841.92 L .000008871 841.92 Z " fill-rule="evenodd"/>
</clipPath>
<g clip-path="url(#cp36945)">
<text xml:space="preserve" transform="matrix(1 0 -0 1 0 841.92)" font-size="14.04" font-family="Times New Roman"><tspan y="-192.86" x="151.1"> </tspan></text>
</g>
</g>
<g id="Layer-1" data-name="P">
<clipPath id="cp36946">
<path transform="matrix(1,0,0,-1,0,841.92)" d="M .000008871 0 L 595.32 0 L 595.32 841.92 L .000008871 841.92 Z " fill-rule="evenodd"/>
</clipPath>
<g clip-path="url(#cp36946)">
<text xml:space="preserve" transform="matrix(1 0 -0 1 0 841.92)" font-size="14.04" font-family="Times New Roman"><tspan y="-192.86" x="156.38 161.05533 171.97846 176.65378 181.93282 188.99494 195.2287 199.07566 206.03949 209.98473 215.39012 219.33536 224.60036 231.66248 236.22548 243.2876 249.40904 253.35428 257.2995 262.5645 269.52836 275.76213 286.5729 291.83793 298.18403 308.86848 315.10224 319.04747 326.10957 332.45567 343.1401 348.40513 355.46723 360.9709 367.93473 371.87995 376.55528 382.05894 388.2927 393.44538 400.50749">(&#x0026;) belgisi orqali ham amalgam oshirsa bo</tspan></text>
</g>
</g>
<g id="Layer-1" data-name="P">
<clipPath id="cp36947">
<path transform="matrix(1,0,0,-1,0,841.92)" d="M .000008871 0 L 595.32 0 L 595.32 841.92 L .000008871 841.92 Z " fill-rule="evenodd"/>
</clipPath>
<g clip-path="url(#cp36947)">
<text xml:space="preserve" transform="matrix(1 0 -0 1 0 841.92)" font-size="14.04" font-family="Times New Roman"><tspan y="-192.86" x="407.95">&#x2019;</tspan></text>
</g>
</g>
<g id="Layer-1" data-name="P">
<clipPath id="cp36948">
<path transform="matrix(1,0,0,-1,0,841.92)" d="M .000008871 0 L 595.32 0 L 595.32 841.92 L .000008871 841.92 Z " fill-rule="evenodd"/>
</clipPath>
<g clip-path="url(#cp36948)">
<text xml:space="preserve" transform="matrix(1 0 -0 1 0 841.92)" font-size="14.04" font-family="Times New Roman"><tspan y="-192.86" x="412.51 416.45524 422.57667 429.5405 433.48573 436.99574 442.23268 450.75495 456.9887 464.06486 467.9118 474.9739 480.23893 487.20277 494.26487 499.52989 505.76365 516.44808 522.6818 526.6271 531.8921 536.5674 542.80117 549.8773 555.9988 559.84579">ladi. Lekin bu amal faqat </tspan></text>
</g>
</g>
<g id="Layer-1" data-name="P">
<clipPath id="cp36949">
<path transform="matrix(1,0,0,-1,0,841.92)" d="M .000008871 0 L 595.32 0 L 595.32 841.92 L .000008871 841.92 Z " fill-rule="evenodd"/>
</clipPath>
<g clip-path="url(#cp36949)">
<text xml:space="preserve" transform="matrix(1 0 -0 1 0 841.92)" font-size="14.04" font-family="Times New Roman"><tspan y="-168.74" x="85.104">o</tspan></text>
</g>
</g>
<g id="Layer-1" data-name="P">
<clipPath id="cp36950">
<path transform="matrix(1,0,0,-1,0,841.92)" d="M .000008871 0 L 595.32 0 L 595.32 841.92 L .000008871 841.92 Z " fill-rule="evenodd"/>
</clipPath>
<g clip-path="url(#cp36950)">
<text xml:space="preserve" transform="matrix(1 0 -0 1 0 841.92)" font-size="14.04" font-family="Times New Roman"><tspan y="-168.74" x="92.184">&#x2019;</tspan></text>
</g>
</g>
<g id="Layer-1" data-name="P">
<clipPath id="cp36951">
<path transform="matrix(1,0,0,-1,0,841.92)" d="M .000008871 0 L 595.32 0 L 595.32 841.92 L .000008871 841.92 Z " fill-rule="evenodd"/>
</clipPath>
<g clip-path="url(#cp36951)">
<text xml:space="preserve" transform="matrix(1 0 -0 1 0 841.92)" font-size="14.04" font-family="Times New Roman"><tspan y="-168.74" x="96.744 102.97776 110.05392 116.287677 120.85068 127.912799 134.87664 141.1104 148.07424 152.01947 155.86643 162.10019 166.77552 173.7534 179.98717 188.62177 195.5856">zgaruvchilarga qo</tspan></text>
</g>
</g>
<g id="Layer-1" data-name="P">
<clipPath id="cp36952">
<path transform="matrix(1,0,0,-1,0,841.92)" d="M .000008871 0 L 595.32 0 L 595.32 841.92 L .000008871 841.92 Z " fill-rule="evenodd"/>
</clipPath>
<g clip-path="url(#cp36952)">
<text xml:space="preserve" transform="matrix(1 0 -0 1 0 841.92)" font-size="14.04" font-family="Times New Roman"><tspan y="-168.74" x="202.73">&#x2019;</tspan></text>
</g>
</g>
<g id="Layer-1" data-name="P">
<clipPath id="cp36953">
<path transform="matrix(1,0,0,-1,0,841.92)" d="M .000008871 0 L 595.32 0 L 595.32 841.92 L .000008871 841.92 Z " fill-rule="evenodd"/>
</clipPath>
<g clip-path="url(#cp36953)">
<text xml:space="preserve" transform="matrix(1 0 -0 1 0 841.92)" font-size="14.04" font-family="Times New Roman"><tspan y="-168.74" x="207.29 211.23523 215.18047 221.30191 228.36403 234.48548 241.44931 245.39455 248.90454 257.497 262.9024 269.9645 276.92835 283.99046 290.2242 298.73246 305.79457">llanadi, songa qo</tspan></text>
</g>
</g>
<g id="Layer-1" data-name="P">
<clipPath id="cp36954">
<path transform="matrix(1,0,0,-1,0,841.92)" d="M .000008871 0 L 595.32 0 L 595.32 841.92 L .000008871 841.92 Z " fill-rule="evenodd"/>
</clipPath>
<g clip-path="url(#cp36954)">
<text xml:space="preserve" transform="matrix(1 0 -0 1 0 841.92)" font-size="14.04" font-family="Times New Roman"><tspan y="-168.74" x="313.01">&#x2019;</tspan></text>
</g>
</g>
<g id="Layer-1" data-name="P">
<clipPath id="cp36955">
<path transform="matrix(1,0,0,-1,0,841.92)" d="M .000008871 0 L 595.32 0 L 595.32 841.92 L .000008871 841.92 Z " fill-rule="evenodd"/>
</clipPath>
<g clip-path="url(#cp36955)">
<text xml:space="preserve" transform="matrix(1 0 -0 1 0 841.92)" font-size="14.04" font-family="Times New Roman"><tspan y="-168.74" x="317.59 321.43696 325.38218 329.22914 335.4629 340.9806 348.0427 356.66328 367.34773 374.40983 385.09428 392.15638 396.1016 403.1637 411.78428 418.01805 428.70249 434.93626 440.45396 443.96397 452.55647 460.3627 465.03804 472.10014 478.3339 484.45533 491.41917 498.48127 503.1566 509.278 513.22329 519.45706 524.1323 532.6546 539.71676 546.6806 552.18429 555.9049 559.7519">lllash mumkin emas. Proceduralar hosil </tspan></text>
</g>
</g>
<g id="Layer-1" data-name="P">
<clipPath id="cp36956">
<path transform="matrix(1,0,0,-1,0,841.92)" d="M .000008871 0 L 595.32 0 L 595.32 841.92 L .000008871 841.92 Z " fill-rule="evenodd"/>
</clipPath>
<g clip-path="url(#cp36956)">
<text xml:space="preserve" transform="matrix(1 0 -0 1 0 841.92)" font-size="14.04" font-family="Times New Roman"><tspan y="-144.5" x="85.104 92.166118 96.01308 99.95832 103.80528 109.210689 116.272808 123.23664 129.4704 140.02848 147.09059 157.63463 164.69675 170.93051 181.48859 192.41172">qilishda * va &#x0026; </tspan></text>
</g>
</g>
<g id="Layer-1" data-name="P">
<clipPath id="cp36957">
<path transform="matrix(1,0,0,-1,0,841.92)" d="M .000008871 0 L 595.32 0 L 595.32 841.92 L .000008871 841.92 Z " fill-rule="evenodd"/>
</clipPath>
<g clip-path="url(#cp36957)">
<text xml:space="preserve" transform="matrix(1 0 -0 1 0 841.92)" font-size="14.04" font-family="Times New Roman"><tspan y="-144.5" x="203.09 209.43608 220.12053 226.3543 230.29953 234.24477 240.47853 245.04154 248.98677 255.9506 262.18437 269.2605 279.80455 286.642 293.7041 300.7662 304.71144 315.25547 319.10243">amallaridan yoki to</tspan></text>
</g>
</g>
<g id="Layer-1" data-name="P">
<clipPath id="cp36958">
<path transform="matrix(1,0,0,-1,0,841.92)" d="M .000008871 0 L 595.32 0 L 595.32 841.92 L .000008871 841.92 Z " fill-rule="evenodd"/>
</clipPath>
<g clip-path="url(#cp36958)">
<text xml:space="preserve" transform="matrix(1 0 -0 1 0 841.92)" font-size="14.04" font-family="Times New Roman"><tspan y="-144.5" x="326.35">&#x2019;</tspan></text>
</g>
</g>
<g id="Layer-1" data-name="P">
<clipPath id="cp36959">
<path transform="matrix(1,0,0,-1,0,841.92)" d="M .000008871 0 L 595.32 0 L 595.32 841.92 L .000008871 841.92 Z " fill-rule="evenodd"/>
</clipPath>
<g clip-path="url(#cp36959)">
<text xml:space="preserve" transform="matrix(1 0 -0 1 0 841.92)" font-size="14.04" font-family="Times New Roman"><tspan y="-144.5" x="330.91">g</tspan></text>
</g>
</g>
<g id="Layer-1" data-name="P">
<clipPath id="cp36960">
<path transform="matrix(1,0,0,-1,0,841.92)" d="M .000008871 0 L 595.32 0 L 595.32 841.92 L .000008871 841.92 Z " fill-rule="evenodd"/>
</clipPath>
<g clip-path="url(#cp36960)">
<text xml:space="preserve" transform="matrix(1 0 -0 1 0 841.92)" font-size="14.04" font-family="Times New Roman"><tspan y="-144.5" x="337.99">&#x2019;</tspan></text>
</g>
</g>
<g id="Layer-1" data-name="P">
<clipPath id="cp36961">
<path transform="matrix(1,0,0,-1,0,841.92)" d="M .000008871 0 L 595.32 0 L 595.32 841.92 L .000008871 841.92 Z " fill-rule="evenodd"/>
</clipPath>
<g clip-path="url(#cp36961)">
<text xml:space="preserve" transform="matrix(1 0 -0 1 0 841.92)" font-size="14.04" font-family="Times New Roman"><tspan y="-144.5" x="342.55 347.2253 351.17054 358.23265 364.35408 371.41618 381.9602 385.80717">ridan to</tspan></text>
</g>
</g>
<g id="Layer-1" data-name="P">
<clipPath id="cp36962">
<path transform="matrix(1,0,0,-1,0,841.92)" d="M .000008871 0 L 595.32 0 L 595.32 841.92 L .000008871 841.92 Z " fill-rule="evenodd"/>
</clipPath>
<g clip-path="url(#cp36962)">
<text xml:space="preserve" transform="matrix(1 0 -0 1 0 841.92)" font-size="14.04" font-family="Times New Roman"><tspan y="-144.5" x="392.95">&#x2019;</tspan></text>
</g>
</g>
<g id="Layer-1" data-name="P">
<clipPath id="cp36963">
<path transform="matrix(1,0,0,-1,0,841.92)" d="M .000008871 0 L 595.32 0 L 595.32 841.92 L .000008871 841.92 Z " fill-rule="evenodd"/>
</clipPath>
<g clip-path="url(#cp36963)">
<text xml:space="preserve" transform="matrix(1 0 -0 1 0 841.92)" font-size="14.04" font-family="Times New Roman"><tspan y="-144.5" x="397.51">g</tspan></text>
</g>
</g>
<g id="Layer-1" data-name="P">
<clipPath id="cp36964">
<path transform="matrix(1,0,0,-1,0,841.92)" d="M .000008871 0 L 595.32 0 L 595.32 841.92 L .000008871 841.92 Z " fill-rule="evenodd"/>
</clipPath>
<g clip-path="url(#cp36964)">
<text xml:space="preserve" transform="matrix(1 0 -0 1 0 841.92)" font-size="14.04" font-family="Times New Roman"><tspan y="-144.5" x="404.59">&#x2019;</tspan></text>
</g>
</g>
<g id="Layer-1" data-name="P">
<clipPath id="cp36965">
<path transform="matrix(1,0,0,-1,0,841.92)" d="M .000008871 0 L 595.32 0 L 595.32 841.92 L .000008871 841.92 Z " fill-rule="evenodd"/>
</clipPath>
<g clip-path="url(#cp36965)">
<text xml:space="preserve" transform="matrix(1 0 -0 1 0 841.92)" font-size="14.04" font-family="Times New Roman"><tspan y="-144.5" x="409.15 413.82533 417.77055 428.31459 439.2377 449.78175 456.84385 463.90596 470.1397 474.81504 480.95054 484.89576 490.30116 494.24638 501.08384 507.3176 512.8353 516.7806 527.32467 534.3868 538.94979 546.0119 552.13339 556.0786 559.79928">ri &#x0026; operatsiyasi orqali </tspan></text>
</g>
</g>
<g id="Layer-1" data-name="P">
<clipPath id="cp36966">
<path transform="matrix(1,0,0,-1,0,841.92)" d="M .000008871 0 L 595.32 0 L 595.32 841.92 L .000008871 841.92 Z " fill-rule="evenodd"/>
</clipPath>
<g clip-path="url(#cp36966)">
<text xml:space="preserve" transform="matrix(1 0 -0 1 0 841.92)" font-size="14.04" font-family="Times New Roman"><tspan y="-120.38" x="85.104 89.04924 94.45464 101.51676 105.36372 111.59748 115.44444 119.38969 124.79509 131.75893 135.70417 146.38861 150.33385 156.56761 161.84665 172.5311 179.71959 190.40404 197.46616 201.41139 208.47351">ishlatishimiz mumkin.</tspan></text>
</g>
</g>
<g id="Layer-1" data-name="P">
<clipPath id="cp36967">
<path transform="matrix(1,0,0,-1,0,841.92)" d="M .000008871 0 L 595.32 0 L 595.32 841.92 L .000008871 841.92 Z " fill-rule="evenodd"/>
</clipPath>
<g clip-path="url(#cp36967)">
<text xml:space="preserve" transform="matrix(1 0 -0 1 0 841.92)" font-size="14.04" font-family="Times New Roman"><tspan y="-120.38" x="212.09"> </tspan></text>
</g>
</g>
<g id="Layer-1" data-name="P">
<clipPath id="cp36968">
<path transform="matrix(1,0,0,-1,0,841.92)" d="M .000008871 0 L 595.32 0 L 595.32 841.92 L .000008871 841.92 Z " fill-rule="evenodd"/>
</clipPath>
<g clip-path="url(#cp36968)">
<text xml:space="preserve" transform="matrix(1 0 -0 1 0 841.92)" font-size="14.04" font-family="Times New Roman"><tspan y="-120.38" x="217.25 229.73157 233.6768 239.0822 246.04604 249.99127 253.93651 259.08918 269.1699 276.13374 280.07896 287.14106 292.29374 296.1407 303.10453 310.16664 314.84196 319.40495 323.2519 330.314 336.54777 340.49299 345.64567 351.87944 355.38945 360.51405 365.18937 369.03633 376.09843 382.21986 386.16508 391.31776 398.37986 401.88987 407.00044 411.67576 415.62098 422.5848 428.81858 432.7638 437.91648 444.8803 450.38398 453.89399 458.5693 462.38819 469.4503 475.57173 479.51695 484.66963 491.73173 498.69557 503.37089 508.52357 515.26278 522.2828 527.82858 535.6348 541.8686 548.83248 555.7963 559.6433">Misol: Void top(float a, float b, float *s,float *p) {*s=a*b; </tspan></text>
</g>
</g>
<g id="Layer-1" data-name="P">
<clipPath id="cp36969">
<path transform="matrix(1,0,0,-1,0,841.92)" d="M .000008871 0 L 595.32 0 L 595.32 841.92 L .000008871 841.92 Z " fill-rule="evenodd"/>
</clipPath>
<g clip-path="url(#cp36969)">
<text xml:space="preserve" transform="matrix(1 0 -0 1 0 841.92)" font-size="14.04" font-family="Times New Roman"><tspan y="-96.264" x="85.104 92.166118 99.12995 107.04851 114.012348 121.07446 125.74979 131.98355 139.7898 146.85192 151.41492 155.36016 162.09935 169.75115 180.4356 186.66936 190.6146 197.67671 202.35204 206.91504 214.58087 221.32007">*p=2*(a+b);} main() { </tspan></text>
</g>
</g>
<g id="Layer-1" data-name="P">
<clipPath id="cp36970">
<path transform="matrix(1,0,0,-1,0,841.92)" d="M .000008871 0 L 595.32 0 L 595.32 841.92 L .000008871 841.92 Z " fill-rule="evenodd"/>
</clipPath>
<g clip-path="url(#cp36970)">
<text xml:space="preserve" transform="matrix(1 0 -0 1 0 841.92)" font-size="14.04" font-family="Times New Roman"><tspan y="-96.264" x="229.13 236.21">&#x2013;&#x2013;</tspan></text>
</g>
</g>
<g id="Layer-1" data-name="P">
<clipPath id="cp36971">
<path transform="matrix(1,0,0,-1,0,841.92)" d="M .000008871 0 L 595.32 0 L 595.32 841.92 L .000008871 841.92 Z " fill-rule="evenodd"/>
</clipPath>
<g clip-path="url(#cp36971)">
<text xml:space="preserve" transform="matrix(1 0 -0 1 0 841.92)" font-size="14.04" font-family="Times New Roman"><tspan y="-96.264" x="243.29 247.13002">//</tspan></text>
</g>
</g>
<g id="Layer-1" data-name="P">
<clipPath id="cp36972">
<path transform="matrix(1,0,0,-1,0,841.92)" d="M .000008871 0 L 595.32 0 L 595.32 841.92 L .000008871 841.92 Z " fill-rule="evenodd"/>
</clipPath>
<g clip-path="url(#cp36972)">
<text xml:space="preserve" transform="matrix(1 0 -0 1 0 841.92)" font-size="14.04" font-family="Times New Roman"><tspan y="-96.264" x="250.97 258.05">&#x2013;&#x2013;</tspan></text>
</g>
</g>
<g id="Layer-1" data-name="P">
<clipPath id="cp36973">
<path transform="matrix(1,0,0,-1,0,841.92)" d="M .000008871 0 L 595.32 0 L 595.32 841.92 L .000008871 841.92 Z " fill-rule="evenodd"/>
</clipPath>
<g clip-path="url(#cp36973)">
<text xml:space="preserve" transform="matrix(1 0 -0 1 0 841.92)" font-size="14.04" font-family="Times New Roman"><tspan y="-96.264" x="265.13"> </tspan></text>
</g>
</g>
<g id="Layer-1" data-name="P">
<clipPath id="cp36974">
<path transform="matrix(1,0,0,-1,0,841.92)" d="M .000008871 0 L 595.32 0 L 595.32 841.92 L .000008871 841.92 Z " fill-rule="evenodd"/>
</clipPath>
<g clip-path="url(#cp36974)">
<text xml:space="preserve" transform="matrix(1 0 -0 1 0 841.92)" font-size="14.04" font-family="Times New Roman"><tspan y="-96.264" x="272.69 276.63523 283.59907 290.66117 298.32704 302.89 309.95213 317.01423 320.36979 327.33363 330.84364 341.76676 347.2283 354.31849 357.8285 368.59718 375.561 382.6231 387.29844 391.24366 398.90953 405.03096 411.99479 419.0569 422.90385 430.8224 438.74095 444.14634 451.20845 459.12699 466.9332 473.9953 480.95915 484.90437 491.64356 499.29536 506.1328 513.19497 520.2571 524.20236 531.86819 541.9489 548.9128 552.75979 559.72366">top (23,4,&#x0026;s1,&#x0026;p1); cout&#x003c;&#x003c;s1&#x003c;&#x003c;p1;} yoki Void </tspan></text>
</g>
</g>
<g id="Layer-1" data-name="P">
<clipPath id="cp36975">
<path transform="matrix(1,0,0,-1,0,841.92)" d="M .000008871 0 L 595.32 0 L 595.32 841.92 L .000008871 841.92 Z " fill-rule="evenodd"/>
</clipPath>
<g clip-path="url(#cp36975)">
<text xml:space="preserve" transform="matrix(1 0 -0 1 0 841.92)" font-size="14.04" font-family="Times New Roman"><tspan y="-72.144" x="85.104 89.04924 96.01308 103.075199 107.75052 112.31352 116.258769 123.2226 129.45636 133.4016 139.6213 145.85507 149.36507 155.57074 160.24607 164.09302 171.15514 177.27658 181.22182 187.44153 194.50365 198.01364 204.09296 208.76828 212.71352 219.67736 225.91112 229.85636 236.07607 246.87284 252.37651 255.8865 260.56184 264.3807 271.4428 277.56425 281.50947 287.7292 298.6523 305.71443">top(float a, float b, float &#x0026;s,float &#x0026;p)</tspan></text>
</g>
</g>
<g id="Layer-1" data-name="P">
<clipPath id="cp36976">
<path transform="matrix(1,0,0,-1,0,841.92)" d="M .000008871 0 L 595.32 0 L 595.32 841.92 L .000008871 841.92 Z " fill-rule="evenodd"/>
</clipPath>
<g clip-path="url(#cp36976)">
<text xml:space="preserve" transform="matrix(1 0 -0 1 0 841.92)" font-size="14.04" font-family="Times New Roman"><tspan y="-72.144" x="310.73"> </tspan></text>
</g>
</g>
<g id="Layer-1" data-name="P">
<clipPath id="cp36977">
<path transform="matrix(1,0,0,-1,0,841.92)" d="M .000008871 0 L 595.32 0 L 595.32 841.92 L .000008871 841.92 Z " fill-rule="evenodd"/>
</clipPath>
<g clip-path="url(#cp36977)">
<text xml:space="preserve" transform="matrix(1 0 -0 1 0 841.92)" font-size="14.04" font-family="Times New Roman"><tspan y="-72.144" x="316.99 323.58879 329.09245 337.011 343.13243 350.19453 357.15837 361.10359 367.3233 374.3854 382.19163 389.15547 396.21757 400.89289 407.12666 414.93287 421.99497 426.55796 430.50318 437.24238 443.44807 454.2448 460.47859 464.4238 471.4859 476.16123 480.83656 487.0703 493.8095">{s=a*b; p=2*(a+b);} main() { </tspan></text>
</g>
</g>
<g id="Layer-1" data-name="P">
<clipPath id="cp36978">
<path transform="matrix(1,0,0,-1,0,841.92)" d="M .000008871 0 L 595.32 0 L 595.32 841.92 L .000008871 841.92 Z " fill-rule="evenodd"/>
</clipPath>
<g clip-path="url(#cp36978)">
<text xml:space="preserve" transform="matrix(1 0 -0 1 0 841.92)" font-size="14.04" font-family="Times New Roman"><tspan y="-72.144" x="500.26 507.22">&#x2013;&#x2013;</tspan></text>
</g>
</g>
<g id="Layer-1" data-name="P">
<clipPath id="cp36979">
<path transform="matrix(1,0,0,-1,0,841.92)" d="M .000008871 0 L 595.32 0 L 595.32 841.92 L .000008871 841.92 Z " fill-rule="evenodd"/>
</clipPath>
<g clip-path="url(#cp36979)">
<text xml:space="preserve" transform="matrix(1 0 -0 1 0 841.92)" font-size="14.04" font-family="Times New Roman"><tspan y="-72.144" x="514.3 518.14">//</tspan></text>
</g>
</g>
<g id="Layer-1" data-name="P">
<clipPath id="cp36980">
<path transform="matrix(1,0,0,-1,0,841.92)" d="M .000008871 0 L 595.32 0 L 595.32 841.92 L .000008871 841.92 Z " fill-rule="evenodd"/>
</clipPath>
<g clip-path="url(#cp36980)">
<text xml:space="preserve" transform="matrix(1 0 -0 1 0 841.92)" font-size="14.04" font-family="Times New Roman"><tspan y="-72.144" x="521.98 529.06">&#x2013;&#x2013;</tspan></text>
</g>
</g>
<g id="Layer-1" data-name="P">
<clipPath id="cp36981">
<path transform="matrix(1,0,0,-1,0,841.92)" d="M .000008871 0 L 595.32 0 L 595.32 841.92 L .000008871 841.92 Z " fill-rule="evenodd"/>
</clipPath>
<g clip-path="url(#cp36981)">
<text xml:space="preserve" transform="matrix(1 0 -0 1 0 841.92)" font-size="14.04" font-family="Times New Roman"><tspan y="-72.144" x="536.14"> </tspan></text>
</g>
</g>
<g id="Layer-1" data-name="P">
<clipPath id="cp36982">
<path transform="matrix(1,0,0,-1,0,841.92)" d="M .000008871 0 L 595.32 0 L 595.32 841.92 L .000008871 841.92 Z " fill-rule="evenodd"/>
</clipPath>
<g clip-path="url(#cp36982)">
<text xml:space="preserve" transform="matrix(1 0 -0 1 0 841.92)" font-size="14.04" font-family="Times New Roman"><tspan y="-72.144" x="542.38 546.227 553.0645 560.0284">top </tspan></text>
</g>
</g>
</g>
</g>
</svg>
