<?xml version="1.0" encoding="UTF-8" standalone="no"?>
<!DOCTYPE svg PUBLIC "-//W3C//DTD SVG 1.1//EN" "http://www.w3.org/Graphics/SVG/1.1/DTD/svg11.dtd">
<svg xmlns="http://www.w3.org/2000/svg" xmlns:xlink="http://www.w3.org/1999/xlink" version="1.1" width="595.32pt" height="841.92pt" viewBox="0 0 595.32 841.92">
<g enable-background="new">
<g>
<g id="Layer-1" data-name="Artifact">
<clipPath id="cp37351">
<path transform="matrix(1,0,0,-1,0,841.92)" d="M .000008871 0 L 595.32 0 L 595.32 841.92 L .000008871 841.92 Z " fill-rule="evenodd"/>
</clipPath>
<g clip-path="url(#cp37351)">
<text xml:space="preserve" transform="matrix(1 0 -0 1 0 841.92)" font-size="11.04" font-family="Calibri"><tspan y="-51.864" x="314.09 319.72999 325.36997">236</tspan></text>
</g>
<clipPath id="cp37352">
<path transform="matrix(1,0,0,-1,0,841.92)" d="M .000008871 0 L 595.32 0 L 595.32 841.92 L .000008871 841.92 Z " fill-rule="evenodd"/>
</clipPath>
<g clip-path="url(#cp37352)">
<text xml:space="preserve" transform="matrix(1 0 -0 1 0 841.92)" font-size="11.04" font-family="Calibri"><tspan y="-51.864" x="331.03"> </tspan></text>
</g>
<clipPath id="cp37353">
<path transform="matrix(1,0,0,-1,0,841.92)" d="M .000008871 0 L 595.32 0 L 595.32 841.92 L .000008871 841.92 Z " fill-rule="evenodd"/>
</clipPath>
<g clip-path="url(#cp37353)">
</g>
<clipPath id="cp37354">
<path transform="matrix(1,0,0,-1,0,841.92)" d="M .000008871 0 L 595.32 0 L 595.32 841.92 L .000008871 841.92 Z " fill-rule="evenodd"/>
</clipPath>
<g clip-path="url(#cp37354)">
<text xml:space="preserve" transform="matrix(1 0 -0 1 0 841.92)" font-size="11.04" font-family="Calibri"><tspan y="-38.4" x="85.104"> </tspan></text>
</g>
<clipPath id="cp37355">
<path transform="matrix(1,0,0,-1,0,841.92)" d="M .000008871 0 L 595.32 0 L 595.32 841.92 L .000008871 841.92 Z " fill-rule="evenodd"/>
</clipPath>
<g clip-path="url(#cp37355)">
</g>
</g>
<g id="Layer-1" data-name="P">
<clipPath id="cp37356">
<path transform="matrix(1,0,0,-1,0,841.92)" d="M .000008871 0 L 595.32 0 L 595.32 841.92 L .000008871 841.92 Z " fill-rule="evenodd"/>
</clipPath>
<g clip-path="url(#cp37356)">
<text xml:space="preserve" transform="matrix(1 0 -0 1 0 841.92)" font-size="14.04" font-family="Times New Roman"><tspan y="-772.56" x="85.104 95.90076 102.134517 107.65224 113.15592 117.002887 124.065 127.911968 134.14572 138.82105 145.79894 152.0327 156.82033 160.76557 167.7294 171.67464 177.79608 181.74132 187.86277 194.92488 198.77184 205.73567 211.96944 215.91468 220.81462 227.6521 234.71422 241.67806 248.74018 255.70401 261.1094 268.1715 275.13536 281.3691 288.33296 293.2329 300.19676 307.25886 311.1058 318.1679 324.28935 329.1893 336.15315 340.09837 347.0622 357.74665 363.9804 367.92564 372.8256 379.8877 386.12147 390.79679 394.64375 398.58897 409.2734 415.50718 421.02488 428.08699 434.32075 441.39689 444.75245 449.6524 456.61625 463.67835 467.5253 472.42527 479.3891 486.4512 497.13566 504.32414 511.1616 518.2237 522.16897 528.4027 533.078 537.8797">massivlarga intelektual yondoshgan holda qiymat berilmasdan, uni kompyuter o</tspan></text>
</g>
<clipPath id="cp37357">
<path transform="matrix(1,0,0,-1,0,841.92)" d="M .000008871 0 L 595.32 0 L 595.32 841.92 L .000008871 841.92 Z " fill-rule="evenodd"/>
</clipPath>
<g clip-path="url(#cp37357)">
<text xml:space="preserve" transform="matrix(1 0 -0 1 0 841.92)" font-size="14.04" font-family="Times New Roman"><tspan y="-772.56" x="545.5">&#x2019;</tspan></text>
</g>
<clipPath id="cp37358">
<path transform="matrix(1,0,0,-1,0,841.92)" d="M .000008871 0 L 595.32 0 L 595.32 841.92 L .000008871 841.92 Z " fill-rule="evenodd"/>
</clipPath>
<g clip-path="url(#cp37358)">
<text xml:space="preserve" transform="matrix(1 0 -0 1 0 841.92)" font-size="14.04" font-family="Times New Roman"><tspan y="-772.56" x="550.06 556.18148 560.02847">zi </tspan></text>
</g>
<clipPath id="cp37359">
<path transform="matrix(1,0,0,-1,0,841.92)" d="M .000008871 0 L 595.32 0 L 595.32 841.92 L .000008871 841.92 Z " fill-rule="evenodd"/>
</clipPath>
<g clip-path="url(#cp37359)">
<text xml:space="preserve" transform="matrix(1 0 -0 1 0 841.92)" font-size="14.04" font-family="Times New Roman"><tspan y="-748.3" x="85.104 89.04924 94.45464 98.39989 104.521327">istag</tspan></text>
</g>
<clipPath id="cp37360">
<path transform="matrix(1,0,0,-1,0,841.92)" d="M .000008871 0 L 595.32 0 L 595.32 841.92 L .000008871 841.92 Z " fill-rule="evenodd"/>
</clipPath>
<g clip-path="url(#cp37360)">
<text xml:space="preserve" transform="matrix(1 0 -0 1 0 841.92)" font-size="14.04" font-family="Times New Roman"><tspan y="-748.3" x="111.62 117.74144 124.80356 128.87516 135.83899 142.90111 146.74806 153.81018 160.04395 163.98918 170.95302 174.89826 181.13202 188.09586 192.04109 195.55109 199.46825 209.54897 213.62056 220.68268 224.62792 230.74936 237.81148 241.65843 248.72055 253.28356 260.2474 267.3095 270.81953 274.849 281.81285 285.75807 291.16346 298.1273 305.1894 309.26103 316.22486 320.0718 324.01704 330.98088 337.9447 345.0068 351.24058 355.3122 362.27604 368.5098 372.58143 376.42839 383.3922 388.89588 395.8597 402.82356 409.88566 413.7326 419.23628 426.2001 433.2622 439.38365 443.56758 454.252 461.31413 466.81779 470.8894 477.85325 481.79847 488.7623 499.44676 505.6805 509.62574 513.571 519.80477 524.48007 528.55166 535.5155 539.46078 543.30776 548.71316 555.77529 559.4959">an holda oladi. U kichikroq, hisob kitobga va tushunishga mos qiymatlar olishi </tspan></text>
</g>
<clipPath id="cp37361">
<path transform="matrix(1,0,0,-1,0,841.92)" d="M .000008871 0 L 595.32 0 L 595.32 841.92 L .000008871 841.92 Z " fill-rule="evenodd"/>
</clipPath>
<g clip-path="url(#cp37361)">
<text xml:space="preserve" transform="matrix(1 0 -0 1 0 841.92)" font-size="14.04" font-family="Times New Roman"><tspan y="-724.18" x="85.104 92.166118 98.28755 105.34967 112.31351 119.375629">uchun </tspan></text>
</g>
<clipPath id="cp37362">
<path transform="matrix(1,0,0,-1,0,841.92)" d="M .000008871 0 L 595.32 0 L 595.32 841.92 L .000008871 841.92 Z " fill-rule="evenodd"/>
</clipPath>
<g clip-path="url(#cp37362)">
<text xml:space="preserve" transform="matrix(1 0 -0 1 0 841.92)" font-size="14.04" font-family="Times New Roman"><tspan y="-724.18" x="124.94">&#x2018;</tspan></text>
</g>
<clipPath id="cp37363">
<path transform="matrix(1,0,0,-1,0,841.92)" d="M .000008871 0 L 595.32 0 L 595.32 841.92 L .000008871 841.92 Z " fill-rule="evenodd"/>
</clipPath>
<g clip-path="url(#cp37363)">
<text xml:space="preserve" transform="matrix(1 0 -0 1 0 841.92)" font-size="14.04" font-family="Times New Roman"><tspan y="-724.18" x="129.5 135.73377 140.40909 144.36838 148.93138 156.84995 161.52527 167.64672 174.70883 181.77095 186.33396 191.00928 194.85623 201.82007 208.88219">z[i]=rand()/111</tspan></text>
</g>
<clipPath id="cp37364">
<path transform="matrix(1,0,0,-1,0,841.92)" d="M .000008871 0 L 595.32 0 L 595.32 841.92 L .000008871 841.92 Z " fill-rule="evenodd"/>
</clipPath>
<g clip-path="url(#cp37364)">
<text xml:space="preserve" transform="matrix(1 0 -0 1 0 841.92)" font-size="14.04" font-family="Times New Roman"><tspan y="-724.18" x="216.05">-</tspan></text>
</g>
<clipPath id="cp37365">
<path transform="matrix(1,0,0,-1,0,841.92)" d="M .000008871 0 L 595.32 0 L 595.32 841.92 L .000008871 841.92 Z " fill-rule="evenodd"/>
</clipPath>
<g clip-path="url(#cp37365)">
<text xml:space="preserve" transform="matrix(1 0 -0 1 0 841.92)" font-size="14.04" font-family="Times New Roman"><tspan y="-724.18" x="220.61 227.57384 234.63596 241.5998">100;</tspan></text>
</g>
<clipPath id="cp37366">
<path transform="matrix(1,0,0,-1,0,841.92)" d="M .000008871 0 L 595.32 0 L 595.32 841.92 L .000008871 841.92 Z " fill-rule="evenodd"/>
</clipPath>
<g clip-path="url(#cp37366)">
<text xml:space="preserve" transform="matrix(1 0 -0 1 0 841.92)" font-size="14.04" font-family="Times New Roman"><tspan y="-724.18" x="245.57">&#x2019;</tspan></text>
</g>
<clipPath id="cp37367">
<path transform="matrix(1,0,0,-1,0,841.92)" d="M .000008871 0 L 595.32 0 L 595.32 841.92 L .000008871 841.92 Z " fill-rule="evenodd"/>
</clipPath>
<g clip-path="url(#cp37367)">
<text xml:space="preserve" transform="matrix(1 0 -0 1 0 841.92)" font-size="14.04" font-family="Times New Roman"><tspan y="-724.18" x="250.13"> </tspan></text>
</g>
<clipPath id="cp37368">
<path transform="matrix(1,0,0,-1,0,841.92)" d="M .000008871 0 L 595.32 0 L 595.32 841.92 L .000008871 841.92 Z " fill-rule="evenodd"/>
</clipPath>
<g clip-path="url(#cp37368)">
<text xml:space="preserve" transform="matrix(1 0 -0 1 0 841.92)" font-size="14.04" font-family="Times New Roman"><tspan y="-724.18" x="255.65 259.49696 266.55906 270.406 274.35124 281.1887 288.2508 292.92613 296.87135 303.7088 309.2125 316.2746 320.12156 327.0854 337.88215 344.1159 348.06114 355.12324 359.06846 364.4598 371.42366 378.48576 385.54786 390.9392 398.0013 404.12275 409.62644 416.59028">ixtiyoriy qiymatni 111 ga bo</tspan></text>
</g>
<clipPath id="cp37369">
<path transform="matrix(1,0,0,-1,0,841.92)" d="M .000008871 0 L 595.32 0 L 595.32 841.92 L .000008871 841.92 Z " fill-rule="evenodd"/>
</clipPath>
<g clip-path="url(#cp37369)">
<text xml:space="preserve" transform="matrix(1 0 -0 1 0 841.92)" font-size="14.04" font-family="Times New Roman"><tspan y="-724.18" x="423.91">&#x2019;</tspan></text>
</g>
<clipPath id="cp37370">
<path transform="matrix(1,0,0,-1,0,841.92)" d="M .000008871 0 L 595.32 0 L 595.32 841.92 L .000008871 841.92 Z " fill-rule="evenodd"/>
</clipPath>
<g clip-path="url(#cp37370)">
<text xml:space="preserve" transform="matrix(1 0 -0 1 0 841.92)" font-size="14.04" font-family="Times New Roman"><tspan y="-724.18" x="428.47 432.41523 439.37907 443.32429 454.00874 459.51243 466.57453 472.8083 478.32603 485.38813 490.8918 501.57627 507.81004 514.88619 519.56149 523.5067 530.34426 535.8479 542.91006 549.1438 559.8282">ldim va u manfiy ham </tspan></text>
</g>
<clipPath id="cp37371">
<path transform="matrix(1,0,0,-1,0,841.92)" d="M .000008871 0 L 595.32 0 L 595.32 841.92 L .000008871 841.92 Z " fill-rule="evenodd"/>
</clipPath>
<g clip-path="url(#cp37371)">
<text xml:space="preserve" transform="matrix(1 0 -0 1 0 841.92)" font-size="14.04" font-family="Times New Roman"><tspan y="-700.06" x="85.104 92.166118 96.11136 103.075199 113.759639 119.99339 123.93864 127.88388 134.11765 138.79297 142.30297 149.23873 153.08568 157.03092 162.43631 169.49843 173.44367 176.79923 183.86135 189.98279 197.0449 204.00875 211.07086 214.58086 221.51662 228.57874 235.64086 238.99642 245.96025 249.90549 253.41548 259.64924 266.45863 270.40385 275.07917 282.1553 286.10054 296.78498 300.29499">qiymatlar olishi uchun 100 ni ayirdim. </tspan></text>
</g>
<clipPath id="cp37372">
<path transform="matrix(1,0,0,-1,0,841.92)" d="M .000008871 0 L 595.32 0 L 595.32 841.92 L .000008871 841.92 Z " fill-rule="evenodd"/>
</clipPath>
<g clip-path="url(#cp37372)">
<text xml:space="preserve" transform="matrix(1 0 -0 1 0 841.92)" font-size="14.04" font-family="Times New Roman"><tspan y="-700.06" x="304.01 314.09074 320.3245 324.2697 328.21495 332.0619 338.29566 345.3718 351.60557 355.11558 363.60978 367.11979 372.48307 379.4469 386.509 393.47285 400.53495 406.7687 413.6202 417.13023 424.1502 428.1235 435.08735 445.8841 452.11787 456.06309 459.5731 466.50886 472.7426 479.70646 486.76856 490.71379 494.06935 501.13145 504.9784 508.82536 515.88748 519.8327">Natijada Z shunday qiymat qabul qildi.</tspan></text>
</g>
<clipPath id="cp37373">
<path transform="matrix(1,0,0,-1,0,841.92)" d="M .000008871 0 L 595.32 0 L 595.32 841.92 L .000008871 841.92 Z " fill-rule="evenodd"/>
</clipPath>
<g clip-path="url(#cp37373)">
<text xml:space="preserve" transform="matrix(1 0 -0 1 0 841.92)" font-size="11.04" font-family="Times New Roman"><tspan y="-700.06" x="523.42"> </tspan></text>
</g>
</g>
<g id="Layer-1" data-name="P">
<clipPath id="cp37374">
<path transform="matrix(1,0,0,-1,0,841.92)" d="M .000008871 0 L 595.32 0 L 595.32 841.92 L .000008871 841.92 Z " fill-rule="evenodd"/>
</clipPath>
<g clip-path="url(#cp37374)">
<text xml:space="preserve" transform="matrix(1 0 -0 1 0 841.92)" font-size="14.04" font-family="Times New Roman,Bold" font-weight="bold"><tspan y="-675.7" x="297.05 304.12998">11</tspan></text>
</g>
<clipPath id="cp37375">
<path transform="matrix(1,0,0,-1,0,841.92)" d="M .000008871 0 L 595.32 0 L 595.32 841.92 L .000008871 841.92 Z " fill-rule="evenodd"/>
</clipPath>
<g clip-path="url(#cp37375)">
<text xml:space="preserve" transform="matrix(1 0 -0 1 0 841.92)" font-size="14.04" font-family="Times New Roman,Bold" font-weight="bold"><tspan y="-675.7" x="311.21">-</tspan></text>
</g>
<clipPath id="cp37376">
<path transform="matrix(1,0,0,-1,0,841.92)" d="M .000008871 0 L 595.32 0 L 595.32 841.92 L .000008871 841.92 Z " fill-rule="evenodd"/>
</clipPath>
<g clip-path="url(#cp37376)">
<text xml:space="preserve" transform="matrix(1 0 -0 1 0 841.92)" font-size="14.04" font-family="Times New Roman,Bold" font-weight="bold"><tspan y="-675.7" x="315.91"> </tspan></text>
</g>
</g>
<g id="Layer-1" data-name="P">
<clipPath id="cp37377">
<path transform="matrix(1,0,0,-1,0,841.92)" d="M .000008871 0 L 595.32 0 L 595.32 841.92 L .000008871 841.92 Z " fill-rule="evenodd"/>
</clipPath>
<g clip-path="url(#cp37377)">
<text xml:space="preserve" transform="matrix(1 0 -0 1 0 841.92)" font-size="14.04" font-family="Times New Roman,Bold" font-weight="bold"><tspan y="-675.7" x="319.39 327.0699 334.132 341.81187 348.7757 355.8378 359.3478 367.15406 374.07579 378.021 384.25477">bobga doir </tspan></text>
</g>
</g>
<g id="Layer-1" data-name="P">
<clipPath id="cp37378">
<path transform="matrix(1,0,0,-1,0,841.92)" d="M .000008871 0 L 595.32 0 L 595.32 841.92 L .000008871 841.92 Z " fill-rule="evenodd"/>
</clipPath>
<g clip-path="url(#cp37378)">
<text xml:space="preserve" transform="matrix(1 0 -0 1 0 841.92)" font-size="14.04" font-family="Times New Roman,Bold" font-weight="bold"><tspan y="-675.7" x="387.79 393.1954 400.15925 407.22135 414.18519 418.03215 421.97737 429.03947">savollar</tspan></text>
</g>
</g>
<g id="Layer-1" data-name="P">
<clipPath id="cp37379">
<path transform="matrix(1,0,0,-1,0,841.92)" d="M .000008871 0 L 595.32 0 L 595.32 841.92 L .000008871 841.92 Z " fill-rule="evenodd"/>
</clipPath>
<g clip-path="url(#cp37379)">
<text xml:space="preserve" transform="matrix(1 0 -0 1 0 841.92)" font-size="12" font-family="Times New Roman,Bold" font-weight="bold"><tspan y="-675.7" x="435.19"> </tspan></text>
</g>
</g>
<g id="Layer-1" data-name="P">
<clipPath id="cp37380">
<path transform="matrix(1,0,0,-1,0,841.92)" d="M .000008871 0 L 595.32 0 L 595.32 841.92 L .000008871 841.92 Z " fill-rule="evenodd"/>
</clipPath>
<g clip-path="url(#cp37380)">
<text xml:space="preserve" transform="matrix(1 0 -0 1 0 841.92)" font-size="14.04" font-family="Times New Roman"><tspan y="-651.7" x="85.104"> </tspan></text>
</g>
<clipPath id="cp37381">
<path transform="matrix(1,0,0,-1,0,841.92)" d="M .000008871 0 L 595.32 0 L 595.32 841.92 L .000008871 841.92 Z " fill-rule="evenodd"/>
</clipPath>
<g clip-path="url(#cp37381)">
</g>
</g>
<g id="Layer-1" data-name="P">
<clipPath id="cp37382">
<path transform="matrix(1,0,0,-1,0,841.92)" d="M .000008871 0 L 595.32 0 L 595.32 841.92 L .000008871 841.92 Z " fill-rule="evenodd"/>
</clipPath>
<g clip-path="url(#cp37382)">
<text xml:space="preserve" transform="matrix(1 0 -0 1 0 841.92)" font-size="14.04" font-family="Times New Roman"><tspan y="-627.58" x="120.5 127.58">1.</tspan></text>
</g>
<clipPath id="cp37383">
<path transform="matrix(1,0,0,-1,0,841.92)" d="M .000008871 0 L 595.32 0 L 595.32 841.92 L .000008871 841.92 Z " fill-rule="evenodd"/>
</clipPath>
<g clip-path="url(#cp37383)">
<text xml:space="preserve" transform="matrix(1 0 -0 1 0 841.92)" font-size="14.04" font-family="Arial"><tspan y="-627.58" x="131.06"> </tspan></text>
</g>
<clipPath id="cp37384">
<path transform="matrix(1,0,0,-1,0,841.92)" d="M .000008871 0 L 595.32 0 L 595.32 841.92 L .000008871 841.92 Z " fill-rule="evenodd"/>
</clipPath>
<g clip-path="url(#cp37384)">
<text xml:space="preserve" transform="matrix(1 0 -0 1 0 841.92)" font-size="14.04" font-family="Times New Roman"><tspan y="-627.58" x="155.9 165.98072 171.48439 178.44823 183.9519 187.89714 194.73462 198.31482 208.99927 215.23303 222.42153 229.259 236.32112 239.83112 246.85112 253.87113 260.8069 267.869 271.71595 275.5629 281.79667 286.472 290.31895 297.38105 301.228 308.19184 315.25395 318.76396 325.78395 332.0177 338.16725 342.11247 346.78779 352.9092 356.85444 363.0882 367.65119 371.49815 378.56025 382.50547 386.01548 392.10884 398.9463 402.8915 406.83674 413.89884 417.40885 424.42884 430.6626 435.2537 439.10066 446.16276">Asosiy menyu punktlarining vazifalarini aytib bering</tspan></text>
</g>
<clipPath id="cp37385">
<path transform="matrix(1,0,0,-1,0,841.92)" d="M .000008871 0 L 595.32 0 L 595.32 841.92 L .000008871 841.92 Z " fill-rule="evenodd"/>
</clipPath>
<g clip-path="url(#cp37385)">
<text xml:space="preserve" transform="matrix(1 0 -0 1 0 841.92)" font-size="14.04" font-family="Times New Roman"><tspan y="-627.58" x="453.46">?</tspan></text>
</g>
<clipPath id="cp37386">
<path transform="matrix(1,0,0,-1,0,841.92)" d="M .000008871 0 L 595.32 0 L 595.32 841.92 L .000008871 841.92 Z " fill-rule="evenodd"/>
</clipPath>
<g clip-path="url(#cp37386)">
<text xml:space="preserve" transform="matrix(1 0 -0 1 0 841.92)" font-size="14.04" font-family="Times New Roman"><tspan y="-627.58" x="459.82"> </tspan></text>
</g>
<clipPath id="cp37387">
<path transform="matrix(1,0,0,-1,0,841.92)" d="M .000008871 0 L 595.32 0 L 595.32 841.92 L .000008871 841.92 Z " fill-rule="evenodd"/>
</clipPath>
<g clip-path="url(#cp37387)">
<text xml:space="preserve" transform="matrix(1 0 -0 1 0 841.92)" font-size="14.04" font-family="Times New Roman"><tspan y="-627.58" x="463.18"> </tspan></text>
</g>
<clipPath id="cp37388">
<path transform="matrix(1,0,0,-1,0,841.92)" d="M .000008871 0 L 595.32 0 L 595.32 841.92 L .000008871 841.92 Z " fill-rule="evenodd"/>
</clipPath>
<g clip-path="url(#cp37388)">
</g>
</g>
<g id="Layer-1" data-name="P">
<clipPath id="cp37389">
<path transform="matrix(1,0,0,-1,0,841.92)" d="M .000008871 0 L 595.32 0 L 595.32 841.92 L .000008871 841.92 Z " fill-rule="evenodd"/>
</clipPath>
<g clip-path="url(#cp37389)">
<text xml:space="preserve" transform="matrix(1 0 -0 1 0 841.92)" font-size="14.04" font-family="Times New Roman"><tspan y="-603.46" x="120.5 127.58">2.</tspan></text>
</g>
<clipPath id="cp37390">
<path transform="matrix(1,0,0,-1,0,841.92)" d="M .000008871 0 L 595.32 0 L 595.32 841.92 L .000008871 841.92 Z " fill-rule="evenodd"/>
</clipPath>
<g clip-path="url(#cp37390)">
<text xml:space="preserve" transform="matrix(1 0 -0 1 0 841.92)" font-size="14.04" font-family="Arial"><tspan y="-603.46" x="131.06"> </tspan></text>
</g>
<clipPath id="cp37391">
<path transform="matrix(1,0,0,-1,0,841.92)" d="M .000008871 0 L 595.32 0 L 595.32 841.92 L .000008871 841.92 Z " fill-rule="evenodd"/>
</clipPath>
<g clip-path="url(#cp37391)">
<text xml:space="preserve" transform="matrix(1 0 -0 1 0 841.92)" font-size="14.04" font-family="Times New Roman"><tspan y="-603.46" x="155.9 164.42227 171.48439 176.15972 183.12355 190.18567 199.8873 207.56719 213.80095 219.20635 226.26847 232.38991 236.33515 246.03678 256.72123 263.78334 270.84544 274.69239 278.53935 282.48457 289.54667 295.6681 305.36976 309.93275 316.99485 323.95869 330.92253 336.42619 340.27314 347.33525 354.29908 360.53285 364.3798 374.08146 377.9284 384.9905 391.95436 402.7511 408.98487 412.93009 419.16386 423.83918 430.81706 434.76228 441.7261 448.7882 458.37754 465.43965 471.6734 477.79484 481.74006 486.41539 492.5368 496.48204 502.7158 507.27879 511.12574 518.18789 522.03488 531.7365 537.9703 544.82186 548.7671 552.6141 559.57797">Turbo Paskal muhitida funksional tugmalarning vazifalarini aytib </tspan></text>
</g>
<clipPath id="cp37392">
<path transform="matrix(1,0,0,-1,0,841.92)" d="M .000008871 0 L 595.32 0 L 595.32 841.92 L .000008871 841.92 Z " fill-rule="evenodd"/>
</clipPath>
<g clip-path="url(#cp37392)">
</g>
<clipPath id="cp37393">
<path transform="matrix(1,0,0,-1,0,841.92)" d="M .000008871 0 L 595.32 0 L 595.32 841.92 L .000008871 841.92 Z " fill-rule="evenodd"/>
</clipPath>
<g clip-path="url(#cp37393)">
<text xml:space="preserve" transform="matrix(1 0 -0 1 0 841.92)" font-size="14.04" font-family="Times New Roman"><tspan y="-579.34" x="85.104 92.166118 98.39987 102.962879 106.90812 113.871959 120.934078">bering.</tspan></text>
</g>
<clipPath id="cp37394">
<path transform="matrix(1,0,0,-1,0,841.92)" d="M .000008871 0 L 595.32 0 L 595.32 841.92 L .000008871 841.92 Z " fill-rule="evenodd"/>
</clipPath>
<g clip-path="url(#cp37394)">
<text xml:space="preserve" transform="matrix(1 0 -0 1 0 841.92)" font-size="14.04" font-family="Times New Roman"><tspan y="-579.34" x="124.34"> </tspan></text>
</g>
<clipPath id="cp37395">
<path transform="matrix(1,0,0,-1,0,841.92)" d="M .000008871 0 L 595.32 0 L 595.32 841.92 L .000008871 841.92 Z " fill-rule="evenodd"/>
</clipPath>
<g clip-path="url(#cp37395)">
</g>
</g>
<g id="Layer-1" data-name="P">
<clipPath id="cp37396">
<path transform="matrix(1,0,0,-1,0,841.92)" d="M .000008871 0 L 595.32 0 L 595.32 841.92 L .000008871 841.92 Z " fill-rule="evenodd"/>
</clipPath>
<g clip-path="url(#cp37396)">
<text xml:space="preserve" transform="matrix(1 0 -0 1 0 841.92)" font-size="14.04" font-family="Times New Roman"><tspan y="-555.07" x="120.5 127.58">3.</tspan></text>
</g>
<clipPath id="cp37397">
<path transform="matrix(1,0,0,-1,0,841.92)" d="M .000008871 0 L 595.32 0 L 595.32 841.92 L .000008871 841.92 Z " fill-rule="evenodd"/>
</clipPath>
<g clip-path="url(#cp37397)">
<text xml:space="preserve" transform="matrix(1 0 -0 1 0 841.92)" font-size="14.04" font-family="Arial"><tspan y="-555.07" x="131.06"> </tspan></text>
</g>
<clipPath id="cp37398">
<path transform="matrix(1,0,0,-1,0,841.92)" d="M .000008871 0 L 595.32 0 L 595.32 841.92 L .000008871 841.92 Z " fill-rule="evenodd"/>
</clipPath>
<g clip-path="url(#cp37398)">
<text xml:space="preserve" transform="matrix(1 0 -0 1 0 841.92)" font-size="14.04" font-family="Times New Roman"><tspan y="-555.07" x="155.9 165.26468 171.49845 178.56056 184.682 191.64585 195.59108 202.6532 207.32852 214.40468 221.36852 225.31375 229.25899 235.38043 242.44255 249.50467 253.4499 258.85533 265.81916 269.76438 275.8858 281.38948 288.45158 295.5137 302.5758 308.69725 315.66108 322.72319 329.78529 336.8474 343.08119 348.48658 355.54869 360.95408 364.8993 371.73677 378.92524 382.87046 389.8343 396.79814 407.59489 413.82865 417.77388 424.00764 428.68296 435.66084 439.60606 446.5699 453.632 460.69413 467.75624 473.99 480.11143 484.05665 488.73197 494.8534 498.7986 505.03239 509.59538 513.4423 520.50448 524.4497 531.51187 537.7456 544.59719 548.5424 552.4877 559.45156">Redaktor bilan ishlash uchun asosiy tugmalarning vazifalarini aytib </tspan></text>
</g>
<clipPath id="cp37399">
<path transform="matrix(1,0,0,-1,0,841.92)" d="M .000008871 0 L 595.32 0 L 595.32 841.92 L .000008871 841.92 Z " fill-rule="evenodd"/>
</clipPath>
<g clip-path="url(#cp37399)">
</g>
<clipPath id="cp37400">
<path transform="matrix(1,0,0,-1,0,841.92)" d="M .000008871 0 L 595.32 0 L 595.32 841.92 L .000008871 841.92 Z " fill-rule="evenodd"/>
</clipPath>
<g clip-path="url(#cp37400)">
<text xml:space="preserve" transform="matrix(1 0 -0 1 0 841.92)" font-size="14.04" font-family="Times New Roman"><tspan y="-530.95" x="85.104 92.166118 98.39987 102.962879 106.90812 113.871959 120.934078">bering.</tspan></text>
</g>
<clipPath id="cp37401">
<path transform="matrix(1,0,0,-1,0,841.92)" d="M .000008871 0 L 595.32 0 L 595.32 841.92 L .000008871 841.92 Z " fill-rule="evenodd"/>
</clipPath>
<g clip-path="url(#cp37401)">
<text xml:space="preserve" transform="matrix(1 0 -0 1 0 841.92)" font-size="14.04" font-family="Times New Roman,Bold" font-weight="bold"><tspan y="-530.95" x="124.46"> </tspan></text>
</g>
<clipPath id="cp37402">
<path transform="matrix(1,0,0,-1,0,841.92)" d="M .000008871 0 L 595.32 0 L 595.32 841.92 L .000008871 841.92 Z " fill-rule="evenodd"/>
</clipPath>
<g clip-path="url(#cp37402)">
<text xml:space="preserve" transform="matrix(1 0 -0 1 0 841.92)" font-size="14.04" font-family="Times New Roman"><tspan y="-530.95" x="127.82"> </tspan></text>
</g>
<clipPath id="cp37403">
<path transform="matrix(1,0,0,-1,0,841.92)" d="M .000008871 0 L 595.32 0 L 595.32 841.92 L .000008871 841.92 Z " fill-rule="evenodd"/>
</clipPath>
<g clip-path="url(#cp37403)">
</g>
</g>
<g id="Layer-1" data-name="P">
<clipPath id="cp37404">
<path transform="matrix(1,0,0,-1,0,841.92)" d="M .000008871 0 L 595.32 0 L 595.32 841.92 L .000008871 841.92 Z " fill-rule="evenodd"/>
</clipPath>
<g clip-path="url(#cp37404)">
<text xml:space="preserve" transform="matrix(1 0 -0 1 0 841.92)" font-size="14.04" font-family="Times New Roman"><tspan y="-506.83" x="120.5 127.58">4.</tspan></text>
</g>
<clipPath id="cp37405">
<path transform="matrix(1,0,0,-1,0,841.92)" d="M .000008871 0 L 595.32 0 L 595.32 841.92 L .000008871 841.92 Z " fill-rule="evenodd"/>
</clipPath>
<g clip-path="url(#cp37405)">
<text xml:space="preserve" transform="matrix(1 0 -0 1 0 841.92)" font-size="14.04" font-family="Arial"><tspan y="-506.83" x="131.06"> </tspan></text>
</g>
<clipPath id="cp37406">
<path transform="matrix(1,0,0,-1,0,841.92)" d="M .000008871 0 L 595.32 0 L 595.32 841.92 L .000008871 841.92 Z " fill-rule="evenodd"/>
</clipPath>
<g clip-path="url(#cp37406)">
<text xml:space="preserve" transform="matrix(1 0 -0 1 0 841.92)" font-size="14.04" font-family="Times New Roman,Bold" font-weight="bold"><tspan y="-506.83" x="155.9"> </tspan></text>
</g>
<clipPath id="cp37407">
<path transform="matrix(1,0,0,-1,0,841.92)" d="M .000008871 0 L 595.32 0 L 595.32 841.92 L .000008871 841.92 Z " fill-rule="evenodd"/>
</clipPath>
<g clip-path="url(#cp37407)">
<text xml:space="preserve" transform="matrix(1 0 -0 1 0 841.92)" font-size="14.04" font-family="Times New Roman"><tspan y="-506.83" x="159.38 168.74469 176.66326 184.58182 188.09181 195.11182 201.26134 206.76502 210.61197 217.67409 222.23709 226.18233 232.41609 237.82149 244.8836 248.23917 252.1844 256.03138 259.9766 263.82356 270.88566 277.00709 280.5171 287.53709 293.77085 299.2324 303.05128 310.11338 314.7887 318.2987 322.2018 328.35136 335.41346 341.53489 347.03855 350.98377">C++ dasturlash tilida dastur tanasi </tspan></text>
</g>
<clipPath id="cp37408">
<path transform="matrix(1,0,0,-1,0,841.92)" d="M .000008871 0 L 595.32 0 L 595.32 841.92 L .000008871 841.92 Z " fill-rule="evenodd"/>
</clipPath>
<g clip-path="url(#cp37408)">
<text xml:space="preserve" transform="matrix(1 0 -0 1 0 841.92)" font-size="14.04" font-family="Times New Roman"><tspan y="-506.83" x="354.55 361.6121 367.73353 374.79563 381.75947 387.99324 394.84474 398.42494 405.48704 411.7208 415.56776 422.5316 426.4768 429.98683 436.92259 440.8678 444.71476 450.94853 458.02467 461.38023 468.44233 474.56376 478.50898 485.4728 489.41804 493.26499 499.49876 506.5749 512.69638 519.6602 523.5072">qanday belgi bilan belgilanadi?</tspan></text>
</g>
<clipPath id="cp37409">
<path transform="matrix(1,0,0,-1,0,841.92)" d="M .000008871 0 L 595.32 0 L 595.32 841.92 L .000008871 841.92 Z " fill-rule="evenodd"/>
</clipPath>
<g clip-path="url(#cp37409)">
<text xml:space="preserve" transform="matrix(1 0 -0 1 0 841.92)" font-size="14.04" font-family="Times New Roman"><tspan y="-506.83" x="529.9"> </tspan></text>
</g>
<clipPath id="cp37410">
<path transform="matrix(1,0,0,-1,0,841.92)" d="M .000008871 0 L 595.32 0 L 595.32 841.92 L .000008871 841.92 Z " fill-rule="evenodd"/>
</clipPath>
<g clip-path="url(#cp37410)">
</g>
</g>
<g id="Layer-1" data-name="P">
<clipPath id="cp37411">
<path transform="matrix(1,0,0,-1,0,841.92)" d="M .000008871 0 L 595.32 0 L 595.32 841.92 L .000008871 841.92 Z " fill-rule="evenodd"/>
</clipPath>
<g clip-path="url(#cp37411)">
<text xml:space="preserve" transform="matrix(1 0 -0 1 0 841.92)" font-size="14.04" font-family="Times New Roman"><tspan y="-482.71" x="120.5 127.58">5.</tspan></text>
</g>
<clipPath id="cp37412">
<path transform="matrix(1,0,0,-1,0,841.92)" d="M .000008871 0 L 595.32 0 L 595.32 841.92 L .000008871 841.92 Z " fill-rule="evenodd"/>
</clipPath>
<g clip-path="url(#cp37412)">
<text xml:space="preserve" transform="matrix(1 0 -0 1 0 841.92)" font-size="14.04" font-family="Arial"><tspan y="-482.71" x="131.06"> </tspan></text>
</g>
<clipPath id="cp37413">
<path transform="matrix(1,0,0,-1,0,841.92)" d="M .000008871 0 L 595.32 0 L 595.32 841.92 L .000008871 841.92 Z " fill-rule="evenodd"/>
</clipPath>
<g clip-path="url(#cp37413)">
<text xml:space="preserve" transform="matrix(1 0 -0 1 0 841.92)" font-size="14.04" font-family="Times New Roman"><tspan y="-482.71" x="155.9 165.26468 173.18325 181.1018 185.5244 192.58652 198.70796 204.21164 208.0586 215.12071 219.68372 223.62895 229.86272 235.26811 242.33023 246.75283 250.59978 254.54502 258.39198 262.23893 269.30104 275.42247 279.84507 286.90718 291.47016 297.70393 304.78007 311.01383 315.68916 322.66703 329.72914 335.85057 342.91267 346.7596 350.70484 356.9386 361.5016 368.46543 372.41065 376.83326 383.89537 387.7423 392.41764 396.2646 400.2098 404.05677 409.56044 416.62254 420.93284 427.99494 434.11637 441.17848 448.24058 454.47434 461.32585 465.74845 472.81056 479.87266 486.1064 490.6694 496.90318 500.75013 507.81224 512.37527 516.2222 522.456 527.1313 531.56796 538.63009 542.47708 546.4223 552.54379 559.5076">C++ dasturlash tilida o&#x2019;zgaruvchilarni kiritish qanday operatorlar bilan </tspan></text>
</g>
<clipPath id="cp37414">
<path transform="matrix(1,0,0,-1,0,841.92)" d="M .000008871 0 L 595.32 0 L 595.32 841.92 L .000008871 841.92 Z " fill-rule="evenodd"/>
</clipPath>
<g clip-path="url(#cp37414)">
</g>
<clipPath id="cp37415">
<path transform="matrix(1,0,0,-1,0,841.92)" d="M .000008871 0 L 595.32 0 L 595.32 841.92 L .000008871 841.92 Z " fill-rule="evenodd"/>
</clipPath>
<g clip-path="url(#cp37415)">
<text xml:space="preserve" transform="matrix(1 0 -0 1 0 841.92)" font-size="14.04" font-family="Times New Roman"><tspan y="-458.47" x="85.104 91.45007 102.134517 108.36827 112.313518 119.37563 125.60939 128.97899 136.0411 141.4465 148.50862 152.35558 157.0309 160.87786 164.82309 170.94454 178.00666 181.8536">amalga oshiriladi?</tspan></text>
</g>
<clipPath id="cp37416">
<path transform="matrix(1,0,0,-1,0,841.92)" d="M .000008871 0 L 595.32 0 L 595.32 841.92 L .000008871 841.92 Z " fill-rule="evenodd"/>
</clipPath>
<g clip-path="url(#cp37416)">
<text xml:space="preserve" transform="matrix(1 0 -0 1 0 841.92)" font-size="14.04" font-family="Times New Roman"><tspan y="-458.47" x="188.18"> </tspan></text>
</g>
<clipPath id="cp37417">
<path transform="matrix(1,0,0,-1,0,841.92)" d="M .000008871 0 L 595.32 0 L 595.32 841.92 L .000008871 841.92 Z " fill-rule="evenodd"/>
</clipPath>
<g clip-path="url(#cp37417)">
</g>
</g>
<g id="Layer-1" data-name="P">
<clipPath id="cp37418">
<path transform="matrix(1,0,0,-1,0,841.92)" d="M .000008871 0 L 595.32 0 L 595.32 841.92 L .000008871 841.92 Z " fill-rule="evenodd"/>
</clipPath>
<g clip-path="url(#cp37418)">
<text xml:space="preserve" transform="matrix(1 0 -0 1 0 841.92)" font-size="14.04" font-family="Times New Roman"><tspan y="-434.35" x="120.5 127.58">6.</tspan></text>
</g>
<clipPath id="cp37419">
<path transform="matrix(1,0,0,-1,0,841.92)" d="M .000008871 0 L 595.32 0 L 595.32 841.92 L .000008871 841.92 Z " fill-rule="evenodd"/>
</clipPath>
<g clip-path="url(#cp37419)">
<text xml:space="preserve" transform="matrix(1 0 -0 1 0 841.92)" font-size="14.04" font-family="Arial"><tspan y="-434.35" x="131.06"> </tspan></text>
</g>
<clipPath id="cp37420">
<path transform="matrix(1,0,0,-1,0,841.92)" d="M .000008871 0 L 595.32 0 L 595.32 841.92 L .000008871 841.92 Z " fill-rule="evenodd"/>
</clipPath>
<g clip-path="url(#cp37420)">
<text xml:space="preserve" transform="matrix(1 0 -0 1 0 841.92)" font-size="14.04" font-family="Times New Roman"><tspan y="-434.35" x="155.9 165.26468 173.18325 181.1018 188.52896 195.59108 201.82485 207.23024 211.0772 218.13932 222.81464 226.66159 232.89536 238.30075 245.36287 252.79003 256.73527 260.5822 264.52745 268.3744 275.33824 281.572 289.12553 299.80998 306.04374 311.56144 317.0651 321.0103 327.97416 331.91938 338.15315 342.71614 349.67997 353.62519 361.05238 367.28614 371.84913 375.79435 382.85646 389.91856 397.21937 404.28147 408.12843 412.07365 415.9206 421.326 428.3881 435.81526 442.87736 449.1111 455.96263 461.46629 465.4115 472.83869 479.9008 486.86463 493.0984 497.7737 503.9092 507.85444 514.91659 519.47958 526.90676 533.9689 538.64419 545.72036 551.8418 555.6888 559.53579">C++ dasturlash tilida massivlarni e&#x2019;lon qilish qaysi operator orqali </tspan></text>
</g>
<clipPath id="cp37421">
<path transform="matrix(1,0,0,-1,0,841.92)" d="M .000008871 0 L 595.32 0 L 595.32 841.92 L .000008871 841.92 Z " fill-rule="evenodd"/>
</clipPath>
<g clip-path="url(#cp37421)">
</g>
<clipPath id="cp37422">
<path transform="matrix(1,0,0,-1,0,841.92)" d="M .000008871 0 L 595.32 0 L 595.32 841.92 L .000008871 841.92 Z " fill-rule="evenodd"/>
</clipPath>
<g clip-path="url(#cp37422)">
<text xml:space="preserve" transform="matrix(1 0 -0 1 0 841.92)" font-size="14.04" font-family="Times New Roman"><tspan y="-410.23" x="85.104 91.45007 102.134517 108.36827 112.313518 119.37563 125.60939 128.97899 136.0411 141.4465 148.50862 152.35558 157.0309 160.87786 164.82309 170.94454 178.00666 181.8536 188.19969">amalga oshiriladi? </tspan></text>
</g>
<clipPath id="cp37423">
<path transform="matrix(1,0,0,-1,0,841.92)" d="M .000008871 0 L 595.32 0 L 595.32 841.92 L .000008871 841.92 Z " fill-rule="evenodd"/>
</clipPath>
<g clip-path="url(#cp37423)">
<text xml:space="preserve" transform="matrix(1 0 -0 1 0 841.92)" font-size="14.04" font-family="Times New Roman"><tspan y="-410.23" x="191.69"> </tspan></text>
</g>
<clipPath id="cp37424">
<path transform="matrix(1,0,0,-1,0,841.92)" d="M .000008871 0 L 595.32 0 L 595.32 841.92 L .000008871 841.92 Z " fill-rule="evenodd"/>
</clipPath>
<g clip-path="url(#cp37424)">
</g>
</g>
<g id="Layer-1" data-name="P">
<clipPath id="cp37425">
<path transform="matrix(1,0,0,-1,0,841.92)" d="M .000008871 0 L 595.32 0 L 595.32 841.92 L .000008871 841.92 Z " fill-rule="evenodd"/>
</clipPath>
<g clip-path="url(#cp37425)">
<text xml:space="preserve" transform="matrix(1 0 -0 1 0 841.92)" font-size="14.04" font-family="Times New Roman"><tspan y="-386.09" x="120.5 127.58">7.</tspan></text>
</g>
<clipPath id="cp37426">
<path transform="matrix(1,0,0,-1,0,841.92)" d="M .000008871 0 L 595.32 0 L 595.32 841.92 L .000008871 841.92 Z " fill-rule="evenodd"/>
</clipPath>
<g clip-path="url(#cp37426)">
<text xml:space="preserve" transform="matrix(1 0 -0 1 0 841.92)" font-size="14.04" font-family="Arial"><tspan y="-386.09" x="131.06"> </tspan></text>
</g>
<clipPath id="cp37427">
<path transform="matrix(1,0,0,-1,0,841.92)" d="M .000008871 0 L 595.32 0 L 595.32 841.92 L .000008871 841.92 Z " fill-rule="evenodd"/>
</clipPath>
<g clip-path="url(#cp37427)">
<text xml:space="preserve" transform="matrix(1 0 -0 1 0 841.92)" font-size="14.04" font-family="Times New Roman"><tspan y="-386.09" x="155.9"> </tspan></text>
</g>
<clipPath id="cp37428">
<path transform="matrix(1,0,0,-1,0,841.92)" d="M .000008871 0 L 595.32 0 L 595.32 841.92 L .000008871 841.92 Z " fill-rule="evenodd"/>
</clipPath>
<g clip-path="url(#cp37428)">
<text xml:space="preserve" transform="matrix(1 0 -0 1 0 841.92)" font-size="14.04" font-family="Times New Roman"><tspan y="-386.09" x="159.38 168.74469 176.66326 184.58182 188.09181 195.11182 201.26134 206.76502 210.61197 217.67409 222.23709 226.18233 232.41609 237.82149 244.8836 248.23917 252.1844 256.03138 259.9766 263.82356 270.88566 277.00709 280.5171 286.75086 293.77085 300.79084 307.81083 311.32084 317.44227 321.38749 325.23445 330.7381 337.8002 341.15577 348.1196 355.1817 361.41548 366.0908 372.2263 376.1715 383.13536 387.81068 391.65763 398.62147 402.56669 406.0767 412.31047 419.11985 423.06507 427.01029 433.97413 440.93797">C++ dasturlash tilida chop etish operatorini ayting?</tspan></text>
</g>
<clipPath id="cp37429">
<path transform="matrix(1,0,0,-1,0,841.92)" d="M .000008871 0 L 595.32 0 L 595.32 841.92 L .000008871 841.92 Z " fill-rule="evenodd"/>
</clipPath>
<g clip-path="url(#cp37429)">
<text xml:space="preserve" transform="matrix(1 0 -0 1 0 841.92)" font-size="14.04" font-family="Times New Roman"><tspan y="-386.09" x="447.46"> </tspan></text>
</g>
<clipPath id="cp37430">
<path transform="matrix(1,0,0,-1,0,841.92)" d="M .000008871 0 L 595.32 0 L 595.32 841.92 L .000008871 841.92 Z " fill-rule="evenodd"/>
</clipPath>
<g clip-path="url(#cp37430)">
</g>
</g>
<g id="Layer-1" data-name="P">
<clipPath id="cp37431">
<path transform="matrix(1,0,0,-1,0,841.92)" d="M .000008871 0 L 595.32 0 L 595.32 841.92 L .000008871 841.92 Z " fill-rule="evenodd"/>
</clipPath>
<g clip-path="url(#cp37431)">
<text xml:space="preserve" transform="matrix(1 0 -0 1 0 841.92)" font-size="14.04" font-family="Times New Roman"><tspan y="-361.97" x="85.104"> </tspan></text>
</g>
<clipPath id="cp37432">
<path transform="matrix(1,0,0,-1,0,841.92)" d="M .000008871 0 L 595.32 0 L 595.32 841.92 L .000008871 841.92 Z " fill-rule="evenodd"/>
</clipPath>
<g clip-path="url(#cp37432)">
</g>
</g>
<g id="Layer-1" data-name="P">
<clipPath id="cp37433">
<path transform="matrix(1,0,0,-1,0,841.92)" d="M .000008871 0 L 595.32 0 L 595.32 841.92 L .000008871 841.92 Z " fill-rule="evenodd"/>
</clipPath>
<g clip-path="url(#cp37433)">
<text xml:space="preserve" transform="matrix(1 0 -0 1 0 841.92)" font-size="12" font-family="Times New Roman,Bold" font-weight="bold"><tspan y="-339.29" x="172.34"> </tspan></text>
</g>
</g>
<g id="Layer-1" data-name="P">
<clipPath id="cp37434">
<path transform="matrix(1,0,0,-1,0,841.92)" d="M .000008871 0 L 595.32 0 L 595.32 841.92 L .000008871 841.92 Z " fill-rule="evenodd"/>
</clipPath>
<g clip-path="url(#cp37434)">
<text xml:space="preserve" transform="matrix(1 0 -0 1 0 841.92)" font-size="12" font-family="Times New Roman,Bold" font-weight="bold"><tspan y="-318.65" x="340.51"> </tspan></text>
</g>
</g>
<g id="Layer-1" data-name="P">
<clipPath id="cp37435">
<path transform="matrix(1,0,0,-1,0,841.92)" d="M .000008871 0 L 595.32 0 L 595.32 841.92 L .000008871 841.92 Z " fill-rule="evenodd"/>
</clipPath>
<g clip-path="url(#cp37435)">
<text xml:space="preserve" transform="matrix(1 0 -0 1 0 841.92)" font-size="12" font-family="Times New Roman,Bold" font-weight="bold"><tspan y="-297.89" x="340.51"> </tspan></text>
</g>
</g>
<g id="Layer-1" data-name="P">
<clipPath id="cp37436">
<path transform="matrix(1,0,0,-1,0,841.92)" d="M .000008871 0 L 595.32 0 L 595.32 841.92 L .000008871 841.92 Z " fill-rule="evenodd"/>
</clipPath>
<g clip-path="url(#cp37436)">
<text xml:space="preserve" transform="matrix(1 0 -0 1 0 841.92)" font-size="12" font-family="Times New Roman,Bold" font-weight="bold"><tspan y="-277.25" x="340.51"> </tspan></text>
</g>
</g>
<g id="Layer-1" data-name="P">
<clipPath id="cp37437">
<path transform="matrix(1,0,0,-1,0,841.92)" d="M .000008871 0 L 595.32 0 L 595.32 841.92 L .000008871 841.92 Z " fill-rule="evenodd"/>
</clipPath>
<g clip-path="url(#cp37437)">
<text xml:space="preserve" transform="matrix(1 0 -0 1 0 841.92)" font-size="12" font-family="Times New Roman,Bold" font-weight="bold"><tspan y="-256.61" x="85.104"> </tspan></text>
</g>
<clipPath id="cp37438">
<path transform="matrix(1,0,0,-1,0,841.92)" d="M .000008871 0 L 595.32 0 L 595.32 841.92 L .000008871 841.92 Z " fill-rule="evenodd"/>
</clipPath>
<g clip-path="url(#cp37438)">
<text xml:space="preserve" transform="matrix(1 0 -0 1 0 841.92)" font-size="12" font-family="Times New Roman,Bold" font-weight="bold"><tspan y="-256.61" x="229.13"> </tspan></text>
</g>
</g>
</g>
</g>
</svg>
