<?xml version="1.0" encoding="UTF-8" standalone="no"?>
<!DOCTYPE svg PUBLIC "-//W3C//DTD SVG 1.1//EN" "http://www.w3.org/Graphics/SVG/1.1/DTD/svg11.dtd">
<svg xmlns="http://www.w3.org/2000/svg" xmlns:xlink="http://www.w3.org/1999/xlink" version="1.1" width="595.32pt" height="841.92pt" viewBox="0 0 595.32 841.92">
<g enable-background="new">
<g>
<g id="Layer-1" data-name="Artifact">
<clipPath id="cp37439">
<path transform="matrix(1,0,0,-1,0,841.92)" d="M .000008871 0 L 595.32 0 L 595.32 841.92 L .000008871 841.92 Z " fill-rule="evenodd"/>
</clipPath>
<g clip-path="url(#cp37439)">
<text xml:space="preserve" transform="matrix(1 0 -0 1 0 841.92)" font-size="11.04" font-family="Calibri"><tspan y="-51.864" x="314.09 319.72999 325.36997">237</tspan></text>
</g>
<clipPath id="cp37440">
<path transform="matrix(1,0,0,-1,0,841.92)" d="M .000008871 0 L 595.32 0 L 595.32 841.92 L .000008871 841.92 Z " fill-rule="evenodd"/>
</clipPath>
<g clip-path="url(#cp37440)">
<text xml:space="preserve" transform="matrix(1 0 -0 1 0 841.92)" font-size="11.04" font-family="Calibri"><tspan y="-51.864" x="331.03"> </tspan></text>
</g>
<clipPath id="cp37441">
<path transform="matrix(1,0,0,-1,0,841.92)" d="M .000008871 0 L 595.32 0 L 595.32 841.92 L .000008871 841.92 Z " fill-rule="evenodd"/>
</clipPath>
<g clip-path="url(#cp37441)">
</g>
<clipPath id="cp37442">
<path transform="matrix(1,0,0,-1,0,841.92)" d="M .000008871 0 L 595.32 0 L 595.32 841.92 L .000008871 841.92 Z " fill-rule="evenodd"/>
</clipPath>
<g clip-path="url(#cp37442)">
<text xml:space="preserve" transform="matrix(1 0 -0 1 0 841.92)" font-size="11.04" font-family="Calibri"><tspan y="-38.4" x="85.104"> </tspan></text>
</g>
<clipPath id="cp37443">
<path transform="matrix(1,0,0,-1,0,841.92)" d="M .000008871 0 L 595.32 0 L 595.32 841.92 L .000008871 841.92 Z " fill-rule="evenodd"/>
</clipPath>
<g clip-path="url(#cp37443)">
</g>
</g>
<g id="Layer-1" data-name="P">
<clipPath id="cp37444">
<path transform="matrix(1,0,0,-1,0,841.92)" d="M .000008871 0 L 595.32 0 L 595.32 841.92 L .000008871 841.92 Z " fill-rule="evenodd"/>
</clipPath>
<g clip-path="url(#cp37444)">
<text xml:space="preserve" transform="matrix(1 0 -0 1 0 841.92)" font-size="14.04" font-family="Times New Roman"><tspan y="-772.56" x="248.21 255.17385 267.6554">&#x00ab;Ma</tspan></text>
</g>
<clipPath id="cp37445">
<path transform="matrix(1,0,0,-1,0,841.92)" d="M .000008871 0 L 595.32 0 L 595.32 841.92 L .000008871 841.92 Z " fill-rule="evenodd"/>
</clipPath>
<g clip-path="url(#cp37445)">
<text xml:space="preserve" transform="matrix(1 0 -0 1 0 841.92)" font-size="14.04" font-family="Times New Roman"><tspan y="-772.56" x="273.89 277.85005">te</tspan></text>
</g>
<clipPath id="cp37446">
<path transform="matrix(1,0,0,-1,0,841.92)" d="M .000008871 0 L 595.32 0 L 595.32 841.92 L .000008871 841.92 Z " fill-rule="evenodd"/>
</clipPath>
<g clip-path="url(#cp37446)">
<text xml:space="preserve" transform="matrix(1 0 -0 1 0 841.92)" font-size="14.04" font-family="Times New Roman"><tspan y="-772.56" x="284.09 294.77445 301.0082 304.95344 308.89866 315.96076 322.19453 325.70454 330.23945 336.4732 343.43705 347.284 354.3461 358.19306 365.1569 372.219 375.729 381.96278 388.89854 392.74549 396.6907">matika fanining ehtim</tspan></text>
</g>
<clipPath id="cp37447">
<path transform="matrix(1,0,0,-1,0,841.92)" d="M .000008871 0 L 595.32 0 L 595.32 841.92 L .000008871 841.92 Z " fill-rule="evenodd"/>
</clipPath>
<g clip-path="url(#cp37447)">
<text xml:space="preserve" transform="matrix(1 0 -0 1 0 841.92)" font-size="14.04" font-family="Times New Roman"><tspan y="-772.56" x="407.47">o</tspan></text>
</g>
<clipPath id="cp37448">
<path transform="matrix(1,0,0,-1,0,841.92)" d="M .000008871 0 L 595.32 0 L 595.32 841.92 L .000008871 841.92 Z " fill-rule="evenodd"/>
</clipPath>
<g clip-path="url(#cp37448)">
<text xml:space="preserve" transform="matrix(1 0 -0 1 0 841.92)" font-size="14.04" font-family="Times New Roman"><tspan y="-772.56" x="414.55 418.4952 422.44044 428.6742 433.34953 436.85954 443.7953 450.02906 456.26283 462.49659 467.07365 471.01887 477.85633 484.0901 489.6078 493.553">llar nazariyasi </tspan></text>
</g>
<clipPath id="cp37449">
<path transform="matrix(1,0,0,-1,0,841.92)" d="M .000008871 0 L 595.32 0 L 595.32 841.92 L .000008871 841.92 Z " fill-rule="evenodd"/>
</clipPath>
<g clip-path="url(#cp37449)">
<text xml:space="preserve" transform="matrix(1 0 -0 1 0 841.92)" font-size="14.04" font-family="Times New Roman"><tspan y="-772.56" x="497.02"> </tspan></text>
</g>
</g>
<g id="Layer-1" data-name="P">
<clipPath id="cp37450">
<path transform="matrix(1,0,0,-1,0,841.92)" d="M .000008871 0 L 595.32 0 L 595.32 841.92 L .000008871 841.92 Z " fill-rule="evenodd"/>
</clipPath>
<g clip-path="url(#cp37450)">
<text xml:space="preserve" transform="matrix(1 0 -0 1 0 841.92)" font-size="14.04" font-family="Times New Roman"><tspan y="-748.3" x="248.21 255.27213 261.5059 265.0159 275.67228">va ma</tspan></text>
</g>
<clipPath id="cp37451">
<path transform="matrix(1,0,0,-1,0,841.92)" d="M .000008871 0 L 595.32 0 L 595.32 841.92 L .000008871 841.92 Z " fill-rule="evenodd"/>
</clipPath>
<g clip-path="url(#cp37451)">
<text xml:space="preserve" transform="matrix(1 0 -0 1 0 841.92)" font-size="14.04" font-family="Times New Roman"><tspan y="-748.3" x="281.93 285.89">te</tspan></text>
</g>
<clipPath id="cp37452">
<path transform="matrix(1,0,0,-1,0,841.92)" d="M .000008871 0 L 595.32 0 L 595.32 841.92 L .000008871 841.92 Z " fill-rule="evenodd"/>
</clipPath>
<g clip-path="url(#cp37452)">
<text xml:space="preserve" transform="matrix(1 0 -0 1 0 841.92)" font-size="14.04" font-family="Times New Roman"><tspan y="-748.3" x="292.25 302.93446 309.1682 313.11344 317.05867 324.12077 327.47633 332.97999 336.9252 343.04664 346.8936 350.8388 356.2442 360.18943 364.03639 371.09849 377.33226 380.84226 384.2961 391.25996 395.20518 399.8805">matik statistika, diff</tspan></text>
</g>
<clipPath id="cp37453">
<path transform="matrix(1,0,0,-1,0,841.92)" d="M .000008871 0 L 595.32 0 L 595.32 841.92 L .000008871 841.92 Z " fill-rule="evenodd"/>
</clipPath>
<g clip-path="url(#cp37453)">
<text xml:space="preserve" transform="matrix(1 0 -0 1 0 841.92)" font-size="14.04" font-family="Times New Roman"><tspan y="-748.3" x="404.71 410.94377 415.50675">ere</tspan></text>
</g>
<clipPath id="cp37454">
<path transform="matrix(1,0,0,-1,0,841.92)" d="M .000008871 0 L 595.32 0 L 595.32 841.92 L .000008871 841.92 Z " fill-rule="evenodd"/>
</clipPath>
<g clip-path="url(#cp37454)">
<text xml:space="preserve" transform="matrix(1 0 -0 1 0 841.92)" font-size="14.04" font-family="Times New Roman"><tspan y="-748.3" x="421.75 428.71385 434.2175 438.06446 444.29823 448.24345 451.599">nsial t</tspan></text>
</g>
<clipPath id="cp37455">
<path transform="matrix(1,0,0,-1,0,841.92)" d="M .000008871 0 L 595.32 0 L 595.32 841.92 L .000008871 841.92 Z " fill-rule="evenodd"/>
</clipPath>
<g clip-path="url(#cp37455)">
<text xml:space="preserve" transform="matrix(1 0 -0 1 0 841.92)" font-size="14.04" font-family="Times New Roman"><tspan y="-748.3" x="455.62">e</tspan></text>
</g>
<clipPath id="cp37456">
<path transform="matrix(1,0,0,-1,0,841.92)" d="M .000008871 0 L 595.32 0 L 595.32 841.92 L .000008871 841.92 Z " fill-rule="evenodd"/>
</clipPath>
<g clip-path="url(#cp37456)">
<text xml:space="preserve" transform="matrix(1 0 -0 1 0 841.92)" font-size="14.04" font-family="Times New Roman"><tspan y="-748.3" x="461.74 468.8021 475.76594 479.71116 485.83259 496.62934 502.8631 506.80833 513.04208 517.71737">nglamalar </tspan></text>
</g>
<clipPath id="cp37457">
<path transform="matrix(1,0,0,-1,0,841.92)" d="M .000008871 0 L 595.32 0 L 595.32 841.92 L .000008871 841.92 Z " fill-rule="evenodd"/>
</clipPath>
<g clip-path="url(#cp37457)">
<text xml:space="preserve" transform="matrix(1 0 -0 1 0 841.92)" font-size="14.04" font-family="Times New Roman"><tspan y="-748.3" x="521.26"> </tspan></text>
</g>
</g>
<g id="Layer-1" data-name="P">
<clipPath id="cp37458">
<path transform="matrix(1,0,0,-1,0,841.92)" d="M .000008871 0 L 595.32 0 L 595.32 841.92 L .000008871 841.92 Z " fill-rule="evenodd"/>
</clipPath>
<g clip-path="url(#cp37458)">
<text xml:space="preserve" transform="matrix(1 0 -0 1 0 841.92)" font-size="14.04" font-family="Times New Roman"><tspan y="-724.18" x="248.21 255.27213 261.5059 265.0159 275.67228 281.90605">va mat</tspan></text>
</g>
<clipPath id="cp37459">
<path transform="matrix(1,0,0,-1,0,841.92)" d="M .000008871 0 L 595.32 0 L 595.32 841.92 L .000008871 841.92 Z " fill-rule="evenodd"/>
</clipPath>
<g clip-path="url(#cp37459)">
<text xml:space="preserve" transform="matrix(1 0 -0 1 0 841.92)" font-size="14.04" font-family="Times New Roman"><tspan y="-724.18" x="285.89">e</tspan></text>
</g>
<clipPath id="cp37460">
<path transform="matrix(1,0,0,-1,0,841.92)" d="M .000008871 0 L 595.32 0 L 595.32 841.92 L .000008871 841.92 Z " fill-rule="evenodd"/>
</clipPath>
<g clip-path="url(#cp37460)">
<text xml:space="preserve" transform="matrix(1 0 -0 1 0 841.92)" font-size="14.04" font-family="Times New Roman"><tspan y="-724.18" x="292.25 302.93446 309.1682 313.11344 317.05867 324.12077 327.63078 332.16569 336.1109 342.23234 346.17756 353.23966 359.47343 362.98344 366.32496 371.00028 378.07643 385.04026 392.0041 397.50776 401.3547 408.31855 415.38066 421.6144 425.55964 428.9152 432.8604 438.98185 446.04396 449.8909 453.83613 457.78135 461.1369">matik fizika, funksional tahlil s</tspan></text>
</g>
<clipPath id="cp37461">
<path transform="matrix(1,0,0,-1,0,841.92)" d="M .000008871 0 L 595.32 0 L 595.32 841.92 L .000008871 841.92 Z " fill-rule="evenodd"/>
</clipPath>
<g clip-path="url(#cp37461)">
<text xml:space="preserve" transform="matrix(1 0 -0 1 0 841.92)" font-size="14.04" font-family="Times New Roman"><tspan y="-724.18" x="466.78">o</tspan></text>
</g>
<clipPath id="cp37462">
<path transform="matrix(1,0,0,-1,0,841.92)" d="M .000008871 0 L 595.32 0 L 595.32 841.92 L .000008871 841.92 Z " fill-rule="evenodd"/>
</clipPath>
<g clip-path="url(#cp37462)">
<text xml:space="preserve" transform="matrix(1 0 -0 1 0 841.92)" font-size="14.04" font-family="Times New Roman"><tspan y="-724.18" x="473.86 480.9221 487.04353 492.54719 496.39414 503.45625 509.57768 516.6398">hasidagi</tspan></text>
</g>
<clipPath id="cp37463">
<path transform="matrix(1,0,0,-1,0,841.92)" d="M .000008871 0 L 595.32 0 L 595.32 841.92 L .000008871 841.92 Z " fill-rule="evenodd"/>
</clipPath>
<g clip-path="url(#cp37463)">
<text xml:space="preserve" transform="matrix(1 0 -0 1 0 841.92)" font-size="14.04" font-family="Times New Roman"><tspan y="-724.18" x="520.54"> </tspan></text>
</g>
</g>
<g id="Layer-1" data-name="P">
<clipPath id="cp37464">
<path transform="matrix(1,0,0,-1,0,841.92)" d="M .000008871 0 L 595.32 0 L 595.32 841.92 L .000008871 841.92 Z " fill-rule="evenodd"/>
</clipPath>
<g clip-path="url(#cp37464)">
<text xml:space="preserve" transform="matrix(1 0 -0 1 0 841.92)" font-size="14.04" font-family="Times New Roman"><tspan y="-700.06" x="248.21"> </tspan></text>
</g>
<clipPath id="cp37465">
<path transform="matrix(1,0,0,-1,0,841.92)" d="M .000008871 0 L 595.32 0 L 595.32 841.92 L .000008871 841.92 Z " fill-rule="evenodd"/>
</clipPath>
<g clip-path="url(#cp37465)">
<text xml:space="preserve" transform="matrix(1 0 -0 1 0 841.92)" font-size="14.04" font-family="Times New Roman"><tspan y="-700.06" x="251.81 258.64747 265.70957 269.6548 276.61863 283.58247 287.52769 293.76145 298.32444">yutuqlari</tspan></text>
</g>
<clipPath id="cp37466">
<path transform="matrix(1,0,0,-1,0,841.92)" d="M .000008871 0 L 595.32 0 L 595.32 841.92 L .000008871 841.92 Z " fill-rule="evenodd"/>
</clipPath>
<g clip-path="url(#cp37466)">
<text xml:space="preserve" transform="matrix(1 0 -0 1 0 841.92)" font-size="14.04" font-family="Times New Roman"><tspan y="-700.06" x="302.33"> </tspan></text>
</g>
<clipPath id="cp37467">
<path transform="matrix(1,0,0,-1,0,841.92)" d="M .000008871 0 L 595.32 0 L 595.32 841.92 L .000008871 841.92 Z " fill-rule="evenodd"/>
</clipPath>
<g clip-path="url(#cp37467)">
<text xml:space="preserve" transform="matrix(1 0 -0 1 0 841.92)" font-size="14.04" font-family="Times New Roman"><tspan y="-700.06" x="305.81 310.49">re</tspan></text>
</g>
<clipPath id="cp37468">
<path transform="matrix(1,0,0,-1,0,841.92)" d="M .000008871 0 L 595.32 0 L 595.32 841.92 L .000008871 841.92 Z " fill-rule="evenodd"/>
</clipPath>
<g clip-path="url(#cp37468)">
<text xml:space="preserve" transform="matrix(1 0 -0 1 0 841.92)" font-size="14.04" font-family="Times New Roman"><tspan y="-700.06" x="316.75 322.1554 329.11924 336.18135 343.14518 346.99214 350.93736 357.99946 364.12089 371.18299 377.3044 384.36653 387.87654 394.1103 401.13029 407.27983 414.34193 420.57569 423.94529 431.0074">spublikadan ancha uz</tspan></text>
</g>
<clipPath id="cp37469">
<path transform="matrix(1,0,0,-1,0,841.92)" d="M .000008871 0 L 595.32 0 L 595.32 841.92 L .000008871 841.92 Z " fill-rule="evenodd"/>
</clipPath>
<g clip-path="url(#cp37469)">
<text xml:space="preserve" transform="matrix(1 0 -0 1 0 841.92)" font-size="14.04" font-family="Times New Roman"><tspan y="-700.06" x="437.23">o</tspan></text>
</g>
<clipPath id="cp37470">
<path transform="matrix(1,0,0,-1,0,841.92)" d="M .000008871 0 L 595.32 0 L 595.32 841.92 L .000008871 841.92 Z " fill-rule="evenodd"/>
</clipPath>
<g clip-path="url(#cp37470)">
<text xml:space="preserve" transform="matrix(1 0 -0 1 0 841.92)" font-size="14.04" font-family="Times New Roman"><tspan y="-700.06" x="444.34 451.30384 458.36595 464.5997 467.9693 475.0314 481.15284 491.9496 495.5298 506.21424 512.448 517.9657 525.02786 532.08999 539.1521 543.8274 550.79129">qda ham mashhur&#x00bb; </tspan></text>
</g>
<clipPath id="cp37471">
<path transform="matrix(1,0,0,-1,0,841.92)" d="M .000008871 0 L 595.32 0 L 595.32 841.92 L .000008871 841.92 Z " fill-rule="evenodd"/>
</clipPath>
<g clip-path="url(#cp37471)">
<text xml:space="preserve" transform="matrix(1 0 -0 1 0 841.92)" font-size="14.04" font-family="Times New Roman"><tspan y="-700.06" x="554.26"> </tspan></text>
</g>
</g>
<g id="Layer-1" data-name="P">
<clipPath id="cp37472">
<path transform="matrix(1,0,0,-1,0,841.92)" d="M .000008871 0 L 595.32 0 L 595.32 841.92 L .000008871 841.92 Z " fill-rule="evenodd"/>
</clipPath>
<g clip-path="url(#cp37472)">
<text xml:space="preserve" transform="matrix(1 0 -0 1 0 841.92)" font-size="14.04" font-family="Times New Roman,BoldItalic" font-weight="bold" font-style="italic"><tspan y="-675.58" x="484.9 490.40367 493.91368 503.27836 506.71818 510.22819 519.59286 526.5146 532.01828 535.7389 546.88668 553.8505">I.A. Karimov</tspan></text>
</g>
<clipPath id="cp37473">
<path transform="matrix(1,0,0,-1,0,841.92)" d="M .000008871 0 L 595.32 0 L 595.32 841.92 L .000008871 841.92 Z " fill-rule="evenodd"/>
</clipPath>
<g clip-path="url(#cp37473)">
<text xml:space="preserve" transform="matrix(1 0 -0 1 0 841.92)" font-size="12" font-family="Times New Roman,Bold" font-weight="bold"><tspan y="-675.58" x="560.02"> </tspan></text>
</g>
</g>
<g id="Layer-1" data-name="P">
<clipPath id="cp37474">
<path transform="matrix(1,0,0,-1,0,841.92)" d="M .000008871 0 L 595.32 0 L 595.32 841.92 L .000008871 841.92 Z " fill-rule="evenodd"/>
</clipPath>
<g clip-path="url(#cp37474)">
<text xml:space="preserve" transform="matrix(1 0 -0 1 0 841.92)" font-size="12" font-family="Times New Roman,Bold" font-weight="bold"><tspan y="-653.26" x="340.51"> </tspan></text>
</g>
</g>
<g id="Layer-1" data-name="P">
<clipPath id="cp37475">
<path transform="matrix(1,0,0,-1,0,841.92)" d="M .000008871 0 L 595.32 0 L 595.32 841.92 L .000008871 841.92 Z " fill-rule="evenodd"/>
</clipPath>
<g clip-path="url(#cp37475)">
<text xml:space="preserve" transform="matrix(1 0 -0 1 0 841.92)" font-size="14.04" font-family="Times New Roman,Bold" font-weight="bold"><tspan y="-630.82" x="99.984 107.064">12</tspan></text>
</g>
<clipPath id="cp37476">
<path transform="matrix(1,0,0,-1,0,841.92)" d="M .000008871 0 L 595.32 0 L 595.32 841.92 L .000008871 841.92 Z " fill-rule="evenodd"/>
</clipPath>
<g clip-path="url(#cp37476)">
<text xml:space="preserve" transform="matrix(1 0 -0 1 0 841.92)" font-size="14.04" font-family="Times New Roman,Bold" font-weight="bold"><tspan y="-630.82" x="114.14">-</tspan></text>
</g>
<clipPath id="cp37477">
<path transform="matrix(1,0,0,-1,0,841.92)" d="M .000008871 0 L 595.32 0 L 595.32 841.92 L .000008871 841.92 Z " fill-rule="evenodd"/>
</clipPath>
<g clip-path="url(#cp37477)">
<text xml:space="preserve" transform="matrix(1 0 -0 1 0 841.92)" font-size="14.04" font-family="Times New Roman,Bold" font-weight="bold"><tspan y="-630.82" x="118.7 128.06468 138.98781 148.3525 151.82038">BOB. </tspan></text>
</g>
<clipPath id="cp37478">
<path transform="matrix(1,0,0,-1,0,841.92)" d="M .000008871 0 L 595.32 0 L 595.32 841.92 L .000008871 841.92 Z " fill-rule="evenodd"/>
</clipPath>
<g clip-path="url(#cp37478)">
<text xml:space="preserve" transform="matrix(1 0 -0 1 0 841.92)" font-size="14.04" font-family="Times New Roman,Bold" font-weight="bold"><tspan y="-630.82" x="155.3 160.7054 171.62853 180.99321 186.49689 194.17678 205.0999 215.18062 220.58602">IQTISODIY</tspan></text>
</g>
<clipPath id="cp37479">
<path transform="matrix(1,0,0,-1,0,841.92)" d="M .000008871 0 L 595.32 0 L 595.32 841.92 L .000008871 841.92 Z " fill-rule="evenodd"/>
</clipPath>
<g clip-path="url(#cp37479)">
<text xml:space="preserve" transform="matrix(1 0 -0 1 0 841.92)" font-size="14.04" font-family="Times New Roman,Bold" font-weight="bold"><tspan y="-630.82" x="230.69">-</tspan></text>
</g>
<clipPath id="cp37480">
<path transform="matrix(1,0,0,-1,0,841.92)" d="M .000008871 0 L 595.32 0 L 595.32 841.92 L .000008871 841.92 Z " fill-rule="evenodd"/>
</clipPath>
<g clip-path="url(#cp37480)">
<text xml:space="preserve" transform="matrix(1 0 -0 1 0 841.92)" font-size="14.04" font-family="Times New Roman,Bold" font-weight="bold"><tspan y="-630.82" x="235.37 248.56758 258.64833 268.013 277.3777 290.5753 300.656 310.0207 315.52436 326.44749 329.9575 343.127 354.05015 364.13087 373.49555 382.86024 392.2249 402.2916 410.09785 421.02098 430.38566 435.87528 445.82963 451.33329 459.01316 469.93629 473.4463 483.49894 491.30519 502.2283 510.03456 519.39926 529.46597 539.5467">MATEMATIK MODELLASHTIRISH ASOSLARI</tspan></text>
</g>
<clipPath id="cp37481">
<path transform="matrix(1,0,0,-1,0,841.92)" d="M .000008871 0 L 595.32 0 L 595.32 841.92 L .000008871 841.92 Z " fill-rule="evenodd"/>
</clipPath>
<g clip-path="url(#cp37481)">
<text xml:space="preserve" transform="matrix(1 0 -0 1 0 841.92)" font-size="12" font-family="Times New Roman,Bold" font-weight="bold"><tspan y="-630.82" x="545.02"> </tspan></text>
</g>
</g>
<g id="Layer-1" data-name="P">
<clipPath id="cp37482">
<path transform="matrix(1,0,0,-1,0,841.92)" d="M .000008871 0 L 595.32 0 L 595.32 841.92 L .000008871 841.92 Z " fill-rule="evenodd"/>
</clipPath>
<g clip-path="url(#cp37482)">
<text xml:space="preserve" transform="matrix(1 0 -0 1 0 841.92)" font-size="12" font-family="Times New Roman,Bold" font-weight="bold"><tspan y="-608.5" x="340.51"> </tspan></text>
</g>
</g>
<g id="Layer-1" data-name="P">
<clipPath id="cp37483">
<path transform="matrix(1,0,0,-1,0,841.92)" d="M .000008871 0 L 595.32 0 L 595.32 841.92 L .000008871 841.92 Z " fill-rule="evenodd"/>
</clipPath>
<g clip-path="url(#cp37483)">
<text xml:space="preserve" transform="matrix(1 0 -0 1 0 841.92)" font-size="14.04" font-family="Times New Roman,Bold" font-weight="bold"><tspan y="-585.94" x="157.58 164.64212 171.70424 175.0598 182.12192 185.63191 189.08574 196.89199 204.69823 211.7463 215.10187 222.0657 229.12783 233.80315 238.47847 245.4423 249.28926 253.2345 260.19834 264.14356 271.82344 278.78727 285.84938 289.7946 293.15016 297.09538 304.9016 309.45057 313.39579 318.80119 325.86329 333.66954 337.50245 344.56455 348.07456 352.60948 359.67158 365.793 372.8551 379.81895 386.88105 394.5609 398.40788 405.46998 411.70375 419.3836 423.32884 431.13508 438.19718 441.70719 453.1919 460.99815 467.2319 474.294 481.97389 489.5274 496.5895 504.39576 508.34098 512.2862 519.25009">12.1. Suv xo&#x2019;jaligidagi iqtisodiy jarayonlarning murakkabligi</tspan></text>
</g>
<clipPath id="cp37484">
<path transform="matrix(1,0,0,-1,0,841.92)" d="M .000008871 0 L 595.32 0 L 595.32 841.92 L .000008871 841.92 Z " fill-rule="evenodd"/>
</clipPath>
<g clip-path="url(#cp37484)">
<text xml:space="preserve" transform="matrix(1 0 -0 1 0 841.92)" font-size="14.04" font-family="Times New Roman,Bold" font-weight="bold"><tspan y="-585.94" x="523.54"> </tspan></text>
</g>
</g>
<g id="Layer-1" data-name="P">
<clipPath id="cp37485">
<path transform="matrix(1,0,0,-1,0,841.92)" d="M .000008871 0 L 595.32 0 L 595.32 841.92 L .000008871 841.92 Z " fill-rule="evenodd"/>
</clipPath>
<g clip-path="url(#cp37485)">
<text xml:space="preserve" transform="matrix(1 0 -0 1 0 841.92)" font-size="14.04" font-family="Times New Roman"><tspan y="-562.03" x="120.5">&#x041a;</tspan></text>
</g>
</g>
<g id="Layer-1" data-name="P">
<clipPath id="cp37486">
<path transform="matrix(1,0,0,-1,0,841.92)" d="M .000008871 0 L 595.32 0 L 595.32 841.92 L .000008871 841.92 Z " fill-rule="evenodd"/>
</clipPath>
<g clip-path="url(#cp37486)">
<text xml:space="preserve" transform="matrix(1 0 -0 1 0 841.92)" font-size="14.04" font-family="Times New Roman"><tspan y="-562.03" x="129.86 136.92212 143.15589 149.27733 153.22257 157.06952 161.01476 167.24852 174.10004 181.16216 185.00911 192.07123 198.19268 205.25479 211.72722 218.69106 225.75318 232.59066 238.82442 245.90059 249.74755 253.69278 259.92655 264.48954 271.55165 275.3986 281.87104 288.1048 295.06864 302.03248 309.09458 316.0584 320.73374 327.20619 334.17 340.40379 346.87623 353.84007 359.9615 364.6368 371.10926 374.9562 382.0183 392.70277 399.76487 406.82698 410.7722 417.00596 427.6904 433.92417 440.3966 447.4587 452.0217 456.69703 463.77317 470.00694 476.97077 480.81773 486.32139 493.38349 499.85594 510.54039 516.7741 523.8503 529.35397 535.4754 542.4393 546.3845 553.44668 559.5681">uzatilayotgan obyektlarni chuqur va har tomonlama o&#x2018;rganish maqsadida </tspan></text>
</g>
</g>
<g id="Layer-1" data-name="P">
<clipPath id="cp37487">
<path transform="matrix(1,0,0,-1,0,841.92)" d="M .000008871 0 L 595.32 0 L 595.32 841.92 L .000008871 841.92 Z " fill-rule="evenodd"/>
</clipPath>
<g clip-path="url(#cp37487)">
<text xml:space="preserve" transform="matrix(1 0 -0 1 0 841.92)" font-size="14.04" font-family="Times New Roman"><tspan y="-537.91" x="85.104 89.04924 95.283 102.24683 106.19208 112.313518 116.16048 123.222599 129.45636 134.60904 141.67116 147.90493 153.0576 156.90456 163.13832 173.82277 177.89438 184.73186 190.96562 194.91086 201.8747 208.10846 213.26114 217.93647 225.01264 229.57564 236.53948 241.69216 248.75428 255.59175 261.8255 266.50083 272.7346 279.81074 283.75596 290.81806 296.93949 304.0016 309.15428 313.00123 319.235 323.79798 330.03175 336.88325 343.94535 351.00746 354.95268 361.18644 365.74943 372.81153 376.65849 383.6223 390.68443 395.8371 406.52156 413.58366 420.64576 426.87953 430.82475 434.6717 440.90547 445.46846 449.41368 454.56636 461.4038 467.63758 472.3129 478.54667 482.50593 486.45115 490.2981 496.53187 503.4957 507.44093 510.95094 516.0615 521.5652 527.79898 532.36196 538.5957 545.44729 552.5094 559.47329">tabiatda va jamiyatda ro&#x2018;y byeradigan jarayonlarning modellari yaratiladi. Jarayon </tspan></text>
</g>
</g>
<g id="Layer-1" data-name="P">
<clipPath id="cp37488">
<path transform="matrix(1,0,0,-1,0,841.92)" d="M .000008871 0 L 595.32 0 L 595.32 841.92 L .000008871 841.92 Z " fill-rule="evenodd"/>
</clipPath>
<g clip-path="url(#cp37488)">
<text xml:space="preserve" transform="matrix(1 0 -0 1 0 841.92)" font-size="14.04" font-family="Times New Roman"><tspan y="-513.67" x="85.104 95.78844 102.850559 109.912677 116.14643 120.091678 124.03692 130.27068 134.83368 138.68064 145.74275 149.68799 153.39455 157.2415 164.30362 170.53739 174.38434 179.78974 186.85186">modellarini tuzish </tspan></text>
</g>
</g>
<g id="Layer-1" data-name="P">
<clipPath id="cp37489">
<path transform="matrix(1,0,0,-1,0,841.92)" d="M .000008871 0 L 595.32 0 L 595.32 841.92 L .000008871 841.92 Z " fill-rule="evenodd"/>
</clipPath>
<g clip-path="url(#cp37489)">
<text xml:space="preserve" transform="matrix(1 0 -0 1 0 841.92)" font-size="14.04" font-family="Times New Roman,Italic" font-style="italic"><tspan y="-513.67" x="190.85 200.93073 207.89456 214.95668 221.19045 225.0374 228.88436 235.94647 241.35187 248.3157 252.26094 256.1079 261.61158 265.45854 270.86393">modellashtirish</tspan></text>
</g>
</g>
<g id="Layer-1" data-name="P">
<clipPath id="cp37490">
<path transform="matrix(1,0,0,-1,0,841.92)" d="M .000008871 0 L 595.32 0 L 595.32 841.92 L .000008871 841.92 Z " fill-rule="evenodd"/>
</clipPath>
<g clip-path="url(#cp37490)">
<text xml:space="preserve" transform="matrix(1 0 -0 1 0 841.92)" font-size="14.04" font-family="Times New Roman"><tspan y="-513.67" x="277.97"> </tspan></text>
</g>
</g>
<g id="Layer-1" data-name="P">
<clipPath id="cp37491">
<path transform="matrix(1,0,0,-1,0,841.92)" d="M .000008871 0 L 595.32 0 L 595.32 841.92 L .000008871 841.92 Z " fill-rule="evenodd"/>
</clipPath>
<g clip-path="url(#cp37491)">
<text xml:space="preserve" transform="matrix(1 0 -0 1 0 841.92)" font-size="14.04" font-family="Times New Roman"><tspan y="-513.67" x="281.81 288.77384 295.0076 301.97145 305.80436 312.03813 318.88963 322.83485 326.78007 330.627 336.86079 343.93693 347.88215">deb aytiladi.</tspan></text>
</g>
</g>
<g id="Layer-1" data-name="P">
<clipPath id="cp37492">
<path transform="matrix(1,0,0,-1,0,841.92)" d="M .000008871 0 L 595.32 0 L 595.32 841.92 L .000008871 841.92 Z " fill-rule="evenodd"/>
</clipPath>
<g clip-path="url(#cp37492)">
<text xml:space="preserve" transform="matrix(1 0 -0 1 0 841.92)" font-size="14.04" font-family="Times New Roman"><tspan y="-513.67" x="351.31"> </tspan></text>
</g>
</g>
<g id="Layer-1" data-name="P">
<clipPath id="cp37493">
<path transform="matrix(1,0,0,-1,0,841.92)" d="M .000008871 0 L 595.32 0 L 595.32 841.92 L .000008871 841.92 Z " fill-rule="evenodd"/>
</clipPath>
<g clip-path="url(#cp37493)">
<text xml:space="preserve" transform="matrix(1 0 -0 1 0 841.92)" font-size="14.04" font-family="Times New Roman"><tspan y="-513.67" x="355.15 363.67228 369.90605 380.59049 387.6526 394.7147 400.94847 407.9123 411.8575 418.69499 422.5279 426.4731 433.53523 437.38218 441.3274 446.7328 453.7949 460.75874 464.70396 471.5414 475.37434 482.43644 488.6702 494.90397 501.13774 505.71479 509.66 516.4975 522.73129 526.6765 537.3609 541.30618 548.27 552.833 559.7969">Zamonaviy iqtisodiy nazariya mikro </tspan></text>
</g>
</g>
<g id="Layer-1" data-name="P">
<clipPath id="cp37494">
<path transform="matrix(1,0,0,-1,0,841.92)" d="M .000008871 0 L 595.32 0 L 595.32 841.92 L .000008871 841.92 Z " fill-rule="evenodd"/>
</clipPath>
<g clip-path="url(#cp37494)">
<text xml:space="preserve" transform="matrix(1 0 -0 1 0 841.92)" font-size="14.04" font-family="Times New Roman"><tspan y="-489.55" x="85.104 92.166118 98.39987 107.1468 117.83124 124.064998 131.14116 135.81649 142.89266 153.5771 157.52234 164.58446 171.42194 178.48406 183.98773 191.04985 197.28362 206.03054 214.77745">va makromiqyosda  z</tspan></text>
</g>
</g>
<g id="Layer-1" data-name="P">
<clipPath id="cp37495">
<path transform="matrix(1,0,0,-1,0,841.92)" d="M .000008871 0 L 595.32 0 L 595.32 841.92 L .000008871 841.92 Z " fill-rule="evenodd"/>
</clipPath>
<g clip-path="url(#cp37495)">
<text xml:space="preserve" transform="matrix(1 0 -0 1 0 841.92)" font-size="14.04" font-family="Times New Roman"><tspan y="-489.55" x="221.21 227.44377 232.1191 239.19527 243.87059 252.61751 258.73893 262.68415 268.9179 279.60237 285.83613 292.91227 296.85749 300.8027 307.03648 311.59947 318.66157 324.783 331.8451 340.592 347.55586 351.50108 356.1764 360.1216 368.7422 375.8043 382.8664 387.42939 391.27635 398.33845 404.45988 411.52198 420.2689 430.95335 437.1871 441.13233 447.3661 458.17689 464.41065 468.35588 472.3011 479.3632 488.1101 498.79457 505.85667 512.91879 519.1525 522.9995 526.94479 533.1785 537.8538 546.4884 553.4523 559.5737">arur elementlardan biri bo&#x2018;lgan matematik modellar va </tspan></text>
</g>
</g>
<g id="Layer-1" data-name="P">
<clipPath id="cp37496">
<path transform="matrix(1,0,0,-1,0,841.92)" d="M .000008871 0 L 595.32 0 L 595.32 841.92 L .000008871 841.92 Z " fill-rule="evenodd"/>
</clipPath>
<g clip-path="url(#cp37496)">
<text xml:space="preserve" transform="matrix(1 0 -0 1 0 841.92)" font-size="14.04" font-family="Times New Roman"><tspan y="-465.43" x="85.104 92.166118 97.57152 104.535358 108.4806 112.42584 118.6596 123.2226 130.18643 134.13167 137.64167 144.66167 149.25275 155.48651 158.9965 162.89963 169.04915 176.11127 179.95822 187.02034 193.2541 196.6237 203.68582 207.53278 213.76654 220.84272 224.78795">usullarni o&#x2018;z ichiga oladi.</tspan></text>
</g>
</g>
<g id="Layer-1" data-name="P">
<clipPath id="cp37497">
<path transform="matrix(1,0,0,-1,0,841.92)" d="M .000008871 0 L 595.32 0 L 595.32 841.92 L .000008871 841.92 Z " fill-rule="evenodd"/>
</clipPath>
<g clip-path="url(#cp37497)">
<text xml:space="preserve" transform="matrix(1 0 -0 1 0 841.92)" font-size="14.04" font-family="Times New Roman"><tspan y="-465.43" x="228.29"> </tspan></text>
</g>
</g>
<g id="Layer-1" data-name="P">
<clipPath id="cp37498">
<path transform="matrix(1,0,0,-1,0,841.92)" d="M .000008871 0 L 595.32 0 L 595.32 841.92 L .000008871 841.92 Z " fill-rule="evenodd"/>
</clipPath>
<g clip-path="url(#cp37498)">
<text xml:space="preserve" transform="matrix(1 0 -0 1 0 841.92)" font-size="14.04" font-family="Times New Roman"><tspan y="-441.31" x="120.5 132.98157 139.21533 143.16057 149.39434 160.07878 166.31255 170.25778 174.10474 181.16686 187.40062 194.36446 198.21141 205.27353 212.33565 227.55501 231.50025 238.46408 242.31104 246.25627 251.66167 258.62553 265.68763 269.63285 276.4703 283.5324 287.37937 294.44148 300.67524 316.02098 319.86793 325.27333 332.33543 336.28065 342.40208 346.24903 350.19425 354.0412 357.98643 363.3918 370.45393 374.39915 377.90916 393.10044 400.16255 404.10777 408.67076 412.5177 419.5798 425.81358 432.7774 436.62437 443.68647 449.8079 456.87 460.38 475.69767 479.54463 486.60673 490.45368 494.3989 499.8043 506.76814 513.83029 517.7755 524.61306 531.6752 535.52218 542.5843 548.70578 555.6696 559.5166">Matematikaning iqtisodiyotda ishlatilishi, birinchidan, iqtisodiyotdagi </tspan></text>
</g>
<clipPath id="cp37499">
<path transform="matrix(1,0,0,-1,0,841.92)" d="M .000008871 0 L 595.32 0 L 595.32 841.92 L .000008871 841.92 Z " fill-rule="evenodd"/>
</clipPath>
<g clip-path="url(#cp37499)">
<text xml:space="preserve" transform="matrix(1 0 -0 1 0 841.92)" font-size="14.04" font-family="Times New Roman"><tspan y="-417.19" x="85.104 92.166118 96.72912 102.962879 110.03903 116.27279 120.83579 127.89791 134.86174 141.0955 148.05934 152.00458 155.85153 162.0853 166.76062 176.36397 183.42609 189.65985 199.24916 206.213 213.27512 220.1126 226.34636 233.42253 237.36777 241.21472 247.44849 252.12381 261.72718 268.78929 273.4646 279.58604 285.0897 288.93666 295.99876 302.12019 309.18229 313.1275 322.71684 329.77894 336.74278 343.80488 348.36787 352.31309 358.4345 365.4966 369.34358 374.84724 381.81108 385.7563 391.99006 396.55305 403.51689 407.4621 417.16377 423.39753 427.24449 431.9198 438.04124 441.88819 445.8334 452.8955 462.48484 469.44868 473.3939 477.24085 482.7445 489.70835 499.41 506.37385 512.6076 522.3233 526.9986 533.96249 538.63778 549.32217 555.5559 559.50119">o&#x2018;zgaruvchilar va obyektlar orasidagi bog&#x2018;lanishlarni ajratib olish va formal </tspan></text>
</g>
<clipPath id="cp37500">
<path transform="matrix(1,0,0,-1,0,841.92)" d="M .000008871 0 L 595.32 0 L 595.32 841.92 L .000008871 841.92 Z " fill-rule="evenodd"/>
</clipPath>
<g clip-path="url(#cp37500)">
<text xml:space="preserve" transform="matrix(1 0 -0 1 0 841.92)" font-size="14.04" font-family="Times New Roman"><tspan y="-392.93" x="85.104 89.77932 96.01308 102.99095 106.936199 112.3416 119.305438 126.36755 132.60132 142.31699 146.26222 152.49599 157.90139 164.86522 168.81046 173.48578 177.33274 183.5665 188.9719 195.93573 202.89957 209.13333 218.96132 222.90656">ravishda tasvirlashga im</tspan></text>
</g>
<clipPath id="cp37501">
<path transform="matrix(1,0,0,-1,0,841.92)" d="M .000008871 0 L 595.32 0 L 595.32 841.92 L .000008871 841.92 Z " fill-rule="evenodd"/>
</clipPath>
<g clip-path="url(#cp37501)">
<text xml:space="preserve" transform="matrix(1 0 -0 1 0 841.92)" font-size="14.04" font-family="Times New Roman"><tspan y="-392.93" x="233.69 240.75212 247.81424 254.77808 264.60609 271.66819 278.50566 284.7394 289.41474 295.6485 302.62638 306.5716 310.41856 320.24656 324.0935 331.1556 338.11946 341.9664 349.0285 355.26228 362.2261 366.07307 373.13517 379.2566 386.3187 389.8287 399.62864 405.75007 412.81217 416.65913 423.72123 433.42289 437.3681 441.9311 448.9932 455.95704 462.1908 466.13603 472.25746 479.22129 486.2834 492.40483 499.46693 509.29493 516.2588 522.49258 527.89797 531.8432 535.6902 541.92398 548.8878 555.8517 559.69869">kon byeradi; ikkinchidan, aniq ifodalangan dastlabki </tspan></text>
</g>
<clipPath id="cp37502">
<path transform="matrix(1,0,0,-1,0,841.92)" d="M .000008871 0 L 595.32 0 L 595.32 841.92 L .000008871 841.92 Z " fill-rule="evenodd"/>
</clipPath>
<g clip-path="url(#cp37502)">
<text xml:space="preserve" transform="matrix(1 0 -0 1 0 841.92)" font-size="14.04" font-family="Times New Roman"><tspan y="-368.81" x="85.104 95.90076 102.134517 106.69752 110.64276 117.83124 128.51569 135.5778 139.52304 143.46828 149.70204 154.37737 161.93088 168.993 175.11444 182.78028 193.46472 200.52684 207.58896 214.65108 220.15476 226.2762 233.33832 239.45977 243.30672 247.25196 253.48572 258.16105 265.71458 272.77668 277.33967 284.40177 290.63554 294.48249 298.4277 305.9672 313.0293 317.5923 322.2676 329.23146 335.4652 342.54136 346.3883 350.33354 356.5673 363.4188 370.4809 374.32786 381.38996 387.51139 394.5735 402.11299 409.17509 416.23719 423.07466 429.3084 436.38456 440.2315 447.19535 453.4291 461.09498 468.76084 474.9946 481.8461 488.9082 495.14198 502.2181 509.7576 516.8197 521.3827 528.4448 533.8502 540.91238 547.0338 552.4392 559.4031">ma&#x2019;lumotlar va munosabatlar orqali o&#x2018;rganilayotgan obyektga  aynan o&#x2018;xshash </tspan></text>
</g>
<clipPath id="cp37503">
<path transform="matrix(1,0,0,-1,0,841.92)" d="M .000008871 0 L 595.32 0 L 595.32 841.92 L .000008871 841.92 Z " fill-rule="evenodd"/>
</clipPath>
<g clip-path="url(#cp37503)">
<text xml:space="preserve" transform="matrix(1 0 -0 1 0 841.92)" font-size="14.04" font-family="Times New Roman"><tspan y="-344.69" x="85.104 92.166118 99.12995 102.97691 110.03903 115.54272 121.664157 125.6094 131.84316 136.40616 143.37 147.31523 153.6613 160.62514 164.47209 168.41733 173.82273 180.88484 187.23091 197.91536 204.97748 215.66193 222.72405 226.66928 233.7314 237.2414 243.55939 253.6401 259.87388 266.95 270.79698 277.85908 283.9805 291.0426 294.88957 301.95167 308.0731 315.1352 321.35493 332.15168 338.38545 342.33067 348.56443 359.24888 365.48265 369.42787 373.37309 380.43519 386.66896 392.9027 399.9648 406.19859 412.43235 417.936 421.88124 428.00267 431.8496 435.79484 441.20024 445.14546 448.9924 456.0545 462.28828 468.52204 475.58415 480.98954 487.95338 491.8986 495.74555 501.9793 506.65464 510.6139 516.8336 523.7975 530.8596 535.4226 542.26016 548.4939 555.57009 559.41708">xulosalarni olish mumkin. Uchinchidan matematika va statistika usullari ob&#x2019;yekt </tspan></text>
</g>
<clipPath id="cp37504">
<path transform="matrix(1,0,0,-1,0,841.92)" d="M .000008871 0 L 595.32 0 L 595.32 841.92 L .000008871 841.92 Z " fill-rule="evenodd"/>
</clipPath>
<g clip-path="url(#cp37504)">
<text xml:space="preserve" transform="matrix(1 0 -0 1 0 841.92)" font-size="14.04" font-family="Times New Roman"><tspan y="-320.57" x="85.104 92.166118 98.28755 105.34967 109.19663 116.25875 122.49251 130.88843 137.7259 143.95967 151.03585 157.99968 161.94492 170.21448 177.2766 181.12355 185.06879 189.01403 199.69847 203.6437 209.87747 214.5528 222.94872 229.91255 233.85779 237.70475 243.11014 250.17226 257.23439 263.46815 266.97816 275.21965 282.18348 289.24559 296.08305 302.3168 309.39295 313.2399 320.302 324.14897 331.21107 338.27317 346.65507 357.3395 363.57328 370.6494 374.49638">haqida yangi bilimlar olishga, obyektning mavju</tspan></text>
</g>
<clipPath id="cp37505">
<path transform="matrix(1,0,0,-1,0,841.92)" d="M .000008871 0 L 595.32 0 L 595.32 841.92 L .000008871 841.92 Z " fill-rule="evenodd"/>
</clipPath>
<g clip-path="url(#cp37505)">
<text xml:space="preserve" transform="matrix(1 0 -0 1 0 841.92)" font-size="14.04" font-family="Times New Roman"><tspan y="-320.57" x="381.79 388.8521 397.234 404.19786 411.25996 417.4937 423.61515 427.4621 431.40733 436.8127 443.77656 447.72178 453.95555 458.51853 465.58064 471.8144 480.21034 490.89479 497.95689 503.46055 511.84245 518.8063 525.04006 528.887 535.94918 542.913 549.1468 555.99838 559.84536">d kuzatishlarga mos keluvchi </tspan></text>
</g>
<clipPath id="cp37506">
<path transform="matrix(1,0,0,-1,0,841.92)" d="M .000008871 0 L 595.32 0 L 595.32 841.92 L .000008871 841.92 Z " fill-rule="evenodd"/>
</clipPath>
<g clip-path="url(#cp37506)">
<text xml:space="preserve" transform="matrix(1 0 -0 1 0 841.92)" font-size="14.04" font-family="Times New Roman"><tspan y="-296.33" x="85.104 92.166118 96.72912 102.962879 110.03903 116.27279 120.83579 127.89791 134.86174 141.0955 148.05934 152.00458 155.85153 162.0853 166.76062 170.71991 180.89891 187.96103 192.63636 198.7578 204.1632 208.10843 215.17055 221.29199 228.25583 232.20107 242.50643 249.47026 256.4341 263.49623 268.0592 272.00444 278.2382 285.20204 289.14726 294.55265 301.61476 311.9201 318.88395 325.00538 329.6807 335.91447 346.5989 352.83268 356.7779 361.45323 365.39845 371.6322 376.30754 380.15449 387.21659 391.1618 401.34083 408.40293 414.52436 421.58647 428.5503 432.4955 438.61695 444.02235 451.08445 458.04829 464.28205 474.5874 478.53263 489.21708 496.27919 503.34129 510.40339 520.5824 527.64456 533.8783 538.5536 544.6891 551.7512 555.5982 559.4452">o&#x2018;zgaruvchilari orasidagi bog&#x2018;lanish parametrlarini baholashga imkon beradi; </tspan></text>
</g>
<clipPath id="cp37507">
<path transform="matrix(1,0,0,-1,0,841.92)" d="M .000008871 0 L 595.32 0 L 595.32 841.92 L .000008871 841.92 Z " fill-rule="evenodd"/>
</clipPath>
<g clip-path="url(#cp37507)">
<text xml:space="preserve" transform="matrix(1 0 -0 1 0 841.92)" font-size="14.04" font-family="Times New Roman"><tspan y="-272.21" x="85.104 89.04924 96.11136 100.67436 105.349689 109.19665 113.14189 120.10573 126.339488 133.30332 137.24855 144.21239 150.44615 157.52233 161.03232 165.18816 175.8726 182.10637 186.0516 192.39769 203.19446 209.42823 213.37346 217.22042 224.28253 230.5163 234.71425 238.5612 242.40816 246.3534 250.20035 257.26246 261.1094 268.07325 275.13536 279.31929 283.2645 288.6699 295.63374 299.57896 305.70039 309.6456 313.49256 317.43778 321.28474 326.7884 333.75224 337.69746 341.88139 345.72834 352.79045 356.6374 360.5826 365.988 372.95185 380.01396 383.95918 390.79664 394.98057 402.04267 408.27644 414.5102 420.74397 425.321 429.26625 436.1037 442.4498 446.63374 453.69584 460.75794 464.6049 471.667 477.90077 481.41078 485.56663 489.41358 496.3774 501.88108 508.8449 515.8088 522.8709 529.1047 536.06857 542.3023 546.3739 553.33779 559.4592">to&#x2018;rtinchidan, matematika tilining ishlatilishi iqtisodiy nazariya qoida, tushuncha va </tspan></text>
</g>
<clipPath id="cp37508">
<path transform="matrix(1,0,0,-1,0,841.92)" d="M .000008871 0 L 595.32 0 L 595.32 841.92 L .000008871 841.92 Z " fill-rule="evenodd"/>
</clipPath>
<g clip-path="url(#cp37508)">
<text xml:space="preserve" transform="matrix(1 0 -0 1 0 841.92)" font-size="14.04" font-family="Times New Roman"><tspan y="-248.09" x="85.104 92.166118 99.12995 102.97691 110.03903 115.54272 121.664157 125.6094 131.84316 136.40616 140.25312 147.31523 151.26047 154.77046 160.86383 167.92595 171.7729 178.83502 182.19058 189.2527 195.48647 198.99646 202.81534 209.87746 215.9989 223.06102 229.29479 239.97924 243.48923 250.50923 256.8834 263.72087 270.78297 277.84507 281.35508 288.29084 292.23606 296.083 299.92997 305.43363 312.39747 319.3613 325.59507 329.10508 333.00819 343.7207 350.7828 357.8449 364.907 368.41703 375.35279 381.58656 386.26188 392.39738 399.45948 403.4047">xulosalarini aniq va ixcham bayon qilishga imkon beradi.</tspan></text>
</g>
<clipPath id="cp37509">
<path transform="matrix(1,0,0,-1,0,841.92)" d="M .000008871 0 L 595.32 0 L 595.32 841.92 L .000008871 841.92 Z " fill-rule="evenodd"/>
</clipPath>
<g clip-path="url(#cp37509)">
<text xml:space="preserve" transform="matrix(1 0 -0 1 0 841.92)" font-size="14.04" font-family="Times New Roman"><tspan y="-248.09" x="407.11"> </tspan></text>
</g>
</g>
<g id="Layer-1" data-name="P">
<clipPath id="cp37510">
<path transform="matrix(1,0,0,-1,0,841.92)" d="M .000008871 0 L 595.32 0 L 595.32 841.92 L .000008871 841.92 Z " fill-rule="evenodd"/>
</clipPath>
<g clip-path="url(#cp37510)">
<text xml:space="preserve" transform="matrix(1 0 -0 1 0 841.92)" font-size="14.04" font-family="Times New Roman"><tspan y="-223.97" x="120.5 125.17532 132.2515 136.09845 139.9454">Iqtis</tspan></text>
</g>
<clipPath id="cp37511">
<path transform="matrix(1,0,0,-1,0,841.92)" d="M .000008871 0 L 595.32 0 L 595.32 841.92 L .000008871 841.92 Z " fill-rule="evenodd"/>
</clipPath>
<g clip-path="url(#cp37511)">
<text xml:space="preserve" transform="matrix(1 0 -0 1 0 841.92)" font-size="14.04" font-family="Times New Roman"><tspan y="-223.97" x="145.46">o</tspan></text>
</g>
<clipPath id="cp37512">
<path transform="matrix(1,0,0,-1,0,841.92)" d="M .000008871 0 L 595.32 0 L 595.32 841.92 L .000008871 841.92 Z " fill-rule="evenodd"/>
</clipPath>
<g clip-path="url(#cp37512)">
<text xml:space="preserve" transform="matrix(1 0 -0 1 0 841.92)" font-size="14.04" font-family="Times New Roman"><tspan y="-223.97" x="152.42 159.48212 163.42736 170.26483 177.32695 181.1739 188.23603 194.35747 201.89694 212.58139 218.81516">diyotda mat</tspan></text>
</g>
<clipPath id="cp37513">
<path transform="matrix(1,0,0,-1,0,841.92)" d="M .000008871 0 L 595.32 0 L 595.32 841.92 L .000008871 841.92 Z " fill-rule="evenodd"/>
</clipPath>
<g clip-path="url(#cp37513)">
<text xml:space="preserve" transform="matrix(1 0 -0 1 0 841.92)" font-size="14.04" font-family="Times New Roman"><tspan y="-223.97" x="222.89">e</tspan></text>
</g>
<clipPath id="cp37514">
<path transform="matrix(1,0,0,-1,0,841.92)" d="M .000008871 0 L 595.32 0 L 595.32 841.92 L .000008871 841.92 Z " fill-rule="evenodd"/>
</clipPath>
<g clip-path="url(#cp37514)">
<text xml:space="preserve" transform="matrix(1 0 -0 1 0 841.92)" font-size="14.04" font-family="Times New Roman"><tspan y="-223.97" x="229.25 240.04677 246.28054 250.22577 254.07273 261.13484 267.25627 274.2201 278.1653 285.12916 292.19126 299.6184 306.6805 313.7426 318.3056 322.15257 326.09779 332.2192 339.2813 343.12828 347.0735 350.92045 356.32585 363.38795 367.33317 374.7603">matikaning qo&#x2018;llanilishi d</tspan></text>
</g>
<clipPath id="cp37515">
<path transform="matrix(1,0,0,-1,0,841.92)" d="M .000008871 0 L 595.32 0 L 595.32 841.92 L .000008871 841.92 Z " fill-rule="evenodd"/>
</clipPath>
<g clip-path="url(#cp37515)">
<text xml:space="preserve" transform="matrix(1 0 -0 1 0 841.92)" font-size="14.04" font-family="Times New Roman"><tspan y="-223.97" x="382.03">e</tspan></text>
</g>
<clipPath id="cp37516">
<path transform="matrix(1,0,0,-1,0,841.92)" d="M .000008871 0 L 595.32 0 L 595.32 841.92 L .000008871 841.92 Z " fill-rule="evenodd"/>
</clipPath>
<g clip-path="url(#cp37516)">
<text xml:space="preserve" transform="matrix(1 0 -0 1 0 841.92)" font-size="14.04" font-family="Times New Roman"><tspan y="-223.97" x="388.15 395.2121 401.33354 408.29737 415.35948 421.59324">ganda </tspan></text>
</g>
<clipPath id="cp37517">
<path transform="matrix(1,0,0,-1,0,841.92)" d="M .000008871 0 L 595.32 0 L 595.32 841.92 L .000008871 841.92 Z " fill-rule="evenodd"/>
</clipPath>
<g clip-path="url(#cp37517)">
<text xml:space="preserve" transform="matrix(1 0 -0 1 0 841.92)" font-size="14.04" font-family="Times New Roman"><tspan y="-223.97" x="429.07">o</tspan></text>
</g>
<clipPath id="cp37518">
<path transform="matrix(1,0,0,-1,0,841.92)" d="M .000008871 0 L 595.32 0 L 595.32 841.92 L .000008871 841.92 Z " fill-rule="evenodd"/>
</clipPath>
<g clip-path="url(#cp37518)">
<text xml:space="preserve" transform="matrix(1 0 -0 1 0 841.92)" font-size="14.04" font-family="Times New Roman"><tspan y="-223.97" x="436.15 443.11384 450.07768 454.0229 460.86036 468.39985 472.34507 479.40718 483.25413 487.19935">ddiy iqtis</tspan></text>
</g>
<clipPath id="cp37519">
<path transform="matrix(1,0,0,-1,0,841.92)" d="M .000008871 0 L 595.32 0 L 595.32 841.92 L .000008871 841.92 Z " fill-rule="evenodd"/>
</clipPath>
<g clip-path="url(#cp37519)">
<text xml:space="preserve" transform="matrix(1 0 -0 1 0 841.92)" font-size="14.04" font-family="Times New Roman"><tspan y="-223.97" x="492.7">o</tspan></text>
</g>
<clipPath id="cp37520">
<path transform="matrix(1,0,0,-1,0,841.92)" d="M .000008871 0 L 595.32 0 L 595.32 841.92 L .000008871 841.92 Z " fill-rule="evenodd"/>
</clipPath>
<g clip-path="url(#cp37520)">
<text xml:space="preserve" transform="matrix(1 0 -0 1 0 841.92)" font-size="14.04" font-family="Times New Roman"><tspan y="-223.97" x="499.66 506.7221 510.66734 517.5048 525.0443 532.10647 535.9534">diy his</tspan></text>
</g>
<clipPath id="cp37521">
<path transform="matrix(1,0,0,-1,0,841.92)" d="M .000008871 0 L 595.32 0 L 595.32 841.92 L .000008871 841.92 Z " fill-rule="evenodd"/>
</clipPath>
<g clip-path="url(#cp37521)">
<text xml:space="preserve" transform="matrix(1 0 -0 1 0 841.92)" font-size="14.04" font-family="Times New Roman"><tspan y="-223.97" x="541.42">o</tspan></text>
</g>
<clipPath id="cp37522">
<path transform="matrix(1,0,0,-1,0,841.92)" d="M .000008871 0 L 595.32 0 L 595.32 841.92 L .000008871 841.92 Z " fill-rule="evenodd"/>
</clipPath>
<g clip-path="url(#cp37522)">
<text xml:space="preserve" transform="matrix(1 0 -0 1 0 841.92)" font-size="14.04" font-family="Times New Roman"><tspan y="-223.97" x="548.5">b</tspan></text>
</g>
<clipPath id="cp37523">
<path transform="matrix(1,0,0,-1,0,841.92)" d="M .000008871 0 L 595.32 0 L 595.32 841.92 L .000008871 841.92 Z " fill-rule="evenodd"/>
</clipPath>
<g clip-path="url(#cp37523)">
<text xml:space="preserve" transform="matrix(1 0 -0 1 0 841.92)" font-size="14.04" font-family="Times New Roman"><tspan y="-223.97" x="555.46">-</tspan></text>
</g>
<clipPath id="cp37524">
<path transform="matrix(1,0,0,-1,0,841.92)" d="M .000008871 0 L 595.32 0 L 595.32 841.92 L .000008871 841.92 Z " fill-rule="evenodd"/>
</clipPath>
<g clip-path="url(#cp37524)">
<text xml:space="preserve" transform="matrix(1 0 -0 1 0 841.92)" font-size="14.04" font-family="Times New Roman"><tspan y="-199.7" x="85.104 92.166118 96.01308">kit</tspan></text>
</g>
<clipPath id="cp37525">
<path transform="matrix(1,0,0,-1,0,841.92)" d="M .000008871 0 L 595.32 0 L 595.32 841.92 L .000008871 841.92 Z " fill-rule="evenodd"/>
</clipPath>
<g clip-path="url(#cp37525)">
<text xml:space="preserve" transform="matrix(1 0 -0 1 0 841.92)" font-size="14.04" font-family="Times New Roman"><tspan y="-199.7" x="99.984">o</tspan></text>
</g>
<clipPath id="cp37526">
<path transform="matrix(1,0,0,-1,0,841.92)" d="M .000008871 0 L 595.32 0 L 595.32 841.92 L .000008871 841.92 Z " fill-rule="evenodd"/>
</clipPath>
<g clip-path="url(#cp37526)">
<text xml:space="preserve" transform="matrix(1 0 -0 1 0 841.92)" font-size="14.04" font-family="Times New Roman"><tspan y="-199.7" x="106.94 113.90384 117.84908 124.08284 128.75817 134.64092 140.87468 151.55913 157.7929 163.31063 166.82062 172.66126 179.72338 185.95714 189.8041 196.86621 200.81145 206.5538 210.49904 217.46288 221.40811 225.25507">blar emas, balki iqtis</tspan></text>
</g>
<clipPath id="cp37527">
<path transform="matrix(1,0,0,-1,0,841.92)" d="M .000008871 0 L 595.32 0 L 595.32 841.92 L .000008871 841.92 Z " fill-rule="evenodd"/>
</clipPath>
<g clip-path="url(#cp37527)">
<text xml:space="preserve" transform="matrix(1 0 -0 1 0 841.92)" font-size="14.04" font-family="Times New Roman"><tspan y="-199.7" x="230.81">o</tspan></text>
</g>
<clipPath id="cp37528">
<path transform="matrix(1,0,0,-1,0,841.92)" d="M .000008871 0 L 595.32 0 L 595.32 841.92 L .000008871 841.92 Z " fill-rule="evenodd"/>
</clipPath>
<g clip-path="url(#cp37528)">
<text xml:space="preserve" transform="matrix(1 0 -0 1 0 841.92)" font-size="14.04" font-family="Times New Roman"><tspan y="-199.7" x="237.89 244.85384 248.79907 255.63655 261.50529">diy q</tspan></text>
</g>
<clipPath id="cp37529">
<path transform="matrix(1,0,0,-1,0,841.92)" d="M .000008871 0 L 595.32 0 L 595.32 841.92 L .000008871 841.92 Z " fill-rule="evenodd"/>
</clipPath>
<g clip-path="url(#cp37529)">
<text xml:space="preserve" transform="matrix(1 0 -0 1 0 841.92)" font-size="14.04" font-family="Times New Roman"><tspan y="-199.7" x="268.61">o</tspan></text>
</g>
<clipPath id="cp37530">
<path transform="matrix(1,0,0,-1,0,841.92)" d="M .000008871 0 L 595.32 0 L 595.32 841.92 L .000008871 841.92 Z " fill-rule="evenodd"/>
</clipPath>
<g clip-path="url(#cp37530)">
<text xml:space="preserve" transform="matrix(1 0 -0 1 0 841.92)" font-size="14.04" font-family="Times New Roman"><tspan y="-199.7" x="275.69 282.65385 289.61769 296.67979 300.625 307.46247 313.69624 317.64146 321.4884 327.60984 332.28517 339.3613 343.30653 349.0489 356.111 360.67399 365.3493 372.42546 378.54689 385.60899 389.45594 394.86134 401.92344 408.98554 415.2193 418.7293 424.56996 431.4074 437.64118 444.605 451.6671 455.61235 461.3547 468.4168 474.65058 480.88435 487.1181 491.69517 495.64039 502.47785">nuniyatlarni o&#x2018;rganishda, yangi nazariy </tspan></text>
</g>
<clipPath id="cp37531">
<path transform="matrix(1,0,0,-1,0,841.92)" d="M .000008871 0 L 595.32 0 L 595.32 841.92 L .000008871 841.92 Z " fill-rule="evenodd"/>
</clipPath>
<g clip-path="url(#cp37531)">
<text xml:space="preserve" transform="matrix(1 0 -0 1 0 841.92)" font-size="14.04" font-family="Times New Roman"><tspan y="-199.7" x="508.66">x</tspan></text>
</g>
<clipPath id="cp37532">
<path transform="matrix(1,0,0,-1,0,841.92)" d="M .000008871 0 L 595.32 0 L 595.32 841.92 L .000008871 841.92 Z " fill-rule="evenodd"/>
</clipPath>
<g clip-path="url(#cp37532)">
<text xml:space="preserve" transform="matrix(1 0 -0 1 0 841.92)" font-size="14.04" font-family="Times New Roman"><tspan y="-199.7" x="515.74 522.82">ul</tspan></text>
</g>
<clipPath id="cp37533">
<path transform="matrix(1,0,0,-1,0,841.92)" d="M .000008871 0 L 595.32 0 L 595.32 841.92 L .000008871 841.92 Z " fill-rule="evenodd"/>
</clipPath>
<g clip-path="url(#cp37533)">
<text xml:space="preserve" transform="matrix(1 0 -0 1 0 841.92)" font-size="14.04" font-family="Times New Roman"><tspan y="-199.7" x="526.66">o</tspan></text>
</g>
<clipPath id="cp37534">
<path transform="matrix(1,0,0,-1,0,841.92)" d="M .000008871 0 L 595.32 0 L 595.32 841.92 L .000008871 841.92 Z " fill-rule="evenodd"/>
</clipPath>
<g clip-path="url(#cp37534)">
<text xml:space="preserve" transform="matrix(1 0 -0 1 0 841.92)" font-size="14.04" font-family="Times New Roman"><tspan y="-199.7" x="533.62 539.12368 545.3574 549.2044 555.4382 560.00119">salar </tspan></text>
</g>
<clipPath id="cp37535">
<path transform="matrix(1,0,0,-1,0,841.92)" d="M .000008871 0 L 595.32 0 L 595.32 841.92 L .000008871 841.92 Z " fill-rule="evenodd"/>
</clipPath>
<g clip-path="url(#cp37535)">
<text xml:space="preserve" transform="matrix(1 0 -0 1 0 841.92)" font-size="14.04" font-family="Times New Roman"><tspan y="-175.58" x="85.104 91.33775 98.41391 102.26087 109.32299 115.55675 120.11975 123.96671 129.47039 136.43422 143.49634 149.7301 153.2401 165.0758 171.19725 178.25937 185.32149 197.18529 204.02277">chiqarishda, eng ya</tspan></text>
</g>
<clipPath id="cp37536">
<path transform="matrix(1,0,0,-1,0,841.92)" d="M .000008871 0 L 595.32 0 L 595.32 841.92 L .000008871 841.92 Z " fill-rule="evenodd"/>
</clipPath>
<g clip-path="url(#cp37536)">
<text xml:space="preserve" transform="matrix(1 0 -0 1 0 841.92)" font-size="14.04" font-family="Times New Roman"><tspan y="-175.58" x="210.41">x</tspan></text>
</g>
<clipPath id="cp37537">
<path transform="matrix(1,0,0,-1,0,841.92)" d="M .000008871 0 L 595.32 0 L 595.32 841.92 L .000008871 841.92 Z " fill-rule="evenodd"/>
</clipPath>
<g clip-path="url(#cp37537)">
<text xml:space="preserve" transform="matrix(1 0 -0 1 0 841.92)" font-size="14.04" font-family="Times New Roman"><tspan y="-175.58" x="217.49 222.8954 229.85924 233.80448 245.66828 249.51523 256.57734 260.4243 264.3695">shi iqtis</tspan></text>
</g>
<clipPath id="cp37538">
<path transform="matrix(1,0,0,-1,0,841.92)" d="M .000008871 0 L 595.32 0 L 595.32 841.92 L .000008871 841.92 Z " fill-rule="evenodd"/>
</clipPath>
<g clip-path="url(#cp37538)">
<text xml:space="preserve" transform="matrix(1 0 -0 1 0 841.92)" font-size="14.04" font-family="Times New Roman"><tspan y="-175.58" x="269.81">o</tspan></text>
</g>
<clipPath id="cp37539">
<path transform="matrix(1,0,0,-1,0,841.92)" d="M .000008871 0 L 595.32 0 L 595.32 841.92 L .000008871 841.92 Z " fill-rule="evenodd"/>
</clipPath>
<g clip-path="url(#cp37539)">
<text xml:space="preserve" transform="matrix(1 0 -0 1 0 841.92)" font-size="14.04" font-family="Times New Roman"><tspan y="-175.58" x="276.77 283.8321 287.7773 294.61479 306.60496">diy y</tspan></text>
</g>
<clipPath id="cp37540">
<path transform="matrix(1,0,0,-1,0,841.92)" d="M .000008871 0 L 595.32 0 L 595.32 841.92 L .000008871 841.92 Z " fill-rule="evenodd"/>
</clipPath>
<g clip-path="url(#cp37540)">
<text xml:space="preserve" transform="matrix(1 0 -0 1 0 841.92)" font-size="14.04" font-family="Times New Roman"><tspan y="-175.58" x="313.49">e</tspan></text>
</g>
<clipPath id="cp37541">
<path transform="matrix(1,0,0,-1,0,841.92)" d="M .000008871 0 L 595.32 0 L 595.32 841.92 L .000008871 841.92 Z " fill-rule="evenodd"/>
</clipPath>
<g clip-path="url(#cp37541)">
<text xml:space="preserve" transform="matrix(1 0 -0 1 0 841.92)" font-size="14.04" font-family="Times New Roman"><tspan y="-175.58" x="319.75 325.98377 333.0599 337.00514 347.68959 351.6348 357.86857 362.54389 374.42173">chimlar h</tspan></text>
</g>
<clipPath id="cp37542">
<path transform="matrix(1,0,0,-1,0,841.92)" d="M .000008871 0 L 595.32 0 L 595.32 841.92 L .000008871 841.92 Z " fill-rule="evenodd"/>
</clipPath>
<g clip-path="url(#cp37542)">
<text xml:space="preserve" transform="matrix(1 0 -0 1 0 841.92)" font-size="14.04" font-family="Times New Roman"><tspan y="-175.58" x="381.43">o</tspan></text>
</g>
<clipPath id="cp37543">
<path transform="matrix(1,0,0,-1,0,841.92)" d="M .000008871 0 L 595.32 0 L 595.32 841.92 L .000008871 841.92 Z " fill-rule="evenodd"/>
</clipPath>
<g clip-path="url(#cp37543)">
<text xml:space="preserve" transform="matrix(1 0 -0 1 0 841.92)" font-size="14.04" font-family="Times New Roman"><tspan y="-175.58" x="388.51 393.9154 397.86064 401.80586 413.55735 420.61946 424.4664 428.41163 432.25859 437.66398 444.6278 451.6899 457.92369 469.8015 480.48597 486.71974">sil qilishda mat</tspan></text>
</g>
<clipPath id="cp37544">
<path transform="matrix(1,0,0,-1,0,841.92)" d="M .000008871 0 L 595.32 0 L 595.32 841.92 L .000008871 841.92 Z " fill-rule="evenodd"/>
</clipPath>
<g clip-path="url(#cp37544)">
<text xml:space="preserve" transform="matrix(1 0 -0 1 0 841.92)" font-size="14.04" font-family="Times New Roman"><tspan y="-175.58" x="490.78">e</tspan></text>
</g>
<clipPath id="cp37545">
<path transform="matrix(1,0,0,-1,0,841.92)" d="M .000008871 0 L 595.32 0 L 595.32 841.92 L .000008871 841.92 Z " fill-rule="evenodd"/>
</clipPath>
<g clip-path="url(#cp37545)">
<text xml:space="preserve" transform="matrix(1 0 -0 1 0 841.92)" font-size="14.04" font-family="Times New Roman"><tspan y="-175.58" x="497.14 507.82447 514.0582 518.0035 521.9487 529.01089 535.1323 542.0962 546.04147 553.0053 559.9692">matikaning </tspan></text>
</g>
<clipPath id="cp37546">
<path transform="matrix(1,0,0,-1,0,841.92)" d="M .000008871 0 L 595.32 0 L 595.32 841.92 L .000008871 841.92 Z " fill-rule="evenodd"/>
</clipPath>
<g clip-path="url(#cp37546)">
<text xml:space="preserve" transform="matrix(1 0 -0 1 0 841.92)" font-size="14.04" font-family="Times New Roman"><tspan y="-151.46" x="85.104 92.166118 99.22823 103.79124 107.6382 111.58344 117.70488 124.767 128.61396 132.55919 136.40615 141.81154 148.87366 152.8189 161.20078 165.04773 172.10985 177.51525 184.47908 191.5412 198.50504 202.35199 206.19895 212.43271 219.50888 223.45412 226.96411 235.3179 247.79947 253.92092">qo&#x2018;llanilishi tushuniladi. Mat</tspan></text>
</g>
<clipPath id="cp37547">
<path transform="matrix(1,0,0,-1,0,841.92)" d="M .000008871 0 L 595.32 0 L 595.32 841.92 L .000008871 841.92 Z " fill-rule="evenodd"/>
</clipPath>
<g clip-path="url(#cp37547)">
<text xml:space="preserve" transform="matrix(1 0 -0 1 0 841.92)" font-size="14.04" font-family="Times New Roman"><tspan y="-151.46" x="258.05">e</tspan></text>
</g>
<clipPath id="cp37548">
<path transform="matrix(1,0,0,-1,0,841.92)" d="M .000008871 0 L 595.32 0 L 595.32 841.92 L .000008871 841.92 Z " fill-rule="evenodd"/>
</clipPath>
<g clip-path="url(#cp37548)">
<text xml:space="preserve" transform="matrix(1 0 -0 1 0 841.92)" font-size="14.04" font-family="Times New Roman"><tspan y="-151.46" x="264.29 274.97447 281.20823 285.15345 289.09867 296.0625 302.29627 309.2601 313.20533 320.16917 327.133 335.5149 339.4601 343.40534 354.08979 358.16139 364.99885 373.38075 380.44285 384.38807 388.33329 392.18025 397.6839 404.746 413.1279">matikaning ilmiy bilish v</tspan></text>
</g>
<clipPath id="cp37549">
<path transform="matrix(1,0,0,-1,0,841.92)" d="M .000008871 0 L 595.32 0 L 595.32 841.92 L .000008871 841.92 Z " fill-rule="evenodd"/>
</clipPath>
<g clip-path="url(#cp37549)">
<text xml:space="preserve" transform="matrix(1 0 -0 1 0 841.92)" font-size="14.04" font-family="Times New Roman"><tspan y="-151.46" x="420.31">o</tspan></text>
</g>
<clipPath id="cp37550">
<path transform="matrix(1,0,0,-1,0,841.92)" d="M .000008871 0 L 595.32 0 L 595.32 841.92 L .000008871 841.92 Z " fill-rule="evenodd"/>
</clipPath>
<g clip-path="url(#cp37550)">
<text xml:space="preserve" transform="matrix(1 0 -0 1 0 841.92)" font-size="14.04" font-family="Times New Roman"><tspan y="-151.46" x="427.27 432.77366 436.6206 440.56584 446.68727 452.19093 456.13615 464.51805 469.92344 473.86866 478.54399 484.6654 488.61064 492.45759 499.51969 505.6411 512.605 516.55026 524.9321 531.1659">sitasi sifatidagi as</tspan></text>
</g>
<clipPath id="cp37551">
<path transform="matrix(1,0,0,-1,0,841.92)" d="M .000008871 0 L 595.32 0 L 595.32 841.92 L .000008871 841.92 Z " fill-rule="evenodd"/>
</clipPath>
<g clip-path="url(#cp37551)">
<text xml:space="preserve" transform="matrix(1 0 -0 1 0 841.92)" font-size="14.04" font-family="Times New Roman"><tspan y="-151.46" x="536.86">o</tspan></text>
</g>
<clipPath id="cp37552">
<path transform="matrix(1,0,0,-1,0,841.92)" d="M .000008871 0 L 595.32 0 L 595.32 841.92 L .000008871 841.92 Z " fill-rule="evenodd"/>
</clipPath>
<g clip-path="url(#cp37552)">
<text xml:space="preserve" transform="matrix(1 0 -0 1 0 841.92)" font-size="14.04" font-family="Times New Roman"><tspan y="-151.46" x="543.82 549.2254 553.17068 560.0082">siy </tspan></text>
</g>
<clipPath id="cp37553">
<path transform="matrix(1,0,0,-1,0,841.92)" d="M .000008871 0 L 595.32 0 L 595.32 841.92 L .000008871 841.92 Z " fill-rule="evenodd"/>
</clipPath>
<g clip-path="url(#cp37553)">
<text xml:space="preserve" transform="matrix(1 0 -0 1 0 841.92)" font-size="14.04" font-family="Times New Roman"><tspan y="-127.34" x="85.104 91.33775 96.01308 102.24683 108.48059 112.38371 116.18855 120.1338 127.09763 131.04286 138.34366 149.0281 155.26187 159.2071 166.26923 176.95368 184.38083 195.1776 201.41136 206.08669">afzalligi malum ma&#x2019;n</tspan></text>
</g>
<clipPath id="cp37554">
<path transform="matrix(1,0,0,-1,0,841.92)" d="M .000008871 0 L 595.32 0 L 595.32 841.92 L .000008871 841.92 Z " fill-rule="evenodd"/>
</clipPath>
<g clip-path="url(#cp37554)">
<text xml:space="preserve" transform="matrix(1 0 -0 1 0 841.92)" font-size="14.04" font-family="Times New Roman"><tspan y="-127.34" x="213.29">o</tspan></text>
</g>
<clipPath id="cp37555">
<path transform="matrix(1,0,0,-1,0,841.92)" d="M .000008871 0 L 595.32 0 L 595.32 841.92 L .000008871 841.92 Z " fill-rule="evenodd"/>
</clipPath>
<g clip-path="url(#cp37555)">
<text xml:space="preserve" transform="matrix(1 0 -0 1 0 841.92)" font-size="14.04" font-family="Times New Roman"><tspan y="-127.34" x="220.25 227.31212 233.54589 240.73436 244.6796 250.80104 254.74628 260.8677 267.9298 271.77677 275.722 281.95576 288.80726 295.86936 299.7163 306.7784 313.01219 319.976">da izlanilayotgan </tspan></text>
</g>
<clipPath id="cp37556">
<path transform="matrix(1,0,0,-1,0,841.92)" d="M .000008871 0 L 595.32 0 L 595.32 841.92 L .000008871 841.92 Z " fill-rule="evenodd"/>
</clipPath>
<g clip-path="url(#cp37556)">
<text xml:space="preserve" transform="matrix(1 0 -0 1 0 841.92)" font-size="14.04" font-family="Times New Roman"><tspan y="-127.34" x="327.31">o</tspan></text>
</g>
<clipPath id="cp37557">
<path transform="matrix(1,0,0,-1,0,841.92)" d="M .000008871 0 L 595.32 0 L 595.32 841.92 L .000008871 841.92 Z " fill-rule="evenodd"/>
</clipPath>
<g clip-path="url(#cp37557)">
<text xml:space="preserve" transform="matrix(1 0 -0 1 0 841.92)" font-size="14.04" font-family="Times New Roman"><tspan y="-127.34" x="334.39 341.47">by</tspan></text>
</g>
<clipPath id="cp37558">
<path transform="matrix(1,0,0,-1,0,841.92)" d="M .000008871 0 L 595.32 0 L 595.32 841.92 L .000008871 841.92 Z " fill-rule="evenodd"/>
</clipPath>
<g clip-path="url(#cp37558)">
<text xml:space="preserve" transform="matrix(1 0 -0 1 0 841.92)" font-size="14.04" font-family="Times New Roman"><tspan y="-127.34" x="348.31">e</tspan></text>
</g>
<clipPath id="cp37559">
<path transform="matrix(1,0,0,-1,0,841.92)" d="M .000008871 0 L 595.32 0 L 595.32 841.92 L .000008871 841.92 Z " fill-rule="evenodd"/>
</clipPath>
<g clip-path="url(#cp37559)">
<text xml:space="preserve" transform="matrix(1 0 -0 1 0 841.92)" font-size="14.04" font-family="Times New Roman"><tspan y="-127.34" x="354.55 361.6121 365.45906 372.42289 376.3681 383.33195 390.39405 397.58253 404.64463 409.2076 413.88294 420.95909 424.80604 431.76988 435.7151 443.0159">ktning o&#x2018;rnini b</tspan></text>
</g>
<clipPath id="cp37560">
<path transform="matrix(1,0,0,-1,0,841.92)" d="M .000008871 0 L 595.32 0 L 595.32 841.92 L .000008871 841.92 Z " fill-rule="evenodd"/>
</clipPath>
<g clip-path="url(#cp37560)">
<text xml:space="preserve" transform="matrix(1 0 -0 1 0 841.92)" font-size="14.04" font-family="Times New Roman"><tspan y="-127.34" x="450.1">o</tspan></text>
</g>
<clipPath id="cp37561">
<path transform="matrix(1,0,0,-1,0,841.92)" d="M .000008871 0 L 595.32 0 L 595.32 841.92 L .000008871 841.92 Z " fill-rule="evenodd"/>
</clipPath>
<g clip-path="url(#cp37561)">
<text xml:space="preserve" transform="matrix(1 0 -0 1 0 841.92)" font-size="14.04" font-family="Times New Roman"><tspan y="-127.34" x="457.18 462.5854 469.54924 476.61134 482.8451 489.80894 493.75416 501.05497 511.7394 517.97317">suvchi mat</tspan></text>
</g>
<clipPath id="cp37562">
<path transform="matrix(1,0,0,-1,0,841.92)" d="M .000008871 0 L 595.32 0 L 595.32 841.92 L .000008871 841.92 Z " fill-rule="evenodd"/>
</clipPath>
<g clip-path="url(#cp37562)">
<text xml:space="preserve" transform="matrix(1 0 -0 1 0 841.92)" font-size="14.04" font-family="Times New Roman"><tspan y="-127.34" x="521.98">e</tspan></text>
</g>
<clipPath id="cp37563">
<path transform="matrix(1,0,0,-1,0,841.92)" d="M .000008871 0 L 595.32 0 L 595.32 841.92 L .000008871 841.92 Z " fill-rule="evenodd"/>
</clipPath>
<g clip-path="url(#cp37563)">
<text xml:space="preserve" transform="matrix(1 0 -0 1 0 841.92)" font-size="14.04" font-family="Times New Roman"><tspan y="-127.34" x="528.22 538.90438 545.1381 549.0834 553.0286 559.9925">matik </tspan></text>
</g>
<clipPath id="cp37564">
<path transform="matrix(1,0,0,-1,0,841.92)" d="M .000008871 0 L 595.32 0 L 595.32 841.92 L .000008871 841.92 Z " fill-rule="evenodd"/>
</clipPath>
<g clip-path="url(#cp37564)">
<text xml:space="preserve" transform="matrix(1 0 -0 1 0 841.92)" font-size="14.04" font-family="Times New Roman"><tspan y="-103.1" x="85.104">m</tspan></text>
</g>
<clipPath id="cp37565">
<path transform="matrix(1,0,0,-1,0,841.92)" d="M .000008871 0 L 595.32 0 L 595.32 841.92 L .000008871 841.92 Z " fill-rule="evenodd"/>
</clipPath>
<g clip-path="url(#cp37565)">
<text xml:space="preserve" transform="matrix(1 0 -0 1 0 841.92)" font-size="14.04" font-family="Times New Roman"><tspan y="-103.1" x="95.784">o</tspan></text>
</g>
<clipPath id="cp37566">
<path transform="matrix(1,0,0,-1,0,841.92)" d="M .000008871 0 L 595.32 0 L 595.32 841.92 L .000008871 841.92 Z " fill-rule="evenodd"/>
</clipPath>
<g clip-path="url(#cp37566)">
<text xml:space="preserve" transform="matrix(1 0 -0 1 0 841.92)" font-size="14.04" font-family="Times New Roman"><tspan y="-103.1" x="102.86">d</tspan></text>
</g>
<clipPath id="cp37567">
<path transform="matrix(1,0,0,-1,0,841.92)" d="M .000008871 0 L 595.32 0 L 595.32 841.92 L .000008871 841.92 Z " fill-rule="evenodd"/>
</clipPath>
<g clip-path="url(#cp37567)">
<text xml:space="preserve" transform="matrix(1 0 -0 1 0 841.92)" font-size="14.04" font-family="Times New Roman"><tspan y="-103.1" x="109.94">e</tspan></text>
</g>
<clipPath id="cp37568">
<path transform="matrix(1,0,0,-1,0,841.92)" d="M .000008871 0 L 595.32 0 L 595.32 841.92 L .000008871 841.92 Z " fill-rule="evenodd"/>
</clipPath>
<g clip-path="url(#cp37568)">
<text xml:space="preserve" transform="matrix(1 0 -0 1 0 841.92)" font-size="14.04" font-family="Times New Roman"><tspan y="-103.1" x="116.18 120.125247 124.07049 130.30425 134.97957 138.34917 142.2944 149.25824 155.492 159.33896 164.84264 171.80648 178.86859 185.10236">llar tuzishda </tspan></text>
</g>
<clipPath id="cp37569">
<path transform="matrix(1,0,0,-1,0,841.92)" d="M .000008871 0 L 595.32 0 L 595.32 841.92 L .000008871 841.92 Z " fill-rule="evenodd"/>
</clipPath>
<g clip-path="url(#cp37569)">
<text xml:space="preserve" transform="matrix(1 0 -0 1 0 841.92)" font-size="14.04" font-family="Times New Roman"><tspan y="-103.1" x="188.54">o</tspan></text>
</g>
<clipPath id="cp37570">
<path transform="matrix(1,0,0,-1,0,841.92)" d="M .000008871 0 L 595.32 0 L 595.32 841.92 L .000008871 841.92 Z " fill-rule="evenodd"/>
</clipPath>
<g clip-path="url(#cp37570)">
<text xml:space="preserve" transform="matrix(1 0 -0 1 0 841.92)" font-size="14.04" font-family="Times New Roman"><tspan y="-103.1" x="195.65 201.77144 208.83356 212.68051 216.62575 222.7472 229.80931 233.75455">chiladi.</tspan></text>
</g>
<clipPath id="cp37571">
<path transform="matrix(1,0,0,-1,0,841.92)" d="M .000008871 0 L 595.32 0 L 595.32 841.92 L .000008871 841.92 Z " fill-rule="evenodd"/>
</clipPath>
<g clip-path="url(#cp37571)">
<text xml:space="preserve" transform="matrix(1 0 -0 1 0 841.92)" font-size="14.04" font-family="Times New Roman"><tspan y="-103.1" x="237.17"> </tspan></text>
</g>
</g>
</g>
</g>
</svg>
