<?xml version="1.0" encoding="UTF-8" standalone="no"?>
<!DOCTYPE svg PUBLIC "-//W3C//DTD SVG 1.1//EN" "http://www.w3.org/Graphics/SVG/1.1/DTD/svg11.dtd">
<svg xmlns="http://www.w3.org/2000/svg" xmlns:xlink="http://www.w3.org/1999/xlink" version="1.1" width="595.32pt" height="841.92pt" viewBox="0 0 595.32 841.92">
<g enable-background="new">
<g>
<g id="Layer-1" data-name="Artifact">
<clipPath id="cp38110">
<path transform="matrix(1,0,0,-1,0,841.92)" d="M .000008871 0 L 595.32 0 L 595.32 841.92 L .000008871 841.92 Z " fill-rule="evenodd"/>
</clipPath>
<g clip-path="url(#cp38110)">
<text xml:space="preserve" transform="matrix(1 0 -0 1 0 841.92)" font-size="11.04" font-family="Calibri"><tspan y="-51.864" x="314.09 319.72999 325.36997">242</tspan></text>
</g>
<clipPath id="cp38111">
<path transform="matrix(1,0,0,-1,0,841.92)" d="M .000008871 0 L 595.32 0 L 595.32 841.92 L .000008871 841.92 Z " fill-rule="evenodd"/>
</clipPath>
<g clip-path="url(#cp38111)">
<text xml:space="preserve" transform="matrix(1 0 -0 1 0 841.92)" font-size="11.04" font-family="Calibri"><tspan y="-51.864" x="331.03"> </tspan></text>
</g>
<clipPath id="cp38112">
<path transform="matrix(1,0,0,-1,0,841.92)" d="M .000008871 0 L 595.32 0 L 595.32 841.92 L .000008871 841.92 Z " fill-rule="evenodd"/>
</clipPath>
<g clip-path="url(#cp38112)">
</g>
<clipPath id="cp38113">
<path transform="matrix(1,0,0,-1,0,841.92)" d="M .000008871 0 L 595.32 0 L 595.32 841.92 L .000008871 841.92 Z " fill-rule="evenodd"/>
</clipPath>
<g clip-path="url(#cp38113)">
<text xml:space="preserve" transform="matrix(1 0 -0 1 0 841.92)" font-size="11.04" font-family="Calibri"><tspan y="-38.4" x="85.104"> </tspan></text>
</g>
<clipPath id="cp38114">
<path transform="matrix(1,0,0,-1,0,841.92)" d="M .000008871 0 L 595.32 0 L 595.32 841.92 L .000008871 841.92 Z " fill-rule="evenodd"/>
</clipPath>
<g clip-path="url(#cp38114)">
</g>
</g>
<g id="Layer-1" data-name="P">
<clipPath id="cp38115">
<path transform="matrix(1,0,0,-1,0,841.92)" d="M .000008871 0 L 595.32 0 L 595.32 841.92 L .000008871 841.92 Z " fill-rule="evenodd"/>
</clipPath>
<g clip-path="url(#cp38115)">
<text xml:space="preserve" transform="matrix(1 0 -0 1 0 841.92)" font-size="14.04" font-family="Times New Roman"><tspan y="-772.56" x="85.104 91.33775 95.283 101.516757 112.201198 118.43495 125.51111 129.45635 133.3033 139.53707 144.21239 148.17168 152.24327 156.1885 162.42227 166.98528 174.0474 177.89435 184.85819 188.80342 195.76726 199.7125 203.78409 210.01786 217.09403 220.94098 227.90482 231.85005 237.9715 243.47518 250.5373 254.60889 261.671 267.79243 274.85453 281.81837 288.88047 293.0644">elementlari tarkibini aniqlash uchun q</tspan></text>
</g>
<clipPath id="cp38116">
<path transform="matrix(1,0,0,-1,0,841.92)" d="M .000008871 0 L 595.32 0 L 595.32 841.92 L .000008871 841.92 Z " fill-rule="evenodd"/>
</clipPath>
<g clip-path="url(#cp38116)">
<text xml:space="preserve" transform="matrix(1 0 -0 1 0 841.92)" font-size="14.04" font-family="Times New Roman"><tspan y="-772.56" x="300.29 307.3521 314.18959 318.1348 325.09864 331.3324 338.40855 342.35377 346.5377 357.22215 363.4559 368.9736 375.20738 379.1526 385.27403 392.23786 396.18309 400.367 407.4291 413.55055 418.22587 424.45964 431.4375 442.12196 446.19355 452.4273 456.62528 463.68739 469.92115 473.99278 481.05488 488.0187 491.96394 498.92778 505.98988 510.1738 520.8582 527.92037 534.9825 541.21627 545.06326 548.9102 555.8741 559.72109">uyidagi masalani qaraymiz va uning modelini </tspan></text>
</g>
<clipPath id="cp38117">
<path transform="matrix(1,0,0,-1,0,841.92)" d="M .000008871 0 L 595.32 0 L 595.32 841.92 L .000008871 841.92 Z " fill-rule="evenodd"/>
</clipPath>
<g clip-path="url(#cp38117)">
<text xml:space="preserve" transform="matrix(1 0 -0 1 0 841.92)" font-size="14.04" font-family="Times New Roman"><tspan y="-748.3" x="85.104 89.04924 96.11136 102.232799 108.46655 119.15099 123.09624 129.33 132.84">tuzamiz. </tspan></text>
</g>
<clipPath id="cp38118">
<path transform="matrix(1,0,0,-1,0,841.92)" d="M .000008871 0 L 595.32 0 L 595.32 841.92 L .000008871 841.92 Z " fill-rule="evenodd"/>
</clipPath>
<g clip-path="url(#cp38118)">
<text xml:space="preserve" transform="matrix(1 0 -0 1 0 841.92)" font-size="14.04" font-family="Times New Roman"><tspan y="-748.3" x="136.46"> </tspan></text>
</g>
</g>
<g id="Layer-1" data-name="P">
<clipPath id="cp38119">
<path transform="matrix(1,0,0,-1,0,841.92)" d="M .000008871 0 L 595.32 0 L 595.32 841.92 L .000008871 841.92 Z " fill-rule="evenodd"/>
</clipPath>
<g clip-path="url(#cp38119)">
<text xml:space="preserve" transform="matrix(1 0 -0 1 0 841.92)" font-size="14.04" font-family="Times New Roman,BoldItalic" font-weight="bold" font-style="italic"><tspan y="-724.18" x="120.5 132.98157 139.9454 145.44908 152.41292 156.35816 163.32199">Masala:</tspan></text>
</g>
<clipPath id="cp38120">
<path transform="matrix(1,0,0,-1,0,841.92)" d="M .000008871 0 L 595.32 0 L 595.32 841.92 L .000008871 841.92 Z " fill-rule="evenodd"/>
</clipPath>
<g clip-path="url(#cp38120)">
<text xml:space="preserve" transform="matrix(1 0 -0 1 0 841.92)" font-size="14.04" font-family="Times New Roman"><tspan y="-724.18" x="168.02"> </tspan></text>
</g>
<clipPath id="cp38121">
<path transform="matrix(1,0,0,-1,0,841.92)" d="M .000008871 0 L 595.32 0 L 595.32 841.92 L .000008871 841.92 Z " fill-rule="evenodd"/>
</clipPath>
<g clip-path="url(#cp38121)">
<text xml:space="preserve" transform="matrix(1 0 -0 1 0 841.92)" font-size="14.04" font-family="Times New Roman"><tspan y="-724.18" x="177.62 187.799 194.63648 198.58171 204.81548 211.66699 215.61223 219.55747 226.61959 230.12958 239.69081 245.19449 252.15833 259.22044 263.78343 270.84553 275.52085 286.2053 292.43907 302.02839 309.09049 315.32426 322.4004 329.36424 336.42634 343.48844 349.60987 356.5737 360.42066 364.36589 368.21284 375.27494 384.86427 391.92637 395.77333 399.71855 405.83998 412.90208 422.4914 427.8968 434.9589 441.92274 448.98484 453.54783 460.60993 464.45689 468.4021 474.52354 481.48738 488.54948 495.5133 501.74708 508.7109 512.6561 522.2455 526.9208 533.15457 537.82986 548.52828 554.762 559.5496">Aytaylik, sug&#x2018;orma dehqonchilik bilan shug&#x2018;ullanuvchi fermer </tspan></text>
</g>
<clipPath id="cp38122">
<path transform="matrix(1,0,0,-1,0,841.92)" d="M .000008871 0 L 595.32 0 L 595.32 841.92 L .000008871 841.92 Z " fill-rule="evenodd"/>
</clipPath>
<g clip-path="url(#cp38122)">
<text xml:space="preserve" transform="matrix(1 0 -0 1 0 841.92)" font-size="14.04" font-family="Times New Roman"><tspan y="-700.06" x="85.104 92.166118 99.22823 103.79124 107.6382 113.871959 117.8172 121.66416 128.62799 132.57323 139.15798 146.12181 150.06705 154.74237 161.2148 168.27692 175.1144 181.34816 187.58193 194.6581 200.89186 207.36429 211.30953 218.37165 222.93465 229.99677 236.11821 243.08205 247.02729 253.61203 260.57588 264.5211 269.92649 276.89033 280.83555 287.79939 294.86149 301.33393 308.39604 315.45814 320.02113 323.86808 330.10185 334.04707 337.894 344.95613 351.5409 362.22535 368.4591 375.53526 380.94065 388.00276 391.8497 398.9118 402.75877 406.6057 413.66783 417.61305 424.08549 427.93244 433.4361 440.39994 444.2469 450.48066 457.5568 464.14158 470.263 477.3251 481.17207 488.23417 494.46794 499.0309 504.4363 508.38154 515.44369 518.9537 525.5104 530.07339 535.47879 542.5409 546.48617 552.4812 559.44509">xo&#x2018;jaligi bir nyecha turdagi qishloq xo&#x2018;jalik mahsulotini ishlab chiqarsin. Ishlab </tspan></text>
</g>
<clipPath id="cp38123">
<path transform="matrix(1,0,0,-1,0,841.92)" d="M .000008871 0 L 595.32 0 L 595.32 841.92 L .000008871 841.92 Z " fill-rule="evenodd"/>
</clipPath>
<g clip-path="url(#cp38123)">
<text xml:space="preserve" transform="matrix(1 0 -0 1 0 841.92)" font-size="14.04" font-family="Times New Roman"><tspan y="-675.94" x="85.104 91.33775 98.41391 102.26087 109.32299 115.55675 120.11975 123.96671 129.47039 136.5325 140.71642 144.56337 150.79714 155.47246 161.70623 168.55774 175.61986 182.5837 186.52893 193.59105 199.82482 203.89641 208.08032 215.14244 219.32636 223.27159 230.33371 234.89672 241.95883 248.08028 255.1424 259.08763 263.27156 267.94688 274.0683 279.57197 286.63407 291.19706 296.7007 300.88465 304.7316 310.23527 317.1991 321.04606 327.27983 331.22505 335.072 338.91896 344.4226 348.26957">chiqarish jarayonida  3 turdagi resurs ishlatilsin</tspan></text>
</g>
<clipPath id="cp38124">
<path transform="matrix(1,0,0,-1,0,841.92)" d="M .000008871 0 L 595.32 0 L 595.32 841.92 L .000008871 841.92 Z " fill-rule="evenodd"/>
</clipPath>
<g clip-path="url(#cp38124)">
<text xml:space="preserve" transform="matrix(1 0 -0 1 0 841.92)" font-size="14.04" font-family="Times New Roman"><tspan y="-675.94" x="355.75 359.69523 363.87916 370.7166 376.95039 381.6257 385.1357 389.3056 393.25083 398.7545 405.8166 411.93803 418.90187 422.84709 427.031 434.0931 441.05696 447.2907 454.36686 458.31208 462.3837 469.4458 475.67958 479.87754 485.28294 492.34504 499.40715 502.91716 507.073 519.55459 525.676 532.73818 538.14358 545.1074 549.0527 555.8902 559.7372">: yer, ishchi kuchi va suv. Mahsulot </tspan></text>
</g>
<clipPath id="cp38125">
<path transform="matrix(1,0,0,-1,0,841.92)" d="M .000008871 0 L 595.32 0 L 595.32 841.92 L .000008871 841.92 Z " fill-rule="evenodd"/>
</clipPath>
<g clip-path="url(#cp38125)">
<text xml:space="preserve" transform="matrix(1 0 -0 1 0 841.92)" font-size="14.04" font-family="Times New Roman"><tspan y="-651.7" x="85.104 92.166118 96.11136 100.67436 104.521327 108.46657 115.430408 119.37565 126.339488 130.28472 139.63535 143.4823 148.98598 155.94982 159.89505 166.0165 173.07862 182.42925 188.66301 195.73918 199.58614 206.54998 212.78374 217.45906 221.30602 226.8097 233.87181 243.22245 250.28456 256.40599 263.3698 270.43193 277.49403 286.84468 292.25007 298.48384 303.15916 307.83448 317.19917 324.26127 328.10823 332.05345 335.9004 342.9625 349.08393 356.14604 359.99299 367.05509 373.1765 380.23863 389.58927 394.2646 400.49836 405.90376 412.96586 417.52885 423.0325 426.97773 433.2115 437.8868 447.12516 456.58815 467.27259 471.2178 478.2799 485.342 492.4041 496.9671 500.91233 510.26298 517.3251 523.55886 528.1218 532.0671 535.91409 542.9762 549.09768 556.0615 559.4171 562.9271">birligini ishlab chiqarish uchun sarf qilinadigan resurslar  miqdori berilgan.  </tspan></text>
</g>
<clipPath id="cp38126">
<path transform="matrix(1,0,0,-1,0,841.92)" d="M .000008871 0 L 595.32 0 L 595.32 841.92 L .000008871 841.92 Z " fill-rule="evenodd"/>
</clipPath>
<g clip-path="url(#cp38126)">
<text xml:space="preserve" transform="matrix(1 0 -0 1 0 841.92)" font-size="14.04" font-family="Times New Roman"><tspan y="-627.58" x="85.104 97.585559 103.81931 110.78315 116.286838 123.25067 127.09763 134.15975 138.10498 147.09058 154.05442 157.99965 162.56266 166.50789 170.35485 177.31868 181.26392 188.22776 192.17299 199.13683 206.10066 215.08626 222.14838 228.38214 233.05747 240.03536 243.98059 252.96619 260.0283 266.26206 276.9465 285.9321 292.9942 299.22798 303.9033 307.86256 311.7095 318.7716 324.89305 331.95515 335.46516 344.42268 349.098 354.60166 361.5655 365.5107 371.63215 378.69425 387.67985 393.9136 400.87745 404.82267 411.7865 418.02027 422.6956 426.54255 430.3895 437.4516 443.57304 450.63514 459.7471 470.43156 476.6653 483.74147 489.14686 496.20896 500.0559 507.118 511.06324 519.9225 526.9846 533.2184 537.7814 544.8435 548.6905 555.65438 559.50137">Mahsulot birligining narxi ham berilgan. Ishlab chiqarilgan mahsulot narxini </tspan></text>
</g>
<clipPath id="cp38127">
<path transform="matrix(1,0,0,-1,0,841.92)" d="M .000008871 0 L 595.32 0 L 595.32 841.92 L .000008871 841.92 Z " fill-rule="evenodd"/>
</clipPath>
<g clip-path="url(#cp38127)">
<text xml:space="preserve" transform="matrix(1 0 -0 1 0 841.92)" font-size="14.04" font-family="Times New Roman"><tspan y="-603.46" x="85.104 95.90076 102.134517 109.21067 114.714359 118.6596 129.34404 135.5778 139.52304 143.46828 149.58972 155.0934 162.05724 165.90419 169.84943 174.52475 181.48859 188.5507 194.67215 201.73427 205.58123 209.09122 212.99434 218.4559 225.4759 229.44924 235.57068 242.6328 246.14279 252.23616 259.29829 263.14524 270.20735 276.4411 281.0041 284.85105 290.3547 297.4168 300.77238 307.83448 314.06825 317.78883 328.47328 332.4185 339.4806 343.4258 346.93583 353.1696 360.18959 364.09269 371.02845 374.97367 381.20744 386.61283 393.67494 397.0305 404.0926 410.32637 415.00169 421.13719 428.19929">maksimallashtiruvchi ishlab chiqarish hajmini aniqlash kerak.</tspan></text>
</g>
<clipPath id="cp38128">
<path transform="matrix(1,0,0,-1,0,841.92)" d="M .000008871 0 L 595.32 0 L 595.32 841.92 L .000008871 841.92 Z " fill-rule="evenodd"/>
</clipPath>
<g clip-path="url(#cp38128)">
<text xml:space="preserve" transform="matrix(1 0 -0 1 0 841.92)" font-size="14.04" font-family="Times New Roman"><tspan y="-603.46" x="431.95"> </tspan></text>
</g>
</g>
<g id="Layer-1" data-name="P">
<clipPath id="cp38129">
<path transform="matrix(1,0,0,-1,0,841.92)" d="M .000008871 0 L 595.32 0 L 595.32 841.92 L .000008871 841.92 Z " fill-rule="evenodd"/>
</clipPath>
<g clip-path="url(#cp38129)">
<text xml:space="preserve" transform="matrix(1 0 -0 1 0 841.92)" font-size="14.04" font-family="Times New Roman"><tspan y="-579.34" x="120.5 129.86469 136.9268 144.11528 154.79973 161.0335 166.55123 172.78499 176.73023 182.96399 189.92783 193.87306 201.06154 207.89902 214.13278 220.36655 227.44272 231.28968 236.69507 243.75719 250.94567 258.00779 264.1292 271.09306 278.15516 285.21726 292.2794 299.24324 306.30534 310.15229 317.2144 324.2765 331.46498 342.1494 349.21153 356.17536 362.40913 366.35435 370.2013 377.16514 381.11036 388.29884 395.4873 399.33427 406.39637 412.63014 416.47709 421.88249 428.94459 436.13307 443.19517 449.42893 456.5051 463.5672 470.53105 474.378 481.56648 487.80024 494.87638 501.8402 508.9023 513.46536 520.52749 524.4727 531.53488 538.4987 542.444 546.3892 552.5107 559.47457">Bu masalani yechish uchun uning modelini  tuzish va uni axborot bilan </tspan></text>
</g>
<clipPath id="cp38130">
<path transform="matrix(1,0,0,-1,0,841.92)" d="M .000008871 0 L 595.32 0 L 595.32 841.92 L .000008871 841.92 Z " fill-rule="evenodd"/>
</clipPath>
<g clip-path="url(#cp38130)">
<text xml:space="preserve" transform="matrix(1 0 -0 1 0 841.92)" font-size="14.04" font-family="Times New Roman"><tspan y="-555.07" x="85.104 89.04924 96.11136 100.67436 104.521327 111.58344 115.52869 120.09169 123.93865 129.44232 136.50444 142.48548 149.44931 155.68308 161.67815 168.74027 174.97403 181.82555 185.77079 192.8329 198.81394 205.77777 212.01154 218.2453 225.22319 229.16843 239.85288 243.79811 250.86023 254.80547 260.7865 266.76756 270.71278 277.6766 284.7387 288.58567 293.99107 301.05317 307.0342 314.0963 320.33009 324.89308 331.12684 338.20298 341.71299">to&#x2018;ldirish va keyin yechimini  topish kerak. </tspan></text>
</g>
</g>
<g id="Layer-1" data-name="P">
<clipPath id="cp38131">
<path transform="matrix(1,0,0,-1,0,841.92)" d="M .000008871 0 L 595.32 0 L 595.32 841.92 L .000008871 841.92 Z " fill-rule="evenodd"/>
</clipPath>
<g clip-path="url(#cp38131)">
<text xml:space="preserve" transform="matrix(1 0 -0 1 0 841.92)" font-size="14.04" font-family="Times New Roman"><tspan y="-555.07" x="348.07 360.55158 367.5154 374.5775 380.69895 384.64418 391.608 395.55323 401.53428 405.38124 412.44334 418.6771 422.52406 427.92945 434.99156 440.9726 447.93644 454.1702 461.0217 464.96693 468.91215 475.97425 482.208 488.2031 494.18415 498.12937 505.0932 512.15536 518.2768 525.3389 530.7443 534.6896 540.92337 545.4863 552.54849 556.39547 559.75106">Modelni tuzish paytida  indekslarni, </tspan></text>
</g>
</g>
<g id="Layer-1" data-name="P">
<clipPath id="cp38132">
<path transform="matrix(1,0,0,-1,0,841.92)" d="M .000008871 0 L 595.32 0 L 595.32 841.92 L .000008871 841.92 Z " fill-rule="evenodd"/>
</clipPath>
<g clip-path="url(#cp38132)">
<text xml:space="preserve" transform="matrix(1 0 -0 1 0 841.92)" font-size="14.04" font-family="Times New Roman"><tspan y="-530.95" x="85.104 91.33775 98.41391 104.53535 111.597469 118.5613 124.79506 131.87123 136.29383 143.35594 149.5897 154.13866 160.37242 167.33626 174.3001 181.36222 188.32605 194.55982 201.63599 206.05858 213.1207 217.6837 223.91747 230.99364 237.2274 241.7904 248.85253 255.81636 262.0501 269.01396 272.95918 276.80613 283.0399 287.7152 294.69309 298.6383 303.1873 310.15113 316.3849 327.19569 334.25779 340.49156 345.04054 352.10264 358.22407 362.89939 369.13316 379.8176 386.05137 389.99659 394.6719 398.61714 404.8509 409.41389 416.47599 420.4212 424.97019 431.0916 438.15373 442.00068 448.9645 452.90974 459.1435 464.5489 471.611 476.15998 483.1238 489.35758 494.0329 500.1684 507.2305 510.7405 515.26138 524.62606 528.5713 534.69277 541.7549 545.60189 552.56576 559.5296">ekzogen va endogen o&#x2018;zgaruvchilarni hamda parametrlarni aniqlash kerak. Bizning </tspan></text>
</g>
</g>
<g id="Layer-1" data-name="P">
<clipPath id="cp38133">
<path transform="matrix(1,0,0,-1,0,841.92)" d="M .000008871 0 L 595.32 0 L 595.32 841.92 L .000008871 841.92 Z " fill-rule="evenodd"/>
</clipPath>
<g clip-path="url(#cp38133)">
<text xml:space="preserve" transform="matrix(1 0 -0 1 0 841.92)" font-size="14.04" font-family="Times New Roman"><tspan y="-505.87" x="85.104 95.90076 102.134517 107.65224 113.885997 117.83124 123.952678 131.01479 137.24855 145.99547 154.8547 158.70166 165.6655 172.72762 178.96138 185.92522 191.33061 195.27585 201.50962 206.07262 214.93186 225.6163 231.85007 238.92624">masalada  indekslar mahs</tspan></text>
</g>
</g>
<g id="Layer-1" data-name="P">
<clipPath id="cp38134">
<path transform="matrix(1,0,0,-1,0,841.92)" d="M .000008871 0 L 595.32 0 L 595.32 841.92 L .000008871 841.92 Z " fill-rule="evenodd"/>
</clipPath>
<g clip-path="url(#cp38134)">
<text xml:space="preserve" transform="matrix(1 0 -0 1 0 841.92)" font-size="14.04" font-family="Times New Roman"><tspan y="-505.87" x="244.61 251.67212 255.51908 262.4829 266.42814 275.28739 279.13435 286.19645 290.75944 294.70466 300.93843 305.5014 309.44664 318.19355 325.15739 331.39115 340.26445 344.93977 351.17353 356.57893 363.64103 368.204 373.70768 382.4546 386.3998 393.36366 398.03898 401.9842 408.10563 412.78096 416.72618">ulot turlari va resurs turlari </tspan></text>
</g>
</g>
<g id="Layer-1" data-name="P">
<clipPath id="cp38135">
<path transform="matrix(1,0,0,-1,0,841.92)" d="M 0 .000061035 L 595.32 .000061035 L 595.32 841.92007 L 0 841.92007 Z " fill-rule="evenodd"/>
</clipPath>
<g clip-path="url(#cp38135)">
<clipPath id="cp38136">
<path transform="matrix(.98062476,0,0,-.96985617,425.71,341.11)" d="M 0 0 L 43.545 0 L 43.545 19.333 L 0 19.333 Z " fill-rule="evenodd"/>
</clipPath>
<g clip-path="url(#cp38136)">
<path transform="matrix(.98062476,0,0,-.96985617,425.71,341.11)" stroke-width=".51693" stroke-linecap="butt" stroke-linejoin="round" fill="none" stroke="#000000" d="M 22.622 16.395 L 36.308 16.395 "/>
<text xml:space="preserve" transform="matrix(.98062476 0 -0 .96985617 425.71 341.11)" font-size="11.939" font-family="Times New Roman"><tspan y="-5.358" x="36.874">)</tspan></text>
<text xml:space="preserve" transform="matrix(.98062476 0 -0 .96985617 425.71 341.11)" font-size="11.939" font-family="Times New Roman"><tspan y="-5.358" x="26.019">,</tspan></text>
<text xml:space="preserve" transform="matrix(.98062476 0 -0 .96985617 425.71 341.11)" font-size="11.939" font-family="Times New Roman"><tspan y="-5.358" x="21.095">1</tspan></text>
<text xml:space="preserve" transform="matrix(.98062476 0 -0 .96985617 425.71 341.11)" font-size="11.939" font-family="Times New Roman"><tspan y="-5.358" x="1.6492">(</tspan></text>
<text xml:space="preserve" transform="matrix(.98062476 0 -0 .96985617 425.71 341.11)" font-size="11.939" font-family="Times New Roman,Italic" font-style="italic"><tspan y="-5.358" x="30.622">n</tspan></text>
<text xml:space="preserve" transform="matrix(.98062476 0 -0 .96985617 425.71 341.11)" font-size="11.939" font-family="Times New Roman,Italic" font-style="italic"><tspan y="-5.358" x="5.5877">i</tspan></text>
<text xml:space="preserve" transform="matrix(.98062476 0 -0 .96985617 425.71 341.11)" font-size="11.939" font-family="Symbol"><tspan y="-5.358" x="12.579">&#xf03d;</tspan></text>
</g>
</g>
</g>
<g id="Layer-1" data-name="P">
<clipPath id="cp38137">
<path transform="matrix(1,0,0,-1,0,841.92)" d="M .000008871 0 L 595.32 0 L 595.32 841.92 L .000008871 841.92 Z " fill-rule="evenodd"/>
</clipPath>
<g clip-path="url(#cp38137)">
<text xml:space="preserve" transform="matrix(1 0 -0 1 0 841.92)" font-size="14.04" font-family="Times New Roman"><tspan y="-505.87" x="468.46 472.4052 478.63899 483.20198 492.06123 499.02507 502.97029 508.37568 515.4378 522.4017 526.3469 532.4684 539.5305 545.652 552.7141 556.5611 559.9167">lar hisoblanadi. </tspan></text>
</g>
<clipPath id="cp38138">
<path transform="matrix(1,0,0,-1,0,841.92)" d="M .000008871 0 L 595.32 0 L 595.32 841.92 L .000008871 841.92 Z " fill-rule="evenodd"/>
</clipPath>
<g clip-path="url(#cp38138)">
<text xml:space="preserve" transform="matrix(1 0 -0 1 0 841.92)" font-size="14.04" font-family="Times New Roman"><tspan y="-480.07" x="85.104 93.626277 100.68839 106.92215 113.88599 120.948108 127.06954 134.13166 144.07196 151.13408 155.69709 161.93085 169.00702 175.24079 179.80379 186.76763 193.82975 200.0635 207.02735 210.97258 214.91782 221.03926 225.71459 235.66895 242.73107 246.57802 253.64014 257.4871 264.45094 271.51304 277.63447 284.69657 294.6369 301.699 307.93278 312.49577 316.44099 320.28794 327.25178 333.48554 340.56169 350.502 357.46586 364.52796 369.09095 373.03617 376.88313 383.94523 387.45524 397.3675 404.4296 410.66337 415.33869 421.57246 432.27095 438.5047 442.44993 447.12525 451.07048 457.30424 461.97956 471.93394 478.1677 483.6854 489.91917 499.87355 510.55799 517.6201 524.68228 530.916 534.763 541.82516 545.6721 552.50967 559.4735">Ekzogen o&#x2018;zgaruvchilar oldindan berilgan bo&#x2018;lib, parametrlar esa modelning </tspan></text>
</g>
<clipPath id="cp38139">
<path transform="matrix(1,0,0,-1,0,841.92)" d="M .000008871 0 L 595.32 0 L 595.32 841.92 L .000008871 841.92 Z " fill-rule="evenodd"/>
</clipPath>
<g clip-path="url(#cp38139)">
<text xml:space="preserve" transform="matrix(1 0 -0 1 0 841.92)" font-size="14.04" font-family="Times New Roman"><tspan y="-455.83" x="85.104 92.166118 99.12995 105.36371 110.03903 114.714359 118.575359 122.42232 127.926 131.87123 138.70871 144.94248 152.01865 155.8656 159.71256 166.77468 173.00844 180.08461 183.44017 187.3854 194.34925 201.41136 205.97437 212.20813 216.15337 223.1172 227.06244 231.73777">koeffitsiyentidan iboratdir.</tspan></text>
</g>
<clipPath id="cp38140">
<path transform="matrix(1,0,0,-1,0,841.92)" d="M .000008871 0 L 595.32 0 L 595.32 841.92 L .000008871 841.92 Z " fill-rule="evenodd"/>
</clipPath>
<g clip-path="url(#cp38140)">
<text xml:space="preserve" transform="matrix(1 0 -0 1 0 841.92)" font-size="14.04" font-family="Times New Roman"><tspan y="-455.83" x="235.25"> </tspan></text>
</g>
</g>
<g id="Layer-1" data-name="P">
<clipPath id="cp38141">
<path transform="matrix(1,0,0,-1,0,841.92)" d="M .000008871 0 L 595.32 0 L 595.32 841.92 L .000008871 841.92 Z " fill-rule="evenodd"/>
</clipPath>
<g clip-path="url(#cp38141)">
<text xml:space="preserve" transform="matrix(1 0 -0 1 0 841.92)" font-size="14.04" font-family="Times New Roman"><tspan y="-431.71" x="120.5 129.86469 136.9268 142.55684 153.24129 159.47505 164.99279 171.22655 175.17179 181.29323 188.35535 194.58911 200.21915 207.05663 213.29039 217.96572 223.59575 234.2802 240.62628 247.46376 254.52588 261.58799 268.6501 272.5953 278.099">Bu masalada yer maydoni  </tspan></text>
</g>
<clipPath id="cp38142">
<path transform="matrix(1,0,0,-1,0,841.92)" d="M .000008871 0 L 595.32 0 L 595.32 841.92 L .000008871 841.92 Z " fill-rule="evenodd"/>
</clipPath>
<g clip-path="url(#cp38142)">
<text xml:space="preserve" transform="matrix(1 0 -0 1 0 841.92)" font-size="14.04" font-family="Times New Roman,Italic" font-style="italic"><tspan y="-431.71" x="283.97">E</tspan></text>
</g>
<clipPath id="cp38143">
<path transform="matrix(1,0,0,-1,0,841.92)" d="M .000008871 0 L 595.32 0 L 595.32 841.92 L .000008871 841.92 Z " fill-rule="evenodd"/>
</clipPath>
<g clip-path="url(#cp38143)">
<text xml:space="preserve" transform="matrix(1 0 -0 1 0 841.92)" font-size="14.04" font-family="Times New Roman"><tspan y="-431.71" x="292.49 296 301.60197 305.54719 310.95259 318.01469 324.1361 331.09996 335.04518 340.6752 347.63905 354.70115 360.82258 367.88468 371.8299 377.95133 382.62666 386.57188 392.07557">, ishchi kuchlari  </tspan></text>
</g>
<clipPath id="cp38144">
<path transform="matrix(1,0,0,-1,0,841.92)" d="M .000008871 0 L 595.32 0 L 595.32 841.92 L .000008871 841.92 Z " fill-rule="evenodd"/>
</clipPath>
<g clip-path="url(#cp38144)">
<text xml:space="preserve" transform="matrix(1 0 -0 1 0 841.92)" font-size="14.04" font-family="Times New Roman,Italic" font-style="italic"><tspan y="-431.71" x="397.87">L</tspan></text>
</g>
<clipPath id="cp38145">
<path transform="matrix(1,0,0,-1,0,841.92)" d="M .000008871 0 L 595.32 0 L 595.32 841.92 L .000008871 841.92 Z " fill-rule="evenodd"/>
</clipPath>
<g clip-path="url(#cp38145)">
<text xml:space="preserve" transform="matrix(1 0 -0 1 0 841.92)" font-size="14.04" font-family="Times New Roman"><tspan y="-431.71" x="405.67 411.31004">  </tspan></text>
</g>
<clipPath id="cp38146">
<path transform="matrix(1,0,0,-1,0,841.92)" d="M .000008871 0 L 595.32 0 L 595.32 841.92 L .000008871 841.92 Z " fill-rule="evenodd"/>
</clipPath>
<g clip-path="url(#cp38146)">
<text xml:space="preserve" transform="matrix(1 0 -0 1 0 841.92)" font-size="14.04" font-family="Times New Roman"><tspan y="-431.71" x="416.83 423.8921 430.12586 435.7559 441.25959 446.76325 453.72709 460.78919 466.41923 477.10368 481.0489 488.111 495.07484 502.13694 506.69993 510.64515">va  suv miqdori </tspan></text>
</g>
<clipPath id="cp38147">
<path transform="matrix(1,0,0,-1,0,841.92)" d="M .000008871 0 L 595.32 0 L 595.32 841.92 L .000008871 841.92 Z " fill-rule="evenodd"/>
</clipPath>
<g clip-path="url(#cp38147)">
<text xml:space="preserve" transform="matrix(1 0 -0 1 0 841.92)" font-size="14.04" font-family="Times New Roman,Italic" font-style="italic"><tspan y="-431.71" x="516.46">Q</tspan></text>
</g>
<clipPath id="cp38148">
<path transform="matrix(1,0,0,-1,0,841.92)" d="M .000008871 0 L 595.32 0 L 595.32 841.92 L .000008871 841.92 Z " fill-rule="evenodd"/>
</clipPath>
<g clip-path="url(#cp38148)">
<text xml:space="preserve" transform="matrix(1 0 -0 1 0 841.92)" font-size="14.04" font-family="Times New Roman"><tspan y="-431.71" x="526.54"> </tspan></text>
</g>
<clipPath id="cp38149">
<path transform="matrix(1,0,0,-1,0,841.92)" d="M .000008871 0 L 595.32 0 L 595.32 841.92 L .000008871 841.92 Z " fill-rule="evenodd"/>
</clipPath>
<g clip-path="url(#cp38149)">
<text xml:space="preserve" transform="matrix(1 0 -0 1 0 841.92)" font-size="14.04" font-family="Times New Roman"><tspan y="-431.71" x="532.18 539.14389 542.99087 546.9361 553.05758 560.0214">bilan </tspan></text>
</g>
<clipPath id="cp38150">
<path transform="matrix(1,0,0,-1,0,841.92)" d="M .000008871 0 L 595.32 0 L 595.32 841.92 L .000008871 841.92 Z " fill-rule="evenodd"/>
</clipPath>
<g clip-path="url(#cp38150)">
<text xml:space="preserve" transform="matrix(1 0 -0 1 0 841.92)" font-size="14.04" font-family="Times New Roman"><tspan y="-407.59" x="85.104 92.166118 98.39987 102.24683 109.21067 113.155918 117.00288 123.23663 130.20047 137.26259 143.38404 150.44615 154.27907 161.2429 168.30503 172.86803 176.81327 180.66022 187.72234 191.23233 195.02313 202.08525 205.9322 212.16597 216.8413 220.67421 226.90798 233.98415 240.10559 247.16771 254.22983 260.35127 267.41337 271.24629 278.30839 282.87138 289.10514 296.06898 302.30274 306.97807 313.95594 321.01805 327.13948 334.20158 338.04853 341.99375 348.2275 352.7905 359.8526 363.69956 368.37489 371.8849 375.68974 383.49598 389.72975 394.40507 400.63883 411.32328 417.55705 421.50227 426.17759 430.1228 436.35658 441.0319">belgilangan bo&#x2018;lib, ular ekzogen o&#x2018;zgaruvchilardir. Parametrlar </tspan></text>
</g>
</g>
<g id="Layer-1" data-name="P">
<clipPath id="cp38151">
<path transform="matrix(1,0,0,-1,0,841.92)" d="M 0 .000061035 L 595.32 .000061035 L 595.32 841.92007 L 0 841.92007 Z " fill-rule="evenodd"/>
</clipPath>
<g clip-path="url(#cp38151)">
<clipPath id="cp38152">
<path transform="matrix(.8532399,0,0,-.93714287,445.26,437.36)" d="M 0 0 L 7.8523 0 L 7.8523 13.605 L 0 13.605 Z " fill-rule="evenodd"/>
</clipPath>
<g clip-path="url(#cp38152)">
<text xml:space="preserve" transform="matrix(.8532399 0 -0 .93714287 445.26 437.36)" font-size="12.455" font-family="Times New Roman,Italic" font-style="italic"><tspan y="-3.1852" x="1.6985">i</tspan></text>
</g>
</g>
</g>
<g id="Layer-1" data-name="P">
<clipPath id="cp38153">
<path transform="matrix(1,0,0,-1,0,841.92)" d="M .000008871 0 L 595.32 0 L 595.32 841.92 L .000008871 841.92 Z " fill-rule="evenodd"/>
</clipPath>
<g clip-path="url(#cp38153)">
<text xml:space="preserve" transform="matrix(1 0 -0 1 0 841.92)" font-size="14.04" font-family="Times New Roman"><tspan y="-407.59" x="452.02">-</tspan></text>
</g>
<clipPath id="cp38154">
<path transform="matrix(1,0,0,-1,0,841.92)" d="M .000008871 0 L 595.32 0 L 595.32 841.92 L .000008871 841.92 Z " fill-rule="evenodd"/>
</clipPath>
<g clip-path="url(#cp38154)">
<text xml:space="preserve" transform="matrix(1 0 -0 1 0 841.92)" font-size="14.04" font-family="Times New Roman"><tspan y="-407.59" x="456.7"> </tspan></text>
</g>
<clipPath id="cp38155">
<path transform="matrix(1,0,0,-1,0,841.92)" d="M .000008871 0 L 595.32 0 L 595.32 841.92 L .000008871 841.92 Z " fill-rule="evenodd"/>
</clipPath>
<g clip-path="url(#cp38155)">
<text xml:space="preserve" transform="matrix(1 0 -0 1 0 841.92)" font-size="14.04" font-family="Times New Roman"><tspan y="-407.59" x="460.66 471.34446 477.57823 484.65437 490.15803 497.22013 501.06709 508.0309 511.97615 518.94 522.88528 526.7182 530.5652 536.06887 543.0327 546.97799 552.973 559.9369">mahsulotni ishlab </tspan></text>
</g>
<clipPath id="cp38156">
<path transform="matrix(1,0,0,-1,0,841.92)" d="M .000008871 0 L 595.32 0 L 595.32 841.92 L .000008871 841.92 Z " fill-rule="evenodd"/>
</clipPath>
<g clip-path="url(#cp38156)">
<text xml:space="preserve" transform="matrix(1 0 -0 1 0 841.92)" font-size="14.04" font-family="Times New Roman"><tspan y="-383.45" x="85.104 91.33775 98.41391 102.26087 109.32299 115.55675 120.11975 123.96671 129.47039 136.43422 140.50582 147.56793 153.68938 160.65322 167.71533 174.67917 178.75077 184.15616 190.38993 195.06525 199.74057 203.69985 210.76197 214.60892 218.55416 222.40111 229.36495 236.42707 242.54851 249.61063 253.55587 260.61799 267.68009 273.8015 278.47685 283.15217 286.9991 290.94435 296.34974 300.29496 307.13243 313.36619 320.44233 324.28929 328.2345 334.46827 339.1436 342.6536 346.6971 356.77784 360.6248 366.85856 371.53388 378.51176 382.45698 386.5286 397.21305 404.27516 409.7788 413.85044 417.7957 422.471 428.70478 435.68266 439.5296 444.935 451.9971 458.96095">chiqarish uchun sarf qilingan koeffitsiyentlar. Ularni mos  ravishda</tspan></text>
</g>
<clipPath id="cp38157">
<path transform="matrix(1,0,0,-1,0,841.92)" d="M .000008871 0 L 595.32 0 L 595.32 841.92 L .000008871 841.92 Z " fill-rule="evenodd"/>
</clipPath>
<g clip-path="url(#cp38157)">
<text xml:space="preserve" transform="matrix(1 0 -0 1 0 841.92)" font-size="14.04" font-family="Times New Roman,Italic" font-style="italic"><tspan y="-383.45" x="465.58"> </tspan></text>
</g>
<clipPath id="cp38158">
<path transform="matrix(1,0,0,-1,0,841.92)" d="M .000008871 0 L 595.32 0 L 595.32 841.92 L .000008871 841.92 Z " fill-rule="evenodd"/>
</clipPath>
<g clip-path="url(#cp38158)">
<text xml:space="preserve" transform="matrix(1 0 -0 1 0 841.92)" font-size="14.04" font-family="Times New Roman,Italic" font-style="italic"><tspan y="-383.45" x="469.66">e</tspan></text>
</g>
<clipPath id="cp38159">
<path transform="matrix(1,0,0,-1,0,841.92)" d="M .000008871 0 L 595.32 0 L 595.32 841.92 L .000008871 841.92 Z " fill-rule="evenodd"/>
</clipPath>
<g clip-path="url(#cp38159)">
<text xml:space="preserve" transform="matrix(1 0 -0 1 0 841.92)" font-size="9" font-family="Times New Roman,Italic" font-style="italic"><tspan y="-381.89" x="475.9">i</tspan></text>
</g>
<clipPath id="cp38160">
<path transform="matrix(1,0,0,-1,0,841.92)" d="M .000008871 0 L 595.32 0 L 595.32 841.92 L .000008871 841.92 Z " fill-rule="evenodd"/>
</clipPath>
<g clip-path="url(#cp38160)">
<text xml:space="preserve" transform="matrix(1 0 -0 1 0 841.92)" font-size="14.04" font-family="Times New Roman,Italic" font-style="italic"><tspan y="-383.45" x="478.42 481.93003 485.8472">, l</tspan></text>
</g>
<clipPath id="cp38161">
<path transform="matrix(1,0,0,-1,0,841.92)" d="M .000008871 0 L 595.32 0 L 595.32 841.92 L .000008871 841.92 Z " fill-rule="evenodd"/>
</clipPath>
<g clip-path="url(#cp38161)">
<text xml:space="preserve" transform="matrix(1 0 -0 1 0 841.92)" font-size="9" font-family="Times New Roman,Italic" font-style="italic"><tspan y="-381.89" x="489.82">i</tspan></text>
</g>
<clipPath id="cp38162">
<path transform="matrix(1,0,0,-1,0,841.92)" d="M .000008871 0 L 595.32 0 L 595.32 841.92 L .000008871 841.92 Z " fill-rule="evenodd"/>
</clipPath>
<g clip-path="url(#cp38162)">
<text xml:space="preserve" transform="matrix(1 0 -0 1 0 841.92)" font-size="14.04" font-family="Times New Roman,Italic" font-style="italic"><tspan y="-383.45" x="492.34 495.85 499.76719">, q</tspan></text>
</g>
<clipPath id="cp38163">
<path transform="matrix(1,0,0,-1,0,841.92)" d="M .000008871 0 L 595.32 0 L 595.32 841.92 L .000008871 841.92 Z " fill-rule="evenodd"/>
</clipPath>
<g clip-path="url(#cp38163)">
<text xml:space="preserve" transform="matrix(1 0 -0 1 0 841.92)" font-size="9" font-family="Times New Roman,Italic" font-style="italic"><tspan y="-381.89" x="506.86">i</tspan></text>
</g>
<clipPath id="cp38164">
<path transform="matrix(1,0,0,-1,0,841.92)" d="M .000008871 0 L 595.32 0 L 595.32 841.92 L .000008871 841.92 Z " fill-rule="evenodd"/>
</clipPath>
<g clip-path="url(#cp38164)">
<text xml:space="preserve" transform="matrix(1 0 -0 1 0 841.92)" font-size="14.04" font-family="Times New Roman,Italic" font-style="italic"><tspan y="-383.45" x="509.38"> </tspan></text>
</g>
<clipPath id="cp38165">
<path transform="matrix(1,0,0,-1,0,841.92)" d="M .000008871 0 L 595.32 0 L 595.32 841.92 L .000008871 841.92 Z " fill-rule="evenodd"/>
</clipPath>
<g clip-path="url(#cp38165)">
<text xml:space="preserve" transform="matrix(1 0 -0 1 0 841.92)" font-size="14.04" font-family="Times New Roman"><tspan y="-383.45" x="513.34 517.2853 523.51907 528.08206 532.1536 539.1175 543.06277 546.9097 553.0312 559.99508">lar bilan </tspan></text>
</g>
<clipPath id="cp38166">
<path transform="matrix(1,0,0,-1,0,841.92)" d="M .000008871 0 L 595.32 0 L 595.32 841.92 L .000008871 841.92 Z " fill-rule="evenodd"/>
</clipPath>
<g clip-path="url(#cp38166)">
<text xml:space="preserve" transform="matrix(1 0 -0 1 0 841.92)" font-size="14.04" font-family="Times New Roman"><tspan y="-359.21" x="85.104 92.166118 98.39987 102.24683 109.21067 113.155918 117.00288 123.23663 130.20047 140.88492 144.83016 151.06392 154.57392 158.14008 161.72028 174.20185 180.43561 187.51178 193.01546 199.9793 203.82625 210.88837 214.8336 218.3436 225.3636 231.59737 236.18845 243.25057 247.1958 250.776">belgilaymiz.  Mahsulot narxi  </tspan></text>
</g>
<clipPath id="cp38167">
<path transform="matrix(1,0,0,-1,0,841.92)" d="M .000008871 0 L 595.32 0 L 595.32 841.92 L .000008871 841.92 Z " fill-rule="evenodd"/>
</clipPath>
<g clip-path="url(#cp38167)">
<text xml:space="preserve" transform="matrix(1 0 -0 1 0 841.92)" font-size="14.04" font-family="Times New Roman,Italic" font-style="italic"><tspan y="-359.21" x="254.57">P</tspan></text>
</g>
<clipPath id="cp38168">
<path transform="matrix(1,0,0,-1,0,841.92)" d="M .000008871 0 L 595.32 0 L 595.32 841.92 L .000008871 841.92 Z " fill-rule="evenodd"/>
</clipPath>
<g clip-path="url(#cp38168)">
<text xml:space="preserve" transform="matrix(1 0 -0 1 0 841.92)" font-size="14.04" font-family="Times New Roman"><tspan y="-359.21" x="263.09"> </tspan></text>
</g>
<clipPath id="cp38169">
<path transform="matrix(1,0,0,-1,0,841.92)" d="M .000008871 0 L 595.32 0 L 595.32 841.92 L .000008871 841.92 Z " fill-rule="evenodd"/>
</clipPath>
<g clip-path="url(#cp38169)">
<text xml:space="preserve" transform="matrix(1 0 -0 1 0 841.92)" font-size="14.04" font-family="Times New Roman"><tspan y="-359.21" x="266.69 273.65385 279.8876 290.57206 294.15226 300.38603 307.46217 311.40739 318.46949 321.9795 325.43336 333.95564 341.01774 347.98158 355.04368 362.0075 368.24128 375.3174 378.82743 385.8474 390.4385 396.67228 403.7484 409.98219 414.54518 421.509 428.5711 434.80488 441.7687 445.61567 449.56089 455.79466 460.46998">ham aniq. Endogen o&#x2018;zgaruvchilar </tspan></text>
</g>
<clipPath id="cp38170">
<path transform="matrix(1,0,0,-1,0,841.92)" d="M .000008871 0 L 595.32 0 L 595.32 841.92 L .000008871 841.92 Z " fill-rule="evenodd"/>
</clipPath>
<g clip-path="url(#cp38170)">
<text xml:space="preserve" transform="matrix(1 0 -0 1 0 841.92)" font-size="14.04" font-family="Times New Roman"><tspan y="-359.21" x="464.26">&#x2013;</tspan></text>
</g>
<clipPath id="cp38171">
<path transform="matrix(1,0,0,-1,0,841.92)" d="M .000008871 0 L 595.32 0 L 595.32 841.92 L .000008871 841.92 Z " fill-rule="evenodd"/>
</clipPath>
<g clip-path="url(#cp38171)">
<text xml:space="preserve" transform="matrix(1 0 -0 1 0 841.92)" font-size="14.04" font-family="Times New Roman"><tspan y="-359.21" x="471.34"> </tspan></text>
</g>
<clipPath id="cp38172">
<path transform="matrix(1,0,0,-1,0,841.92)" d="M .000008871 0 L 595.32 0 L 595.32 841.92 L .000008871 841.92 Z " fill-rule="evenodd"/>
</clipPath>
<g clip-path="url(#cp38172)">
<text xml:space="preserve" transform="matrix(1 0 -0 1 0 841.92)" font-size="14.04" font-family="Times New Roman"><tspan y="-359.21" x="474.82 481.78385 488.84596 492.6929 498.92668 503.602 507.19624 514.1601 518.10537 523.51077 530.4746 537.53677 541.3837 547.6175 553.0229 559.98678">bular hisoblash </tspan></text>
</g>
<clipPath id="cp38173">
<path transform="matrix(1,0,0,-1,0,841.92)" d="M .000008871 0 L 595.32 0 L 595.32 841.92 L .000008871 841.92 Z " fill-rule="evenodd"/>
</clipPath>
<g clip-path="url(#cp38173)">
<text xml:space="preserve" transform="matrix(1 0 -0 1 0 841.92)" font-size="14.04" font-family="Times New Roman"><tspan y="-335.09" x="85.104 88.95096 95.184719 99.86004 106.093799 112.94531 120.00743 127.06955 131.01479 137.97863 144.21239 148.52266 152.83293 157.1432 163.37697 170.45314 174.39838 181.36222 185.30745 191.4289 198.49102 204.61246 211.67458 215.52153 222.58365 228.7051 235.76721 240.07749 247.04132 254.10344 264.78788 271.13398 275.69697 279.64219 286.70429 297.38874 301.33396 307.56773 312.24305 316.55335 323.61546 330.67756 335.24055 339.18577 343.0327 350.09483 353.60484 357.88703 362.19734 369.25944 373.20466 379.43843 384.0014 391.0635 395.00874 399.31904 406.28288 410.2281 416.46186">jarayonida   aniqlanadigan noma&#x2019;lumlar bo&#x2018;lib,  ularni biz </tspan></text>
</g>
<clipPath id="cp38174">
<path transform="matrix(1,0,0,-1,0,841.92)" d="M .000008871 0 L 595.32 0 L 595.32 841.92 L .000008871 841.92 Z " fill-rule="evenodd"/>
</clipPath>
<g clip-path="url(#cp38174)">
<text xml:space="preserve" transform="matrix(1 0 -0 1 0 841.92)" font-size="14.04" font-family="Times New Roman,Italic" font-style="italic"><tspan y="-335.09" x="421.27">x</tspan></text>
</g>
<clipPath id="cp38175">
<path transform="matrix(1,0,0,-1,0,841.92)" d="M .000008871 0 L 595.32 0 L 595.32 841.92 L .000008871 841.92 Z " fill-rule="evenodd"/>
</clipPath>
<g clip-path="url(#cp38175)">
<text xml:space="preserve" transform="matrix(1 0 -0 1 0 841.92)" font-size="9" font-family="Times New Roman,Italic" font-style="italic"><tspan y="-333.53" x="427.51">i</tspan></text>
</g>
<clipPath id="cp38176">
<path transform="matrix(1,0,0,-1,0,841.92)" d="M .000008871 0 L 595.32 0 L 595.32 841.92 L .000008871 841.92 Z " fill-rule="evenodd"/>
</clipPath>
<g clip-path="url(#cp38176)">
<text xml:space="preserve" transform="matrix(1 0 -0 1 0 841.92)" font-size="14.04" font-family="Times New Roman"><tspan y="-335.09" x="430.03"> </tspan></text>
</g>
<clipPath id="cp38177">
<path transform="matrix(1,0,0,-1,0,841.92)" d="M .000008871 0 L 595.32 0 L 595.32 841.92 L .000008871 841.92 Z " fill-rule="evenodd"/>
</clipPath>
<g clip-path="url(#cp38177)">
<text xml:space="preserve" transform="matrix(1 0 -0 1 0 841.92)" font-size="14.04" font-family="Times New Roman"><tspan y="-335.09" x="434.35 438.29524 444.41667 449.09199 453.40229 460.4644 465.1397 472.21586 478.33729 482.2825 486.22773 490.41166 497.47377 503.70753 507.55448 514.5183 518.46359 522.31057 528.5443 535.5082 546.19259 550.1378 556.3716 559.8816">lar orqali belgilaymiz. </tspan></text>
</g>
</g>
<g id="Layer-1" data-name="P">
<clipPath id="cp38178">
<path transform="matrix(1,0,0,-1,0,841.92)" d="M .000008871 0 L 595.32 0 L 595.32 841.92 L .000008871 841.92 Z " fill-rule="evenodd"/>
</clipPath>
<g clip-path="url(#cp38178)">
<text xml:space="preserve" transform="matrix(1 0 -0 1 0 841.92)" font-size="14.04" font-family="Times New Roman"><tspan y="-310.97" x="85.104 93.626277 100.68839 107.65223 111.59747 115.107479 125.76383 131.99759 137.51532 143.74909 147.69432 153.92809 160.89192 164.83716 171.801 175.64795 182.71007 189.77219 193.28218 204.05088 211.11299 218.07683 224.3106 228.15755 232.10279 239.06662 243.01186 246.52185 250.32669 257.3888 263.62257 269.85633 280.5548 284.50004 290.7338">Endi masalanining modelini tuzamiz.</tspan></text>
</g>
</g>
<g id="Layer-1" data-name="P">
<clipPath id="cp38179">
<path transform="matrix(1,0,0,-1,0,841.92)" d="M .000008871 0 L 595.32 0 L 595.32 841.92 L .000008871 841.92 Z " fill-rule="evenodd"/>
</clipPath>
<g clip-path="url(#cp38179)">
<text xml:space="preserve" transform="matrix(1 0 -0 1 0 841.92)" font-size="14.04" font-family="Times New Roman"><tspan y="-310.97" x="294.41"> </tspan></text>
</g>
</g>
<g id="Layer-1" data-name="P">
<clipPath id="cp38180">
<path transform="matrix(1,0,0,-1,0,841.92)" d="M 0 .000061035 L 595.32 .000061035 L 595.32 841.92007 L 0 841.92007 Z " fill-rule="evenodd"/>
</clipPath>
<g clip-path="url(#cp38180)">
<clipPath id="cp38181">
<path transform="matrix(1.2455139,0,0,-1.2285059,270.91,598.51)" d="M 0 0 L 111.36 0 L 111.36 45.827 L 0 45.827 Z " fill-rule="evenodd"/>
</clipPath>
<g clip-path="url(#cp38181)">
<text xml:space="preserve" transform="matrix(1.2455139 0 -0 1.2285059 270.91 598.51)" font-size="10.191" font-family="Times New Roman"><tspan y="-4.6913" x="107.52">.</tspan></text>
<text xml:space="preserve" transform="matrix(1.2455139 0 -0 1.2285059 270.91 598.51)" font-size="10.191" font-family="Times New Roman"><tspan y="-4.6913" x="55.409 58.28286 61.12615">...</tspan></text>
<text xml:space="preserve" transform="matrix(1.2455139 0 -0 1.2285059 270.91 598.51)" font-size="10.191" font-family="Times New Roman"><tspan y="-20.271" x="101.74">,</tspan></text>
<text xml:space="preserve" transform="matrix(1.2455139 0 -0 1.2285059 270.91 598.51)" font-size="10.191" font-family="Times New Roman"><tspan y="-20.271" x="50.413 53.286859 56.130147 59.004007">....</tspan></text>
<text xml:space="preserve" transform="matrix(1.2455139 0 -0 1.2285059 270.91 598.51)" font-size="10.191" font-family="Times New Roman"><tspan y="-35.852" x="104.84">,</tspan></text>
<text xml:space="preserve" transform="matrix(1.2455139 0 -0 1.2285059 270.91 598.51)" font-size="10.191" font-family="Times New Roman"><tspan y="-35.852" x="53.539 56.41286 59.25615">...</tspan></text>
<text xml:space="preserve" transform="matrix(1.2455139 0 -0 1.2285059 270.91 598.51)" font-size="7.1385" font-family="Times New Roman"><tspan y="-2.1481" x="42.216">2</tspan></text>
<text xml:space="preserve" transform="matrix(1.2455139 0 -0 1.2285059 270.91 598.51)" font-size="7.1385" font-family="Times New Roman"><tspan y="-2.1481" x="32.936">2</tspan></text>
<text xml:space="preserve" transform="matrix(1.2455139 0 -0 1.2285059 270.91 598.51)" font-size="7.1385" font-family="Times New Roman"><tspan y="-2.1481" x="14.351">1</tspan></text>
<text xml:space="preserve" transform="matrix(1.2455139 0 -0 1.2285059 270.91 598.51)" font-size="7.1385" font-family="Times New Roman"><tspan y="-2.1481" x="6.3754">1</tspan></text>
<text xml:space="preserve" transform="matrix(1.2455139 0 -0 1.2285059 270.91 598.51)" font-size="7.1385" font-family="Times New Roman"><tspan y="-17.728" x="37.219">2</tspan></text>
<text xml:space="preserve" transform="matrix(1.2455139 0 -0 1.2285059 270.91 598.51)" font-size="7.1385" font-family="Times New Roman"><tspan y="-17.728" x="27.914">2</tspan></text>
<text xml:space="preserve" transform="matrix(1.2455139 0 -0 1.2285059 270.91 598.51)" font-size="7.1385" font-family="Times New Roman"><tspan y="-17.728" x="11.84">1</tspan></text>
<text xml:space="preserve" transform="matrix(1.2455139 0 -0 1.2285059 270.91 598.51)" font-size="7.1385" font-family="Times New Roman"><tspan y="-17.728" x="3.8892">1</tspan></text>
<text xml:space="preserve" transform="matrix(1.2455139 0 -0 1.2285059 270.91 598.51)" font-size="7.1385" font-family="Times New Roman"><tspan y="-33.308" x="40.345">2</tspan></text>
<text xml:space="preserve" transform="matrix(1.2455139 0 -0 1.2285059 270.91 598.51)" font-size="7.1385" font-family="Times New Roman"><tspan y="-33.308" x="31.04">2</tspan></text>
<text xml:space="preserve" transform="matrix(1.2455139 0 -0 1.2285059 270.91 598.51)" font-size="7.1385" font-family="Times New Roman"><tspan y="-33.308" x="13.415">1</tspan></text>
<text xml:space="preserve" transform="matrix(1.2455139 0 -0 1.2285059 270.91 598.51)" font-size="7.1385" font-family="Times New Roman"><tspan y="-33.308" x="5.44">1</tspan></text>
<text xml:space="preserve" transform="matrix(1.2455139 0 -0 1.2285059 270.91 598.51)" font-size="10.191" font-family="Times New Roman,Italic" font-style="italic"><tspan y="-4.6913" x="100.48">Q</tspan></text>
<text xml:space="preserve" transform="matrix(1.2455139 0 -0 1.2285059 270.91 598.51)" font-size="10.191" font-family="Times New Roman,Italic" font-style="italic"><tspan y="-4.6913" x="81.453">x</tspan></text>
<text xml:space="preserve" transform="matrix(1.2455139 0 -0 1.2285059 270.91 598.51)" font-size="10.191" font-family="Times New Roman,Italic" font-style="italic"><tspan y="-4.6913" x="71.434">q</tspan></text>
<text xml:space="preserve" transform="matrix(1.2455139 0 -0 1.2285059 270.91 598.51)" font-size="10.191" font-family="Times New Roman,Italic" font-style="italic"><tspan y="-4.6913" x="37.514">x</tspan></text>
<text xml:space="preserve" transform="matrix(1.2455139 0 -0 1.2285059 270.91 598.51)" font-size="10.191" font-family="Times New Roman,Italic" font-style="italic"><tspan y="-4.6913" x="27.619">q</tspan></text>
<text xml:space="preserve" transform="matrix(1.2455139 0 -0 1.2285059 270.91 598.51)" font-size="10.191" font-family="Times New Roman,Italic" font-style="italic"><tspan y="-4.6913" x="10.437">x</tspan></text>
<text xml:space="preserve" transform="matrix(1.2455139 0 -0 1.2285059 270.91 598.51)" font-size="10.191" font-family="Times New Roman,Italic" font-style="italic"><tspan y="-4.6913" x="1.8462">q</tspan></text>
<text xml:space="preserve" transform="matrix(1.2455139 0 -0 1.2285059 270.91 598.51)" font-size="10.191" font-family="Times New Roman,Italic" font-style="italic"><tspan y="-20.271" x="96.124">L</tspan></text>
<text xml:space="preserve" transform="matrix(1.2455139 0 -0 1.2285059 270.91 598.51)" font-size="10.191" font-family="Times New Roman,Italic" font-style="italic"><tspan y="-20.271" x="76.456">x</tspan></text>
<text xml:space="preserve" transform="matrix(1.2455139 0 -0 1.2285059 270.91 598.51)" font-size="10.191" font-family="Times New Roman,Italic" font-style="italic"><tspan y="-20.271" x="68.628">l</tspan></text>
<text xml:space="preserve" transform="matrix(1.2455139 0 -0 1.2285059 270.91 598.51)" font-size="10.191" font-family="Times New Roman,Italic" font-style="italic"><tspan y="-20.271" x="32.517">x</tspan></text>
<text xml:space="preserve" transform="matrix(1.2455139 0 -0 1.2285059 270.91 598.51)" font-size="10.191" font-family="Times New Roman,Italic" font-style="italic"><tspan y="-20.271" x="24.788">l</tspan></text>
<text xml:space="preserve" transform="matrix(1.2455139 0 -0 1.2285059 270.91 598.51)" font-size="10.191" font-family="Times New Roman,Italic" font-style="italic"><tspan y="-20.271" x="7.9508">x</tspan></text>
<text xml:space="preserve" transform="matrix(1.2455139 0 -0 1.2285059 270.91 598.51)" font-size="10.191" font-family="Times New Roman,Italic" font-style="italic"><tspan y="-20.271" x="1.5262">l</tspan></text>
<text xml:space="preserve" transform="matrix(1.2455139 0 -0 1.2285059 270.91 598.51)" font-size="10.191" font-family="Times New Roman,Italic" font-style="italic"><tspan y="-35.852" x="98.29">&#x0415;</tspan></text>
<text xml:space="preserve" transform="matrix(1.2455139 0 -0 1.2285059 270.91 598.51)" font-size="10.191" font-family="Times New Roman,Italic" font-style="italic"><tspan y="-35.852" x="78.647">x</tspan></text>
<text xml:space="preserve" transform="matrix(1.2455139 0 -0 1.2285059 270.91 598.51)" font-size="10.191" font-family="Times New Roman,Italic" font-style="italic"><tspan y="-35.852" x="69.416">&#x0435;</tspan></text>
<text xml:space="preserve" transform="matrix(1.2455139 0 -0 1.2285059 270.91 598.51)" font-size="10.191" font-family="Times New Roman,Italic" font-style="italic"><tspan y="-35.852" x="35.643">x</tspan></text>
<text xml:space="preserve" transform="matrix(1.2455139 0 -0 1.2285059 270.91 598.51)" font-size="10.191" font-family="Times New Roman,Italic" font-style="italic"><tspan y="-35.852" x="26.511">&#x0435;</tspan></text>
<text xml:space="preserve" transform="matrix(1.2455139 0 -0 1.2285059 270.91 598.51)" font-size="10.191" font-family="Times New Roman,Italic" font-style="italic"><tspan y="-35.852" x="9.5016">x</tspan></text>
<text xml:space="preserve" transform="matrix(1.2455139 0 -0 1.2285059 270.91 598.51)" font-size="10.191" font-family="Times New Roman,Italic" font-style="italic"><tspan y="-35.852" x="1.6985">&#x0435;</tspan></text>
<text xml:space="preserve" transform="matrix(1.2455139 0 -0 1.2285059 270.91 598.51)" font-size="7.1385" font-family="Times New Roman,Italic" font-style="italic"><tspan y="-2.1481" x="86.13">n</tspan></text>
<text xml:space="preserve" transform="matrix(1.2455139 0 -0 1.2285059 270.91 598.51)" font-size="7.1385" font-family="Times New Roman,Italic" font-style="italic"><tspan y="-2.1481" x="76.751">n</tspan></text>
<text xml:space="preserve" transform="matrix(1.2455139 0 -0 1.2285059 270.91 598.51)" font-size="7.1385" font-family="Times New Roman,Italic" font-style="italic"><tspan y="-17.728" x="81.133">n</tspan></text>
<text xml:space="preserve" transform="matrix(1.2455139 0 -0 1.2285059 270.91 598.51)" font-size="7.1385" font-family="Times New Roman,Italic" font-style="italic"><tspan y="-17.728" x="71.754">n</tspan></text>
<text xml:space="preserve" transform="matrix(1.2455139 0 -0 1.2285059 270.91 598.51)" font-size="7.1385" font-family="Times New Roman,Italic" font-style="italic"><tspan y="-33.308" x="83.323">n</tspan></text>
<text xml:space="preserve" transform="matrix(1.2455139 0 -0 1.2285059 270.91 598.51)" font-size="7.1385" font-family="Times New Roman,Italic" font-style="italic"><tspan y="-33.308" x="73.945">n</tspan></text>
<text xml:space="preserve" transform="matrix(1.2455139 0 -0 1.2285059 270.91 598.51)" font-size="10.191" font-family="Symbol"><tspan y="-4.6913" x="93.022">&#xf0a3;</tspan></text>
<text xml:space="preserve" transform="matrix(1.2455139 0 -0 1.2285059 270.91 598.51)" font-size="10.191" font-family="Symbol"><tspan y="-4.6913" x="64.025">&#xf02b;</tspan></text>
<text xml:space="preserve" transform="matrix(1.2455139 0 -0 1.2285059 270.91 598.51)" font-size="10.191" font-family="Symbol"><tspan y="-4.6913" x="48.591">&#xf02b;</tspan></text>
<text xml:space="preserve" transform="matrix(1.2455139 0 -0 1.2285059 270.91 598.51)" font-size="10.191" font-family="Symbol"><tspan y="-4.6913" x="20.209">&#xf02b;</tspan></text>
<text xml:space="preserve" transform="matrix(1.2455139 0 -0 1.2285059 270.91 598.51)" font-size="10.191" font-family="Symbol"><tspan y="-20.271" x="88.025">&#xf0a3;</tspan></text>
<text xml:space="preserve" transform="matrix(1.2455139 0 -0 1.2285059 270.91 598.51)" font-size="10.191" font-family="Symbol"><tspan y="-20.271" x="61.539">&#xf02b;</tspan></text>
<text xml:space="preserve" transform="matrix(1.2455139 0 -0 1.2285059 270.91 598.51)" font-size="10.191" font-family="Symbol"><tspan y="-20.271" x="43.594">&#xf02b;</tspan></text>
<text xml:space="preserve" transform="matrix(1.2455139 0 -0 1.2285059 270.91 598.51)" font-size="10.191" font-family="Symbol"><tspan y="-20.271" x="17.699">&#xf02b;</tspan></text>
<text xml:space="preserve" transform="matrix(1.2455139 0 -0 1.2285059 270.91 598.51)" font-size="10.191" font-family="Symbol"><tspan y="-35.852" x="90.191">&#xf0a3;</tspan></text>
<text xml:space="preserve" transform="matrix(1.2455139 0 -0 1.2285059 270.91 598.51)" font-size="10.191" font-family="Symbol"><tspan y="-35.852" x="62.154">&#xf02b;</tspan></text>
<text xml:space="preserve" transform="matrix(1.2455139 0 -0 1.2285059 270.91 598.51)" font-size="10.191" font-family="Symbol"><tspan y="-35.852" x="46.72">&#xf02b;</tspan></text>
<text xml:space="preserve" transform="matrix(1.2455139 0 -0 1.2285059 270.91 598.51)" font-size="10.191" font-family="Symbol"><tspan y="-35.852" x="19.249">&#xf02b;</tspan></text>
</g>
</g>
</g>
<g id="Layer-1" data-name="P">
<clipPath id="cp38182">
<path transform="matrix(1,0,0,-1,0,841.92)" d="M .000008871 0 L 595.32 0 L 595.32 841.92 L .000008871 841.92 Z " fill-rule="evenodd"/>
</clipPath>
<g clip-path="url(#cp38182)">
<text xml:space="preserve" transform="matrix(1 0 -0 1 0 841.92)" font-size="14.04" font-family="Times New Roman"><tspan y="-263.45" x="409.63"> </tspan></text>
</g>
</g>
<g id="Layer-1" data-name="P">
<clipPath id="cp38183">
<path transform="matrix(1,0,0,-1,0,841.92)" d="M .000008871 0 L 595.32 0 L 595.32 841.92 L .000008871 841.92 Z " fill-rule="evenodd"/>
</clipPath>
<g clip-path="url(#cp38183)">
<text xml:space="preserve" transform="matrix(1 0 -0 1 0 841.92)" font-size="14.04" font-family="Times New Roman"><tspan y="-222.29" x="120.5 127.56212 134.62424 139.52419 146.36167 152.59543 157.27075 164.34693 170.58069">bu yerda </tspan></text>
</g>
</g>
<g id="Layer-1" data-name="P">
<clipPath id="cp38184">
<path transform="matrix(1,0,0,-1,0,841.92)" d="M 0 .000061035 L 595.32 .000061035 L 595.32 841.92007 L 0 841.92007 Z " fill-rule="evenodd"/>
</clipPath>
<g clip-path="url(#cp38184)">
<clipPath id="cp38185">
<path transform="matrix(1.1601952,0,0,-1.14265,175.61,624.66)" d="M 0 0 L 27.84 0 L 27.84 15.753 L 0 15.753 Z " fill-rule="evenodd"/>
</clipPath>
<g clip-path="url(#cp38185)">
<text xml:space="preserve" transform="matrix(1.1601952 0 -0 1.14265 175.61 624.66)" font-size="10.511" font-family="Times New Roman"><tspan y="-5.2098" x="20.751">0</tspan></text>
<text xml:space="preserve" transform="matrix(1.1601952 0 -0 1.14265 175.61 624.66)" font-size="10.511" font-family="Symbol"><tspan y="-5.2098" x="12.628">&#xf0b3;</tspan></text>
<text xml:space="preserve" transform="matrix(1.1601952 0 -0 1.14265 175.61 624.66)" font-size="7.36" font-family="Times New Roman,Italic" font-style="italic"><tspan y="-2.5679" x="6.8923">i</tspan></text>
<text xml:space="preserve" transform="matrix(1.1601952 0 -0 1.14265 175.61 624.66)" font-size="10.511" font-family="Times New Roman,Italic" font-style="italic"><tspan y="-5.2098" x="2.3877">x</tspan></text>
</g>
</g>
</g>
<g id="Layer-1" data-name="P">
<clipPath id="cp38186">
<path transform="matrix(1,0,0,-1,0,841.92)" d="M .000008871 0 L 595.32 0 L 595.32 841.92 L .000008871 841.92 Z " fill-rule="evenodd"/>
</clipPath>
<g clip-path="url(#cp38186)">
<text xml:space="preserve" transform="matrix(1 0 -0 1 0 841.92)" font-size="14.04" font-family="Times New Roman"><tspan y="-222.29" x="207.89 211.4 216.39823 221.29817 226.19812 236.27884 243.34096 249.57472 254.25005 259.16404 266.22615 273.28825 278.31459 288.99903 295.2328 300.7505 306.98426 310.92948 317.16325">.   Agar bu masala </tspan></text>
</g>
<clipPath id="cp38187">
<path transform="matrix(1,0,0,-1,0,841.92)" d="M .000008871 0 L 595.32 0 L 595.32 841.92 L .000008871 841.92 Z " fill-rule="evenodd"/>
</clipPath>
<g clip-path="url(#cp38187)">
<text xml:space="preserve" transform="matrix(1 0 -0 1 0 841.92)" font-size="14.04" font-family="Times New Roman"><tspan y="-222.29" x="322.27 329.3321 336.29594 340.24116 344.18638 354.87083 361.10459 365.0498 368.99504 375.11647 380.62013 387.58396 391.4309 395.27787 399.9532 403.8984 409.3038 416.3659 421.26588 431.95033 438.18409 443.70179 449.93556 453.88078 460.11454 465.51994 469.46516 474.3651 481.42723 488.48933 493.0523 496.89927 502.40293 508.6367 512.14669 517.0326 527.82937 534.0631 541.1393 546.64297 552.7644 559.7283">optimallashtirish masalasi bo&#x2018;lsa, maksad </tspan></text>
</g>
<clipPath id="cp38188">
<path transform="matrix(1,0,0,-1,0,841.92)" d="M .000008871 0 L 595.32 0 L 595.32 841.92 L .000008871 841.92 Z " fill-rule="evenodd"/>
</clipPath>
<g clip-path="url(#cp38188)">
<text xml:space="preserve" transform="matrix(1 0 -0 1 0 841.92)" font-size="14.04" font-family="Times New Roman"><tspan y="-196.1" x="85.104 89.77932 96.85548 103.81931 110.78315 116.286838 120.23208 127.06956 133.30332 138.82105 142.76628 146.27628 149.60375 156.66587 162.89963 173.58408 177.09407 180.64618 191.44295 197.67671 204.75289 208.59984 215.66196 222.72408 226.23407 233.16983 240.23195 244.79496 248.74019 254.86164 261.92375 265.7707">funksiyasi  ham  mavjud bo&#x2018;ladi:</tspan></text>
</g>
<clipPath id="cp38189">
<path transform="matrix(1,0,0,-1,0,841.92)" d="M .000008871 0 L 595.32 0 L 595.32 841.92 L .000008871 841.92 Z " fill-rule="evenodd"/>
</clipPath>
<g clip-path="url(#cp38189)">
<text xml:space="preserve" transform="matrix(1 0 -0 1 0 841.92)" font-size="14.04" font-family="Times New Roman"><tspan y="-196.1" x="269.93 273.41">  </tspan></text>
</g>
</g>
<g id="Layer-1" data-name="P">
<clipPath id="cp38190">
<path transform="matrix(1,0,0,-1,0,841.92)" d="M 0 .000061035 L 595.32 .000061035 L 595.32 841.92007 L 0 841.92007 Z " fill-rule="evenodd"/>
</clipPath>
<g clip-path="url(#cp38190)">
<clipPath id="cp38191">
<path transform="matrix(1.0719293,0,0,-1.0505982,276.91,650.81)" d="M 0 0 L 136.35 0 L 136.35 15.753 L 0 15.753 Z " fill-rule="evenodd"/>
</clipPath>
<g clip-path="url(#cp38191)">
<text xml:space="preserve" transform="matrix(1.0719293 0 -0 1.0505982 276.91 650.81)" font-size="10.511" font-family="Times New Roman"><tspan y="-5.2098" x="116.75 124.62274 128.90073">max</tspan></text>
<text xml:space="preserve" transform="matrix(1.0719293 0 -0 1.0505982 276.91 650.81)" font-size="10.511" font-family="Times New Roman"><tspan y="-5.2098" x="60.85 63.7195 66.567989 69.437488">....</tspan></text>
<text xml:space="preserve" transform="matrix(1.0719293 0 -0 1.0505982 276.91 650.81)" font-size="7.36" font-family="Times New Roman"><tspan y="-2.5926" x="46.745">2</tspan></text>
<text xml:space="preserve" transform="matrix(1.0719293 0 -0 1.0505982 276.91 650.81)" font-size="7.36" font-family="Times New Roman"><tspan y="-2.5926" x="37.096">2</tspan></text>
<text xml:space="preserve" transform="matrix(1.0719293 0 -0 1.0505982 276.91 650.81)" font-size="7.36" font-family="Times New Roman"><tspan y="-2.5926" x="16.148">1</tspan></text>
<text xml:space="preserve" transform="matrix(1.0719293 0 -0 1.0505982 276.91 650.81)" font-size="7.36" font-family="Times New Roman"><tspan y="-2.5926" x="7.8031">1</tspan></text>
<text xml:space="preserve" transform="matrix(1.0719293 0 -0 1.0505982 276.91 650.81)" font-size="10.511" font-family="Symbol"><tspan y="-5.2098" x="104.25">&#xf0ae;</tspan></text>
<text xml:space="preserve" transform="matrix(1.0719293 0 -0 1.0505982 276.91 650.81)" font-size="10.511" font-family="Symbol"><tspan y="-5.2098" x="72.37">&#xf02b;</tspan></text>
<text xml:space="preserve" transform="matrix(1.0719293 0 -0 1.0505982 276.91 650.81)" font-size="10.511" font-family="Symbol"><tspan y="-5.2098" x="53.686">&#xf02b;</tspan></text>
<text xml:space="preserve" transform="matrix(1.0719293 0 -0 1.0505982 276.91 650.81)" font-size="10.511" font-family="Symbol"><tspan y="-5.2098" x="22.572">&#xf02b;</tspan></text>
<text xml:space="preserve" transform="matrix(1.0719293 0 -0 1.0505982 276.91 650.81)" font-size="7.36" font-family="Times New Roman,Italic" font-style="italic"><tspan y="-2.5926" x="96.69">n</tspan></text>
<text xml:space="preserve" transform="matrix(1.0719293 0 -0 1.0505982 276.91 650.81)" font-size="7.36" font-family="Times New Roman,Italic" font-style="italic"><tspan y="-2.5926" x="86.893">n</tspan></text>
<text xml:space="preserve" transform="matrix(1.0719293 0 -0 1.0505982 276.91 650.81)" font-size="10.511" font-family="Times New Roman,Italic" font-style="italic"><tspan y="-5.2098" x="91.816">x</tspan></text>
<text xml:space="preserve" transform="matrix(1.0719293 0 -0 1.0505982 276.91 650.81)" font-size="10.511" font-family="Times New Roman,Italic" font-style="italic"><tspan y="-5.2098" x="81.403">p</tspan></text>
<text xml:space="preserve" transform="matrix(1.0719293 0 -0 1.0505982 276.91 650.81)" font-size="10.511" font-family="Times New Roman,Italic" font-style="italic"><tspan y="-5.2098" x="41.871">x</tspan></text>
<text xml:space="preserve" transform="matrix(1.0719293 0 -0 1.0505982 276.91 650.81)" font-size="10.511" font-family="Times New Roman,Italic" font-style="italic"><tspan y="-5.2098" x="31.582">p</tspan></text>
<text xml:space="preserve" transform="matrix(1.0719293 0 -0 1.0505982 276.91 650.81)" font-size="10.511" font-family="Times New Roman,Italic" font-style="italic"><tspan y="-5.2098" x="12.062">x</tspan></text>
<text xml:space="preserve" transform="matrix(1.0719293 0 -0 1.0505982 276.91 650.81)" font-size="10.511" font-family="Times New Roman,Italic" font-style="italic"><tspan y="-5.2098" x="3.1016">p</tspan></text>
</g>
</g>
</g>
<g id="Layer-1" data-name="P">
<clipPath id="cp38192">
<path transform="matrix(1,0,0,-1,0,841.92)" d="M .000008871 0 L 595.32 0 L 595.32 841.92 L .000008871 841.92 Z " fill-rule="evenodd"/>
</clipPath>
<g clip-path="url(#cp38192)">
<text xml:space="preserve" transform="matrix(1 0 -0 1 0 841.92)" font-size="14.04" font-family="Times New Roman"><tspan y="-196.1" x="423.07">.</tspan></text>
</g>
<clipPath id="cp38193">
<path transform="matrix(1,0,0,-1,0,841.92)" d="M .000008871 0 L 595.32 0 L 595.32 841.92 L .000008871 841.92 Z " fill-rule="evenodd"/>
</clipPath>
<g clip-path="url(#cp38193)">
<text xml:space="preserve" transform="matrix(1 0 -0 1 0 841.92)" font-size="14.04" font-family="Times New Roman"><tspan y="-196.1" x="426.55"> </tspan></text>
</g>
</g>
<g id="Layer-1" data-name="P">
<clipPath id="cp38194">
<path transform="matrix(1,0,0,-1,0,841.92)" d="M .000008871 0 L 595.32 0 L 595.32 841.92 L .000008871 841.92 Z " fill-rule="evenodd"/>
</clipPath>
<g clip-path="url(#cp38194)">
<text xml:space="preserve" transform="matrix(1 0 -0 1 0 841.92)" font-size="14.04" font-family="Times New Roman"><tspan y="-170.3" x="120.5 132.98 139.21219">Mat</tspan></text>
</g>
<clipPath id="cp38195">
<path transform="matrix(1,0,0,-1,0,841.92)" d="M .000008871 0 L 595.32 0 L 595.32 841.92 L .000008871 841.92 Z " fill-rule="evenodd"/>
</clipPath>
<g clip-path="url(#cp38195)">
<text xml:space="preserve" transform="matrix(1 0 -0 1 0 841.92)" font-size="14.04" font-family="Times New Roman"><tspan y="-170.3" x="143.18">e</tspan></text>
</g>
<clipPath id="cp38196">
<path transform="matrix(1,0,0,-1,0,841.92)" d="M .000008871 0 L 595.32 0 L 595.32 841.92 L .000008871 841.92 Z " fill-rule="evenodd"/>
</clipPath>
<g clip-path="url(#cp38196)">
<text xml:space="preserve" transform="matrix(1 0 -0 1 0 841.92)" font-size="14.04" font-family="Times New Roman"><tspan y="-170.3" x="149.42 160.10445 166.33821 170.28345 174.1304 181.19252 185.50279">matik m</tspan></text>
</g>
<clipPath id="cp38197">
<path transform="matrix(1,0,0,-1,0,841.92)" d="M .000008871 0 L 595.32 0 L 595.32 841.92 L .000008871 841.92 Z " fill-rule="evenodd"/>
</clipPath>
<g clip-path="url(#cp38197)">
<text xml:space="preserve" transform="matrix(1 0 -0 1 0 841.92)" font-size="14.04" font-family="Times New Roman"><tspan y="-170.3" x="196.25">o</tspan></text>
</g>
<clipPath id="cp38198">
<path transform="matrix(1,0,0,-1,0,841.92)" d="M .000008871 0 L 595.32 0 L 595.32 841.92 L .000008871 841.92 Z " fill-rule="evenodd"/>
</clipPath>
<g clip-path="url(#cp38198)">
<text xml:space="preserve" transform="matrix(1 0 -0 1 0 841.92)" font-size="14.04" font-family="Times New Roman"><tspan y="-170.3" x="203.33">d</tspan></text>
</g>
<clipPath id="cp38199">
<path transform="matrix(1,0,0,-1,0,841.92)" d="M .000008871 0 L 595.32 0 L 595.32 841.92 L .000008871 841.92 Z " fill-rule="evenodd"/>
</clipPath>
<g clip-path="url(#cp38199)">
<text xml:space="preserve" transform="matrix(1 0 -0 1 0 841.92)" font-size="14.04" font-family="Times New Roman"><tspan y="-170.3" x="210.41">e</tspan></text>
</g>
<clipPath id="cp38200">
<path transform="matrix(1,0,0,-1,0,841.92)" d="M .000008871 0 L 595.32 0 L 595.32 841.92 L .000008871 841.92 Z " fill-rule="evenodd"/>
</clipPath>
<g clip-path="url(#cp38200)">
<text xml:space="preserve" transform="matrix(1 0 -0 1 0 841.92)" font-size="14.04" font-family="Times New Roman"><tspan y="-170.3" x="216.53 220.47524 224.65915 228.60439 235.56822 241.68967 245.6349 249.48186 256.54399 262.6654 269.7275 273.57447 280.63658 286.758 293.8201 298.00404">l tuzilganidan k</tspan></text>
</g>
<clipPath id="cp38201">
<path transform="matrix(1,0,0,-1,0,841.92)" d="M .000008871 0 L 595.32 0 L 595.32 841.92 L .000008871 841.92 Z " fill-rule="evenodd"/>
</clipPath>
<g clip-path="url(#cp38201)">
<text xml:space="preserve" transform="matrix(1 0 -0 1 0 841.92)" font-size="14.04" font-family="Times New Roman"><tspan y="-170.3" x="305.21">e</tspan></text>
</g>
<clipPath id="cp38202">
<path transform="matrix(1,0,0,-1,0,841.92)" d="M .000008871 0 L 595.32 0 L 595.32 841.92 L .000008871 841.92 Z " fill-rule="evenodd"/>
</clipPath>
<g clip-path="url(#cp38202)">
<text xml:space="preserve" transform="matrix(1 0 -0 1 0 841.92)" font-size="14.04" font-family="Times New Roman"><tspan y="-170.3" x="311.45 318.28749 322.2327 329.2948 333.47874 344.16319 350.39695 355.91465 362.1484 366.09364 372.3274 379.29124 383.23646 387.42039">yin masalani y</tspan></text>
</g>
<clipPath id="cp38203">
<path transform="matrix(1,0,0,-1,0,841.92)" d="M .000008871 0 L 595.32 0 L 595.32 841.92 L .000008871 841.92 Z " fill-rule="evenodd"/>
</clipPath>
<g clip-path="url(#cp38203)">
<text xml:space="preserve" transform="matrix(1 0 -0 1 0 841.92)" font-size="14.04" font-family="Times New Roman"><tspan y="-170.3" x="394.39">e</tspan></text>
</g>
<clipPath id="cp38204">
<path transform="matrix(1,0,0,-1,0,841.92)" d="M .000008871 0 L 595.32 0 L 595.32 841.92 L .000008871 841.92 Z " fill-rule="evenodd"/>
</clipPath>
<g clip-path="url(#cp38204)">
<text xml:space="preserve" transform="matrix(1 0 -0 1 0 841.92)" font-size="14.04" font-family="Times New Roman"><tspan y="-170.3" x="400.63 406.86378 413.9399 417.78688 423.29054 430.35264 434.42427 441.48637 446.89176 453.95387 457.8008 461.64778 468.70988 472.6551 476.1651 480.19459 486.42835 490.37358">chish usulini, alg</tspan></text>
</g>
<clipPath id="cp38205">
<path transform="matrix(1,0,0,-1,0,841.92)" d="M .000008871 0 L 595.32 0 L 595.32 841.92 L .000008871 841.92 Z " fill-rule="evenodd"/>
</clipPath>
<g clip-path="url(#cp38205)">
<text xml:space="preserve" transform="matrix(1 0 -0 1 0 841.92)" font-size="14.04" font-family="Times New Roman"><tspan y="-170.3" x="497.5">o</tspan></text>
</g>
<clipPath id="cp38206">
<path transform="matrix(1,0,0,-1,0,841.92)" d="M .000008871 0 L 595.32 0 L 595.32 841.92 L .000008871 841.92 Z " fill-rule="evenodd"/>
</clipPath>
<g clip-path="url(#cp38206)">
<text xml:space="preserve" transform="matrix(1 0 -0 1 0 841.92)" font-size="14.04" font-family="Times New Roman"><tspan y="-170.3" x="504.58 509.14299 513.0882 517.03347 527.71786 531.6631 538.62698 542.5722 546.75619 553.8183 559.93978">ritmini va </tspan></text>
</g>
<clipPath id="cp38207">
<path transform="matrix(1,0,0,-1,0,841.92)" d="M .000008871 0 L 595.32 0 L 595.32 841.92 L .000008871 841.92 Z " fill-rule="evenodd"/>
</clipPath>
<g clip-path="url(#cp38207)">
<text xml:space="preserve" transform="matrix(1 0 -0 1 0 841.92)" font-size="14.04" font-family="Times New Roman"><tspan y="-146.06" x="85.104 92.166118 98.39987 103.805278 107.65224 114.714359 119.38968 123.23664 130.20047 134.1457 137.6557 141.46054 146.96422 153.92806 157.87329 163.99474 171.05686 174.56685 180.66022 187.72234 191.56929 198.63141 202.47837 207.98204 215.04416 218.55416 225.36356 232.42568 239.38951 243.33475 246.84474 257.5011 263.73487 270.811 274.65797 281.72007 288.78218 292.29219 298.52595 309.1823 315.41609 319.3613 323.30653 330.27037 333.78038 340.80036 347.03413 352.49568 356.39878 363.503 368.1783 371.5479 378.61003 384.73146 391.79356 397.91499 401.8602 405.80543 412.03919 416.60218 420.44914 427.51124 433.63267 440.69477 444.20478 448.8801 455.9001 462.77967 469.84178 476.07554 480.02076 486.14219 493.20429 497.05125 502.45664 509.51875 513.02877 520.04879 526.28256 530.8736">dasturini ishlab chiqish yoki mavjud amaliy dastur paketlaridan foydalanish kera</tspan></text>
</g>
<clipPath id="cp38208">
<path transform="matrix(1,0,0,-1,0,841.92)" d="M .000008871 0 L 595.32 0 L 595.32 841.92 L .000008871 841.92 Z " fill-rule="evenodd"/>
</clipPath>
<g clip-path="url(#cp38208)">
<text xml:space="preserve" transform="matrix(1 0 -0 1 0 841.92)" font-size="14.04" font-family="Times New Roman"><tspan y="-146.06" x="537.58 544.66006">k.</tspan></text>
</g>
<clipPath id="cp38209">
<path transform="matrix(1,0,0,-1,0,841.92)" d="M .000008871 0 L 595.32 0 L 595.32 841.92 L .000008871 841.92 Z " fill-rule="evenodd"/>
</clipPath>
<g clip-path="url(#cp38209)">
<text xml:space="preserve" transform="matrix(1 0 -0 1 0 841.92)" font-size="14.04" font-family="Times New Roman"><tspan y="-146.06" x="548.02"> </tspan></text>
</g>
</g>
<g id="Layer-1" data-name="P">
<clipPath id="cp38210">
<path transform="matrix(1,0,0,-1,0,841.92)" d="M .000008871 0 L 595.32 0 L 595.32 841.92 L .000008871 841.92 Z " fill-rule="evenodd"/>
</clipPath>
<g clip-path="url(#cp38210)">
<text xml:space="preserve" transform="matrix(1 0 -0 1 0 841.92)" font-size="14.04" font-family="Times New Roman"><tspan y="-121.94" x="120.5">Y</tspan></text>
</g>
<clipPath id="cp38211">
<path transform="matrix(1,0,0,-1,0,841.92)" d="M .000008871 0 L 595.32 0 L 595.32 841.92 L .000008871 841.92 Z " fill-rule="evenodd"/>
</clipPath>
<g clip-path="url(#cp38211)">
<text xml:space="preserve" transform="matrix(1 0 -0 1 0 841.92)" font-size="14.04" font-family="Times New Roman"><tspan y="-121.94" x="130.58">e</tspan></text>
</g>
<clipPath id="cp38212">
<path transform="matrix(1,0,0,-1,0,841.92)" d="M .000008871 0 L 595.32 0 L 595.32 841.92 L .000008871 841.92 Z " fill-rule="evenodd"/>
</clipPath>
<g clip-path="url(#cp38212)">
<text xml:space="preserve" transform="matrix(1 0 -0 1 0 841.92)" font-size="14.04" font-family="Times New Roman"><tspan y="-121.94" x="136.82 143.05377 150.12995 153.9769 159.3823 166.44441 173.74521 180.80733 186.21273 193.17656 197.1218 201.06703 208.36783 215.33167 222.39379 229.23126 233.1765 240.14034 246.3741 253.45027 257.29725 264.72444 270.12983 277.19194 283.4257 287.98869 291.83564 295.78086 302.01463 306.5776 313.6397 317.48667 324.91383 331.97593 338.09736">chish usuli quyidagi shartlarni qan</tspan></text>
</g>
<clipPath id="cp38213">
<path transform="matrix(1,0,0,-1,0,841.92)" d="M .000008871 0 L 595.32 0 L 595.32 841.92 L .000008871 841.92 Z " fill-rule="evenodd"/>
</clipPath>
<g clip-path="url(#cp38213)">
<text xml:space="preserve" transform="matrix(1 0 -0 1 0 841.92)" font-size="14.04" font-family="Times New Roman"><tspan y="-121.94" x="345.31">o</tspan></text>
</g>
<clipPath id="cp38214">
<path transform="matrix(1,0,0,-1,0,841.92)" d="M .000008871 0 L 595.32 0 L 595.32 841.92 L .000008871 841.92 Z " fill-rule="evenodd"/>
</clipPath>
<g clip-path="url(#cp38214)">
<text xml:space="preserve" transform="matrix(1 0 -0 1 0 841.92)" font-size="14.04" font-family="Times New Roman"><tspan y="-121.94" x="352.39 358.51145 362.3584 366.30363 372.53739 379.50123 383.34819 387.2934 391.96873 395.81568 401.22108 408.28318 412.13014 419.5573">atlantirishi k</tspan></text>
</g>
<clipPath id="cp38215">
<path transform="matrix(1,0,0,-1,0,841.92)" d="M .000008871 0 L 595.32 0 L 595.32 841.92 L .000008871 841.92 Z " fill-rule="evenodd"/>
</clipPath>
<g clip-path="url(#cp38215)">
<text xml:space="preserve" transform="matrix(1 0 -0 1 0 841.92)" font-size="14.04" font-family="Times New Roman"><tspan y="-121.94" x="426.67">e</tspan></text>
</g>
<clipPath id="cp38216">
<path transform="matrix(1,0,0,-1,0,841.92)" d="M .000008871 0 L 595.32 0 L 595.32 841.92 L .000008871 841.92 Z " fill-rule="evenodd"/>
</clipPath>
<g clip-path="url(#cp38216)">
<text xml:space="preserve" transform="matrix(1 0 -0 1 0 841.92)" font-size="14.04" font-family="Times New Roman"><tspan y="-121.94" x="432.79 437.46534 443.6991 450.67698 454.6222 461.923 469.35017 476.314 482.43544 486.38066 490.32588 494.17283 500.4066">rak:  natija </tspan></text>
</g>
<clipPath id="cp38217">
<path transform="matrix(1,0,0,-1,0,841.92)" d="M .000008871 0 L 595.32 0 L 595.32 841.92 L .000008871 841.92 Z " fill-rule="evenodd"/>
</clipPath>
<g clip-path="url(#cp38217)">
<text xml:space="preserve" transform="matrix(1 0 -0 1 0 841.92)" font-size="14.04" font-family="Times New Roman"><tspan y="-121.94" x="507.82">o</tspan></text>
</g>
<clipPath id="cp38218">
<path transform="matrix(1,0,0,-1,0,841.92)" d="M .000008871 0 L 595.32 0 L 595.32 841.92 L .000008871 841.92 Z " fill-rule="evenodd"/>
</clipPath>
<g clip-path="url(#cp38218)">
<text xml:space="preserve" transform="matrix(1 0 -0 1 0 841.92)" font-size="14.04" font-family="Times New Roman"><tspan y="-121.94" x="514.78 518.7253 522.57229 528.0759 535.0398 542.00369 545.9489 552.9128 559.9749">lishning </tspan></text>
</g>
<clipPath id="cp38219">
<path transform="matrix(1,0,0,-1,0,841.92)" d="M .000008871 0 L 595.32 0 L 595.32 841.92 L .000008871 841.92 Z " fill-rule="evenodd"/>
</clipPath>
<g clip-path="url(#cp38219)">
<text xml:space="preserve" transform="matrix(1 0 -0 1 0 841.92)" font-size="14.04" font-family="Times New Roman"><tspan y="-97.824" x="85.104">t</tspan></text>
</g>
<clipPath id="cp38220">
<path transform="matrix(1,0,0,-1,0,841.92)" d="M .000008871 0 L 595.32 0 L 595.32 841.92 L .000008871 841.92 Z " fill-rule="evenodd"/>
</clipPath>
<g clip-path="url(#cp38220)">
<text xml:space="preserve" transform="matrix(1 0 -0 1 0 841.92)" font-size="14.04" font-family="Times New Roman"><tspan y="-97.824" x="89.064">e</tspan></text>
</g>
<clipPath id="cp38221">
<path transform="matrix(1,0,0,-1,0,841.92)" d="M .000008871 0 L 595.32 0 L 595.32 841.92 L .000008871 841.92 Z " fill-rule="evenodd"/>
</clipPath>
<g clip-path="url(#cp38221)">
<text xml:space="preserve" transform="matrix(1 0 -0 1 0 841.92)" font-size="14.04" font-family="Times New Roman"><tspan y="-97.824" x="95.304 101.42544 105.37068 109.21764 116.27976 120.225009 123.73501 129.81433 138.33661 148.41733 160.8989 167.00629">zligi, EHM &#x00f5;</tspan></text>
</g>
<clipPath id="cp38222">
<path transform="matrix(1,0,0,-1,0,841.92)" d="M .000008871 0 L 595.32 0 L 595.32 841.92 L .000008871 841.92 Z " fill-rule="evenodd"/>
</clipPath>
<g clip-path="url(#cp38222)">
<text xml:space="preserve" transform="matrix(1 0 -0 1 0 841.92)" font-size="14.04" font-family="Times New Roman"><tspan y="-97.824" x="174.14">o</tspan></text>
</g>
<clipPath id="cp38223">
<path transform="matrix(1,0,0,-1,0,841.92)" d="M .000008871 0 L 595.32 0 L 595.32 841.92 L .000008871 841.92 Z " fill-rule="evenodd"/>
</clipPath>
<g clip-path="url(#cp38223)">
<text xml:space="preserve" transform="matrix(1 0 -0 1 0 841.92)" font-size="14.04" font-family="Times New Roman"><tspan y="-97.824" x="181.1 185.04524 188.99048 193.55348 199.78725 205.19264 209.13788 216.10172 220.04695 226.15435 233.21646 239.45023 250.13468 256.3544 267.03886 270.98408 278.04618">tirasini kam miqd</tspan></text>
</g>
<clipPath id="cp38224">
<path transform="matrix(1,0,0,-1,0,841.92)" d="M .000008871 0 L 595.32 0 L 595.32 841.92 L .000008871 841.92 Z " fill-rule="evenodd"/>
</clipPath>
<g clip-path="url(#cp38224)">
<text xml:space="preserve" transform="matrix(1 0 -0 1 0 841.92)" font-size="14.04" font-family="Times New Roman"><tspan y="-97.824" x="285.29">o</tspan></text>
</g>
<clipPath id="cp38225">
<path transform="matrix(1,0,0,-1,0,841.92)" d="M .000008871 0 L 595.32 0 L 595.32 841.92 L .000008871 841.92 Z " fill-rule="evenodd"/>
</clipPath>
<g clip-path="url(#cp38225)">
<text xml:space="preserve" transform="matrix(1 0 -0 1 0 841.92)" font-size="14.04" font-family="Times New Roman"><tspan y="-97.824" x="292.37 297.04533 304.00917 310.24293 316.35035 320.29557 325.70097 332.76307 336.70829 342.8297 346.67668 350.6219 356.02729 363.0894 366.5994 372.6787">rda ishlatish, b</tspan></text>
</g>
<clipPath id="cp38226">
<path transform="matrix(1,0,0,-1,0,841.92)" d="M .000008871 0 L 595.32 0 L 595.32 841.92 L .000008871 841.92 Z " fill-rule="evenodd"/>
</clipPath>
<g clip-path="url(#cp38226)">
<text xml:space="preserve" transform="matrix(1 0 -0 1 0 841.92)" font-size="14.04" font-family="Times New Roman"><tspan y="-97.824" x="379.87">e</tspan></text>
</g>
<clipPath id="cp38227">
<path transform="matrix(1,0,0,-1,0,841.92)" d="M .000008871 0 L 595.32 0 L 595.32 841.92 L .000008871 841.92 Z " fill-rule="evenodd"/>
</clipPath>
<g clip-path="url(#cp38227)">
<text xml:space="preserve" transform="matrix(1 0 -0 1 0 841.92)" font-size="14.04" font-family="Times New Roman"><tspan y="-97.824" x="385.99 389.9352 396.89906 400.84428 404.69123 410.925 417.88883 424.95094 431.07237 438.13447 444.24189 451.304 457.53776 461.3847 465.32994 469.17689 475.2983 482.3604 486.20738 493.26948 500.33158 506.439 512.5604 519.62258 523.46957 530.4334 534.37869 538.22567 545.2878 549.13479 555.9723 559.8193">lgilangan natijaning aniqligini </tspan></text>
</g>
<clipPath id="cp38228">
<path transform="matrix(1,0,0,-1,0,841.92)" d="M .000008871 0 L 595.32 0 L 595.32 841.92 L .000008871 841.92 Z " fill-rule="evenodd"/>
</clipPath>
<g clip-path="url(#cp38228)">
<text xml:space="preserve" transform="matrix(1 0 -0 1 0 841.92)" font-size="14.04" font-family="Times New Roman"><tspan y="-73.704" x="85.104 89.04924 95.283 99.95832 110.64276 114.588008 121.65012 125.59537 131.71681 137.22049 144.28261 147.7926 160.82172 170.90244 177.1362 182.5416 186.38855 193.45067 198.12599 201.97295 208.20671 212.88204 219.9582 226.07965 233.14177 246.21302 250.88834 257.96449 264.80195 271.86405 278.0978 281.94477 288.17854 295.14237 302.20448 308.3259 315.388 322.35185 328.5856 341.65687 348.00297 358.6874 364.92118 368.8664 372.8116 379.64909 392.72035 399.78245 406.0162 411.5339 415.38087 422.44297 427.1183 430.96525 437.199 441.762 454.83326 461.89537 468.12913">ta&#x2019;minlash. Dasturlardan foydalanganda amaliy dasturlar pak</tspan></text>
</g>
<clipPath id="cp38229">
<path transform="matrix(1,0,0,-1,0,841.92)" d="M .000008871 0 L 595.32 0 L 595.32 841.92 L .000008871 841.92 Z " fill-rule="evenodd"/>
</clipPath>
<g clip-path="url(#cp38229)">
<text xml:space="preserve" transform="matrix(1 0 -0 1 0 841.92)" font-size="14.04" font-family="Times New Roman"><tspan y="-73.704" x="475.66">e</tspan></text>
</g>
<clipPath id="cp38230">
<path transform="matrix(1,0,0,-1,0,841.92)" d="M .000008871 0 L 595.32 0 L 595.32 841.92 L .000008871 841.92 Z " fill-rule="evenodd"/>
</clipPath>
<g clip-path="url(#cp38230)">
<text xml:space="preserve" transform="matrix(1 0 -0 1 0 841.92)" font-size="14.04" font-family="Times New Roman"><tspan y="-73.704" x="481.78 485.62696 489.57218 496.63429 502.7557 509.8178 522.88906 527.56436 537.6451 547.7258 555.4057 559.9687">tidan (AOP) </tspan></text>
</g>
</g>
</g>
</g>
</svg>
