<?xml version="1.0" encoding="UTF-8" standalone="no"?>
<!DOCTYPE svg PUBLIC "-//W3C//DTD SVG 1.1//EN" "http://www.w3.org/Graphics/SVG/1.1/DTD/svg11.dtd">
<svg xmlns="http://www.w3.org/2000/svg" xmlns:xlink="http://www.w3.org/1999/xlink" version="1.1" width="595.32pt" height="841.92pt" viewBox="0 0 595.32 841.92">
<g enable-background="new">
<g>
<g id="Layer-1" data-name="Artifact">
<clipPath id="cp39429">
<path transform="matrix(1,0,0,-1,0,841.92)" d="M .000008871 0 L 595.32 0 L 595.32 841.92 L .000008871 841.92 Z " fill-rule="evenodd"/>
</clipPath>
<g clip-path="url(#cp39429)">
<text xml:space="preserve" transform="matrix(1 0 -0 1 0 841.92)" font-size="11.04" font-family="Calibri"><tspan y="-51.864" x="314.09 319.72999 325.36997">247</tspan></text>
</g>
<clipPath id="cp39430">
<path transform="matrix(1,0,0,-1,0,841.92)" d="M .000008871 0 L 595.32 0 L 595.32 841.92 L .000008871 841.92 Z " fill-rule="evenodd"/>
</clipPath>
<g clip-path="url(#cp39430)">
<text xml:space="preserve" transform="matrix(1 0 -0 1 0 841.92)" font-size="11.04" font-family="Calibri"><tspan y="-51.864" x="331.03"> </tspan></text>
</g>
<clipPath id="cp39431">
<path transform="matrix(1,0,0,-1,0,841.92)" d="M .000008871 0 L 595.32 0 L 595.32 841.92 L .000008871 841.92 Z " fill-rule="evenodd"/>
</clipPath>
<g clip-path="url(#cp39431)">
</g>
<clipPath id="cp39432">
<path transform="matrix(1,0,0,-1,0,841.92)" d="M .000008871 0 L 595.32 0 L 595.32 841.92 L .000008871 841.92 Z " fill-rule="evenodd"/>
</clipPath>
<g clip-path="url(#cp39432)">
<text xml:space="preserve" transform="matrix(1 0 -0 1 0 841.92)" font-size="11.04" font-family="Calibri"><tspan y="-38.4" x="85.104"> </tspan></text>
</g>
<clipPath id="cp39433">
<path transform="matrix(1,0,0,-1,0,841.92)" d="M .000008871 0 L 595.32 0 L 595.32 841.92 L .000008871 841.92 Z " fill-rule="evenodd"/>
</clipPath>
<g clip-path="url(#cp39433)">
</g>
</g>
<g id="Layer-1" data-name="P">
<clipPath id="cp39434">
<path transform="matrix(1,0,0,-1,0,841.92)" d="M .000008871 0 L 595.32 0 L 595.32 841.92 L .000008871 841.92 Z " fill-rule="evenodd"/>
</clipPath>
<g clip-path="url(#cp39434)">
<text xml:space="preserve" transform="matrix(1 0 -0 1 0 841.92)" font-size="14.04" font-family="Times New Roman"><tspan y="-772.56" x="102.14 109.22">4.</tspan></text>
</g>
<clipPath id="cp39435">
<path transform="matrix(1,0,0,-1,0,841.92)" d="M .000008871 0 L 595.32 0 L 595.32 841.92 L .000008871 841.92 Z " fill-rule="evenodd"/>
</clipPath>
<g clip-path="url(#cp39435)">
<text xml:space="preserve" transform="matrix(1 0 -0 1 0 841.92)" font-size="14.04" font-family="Arial"><tspan y="-772.56" x="112.7"> </tspan></text>
</g>
<clipPath id="cp39436">
<path transform="matrix(1,0,0,-1,0,841.92)" d="M .000008871 0 L 595.32 0 L 595.32 841.92 L .000008871 841.92 Z " fill-rule="evenodd"/>
</clipPath>
<g clip-path="url(#cp39436)">
<text xml:space="preserve" transform="matrix(1 0 -0 1 0 841.92)" font-size="14.04" font-family="Times New Roman"><tspan y="-772.56" x="117.26 127.34072 134.40283 141.24031 147.47408 154.55025 158.49549 165.45932 169.40456 172.91455 183.57093 190.63304 197.69516 203.92893 207.77588 211.72112 217.95488 223.36028 230.32411 234.26935 238.1163 242.79163 246.73686 252.14226 259.20439 262.7144 269.65016 275.8839 282.84776 289.0815 296.04536 303.10746 309.34123 312.71083 319.77293 323.71815 334.4026 340.63636 347.7125 351.6577 355.16773 358.97257 366.03468 371.44007 378.4039 385.466 392.5281 398.64955 404.05494 408.00016 414.12159">Obyektni modellashtirish deganda nimani tushunasiz?</tspan></text>
</g>
<clipPath id="cp39437">
<path transform="matrix(1,0,0,-1,0,841.92)" d="M .000008871 0 L 595.32 0 L 595.32 841.92 L .000008871 841.92 Z " fill-rule="evenodd"/>
</clipPath>
<g clip-path="url(#cp39437)">
<text xml:space="preserve" transform="matrix(1 0 -0 1 0 841.92)" font-size="14.04" font-family="Times New Roman"><tspan y="-772.56" x="420.67"> </tspan></text>
</g>
<clipPath id="cp39438">
<path transform="matrix(1,0,0,-1,0,841.92)" d="M .000008871 0 L 595.32 0 L 595.32 841.92 L .000008871 841.92 Z " fill-rule="evenodd"/>
</clipPath>
<g clip-path="url(#cp39438)">
</g>
</g>
<g id="Layer-1" data-name="P">
<clipPath id="cp39439">
<path transform="matrix(1,0,0,-1,0,841.92)" d="M .000008871 0 L 595.32 0 L 595.32 841.92 L .000008871 841.92 Z " fill-rule="evenodd"/>
</clipPath>
<g clip-path="url(#cp39439)">
<text xml:space="preserve" transform="matrix(1 0 -0 1 0 841.92)" font-size="14.04" font-family="Times New Roman"><tspan y="-748.3" x="102.14 109.22">5.</tspan></text>
</g>
<clipPath id="cp39440">
<path transform="matrix(1,0,0,-1,0,841.92)" d="M .000008871 0 L 595.32 0 L 595.32 841.92 L .000008871 841.92 Z " fill-rule="evenodd"/>
</clipPath>
<g clip-path="url(#cp39440)">
<text xml:space="preserve" transform="matrix(1 0 -0 1 0 841.92)" font-size="14.04" font-family="Arial"><tspan y="-748.3" x="112.7"> </tspan></text>
</g>
<clipPath id="cp39441">
<path transform="matrix(1,0,0,-1,0,841.92)" d="M .000008871 0 L 595.32 0 L 595.32 841.92 L .000008871 841.92 Z " fill-rule="evenodd"/>
</clipPath>
<g clip-path="url(#cp39441)">
<text xml:space="preserve" transform="matrix(1 0 -0 1 0 841.92)" font-size="14.04" font-family="Times New Roman"><tspan y="-748.3" x="117.26 129.74156 136.7054 143.76752 150.00128 153.84824 157.79347 163.91492 169.4186 176.38243 180.22939 184.17462 188.84995 192.6969 198.1023 205.16442 208.67441 215.61017 222.67229 228.07769 235.04152 238.88848 245.12224 252.19841 256.04539 262.27915 266.95448 270.80143 277.76527 281.71049 285.2205 291.45426 298.26365 302.20887 306.15409 313.11793 320.18003 323.69004">Modellashtirish bosqichlarini ayting. </tspan></text>
</g>
<clipPath id="cp39442">
<path transform="matrix(1,0,0,-1,0,841.92)" d="M .000008871 0 L 595.32 0 L 595.32 841.92 L .000008871 841.92 Z " fill-rule="evenodd"/>
</clipPath>
<g clip-path="url(#cp39442)">
<text xml:space="preserve" transform="matrix(1 0 -0 1 0 841.92)" font-size="14.04" font-family="Times New Roman"><tspan y="-748.3" x="327.19"> </tspan></text>
</g>
<clipPath id="cp39443">
<path transform="matrix(1,0,0,-1,0,841.92)" d="M .000008871 0 L 595.32 0 L 595.32 841.92 L .000008871 841.92 Z " fill-rule="evenodd"/>
</clipPath>
<g clip-path="url(#cp39443)">
</g>
</g>
<g id="Layer-1" data-name="P">
<clipPath id="cp39444">
<path transform="matrix(1,0,0,-1,0,841.92)" d="M .000008871 0 L 595.32 0 L 595.32 841.92 L .000008871 841.92 Z " fill-rule="evenodd"/>
</clipPath>
<g clip-path="url(#cp39444)">
<text xml:space="preserve" transform="matrix(1 0 -0 1 0 841.92)" font-size="14.04" font-family="Times New Roman"><tspan y="-724.18" x="102.14 109.22">6.</tspan></text>
</g>
<clipPath id="cp39445">
<path transform="matrix(1,0,0,-1,0,841.92)" d="M .000008871 0 L 595.32 0 L 595.32 841.92 L .000008871 841.92 Z " fill-rule="evenodd"/>
</clipPath>
<g clip-path="url(#cp39445)">
<text xml:space="preserve" transform="matrix(1 0 -0 1 0 841.92)" font-size="14.04" font-family="Arial"><tspan y="-724.18" x="112.7"> </tspan></text>
</g>
</g>
<g id="Layer-1" data-name="P">
<clipPath id="cp39446">
<path transform="matrix(1,0,0,-1,0,841.92)" d="M .000008871 0 L 595.32 0 L 595.32 841.92 L .000008871 841.92 Z " fill-rule="evenodd"/>
</clipPath>
<g clip-path="url(#cp39446)">
<text xml:space="preserve" transform="matrix(1 0 -0 1 0 841.92)" font-size="14.04" font-family="Times New Roman"><tspan y="-724.18" x="117.26 121.935329 129.01149 132.85845 136.7054 142.20908 149.17292 156.23503 160.18027 167.01775 174.07987 177.92682 184.98894">Iqtisodiyotda</tspan></text>
</g>
</g>
<g id="Layer-1" data-name="P">
<clipPath id="cp39447">
<path transform="matrix(1,0,0,-1,0,841.92)" d="M .000008871 0 L 595.32 0 L 595.32 841.92 L .000008871 841.92 Z " fill-rule="evenodd"/>
</clipPath>
<g clip-path="url(#cp39447)">
<text xml:space="preserve" transform="matrix(1 0 -0 1 0 841.92)" font-size="14.04" font-family="Times New Roman"><tspan y="-724.18" x="191.33"> </tspan></text>
</g>
</g>
<g id="Layer-1" data-name="P">
<clipPath id="cp39448">
<path transform="matrix(1,0,0,-1,0,841.92)" d="M .000008871 0 L 595.32 0 L 595.32 841.92 L .000008871 841.92 Z " fill-rule="evenodd"/>
</clipPath>
<g clip-path="url(#cp39448)">
<text xml:space="preserve" transform="matrix(1 0 -0 1 0 841.92)" font-size="14.04" font-family="Times New Roman"><tspan y="-724.18" x="201.17 205.01696 210.42235 217.48447 221.33142 227.56519 231.41214 235.35738 239.20433 245.4381 252.51427 256.36125 263.42335 269.54478">ishlatiladigan</tspan></text>
</g>
</g>
<g id="Layer-1" data-name="P">
<clipPath id="cp39449">
<path transform="matrix(1,0,0,-1,0,841.92)" d="M .000008871 0 L 595.32 0 L 595.32 841.92 L .000008871 841.92 Z " fill-rule="evenodd"/>
</clipPath>
<g clip-path="url(#cp39449)">
<text xml:space="preserve" transform="matrix(1 0 -0 1 0 841.92)" font-size="14.04" font-family="Times New Roman"><tspan y="-724.18" x="276.65"> </tspan></text>
</g>
</g>
<g id="Layer-1" data-name="P">
<clipPath id="cp39450">
<path transform="matrix(1,0,0,-1,0,841.92)" d="M .000008871 0 L 595.32 0 L 595.32 841.92 L .000008871 841.92 Z " fill-rule="evenodd"/>
</clipPath>
<g clip-path="url(#cp39450)">
<text xml:space="preserve" transform="matrix(1 0 -0 1 0 841.92)" font-size="14.04" font-family="Times New Roman"><tspan y="-724.18" x="286.49 297.17445 304.23655 311.29866 317.5324 321.37937 325.3246 331.55836 336.12135 343.18345">modellarni</tspan></text>
</g>
</g>
<g id="Layer-1" data-name="P">
<clipPath id="cp39451">
<path transform="matrix(1,0,0,-1,0,841.92)" d="M .000008871 0 L 595.32 0 L 595.32 841.92 L .000008871 841.92 Z " fill-rule="evenodd"/>
</clipPath>
<g clip-path="url(#cp39451)">
<text xml:space="preserve" transform="matrix(1 0 -0 1 0 841.92)" font-size="14.04" font-family="Times New Roman"><tspan y="-724.18" x="347.23"> </tspan></text>
</g>
</g>
<g id="Layer-1" data-name="P">
<clipPath id="cp39452">
<path transform="matrix(1,0,0,-1,0,841.92)" d="M .000008871 0 L 595.32 0 L 595.32 841.92 L .000008871 841.92 Z " fill-rule="evenodd"/>
</clipPath>
<g clip-path="url(#cp39452)">
<text xml:space="preserve" transform="matrix(1 0 -0 1 0 841.92)" font-size="14.04" font-family="Times New Roman"><tspan y="-724.18" x="357.07 360.91697 367.15074 374.22688 378.07383 381.92079">tahlil</tspan></text>
</g>
</g>
<g id="Layer-1" data-name="P">
<clipPath id="cp39453">
<path transform="matrix(1,0,0,-1,0,841.92)" d="M .000008871 0 L 595.32 0 L 595.32 841.92 L .000008871 841.92 Z " fill-rule="evenodd"/>
</clipPath>
<g clip-path="url(#cp39453)">
<text xml:space="preserve" transform="matrix(1 0 -0 1 0 841.92)" font-size="14.04" font-family="Times New Roman"><tspan y="-724.18" x="385.87"> </tspan></text>
</g>
</g>
<g id="Layer-1" data-name="P">
<clipPath id="cp39454">
<path transform="matrix(1,0,0,-1,0,841.92)" d="M .000008871 0 L 595.32 0 L 595.32 841.92 L .000008871 841.92 Z " fill-rule="evenodd"/>
</clipPath>
<g clip-path="url(#cp39454)">
<text xml:space="preserve" transform="matrix(1 0 -0 1 0 841.92)" font-size="14.04" font-family="Times New Roman"><tspan y="-724.18" x="395.71 402.7721 406.61906 410.466 414.41123 419.81663 426.78047 433.84257 437.6895 444.75163">qilishning</tspan></text>
</g>
</g>
<g id="Layer-1" data-name="P">
<clipPath id="cp39455">
<path transform="matrix(1,0,0,-1,0,841.92)" d="M .000008871 0 L 595.32 0 L 595.32 841.92 L .000008871 841.92 Z " fill-rule="evenodd"/>
</clipPath>
<g clip-path="url(#cp39455)">
<text xml:space="preserve" transform="matrix(1 0 -0 1 0 841.92)" font-size="14.04" font-family="Times New Roman"><tspan y="-724.18" x="451.9"> </tspan></text>
</g>
</g>
<g id="Layer-1" data-name="P">
<clipPath id="cp39456">
<path transform="matrix(1,0,0,-1,0,841.92)" d="M .000008871 0 L 595.32 0 L 595.32 841.92 L .000008871 841.92 Z " fill-rule="evenodd"/>
</clipPath>
<g clip-path="url(#cp39456)">
<text xml:space="preserve" transform="matrix(1 0 -0 1 0 841.92)" font-size="14.04" font-family="Times New Roman"><tspan y="-724.18" x="461.62 468.6821 474.91587 481.76737 487.27104">qaysi</tspan></text>
</g>
</g>
<g id="Layer-1" data-name="P">
<clipPath id="cp39457">
<path transform="matrix(1,0,0,-1,0,841.92)" d="M .000008871 0 L 595.32 0 L 595.32 841.92 L .000008871 841.92 Z " fill-rule="evenodd"/>
</clipPath>
<g clip-path="url(#cp39457)">
<text xml:space="preserve" transform="matrix(1 0 -0 1 0 841.92)" font-size="14.04" font-family="Times New Roman"><tspan y="-724.18" x="491.26"> </tspan></text>
</g>
</g>
<g id="Layer-1" data-name="P">
<clipPath id="cp39458">
<path transform="matrix(1,0,0,-1,0,841.92)" d="M .000008871 0 L 595.32 0 L 595.32 841.92 L .000008871 841.92 Z " fill-rule="evenodd"/>
</clipPath>
<g clip-path="url(#cp39458)">
<text xml:space="preserve" transform="matrix(1 0 -0 1 0 841.92)" font-size="14.04" font-family="Times New Roman"><tspan y="-724.18" x="501.1 511.78446 518.0182 521.96347 528.3095 538.9939 545.22769 549.1729 553.0199">matematik</tspan></text>
</g>
</g>
<g id="Layer-1" data-name="P">
<clipPath id="cp39459">
<path transform="matrix(1,0,0,-1,0,841.92)" d="M .000008871 0 L 595.32 0 L 595.32 841.92 L .000008871 841.92 Z " fill-rule="evenodd"/>
</clipPath>
<g clip-path="url(#cp39459)">
<text xml:space="preserve" transform="matrix(1 0 -0 1 0 841.92)" font-size="14.04" font-family="Times New Roman"><tspan y="-724.18" x="560.02"> </tspan></text>
</g>
<clipPath id="cp39460">
<path transform="matrix(1,0,0,-1,0,841.92)" d="M .000008871 0 L 595.32 0 L 595.32 841.92 L .000008871 841.92 Z " fill-rule="evenodd"/>
</clipPath>
<g clip-path="url(#cp39460)">
</g>
</g>
<g id="Layer-1" data-name="P">
<clipPath id="cp39461">
<path transform="matrix(1,0,0,-1,0,841.92)" d="M .000008871 0 L 595.32 0 L 595.32 841.92 L .000008871 841.92 Z " fill-rule="evenodd"/>
</clipPath>
<g clip-path="url(#cp39461)">
<text xml:space="preserve" transform="matrix(1 0 -0 1 0 841.92)" font-size="14.04" font-family="Times New Roman"><tspan y="-700.06" x="85.104 92.166118 97.57152 104.535358 108.4806 112.42584 118.6596 123.2226 127.069568 134.13169">usullarini</tspan></text>
</g>
</g>
<g id="Layer-1" data-name="P">
<clipPath id="cp39462">
<path transform="matrix(1,0,0,-1,0,841.92)" d="M .000008871 0 L 595.32 0 L 595.32 841.92 L .000008871 841.92 Z " fill-rule="evenodd"/>
</clipPath>
<g clip-path="url(#cp39462)">
<text xml:space="preserve" transform="matrix(1 0 -0 1 0 841.92)" font-size="14.04" font-family="Times New Roman"><tspan y="-700.06" x="138.14"> </tspan></text>
</g>
</g>
<g id="Layer-1" data-name="P">
<clipPath id="cp39463">
<path transform="matrix(1,0,0,-1,0,841.92)" d="M .000008871 0 L 595.32 0 L 595.32 841.92 L .000008871 841.92 Z " fill-rule="evenodd"/>
</clipPath>
<g clip-path="url(#cp39463)">
<text xml:space="preserve" transform="matrix(1 0 -0 1 0 841.92)" font-size="14.04" font-family="Times New Roman"><tspan y="-700.06" x="141.5 148.56212 152.40908 156.35431 162.47576 167.97943 171.82639">bilasiz</tspan></text>
</g>
</g>
<g id="Layer-1" data-name="P">
<clipPath id="cp39464">
<path transform="matrix(1,0,0,-1,0,841.92)" d="M .000008871 0 L 595.32 0 L 595.32 841.92 L .000008871 841.92 Z " fill-rule="evenodd"/>
</clipPath>
<g clip-path="url(#cp39464)">
<text xml:space="preserve" transform="matrix(1 0 -0 1 0 841.92)" font-size="14.04" font-family="Times New Roman"><tspan y="-700.06" x="177.98">?</tspan></text>
</g>
</g>
<g id="Layer-1" data-name="P">
<clipPath id="cp39465">
<path transform="matrix(1,0,0,-1,0,841.92)" d="M .000008871 0 L 595.32 0 L 595.32 841.92 L .000008871 841.92 Z " fill-rule="evenodd"/>
</clipPath>
<g clip-path="url(#cp39465)">
<text xml:space="preserve" transform="matrix(1 0 -0 1 0 841.92)" font-size="14.04" font-family="Times New Roman"><tspan y="-700.06" x="184.22"> </tspan></text>
</g>
<clipPath id="cp39466">
<path transform="matrix(1,0,0,-1,0,841.92)" d="M .000008871 0 L 595.32 0 L 595.32 841.92 L .000008871 841.92 Z " fill-rule="evenodd"/>
</clipPath>
<g clip-path="url(#cp39466)">
</g>
</g>
<g id="Layer-1" data-name="P">
<clipPath id="cp39467">
<path transform="matrix(1,0,0,-1,0,841.92)" d="M .000008871 0 L 595.32 0 L 595.32 841.92 L .000008871 841.92 Z " fill-rule="evenodd"/>
</clipPath>
<g clip-path="url(#cp39467)">
<text xml:space="preserve" transform="matrix(1 0 -0 1 0 841.92)" font-size="14.04" font-family="Times New Roman"><tspan y="-675.94" x="99.264 106.344">7.</tspan></text>
</g>
<clipPath id="cp39468">
<path transform="matrix(1,0,0,-1,0,841.92)" d="M .000008871 0 L 595.32 0 L 595.32 841.92 L .000008871 841.92 Z " fill-rule="evenodd"/>
</clipPath>
<g clip-path="url(#cp39468)">
<text xml:space="preserve" transform="matrix(1 0 -0 1 0 841.92)" font-size="14.04" font-family="Arial"><tspan y="-675.94" x="109.82"> </tspan></text>
</g>
<clipPath id="cp39469">
<path transform="matrix(1,0,0,-1,0,841.92)" d="M .000008871 0 L 595.32 0 L 595.32 841.92 L .000008871 841.92 Z " fill-rule="evenodd"/>
</clipPath>
<g clip-path="url(#cp39469)">
<text xml:space="preserve" transform="matrix(1 0 -0 1 0 841.92)" font-size="14.04" font-family="Times New Roman"><tspan y="-675.94" x="120.5 130.58072 134.52596 145.2104 151.44417 154.95417 161.97417 168.23601 175.29813 182.36025 189.42237 192.77793 196.62488 203.687 207.53395 211.47919 216.88459 223.84842 230.91054 234.85578 241.69326 248.75537 252.60233 259.66444 265.8982 269.4082 280.06459 286.29835 290.24357 296.58967 307.2741 313.50788 317.4531 321.39833 328.36216 334.59593 341.55976 345.50498 349.01499 355.95075 362.91459 367.47758 371.4228 375.368 381.60179 387.00718 394.06929 397.57929 403.81306 410.0468 414.59577 421.65788 426.22087">Nima uchun iqtisodiyotda matematikani qo&#x2018;llash zarur?</tspan></text>
</g>
<clipPath id="cp39470">
<path transform="matrix(1,0,0,-1,0,841.92)" d="M .000008871 0 L 595.32 0 L 595.32 841.92 L .000008871 841.92 Z " fill-rule="evenodd"/>
</clipPath>
<g clip-path="url(#cp39470)">
<text xml:space="preserve" transform="matrix(1 0 -0 1 0 841.92)" font-size="14.04" font-family="Times New Roman"><tspan y="-675.94" x="432.91"> </tspan></text>
</g>
<clipPath id="cp39471">
<path transform="matrix(1,0,0,-1,0,841.92)" d="M .000008871 0 L 595.32 0 L 595.32 841.92 L .000008871 841.92 Z " fill-rule="evenodd"/>
</clipPath>
<g clip-path="url(#cp39471)">
<text xml:space="preserve" transform="matrix(1 0 -0 1 0 841.92)" font-size="14.04" font-family="Times New Roman"><tspan y="-675.94" x="436.27"> </tspan></text>
</g>
<clipPath id="cp39472">
<path transform="matrix(1,0,0,-1,0,841.92)" d="M .000008871 0 L 595.32 0 L 595.32 841.92 L .000008871 841.92 Z " fill-rule="evenodd"/>
</clipPath>
<g clip-path="url(#cp39472)">
</g>
</g>
<g id="Layer-1" data-name="P">
<clipPath id="cp39473">
<path transform="matrix(1,0,0,-1,0,841.92)" d="M .000008871 0 L 595.32 0 L 595.32 841.92 L .000008871 841.92 Z " fill-rule="evenodd"/>
</clipPath>
<g clip-path="url(#cp39473)">
<text xml:space="preserve" transform="matrix(1 0 -0 1 0 841.92)" font-size="14.04" font-family="Times New Roman"><tspan y="-651.7" x="99.264 106.344">8.</tspan></text>
</g>
<clipPath id="cp39474">
<path transform="matrix(1,0,0,-1,0,841.92)" d="M .000008871 0 L 595.32 0 L 595.32 841.92 L .000008871 841.92 Z " fill-rule="evenodd"/>
</clipPath>
<g clip-path="url(#cp39474)">
<text xml:space="preserve" transform="matrix(1 0 -0 1 0 841.92)" font-size="14.04" font-family="Arial"><tspan y="-651.7" x="109.82"> </tspan></text>
</g>
<clipPath id="cp39475">
<path transform="matrix(1,0,0,-1,0,841.92)" d="M .000008871 0 L 595.32 0 L 595.32 841.92 L .000008871 841.92 Z " fill-rule="evenodd"/>
</clipPath>
<g clip-path="url(#cp39475)">
<text xml:space="preserve" transform="matrix(1 0 -0 1 0 841.92)" font-size="14.04" font-family="Times New Roman"><tspan y="-651.7" x="120.5 132.98157 139.9454 147.00753 153.24129 157.18653 160.54209 167.6042 173.83797 177.34796 188.00434 195.06645 202.12857 208.36234 212.20929 216.15453 222.27597 227.77965 234.74349 238.59044 242.4374 247.11272 251.05796 256.46336 263.52546 267.03547 270.8403 277.80415 283.3078 290.27165 297.23548 304.29759 310.419 317.4811 323.71488 327.56184 333.7956 338.47093 342.43019 345.9402 349.26768 356.32978 360.17674 370.97349 377.20726">Model va modellashtirish tushunchalari  nima?</tspan></text>
</g>
<clipPath id="cp39476">
<path transform="matrix(1,0,0,-1,0,841.92)" d="M .000008871 0 L 595.32 0 L 595.32 841.92 L .000008871 841.92 Z " fill-rule="evenodd"/>
</clipPath>
<g clip-path="url(#cp39476)">
<text xml:space="preserve" transform="matrix(1 0 -0 1 0 841.92)" font-size="14.04" font-family="Times New Roman"><tspan y="-651.7" x="383.71"> </tspan></text>
</g>
<clipPath id="cp39477">
<path transform="matrix(1,0,0,-1,0,841.92)" d="M .000008871 0 L 595.32 0 L 595.32 841.92 L .000008871 841.92 Z " fill-rule="evenodd"/>
</clipPath>
<g clip-path="url(#cp39477)">
</g>
</g>
<g id="Layer-1" data-name="P">
<clipPath id="cp39478">
<path transform="matrix(1,0,0,-1,0,841.92)" d="M .000008871 0 L 595.32 0 L 595.32 841.92 L .000008871 841.92 Z " fill-rule="evenodd"/>
</clipPath>
<g clip-path="url(#cp39478)">
<text xml:space="preserve" transform="matrix(1 0 -0 1 0 841.92)" font-size="14.04" font-family="Times New Roman"><tspan y="-627.58" x="99.264 106.344">9.</tspan></text>
</g>
<clipPath id="cp39479">
<path transform="matrix(1,0,0,-1,0,841.92)" d="M .000008871 0 L 595.32 0 L 595.32 841.92 L .000008871 841.92 Z " fill-rule="evenodd"/>
</clipPath>
<g clip-path="url(#cp39479)">
<text xml:space="preserve" transform="matrix(1 0 -0 1 0 841.92)" font-size="14.04" font-family="Arial"><tspan y="-627.58" x="109.82"> </tspan></text>
</g>
<clipPath id="cp39480">
<path transform="matrix(1,0,0,-1,0,841.92)" d="M .000008871 0 L 595.32 0 L 595.32 841.92 L .000008871 841.92 Z " fill-rule="evenodd"/>
</clipPath>
<g clip-path="url(#cp39480)">
<text xml:space="preserve" transform="matrix(1 0 -0 1 0 841.92)" font-size="14.04" font-family="Times New Roman"><tspan y="-627.58" x="120.5 125.17532 132.2515 136.09845 139.9454 145.44908 152.41292 159.47504 163.42028 170.25775 173.76775 180.78775 187.80776 194.74352 198.68875 204.19243 210.31388 214.25911 220.49288 225.05588 232.01972 235.96495 242.92879 249.9909 253.5009 264.15727 271.21937 278.28147 284.51524 288.46046 292.3074 298.54118 303.2165 307.17576 310.5313 317.5934 323.71485 330.77696 337.74079 343.97456 350.82606 354.33607 358.23918 365.32936 371.5631 375.50834 379.3553 385.58906 392.5529 396.39985 402.74595 406.25596">Iqtisodiy hodisalarning modellari qanday tuziladi?  </tspan></text>
</g>
<clipPath id="cp39481">
<path transform="matrix(1,0,0,-1,0,841.92)" d="M .000008871 0 L 595.32 0 L 595.32 841.92 L .000008871 841.92 Z " fill-rule="evenodd"/>
</clipPath>
<g clip-path="url(#cp39481)">
<text xml:space="preserve" transform="matrix(1 0 -0 1 0 841.92)" font-size="14.04" font-family="Times New Roman"><tspan y="-627.58" x="409.87"> </tspan></text>
</g>
<clipPath id="cp39482">
<path transform="matrix(1,0,0,-1,0,841.92)" d="M .000008871 0 L 595.32 0 L 595.32 841.92 L .000008871 841.92 Z " fill-rule="evenodd"/>
</clipPath>
<g clip-path="url(#cp39482)">
</g>
</g>
<g id="Layer-1" data-name="P">
<clipPath id="cp39483">
<path transform="matrix(1,0,0,-1,0,841.92)" d="M .000008871 0 L 595.32 0 L 595.32 841.92 L .000008871 841.92 Z " fill-rule="evenodd"/>
</clipPath>
<g clip-path="url(#cp39483)">
<text xml:space="preserve" transform="matrix(1 0 -0 1 0 841.92)" font-size="12" font-family="Times New Roman,Bold" font-weight="bold"><tspan y="-605.02" x="347.59"> </tspan></text>
</g>
<clipPath id="cp39484">
<path transform="matrix(1,0,0,-1,0,841.92)" d="M .000008871 0 L 595.32 0 L 595.32 841.92 L .000008871 841.92 Z " fill-rule="evenodd"/>
</clipPath>
<g clip-path="url(#cp39484)">
</g>
</g>
<g id="Layer-1" data-name="P">
<clipPath id="cp39485">
<path transform="matrix(1,0,0,-1,0,841.92)" d="M .000008871 0 L 595.32 0 L 595.32 841.92 L .000008871 841.92 Z " fill-rule="evenodd"/>
</clipPath>
<g clip-path="url(#cp39485)">
<text xml:space="preserve" transform="matrix(1 0 -0 1 0 841.92)" font-size="12" font-family="Times New Roman,Bold" font-weight="bold"><tspan y="-584.26" x="347.59"> </tspan></text>
</g>
<clipPath id="cp39486">
<path transform="matrix(1,0,0,-1,0,841.92)" d="M .000008871 0 L 595.32 0 L 595.32 841.92 L .000008871 841.92 Z " fill-rule="evenodd"/>
</clipPath>
<g clip-path="url(#cp39486)">
</g>
</g>
<g id="Layer-1" data-name="P">
<clipPath id="cp39487">
<path transform="matrix(1,0,0,-1,0,841.92)" d="M .000008871 0 L 595.32 0 L 595.32 841.92 L .000008871 841.92 Z " fill-rule="evenodd"/>
</clipPath>
<g clip-path="url(#cp39487)">
<text xml:space="preserve" transform="matrix(1 0 -0 1 0 841.92)" font-size="12" font-family="Times New Roman,Bold" font-weight="bold"><tspan y="-563.59" x="340.51"> </tspan></text>
</g>
</g>
<g id="Layer-1" data-name="P">
<clipPath id="cp39488">
<path transform="matrix(1,0,0,-1,0,841.92)" d="M .000008871 0 L 595.32 0 L 595.32 841.92 L .000008871 841.92 Z " fill-rule="evenodd"/>
</clipPath>
<g clip-path="url(#cp39488)">
<text xml:space="preserve" transform="matrix(1 0 -0 1 0 841.92)" font-size="12" font-family="Times New Roman,Bold" font-weight="bold"><tspan y="-542.83" x="340.51"> </tspan></text>
</g>
</g>
<g id="Layer-1" data-name="P">
<clipPath id="cp39489">
<path transform="matrix(1,0,0,-1,0,841.92)" d="M .000008871 0 L 595.32 0 L 595.32 841.92 L .000008871 841.92 Z " fill-rule="evenodd"/>
</clipPath>
<g clip-path="url(#cp39489)">
<text xml:space="preserve" transform="matrix(1 0 -0 1 0 841.92)" font-size="12" font-family="Times New Roman,Bold" font-weight="bold"><tspan y="-522.19" x="340.51"> </tspan></text>
</g>
</g>
<g id="Layer-1" data-name="P">
<clipPath id="cp39490">
<path transform="matrix(1,0,0,-1,0,841.92)" d="M .000008871 0 L 595.32 0 L 595.32 841.92 L .000008871 841.92 Z " fill-rule="evenodd"/>
</clipPath>
<g clip-path="url(#cp39490)">
<text xml:space="preserve" transform="matrix(1 0 -0 1 0 841.92)" font-size="12" font-family="Times New Roman,Bold" font-weight="bold"><tspan y="-501.55" x="85.104"> </tspan></text>
</g>
<clipPath id="cp39491">
<path transform="matrix(1,0,0,-1,0,841.92)" d="M .000008871 0 L 595.32 0 L 595.32 841.92 L .000008871 841.92 Z " fill-rule="evenodd"/>
</clipPath>
<g clip-path="url(#cp39491)">
<text xml:space="preserve" transform="matrix(1 0 -0 1 0 841.92)" font-size="12" font-family="Times New Roman,Bold" font-weight="bold"><tspan y="-501.55" x="229.13"> </tspan></text>
</g>
</g>
</g>
</g>
</svg>
