<?xml version="1.0" encoding="UTF-8" standalone="no"?>
<!DOCTYPE svg PUBLIC "-//W3C//DTD SVG 1.1//EN" "http://www.w3.org/Graphics/SVG/1.1/DTD/svg11.dtd">
<svg xmlns="http://www.w3.org/2000/svg" xmlns:xlink="http://www.w3.org/1999/xlink" version="1.1" width="595.32pt" height="841.92pt" viewBox="0 0 595.32 841.92">
<g enable-background="new">
<g>
<g id="Layer-1" data-name="Artifact">
<clipPath id="cp39572">
<path transform="matrix(1,0,0,-1,0,841.92)" d="M .000008871 0 L 595.32 0 L 595.32 841.92 L .000008871 841.92 Z " fill-rule="evenodd"/>
</clipPath>
<g clip-path="url(#cp39572)">
<text xml:space="preserve" transform="matrix(1 0 -0 1 0 841.92)" font-size="11.04" font-family="Calibri"><tspan y="-51.864" x="314.09 319.72999 325.36997">249</tspan></text>
</g>
<clipPath id="cp39573">
<path transform="matrix(1,0,0,-1,0,841.92)" d="M .000008871 0 L 595.32 0 L 595.32 841.92 L .000008871 841.92 Z " fill-rule="evenodd"/>
</clipPath>
<g clip-path="url(#cp39573)">
<text xml:space="preserve" transform="matrix(1 0 -0 1 0 841.92)" font-size="11.04" font-family="Calibri"><tspan y="-51.864" x="331.03"> </tspan></text>
</g>
<clipPath id="cp39574">
<path transform="matrix(1,0,0,-1,0,841.92)" d="M .000008871 0 L 595.32 0 L 595.32 841.92 L .000008871 841.92 Z " fill-rule="evenodd"/>
</clipPath>
<g clip-path="url(#cp39574)">
</g>
<clipPath id="cp39575">
<path transform="matrix(1,0,0,-1,0,841.92)" d="M .000008871 0 L 595.32 0 L 595.32 841.92 L .000008871 841.92 Z " fill-rule="evenodd"/>
</clipPath>
<g clip-path="url(#cp39575)">
<text xml:space="preserve" transform="matrix(1 0 -0 1 0 841.92)" font-size="11.04" font-family="Calibri"><tspan y="-38.4" x="85.104"> </tspan></text>
</g>
<clipPath id="cp39576">
<path transform="matrix(1,0,0,-1,0,841.92)" d="M .000008871 0 L 595.32 0 L 595.32 841.92 L .000008871 841.92 Z " fill-rule="evenodd"/>
</clipPath>
<g clip-path="url(#cp39576)">
</g>
</g>
<g id="Layer-1" data-name="P">
<clipPath id="cp39577">
<path transform="matrix(1,0,0,-1,0,841.92)" d="M .000008871 0 L 595.32 0 L 595.32 841.92 L .000008871 841.92 Z " fill-rule="evenodd"/>
</clipPath>
<g clip-path="url(#cp39577)">
<text xml:space="preserve" transform="matrix(1 0 -0 1 0 841.92)" font-size="14.04" font-family="Times New Roman"><tspan y="-772.56" x="85.104 91.33775 98.41391 102.26087 108.49463 119.17907 125.41283 132.489 138.72277 143.1594 149.99687 157.05899 164.12111 168.06635 172.48894">chizm&#x0430;d&#x0430; yoki m</tspan></text>
</g>
<clipPath id="cp39578">
<path transform="matrix(1,0,0,-1,0,841.92)" d="M .000008871 0 L 595.32 0 L 595.32 841.92 L .000008871 841.92 Z " fill-rule="evenodd"/>
</clipPath>
<g clip-path="url(#cp39578)">
<text xml:space="preserve" transform="matrix(1 0 -0 1 0 841.92)" font-size="14.04" font-family="Times New Roman"><tspan y="-772.56" x="183.26 189.49376 196.56993 202.8037 206.65065 211.07324 216.47864 223.54076 229.77452 236.73836 240.58531 244.53055 251.59267 257.71409 262.1367 265.98365 270.65898 277.6228 284.6849 290.91868 295.22898 299.65159 306.61543 310.56065 314.4076 318.25456 325.31666 329.1636 334.66728 341.6311 345.57633 349.99894 360.68339 367.87187 378.5563 385.6184 389.56364 396.62574 400.13575 404.41795 416.8995 423.13328 430.0971 436.33088 440.17784 444.60044 448.91075 455.97285 463.03495 467.59794 472.27326 476.1202 483.1823 487.02928 492.43467 499.49678 506.4606 512.69436 517.00466 524.0668 531.1289 535.6919 539.5389 546.601 552.7225 559.68637">&#x0430;k&#x0435;t sh&#x0430;klid&#x0430; if&#x043e;d&#x0430;  qilinishi mumkin. M&#x0430;k&#x0435;t  ko&#x2018;rinishd&#x0430; bo&#x2018;lg&#x0430;n </tspan></text>
</g>
<clipPath id="cp39579">
<path transform="matrix(1,0,0,-1,0,841.92)" d="M .000008871 0 L 595.32 0 L 595.32 841.92 L .000008871 841.92 Z " fill-rule="evenodd"/>
</clipPath>
<g clip-path="url(#cp39579)">
</g>
<clipPath id="cp39580">
<path transform="matrix(1,0,0,-1,0,841.92)" d="M .000008871 0 L 595.32 0 L 595.32 841.92 L .000008871 841.92 Z " fill-rule="evenodd"/>
</clipPath>
<g clip-path="url(#cp39580)">
<text xml:space="preserve" transform="matrix(1 0 -0 1 0 841.92)" font-size="14.04" font-family="Times New Roman"><tspan y="-748.3" x="85.104 95.78844 102.850559 109.912677 116.14643 120.091678 127.15379 133.38756 140.7024 147.66623 151.61147 157.84523 165.27239 169.94771 176.06916 182.30292 186.24816 193.54895 200.51279 207.47663 211.42186 217.65563 221.50258 228.5647 234.79846 242.1133 249.07714 253.02237 256.9676 263.08903 270.51618 277.48 281.42524 292.10969 298.45579 305.29325 312.35536 316.30058 323.36268 329.4841 336.5462 343.9734 350.93724 357.171 361.8463 367.9818 375.0439 381.16535 385.11058 389.0558 395.28956 399.85255 406.81639 410.7616 418.0624 425.1245 431.35829 435.20524 441.439 446.00199 452.23576 459.6629 466.62675 470.57197 476.80574 487.49018 491.4354 497.66917 501.17918 508.57826 521.0598 527.2936 532.79727 538.9187 542.86398 548.9854 556.04757 559.55758">m&#x043e;d&#x0435;ld&#x0430; biz r&#x0435;&#x0430;l h&#x043e;l&#x0430;td&#x0430; qil&#x0430; &#x043e;lm&#x0430;ydig&#x0430;n h&#x0430;r&#x0430;k&#x0430;tl&#x0430;rni b&#x0430;j&#x0430;r&#x0430; &#x043e;l&#x0430;miz. M&#x0430;s&#x0430;l&#x0430;n, </tspan></text>
</g>
<clipPath id="cp39581">
<path transform="matrix(1,0,0,-1,0,841.92)" d="M .000008871 0 L 595.32 0 L 595.32 841.92 L .000008871 841.92 Z " fill-rule="evenodd"/>
</clipPath>
<g clip-path="url(#cp39581)">
</g>
<clipPath id="cp39582">
<path transform="matrix(1,0,0,-1,0,841.92)" d="M .000008871 0 L 595.32 0 L 595.32 841.92 L .000008871 841.92 Z " fill-rule="evenodd"/>
</clipPath>
<g clip-path="url(#cp39582)">
<text xml:space="preserve" transform="matrix(1 0 -0 1 0 841.92)" font-size="14.04" font-family="Times New Roman"><tspan y="-724.18" x="85.104 95.90076 102.134517 109.21067 115.44443 119.29139 126.35351 132.58727 136.29383 140.23906 146.3605 151.86418 158.82802 162.77326 167.33626 171.2815 177.51526 184.4791 191.54122 197.66266 204.6265 208.33306 214.67914 221.51662 226.19194 230.26355 240.948 244.65456 251.71668 257.95045 262.62577 268.14347 274.37724 278.32246 284.44389 289.1192 296.08305 300.02827 303.53828 307.21678 313.45054 320.30204 324.37364 330.6074 337.4589 341.4041 345.34934 352.41145 356.118 363.1801 367.02708 371.7024 378.66624">m&#x0430;k&#x0435;td&#x0430; t&#x0430;svirl&#x0430;ng&#x0430;n &#x0430;yrim n&#x0430;rs&#x0430;l&#x0430;rni, &#x0430;yt&#x0430;ylik bir&#x043e;n</tspan></text>
</g>
<clipPath id="cp39583">
<path transform="matrix(1,0,0,-1,0,841.92)" d="M .000008871 0 L 595.32 0 L 595.32 841.92 L .000008871 841.92 Z " fill-rule="evenodd"/>
</clipPath>
<g clip-path="url(#cp39583)">
<text xml:space="preserve" transform="matrix(1 0 -0 1 0 841.92)" font-size="14.04" font-family="Times New Roman"><tspan y="-724.18" x="386.11">-</tspan></text>
</g>
<clipPath id="cp39584">
<path transform="matrix(1,0,0,-1,0,841.92)" d="M .000008871 0 L 595.32 0 L 595.32 841.92 L .000008871 841.92 Z " fill-rule="evenodd"/>
</clipPath>
<g clip-path="url(#cp39584)">
<text xml:space="preserve" transform="matrix(1 0 -0 1 0 841.92)" font-size="14.04" font-family="Times New Roman"><tspan y="-724.18" x="390.67 397.73213 401.67735 406.35267 409.9469 417.009 420.85597 427.91807 434.8819 441.84574 445.6927 449.2027 452.8812 459.9433 463.88853 468.56385 472.27043 476.11738 483.17948 490.01695 497.07905 503.3128 510.38896 514.09548 518.0407 525.0046 532.0667 535.9137 542.9758 549.0973 556.06118 559.90817">bir bin&#x043e;ni, bir j&#x043e;yd&#x0430;n ikkinchi </tspan></text>
</g>
<clipPath id="cp39585">
<path transform="matrix(1,0,0,-1,0,841.92)" d="M .000008871 0 L 595.32 0 L 595.32 841.92 L .000008871 841.92 Z " fill-rule="evenodd"/>
</clipPath>
<g clip-path="url(#cp39585)">
</g>
<clipPath id="cp39586">
<path transform="matrix(1,0,0,-1,0,841.92)" d="M .000008871 0 L 595.32 0 L 595.32 841.92 L .000008871 841.92 Z " fill-rule="evenodd"/>
</clipPath>
<g clip-path="url(#cp39586)">
<text xml:space="preserve" transform="matrix(1 0 -0 1 0 841.92)" font-size="14.04" font-family="Times New Roman"><tspan y="-700.06" x="85.104 88.95096 96.01308 102.850559 109.912677 116.14643 120.6954 127.757518 133.26119 140.22502 147.18886 151.1341 154.98105 162.04317 168.16461 175.22673 181.4605 186.00945 192.97328 200.0354 204.5984 211.43589 215.38112 220.8848 227.94692 231.89215">j&#x043e;yg&#x0430; &#x043e;s&#x043e;nlikch&#x0430; qo&#x2018;yishim</tspan></text>
</g>
<clipPath id="cp39587">
<path transform="matrix(1,0,0,-1,0,841.92)" d="M .000008871 0 L 595.32 0 L 595.32 841.92 L .000008871 841.92 Z " fill-rule="evenodd"/>
</clipPath>
<g clip-path="url(#cp39587)">
<text xml:space="preserve" transform="matrix(1 0 -0 1 0 841.92)" font-size="14.04" font-family="Times New Roman"><tspan y="-700.06" x="242.81 246.75524 252.989 257.6643 268.34877 275.53724 286.22169 293.28379 297.229 304.2911 307.80113 312.32203 317.82569 324.78953 331.85163 336.4006 343.4627 347.30967 351.25489 357.3763 364.43843 368.9874 375.95124 379.89646 386.13023 390.6792 396.91297 403.8768 410.9389 415.48789 422.45173 429.41557 433.36079 439.59455 446.55839 451.10737 458.16947 464.40324 469.07856 473.0378 479.15925 486.12309 490.0683 494.01353 500.13496 504.81028 511.7741 515.71939 520.2683 524.21359 530.335 537.39718 541.24417 547.4779 552.771 559.73489">iz mumkin, shu bil&#x0430;n biz eng qul&#x0430;y v&#x0430;ri&#x0430;ntl&#x0430;rni t&#x0430;nl&#x0430;sh </tspan></text>
</g>
<clipPath id="cp39588">
<path transform="matrix(1,0,0,-1,0,841.92)" d="M .000008871 0 L 595.32 0 L 595.32 841.92 L .000008871 841.92 Z " fill-rule="evenodd"/>
</clipPath>
<g clip-path="url(#cp39588)">
</g>
<clipPath id="cp39589">
<path transform="matrix(1,0,0,-1,0,841.92)" d="M .000008871 0 L 595.32 0 L 595.32 841.92 L .000008871 841.92 Z " fill-rule="evenodd"/>
</clipPath>
<g clip-path="url(#cp39589)">
<text xml:space="preserve" transform="matrix(1 0 -0 1 0 841.92)" font-size="14.04" font-family="Times New Roman"><tspan y="-675.94" x="85.104 89.04924 99.73368 106.7958 113.85792 120.92004 124.767 131.82912 138.06288 141.57288 147.66625 154.72837 160.96213 164.33173 171.39385 178.45597 183.01897 186.9642 193.19797 203.88242 207.82765 214.06142">imk&#x043e;nig&#x0430; eg&#x0430; bo&#x2018;l&#x0430;miz.</tspan></text>
</g>
<clipPath id="cp39590">
<path transform="matrix(1,0,0,-1,0,841.92)" d="M .000008871 0 L 595.32 0 L 595.32 841.92 L .000008871 841.92 Z " fill-rule="evenodd"/>
</clipPath>
<g clip-path="url(#cp39590)">
<text xml:space="preserve" transform="matrix(1 0 -0 1 0 841.92)" font-size="14.04" font-family="Times New Roman"><tspan y="-675.94" x="217.61"> </tspan></text>
</g>
<clipPath id="cp39591">
<path transform="matrix(1,0,0,-1,0,841.92)" d="M .000008871 0 L 595.32 0 L 595.32 841.92 L .000008871 841.92 Z " fill-rule="evenodd"/>
</clipPath>
<g clip-path="url(#cp39591)">
</g>
</g>
<g id="Layer-1" data-name="P">
<clipPath id="cp39592">
<path transform="matrix(1,0,0,-1,0,841.92)" d="M .000008871 0 L 595.32 0 L 595.32 841.92 L .000008871 841.92 Z " fill-rule="evenodd"/>
</clipPath>
<g clip-path="url(#cp39592)">
<text xml:space="preserve" transform="matrix(1 0 -0 1 0 841.92)" font-size="14.04" font-family="Times New Roman"><tspan y="-651.7" x="113.42 123.50072 128.06372 132.73905 139.81522 146.04898 153.12516 156.9721 160.91735 167.15111 174.00263 181.06475 184.9117 191.97382 198.20758 205.28376 212.94959 220.0117 226.24547 230.80847 236.31215 242.54592 246.39287 252.62664 257.30195 264.27983 268.22505 276.01725 286.7017 293.7638 300.8259 307.05967 310.90663 314.85185 320.97328 326.47694 333.44078 337.386 341.23295 345.90827 349.75523 355.25889 362.32099 369.98686 377.04896 380.8959 384.84114 390.96257 398.02467 405.81687 409.66383 415.89759 420.5729 426.80668 433.65818 440.72029 447.78239 455.5746 459.42155 466.38539 473.44749 479.68125 490.3657 496.7118 503.54927 510.61137 514.5566 518.0666 525.81668 535.18136 541.4151 545.2621 552.3242 556.2695 559.62509">O&#x2018;rg&#x0430;nil&#x0430;yotg&#x0430;n n&#x0430;rs&#x0430;l&#x0430;rni m&#x043e;d&#x0435;ll&#x0430;shtirish bil&#x0430;n j&#x0430;r&#x0430;yon tug&#x0430;m&#x0430;ydi. B&#x0430;lki, </tspan></text>
</g>
<clipPath id="cp39593">
<path transform="matrix(1,0,0,-1,0,841.92)" d="M .000008871 0 L 595.32 0 L 595.32 841.92 L .000008871 841.92 Z " fill-rule="evenodd"/>
</clipPath>
<g clip-path="url(#cp39593)">
</g>
<clipPath id="cp39594">
<path transform="matrix(1,0,0,-1,0,841.92)" d="M .000008871 0 L 595.32 0 L 595.32 841.92 L .000008871 841.92 Z " fill-rule="evenodd"/>
</clipPath>
<g clip-path="url(#cp39594)">
<text xml:space="preserve" transform="matrix(1 0 -0 1 0 841.92)" font-size="14.04" font-family="Times New Roman"><tspan y="-627.58" x="85.104 95.78844 102.850559 109.912677 116.14643 120.091678 125.356678 132.4188 139.48091 144.04392 148.71924 152.5662 156.51143 160.35839 167.4205 170.9305 176.1674 183.22953 190.19336 194.04032 201.00415 208.06627 213.33127 220.16875 227.23087 231.90619 238.98236 245.21613 255.90058 259.8458 266.9079 273.14167 278.42073 284.7668 291.60429 296.2796 300.3512 311.03565 316.30067 323.48915 329.7229 333.66813 337.61335 341.4603 347.58174 351.52696 357.7607 362.43605 367.7151 374.67893 378.62416 382.4711 389.43495 393.38017 400.44227 403.95228 409.1892 416.15306 423.21516 428.48017 435.54228 441.6637 445.51066 449.45588 453.30284 459.5366 463.4818 469.71559 474.27857 481.2424 485.18763 490.45265 495.12797 501.36174 507.5955 511.45649 515.40176 519.2487 526.31088 531.57589 538.53976 542.485 546.43026 552.5517 559.51559">m&#x043e;d&#x0435;l ko&#x2018;rilib, uning yord&#x0430;mid&#x0430; &#x0430;yrim n&#x0430;tij&#x0430;l&#x0430;r &#x043e;linib, bu n&#x0430;tij&#x0430;l&#x0430;rni r&#x0435;&#x0430;llik bil&#x0430;n </tspan></text>
</g>
<clipPath id="cp39595">
<path transform="matrix(1,0,0,-1,0,841.92)" d="M .000008871 0 L 595.32 0 L 595.32 841.92 L .000008871 841.92 Z " fill-rule="evenodd"/>
</clipPath>
<g clip-path="url(#cp39595)">
</g>
<clipPath id="cp39596">
<path transform="matrix(1,0,0,-1,0,841.92)" d="M .000008871 0 L 595.32 0 L 595.32 841.92 L .000008871 841.92 Z " fill-rule="evenodd"/>
</clipPath>
<g clip-path="url(#cp39596)">
<text xml:space="preserve" transform="matrix(1 0 -0 1 0 841.92)" font-size="14.04" font-family="Times New Roman"><tspan y="-603.46" x="85.104 90.60768 97.57152 101.51676 105.36372 110.76913 117.831249 121.67821 125.62345 130.18645 134.13169 139.53708 146.5992 152.10288 159.165 165.39876 176.0832">s&#x043e;lishtirish h&#x0430;m </tspan></text>
</g>
<clipPath id="cp39597">
<path transform="matrix(1,0,0,-1,0,841.92)" d="M .000008871 0 L 595.32 0 L 595.32 841.92 L .000008871 841.92 Z " fill-rule="evenodd"/>
</clipPath>
<g clip-path="url(#cp39597)">
<text xml:space="preserve" transform="matrix(1 0 -0 1 0 841.92)" font-size="14.04" font-family="Times New Roman"><tspan y="-603.46" x="181.82 185.76525 192.82736 199.06113 202.90808 213.70485 219.33489 226.397 233.45912 238.02213 241.96736 248.20113 255.16497 259.1102 262.6202 268.22218 278.3029 285.365 291.59877 296.27409 301.7918 308.75566 315.81776 321.32145 326.8251 333.78895 337.73417 341.58113 346.9865 354.0486 357.89558 361.8408 366.40379 370.349 375.7544 382.8165 386.66346 392.89723 397.57255 403.20259 410.1664 416.40019 420.24714 424.19236 428.0393 434.27308 438.12004 444.3538 449.0291 452.98838 458.49208 465.55418 472.518 479.48185 483.42707 490.48918 496.6106 501.28593 505.13288 509.0781 514.7081 521.672 528.73416 533.2971 537.2424 547.92678 554.1605 559.6782">l&#x043e;zim bo&#x2018;l&#x0430;di. &#x0410;g&#x0430;r bu s&#x043e;lishtirishl&#x0430;r n&#x0430;tij&#x0430;l&#x0430;ri q&#x043e;niq&#x0430;rli bo&#x2018;lm&#x0430;s </tspan></text>
</g>
<clipPath id="cp39598">
<path transform="matrix(1,0,0,-1,0,841.92)" d="M .000008871 0 L 595.32 0 L 595.32 841.92 L .000008871 841.92 Z " fill-rule="evenodd"/>
</clipPath>
<g clip-path="url(#cp39598)">
</g>
<clipPath id="cp39599">
<path transform="matrix(1,0,0,-1,0,841.92)" d="M .000008871 0 L 595.32 0 L 595.32 841.92 L .000008871 841.92 Z " fill-rule="evenodd"/>
</clipPath>
<g clip-path="url(#cp39599)">
<text xml:space="preserve" transform="matrix(1 0 -0 1 0 841.92)" font-size="14.04" font-family="Times New Roman"><tspan y="-579.34" x="85.104 91.33775 98.41391 104.53535 111.597469 115.10747 120.34439 127.40651 132.55919 139.6213 146.58515 150.4321 157.49422 163.72798 169.00702 179.69147 186.75359 193.8157 200.04947 203.89643 210.95854 217.1923 222.47135 229.43518 235.66895 238.19615 244.42992">ek&#x0430;n, u h&#x043e;ld&#x0430; m&#x043e;d&#x0435;lg&#x0430; b&#x0430;'zi</tspan></text>
</g>
<clipPath id="cp39600">
<path transform="matrix(1,0,0,-1,0,841.92)" d="M .000008871 0 L 595.32 0 L 595.32 841.92 L .000008871 841.92 Z " fill-rule="evenodd"/>
</clipPath>
<g clip-path="url(#cp39600)">
<text xml:space="preserve" transform="matrix(1 0 -0 1 0 841.92)" font-size="14.04" font-family="Times New Roman"><tspan y="-579.34" x="248.45">-</tspan></text>
</g>
<clipPath id="cp39601">
<path transform="matrix(1,0,0,-1,0,841.92)" d="M .000008871 0 L 595.32 0 L 595.32 841.92 L .000008871 841.92 Z " fill-rule="evenodd"/>
</clipPath>
<g clip-path="url(#cp39601)">
<text xml:space="preserve" transform="matrix(1 0 -0 1 0 841.92)" font-size="14.04" font-family="Times New Roman"><tspan y="-579.34" x="253.13 260.09385 264.03907 268.7144 273.9794 281.0415 285.6045 291.72593 298.78804 305.0218 309.6971 313.54408 318.94947 325.9133 329.85853 336.0923 340.7676 346.04667 353.0105 356.95573 361.5187 365.46394 369.31089 373.15785 378.6615 385.62535 392.68745 398.9212 404.20027 411.03773 418.09983 425.06367 429.00889 434.2739 441.23774 451.92219 459.11067 469.9074 476.14118 483.21733 488.48234 495.3198 501.55357 508.6297 515.69186 519.6371 524.9021 535.5865 542.6486 549.71078 555.9445 559.7915">bir o&#x2018;zg&#x0430;rishl&#x0430;r kiritishg&#x0430; yoki umum&#x0430;n yangi m&#x043e;d&#x0435;l </tspan></text>
</g>
<clipPath id="cp39602">
<path transform="matrix(1,0,0,-1,0,841.92)" d="M .000008871 0 L 595.32 0 L 595.32 841.92 L .000008871 841.92 Z " fill-rule="evenodd"/>
</clipPath>
<g clip-path="url(#cp39602)">
</g>
<clipPath id="cp39603">
<path transform="matrix(1,0,0,-1,0,841.92)" d="M .000008871 0 L 595.32 0 L 595.32 841.92 L .000008871 841.92 Z " fill-rule="evenodd"/>
</clipPath>
<g clip-path="url(#cp39603)">
<text xml:space="preserve" transform="matrix(1 0 -0 1 0 841.92)" font-size="14.04" font-family="Times New Roman"><tspan y="-555.07" x="85.104 92.166118 99.22823 103.79124 108.46656 112.31352 117.81721 124.781047 131.84316 138.07692 141.58692 148.52268 154.75644 165.56725 169.07724 172.98036 180.07057 184.63358 191.6957 196.2587 200.93402 204.87926 208.38925 215.40926 221.64302 225.63039 229.47734 234.88274 241.94486 245.89009 249.40009 260.05647 267.24494 277.92939 284.9915 288.9367 295.9988 299.50883 302.96269 313.0434 320.1055 326.22694 330.90226 334.41227 337.86613 344.92823 351.99034 355.50035 360.96189 368.05207 371.89903 375.74598 381.24964 388.21348 392.1587 396.00566 400.68098 404.52793 410.0316 416.99543 420.94065 427.1744 431.84974 435.35975 442.18318 448.41694 455.49308 460.89848 467.8623 471.80754 475.31755 482.33753 488.5713 492.4744 496.3775 500.2806 506.51438 510.33326 516.567 521.2423 528.2202 534.454 537.964 544.984 548.88717 552.7903 559.8103">ko&#x2018;rishg&#x0430; h&#x0430;m to&#x2018;g&#x2018;ri k&#x0435;lishi mumkin. &#x0410;g&#x0430;r  bu s&#x043e;lishtirishl&#x0430;r ya&#x0445;shi n&#x0430;tij&#x0430;l&#x0430;rg&#x0430; &#x043e;lib </tspan></text>
</g>
<clipPath id="cp39604">
<path transform="matrix(1,0,0,-1,0,841.92)" d="M .000008871 0 L 595.32 0 L 595.32 841.92 L .000008871 841.92 Z " fill-rule="evenodd"/>
</clipPath>
<g clip-path="url(#cp39604)">
</g>
<clipPath id="cp39605">
<path transform="matrix(1,0,0,-1,0,841.92)" d="M .000008871 0 L 595.32 0 L 595.32 841.92 L .000008871 841.92 Z " fill-rule="evenodd"/>
</clipPath>
<g clip-path="url(#cp39605)">
<text xml:space="preserve" transform="matrix(1 0 -0 1 0 841.92)" font-size="14.04" font-family="Times New Roman"><tspan y="-530.95" x="85.104 92.166118 98.39987 102.24683 107.75052 113.984279 117.49428 123.09624 129.93372 136.16748 138.69469 145.7568 149.70204 155.20572 159.88105 166.1148 172.25029 176.19553 180.04248 183.98772 190.95156">k&#x0435;ls&#x0430;, ya'ni r&#x0435;&#x0430;llik </tspan></text>
</g>
<clipPath id="cp39606">
<path transform="matrix(1,0,0,-1,0,841.92)" d="M .000008871 0 L 595.32 0 L 595.32 841.92 L .000008871 841.92 Z " fill-rule="evenodd"/>
</clipPath>
<g clip-path="url(#cp39606)">
<text xml:space="preserve" transform="matrix(1 0 -0 1 0 841.92)" font-size="14.04" font-family="Times New Roman"><tspan y="-530.95" x="196.73 203.69384 207.54079 211.48603 217.71979 224.68363 230.31366 237.15114 243.3849 247.33014 253.5639 258.23924 262.08619 266.0314 272.26518 279.229 285.46278 291.0928 298.05665 303.46205 307.40727 318.0917">bil&#x0430;n y&#x0435;t&#x0430;rlich&#x0430; ustm&#x0430;</tspan></text>
</g>
<clipPath id="cp39607">
<path transform="matrix(1,0,0,-1,0,841.92)" d="M .000008871 0 L 595.32 0 L 595.32 841.92 L .000008871 841.92 Z " fill-rule="evenodd"/>
</clipPath>
<g clip-path="url(#cp39607)">
<text xml:space="preserve" transform="matrix(1 0 -0 1 0 841.92)" font-size="14.04" font-family="Times New Roman"><tspan y="-530.95" x="324.43">-</tspan></text>
</g>
<clipPath id="cp39608">
<path transform="matrix(1,0,0,-1,0,841.92)" d="M .000008871 0 L 595.32 0 L 595.32 841.92 L .000008871 841.92 Z " fill-rule="evenodd"/>
</clipPath>
<g clip-path="url(#cp39608)">
<text xml:space="preserve" transform="matrix(1 0 -0 1 0 841.92)" font-size="14.04" font-family="Times New Roman"><tspan y="-530.95" x="329.23 336.2921 341.6975 345.64274 351.14643 355.09165 362.05549 367.55915 374.52299 380.02665 386.2604 389.77043 395.24604 402.30815 407.81184 414.87394 421.83778 425.68473 432.74684 438.9806 444.49833 455.29508 461.52885 468.60499 474.83876 480.46879 485.87419 492.93629 499.90013 505.53016 512.494 517.9977 521.94296 532.6273">ust tushs&#x0430;, u h&#x043e;ld&#x0430; m&#x0430;n&#x0430; shu ustm&#x0430;</tspan></text>
</g>
<clipPath id="cp39609">
<path transform="matrix(1,0,0,-1,0,841.92)" d="M .000008871 0 L 595.32 0 L 595.32 841.92 L .000008871 841.92 Z " fill-rule="evenodd"/>
</clipPath>
<g clip-path="url(#cp39609)">
<text xml:space="preserve" transform="matrix(1 0 -0 1 0 841.92)" font-size="14.04" font-family="Times New Roman"><tspan y="-530.95" x="539.14">-</tspan></text>
</g>
<clipPath id="cp39610">
<path transform="matrix(1,0,0,-1,0,841.92)" d="M .000008871 0 L 595.32 0 L 595.32 841.92 L .000008871 841.92 Z " fill-rule="evenodd"/>
</clipPath>
<g clip-path="url(#cp39610)">
<text xml:space="preserve" transform="matrix(1 0 -0 1 0 841.92)" font-size="14.04" font-family="Times New Roman"><tspan y="-530.95" x="543.82 550.88217 556.28756 560.1345">ust </tspan></text>
</g>
<clipPath id="cp39611">
<path transform="matrix(1,0,0,-1,0,841.92)" d="M .000008871 0 L 595.32 0 L 595.32 841.92 L .000008871 841.92 Z " fill-rule="evenodd"/>
</clipPath>
<g clip-path="url(#cp39611)">
</g>
<clipPath id="cp39612">
<path transform="matrix(1,0,0,-1,0,841.92)" d="M .000008871 0 L 595.32 0 L 595.32 841.92 L .000008871 841.92 Z " fill-rule="evenodd"/>
</clipPath>
<g clip-path="url(#cp39612)">
<text xml:space="preserve" transform="matrix(1 0 -0 1 0 841.92)" font-size="14.04" font-family="Times New Roman"><tspan y="-506.83" x="85.104 89.04924 96.01308 101.41848 108.4806 112.32756 117.831249 124.79508 128.64203 132.58727 139.64939 143.15938 149.25275 156.31487 162.43631 169.49843 175.7322 180.40752 186.543 190.48824 196.722 201.285 205.13196 208.64196 214.87572 221.89572 225.79885 232.7346 236.67984 242.9136 249.87744 253.7244 259.22807 266.1919 270.13713 273.64714 280.5829 286.81666 291.49198 297.62748 304.68959 308.1996 311.65345 318.61729 325.58113 330.1441 334.08934 340.3231 347.39924 351.34446">tushishlik ch&#x0435;g&#x0430;r&#x0430;l&#x0430;ri &#x0430;niql&#x0430;nishi k&#x0435;r&#x0430;k  bo&#x2018;l&#x0430;di.</tspan></text>
</g>
<clipPath id="cp39613">
<path transform="matrix(1,0,0,-1,0,841.92)" d="M .000008871 0 L 595.32 0 L 595.32 841.92 L .000008871 841.92 Z " fill-rule="evenodd"/>
</clipPath>
<g clip-path="url(#cp39613)">
<text xml:space="preserve" transform="matrix(1 0 -0 1 0 841.92)" font-size="14.04" font-family="Times New Roman"><tspan y="-506.83" x="354.91"> </tspan></text>
</g>
<clipPath id="cp39614">
<path transform="matrix(1,0,0,-1,0,841.92)" d="M .000008871 0 L 595.32 0 L 595.32 841.92 L .000008871 841.92 Z " fill-rule="evenodd"/>
</clipPath>
<g clip-path="url(#cp39614)">
</g>
</g>
<g id="Layer-1" data-name="P">
<clipPath id="cp39615">
<path transform="matrix(1,0,0,-1,0,841.92)" d="M .000008871 0 L 595.32 0 L 595.32 841.92 L .000008871 841.92 Z " fill-rule="evenodd"/>
</clipPath>
<g clip-path="url(#cp39615)">
<text xml:space="preserve" transform="matrix(1 0 -0 1 0 841.92)" font-size="14.04" font-family="Times New Roman"><tspan y="-482.71" x="113.42 121.942279 129.0044 135.96823 139.91347 143.42346 154.07984 161.14196 168.20407 174.43784 178.38307 181.89307 185.6979 192.66175 198.16542 205.12926 212.19138 219.15522 225.38898 232.35282 238.58658 244.10431 247.95127 255.01338 261.24714 264.61674 268.56196 274.79573 277.3229 281.8859 285.83113 290.50645 294.01646 301.03645 307.18598 311.8613 318.09507 328.7795 332.72474 338.9585">Endi m&#x043e;d&#x0435;l tushunch&#x0430;sig&#x0430; t&#x0430;'rif b&#x0435;r&#x0430;miz.</tspan></text>
</g>
<clipPath id="cp39616">
<path transform="matrix(1,0,0,-1,0,841.92)" d="M .000008871 0 L 595.32 0 L 595.32 841.92 L .000008871 841.92 Z " fill-rule="evenodd"/>
</clipPath>
<g clip-path="url(#cp39616)">
<text xml:space="preserve" transform="matrix(1 0 -0 1 0 841.92)" font-size="14.04" font-family="Times New Roman"><tspan y="-482.71" x="342.67"> </tspan></text>
</g>
<clipPath id="cp39617">
<path transform="matrix(1,0,0,-1,0,841.92)" d="M .000008871 0 L 595.32 0 L 595.32 841.92 L .000008871 841.92 Z " fill-rule="evenodd"/>
</clipPath>
<g clip-path="url(#cp39617)">
</g>
</g>
<g id="Layer-1" data-name="P">
<clipPath id="cp39618">
<path transform="matrix(1,0,0,-1,0,841.92)" d="M .000008871 0 L 595.32 0 L 595.32 841.92 L .000008871 841.92 Z " fill-rule="evenodd"/>
</clipPath>
<g clip-path="url(#cp39618)">
<text xml:space="preserve" transform="matrix(1 0 -0 1 0 841.92)" font-size="14.04" font-family="Times New Roman,BoldItalic" font-weight="bold" font-style="italic"><tspan y="-458.47" x="113.42 121.942279 129.0044 132.85135 138.35503 142.30027">T&#x0430;'rif</tspan></text>
</g>
<clipPath id="cp39619">
<path transform="matrix(1,0,0,-1,0,841.92)" d="M .000008871 0 L 595.32 0 L 595.32 841.92 L .000008871 841.92 Z " fill-rule="evenodd"/>
</clipPath>
<g clip-path="url(#cp39619)">
<text xml:space="preserve" transform="matrix(1 0 -0 1 0 841.92)" font-size="14.04" font-family="Times New Roman,Bold" font-weight="bold"><tspan y="-458.47" x="147.02">.</tspan></text>
</g>
<clipPath id="cp39620">
<path transform="matrix(1,0,0,-1,0,841.92)" d="M .000008871 0 L 595.32 0 L 595.32 841.92 L .000008871 841.92 Z " fill-rule="evenodd"/>
</clipPath>
<g clip-path="url(#cp39620)">
<text xml:space="preserve" transform="matrix(1 0 -0 1 0 841.92)" font-size="14.04" font-family="Times New Roman"><tspan y="-458.47" x="150.5"> </tspan></text>
</g>
<clipPath id="cp39621">
<path transform="matrix(1,0,0,-1,0,841.92)" d="M .000008871 0 L 595.32 0 L 595.32 841.92 L .000008871 841.92 Z " fill-rule="evenodd"/>
</clipPath>
<g clip-path="url(#cp39621)">
<text xml:space="preserve" transform="matrix(1 0 -0 1 0 841.92)" font-size="14.04" font-family="Times New Roman"><tspan y="-458.47" x="154.46 163.69834 167.64357 173.87734 177.71025 184.77237 189.33538 194.0107 201.08687 207.20832 214.27043 224.95488 232.017 239.07912 245.20056 252.26268 256.20793 260.04084 267.00468 274.06678 278.62977 282.57499 289.6371 295.7585 302.82063 306.65354 313.71565 320.67948 325.3548 329.20176 333.14698 340.1108 344.05607 351.0199 358.082 360.6092 366.71659 373.7787 377.62565 384.68775 388.5347 395.49855 402.56065 406.5059 413.34336 420.40547 427.46757 431.3145 435.25978 442.32188 448.55564 455.40715 462.46925 466.3162 470.16316 477.0006 480.94587 488.00798 494.24174 498.91706 504.43476 510.66853 517.6324 521.4794 528.5415 535.60366 539.4366 545.67037 552.6342 559.5981">Biz o&#x2018;rg&#x0430;nm&#x043e;qchi bo&#x2018;lg&#x0430;n b&#x043e;rliq &#x043e;b'&#x0435;ktning yoki hayoliy n&#x0430;rs&#x0430;ning eng </tspan></text>
</g>
<clipPath id="cp39622">
<path transform="matrix(1,0,0,-1,0,841.92)" d="M .000008871 0 L 595.32 0 L 595.32 841.92 L .000008871 841.92 Z " fill-rule="evenodd"/>
</clipPath>
<g clip-path="url(#cp39622)">
</g>
<clipPath id="cp39623">
<path transform="matrix(1,0,0,-1,0,841.92)" d="M .000008871 0 L 595.32 0 L 595.32 841.92 L .000008871 841.92 Z " fill-rule="evenodd"/>
</clipPath>
<g clip-path="url(#cp39623)">
<text xml:space="preserve" transform="matrix(1 0 -0 1 0 841.92)" font-size="14.04" font-family="Times New Roman"><tspan y="-434.35" x="85.104 95.78844 102.850559 109.912677 113.984279 124.66872 128.74031 135.80243 142.86455 148.26995 155.33206 160.73746 164.6827 171.52017 177.75394 181.69918 185.64441 191.87818 196.44118 200.28813 207.25197 211.1972 215.2688 219.21404">muhim &#x0445;ususiyatl&#x0430;rini if</tspan></text>
</g>
<clipPath id="cp39624">
<path transform="matrix(1,0,0,-1,0,841.92)" d="M .000008871 0 L 595.32 0 L 595.32 841.92 L .000008871 841.92 Z " fill-rule="evenodd"/>
</clipPath>
<g clip-path="url(#cp39624)">
<text xml:space="preserve" transform="matrix(1 0 -0 1 0 841.92)" font-size="14.04" font-family="Times New Roman"><tspan y="-434.35" x="223.97 231.03212 237.99596 244.22972 248.30132 255.26515 259.2104 263.05735 270.02119 277.08329 283.31706 290.28089 294.2261 297.7361 301.7656 308.72944 315.79154 319.6385 326.60234 333.66444 337.73606 348.4205 355.4826 362.5447 366.48994 377.17439 381.246 388.3081 394.54188 399.2172 405.57734 416.26179 422.49555 426.44078 431.1161 435.0613 441.29508 445.85807 449.80329 456.76713 460.71235 464.78398 471.84608 476.40907 482.64283 486.48979 493.55189 499.78565 503.85728 514.5417 521.6038 525.4508 531.6846 537.2023 542.70596 548.9397 559.7505">&#x043e;d&#x0430; qiluvchi, uning muhim p&#x0430;r&#x0430;m&#x0435;trl&#x0430;rini o&#x2018;zid&#x0430; muj&#x0430;ss&#x0430;m </tspan></text>
</g>
<clipPath id="cp39625">
<path transform="matrix(1,0,0,-1,0,841.92)" d="M .000008871 0 L 595.32 0 L 595.32 841.92 L .000008871 841.92 Z " fill-rule="evenodd"/>
</clipPath>
<g clip-path="url(#cp39625)">
</g>
<clipPath id="cp39626">
<path transform="matrix(1,0,0,-1,0,841.92)" d="M .000008871 0 L 595.32 0 L 595.32 841.92 L .000008871 841.92 Z " fill-rule="evenodd"/>
</clipPath>
<g clip-path="url(#cp39626)">
<text xml:space="preserve" transform="matrix(1 0 -0 1 0 841.92)" font-size="14.04" font-family="Times New Roman"><tspan y="-410.23" x="85.104 92.166118 96.01308 99.95832 106.92216 113.155918 120.23207 123.74207 134.39844 140.6322 144.57744 150.8112 155.48653 159.44582 165.56726 169.5125 173.02249 179.8319 186.89402 193.95613 197.90137 201.25693 205.10388 212.166 218.39977 224.52121 228.46645 231.97644 235.43027 242.3941 249.45623 254.13155 257.97853 261.92375 272.6082 278.84196 285.9181 292.15187">qilg&#x0430;n m&#x0430;t&#x0435;ri&#x0430;l yoki id&#x0435;&#x0430;l  qurilm&#x0430;g&#x0430; </tspan></text>
</g>
<clipPath id="cp39627">
<path transform="matrix(1,0,0,-1,0,841.92)" d="M .000008871 0 L 595.32 0 L 595.32 841.92 L .000008871 841.92 Z " fill-rule="evenodd"/>
</clipPath>
<g clip-path="url(#cp39627)">
<text xml:space="preserve" transform="matrix(1 0 -0 1 0 841.92)" font-size="14.04" font-family="Times New Roman,Bold" font-weight="bold"><tspan y="-410.23" x="295.85 307.37684 314.43894 322.24519 328.47895">m&#x043e;d&#x0435;l</tspan></text>
</g>
<clipPath id="cp39628">
<path transform="matrix(1,0,0,-1,0,841.92)" d="M .000008871 0 L 595.32 0 L 595.32 841.92 L .000008871 841.92 Z " fill-rule="evenodd"/>
</clipPath>
<g clip-path="url(#cp39628)">
<text xml:space="preserve" transform="matrix(1 0 -0 1 0 841.92)" font-size="14.04" font-family="Times New Roman"><tspan y="-410.23" x="332.47"> </tspan></text>
</g>
<clipPath id="cp39629">
<path transform="matrix(1,0,0,-1,0,841.92)" d="M .000008871 0 L 595.32 0 L 595.32 841.92 L .000008871 841.92 Z " fill-rule="evenodd"/>
</clipPath>
<g clip-path="url(#cp39629)">
<text xml:space="preserve" transform="matrix(1 0 -0 1 0 841.92)" font-size="14.04" font-family="Times New Roman"><tspan y="-410.23" x="335.95 342.91386 349.1476 355.9991 359.94435 363.88957 370.12333 377.08717 381.03239">d&#x0435;yil&#x0430;di.</tspan></text>
</g>
<clipPath id="cp39630">
<path transform="matrix(1,0,0,-1,0,841.92)" d="M .000008871 0 L 595.32 0 L 595.32 841.92 L .000008871 841.92 Z " fill-rule="evenodd"/>
</clipPath>
<g clip-path="url(#cp39630)">
<text xml:space="preserve" transform="matrix(1 0 -0 1 0 841.92)" font-size="14.04" font-family="Times New Roman"><tspan y="-410.23" x="384.43"> </tspan></text>
</g>
<clipPath id="cp39631">
<path transform="matrix(1,0,0,-1,0,841.92)" d="M .000008871 0 L 595.32 0 L 595.32 841.92 L .000008871 841.92 Z " fill-rule="evenodd"/>
</clipPath>
<g clip-path="url(#cp39631)">
</g>
</g>
<g id="Layer-1" data-name="P">
<clipPath id="cp39632">
<path transform="matrix(1,0,0,-1,0,841.92)" d="M .000008871 0 L 595.32 0 L 595.32 841.92 L .000008871 841.92 Z " fill-rule="evenodd"/>
</clipPath>
<g clip-path="url(#cp39632)">
<text xml:space="preserve" transform="matrix(1 0 -0 1 0 841.92)" font-size="14.04" font-family="Times New Roman"><tspan y="-386.09" x="113.42 125.90156 132.86539 139.9275 146.16127 150.00823 153.95346 160.18723 164.86255 168.37255 174.10086 178.0461 184.27986 186.80707 191.37007 195.3153 199.99063 206.95447 213.18824 219.05695 225.29071 232.14223 236.08747 240.0327 243.87966 250.94178 257.0632 264.1253 271.08915 277.3229 284.39906 290.2678 300.95225 307.186 311.13124 317.365 322.0403 325.99958 332.121 336.06623 341.93498 348.8988 355.02024 360.88899 364.8342 371.8963 378.01774 384.2515 388.19673 393.9391 401.0012 408.0633 412.62629 416.47325 420.41847 431.1029 437.33668 443.2054 450.26753 457.32963 461.8926 466.56794 470.51316 477.477 481.4222 486.8276 493.8897 497.73667 504.79878 511.03254 516.78897 523.7528 530.81497 535.3779 539.3232 543.26846 548.6738 555.6377 559.58297">M&#x043e;d&#x0435;ll&#x0430;r, t&#x0430;'rifd&#x0430; &#x0430;ytilg&#x0430;nd&#x0435;k m&#x0430;t&#x0435;ri&#x0430;l v&#x0430; id&#x0435;&#x0430;l qurilm&#x0430; ko&#x2018;rinishid&#x0430; bo&#x2018;lishi </tspan></text>
</g>
<clipPath id="cp39633">
<path transform="matrix(1,0,0,-1,0,841.92)" d="M .000008871 0 L 595.32 0 L 595.32 841.92 L .000008871 841.92 Z " fill-rule="evenodd"/>
</clipPath>
<g clip-path="url(#cp39633)">
</g>
<clipPath id="cp39634">
<path transform="matrix(1,0,0,-1,0,841.92)" d="M .000008871 0 L 595.32 0 L 595.32 841.92 L .000008871 841.92 Z " fill-rule="evenodd"/>
</clipPath>
<g clip-path="url(#cp39634)">
<text xml:space="preserve" transform="matrix(1 0 -0 1 0 841.92)" font-size="14.04" font-family="Times New Roman"><tspan y="-361.97" x="85.104 95.78844 102.97691 113.661357 120.72347 124.66872 131.73084 137.47319 143.70696 150.78313 156.90457 163.96669 167.47669 173.19097 185.54618 191.77994 195.72518 201.95894 206.52194 210.46718 216.70095 220.5479 226.29026 236.9747 244.03682 251.09894 257.3327 261.17967 265.12489 271.35865 276.03398 281.664 287.16767 291.11289 295.67588 301.90965 305.7566 309.7018 316.66566 322.8994 328.52946 333.20478 340.2809 344.12788 351.18998 356.82 362.2254 369.2875 373.96284 380.1966 384.15586 387.5114 393.25379 397.199 403.32044 407.26567 413.3871 420.4492 426.57063 433.63273 437.47969 444.54179 448.38874 454.6225 460.3789 466.61268">mumkin ek&#x0430;n. M&#x0430;t&#x0435;ri&#x0430;l m&#x043e;d&#x0435;ll&#x0430;r sif&#x0430;tid&#x0430; f&#x043e;t&#x043e; sur&#x0430;t, t&#x0435;l&#x0435;v&#x0435;dini&#x0435; ek</tspan></text>
</g>
<clipPath id="cp39635">
<path transform="matrix(1,0,0,-1,0,841.92)" d="M .000008871 0 L 595.32 0 L 595.32 841.92 L .000008871 841.92 Z " fill-rule="evenodd"/>
</clipPath>
<g clip-path="url(#cp39635)">
<text xml:space="preserve" transform="matrix(1 0 -0 1 0 841.92)" font-size="14.04" font-family="Times New Roman"><tspan y="-361.97" x="474.22 478.783 485.01676 491.9806 495.82756 502.88966 509.1234 516.0873 520.03256 525.6626 529.60787 535.7293 541.233 548.19686 552.1421 556.7051 560.06069">r&#x0430;nid&#x0430;gi t&#x0430;svir, </tspan></text>
</g>
<clipPath id="cp39636">
<path transform="matrix(1,0,0,-1,0,841.92)" d="M .000008871 0 L 595.32 0 L 595.32 841.92 L .000008871 841.92 Z " fill-rule="evenodd"/>
</clipPath>
<g clip-path="url(#cp39636)">
</g>
<clipPath id="cp39637">
<path transform="matrix(1,0,0,-1,0,841.92)" d="M .000008871 0 L 595.32 0 L 595.32 841.92 L .000008871 841.92 Z " fill-rule="evenodd"/>
</clipPath>
<g clip-path="url(#cp39637)">
<text xml:space="preserve" transform="matrix(1 0 -0 1 0 841.92)" font-size="14.04" font-family="Times New Roman"><tspan y="-337.73" x="85.104 92.166118 96.01308 102.97691 110.03903 115.19171 125.87615 132.10991 139.18608 145.41985 149.36508 153.31032 158.33664 165.39876 171.63253 176.65885 182.16252 189.12636 196.0902 203.05403 210.11615 216.34992 221.37624 228.43836 233.00136 240.06348 245.46887 252.53099 258.76475 264.17015 271.23225 276.38493 287.06938 291.0146 296.51826 303.4821 307.4273 311.27427 317.50804 322.071 329.13313 333.07835 338.10469 345.0685 352.1306 356.6936 361.36894 366.8726 373.10636 376.9533 380.89854 386.30393 393.36604 398.5187 409.20317 416.39164 427.07609 434.13819 437.98515 445.04725 448.55726 453.66783 458.34315 465.30699 471.54075 477.7745 481.73377 486.88645 497.5709 504.633 511.6951 517.8165 521.7618 525.60879 531.8425 536.5178 541.67056 547.792 553.29568 559.5294">bin&#x043e; m&#x0430;k&#x0435;ti v&#x0430; shung&#x0430; o&#x2018;&#x0445;sh&#x0430;sh mis&#x043e;ll&#x0430;rni ko&#x2018;rs&#x0430;tish mumkin. Id&#x0435;&#x0430;l m&#x043e;d&#x0435;ll&#x0430;r es&#x0430; </tspan></text>
</g>
<clipPath id="cp39638">
<path transform="matrix(1,0,0,-1,0,841.92)" d="M .000008871 0 L 595.32 0 L 595.32 841.92 L .000008871 841.92 Z " fill-rule="evenodd"/>
</clipPath>
<g clip-path="url(#cp39638)">
</g>
<clipPath id="cp39639">
<path transform="matrix(1,0,0,-1,0,841.92)" d="M .000008871 0 L 595.32 0 L 595.32 841.92 L .000008871 841.92 Z " fill-rule="evenodd"/>
</clipPath>
<g clip-path="url(#cp39639)">
<text xml:space="preserve" transform="matrix(1 0 -0 1 0 841.92)" font-size="14.04" font-family="Times New Roman"><tspan y="-313.61" x="85.104 91.33775 96.85548 103.81931 109.323 115.444438 122.50655 131.61852 138.68064 144.80208 148.74732 155.71115 159.65639 163.50334 169.7371 174.41243 177.92243 187.13266 197.81711 204.1632 208.10843 214.3422 225.02664 231.2604 235.20565 239.15088 246.213 255.32495 259.27018 263.83317 270.89527 277.8591 284.09288 288.0381 294.27186 298.83485 308.05915 314.8966 321.9587 326.63404 333.71018 339.94395 350.6284 354.5736 361.6357 367.86949 377.10783 387.79228 394.02604 401.10218 407.33595 416.57429 422.07795 429.04179 436.10389 445.21586 452.27796 458.51173 462.35868 469.3225 473.26774 477.1147 483.34846 488.02378 491.53379 500.74403 511.42848 517.66226 521.6075 527.95358 538.63796 544.8717 548.81698 552.66397 559.6278">&#x0430;s&#x043e;s&#x0430;n b&#x0435;lgil&#x0430;r, m&#x0430;t&#x0435;m&#x0430;tik if&#x043e;d&#x0430;l&#x0430;r yord&#x0430;mid&#x0430; m&#x0430;n&#x0430; shu b&#x0435;lgil&#x0430;r, m&#x0430;t&#x0435;m&#x0430;tik </tspan></text>
</g>
<clipPath id="cp39640">
<path transform="matrix(1,0,0,-1,0,841.92)" d="M .000008871 0 L 595.32 0 L 595.32 841.92 L .000008871 841.92 Z " fill-rule="evenodd"/>
</clipPath>
<g clip-path="url(#cp39640)">
</g>
<clipPath id="cp39641">
<path transform="matrix(1,0,0,-1,0,841.92)" d="M .000008871 0 L 595.32 0 L 595.32 841.92 L .000008871 841.92 Z " fill-rule="evenodd"/>
</clipPath>
<g clip-path="url(#cp39641)">
<text xml:space="preserve" transform="matrix(1 0 -0 1 0 841.92)" font-size="14.04" font-family="Times New Roman"><tspan y="-289.49" x="85.104 89.04924 93.72456 100.6884 107.75052 113.871959 117.8172 124.05096 128.72628 138.91931 145.15308 150.55847 156.79224 166.98528 171.6606 177.89437 184.12813 188.08742 198.26642 205.23026 211.46402 216.13935 221.65708 227.77852 231.72376 237.95752 242.63285 252.82588 259.888 264.451 270.68476 276.09016 280.03538 286.9992 293.23298 300.1968 304.14204 314.32106 325.1178 332.1799 339.14375 346.10758 351.61125 357.845 364.80885 371.0426 374.88957 378.83479 385.06855 389.63154 396.69364 400.63887 404.14888 414.2998 418.14677 424.38053 431.34437 438.40647 442.25343 448.59953 459.28398 465.51774 469.46296 475.69673 480.37205 483.88206 494.04704 497.99226 504.226 511.18986 516.5953 520.5405 526.7743 530.6213 534.46829 541.5304 545.47567 551.5971 556.2724 559.642">if&#x043e;d&#x0430;l&#x0430;r es&#x0430; r&#x0435;&#x0430;l n&#x0430;rs&#x0430;l&#x0430;r &#x043e;r&#x0430;sid&#x0430;gi mun&#x043e;s&#x0430;b&#x0430;tl&#x0430;rni, t&#x0435;ngl&#x0430;m&#x0430;l&#x0430;r, t&#x0435;nsizlikl&#x0430;r, </tspan></text>
</g>
<clipPath id="cp39642">
<path transform="matrix(1,0,0,-1,0,841.92)" d="M .000008871 0 L 595.32 0 L 595.32 841.92 L .000008871 841.92 Z " fill-rule="evenodd"/>
</clipPath>
<g clip-path="url(#cp39642)">
</g>
<clipPath id="cp39643">
<path transform="matrix(1,0,0,-1,0,841.92)" d="M .000008871 0 L 595.32 0 L 595.32 841.92 L .000008871 841.92 Z " fill-rule="evenodd"/>
</clipPath>
<g clip-path="url(#cp39643)">
<text xml:space="preserve" transform="matrix(1 0 -0 1 0 841.92)" font-size="14.04" font-family="Times New Roman"><tspan y="-265.37" x="85.104 92.166118 96.84144 103.075199">gr&#x0430;f</tspan></text>
</g>
<clipPath id="cp39644">
<path transform="matrix(1,0,0,-1,0,841.92)" d="M .000008871 0 L 595.32 0 L 595.32 841.92 L .000008871 841.92 Z " fill-rule="evenodd"/>
</clipPath>
<g clip-path="url(#cp39644)">
<text xml:space="preserve" transform="matrix(1 0 -0 1 0 841.92)" font-size="14.04" font-family="Times New Roman"><tspan y="-265.37" x="107.66 111.60525 118.569087 122.51433 128.7481 133.42342 136.93341 140.27492 147.33704 154.39916 165.0836 172.14572 178.9832 186.04532 189.99056 196.22432 200.89965 204.40964 211.42964 217.5932 224.65532 231.61916 238.68128 242.19127 249.12703 255.3608 260.7662 264.71144 271.67527 276.3506 280.2958 286.52958 291.2049 294.5745 301.6366 307.87037 311.23997 318.30207 325.2659 330.76957 337.7334 344.7955 350.91694 354.86216 361.09593 365.77125 369.28126 375.38865 380.8923 387.85615 393.26155 397.20677 404.26887 410.50263 413.87223 417.81745 423.93888 429.44255 436.40638 440.3516 444.91459 448.8598 455.09358 461.94508 469.00718 472.9524">ikl&#x0430;r, k&#x043e;mpyut&#x0435;r uchun d&#x0430;sturl&#x0430;r v&#x0430; b&#x043e;shq&#x0430;l&#x0430;r &#x0430;s&#x043e;sid&#x0430; t&#x0430;svirl&#x0430;ydi.</tspan></text>
</g>
<clipPath id="cp39645">
<path transform="matrix(1,0,0,-1,0,841.92)" d="M .000008871 0 L 595.32 0 L 595.32 841.92 L .000008871 841.92 Z " fill-rule="evenodd"/>
</clipPath>
<g clip-path="url(#cp39645)">
<text xml:space="preserve" transform="matrix(1 0 -0 1 0 841.92)" font-size="14.04" font-family="Times New Roman"><tspan y="-265.37" x="476.74"> </tspan></text>
</g>
<clipPath id="cp39646">
<path transform="matrix(1,0,0,-1,0,841.92)" d="M .000008871 0 L 595.32 0 L 595.32 841.92 L .000008871 841.92 Z " fill-rule="evenodd"/>
</clipPath>
<g clip-path="url(#cp39646)">
</g>
</g>
<g id="Layer-1" data-name="P">
<clipPath id="cp39647">
<path transform="matrix(1,0,0,-1,0,841.92)" d="M .000008871 0 L 595.32 0 L 595.32 841.92 L .000008871 841.92 Z " fill-rule="evenodd"/>
</clipPath>
<g clip-path="url(#cp39647)">
<text xml:space="preserve" transform="matrix(1 0 -0 1 0 841.92)" font-size="14.04" font-family="Times New Roman"><tspan y="-241.13" x="113.42 125.90156 132.13532 136.08055 142.31432 152.99877 159.23253 163.17777 167.02472 174.08684 183.67615 194.3606 201.42272 208.48484 214.7186 218.66384 222.51079 228.74456 233.30756 242.89687 246.8421 253.90422 260.02565 266.2594 270.20463 279.79396 290.4784 297.5405 304.6026 310.83638 314.68333 318.62855 324.8623 329.53764 339.01466 344.5183 348.36528 352.92826 359.16203 364.67973 368.52668 375.58879 381.82255 391.29957 398.36167 402.20863 406.88395 413.1177 420.09559 424.0408 427.5508 437.11207 446.35038 453.41249 463.0018 473.79856 480.86067 487.8245 494.05827 497.9052 501.85044 508.0842 512.7595 522.2365 529.29867 536.2625 542.4963 546.34329 553.4054 559.63919">M&#x0430;t&#x0435;m&#x0430;tik m&#x043e;d&#x0435;ll&#x0430;r id&#x0435;&#x0430;l m&#x043e;d&#x0435;ll&#x0430;r sir&#x0430;sig&#x0430; kir&#x0430;di. Bu m&#x043e;d&#x0435;ll&#x0430;r &#x043e;d&#x0430;td&#x0430; </tspan></text>
</g>
<clipPath id="cp39648">
<path transform="matrix(1,0,0,-1,0,841.92)" d="M .000008871 0 L 595.32 0 L 595.32 841.92 L .000008871 841.92 Z " fill-rule="evenodd"/>
</clipPath>
<g clip-path="url(#cp39648)">
</g>
<clipPath id="cp39649">
<path transform="matrix(1,0,0,-1,0,841.92)" d="M .000008871 0 L 595.32 0 L 595.32 841.92 L .000008871 841.92 Z " fill-rule="evenodd"/>
</clipPath>
<g clip-path="url(#cp39649)">
<text xml:space="preserve" transform="matrix(1 0 -0 1 0 841.92)" font-size="14.04" font-family="Times New Roman"><tspan y="-216.98" x="85.104 95.90076 102.134517 106.07976 112.313518 122.997959 129.23172 133.17696 137.1222 144.18431 155.57074 162.63286 168.7543 172.69954 179.66338 183.51033 187.45557 193.68933 198.36466 201.73426 213.12068 218.62436 225.5882 232.65032 236.59555 242.717 247.39232 250.90232 262.26069 266.936 273.89985 280.96195 287.92579 293.42945 297.37467 304.21214 310.4459 314.3911 320.51255 325.18788 328.69789 340.05625 344.00148 350.23524 357.19908 364.26118 368.10813 374.3419 385.02635 391.2601 395.20533 401.4391 406.1144 409.62443 420.99684 428.05894 432.73426 438.85569 443.531 447.47624 454.44007 458.38529 464.61906 469.29438 480.5685 487.6306 493.86439 505.25083 512.21469 518.4484 525.5246 531.64608 537.8798 544.8437 548.78897 555.0227 559.5857">m&#x0430;t&#x0435;m&#x0430;tik b&#x0435;lgil&#x0430;r, s&#x043e;nl&#x0430;r, funksiyal&#x0430;r, t&#x0435;ngl&#x0430;m&#x0430;l&#x0430;r, gr&#x0430;fikl&#x0430;r v&#x0430; h&#x0430;k&#x0430;z&#x043e;l&#x0430;r </tspan></text>
</g>
<clipPath id="cp39650">
<path transform="matrix(1,0,0,-1,0,841.92)" d="M .000008871 0 L 595.32 0 L 595.32 841.92 L .000008871 841.92 Z " fill-rule="evenodd"/>
</clipPath>
<g clip-path="url(#cp39650)">
</g>
<clipPath id="cp39651">
<path transform="matrix(1,0,0,-1,0,841.92)" d="M .000008871 0 L 595.32 0 L 595.32 841.92 L .000008871 841.92 Z " fill-rule="evenodd"/>
</clipPath>
<g clip-path="url(#cp39651)">
<text xml:space="preserve" transform="matrix(1 0 -0 1 0 841.92)" font-size="14.04" font-family="Times New Roman"><tspan y="-192.86" x="85.104 91.941478 99.00359 103.67892 110.75507 116.98883 127.67327 131.6185 138.68062 144.91439 148.42438 155.44438 162.54863 167.11164 171.78696 175.63391 179.57915 185.70059 192.76271 196.70795">yord&#x0430;mid&#x0430; ko&#x2018;ril&#x0430;di.</tspan></text>
</g>
<clipPath id="cp39652">
<path transform="matrix(1,0,0,-1,0,841.92)" d="M .000008871 0 L 595.32 0 L 595.32 841.92 L .000008871 841.92 Z " fill-rule="evenodd"/>
</clipPath>
<g clip-path="url(#cp39652)">
<text xml:space="preserve" transform="matrix(1 0 -0 1 0 841.92)" font-size="14.04" font-family="Times New Roman"><tspan y="-192.86" x="200.21"> </tspan></text>
</g>
<clipPath id="cp39653">
<path transform="matrix(1,0,0,-1,0,841.92)" d="M .000008871 0 L 595.32 0 L 595.32 841.92 L .000008871 841.92 Z " fill-rule="evenodd"/>
</clipPath>
<g clip-path="url(#cp39653)">
</g>
</g>
<g id="Layer-1" data-name="P">
<clipPath id="cp39654">
<path transform="matrix(1,0,0,-1,0,841.92)" d="M .000008871 0 L 595.32 0 L 595.32 841.92 L .000008871 841.92 Z " fill-rule="evenodd"/>
</clipPath>
<g clip-path="url(#cp39654)">
<text xml:space="preserve" transform="matrix(1 0 -0 1 0 841.92)" font-size="14.04" font-family="Times New Roman,Bold" font-weight="bold"><tspan y="-168.74" x="113.42"> </tspan></text>
</g>
</g>
<g id="Layer-1" data-name="P">
<clipPath id="cp39655">
<path transform="matrix(1,0,0,-1,0,841.92)" d="M .000008871 0 L 595.32 0 L 595.32 841.92 L .000008871 841.92 Z " fill-rule="evenodd"/>
</clipPath>
<g clip-path="url(#cp39655)">
<text xml:space="preserve" transform="matrix(1 0 -0 1 0 841.92)" font-size="14.04" font-family="Times New Roman"><tspan y="-168.74" x="120.5"> </tspan></text>
</g>
<clipPath id="cp39656">
<path transform="matrix(1,0,0,-1,0,841.92)" d="M .000008871 0 L 595.32 0 L 595.32 841.92 L .000008871 841.92 Z " fill-rule="evenodd"/>
</clipPath>
<g clip-path="url(#cp39656)">
</g>
</g>
<g id="Layer-1" data-name="P">
<clipPath id="cp39657">
<path transform="matrix(1,0,0,-1,0,841.92)" d="M .000008871 0 L 595.32 0 L 595.32 841.92 L .000008871 841.92 Z " fill-rule="evenodd"/>
</clipPath>
<g clip-path="url(#cp39657)">
<text xml:space="preserve" transform="matrix(1 0 -0 1 0 841.92)" font-size="14.04" font-family="Times New Roman,Bold" font-weight="bold"><tspan y="-144.26" x="180.26 187.32212 194.38423 197.73979 204.80191 208.3119 211.76573 224.96334 232.02545 236.70078 242.93454 254.46138 261.5235 266.0865 270.0317 277.58525">13.2. Matematik </tspan></text>
</g>
<clipPath id="cp39658">
<path transform="matrix(1,0,0,-1,0,841.92)" d="M .000008871 0 L 595.32 0 L 595.32 841.92 L .000008871 841.92 Z " fill-rule="evenodd"/>
</clipPath>
<g clip-path="url(#cp39658)">
<text xml:space="preserve" transform="matrix(1 0 -0 1 0 841.92)" font-size="14.04" font-family="Times New Roman,Bold" font-weight="bold"><tspan y="-144.26" x="281.33 292.8568 300.0453 307.85154 314.0853 318.03053 321.87748 328.93959 335.17335 342.8532 346.79844 350.30845 357.96025 365.02235 369.69767 373.54463 377.39158 384.45368 389.95735 397.76359 405.44346 409.38868 417.06855 424.13066 427.64067 433.87443 440.81019 447.04396 454.8502 461.08396 464.9309 468.77787 475.83998">modellarni qo&#x2019;llashning zarurligi</tspan></text>
</g>
<clipPath id="cp39659">
<path transform="matrix(1,0,0,-1,0,841.92)" d="M .000008871 0 L 595.32 0 L 595.32 841.92 L .000008871 841.92 Z " fill-rule="evenodd"/>
</clipPath>
<g clip-path="url(#cp39659)">
<text xml:space="preserve" transform="matrix(1 0 -0 1 0 841.92)" font-size="14.04" font-family="Times New Roman,Bold" font-weight="bold"><tspan y="-144.26" x="479.86"> </tspan></text>
</g>
</g>
<g id="Layer-1" data-name="P">
<clipPath id="cp39660">
<path transform="matrix(1,0,0,-1,0,841.92)" d="M .000008871 0 L 595.32 0 L 595.32 841.92 L .000008871 841.92 Z " fill-rule="evenodd"/>
</clipPath>
<g clip-path="url(#cp39660)">
<text xml:space="preserve" transform="matrix(1 0 -0 1 0 841.92)" font-size="12" font-family="Times New Roman,Bold" font-weight="bold"><tspan y="-121.94" x="330.07"> </tspan></text>
</g>
</g>
<g id="Layer-1" data-name="P">
<clipPath id="cp39661">
<path transform="matrix(1,0,0,-1,0,841.92)" d="M .000008871 0 L 595.32 0 L 595.32 841.92 L .000008871 841.92 Z " fill-rule="evenodd"/>
</clipPath>
<g clip-path="url(#cp39661)">
<text xml:space="preserve" transform="matrix(1 0 -0 1 0 841.92)" font-size="14.04" font-family="Times New Roman"><tspan y="-99.744" x="113.42 123.599 134.28345 140.51721 144.46245 148.40769 155.24517 161.82991 172.62668 178.86045 184.37818 190.61194 194.55718 200.79094 204.73618 210.85762 215.53295 222.49678 226.44202 232.91445 239.75193 245.98569 252.21945 259.2956 263.2408 268.6462 275.7083 282.77043 289.00419 292.5142 298.95857 305.08 312.1421 317.5475 323.78126 328.45658 332.41584 339.2533 345.48707 349.334 355.80647 362.86857 369.93067 373.77763 377.72285 383.9566 388.5196 395.5817 401.81547 405.32548 411.76985 418.83195 423.39494 428.07026 435.1464 441.26783 448.23167 452.17689 456.02384 462.2576 469.22145 476.28355 480.1305 487.1926 493.31404 500.37614 506.84858 510.69554 516.92929 521.60458 527.8383 534.6899 541.752 548.81417 555.778 559.625">Amaliy masalalarni yechishda, aksariyat hollarda, o&#x2019;rganilayotgan jarayonni </tspan></text>
</g>
<clipPath id="cp39662">
<path transform="matrix(1,0,0,-1,0,841.92)" d="M .000008871 0 L 595.32 0 L 595.32 841.92 L .000008871 841.92 Z " fill-rule="evenodd"/>
</clipPath>
<g clip-path="url(#cp39662)">
<text xml:space="preserve" transform="matrix(1 0 -0 1 0 841.92)" font-size="14.04" font-family="Times New Roman"><tspan y="-75.504" x="85.104 91.941478 99.00359 106.06571 110.010959 115.163639 125.848079 132.91019 139.25627 150.05304 160.73749 167.7996 174.86173 178.80696 183.95964 194.64409 200.87786 204.82309 211.16918 221.85363 228.08739 232.03263 235.87958 242.9417 248.09438 258.7788 265.8409 272.903 279.13679 282.98374 286.92897 293.8928 297.838 302.86436 306.7113 313.7734 320.00718 323.85414 329.3578 336.4199 339.9299 344.92817 351.99028 358.22404 368.90849 375.97059 382.20436 387.35704 394.32087 401.38298 406.53565 417.2201 423.45387 427.39909 433.63285 444.44364 450.6774 454.62263 458.46958 465.53169 470.68437 481.3688 487.60258 493.12028 499.35404 503.29927 509.4207 514.57339 521.4109 527.64468 533.8784 540.9546 544.89987 555.5842 559.5295">yoki muammoni matematik modelini tuzish, hamda bu matematik masala yechimi </tspan></text>
</g>
</g>
</g>
</g>
</svg>
