<?xml version="1.0" encoding="UTF-8" standalone="no"?>
<!DOCTYPE svg PUBLIC "-//W3C//DTD SVG 1.1//EN" "http://www.w3.org/Graphics/SVG/1.1/DTD/svg11.dtd">
<svg xmlns="http://www.w3.org/2000/svg" xmlns:xlink="http://www.w3.org/1999/xlink" version="1.1" width="595.32pt" height="841.92pt" viewBox="0 0 595.32 841.92">
<g enable-background="new">
<g>
<g id="Layer-1" data-name="Artifact">
<clipPath id="cp39739">
<path transform="matrix(1,0,0,-1,0,841.92)" d="M .000008871 0 L 595.32 0 L 595.32 841.92 L .000008871 841.92 Z " fill-rule="evenodd"/>
</clipPath>
<g clip-path="url(#cp39739)">
<text xml:space="preserve" transform="matrix(1 0 -0 1 0 841.92)" font-size="11.04" font-family="Calibri"><tspan y="-51.864" x="314.09 319.72999 325.36997">251</tspan></text>
</g>
<clipPath id="cp39740">
<path transform="matrix(1,0,0,-1,0,841.92)" d="M .000008871 0 L 595.32 0 L 595.32 841.92 L .000008871 841.92 Z " fill-rule="evenodd"/>
</clipPath>
<g clip-path="url(#cp39740)">
<text xml:space="preserve" transform="matrix(1 0 -0 1 0 841.92)" font-size="11.04" font-family="Calibri"><tspan y="-51.864" x="331.03"> </tspan></text>
</g>
<clipPath id="cp39741">
<path transform="matrix(1,0,0,-1,0,841.92)" d="M .000008871 0 L 595.32 0 L 595.32 841.92 L .000008871 841.92 Z " fill-rule="evenodd"/>
</clipPath>
<g clip-path="url(#cp39741)">
</g>
<clipPath id="cp39742">
<path transform="matrix(1,0,0,-1,0,841.92)" d="M .000008871 0 L 595.32 0 L 595.32 841.92 L .000008871 841.92 Z " fill-rule="evenodd"/>
</clipPath>
<g clip-path="url(#cp39742)">
<text xml:space="preserve" transform="matrix(1 0 -0 1 0 841.92)" font-size="11.04" font-family="Calibri"><tspan y="-38.4" x="85.104"> </tspan></text>
</g>
<clipPath id="cp39743">
<path transform="matrix(1,0,0,-1,0,841.92)" d="M .000008871 0 L 595.32 0 L 595.32 841.92 L .000008871 841.92 Z " fill-rule="evenodd"/>
</clipPath>
<g clip-path="url(#cp39743)">
</g>
</g>
<g id="Layer-1" data-name="P">
<clipPath id="cp39744">
<path transform="matrix(1,0,0,-1,0,841.92)" d="M .000008871 0 L 595.32 0 L 595.32 841.92 L .000008871 841.92 Z " fill-rule="evenodd"/>
</clipPath>
<g clip-path="url(#cp39744)">
<text xml:space="preserve" transform="matrix(1 0 -0 1 0 841.92)" font-size="14.04" font-family="Times New Roman"><tspan y="-772.56" x="85.104 89.04924 95.283 102.24683 107.65224 114.714359 118.6596 123.2226 127.069568 131.0148 137.24857 144.2124 148.15764 151.66764 158.82804 167.22396 174.28607 178.9614 182.80835 186.75359 193.94207 204.73883 211.80095 216.47628 222.59772 229.65984 236.62368 242.85744 249.93361 256.99574 263.95957 271.02168 275.697 280.25999 285.76365 291.9974 295.84437 302.8082 306.75343 312.87486 319.93696 323.7839 330.01768 334.693 338.203 345.3634 349.21037 356.27247 366.9569 370.90214 377.1359 384.21205 390.4458 397.52195 401.03196 408.19236 418.8768 422.82203 426.76725 430.6142 434.55943 441.39689 448.58537 455.64747 461.88124 466.4442 473.50633 484.19078 490.42454 497.50068 501.01069 508.17109 512.11636 517.5217 524.58389 531.646 538.7081 542.5551 546.50039 552.6218 559.5857">tekshiriladi. Turli murakkab ko`rsatkichlar, jumladan, milliy daromad, ish bilan </tspan></text>
</g>
<clipPath id="cp39745">
<path transform="matrix(1,0,0,-1,0,841.92)" d="M .000008871 0 L 595.32 0 L 595.32 841.92 L .000008871 841.92 Z " fill-rule="evenodd"/>
</clipPath>
<g clip-path="url(#cp39745)">
</g>
<clipPath id="cp39746">
<path transform="matrix(1,0,0,-1,0,841.92)" d="M .000008871 0 L 595.32 0 L 595.32 841.92 L .000008871 841.92 Z " fill-rule="evenodd"/>
</clipPath>
<g clip-path="url(#cp39746)">
<text xml:space="preserve" transform="matrix(1 0 -0 1 0 841.92)" font-size="14.04" font-family="Times New Roman"><tspan y="-748.3" x="85.104 92.166118 98.28755 105.34967 112.31351 116.25875 120.10571 127.16783 130.67783 140.00038 143.84734 149.25273 153.19797 159.43173 164.10706 174.7915 181.85363 185.79886 189.30886 198.63141 202.47837 208.82445 219.5089 226.57102 231.24634 237.4801 242.15543 252.85391 259.08769 263.0329 269.26667 273.942 277.452 286.77458 290.7198 297.68363 304.74574 310.9795 316.3849 320.23185 324.0788 328.02403 333.4294 337.37464 344.2121 350.44587 359.7965 366.8586 373.92073 378.59605 383.15904 388.6627 394.78413 398.72935 405.69319 409.6384 415.75984 422.82194 426.76716 432.88859 437.5639 441.41087 448.47297 452.31993 459.28376 466.34587 475.6965 482.66035 486.60557 493.5694 499.80317 510.4876 514.43289 521.495 527.72879 533.24649 537.1917 546.416 553.47817 559.5996">bandlik, iste`mol, jamg`armalar, investitsiya ko`rsatkichlarining dinamikasi va </tspan></text>
</g>
<clipPath id="cp39747">
<path transform="matrix(1,0,0,-1,0,841.92)" d="M .000008871 0 L 595.32 0 L 595.32 841.92 L .000008871 841.92 Z " fill-rule="evenodd"/>
</clipPath>
<g clip-path="url(#cp39747)">
</g>
<clipPath id="cp39748">
<path transform="matrix(1,0,0,-1,0,841.92)" d="M .000008871 0 L 595.32 0 L 595.32 841.92 L .000008871 841.92 Z " fill-rule="evenodd"/>
</clipPath>
<g clip-path="url(#cp39748)">
<text xml:space="preserve" transform="matrix(1 0 -0 1 0 841.92)" font-size="14.04" font-family="Times New Roman"><tspan y="-724.18" x="85.104 92.166118 96.01308 101.41848 108.4806 114.714359 118.56132 122.40828 129.4704 133.41564 140.71643 144.66167 150.78311 157.84523 161.69219 165.53914 169.48438 176.78517 183.84729 187.69425 191.63948 195.48644 200.89183 207.95395 211.46395 218.86302 225.82686 232.7907 236.73593 244.03673 251.09885 254.9458 262.0079 265.85487">nisbatini tahlil qilish, uni oldin</tspan></text>
</g>
<clipPath id="cp39749">
<path transform="matrix(1,0,0,-1,0,841.92)" d="M .000008871 0 L 595.32 0 L 595.32 841.92 L .000008871 841.92 Z " fill-rule="evenodd"/>
</clipPath>
<g clip-path="url(#cp39749)">
<text xml:space="preserve" transform="matrix(1 0 -0 1 0 841.92)" font-size="14.04" font-family="Times New Roman"><tspan y="-724.18" x="273.05 280.1121 286.23353 293.29563 300.72279 306.95655 313.80805 317.75328 321.60023 328.66233 335.96315 343.02525 349.259 353.822 357.7672 363.1726 370.2347 377.53553 384.59764 390.71907 397.78117 404.745 411.8071 419.1079 426.17 432.29145 436.23667 440.08363 446.31739 453.74458 457.59153 464.65364 468.50059 472.4458 477.8512 484.81504 491.87715 495.82237 502.65983 510.08699 520.77139 527.8335 534.8956 541.1294 545.07467 548.92166 555.1554 559.7184">dan aytib berish uchun katta iqtisodiy modellar </tspan></text>
</g>
<clipPath id="cp39750">
<path transform="matrix(1,0,0,-1,0,841.92)" d="M .000008871 0 L 595.32 0 L 595.32 841.92 L .000008871 841.92 Z " fill-rule="evenodd"/>
</clipPath>
<g clip-path="url(#cp39750)">
</g>
<clipPath id="cp39751">
<path transform="matrix(1,0,0,-1,0,841.92)" d="M .000008871 0 L 595.32 0 L 595.32 841.92 L .000008871 841.92 Z " fill-rule="evenodd"/>
</clipPath>
<g clip-path="url(#cp39751)">
<text xml:space="preserve" transform="matrix(1 0 -0 1 0 841.92)" font-size="14.04" font-family="Times New Roman"><tspan y="-700.06" x="85.104 92.166118 99.22823 103.79124 107.6382 111.58344 117.70488 124.767 128.61396 132.55919 138.68064 145.74275 149.68799 153.19799 159.75466 169.83538 176.79921 180.74445 187.80657 194.27899 201.24283 208.30495 212.98027 216.82723 223.06099 226.90795 230.85318 237.9153 244.38773 251.44985 257.6836 263.80503 267.75025 274.5877 280.82148 284.7667 288.7119 294.94569 299.50868 303.4539 310.41773 314.36296 320.8354 324.7806 331.01438 337.9782 343.3836 350.4457 354.39094 358.95393 362.80088 368.30455 375.26838 382.33049 388.56425 395.16307 402.1269 406.0721 412.19355 419.15739 423.1026 430.1647 436.74949 440.59645 447.65855 451.5055 455.4507 460.8561 467.81996 474.88206 478.82728 485.66474 492.2495 496.19474 500.13996 506.26139 510.2066 520.891 524.83627 531.07 535.7453 542.8215 549.05526 556.1314 559.487">qo`llaniladi. Aniq xo`jalik vaziyatlarini tekshirishda kichik iqtisodiy tizimlardan, </tspan></text>
</g>
<clipPath id="cp39752">
<path transform="matrix(1,0,0,-1,0,841.92)" d="M .000008871 0 L 595.32 0 L 595.32 841.92 L .000008871 841.92 Z " fill-rule="evenodd"/>
</clipPath>
<g clip-path="url(#cp39752)">
</g>
<clipPath id="cp39753">
<path transform="matrix(1,0,0,-1,0,841.92)" d="M .000008871 0 L 595.32 0 L 595.32 841.92 L .000008871 841.92 Z " fill-rule="evenodd"/>
</clipPath>
<g clip-path="url(#cp39753)">
<text xml:space="preserve" transform="matrix(1 0 -0 1 0 841.92)" font-size="14.04" font-family="Times New Roman"><tspan y="-675.94" x="85.104 95.78844 102.850559 107.52588 113.759639 120.83579 127.89791 134.13167 141.20784 153.43668 157.38191 164.34575 168.29099 172.13794 177.54334 184.60546 191.56929 195.51453 202.352 214.69316 218.6384 222.58364 228.8174 232.76264 243.44709 247.39232 253.62609 258.3014 265.27928 269.2245 281.56565 285.51087 291.6323 298.59614 304.0998 311.06364 315.00886 319.68418 323.53114 329.0348 335.99864 343.06074 349.2945 352.8045 365.13163 371.3654 376.77079 383.73463 389.23829 395.47206 402.5482 406.0582 418.37129 429.05574 435.2895 439.2347 445.46849 456.27928 462.51304 466.45826 470.40348 477.46559 489.80674 500.49119 507.55329 514.6154 520.8492 524.69619 528.6414 534.8752 539.4382 546.5003 552.62179 559.58566">murakkab iqtisodiy tizimlarni tekshirishda, asosan, matematik modellardan </tspan></text>
</g>
<clipPath id="cp39754">
<path transform="matrix(1,0,0,-1,0,841.92)" d="M .000008871 0 L 595.32 0 L 595.32 841.92 L .000008871 841.92 Z " fill-rule="evenodd"/>
</clipPath>
<g clip-path="url(#cp39754)">
</g>
<clipPath id="cp39755">
<path transform="matrix(1,0,0,-1,0,841.92)" d="M .000008871 0 L 595.32 0 L 595.32 841.92 L .000008871 841.92 Z " fill-rule="evenodd"/>
</clipPath>
<g clip-path="url(#cp39755)">
<text xml:space="preserve" transform="matrix(1 0 -0 1 0 841.92)" font-size="14.04" font-family="Times New Roman"><tspan y="-651.7" x="85.104 89.77932 96.85548 103.692958 110.75507 116.98883 120.934078 127.05551 134.11763 137.96459 141.90982 148.03127 155.09339 159.03862">foydalaniladi.</tspan></text>
</g>
<clipPath id="cp39756">
<path transform="matrix(1,0,0,-1,0,841.92)" d="M .000008871 0 L 595.32 0 L 595.32 841.92 L .000008871 841.92 Z " fill-rule="evenodd"/>
</clipPath>
<g clip-path="url(#cp39756)">
<text xml:space="preserve" transform="matrix(1 0 -0 1 0 841.92)" font-size="14.04" font-family="Times New Roman"><tspan y="-651.7" x="162.5"> </tspan></text>
</g>
<clipPath id="cp39757">
<path transform="matrix(1,0,0,-1,0,841.92)" d="M .000008871 0 L 595.32 0 L 595.32 841.92 L .000008871 841.92 Z " fill-rule="evenodd"/>
</clipPath>
<g clip-path="url(#cp39757)">
</g>
</g>
<g id="Layer-1" data-name="P">
<clipPath id="cp39758">
<path transform="matrix(1,0,0,-1,0,841.92)" d="M .000008871 0 L 595.32 0 L 595.32 841.92 L .000008871 841.92 Z " fill-rule="evenodd"/>
</clipPath>
<g clip-path="url(#cp39758)">
<text xml:space="preserve" transform="matrix(1 0 -0 1 0 841.92)" font-size="14.04" font-family="Times New Roman"><tspan y="-627.58" x="113.42 118.09532 125.17148 129.01844 132.86539 138.36907 145.3329 152.39502 156.34026 163.17774 176.83866 183.90077 190.96289 193.4901 199.5975 206.56134 210.50658 214.45182 220.57326 225.24858 232.21242 236.05937 243.12149 250.18361 263.8445 274.52897 280.76274 284.70796 290.9417 301.62617 307.85993 311.80516 315.75038 322.81248">Iqtis&#x043e;diy &#x043e;b'&#x0435;ktl&#x0430;rning m&#x0430;t&#x0435;m&#x0430;tik </tspan></text>
</g>
<clipPath id="cp39759">
<path transform="matrix(1,0,0,-1,0,841.92)" d="M .000008871 0 L 595.32 0 L 595.32 841.92 L .000008871 841.92 Z " fill-rule="evenodd"/>
</clipPath>
<g clip-path="url(#cp39759)">
<text xml:space="preserve" transform="matrix(1 0 -0 1 0 841.92)" font-size="14.04" font-family="Times New Roman"><tspan y="-627.58" x="336.79 347.47447 354.66294 361.72505 367.9588 371.80577 375.75099 381.98475 386.54774 390.49296 404.15388 408.00083 414.2346 421.19844 428.26054 432.10749 438.34126 449.0257 455.25947 459.20469 465.43846 470.11378 473.62379 487.27067 491.21589 497.44966 504.41349 511.37733 516.881 520.82626 526.9477 530.89297 534.7399 541.7038 545.64907 551.8828 556.5581 559.92776">m&#x043e;d&#x0435;ll&#x0430;ri t&#x0435;ngl&#x0430;m&#x0430;l&#x0430;r, t&#x0435;ngsizlikl&#x0430;r, </tspan></text>
</g>
<clipPath id="cp39760">
<path transform="matrix(1,0,0,-1,0,841.92)" d="M .000008871 0 L 595.32 0 L 595.32 841.92 L .000008871 841.92 Z " fill-rule="evenodd"/>
</clipPath>
<g clip-path="url(#cp39760)">
</g>
<clipPath id="cp39761">
<path transform="matrix(1,0,0,-1,0,841.92)" d="M .000008871 0 L 595.32 0 L 595.32 841.92 L .000008871 841.92 Z " fill-rule="evenodd"/>
</clipPath>
<g clip-path="url(#cp39761)">
<text xml:space="preserve" transform="matrix(1 0 -0 1 0 841.92)" font-size="14.04" font-family="Times New Roman"><tspan y="-603.46" x="85.104 95.90076 102.134517 109.21067 113.155918 117.00288 123.96671 127.91196 134.74944 139.4107 146.47283 153.53495 160.59706 165.16007 169.1053 175.22675 182.28887 186.13582 191.54122 198.60334 202.45029 208.68405 213.35938 216.86937 221.5166 228.57872 233.25405 239.48781 244.06485 247.9118 254.97393 258.91917 265.0406 269.7159 273.22593 277.87318 284.93528 289.6106 295.73204 300.40736 304.35258 310.58634 315.26167 319.82469 326.88679 333.12055 337.66954 344.73164 351.69548 358.75758 364.99134 371.11277 378.0766 382.02183 388.25559 392.9309 397.60624 404.4437 411.5058 416.18113 423.25727 429.49104 440.30183 444.24705 451.30915 457.5429 462.0919 466.0371 470.6001 477.56394 484.62605 490.8598 494.70677 500.94053 508.01667 514.1381 521.102 525.04727 528.55728 533.1905 540.028 546.2618 548.789 555.85116 559.5718">m&#x0430;ntiqiy b&#x043e;g&#x2018;l&#x0430;nishl&#x0430;r, gr&#x0430;fikl&#x0430;r, gr&#x0430;fl&#x0430;r v&#x0430; h&#x043e;k&#x0430;z&#x043e;l&#x0430;r yord&#x0430;mid&#x0430; if&#x043e;d&#x0430;l&#x0430;n&#x0430;di, ya'ni </tspan></text>
</g>
<clipPath id="cp39762">
<path transform="matrix(1,0,0,-1,0,841.92)" d="M .000008871 0 L 595.32 0 L 595.32 841.92 L .000008871 841.92 Z " fill-rule="evenodd"/>
</clipPath>
<g clip-path="url(#cp39762)">
</g>
<clipPath id="cp39763">
<path transform="matrix(1,0,0,-1,0,841.92)" d="M .000008871 0 L 595.32 0 L 595.32 841.92 L .000008871 841.92 Z " fill-rule="evenodd"/>
</clipPath>
<g clip-path="url(#cp39763)">
<text xml:space="preserve" transform="matrix(1 0 -0 1 0 841.92)" font-size="14.04" font-family="Times New Roman"><tspan y="-579.34" x="85.104 89.04924 95.283 100.6884 107.65224 111.59748 116.272808 120.11977 126.35352 133.42969 139.55113 146.51497 150.4602 153.9702 166.40964 175.77433 182.83644 195.1776 199.12284 205.24428 210.74796 217.71179 221.65703 226.33235 238.68755 242.63278 248.86655 253.42955 260.49168 264.33863 271.40074 275.24769 282.30979 288.54356 300.89878 307.96089 312.52388 317.1992 324.16304 330.3968 337.47294 341.3199 345.2651 351.49888 358.35038 365.41249 369.25944 376.32154 382.44297 389.50508 401.9726 408.93644 415.1702 419.84553 425.25093 431.48469 438.44853 442.29548 449.35758 456.41969 468.76084 472.70606 478.82749 484.33116 491.29499 498.25883 502.20405 506.14927 518.6168 524.7383 528.58529 535.6474 542.61129 548.84506 555.8089 559.6559">t&#x0430;svirl&#x0430;n&#x0430;di. Bu t&#x0430;svir t&#x0430;rkibig&#x0430; o&#x2018;rg&#x0430;nil&#x0430;yotg&#x0430;n n&#x0430;rs&#x0430;ning t&#x0430;shkil etuvchi </tspan></text>
</g>
<clipPath id="cp39764">
<path transform="matrix(1,0,0,-1,0,841.92)" d="M .000008871 0 L 595.32 0 L 595.32 841.92 L .000008871 841.92 Z " fill-rule="evenodd"/>
</clipPath>
<g clip-path="url(#cp39764)">
</g>
<clipPath id="cp39765">
<path transform="matrix(1,0,0,-1,0,841.92)" d="M .000008871 0 L 595.32 0 L 595.32 841.92 L .000008871 841.92 Z " fill-rule="evenodd"/>
</clipPath>
<g clip-path="url(#cp39765)">
<text xml:space="preserve" transform="matrix(1 0 -0 1 0 841.92)" font-size="14.04" font-family="Times New Roman"><tspan y="-555.07" x="85.104 91.33775 95.283 101.516757 112.201198 118.43495 125.51111 129.45635 133.3033 139.53707 144.21239 148.17168 155.71115 162.67499 167.35031 173.58408 178.98947 182.83643 189.89855 196.01999 203.0821 206.92906 214.46854 221.53066 228.49449 235.55661 240.11962 244.06485 250.29862 257.26246 261.20768 266.61308 273.5769 277.52214 283.7559 288.4312 295.98475 303.04685 309.2806 319.96507 327.63093 334.69303 338.63825 343.20124 347.0482 352.55186 359.5157 363.4609 371.0004 378.0625 384.29627 388.85926 395.09303 402.16917 409.5963 416.65843 423.72053">el&#x0435;m&#x0435;ntl&#x0430;ri &#x043e;r&#x0430;sid&#x0430;gi b&#x043e;g&#x2018;l&#x0430;nishl&#x0430;r h&#x0430;m kirishi k&#x0435;r&#x0430;k bo&#x2018;</tspan></text>
</g>
<clipPath id="cp39766">
<path transform="matrix(1,0,0,-1,0,841.92)" d="M .000008871 0 L 595.32 0 L 595.32 841.92 L .000008871 841.92 Z " fill-rule="evenodd"/>
</clipPath>
<g clip-path="url(#cp39766)">
<text xml:space="preserve" transform="matrix(1 0 -0 1 0 841.92)" font-size="14.04" font-family="Times New Roman"><tspan y="-555.07" x="428.71 432.6552 438.77665 445.83876 449.6857 453.1957 460.70713 468.2466 477.6113 484.6734 492.2129 499.275 505.50877 512.5849 518.70639 525.7685 533.308 538.7134 545.7755 550.3385 556.57229 559.9419 563.4519">l&#x0430;di.  Bu d&#x0435;g&#x0430;n so&#x2018;z,  </tspan></text>
</g>
<clipPath id="cp39767">
<path transform="matrix(1,0,0,-1,0,841.92)" d="M .000008871 0 L 595.32 0 L 595.32 841.92 L .000008871 841.92 Z " fill-rule="evenodd"/>
</clipPath>
<g clip-path="url(#cp39767)">
</g>
<clipPath id="cp39768">
<path transform="matrix(1,0,0,-1,0,841.92)" d="M .000008871 0 L 595.32 0 L 595.32 841.92 L .000008871 841.92 Z " fill-rule="evenodd"/>
</clipPath>
<g clip-path="url(#cp39768)">
<text xml:space="preserve" transform="matrix(1 0 -0 1 0 841.92)" font-size="14.04" font-family="Times New Roman"><tspan y="-530.95" x="85.104 95.78844 102.850559 109.912677 116.14643 120.091678 127.63116 135.05832 142.12044 148.3542 153.02953 159.16501 163.11025 169.34401 176.19553 183.25765 187.1046 194.16672 200.28816 207.252 214.79148 218.63843 225.70055 229.5475 233.49274 238.89813 245.86197 252.92409 256.86933 263.7068 271.24629 278.2101 285.27223 287.7994 294.03318 300.997 304.84397 311.90608 315.75303 322.71687 329.6807 337.22019 342.62559 349.68769 355.92146 360.48445 364.42967 368.2766 372.22184 379.649 386.7111 390.6563 395.2193 402.7588 406.60575 412.8395 418.2449 425.307 429.15397 433.82929 437.7745 445.20167 451.3231 458.3852 464.50663 471.56874 475.41569 479.3609 486.32475 490.1717 497.2338 501.08076 508.62025 515.5841 519.52938 523.37637 530.3402 534.28549 538.96078 545.0822 552.14437 556.0896 559.5996">m&#x043e;d&#x0435;l  q&#x0430;r&#x0430;l&#x0430;yotg&#x0430;n iqtis&#x043e;diy &#x043e;b'&#x0435;ktning sh&#x0430;rtli bir t&#x0430;sviri ek&#x0430;nligini bildir&#x0430;di. </tspan></text>
</g>
<clipPath id="cp39769">
<path transform="matrix(1,0,0,-1,0,841.92)" d="M .000008871 0 L 595.32 0 L 595.32 841.92 L .000008871 841.92 Z " fill-rule="evenodd"/>
</clipPath>
<g clip-path="url(#cp39769)">
</g>
<clipPath id="cp39770">
<path transform="matrix(1,0,0,-1,0,841.92)" d="M .000008871 0 L 595.32 0 L 595.32 841.92 L .000008871 841.92 Z " fill-rule="evenodd"/>
</clipPath>
<g clip-path="url(#cp39770)">
<text xml:space="preserve" transform="matrix(1 0 -0 1 0 841.92)" font-size="14.04" font-family="Times New Roman"><tspan y="-506.83" x="85.104 97.585559 104.54939 111.61151 117.84527 121.69223 128.65607 132.6013 138.58234 145.64446 150.20746 154.88278 161.84662 168.08039 175.04422 178.98946 184.39485 191.45697 197.32569 204.28952 211.35164 213.87885 219.98625 227.04837 230.9936 236.86232 240.80756 247.86968 252.43268 259.49479 264.05778 268.7331 272.58006 278.0837 281.93067 288.99278 295.22654 301.22163 308.05909 314.29286 321.25669 328.3188 332.264 338.24507 348.9295 355.16328 357.69047 361.63569 368.69779 379.38224 386.44435 390.38957 394.33479 400.56855 405.13154 412.09538 416.0406 422.02165 428.98548 432.83244 436.77766 442.18305 449.24516 455.2262 462.19004 468.4238 474.41889 478.26585 485.32795 489.89094 493.83616 497.78138 503.65013 510.61396 517.6761 521.5231 527.75686 531.6038 535.5491 541.78286 546.3458 553.40798 559.5294">M&#x043e;d&#x0435;lni o&#x2018;rg&#x0430;nish &#x043e;b'&#x0435;kt to&#x2018;g&#x2018;risid&#x0430; yangi m&#x0430;'lum&#x043e;tl&#x0430;rni &#x043e;lish v&#x0430; turli h&#x043e;l&#x0430;tl&#x0430;rd&#x0430; </tspan></text>
</g>
<clipPath id="cp39771">
<path transform="matrix(1,0,0,-1,0,841.92)" d="M .000008871 0 L 595.32 0 L 595.32 841.92 L .000008871 841.92 Z " fill-rule="evenodd"/>
</clipPath>
<g clip-path="url(#cp39771)">
</g>
<clipPath id="cp39772">
<path transform="matrix(1,0,0,-1,0,841.92)" d="M .000008871 0 L 595.32 0 L 595.32 841.92 L .000008871 841.92 Z " fill-rule="evenodd"/>
</clipPath>
<g clip-path="url(#cp39772)">
<text xml:space="preserve" transform="matrix(1 0 -0 1 0 841.92)" font-size="14.04" font-family="Times New Roman"><tspan y="-482.71" x="85.104 92.166118 96.11136 102.232799 106.90812 113.984279 120.21803 123.728038 134.3844 141.44652 146.9502 150.46019 153.91402 160.97614 167.09758 170.94454 178.00666 185.06877 191.19022 198.15406 202.09929 205.45485 211.68862 218.65245 225.71457 229.22457 236.03397 242.26773 249.3439 254.84758 261.81144 265.75666 269.26667 273.942 280.87776 287.84159 291.7868 295.73204 306.41648 312.65025 316.59547 321.27079 324.7808 331.59019 337.82395 344.0577 351.13386 355.07908 365.76353 369.70875 375.9425 380.61784 384.12785 388.03096 395.13517 402.099 406.04423 411.44963 418.41346 425.47557 431.70933 435.21934 439.0382 449.72267 456.78477 463.84687 470.90898">ul&#x0430;rg&#x0430; m&#x043e;s  k&#x0435;luvchi eng ya&#x0445;shi (&#x043e;ptim&#x0430;l) y&#x0435;chiml&#x0430;r t&#x043e;pishg&#x0430; imk&#x043e;n </tspan></text>
</g>
<clipPath id="cp39773">
<path transform="matrix(1,0,0,-1,0,841.92)" d="M .000008871 0 L 595.32 0 L 595.32 841.92 L .000008871 841.92 Z " fill-rule="evenodd"/>
</clipPath>
<g clip-path="url(#cp39773)">
<text xml:space="preserve" transform="matrix(1 0 -0 1 0 841.92)" font-size="14.04" font-family="Times New Roman"><tspan y="-482.71" x="474.82 481.8821 488.11589 492.7912 498.9267 505.89054 509.83576">b&#x0435;r&#x0430;di.</tspan></text>
</g>
<clipPath id="cp39774">
<path transform="matrix(1,0,0,-1,0,841.92)" d="M .000008871 0 L 595.32 0 L 595.32 841.92 L .000008871 841.92 Z " fill-rule="evenodd"/>
</clipPath>
<g clip-path="url(#cp39774)">
<text xml:space="preserve" transform="matrix(1 0 -0 1 0 841.92)" font-size="14.04" font-family="Times New Roman"><tspan y="-482.71" x="513.34"> </tspan></text>
</g>
<clipPath id="cp39775">
<path transform="matrix(1,0,0,-1,0,841.92)" d="M .000008871 0 L 595.32 0 L 595.32 841.92 L .000008871 841.92 Z " fill-rule="evenodd"/>
</clipPath>
<g clip-path="url(#cp39775)">
</g>
</g>
<g id="Layer-1" data-name="P">
<clipPath id="cp39776">
<path transform="matrix(1,0,0,-1,0,841.92)" d="M .000008871 0 L 595.32 0 L 595.32 841.92 L .000008871 841.92 Z " fill-rule="evenodd"/>
</clipPath>
<g clip-path="url(#cp39776)">
<text xml:space="preserve" transform="matrix(1 0 -0 1 0 841.92)" font-size="14.04" font-family="Times New Roman"><tspan y="-458.47" x="113.42 121.942279 129.0044 133.67972 137.52667 141.47191 149.01139 152.95662 159.92046 163.76741 167.71265 173.11804 180.08188 187.144 191.08924 197.92671 205.46619 209.31314 215.5469 220.22223 226.58235 233.54619 240.6083 247.57215 251.51738 257.75114 262.31413 269.27796 273.22319 280.76268 287.82478 292.38777 297.06309 304.13923 310.373 317.33683 321.18379 326.68745 333.74955 341.28904 348.25288 354.3743 361.4364 368.40025 375.46235 383.00184 386.8488 393.9109 397.75785 401.70307 407.10847 414.0723 421.1344 427.25584 434.31794 438.1649 442.1101 448.34388 453.0192 460.57273 465.97813 472.94197 480.00407 486.9679 493.20167 497.14689 503.2683 508.6737 515.73587 519.5828 523.5281 528.20339 532.05038 535.89736 542.9595 549.08096 556.14309 559.6531">Turli iqtis&#x043e;diy j&#x0430;r&#x0430;yonl&#x0430;rni o&#x2018;rg&#x0430;nish uchun iqtis&#x043e;dchil&#x0430;r s&#x043e;dd&#x0430;l&#x0430;shtirilg&#x0430;n, </tspan></text>
</g>
<clipPath id="cp39777">
<path transform="matrix(1,0,0,-1,0,841.92)" d="M .000008871 0 L 595.32 0 L 595.32 841.92 L .000008871 841.92 Z " fill-rule="evenodd"/>
</clipPath>
<g clip-path="url(#cp39777)">
</g>
<clipPath id="cp39778">
<path transform="matrix(1,0,0,-1,0,841.92)" d="M .000008871 0 L 595.32 0 L 595.32 841.92 L .000008871 841.92 Z " fill-rule="evenodd"/>
</clipPath>
<g clip-path="url(#cp39778)">
<text xml:space="preserve" transform="matrix(1 0 -0 1 0 841.92)" font-size="14.04" font-family="Times New Roman"><tspan y="-434.35" x="85.104 89.77932 96.85548 101.5308 112.21524 118.449 122.39424 126.339488 132.57324 137.97864 144.94248 148.88771 152.83295 157.39595 161.2429 165.18814 172.25026 178.3717 185.43383 189.85642 193.80165 200.76549 204.61244 208.55768 213.96308 220.92691 227.98903 231.93427 238.77175 243.43302 254.11746 261.17958 268.24168 274.47544 278.3224 282.2676 288.50138 293.06437 300.12648 306.36024 313.43638 317.98536 322.54835 329.61045 336.4479 343.51 349.74378 353.689 359.81044 366.87254 372.99397 380.05607 383.903 387.84825 394.082 398.75733 402.26734 406.78825 411.35124 418.41334 422.26029 426.2055 431.6109 438.57475 445.63685 449.58207 456.41954 461.0808 471.76527 478.82737 485.88948 492.12324 495.97019 499.9154 506.14918 510.71217 517.7743 524.00808 528.557 539.2414 543.18667 548.6903 555.6542 559.50119">f&#x043e;rm&#x0430;ll&#x0430;shtirilg&#x0430;n iqtis&#x043e;diy m&#x043e;d&#x0435;ll&#x0430;rd&#x0430;n f&#x043e;yd&#x0430;l&#x0430;n&#x0430;dil&#x0430;r. Iqtis&#x043e;diy m&#x043e;d&#x0435;ll&#x0430;rg&#x0430; mis&#x043e;l </tspan></text>
</g>
<clipPath id="cp39779">
<path transform="matrix(1,0,0,-1,0,841.92)" d="M .000008871 0 L 595.32 0 L 595.32 841.92 L .000008871 841.92 Z " fill-rule="evenodd"/>
</clipPath>
<g clip-path="url(#cp39779)">
</g>
<clipPath id="cp39780">
<path transform="matrix(1,0,0,-1,0,841.92)" d="M .000008871 0 L 595.32 0 L 595.32 841.92 L .000008871 841.92 Z " fill-rule="evenodd"/>
</clipPath>
<g clip-path="url(#cp39780)">
<text xml:space="preserve" transform="matrix(1 0 -0 1 0 841.92)" font-size="14.04" font-family="Times New Roman"><tspan y="-410.23" x="85.104 90.60768 94.552928 99.11593 105.349689 109.19665 113.14189 120.10573 126.339488 134.13169 138.07692 144.19837 148.1436 154.26505 161.32717 168.993 176.05512 182.28888 190.08107 193.92803 200.16179 207.12563 211.07086 215.0161 219.69142 227.48361 238.16806 245.23018 252.2923 258.41374 262.35896 266.30418 269.81419 277.56428 282.12727 286.07249 290.7478 301.43226 307.66603 315.5846 326.38136 333.44346 340.4073 346.64106 350.488 354.43324 357.94325 365.69334 374.2156 380.44938 387.4132 394.4753 398.32228 404.55604 411.63218 419.42439 430.10884 437.17094 444.13478 450.36854 454.31376 458.25898 461.76899 469.40675 473.35197 480.3158 484.16276 488.10798 493.51338 500.4772 507.5393 511.48454 518.322 526.11428 533.1764 537.7394 543.24307 547.1883 552.5937 559.55758">sif&#x0430;tid&#x0430; t&#x0430;l&#x0430;b v&#x0430; t&#x0430;klif m&#x043e;d&#x0435;li, firm&#x0430; m&#x043e;d&#x0435;li, L&#x0435;&#x043e;ntev m&#x043e;d&#x0435;li, iqtis&#x043e;diy o&#x2018;sish </tspan></text>
</g>
<clipPath id="cp39781">
<path transform="matrix(1,0,0,-1,0,841.92)" d="M .000008871 0 L 595.32 0 L 595.32 841.92 L .000008871 841.92 Z " fill-rule="evenodd"/>
</clipPath>
<g clip-path="url(#cp39781)">
</g>
<clipPath id="cp39782">
<path transform="matrix(1,0,0,-1,0,841.92)" d="M .000008871 0 L 595.32 0 L 595.32 841.92 L .000008871 841.92 Z " fill-rule="evenodd"/>
</clipPath>
<g clip-path="url(#cp39782)">
<text xml:space="preserve" transform="matrix(1 0 -0 1 0 841.92)" font-size="14.04" font-family="Times New Roman"><tspan y="-386.09" x="85.104 95.78844 102.850559 109.912677 116.14643 120.091678">m&#x043e;d&#x0435;li</tspan></text>
</g>
<clipPath id="cp39783">
<path transform="matrix(1,0,0,-1,0,841.92)" d="M .000008871 0 L 595.32 0 L 595.32 841.92 L .000008871 841.92 Z " fill-rule="evenodd"/>
</clipPath>
<g clip-path="url(#cp39783)">
<text xml:space="preserve" transform="matrix(1 0 -0 1 0 841.92)" font-size="14.04" font-family="Times New Roman"><tspan y="-386.09" x="124.1 127.61 134.40535 138.2523 145.21614 152.27826 158.51203 163.18735 170.02483 180.70928 187.7714 191.71663 195.66187 202.49935 208.73311 215.57059 222.53443 229.59654 235.8303 242.79415 247.46947 251.4147 257.53614 262.21147 266.0584 273.1205 279.24195 286.30406 290.24928 297.07273 307.75718 314.81929 321.7831 328.8452 335.07899 341.2004 348.2625 354.38395 358.32917 365.15263 372.11647 379.17857 383.0255 389.25929 393.10624 396.9532 404.0153 407.86225 414.92436 421.98646 428.8099 439.49436 446.55647 453.5203 459.75407 463.601 467.54624 474.3697 481.33354 487.5673 494.4048 501.36863 508.33247 513.8361 520.8 527.8621 533.9836 537.92886 544.1626 548.7256 555.7877 559.6347">, t&#x043e;v&#x0430;r m&#x043e;liya b&#x043e;z&#x043e;rl&#x0430;rid&#x0430;gi muv&#x043e;z&#x0430;n&#x0430;t h&#x043e;l&#x0430;tining m&#x043e;d&#x0435;li v&#x0430; b&#x043e;shq&#x0430;l&#x0430;rni </tspan></text>
</g>
<clipPath id="cp39784">
<path transform="matrix(1,0,0,-1,0,841.92)" d="M .000008871 0 L 595.32 0 L 595.32 841.92 L .000008871 841.92 Z " fill-rule="evenodd"/>
</clipPath>
<g clip-path="url(#cp39784)">
</g>
<clipPath id="cp39785">
<path transform="matrix(1,0,0,-1,0,841.92)" d="M .000008871 0 L 595.32 0 L 595.32 841.92 L .000008871 841.92 Z " fill-rule="evenodd"/>
</clipPath>
<g clip-path="url(#cp39785)">
<text xml:space="preserve" transform="matrix(1 0 -0 1 0 841.92)" font-size="14.04" font-family="Times New Roman"><tspan y="-361.97" x="85.104 92.166118 98.39987 102.24683 106.093799 110.03904 114.71436 118.561328 123.96673 131.02884 139.05971 149.74416 156.93265 167.6171 174.67922 178.62445 185.68657 189.19657 197.19936 209.68093 216.64476 223.70688 229.94065 233.88588 241.79039 245.63735 252.69947 258.93324 262.78019 268.18559 275.24769 282.21153 288.44529 296.47618 307.1606 314.3491 321.4112 327.64497 331.4919 335.43714 341.55857 346.96397 354.02607 357.87303 361.81825 366.49357 370.3405 374.28575 380.5195 387.371 394.4331 398.28007 405.34217 411.4636 418.5257 426.55659 433.52043 440.58253 443.1097 449.2171 456.2792 460.12617 467.18827 473.3097 480.3718 484.31703 492.3479 496.19486 502.42863 507.10395 513.3377 520.1893 527.2514 534.2153 538.1605 544.3943 548.9573 555.7948 559.6418">k&#x0435;ltirish mumkin. M&#x043e;d&#x0435;l tuzishd&#x0430; m&#x043e;d&#x0435;ll&#x0430;shtiril&#x0430;yotg&#x0430;n &#x043e;b'&#x0435;ktd&#x0430;gi j&#x0430;r&#x0430;yonl&#x0430;rni </tspan></text>
</g>
<clipPath id="cp39786">
<path transform="matrix(1,0,0,-1,0,841.92)" d="M .000008871 0 L 595.32 0 L 595.32 841.92 L .000008871 841.92 Z " fill-rule="evenodd"/>
</clipPath>
<g clip-path="url(#cp39786)">
</g>
<clipPath id="cp39787">
<path transform="matrix(1,0,0,-1,0,841.92)" d="M .000008871 0 L 595.32 0 L 595.32 841.92 L .000008871 841.92 Z " fill-rule="evenodd"/>
</clipPath>
<g clip-path="url(#cp39787)">
<text xml:space="preserve" transform="matrix(1 0 -0 1 0 841.92)" font-size="14.04" font-family="Times New Roman"><tspan y="-337.73" x="85.104 92.166118 98.39987 102.24683 109.21067 113.155918 117.00288 123.96671 131.02883 137.26259 144.22643 148.17166 155.59882 166.28327 173.34539 180.4075 184.35274 195.03719 202.57666 210.00382 214.67914 220.9129 227.98908 231.83603 238.89815 243.46115 247.40639 253.64015 258.31547 265.6303 272.6924 276.53938 280.38633 287.44844 291.29539 298.35749 301.8675 309.26658 320.06333 327.12544 334.08927 338.0345 348.71894 356.14613 363.20823 370.27033 374.8333 378.9049 389.58937 395.82313 402.89927 409.13304 416.09687 420.04209 426.27586 430.83885 434.78407 442.21125 448.445 453.9627 460.19648 467.62367 478.3081 485.3702 492.4323 498.66609 502.6113 509.9121 513.85739 520.0911 524.6541 531.71627 535.56326 542.5271 546.47238 553.4362 559.5577">b&#x0435;lgil&#x043e;vchi muhim  f&#x0430;kt&#x043e;rl&#x0430;r &#x043e;linib, muhim bo&#x2018;lm&#x0430;g&#x0430;nl&#x0430;ri es&#x0430; m&#x043e;d&#x0435;l t&#x0430;rkibig&#x0430; </tspan></text>
</g>
<clipPath id="cp39788">
<path transform="matrix(1,0,0,-1,0,841.92)" d="M .000008871 0 L 595.32 0 L 595.32 841.92 L .000008871 841.92 Z " fill-rule="evenodd"/>
</clipPath>
<g clip-path="url(#cp39788)">
</g>
<clipPath id="cp39789">
<path transform="matrix(1,0,0,-1,0,841.92)" d="M .000008871 0 L 595.32 0 L 595.32 841.92 L .000008871 841.92 Z " fill-rule="evenodd"/>
</clipPath>
<g clip-path="url(#cp39789)">
<text xml:space="preserve" transform="matrix(1 0 -0 1 0 841.92)" font-size="14.04" font-family="Times New Roman"><tspan y="-313.61" x="85.104 92.166118 96.11136 100.67436 104.521327 108.46657 112.31353 116.25877 126.943218 133.28929 140.12677 147.18889 151.13413">kiritilm&#x0430;ydi.</tspan></text>
</g>
<clipPath id="cp39790">
<path transform="matrix(1,0,0,-1,0,841.92)" d="M .000008871 0 L 595.32 0 L 595.32 841.92 L .000008871 841.92 Z " fill-rule="evenodd"/>
</clipPath>
<g clip-path="url(#cp39790)">
<text xml:space="preserve" transform="matrix(1 0 -0 1 0 841.92)" font-size="14.04" font-family="Times New Roman"><tspan y="-313.61" x="154.7"> </tspan></text>
</g>
<clipPath id="cp39791">
<path transform="matrix(1,0,0,-1,0,841.92)" d="M .000008871 0 L 595.32 0 L 595.32 841.92 L .000008871 841.92 Z " fill-rule="evenodd"/>
</clipPath>
<g clip-path="url(#cp39791)">
</g>
</g>
<g id="Layer-1" data-name="P">
<clipPath id="cp39792">
<path transform="matrix(1,0,0,-1,0,841.92)" d="M .000008871 0 L 595.32 0 L 595.32 841.92 L .000008871 841.92 Z " fill-rule="evenodd"/>
</clipPath>
<g clip-path="url(#cp39792)">
<text xml:space="preserve" transform="matrix(1 0 -0 1 0 841.92)" font-size="14.04" font-family="Times New Roman,Bold" font-weight="bold"><tspan y="-289.25" x="113.42 118.92368 126.72993 131.40525 135.23816 140.64356 147.70568 155.51192 159.34484">Iqtisodiy</tspan></text>
</g>
<clipPath id="cp39793">
<path transform="matrix(1,0,0,-1,0,841.92)" d="M .000008871 0 L 595.32 0 L 595.32 841.92 L .000008871 841.92 Z " fill-rule="evenodd"/>
</clipPath>
<g clip-path="url(#cp39793)">
<text xml:space="preserve" transform="matrix(1 0 -0 1 0 841.92)" font-size="14.04" font-family="Times New Roman,Bold" font-weight="bold"><tspan y="-289.25" x="166.46">-</tspan></text>
</g>
<clipPath id="cp39794">
<path transform="matrix(1,0,0,-1,0,841.92)" d="M .000008871 0 L 595.32 0 L 595.32 841.92 L .000008871 841.92 Z " fill-rule="evenodd"/>
</clipPath>
<g clip-path="url(#cp39794)">
<text xml:space="preserve" transform="matrix(1 0 -0 1 0 841.92)" font-size="14.04" font-family="Times New Roman,Bold" font-weight="bold"><tspan y="-289.25" x="171.14 182.66684 189.72896 194.40428">mate</tspan></text>
</g>
<clipPath id="cp39795">
<path transform="matrix(1,0,0,-1,0,841.92)" d="M .000008871 0 L 595.32 0 L 595.32 841.92 L .000008871 841.92 Z " fill-rule="evenodd"/>
</clipPath>
<g clip-path="url(#cp39795)">
<text xml:space="preserve" transform="matrix(1 0 -0 1 0 841.92)" font-size="14.04" font-family="Times New Roman,Bold" font-weight="bold"><tspan y="-289.25" x="200.69 212.21685 219.27896 223.95429 227.89952 235.5794 239.0894 250.57413 257.63624 265.44248 271.67625 275.62147 279.56669 286.53053 292.03419 299.84043 304.38938 308.3346 314.45603 318.40126 323.9049 331.71116 335.22117 342.85893 349.82276 355.22816 363.0344 366.9796 373.21339 380.89326 384.83848 391.90058 398.022">matik modellashtirish bosqichlari</tspan></text>
</g>
<clipPath id="cp39796">
<path transform="matrix(1,0,0,-1,0,841.92)" d="M .000008871 0 L 595.32 0 L 595.32 841.92 L .000008871 841.92 Z " fill-rule="evenodd"/>
</clipPath>
<g clip-path="url(#cp39796)">
<text xml:space="preserve" transform="matrix(1 0 -0 1 0 841.92)" font-size="14.04" font-family="Times New Roman"><tspan y="-289.25" x="402.07"> </tspan></text>
</g>
<clipPath id="cp39797">
<path transform="matrix(1,0,0,-1,0,841.92)" d="M .000008871 0 L 595.32 0 L 595.32 841.92 L .000008871 841.92 Z " fill-rule="evenodd"/>
</clipPath>
<g clip-path="url(#cp39797)">
</g>
</g>
<g id="Layer-1" data-name="P">
<clipPath id="cp39798">
<path transform="matrix(1,0,0,-1,0,841.92)" d="M .000008871 0 L 595.32 0 L 595.32 841.92 L .000008871 841.92 Z " fill-rule="evenodd"/>
</clipPath>
<g clip-path="url(#cp39798)">
<text xml:space="preserve" transform="matrix(1 0 -0 1 0 841.92)" font-size="14.04" font-family="Symbol"><tspan y="-264.41" x="131.42">&#xf0b7;</tspan></text>
</g>
<clipPath id="cp39799">
<path transform="matrix(1,0,0,-1,0,841.92)" d="M .000008871 0 L 595.32 0 L 595.32 841.92 L .000008871 841.92 Z " fill-rule="evenodd"/>
</clipPath>
<g clip-path="url(#cp39799)">
<text xml:space="preserve" transform="matrix(1 0 -0 1 0 841.92)" font-size="14.04" font-family="Arial"><tspan y="-264.41" x="137.9"> </tspan></text>
</g>
<clipPath id="cp39800">
<path transform="matrix(1,0,0,-1,0,841.92)" d="M .000008871 0 L 595.32 0 L 595.32 841.92 L .000008871 841.92 Z " fill-rule="evenodd"/>
</clipPath>
<g clip-path="url(#cp39800)">
<text xml:space="preserve" transform="matrix(1 0 -0 1 0 841.92)" font-size="14.04" font-family="Times New Roman"><tspan y="-264.41" x="149.42 161.90157 168.13533 175.09917 180.60285 186.72429 193.7864 197.73165 203.85309 208.52841 215.49225 219.43749 222.94748 228.31076 235.37288 241.49433 248.55644 252.4034 256.34864 262.47007 269.4339 273.37913 277.32435 281.88734 285.83256 291.23796 298.20179">Maqsadlarni shakllantirish;</tspan></text>
</g>
<clipPath id="cp39801">
<path transform="matrix(1,0,0,-1,0,841.92)" d="M .000008871 0 L 595.32 0 L 595.32 841.92 L .000008871 841.92 Z " fill-rule="evenodd"/>
</clipPath>
<g clip-path="url(#cp39801)">
<text xml:space="preserve" transform="matrix(1 0 -0 1 0 841.92)" font-size="14.04" font-family="Times New Roman"><tspan y="-264.41" x="302.21"> </tspan></text>
</g>
<clipPath id="cp39802">
<path transform="matrix(1,0,0,-1,0,841.92)" d="M .000008871 0 L 595.32 0 L 595.32 841.92 L .000008871 841.92 Z " fill-rule="evenodd"/>
</clipPath>
<g clip-path="url(#cp39802)">
</g>
</g>
<g id="Layer-1" data-name="P">
<clipPath id="cp39803">
<path transform="matrix(1,0,0,-1,0,841.92)" d="M .000008871 0 L 595.32 0 L 595.32 841.92 L .000008871 841.92 Z " fill-rule="evenodd"/>
</clipPath>
<g clip-path="url(#cp39803)">
<text xml:space="preserve" transform="matrix(1 0 -0 1 0 841.92)" font-size="14.04" font-family="Symbol"><tspan y="-239.21" x="131.42">&#xf0b7;</tspan></text>
</g>
<clipPath id="cp39804">
<path transform="matrix(1,0,0,-1,0,841.92)" d="M .000008871 0 L 595.32 0 L 595.32 841.92 L .000008871 841.92 Z " fill-rule="evenodd"/>
</clipPath>
<g clip-path="url(#cp39804)">
<text xml:space="preserve" transform="matrix(1 0 -0 1 0 841.92)" font-size="14.04" font-family="Arial"><tspan y="-239.21" x="137.9"> </tspan></text>
</g>
<clipPath id="cp39805">
<path transform="matrix(1,0,0,-1,0,841.92)" d="M .000008871 0 L 595.32 0 L 595.32 841.92 L .000008871 841.92 Z " fill-rule="evenodd"/>
</clipPath>
<g clip-path="url(#cp39805)">
<text xml:space="preserve" transform="matrix(1 0 -0 1 0 841.92)" font-size="14.04" font-family="Times New Roman"><tspan y="-239.21" x="149.42 159.50072 166.56284 169.09004 175.3238 182.28765 186.1346 193.19672 197.14196 200.49752 207.55963 210.08684 214.76216 221.726 227.95977 234.9236 238.86884 244.27423 251.23807">Ob'ektni o'rganish;</tspan></text>
</g>
<clipPath id="cp39806">
<path transform="matrix(1,0,0,-1,0,841.92)" d="M .000008871 0 L 595.32 0 L 595.32 841.92 L .000008871 841.92 Z " fill-rule="evenodd"/>
</clipPath>
<g clip-path="url(#cp39806)">
<text xml:space="preserve" transform="matrix(1 0 -0 1 0 841.92)" font-size="14.04" font-family="Times New Roman"><tspan y="-239.21" x="255.17"> </tspan></text>
</g>
<clipPath id="cp39807">
<path transform="matrix(1,0,0,-1,0,841.92)" d="M .000008871 0 L 595.32 0 L 595.32 841.92 L .000008871 841.92 Z " fill-rule="evenodd"/>
</clipPath>
<g clip-path="url(#cp39807)">
</g>
</g>
<g id="Layer-1" data-name="P">
<clipPath id="cp39808">
<path transform="matrix(1,0,0,-1,0,841.92)" d="M .000008871 0 L 595.32 0 L 595.32 841.92 L .000008871 841.92 Z " fill-rule="evenodd"/>
</clipPath>
<g clip-path="url(#cp39808)">
<text xml:space="preserve" transform="matrix(1 0 -0 1 0 841.92)" font-size="14.04" font-family="Symbol"><tspan y="-213.98" x="131.42">&#xf0b7;</tspan></text>
</g>
<clipPath id="cp39809">
<path transform="matrix(1,0,0,-1,0,841.92)" d="M .000008871 0 L 595.32 0 L 595.32 841.92 L .000008871 841.92 Z " fill-rule="evenodd"/>
</clipPath>
<g clip-path="url(#cp39809)">
<text xml:space="preserve" transform="matrix(1 0 -0 1 0 841.92)" font-size="14.04" font-family="Arial"><tspan y="-213.98" x="137.9"> </tspan></text>
</g>
<clipPath id="cp39810">
<path transform="matrix(1,0,0,-1,0,841.92)" d="M .000008871 0 L 595.32 0 L 595.32 841.92 L .000008871 841.92 Z " fill-rule="evenodd"/>
</clipPath>
<g clip-path="url(#cp39810)">
<text xml:space="preserve" transform="matrix(1 0 -0 1 0 841.92)" font-size="14.04" font-family="Times New Roman"><tspan y="-213.98" x="149.42 161.90157 168.13533 171.98229 179.0444 182.89136 186.8366 190.34659 201.00296 208.06508 215.1272 221.36096 225.20792 229.15316 235.38692 240.79232 247.75615 251.70139 256.3767 260.22367 265.62907 272.69117 276.20118 280.8765 291.53288 297.76664 303.28434 309.5181 313.46333 319.69709 326.66093 330.50788 337.56999 344.63209 347.98765 355.04975 362.11186 364.63905 371.4765 375.42173 379.26869 383.11564 388.6193 395.58314 399.43009 406.4922 410.4374 413.79298 419.29664 426.35874 428.88594 434.99333 438.93855 445.1723 449.84764 453.21723 460.27934 464.12629 468.0715 474.19294 481.25505 484.76506 488.66816 493.25926 500.22309 507.2852 513.5189 517.3659 523.5997 529.00509 536.0672 540.6302">Matnli modellashtrish (masalaning qo'yilishini so'zlar bilan ifodalash);</tspan></text>
</g>
<clipPath id="cp39811">
<path transform="matrix(1,0,0,-1,0,841.92)" d="M .000008871 0 L 595.32 0 L 595.32 841.92 L .000008871 841.92 Z " fill-rule="evenodd"/>
</clipPath>
<g clip-path="url(#cp39811)">
<text xml:space="preserve" transform="matrix(1 0 -0 1 0 841.92)" font-size="14.04" font-family="Times New Roman"><tspan y="-213.98" x="544.9"> </tspan></text>
</g>
<clipPath id="cp39812">
<path transform="matrix(1,0,0,-1,0,841.92)" d="M .000008871 0 L 595.32 0 L 595.32 841.92 L .000008871 841.92 Z " fill-rule="evenodd"/>
</clipPath>
<g clip-path="url(#cp39812)">
</g>
</g>
<g id="Layer-1" data-name="P">
<clipPath id="cp39813">
<path transform="matrix(1,0,0,-1,0,841.92)" d="M .000008871 0 L 595.32 0 L 595.32 841.92 L .000008871 841.92 Z " fill-rule="evenodd"/>
</clipPath>
<g clip-path="url(#cp39813)">
<text xml:space="preserve" transform="matrix(1 0 -0 1 0 841.92)" font-size="14.04" font-family="Symbol"><tspan y="-188.9" x="131.42">&#xf0b7;</tspan></text>
</g>
<clipPath id="cp39814">
<path transform="matrix(1,0,0,-1,0,841.92)" d="M .000008871 0 L 595.32 0 L 595.32 841.92 L .000008871 841.92 Z " fill-rule="evenodd"/>
</clipPath>
<g clip-path="url(#cp39814)">
<text xml:space="preserve" transform="matrix(1 0 -0 1 0 841.92)" font-size="14.04" font-family="Arial"><tspan y="-188.9" x="137.9"> </tspan></text>
</g>
<clipPath id="cp39815">
<path transform="matrix(1,0,0,-1,0,841.92)" d="M .000008871 0 L 595.32 0 L 595.32 841.92 L .000008871 841.92 Z " fill-rule="evenodd"/>
</clipPath>
<g clip-path="url(#cp39815)">
<text xml:space="preserve" transform="matrix(1 0 -0 1 0 841.92)" font-size="14.04" font-family="Times New Roman"><tspan y="-188.9" x="149.42 161.90157 168.13533 172.08057 178.31433 188.99878 195.23255 199.17778 203.02474 210.08686 213.59685 224.25322 231.31534 238.37746 244.61122 248.55646 252.40341 258.63719 264.04258 271.0064 274.95164 278.89686 283.45985 287.40507 292.81047 299.7743">Matematik modellashtirish;</tspan></text>
</g>
<clipPath id="cp39816">
<path transform="matrix(1,0,0,-1,0,841.92)" d="M .000008871 0 L 595.32 0 L 595.32 841.92 L .000008871 841.92 Z " fill-rule="evenodd"/>
</clipPath>
<g clip-path="url(#cp39816)">
<text xml:space="preserve" transform="matrix(1 0 -0 1 0 841.92)" font-size="14.04" font-family="Times New Roman"><tspan y="-188.9" x="303.77"> </tspan></text>
</g>
<clipPath id="cp39817">
<path transform="matrix(1,0,0,-1,0,841.92)" d="M .000008871 0 L 595.32 0 L 595.32 841.92 L .000008871 841.92 Z " fill-rule="evenodd"/>
</clipPath>
<g clip-path="url(#cp39817)">
</g>
</g>
<g id="Layer-1" data-name="P">
<clipPath id="cp39818">
<path transform="matrix(1,0,0,-1,0,841.92)" d="M .000008871 0 L 595.32 0 L 595.32 841.92 L .000008871 841.92 Z " fill-rule="evenodd"/>
</clipPath>
<g clip-path="url(#cp39818)">
<text xml:space="preserve" transform="matrix(1 0 -0 1 0 841.92)" font-size="14.04" font-family="Symbol"><tspan y="-163.7" x="131.42">&#xf0b7;</tspan></text>
</g>
<clipPath id="cp39819">
<path transform="matrix(1,0,0,-1,0,841.92)" d="M .000008871 0 L 595.32 0 L 595.32 841.92 L .000008871 841.92 Z " fill-rule="evenodd"/>
</clipPath>
<g clip-path="url(#cp39819)">
<text xml:space="preserve" transform="matrix(1 0 -0 1 0 841.92)" font-size="14.04" font-family="Arial"><tspan y="-163.7" x="137.9"> </tspan></text>
</g>
<clipPath id="cp39820">
<path transform="matrix(1,0,0,-1,0,841.92)" d="M .000008871 0 L 595.32 0 L 595.32 841.92 L .000008871 841.92 Z " fill-rule="evenodd"/>
</clipPath>
<g clip-path="url(#cp39820)">
<text xml:space="preserve" transform="matrix(1 0 -0 1 0 841.92)" font-size="14.04" font-family="Times New Roman"><tspan y="-163.7" x="149.42 161.90157 168.13533 173.639 179.76045 183.70569 189.82714 196.88925 200.83449 204.34449 211.15389 217.38765 223.62142 230.69759 234.54454 239.94994 247.01206 253.97589 257.82286 264.88496 271.8488 275.3588 280.82035 287.84034 294.86033 298.76344 302.66654 306.17655 313.12635 318.53175 325.59385 329.4408 333.38603 340.34986 344.29508 347.80509 351.60993 357.8437 364.80754 368.75276 374.87419 380.37785 387.34169">Masalani yechishning sonli usulini tanlash;</tspan></text>
</g>
<clipPath id="cp39821">
<path transform="matrix(1,0,0,-1,0,841.92)" d="M .000008871 0 L 595.32 0 L 595.32 841.92 L .000008871 841.92 Z " fill-rule="evenodd"/>
</clipPath>
<g clip-path="url(#cp39821)">
<text xml:space="preserve" transform="matrix(1 0 -0 1 0 841.92)" font-size="14.04" font-family="Times New Roman"><tspan y="-163.7" x="391.39"> </tspan></text>
</g>
<clipPath id="cp39822">
<path transform="matrix(1,0,0,-1,0,841.92)" d="M .000008871 0 L 595.32 0 L 595.32 841.92 L .000008871 841.92 Z " fill-rule="evenodd"/>
</clipPath>
<g clip-path="url(#cp39822)">
</g>
</g>
<g id="Layer-1" data-name="P">
<clipPath id="cp39823">
<path transform="matrix(1,0,0,-1,0,841.92)" d="M .000008871 0 L 595.32 0 L 595.32 841.92 L .000008871 841.92 Z " fill-rule="evenodd"/>
</clipPath>
<g clip-path="url(#cp39823)">
<text xml:space="preserve" transform="matrix(1 0 -0 1 0 841.92)" font-size="14.04" font-family="Symbol"><tspan y="-138.62" x="131.42">&#xf0b7;</tspan></text>
</g>
<clipPath id="cp39824">
<path transform="matrix(1,0,0,-1,0,841.92)" d="M .000008871 0 L 595.32 0 L 595.32 841.92 L .000008871 841.92 Z " fill-rule="evenodd"/>
</clipPath>
<g clip-path="url(#cp39824)">
<text xml:space="preserve" transform="matrix(1 0 -0 1 0 841.92)" font-size="14.04" font-family="Arial"><tspan y="-138.62" x="137.9"> </tspan></text>
</g>
<clipPath id="cp39825">
<path transform="matrix(1,0,0,-1,0,841.92)" d="M .000008871 0 L 595.32 0 L 595.32 841.92 L .000008871 841.92 Z " fill-rule="evenodd"/>
</clipPath>
<g clip-path="url(#cp39825)">
<text xml:space="preserve" transform="matrix(1 0 -0 1 0 841.92)" font-size="14.04" font-family="Times New Roman"><tspan y="-138.62" x="149.42 161.90157 168.13533 173.639 179.76045 183.70569 189.82714 196.88925 200.83449 204.34449 211.15389 217.38765 223.62142 230.69759 234.54454 239.94994 247.01206 250.52205 257.54206 263.6916 270.65544 277.71754 284.77964">Masalani yechish uchun </tspan></text>
</g>
<clipPath id="cp39826">
<path transform="matrix(1,0,0,-1,0,841.92)" d="M .000008871 0 L 595.32 0 L 595.32 841.92 L .000008871 841.92 Z " fill-rule="evenodd"/>
</clipPath>
<g clip-path="url(#cp39826)">
<text xml:space="preserve" transform="matrix(1 0 -0 1 0 841.92)" font-size="14.04" font-family="Times New Roman"><tspan y="-138.62" x="288.29 295.3521 301.47355 306.9772 310.82417 317.88627 322.44926 326.39448 332.62825 338.03364 345.09574 348.60575 352.41059 356.25755 360.20277 364.0497 371.11183 375.05705 378.4126 382.35783 388.47926 395.54136 399.48658 405.608 411.0134 418.0755 421.5855 428.6055 434.83927 438.23695 445.29905 451.42048 456.92414 460.7711 467.8332 472.39619 479.45829 483.4035 486.9135 493.7229 500.785 507.01878 510.86573 516.3694 523.33328">dasturlash tilini tanlash va dasturni yozish;</tspan></text>
</g>
<clipPath id="cp39827">
<path transform="matrix(1,0,0,-1,0,841.92)" d="M .000008871 0 L 595.32 0 L 595.32 841.92 L .000008871 841.92 Z " fill-rule="evenodd"/>
</clipPath>
<g clip-path="url(#cp39827)">
<text xml:space="preserve" transform="matrix(1 0 -0 1 0 841.92)" font-size="14.04" font-family="Times New Roman"><tspan y="-138.62" x="527.5"> </tspan></text>
</g>
<clipPath id="cp39828">
<path transform="matrix(1,0,0,-1,0,841.92)" d="M .000008871 0 L 595.32 0 L 595.32 841.92 L .000008871 841.92 Z " fill-rule="evenodd"/>
</clipPath>
<g clip-path="url(#cp39828)">
</g>
</g>
<g id="Layer-1" data-name="P">
<clipPath id="cp39829">
<path transform="matrix(1,0,0,-1,0,841.92)" d="M .000008871 0 L 595.32 0 L 595.32 841.92 L .000008871 841.92 Z " fill-rule="evenodd"/>
</clipPath>
<g clip-path="url(#cp39829)">
<text xml:space="preserve" transform="matrix(1 0 -0 1 0 841.92)" font-size="14.04" font-family="Symbol"><tspan y="-113.42" x="131.42">&#xf0b7;</tspan></text>
</g>
<clipPath id="cp39830">
<path transform="matrix(1,0,0,-1,0,841.92)" d="M .000008871 0 L 595.32 0 L 595.32 841.92 L .000008871 841.92 Z " fill-rule="evenodd"/>
</clipPath>
<g clip-path="url(#cp39830)">
<text xml:space="preserve" transform="matrix(1 0 -0 1 0 841.92)" font-size="14.04" font-family="Arial"><tspan y="-113.42" x="137.9"> </tspan></text>
</g>
<clipPath id="cp39831">
<path transform="matrix(1,0,0,-1,0,841.92)" d="M .000008871 0 L 595.32 0 L 595.32 841.92 L .000008871 841.92 Z " fill-rule="evenodd"/>
</clipPath>
<g clip-path="url(#cp39831)">
<text xml:space="preserve" transform="matrix(1 0 -0 1 0 841.92)" font-size="14.04" font-family="Times New Roman"><tspan y="-113.42" x="149.42 159.50072 166.56284 177.24729 184.3094 189.09705 195.93453 202.99665 206.94188 213.17565 217.85097 224.82886 231.06262 234.57262 245.22899 251.46276 256.98048 263.21424 267.15946 273.39323 280.46937 284.41459 287.9246 294.73399 300.96775 307.2015 314.17939 318.1246 323.53 330.5921">Komp`yuterda masalani yechish;</tspan></text>
</g>
<clipPath id="cp39832">
<path transform="matrix(1,0,0,-1,0,841.92)" d="M .000008871 0 L 595.32 0 L 595.32 841.92 L .000008871 841.92 Z " fill-rule="evenodd"/>
</clipPath>
<g clip-path="url(#cp39832)">
<text xml:space="preserve" transform="matrix(1 0 -0 1 0 841.92)" font-size="14.04" font-family="Times New Roman"><tspan y="-113.42" x="334.63"> </tspan></text>
</g>
<clipPath id="cp39833">
<path transform="matrix(1,0,0,-1,0,841.92)" d="M .000008871 0 L 595.32 0 L 595.32 841.92 L .000008871 841.92 Z " fill-rule="evenodd"/>
</clipPath>
<g clip-path="url(#cp39833)">
</g>
</g>
<g id="Layer-1" data-name="P">
<clipPath id="cp39834">
<path transform="matrix(1,0,0,-1,0,841.92)" d="M .000008871 0 L 595.32 0 L 595.32 841.92 L .000008871 841.92 Z " fill-rule="evenodd"/>
</clipPath>
<g clip-path="url(#cp39834)">
<text xml:space="preserve" transform="matrix(1 0 -0 1 0 841.92)" font-size="14.04" font-family="Symbol"><tspan y="-88.224" x="131.42">&#xf0b7;</tspan></text>
</g>
<clipPath id="cp39835">
<path transform="matrix(1,0,0,-1,0,841.92)" d="M .000008871 0 L 595.32 0 L 595.32 841.92 L .000008871 841.92 Z " fill-rule="evenodd"/>
</clipPath>
<g clip-path="url(#cp39835)">
<text xml:space="preserve" transform="matrix(1 0 -0 1 0 841.92)" font-size="14.04" font-family="Arial"><tspan y="-88.224" x="137.9"> </tspan></text>
</g>
<clipPath id="cp39836">
<path transform="matrix(1,0,0,-1,0,841.92)" d="M .000008871 0 L 595.32 0 L 595.32 841.92 L .000008871 841.92 Z " fill-rule="evenodd"/>
</clipPath>
<g clip-path="url(#cp39836)">
<text xml:space="preserve" transform="matrix(1 0 -0 1 0 841.92)" font-size="14.04" font-family="Times New Roman"><tspan y="-88.224" x="149.42 157.94228 165.0044 171.96823 175.91347 179.76042 186.82254 192.94399 200.0061 203.5161 210.3255 216.55927 222.79303 229.8692 233.81444 244.49889 251.561 255.50624 259.01625 262.91935 269.06889 276.13099 279.97795 283.92317 287.86839 291.22395 298.28605 302.133 305.97996 309.92518 315.33058 322.39268 325.90269 329.35655">Topilgan yechimni tahlil qilish.  </tspan></text>
</g>
<clipPath id="cp39837">
<path transform="matrix(1,0,0,-1,0,841.92)" d="M .000008871 0 L 595.32 0 L 595.32 841.92 L .000008871 841.92 Z " fill-rule="evenodd"/>
</clipPath>
<g clip-path="url(#cp39837)">
<text xml:space="preserve" transform="matrix(1 0 -0 1 0 841.92)" font-size="14.04" font-family="Times New Roman"><tspan y="-88.224" x="333.07"> </tspan></text>
</g>
<clipPath id="cp39838">
<path transform="matrix(1,0,0,-1,0,841.92)" d="M .000008871 0 L 595.32 0 L 595.32 841.92 L .000008871 841.92 Z " fill-rule="evenodd"/>
</clipPath>
<g clip-path="url(#cp39838)">
</g>
</g>
</g>
</g>
</svg>
