<?xml version="1.0" encoding="UTF-8" standalone="no"?>
<!DOCTYPE svg PUBLIC "-//W3C//DTD SVG 1.1//EN" "http://www.w3.org/Graphics/SVG/1.1/DTD/svg11.dtd">
<svg xmlns="http://www.w3.org/2000/svg" xmlns:xlink="http://www.w3.org/1999/xlink" version="1.1" width="595.32pt" height="841.92pt" viewBox="0 0 595.32 841.92">
<g enable-background="new">
<g>
<g id="Layer-1" data-name="Artifact">
<clipPath id="cp40219">
<path transform="matrix(1,0,0,-1,0,841.92)" d="M .000008871 0 L 595.32 0 L 595.32 841.92 L .000008871 841.92 Z " fill-rule="evenodd"/>
</clipPath>
<g clip-path="url(#cp40219)">
<text xml:space="preserve" transform="matrix(1 0 -0 1 0 841.92)" font-size="11.04" font-family="Calibri"><tspan y="-51.864" x="314.09 319.72999 325.36997">254</tspan></text>
</g>
<clipPath id="cp40220">
<path transform="matrix(1,0,0,-1,0,841.92)" d="M .000008871 0 L 595.32 0 L 595.32 841.92 L .000008871 841.92 Z " fill-rule="evenodd"/>
</clipPath>
<g clip-path="url(#cp40220)">
<text xml:space="preserve" transform="matrix(1 0 -0 1 0 841.92)" font-size="11.04" font-family="Calibri"><tspan y="-51.864" x="331.03"> </tspan></text>
</g>
<clipPath id="cp40221">
<path transform="matrix(1,0,0,-1,0,841.92)" d="M .000008871 0 L 595.32 0 L 595.32 841.92 L .000008871 841.92 Z " fill-rule="evenodd"/>
</clipPath>
<g clip-path="url(#cp40221)">
</g>
<clipPath id="cp40222">
<path transform="matrix(1,0,0,-1,0,841.92)" d="M .000008871 0 L 595.32 0 L 595.32 841.92 L .000008871 841.92 Z " fill-rule="evenodd"/>
</clipPath>
<g clip-path="url(#cp40222)">
<text xml:space="preserve" transform="matrix(1 0 -0 1 0 841.92)" font-size="11.04" font-family="Calibri"><tspan y="-38.4" x="85.104"> </tspan></text>
</g>
<clipPath id="cp40223">
<path transform="matrix(1,0,0,-1,0,841.92)" d="M .000008871 0 L 595.32 0 L 595.32 841.92 L .000008871 841.92 Z " fill-rule="evenodd"/>
</clipPath>
<g clip-path="url(#cp40223)">
</g>
</g>
<g id="Layer-1" data-name="P">
<clipPath id="cp40224">
<path transform="matrix(1,0,0,-1,0,841.92)" d="M .000008871 0 L 595.32 0 L 595.32 841.92 L .000008871 841.92 Z " fill-rule="evenodd"/>
</clipPath>
<g clip-path="url(#cp40224)">
<text xml:space="preserve" transform="matrix(1 0 -0 1 0 841.92)" font-size="14.04" font-family="Times New Roman,Bold" font-weight="bold"><tspan y="-772.32" x="176.06 183.14">14</tspan></text>
</g>
<clipPath id="cp40225">
<path transform="matrix(1,0,0,-1,0,841.92)" d="M .000008871 0 L 595.32 0 L 595.32 841.92 L .000008871 841.92 Z " fill-rule="evenodd"/>
</clipPath>
<g clip-path="url(#cp40225)">
<text xml:space="preserve" transform="matrix(1 0 -0 1 0 841.92)" font-size="14.04" font-family="Times New Roman,Bold" font-weight="bold"><tspan y="-772.32" x="190.25">-</tspan></text>
</g>
<clipPath id="cp40226">
<path transform="matrix(1,0,0,-1,0,841.92)" d="M .000008871 0 L 595.32 0 L 595.32 841.92 L .000008871 841.92 Z " fill-rule="evenodd"/>
</clipPath>
<g clip-path="url(#cp40226)">
<text xml:space="preserve" transform="matrix(1 0 -0 1 0 841.92)" font-size="14.04" font-family="Times New Roman,Bold" font-weight="bold"><tspan y="-772.32" x="194.81 204.17469 215.09781 224.4625 227.93038">BOB. </tspan></text>
</g>
<clipPath id="cp40227">
<path transform="matrix(1,0,0,-1,0,841.92)" d="M .000008871 0 L 595.32 0 L 595.32 841.92 L .000008871 841.92 Z " fill-rule="evenodd"/>
</clipPath>
<g clip-path="url(#cp40227)">
<text xml:space="preserve" transform="matrix(1 0 -0 1 0 841.92)" font-size="14.04" font-family="Times New Roman,Bold" font-weight="bold"><tspan y="-772.32" x="231.41 236.8154 247.73853 257.1032 262.60688 270.28675 281.20988 291.2906 296.69599 306.7767 317.69984 327.0645 337.1312 347.2119 350.72193 361.64506 370.1252 379.4899 384.99357 398.19117 408.27189 417.63658 427.00126 437.06794 444.87419 455.7973 465.162 470.6516 480.73234 486.236 493.91587 504.839">IQTISODIYOTDA OPTIMALLASHTIRISH </tspan></text>
</g>
<clipPath id="cp40228">
<path transform="matrix(1,0,0,-1,0,841.92)" d="M .000008871 0 L 595.32 0 L 595.32 841.92 L .000008871 841.92 Z " fill-rule="evenodd"/>
</clipPath>
<g clip-path="url(#cp40228)">
<text xml:space="preserve" transform="matrix(1 0 -0 1 0 841.92)" font-size="14.04" font-family="Times New Roman,Bold" font-weight="bold"><tspan y="-748.06" x="227.93 241.12758 252.0507 262.13145 271.49613 280.8608 290.2255 300.29219 310.3729 315.87657 325.95729 336.038 346.1187 349.62873 358.12294 369.04606 379.12678 389.2075 399.2882 408.6529 418.7336 428.81434 434.318 442.12425">MODELLARIDAN FOYDALANISH</tspan></text>
</g>
<clipPath id="cp40229">
<path transform="matrix(1,0,0,-1,0,841.92)" d="M .000008871 0 L 595.32 0 L 595.32 841.92 L .000008871 841.92 Z " fill-rule="evenodd"/>
</clipPath>
<g clip-path="url(#cp40229)">
<text xml:space="preserve" transform="matrix(1 0 -0 1 0 841.92)" font-size="14.04" font-family="Times New Roman,Bold" font-weight="bold"><tspan y="-748.06" x="453.1"> </tspan></text>
</g>
</g>
<g id="Layer-1" data-name="P">
<clipPath id="cp40230">
<path transform="matrix(1,0,0,-1,0,841.92)" d="M .000008871 0 L 595.32 0 L 595.32 841.92 L .000008871 841.92 Z " fill-rule="evenodd"/>
</clipPath>
<g clip-path="url(#cp40230)">
<text xml:space="preserve" transform="matrix(1 0 -0 1 0 841.92)" font-size="12" font-family="Times New Roman,Bold" font-weight="bold"><tspan y="-725.74" x="340.51"> </tspan></text>
</g>
</g>
<g id="Layer-1" data-name="P">
<clipPath id="cp40231">
<path transform="matrix(1,0,0,-1,0,841.92)" d="M .000008871 0 L 595.32 0 L 595.32 841.92 L .000008871 841.92 Z " fill-rule="evenodd"/>
</clipPath>
<g clip-path="url(#cp40231)">
<text xml:space="preserve" transform="matrix(1 0 -0 1 0 841.92)" font-size="14.04" font-family="Times New Roman,Bold" font-weight="bold"><tspan y="-703.3" x="128.3 135.36212 142.42424 145.7798 152.84192 156.35192 159.80574 169.88646 176.12023 182.35399 185.86399 192.79975 199.86186 203.37186 208.83342 216.54138 223.6035 227.1135 233.34726 239.44063 244.84603 252.65227 258.88603 264.2914 268.23664 275.29875 281.42018 285.3654 293.04527 300.10737 307.9136 311.4236 318.4436 326.15159 329.99855 333.94377 341.00587 348.68574 355.74784 359.25785 363.79277 370.85487 377.91697 385.59684 392.56068 396.5059 403.568 411.24787 415.09483 420.59849 428.40473 436.0846 443.1467 450.11054 454.05577 457.56578 464.58576 472.29374 476.96907 480.816 492.34284 499.40495 503.35017 507.29539 512.7991 520.6053 525.15426 529.0995 535.22097 539.1662 544.5716 552.3778">14.1. Yer va suv resurslaridan oqilona foydalanishdagi optimallshtirish </tspan></text>
</g>
<clipPath id="cp40232">
<path transform="matrix(1,0,0,-1,0,841.92)" d="M .000008871 0 L 595.32 0 L 595.32 841.92 L .000008871 841.92 Z " fill-rule="evenodd"/>
</clipPath>
<g clip-path="url(#cp40232)">
<text xml:space="preserve" transform="matrix(1 0 -0 1 0 841.92)" font-size="14.04" font-family="Times New Roman,Bold" font-weight="bold"><tspan y="-679.06" x="231.65 243.17684 250.23896 255.74263 262.80476 266.6517 273.61555 277.56077 284.62287 290.7443 294.6895 298.04508 305.10719 312.16929 315.6793 323.3311 327.2763 334.24015 340.4739 348.28016 352.1271 355.63713 362.6571 368.89088 375.1527 382.83259 386.7778 392.28147 400.0877 403.59773 411.23548 416.73915 424.419 428.36424 432.21119 439.2733 445.3947">masalalari va ularni yechish usullari</tspan></text>
</g>
<clipPath id="cp40233">
<path transform="matrix(1,0,0,-1,0,841.92)" d="M .000008871 0 L 595.32 0 L 595.32 841.92 L .000008871 841.92 Z " fill-rule="evenodd"/>
</clipPath>
<g clip-path="url(#cp40233)">
<text xml:space="preserve" transform="matrix(1 0 -0 1 0 841.92)" font-size="14.04" font-family="Times New Roman,Bold" font-weight="bold"><tspan y="-679.06" x="449.5"> </tspan></text>
</g>
</g>
<g id="Layer-1" data-name="P">
<clipPath id="cp40234">
<path transform="matrix(1,0,0,-1,0,841.92)" d="M .000008871 0 L 595.32 0 L 595.32 841.92 L .000008871 841.92 Z " fill-rule="evenodd"/>
</clipPath>
<g clip-path="url(#cp40234)">
<text xml:space="preserve" transform="matrix(1 0 -0 1 0 841.92)" font-size="14.04" font-family="Times New Roman,Bold" font-weight="bold"><tspan y="-654.94" x="340.51"> </tspan></text>
</g>
</g>
<g id="Layer-1" data-name="P">
<clipPath id="cp40235">
<path transform="matrix(1,0,0,-1,0,841.92)" d="M 0 .000061035 L 595.32 .000061035 L 595.32 841.92007 L 0 841.92007 Z " fill-rule="evenodd"/>
</clipPath>
<g clip-path="url(#cp40235)">
<clipPath id="cp40236">
<path transform="matrix(.9705802,0,0,-.96985617,102.16,217.15998)" d="M 0 0 L 74.954 0 L 74.954 19.333 L 0 19.333 Z " fill-rule="evenodd"/>
</clipPath>
<g clip-path="url(#cp40236)">
<text xml:space="preserve" transform="matrix(.9705802 0 -0 .96985617 102.16 217.15998)" font-size="13.932" font-family="Times New Roman"><tspan y="-6.3456" x="68.48">)</tspan></text>
<text xml:space="preserve" transform="matrix(.9705802 0 -0 .96985617 102.16 217.15998)" font-size="13.932" font-family="Times New Roman"><tspan y="-6.3456" x="50.585">,</tspan></text>
<text xml:space="preserve" transform="matrix(.9705802 0 -0 .96985617 102.16 217.15998)" font-size="13.932" font-family="Times New Roman"><tspan y="-6.3456" x="34.191">(</tspan></text>
<text xml:space="preserve" transform="matrix(.9705802 0 -0 .96985617 102.16 217.15998)" font-size="6.9662" font-family="Times New Roman"><tspan y="-2.8395" x="63.016">2</tspan></text>
<text xml:space="preserve" transform="matrix(.9705802 0 -0 .96985617 102.16 217.15998)" font-size="6.9662" font-family="Times New Roman"><tspan y="-2.8395" x="45.883">1</tspan></text>
<text xml:space="preserve" transform="matrix(.9705802 0 -0 .96985617 102.16 217.15998)" font-size="13.932" font-family="Times New Roman,Italic" font-style="italic"><tspan y="-6.3456" x="56.296">x</tspan></text>
<text xml:space="preserve" transform="matrix(.9705802 0 -0 .96985617 102.16 217.15998)" font-size="13.932" font-family="Times New Roman,Italic" font-style="italic"><tspan y="-6.3456" x="39.976">x</tspan></text>
<text xml:space="preserve" transform="matrix(.9705802 0 -0 .96985617 102.16 217.15998)" font-size="13.932" font-family="Times New Roman,Italic" font-style="italic"><tspan y="-6.3456" x="26.856">f</tspan></text>
<text xml:space="preserve" transform="matrix(.9705802 0 -0 .96985617 102.16 217.15998)" font-size="13.932" font-family="Times New Roman,Italic" font-style="italic"><tspan y="-6.3456" x="3.1508">y</tspan></text>
<text xml:space="preserve" transform="matrix(.9705802 0 -0 .96985617 102.16 217.15998)" font-size="13.932" font-family="Symbol"><tspan y="-6.3456" x="13.12">&#xf03d;</tspan></text>
</g>
</g>
</g>
<g id="Layer-1" data-name="P">
<clipPath id="cp40237">
<path transform="matrix(1,0,0,-1,0,841.92)" d="M .000008871 0 L 595.32 0 L 595.32 841.92 L .000008871 841.92 Z " fill-rule="evenodd"/>
</clipPath>
<g clip-path="url(#cp40237)">
<text xml:space="preserve" transform="matrix(1 0 -0 1 0 841.92)" font-size="14.04" font-family="Times New Roman"><tspan y="-630.82" x="174.86"> </tspan></text>
</g>
<clipPath id="cp40238">
<path transform="matrix(1,0,0,-1,0,841.92)" d="M .000008871 0 L 595.32 0 L 595.32 841.92 L .000008871 841.92 Z " fill-rule="evenodd"/>
</clipPath>
<g clip-path="url(#cp40238)">
<text xml:space="preserve" transform="matrix(1 0 -0 1 0 841.92)" font-size="14.04" font-family="Times New Roman"><tspan y="-630.82" x="183.14 187.81533 194.77916 201.84128 208.80512 214.21051 218.15575 224.99323 231.22699 238.30316 242.2484 249.21224 256.27436">funksiyaning </tspan></text>
</g>
</g>
<g id="Layer-1" data-name="P">
<clipPath id="cp40239">
<path transform="matrix(1,0,0,-1,0,841.92)" d="M 0 .000061035 L 595.32 .000061035 L 595.32 841.92007 L 0 841.92007 Z " fill-rule="evenodd"/>
</clipPath>
<g clip-path="url(#cp40239)">
<clipPath id="cp40240">
<path transform="matrix(.9773411,0,0,-.96985617,264.56,217.15998)" d="M 0 0 L 30.696 0 L 30.696 19.333 L 0 19.333 Z " fill-rule="evenodd"/>
</clipPath>
<g clip-path="url(#cp40240)">
<text xml:space="preserve" transform="matrix(.9773411 0 -0 .96985617 264.56 217.15998)" font-size="6.9662" font-family="Times New Roman"><tspan y="-2.8395" x="25.403">2</tspan></text>
<text xml:space="preserve" transform="matrix(.9773411 0 -0 .96985617 264.56 217.15998)" font-size="6.9662" font-family="Times New Roman"><tspan y="-2.8395" x="8.3939">1</tspan></text>
<text xml:space="preserve" transform="matrix(.9773411 0 -0 .96985617 264.56 217.15998)" font-size="13.932" font-family="Times New Roman"><tspan y="-6.3456" x="13.046">,</tspan></text>
<text xml:space="preserve" transform="matrix(.9773411 0 -0 .96985617 264.56 217.15998)" font-size="13.932" font-family="Times New Roman,Italic" font-style="italic"><tspan y="-6.3456" x="18.708">x</tspan></text>
<text xml:space="preserve" transform="matrix(.9773411 0 -0 .96985617 264.56 217.15998)" font-size="13.932" font-family="Times New Roman,Italic" font-style="italic"><tspan y="-6.3456" x="2.4862">x</tspan></text>
</g>
</g>
</g>
<g id="Layer-1" data-name="P">
<clipPath id="cp40241">
<path transform="matrix(1,0,0,-1,0,841.92)" d="M .000008871 0 L 595.32 0 L 595.32 841.92 L .000008871 841.92 Z " fill-rule="evenodd"/>
</clipPath>
<g clip-path="url(#cp40241)">
<text xml:space="preserve" transform="matrix(1 0 -0 1 0 841.92)" font-size="14.04" font-family="Times New Roman"><tspan y="-630.82" x="294.53"> </tspan></text>
</g>
<clipPath id="cp40242">
<path transform="matrix(1,0,0,-1,0,841.92)" d="M .000008871 0 L 595.32 0 L 595.32 841.92 L .000008871 841.92 Z " fill-rule="evenodd"/>
</clipPath>
<g clip-path="url(#cp40242)">
<text xml:space="preserve" transform="matrix(1 0 -0 1 0 841.92)" font-size="14.04" font-family="Times New Roman"><tspan y="-630.82" x="302.81 309.04377 313.60676 320.66886 324.5158 328.46104 336.7306 343.7927 348.35569 354.58946 360.8232 365.40028 372.3641 379.4262 385.65998 392.6238 396.47077 400.416 406.64976 411.32508 419.60868">erkli o&#x2018;zaruvchilar  </tspan></text>
</g>
</g>
<g id="Layer-1" data-name="P">
<clipPath id="cp40243">
<path transform="matrix(1,0,0,-1,0,841.92)" d="M 0 .000061035 L 595.32 .000061035 L 595.32 841.92007 L 0 841.92007 Z " fill-rule="evenodd"/>
</clipPath>
<g clip-path="url(#cp40243)">
<clipPath id="cp40244">
<path transform="matrix(.9984317,0,0,-.9352203,427.86,217.15998)" d="M 0 0 L 72.813 0 L 72.813 20.049 L 0 20.049 Z " fill-rule="evenodd"/>
</clipPath>
<g clip-path="url(#cp40244)">
<text xml:space="preserve" transform="matrix(.9984317 0 -0 .9352203 427.86 217.15998)" font-size="14.991" font-family="Times New Roman"><tspan y="-6.074" x="64.246">0</tspan></text>
<text xml:space="preserve" transform="matrix(.9984317 0 -0 .9352203 427.86 217.15998)" font-size="14.991" font-family="Times New Roman"><tspan y="-6.074" x="45.169">)</tspan></text>
<text xml:space="preserve" transform="matrix(.9984317 0 -0 .9352203 427.86 217.15998)" font-size="14.991" font-family="Times New Roman"><tspan y="-6.074" x="27.126">,</tspan></text>
<text xml:space="preserve" transform="matrix(.9984317 0 -0 .9352203 427.86 217.15998)" font-size="14.991" font-family="Times New Roman"><tspan y="-6.074" x="10.659">(</tspan></text>
<text xml:space="preserve" transform="matrix(.9984317 0 -0 .9352203 427.86 217.15998)" font-size="7.5077" font-family="Times New Roman"><tspan y="-2.321" x="39.656">2</tspan></text>
<text xml:space="preserve" transform="matrix(.9984317 0 -0 .9352203 427.86 217.15998)" font-size="7.5077" font-family="Times New Roman"><tspan y="-2.321" x="22.375">1</tspan></text>
<text xml:space="preserve" transform="matrix(.9984317 0 -0 .9352203 427.86 217.15998)" font-size="14.991" font-family="Symbol"><tspan y="-6.074" x="53.268">&#xf03d;</tspan></text>
<text xml:space="preserve" transform="matrix(.9984317 0 -0 .9352203 427.86 217.15998)" font-size="14.991" font-family="Times New Roman,Italic" font-style="italic"><tspan y="-6.074" x="32.911">x</tspan></text>
<text xml:space="preserve" transform="matrix(.9984317 0 -0 .9352203 427.86 217.15998)" font-size="14.991" font-family="Times New Roman,Italic" font-style="italic"><tspan y="-6.074" x="16.419">x</tspan></text>
<text xml:space="preserve" transform="matrix(.9984317 0 -0 .9352203 427.86 217.15998)" font-size="14.991" font-family="Times New Roman,Italic" font-style="italic"><tspan y="-6.074" x="2.4615">g</tspan></text>
</g>
</g>
</g>
<g id="Layer-1" data-name="P">
<clipPath id="cp40245">
<path transform="matrix(1,0,0,-1,0,841.92)" d="M .000008871 0 L 595.32 0 L 595.32 841.92 L .000008871 841.92 Z " fill-rule="evenodd"/>
</clipPath>
<g clip-path="url(#cp40245)">
<text xml:space="preserve" transform="matrix(1 0 -0 1 0 841.92)" font-size="14.04" font-family="Times New Roman"><tspan y="-630.82" x="500.62"> </tspan></text>
</g>
<clipPath id="cp40246">
<path transform="matrix(1,0,0,-1,0,841.92)" d="M .000008871 0 L 595.32 0 L 595.32 841.92 L .000008871 841.92 Z " fill-rule="evenodd"/>
</clipPath>
<g clip-path="url(#cp40246)">
<text xml:space="preserve" transform="matrix(1 0 -0 1 0 841.92)" font-size="14.04" font-family="Times New Roman"><tspan y="-630.82" x="508.9 512.8452 518.9667 526.0288 532.9927 536.9379 543.1717 553.8561 559.97756">tenglama </tspan></text>
</g>
<clipPath id="cp40247">
<path transform="matrix(1,0,0,-1,0,841.92)" d="M .000008871 0 L 595.32 0 L 595.32 841.92 L .000008871 841.92 Z " fill-rule="evenodd"/>
</clipPath>
<g clip-path="url(#cp40247)">
<text xml:space="preserve" transform="matrix(1 0 -0 1 0 841.92)" font-size="14.04" font-family="Times New Roman"><tspan y="-603.94" x="85.104 92.166118 99.22823 103.79124 108.46656 112.31352 119.37564 123.2226 128.62799 135.69011 139.53707 146.59918 152.72063 159.78275 163.72798 168.51561 174.01929 180.98313 187.21689 191.89221 195.73917 202.80129 206.64824">ko&#x2018;rinishidagi shartni </tspan></text>
</g>
<clipPath id="cp40248">
<path transform="matrix(1,0,0,-1,0,841.92)" d="M .000008871 0 L 595.32 0 L 595.32 841.92 L .000008871 841.92 Z " fill-rule="evenodd"/>
</clipPath>
<g clip-path="url(#cp40248)">
<text xml:space="preserve" transform="matrix(1 0 -0 1 0 841.92)" font-size="14.04" font-family="Times New Roman"><tspan y="-603.94" x="211.73">q</tspan></text>
</g>
<clipPath id="cp40249">
<path transform="matrix(1,0,0,-1,0,841.92)" d="M .000008871 0 L 595.32 0 L 595.32 841.92 L .000008871 841.92 Z " fill-rule="evenodd"/>
</clipPath>
<g clip-path="url(#cp40249)">
<text xml:space="preserve" transform="matrix(1 0 -0 1 0 841.92)" font-size="14.04" font-family="Times New Roman"><tspan y="-603.94" x="218.81 225.04376 232.0076 239.06972 245.19116 249.1364 253.08164 259.20307 266.1669 270.11213 274.05735 278.62034 285.58418 292.64628 298.7677 305.8298 309.77503 314.675 318.52195 325.48579 332.54789 338.78166 342.72688 347.62684 358.31129 364.54505 371.6212 377.12486 381.07008 391.75453 398.81663 409.50108 413.4463 418.34626 423.1339 429.97138 437.03349 444.09559 448.0408 452.94078 456.886 463.84983 470.91194 477.1457 481.0909 485.99089 496.67533 500.62055 507.68266 511.62788 522.31228 529.50076 540.1851 544.1304 548.69338 555.6572 559.5042">anoatlantiruvchi lokal maksimumi (yoki lokal minimumi)ni </tspan></text>
</g>
<clipPath id="cp40250">
<path transform="matrix(1,0,0,-1,0,841.92)" d="M .000008871 0 L 595.32 0 L 595.32 841.92 L .000008871 841.92 Z " fill-rule="evenodd"/>
</clipPath>
<g clip-path="url(#cp40250)">
<text xml:space="preserve" transform="matrix(1 0 -0 1 0 841.92)" font-size="14.04" font-family="Times New Roman"><tspan y="-579.82" x="85.104 89.04924 96.01308 103.075199 106.92216 112.32756 119.38968 122.89968 126.8028 132.95232 136.89756 143.019 150.08112 153.59111 160.52687 164.4721 168.31906 172.16602 179.22814 184.63353 188.48049 195.5426 199.0526 202.50643 209.3439 215.68999 220.25299 227.31511">topish talab qilinsin, ya&#x2019;ni</tspan></text>
</g>
<clipPath id="cp40251">
<path transform="matrix(1,0,0,-1,0,841.92)" d="M .000008871 0 L 595.32 0 L 595.32 841.92 L .000008871 841.92 Z " fill-rule="evenodd"/>
</clipPath>
<g clip-path="url(#cp40251)">
<text xml:space="preserve" transform="matrix(1 0 -0 1 0 841.92)" font-size="14.04" font-family="Times New Roman"><tspan y="-579.82" x="231.41"> </tspan></text>
</g>
</g>
<g id="Layer-1" data-name="P">
<clipPath id="cp40252">
<path transform="matrix(1,0,0,-1,0,841.92)" d="M .000008871 0 L 595.32 0 L 595.32 841.92 L .000008871 841.92 Z " fill-rule="evenodd"/>
</clipPath>
<g clip-path="url(#cp40252)">
<text xml:space="preserve" transform="matrix(1 0 -0 1 0 841.92)" font-size="14.04" font-family="Times New Roman"><tspan y="-555.31" x="102.14 105.62 109.100009 112.58001 116.06001 119.540019 123.02002 126.50002 130.09235 133.57234 137.05234 140.53234 144.01233 147.49233 151.08464 154.56464 158.04463 161.52463 165.00463 168.48462 172.07694 175.55693 179.03693 182.51692 185.99692 189.47692 193.06923 196.54923 200.02922 203.50922 206.98921 210.46921">                                </tspan></text>
</g>
</g>
<g id="Layer-1" data-name="P">
<clipPath id="cp40253">
<path transform="matrix(1,0,0,-1,0,841.92)" d="M 0 .000061035 L 595.32 .000061035 L 595.32 841.92007 L 0 841.92007 Z " fill-rule="evenodd"/>
</clipPath>
<g clip-path="url(#cp40253)">
<clipPath id="cp40254">
<path transform="matrix(.98884,0,0,-.9327065,214.16,292.61)" d="M 0 0 L 72.813 0 L 72.813 20.049 L 0 20.049 Z " fill-rule="evenodd"/>
</clipPath>
<g clip-path="url(#cp40254)">
<text xml:space="preserve" transform="matrix(.98884 0 -0 .9327065 214.16 292.61)" font-size="14.991" font-family="Times New Roman"><tspan y="-6.074" x="64.246">0</tspan></text>
<text xml:space="preserve" transform="matrix(.98884 0 -0 .9327065 214.16 292.61)" font-size="14.991" font-family="Times New Roman"><tspan y="-6.074" x="45.169">)</tspan></text>
<text xml:space="preserve" transform="matrix(.98884 0 -0 .9327065 214.16 292.61)" font-size="14.991" font-family="Times New Roman"><tspan y="-6.074" x="27.126">,</tspan></text>
<text xml:space="preserve" transform="matrix(.98884 0 -0 .9327065 214.16 292.61)" font-size="14.991" font-family="Times New Roman"><tspan y="-6.074" x="10.659">(</tspan></text>
<text xml:space="preserve" transform="matrix(.98884 0 -0 .9327065 214.16 292.61)" font-size="7.5077" font-family="Times New Roman"><tspan y="-2.321" x="39.656">2</tspan></text>
<text xml:space="preserve" transform="matrix(.98884 0 -0 .9327065 214.16 292.61)" font-size="7.5077" font-family="Times New Roman"><tspan y="-2.321" x="22.375">1</tspan></text>
<text xml:space="preserve" transform="matrix(.98884 0 -0 .9327065 214.16 292.61)" font-size="14.991" font-family="Symbol"><tspan y="-6.074" x="53.268">&#xf03d;</tspan></text>
<text xml:space="preserve" transform="matrix(.98884 0 -0 .9327065 214.16 292.61)" font-size="14.991" font-family="Times New Roman,Italic" font-style="italic"><tspan y="-6.074" x="32.911">x</tspan></text>
<text xml:space="preserve" transform="matrix(.98884 0 -0 .9327065 214.16 292.61)" font-size="14.991" font-family="Times New Roman,Italic" font-style="italic"><tspan y="-6.074" x="16.419">x</tspan></text>
<text xml:space="preserve" transform="matrix(.98884 0 -0 .9327065 214.16 292.61)" font-size="14.991" font-family="Times New Roman,Italic" font-style="italic"><tspan y="-6.074" x="2.4615">g</tspan></text>
</g>
</g>
</g>
<g id="Layer-1" data-name="P">
<clipPath id="cp40255">
<path transform="matrix(1,0,0,-1,0,841.92)" d="M .000008871 0 L 595.32 0 L 595.32 841.92 L .000008871 841.92 Z " fill-rule="evenodd"/>
</clipPath>
<g clip-path="url(#cp40255)">
<text xml:space="preserve" transform="matrix(1 0 -0 1 0 841.92)" font-size="14.04" font-family="Times New Roman"><tspan y="-555.31" x="286.13 289.64 293.09388 296.67408 300.18409 303.63795 307.14796 310.6018 314.11183 317.56568 321.07569 324.6278 328.13783 331.59169 335.10169 338.55555 342.06556 345.61769 349.1277 352.58155 356.09156 359.5454 363.05543 366.60755 370.11756 373.5714 377.08143 380.53529 384.0453">                             </tspan></text>
</g>
<clipPath id="cp40256">
<path transform="matrix(1,0,0,-1,0,841.92)" d="M .000008871 0 L 595.32 0 L 595.32 841.92 L .000008871 841.92 Z " fill-rule="evenodd"/>
</clipPath>
<g clip-path="url(#cp40256)">
<text xml:space="preserve" transform="matrix(1 0 -0 1 0 841.92)" font-size="14.04" font-family="Times New Roman"><tspan y="-555.31" x="387.55 392.2253 399.30146">(1)</tspan></text>
</g>
<clipPath id="cp40257">
<path transform="matrix(1,0,0,-1,0,841.92)" d="M .000008871 0 L 595.32 0 L 595.32 841.92 L .000008871 841.92 Z " fill-rule="evenodd"/>
</clipPath>
<g clip-path="url(#cp40257)">
<text xml:space="preserve" transform="matrix(1 0 -0 1 0 841.92)" font-size="14.04" font-family="Times New Roman"><tspan y="-555.31" x="403.99"> </tspan></text>
</g>
</g>
<g id="Layer-1" data-name="P">
<clipPath id="cp40258">
<path transform="matrix(1,0,0,-1,0,841.92)" d="M .000008871 0 L 595.32 0 L 595.32 841.92 L .000008871 841.92 Z " fill-rule="evenodd"/>
</clipPath>
<g clip-path="url(#cp40258)">
<text xml:space="preserve" transform="matrix(1 0 -0 1 0 841.92)" font-size="14.04" font-family="Times New Roman"><tspan y="-528.43" x="85.104 90.60768 97.6698 103.79124 108.46656 112.31352 116.258769 119.76877 126.788768 133.02252 136.92565 143.15941 147.69434 151.54129 155.48653 162.54865 168.67009 175.63393 182.69605 188.92981">sharti bajarilganda </tspan></text>
</g>
<clipPath id="cp40259">
<path transform="matrix(1,0,0,-1,0,841.92)" d="M .000008871 0 L 595.32 0 L 595.32 841.92 L .000008871 841.92 Z " fill-rule="evenodd"/>
</clipPath>
<g clip-path="url(#cp40259)">
<text xml:space="preserve" transform="matrix(1 0 -0 1 0 841.92)" font-size="14.04" font-family="Times New Roman"><tspan y="-528.43" x="192.41"> </tspan></text>
</g>
</g>
<g id="Layer-1" data-name="P">
<clipPath id="cp40260">
<path transform="matrix(1,0,0,-1,0,841.92)" d="M .000008871 0 L 595.32 0 L 595.32 841.92 L .000008871 841.92 Z " fill-rule="evenodd"/>
</clipPath>
<g clip-path="url(#cp40260)">
<text xml:space="preserve" transform="matrix(1 0 -0 1 0 841.92)" font-size="14.04" font-family="Times New Roman"><tspan y="-504.07" x="102.14 105.62 109.100009 112.58001 116.06001 119.540019 123.02002 126.50002 130.09235">         </tspan></text>
</g>
</g>
<g id="Layer-1" data-name="P">
<clipPath id="cp40261">
<path transform="matrix(1,0,0,-1,0,841.92)" d="M 0 .000061035 L 595.32 .000061035 L 595.32 841.92007 L 0 841.92007 Z " fill-rule="evenodd"/>
</clipPath>
<g clip-path="url(#cp40261)">
<clipPath id="cp40262">
<path transform="matrix(.99574688,0,0,-.9327065,133.76,343.86)" d="M 0 0 L 95.656 0 L 95.656 20.049 L 0 20.049 Z " fill-rule="evenodd"/>
</clipPath>
<g clip-path="url(#cp40262)">
<text xml:space="preserve" transform="matrix(.99574688 0 -0 .9327065 133.76 343.86)" font-size="14.991" font-family="Times New Roman"><tspan y="-6.074" x="69.539 79.61296 86.08907">max</tspan></text>
<text xml:space="preserve" transform="matrix(.99574688 0 -0 .9327065 133.76 343.86)" font-size="14.991" font-family="Times New Roman"><tspan y="-6.074" x="45.268">)</tspan></text>
<text xml:space="preserve" transform="matrix(.99574688 0 -0 .9327065 133.76 343.86)" font-size="14.991" font-family="Times New Roman"><tspan y="-6.074" x="27.791">,</tspan></text>
<text xml:space="preserve" transform="matrix(.99574688 0 -0 .9327065 133.76 343.86)" font-size="14.991" font-family="Times New Roman"><tspan y="-6.074" x="11.692">(</tspan></text>
<text xml:space="preserve" transform="matrix(.99574688 0 -0 .9327065 133.76 343.86)" font-size="7.5077" font-family="Times New Roman"><tspan y="-2.321" x="39.902">2</tspan></text>
<text xml:space="preserve" transform="matrix(.99574688 0 -0 .9327065 133.76 343.86)" font-size="7.5077" font-family="Times New Roman"><tspan y="-2.321" x="23.212">1</tspan></text>
<text xml:space="preserve" transform="matrix(.99574688 0 -0 .9327065 133.76 343.86)" font-size="14.991" font-family="Symbol"><tspan y="-6.074" x="52.776">&#xf0ae;</tspan></text>
<text xml:space="preserve" transform="matrix(.99574688 0 -0 .9327065 133.76 343.86)" font-size="14.991" font-family="Times New Roman,Italic" font-style="italic"><tspan y="-6.074" x="33.329">x</tspan></text>
<text xml:space="preserve" transform="matrix(.99574688 0 -0 .9327065 133.76 343.86)" font-size="14.991" font-family="Times New Roman,Italic" font-style="italic"><tspan y="-6.074" x="17.428">x</tspan></text>
<text xml:space="preserve" transform="matrix(.99574688 0 -0 .9327065 133.76 343.86)" font-size="14.991" font-family="Times New Roman,Italic" font-style="italic"><tspan y="-6.074" x="4.4308">f</tspan></text>
</g>
</g>
</g>
<g id="Layer-1" data-name="P">
<clipPath id="cp40263">
<path transform="matrix(1,0,0,-1,0,841.92)" d="M .000008871 0 L 595.32 0 L 595.32 841.92 L .000008871 841.92 Z " fill-rule="evenodd"/>
</clipPath>
<g clip-path="url(#cp40263)">
<text xml:space="preserve" transform="matrix(1 0 -0 1 0 841.92)" font-size="14.04" font-family="Times New Roman"><tspan y="-504.07" x="229.01"> </tspan></text>
</g>
</g>
<g id="Layer-1" data-name="P">
<clipPath id="cp40264">
<path transform="matrix(1,0,0,-1,0,841.92)" d="M 0 .000061035 L 595.32 .000061035 L 595.32 841.92007 L 0 841.92007 Z " fill-rule="evenodd"/>
</clipPath>
<g clip-path="url(#cp40264)">
<clipPath id="cp40265">
<path transform="matrix(.99229916,0,0,-.9327065,232.51,343.86)" d="M 0 0 L 102.79 0 L 102.79 20.049 L 0 20.049 Z " fill-rule="evenodd"/>
</clipPath>
<g clip-path="url(#cp40265)">
<text xml:space="preserve" transform="matrix(.99229916 0 -0 .9327065 232.51 343.86)" font-size="14.991" font-family="Times New Roman"><tspan y="-6.074" x="74.536 84.62495 88.91237 95.38848">min)</tspan></text>
<text xml:space="preserve" transform="matrix(.99229916 0 -0 .9327065 232.51 343.86)" font-size="14.991" font-family="Times New Roman"><tspan y="-6.074" x="50.216">)</tspan></text>
<text xml:space="preserve" transform="matrix(.99229916 0 -0 .9327065 232.51 343.86)" font-size="14.991" font-family="Times New Roman"><tspan y="-6.074" x="32.714">,</tspan></text>
<text xml:space="preserve" transform="matrix(.99229916 0 -0 .9327065 232.51 343.86)" font-size="14.991" font-family="Times New Roman"><tspan y="-6.074" x="16.591">(</tspan></text>
<text xml:space="preserve" transform="matrix(.99229916 0 -0 .9327065 232.51 343.86)" font-size="14.991" font-family="Times New Roman"><tspan y="-6.074" x="1.5754">(</tspan></text>
<text xml:space="preserve" transform="matrix(.99229916 0 -0 .9327065 232.51 343.86)" font-size="7.5077" font-family="Times New Roman"><tspan y="-2.321" x="44.849">2</tspan></text>
<text xml:space="preserve" transform="matrix(.99229916 0 -0 .9327065 232.51 343.86)" font-size="7.5077" font-family="Times New Roman"><tspan y="-2.321" x="28.111">1</tspan></text>
<text xml:space="preserve" transform="matrix(.99229916 0 -0 .9327065 232.51 343.86)" font-size="14.991" font-family="Symbol"><tspan y="-6.074" x="57.748">&#xf0ae;</tspan></text>
<text xml:space="preserve" transform="matrix(.99229916 0 -0 .9327065 232.51 343.86)" font-size="14.991" font-family="Times New Roman,Italic" font-style="italic"><tspan y="-6.074" x="38.277">x</tspan></text>
<text xml:space="preserve" transform="matrix(.99229916 0 -0 .9327065 232.51 343.86)" font-size="14.991" font-family="Times New Roman,Italic" font-style="italic"><tspan y="-6.074" x="22.326">x</tspan></text>
<text xml:space="preserve" transform="matrix(.99229916 0 -0 .9327065 232.51 343.86)" font-size="14.991" font-family="Times New Roman,Italic" font-style="italic"><tspan y="-6.074" x="9.3047">f</tspan></text>
</g>
</g>
</g>
<g id="Layer-1" data-name="P">
<clipPath id="cp40266">
<path transform="matrix(1,0,0,-1,0,841.92)" d="M .000008871 0 L 595.32 0 L 595.32 841.92 L .000008871 841.92 Z " fill-rule="evenodd"/>
</clipPath>
<g clip-path="url(#cp40266)">
<text xml:space="preserve" transform="matrix(1 0 -0 1 0 841.92)" font-size="14.04" font-family="Times New Roman"><tspan y="-504.07" x="334.51 337.99003 341.47004 344.95005 348.43006 351.91007 355.39009 358.8701 362.3501 365.8301 369.42247 372.90248 376.38249 379.8625 383.3425 386.8225">                </tspan></text>
</g>
<clipPath id="cp40267">
<path transform="matrix(1,0,0,-1,0,841.92)" d="M .000008871 0 L 595.32 0 L 595.32 841.92 L .000008871 841.92 Z " fill-rule="evenodd"/>
</clipPath>
<g clip-path="url(#cp40267)">
<text xml:space="preserve" transform="matrix(1 0 -0 1 0 841.92)" font-size="14.04" font-family="Times New Roman"><tspan y="-504.07" x="390.31 394.98533 402.06147">(2)</tspan></text>
</g>
<clipPath id="cp40268">
<path transform="matrix(1,0,0,-1,0,841.92)" d="M .000008871 0 L 595.32 0 L 595.32 841.92 L .000008871 841.92 Z " fill-rule="evenodd"/>
</clipPath>
<g clip-path="url(#cp40268)">
<text xml:space="preserve" transform="matrix(1 0 -0 1 0 841.92)" font-size="14.04" font-family="Times New Roman"><tspan y="-504.07" x="406.75"> </tspan></text>
</g>
</g>
<g id="Layer-1" data-name="P">
<clipPath id="cp40269">
<path transform="matrix(1,0,0,-1,0,841.92)" d="M .000008871 0 L 595.32 0 L 595.32 841.92 L .000008871 841.92 Z " fill-rule="evenodd"/>
</clipPath>
<g clip-path="url(#cp40269)">
<text xml:space="preserve" transform="matrix(1 0 -0 1 0 841.92)" font-size="14.04" font-family="Times New Roman"><tspan y="-477.19" x="85.104 92.166118 99.22823 103.79124 107.6382 113.141887 116.988849 124.050968">bo&#x2018;lsin.</tspan></text>
</g>
<clipPath id="cp40270">
<path transform="matrix(1,0,0,-1,0,841.92)" d="M .000008871 0 L 595.32 0 L 595.32 841.92 L .000008871 841.92 Z " fill-rule="evenodd"/>
</clipPath>
<g clip-path="url(#cp40270)">
<text xml:space="preserve" transform="matrix(1 0 -0 1 0 841.92)" font-size="14.04" font-family="Times New Roman"><tspan y="-477.19" x="127.46"> </tspan></text>
</g>
</g>
<g id="Layer-1" data-name="P">
<clipPath id="cp40271">
<path transform="matrix(1,0,0,-1,0,841.92)" d="M .000008871 0 L 595.32 0 L 595.32 841.92 L .000008871 841.92 Z " fill-rule="evenodd"/>
</clipPath>
<g clip-path="url(#cp40271)">
<text xml:space="preserve" transform="matrix(1 0 -0 1 0 841.92)" font-size="14.04" font-family="Times New Roman"><tspan y="-453.07" x="102.14 106.81532 113.89148 118.5668 123.35445 130.41657 136.65033 141.56433 146.12734 153.18946 157.86478 162.77878 173.46323 179.69699 185.21472 191.44849 195.39373 201.62749 206.41512 211.82051 218.78435 225.01811 229.69344 233.54039 237.48563 241.43087 246.21849 250.16373 257.12757 264.18968 270.3111 274.25633 279.15629 289.84074 296.0745 303.15065 308.6543 312.59953 323.28398 330.34608 341.14283 346.0428 350.7181 361.40257 365.34779 372.40989 376.3551 387.03956 394.22804 404.91249 409.5878 414.61415 425.4109 431.64466 437.16236 443.39613 447.34135 453.5751 458.9805 462.82746 467.72743 474.78953 480.91096 487.97306 492.87303 499.10679 505.95829 509.9035 513.84878 517.69577 523.9295 530.8934 534.8386 538.34866 543.2205 552.45889 559.4227">(1) va (2) masala shartli lokal maksimum (minimum) masalasi deb aytiladi. Bu </tspan></text>
</g>
<clipPath id="cp40272">
<path transform="matrix(1,0,0,-1,0,841.92)" d="M .000008871 0 L 595.32 0 L 595.32 841.92 L .000008871 841.92 Z " fill-rule="evenodd"/>
</clipPath>
<g clip-path="url(#cp40272)">
<text xml:space="preserve" transform="matrix(1 0 -0 1 0 841.92)" font-size="14.04" font-family="Times New Roman"><tspan y="-428.71" x="85.104 91.941478 98.17523 102.850559 109.92671 116.16047 124.795078 130.29875 137.36087 143.59464 148.15764 152.10288 155.94983 159.89507 168.51563 174.74939 178.69463 184.92839 195.61284 201.8466 207.36434 211.30957">yerda shartli atamasi </tspan></text>
</g>
</g>
<g id="Layer-1" data-name="P">
<clipPath id="cp40273">
<path transform="matrix(1,0,0,-1,0,841.92)" d="M 0 .000061035 L 595.32 .000061035 L 595.32 841.92007 L 0 841.92007 Z " fill-rule="evenodd"/>
</clipPath>
<g clip-path="url(#cp40273)">
<clipPath id="cp40274">
<path transform="matrix(.982394,0,0,-.9327065,220.16,419.21)" d="M 0 0 L 55.68 0 L 55.68 20.049 L 0 20.049 Z " fill-rule="evenodd"/>
</clipPath>
<g clip-path="url(#cp40274)">
<text xml:space="preserve" transform="matrix(.982394 0 -0 .9327065 220.16 419.21)" font-size="7.5077" font-family="Times New Roman"><tspan y="-2.321" x="50.413">2</tspan></text>
<text xml:space="preserve" transform="matrix(.982394 0 -0 .9327065 220.16 419.21)" font-size="7.5077" font-family="Times New Roman"><tspan y="-2.321" x="8.4677">1</tspan></text>
<text xml:space="preserve" transform="matrix(.982394 0 -0 .9327065 220.16 419.21)" font-size="14.991" font-family="Times New Roman"><tspan y="-6.074" x="36.086 39.67975">  </tspan></text>
<text xml:space="preserve" transform="matrix(.982394 0 -0 .9327065 220.16 419.21)" font-size="14.991" font-family="Times New Roman"><tspan y="-6.074" x="23.015 29.537753">&#x0432;&#x0430;</tspan></text>
<text xml:space="preserve" transform="matrix(.982394 0 -0 .9327065 220.16 419.21)" font-size="14.991" font-family="Times New Roman"><tspan y="-6.074" x="12.849 16.44684 20.089653">   </tspan></text>
<text xml:space="preserve" transform="matrix(.982394 0 -0 .9327065 220.16 419.21)" font-size="14.991" font-family="Times New Roman,Italic" font-style="italic"><tspan y="-6.074" x="43.594">x</tspan></text>
<text xml:space="preserve" transform="matrix(.982394 0 -0 .9327065 220.16 419.21)" font-size="14.991" font-family="Times New Roman,Italic" font-style="italic"><tspan y="-6.074" x="2.4615">x</tspan></text>
</g>
</g>
</g>
<g id="Layer-1" data-name="P">
<clipPath id="cp40275">
<path transform="matrix(1,0,0,-1,0,841.92)" d="M .000008871 0 L 595.32 0 L 595.32 841.92 L .000008871 841.92 Z " fill-rule="evenodd"/>
</clipPath>
<g clip-path="url(#cp40275)">
<text xml:space="preserve" transform="matrix(1 0 -0 1 0 841.92)" font-size="14.04" font-family="Times New Roman"><tspan y="-428.71" x="274.85"> </tspan></text>
</g>
<clipPath id="cp40276">
<path transform="matrix(1,0,0,-1,0,841.92)" d="M .000008871 0 L 595.32 0 L 595.32 841.92 L .000008871 841.92 Z " fill-rule="evenodd"/>
</clipPath>
<g clip-path="url(#cp40276)">
<text xml:space="preserve" transform="matrix(1 0 -0 1 0 841.92)" font-size="14.04" font-family="Times New Roman"><tspan y="-428.71" x="283.49 289.72377 294.39909 301.47523 305.32218 309.2674 317.88798 324.95008 329.51307 335.74684 342.82298 349.05674 353.61973 360.58357 367.64567 373.7671 380.8292 384.67616 388.62138 394.85514 399.53047 408.16508 412.8404 419.91654 424.59187 433.1001 438.60377 445.66587 451.7873 456.46263 460.30958 467.37168 471.3169 479.93748 484.6128 490.73423 497.79634 503.91777 510.97987 514.9251 521.0466 528.01046 531.9557 537.3611 544.32498 551.2888 555.1358 559.6988">erkli o&#x2018;zgaruvchilar (2) shartni (cheklanishni) </tspan></text>
</g>
<clipPath id="cp40277">
<path transform="matrix(1,0,0,-1,0,841.92)" d="M .000008871 0 L 595.32 0 L 595.32 841.92 L .000008871 841.92 Z " fill-rule="evenodd"/>
</clipPath>
<g clip-path="url(#cp40277)">
<text xml:space="preserve" transform="matrix(1 0 -0 1 0 841.92)" font-size="14.04" font-family="Times New Roman"><tspan y="-401.83" x="85.104 92.166118 98.28755 105.34967 112.41179 118.533229 122.38019 126.32543 132.55919 139.52303 143.36998 147.31522 151.99054 158.95438 165.18814 172.15198 176.09722 179.94417 186.908 190.85324 197.07295 204.03679 210.27056 217.23439 224.29651 231.35863 237.46602 244.42986 251.49198 256.89738 260.8426 264.7878 270.89524 277.85908 284.92118 289.48417 293.42939 299.66316 306.62699 310.5722 314.0822 320.27388 324.83686 331.89897 338.8628 342.808 346.65498 352.88874 359.1225 363.79783 374.48228 380.71604 387.79219 393.29585 397.24107 407.9255 415.11399 425.79844 432.01817 439.08027 445.31404 451.66014 462.34458 466.2898 473.3519 477.29713 487.98158 495.17005 505.8545 510.52983 516.76358 522.9973 526.94259 533.17636 543.8607 550.0945 555.6122 559.45919">qanoatlantirganligi uchun hosil bo&#x2018;ladi. Ikkita (maksimum va minimum) atamasi </tspan></text>
</g>
<clipPath id="cp40278">
<path transform="matrix(1,0,0,-1,0,841.92)" d="M .000008871 0 L 595.32 0 L 595.32 841.92 L .000008871 841.92 Z " fill-rule="evenodd"/>
</clipPath>
<g clip-path="url(#cp40278)">
<text xml:space="preserve" transform="matrix(1 0 -0 1 0 841.92)" font-size="14.04" font-family="Times New Roman"><tspan y="-377.57" x="85.104 92.166118 96.72912 101.40444 108.4806 112.32756 119.38968 125.623439 128.99304 136.05516 140.0004 146.12184 150.79717 157.761 161.70624 168.67008 175.7322 179.08776 186.14987 196.83432 204.02281 214.70726 218.6525 224.88626 230.40399 237.46611 244.52823 250.64968 257.7118 261.2218 267.31517 274.37727 279.78266 283.72789 288.4032 294.63697 305.3214 312.5099 323.30665 326.81666 333.0504 336.95353 343.1873 353.8998 360.13359 365.65129 369.5965 373.1065 377.0096 382.47117 389.39289 393.3381 399.45954 403.40476 407.2517 411.19694 415.04389 420.44929 427.51139 431.4566 434.9666 445.7353 452.7974 463.48185 470.54396 474.48918 481.55128 485.06129">o&#x2018;rniga ularning umumlashgan ekstremum atamasi ishlatilishi mumkin. </tspan></text>
</g>
<clipPath id="cp40279">
<path transform="matrix(1,0,0,-1,0,841.92)" d="M .000008871 0 L 595.32 0 L 595.32 841.92 L .000008871 841.92 Z " fill-rule="evenodd"/>
</clipPath>
<g clip-path="url(#cp40279)">
<text xml:space="preserve" transform="matrix(1 0 -0 1 0 841.92)" font-size="14.04" font-family="Times New Roman"><tspan y="-377.57" x="488.98"> </tspan></text>
</g>
</g>
<g id="Layer-1" data-name="P">
<clipPath id="cp40280">
<path transform="matrix(1,0,0,-1,0,841.92)" d="M .000008871 0 L 595.32 0 L 595.32 841.92 L .000008871 841.92 Z " fill-rule="evenodd"/>
</clipPath>
<g clip-path="url(#cp40280)">
<text xml:space="preserve" transform="matrix(1 0 -0 1 0 841.92)" font-size="14.04" font-family="Times New Roman"><tspan y="-353.21" x="102.14 106.81532 113.89148 118.5668 128.87216 135.836 142.06977 152.37512 157.05045 164.12662 168.80194 179.1073 189.79175 196.02552 201.54325 207.77701 211.72225 217.84369 224.80753 231.04129">(1) va (2) masalada </tspan></text>
</g>
</g>
<g id="Layer-1" data-name="P">
<clipPath id="cp40281">
<path transform="matrix(1,0,0,-1,0,841.92)" d="M 0 .000061035 L 595.32 .000061035 L 595.32 841.92007 L 0 841.92007 Z " fill-rule="evenodd"/>
</clipPath>
<g clip-path="url(#cp40281)">
<clipPath id="cp40282">
<path transform="matrix(.97871586,0,0,-.96985617,241.51,494.71)" d="M 0 0 L 52.825 0 L 52.825 19.333 L 0 19.333 Z " fill-rule="evenodd"/>
</clipPath>
<g clip-path="url(#cp40282)">
<text xml:space="preserve" transform="matrix(.97871586 0 -0 .96985617 241.51 494.71)" font-size="13.932" font-family="Times New Roman"><tspan y="-6.3456" x="46.228">)</tspan></text>
<text xml:space="preserve" transform="matrix(.97871586 0 -0 .96985617 241.51 494.71)" font-size="13.932" font-family="Times New Roman"><tspan y="-6.3456" x="28.012">,</tspan></text>
<text xml:space="preserve" transform="matrix(.97871586 0 -0 .96985617 241.51 494.71)" font-size="13.932" font-family="Times New Roman"><tspan y="-6.3456" x="11.84">(</tspan></text>
<text xml:space="preserve" transform="matrix(.97871586 0 -0 .96985617 241.51 494.71)" font-size="6.9662" font-family="Times New Roman"><tspan y="-2.8395" x="40.886">2</tspan></text>
<text xml:space="preserve" transform="matrix(.97871586 0 -0 .96985617 241.51 494.71)" font-size="6.9662" font-family="Times New Roman"><tspan y="-2.8395" x="23.434">1</tspan></text>
<text xml:space="preserve" transform="matrix(.97871586 0 -0 .96985617 241.51 494.71)" font-size="13.932" font-family="Times New Roman,Italic" font-style="italic"><tspan y="-6.3456" x="34.289">x</tspan></text>
<text xml:space="preserve" transform="matrix(.97871586 0 -0 .96985617 241.51 494.71)" font-size="13.932" font-family="Times New Roman,Italic" font-style="italic"><tspan y="-6.3456" x="17.649">x</tspan></text>
<text xml:space="preserve" transform="matrix(.97871586 0 -0 .96985617 241.51 494.71)" font-size="13.932" font-family="Times New Roman,Italic" font-style="italic"><tspan y="-6.3456" x="4.48">f</tspan></text>
</g>
</g>
</g>
<g id="Layer-1" data-name="P">
<clipPath id="cp40283">
<path transform="matrix(1,0,0,-1,0,841.92)" d="M .000008871 0 L 595.32 0 L 595.32 841.92 L .000008871 841.92 Z " fill-rule="evenodd"/>
</clipPath>
<g clip-path="url(#cp40283)">
<text xml:space="preserve" transform="matrix(1 0 -0 1 0 841.92)" font-size="14.04" font-family="Times New Roman"><tspan y="-353.21" x="293.21"> </tspan></text>
</g>
<clipPath id="cp40284">
<path transform="matrix(1,0,0,-1,0,841.92)" d="M .000008871 0 L 595.32 0 L 595.32 841.92 L .000008871 841.92 Z " fill-rule="evenodd"/>
</clipPath>
<g clip-path="url(#cp40284)">
<text xml:space="preserve" transform="matrix(1 0 -0 1 0 841.92)" font-size="14.04" font-family="Times New Roman"><tspan y="-353.21" x="303.53 308.20533 315.28147 322.2453 329.20915 334.7128 338.65803 345.49549 351.72926 358.8054 362.65235 369.61619 376.67829 386.98365 392.38905 399.35289 405.58665 410.26197 414.10893 418.05415 421.99937 432.30473 438.42616 445.48826 450.89366 454.83888 459.40187 463.34709 474.03153 481.22 491.90446 495.84968 502.91178 506.857 517.036 527.83279 534.0665 541.1427 546.64639 552.7678 559.7317">funksiyaning shartli ekstrimumini maqsad </tspan></text>
</g>
<clipPath id="cp40285">
<path transform="matrix(1,0,0,-1,0,841.92)" d="M .000008871 0 L 595.32 0 L 595.32 841.92 L .000008871 841.92 Z " fill-rule="evenodd"/>
</clipPath>
<g clip-path="url(#cp40285)">
<text xml:space="preserve" transform="matrix(1 0 -0 1 0 841.92)" font-size="14.04" font-family="Times New Roman"><tspan y="-326.33" x="85.104 89.77932 96.85548 103.81931 110.78315 116.286838 120.23208 127.06956 133.30332 138.82105 142.76628 151.14817 158.112 164.34577 171.42194 179.80382 186.03759 189.88454 196.1183 201.5237 208.58582 214.70726 221.76938 225.71462 229.22461 237.5784 243.81217 250.776 257.73985 264.80195 271.76579 275.711 284.0929 291.155 298.11885 301.9658 309.0279 315.99174 324.49998 335.18443 341.41819 348.49433 353.998 357.9432 368.62767 372.57289 378.80665 385.0404 388.99967 394.40507 398.35029 405.18775 411.4215 419.81745 424.6051 431.44258 438.63105 445.69316 449.63838 458.02027 468.7047 472.64994 479.71205 483.65727 494.3417 498.28694 504.5207 510.75447 514.71377 520.11917 524.0644 530.9019 537.1357 541.811 550.2069 555.6123 559.4593">funksiyasi deb atashadi, chunki uning maksimizatsiya (yoki minimizatsiya) si </tspan></text>
</g>
<clipPath id="cp40286">
<path transform="matrix(1,0,0,-1,0,841.92)" d="M .000008871 0 L 595.32 0 L 595.32 841.92 L .000008871 841.92 Z " fill-rule="evenodd"/>
</clipPath>
<g clip-path="url(#cp40286)">
<text xml:space="preserve" transform="matrix(1 0 -0 1 0 841.92)" font-size="14.04" font-family="Times New Roman"><tspan y="-302.21" x="85.104 92.166118 98.28755 105.34967 112.41179 118.645549 125.49706 132.55918 136.50441 141.17974 144.77397 148.35417 159.03862 165.27239 172.34856 177.85224 183.97368 191.0358 197.99964 201.84659 208.9087 215.97083 219.55103 224.11403 231.17615 235.85147 246.53592 252.76969 256.7149 260.2951 264.24034 268.91566 275.8795 282.9416 289.06303 294.56669 298.41365 305.47575 311.59718 318.65928 322.16929 326.0724 333.09239 340.11238 344.7877 350.93724 354.88246 358.46266 363.13798 373.82243 377.76765 383.2713 390.3334 394.27864 397.78865 401.2425 408.3046 414.53837 419.21369 425.44746 429.30845 435.42988 439.3751 443.22206 449.4558 454.13114 461.109 465.05424 468.63444 475.69654 480.25953 486.4933 493.56944 499.8032 504.36619 508.21315 512.1584 516.8337 527.51809 533.75186 539.26956 546.33169 552.4531 559.417">qandaydir  maqsadning formal ifodasidan iborat (misol, xarajatlarni o&#x2018;zgartirmasdan </tspan></text>
</g>
<clipPath id="cp40287">
<path transform="matrix(1,0,0,-1,0,841.92)" d="M .000008871 0 L 595.32 0 L 595.32 841.92 L .000008871 841.92 Z " fill-rule="evenodd"/>
</clipPath>
<g clip-path="url(#cp40287)">
<text xml:space="preserve" transform="matrix(1 0 -0 1 0 841.92)" font-size="14.04" font-family="Times New Roman"><tspan y="-277.85" x="85.104 89.04924 94.45464 101.51676 105.36372 111.59748 118.67364">ishlab </tspan></text>
</g>
<clipPath id="cp40288">
<path transform="matrix(1,0,0,-1,0,841.92)" d="M .000008871 0 L 595.32 0 L 595.32 841.92 L .000008871 841.92 Z " fill-rule="evenodd"/>
</clipPath>
<g clip-path="url(#cp40288)">
<text xml:space="preserve" transform="matrix(1 0 -0 1 0 841.92)" font-size="14.04" font-family="Times New Roman,Italic" font-style="italic"><tspan y="-277.85" x="127.94 134.17377 141.1376 144.98456 152.04668 159.01052 164.51419 168.36115 173.76654">chiqarish</tspan></text>
</g>
<clipPath id="cp40289">
<path transform="matrix(1,0,0,-1,0,841.92)" d="M .000008871 0 L 595.32 0 L 595.32 841.92 L .000008871 841.92 Z " fill-rule="evenodd"/>
</clipPath>
<g clip-path="url(#cp40289)">
<text xml:space="preserve" transform="matrix(1 0 -0 1 0 841.92)" font-size="14.04" font-family="Times New Roman"><tspan y="-277.85" x="180.86"> </tspan></text>
</g>
<clipPath id="cp40290">
<path transform="matrix(1,0,0,-1,0,841.92)" d="M .000008871 0 L 595.32 0 L 595.32 841.92 L .000008871 841.92 Z " fill-rule="evenodd"/>
</clipPath>
<g clip-path="url(#cp40290)">
<text xml:space="preserve" transform="matrix(1 0 -0 1 0 841.92)" font-size="14.04" font-family="Times New Roman"><tspan y="-277.85" x="190.25 194.09696 201.06079 208.12291 212.79824 218.91968 222.86492 232.21555 239.17938 245.41315 249.35839 260.04283 263.98805 271.05015 274.99537 284.346 295.03047 301.26423 308.34037 313.74577 317.5927 328.38948 334.62324 338.56846 342.51368 348.74745 354.15284 361.11668 365.0619 369.0071 373.5701 377.41706 382.92073">iborat hajmini maksimallashtirish</tspan></text>
</g>
<clipPath id="cp40291">
<path transform="matrix(1,0,0,-1,0,841.92)" d="M .000008871 0 L 595.32 0 L 595.32 841.92 L .000008871 841.92 Z " fill-rule="evenodd"/>
</clipPath>
<g clip-path="url(#cp40291)">
<text xml:space="preserve" transform="matrix(1 0 -0 1 0 841.92)" font-size="14.04" font-family="Times New Roman"><tspan y="-277.85" x="390.19 394.75035">) </tspan></text>
</g>
</g>
<g id="Layer-1" data-name="P">
<clipPath id="cp40292">
<path transform="matrix(1,0,0,-1,0,841.92)" d="M 0 .000061035 L 595.32 .000061035 L 595.32 841.92007 L 0 841.92007 Z " fill-rule="evenodd"/>
</clipPath>
<g clip-path="url(#cp40292)">
<clipPath id="cp40293">
<path transform="matrix(.99229946,0,0,-.9327065,403.96,570.06)" d="M 0 0 L 51.397 0 L 51.397 20.049 L 0 20.049 Z " fill-rule="evenodd"/>
</clipPath>
<g clip-path="url(#cp40293)">
<text xml:space="preserve" transform="matrix(.99229946 0 -0 .9327065 403.96 570.06)" font-size="14.991" font-family="Times New Roman"><tspan y="-6.074" x="44.603">)</tspan></text>
<text xml:space="preserve" transform="matrix(.99229946 0 -0 .9327065 403.96 570.06)" font-size="14.991" font-family="Times New Roman"><tspan y="-6.074" x="26.782">,</tspan></text>
<text xml:space="preserve" transform="matrix(.99229946 0 -0 .9327065 403.96 570.06)" font-size="14.991" font-family="Times New Roman"><tspan y="-6.074" x="10.56">(</tspan></text>
<text xml:space="preserve" transform="matrix(.99229946 0 -0 .9327065 403.96 570.06)" font-size="7.5077" font-family="Times New Roman"><tspan y="-2.321" x="39.163">2</tspan></text>
<text xml:space="preserve" transform="matrix(.99229946 0 -0 .9327065 403.96 570.06)" font-size="7.5077" font-family="Times New Roman"><tspan y="-2.321" x="22.129">1</tspan></text>
<text xml:space="preserve" transform="matrix(.99229946 0 -0 .9327065 403.96 570.06)" font-size="14.991" font-family="Times New Roman,Italic" font-style="italic"><tspan y="-6.074" x="32.492">x</tspan></text>
<text xml:space="preserve" transform="matrix(.99229946 0 -0 .9327065 403.96 570.06)" font-size="14.991" font-family="Times New Roman,Italic" font-style="italic"><tspan y="-6.074" x="16.246">x</tspan></text>
<text xml:space="preserve" transform="matrix(.99229946 0 -0 .9327065 403.96 570.06)" font-size="14.991" font-family="Times New Roman,Italic" font-style="italic"><tspan y="-6.074" x="2.4369">g</tspan></text>
</g>
</g>
</g>
<g id="Layer-1" data-name="P">
<clipPath id="cp40294">
<path transform="matrix(1,0,0,-1,0,841.92)" d="M .000008871 0 L 595.32 0 L 595.32 841.92 L .000008871 841.92 Z " fill-rule="evenodd"/>
</clipPath>
<g clip-path="url(#cp40294)">
<text xml:space="preserve" transform="matrix(1 0 -0 1 0 841.92)" font-size="14.04" font-family="Times New Roman"><tspan y="-277.85" x="455.02"> </tspan></text>
</g>
<clipPath id="cp40295">
<path transform="matrix(1,0,0,-1,0,841.92)" d="M .000008871 0 L 595.32 0 L 595.32 841.92 L .000008871 841.92 Z " fill-rule="evenodd"/>
</clipPath>
<g clip-path="url(#cp40295)">
<text xml:space="preserve" transform="matrix(1 0 -0 1 0 841.92)" font-size="14.04" font-family="Times New Roman"><tspan y="-277.85" x="464.38 469.05534 476.13148 483.0953 490.05915 495.5628 499.50804 506.3455 512.5792 518.0969 521.9439 529.00607 532.853 542.2037 548.43746 553.84286 559.9643">funksiyasini esa </tspan></text>
</g>
<clipPath id="cp40296">
<path transform="matrix(1,0,0,-1,0,841.92)" d="M .000008871 0 L 595.32 0 L 595.32 841.92 L .000008871 841.92 Z " fill-rule="evenodd"/>
</clipPath>
<g clip-path="url(#cp40296)">
<text xml:space="preserve" transform="matrix(1 0 -0 1 0 841.92)" font-size="14.04" font-family="Times New Roman"><tspan y="-250.97" x="85.104 91.33775 98.41391 104.53535 111.597469 115.44443 121.678188 128.64202 132.58725 137.99265 145.05477 148.41033 155.47245 161.7062 166.38153 172.51702 179.57913 183.42609 190.4882 196.60965 203.67177 207.02733 213.8648 220.92693 227.98905 231.93428 235.44428">cheklanish beradigan yoki  </tspan></text>
</g>
<clipPath id="cp40297">
<path transform="matrix(1,0,0,-1,0,841.92)" d="M .000008871 0 L 595.32 0 L 595.32 841.92 L .000008871 841.92 Z " fill-rule="evenodd"/>
</clipPath>
<g clip-path="url(#cp40297)">
<text xml:space="preserve" transform="matrix(1 0 -0 1 0 841.92)" font-size="14.04" font-family="Times New Roman,Italic" font-style="italic"><tspan y="-250.97" x="239.09 246.05384 253.11595 260.17808 264.74107 268.588 275.65013 282.61396 286.55918 291.96458 299.02668 302.38224 306.32746 313.2913 320.3534 326.47483 331.9785 335.9237 342.04515 349.00898 354.51264">bog&#x2018;lanish funksiyasi</tspan></text>
</g>
<clipPath id="cp40298">
<path transform="matrix(1,0,0,-1,0,841.92)" d="M .000008871 0 L 595.32 0 L 595.32 841.92 L .000008871 841.92 Z " fill-rule="evenodd"/>
</clipPath>
<g clip-path="url(#cp40298)">
<text xml:space="preserve" transform="matrix(1 0 -0 1 0 841.92)" font-size="14.04" font-family="Times New Roman"><tspan y="-250.97" x="358.63"> </tspan></text>
</g>
<clipPath id="cp40299">
<path transform="matrix(1,0,0,-1,0,841.92)" d="M .000008871 0 L 595.32 0 L 595.32 841.92 L .000008871 841.92 Z " fill-rule="evenodd"/>
</clipPath>
<g clip-path="url(#cp40299)">
<text xml:space="preserve" transform="matrix(1 0 -0 1 0 841.92)" font-size="14.04" font-family="Times New Roman"><tspan y="-250.97" x="361.99 369.0521 375.17353 382.23564 385.74565 391.9794 395.8825 402.03205 407.43745 414.49955 420.62098 427.68309 431.6283 435.1383">deb atashadi. </tspan></text>
</g>
<clipPath id="cp40300">
<path transform="matrix(1,0,0,-1,0,841.92)" d="M .000008871 0 L 595.32 0 L 595.32 841.92 L .000008871 841.92 Z " fill-rule="evenodd"/>
</clipPath>
<g clip-path="url(#cp40300)">
<text xml:space="preserve" transform="matrix(1 0 -0 1 0 841.92)" font-size="14.04" font-family="Times New Roman"><tspan y="-250.97" x="438.55"> </tspan></text>
</g>
</g>
<g id="Layer-1" data-name="P">
<clipPath id="cp40301">
<path transform="matrix(1,0,0,-1,0,841.92)" d="M .000008871 0 L 595.32 0 L 595.32 841.92 L .000008871 841.92 Z " fill-rule="evenodd"/>
</clipPath>
<g clip-path="url(#cp40301)">
<text xml:space="preserve" transform="matrix(1 0 -0 1 0 841.92)" font-size="14.04" font-family="Times New Roman"><tspan y="-226.61" x="102.14 106.81532 113.89148 118.5668 128.87216 132.8174 138.93885 146.00096 152.9648 156.91004 163.1438 173.82825 180.06201 187.13819 193.37195">(1) tenglamada </tspan></text>
</g>
</g>
<g id="Layer-1" data-name="P">
<clipPath id="cp40302">
<path transform="matrix(1,0,0,-1,0,841.92)" d="M 0 .000061035 L 595.32 .000061035 L 595.32 841.92007 L 0 841.92007 Z " fill-rule="evenodd"/>
</clipPath>
<g clip-path="url(#cp40302)">
<clipPath id="cp40303">
<path transform="matrix(.99229946,0,0,-.9352203,203.96,621.31)" d="M 0 0 L 51.397 0 L 51.397 20.049 L 0 20.049 Z " fill-rule="evenodd"/>
</clipPath>
<g clip-path="url(#cp40303)">
<text xml:space="preserve" transform="matrix(.99229946 0 -0 .9352203 203.96 621.31)" font-size="14.991" font-family="Times New Roman"><tspan y="-6.074" x="44.603">)</tspan></text>
<text xml:space="preserve" transform="matrix(.99229946 0 -0 .9352203 203.96 621.31)" font-size="14.991" font-family="Times New Roman"><tspan y="-6.074" x="26.782">,</tspan></text>
<text xml:space="preserve" transform="matrix(.99229946 0 -0 .9352203 203.96 621.31)" font-size="14.991" font-family="Times New Roman"><tspan y="-6.074" x="10.56">(</tspan></text>
<text xml:space="preserve" transform="matrix(.99229946 0 -0 .9352203 203.96 621.31)" font-size="7.5077" font-family="Times New Roman"><tspan y="-2.321" x="39.163">2</tspan></text>
<text xml:space="preserve" transform="matrix(.99229946 0 -0 .9352203 203.96 621.31)" font-size="7.5077" font-family="Times New Roman"><tspan y="-2.321" x="22.129">1</tspan></text>
<text xml:space="preserve" transform="matrix(.99229946 0 -0 .9352203 203.96 621.31)" font-size="14.991" font-family="Times New Roman,Italic" font-style="italic"><tspan y="-6.074" x="32.492">x</tspan></text>
<text xml:space="preserve" transform="matrix(.99229946 0 -0 .9352203 203.96 621.31)" font-size="14.991" font-family="Times New Roman,Italic" font-style="italic"><tspan y="-6.074" x="16.246">x</tspan></text>
<text xml:space="preserve" transform="matrix(.99229946 0 -0 .9352203 203.96 621.31)" font-size="14.991" font-family="Times New Roman,Italic" font-style="italic"><tspan y="-6.074" x="2.4369">g</tspan></text>
</g>
</g>
</g>
<g id="Layer-1" data-name="P">
<clipPath id="cp40304">
<path transform="matrix(1,0,0,-1,0,841.92)" d="M .000008871 0 L 595.32 0 L 595.32 841.92 L .000008871 841.92 Z " fill-rule="evenodd"/>
</clipPath>
<g clip-path="url(#cp40304)">
<text xml:space="preserve" transform="matrix(1 0 -0 1 0 841.92)" font-size="14.04" font-family="Times New Roman"><tspan y="-226.61" x="254.93"> </tspan></text>
</g>
<clipPath id="cp40305">
<path transform="matrix(1,0,0,-1,0,841.92)" d="M .000008871 0 L 595.32 0 L 595.32 841.92 L .000008871 841.92 Z " fill-rule="evenodd"/>
</clipPath>
<g clip-path="url(#cp40305)">
<text xml:space="preserve" transform="matrix(1 0 -0 1 0 841.92)" font-size="14.04" font-family="Times New Roman"><tspan y="-226.61" x="265.37 269.93299 276.9951 283.95893 290.92277 296.42643 300.37165 307.2091 313.44288 323.8746 330.9367 337.90055 341.7475 345.69273 352.65657 358.89033 365.85417 369.79939 373.3094 383.699 390.66285 396.8966 401.57194 407.8057 411.6667 417.90046 421.7474 425.69264 436.12437 442.2458 449.3079 453.2531 459.37455 463.2215 470.2836 474.13056 478.07579 488.5075 492.35447 498.58824 505.55207 512.5159 516.4612 522.69497 533.37936 539.6131 546.6893 552.8107 559.7746">funksiya nolinchi, darajali chiziqli tenglamadan </tspan></text>
</g>
<clipPath id="cp40306">
<path transform="matrix(1,0,0,-1,0,841.92)" d="M .000008871 0 L 595.32 0 L 595.32 841.92 L .000008871 841.92 Z " fill-rule="evenodd"/>
</clipPath>
<g clip-path="url(#cp40306)">
<text xml:space="preserve" transform="matrix(1 0 -0 1 0 841.92)" font-size="14.04" font-family="Times New Roman"><tspan y="-199.46" x="85.104 89.04924 96.01308 103.075199 107.75052 113.871959 117.71892 124.78104 128.72628 133.4016 139.39667 146.23415 153.29627 160.35839 164.30362">iboratdir yoki </tspan></text>
</g>
</g>
<g id="Layer-1" data-name="P">
<clipPath id="cp40307">
<path transform="matrix(1,0,0,-1,0,841.92)" d="M 0 .000061035 L 595.32 .000061035 L 595.32 841.92007 L 0 841.92007 Z " fill-rule="evenodd"/>
</clipPath>
<g clip-path="url(#cp40307)">
<clipPath id="cp40308">
<path transform="matrix(.98884,0,0,-.9327065,170.36,648.41)" d="M 0 0 L 72.813 0 L 72.813 20.049 L 0 20.049 Z " fill-rule="evenodd"/>
</clipPath>
<g clip-path="url(#cp40308)">
<text xml:space="preserve" transform="matrix(.98884 0 -.32958038 .9327065 170.36 648.41)" font-size="14.991" font-family="Symbol"><tspan y="-6.074" x="60.892538">&#xf074;</tspan></text>
<text xml:space="preserve" transform="matrix(.98884 0 -0 .9327065 170.36 648.41)" font-size="14.991" font-family="Symbol"><tspan y="-6.074" x="53.268">&#xf03d;</tspan></text>
<text xml:space="preserve" transform="matrix(.98884 0 -0 .9327065 170.36 648.41)" font-size="14.991" font-family="Times New Roman"><tspan y="-6.074" x="45.169">)</tspan></text>
<text xml:space="preserve" transform="matrix(.98884 0 -0 .9327065 170.36 648.41)" font-size="14.991" font-family="Times New Roman"><tspan y="-6.074" x="27.126">,</tspan></text>
<text xml:space="preserve" transform="matrix(.98884 0 -0 .9327065 170.36 648.41)" font-size="14.991" font-family="Times New Roman"><tspan y="-6.074" x="10.659">(</tspan></text>
<text xml:space="preserve" transform="matrix(.98884 0 -0 .9327065 170.36 648.41)" font-size="7.5077" font-family="Times New Roman"><tspan y="-2.321" x="39.656">2</tspan></text>
<text xml:space="preserve" transform="matrix(.98884 0 -0 .9327065 170.36 648.41)" font-size="7.5077" font-family="Times New Roman"><tspan y="-2.321" x="22.375">1</tspan></text>
<text xml:space="preserve" transform="matrix(.98884 0 -0 .9327065 170.36 648.41)" font-size="14.991" font-family="Times New Roman,Italic" font-style="italic"><tspan y="-6.074" x="32.911">x</tspan></text>
<text xml:space="preserve" transform="matrix(.98884 0 -0 .9327065 170.36 648.41)" font-size="14.991" font-family="Times New Roman,Italic" font-style="italic"><tspan y="-6.074" x="16.419">x</tspan></text>
<text xml:space="preserve" transform="matrix(.98884 0 -0 .9327065 170.36 648.41)" font-size="14.991" font-family="Times New Roman,Italic" font-style="italic"><tspan y="-6.074" x="2.4615">g</tspan></text>
</g>
</g>
</g>
<g id="Layer-1" data-name="P">
<clipPath id="cp40309">
<path transform="matrix(1,0,0,-1,0,841.92)" d="M .000008871 0 L 595.32 0 L 595.32 841.92 L .000008871 841.92 Z " fill-rule="evenodd"/>
</clipPath>
<g clip-path="url(#cp40309)">
<text xml:space="preserve" transform="matrix(1 0 -0 1 0 841.92)" font-size="14.04" font-family="Times New Roman"><tspan y="-199.46" x="242.33"> </tspan></text>
</g>
<clipPath id="cp40310">
<path transform="matrix(1,0,0,-1,0,841.92)" d="M .000008871 0 L 595.32 0 L 595.32 841.92 L .000008871 841.92 Z " fill-rule="evenodd"/>
</clipPath>
<g clip-path="url(#cp40310)">
<text xml:space="preserve" transform="matrix(1 0 -0 1 0 841.92)" font-size="14.04" font-family="Times New Roman"><tspan y="-199.46" x="248.33 255.39212 262.45423 267.0172 270.96244 274.8094 281.8715 285.3815 291.33448 298.39659 305.45869 311.43974 318.2772 324.51097 329.18629 336.26243 342.4962 348.49128">bo&#x2018;lib, bu yerda  </tspan></text>
</g>
</g>
<g id="Layer-1" data-name="P">
<clipPath id="cp40311">
<path transform="matrix(1,0,0,-1,0,841.92)" d="M 0 .000061035 L 595.32 .000061035 L 595.32 841.92007 L 0 841.92007 Z " fill-rule="evenodd"/>
</clipPath>
<g clip-path="url(#cp40311)">
<clipPath id="cp40312">
<path transform="matrix(.9700715,0,0,-.9476805,354.66,645.41)" d="M 0 0 L 28.554 0 L 28.554 15.037 L 0 15.037 Z " fill-rule="evenodd"/>
</clipPath>
<g clip-path="url(#cp40312)">
<text xml:space="preserve" transform="matrix(.9700715 0 -0 .9476805 354.66 645.41)" font-size="13.169" font-family="Times New Roman"><tspan y="-2.9382" x="20.505">0</tspan></text>
<text xml:space="preserve" transform="matrix(.9700715 0 -0 .9476805 354.66 645.41)" font-size="13.169" font-family="Symbol"><tspan y="-2.9382" x="10.782">&#xf03d;</tspan></text>
<text xml:space="preserve" transform="matrix(.9700715 0 -.32332484 .9476805 354.66 645.41)" font-size="13.169" font-family="Symbol"><tspan y="-2.9382" x="-.46237207">&#xf074;</tspan></text>
</g>
</g>
</g>
<g id="Layer-1" data-name="P">
<clipPath id="cp40313">
<path transform="matrix(1,0,0,-1,0,841.92)" d="M .000008871 0 L 595.32 0 L 595.32 841.92 L .000008871 841.92 Z " fill-rule="evenodd"/>
</clipPath>
<g clip-path="url(#cp40313)">
<text xml:space="preserve" transform="matrix(1 0 -0 1 0 841.92)" font-size="14.04" font-family="Times New Roman"><tspan y="-199.46" x="382.39 385.90003 391.853 399.65925 406.72135 413.78346 420.74729 424.59425 431.65635 438.71846 444.5872 451.6493 457.88307 464.8469 471.81074 478.87284 484.85389 490.25929 497.32139 503.55516 508.23048 512.07748 515.92446 519.8697 525.85079 531.83187 535.7771 542.74099 549.8031 555.92459 559.77157">. Shuning uchun shartli  lokal </tspan></text>
</g>
<clipPath id="cp40314">
<path transform="matrix(1,0,0,-1,0,841.92)" d="M .000008871 0 L 595.32 0 L 595.32 841.92 L .000008871 841.92 Z " fill-rule="evenodd"/>
</clipPath>
<g clip-path="url(#cp40314)">
<text xml:space="preserve" transform="matrix(1 0 -0 1 0 841.92)" font-size="14.04" font-family="Times New Roman"><tspan y="-172.58" x="85.104 95.90076 102.134517 109.21067 114.714359 118.6596 129.34404 136.53253 147.21698 162.92774 167.71538 178.39983 182.34506 189.40718 193.47879 204.27556 211.33768 222.02213 226.69745 242.4082 249.47032 255.70409 262.78025 269.84236 276.90446 292.61524 303.29969 309.53346 315.05116 321.2849 325.13188 331.36564 338.44178 342.387 357.9714 365.0335 372.0956 378.93309 382.8783 389.9404 396.06184 403.02568 406.9709 413.09233 420.15443 426.38819 442.09895 445.9459 450.62123 457.69737 464.6612 470.89497 474.84019 480.9616 486.367 493.4291 509.1399 519.8243 527.01278 537.69717 544.7593 548.7045 555.6684 559.5154">maksimum (minimum) uchun masalani quyidagicha ifodalash mumkin: </tspan></text>
</g>
</g>
<g id="Layer-1" data-name="P">
<clipPath id="cp40315">
<path transform="matrix(1,0,0,-1,0,841.92)" d="M 0 .000061035 L 595.32 .000061035 L 595.32 841.92007 L 0 841.92007 Z " fill-rule="evenodd"/>
</clipPath>
<g clip-path="url(#cp40315)">
<clipPath id="cp40316">
<path transform="matrix(.9905605,0,0,-.9672492,85.16,699.76)" d="M 0 0 L 74.954 0 L 74.954 19.333 L 0 19.333 Z " fill-rule="evenodd"/>
</clipPath>
<g clip-path="url(#cp40316)">
<text xml:space="preserve" transform="matrix(.9905605 0 -0 .9672492 85.16 699.76)" font-size="13.932" font-family="Times New Roman"><tspan y="-6.3456" x="68.062">)</tspan></text>
<text xml:space="preserve" transform="matrix(.9905605 0 -0 .9672492 85.16 699.76)" font-size="13.932" font-family="Times New Roman"><tspan y="-6.3456" x="49.945">,</tspan></text>
<text xml:space="preserve" transform="matrix(.9905605 0 -0 .9672492 85.16 699.76)" font-size="13.932" font-family="Times New Roman"><tspan y="-6.3456" x="33.428">(</tspan></text>
<text xml:space="preserve" transform="matrix(.9905605 0 -0 .9672492 85.16 699.76)" font-size="6.9662" font-family="Times New Roman"><tspan y="-2.8395" x="62.523">2</tspan></text>
<text xml:space="preserve" transform="matrix(.9905605 0 -0 .9672492 85.16 699.76)" font-size="6.9662" font-family="Times New Roman"><tspan y="-2.8395" x="45.194">1</tspan></text>
<text xml:space="preserve" transform="matrix(.9905605 0 -0 .9672492 85.16 699.76)" font-size="13.932" font-family="Times New Roman,Italic" font-style="italic"><tspan y="-6.3456" x="55.754">x</tspan></text>
<text xml:space="preserve" transform="matrix(.9905605 0 -0 .9672492 85.16 699.76)" font-size="13.932" font-family="Times New Roman,Italic" font-style="italic"><tspan y="-6.3456" x="39.212">x</tspan></text>
<text xml:space="preserve" transform="matrix(.9905605 0 -0 .9672492 85.16 699.76)" font-size="13.932" font-family="Times New Roman,Italic" font-style="italic"><tspan y="-6.3456" x="25.206">g</tspan></text>
<text xml:space="preserve" transform="matrix(.9905605 0 -0 .9672492 85.16 699.76)" font-size="13.932" font-family="Times New Roman,Italic" font-style="italic"><tspan y="-6.3456" x="3.1508">y</tspan></text>
<text xml:space="preserve" transform="matrix(.9905605 0 -0 .9672492 85.16 699.76)" font-size="13.932" font-family="Symbol"><tspan y="-6.3456" x="13.292">&#xf03d;</tspan></text>
</g>
</g>
</g>
<g id="Layer-1" data-name="P">
<clipPath id="cp40317">
<path transform="matrix(1,0,0,-1,0,841.92)" d="M .000008871 0 L 595.32 0 L 595.32 841.92 L .000008871 841.92 Z " fill-rule="evenodd"/>
</clipPath>
<g clip-path="url(#cp40317)">
<text xml:space="preserve" transform="matrix(1 0 -0 1 0 841.92)" font-size="14.04" font-family="Times New Roman"><tspan y="-148.1" x="159.38"> </tspan></text>
</g>
<clipPath id="cp40318">
<path transform="matrix(1,0,0,-1,0,841.92)" d="M .000008871 0 L 595.32 0 L 595.32 841.92 L .000008871 841.92 Z " fill-rule="evenodd"/>
</clipPath>
<g clip-path="url(#cp40318)">
<text xml:space="preserve" transform="matrix(1 0 -0 1 0 841.92)" font-size="14.04" font-family="Times New Roman"><tspan y="-148.1" x="164.9 169.57532 176.65149 183.61533 190.67745 196.08284 200.02808 206.86556 213.09932 218.61704 225.67916 231.91292 236.58824 242.822 246.68302 252.91678 258.32218 262.2674 269.23124 273.17646 280.1403 287.2024 292.7061 299.66993 306.73204 310.57899 314.5242 321.48805 327.7218 334.68565 338.63087 344.13456 350.36833 357.33216 361.27738 367.3988 371.34403 378.40614 383.7975 390.8596 397.82344 404.88554 408.83076 414.95219 418.8974 425.13117 429.69416 433.63938 439.14308 446.20518 450.76817 457.00193 462.40733 466.35255 473.31639 479.55015 486.62629 492.12998 497.53538 504.4992 511.5613 518.52517 525.5873 531.82107 538.6726 544.1763 551.14016 554.9871 559.5501">funksiya darajasining nolinchi chiziq nuqtalari orasidan shunday bir </tspan></text>
</g>
</g>
<g id="Layer-1" data-name="P">
<clipPath id="cp40319">
<path transform="matrix(1,0,0,-1,0,841.92)" d="M 0 .000061035 L 595.32 .000061035 L 595.32 841.92007 L 0 841.92007 Z " fill-rule="evenodd"/>
</clipPath>
<g clip-path="url(#cp40319)">
<clipPath id="cp40320">
<path transform="matrix(.9914652,0,0,-.97761949,85.16,728.95999)" d="M 0 0 L 50.683 0 L 50.683 21.481 L 0 21.481 Z " fill-rule="evenodd"/>
</clipPath>
<g clip-path="url(#cp40320)">
<text xml:space="preserve" transform="matrix(.9914652 0 -0 .97761949 85.16 728.95999)" font-size="14.129" font-family="Times New Roman"><tspan y="-6.2962" x="44.185">)</tspan></text>
<text xml:space="preserve" transform="matrix(.9914652 0 -0 .97761949 85.16 728.95999)" font-size="14.129" font-family="Times New Roman"><tspan y="-6.2962" x="21.932">,</tspan></text>
<text xml:space="preserve" transform="matrix(.9914652 0 -0 .97761949 85.16 728.95999)" font-size="14.129" font-family="Times New Roman"><tspan y="-6.2962" x="1.5754">(</tspan></text>
<text xml:space="preserve" transform="matrix(.9914652 0 -0 .97761949 85.16 728.95999)" font-size="7.0646" font-family="Times New Roman"><tspan y="-13.975" x="38.917">0</tspan></text>
<text xml:space="preserve" transform="matrix(.9914652 0 -0 .97761949 85.16 728.95999)" font-size="7.0646" font-family="Times New Roman"><tspan y="-2.7407" x="34.536">2</tspan></text>
<text xml:space="preserve" transform="matrix(.9914652 0 -0 .97761949 85.16 728.95999)" font-size="7.0646" font-family="Times New Roman"><tspan y="-13.975" x="16.886">0</tspan></text>
<text xml:space="preserve" transform="matrix(.9914652 0 -0 .97761949 85.16 728.95999)" font-size="7.0646" font-family="Times New Roman"><tspan y="-2.7407" x="13.046">1</tspan></text>
<text xml:space="preserve" transform="matrix(.9914652 0 -0 .97761949 85.16 728.95999)" font-size="14.129" font-family="Times New Roman,Italic" font-style="italic"><tspan y="-6.2962" x="28.037">x</tspan></text>
<text xml:space="preserve" transform="matrix(.9914652 0 -0 .97761949 85.16 728.95999)" font-size="14.129" font-family="Times New Roman,Italic" font-style="italic"><tspan y="-6.2962" x="7.36">x</tspan></text>
</g>
</g>
</g>
<g id="Layer-1" data-name="P">
<clipPath id="cp40321">
<path transform="matrix(1,0,0,-1,0,841.92)" d="M .000008871 0 L 595.32 0 L 595.32 841.92 L .000008871 841.92 Z " fill-rule="evenodd"/>
</clipPath>
<g clip-path="url(#cp40321)">
<text xml:space="preserve" transform="matrix(1 0 -0 1 0 841.92)" font-size="14.04" font-family="Times New Roman"><tspan y="-118.94" x="135.38 142.44213 149.40596 156.3698 160.31504 166.5488 170.39575 176.62952 181.30484 188.28273 192.22797 205.77657 209.62352 216.68564 223.64948 227.59471 233.0001 240.06223 253.48447 260.54658 266.78034 271.45567 277.59117 284.555 291.6171 295.56233 299.07234 312.59288 319.5567 326.6188 340.16743 347.22953 354.19337 361.1572 365.10243 371.22386 378.28596 384.5197">nuqtalarni topish kerakki, bu nuqtada </tspan></text>
</g>
</g>
<g id="Layer-1" data-name="P">
<clipPath id="cp40322">
<path transform="matrix(1,0,0,-1,0,841.92)" d="M 0 .000061035 L 595.32 .000061035 L 595.32 841.92007 L 0 841.92007 Z " fill-rule="evenodd"/>
</clipPath>
<g clip-path="url(#cp40322)">
<clipPath id="cp40323">
<path transform="matrix(.9911984,0,0,-.96985617,398.36,728.95999)" d="M 0 0 L 75.668 0 L 75.668 19.333 L 0 19.333 Z " fill-rule="evenodd"/>
</clipPath>
<g clip-path="url(#cp40323)">
<text xml:space="preserve" transform="matrix(.9911984 0 -0 .96985617 398.36 728.95999)" font-size="13.932" font-family="Times New Roman"><tspan y="-6.3456" x="68.653">)</tspan></text>
<text xml:space="preserve" transform="matrix(.9911984 0 -0 .96985617 398.36 728.95999)" font-size="13.932" font-family="Times New Roman"><tspan y="-6.3456" x="50.659">,</tspan></text>
<text xml:space="preserve" transform="matrix(.9911984 0 -0 .96985617 398.36 728.95999)" font-size="13.932" font-family="Times New Roman"><tspan y="-6.3456" x="34.265">(</tspan></text>
<text xml:space="preserve" transform="matrix(.9911984 0 -0 .96985617 398.36 728.95999)" font-size="6.9662" font-family="Times New Roman"><tspan y="-2.8395" x="63.163">2</tspan></text>
<text xml:space="preserve" transform="matrix(.9911984 0 -0 .96985617 398.36 728.95999)" font-size="6.9662" font-family="Times New Roman"><tspan y="-2.8395" x="45.933">1</tspan></text>
<text xml:space="preserve" transform="matrix(.9911984 0 -0 .96985617 398.36 728.95999)" font-size="13.932" font-family="Times New Roman,Italic" font-style="italic"><tspan y="-6.3456" x="56.443">x</tspan></text>
<text xml:space="preserve" transform="matrix(.9911984 0 -0 .96985617 398.36 728.95999)" font-size="13.932" font-family="Times New Roman,Italic" font-style="italic"><tspan y="-6.3456" x="40.025">x</tspan></text>
<text xml:space="preserve" transform="matrix(.9911984 0 -0 .96985617 398.36 728.95999)" font-size="13.932" font-family="Times New Roman,Italic" font-style="italic"><tspan y="-6.3456" x="26.979">f</tspan></text>
<text xml:space="preserve" transform="matrix(.9911984 0 -0 .96985617 398.36 728.95999)" font-size="13.932" font-family="Times New Roman,Italic" font-style="italic"><tspan y="-6.3456" x="3.1262">y</tspan></text>
<text xml:space="preserve" transform="matrix(.9911984 0 -0 .96985617 398.36 728.95999)" font-size="13.932" font-family="Symbol"><tspan y="-6.3456" x="13.169">&#xf03d;</tspan></text>
</g>
</g>
</g>
<g id="Layer-1" data-name="P">
<clipPath id="cp40324">
<path transform="matrix(1,0,0,-1,0,841.92)" d="M .000008871 0 L 595.32 0 L 595.32 841.92 L .000008871 841.92 Z " fill-rule="evenodd"/>
</clipPath>
<g clip-path="url(#cp40324)">
<text xml:space="preserve" transform="matrix(1 0 -0 1 0 841.92)" font-size="14.04" font-family="Times New Roman"><tspan y="-118.94" x="473.38"> </tspan></text>
</g>
<clipPath id="cp40325">
<path transform="matrix(1,0,0,-1,0,841.92)" d="M .000008871 0 L 595.32 0 L 595.32 841.92 L .000008871 841.92 Z " fill-rule="evenodd"/>
</clipPath>
<g clip-path="url(#cp40325)">
<text xml:space="preserve" transform="matrix(1 0 -0 1 0 841.92)" font-size="14.04" font-family="Times New Roman"><tspan y="-118.94" x="486.94 491.61534 498.69148 505.6553 512.7174 518.1228 522.06808 528.9056 535.13937 542.2155 546.0625 553.02639 559.99026">funksiyaning </tspan></text>
</g>
</g>
<g id="Layer-1" data-name="P">
<clipPath id="cp40326">
<path transform="matrix(1,0,0,-1,0,841.92)" d="M 0 .000061035 L 595.32 .000061035 L 595.32 841.92007 L 0 841.92007 Z " fill-rule="evenodd"/>
</clipPath>
<g clip-path="url(#cp40326)">
<clipPath id="cp40327">
<path transform="matrix(.98874077,0,0,-.97761949,85.16,757.95999)" d="M 0 0 L 61.391 0 L 61.391 21.481 L 0 21.481 Z " fill-rule="evenodd"/>
</clipPath>
<g clip-path="url(#cp40327)">
<text xml:space="preserve" transform="matrix(.98874077 0 -0 .97761949 85.16 757.95999)" font-size="14.129" font-family="Times New Roman"><tspan y="-6.2962" x="54.425">)</tspan></text>
<text xml:space="preserve" transform="matrix(.98874077 0 -0 .97761949 85.16 757.95999)" font-size="14.129" font-family="Times New Roman"><tspan y="-6.2962" x="32.296">,</tspan></text>
<text xml:space="preserve" transform="matrix(.98874077 0 -0 .97761949 85.16 757.95999)" font-size="14.129" font-family="Times New Roman"><tspan y="-6.2962" x="11.643">(</tspan></text>
<text xml:space="preserve" transform="matrix(.98874077 0 -0 .97761949 85.16 757.95999)" font-size="7.0646" font-family="Times New Roman"><tspan y="-13.975" x="49.034">0</tspan></text>
<text xml:space="preserve" transform="matrix(.98874077 0 -0 .97761949 85.16 757.95999)" font-size="7.0646" font-family="Times New Roman"><tspan y="-2.7407" x="44.529">2</tspan></text>
<text xml:space="preserve" transform="matrix(.98874077 0 -0 .97761949 85.16 757.95999)" font-size="7.0646" font-family="Times New Roman"><tspan y="-13.975" x="27.126">0</tspan></text>
<text xml:space="preserve" transform="matrix(.98874077 0 -0 .97761949 85.16 757.95999)" font-size="7.0646" font-family="Times New Roman"><tspan y="-2.7407" x="23.163">1</tspan></text>
<text xml:space="preserve" transform="matrix(.98874077 0 -0 .97761949 85.16 757.95999)" font-size="14.129" font-family="Times New Roman,Italic" font-style="italic"><tspan y="-6.2962" x="37.932">x</tspan></text>
<text xml:space="preserve" transform="matrix(.98874077 0 -0 .97761949 85.16 757.95999)" font-size="14.129" font-family="Times New Roman,Italic" font-style="italic"><tspan y="-6.2962" x="17.329">x</tspan></text>
<text xml:space="preserve" transform="matrix(.98874077 0 -0 .97761949 85.16 757.95999)" font-size="14.129" font-family="Times New Roman,Italic" font-style="italic"><tspan y="-6.2962" x="4.4062">f</tspan></text>
</g>
</g>
</g>
<g id="Layer-1" data-name="P">
<clipPath id="cp40328">
<path transform="matrix(1,0,0,-1,0,841.92)" d="M .000008871 0 L 595.32 0 L 595.32 841.92 L .000008871 841.92 Z " fill-rule="evenodd"/>
</clipPath>
<g clip-path="url(#cp40328)">
<text xml:space="preserve" transform="matrix(1 0 -0 1 0 841.92)" font-size="14.04" font-family="Times New Roman"><tspan y="-89.904" x="145.82"> </tspan></text>
</g>
<clipPath id="cp40329">
<path transform="matrix(1,0,0,-1,0,841.92)" d="M .000008871 0 L 595.32 0 L 595.32 841.92 L .000008871 841.92 Z " fill-rule="evenodd"/>
</clipPath>
<g clip-path="url(#cp40329)">
<text xml:space="preserve" transform="matrix(1 0 -0 1 0 841.92)" font-size="14.04" font-family="Times New Roman"><tspan y="-89.904" x="150.98 158.04212 165.00595 170.50963 177.47347 182.97714 186.92238 193.75986 198.91254 205.97466 209.91989 216.88373 227.56818 233.80194 237.74718 241.69242 246.8451 251.99777 259.05989 263.7352 269.96897 273.92823 280.89207 284.739 291.80113 298.86323">xususiy qiymati  o&#x2018;zining </tspan></text>
</g>
</g>
<g id="Layer-1" data-name="P">
<clipPath id="cp40330">
<path transform="matrix(1,0,0,-1,0,841.92)" d="M 0 .000061035 L 595.32 .000061035 L 595.32 841.92007 L 0 841.92007 Z " fill-rule="evenodd"/>
</clipPath>
<g clip-path="url(#cp40330)">
<clipPath id="cp40331">
<path transform="matrix(.97871586,0,0,-.9672492,304.16,757.95999)" d="M 0 0 L 52.825 0 L 52.825 19.333 L 0 19.333 Z " fill-rule="evenodd"/>
</clipPath>
<g clip-path="url(#cp40331)">
<text xml:space="preserve" transform="matrix(.97871586 0 -0 .9672492 304.16 757.95999)" font-size="13.932" font-family="Times New Roman"><tspan y="-6.3456" x="46.228">)</tspan></text>
<text xml:space="preserve" transform="matrix(.97871586 0 -0 .9672492 304.16 757.95999)" font-size="13.932" font-family="Times New Roman"><tspan y="-6.3456" x="28.012">,</tspan></text>
<text xml:space="preserve" transform="matrix(.97871586 0 -0 .9672492 304.16 757.95999)" font-size="13.932" font-family="Times New Roman"><tspan y="-6.3456" x="11.84">(</tspan></text>
<text xml:space="preserve" transform="matrix(.97871586 0 -0 .9672492 304.16 757.95999)" font-size="6.9662" font-family="Times New Roman"><tspan y="-2.8395" x="40.886">2</tspan></text>
<text xml:space="preserve" transform="matrix(.97871586 0 -0 .9672492 304.16 757.95999)" font-size="6.9662" font-family="Times New Roman"><tspan y="-2.8395" x="23.434">1</tspan></text>
<text xml:space="preserve" transform="matrix(.97871586 0 -0 .9672492 304.16 757.95999)" font-size="13.932" font-family="Times New Roman,Italic" font-style="italic"><tspan y="-6.3456" x="34.289">x</tspan></text>
<text xml:space="preserve" transform="matrix(.97871586 0 -0 .9672492 304.16 757.95999)" font-size="13.932" font-family="Times New Roman,Italic" font-style="italic"><tspan y="-6.3456" x="17.649">x</tspan></text>
<text xml:space="preserve" transform="matrix(.97871586 0 -0 .9672492 304.16 757.95999)" font-size="13.932" font-family="Times New Roman,Italic" font-style="italic"><tspan y="-6.3456" x="4.48">f</tspan></text>
</g>
</g>
</g>
<g id="Layer-1" data-name="P">
<clipPath id="cp40332">
<path transform="matrix(1,0,0,-1,0,841.92)" d="M .000008871 0 L 595.32 0 L 595.32 841.92 L .000008871 841.92 Z " fill-rule="evenodd"/>
</clipPath>
<g clip-path="url(#cp40332)">
<text xml:space="preserve" transform="matrix(1 0 -0 1 0 841.92)" font-size="14.04" font-family="Times New Roman"><tspan y="-89.904" x="355.87"> </tspan></text>
</g>
<clipPath id="cp40333">
<path transform="matrix(1,0,0,-1,0,841.92)" d="M .000008871 0 L 595.32 0 L 595.32 841.92 L .000008871 841.92 Z " fill-rule="evenodd"/>
</clipPath>
<g clip-path="url(#cp40333)">
<text xml:space="preserve" transform="matrix(1 0 -0 1 0 841.92)" font-size="14.04" font-family="Times New Roman"><tspan y="-89.904" x="361.03 368.0921 375.1542 380.5596 387.52345 393.0271 396.97233 403.80979 408.96247 414.11515 421.17726 425.12248 432.0863 442.88307 449.11683 453.06205 457.00727 463.9711 470.20487 477.281 482.4337 489.39753 496.45964 501.6123 507.73374 514.79586 518.7411 524.86257 528.70956 535.77169 542.8338 548.95529 555.9191 559.7661">xususiy  qiymatidan bu chiziqdagi </tspan></text>
</g>
</g>
</g>
</g>
</svg>
