<?xml version="1.0" encoding="UTF-8" standalone="no"?>
<!DOCTYPE svg PUBLIC "-//W3C//DTD SVG 1.1//EN" "http://www.w3.org/Graphics/SVG/1.1/DTD/svg11.dtd">
<svg xmlns="http://www.w3.org/2000/svg" xmlns:xlink="http://www.w3.org/1999/xlink" version="1.1" width="595.32pt" height="841.92pt" viewBox="0 0 595.32 841.92">
<g enable-background="new">
<g>
<g id="Layer-1" data-name="Artifact">
<clipPath id="cp41287">
<path transform="matrix(1,0,0,-1,0,841.92)" d="M .000008871 0 L 595.32 0 L 595.32 841.92 L .000008871 841.92 Z " fill-rule="evenodd"/>
</clipPath>
<g clip-path="url(#cp41287)">
<text xml:space="preserve" transform="matrix(1 0 -0 1 0 841.92)" font-size="11.04" font-family="Calibri"><tspan y="-51.864" x="314.09 319.72999 325.36997">263</tspan></text>
</g>
<clipPath id="cp41288">
<path transform="matrix(1,0,0,-1,0,841.92)" d="M .000008871 0 L 595.32 0 L 595.32 841.92 L .000008871 841.92 Z " fill-rule="evenodd"/>
</clipPath>
<g clip-path="url(#cp41288)">
<text xml:space="preserve" transform="matrix(1 0 -0 1 0 841.92)" font-size="11.04" font-family="Calibri"><tspan y="-51.864" x="331.03"> </tspan></text>
</g>
<clipPath id="cp41289">
<path transform="matrix(1,0,0,-1,0,841.92)" d="M .000008871 0 L 595.32 0 L 595.32 841.92 L .000008871 841.92 Z " fill-rule="evenodd"/>
</clipPath>
<g clip-path="url(#cp41289)">
</g>
<clipPath id="cp41290">
<path transform="matrix(1,0,0,-1,0,841.92)" d="M .000008871 0 L 595.32 0 L 595.32 841.92 L .000008871 841.92 Z " fill-rule="evenodd"/>
</clipPath>
<g clip-path="url(#cp41290)">
<text xml:space="preserve" transform="matrix(1 0 -0 1 0 841.92)" font-size="11.04" font-family="Calibri"><tspan y="-38.4" x="85.104"> </tspan></text>
</g>
<clipPath id="cp41291">
<path transform="matrix(1,0,0,-1,0,841.92)" d="M .000008871 0 L 595.32 0 L 595.32 841.92 L .000008871 841.92 Z " fill-rule="evenodd"/>
</clipPath>
<g clip-path="url(#cp41291)">
</g>
</g>
<g id="Layer-1" data-name="P">
<clipPath id="cp41292">
<path transform="matrix(1,0,0,-1,0,841.92)" d="M .000008871 0 L 595.32 0 L 595.32 841.92 L .000008871 841.92 Z " fill-rule="evenodd"/>
</clipPath>
<g clip-path="url(#cp41292)">
<text xml:space="preserve" transform="matrix(1 0 -0 1 0 841.92)" font-size="14.04" font-family="Times New Roman"><tspan y="-772.56" x="113.42 121.22624 128.28836 132.96369 143.64813 149.8819 153.82714 157.77237 164.00614 169.41153 176.37537 183.43749 189.55893 196.62105 200.13105 206.94045 213.17421 219.40798 226.48415 230.3311 241.12787 244.63787 251.65787 257.89164 264.99586 271.9597 275.9049 279.41493 286.35069 290.19764 294.14286 297.9898 303.49348 310.55558 313.91114 317.85636 324.8202 331.78404 335.72926 339.67448 345.90824 349.27784 356.33995 361.74534 368.70918 372.6544 379.7165 385.95027 389.46028 395.55363 400.959 408.02113 413.4265 417.37174 423.49317 430.55528 436.6767 443.7388 447.58576">Formallashgan yechim qabul qilish ikkita usulga asoslanadi:</tspan></text>
</g>
<clipPath id="cp41293">
<path transform="matrix(1,0,0,-1,0,841.92)" d="M .000008871 0 L 595.32 0 L 595.32 841.92 L .000008871 841.92 Z " fill-rule="evenodd"/>
</clipPath>
<g clip-path="url(#cp41293)">
<text xml:space="preserve" transform="matrix(1 0 -0 1 0 841.92)" font-size="14.04" font-family="Times New Roman"><tspan y="-772.56" x="451.78"> </tspan></text>
</g>
</g>
<g id="Layer-1" data-name="P">
<clipPath id="cp41294">
<path transform="matrix(1,0,0,-1,0,841.92)" d="M .000008871 0 L 595.32 0 L 595.32 841.92 L .000008871 841.92 Z " fill-rule="evenodd"/>
</clipPath>
<g clip-path="url(#cp41294)">
<text xml:space="preserve" transform="matrix(1 0 -0 1 0 841.92)" font-size="14.04" font-family="Times New Roman"><tspan y="-748.3" x="113.42"> </tspan></text>
</g>
<clipPath id="cp41295">
<path transform="matrix(1,0,0,-1,0,841.92)" d="M .000008871 0 L 595.32 0 L 595.32 841.92 L .000008871 841.92 Z " fill-rule="evenodd"/>
</clipPath>
<g clip-path="url(#cp41295)">
<text xml:space="preserve" transform="matrix(1 0 -0 1 0 841.92)" font-size="14.04" font-family="Times New Roman"><tspan y="-748.3" x="120.5">-</tspan></text>
</g>
<clipPath id="cp41296">
<path transform="matrix(1,0,0,-1,0,841.92)" d="M .000008871 0 L 595.32 0 L 595.32 841.92 L .000008871 841.92 Z " fill-rule="evenodd"/>
</clipPath>
<g clip-path="url(#cp41296)">
<text xml:space="preserve" transform="matrix(1 0 -0 1 0 841.92)" font-size="14.04" font-family="Times New Roman"><tspan y="-748.3" x="125.3 135.98445 142.21822 149.29439 153.23963 157.08658 164.05042 167.99565 174.83313 178.41333 189.09778 196.1599 203.22202 209.45578 213.40102 217.34626 223.4677 228.8731 235.93521">mantiqiy modellash;</tspan></text>
</g>
<clipPath id="cp41297">
<path transform="matrix(1,0,0,-1,0,841.92)" d="M .000008871 0 L 595.32 0 L 595.32 841.92 L .000008871 841.92 Z " fill-rule="evenodd"/>
</clipPath>
<g clip-path="url(#cp41297)">
<text xml:space="preserve" transform="matrix(1 0 -0 1 0 841.92)" font-size="14.04" font-family="Times New Roman"><tspan y="-748.3" x="239.93"> </tspan></text>
</g>
</g>
<g id="Layer-1" data-name="P">
<clipPath id="cp41298">
<path transform="matrix(1,0,0,-1,0,841.92)" d="M .000008871 0 L 595.32 0 L 595.32 841.92 L .000008871 841.92 Z " fill-rule="evenodd"/>
</clipPath>
<g clip-path="url(#cp41298)">
<text xml:space="preserve" transform="matrix(1 0 -0 1 0 841.92)" font-size="14.04" font-family="Times New Roman"><tspan y="-724.18" x="113.42"> </tspan></text>
</g>
<clipPath id="cp41299">
<path transform="matrix(1,0,0,-1,0,841.92)" d="M .000008871 0 L 595.32 0 L 595.32 841.92 L .000008871 841.92 Z " fill-rule="evenodd"/>
</clipPath>
<g clip-path="url(#cp41299)">
<text xml:space="preserve" transform="matrix(1 0 -0 1 0 841.92)" font-size="14.04" font-family="Times New Roman"><tspan y="-724.18" x="120.5">-</tspan></text>
</g>
<clipPath id="cp41300">
<path transform="matrix(1,0,0,-1,0,841.92)" d="M .000008871 0 L 595.32 0 L 595.32 841.92 L .000008871 841.92 Z " fill-rule="evenodd"/>
</clipPath>
<g clip-path="url(#cp41300)">
<text xml:space="preserve" transform="matrix(1 0 -0 1 0 841.92)" font-size="14.04" font-family="Times New Roman"><tspan y="-724.18" x="125.18 132.24211 139.20595 143.0529 146.99814 157.68259 163.91635 167.86159 171.80683 178.04059 183.44599 190.5081">optimallash.</tspan></text>
</g>
<clipPath id="cp41301">
<path transform="matrix(1,0,0,-1,0,841.92)" d="M .000008871 0 L 595.32 0 L 595.32 841.92 L .000008871 841.92 Z " fill-rule="evenodd"/>
</clipPath>
<g clip-path="url(#cp41301)">
<text xml:space="preserve" transform="matrix(1 0 -0 1 0 841.92)" font-size="14.04" font-family="Times New Roman"><tspan y="-724.18" x="193.97"> </tspan></text>
</g>
</g>
<g id="Layer-1" data-name="P">
<clipPath id="cp41302">
<path transform="matrix(1,0,0,-1,0,841.92)" d="M .000008871 0 L 595.32 0 L 595.32 841.92 L .000008871 841.92 Z " fill-rule="evenodd"/>
</clipPath>
<g clip-path="url(#cp41302)">
<text xml:space="preserve" transform="matrix(1 0 -0 1 0 841.92)" font-size="14.04" font-family="Times New Roman"><tspan y="-700.06" x="113.42"> </tspan></text>
</g>
<clipPath id="cp41303">
<path transform="matrix(1,0,0,-1,0,841.92)" d="M .000008871 0 L 595.32 0 L 595.32 841.92 L .000008871 841.92 Z " fill-rule="evenodd"/>
</clipPath>
<g clip-path="url(#cp41303)">
<text xml:space="preserve" transform="matrix(1 0 -0 1 0 841.92)" font-size="14.04" font-family="Times New Roman,Bold" font-weight="bold"><tspan y="-700.06" x="120.5 133.69759 140.7597 148.56595 153.24127 157.18651 164.8664 168.71335 175.77547 180.19806 191.7249 198.78702 206.59326 212.82703 216.67398 220.61922 227.58306 233.08673 240.76662 248.57286">Mantiqiy modellashda</tspan></text>
</g>
<clipPath id="cp41304">
<path transform="matrix(1,0,0,-1,0,841.92)" d="M .000008871 0 L 595.32 0 L 595.32 841.92 L .000008871 841.92 Z " fill-rule="evenodd"/>
</clipPath>
<g clip-path="url(#cp41304)">
<text xml:space="preserve" transform="matrix(1 0 -0 1 0 841.92)" font-size="14.04" font-family="Times New Roman"><tspan y="-700.06" x="255.77"> </tspan></text>
</g>
<clipPath id="cp41305">
<path transform="matrix(1,0,0,-1,0,841.92)" d="M .000008871 0 L 595.32 0 L 595.32 841.92 L .000008871 841.92 Z " fill-rule="evenodd"/>
</clipPath>
<g clip-path="url(#cp41305)">
<text xml:space="preserve" transform="matrix(1 0 -0 1 0 841.92)" font-size="14.04" font-family="Times New Roman"><tspan y="-700.06" x="260.21 267.04747 274.10957 281.17167 288.23377 292.79676 296.74198 301.05229 308.11439 311.96134 315.90657 319.85179 330.53623 337.59834 343.8321 348.26875 354.5025 361.46635 367.7001 372.13676 379.19886 386.26097 390.82395 394.6709 401.733 407.85444 414.91654 419.33915 430.0236 437.0857 441.0309 447.26469 454.34083 460.46226 465.9659 471.3713 475.31654 480.72193 484.66716 490.9009 495.57624 500.01289 503.85984 510.92195 521.6063 528.66848 535.7306 539.5776 546.6397 552.63479 559.59866">yuqori bilimga ega bo&#x2018;lgan mutaxassislar tomonidan </tspan></text>
</g>
<clipPath id="cp41306">
<path transform="matrix(1,0,0,-1,0,841.92)" d="M .000008871 0 L 595.32 0 L 595.32 841.92 L .000008871 841.92 Z " fill-rule="evenodd"/>
</clipPath>
<g clip-path="url(#cp41306)">
<text xml:space="preserve" transform="matrix(1 0 -0 1 0 841.92)" font-size="14.04" font-family="Times New Roman"><tspan y="-675.94" x="85.104 92.166118 97.57152 104.535358 108.4806 115.30404 119.24928 125.37072 132.43283 136.37807 142.49951 149.46335 153.40859 160.4707 163.9807 170.64969 177.7118 184.67565 188.5226 195.58472 202.54856 209.49835 216.33583 223.39795 228.07328 235.14945 241.38321 252.06766 256.0129 263.075 269.30879 276.14628 283.1101 287.05534 291.61833 298.68043 303.35575 310.19325 317.15708 321.00404 325.67936 332.51686 339.57896 346.5428 350.488 356.60945 360.55467 367.3781 374.21559 381.27769 388.33979 392.285 399.10847 406.0723 413.03614 418.5398 425.50364 432.56575 438.68717 445.51063 452.57273 459.53657 463.48179 469.71556 473.5625 480.6246 486.85838 493.5695 500.6316 504.5768 515.2612 521.495 528.33248 535.3946 539.33987 543.1868 547.0338 552.5375 559.375">usul tanlanib, uning yordamida biror bir holat yoki boshqa holatda nima qilish </tspan></text>
</g>
<clipPath id="cp41307">
<path transform="matrix(1,0,0,-1,0,841.92)" d="M .000008871 0 L 595.32 0 L 595.32 841.92 L .000008871 841.92 Z " fill-rule="evenodd"/>
</clipPath>
<g clip-path="url(#cp41307)">
<text xml:space="preserve" transform="matrix(1 0 -0 1 0 841.92)" font-size="14.04" font-family="Times New Roman"><tspan y="-651.7" x="85.104 92.166118 98.39987 103.075199 109.21067 116.27279 120.11975 123.96671 127.91196 131.75891 138.82103 142.76627 146.12183 152.35559 159.31943 163.26467 170.2285 174.17374 180.29518 187.3573 193.47875 200.54087 204.38782 207.89781 211.35164 220.71633 227.77845 234.74228 241.8044 248.03816 251.54816 262.20454 268.4383 272.3835 278.7296 289.41407 295.64784 299.59306 303.53828 310.60038 314.11039 324.87907 331.11283 338.18898 342.03593 345.88288 352.94499 356.8902 363.72767 367.23768 371.913 378.93299 385.95298 392.88874 398.3924 402.33763 409.17509 415.40885 419.35408 425.58784 430.26316 433.77317 440.70893 444.55589 450.90199 461.58644 467.8202 471.7654 475.27543 482.2954 486.19853 490.10163 496.25117 503.31327 507.25849 510.7685">kerakliligi aniqlanadi. Bunda matematik mantiqiy funksiyalar xizmat qiladi. </tspan></text>
</g>
<clipPath id="cp41308">
<path transform="matrix(1,0,0,-1,0,841.92)" d="M .000008871 0 L 595.32 0 L 595.32 841.92 L .000008871 841.92 Z " fill-rule="evenodd"/>
</clipPath>
<g clip-path="url(#cp41308)">
<text xml:space="preserve" transform="matrix(1 0 -0 1 0 841.92)" font-size="14.04" font-family="Times New Roman"><tspan y="-651.7" x="514.54"> </tspan></text>
</g>
</g>
<g id="Layer-1" data-name="P">
<clipPath id="cp41309">
<path transform="matrix(1,0,0,-1,0,841.92)" d="M .000008871 0 L 595.32 0 L 595.32 841.92 L .000008871 841.92 Z " fill-rule="evenodd"/>
</clipPath>
<g clip-path="url(#cp41309)">
<text xml:space="preserve" transform="matrix(1 0 -0 1 0 841.92)" font-size="14.04" font-family="Times New Roman"><tspan y="-627.58" x="113.42 123.50072 129.73448 135.96825 143.04442 146.98966 157.6741 161.1841 168.2041 174.43787 181.45787 188.47788 192.46524 195.8208 202.88292 206.72988 210.57683 214.52207 219.92746 226.98958 233.95342 237.89865 244.86249 251.9246">Yechim qabul qilishning </tspan></text>
</g>
<clipPath id="cp41310">
<path transform="matrix(1,0,0,-1,0,841.92)" d="M .000008871 0 L 595.32 0 L 595.32 841.92 L .000008871 841.92 Z " fill-rule="evenodd"/>
</clipPath>
<g clip-path="url(#cp41310)">
<text xml:space="preserve" transform="matrix(1 0 -0 1 0 841.92)" font-size="14.04" font-family="Times New Roman,Bold" font-weight="bold"><tspan y="-627.58" x="255.53 262.49385 270.30009 274.9754 278.92063 290.44746 297.50956 301.3565 305.20347 312.26557 317.76924">optimallash</tspan></text>
</g>
<clipPath id="cp41311">
<path transform="matrix(1,0,0,-1,0,841.92)" d="M .000008871 0 L 595.32 0 L 595.32 841.92 L .000008871 841.92 Z " fill-rule="evenodd"/>
</clipPath>
<g clip-path="url(#cp41311)">
<text xml:space="preserve" transform="matrix(1 0 -0 1 0 841.92)" font-size="14.04" font-family="Times New Roman"><tspan y="-627.58" x="325.63"> </tspan></text>
</g>
<clipPath id="cp41312">
<path transform="matrix(1,0,0,-1,0,841.92)" d="M .000008871 0 L 595.32 0 L 595.32 841.92 L .000008871 841.92 Z " fill-rule="evenodd"/>
</clipPath>
<g clip-path="url(#cp41312)">
<text xml:space="preserve" transform="matrix(1 0 -0 1 0 841.92)" font-size="14.04" font-family="Times New Roman"><tspan y="-627.58" x="328.99 336.0521 341.4575 348.42134 352.36656 356.2135 359.7235 366.7435 373.83369 380.67115 384.61637 391.67848">usuli quyida</tspan></text>
</g>
<clipPath id="cp41313">
<path transform="matrix(1,0,0,-1,0,841.92)" d="M .000008871 0 L 595.32 0 L 595.32 841.92 L .000008871 841.92 Z " fill-rule="evenodd"/>
</clipPath>
<g clip-path="url(#cp41313)">
<text xml:space="preserve" transform="matrix(1 0 -0 1 0 841.92)" font-size="14.04" font-family="Times New Roman"><tspan y="-627.58" x="397.87 404.83384 408.77906 412.72428 418.95805 423.52104 430.58314 436.8169 440.3269 446.42027 451.82566 458.88777 464.29316 468.23838 474.3598 481.4219 487.54335 494.60545 498.4524">gilarga asoslanadi:</tspan></text>
</g>
<clipPath id="cp41314">
<path transform="matrix(1,0,0,-1,0,841.92)" d="M .000008871 0 L 595.32 0 L 595.32 841.92 L .000008871 841.92 Z " fill-rule="evenodd"/>
</clipPath>
<g clip-path="url(#cp41314)">
<text xml:space="preserve" transform="matrix(1 0 -0 1 0 841.92)" font-size="14.04" font-family="Times New Roman"><tspan y="-627.58" x="502.42"> </tspan></text>
</g>
</g>
<g id="Layer-1" data-name="P">
<clipPath id="cp41315">
<path transform="matrix(1,0,0,-1,0,841.92)" d="M .000008871 0 L 595.32 0 L 595.32 841.92 L .000008871 841.92 Z " fill-rule="evenodd"/>
</clipPath>
<g clip-path="url(#cp41315)">
<text xml:space="preserve" transform="matrix(1 0 -0 1 0 841.92)" font-size="14.04" font-family="Times New Roman"><tspan y="-603.46" x="113.42"> </tspan></text>
</g>
<clipPath id="cp41316">
<path transform="matrix(1,0,0,-1,0,841.92)" d="M .000008871 0 L 595.32 0 L 595.32 841.92 L .000008871 841.92 Z " fill-rule="evenodd"/>
</clipPath>
<g clip-path="url(#cp41316)">
<text xml:space="preserve" transform="matrix(1 0 -0 1 0 841.92)" font-size="14.04" font-family="Times New Roman"><tspan y="-603.46" x="120.5">-</tspan></text>
</g>
<clipPath id="cp41317">
<path transform="matrix(1,0,0,-1,0,841.92)" d="M .000008871 0 L 595.32 0 L 595.32 841.92 L .000008871 841.92 Z " fill-rule="evenodd"/>
</clipPath>
<g clip-path="url(#cp41317)">
<text xml:space="preserve" transform="matrix(1 0 -0 1 0 841.92)" font-size="14.04" font-family="Times New Roman"><tspan y="-603.46" x="125.3 135.98445 142.21822 146.16345 152.39722 163.08167 169.31543 173.26067 177.2059 184.26802 187.77802 198.43439 205.4965 212.55863 218.79239 222.73763 226.58458 232.81835 238.22374 245.28586">matematik modellash;</tspan></text>
</g>
<clipPath id="cp41318">
<path transform="matrix(1,0,0,-1,0,841.92)" d="M .000008871 0 L 595.32 0 L 595.32 841.92 L .000008871 841.92 Z " fill-rule="evenodd"/>
</clipPath>
<g clip-path="url(#cp41318)">
<text xml:space="preserve" transform="matrix(1 0 -0 1 0 841.92)" font-size="14.04" font-family="Times New Roman"><tspan y="-603.46" x="249.29"> </tspan></text>
</g>
</g>
<g id="Layer-1" data-name="P">
<clipPath id="cp41319">
<path transform="matrix(1,0,0,-1,0,841.92)" d="M .000008871 0 L 595.32 0 L 595.32 841.92 L .000008871 841.92 Z " fill-rule="evenodd"/>
</clipPath>
<g clip-path="url(#cp41319)">
<text xml:space="preserve" transform="matrix(1 0 -0 1 0 841.92)" font-size="14.04" font-family="Times New Roman"><tspan y="-579.34" x="113.42"> </tspan></text>
</g>
<clipPath id="cp41320">
<path transform="matrix(1,0,0,-1,0,841.92)" d="M .000008871 0 L 595.32 0 L 595.32 841.92 L .000008871 841.92 Z " fill-rule="evenodd"/>
</clipPath>
<g clip-path="url(#cp41320)">
<text xml:space="preserve" transform="matrix(1 0 -0 1 0 841.92)" font-size="14.04" font-family="Times New Roman"><tspan y="-579.34" x="120.5">-</tspan></text>
</g>
<clipPath id="cp41321">
<path transform="matrix(1,0,0,-1,0,841.92)" d="M .000008871 0 L 595.32 0 L 595.32 841.92 L .000008871 841.92 Z " fill-rule="evenodd"/>
</clipPath>
<g clip-path="url(#cp41321)">
<text xml:space="preserve" transform="matrix(1 0 -0 1 0 841.92)" font-size="14.04" font-family="Times New Roman"><tspan y="-579.34" x="125.18 132.24211 139.30423 149.98868 157.0508 159.578 166.41548 173.4776 177.42284 183.6566 188.33193 195.4081 201.64186 205.15186 215.80823 222.04199 227.55973 233.79349 237.64044 243.8742 250.95038 254.89562 258.4056 265.215 271.44877 277.68254 284.6604 288.60563 294.01103 301.07313">komp'yuterda masalani yechish;</tspan></text>
</g>
<clipPath id="cp41322">
<path transform="matrix(1,0,0,-1,0,841.92)" d="M .000008871 0 L 595.32 0 L 595.32 841.92 L .000008871 841.92 Z " fill-rule="evenodd"/>
</clipPath>
<g clip-path="url(#cp41322)">
<text xml:space="preserve" transform="matrix(1 0 -0 1 0 841.92)" font-size="14.04" font-family="Times New Roman"><tspan y="-579.34" x="305.09"> </tspan></text>
</g>
</g>
<g id="Layer-1" data-name="P">
<clipPath id="cp41323">
<path transform="matrix(1,0,0,-1,0,841.92)" d="M .000008871 0 L 595.32 0 L 595.32 841.92 L .000008871 841.92 Z " fill-rule="evenodd"/>
</clipPath>
<g clip-path="url(#cp41323)">
<text xml:space="preserve" transform="matrix(1 0 -0 1 0 841.92)" font-size="14.04" font-family="Times New Roman"><tspan y="-555.07" x="113.42"> </tspan></text>
</g>
<clipPath id="cp41324">
<path transform="matrix(1,0,0,-1,0,841.92)" d="M .000008871 0 L 595.32 0 L 595.32 841.92 L .000008871 841.92 Z " fill-rule="evenodd"/>
</clipPath>
<g clip-path="url(#cp41324)">
<text xml:space="preserve" transform="matrix(1 0 -0 1 0 841.92)" font-size="14.04" font-family="Times New Roman"><tspan y="-555.07" x="120.5">-</tspan></text>
</g>
<clipPath id="cp41325">
<path transform="matrix(1,0,0,-1,0,841.92)" d="M .000008871 0 L 595.32 0 L 595.32 841.92 L .000008871 841.92 Z " fill-rule="evenodd"/>
</clipPath>
<g clip-path="url(#cp41325)">
<text xml:space="preserve" transform="matrix(1 0 -0 1 0 841.92)" font-size="14.04" font-family="Times New Roman"><tspan y="-555.07" x="125.18 132.24211 139.20595 144.61135 151.67346 155.52042 161.75418 168.71802 175.78014 180.34314 184.28838 190.52214 197.59832 201.1083 211.76468 217.99845 220.52565 224.47089 231.533 242.32978 249.39189 253.23885 257.18409 263.41786 268.09318">boshlang&#x2018;ich ma'lumotlar.</tspan></text>
</g>
<clipPath id="cp41326">
<path transform="matrix(1,0,0,-1,0,841.92)" d="M .000008871 0 L 595.32 0 L 595.32 841.92 L .000008871 841.92 Z " fill-rule="evenodd"/>
</clipPath>
<g clip-path="url(#cp41326)">
<text xml:space="preserve" transform="matrix(1 0 -0 1 0 841.92)" font-size="14.04" font-family="Times New Roman"><tspan y="-555.07" x="271.61"> </tspan></text>
</g>
</g>
<g id="Layer-1" data-name="P">
<clipPath id="cp41327">
<path transform="matrix(1,0,0,-1,0,841.92)" d="M .000008871 0 L 595.32 0 L 595.32 841.92 L .000008871 841.92 Z " fill-rule="evenodd"/>
</clipPath>
<g clip-path="url(#cp41327)">
<text xml:space="preserve" transform="matrix(1 0 -0 1 0 841.92)" font-size="14.04" font-family="Times New Roman"><tspan y="-530.95" x="113.42"> </tspan></text>
</g>
<clipPath id="cp41328">
<path transform="matrix(1,0,0,-1,0,841.92)" d="M .000008871 0 L 595.32 0 L 595.32 841.92 L .000008871 841.92 Z " fill-rule="evenodd"/>
</clipPath>
<g clip-path="url(#cp41328)">
<text xml:space="preserve" transform="matrix(1 0 -0 1 0 841.92)" font-size="14.04" font-family="Times New Roman"><tspan y="-530.95" x="120.5 132.98157 139.21533 143.16057 149.39434 160.07878 166.31255 170.25778 174.10474 181.16686 184.67685 195.33322 202.39534 209.45746 215.69123 219.63646 223.48342 229.71718 235.12258 242.08641 249.14853 252.99549 259.95933 267.02143 270.53144 274.33628 281.39839 288.3622 292.30744 296.1544 302.38816 305.89817 309.80128 320.5138 327.5759 334.638 341.60185 345.54707 352.38453 358.6183 362.5635 366.50874 370.01875 380.6751 386.90888 393.98503 397.83198 404.89408 411.95619">Matematik modellashning ikkita imkoniyati mavjud:</tspan></text>
</g>
<clipPath id="cp41329">
<path transform="matrix(1,0,0,-1,0,841.92)" d="M .000008871 0 L 595.32 0 L 595.32 841.92 L .000008871 841.92 Z " fill-rule="evenodd"/>
</clipPath>
<g clip-path="url(#cp41329)">
<text xml:space="preserve" transform="matrix(1 0 -0 1 0 841.92)" font-size="14.04" font-family="Times New Roman"><tspan y="-530.95" x="416.11"> </tspan></text>
</g>
</g>
<g id="Layer-1" data-name="P">
<clipPath id="cp41330">
<path transform="matrix(1,0,0,-1,0,841.92)" d="M .000008871 0 L 595.32 0 L 595.32 841.92 L .000008871 841.92 Z " fill-rule="evenodd"/>
</clipPath>
<g clip-path="url(#cp41330)">
<text xml:space="preserve" transform="matrix(1 0 -0 1 0 841.92)" font-size="14.04" font-family="Times New Roman"><tspan y="-506.83" x="113.42"> </tspan></text>
</g>
<clipPath id="cp41331">
<path transform="matrix(1,0,0,-1,0,841.92)" d="M .000008871 0 L 595.32 0 L 595.32 841.92 L .000008871 841.92 Z " fill-rule="evenodd"/>
</clipPath>
<g clip-path="url(#cp41331)">
<text xml:space="preserve" transform="matrix(1 0 -0 1 0 841.92)" font-size="14.04" font-family="Times New Roman"><tspan y="-506.83" x="120.5">-</tspan></text>
</g>
<clipPath id="cp41332">
<path transform="matrix(1,0,0,-1,0,841.92)" d="M .000008871 0 L 595.32 0 L 595.32 841.92 L .000008871 841.92 Z " fill-rule="evenodd"/>
</clipPath>
<g clip-path="url(#cp41332)">
<text xml:space="preserve" transform="matrix(1 0 -0 1 0 841.92)" font-size="14.04" font-family="Times New Roman"><tspan y="-506.83" x="125.18 132.24211 139.30423 143.86724 150.70471 154.64995 158.59519 165.6573 171.77875 178.84087 182.35086 187.71414 193.9479 200.91175 207.87558 211.82082 218.88294 225.1167 228.4863 232.43154 238.55298 244.78675 248.29674 252.11562 258.34938 265.4255 272.38935 279.45146 282.96147 286.7663 293.73014 300.79225 304.6392 310.14286 317.1067">qo&#x2018;yilgan savolga tez javob topish;</tspan></text>
</g>
<clipPath id="cp41333">
<path transform="matrix(1,0,0,-1,0,841.92)" d="M .000008871 0 L 595.32 0 L 595.32 841.92 L .000008871 841.92 Z " fill-rule="evenodd"/>
</clipPath>
<g clip-path="url(#cp41333)">
<text xml:space="preserve" transform="matrix(1 0 -0 1 0 841.92)" font-size="14.04" font-family="Times New Roman"><tspan y="-506.83" x="321.19"> </tspan></text>
</g>
</g>
<g id="Layer-1" data-name="P">
<clipPath id="cp41334">
<path transform="matrix(1,0,0,-1,0,841.92)" d="M .000008871 0 L 595.32 0 L 595.32 841.92 L .000008871 841.92 Z " fill-rule="evenodd"/>
</clipPath>
<g clip-path="url(#cp41334)">
<text xml:space="preserve" transform="matrix(1 0 -0 1 0 841.92)" font-size="14.04" font-family="Times New Roman"><tspan y="-482.71" x="113.42"> </tspan></text>
</g>
<clipPath id="cp41335">
<path transform="matrix(1,0,0,-1,0,841.92)" d="M .000008871 0 L 595.32 0 L 595.32 841.92 L .000008871 841.92 Z " fill-rule="evenodd"/>
</clipPath>
<g clip-path="url(#cp41335)">
<text xml:space="preserve" transform="matrix(1 0 -0 1 0 841.92)" font-size="14.04" font-family="Times New Roman"><tspan y="-482.71" x="120.5">-</tspan></text>
</g>
<clipPath id="cp41336">
<path transform="matrix(1,0,0,-1,0,841.92)" d="M .000008871 0 L 595.32 0 L 595.32 841.92 L .000008871 841.92 Z " fill-rule="evenodd"/>
</clipPath>
<g clip-path="url(#cp41336)">
<text xml:space="preserve" transform="matrix(1 0 -0 1 0 841.92)" font-size="14.04" font-family="Times New Roman"><tspan y="-482.71" x="125.18 132.24211 138.36356 145.42568 152.4878 155.84336 159.78859 166.02236 169.86931 174.54463 178.39159 185.4537 191.68747 195.05707 202.11919 206.68219 210.62743 217.68955 223.92331 230.04476 233.89171 239.2971 246.35923 249.86922 253.77234 264.48487 271.54698 278.60908 285.5729 289.51814 296.3556 302.58937 306.53459 310.4798">keng tajriba o&#x2018;tkazish imkoniyati.</tspan></text>
</g>
<clipPath id="cp41337">
<path transform="matrix(1,0,0,-1,0,841.92)" d="M .000008871 0 L 595.32 0 L 595.32 841.92 L .000008871 841.92 Z " fill-rule="evenodd"/>
</clipPath>
<g clip-path="url(#cp41337)">
<text xml:space="preserve" transform="matrix(1 0 -0 1 0 841.92)" font-size="14.04" font-family="Times New Roman"><tspan y="-482.71" x="314.09"> </tspan></text>
</g>
</g>
<g id="Layer-1" data-name="P">
<clipPath id="cp41338">
<path transform="matrix(1,0,0,-1,0,841.92)" d="M .000008871 0 L 595.32 0 L 595.32 841.92 L .000008871 841.92 Z " fill-rule="evenodd"/>
</clipPath>
<g clip-path="url(#cp41338)">
<text xml:space="preserve" transform="matrix(1 0 -0 1 0 841.92)" font-size="14.04" font-family="Times New Roman"><tspan y="-458.47" x="113.42 123.50072 129.73448 135.96825 143.04442 146.98966 157.6741 165.33994 172.40206 178.63582 185.71199 192.67583 196.62107 204.2869 211.25074 215.19597 219.04293 222.88988 228.39356 235.35739">Yechim qabul qilish </tspan></text>
</g>
<clipPath id="cp41339">
<path transform="matrix(1,0,0,-1,0,841.92)" d="M .000008871 0 L 595.32 0 L 595.32 841.92 L .000008871 841.92 Z " fill-rule="evenodd"/>
</clipPath>
<g clip-path="url(#cp41339)">
<text xml:space="preserve" transform="matrix(1 0 -0 1 0 841.92)" font-size="14.04" font-family="Times New Roman"><tspan y="-458.47" x="243.17 249.40377 253.349 260.31285 267.37495 272.05027 275.89723 279.84245 290.5269 294.4721 302.13798 308.37174 315.44789 321.68165 328.75779 334.99156 342.6574 353.45417 360.51628 365.1916 371.31303 378.37513 385.33897 391.57273 398.64888 406.31474 413.27857 420.34068 424.90367 428.84889 432.69584 439.75794 443.26795 450.9057 457.86955 464.93165 471.89549 478.12925 485.7951 492.8572 499.9193 510.60377 517.6659 520.1931 527.03067 534.0928 538.038 544.2718 548.9471 555.79867 559.6456">algoritmi ancha murakkab bo&#x2018;lib, unda komp'yuterni </tspan></text>
</g>
<clipPath id="cp41340">
<path transform="matrix(1,0,0,-1,0,841.92)" d="M .000008871 0 L 595.32 0 L 595.32 841.92 L .000008871 841.92 Z " fill-rule="evenodd"/>
</clipPath>
<g clip-path="url(#cp41340)">
<text xml:space="preserve" transform="matrix(1 0 -0 1 0 841.92)" font-size="14.04" font-family="Times New Roman"><tspan y="-434.35" x="85.104 92.166118 99.22823 103.79124 107.6382 111.58344 117.8172 128.50165 134.73542 140.25315 147.31526 153.54903 160.6252 166.01656 169.86351 176.92563 181.60095 185.4479 192.51003 198.0137 204.13515 214.93192 221.16568 225.11092 229.05615 235.89363 241.39731 245.24427 249.1895 256.25163 262.48539 266.4306 273.39445 279.6282 286.70436 292.0957 299.1578 305.39158 309.23854 315.4723 320.03529 323.88224 329.3859 336.448 341.9517 352.63615 359.82463 370.50907 377.57118 381.5164 388.5785 394.08219 400.31596 411.0004 417.23417 422.75187 426.26188 431.7375 441.8182 448.8803 459.56477 466.62687 469.25233 476.08979 483.1519 487.0971 493.33088 498.0062 504.98408 511.21784 516.73556 523.6994 530.76156 534.6085 538.5538 549.23818 555.4719 559.4172">qo&#x2018;llamasdan turib amaliy jihatdan bajarish mumkin emas. Komp'yuterda optimal </tspan></text>
</g>
<clipPath id="cp41341">
<path transform="matrix(1,0,0,-1,0,841.92)" d="M .000008871 0 L 595.32 0 L 595.32 841.92 L .000008871 841.92 Z " fill-rule="evenodd"/>
</clipPath>
<g clip-path="url(#cp41341)">
<text xml:space="preserve" transform="matrix(1 0 -0 1 0 841.92)" font-size="14.04" font-family="Times New Roman"><tspan y="-410.23" x="85.104 91.941478 98.17523 104.40899 111.485149 115.43039 126.11483 133.17694 137.12218 141.9098 145.85504 152.0888 156.03404 162.15549 167.56089 174.623 179.41063 185.53208 189.47731 196.44115 203.40499 208.0803 212.02555 215.97078 226.65523 230.60047 235.38809 242.45021 248.57166 255.63378 262.59764 269.65974 274.321 278.26625 283.67164 290.63548 294.5807 300.81446 307.8906 312.55189 318.78565 325.74949 329.6947 336.65855 340.60377 344.4507 351.51283 357.63426 364.69636 369.35765 376.41975 382.6535 388.0589 391.90586 398.96797 403.64329 407.5885 414.42597 419.21363 423.15885 429.3926 431.9198 442.60426 446.54948 453.61158 460.5754 464.52064 469.18193 476.24403 482.47779 487.1531 494.2152 501.17906 506.6827 513.64657 517.5918 523.71328 530.6771 537.73928 542.30227 546.2475 552.36898 559.3328">yechimni izlash algoritmi uchun ishlab chiqilgan dasturiy ta'minot va boshlang&#x2018;ich </tspan></text>
</g>
<clipPath id="cp41342">
<path transform="matrix(1,0,0,-1,0,841.92)" d="M .000008871 0 L 595.32 0 L 595.32 841.92 L .000008871 841.92 Z " fill-rule="evenodd"/>
</clipPath>
<g clip-path="url(#cp41342)">
<text xml:space="preserve" transform="matrix(1 0 -0 1 0 841.92)" font-size="14.04" font-family="Times New Roman"><tspan y="-386.09" x="85.104 95.90076 102.134517 104.66171 108.60696 115.669078 126.353519 133.41564 137.36087 141.3061 147.53987 152.10288 157.60655 161.4535 167.68727 171.19727 175.10039 181.24991 185.19515 191.31659 198.37871 204.50016 211.33763 218.39975 222.34499 229.4071 235.64087 242.71704 246.0726 253.13472 259.25614 263.20137 267.14659 270.99354 277.11497 284.17707 290.41084 293.92085 300.1546 304.70356 308.64878 314.05418 321.018 324.86497">ma'lumotlarsiz izlanayotgan natijaga erishib</tspan></text>
</g>
<clipPath id="cp41343">
<path transform="matrix(1,0,0,-1,0,841.92)" d="M .000008871 0 L 595.32 0 L 595.32 841.92 L .000008871 841.92 Z " fill-rule="evenodd"/>
</clipPath>
<g clip-path="url(#cp41343)">
<text xml:space="preserve" transform="matrix(1 0 -0 1 0 841.92)" font-size="14.04" font-family="Times New Roman"><tspan y="-386.09" x="332.23"> </tspan></text>
</g>
<clipPath id="cp41344">
<path transform="matrix(1,0,0,-1,0,841.92)" d="M .000008871 0 L 595.32 0 L 595.32 841.92 L .000008871 841.92 Z " fill-rule="evenodd"/>
</clipPath>
<g clip-path="url(#cp41344)">
<text xml:space="preserve" transform="matrix(1 0 -0 1 0 841.92)" font-size="14.04" font-family="Times New Roman"><tspan y="-386.09" x="335.71 342.67384 349.73594 354.29893 358.24415 368.9286 375.2747 382.11216 389.17427 393.11949">bo&#x2018;lmaydi.</tspan></text>
</g>
<clipPath id="cp41345">
<path transform="matrix(1,0,0,-1,0,841.92)" d="M .000008871 0 L 595.32 0 L 595.32 841.92 L .000008871 841.92 Z " fill-rule="evenodd"/>
</clipPath>
<g clip-path="url(#cp41345)">
<text xml:space="preserve" transform="matrix(1 0 -0 1 0 841.92)" font-size="14.04" font-family="Times New Roman"><tspan y="-386.09" x="396.67"> </tspan></text>
</g>
</g>
<g id="Layer-1" data-name="P">
<clipPath id="cp41346">
<path transform="matrix(1,0,0,-1,0,841.92)" d="M .000008871 0 L 595.32 0 L 595.32 841.92 L .000008871 841.92 Z " fill-rule="evenodd"/>
</clipPath>
<g clip-path="url(#cp41346)">
<text xml:space="preserve" transform="matrix(1 0 -0 1 0 841.92)" font-size="14.04" font-family="Times New Roman,Bold" font-weight="bold"><tspan y="-361.97" x="113.42 116.9">  </tspan></text>
</g>
<clipPath id="cp41347">
<path transform="matrix(1,0,0,-1,0,841.92)" d="M .000008871 0 L 595.32 0 L 595.32 841.92 L .000008871 841.92 Z " fill-rule="evenodd"/>
</clipPath>
<g clip-path="url(#cp41347)">
<text xml:space="preserve" transform="matrix(1 0 -0 1 0 841.92)" font-size="14.04" font-family="Times New Roman,Bold" font-weight="bold"><tspan y="-361.97" x="120.38 131.30312 139.10936 143.78469 147.72992 159.25676 166.31888 170.26412 179.37607 186.43819 192.67195 198.90572 206.59964 210.54488 222.07172 229.87796 233.8232 243.04747 250.85372 257.91584 265.72209 273.40196 277.34718 286.57148 294.25135 298.19657 302.04353 305.98875 311.39414 319.20039 327.00663 330.9378 338.61769 345.67979 354.79176 361.85386 367.25926 374.22309 379.72676 383.5737 390.6358 399.8601 407.53999 414.60209 420.10575 427.7856 431.73085 437.9646 445.64448 449.49143 456.55354 462.7873">Optimal yechimni qabul qilishning asosiy bosqichlari</tspan></text>
</g>
<clipPath id="cp41348">
<path transform="matrix(1,0,0,-1,0,841.92)" d="M .000008871 0 L 595.32 0 L 595.32 841.92 L .000008871 841.92 Z " fill-rule="evenodd"/>
</clipPath>
<g clip-path="url(#cp41348)">
<text xml:space="preserve" transform="matrix(1 0 -0 1 0 841.92)" font-size="14.04" font-family="Times New Roman"><tspan y="-361.97" x="467.02"> </tspan></text>
</g>
<clipPath id="cp41349">
<path transform="matrix(1,0,0,-1,0,841.92)" d="M .000008871 0 L 595.32 0 L 595.32 841.92 L .000008871 841.92 Z " fill-rule="evenodd"/>
</clipPath>
<g clip-path="url(#cp41349)">
<text xml:space="preserve" transform="matrix(1 0 -0 1 0 841.92)" font-size="14.04" font-family="Times New Roman"><tspan y="-361.97" x="476.14 483.20213 490.26423 497.10169 501.0469 508.109 514.23049 521.19436 525.1396 529.08486 535.2063 539.8816 546.84548 552.9669 559.9308">quyidagilardan </tspan></text>
</g>
<clipPath id="cp41350">
<path transform="matrix(1,0,0,-1,0,841.92)" d="M .000008871 0 L 595.32 0 L 595.32 841.92 L .000008871 841.92 Z " fill-rule="evenodd"/>
</clipPath>
<g clip-path="url(#cp41350)">
<text xml:space="preserve" transform="matrix(1 0 -0 1 0 841.92)" font-size="14.04" font-family="Times New Roman"><tspan y="-337.73" x="85.104 89.04924 96.01308 103.075199 107.75052 113.871959 117.8172">iborat:</tspan></text>
</g>
<clipPath id="cp41351">
<path transform="matrix(1,0,0,-1,0,841.92)" d="M .000008871 0 L 595.32 0 L 595.32 841.92 L .000008871 841.92 Z " fill-rule="evenodd"/>
</clipPath>
<g clip-path="url(#cp41351)">
<text xml:space="preserve" transform="matrix(1 0 -0 1 0 841.92)" font-size="14.04" font-family="Times New Roman"><tspan y="-337.73" x="121.7"> </tspan></text>
</g>
</g>
<g id="Layer-1" data-name="P">
<clipPath id="cp41352">
<path transform="matrix(1,0,0,-1,0,841.92)" d="M .000008871 0 L 595.32 0 L 595.32 841.92 L .000008871 841.92 Z " fill-rule="evenodd"/>
</clipPath>
<g clip-path="url(#cp41352)">
<text xml:space="preserve" transform="matrix(1 0 -0 1 0 841.92)" font-size="14.04" font-family="Times New Roman"><tspan y="-313.61" x="113.42"> </tspan></text>
</g>
<clipPath id="cp41353">
<path transform="matrix(1,0,0,-1,0,841.92)" d="M .000008871 0 L 595.32 0 L 595.32 841.92 L .000008871 841.92 Z " fill-rule="evenodd"/>
</clipPath>
<g clip-path="url(#cp41353)">
<text xml:space="preserve" transform="matrix(1 0 -0 1 0 841.92)" font-size="14.04" font-family="Times New Roman"><tspan y="-313.61" x="120.5 127.56212 131.07212 143.55368 149.64705 155.15073 161.38449 165.23145 171.46521 178.42905 182.37429 186.44588 190.39112 196.51256 203.57468 207.42163 213.6554 219.06079 226.12291 229.6329 233.66239 243.02707 250.08919 257.05305 264.11515 270.3489 274.42054 285.10499 291.33876 296.85646 303.0902 307.03544 313.2692 317.34083 324.40293 330.52436 337.58647 344.5503 350.78407 357.63557 361.8195 365.7647 371.99848 375.84544 382.0792 389.04304 392.98826 399.22203 403.785 410.8471 414.79234 418.73759 425.79969 432.03346 438.99729 446.0594 452.18083 456.02778 459.973 466.20677 473.1706 477.01756 480.8645 485.53984 489.48506 494.89045 501.85429 505.7995 509.87113 516.9332 523.167 527.8423 533.9778 540.94168 544.8869 548.7339 555.69778 559.54476">1.Masalani tanlash. Bunda masala qanday talablarni qanoatlantirishi kerakligi </tspan></text>
</g>
<clipPath id="cp41354">
<path transform="matrix(1,0,0,-1,0,841.92)" d="M .000008871 0 L 595.32 0 L 595.32 841.92 L .000008871 841.92 Z " fill-rule="evenodd"/>
</clipPath>
<g clip-path="url(#cp41354)">
<text xml:space="preserve" transform="matrix(1 0 -0 1 0 841.92)" font-size="14.04" font-family="Times New Roman"><tspan y="-289.49" x="85.104 91.33775 98.41391 102.26087 109.22471 113.16995 119.29139 124.795078 131.75891 135.70415 139.64939 144.21239 148.05934 152.00458 158.12602 165.18814 169.13338">aniqlashtiriladi.</tspan></text>
</g>
<clipPath id="cp41355">
<path transform="matrix(1,0,0,-1,0,841.92)" d="M .000008871 0 L 595.32 0 L 595.32 841.92 L .000008871 841.92 Z " fill-rule="evenodd"/>
</clipPath>
<g clip-path="url(#cp41355)">
<text xml:space="preserve" transform="matrix(1 0 -0 1 0 841.92)" font-size="14.04" font-family="Times New Roman"><tspan y="-289.49" x="172.58"> </tspan></text>
</g>
</g>
<g id="Layer-1" data-name="P">
<clipPath id="cp41356">
<path transform="matrix(1,0,0,-1,0,841.92)" d="M .000008871 0 L 595.32 0 L 595.32 841.92 L .000008871 841.92 Z " fill-rule="evenodd"/>
</clipPath>
<g clip-path="url(#cp41356)">
<text xml:space="preserve" transform="matrix(1 0 -0 1 0 841.92)" font-size="14.04" font-family="Times New Roman"><tspan y="-265.37" x="113.42"> </tspan></text>
</g>
<clipPath id="cp41357">
<path transform="matrix(1,0,0,-1,0,841.92)" d="M .000008871 0 L 595.32 0 L 595.32 841.92 L .000008871 841.92 Z " fill-rule="evenodd"/>
</clipPath>
<g clip-path="url(#cp41357)">
<text xml:space="preserve" transform="matrix(1 0 -0 1 0 841.92)" font-size="14.04" font-family="Times New Roman"><tspan y="-265.37" x="120.5 127.56212 131.07212 143.55368 149.64705 155.15073 161.38449 165.23145 171.46521 178.42905 182.37429 194.95412 202.01624 209.07836 213.64136 220.47884 224.42407 229.92775 236.98987 240.34543 253.05162 262.4163 269.3661 276.4282 283.39204 289.6258 302.332 313.01646 319.2502 324.7679 331.00169 334.9469 341.06834 348.13044 351.9774 358.94123 366.00334 378.70954 389.39399 395.62776 399.57298 405.91908 416.60353 422.83729 426.7825 430.72773 437.69157 450.39778 461.0822 468.14433 475.20643 481.32786 485.27308 489.2183 501.79817 508.86027 514.9817 527.6879 534.6518 541.61569 545.5609 552.5248 559.48867">2.Masalani qo&#x2018;yish. Bunda masalaning matematik modeli va uning </tspan></text>
</g>
<clipPath id="cp41358">
<path transform="matrix(1,0,0,-1,0,841.92)" d="M .000008871 0 L 595.32 0 L 595.32 841.92 L .000008871 841.92 Z " fill-rule="evenodd"/>
</clipPath>
<g clip-path="url(#cp41358)">
<text xml:space="preserve" transform="matrix(1 0 -0 1 0 841.92)" font-size="14.04" font-family="Times New Roman"><tspan y="-241.13" x="85.104 91.33775 95.283 101.516757 112.201198">eleme</tspan></text>
</g>
<clipPath id="cp41359">
<path transform="matrix(1,0,0,-1,0,841.92)" d="M .000008871 0 L 595.32 0 L 595.32 841.92 L .000008871 841.92 Z " fill-rule="evenodd"/>
</clipPath>
<g clip-path="url(#cp41359)">
<text xml:space="preserve" transform="matrix(1 0 -0 1 0 841.92)" font-size="14.04" font-family="Times New Roman"><tspan y="-241.13" x="118.46 125.52212 129.46735 133.3143 139.54807 144.22339 148.18268 151.69268 157.78604 164.74988 168.69512 175.65895 179.60419 185.72563 192.78775 198.9092 205.87303 209.81827 213.32826">ntlari aniqlanadi. </tspan></text>
</g>
<clipPath id="cp41360">
<path transform="matrix(1,0,0,-1,0,841.92)" d="M .000008871 0 L 595.32 0 L 595.32 841.92 L .000008871 841.92 Z " fill-rule="evenodd"/>
</clipPath>
<g clip-path="url(#cp41360)">
<text xml:space="preserve" transform="matrix(1 0 -0 1 0 841.92)" font-size="14.04" font-family="Times New Roman"><tspan y="-241.13" x="216.89"> </tspan></text>
</g>
</g>
<g id="Layer-1" data-name="P">
<clipPath id="cp41361">
<path transform="matrix(1,0,0,-1,0,841.92)" d="M .000008871 0 L 595.32 0 L 595.32 841.92 L .000008871 841.92 Z " fill-rule="evenodd"/>
</clipPath>
<g clip-path="url(#cp41361)">
<text xml:space="preserve" transform="matrix(1 0 -0 1 0 841.92)" font-size="14.04" font-family="Times New Roman"><tspan y="-216.98" x="113.42"> </tspan></text>
</g>
<clipPath id="cp41362">
<path transform="matrix(1,0,0,-1,0,841.92)" d="M .000008871 0 L 595.32 0 L 595.32 841.92 L .000008871 841.92 Z " fill-rule="evenodd"/>
</clipPath>
<g clip-path="url(#cp41362)">
<text xml:space="preserve" transform="matrix(1 0 -0 1 0 841.92)" font-size="14.04" font-family="Times New Roman"><tspan y="-216.98" x="120.5 127.56212 131.07212 143.55368 149.64705 155.15073 161.38449 165.23145 171.46521 178.30269 188.98714 195.2209 199.16614 205.51222 216.19667 222.43044 226.37567 230.3209 237.28475 244.23455 254.91899 261.9811 269.0432 275.16465 279.10987 282.95683 290.01893 293.96415 300.67527 304.52223 311.58433 317.70576 321.65098 327.05638 334.11848 337.62849 344.42387 353.66218 360.72428 367.54774 374.51158 381.4754 386.97908 393.9429 397.88813 404.00956 410.9734 418.0355 424.26927 430.98039 438.04249 445.00633 448.95155 452.89677 463.5812 469.81498 473.7602 480.58366 487.4211 493.65489 499.88865 506.96479 510.91 521.5944 528.41787 535.48 541.71377 548.7899 555.62747 559.4744">3.Masala matematik modelini tuzish. Bu bosqichda optimal yechim qabul </tspan></text>
</g>
<clipPath id="cp41363">
<path transform="matrix(1,0,0,-1,0,841.92)" d="M .000008871 0 L 595.32 0 L 595.32 841.92 L .000008871 841.92 Z " fill-rule="evenodd"/>
</clipPath>
<g clip-path="url(#cp41363)">
<text xml:space="preserve" transform="matrix(1 0 -0 1 0 841.92)" font-size="14.04" font-family="Times New Roman"><tspan y="-192.86" x="85.104 92.166118 96.01308 99.95832 103.80528 109.210689 116.272808 123.23664 129.4704 132.9804 139.21416 144.59148 151.6536 157.05899 161.00423 167.12567 174.08951 181.15163 187.38539 194.46157 197.81713 208.61389 214.84766 218.7929 225.02666 235.7111 241.94487 245.8901 249.83535 256.89747 260.40748 271.06385 278.12596 285.18806 291.4218 295.36705 302.33088 306.2761 309.7861 313.59095 320.65306 326.8868 330.73377 336.13917 343.20127 346.71128 357.36766 363.6014 369.1191 375.35289 379.2981 385.53187 390.93727 394.88249 398.3925 405.41249 411.562 416.23735 422.4711 426.31806 432.43949 439.5016 443.4468">qilishga asoslangan matematik modelni tuzish masalasi qaraladi.</tspan></text>
</g>
<clipPath id="cp41364">
<path transform="matrix(1,0,0,-1,0,841.92)" d="M .000008871 0 L 595.32 0 L 595.32 841.92 L .000008871 841.92 Z " fill-rule="evenodd"/>
</clipPath>
<g clip-path="url(#cp41364)">
<text xml:space="preserve" transform="matrix(1 0 -0 1 0 841.92)" font-size="14.04" font-family="Times New Roman"><tspan y="-192.86" x="447.22"> </tspan></text>
</g>
</g>
<g id="Layer-1" data-name="P">
<clipPath id="cp41365">
<path transform="matrix(1,0,0,-1,0,841.92)" d="M .000008871 0 L 595.32 0 L 595.32 841.92 L .000008871 841.92 Z " fill-rule="evenodd"/>
</clipPath>
<g clip-path="url(#cp41365)">
<text xml:space="preserve" transform="matrix(1 0 -0 1 0 841.92)" font-size="14.04" font-family="Times New Roman"><tspan y="-168.74" x="113.42"> </tspan></text>
</g>
<clipPath id="cp41366">
<path transform="matrix(1,0,0,-1,0,841.92)" d="M .000008871 0 L 595.32 0 L 595.32 841.92 L .000008871 841.92 Z " fill-rule="evenodd"/>
</clipPath>
<g clip-path="url(#cp41366)">
<text xml:space="preserve" transform="matrix(1 0 -0 1 0 841.92)" font-size="14.04" font-family="Times New Roman"><tspan y="-168.74" x="120.5 127.56212 131.07212 143.55368 149.64705 155.15073 161.38449 165.23145 171.46521 176.85657 183.91869 190.04013 197.10225 204.06609 211.1282 216.51956 223.4834 230.44724 235.95092 242.91475 246.85999 253.09375 260.0576 267.1197 271.68269 275.6279 281.74934 288.81144 294.2028 304.88725 311.121 313.6482 317.5934 324.7819 335.46635 342.52845 346.47367 350.41889 356.5403 361.1033 368.1654 372.11064 377.50199 382.89335 389.7308 393.67604 400.73814 405.30113 409.24635 414.65174 421.71385 425.22386 430.5731 439.93778 446.99989 452.39125 459.35508 466.41719 471.82258 478.7864 482.63337 488.86714 495.83097 502.89308 509.12684 514.5182 518.3652 525.4273 531.6611 535.50808 539.35507 546.4172 552.53866 559.5025">4.Masala uchun boshlang&#x2018;ich ma'lumotlarni  yig&#x2018;ish. Bu bosqichda tuzilgan </tspan></text>
</g>
<clipPath id="cp41367">
<path transform="matrix(1,0,0,-1,0,841.92)" d="M .000008871 0 L 595.32 0 L 595.32 841.92 L .000008871 841.92 Z " fill-rule="evenodd"/>
</clipPath>
<g clip-path="url(#cp41367)">
<text xml:space="preserve" transform="matrix(1 0 -0 1 0 841.92)" font-size="14.04" font-family="Times New Roman"><tspan y="-144.5" x="85.104 95.90076 102.134517 106.07976 112.313518 122.997959 129.23172 133.17696 137.1222 144.18431 147.6943 158.35068 165.4128 172.47492 178.70868 182.65392 189.61775 195.85152 199.36151 210.01789 217.08 222.58368 226.09368 233.11368 240.20389 245.60929">matematik modelga mos bosh</tspan></text>
</g>
<clipPath id="cp41368">
<path transform="matrix(1,0,0,-1,0,841.92)" d="M .000008871 0 L 595.32 0 L 595.32 841.92 L .000008871 841.92 Z " fill-rule="evenodd"/>
</clipPath>
<g clip-path="url(#cp41368)">
<text xml:space="preserve" transform="matrix(1 0 -0 1 0 841.92)" font-size="14.04" font-family="Times New Roman"><tspan y="-144.5" x="252.89 256.73698 262.97074 269.93458 276.99668 281.55967 285.50489 291.6263 298.68843 302.19844 312.8548 319.08857 321.71403 325.65925 332.72135 343.4058 350.4679 354.41313 358.26008 364.49385 369.16917 372.67918 379.5026 383.4478 390.50993 395.0729 399.01814 402.96336 409.08479 416.14689">lang&#x2018;ich ma'lumotlar yig&#x2018;iladi</tspan></text>
</g>
<clipPath id="cp41369">
<path transform="matrix(1,0,0,-1,0,841.92)" d="M .000008871 0 L 595.32 0 L 595.32 841.92 L .000008871 841.92 Z " fill-rule="evenodd"/>
</clipPath>
<g clip-path="url(#cp41369)">
<text xml:space="preserve" transform="matrix(1 0 -0 1 0 841.92)" font-size="14.04" font-family="Times New Roman"><tspan y="-144.5" x="420.19"> </tspan></text>
</g>
</g>
<g id="Layer-1" data-name="P">
<clipPath id="cp41370">
<path transform="matrix(1,0,0,-1,0,841.92)" d="M .000008871 0 L 595.32 0 L 595.32 841.92 L .000008871 841.92 Z " fill-rule="evenodd"/>
</clipPath>
<g clip-path="url(#cp41370)">
<text xml:space="preserve" transform="matrix(1 0 -0 1 0 841.92)" font-size="14.04" font-family="Times New Roman"><tspan y="-120.38" x="113.42"> </tspan></text>
</g>
<clipPath id="cp41371">
<path transform="matrix(1,0,0,-1,0,841.92)" d="M .000008871 0 L 595.32 0 L 595.32 841.92 L .000008871 841.92 Z " fill-rule="evenodd"/>
</clipPath>
<g clip-path="url(#cp41371)">
<text xml:space="preserve" transform="matrix(1 0 -0 1 0 841.92)" font-size="14.04" font-family="Times New Roman"><tspan y="-120.38" x="120.5 127.56212 131.07212 143.55368 149.64705 155.15073 161.38449 165.23145 171.46521 178.42905 182.37429 185.88428 192.69368 198.92745 205.16121 212.23738 216.08434 221.58802 228.65013 232.16013 235.4876 244.85228 251.9144 255.4244 262.36018 269.324 274.82768 281.7915 285.73674 291.85816 298.92027 305.8841 312.11787 315.62788 322.64787 328.9097 333.4727 339.70646 346.6703 350.6155 354.56074 357.9163 364.9784 370.3838 377.34764 381.29286 384.80287 388.70597 394.8555 401.9176 405.76457 411.99833 418.96217 422.90739 429.96949 433.4795 444.13587 450.36964 455.88734 462.1211 466.0663 472.30009 475.66969 482.50715 488.7409 494.97468 502.0508 505.99604 509.94126 516.0627 523.1248 527.07009">5.Masalani yechish. Bu bosqichda kerakli usul tanlanib masala yechiladi.</tspan></text>
</g>
<clipPath id="cp41372">
<path transform="matrix(1,0,0,-1,0,841.92)" d="M .000008871 0 L 595.32 0 L 595.32 841.92 L .000008871 841.92 Z " fill-rule="evenodd"/>
</clipPath>
<g clip-path="url(#cp41372)">
<text xml:space="preserve" transform="matrix(1 0 -0 1 0 841.92)" font-size="14.04" font-family="Times New Roman"><tspan y="-120.38" x="530.86"> </tspan></text>
</g>
</g>
<g id="Layer-1" data-name="P">
<clipPath id="cp41373">
<path transform="matrix(1,0,0,-1,0,841.92)" d="M .000008871 0 L 595.32 0 L 595.32 841.92 L .000008871 841.92 Z " fill-rule="evenodd"/>
</clipPath>
<g clip-path="url(#cp41373)">
<text xml:space="preserve" transform="matrix(1 0 -0 1 0 841.92)" font-size="14.04" font-family="Times New Roman"><tspan y="-96.264" x="113.42"> </tspan></text>
</g>
<clipPath id="cp41374">
<path transform="matrix(1,0,0,-1,0,841.92)" d="M .000008871 0 L 595.32 0 L 595.32 841.92 L .000008871 841.92 Z " fill-rule="evenodd"/>
</clipPath>
<g clip-path="url(#cp41374)">
<text xml:space="preserve" transform="matrix(1 0 -0 1 0 841.92)" font-size="14.04" font-family="Times New Roman"><tspan y="-96.264" x="120.5 127.56212 131.07212 139.56632 145.80008 152.76392 156.70915 167.3936 174.45572 178.40096 185.82811 189.77335 196.00711 202.97095 206.91619 210.76314 214.70838 222.13553 229.09937 233.0446 236.89156 240.73851 246.24219 253.3043 256.8143 264.21339 273.57807 280.64018 287.94099 295.00309 301.96693 307.47059 314.43443 318.37965 324.50108 331.4649 338.527 344.76078 352.18794 359.15177 362.99873 366.94395 373.90779 380.96989 387.0913 394.1534 401.58058 408.5444 415.6065 419.45347 423.39869 434.08314 440.3169 444.26213 451.8016 458.63908 464.87284 471.1066 478.18275 482.0297 492.82646 500.36595 511.1627 517.3964 521.3417 527.68777 538.37216 544.6059 548.55117 552.4964 559.46029">6.Echimni tahlil qilish. Bu bosqichda olingan optimal yechim matematik </tspan></text>
</g>
<clipPath id="cp41375">
<path transform="matrix(1,0,0,-1,0,841.92)" d="M .000008871 0 L 595.32 0 L 595.32 841.92 L .000008871 841.92 Z " fill-rule="evenodd"/>
</clipPath>
<g clip-path="url(#cp41375)">
<text xml:space="preserve" transform="matrix(1 0 -0 1 0 841.92)" font-size="14.04" font-family="Times New Roman"><tspan y="-72.144" x="85.104 95.78844 102.850559 109.912677 116.14643 120.091678 123.60168 129.83544 135.21276 142.27487 147.68027 151.52722 158.58934 164.8231 168.3331 172.23622 178.38574 185.34958 189.29482 193.14177 197.087 200.597 207.53276 211.478 215.32495 219.27019 226.23403 232.46779 239.43163 243.37686">model asosida tahlil qilinadi.</tspan></text>
</g>
<clipPath id="cp41376">
<path transform="matrix(1,0,0,-1,0,841.92)" d="M .000008871 0 L 595.32 0 L 595.32 841.92 L .000008871 841.92 Z " fill-rule="evenodd"/>
</clipPath>
<g clip-path="url(#cp41376)">
<text xml:space="preserve" transform="matrix(1 0 -0 1 0 841.92)" font-size="14.04" font-family="Times New Roman"><tspan y="-72.144" x="246.89"> </tspan></text>
</g>
</g>
</g>
</g>
</svg>
