<?xml version="1.0" encoding="UTF-8" standalone="no"?>
<!DOCTYPE svg PUBLIC "-//W3C//DTD SVG 1.1//EN" "http://www.w3.org/Graphics/SVG/1.1/DTD/svg11.dtd">
<svg xmlns="http://www.w3.org/2000/svg" xmlns:xlink="http://www.w3.org/1999/xlink" version="1.1" width="595.32pt" height="841.92pt" viewBox="0 0 595.32 841.92">
<g enable-background="new">
<g>
<g id="Layer-1" data-name="Artifact">
<clipPath id="cp41377">
<path transform="matrix(1,0,0,-1,0,841.92)" d="M .000008871 0 L 595.32 0 L 595.32 841.92 L .000008871 841.92 Z " fill-rule="evenodd"/>
</clipPath>
<g clip-path="url(#cp41377)">
<text xml:space="preserve" transform="matrix(1 0 -0 1 0 841.92)" font-size="11.04" font-family="Calibri"><tspan y="-51.864" x="314.09 319.72999 325.36997">264</tspan></text>
</g>
<clipPath id="cp41378">
<path transform="matrix(1,0,0,-1,0,841.92)" d="M .000008871 0 L 595.32 0 L 595.32 841.92 L .000008871 841.92 Z " fill-rule="evenodd"/>
</clipPath>
<g clip-path="url(#cp41378)">
<text xml:space="preserve" transform="matrix(1 0 -0 1 0 841.92)" font-size="11.04" font-family="Calibri"><tspan y="-51.864" x="331.03"> </tspan></text>
</g>
<clipPath id="cp41379">
<path transform="matrix(1,0,0,-1,0,841.92)" d="M .000008871 0 L 595.32 0 L 595.32 841.92 L .000008871 841.92 Z " fill-rule="evenodd"/>
</clipPath>
<g clip-path="url(#cp41379)">
</g>
<clipPath id="cp41380">
<path transform="matrix(1,0,0,-1,0,841.92)" d="M .000008871 0 L 595.32 0 L 595.32 841.92 L .000008871 841.92 Z " fill-rule="evenodd"/>
</clipPath>
<g clip-path="url(#cp41380)">
<text xml:space="preserve" transform="matrix(1 0 -0 1 0 841.92)" font-size="11.04" font-family="Calibri"><tspan y="-38.4" x="85.104"> </tspan></text>
</g>
<clipPath id="cp41381">
<path transform="matrix(1,0,0,-1,0,841.92)" d="M .000008871 0 L 595.32 0 L 595.32 841.92 L .000008871 841.92 Z " fill-rule="evenodd"/>
</clipPath>
<g clip-path="url(#cp41381)">
</g>
</g>
<g id="Layer-1" data-name="P">
<clipPath id="cp41382">
<path transform="matrix(1,0,0,-1,0,841.92)" d="M .000008871 0 L 595.32 0 L 595.32 841.92 L .000008871 841.92 Z " fill-rule="evenodd"/>
</clipPath>
<g clip-path="url(#cp41382)">
<text xml:space="preserve" transform="matrix(1 0 -0 1 0 841.92)" font-size="14.04" font-family="Times New Roman"><tspan y="-772.56" x="113.42"> </tspan></text>
</g>
<clipPath id="cp41383">
<path transform="matrix(1,0,0,-1,0,841.92)" d="M .000008871 0 L 595.32 0 L 595.32 841.92 L .000008871 841.92 Z " fill-rule="evenodd"/>
</clipPath>
<g clip-path="url(#cp41383)">
<text xml:space="preserve" transform="matrix(1 0 -0 1 0 841.92)" font-size="14.04" font-family="Times New Roman"><tspan y="-772.56" x="120.5 127.56212 131.07212 141.12476 148.18688 152.03383 155.97907 166.66352 172.89728 176.84252 187.8639 194.70139 200.93515 207.16892 214.24509 218.19033 228.87477 235.93689 239.88213 250.90352 257.96565 264.08708 271.14918 278.113 282.05824 292.96733 300.02943 303.87638 307.72334 311.66856 317.07395 324.13606 327.64607 338.63938 348.7201 355.68394 359.53089 363.4761 374.16056 380.39433 384.33955 395.4873 402.32478 408.55854 414.7923 421.86845 425.81367">7.Optimal yechimni qabul qilish. Optimal yechim</tspan></text>
</g>
<clipPath id="cp41384">
<path transform="matrix(1,0,0,-1,0,841.92)" d="M .000008871 0 L 595.32 0 L 595.32 841.92 L .000008871 841.92 Z " fill-rule="evenodd"/>
</clipPath>
<g clip-path="url(#cp41384)">
<text xml:space="preserve" transform="matrix(1 0 -0 1 0 841.92)" font-size="14.04" font-family="Times New Roman"><tspan y="-772.56" x="436.87"> </tspan></text>
</g>
<clipPath id="cp41385">
<path transform="matrix(1,0,0,-1,0,841.92)" d="M .000008871 0 L 595.32 0 L 595.32 841.92 L .000008871 841.92 Z " fill-rule="evenodd"/>
</clipPath>
<g clip-path="url(#cp41385)">
<text xml:space="preserve" transform="matrix(1 0 -0 1 0 841.92)" font-size="14.04" font-family="Times New Roman"><tspan y="-772.56" x="447.94 455.0021 458.94734 462.79429 469.75813 476.72196 482.95573 490.03187 500.94096 508.00306 514.2368 518.0838 522.02908 525.87606 532.1098 535.9568 542.19058 546.86587 553.84378 559.9652">olingan natijalarga </tspan></text>
</g>
<clipPath id="cp41386">
<path transform="matrix(1,0,0,-1,0,841.92)" d="M .000008871 0 L 595.32 0 L 595.32 841.92 L .000008871 841.92 Z " fill-rule="evenodd"/>
</clipPath>
<g clip-path="url(#cp41386)">
<text xml:space="preserve" transform="matrix(1 0 -0 1 0 841.92)" font-size="14.04" font-family="Times New Roman"><tspan y="-748.3" x="85.104 91.33775 96.85548 103.81931 109.22472 113.16996 119.2914 126.353519 130.20047 137.26259 140.77259 151.42896 158.49108 162.43631 168.67008 175.74625 181.86769 187.37137 192.77677 196.62372 202.1274 205.63739 209.54051 215.77428 226.4868 233.54892 240.61104 244.458 251.52011 257.75389 264.83003 268.18559 275.24769 281.3691 288.33296 295.39506 299.34028 302.69584 309.75794 313.6049 317.5501 321.39707 328.45918 334.5806 341.6427 345.58793 349.09794">asoslanib mutaxassis tamonidan qabul qilinadi. </tspan></text>
</g>
<clipPath id="cp41387">
<path transform="matrix(1,0,0,-1,0,841.92)" d="M .000008871 0 L 595.32 0 L 595.32 841.92 L .000008871 841.92 Z " fill-rule="evenodd"/>
</clipPath>
<g clip-path="url(#cp41387)">
<text xml:space="preserve" transform="matrix(1 0 -0 1 0 841.92)" font-size="14.04" font-family="Times New Roman"><tspan y="-748.3" x="352.75"> </tspan></text>
</g>
</g>
<g id="Layer-1" data-name="P">
<clipPath id="cp41388">
<path transform="matrix(1,0,0,-1,0,841.92)" d="M .000008871 0 L 595.32 0 L 595.32 841.92 L .000008871 841.92 Z " fill-rule="evenodd"/>
</clipPath>
<g clip-path="url(#cp41388)">
<text xml:space="preserve" transform="matrix(1 0 -0 1 0 841.92)" font-size="14.04" font-family="Times New Roman"><tspan y="-724.18" x="113.42"> </tspan></text>
</g>
<clipPath id="cp41389">
<path transform="matrix(1,0,0,-1,0,841.92)" d="M .000008871 0 L 595.32 0 L 595.32 841.92 L .000008871 841.92 Z " fill-rule="evenodd"/>
</clipPath>
<g clip-path="url(#cp41389)">
<text xml:space="preserve" transform="matrix(1 0 -0 1 0 841.92)" font-size="14.04" font-family="Times New Roman"><tspan y="-724.18" x="120.5 129.02228 135.25605 142.33222 146.27745 156.9619 164.02402 167.96926 171.80217 178.86429 183.53961 189.77338 194.35042 198.19738 205.25949 209.0924 216.15453 223.21665 227.77965 232.45497 236.30193 243.36405 247.211 252.6164 259.6785 266.7406 272.97438 276.80729 280.65425 286.888 292.2934 299.3555 303.20246 307.87779 311.823 317.94444 323.34983 330.41194 334.24485 341.30696 348.27079 352.11775 355.9647 366.76145 372.9952 376.94044 380.88569 387.72315 393.9569 400.19068 407.2668 411.21205 421.89649 428.9586 432.9038 436.73674 443.79884 450.0326 456.99644 463.96028 467.9055 471.7384 478.8005 482.64747 486.59269 490.43965 495.84504 502.90715 509.87098 516.10476 520.05 530.7344 537.7965 544.85867 548.8039 559.4883">Echimni grafik ko&#x2018;rinishda tasvirlash optimal yechimni qabul qilishda muhim </tspan></text>
</g>
<clipPath id="cp41390">
<path transform="matrix(1,0,0,-1,0,841.92)" d="M .000008871 0 L 595.32 0 L 595.32 841.92 L .000008871 841.92 Z " fill-rule="evenodd"/>
</clipPath>
<g clip-path="url(#cp41390)">
<text xml:space="preserve" transform="matrix(1 0 -0 1 0 841.92)" font-size="14.04" font-family="Times New Roman"><tspan y="-700.06" x="85.104 89.77932 96.01308 102.99095 106.936199 113.998317 118.67364 122.043239 129.00707 136.06919 140.63219 144.57743 148.42438 155.4865 158.99649 162.45032 169.41416 176.47628 183.53839 189.77216 193.28215 204.06488 210.29865 212.82585 216.77109 223.8332 234.51766 241.57978 245.42673 249.37197 255.60573 260.28105 263.79106 270.61448 276.84825 283.92439 290.8882 297.95033 301.89555 305.2511 309.19633 315.43009 320.83549 327.89759 331.8428 336.4058 340.351 346.47245 353.53456 359.65599 366.71809 370.6633">faktor bo&#x2018;lib, unda ma'lumotlar yaqqol tasvirlanadi.</tspan></text>
</g>
<clipPath id="cp41391">
<path transform="matrix(1,0,0,-1,0,841.92)" d="M .000008871 0 L 595.32 0 L 595.32 841.92 L .000008871 841.92 Z " fill-rule="evenodd"/>
</clipPath>
<g clip-path="url(#cp41391)">
<text xml:space="preserve" transform="matrix(1 0 -0 1 0 841.92)" font-size="14.04" font-family="Times New Roman"><tspan y="-700.06" x="374.35"> </tspan></text>
</g>
</g>
<g id="Layer-1" data-name="P">
<clipPath id="cp41392">
<path transform="matrix(1,0,0,-1,0,841.92)" d="M .000008871 0 L 595.32 0 L 595.32 841.92 L .000008871 841.92 Z " fill-rule="evenodd"/>
</clipPath>
<g clip-path="url(#cp41392)">
<text xml:space="preserve" transform="matrix(1 0 -0 1 0 841.92)" font-size="14.04" font-family="Times New Roman,Bold" font-weight="bold"><tspan y="-675.7" x="113.42 124.34312 132.14936 136.82468 140.76992 152.29676 159.35887 163.20583 167.15106 174.1149 179.61858 187.42482 190.93482 202.41954 209.48166 214.88706 221.94918 225.79613 232.75997 238.26364 242.20888 249.88877 253.834 261.51387 268.57597 272.08598 275.53984 287.06666 294.12876 298.80409 305.03785 316.56468 323.62678 328.3021 332.3737 339.92723 343.50743 355.14659 362.20869 370.01493 376.1223 380.06755">Optimallash masalasining  matematik modeli</tspan></text>
</g>
<clipPath id="cp41393">
<path transform="matrix(1,0,0,-1,0,841.92)" d="M .000008871 0 L 595.32 0 L 595.32 841.92 L .000008871 841.92 Z " fill-rule="evenodd"/>
</clipPath>
<g clip-path="url(#cp41393)">
<text xml:space="preserve" transform="matrix(1 0 -0 1 0 841.92)" font-size="14.04" font-family="Times New Roman,Bold" font-weight="bold"><tspan y="-675.7" x="384.19"> </tspan></text>
</g>
</g>
<g id="Layer-1" data-name="P">
<clipPath id="cp41394">
<path transform="matrix(1,0,0,-1,0,841.92)" d="M .000008871 0 L 595.32 0 L 595.32 841.92 L .000008871 841.92 Z " fill-rule="evenodd"/>
</clipPath>
<g clip-path="url(#cp41394)">
<text xml:space="preserve" transform="matrix(1 0 -0 1 0 841.92)" font-size="14.04" font-family="Times New Roman"><tspan y="-645.7" x="113.42 123.50072 130.56284 134.40979 138.35503 149.03948 155.27324 159.21848 163.16371 169.39748 174.80287 181.86499 189.65718 200.34163">Optimallash ma</tspan></text>
</g>
<clipPath id="cp41395">
<path transform="matrix(1,0,0,-1,0,841.92)" d="M .000008871 0 L 595.32 0 L 595.32 841.92 L .000008871 841.92 Z " fill-rule="evenodd"/>
</clipPath>
<g clip-path="url(#cp41395)">
<text xml:space="preserve" transform="matrix(1 0 -0 1 0 841.92)" font-size="14.04" font-family="Times New Roman"><tspan y="-645.7" x="206.69 212.19368 218.42745 222.37268 228.60645 234.01184 237.95708 244.92092 248.86615 255.82999 262.8921 270.6843 281.36875 287.6025 291.54774 297.7815 308.46595 314.6997 318.64494 322.59016 329.65226 337.44447 348.1289 355.191 362.2531 368.48689 372.33384 376.1808 383.2429 387.1881 394.85398 401.8178 408.8799 415.84376 419.78898 426.62644 434.41865 441.48075 445.42597 450.1013">salasining mat&#x0435;matik mod&#x0435;lini oddiy bir </tspan></text>
</g>
</g>
<g id="Layer-1" data-name="P">
<clipPath id="cp41396">
<path transform="matrix(1,0,0,-1,0,841.92)" d="M .000008871 0 L 595.32 0 L 595.32 841.92 L .000008871 841.92 Z " fill-rule="evenodd"/>
</clipPath>
<g clip-path="url(#cp41396)">
<text xml:space="preserve" transform="matrix(1 0 -0 1 0 841.92)" font-size="14.04" font-family="Times New Roman"><tspan y="-645.7" x="458.14">h</tspan></text>
</g>
</g>
<g id="Layer-1" data-name="P">
<clipPath id="cp41397">
<path transform="matrix(1,0,0,-1,0,841.92)" d="M .000008871 0 L 595.32 0 L 595.32 841.92 L .000008871 841.92 Z " fill-rule="evenodd"/>
</clipPath>
<g clip-path="url(#cp41397)">
<text xml:space="preserve" transform="matrix(1 0 -0 1 0 841.92)" font-size="14.04" font-family="Times New Roman"><tspan y="-645.7" x="465.22 472.18385 476.0308 483.823 490.8851 497.00654 504.06864 511.03248 518.0946 525.76046">ol uchun k</tspan></text>
</g>
</g>
<g id="Layer-1" data-name="P">
<clipPath id="cp41398">
<path transform="matrix(1,0,0,-1,0,841.92)" d="M .000008871 0 L 595.32 0 L 595.32 841.92 L .000008871 841.92 Z " fill-rule="evenodd"/>
</clipPath>
<g clip-path="url(#cp41398)">
<text xml:space="preserve" transform="matrix(1 0 -0 1 0 841.92)" font-size="14.04" font-family="Times New Roman"><tspan y="-645.7" x="532.9 539.98007">o&#x2018;</tspan></text>
</g>
</g>
<g id="Layer-1" data-name="P">
<clipPath id="cp41399">
<path transform="matrix(1,0,0,-1,0,841.92)" d="M .000008871 0 L 595.32 0 L 595.32 841.92 L .000008871 841.92 Z " fill-rule="evenodd"/>
</clipPath>
<g clip-path="url(#cp41399)">
<text xml:space="preserve" transform="matrix(1 0 -0 1 0 841.92)" font-size="14.04" font-family="Times New Roman"><tspan y="-645.7" x="544.54 549.2153 553.06228 560.0261">rib </tspan></text>
</g>
</g>
<g id="Layer-1" data-name="P">
<clipPath id="cp41400">
<path transform="matrix(1,0,0,-1,0,841.92)" d="M .000008871 0 L 595.32 0 L 595.32 841.92 L .000008871 841.92 Z " fill-rule="evenodd"/>
</clipPath>
<g clip-path="url(#cp41400)">
<text xml:space="preserve" transform="matrix(1 0 -0 1 0 841.92)" font-size="14.04" font-family="Times New Roman"><tspan y="-621.58" x="85.104 91.33775 98.41391">chi</tspan></text>
</g>
</g>
<g id="Layer-1" data-name="P">
<clipPath id="cp41401">
<path transform="matrix(1,0,0,-1,0,841.92)" d="M .000008871 0 L 595.32 0 L 595.32 841.92 L .000008871 841.92 Z " fill-rule="evenodd"/>
</clipPath>
<g clip-path="url(#cp41401)">
<text xml:space="preserve" transform="matrix(1 0 -0 1 0 841.92)" font-size="14.04" font-family="Times New Roman"><tspan y="-621.58" x="102.26">q</tspan></text>
</g>
</g>
<g id="Layer-1" data-name="P">
<clipPath id="cp41402">
<path transform="matrix(1,0,0,-1,0,841.92)" d="M .000008871 0 L 595.32 0 L 595.32 841.92 L .000008871 841.92 Z " fill-rule="evenodd"/>
</clipPath>
<g clip-path="url(#cp41402)">
<text xml:space="preserve" transform="matrix(1 0 -0 1 0 841.92)" font-size="14.04" font-family="Times New Roman"><tspan y="-621.58" x="109.34 115.57375 122.42527 126.370517 130.21747 137.27959 140.78958 156.10721">aylik. T</tspan></text>
</g>
</g>
<g id="Layer-1" data-name="P">
<clipPath id="cp41403">
<path transform="matrix(1,0,0,-1,0,841.92)" d="M .000008871 0 L 595.32 0 L 595.32 841.92 L .000008871 841.92 Z " fill-rule="evenodd"/>
</clipPath>
<g clip-path="url(#cp41403)">
<text xml:space="preserve" transform="matrix(1 0 -0 1 0 841.92)" font-size="14.04" font-family="Times New Roman"><tspan y="-621.58" x="164.66 171.72212 176.28513 183.34725">o&#x2018;q&#x2018;</tspan></text>
</g>
</g>
<g id="Layer-1" data-name="P">
<clipPath id="cp41404">
<path transform="matrix(1,0,0,-1,0,841.92)" d="M .000008871 0 L 595.32 0 L 595.32 841.92 L .000008871 841.92 Z " fill-rule="evenodd"/>
</clipPath>
<g clip-path="url(#cp41404)">
<text xml:space="preserve" transform="matrix(1 0 -0 1 0 841.92)" font-size="14.04" font-family="Times New Roman"><tspan y="-621.58" x="187.94 192.61533 196.46228 211.808 218.87012 225.93224 230.49524 236.729 243.69284 249.9266 256.89045 260.83567 264.78089 280.00025 287.06236 293.2961 297.8591 304.09288 308.0381 314.15953 318.00648 325.06858 332.0324 338.26618 345.34233 351.46376 358.52586 373.87159 378.43458 385.49668 390.172 400.85646 407.0902 414.16636 420.40013 435.74586 441.9796 449.05577 455.28953 470.52293">ri burchakli paral&#x0435;lop&#x0435;p&#x0435;d formaga ega b</tspan></text>
</g>
</g>
<g id="Layer-1" data-name="P">
<clipPath id="cp41405">
<path transform="matrix(1,0,0,-1,0,841.92)" d="M .000008871 0 L 595.32 0 L 595.32 841.92 L .000008871 841.92 Z " fill-rule="evenodd"/>
</clipPath>
<g clip-path="url(#cp41405)">
<text xml:space="preserve" transform="matrix(1 0 -0 1 0 841.92)" font-size="14.04" font-family="Times New Roman"><tspan y="-621.58" x="477.94 485.02">o&#x2018;</tspan></text>
</g>
</g>
<g id="Layer-1" data-name="P">
<clipPath id="cp41406">
<path transform="matrix(1,0,0,-1,0,841.92)" d="M .000008871 0 L 595.32 0 L 595.32 841.92 L .000008871 841.92 Z " fill-rule="evenodd"/>
</clipPath>
<g clip-path="url(#cp41406)">
<text xml:space="preserve" transform="matrix(1 0 -0 1 0 841.92)" font-size="14.04" font-family="Times New Roman"><tspan y="-621.58" x="489.58 493.42695 500.48905 506.61048 513.6726 529.0183 536.08047 542.2019 549.1658 556.12966 559.9766">lgan bakni </tspan></text>
</g>
</g>
<g id="Layer-1" data-name="P">
<clipPath id="cp41407">
<path transform="matrix(1,0,0,-1,0,841.92)" d="M .000008871 0 L 595.32 0 L 595.32 841.92 L .000008871 841.92 Z " fill-rule="evenodd"/>
</clipPath>
<g clip-path="url(#cp41407)">
<text xml:space="preserve" transform="matrix(1 0 -0 1 0 841.92)" font-size="14.04" font-family="Times New Roman"><tspan y="-597.46" x="85.104 89.04924 96.11136 102.94884">loyi</tspan></text>
</g>
</g>
<g id="Layer-1" data-name="P">
<clipPath id="cp41408">
<path transform="matrix(1,0,0,-1,0,841.92)" d="M .000008871 0 L 595.32 0 L 595.32 841.92 L .000008871 841.92 Z " fill-rule="evenodd"/>
</clipPath>
<g clip-path="url(#cp41408)">
<text xml:space="preserve" transform="matrix(1 0 -0 1 0 841.92)" font-size="14.04" font-family="Times New Roman"><tspan y="-597.46" x="106.94">h</tspan></text>
</g>
</g>
<g id="Layer-1" data-name="P">
<clipPath id="cp41409">
<path transform="matrix(1,0,0,-1,0,841.92)" d="M .000008871 0 L 595.32 0 L 595.32 841.92 L .000008871 841.92 Z " fill-rule="evenodd"/>
</clipPath>
<g clip-path="url(#cp41409)">
<text xml:space="preserve" transform="matrix(1 0 -0 1 0 841.92)" font-size="14.04" font-family="Times New Roman"><tspan y="-597.46" x="114.02 120.14143 124.08668 130.20812 135.71179 142.67563 146.52259 150.46782 155.14315 158.9901 164.3955 171.45761 175.03781 182.09993 188.3337 192.8967 199.13047 206.0943 209.6745">alashtirish k&#x0435;rak b</tspan></text>
</g>
</g>
<g id="Layer-1" data-name="P">
<clipPath id="cp41410">
<path transform="matrix(1,0,0,-1,0,841.92)" d="M .000008871 0 L 595.32 0 L 595.32 841.92 L .000008871 841.92 Z " fill-rule="evenodd"/>
</clipPath>
<g clip-path="url(#cp41410)">
<text xml:space="preserve" transform="matrix(1 0 -0 1 0 841.92)" font-size="14.04" font-family="Times New Roman"><tspan y="-597.46" x="216.89 223.97">o&#x2018;</tspan></text>
</g>
</g>
<g id="Layer-1" data-name="P">
<clipPath id="cp41411">
<path transform="matrix(1,0,0,-1,0,841.92)" d="M .000008871 0 L 595.32 0 L 595.32 841.92 L .000008871 841.92 Z " fill-rule="evenodd"/>
</clipPath>
<g clip-path="url(#cp41411)">
<text xml:space="preserve" transform="matrix(1 0 -0 1 0 841.92)" font-size="14.04" font-family="Times New Roman"><tspan y="-597.46" x="228.53 232.37696 237.88063 241.72759 248.7897 252.2997 255.8518 265.2165 272.1663 279.13014 286.19224 292.426 296.02024 302.98408 309.9479 313.89314 320.85697 327.8208">lsin. Bunda uning </tspan></text>
</g>
</g>
<g id="Layer-1" data-name="P">
<clipPath id="cp41412">
<path transform="matrix(1,0,0,-1,0,841.92)" d="M .000008871 0 L 595.32 0 L 595.32 841.92 L .000008871 841.92 Z " fill-rule="evenodd"/>
</clipPath>
<g clip-path="url(#cp41412)">
<text xml:space="preserve" transform="matrix(1 0 -0 1 0 841.92)" font-size="14.04" font-family="Times New Roman"><tspan y="-597.46" x="331.51">h</tspan></text>
</g>
</g>
<g id="Layer-1" data-name="P">
<clipPath id="cp41413">
<path transform="matrix(1,0,0,-1,0,841.92)" d="M .000008871 0 L 595.32 0 L 595.32 841.92 L .000008871 841.92 Z " fill-rule="evenodd"/>
</clipPath>
<g clip-path="url(#cp41413)">
<text xml:space="preserve" transform="matrix(1 0 -0 1 0 841.92)" font-size="14.04" font-family="Times New Roman"><tspan y="-597.46" x="338.59 344.82377 348.67073 359.35517 363.30039 370.3625 374.3077">ajmini </tspan></text>
</g>
</g>
<g id="Layer-1" data-name="P">
<clipPath id="cp41414">
<path transform="matrix(1,0,0,-1,0,841.92)" d="M .000008871 0 L 595.32 0 L 595.32 841.92 L .000008871 841.92 Z " fill-rule="evenodd"/>
</clipPath>
<g clip-path="url(#cp41414)">
<text xml:space="preserve" transform="matrix(1 0 -0 1 0 841.92)" font-size="14.04" font-family="Times New Roman"><tspan y="-597.46" x="377.95">h</tspan></text>
</g>
</g>
<g id="Layer-1" data-name="P">
<clipPath id="cp41415">
<path transform="matrix(1,0,0,-1,0,841.92)" d="M .000008871 0 L 595.32 0 L 595.32 841.92 L .000008871 841.92 Z " fill-rule="evenodd"/>
</clipPath>
<g clip-path="url(#cp41415)">
<text xml:space="preserve" transform="matrix(1 0 -0 1 0 841.92)" font-size="14.04" font-family="Times New Roman"><tspan y="-597.46" x="384.91 388.85523 394.26063 401.32273 408.28657 412.23179 418.3532 423.7586 430.8207 434.4009 439.07624 446.04008 450.82774 461.51219 468.57429 472.5195 478.75328 484.15867 488.10389">isoblash formulasi </tspan></text>
</g>
</g>
<g id="Layer-1" data-name="P">
<clipPath id="cp41416">
<path transform="matrix(1,0,0,-1,0,841.92)" d="M .000008871 0 L 595.32 0 L 595.32 841.92 L .000008871 841.92 Z " fill-rule="evenodd"/>
</clipPath>
<g clip-path="url(#cp41416)">
<text xml:space="preserve" transform="matrix(1 0 -0 1 0 841.92)" font-size="14.04" font-family="Times New Roman"><tspan y="-597.46" x="491.74">q</tspan></text>
</g>
</g>
<g id="Layer-1" data-name="P">
<clipPath id="cp41417">
<path transform="matrix(1,0,0,-1,0,841.92)" d="M .000008871 0 L 595.32 0 L 595.32 841.92 L .000008871 841.92 Z " fill-rule="evenodd"/>
</clipPath>
<g clip-path="url(#cp41417)">
<text xml:space="preserve" transform="matrix(1 0 -0 1 0 841.92)" font-size="14.04" font-family="Times New Roman"><tspan y="-597.46" x="498.82 505.8821 512.7196 516.66488 523.727 529.84848 536.8123 540.75759 546.99136 553.8429 559.96438">uyidagicha </tspan></text>
</g>
</g>
<g id="Layer-1" data-name="P">
<clipPath id="cp41418">
<path transform="matrix(1,0,0,-1,0,841.92)" d="M .000008871 0 L 595.32 0 L 595.32 841.92 L .000008871 841.92 Z " fill-rule="evenodd"/>
</clipPath>
<g clip-path="url(#cp41418)">
<text xml:space="preserve" transform="matrix(1 0 -0 1 0 841.92)" font-size="14.04" font-family="Times New Roman"><tspan y="-573.31" x="85.104">b</tspan></text>
</g>
</g>
<g id="Layer-1" data-name="P">
<clipPath id="cp41419">
<path transform="matrix(1,0,0,-1,0,841.92)" d="M .000008871 0 L 595.32 0 L 595.32 841.92 L .000008871 841.92 Z " fill-rule="evenodd"/>
</clipPath>
<g clip-path="url(#cp41419)">
<text xml:space="preserve" transform="matrix(1 0 -0 1 0 841.92)" font-size="14.04" font-family="Times New Roman"><tspan y="-573.31" x="92.184 99.264">o&#x2018;</tspan></text>
</g>
</g>
<g id="Layer-1" data-name="P">
<clipPath id="cp41420">
<path transform="matrix(1,0,0,-1,0,841.92)" d="M .000008871 0 L 595.32 0 L 595.32 841.92 L .000008871 841.92 Z " fill-rule="evenodd"/>
</clipPath>
<g clip-path="url(#cp41420)">
<text xml:space="preserve" transform="matrix(1 0 -0 1 0 841.92)" font-size="14.04" font-family="Times New Roman"><tspan y="-573.31" x="103.82 107.76524 113.88668 120.85052 124.79576">ladi.</tspan></text>
</g>
</g>
<g id="Layer-1" data-name="P">
<clipPath id="cp41421">
<path transform="matrix(1,0,0,-1,0,841.92)" d="M .000008871 0 L 595.32 0 L 595.32 841.92 L .000008871 841.92 Z " fill-rule="evenodd"/>
</clipPath>
<g clip-path="url(#cp41421)">
<text xml:space="preserve" transform="matrix(1 0 -0 1 0 841.92)" font-size="14.04" font-family="Times New Roman"><tspan y="-573.31" x="128.3"> </tspan></text>
</g>
</g>
<g id="Layer-1" data-name="P">
<clipPath id="cp41422">
<path transform="matrix(1,0,0,-1,0,841.92)" d="M .000008871 0 L 595.32 0 L 595.32 841.92 L .000008871 841.92 Z " fill-rule="evenodd"/>
</clipPath>
<g clip-path="url(#cp41422)">
<text xml:space="preserve" transform="matrix(1 0 -0 1 0 841.92)" font-size="14.04" font-family="Times New Roman"><tspan y="-543.07" x="113.42"> </tspan></text>
</g>
<clipPath id="cp41423">
<path transform="matrix(1,0,0,-1,0,841.92)" d="M .000008871 0 L 595.32 0 L 595.32 841.92 L .000008871 841.92 Z " fill-rule="evenodd"/>
</clipPath>
<g clip-path="url(#cp41423)">
<text xml:space="preserve" transform="matrix(1 0 -0 1 0 841.92)" font-size="14.04" font-family="Times New Roman"><tspan y="-543.07" x="120.5"> </tspan></text>
</g>
<clipPath id="cp41424">
<path transform="matrix(1,0,0,-1,0,841.92)" d="M .000008871 0 L 595.32 0 L 595.32 841.92 L .000008871 841.92 Z " fill-rule="evenodd"/>
</clipPath>
<g clip-path="url(#cp41424)">
<text xml:space="preserve" transform="matrix(1 0 -0 1 0 841.92)" font-size="14.04" font-family="Times New Roman"><tspan y="-543.07" x="155.9"> </tspan></text>
</g>
<clipPath id="cp41425">
<path transform="matrix(1,0,0,-1,0,841.92)" d="M .000008871 0 L 595.32 0 L 595.32 841.92 L .000008871 841.92 Z " fill-rule="evenodd"/>
</clipPath>
<g clip-path="url(#cp41425)">
<text xml:space="preserve" transform="matrix(1 0 -0 1 0 841.92)" font-size="14.04" font-family="Times New Roman"><tspan y="-543.07" x="191.33"> </tspan></text>
</g>
<clipPath id="cp41426">
<path transform="matrix(1,0,0,-1,0,841.92)" d="M .000008871 0 L 595.32 0 L 595.32 841.92 L .000008871 841.92 Z " fill-rule="evenodd"/>
</clipPath>
<g clip-path="url(#cp41426)">
<text xml:space="preserve" transform="matrix(1 0 -0 1 0 841.92)" font-size="14.04" font-family="Times New Roman"><tspan y="-543.07" x="226.73 236.81072 244.72928 250.96305 255.63837 262.7145 267.2775">V=a&#x00b7;b&#x00b7;h</tspan></text>
</g>
<clipPath id="cp41427">
<path transform="matrix(1,0,0,-1,0,841.92)" d="M .000008871 0 L 595.32 0 L 595.32 841.92 L .000008871 841.92 Z " fill-rule="evenodd"/>
</clipPath>
<g clip-path="url(#cp41427)">
<text xml:space="preserve" transform="matrix(1 0 -0 1 0 841.92)" font-size="14.04" font-family="Times New Roman"><tspan y="-543.07" x="274.25"> </tspan></text>
</g>
<clipPath id="cp41428">
<path transform="matrix(1,0,0,-1,0,841.92)" d="M .000008871 0 L 595.32 0 L 595.32 841.92 L .000008871 841.92 Z " fill-rule="evenodd"/>
</clipPath>
<g clip-path="url(#cp41428)">
<text xml:space="preserve" transform="matrix(1 0 -0 1 0 841.92)" font-size="14.04" font-family="Times New Roman"><tspan y="-543.07" x="297.53"> </tspan></text>
</g>
<clipPath id="cp41429">
<path transform="matrix(1,0,0,-1,0,841.92)" d="M .000008871 0 L 595.32 0 L 595.32 841.92 L .000008871 841.92 Z " fill-rule="evenodd"/>
</clipPath>
<g clip-path="url(#cp41429)">
<text xml:space="preserve" transform="matrix(1 0 -0 1 0 841.92)" font-size="14.04" font-family="Times New Roman"><tspan y="-543.07" x="332.95"> </tspan></text>
</g>
<clipPath id="cp41430">
<path transform="matrix(1,0,0,-1,0,841.92)" d="M .000008871 0 L 595.32 0 L 595.32 841.92 L .000008871 841.92 Z " fill-rule="evenodd"/>
</clipPath>
<g clip-path="url(#cp41430)">
<text xml:space="preserve" transform="matrix(1 0 -0 1 0 841.92)" font-size="14.04" font-family="Times New Roman"><tspan y="-543.07" x="368.35"> </tspan></text>
</g>
<clipPath id="cp41431">
<path transform="matrix(1,0,0,-1,0,841.92)" d="M .000008871 0 L 595.32 0 L 595.32 841.92 L .000008871 841.92 Z " fill-rule="evenodd"/>
</clipPath>
<g clip-path="url(#cp41431)">
<text xml:space="preserve" transform="matrix(1 0 -0 1 0 841.92)" font-size="14.04" font-family="Times New Roman"><tspan y="-543.07" x="403.75"> </tspan></text>
</g>
<clipPath id="cp41432">
<path transform="matrix(1,0,0,-1,0,841.92)" d="M .000008871 0 L 595.32 0 L 595.32 841.92 L .000008871 841.92 Z " fill-rule="evenodd"/>
</clipPath>
<g clip-path="url(#cp41432)">
<text xml:space="preserve" transform="matrix(1 0 -0 1 0 841.92)" font-size="14.04" font-family="Times New Roman"><tspan y="-543.07" x="439.15"> </tspan></text>
</g>
</g>
<g id="Layer-1" data-name="P">
<clipPath id="cp41433">
<path transform="matrix(1,0,0,-1,0,841.92)" d="M .000008871 0 L 595.32 0 L 595.32 841.92 L .000008871 841.92 Z " fill-rule="evenodd"/>
</clipPath>
<g clip-path="url(#cp41433)">
<text xml:space="preserve" transform="matrix(1 0 -0 1 0 841.92)" font-size="14.04" font-family="Times New Roman"><tspan y="-518.95" x="113.42 120.48212 127.544239 131.05423 137.1476 141.82292 148.8991 155.13286 158.64286 164.87662 168.3445 171.70006 178.76218 182.27217 185.726 192.78812">bu &#x0435;rda a, b, h </tspan></text>
</g>
<clipPath id="cp41434">
<path transform="matrix(1,0,0,-1,0,841.92)" d="M .000008871 0 L 595.32 0 L 595.32 841.92 L .000008871 841.92 Z " fill-rule="evenodd"/>
</clipPath>
<g clip-path="url(#cp41434)">
<text xml:space="preserve" transform="matrix(1 0 -0 1 0 841.92)" font-size="14.04" font-family="Times New Roman"><tspan y="-518.95" x="196.25">&#x2013;</tspan></text>
</g>
<clipPath id="cp41435">
<path transform="matrix(1,0,0,-1,0,841.92)" d="M .000008871 0 L 595.32 0 L 595.32 841.92 L .000008871 841.92 Z " fill-rule="evenodd"/>
</clipPath>
<g clip-path="url(#cp41435)">
<text xml:space="preserve" transform="matrix(1 0 -0 1 0 841.92)" font-size="14.04" font-family="Times New Roman"><tspan y="-518.95" x="203.33 207.17696 214.23908 218.08603 223.49143 230.45526 237.51738 241.36434 248.32817 255.39029 258.9003 262.8034 269.03718 279.7497 286.8118 293.8739 297.72087 303.95463 308.62995 312.5892">idishning tamonlari.</tspan></text>
</g>
<clipPath id="cp41436">
<path transform="matrix(1,0,0,-1,0,841.92)" d="M .000008871 0 L 595.32 0 L 595.32 841.92 L .000008871 841.92 Z " fill-rule="evenodd"/>
</clipPath>
<g clip-path="url(#cp41436)">
<text xml:space="preserve" transform="matrix(1 0 -0 1 0 841.92)" font-size="14.04" font-family="Times New Roman"><tspan y="-518.95" x="316.03"> </tspan></text>
</g>
</g>
<g id="Layer-1" data-name="P">
<clipPath id="cp41437">
<path transform="matrix(1,0,0,-1,0,841.92)" d="M .000008871 0 L 595.32 0 L 595.32 841.92 L .000008871 841.92 Z " fill-rule="evenodd"/>
</clipPath>
<g clip-path="url(#cp41437)">
<text xml:space="preserve" transform="matrix(1 0 -0 1 0 841.92)" font-size="14.04" font-family="Times New Roman"><tspan y="-494.83" x="113.42"> </tspan></text>
</g>
<clipPath id="cp41438">
<path transform="matrix(1,0,0,-1,0,841.92)" d="M .000008871 0 L 595.32 0 L 595.32 841.92 L .000008871 841.92 Z " fill-rule="evenodd"/>
</clipPath>
<g clip-path="url(#cp41438)">
<text xml:space="preserve" transform="matrix(1 0 -0 1 0 841.92)" font-size="14.04" font-family="Times New Roman"><tspan y="-494.83" x="120.5 129.86469 136.9268 142.43048 153.11493 159.3487 164.86643 171.10019 175.04543 181.27919 188.24303 192.18827 199.1521 206.21422 211.7179 222.40235 228.63611 232.58135 238.81511 249.62592 255.85968 259.8049 263.75013 270.81224 276.31593 287.00038 294.06248 301.12458 307.35835 311.2053 315.05226 322.11436 326.05958 331.56327 335.41023 342.47233 348.59376 352.53898 357.94438 365.00648 370.51017 377.57228 383.6937 390.65754 397.71965 404.78175 410.28544 420.96989 427.20365 432.72135 438.9551 442.90034 449.1341 454.65184 461.61567 468.67778 473.24076 480.2046 484.1498 487.99678 491.942 497.34739 504.31123 508.25645 513.76016 517.7054 523.82687 530.889 536.2944 540.2396 544.8026 548.74789 555.5854 559.4324">Bu masalaning mat&#x0435;matik mod&#x0435;lini tuzish uchun masala qo&#x2018;yilishi tavsifini </tspan></text>
</g>
<clipPath id="cp41439">
<path transform="matrix(1,0,0,-1,0,841.92)" d="M .000008871 0 L 595.32 0 L 595.32 841.92 L .000008871 841.92 Z " fill-rule="evenodd"/>
</clipPath>
<g clip-path="url(#cp41439)">
<text xml:space="preserve" transform="matrix(1 0 -0 1 0 841.92)" font-size="14.04" font-family="Times New Roman"><tspan y="-470.71" x="85.104 92.166118 98.39987 102.962879 106.90812 112.31352 119.37564 123.08221 130.14432 136.37808 141.0534 147.18889 154.15273 158.09796 161.80452 168.86664 175.1004 178.94736 189.6318 193.57704 197.40996 207.58896 215.50753 222.47136 229.53348 236.49732 243.55944 247.26599 254.32811 260.56187 264.26844 268.21366 274.33509 281.29893 288.36103 292.0676 299.1297 306.1918 310.7548 314.60176 321.66386 327.78529 334.84739 338.55397 345.61607 351.7375 358.7996 362.50617 369.56828 374.13127 378.07649 384.31025 391.38639 397.62016 408.3046 412.24983 419.31193 423.25715 426.9637 433.08515 440.14726 443.9942 451.0563 455.00154 461.12297 466.52836 473.59046 477.29704 481.24226 487.476 491.32298 497.55674 504.63288 508.33946 514.5732 518.42019 522.26718 526.2124 531.6178 535.56307 542.6252 546.3317 553.16928 559.2907">b&#x0435;rish k&#x0435;rak: hajmi V=2000 ga t&#x0435;ng bo&#x2018;lgan bak o&#x2018;lchamini aniqlash talab etilsin va </tspan></text>
</g>
<clipPath id="cp41440">
<path transform="matrix(1,0,0,-1,0,841.92)" d="M .000008871 0 L 595.32 0 L 595.32 841.92 L .000008871 841.92 Z " fill-rule="evenodd"/>
</clipPath>
<g clip-path="url(#cp41440)">
<text xml:space="preserve" transform="matrix(1 0 -0 1 0 841.92)" font-size="14.04" font-family="Times New Roman"><tspan y="-446.47" x="85.104 92.166118 98.28755 105.34967 112.31351 116.25875 119.76875 123.671878 129.90564 136.78525 143.84737 148.52269 152.36965 158.60341 164.0088 171.07093 174.58092 181.51668 187.75045 194.71428 201.67812 208.74024 212.25023 219.27024 225.504 236.21652 239.79673 250.48117 256.71495 260.66017 266.89393 271.56925 275.5285 281.76228 285.7075 289.06306 296.12516 302.24659 306.1918 311.5972 315.54243 322.50627 326.01628 329.47013 336.53224 343.49607 347.44129 354.40513 361.46723 364.97724 375.6336 381.9797 388.81718 395.87928 402.94139 410.00349 413.9487 417.4587 421.99363 427.39903 431.34425 436.01957 439.86653 443.71348">bakni tayorlash uchun kam mat&#x0435;rial k&#x0435;tsin, uning maydoni (sirti)</tspan></text>
</g>
<clipPath id="cp41441">
<path transform="matrix(1,0,0,-1,0,841.92)" d="M .000008871 0 L 595.32 0 L 595.32 841.92 L .000008871 841.92 Z " fill-rule="evenodd"/>
</clipPath>
<g clip-path="url(#cp41441)">
<text xml:space="preserve" transform="matrix(1 0 -0 1 0 841.92)" font-size="14.04" font-family="Times New Roman"><tspan y="-446.47" x="448.78"> </tspan></text>
</g>
</g>
<g id="Layer-1" data-name="P">
<clipPath id="cp41442">
<path transform="matrix(1,0,0,-1,0,841.92)" d="M .000008871 0 L 595.32 0 L 595.32 841.92 L .000008871 841.92 Z " fill-rule="evenodd"/>
</clipPath>
<g clip-path="url(#cp41442)">
<text xml:space="preserve" transform="matrix(1 0 -0 1 0 841.92)" font-size="14.04" font-family="Times New Roman"><tspan y="-422.35" x="113.42"> </tspan></text>
</g>
<clipPath id="cp41443">
<path transform="matrix(1,0,0,-1,0,841.92)" d="M .000008871 0 L 595.32 0 L 595.32 841.92 L .000008871 841.92 Z " fill-rule="evenodd"/>
</clipPath>
<g clip-path="url(#cp41443)">
<text xml:space="preserve" transform="matrix(1 0 -0 1 0 841.92)" font-size="14.04" font-family="Times New Roman"><tspan y="-422.35" x="120.5"> </tspan></text>
</g>
<clipPath id="cp41444">
<path transform="matrix(1,0,0,-1,0,841.92)" d="M .000008871 0 L 595.32 0 L 595.32 841.92 L .000008871 841.92 Z " fill-rule="evenodd"/>
</clipPath>
<g clip-path="url(#cp41444)">
<text xml:space="preserve" transform="matrix(1 0 -0 1 0 841.92)" font-size="14.04" font-family="Times New Roman"><tspan y="-422.35" x="155.9"> </tspan></text>
</g>
<clipPath id="cp41445">
<path transform="matrix(1,0,0,-1,0,841.92)" d="M .000008871 0 L 595.32 0 L 595.32 841.92 L .000008871 841.92 Z " fill-rule="evenodd"/>
</clipPath>
<g clip-path="url(#cp41445)">
<text xml:space="preserve" transform="matrix(1 0 -0 1 0 841.92)" font-size="14.04" font-family="Times New Roman"><tspan y="-422.35" x="191.33"> </tspan></text>
</g>
<clipPath id="cp41446">
<path transform="matrix(1,0,0,-1,0,841.92)" d="M .000008871 0 L 595.32 0 L 595.32 841.92 L .000008871 841.92 Z " fill-rule="evenodd"/>
</clipPath>
<g clip-path="url(#cp41446)">
<text xml:space="preserve" transform="matrix(1 0 -0 1 0 841.92)" font-size="14.04" font-family="Times New Roman,Italic" font-style="italic"><tspan y="-422.35" x="226.73 233.79212 243.1568 250.21892 253.72891">S=2&#x00b7; </tspan></text>
</g>
<clipPath id="cp41447">
<path transform="matrix(1,0,0,-1,0,841.92)" d="M .000008871 0 L 595.32 0 L 595.32 841.92 L .000008871 841.92 Z " fill-rule="evenodd"/>
</clipPath>
<g clip-path="url(#cp41447)">
<text xml:space="preserve" transform="matrix(1 0 -0 1 0 841.92)" font-size="14.04" font-family="Times New Roman,Italic" font-style="italic"><tspan y="-422.35" x="257.21 262.6154 269.6775 273.1875 280.2075 289.68449 294.27558 301.33769 310.70234 317.76445 322.43977 325.94978 329.40364 336.12879 341.9975">[a&#x00b7;b+(a+b) &#x00b7;h].</tspan></text>
</g>
<clipPath id="cp41448">
<path transform="matrix(1,0,0,-1,0,841.92)" d="M .000008871 0 L 595.32 0 L 595.32 841.92 L .000008871 841.92 Z " fill-rule="evenodd"/>
</clipPath>
<g clip-path="url(#cp41448)">
<text xml:space="preserve" transform="matrix(1 0 -0 1 0 841.92)" font-size="14.04" font-family="Times New Roman"><tspan y="-422.35" x="345.31"> </tspan></text>
</g>
<clipPath id="cp41449">
<path transform="matrix(1,0,0,-1,0,841.92)" d="M .000008871 0 L 595.32 0 L 595.32 841.92 L .000008871 841.92 Z " fill-rule="evenodd"/>
</clipPath>
<g clip-path="url(#cp41449)">
<text xml:space="preserve" transform="matrix(1 0 -0 1 0 841.92)" font-size="14.04" font-family="Times New Roman"><tspan y="-422.35" x="368.35"> </tspan></text>
</g>
<clipPath id="cp41450">
<path transform="matrix(1,0,0,-1,0,841.92)" d="M .000008871 0 L 595.32 0 L 595.32 841.92 L .000008871 841.92 Z " fill-rule="evenodd"/>
</clipPath>
<g clip-path="url(#cp41450)">
<text xml:space="preserve" transform="matrix(1 0 -0 1 0 841.92)" font-size="14.04" font-family="Times New Roman"><tspan y="-422.35" x="403.75"> </tspan></text>
</g>
<clipPath id="cp41451">
<path transform="matrix(1,0,0,-1,0,841.92)" d="M .000008871 0 L 595.32 0 L 595.32 841.92 L .000008871 841.92 Z " fill-rule="evenodd"/>
</clipPath>
<g clip-path="url(#cp41451)">
<text xml:space="preserve" transform="matrix(1 0 -0 1 0 841.92)" font-size="14.04" font-family="Times New Roman"><tspan y="-422.35" x="439.15"> </tspan></text>
</g>
</g>
<g id="Layer-1" data-name="P">
<clipPath id="cp41452">
<path transform="matrix(1,0,0,-1,0,841.92)" d="M .000008871 0 L 595.32 0 L 595.32 841.92 L .000008871 841.92 Z " fill-rule="evenodd"/>
</clipPath>
<g clip-path="url(#cp41452)">
<text xml:space="preserve" transform="matrix(1 0 -0 1 0 841.92)" font-size="14.04" font-family="Times New Roman"><tspan y="-398.23" x="113.42 122.784679 129.73447 136.79659 143.8587 150.09247 156.94399 160.52419 171.20864 177.4424 182.96013 189.1939 193.13913 199.26058 206.3227 210.16965 217.13349 224.1956 227.7056 238.47429 244.70806 248.65329 254.88706 265.5715 271.80528 275.7505 279.6957 286.7578 290.26783 300.9242 307.9863 315.0484 321.28218 325.2274 329.1726">Bunday masalaning mat&#x0435;matik mod&#x0435;li </tspan></text>
</g>
</g>
<g id="Layer-1" data-name="P">
<clipPath id="cp41453">
<path transform="matrix(1,0,0,-1,0,841.92)" d="M .000008871 0 L 595.32 0 L 595.32 841.92 L .000008871 841.92 Z " fill-rule="evenodd"/>
</clipPath>
<g clip-path="url(#cp41453)">
<text xml:space="preserve" transform="matrix(1 0 -0 1 0 841.92)" font-size="14.04" font-family="Times New Roman"><tspan y="-398.23" x="332.83">q</tspan></text>
</g>
</g>
<g id="Layer-1" data-name="P">
<clipPath id="cp41454">
<path transform="matrix(1,0,0,-1,0,841.92)" d="M .000008871 0 L 595.32 0 L 595.32 841.92 L .000008871 841.92 Z " fill-rule="evenodd"/>
</clipPath>
<g clip-path="url(#cp41454)">
<text xml:space="preserve" transform="matrix(1 0 -0 1 0 841.92)" font-size="14.04" font-family="Times New Roman"><tspan y="-398.23" x="339.91 346.87385 353.7113 357.65653 364.71864 370.9524 378.02854 381.8755 388.10926 395.1854 401.41917 404.92918 411.73857 418.80067 425.03443 428.88139 432.8266 438.94804 446.01014 449.95536">uyidagicha yoziladi.</tspan></text>
</g>
</g>
<g id="Layer-1" data-name="P">
<clipPath id="cp41455">
<path transform="matrix(1,0,0,-1,0,841.92)" d="M .000008871 0 L 595.32 0 L 595.32 841.92 L .000008871 841.92 Z " fill-rule="evenodd"/>
</clipPath>
<g clip-path="url(#cp41455)">
<text xml:space="preserve" transform="matrix(1 0 -0 1 0 841.92)" font-size="14.04" font-family="Times New Roman"><tspan y="-398.23" x="453.46"> </tspan></text>
</g>
</g>
<g id="Layer-1" data-name="P">
<clipPath id="cp41456">
<path transform="matrix(1,0,0,-1,0,841.92)" d="M .000008871 0 L 595.32 0 L 595.32 841.92 L .000008871 841.92 Z " fill-rule="evenodd"/>
</clipPath>
<g clip-path="url(#cp41456)">
<text xml:space="preserve" transform="matrix(1 0 -0 1 0 841.92)" font-size="14.04" font-family="Times New Roman"><tspan y="-374.09" x="113.42"> </tspan></text>
</g>
<clipPath id="cp41457">
<path transform="matrix(1,0,0,-1,0,841.92)" d="M .000008871 0 L 595.32 0 L 595.32 841.92 L .000008871 841.92 Z " fill-rule="evenodd"/>
</clipPath>
<g clip-path="url(#cp41457)">
<text xml:space="preserve" transform="matrix(1 0 -0 1 0 841.92)" font-size="14.04" font-family="Times New Roman"><tspan y="-374.09" x="120.5"> </tspan></text>
</g>
<clipPath id="cp41458">
<path transform="matrix(1,0,0,-1,0,841.92)" d="M .000008871 0 L 595.32 0 L 595.32 841.92 L .000008871 841.92 Z " fill-rule="evenodd"/>
</clipPath>
<g clip-path="url(#cp41458)">
<text xml:space="preserve" transform="matrix(1 0 -0 1 0 841.92)" font-size="14.04" font-family="Times New Roman"><tspan y="-374.09" x="155.9"> </tspan></text>
</g>
<clipPath id="cp41459">
<path transform="matrix(1,0,0,-1,0,841.92)" d="M .000008871 0 L 595.32 0 L 595.32 841.92 L .000008871 841.92 Z " fill-rule="evenodd"/>
</clipPath>
<g clip-path="url(#cp41459)">
<text xml:space="preserve" transform="matrix(1 0 -0 1 0 841.92)" font-size="14.04" font-family="Times New Roman"><tspan y="-374.09" x="191.33"> </tspan></text>
</g>
<clipPath id="cp41460">
<path transform="matrix(1,0,0,-1,0,841.92)" d="M .000008871 0 L 595.32 0 L 595.32 841.92 L .000008871 841.92 Z " fill-rule="evenodd"/>
</clipPath>
<g clip-path="url(#cp41460)">
<text xml:space="preserve" transform="matrix(1 0 -0 1 0 841.92)" font-size="14.04" font-family="Times New Roman,Italic" font-style="italic"><tspan y="-374.09" x="226.73 235.25228 244.72928 251.7914 265.8314 275.9121 279.75907">F=S&#x2192;min</tspan></text>
</g>
<clipPath id="cp41461">
<path transform="matrix(1,0,0,-1,0,841.92)" d="M .000008871 0 L 595.32 0 L 595.32 841.92 L .000008871 841.92 Z " fill-rule="evenodd"/>
</clipPath>
<g clip-path="url(#cp41461)">
<text xml:space="preserve" transform="matrix(1 0 -0 1 0 841.92)" font-size="14.04" font-family="Times New Roman,Italic" font-style="italic"><tspan y="-374.09" x="286.73"> </tspan></text>
</g>
</g>
<g id="Layer-1" data-name="P">
<clipPath id="cp41462">
<path transform="matrix(1,0,0,-1,0,841.92)" d="M .000008871 0 L 595.32 0 L 595.32 841.92 L .000008871 841.92 Z " fill-rule="evenodd"/>
</clipPath>
<g clip-path="url(#cp41462)">
<text xml:space="preserve" transform="matrix(1 0 -0 1 0 841.92)" font-size="14.04" font-family="Times New Roman,Italic" font-style="italic"><tspan y="-349.97" x="113.42"> </tspan></text>
</g>
<clipPath id="cp41463">
<path transform="matrix(1,0,0,-1,0,841.92)" d="M .000008871 0 L 595.32 0 L 595.32 841.92 L .000008871 841.92 Z " fill-rule="evenodd"/>
</clipPath>
<g clip-path="url(#cp41463)">
<text xml:space="preserve" transform="matrix(1 0 -0 1 0 841.92)" font-size="14.04" font-family="Times New Roman,Italic" font-style="italic"><tspan y="-349.97" x="120.5"> </tspan></text>
</g>
<clipPath id="cp41464">
<path transform="matrix(1,0,0,-1,0,841.92)" d="M .000008871 0 L 595.32 0 L 595.32 841.92 L .000008871 841.92 Z " fill-rule="evenodd"/>
</clipPath>
<g clip-path="url(#cp41464)">
<text xml:space="preserve" transform="matrix(1 0 -0 1 0 841.92)" font-size="14.04" font-family="Times New Roman,Italic" font-style="italic"><tspan y="-349.97" x="155.9"> </tspan></text>
</g>
<clipPath id="cp41465">
<path transform="matrix(1,0,0,-1,0,841.92)" d="M .000008871 0 L 595.32 0 L 595.32 841.92 L .000008871 841.92 Z " fill-rule="evenodd"/>
</clipPath>
<g clip-path="url(#cp41465)">
<text xml:space="preserve" transform="matrix(1 0 -0 1 0 841.92)" font-size="14.04" font-family="Times New Roman,Italic" font-style="italic"><tspan y="-349.97" x="191.33"> </tspan></text>
</g>
<clipPath id="cp41466">
<path transform="matrix(1,0,0,-1,0,841.92)" d="M .000008871 0 L 595.32 0 L 595.32 841.92 L .000008871 841.92 Z " fill-rule="evenodd"/>
</clipPath>
<g clip-path="url(#cp41466)">
<text xml:space="preserve" transform="matrix(1 0 -0 1 0 841.92)" font-size="14.04" font-family="Times New Roman,Italic" font-style="italic"><tspan y="-349.97" x="226.73 235.25228 244.72928 251.7914 258.75526 265.7191">V=2000</tspan></text>
</g>
<clipPath id="cp41467">
<path transform="matrix(1,0,0,-1,0,841.92)" d="M .000008871 0 L 595.32 0 L 595.32 841.92 L .000008871 841.92 Z " fill-rule="evenodd"/>
</clipPath>
<g clip-path="url(#cp41467)">
<text xml:space="preserve" transform="matrix(1 0 -0 1 0 841.92)" font-size="14.04" font-family="Times New Roman,Italic" font-style="italic"><tspan y="-349.97" x="272.69"> </tspan></text>
</g>
<clipPath id="cp41468">
<path transform="matrix(1,0,0,-1,0,841.92)" d="M .000008871 0 L 595.32 0 L 595.32 841.92 L .000008871 841.92 Z " fill-rule="evenodd"/>
</clipPath>
<g clip-path="url(#cp41468)">
<text xml:space="preserve" transform="matrix(1 0 -0 1 0 841.92)" font-size="14.04" font-family="Times New Roman"><tspan y="-349.97" x="297.53">.</tspan></text>
</g>
<clipPath id="cp41469">
<path transform="matrix(1,0,0,-1,0,841.92)" d="M .000008871 0 L 595.32 0 L 595.32 841.92 L .000008871 841.92 Z " fill-rule="evenodd"/>
</clipPath>
<g clip-path="url(#cp41469)">
<text xml:space="preserve" transform="matrix(1 0 -0 1 0 841.92)" font-size="14.04" font-family="Times New Roman"><tspan y="-349.97" x="301.01"> </tspan></text>
</g>
<clipPath id="cp41470">
<path transform="matrix(1,0,0,-1,0,841.92)" d="M .000008871 0 L 595.32 0 L 595.32 841.92 L .000008871 841.92 Z " fill-rule="evenodd"/>
</clipPath>
<g clip-path="url(#cp41470)">
<text xml:space="preserve" transform="matrix(1 0 -0 1 0 841.92)" font-size="14.04" font-family="Times New Roman"><tspan y="-349.97" x="332.95"> </tspan></text>
</g>
<clipPath id="cp41471">
<path transform="matrix(1,0,0,-1,0,841.92)" d="M .000008871 0 L 595.32 0 L 595.32 841.92 L .000008871 841.92 Z " fill-rule="evenodd"/>
</clipPath>
<g clip-path="url(#cp41471)">
<text xml:space="preserve" transform="matrix(1 0 -0 1 0 841.92)" font-size="14.04" font-family="Times New Roman"><tspan y="-349.97" x="368.35"> </tspan></text>
</g>
<clipPath id="cp41472">
<path transform="matrix(1,0,0,-1,0,841.92)" d="M .000008871 0 L 595.32 0 L 595.32 841.92 L .000008871 841.92 Z " fill-rule="evenodd"/>
</clipPath>
<g clip-path="url(#cp41472)">
<text xml:space="preserve" transform="matrix(1 0 -0 1 0 841.92)" font-size="14.04" font-family="Times New Roman"><tspan y="-349.97" x="403.75"> </tspan></text>
</g>
<clipPath id="cp41473">
<path transform="matrix(1,0,0,-1,0,841.92)" d="M .000008871 0 L 595.32 0 L 595.32 841.92 L .000008871 841.92 Z " fill-rule="evenodd"/>
</clipPath>
<g clip-path="url(#cp41473)">
<text xml:space="preserve" transform="matrix(1 0 -0 1 0 841.92)" font-size="14.04" font-family="Times New Roman"><tspan y="-349.97" x="439.15"> </tspan></text>
</g>
</g>
<g id="Layer-1" data-name="P">
<clipPath id="cp41474">
<path transform="matrix(1,0,0,-1,0,841.92)" d="M .000008871 0 L 595.32 0 L 595.32 841.92 L .000008871 841.92 Z " fill-rule="evenodd"/>
</clipPath>
<g clip-path="url(#cp41474)">
<text xml:space="preserve" transform="matrix(1 0 -0 1 0 841.92)" font-size="14.04" font-family="Times New Roman"><tspan y="-325.73" x="113.42 122.784679 129.84679 140.15215 146.98963 154.05175 160.2855 167.24935 174.31147 184.61682">Bu yozuv V</tspan></text>
</g>
</g>
<g id="Layer-1" data-name="P">
<clipPath id="cp41475">
<path transform="matrix(1,0,0,-1,0,841.92)" d="M .000008871 0 L 595.32 0 L 595.32 841.92 L .000008871 841.92 Z " fill-rule="evenodd"/>
</clipPath>
<g clip-path="url(#cp41475)">
<text xml:space="preserve" transform="matrix(1 0 -0 1 0 841.92)" font-size="14.04" font-family="Times New Roman"><tspan y="-325.73" x="194.81">=</tspan></text>
</g>
</g>
<g id="Layer-1" data-name="P">
<clipPath id="cp41476">
<path transform="matrix(1,0,0,-1,0,841.92)" d="M .000008871 0 L 595.32 0 L 595.32 841.92 L .000008871 841.92 Z " fill-rule="evenodd"/>
</clipPath>
<g clip-path="url(#cp41476)">
<text xml:space="preserve" transform="matrix(1 0 -0 1 0 841.92)" font-size="14.04" font-family="Times New Roman"><tspan y="-325.73" x="202.61 209.57384 216.63596 223.5998 230.56363 240.86899 246.27439 253.3365 259.57026 264.24559 268.09254 278.3979 285.36174 289.20869 293.1539 299.38768 306.3515 316.65687 324.4631 334.64213 341.70423 347.82566 351.6726 355.61784 361.8516 365.69856 369.5455 376.6076 383.57145 387.51667 397.82203 408.50648 412.4517 419.5138 423.459 434.14347 440.37724 444.32246 448.26768 454.3891 459.89277 466.8566 470.70356 474.64878 479.3241 483.17106 488.57646 495.63856 505.9439 516.6283 522.86209 525.3893 532.4514 539.51358 544.91897 548.8642 555.82809 559.67507">2000 shart bilan S kattalikni minimallashtirish ma'nosini </tspan></text>
</g>
</g>
<g id="Layer-1" data-name="P">
<clipPath id="cp41477">
<path transform="matrix(1,0,0,-1,0,841.92)" d="M .000008871 0 L 595.32 0 L 595.32 841.92 L .000008871 841.92 Z " fill-rule="evenodd"/>
</clipPath>
<g clip-path="url(#cp41477)">
<text xml:space="preserve" transform="matrix(1 0 -0 1 0 841.92)" font-size="14.04" font-family="Times New Roman"><tspan y="-301.61" x="85.104 92.166118 96.01308 99.95832 106.92216 110.8674 115.542728 121.66416 128.62799 132.57323 136.08322 139.53705 148.90174 155.85153 162.91365 166.85889 170.36888 177.17829">bildiradi. Buni yu</tspan></text>
</g>
</g>
<g id="Layer-1" data-name="P">
<clipPath id="cp41478">
<path transform="matrix(1,0,0,-1,0,841.92)" d="M .000008871 0 L 595.32 0 L 595.32 841.92 L .000008871 841.92 Z " fill-rule="evenodd"/>
</clipPath>
<g clip-path="url(#cp41478)">
<text xml:space="preserve" transform="matrix(1 0 -0 1 0 841.92)" font-size="14.04" font-family="Times New Roman"><tspan y="-301.61" x="184.34">q</tspan></text>
</g>
</g>
<g id="Layer-1" data-name="P">
<clipPath id="cp41479">
<path transform="matrix(1,0,0,-1,0,841.92)" d="M .000008871 0 L 595.32 0 L 595.32 841.92 L .000008871 841.92 Z " fill-rule="evenodd"/>
</clipPath>
<g clip-path="url(#cp41479)">
<text xml:space="preserve" transform="matrix(1 0 -0 1 0 841.92)" font-size="14.04" font-family="Times New Roman"><tspan y="-301.61" x="191.33 198.39212 202.95513 206.80208 213.8642 219.98564 227.04776 230.89472 234.83995 241.07372 245.63672 252.69884 258.9326 262.4426 268.53596 274.0396 281.00346 286.5071 290.35408 296.58784 303.55168 307.39863 314.46073">oridagilarga asoslanib </tspan></text>
</g>
</g>
<g id="Layer-1" data-name="P">
<clipPath id="cp41480">
<path transform="matrix(1,0,0,-1,0,841.92)" d="M .000008871 0 L 595.32 0 L 595.32 841.92 L .000008871 841.92 Z " fill-rule="evenodd"/>
</clipPath>
<g clip-path="url(#cp41480)">
<text xml:space="preserve" transform="matrix(1 0 -0 1 0 841.92)" font-size="14.04" font-family="Times New Roman"><tspan y="-301.61" x="318.07">q</tspan></text>
</g>
</g>
<g id="Layer-1" data-name="P">
<clipPath id="cp41481">
<path transform="matrix(1,0,0,-1,0,841.92)" d="M .000008871 0 L 595.32 0 L 595.32 841.92 L .000008871 841.92 Z " fill-rule="evenodd"/>
</clipPath>
<g clip-path="url(#cp41481)">
<text xml:space="preserve" transform="matrix(1 0 -0 1 0 841.92)" font-size="14.04" font-family="Times New Roman"><tspan y="-301.61" x="325.03 332.0921 338.92958 342.8748 349.9369 356.17066 363.1345 367.0797 373.20115 380.26325 386.497 390.00703 396.8164 403.8785 410.11228 416.34605 427.04454 430.98976 437.2235">uyidagicha yozamiz.</tspan></text>
</g>
</g>
<g id="Layer-1" data-name="P">
<clipPath id="cp41482">
<path transform="matrix(1,0,0,-1,0,841.92)" d="M .000008871 0 L 595.32 0 L 595.32 841.92 L .000008871 841.92 Z " fill-rule="evenodd"/>
</clipPath>
<g clip-path="url(#cp41482)">
<text xml:space="preserve" transform="matrix(1 0 -0 1 0 841.92)" font-size="14.04" font-family="Times New Roman"><tspan y="-301.61" x="440.86"> </tspan></text>
</g>
</g>
<g id="Layer-1" data-name="P">
<clipPath id="cp41483">
<path transform="matrix(1,0,0,-1,0,841.92)" d="M .000008871 0 L 595.32 0 L 595.32 841.92 L .000008871 841.92 Z " fill-rule="evenodd"/>
</clipPath>
<g clip-path="url(#cp41483)">
<text xml:space="preserve" transform="matrix(1 0 -0 1 0 841.92)" font-size="14.04" font-family="Times New Roman"><tspan y="-277.49" x="113.42"> </tspan></text>
</g>
<clipPath id="cp41484">
<path transform="matrix(1,0,0,-1,0,841.92)" d="M .000008871 0 L 595.32 0 L 595.32 841.92 L .000008871 841.92 Z " fill-rule="evenodd"/>
</clipPath>
<g clip-path="url(#cp41484)">
<text xml:space="preserve" transform="matrix(1 0 -0 1 0 841.92)" font-size="14.04" font-family="Times New Roman"><tspan y="-277.49" x="120.5"> </tspan></text>
</g>
<clipPath id="cp41485">
<path transform="matrix(1,0,0,-1,0,841.92)" d="M .000008871 0 L 595.32 0 L 595.32 841.92 L .000008871 841.92 Z " fill-rule="evenodd"/>
</clipPath>
<g clip-path="url(#cp41485)">
<text xml:space="preserve" transform="matrix(1 0 -0 1 0 841.92)" font-size="14.04" font-family="Times New Roman"><tspan y="-277.49" x="155.9"> </tspan></text>
</g>
<clipPath id="cp41486">
<path transform="matrix(1,0,0,-1,0,841.92)" d="M .000008871 0 L 595.32 0 L 595.32 841.92 L .000008871 841.92 Z " fill-rule="evenodd"/>
</clipPath>
<g clip-path="url(#cp41486)">
<text xml:space="preserve" transform="matrix(1 0 -0 1 0 841.92)" font-size="14.04" font-family="Times New Roman"><tspan y="-277.49" x="191.33"> </tspan></text>
</g>
<clipPath id="cp41487">
<path transform="matrix(1,0,0,-1,0,841.92)" d="M .000008871 0 L 595.32 0 L 595.32 841.92 L .000008871 841.92 Z " fill-rule="evenodd"/>
</clipPath>
<g clip-path="url(#cp41487)">
<text xml:space="preserve" transform="matrix(1 0 -0 1 0 841.92)" font-size="14.04" font-family="Times New Roman,Italic" font-style="italic"><tspan y="-277.49" x="226.73 235.25228 244.72928 251.7914 255.30139 258.75526 264.16065 271.22276 274.73277 281.75276 291.22975 295.82084 302.88294 312.2476 319.3097">F=2&#x00b7; [a&#x00b7;b+(a+b)</tspan></text>
</g>
<clipPath id="cp41488">
<path transform="matrix(1,0,0,-1,0,841.92)" d="M .000008871 0 L 595.32 0 L 595.32 841.92 L .000008871 841.92 Z " fill-rule="evenodd"/>
</clipPath>
<g clip-path="url(#cp41488)">
<text xml:space="preserve" transform="matrix(1 0 -0 1 0 841.92)" font-size="14.04" font-family="Times New Roman,Italic" font-style="italic"><tspan y="-277.49" x="324.07"> </tspan></text>
</g>
<clipPath id="cp41489">
<path transform="matrix(1,0,0,-1,0,841.92)" d="M .000008871 0 L 595.32 0 L 595.32 841.92 L .000008871 841.92 Z " fill-rule="evenodd"/>
</clipPath>
<g clip-path="url(#cp41489)">
<text xml:space="preserve" transform="matrix(1 0 -0 1 0 841.92)" font-size="14.04" font-family="Times New Roman,Italic" font-style="italic"><tspan y="-277.49" x="327.55 330.90556 337.743 343.37306 357.41307 367.49378 371.439">&#x00b7;h]&#x2192;min</tspan></text>
</g>
<clipPath id="cp41490">
<path transform="matrix(1,0,0,-1,0,841.92)" d="M .000008871 0 L 595.32 0 L 595.32 841.92 L .000008871 841.92 Z " fill-rule="evenodd"/>
</clipPath>
<g clip-path="url(#cp41490)">
<text xml:space="preserve" transform="matrix(1 0 -0 1 0 841.92)" font-size="14.04" font-family="Times New Roman,Italic" font-style="italic"><tspan y="-277.49" x="378.43"> </tspan></text>
</g>
</g>
<g id="Layer-1" data-name="P">
<clipPath id="cp41491">
<path transform="matrix(1,0,0,-1,0,841.92)" d="M .000008871 0 L 595.32 0 L 595.32 841.92 L .000008871 841.92 Z " fill-rule="evenodd"/>
</clipPath>
<g clip-path="url(#cp41491)">
<text xml:space="preserve" transform="matrix(1 0 -0 1 0 841.92)" font-size="14.04" font-family="Times New Roman,Italic" font-style="italic"><tspan y="-253.37" x="113.42"> </tspan></text>
</g>
<clipPath id="cp41492">
<path transform="matrix(1,0,0,-1,0,841.92)" d="M .000008871 0 L 595.32 0 L 595.32 841.92 L .000008871 841.92 Z " fill-rule="evenodd"/>
</clipPath>
<g clip-path="url(#cp41492)">
<text xml:space="preserve" transform="matrix(1 0 -0 1 0 841.92)" font-size="14.04" font-family="Times New Roman,Italic" font-style="italic"><tspan y="-253.37" x="120.5"> </tspan></text>
</g>
<clipPath id="cp41493">
<path transform="matrix(1,0,0,-1,0,841.92)" d="M .000008871 0 L 595.32 0 L 595.32 841.92 L .000008871 841.92 Z " fill-rule="evenodd"/>
</clipPath>
<g clip-path="url(#cp41493)">
<text xml:space="preserve" transform="matrix(1 0 -0 1 0 841.92)" font-size="14.04" font-family="Times New Roman,Italic" font-style="italic"><tspan y="-253.37" x="155.9"> </tspan></text>
</g>
<clipPath id="cp41494">
<path transform="matrix(1,0,0,-1,0,841.92)" d="M .000008871 0 L 595.32 0 L 595.32 841.92 L .000008871 841.92 Z " fill-rule="evenodd"/>
</clipPath>
<g clip-path="url(#cp41494)">
<text xml:space="preserve" transform="matrix(1 0 -0 1 0 841.92)" font-size="14.04" font-family="Times New Roman,Italic" font-style="italic"><tspan y="-253.37" x="191.33"> </tspan></text>
</g>
<clipPath id="cp41495">
<path transform="matrix(1,0,0,-1,0,841.92)" d="M .000008871 0 L 595.32 0 L 595.32 841.92 L .000008871 841.92 Z " fill-rule="evenodd"/>
</clipPath>
<g clip-path="url(#cp41495)">
<text xml:space="preserve" transform="matrix(1 0 -0 1 0 841.92)" font-size="14.04" font-family="Times New Roman,Italic" font-style="italic"><tspan y="-253.37" x="226.73 233.79212 237.30211 244.32212 247.70575 254.76787 264.13255 271.19465 278.15849 285.1223">a&#x00b7;b&#x00b7;h=2000</tspan></text>
</g>
<clipPath id="cp41496">
<path transform="matrix(1,0,0,-1,0,841.92)" d="M .000008871 0 L 595.32 0 L 595.32 841.92 L .000008871 841.92 Z " fill-rule="evenodd"/>
</clipPath>
<g clip-path="url(#cp41496)">
<text xml:space="preserve" transform="matrix(1 0 -0 1 0 841.92)" font-size="14.04" font-family="Times New Roman,Italic" font-style="italic"><tspan y="-253.37" x="292.13"> </tspan></text>
</g>
<clipPath id="cp41497">
<path transform="matrix(1,0,0,-1,0,841.92)" d="M .000008871 0 L 595.32 0 L 595.32 841.92 L .000008871 841.92 Z " fill-rule="evenodd"/>
</clipPath>
<g clip-path="url(#cp41497)">
<text xml:space="preserve" transform="matrix(1 0 -0 1 0 841.92)" font-size="14.04" font-family="Times New Roman,Italic" font-style="italic"><tspan y="-253.37" x="297.53">.</tspan></text>
</g>
<clipPath id="cp41498">
<path transform="matrix(1,0,0,-1,0,841.92)" d="M .000008871 0 L 595.32 0 L 595.32 841.92 L .000008871 841.92 Z " fill-rule="evenodd"/>
</clipPath>
<g clip-path="url(#cp41498)">
<text xml:space="preserve" transform="matrix(1 0 -0 1 0 841.92)" font-size="14.04" font-family="Times New Roman,Italic" font-style="italic"><tspan y="-253.37" x="301.01"> </tspan></text>
</g>
<clipPath id="cp41499">
<path transform="matrix(1,0,0,-1,0,841.92)" d="M .000008871 0 L 595.32 0 L 595.32 841.92 L .000008871 841.92 Z " fill-rule="evenodd"/>
</clipPath>
<g clip-path="url(#cp41499)">
<text xml:space="preserve" transform="matrix(1 0 -0 1 0 841.92)" font-size="14.04" font-family="Times New Roman,Italic" font-style="italic"><tspan y="-253.37" x="332.95"> </tspan></text>
</g>
<clipPath id="cp41500">
<path transform="matrix(1,0,0,-1,0,841.92)" d="M .000008871 0 L 595.32 0 L 595.32 841.92 L .000008871 841.92 Z " fill-rule="evenodd"/>
</clipPath>
<g clip-path="url(#cp41500)">
<text xml:space="preserve" transform="matrix(1 0 -0 1 0 841.92)" font-size="14.04" font-family="Times New Roman"><tspan y="-253.37" x="368.35"> </tspan></text>
</g>
<clipPath id="cp41501">
<path transform="matrix(1,0,0,-1,0,841.92)" d="M .000008871 0 L 595.32 0 L 595.32 841.92 L .000008871 841.92 Z " fill-rule="evenodd"/>
</clipPath>
<g clip-path="url(#cp41501)">
<text xml:space="preserve" transform="matrix(1 0 -0 1 0 841.92)" font-size="14.04" font-family="Times New Roman"><tspan y="-253.37" x="403.75"> </tspan></text>
</g>
</g>
<g id="Layer-1" data-name="P">
<clipPath id="cp41502">
<path transform="matrix(1,0,0,-1,0,841.92)" d="M .000008871 0 L 595.32 0 L 595.32 841.92 L .000008871 841.92 Z " fill-rule="evenodd"/>
</clipPath>
<g clip-path="url(#cp41502)">
<text xml:space="preserve" transform="matrix(1 0 -0 1 0 841.92)" font-size="14.04" font-family="Times New Roman"><tspan y="-229.13" x="113.42 122.784679 129.84679 137.98998 144.95381 151.91765 158.97977 163.54277 167.488 173.72177 180.68561 184.63085 190.03624 197.00008 200.94532 207.17908 211.74208 218.8042 225.03797 233.06884 239.90631 246.14008 253.21625 259.45 267.60728 274.66938 281.73149 286.29447 293.35658 298.0319 304.99574 312.05784 320.20106 327.1649 334.227 344.91145 351.97355 358.811 365.8731 369.81834 376.0521 380.72743 388.88468 395.94679 402.0682 409.1303 416.09416 423.15626 431.29948 438.36158 444.483 449.15834 455.3921 462.46824 470.4991 477.56123 484.62333 489.1863 493.03327 500.09538 506.2168 513.27896 521.4221 526.8275 533.88967 540.1234 544.6864 548.63168 555.5955 559.4425">Bu bog&#x2018;lanishlarga yana ko&#x2018;proq kompyut&#x0435;r uchun k&#x0435;rak bo&#x2018;lgan shartni </tspan></text>
</g>
<clipPath id="cp41503">
<path transform="matrix(1,0,0,-1,0,841.92)" d="M .000008871 0 L 595.32 0 L 595.32 841.92 L .000008871 841.92 Z " fill-rule="evenodd"/>
</clipPath>
<g clip-path="url(#cp41503)">
<text xml:space="preserve" transform="matrix(1 0 -0 1 0 841.92)" font-size="14.04" font-family="Times New Roman"><tspan y="-204.98" x="85.104 92.166118 99.22823 103.79124 109.19664 116.25876 122.492519 133.17696 137.1222 143.35596 146.86595 152.22924 161.59392 168.65604 173.92104 179.42472 186.48683 192.60828 197.2836 201.22884 206.49384">qo&#x2018;shamiz. Bu shart t</tspan></text>
</g>
</g>
<g id="Layer-1" data-name="P">
<clipPath id="cp41504">
<path transform="matrix(1,0,0,-1,0,841.92)" d="M .000008871 0 L 595.32 0 L 595.32 841.92 L .000008871 841.92 Z " fill-rule="evenodd"/>
</clipPath>
<g clip-path="url(#cp41504)">
<text xml:space="preserve" transform="matrix(1 0 -0 1 0 841.92)" font-size="14.04" font-family="Times New Roman"><tspan y="-204.98" x="210.65 217.73">o&#x2018;</tspan></text>
</g>
</g>
<g id="Layer-1" data-name="P">
<clipPath id="cp41505">
<path transform="matrix(1,0,0,-1,0,841.92)" d="M .000008871 0 L 595.32 0 L 595.32 841.92 L .000008871 841.92 Z " fill-rule="evenodd"/>
</clipPath>
<g clip-path="url(#cp41505)">
<text xml:space="preserve" transform="matrix(1 0 -0 1 0 841.92)" font-size="14.04" font-family="Times New Roman"><tspan y="-204.98" x="222.29 226.96532 230.81227 237.87439 244.83823 249.51355 255.74732 262.7252 268.95896 275.9228 281.31416 285.1611 292.2232 302.90766 309.96977 317.03187 320.97709 327.0985 331.77384 335.71907 341.1104 345.78575">rtburchak tomonlari fa</tspan></text>
</g>
</g>
<g id="Layer-1" data-name="P">
<clipPath id="cp41506">
<path transform="matrix(1,0,0,-1,0,841.92)" d="M .000008871 0 L 595.32 0 L 595.32 841.92 L .000008871 841.92 Z " fill-rule="evenodd"/>
</clipPath>
<g clip-path="url(#cp41506)">
<text xml:space="preserve" transform="matrix(1 0 -0 1 0 841.92)" font-size="14.04" font-family="Times New Roman"><tspan y="-204.98" x="352.03">q</tspan></text>
</g>
</g>
<g id="Layer-1" data-name="P">
<clipPath id="cp41507">
<path transform="matrix(1,0,0,-1,0,841.92)" d="M .000008871 0 L 595.32 0 L 595.32 841.92 L .000008871 841.92 Z " fill-rule="evenodd"/>
</clipPath>
<g clip-path="url(#cp41507)">
<text xml:space="preserve" transform="matrix(1 0 -0 1 0 841.92)" font-size="14.04" font-family="Times New Roman"><tspan y="-204.98" x="359.11 365.2314 369.17665 374.568 385.25245 392.31455 397.8182 404.8803 411.00175 414.94697">at musbat </tspan></text>
</g>
</g>
<g id="Layer-1" data-name="P">
<clipPath id="cp41508">
<path transform="matrix(1,0,0,-1,0,841.92)" d="M .000008871 0 L 595.32 0 L 595.32 841.92 L .000008871 841.92 Z " fill-rule="evenodd"/>
</clipPath>
<g clip-path="url(#cp41508)">
<text xml:space="preserve" transform="matrix(1 0 -0 1 0 841.92)" font-size="14.04" font-family="Times New Roman"><tspan y="-204.98" x="420.31">q</tspan></text>
</g>
</g>
<g id="Layer-1" data-name="P">
<clipPath id="cp41509">
<path transform="matrix(1,0,0,-1,0,841.92)" d="M .000008871 0 L 595.32 0 L 595.32 841.92 L .000008871 841.92 Z " fill-rule="evenodd"/>
</clipPath>
<g clip-path="url(#cp41509)">
<text xml:space="preserve" transform="matrix(1 0 -0 1 0 841.92)" font-size="14.04" font-family="Times New Roman"><tspan y="-204.98" x="427.39 431.33525 438.29908 449.09584 455.3296 459.2748 466.23866 472.4724 477.86378 483.9852 491.0473 497.28108 502.56013">iymatga ega b</tspan></text>
</g>
</g>
<g id="Layer-1" data-name="P">
<clipPath id="cp41510">
<path transform="matrix(1,0,0,-1,0,841.92)" d="M .000008871 0 L 595.32 0 L 595.32 841.92 L .000008871 841.92 Z " fill-rule="evenodd"/>
</clipPath>
<g clip-path="url(#cp41510)">
<text xml:space="preserve" transform="matrix(1 0 -0 1 0 841.92)" font-size="14.04" font-family="Times New Roman"><tspan y="-204.98" x="509.74 516.82">o&#x2018;</tspan></text>
</g>
</g>
<g id="Layer-1" data-name="P">
<clipPath id="cp41511">
<path transform="matrix(1,0,0,-1,0,841.92)" d="M .000008871 0 L 595.32 0 L 595.32 841.92 L .000008871 841.92 Z " fill-rule="evenodd"/>
</clipPath>
<g clip-path="url(#cp41511)">
<text xml:space="preserve" transform="matrix(1 0 -0 1 0 841.92)" font-size="14.04" font-family="Times New Roman"><tspan y="-204.98" x="521.38 525.227 529.17227 534.57766 541.5415 545.48678 549.2074 556.17129 560.01828">lishligi </tspan></text>
</g>
</g>
<g id="Layer-1" data-name="P">
<clipPath id="cp41512">
<path transform="matrix(1,0,0,-1,0,841.92)" d="M .000008871 0 L 595.32 0 L 595.32 841.92 L .000008871 841.92 Z " fill-rule="evenodd"/>
</clipPath>
<g clip-path="url(#cp41512)">
<text xml:space="preserve" transform="matrix(1 0 -0 1 0 841.92)" font-size="14.04" font-family="Times New Roman"><tspan y="-180.86" x="85.104 90.60768 97.6698 103.79124 108.46656 112.31352 116.258769 123.2226 127.16785 131.84317 135.35317 141.43248 148.26996 154.50373 157.03093 164.09305 168.03829 174.01932 180.25308 183.76308 189.84239 196.90451 200.4145 206.36746 213.42958 221.23583 228.29795 231.80794 237.88726 247.96797 254.07537 261.0392 268.10133 271.94828 279.01039 285.24415 291.35157 302.036 308.26979 313.78749 320.02125 323.8682 330.10197 337.1781 341.02507 347.9889 355.051 361.03205 368.09416 375.05799 379.0032 382.94844 393.63288 399.86665 403.81187 409.91929 416.15306 422.27449 429.33659 433.2818 443.96626 447.91148 454.8753 458.82054 464.80158 468.7468 474.98057 478.8275 485.06129 490.46669 497.52879 504.4926 508.33958 515.4017 522.36557 528.47299">shartidir, ya'ni a, b, h&#x003e;0. U holda masalaning optimal &#x0435;chimini izlashning y</tspan></text>
</g>
</g>
<g id="Layer-1" data-name="P">
<clipPath id="cp41513">
<path transform="matrix(1,0,0,-1,0,841.92)" d="M .000008871 0 L 595.32 0 L 595.32 841.92 L .000008871 841.92 Z " fill-rule="evenodd"/>
</clipPath>
<g clip-path="url(#cp41513)">
<text xml:space="preserve" transform="matrix(1 0 -0 1 0 841.92)" font-size="14.04" font-family="Times New Roman"><tspan y="-180.86" x="535.9 542.1338 549.20999 556.1738 560.0208">angi </tspan></text>
</g>
</g>
<g id="Layer-1" data-name="P">
<clipPath id="cp41514">
<path transform="matrix(1,0,0,-1,0,841.92)" d="M .000008871 0 L 595.32 0 L 595.32 841.92 L .000008871 841.92 Z " fill-rule="evenodd"/>
</clipPath>
<g clip-path="url(#cp41514)">
<text xml:space="preserve" transform="matrix(1 0 -0 1 0 841.92)" font-size="14.04" font-family="Times New Roman"><tspan y="-156.74" x="85.104 92.166118 99.22823 106.06571 110.010959 117.073078 123.19451 130.15834 134.10358 137.61357 148.26995 154.50371 158.44895 164.79503 175.47948 181.71324 185.65848 189.60372 196.66584 200.0214 210.70584 217.76796 224.83008 231.06385 235.00908 238.85604 245.91815 252.15192 255.66191 261.75526 268.81736 275.05113 278.56114 285.4969">quyidagi mat&#x0435;matik mod&#x0435;liga ega bo</tspan></text>
</g>
</g>
<g id="Layer-1" data-name="P">
<clipPath id="cp41515">
<path transform="matrix(1,0,0,-1,0,841.92)" d="M .000008871 0 L 595.32 0 L 595.32 841.92 L .000008871 841.92 Z " fill-rule="evenodd"/>
</clipPath>
<g clip-path="url(#cp41515)">
<text xml:space="preserve" transform="matrix(1 0 -0 1 0 841.92)" font-size="14.04" font-family="Times New Roman"><tspan y="-156.74" x="292.85">&#x2018;</tspan></text>
</g>
</g>
<g id="Layer-1" data-name="P">
<clipPath id="cp41516">
<path transform="matrix(1,0,0,-1,0,841.92)" d="M .000008871 0 L 595.32 0 L 595.32 841.92 L .000008871 841.92 Z " fill-rule="evenodd"/>
</clipPath>
<g clip-path="url(#cp41516)">
<text xml:space="preserve" transform="matrix(1 0 -0 1 0 841.92)" font-size="14.04" font-family="Times New Roman"><tspan y="-156.74" x="297.41 301.35523 307.589 318.27345 322.21867 328.45243">lamiz:</tspan></text>
</g>
</g>
<g id="Layer-1" data-name="P">
<clipPath id="cp41517">
<path transform="matrix(1,0,0,-1,0,841.92)" d="M .000008871 0 L 595.32 0 L 595.32 841.92 L .000008871 841.92 Z " fill-rule="evenodd"/>
</clipPath>
<g clip-path="url(#cp41517)">
<text xml:space="preserve" transform="matrix(1 0 -0 1 0 841.92)" font-size="14.04" font-family="Times New Roman"><tspan y="-156.74" x="332.35"> </tspan></text>
</g>
</g>
<g id="Layer-1" data-name="P">
<clipPath id="cp41518">
<path transform="matrix(1,0,0,-1,0,841.92)" d="M .000008871 0 L 595.32 0 L 595.32 841.92 L .000008871 841.92 Z " fill-rule="evenodd"/>
</clipPath>
<g clip-path="url(#cp41518)">
<text xml:space="preserve" transform="matrix(1 0 -0 1 0 841.92)" font-size="14.04" font-family="Times New Roman"><tspan y="-132.5" x="113.42"> </tspan></text>
</g>
<clipPath id="cp41519">
<path transform="matrix(1,0,0,-1,0,841.92)" d="M .000008871 0 L 595.32 0 L 595.32 841.92 L .000008871 841.92 Z " fill-rule="evenodd"/>
</clipPath>
<g clip-path="url(#cp41519)">
<text xml:space="preserve" transform="matrix(1 0 -0 1 0 841.92)" font-size="14.04" font-family="Times New Roman"><tspan y="-132.5" x="120.5"> </tspan></text>
</g>
<clipPath id="cp41520">
<path transform="matrix(1,0,0,-1,0,841.92)" d="M .000008871 0 L 595.32 0 L 595.32 841.92 L .000008871 841.92 Z " fill-rule="evenodd"/>
</clipPath>
<g clip-path="url(#cp41520)">
<text xml:space="preserve" transform="matrix(1 0 -0 1 0 841.92)" font-size="14.04" font-family="Times New Roman"><tspan y="-132.5" x="155.9"> </tspan></text>
</g>
<clipPath id="cp41521">
<path transform="matrix(1,0,0,-1,0,841.92)" d="M .000008871 0 L 595.32 0 L 595.32 841.92 L .000008871 841.92 Z " fill-rule="evenodd"/>
</clipPath>
<g clip-path="url(#cp41521)">
<text xml:space="preserve" transform="matrix(1 0 -0 1 0 841.92)" font-size="14.04" font-family="Times New Roman,Italic" font-style="italic"><tspan y="-132.5" x="191.33">&#x041c;</tspan></text>
</g>
</g>
<g id="Layer-1" data-name="P">
<clipPath id="cp41522">
<path transform="matrix(1,0,0,-1,0,841.92)" d="M .000008871 0 L 595.32 0 L 595.32 841.92 L .000008871 841.92 Z " fill-rule="evenodd"/>
</clipPath>
<g clip-path="url(#cp41522)">
<text xml:space="preserve" transform="matrix(1 0 -0 1 0 841.92)" font-size="14.04" font-family="Times New Roman,Italic" font-style="italic"><tspan y="-132.5" x="202.97">F</tspan></text>
</g>
</g>
<g id="Layer-1" data-name="P">
<clipPath id="cp41523">
<path transform="matrix(1,0,0,-1,0,841.92)" d="M .000008871 0 L 595.32 0 L 595.32 841.92 L .000008871 841.92 Z " fill-rule="evenodd"/>
</clipPath>
<g clip-path="url(#cp41523)">
<text xml:space="preserve" transform="matrix(1 0 -0 1 0 841.92)" font-size="14.04" font-family="Times New Roman,Italic" font-style="italic"><tspan y="-132.5" x="211.49"> </tspan></text>
</g>
</g>
<g id="Layer-1" data-name="P">
<clipPath id="cp41524">
<path transform="matrix(1,0,0,-1,0,841.92)" d="M .000008871 0 L 595.32 0 L 595.32 841.92 L .000008871 841.92 Z " fill-rule="evenodd"/>
</clipPath>
<g clip-path="url(#cp41524)">
<text xml:space="preserve" transform="matrix(1 0 -0 1 0 841.92)" font-size="14.04" font-family="Times New Roman,Italic" font-style="italic"><tspan y="-132.5" x="214.97 219.64533 229.72605 241.0142 245.68953 249.19953">(&#x0426;&#x0424;)  </tspan></text>
</g>
</g>
<g id="Layer-1" data-name="P">
<clipPath id="cp41525">
<path transform="matrix(1,0,0,-1,0,841.92)" d="M .000008871 0 L 595.32 0 L 595.32 841.92 L .000008871 841.92 Z " fill-rule="evenodd"/>
</clipPath>
<g clip-path="url(#cp41525)">
<text xml:space="preserve" transform="matrix(1 0 -0 1 0 841.92)" font-size="14.04" font-family="Times New Roman,Italic" font-style="italic"><tspan y="-132.5" x="252.65 261.17228 270.64927">F=2</tspan></text>
</g>
</g>
<g id="Layer-1" data-name="P">
<clipPath id="cp41526">
<path transform="matrix(1,0,0,-1,0,841.92)" d="M .000008871 0 L 595.32 0 L 595.32 841.92 L .000008871 841.92 Z " fill-rule="evenodd"/>
</clipPath>
<g clip-path="url(#cp41526)">
<text xml:space="preserve" transform="matrix(1 0 -0 1 0 841.92)" font-size="14.04" font-family="Times New Roman,Italic" font-style="italic"><tspan y="-132.5" x="277.73">&#x00b7;</tspan></text>
</g>
</g>
<g id="Layer-1" data-name="P">
<clipPath id="cp41527">
<path transform="matrix(1,0,0,-1,0,841.92)" d="M .000008871 0 L 595.32 0 L 595.32 841.92 L .000008871 841.92 Z " fill-rule="evenodd"/>
</clipPath>
<g clip-path="url(#cp41527)">
<text xml:space="preserve" transform="matrix(1 0 -0 1 0 841.92)" font-size="14.04" font-family="Times New Roman,Italic" font-style="italic"><tspan y="-132.5" x="281.21"> </tspan></text>
</g>
</g>
<g id="Layer-1" data-name="P">
<clipPath id="cp41528">
<path transform="matrix(1,0,0,-1,0,841.92)" d="M .000008871 0 L 595.32 0 L 595.32 841.92 L .000008871 841.92 Z " fill-rule="evenodd"/>
</clipPath>
<g clip-path="url(#cp41528)">
<text xml:space="preserve" transform="matrix(1 0 -0 1 0 841.92)" font-size="14.04" font-family="Times New Roman,Italic" font-style="italic"><tspan y="-132.5" x="284.69 290.20997">[a</tspan></text>
</g>
</g>
<g id="Layer-1" data-name="P">
<clipPath id="cp41529">
<path transform="matrix(1,0,0,-1,0,841.92)" d="M .000008871 0 L 595.32 0 L 595.32 841.92 L .000008871 841.92 Z " fill-rule="evenodd"/>
</clipPath>
<g clip-path="url(#cp41529)">
<text xml:space="preserve" transform="matrix(1 0 -0 1 0 841.92)" font-size="14.04" font-family="Times New Roman,Italic" font-style="italic"><tspan y="-132.5" x="297.29">&#x00b7;</tspan></text>
</g>
</g>
<g id="Layer-1" data-name="P">
<clipPath id="cp41530">
<path transform="matrix(1,0,0,-1,0,841.92)" d="M .000008871 0 L 595.32 0 L 595.32 841.92 L .000008871 841.92 Z " fill-rule="evenodd"/>
</clipPath>
<g clip-path="url(#cp41530)">
<text xml:space="preserve" transform="matrix(1 0 -0 1 0 841.92)" font-size="14.04" font-family="Times New Roman,Italic" font-style="italic"><tspan y="-132.5" x="300.77 307.73384 317.21083 321.88615 328.96229 338.32695 345.38905">b+(a+b)</tspan></text>
</g>
</g>
<g id="Layer-1" data-name="P">
<clipPath id="cp41531">
<path transform="matrix(1,0,0,-1,0,841.92)" d="M .000008871 0 L 595.32 0 L 595.32 841.92 L .000008871 841.92 Z " fill-rule="evenodd"/>
</clipPath>
<g clip-path="url(#cp41531)">
<text xml:space="preserve" transform="matrix(1 0 -0 1 0 841.92)" font-size="14.04" font-family="Times New Roman,Italic" font-style="italic"><tspan y="-132.5" x="350.11"> </tspan></text>
</g>
</g>
<g id="Layer-1" data-name="P">
<clipPath id="cp41532">
<path transform="matrix(1,0,0,-1,0,841.92)" d="M .000008871 0 L 595.32 0 L 595.32 841.92 L .000008871 841.92 Z " fill-rule="evenodd"/>
</clipPath>
<g clip-path="url(#cp41532)">
<text xml:space="preserve" transform="matrix(1 0 -0 1 0 841.92)" font-size="14.04" font-family="Times New Roman,Italic" font-style="italic"><tspan y="-132.5" x="353.59">&#x00b7;</tspan></text>
</g>
</g>
<g id="Layer-1" data-name="P">
<clipPath id="cp41533">
<path transform="matrix(1,0,0,-1,0,841.92)" d="M .000008871 0 L 595.32 0 L 595.32 841.92 L .000008871 841.92 Z " fill-rule="evenodd"/>
</clipPath>
<g clip-path="url(#cp41533)">
<text xml:space="preserve" transform="matrix(1 0 -0 1 0 841.92)" font-size="14.04" font-family="Times New Roman,Italic" font-style="italic"><tspan y="-132.5" x="357.07 363.79518 369.66389 383.5775 393.53187 397.47709">h]&#x2192;min</tspan></text>
</g>
</g>
<g id="Layer-1" data-name="P">
<clipPath id="cp41534">
<path transform="matrix(1,0,0,-1,0,841.92)" d="M .000008871 0 L 595.32 0 L 595.32 841.92 L .000008871 841.92 Z " fill-rule="evenodd"/>
</clipPath>
<g clip-path="url(#cp41534)">
<text xml:space="preserve" transform="matrix(1 0 -0 1 0 841.92)" font-size="14.04" font-family="Times New Roman,Italic" font-style="italic"><tspan y="-132.5" x="404.47"> </tspan></text>
</g>
</g>
<g id="Layer-1" data-name="P">
<clipPath id="cp41535">
<path transform="matrix(1,0,0,-1,0,841.92)" d="M .000008871 0 L 595.32 0 L 595.32 841.92 L .000008871 841.92 Z " fill-rule="evenodd"/>
</clipPath>
<g clip-path="url(#cp41535)">
<text xml:space="preserve" transform="matrix(1 0 -0 1 0 841.92)" font-size="14.04" font-family="Times New Roman,Italic" font-style="italic"><tspan y="-108.38" x="113.42"> </tspan></text>
</g>
<clipPath id="cp41536">
<path transform="matrix(1,0,0,-1,0,841.92)" d="M .000008871 0 L 595.32 0 L 595.32 841.92 L .000008871 841.92 Z " fill-rule="evenodd"/>
</clipPath>
<g clip-path="url(#cp41536)">
<text xml:space="preserve" transform="matrix(1 0 -0 1 0 841.92)" font-size="14.04" font-family="Times New Roman,Italic" font-style="italic"><tspan y="-108.38" x="120.5"> </tspan></text>
</g>
<clipPath id="cp41537">
<path transform="matrix(1,0,0,-1,0,841.92)" d="M .000008871 0 L 595.32 0 L 595.32 841.92 L .000008871 841.92 Z " fill-rule="evenodd"/>
</clipPath>
<g clip-path="url(#cp41537)">
<text xml:space="preserve" transform="matrix(1 0 -0 1 0 841.92)" font-size="14.04" font-family="Times New Roman,Italic" font-style="italic"><tspan y="-108.38" x="155.9"> </tspan></text>
</g>
<clipPath id="cp41538">
<path transform="matrix(1,0,0,-1,0,841.92)" d="M .000008871 0 L 595.32 0 L 595.32 841.92 L .000008871 841.92 Z " fill-rule="evenodd"/>
</clipPath>
<g clip-path="url(#cp41538)">
<text xml:space="preserve" transform="matrix(1 0 -0 1 0 841.92)" font-size="14.04" font-family="Times New Roman,Italic" font-style="italic"><tspan y="-108.38" x="191.33 200.69469 207.7568">ChG</tspan></text>
</g>
</g>
<g id="Layer-1" data-name="P">
<clipPath id="cp41539">
<path transform="matrix(1,0,0,-1,0,841.92)" d="M .000008871 0 L 595.32 0 L 595.32 841.92 L .000008871 841.92 Z " fill-rule="evenodd"/>
</clipPath>
<g clip-path="url(#cp41539)">
<text xml:space="preserve" transform="matrix(1 0 -0 1 0 841.92)" font-size="14.04" font-family="Times New Roman,Italic" font-style="italic"><tspan y="-108.38" x="217.85 222.52533 232.60605 240.63692 249.1592 253.83452 257.3445 260.79838 264.30839 271.32838 274.712 281.7741 285.28413">(&#x041e;&#x0413;&#x0420;)   a&#x00b7;b&#x00b7;h</tspan></text>
</g>
</g>
<g id="Layer-1" data-name="P">
<clipPath id="cp41540">
<path transform="matrix(1,0,0,-1,0,841.92)" d="M .000008871 0 L 595.32 0 L 595.32 841.92 L .000008871 841.92 Z " fill-rule="evenodd"/>
</clipPath>
<g clip-path="url(#cp41540)">
<text xml:space="preserve" transform="matrix(1 0 -0 1 0 841.92)" font-size="14.04" font-family="Times New Roman,Italic" font-style="italic"><tspan y="-108.38" x="292.37 301.73466 308.6985 315.7606 322.72444">=2000</tspan></text>
</g>
</g>
<g id="Layer-1" data-name="P">
<clipPath id="cp41541">
<path transform="matrix(1,0,0,-1,0,841.92)" d="M .000008871 0 L 595.32 0 L 595.32 841.92 L .000008871 841.92 Z " fill-rule="evenodd"/>
</clipPath>
<g clip-path="url(#cp41541)">
<text xml:space="preserve" transform="matrix(1 0 -0 1 0 841.92)" font-size="14.04" font-family="Times New Roman,Italic" font-style="italic"><tspan y="-108.38" x="329.71"> </tspan></text>
</g>
</g>
<g id="Layer-1" data-name="P">
<clipPath id="cp41542">
<path transform="matrix(1,0,0,-1,0,841.92)" d="M .000008871 0 L 595.32 0 L 595.32 841.92 L .000008871 841.92 Z " fill-rule="evenodd"/>
</clipPath>
<g clip-path="url(#cp41542)">
<text xml:space="preserve" transform="matrix(1 0 -0 1 0 841.92)" font-size="14.04" font-family="Times New Roman,Italic" font-style="italic"><tspan y="-108.38" x="332.95"> </tspan></text>
</g>
</g>
<g id="Layer-1" data-name="P">
<clipPath id="cp41543">
<path transform="matrix(1,0,0,-1,0,841.92)" d="M .000008871 0 L 595.32 0 L 595.32 841.92 L .000008871 841.92 Z " fill-rule="evenodd"/>
</clipPath>
<g clip-path="url(#cp41543)">
<text xml:space="preserve" transform="matrix(1 0 -0 1 0 841.92)" font-size="14.04" font-family="Times New Roman,Italic" font-style="italic"><tspan y="-108.38" x="368.35"> </tspan></text>
</g>
</g>
<g id="Layer-1" data-name="P">
<clipPath id="cp41544">
<path transform="matrix(1,0,0,-1,0,841.92)" d="M .000008871 0 L 595.32 0 L 595.32 841.92 L .000008871 841.92 Z " fill-rule="evenodd"/>
</clipPath>
<g clip-path="url(#cp41544)">
<text xml:space="preserve" transform="matrix(1 0 -0 1 0 841.92)" font-size="14.04" font-family="Times New Roman,Italic" font-style="italic"><tspan y="-108.38" x="403.75"> </tspan></text>
</g>
</g>
<g id="Layer-1" data-name="P">
<clipPath id="cp41545">
<path transform="matrix(1,0,0,-1,0,841.92)" d="M .000008871 0 L 595.32 0 L 595.32 841.92 L .000008871 841.92 Z " fill-rule="evenodd"/>
</clipPath>
<g clip-path="url(#cp41545)">
<text xml:space="preserve" transform="matrix(1 0 -0 1 0 841.92)" font-size="14.04" font-family="Times New Roman,Italic" font-style="italic"><tspan y="-108.38" x="439.15"> </tspan></text>
</g>
</g>
<g id="Layer-1" data-name="P">
<clipPath id="cp41546">
<path transform="matrix(1,0,0,-1,0,841.92)" d="M .000008871 0 L 595.32 0 L 595.32 841.92 L .000008871 841.92 Z " fill-rule="evenodd"/>
</clipPath>
<g clip-path="url(#cp41546)">
<text xml:space="preserve" transform="matrix(1 0 -0 1 0 841.92)" font-size="14.04" font-family="Times New Roman,Italic" font-style="italic"><tspan y="-84.264" x="113.42"> </tspan></text>
</g>
<clipPath id="cp41547">
<path transform="matrix(1,0,0,-1,0,841.92)" d="M .000008871 0 L 595.32 0 L 595.32 841.92 L .000008871 841.92 Z " fill-rule="evenodd"/>
</clipPath>
<g clip-path="url(#cp41547)">
<text xml:space="preserve" transform="matrix(1 0 -0 1 0 841.92)" font-size="14.04" font-family="Times New Roman,Italic" font-style="italic"><tspan y="-84.264" x="120.5"> </tspan></text>
</g>
<clipPath id="cp41548">
<path transform="matrix(1,0,0,-1,0,841.92)" d="M .000008871 0 L 595.32 0 L 595.32 841.92 L .000008871 841.92 Z " fill-rule="evenodd"/>
</clipPath>
<g clip-path="url(#cp41548)">
<text xml:space="preserve" transform="matrix(1 0 -0 1 0 841.92)" font-size="14.04" font-family="Times New Roman,Italic" font-style="italic"><tspan y="-84.264" x="155.9"> </tspan></text>
</g>
</g>
<g id="Layer-1" data-name="P">
<clipPath id="cp41549">
<path transform="matrix(1,0,0,-1,0,841.92)" d="M .000008871 0 L 595.32 0 L 595.32 841.92 L .000008871 841.92 Z " fill-rule="evenodd"/>
</clipPath>
<g clip-path="url(#cp41549)">
<text xml:space="preserve" transform="matrix(1 0 -0 1 0 841.92)" font-size="14.04" font-family="Times New Roman,Italic" font-style="italic"><tspan y="-84.264" x="191.33 200.69469 207.64449 214.7066">ChSh</tspan></text>
</g>
</g>
<g id="Layer-1" data-name="P">
<clipPath id="cp41550">
<path transform="matrix(1,0,0,-1,0,841.92)" d="M .000008871 0 L 595.32 0 L 595.32 841.92 L .000008871 841.92 Z " fill-rule="evenodd"/>
</clipPath>
<g clip-path="url(#cp41550)">
<text xml:space="preserve" transform="matrix(1 0 -0 1 0 841.92)" font-size="14.04" font-family="Times New Roman,Italic" font-style="italic"><tspan y="-84.264" x="221.81 226.373 234.40387 242.92615 252.37506 257.05039 260.44807 267.51017 271.02018 274.47404 281.53614 285.04615">(&#x0413;&#x0420;&#x0423;) a, b, </tspan></text>
</g>
</g>
<g id="Layer-1" data-name="P">
<clipPath id="cp41551">
<path transform="matrix(1,0,0,-1,0,841.92)" d="M .000008871 0 L 595.32 0 L 595.32 841.92 L .000008871 841.92 Z " fill-rule="evenodd"/>
</clipPath>
<g clip-path="url(#cp41551)">
<text xml:space="preserve" transform="matrix(1 0 -0 1 0 841.92)" font-size="14.04" font-family="Times New Roman,Italic" font-style="italic"><tspan y="-84.264" x="288.53">h</tspan></text>
</g>
</g>
<g id="Layer-1" data-name="P">
<clipPath id="cp41552">
<path transform="matrix(1,0,0,-1,0,841.92)" d="M .000008871 0 L 595.32 0 L 595.32 841.92 L .000008871 841.92 Z " fill-rule="evenodd"/>
</clipPath>
<g clip-path="url(#cp41552)">
<text xml:space="preserve" transform="matrix(1 0 -0 1 0 841.92)" font-size="14.04" font-family="Times New Roman,Italic" font-style="italic"><tspan y="-84.264" x="295.49 304.96699 311.93083">&#x003e;0.</tspan></text>
</g>
</g>
<g id="Layer-1" data-name="P">
<clipPath id="cp41553">
<path transform="matrix(1,0,0,-1,0,841.92)" d="M .000008871 0 L 595.32 0 L 595.32 841.92 L .000008871 841.92 Z " fill-rule="evenodd"/>
</clipPath>
<g clip-path="url(#cp41553)">
<text xml:space="preserve" transform="matrix(1 0 -0 1 0 841.92)" font-size="14.04" font-family="Times New Roman,Italic" font-style="italic"><tspan y="-84.264" x="315.43"> </tspan></text>
</g>
</g>
</g>
</g>
</svg>
