<?xml version="1.0" encoding="UTF-8" standalone="no"?>
<!DOCTYPE svg PUBLIC "-//W3C//DTD SVG 1.1//EN" "http://www.w3.org/Graphics/SVG/1.1/DTD/svg11.dtd">
<svg xmlns="http://www.w3.org/2000/svg" xmlns:xlink="http://www.w3.org/1999/xlink" version="1.1" width="595.32pt" height="841.92pt" viewBox="0 0 595.32 841.92">
<g enable-background="new">
<g>
<g id="Layer-1" data-name="Artifact">
<clipPath id="cp42186">
<path transform="matrix(1,0,0,-1,0,841.92)" d="M .000008871 0 L 595.32 0 L 595.32 841.92 L .000008871 841.92 Z " fill-rule="evenodd"/>
</clipPath>
<g clip-path="url(#cp42186)">
<text xml:space="preserve" transform="matrix(1 0 -0 1 0 841.92)" font-size="11.04" font-family="Calibri"><tspan y="-51.864" x="314.09 319.72999 325.36997">267</tspan></text>
</g>
<clipPath id="cp42187">
<path transform="matrix(1,0,0,-1,0,841.92)" d="M .000008871 0 L 595.32 0 L 595.32 841.92 L .000008871 841.92 Z " fill-rule="evenodd"/>
</clipPath>
<g clip-path="url(#cp42187)">
<text xml:space="preserve" transform="matrix(1 0 -0 1 0 841.92)" font-size="11.04" font-family="Calibri"><tspan y="-51.864" x="331.03"> </tspan></text>
</g>
<clipPath id="cp42188">
<path transform="matrix(1,0,0,-1,0,841.92)" d="M .000008871 0 L 595.32 0 L 595.32 841.92 L .000008871 841.92 Z " fill-rule="evenodd"/>
</clipPath>
<g clip-path="url(#cp42188)">
</g>
<clipPath id="cp42189">
<path transform="matrix(1,0,0,-1,0,841.92)" d="M .000008871 0 L 595.32 0 L 595.32 841.92 L .000008871 841.92 Z " fill-rule="evenodd"/>
</clipPath>
<g clip-path="url(#cp42189)">
<text xml:space="preserve" transform="matrix(1 0 -0 1 0 841.92)" font-size="11.04" font-family="Calibri"><tspan y="-38.4" x="85.104"> </tspan></text>
</g>
<clipPath id="cp42190">
<path transform="matrix(1,0,0,-1,0,841.92)" d="M .000008871 0 L 595.32 0 L 595.32 841.92 L .000008871 841.92 Z " fill-rule="evenodd"/>
</clipPath>
<g clip-path="url(#cp42190)">
</g>
</g>
<g id="Layer-1" data-name="P">
<clipPath id="cp42191">
<path transform="matrix(1,0,0,-1,0,841.92)" d="M .000008871 0 L 595.32 0 L 595.32 841.92 L .000008871 841.92 Z " fill-rule="evenodd"/>
</clipPath>
<g clip-path="url(#cp42191)">
<text xml:space="preserve" transform="matrix(1 0 -0 1 0 841.92)" font-size="14.04" font-family="Times New Roman"><tspan y="-772.56" x="127.58 133.08368 139.31745 146.28128 153.3434 159.46485 163.3118 170.37392 176.60768 183.57152 187.51676 195.89864 202.96076 209.0822 213.75753 222.15345 229.21556 233.06252 237.73784">J&#x0430;dv&#x0430;ld&#x0430;gi h&#x0430;r bir </tspan></text>
</g>
<clipPath id="cp42192">
<path transform="matrix(1,0,0,-1,0,841.92)" d="M .000008871 0 L 595.32 0 L 595.32 841.92 L .000008871 841.92 Z " fill-rule="evenodd"/>
</clipPath>
<g clip-path="url(#cp42192)">
<text xml:space="preserve" transform="matrix(1 0 -0 1 0 841.92)" font-size="14.04" font-family="Times New Roman,Italic" font-style="italic"><tspan y="-772.56" x="246.29">b</tspan></text>
</g>
<clipPath id="cp42193">
<path transform="matrix(1,0,0,-1,0,841.92)" d="M .000008871 0 L 595.32 0 L 595.32 841.92 L .000008871 841.92 Z " fill-rule="evenodd"/>
</clipPath>
<g clip-path="url(#cp42193)">
<text xml:space="preserve" transform="matrix(1 0 -0 1 0 841.92)" font-size="9" font-family="Times New Roman,Italic" font-style="italic"><tspan y="-771" x="253.37">j</tspan></text>
</g>
<clipPath id="cp42194">
<path transform="matrix(1,0,0,-1,0,841.92)" d="M .000008871 0 L 595.32 0 L 595.32 841.92 L .000008871 841.92 Z " fill-rule="evenodd"/>
</clipPath>
<g clip-path="url(#cp42194)">
<text xml:space="preserve" transform="matrix(1 0 -0 1 0 841.92)" font-size="14.04" font-family="Times New Roman"><tspan y="-772.56" x="255.89"> </tspan></text>
</g>
<clipPath id="cp42195">
<path transform="matrix(1,0,0,-1,0,841.92)" d="M .000008871 0 L 595.32 0 L 595.32 841.92 L .000008871 841.92 Z " fill-rule="evenodd"/>
</clipPath>
<g clip-path="url(#cp42195)">
<text xml:space="preserve" transform="matrix(1 0 -0 1 0 841.92)" font-size="14.04" font-family="Times New Roman"><tspan y="-772.56" x="264.29">&#x2013;</tspan></text>
</g>
<clipPath id="cp42196">
<path transform="matrix(1,0,0,-1,0,841.92)" d="M .000008871 0 L 595.32 0 L 595.32 841.92 L .000008871 841.92 Z " fill-rule="evenodd"/>
</clipPath>
<g clip-path="url(#cp42196)">
<text xml:space="preserve" transform="matrix(1 0 -0 1 0 841.92)" font-size="14.04" font-family="Times New Roman"><tspan y="-772.56" x="271.37"> </tspan></text>
</g>
<clipPath id="cp42197">
<path transform="matrix(1,0,0,-1,0,841.92)" d="M .000008871 0 L 595.32 0 L 595.32 841.92 L .000008871 841.92 Z " fill-rule="evenodd"/>
</clipPath>
<g clip-path="url(#cp42197)">
<text xml:space="preserve" transform="matrix(1 0 -0 1 0 841.92)" font-size="14.04" font-family="Times New Roman,Italic" font-style="italic"><tspan y="-772.56" x="279.77">j</tspan></text>
</g>
<clipPath id="cp42198">
<path transform="matrix(1,0,0,-1,0,841.92)" d="M .000008871 0 L 595.32 0 L 595.32 841.92 L .000008871 841.92 Z " fill-rule="evenodd"/>
</clipPath>
<g clip-path="url(#cp42198)">
<text xml:space="preserve" transform="matrix(1 0 -0 1 0 841.92)" font-size="14.04" font-family="Times New Roman"><tspan y="-772.56" x="283.73">-</tspan></text>
</g>
<clipPath id="cp42199">
<path transform="matrix(1,0,0,-1,0,841.92)" d="M .000008871 0 L 595.32 0 L 595.32 841.92 L .000008871 841.92 Z " fill-rule="evenodd"/>
</clipPath>
<g clip-path="url(#cp42199)">
<text xml:space="preserve" transform="matrix(1 0 -0 1 0 841.92)" font-size="14.04" font-family="Times New Roman"><tspan y="-772.56" x="288.29 292.23524 297.64064 304.60447 308.54969 314.6711 321.73323 330.1151 336.34889 343.3127 347.25794 354.32005 360.44148 365.1168 368.96376 374.4674 381.5295 389.9114 394.58674 400.70817 407.77027 411.61723 418.67933 423.2423 427.18754 434.15138 437.99833 445.06044 452.12254 460.3921 467.4542 478.13865 485.32713 496.01158 500.08317 507.047 515.55526 526.2396 530.1849 537.247 544.30917 551.3713 555.80789 559.65487">ishl&#x0430;b chiq&#x0430;rish f&#x0430;kt&#x043e;rining umumiy miqd&#x043e;ri </tspan></text>
</g>
<clipPath id="cp42200">
<path transform="matrix(1,0,0,-1,0,841.92)" d="M .000008871 0 L 595.32 0 L 595.32 841.92 L .000008871 841.92 Z " fill-rule="evenodd"/>
</clipPath>
<g clip-path="url(#cp42200)">
<text xml:space="preserve" transform="matrix(1 0 -0 1 0 841.92)" font-size="14.04" font-family="Times New Roman"><tspan y="-748.3" x="99.264 103.93932 110.17308 116.40684 123.38471 127.329959 132.00528 138.12673 143.6304 147.47736 152.15268 156.09792">(z&#x0430;hir&#x0430;si); </tspan></text>
</g>
<clipPath id="cp42201">
<path transform="matrix(1,0,0,-1,0,841.92)" d="M .000008871 0 L 595.32 0 L 595.32 841.92 L .000008871 841.92 Z " fill-rule="evenodd"/>
</clipPath>
<g clip-path="url(#cp42201)">
<text xml:space="preserve" transform="matrix(1 0 -0 1 0 841.92)" font-size="14.04" font-family="Times New Roman,Italic" font-style="italic"><tspan y="-748.3" x="159.74">a</tspan></text>
</g>
<clipPath id="cp42202">
<path transform="matrix(1,0,0,-1,0,841.92)" d="M .000008871 0 L 595.32 0 L 595.32 841.92 L .000008871 841.92 Z " fill-rule="evenodd"/>
</clipPath>
<g clip-path="url(#cp42202)">
<text xml:space="preserve" transform="matrix(1 0 -0 1 0 841.92)" font-size="9" font-family="Times New Roman,Italic" font-style="italic"><tspan y="-746.74" x="166.82 169.22">ij</tspan></text>
</g>
<clipPath id="cp42203">
<path transform="matrix(1,0,0,-1,0,841.92)" d="M .000008871 0 L 595.32 0 L 595.32 841.92 L .000008871 841.92 Z " fill-rule="evenodd"/>
</clipPath>
<g clip-path="url(#cp42203)">
<text xml:space="preserve" transform="matrix(1 0 -0 1 0 841.92)" font-size="14.04" font-family="Times New Roman"><tspan y="-748.3" x="171.74"> </tspan></text>
</g>
<clipPath id="cp42204">
<path transform="matrix(1,0,0,-1,0,841.92)" d="M .000008871 0 L 595.32 0 L 595.32 841.92 L .000008871 841.92 Z " fill-rule="evenodd"/>
</clipPath>
<g clip-path="url(#cp42204)">
<text xml:space="preserve" transform="matrix(1 0 -0 1 0 841.92)" font-size="14.04" font-family="Times New Roman"><tspan y="-748.3" x="175.34">&#x2013;</tspan></text>
</g>
<clipPath id="cp42205">
<path transform="matrix(1,0,0,-1,0,841.92)" d="M .000008871 0 L 595.32 0 L 595.32 841.92 L .000008871 841.92 Z " fill-rule="evenodd"/>
</clipPath>
<g clip-path="url(#cp42205)">
<text xml:space="preserve" transform="matrix(1 0 -0 1 0 841.92)" font-size="14.04" font-family="Times New Roman"><tspan y="-748.3" x="182.42"> </tspan></text>
</g>
<clipPath id="cp42206">
<path transform="matrix(1,0,0,-1,0,841.92)" d="M .000008871 0 L 595.32 0 L 595.32 841.92 L .000008871 841.92 Z " fill-rule="evenodd"/>
</clipPath>
<g clip-path="url(#cp42206)">
<text xml:space="preserve" transform="matrix(1 0 -0 1 0 841.92)" font-size="14.04" font-family="Times New Roman,Italic" font-style="italic"><tspan y="-748.3" x="186.02">i</tspan></text>
</g>
<clipPath id="cp42207">
<path transform="matrix(1,0,0,-1,0,841.92)" d="M .000008871 0 L 595.32 0 L 595.32 841.92 L .000008871 841.92 Z " fill-rule="evenodd"/>
</clipPath>
<g clip-path="url(#cp42207)">
<text xml:space="preserve" transform="matrix(1 0 -0 1 0 841.92)" font-size="14.04" font-family="Times New Roman"><tspan y="-748.3" x="190.01">-</tspan></text>
</g>
<clipPath id="cp42208">
<path transform="matrix(1,0,0,-1,0,841.92)" d="M .000008871 0 L 595.32 0 L 595.32 841.92 L .000008871 841.92 Z " fill-rule="evenodd"/>
</clipPath>
<g clip-path="url(#cp42208)">
<text xml:space="preserve" transform="matrix(1 0 -0 1 0 841.92)" font-size="14.04" font-family="Times New Roman"><tspan y="-748.3" x="194.69 205.37445 211.60822 218.68439 224.18807 231.1519 234.99886 242.06098 245.90793 252.97005 256.81703 263.78086 270.84297 274.42317 281.48527 285.3322 290.00755 293.60179 300.66389 304.6091 309.1721 313.01905 316.96427 323.9281 327.87333 334.83717 338.6841 342.2643 346.20954 351.7132 358.67704 362.62226 368.74369 375.8058 379.386 385.61976 392.5836 396.5288 403.49266 409.7264 414.40174 418.2487 423.65409 430.7162 434.2964 441.3585 447.47993 454.44377 461.50587 468.56797 472.14817 477.55357 483.78733 488.46266 493.13798 496.74626 503.71009 507.6553 511.50227 515.4475 522.4114 528.64517 535.609 539.456 546.5181 552.6396 559.60348">m&#x0430;hsul&#x043e;tning bir birligini ishl&#x0430;b chiq&#x0430;rish uchun s&#x0430;rf qilin&#x0430;dig&#x0430;n </tspan></text>
</g>
<clipPath id="cp42209">
<path transform="matrix(1,0,0,-1,0,841.92)" d="M .000008871 0 L 595.32 0 L 595.32 841.92 L .000008871 841.92 Z " fill-rule="evenodd"/>
</clipPath>
<g clip-path="url(#cp42209)">
<text xml:space="preserve" transform="matrix(1 0 -0 1 0 841.92)" font-size="14.04" font-family="Times New Roman,Italic" font-style="italic"><tspan y="-724.18" x="99.264">j</tspan></text>
</g>
<clipPath id="cp42210">
<path transform="matrix(1,0,0,-1,0,841.92)" d="M .000008871 0 L 595.32 0 L 595.32 841.92 L .000008871 841.92 Z " fill-rule="evenodd"/>
</clipPath>
<g clip-path="url(#cp42210)">
<text xml:space="preserve" transform="matrix(1 0 -0 1 0 841.92)" font-size="14.04" font-family="Times New Roman"><tspan y="-724.18" x="103.22">-</tspan></text>
</g>
<clipPath id="cp42211">
<path transform="matrix(1,0,0,-1,0,841.92)" d="M .000008871 0 L 595.32 0 L 595.32 841.92 L .000008871 841.92 Z " fill-rule="evenodd"/>
</clipPath>
<g clip-path="url(#cp42211)">
<text xml:space="preserve" transform="matrix(1 0 -0 1 0 841.92)" font-size="14.04" font-family="Times New Roman"><tspan y="-724.18" x="107.9 112.575328 118.69676 125.75888 129.60584 136.66796 141.23096 148.29308 152.14003 159.10387 166.16599 175.15158 185.83603 189.78127 196.84339 203.80722 210.86934 215.54467 219.39162 223.33686">f&#x0430;kt&#x043e;rning miqd&#x043e;ri; </tspan></text>
</g>
<clipPath id="cp42212">
<path transform="matrix(1,0,0,-1,0,841.92)" d="M .000008871 0 L 595.32 0 L 595.32 841.92 L .000008871 841.92 Z " fill-rule="evenodd"/>
</clipPath>
<g clip-path="url(#cp42212)">
<text xml:space="preserve" transform="matrix(1 0 -0 1 0 841.92)" font-size="14.04" font-family="Times New Roman,Italic" font-style="italic"><tspan y="-724.18" x="232.49">c</tspan></text>
</g>
<clipPath id="cp42213">
<path transform="matrix(1,0,0,-1,0,841.92)" d="M .000008871 0 L 595.32 0 L 595.32 841.92 L .000008871 841.92 Z " fill-rule="evenodd"/>
</clipPath>
<g clip-path="url(#cp42213)">
<text xml:space="preserve" transform="matrix(1 0 -0 1 0 841.92)" font-size="9" font-family="Times New Roman,Italic" font-style="italic"><tspan y="-722.62" x="238.73">i</tspan></text>
</g>
<clipPath id="cp42214">
<path transform="matrix(1,0,0,-1,0,841.92)" d="M .000008871 0 L 595.32 0 L 595.32 841.92 L .000008871 841.92 Z " fill-rule="evenodd"/>
</clipPath>
<g clip-path="url(#cp42214)">
<text xml:space="preserve" transform="matrix(1 0 -0 1 0 841.92)" font-size="14.04" font-family="Times New Roman"><tspan y="-724.18" x="241.13">&#x2013;</tspan></text>
</g>
<clipPath id="cp42215">
<path transform="matrix(1,0,0,-1,0,841.92)" d="M .000008871 0 L 595.32 0 L 595.32 841.92 L .000008871 841.92 Z " fill-rule="evenodd"/>
</clipPath>
<g clip-path="url(#cp42215)">
<text xml:space="preserve" transform="matrix(1 0 -0 1 0 841.92)" font-size="14.04" font-family="Times New Roman"><tspan y="-724.18" x="248.21 255.17385 262.23597 266.79896 273.7628 280.8249 287.887 294.00843 300.97227 304.91749 311.88133 318.94343">k&#x043e;r&#x0445;&#x043e;n&#x0430;ning </tspan></text>
</g>
<clipPath id="cp42216">
<path transform="matrix(1,0,0,-1,0,841.92)" d="M .000008871 0 L 595.32 0 L 595.32 841.92 L .000008871 841.92 Z " fill-rule="evenodd"/>
</clipPath>
<g clip-path="url(#cp42216)">
<text xml:space="preserve" transform="matrix(1 0 -0 1 0 841.92)" font-size="14.04" font-family="Times New Roman,Italic" font-style="italic"><tspan y="-724.18" x="327.91">i</tspan></text>
</g>
<clipPath id="cp42217">
<path transform="matrix(1,0,0,-1,0,841.92)" d="M .000008871 0 L 595.32 0 L 595.32 841.92 L .000008871 841.92 Z " fill-rule="evenodd"/>
</clipPath>
<g clip-path="url(#cp42217)">
<text xml:space="preserve" transform="matrix(1 0 -0 1 0 841.92)" font-size="14.04" font-family="Times New Roman"><tspan y="-724.18" x="331.87">-</tspan></text>
</g>
<clipPath id="cp42218">
<path transform="matrix(1,0,0,-1,0,841.92)" d="M .000008871 0 L 595.32 0 L 595.32 841.92 L .000008871 841.92 Z " fill-rule="evenodd"/>
</clipPath>
<g clip-path="url(#cp42218)">
<text xml:space="preserve" transform="matrix(1 0 -0 1 0 841.92)" font-size="14.04" font-family="Times New Roman"><tspan y="-724.18" x="336.43 347.22676 353.4605 360.53666 366.0403 373.00416 376.8511 383.9132 387.76017 394.82228 398.66923 405.63307 412.69517 421.5544 428.61653 432.56175 437.23707 446.11036 453.0742 456.92115 461.59648 465.5417 469.38865 476.35249 480.2977 487.26155 491.20677">m&#x0430;hsul&#x043e;tning bir birligini </tspan></text>
</g>
<clipPath id="cp42219">
<path transform="matrix(1,0,0,-1,0,841.92)" d="M .000008871 0 L 595.32 0 L 595.32 841.92 L .000008871 841.92 Z " fill-rule="evenodd"/>
</clipPath>
<g clip-path="url(#cp42219)">
<text xml:space="preserve" transform="matrix(1 0 -0 1 0 841.92)" font-size="14.04" font-family="Times New Roman"><tspan y="-724.18" x="500.38 505.05534 511.17677 517.4105 521.2575 525.20278 531.4365 537.558 543.06167 547.0069 553.8444 559.9659">r&#x0435;&#x0430;liz&#x0430;siya </tspan></text>
</g>
<clipPath id="cp42220">
<path transform="matrix(1,0,0,-1,0,841.92)" d="M .000008871 0 L 595.32 0 L 595.32 841.92 L .000008871 841.92 Z " fill-rule="evenodd"/>
</clipPath>
<g clip-path="url(#cp42220)">
<text xml:space="preserve" transform="matrix(1 0 -0 1 0 841.92)" font-size="14.04" font-family="Times New Roman"><tspan y="-700.06" x="99.264 106.32612 110.17308 114.118328 117.96529 123.37069 130.4328 137.39664 143.6304 150.70658 154.06214 161.12425 165.06949 171.19094 178.15477 182.1 189.06385 195.2976 202.37378 205.88378 209.21125 216.17508 222.40885 227.08417 234.16034 244.84479 251.07855 258.1547 262.0999">qilishd&#x0430;n &#x043e;l&#x0430;dig&#x0430;n  d&#x0430;r&#x043e;m&#x0430;di.</tspan></text>
</g>
<clipPath id="cp42221">
<path transform="matrix(1,0,0,-1,0,841.92)" d="M .000008871 0 L 595.32 0 L 595.32 841.92 L .000008871 841.92 Z " fill-rule="evenodd"/>
</clipPath>
<g clip-path="url(#cp42221)">
<text xml:space="preserve" transform="matrix(1 0 -0 1 0 841.92)" font-size="14.04" font-family="Times New Roman"><tspan y="-700.06" x="265.61"> </tspan></text>
</g>
</g>
<g id="Layer-1" data-name="P">
<clipPath id="cp42222">
<path transform="matrix(1,0,0,-1,0,841.92)" d="M .000008871 0 L 595.32 0 L 595.32 841.92 L .000008871 841.92 Z " fill-rule="evenodd"/>
</clipPath>
<g clip-path="url(#cp42222)">
<text xml:space="preserve" transform="matrix(1 0 -0 1 0 841.92)" font-size="14.04" font-family="Times New Roman"><tspan y="-675.94" x="127.58 140.06157 146.29534 151.79901 157.92046 161.86569 167.98714 175.04926 178.89621 185.86005 192.92217 200.95304 204.79999 211.8621 215.70906 219.55602 225.0597 232.02353 238.98737 242.9326 249.89644 258.03965 268.7241 274.95787 279.52085 286.58296 293.64506 299.1487 302.99568 306.9409 314.97178 321.9356 328.9977 333.5607 340.52455 347.58665 354.64875 360.77018 367.734 371.58097 378.64308 385.70518 393.6097 397.45668 402.96034 409.92417 413.8694 420.83323 424.77845 432.68299 438.18666 445.15049 452.11433 459.17643 466.23854 472.4723 479.3238 487.35469 492.03 498.26377 502.11073 508.34449 512.28976 518.5235 523.9289 530.89279 534.838 538.78329 543.34628 547.19326 552.59866 559.5625">M&#x0430;s&#x0430;l&#x0430;ning iqtis&#x043e;diy m&#x0430;&#x2019;n&#x043e;si: k&#x043e;r&#x0445;&#x043e;n&#x0430;ning ishini shund&#x0430;y r&#x0435;j&#x0430;l&#x0430;shtirish </tspan></text>
</g>
<clipPath id="cp42223">
<path transform="matrix(1,0,0,-1,0,841.92)" d="M .000008871 0 L 595.32 0 L 595.32 841.92 L .000008871 841.92 Z " fill-rule="evenodd"/>
</clipPath>
<g clip-path="url(#cp42223)">
<text xml:space="preserve" transform="matrix(1 0 -0 1 0 841.92)" font-size="14.04" font-family="Times New Roman"><tspan y="-651.7" x="99.264 106.32612 112.559879 117.2352 123.370677 130.3345 137.39662 141.24358 145.18881 150.08876 156.32253 160.99785 165.91185 172.87569 179.10945 189.92026 200.71703 206.95079 211.97711 222.77388 229.00765 236.08382 241.5875 248.55133 252.39829 259.4604 263.30735 267.25257 273.48634 278.04933 285.11143 289.05665 293.8443 297.78953 303.19493 310.15876 314.10398 320.33775 327.41389 332.20155 338.4353 345.51145 349.3584 356.4205 362.65428 367.21726 371.0642 376.56788 383.62998 388.41764 395.47975 401.60118 408.66328 415.6271 422.6892 427.58918 432.99458 439.22834 443.90367 448.57899 453.38069 460.44279 464.28974 468.23497 472.0819 479.144 485.26545 492.22929 496.1745 503.2366 509.35804 516.42019 521.2078 528.26998 534.5037 539.179 544.093 551.0569 554.9039 559.46688">k&#x0435;r&#x0430;kki: &#x0430;) h&#x0430;mm&#x0430; m&#x0430;hsul&#x043e;tl&#x0430;rni ishl&#x0430;b chiq&#x0430;rish uchun s&#x0430;rf qilin&#x0430;dig&#x0430;n h&#x0430;r bir </tspan></text>
</g>
<clipPath id="cp42224">
<path transform="matrix(1,0,0,-1,0,841.92)" d="M .000008871 0 L 595.32 0 L 595.32 841.92 L .000008871 841.92 Z " fill-rule="evenodd"/>
</clipPath>
<g clip-path="url(#cp42224)">
<text xml:space="preserve" transform="matrix(1 0 -0 1 0 841.92)" font-size="14.04" font-family="Times New Roman"><tspan y="-627.58" x="99.264 103.20924 108.61465 115.676769 119.52373 125.757488 132.83365 138.09865 144.33242 151.29625 155.24149 162.20532 168.43909 173.11441 176.96137 182.36676 189.42888 194.82024 199.49556 205.617 212.67913 216.52608 223.5882 228.26352 232.11048 239.07431 243.01955 249.98339 257.0455 262.43687 273.1213 277.06654 284.12864 291.09248 298.15458 302.71757 306.66279 312.05415 319.01799 322.9632 329.19697 333.75996 340.82206 344.669 351.63285 358.69496 364.0863 371.1484 381.83287 389.02134 399.70579 403.651 410.48847 415.99217 426.6766 430.62184 437.68394 444.74604 451.80815 456.37113 460.31636 467.37846">ishl&#x0430;b chiq&#x0430;rish f&#x0430;kt&#x043e;rining miqd&#x043e;ri ul&#x0430;rning umumiy miqd&#x043e;rid&#x0430;</tspan></text>
</g>
<clipPath id="cp42225">
<path transform="matrix(1,0,0,-1,0,841.92)" d="M .000008871 0 L 595.32 0 L 595.32 841.92 L .000008871 841.92 Z " fill-rule="evenodd"/>
</clipPath>
<g clip-path="url(#cp42225)">
<text xml:space="preserve" transform="matrix(1 0 -0 1 0 841.92)" font-size="14.04" font-family="Times New Roman"><tspan y="-627.58" x="473.98 481.0421 486.30714 493.36924 498.77464 505.83674 516.5211 522.7549 528.2726 532.21786 539.1817 543.12698 548.39199 555.35586 559.9188">n &#x043e;shm&#x0430;sin; b) </tspan></text>
</g>
<clipPath id="cp42226">
<path transform="matrix(1,0,0,-1,0,841.92)" d="M .000008871 0 L 595.32 0 L 595.32 841.92 L .000008871 841.92 Z " fill-rule="evenodd"/>
</clipPath>
<g clip-path="url(#cp42226)">
<text xml:space="preserve" transform="matrix(1 0 -0 1 0 841.92)" font-size="14.04" font-family="Times New Roman"><tspan y="-603.46" x="99.264 110.06076 116.29452 123.370677 128.87435 135.83818 139.68514 146.74726 150.59421 154.53945 160.77321 165.33621 172.39833 176.34357 182.92832 187.49132 193.72509 199.95885 203.8058 207.75104 213.9848 220.10625 225.60993 229.55516 236.39264 242.6264 249.2252 256.28733 260.13429 264.0795 267.92646 273.33186 280.39396 287.45606 293.57749 300.6396 307.11204 314.17414 321.23625 325.79924 332.76307 339.7269 346.789 352.91044 359.97254 363.8195 370.8816 377.9437 384.41615 391.37998 395.3252 401.55897 408.5228 412.36976 419.43186 425.55329 432.6154 439.20018 445.78495 452.84706 458.96849 463.6438 470.71995 481.4044 487.63816 494.7143 498.65953 505.2443 515.9287 522.1625 529.23867 534.7423 538.68759 549.37197 555.6057 559.4527">m&#x0430;hsul&#x043e;tl&#x0430;rni r&#x0435;&#x0430;liz&#x0430;siya qilishd&#x0430;n k&#x043e;r&#x0445;&#x043e;n&#x0430;ning &#x043e;l&#x0430;dig&#x0430;n  d&#x0430;r&#x043e;m&#x0430;di m&#x0430;ksim&#x0430;l </tspan></text>
</g>
<clipPath id="cp42227">
<path transform="matrix(1,0,0,-1,0,841.92)" d="M .000008871 0 L 595.32 0 L 595.32 841.92 L .000008871 841.92 Z " fill-rule="evenodd"/>
</clipPath>
<g clip-path="url(#cp42227)">
<text xml:space="preserve" transform="matrix(1 0 -0 1 0 841.92)" font-size="14.04" font-family="Times New Roman"><tspan y="-579.34" x="99.264 106.32612 113.38824 117.95124 121.7982 127.30189 131.14884 138.21096">bo&#x2019;lsin.</tspan></text>
</g>
<clipPath id="cp42228">
<path transform="matrix(1,0,0,-1,0,841.92)" d="M .000008871 0 L 595.32 0 L 595.32 841.92 L .000008871 841.92 Z " fill-rule="evenodd"/>
</clipPath>
<g clip-path="url(#cp42228)">
<text xml:space="preserve" transform="matrix(1 0 -0 1 0 841.92)" font-size="14.04" font-family="Times New Roman"><tspan y="-579.34" x="141.62"> </tspan></text>
</g>
</g>
<g id="Layer-1" data-name="P">
<clipPath id="cp42229">
<path transform="matrix(1,0,0,-1,0,841.92)" d="M .000008871 0 L 595.32 0 L 595.32 841.92 L .000008871 841.92 Z " fill-rule="evenodd"/>
</clipPath>
<g clip-path="url(#cp42229)">
<text xml:space="preserve" transform="matrix(1 0 -0 1 0 841.92)" font-size="14.04" font-family="Times New Roman"><tspan y="-555.07" x="127.58 136.94469 143.17845 147.0254 153.25917 157.2044 163.32585 168.82953 175.79337 179.7386 183.58556 188.26088 192.10784 196.05307 203.0169 209.25067 216.21451 229.15938 241.99193 248.95577 255.18953 262.2657 266.941 279.7736 283.7188 289.84025 296.90235 300.7493 307.8114 313.93284 326.87773 330.72468 336.22834 343.19218 347.1374 353.25883 360.22267 373.16755 379.4013 386.36515 390.31037 397.2742 403.50798 408.1833 412.03025 415.97547 422.0969 429.159 433.00596 440.06806 446.18949 453.2516 466.08418">R&#x0435;j&#x0430;l&#x0430;shtirilg&#x0430;n  d&#x0430;vr ichid&#x0430; ishl&#x0430;b chiq&#x0430;ril&#x0430;dig&#x0430;n  </tspan></text>
</g>
<clipPath id="cp42230">
<path transform="matrix(1,0,0,-1,0,841.92)" d="M .000008871 0 L 595.32 0 L 595.32 841.92 L .000008871 841.92 Z " fill-rule="evenodd"/>
</clipPath>
<g clip-path="url(#cp42230)">
<text xml:space="preserve" transform="matrix(1 0 -0 1 0 841.92)" font-size="14.04" font-family="Times New Roman,Italic" font-style="italic"><tspan y="-555.07" x="479.38">i</tspan></text>
</g>
<clipPath id="cp42231">
<path transform="matrix(1,0,0,-1,0,841.92)" d="M .000008871 0 L 595.32 0 L 595.32 841.92 L .000008871 841.92 Z " fill-rule="evenodd"/>
</clipPath>
<g clip-path="url(#cp42231)">
<text xml:space="preserve" transform="matrix(1 0 -0 1 0 841.92)" font-size="14.04" font-family="Times New Roman"><tspan y="-555.07" x="483.22"> </tspan></text>
</g>
<clipPath id="cp42232">
<path transform="matrix(1,0,0,-1,0,841.92)" d="M .000008871 0 L 595.32 0 L 595.32 841.92 L .000008871 841.92 Z " fill-rule="evenodd"/>
</clipPath>
<g clip-path="url(#cp42232)">
<text xml:space="preserve" transform="matrix(1 0 -0 1 0 841.92)" font-size="14.04" font-family="Times New Roman"><tspan y="-555.07" x="496.18">(</tspan></text>
</g>
<clipPath id="cp42233">
<path transform="matrix(1,0,0,-1,0,841.92)" d="M .000008871 0 L 595.32 0 L 595.32 841.92 L .000008871 841.92 Z " fill-rule="evenodd"/>
</clipPath>
<g clip-path="url(#cp42233)">
<text xml:space="preserve" transform="matrix(1 0 -0 1 0 841.92)" font-size="14.04" font-family="Times New Roman,Italic" font-style="italic"><tspan y="-555.07" x="500.86 504.8052 514.1699 521.23208 524.74209 537.22366 540.6775 550.75827">i=1,&#x2026;,m)</tspan></text>
</g>
<clipPath id="cp42234">
<path transform="matrix(1,0,0,-1,0,841.92)" d="M .000008871 0 L 595.32 0 L 595.32 841.92 L .000008871 841.92 Z " fill-rule="evenodd"/>
</clipPath>
<g clip-path="url(#cp42234)">
<text xml:space="preserve" transform="matrix(1 0 -0 1 0 841.92)" font-size="14.04" font-family="Times New Roman,Italic" font-style="italic"><tspan y="-555.07" x="555.46">-</tspan></text>
</g>
<clipPath id="cp42235">
<path transform="matrix(1,0,0,-1,0,841.92)" d="M .000008871 0 L 595.32 0 L 595.32 841.92 L .000008871 841.92 Z " fill-rule="evenodd"/>
</clipPath>
<g clip-path="url(#cp42235)">
<text xml:space="preserve" transform="matrix(1 0 -0 1 0 841.92)" font-size="14.04" font-family="Times New Roman"><tspan y="-555.07" x="560.02 563.5">  </tspan></text>
</g>
<clipPath id="cp42236">
<path transform="matrix(1,0,0,-1,0,841.92)" d="M .000008871 0 L 595.32 0 L 595.32 841.92 L .000008871 841.92 Z " fill-rule="evenodd"/>
</clipPath>
<g clip-path="url(#cp42236)">
<text xml:space="preserve" transform="matrix(1 0 -0 1 0 841.92)" font-size="14.04" font-family="Times New Roman"><tspan y="-530.95" x="99.264 110.06076 116.29452 123.370677 128.87435 135.83818 139.68514 146.74726 150.59421 157.65633 161.50328 168.46712 175.52924 182.35268 193.03713 196.98236 204.04448 211.00832 217.97216 222.64748 226.59272 233.55655 237.50179">m&#x0430;hsul&#x043e;tning miqd&#x043e;rini </tspan></text>
</g>
<clipPath id="cp42237">
<path transform="matrix(1,0,0,-1,0,841.92)" d="M .000008871 0 L 595.32 0 L 595.32 841.92 L .000008871 841.92 Z " fill-rule="evenodd"/>
</clipPath>
<g clip-path="url(#cp42237)">
<text xml:space="preserve" transform="matrix(1 0 -0 1 0 841.92)" font-size="14.04" font-family="Times New Roman,Italic" font-style="italic"><tspan y="-530.95" x="244.49">x</tspan></text>
</g>
<clipPath id="cp42238">
<path transform="matrix(1,0,0,-1,0,841.92)" d="M .000008871 0 L 595.32 0 L 595.32 841.92 L .000008871 841.92 Z " fill-rule="evenodd"/>
</clipPath>
<g clip-path="url(#cp42238)">
<text xml:space="preserve" transform="matrix(1 0 -0 1 0 841.92)" font-size="9" font-family="Times New Roman,Italic" font-style="italic"><tspan y="-529.39" x="250.73">i</tspan></text>
</g>
<clipPath id="cp42239">
<path transform="matrix(1,0,0,-1,0,841.92)" d="M .000008871 0 L 595.32 0 L 595.32 841.92 L .000008871 841.92 Z " fill-rule="evenodd"/>
</clipPath>
<g clip-path="url(#cp42239)">
<text xml:space="preserve" transform="matrix(1 0 -0 1 0 841.92)" font-size="9" font-family="Times New Roman"><tspan y="-529.39" x="253.13"> </tspan></text>
</g>
<clipPath id="cp42240">
<path transform="matrix(1,0,0,-1,0,841.92)" d="M .000008871 0 L 595.32 0 L 595.32 841.92 L .000008871 841.92 Z " fill-rule="evenodd"/>
</clipPath>
<g clip-path="url(#cp42240)">
<text xml:space="preserve" transform="matrix(1 0 -0 1 0 841.92)" font-size="14.04" font-family="Times New Roman"><tspan y="-530.95" x="258.65 265.7121 269.55906 273.50428 279.6257 286.6878 293.51127 300.4751 306.70887 310.55583 317.61793 321.46488 325.4101 331.64387 338.49537 349.1798 353.12504 359.3588 362.8688 369.66419 379.7449 386.56837 393.63047 400.69258 404.6378 411.60163 417.8354 424.67289 435.35734 441.5911 447.1088 453.34257 457.28779 463.52156 470.5977 476.71913 483.78123 487.72645 494.5499 501.26103 508.08448 514.9079 521.14169 525.81698 532.5281 538.03176 545.0939 551.21536 555.7783 559.6253">bil&#x0430;n b&#x0435;lgil&#x0430;ymiz. U h&#x043e;ld&#x0430; m&#x0430;s&#x0430;l&#x0430;d&#x0430;gi    &#x0430;) sh&#x0430;rt </tspan></text>
</g>
<clipPath id="cp42241">
<path transform="matrix(1,0,0,-1,0,841.92)" d="M .000008871 0 L 595.32 0 L 595.32 841.92 L .000008871 841.92 Z " fill-rule="evenodd"/>
</clipPath>
<g clip-path="url(#cp42241)">
<text xml:space="preserve" transform="matrix(1 0 -0 1 0 841.92)" font-size="14.04" font-family="Times New Roman"><tspan y="-506.83" x="99.264 106.32612 113.38824 120.225719 124.17096 131.23308 137.35453 144.31836 148.2636 151.77359 155.67671 161.82624 168.79007">quyid&#x0430;gi t&#x0435;ng</tspan></text>
</g>
<clipPath id="cp42242">
<path transform="matrix(1,0,0,-1,0,841.92)" d="M .000008871 0 L 595.32 0 L 595.32 841.92 L .000008871 841.92 Z " fill-rule="evenodd"/>
</clipPath>
<g clip-path="url(#cp42242)">
<text xml:space="preserve" transform="matrix(1 0 -0 1 0 841.92)" font-size="14.04" font-family="Times New Roman"><tspan y="-506.83" x="175.94 181.3454 185.29064 191.41208 195.35732 199.20427 206.26639 210.11334 216.3471 220.91011 224.4201 229.88167 233.78479 239.24636 243.21968 249.45345 260.13789 266.37165 271.88935 275.83457 279.19013 286.25224 290.92756 297.8914 304.12516 307.9721 311.91734 315.42735 319.33045 323.92155 330.88539 337.8492 344.08299 348.0282 354.14964 361.21174 367.33317 374.39527 378.24223">sizlikl&#x0430;r sist&#x0435;m&#x0430;si &#x043e;rq&#x0430;li if&#x043e;d&#x0430;l&#x0430;n&#x0430;di:</tspan></text>
</g>
<clipPath id="cp42243">
<path transform="matrix(1,0,0,-1,0,841.92)" d="M .000008871 0 L 595.32 0 L 595.32 841.92 L .000008871 841.92 Z " fill-rule="evenodd"/>
</clipPath>
<g clip-path="url(#cp42243)">
<text xml:space="preserve" transform="matrix(1 0 -0 1 0 841.92)" font-size="14.04" font-family="Times New Roman"><tspan y="-506.83" x="382.27"> </tspan></text>
</g>
</g>
<g id="Layer-1" data-name="P">
<clipPath id="cp42244">
<path transform="matrix(1,0,0,-1,0,841.92)" d="M .000008871 0 L 595.32 0 L 595.32 841.92 L .000008871 841.92 Z " fill-rule="evenodd"/>
</clipPath>
<g clip-path="url(#cp42244)">
<text xml:space="preserve" transform="matrix(1 0 -0 1 0 841.92)" font-size="14.04" font-family="Times New Roman"><tspan y="-445.51" x="113.42 116.9 120.380008 123.86001 127.34001 130.82 134.3 137.78 141.37232 144.85231 148.3323 151.8123 155.2923 158.7723 162.36461 165.8446 169.3246 172.8046 176.28459 179.76459 183.3569 186.8369 190.3169 193.79689 197.27689 200.75688 204.3492">                           </tspan></text>
</g>
</g>
<g id="Layer-1" data-name="P">
<clipPath id="cp42245">
<path transform="matrix(1,0,0,-1,0,841.92)" d="M 0 .000061035 L 595.32 .000061035 L 595.32 841.92007 L 0 841.92007 Z " fill-rule="evenodd"/>
</clipPath>
<g clip-path="url(#cp42245)">
<clipPath id="cp42246">
<path transform="matrix(1.0945575,0,0,-1.1280239,208.01,430.36)" d="M 0 0 L 154.91 0 L 154.91 74.469 L 0 74.469 Z " fill-rule="evenodd"/>
</clipPath>
<g clip-path="url(#cp42246)">
<text xml:space="preserve" transform="matrix(1.0945575 0 -0 1.1280239 208.01 430.36)" font-size="12.012" font-family="Symbol"><tspan y="-9.2098" x="1.8215">&#xf0ef;</tspan></text>
<text xml:space="preserve" transform="matrix(1.0945575 0 -0 1.1280239 208.01 430.36)" font-size="12.012" font-family="Symbol"><tspan y="-20.741" x="1.8215">&#xf0ef;</tspan></text>
<text xml:space="preserve" transform="matrix(1.0945575 0 -0 1.1280239 208.01 430.36)" font-size="12.012" font-family="Symbol"><tspan y="-3.7531" x="1.8215">&#xf0ee;</tspan></text>
<text xml:space="preserve" transform="matrix(1.0945575 0 -0 1.1280239 208.01 430.36)" font-size="12.012" font-family="Symbol"><tspan y="-41.308" x="1.8215">&#xf0ef;</tspan></text>
<text xml:space="preserve" transform="matrix(1.0945575 0 -0 1.1280239 208.01 430.36)" font-size="12.012" font-family="Symbol"><tspan y="-49.259" x="1.8215">&#xf0ef;</tspan></text>
<text xml:space="preserve" transform="matrix(1.0945575 0 -0 1.1280239 208.01 430.36)" font-size="12.012" font-family="Symbol"><tspan y="-32.271" x="1.8215">&#xf0ed;</tspan></text>
<text xml:space="preserve" transform="matrix(1.0945575 0 -0 1.1280239 208.01 430.36)" font-size="12.012" font-family="Symbol"><tspan y="-60.79" x="1.8215">&#xf0ec;</tspan></text>
<text xml:space="preserve" transform="matrix(1.0945575 0 -0 1.1280239 208.01 430.36)" font-size="12.012" font-family="Symbol"><tspan y="-6.9135" x="128.81">&#xf0a3;</tspan></text>
<text xml:space="preserve" transform="matrix(1.0945575 0 -0 1.1280239 208.01 430.36)" font-size="12.012" font-family="Symbol"><tspan y="-6.9135" x="89.403">&#xf02b;</tspan></text>
<text xml:space="preserve" transform="matrix(1.0945575 0 -0 1.1280239 208.01 430.36)" font-size="12.012" font-family="Symbol"><tspan y="-6.9135" x="84.874">&#xf0d7;</tspan></text>
<text xml:space="preserve" transform="matrix(1.0945575 0 -0 1.1280239 208.01 430.36)" font-size="12.012" font-family="Symbol"><tspan y="-6.9135" x="80.887">&#xf0d7;</tspan></text>
<text xml:space="preserve" transform="matrix(1.0945575 0 -0 1.1280239 208.01 430.36)" font-size="12.012" font-family="Symbol"><tspan y="-6.9135" x="76.923">&#xf0d7;</tspan></text>
<text xml:space="preserve" transform="matrix(1.0945575 0 -0 1.1280239 208.01 430.36)" font-size="12.012" font-family="Symbol"><tspan y="-6.9135" x="68.628">&#xf02b;</tspan></text>
<text xml:space="preserve" transform="matrix(1.0945575 0 -0 1.1280239 208.01 430.36)" font-size="12.012" font-family="Symbol"><tspan y="-6.9135" x="32.492">&#xf02b;</tspan></text>
<text xml:space="preserve" transform="matrix(1.0945575 0 -0 1.1280239 208.01 430.36)" font-size="12.012" font-family="Symbol"><tspan y="-24.963" x="146.88">&#xf02d;</tspan></text>
<text xml:space="preserve" transform="matrix(1.0945575 0 -0 1.1280239 208.01 430.36)" font-size="12.012" font-family="Symbol"><tspan y="-24.963" x="138.19">&#xf02d;</tspan></text>
<text xml:space="preserve" transform="matrix(1.0945575 0 -0 1.1280239 208.01 430.36)" font-size="12.012" font-family="Symbol"><tspan y="-24.963" x="129.5">&#xf02d;</tspan></text>
<text xml:space="preserve" transform="matrix(1.0945575 0 -0 1.1280239 208.01 430.36)" font-size="12.012" font-family="Symbol"><tspan y="-24.963" x="120.81">&#xf02d;</tspan></text>
<text xml:space="preserve" transform="matrix(1.0945575 0 -0 1.1280239 208.01 430.36)" font-size="12.012" font-family="Symbol"><tspan y="-24.963" x="112.12">&#xf02d;</tspan></text>
<text xml:space="preserve" transform="matrix(1.0945575 0 -0 1.1280239 208.01 430.36)" font-size="12.012" font-family="Symbol"><tspan y="-24.963" x="103.43">&#xf02d;</tspan></text>
<text xml:space="preserve" transform="matrix(1.0945575 0 -0 1.1280239 208.01 430.36)" font-size="12.012" font-family="Symbol"><tspan y="-24.963" x="94.745">&#xf02d;</tspan></text>
<text xml:space="preserve" transform="matrix(1.0945575 0 -0 1.1280239 208.01 430.36)" font-size="12.012" font-family="Symbol"><tspan y="-24.963" x="86.056">&#xf02d;</tspan></text>
<text xml:space="preserve" transform="matrix(1.0945575 0 -0 1.1280239 208.01 430.36)" font-size="12.012" font-family="Symbol"><tspan y="-24.963" x="77.367">&#xf02d;</tspan></text>
<text xml:space="preserve" transform="matrix(1.0945575 0 -0 1.1280239 208.01 430.36)" font-size="12.012" font-family="Symbol"><tspan y="-24.963" x="68.677">&#xf02d;</tspan></text>
<text xml:space="preserve" transform="matrix(1.0945575 0 -0 1.1280239 208.01 430.36)" font-size="12.012" font-family="Symbol"><tspan y="-24.963" x="59.988">&#xf02d;</tspan></text>
<text xml:space="preserve" transform="matrix(1.0945575 0 -0 1.1280239 208.01 430.36)" font-size="12.012" font-family="Symbol"><tspan y="-24.963" x="51.299">&#xf02d;</tspan></text>
<text xml:space="preserve" transform="matrix(1.0945575 0 -0 1.1280239 208.01 430.36)" font-size="12.012" font-family="Symbol"><tspan y="-24.963" x="42.609">&#xf02d;</tspan></text>
<text xml:space="preserve" transform="matrix(1.0945575 0 -0 1.1280239 208.01 430.36)" font-size="12.012" font-family="Symbol"><tspan y="-24.963" x="33.945">&#xf02d;</tspan></text>
<text xml:space="preserve" transform="matrix(1.0945575 0 -0 1.1280239 208.01 430.36)" font-size="12.012" font-family="Symbol"><tspan y="-24.963" x="25.255">&#xf02d;</tspan></text>
<text xml:space="preserve" transform="matrix(1.0945575 0 -0 1.1280239 208.01 430.36)" font-size="12.012" font-family="Symbol"><tspan y="-24.963" x="16.566">&#xf02d;</tspan></text>
<text xml:space="preserve" transform="matrix(1.0945575 0 -0 1.1280239 208.01 430.36)" font-size="12.012" font-family="Symbol"><tspan y="-24.963" x="7.877">&#xf02d;</tspan></text>
<text xml:space="preserve" transform="matrix(1.0945575 0 -0 1.1280239 208.01 430.36)" font-size="12.012" font-family="Symbol"><tspan y="-43.308" x="125.32">&#xf0a3;</tspan></text>
<text xml:space="preserve" transform="matrix(1.0945575 0 -0 1.1280239 208.01 430.36)" font-size="12.012" font-family="Symbol"><tspan y="-43.308" x="85.391">&#xf02b;</tspan></text>
<text xml:space="preserve" transform="matrix(1.0945575 0 -0 1.1280239 208.01 430.36)" font-size="12.012" font-family="Symbol"><tspan y="-43.308" x="80.862">&#xf0d7;</tspan></text>
<text xml:space="preserve" transform="matrix(1.0945575 0 -0 1.1280239 208.01 430.36)" font-size="12.012" font-family="Symbol"><tspan y="-43.308" x="76.899">&#xf0d7;</tspan></text>
<text xml:space="preserve" transform="matrix(1.0945575 0 -0 1.1280239 208.01 430.36)" font-size="12.012" font-family="Symbol"><tspan y="-43.308" x="72.936">&#xf0d7;</tspan></text>
<text xml:space="preserve" transform="matrix(1.0945575 0 -0 1.1280239 208.01 430.36)" font-size="12.012" font-family="Symbol"><tspan y="-43.308" x="64.616">&#xf02b;</tspan></text>
<text xml:space="preserve" transform="matrix(1.0945575 0 -0 1.1280239 208.01 430.36)" font-size="12.012" font-family="Symbol"><tspan y="-43.308" x="30.819">&#xf02b;</tspan></text>
<text xml:space="preserve" transform="matrix(1.0945575 0 -0 1.1280239 208.01 430.36)" font-size="12.012" font-family="Symbol"><tspan y="-61.654" x="126.2">&#xf0a3;</tspan></text>
<text xml:space="preserve" transform="matrix(1.0945575 0 -0 1.1280239 208.01 430.36)" font-size="12.012" font-family="Symbol"><tspan y="-61.654" x="87.607">&#xf02b;</tspan></text>
<text xml:space="preserve" transform="matrix(1.0945575 0 -0 1.1280239 208.01 430.36)" font-size="12.012" font-family="Symbol"><tspan y="-61.654" x="83.077">&#xf0d7;</tspan></text>
<text xml:space="preserve" transform="matrix(1.0945575 0 -0 1.1280239 208.01 430.36)" font-size="12.012" font-family="Symbol"><tspan y="-61.654" x="79.114">&#xf0d7;</tspan></text>
<text xml:space="preserve" transform="matrix(1.0945575 0 -0 1.1280239 208.01 430.36)" font-size="12.012" font-family="Symbol"><tspan y="-61.654" x="75.126">&#xf0d7;</tspan></text>
<text xml:space="preserve" transform="matrix(1.0945575 0 -0 1.1280239 208.01 430.36)" font-size="12.012" font-family="Symbol"><tspan y="-61.654" x="66.831">&#xf02b;</tspan></text>
<text xml:space="preserve" transform="matrix(1.0945575 0 -0 1.1280239 208.01 430.36)" font-size="12.012" font-family="Symbol"><tspan y="-61.654" x="31.852">&#xf02b;</tspan></text>
<text xml:space="preserve" transform="matrix(1.0945575 0 -0 1.1280239 208.01 430.36)" font-size="12.012" font-family="Times New Roman"><tspan y="-6.9135" x="148.33">,</tspan></text>
<text xml:space="preserve" transform="matrix(1.0945575 0 -0 1.1280239 208.01 430.36)" font-size="12.012" font-family="Times New Roman"><tspan y="-43.308" x="144.69">,</tspan></text>
<text xml:space="preserve" transform="matrix(1.0945575 0 -0 1.1280239 208.01 430.36)" font-size="12.012" font-family="Times New Roman"><tspan y="-61.654" x="144.27">,</tspan></text>
<text xml:space="preserve" transform="matrix(1.0945575 0 -0 1.1280239 208.01 430.36)" font-size="6.9908" font-family="Times New Roman"><tspan y="-3.9012" x="61.859">2</tspan></text>
<text xml:space="preserve" transform="matrix(1.0945575 0 -0 1.1280239 208.01 430.36)" font-size="6.9908" font-family="Times New Roman"><tspan y="-3.9012" x="47.557">2</tspan></text>
<text xml:space="preserve" transform="matrix(1.0945575 0 -0 1.1280239 208.01 430.36)" font-size="6.9908" font-family="Times New Roman"><tspan y="-3.9012" x="26.24">1</tspan></text>
<text xml:space="preserve" transform="matrix(1.0945575 0 -0 1.1280239 208.01 430.36)" font-size="6.9908" font-family="Times New Roman"><tspan y="-3.9012" x="13.292">1</tspan></text>
<text xml:space="preserve" transform="matrix(1.0945575 0 -0 1.1280239 208.01 430.36)" font-size="6.9908" font-family="Times New Roman"><tspan y="-40.296" x="140.01">2</tspan></text>
<text xml:space="preserve" transform="matrix(1.0945575 0 -0 1.1280239 208.01 430.36)" font-size="6.9908" font-family="Times New Roman"><tspan y="-40.296" x="106.17">2</tspan></text>
<text xml:space="preserve" transform="matrix(1.0945575 0 -0 1.1280239 208.01 430.36)" font-size="6.9908" font-family="Times New Roman"><tspan y="-40.296" x="57.846">2</tspan></text>
<text xml:space="preserve" transform="matrix(1.0945575 0 -0 1.1280239 208.01 430.36)" font-size="6.9908" font-family="Times New Roman"><tspan y="-40.296" x="44.185 47.7789">22</tspan></text>
<text xml:space="preserve" transform="matrix(1.0945575 0 -0 1.1280239 208.01 430.36)" font-size="6.9908" font-family="Times New Roman"><tspan y="-40.296" x="26.856">1</tspan></text>
<text xml:space="preserve" transform="matrix(1.0945575 0 -0 1.1280239 208.01 430.36)" font-size="6.9908" font-family="Times New Roman"><tspan y="-40.296" x="13.292 16.8859">12</tspan></text>
<text xml:space="preserve" transform="matrix(1.0945575 0 -0 1.1280239 208.01 430.36)" font-size="6.9908" font-family="Times New Roman"><tspan y="-58.641" x="140.11">1</tspan></text>
<text xml:space="preserve" transform="matrix(1.0945575 0 -0 1.1280239 208.01 430.36)" font-size="6.9908" font-family="Times New Roman"><tspan y="-58.641" x="107.59">1</tspan></text>
<text xml:space="preserve" transform="matrix(1.0945575 0 -0 1.1280239 208.01 430.36)" font-size="6.9908" font-family="Times New Roman"><tspan y="-58.641" x="60.062">2</tspan></text>
<text xml:space="preserve" transform="matrix(1.0945575 0 -0 1.1280239 208.01 430.36)" font-size="6.9908" font-family="Times New Roman"><tspan y="-58.641" x="46.942 50.5359">21</tspan></text>
<text xml:space="preserve" transform="matrix(1.0945575 0 -0 1.1280239 208.01 430.36)" font-size="6.9908" font-family="Times New Roman"><tspan y="-58.641" x="25.625">1</tspan></text>
<text xml:space="preserve" transform="matrix(1.0945575 0 -0 1.1280239 208.01 430.36)" font-size="6.9908" font-family="Times New Roman"><tspan y="-58.641" x="13.292 16.8859">11</tspan></text>
<text xml:space="preserve" transform="matrix(1.0945575 0 -0 1.1280239 208.01 430.36)" font-size="6.9908" font-family="Times New Roman,Italic" font-style="italic"><tspan y="-3.9012" x="143.51">n</tspan></text>
<text xml:space="preserve" transform="matrix(1.0945575 0 -0 1.1280239 208.01 430.36)" font-size="6.9908" font-family="Times New Roman,Italic" font-style="italic"><tspan y="-3.9012" x="119.8">m</tspan></text>
<text xml:space="preserve" transform="matrix(1.0945575 0 -0 1.1280239 208.01 430.36)" font-size="6.9908" font-family="Times New Roman,Italic" font-style="italic"><tspan y="-3.9012" x="104.47 109.51618">mn</tspan></text>
<text xml:space="preserve" transform="matrix(1.0945575 0 -0 1.1280239 208.01 430.36)" font-size="6.9908" font-family="Times New Roman,Italic" font-style="italic"><tspan y="-3.9012" x="51.594">n</tspan></text>
<text xml:space="preserve" transform="matrix(1.0945575 0 -0 1.1280239 208.01 430.36)" font-size="6.9908" font-family="Times New Roman,Italic" font-style="italic"><tspan y="-3.9012" x="16.788">n</tspan></text>
<text xml:space="preserve" transform="matrix(1.0945575 0 -0 1.1280239 208.01 430.36)" font-size="6.9908" font-family="Times New Roman,Italic" font-style="italic"><tspan y="-40.296" x="116.31">m</tspan></text>
<text xml:space="preserve" transform="matrix(1.0945575 0 -0 1.1280239 208.01 430.36)" font-size="6.9908" font-family="Times New Roman,Italic" font-style="italic"><tspan y="-40.296" x="100.48">m</tspan></text>
<text xml:space="preserve" transform="matrix(1.0945575 0 -0 1.1280239 208.01 430.36)" font-size="6.9908" font-family="Times New Roman,Italic" font-style="italic"><tspan y="-58.641" x="117.19">m</tspan></text>
<text xml:space="preserve" transform="matrix(1.0945575 0 -0 1.1280239 208.01 430.36)" font-size="6.9908" font-family="Times New Roman,Italic" font-style="italic"><tspan y="-58.641" x="102.67">m</tspan></text>
<text xml:space="preserve" transform="matrix(1.0945575 0 -0 1.1280239 208.01 430.36)" font-size="12.012" font-family="Times New Roman,Italic" font-style="italic"><tspan y="-6.9135" x="137.87">b</tspan></text>
<text xml:space="preserve" transform="matrix(1.0945575 0 -0 1.1280239 208.01 430.36)" font-size="12.012" font-family="Times New Roman,Italic" font-style="italic"><tspan y="-6.9135" x="114.36">x</tspan></text>
<text xml:space="preserve" transform="matrix(1.0945575 0 -0 1.1280239 208.01 430.36)" font-size="12.012" font-family="Times New Roman,Italic" font-style="italic"><tspan y="-6.9135" x="98.265">a</tspan></text>
<text xml:space="preserve" transform="matrix(1.0945575 0 -0 1.1280239 208.01 430.36)" font-size="12.012" font-family="Times New Roman,Italic" font-style="italic"><tspan y="-6.9135" x="56.419">x</tspan></text>
<text xml:space="preserve" transform="matrix(1.0945575 0 -0 1.1280239 208.01 430.36)" font-size="12.012" font-family="Times New Roman,Italic" font-style="italic"><tspan y="-6.9135" x="41.354">a</tspan></text>
<text xml:space="preserve" transform="matrix(1.0945575 0 -0 1.1280239 208.01 430.36)" font-size="12.012" font-family="Times New Roman,Italic" font-style="italic"><tspan y="-6.9135" x="21.588">x</tspan></text>
<text xml:space="preserve" transform="matrix(1.0945575 0 -0 1.1280239 208.01 430.36)" font-size="12.012" font-family="Times New Roman,Italic" font-style="italic"><tspan y="-6.9135" x="7.877">a</tspan></text>
<text xml:space="preserve" transform="matrix(1.0945575 0 -0 1.1280239 208.01 430.36)" font-size="12.012" font-family="Times New Roman,Italic" font-style="italic"><tspan y="-43.308" x="134.38">b</tspan></text>
<text xml:space="preserve" transform="matrix(1.0945575 0 -0 1.1280239 208.01 430.36)" font-size="12.012" font-family="Times New Roman,Italic" font-style="italic"><tspan y="-43.308" x="110.87">x</tspan></text>
<text xml:space="preserve" transform="matrix(1.0945575 0 -0 1.1280239 208.01 430.36)" font-size="12.012" font-family="Times New Roman,Italic" font-style="italic"><tspan y="-43.308" x="94.277">a</tspan></text>
<text xml:space="preserve" transform="matrix(1.0945575 0 -0 1.1280239 208.01 430.36)" font-size="12.012" font-family="Times New Roman,Italic" font-style="italic"><tspan y="-43.308" x="52.406">x</tspan></text>
<text xml:space="preserve" transform="matrix(1.0945575 0 -0 1.1280239 208.01 430.36)" font-size="12.012" font-family="Times New Roman,Italic" font-style="italic"><tspan y="-43.308" x="37.982">a</tspan></text>
<text xml:space="preserve" transform="matrix(1.0945575 0 -0 1.1280239 208.01 430.36)" font-size="12.012" font-family="Times New Roman,Italic" font-style="italic"><tspan y="-43.308" x="21.489">x</tspan></text>
<text xml:space="preserve" transform="matrix(1.0945575 0 -0 1.1280239 208.01 430.36)" font-size="12.012" font-family="Times New Roman,Italic" font-style="italic"><tspan y="-43.308" x="7.877">a</tspan></text>
<text xml:space="preserve" transform="matrix(1.0945575 0 -0 1.1280239 208.01 430.36)" font-size="12.012" font-family="Times New Roman,Italic" font-style="italic"><tspan y="-61.654" x="135.26">b</tspan></text>
<text xml:space="preserve" transform="matrix(1.0945575 0 -0 1.1280239 208.01 430.36)" font-size="12.012" font-family="Times New Roman,Italic" font-style="italic"><tspan y="-61.654" x="111.75">x</tspan></text>
<text xml:space="preserve" transform="matrix(1.0945575 0 -0 1.1280239 208.01 430.36)" font-size="12.012" font-family="Times New Roman,Italic" font-style="italic"><tspan y="-61.654" x="96.468">a</tspan></text>
<text xml:space="preserve" transform="matrix(1.0945575 0 -0 1.1280239 208.01 430.36)" font-size="12.012" font-family="Times New Roman,Italic" font-style="italic"><tspan y="-61.654" x="54.622">x</tspan></text>
<text xml:space="preserve" transform="matrix(1.0945575 0 -0 1.1280239 208.01 430.36)" font-size="12.012" font-family="Times New Roman,Italic" font-style="italic"><tspan y="-61.654" x="40.739">a</tspan></text>
<text xml:space="preserve" transform="matrix(1.0945575 0 -0 1.1280239 208.01 430.36)" font-size="12.012" font-family="Times New Roman,Italic" font-style="italic"><tspan y="-61.654" x="20.972">x</tspan></text>
<text xml:space="preserve" transform="matrix(1.0945575 0 -0 1.1280239 208.01 430.36)" font-size="12.012" font-family="Times New Roman,Italic" font-style="italic"><tspan y="-61.654" x="7.877">a</tspan></text>
</g>
</g>
</g>
<g id="Layer-1" data-name="P">
<clipPath id="cp42247">
<path transform="matrix(1,0,0,-1,0,841.92)" d="M .000008871 0 L 595.32 0 L 595.32 841.92 L .000008871 841.92 Z " fill-rule="evenodd"/>
</clipPath>
<g clip-path="url(#cp42247)">
<text xml:space="preserve" transform="matrix(1 0 -0 1 0 841.92)" font-size="14.04" font-family="Times New Roman"><tspan y="-445.51" x="377.59 381.07 384.55003 388.03004 391.51005 394.99006 398.47007 401.95008 405.54243 409.02244 412.50245 415.98246 419.46247 422.94248 426.4225 429.9025 433.49485 436.97486 440.45487 443.93489 447.4149 450.8949">                      </tspan></text>
</g>
<clipPath id="cp42248">
<path transform="matrix(1,0,0,-1,0,841.92)" d="M .000008871 0 L 595.32 0 L 595.32 841.92 L .000008871 841.92 Z " fill-rule="evenodd"/>
</clipPath>
<g clip-path="url(#cp42248)">
<text xml:space="preserve" transform="matrix(1 0 -0 1 0 841.92)" font-size="14.04" font-family="Times New Roman"><tspan y="-445.51" x="454.42 459.09535 466.17149">(1)</tspan></text>
</g>
<clipPath id="cp42249">
<path transform="matrix(1,0,0,-1,0,841.92)" d="M .000008871 0 L 595.32 0 L 595.32 841.92 L .000008871 841.92 Z " fill-rule="evenodd"/>
</clipPath>
<g clip-path="url(#cp42249)">
<text xml:space="preserve" transform="matrix(1 0 -0 1 0 841.92)" font-size="14.04" font-family="Times New Roman"><tspan y="-445.51" x="470.86"> </tspan></text>
</g>
</g>
<g id="Layer-1" data-name="P">
<clipPath id="cp42250">
<path transform="matrix(1,0,0,-1,0,841.92)" d="M .000008871 0 L 595.32 0 L 595.32 841.92 L .000008871 841.92 Z " fill-rule="evenodd"/>
</clipPath>
<g clip-path="url(#cp42250)">
<text xml:space="preserve" transform="matrix(1 0 -0 1 0 841.92)" font-size="14.04" font-family="Times New Roman"><tspan y="-390.65" x="113.42"> </tspan></text>
</g>
<clipPath id="cp42251">
<path transform="matrix(1,0,0,-1,0,841.92)" d="M .000008871 0 L 595.32 0 L 595.32 841.92 L .000008871 841.92 Z " fill-rule="evenodd"/>
</clipPath>
<g clip-path="url(#cp42251)">
<text xml:space="preserve" transform="matrix(1 0 -0 1 0 841.92)" font-size="14.04" font-family="Times New Roman"><tspan y="-390.65" x="120.5 132.98157 139.21533 144.71901 150.84046 154.78569 160.90714 167.96926 171.81621 178.78005 185.84217 197.83232 201.67928 208.7414 212.58835 216.53359 221.93898 228.90282 235.96494 239.81189 246.77573 258.8782 269.56266 275.90876 280.47175 287.53385 294.59596 300.00135 303.94657 311.00868 317.24244 329.12028 336.0841 343.1462 347.7092 352.38453">M&#x0430;s&#x0430;l&#x0430;ning iqtis&#x043e;diy m&#x0430;&#x2019;n&#x043e;sig&#x0430; ko&#x2019;r&#x0430;</tspan></text>
</g>
<clipPath id="cp42252">
<path transform="matrix(1,0,0,-1,0,841.92)" d="M .000008871 0 L 595.32 0 L 595.32 841.92 L .000008871 841.92 Z " fill-rule="evenodd"/>
</clipPath>
<g clip-path="url(#cp42252)">
<text xml:space="preserve" transform="matrix(1 0 -0 1 0 841.92)" font-size="14.04" font-family="Times New Roman"><tspan y="-390.65" x="358.87"> </tspan></text>
</g>
<clipPath id="cp42253">
<path transform="matrix(1,0,0,-1,0,841.92)" d="M .000008871 0 L 595.32 0 L 595.32 841.92 L .000008871 841.92 Z " fill-rule="evenodd"/>
</clipPath>
<g clip-path="url(#cp42253)">
<text xml:space="preserve" transform="matrix(1 0 -0 1 0 841.92)" font-size="14.04" font-family="Times New Roman"><tspan y="-390.65" x="370.87 377.9321 384.16587 394.97666 405.7734 412.00718 423.99736 435.98753 443.04963 450.11174 460.79618 467.14228 471.70527 475.65049 482.7126 493.39704 497.34226 503.57603 508.25135 520.36788 531.05227 537.286 544.3622 549.0375 552.9827 559.82028">h&#x0430;mm&#x0430;  n&#x043e;m&#x0430;&#x2019;luml&#x0430;r m&#x0430;nfiy </tspan></text>
</g>
<clipPath id="cp42254">
<path transform="matrix(1,0,0,-1,0,841.92)" d="M .000008871 0 L 595.32 0 L 595.32 841.92 L .000008871 841.92 Z " fill-rule="evenodd"/>
</clipPath>
<g clip-path="url(#cp42254)">
<text xml:space="preserve" transform="matrix(1 0 -0 1 0 841.92)" font-size="14.04" font-family="Times New Roman"><tspan y="-366.41" x="85.104 92.166118 99.22823 103.79124 107.73648 118.42092 124.65468 130.17241 134.11765 137.9646 144.92844 148.87368 152.38367 159.40367 165.63744 170.22852 176.46228 183.53845 187.04845 190.50228 197.33975 203.57352 208.13652 215.19864 219.14388">bo&#x2019;lm&#x0430;sligi k&#x0435;r&#x0430;k, ya&#x2019;ni:</tspan></text>
</g>
<clipPath id="cp42255">
<path transform="matrix(1,0,0,-1,0,841.92)" d="M .000008871 0 L 595.32 0 L 595.32 841.92 L .000008871 841.92 Z " fill-rule="evenodd"/>
</clipPath>
<g clip-path="url(#cp42255)">
<text xml:space="preserve" transform="matrix(1 0 -0 1 0 841.92)" font-size="14.04" font-family="Times New Roman"><tspan y="-366.41" x="223.13"> </tspan></text>
</g>
</g>
<g id="Layer-1" data-name="P">
<clipPath id="cp42256">
<path transform="matrix(1,0,0,-1,0,841.92)" d="M .000008871 0 L 595.32 0 L 595.32 841.92 L .000008871 841.92 Z " fill-rule="evenodd"/>
</clipPath>
<g clip-path="url(#cp42256)">
<text xml:space="preserve" transform="matrix(1 0 -0 1 0 841.92)" font-size="14.04" font-family="Times New Roman,Italic" font-style="italic"><tspan y="-341.21" x="127.58">x</tspan></text>
</g>
<clipPath id="cp42257">
<path transform="matrix(1,0,0,-1,0,841.92)" d="M .000008871 0 L 595.32 0 L 595.32 841.92 L .000008871 841.92 Z " fill-rule="evenodd"/>
</clipPath>
<g clip-path="url(#cp42257)">
<text xml:space="preserve" transform="matrix(1 0 -0 1 0 841.92)" font-size="9" font-family="Times New Roman,Italic" font-style="italic"><tspan y="-339.65" x="133.82">i</tspan></text>
</g>
<clipPath id="cp42258">
<path transform="matrix(1,0,0,-1,0,841.92)" d="M .000008871 0 L 595.32 0 L 595.32 841.92 L .000008871 841.92 Z " fill-rule="evenodd"/>
</clipPath>
<g clip-path="url(#cp42258)">
<text xml:space="preserve" transform="matrix(1 0 -0 1 0 841.92)" font-size="14.04" font-family="Times New Roman,Italic" font-style="italic"><tspan y="-341.21" x="136.34"> </tspan></text>
</g>
<clipPath id="cp42259">
<path transform="matrix(1,0,0,-1,0,841.92)" d="M .000017745 0 L 595.32 0 L 595.32 841.92 L .000017745 841.92 Z " fill-rule="evenodd"/>
</clipPath>
<g clip-path="url(#cp42259)">
<text xml:space="preserve" transform="matrix(1 0 -.3333 1 0 841.92)" font-size="14.04" font-family="Symbol"><tspan y="-341.21" x="26.094719">&#xf0b3;</tspan></text>
</g>
<clipPath id="cp42260">
<path transform="matrix(1,0,0,-1,0,841.92)" d="M .000008871 0 L 595.32 0 L 595.32 841.92 L .000008871 841.92 Z " fill-rule="evenodd"/>
</clipPath>
<g clip-path="url(#cp42260)">
<text xml:space="preserve" transform="matrix(1 0 -0 1 0 841.92)" font-size="14.04" font-family="Times New Roman,Italic" font-style="italic"><tspan y="-341.21" x="147.5">0</tspan></text>
</g>
<clipPath id="cp42261">
<path transform="matrix(1,0,0,-1,0,841.92)" d="M .000008871 0 L 595.32 0 L 595.32 841.92 L .000008871 841.92 Z " fill-rule="evenodd"/>
</clipPath>
<g clip-path="url(#cp42261)">
<text xml:space="preserve" transform="matrix(1 0 -0 1 0 841.92)" font-size="14.04" font-family="Times New Roman,Italic" font-style="italic"><tspan y="-341.21" x="154.46"> </tspan></text>
</g>
<clipPath id="cp42262">
<path transform="matrix(1,0,0,-1,0,841.92)" d="M .000008871 0 L 595.32 0 L 595.32 841.92 L .000008871 841.92 Z " fill-rule="evenodd"/>
</clipPath>
<g clip-path="url(#cp42262)">
<text xml:space="preserve" transform="matrix(1 0 -0 1 0 841.92)" font-size="14.04" font-family="Times New Roman,Italic" font-style="italic"><tspan y="-341.21" x="155.9 160.57532 164.52056 173.88524 180.94736 184.45735 191.47736 194.98735 207.46892 217.54964 222.22496">(i=1,2,&#x2026;m),</tspan></text>
</g>
<clipPath id="cp42263">
<path transform="matrix(1,0,0,-1,0,841.92)" d="M .000008871 0 L 595.32 0 L 595.32 841.92 L .000008871 841.92 Z " fill-rule="evenodd"/>
</clipPath>
<g clip-path="url(#cp42263)">
<text xml:space="preserve" transform="matrix(1 0 -0 1 0 841.92)" font-size="14.04" font-family="Times New Roman,Italic" font-style="italic"><tspan y="-341.21" x="225.65"> </tspan></text>
</g>
<clipPath id="cp42264">
<path transform="matrix(1,0,0,-1,0,841.92)" d="M .000008871 0 L 595.32 0 L 595.32 841.92 L .000008871 841.92 Z " fill-rule="evenodd"/>
</clipPath>
<g clip-path="url(#cp42264)">
<text xml:space="preserve" transform="matrix(1 0 -0 1 0 841.92)" font-size="14.04" font-family="Times New Roman"><tspan y="-341.21" x="226.73"> </tspan></text>
</g>
<clipPath id="cp42265">
<path transform="matrix(1,0,0,-1,0,841.92)" d="M .000008871 0 L 595.32 0 L 595.32 841.92 L .000008871 841.92 Z " fill-rule="evenodd"/>
</clipPath>
<g clip-path="url(#cp42265)">
<text xml:space="preserve" transform="matrix(1 0 -0 1 0 841.92)" font-size="14.04" font-family="Times New Roman"><tspan y="-341.21" x="262.13 265.61003 269.09004 272.57005 276.05006 279.53007 283.01008 286.49009 290.08244 293.56245 297.04246 300.52247 304.00248 307.48249 311.07484 314.55485 318.03486 321.51487 324.99488 328.47489 332.06724">                     </tspan></text>
</g>
<clipPath id="cp42266">
<path transform="matrix(1,0,0,-1,0,841.92)" d="M .000008871 0 L 595.32 0 L 595.32 841.92 L .000008871 841.92 Z " fill-rule="evenodd"/>
</clipPath>
<g clip-path="url(#cp42266)">
<text xml:space="preserve" transform="matrix(1 0 -0 1 0 841.92)" font-size="14.04" font-family="Times New Roman"><tspan y="-341.21" x="335.59 340.26533 347.34147">(2)</tspan></text>
</g>
<clipPath id="cp42267">
<path transform="matrix(1,0,0,-1,0,841.92)" d="M .000008871 0 L 595.32 0 L 595.32 841.92 L .000008871 841.92 Z " fill-rule="evenodd"/>
</clipPath>
<g clip-path="url(#cp42267)">
<text xml:space="preserve" transform="matrix(1 0 -0 1 0 841.92)" font-size="14.04" font-family="Times New Roman"><tspan y="-341.21" x="352.03"> </tspan></text>
</g>
</g>
<g id="Layer-1" data-name="P">
<clipPath id="cp42268">
<path transform="matrix(1,0,0,-1,0,841.92)" d="M .000008871 0 L 595.32 0 L 595.32 841.92 L .000008871 841.92 Z " fill-rule="evenodd"/>
</clipPath>
<g clip-path="url(#cp42268)">
<text xml:space="preserve" transform="matrix(1 0 -0 1 0 841.92)" font-size="14.04" font-family="Times New Roman"><tspan y="-316.61" x="127.58 140.06157 146.29534 151.79901 157.92046 161.86569 167.98714 175.04926 181.1707 188.23282 192.17806 201.641 208.60485 213.28017 222.75716 228.26084 235.22467 241.45844 246.13376 249.98072 259.44367 266.50578 273.56788 277.41484 284.37867 291.44078 300.90376 311.5882 317.82197 324.8981 330.40177 336.63554 343.71168 347.55863 354.52247 358.46769 367.93067 374.16444 381.24058 385.08753 392.05137 395.99659 402.23036 409.08186 416.14396 420.08918 423.59919 433.03407 442.49705 452.57777 458.92387 469.6083 475.84208 482.9182 486.42823 495.98948 506.67393 512.90768 518.42538 524.6591 528.6044 534.83816 541.802 545.649 552.61288 559.5767">M&#x0430;s&#x0430;l&#x0430;d&#x0430;gi b) sh&#x0430;rt uning m&#x0430;qs&#x0430;dini &#x0430;niql&#x0430;ydi.  D&#x0435;m&#x0430;k, m&#x0430;s&#x0430;l&#x0430;ning </tspan></text>
</g>
<clipPath id="cp42269">
<path transform="matrix(1,0,0,-1,0,841.92)" d="M .000008871 0 L 595.32 0 L 595.32 841.92 L .000008871 841.92 Z " fill-rule="evenodd"/>
</clipPath>
<g clip-path="url(#cp42269)">
<text xml:space="preserve" transform="matrix(1 0 -0 1 0 841.92)" font-size="14.04" font-family="Times New Roman"><tspan y="-292.49" x="99.264 110.06076 116.29452 123.370677 128.87435 134.99579 142.0579 146.00315 156.06983 166.75428 172.98804 180.06421 185.4696 192.53173 196.37868 203.34252 207.28775 211.23299 217.35443 221.91744 228.97956 232.8265 242.89319 247.56851 253.80228 259.93778 263.883 267.82823 273.94966 280.1834 285.5888 289.53404 296.3715 302.60527 312.67195 319.73405 323.581 327.5262 331.37318 336.77857 343.7424 350.8045 356.92594 363.98805 374.05473 381.01856 388.08067 392.64366 399.60749 406.6696 413.7317 419.85313 426.81697 430.76219 437.726 444.78813 454.72846 461.6923 465.53926 471.773 478.84916 482.6961 489.7582 495.87965 502.94175 512.8821 519.9442 530.6286 537.8171 548.50149 552.57308 559.5369 563.04696">m&#x0430;qs&#x0430;di m&#x0430;hsul&#x043e;tl&#x0430;rni r&#x0435;&#x0430;liz&#x0430;siya qilishd&#x0430;n k&#x043e;r&#x0445;&#x043e;n&#x0430;ning &#x043e;l&#x0430;dig&#x0430;n umumiy  </tspan></text>
</g>
<clipPath id="cp42270">
<path transform="matrix(1,0,0,-1,0,841.92)" d="M .000008871 0 L 595.32 0 L 595.32 841.92 L .000008871 841.92 Z " fill-rule="evenodd"/>
</clipPath>
<g clip-path="url(#cp42270)">
<text xml:space="preserve" transform="matrix(1 0 -0 1 0 841.92)" font-size="14.04" font-family="Times New Roman"><tspan y="-268.25" x="99.264 106.32612 112.559879 117.12288 124.185 134.86945 141.10321 148.17938 152.12462 159.08846 163.03369 166.54369 177.20006 183.43383 190.51 196.01367 199.95891 210.64336 216.87712 220.82236 224.7676 231.00136 236.40676 243.37059 247.31583 251.26107 255.82407 259.67103 265.17469 272.13853 279.20063 285.32206 292.38417 295.89418 299.699 306.7611 313.72496 318.40028 324.63404 328.5933 331.94886 338.9127 345.14646 348.65647 355.67646 362.69645">d&#x0430;r&#x043e;m&#x0430;dini m&#x0430;ksim&#x0430;ll&#x0430;shtirishd&#x0430;n ib&#x043e;r&#x0430;t v&#x0430; uni</tspan></text>
</g>
<clipPath id="cp42271">
<path transform="matrix(1,0,0,-1,0,841.92)" d="M .000008871 0 L 595.32 0 L 595.32 841.92 L .000008871 841.92 Z " fill-rule="evenodd"/>
</clipPath>
<g clip-path="url(#cp42271)">
<text xml:space="preserve" transform="matrix(1 0 -0 1 0 841.92)" font-size="14.04" font-family="Times New Roman"><tspan y="-268.25" x="366.79"> </tspan></text>
</g>
</g>
<g id="Layer-1" data-name="P">
<clipPath id="cp42272">
<path transform="matrix(1,0,0,-1,0,841.92)" d="M .000008871 0 L 595.32 0 L 595.32 841.92 L .000008871 841.92 Z " fill-rule="evenodd"/>
</clipPath>
<g clip-path="url(#cp42272)">
<text xml:space="preserve" transform="matrix(1 0 -0 1 0 841.92)" font-size="14.04" font-family="Times New Roman,Italic" font-style="italic"><tspan y="-244.13" x="127.58 133.81377 137.32376 146.80077 150.2546">y = c</tspan></text>
</g>
<clipPath id="cp42273">
<path transform="matrix(1,0,0,-1,0,841.92)" d="M .000008871 0 L 595.32 0 L 595.32 841.92 L .000008871 841.92 Z " fill-rule="evenodd"/>
</clipPath>
<g clip-path="url(#cp42273)">
<text xml:space="preserve" transform="matrix(1 0 -0 1 0 841.92)" font-size="9" font-family="Times New Roman,Italic" font-style="italic"><tspan y="-242.57" x="156.5">1</tspan></text>
</g>
<clipPath id="cp42274">
<path transform="matrix(1,0,0,-1,0,841.92)" d="M .000008871 0 L 595.32 0 L 595.32 841.92 L .000008871 841.92 Z " fill-rule="evenodd"/>
</clipPath>
<g clip-path="url(#cp42274)">
<text xml:space="preserve" transform="matrix(1 0 -0 1 0 841.92)" font-size="14.04" font-family="Times New Roman,Italic" font-style="italic"><tspan y="-244.13" x="161.06">x</tspan></text>
</g>
<clipPath id="cp42275">
<path transform="matrix(1,0,0,-1,0,841.92)" d="M .000008871 0 L 595.32 0 L 595.32 841.92 L .000008871 841.92 Z " fill-rule="evenodd"/>
</clipPath>
<g clip-path="url(#cp42275)">
<text xml:space="preserve" transform="matrix(1 0 -0 1 0 841.92)" font-size="9" font-family="Times New Roman,Italic" font-style="italic"><tspan y="-242.57" x="167.18">1</tspan></text>
</g>
<clipPath id="cp42276">
<path transform="matrix(1,0,0,-1,0,841.92)" d="M .000008871 0 L 595.32 0 L 595.32 841.92 L .000008871 841.92 Z " fill-rule="evenodd"/>
</clipPath>
<g clip-path="url(#cp42276)">
<text xml:space="preserve" transform="matrix(1 0 -0 1 0 841.92)" font-size="14.04" font-family="Times New Roman,Italic" font-style="italic"><tspan y="-244.13" x="171.74"> </tspan></text>
</g>
<clipPath id="cp42277">
<path transform="matrix(1,0,0,-1,0,841.92)" d="M .000008871 0 L 595.32 0 L 595.32 841.92 L .000008871 841.92 Z " fill-rule="evenodd"/>
</clipPath>
<g clip-path="url(#cp42277)">
<text xml:space="preserve" transform="matrix(1 0 -0 1 0 841.92)" font-size="14.04" font-family="Times New Roman,Italic" font-style="italic"><tspan y="-244.13" x="175.22 184.7">+c</tspan></text>
</g>
<clipPath id="cp42278">
<path transform="matrix(1,0,0,-1,0,841.92)" d="M .000008871 0 L 595.32 0 L 595.32 841.92 L .000008871 841.92 Z " fill-rule="evenodd"/>
</clipPath>
<g clip-path="url(#cp42278)">
<text xml:space="preserve" transform="matrix(1 0 -0 1 0 841.92)" font-size="9" font-family="Times New Roman,Italic" font-style="italic"><tspan y="-242.57" x="190.97">2</tspan></text>
</g>
<clipPath id="cp42279">
<path transform="matrix(1,0,0,-1,0,841.92)" d="M .000008871 0 L 595.32 0 L 595.32 841.92 L .000008871 841.92 Z " fill-rule="evenodd"/>
</clipPath>
<g clip-path="url(#cp42279)">
<text xml:space="preserve" transform="matrix(1 0 -0 1 0 841.92)" font-size="14.04" font-family="Times New Roman,Italic" font-style="italic"><tspan y="-244.13" x="195.41">x</tspan></text>
</g>
<clipPath id="cp42280">
<path transform="matrix(1,0,0,-1,0,841.92)" d="M .000008871 0 L 595.32 0 L 595.32 841.92 L .000008871 841.92 Z " fill-rule="evenodd"/>
</clipPath>
<g clip-path="url(#cp42280)">
<text xml:space="preserve" transform="matrix(1 0 -0 1 0 841.92)" font-size="9" font-family="Times New Roman,Italic" font-style="italic"><tspan y="-242.57" x="201.65">2</tspan></text>
</g>
<clipPath id="cp42281">
<path transform="matrix(1,0,0,-1,0,841.92)" d="M .000008871 0 L 595.32 0 L 595.32 841.92 L .000008871 841.92 Z " fill-rule="evenodd"/>
</clipPath>
<g clip-path="url(#cp42281)">
<text xml:space="preserve" transform="matrix(1 0 -0 1 0 841.92)" font-size="14.04" font-family="Times New Roman,Italic" font-style="italic"><tspan y="-244.13" x="206.21 215.68701 219.197 231.67858 235.00605 244.48305 247.99304">+ &#x2026; + c</tspan></text>
</g>
<clipPath id="cp42282">
<path transform="matrix(1,0,0,-1,0,841.92)" d="M .000008871 0 L 595.32 0 L 595.32 841.92 L .000008871 841.92 Z " fill-rule="evenodd"/>
</clipPath>
<g clip-path="url(#cp42282)">
<text xml:space="preserve" transform="matrix(1 0 -0 1 0 841.92)" font-size="9" font-family="Times New Roman,Italic" font-style="italic"><tspan y="-242.57" x="254.21">m</tspan></text>
</g>
<clipPath id="cp42283">
<path transform="matrix(1,0,0,-1,0,841.92)" d="M .000008871 0 L 595.32 0 L 595.32 841.92 L .000008871 841.92 Z " fill-rule="evenodd"/>
</clipPath>
<g clip-path="url(#cp42283)">
<text xml:space="preserve" transform="matrix(1 0 -0 1 0 841.92)" font-size="14.04" font-family="Times New Roman,Italic" font-style="italic"><tspan y="-244.13" x="260.69">x</tspan></text>
</g>
<clipPath id="cp42284">
<path transform="matrix(1,0,0,-1,0,841.92)" d="M .000008871 0 L 595.32 0 L 595.32 841.92 L .000008871 841.92 Z " fill-rule="evenodd"/>
</clipPath>
<g clip-path="url(#cp42284)">
<text xml:space="preserve" transform="matrix(1 0 -0 1 0 841.92)" font-size="9" font-family="Times New Roman,Italic" font-style="italic"><tspan y="-242.57" x="266.93">m</tspan></text>
</g>
<clipPath id="cp42285">
<path transform="matrix(1,0,0,-1,0,841.92)" d="M .000008871 0 L 595.32 0 L 595.32 841.92 L .000008871 841.92 Z " fill-rule="evenodd"/>
</clipPath>
<g clip-path="url(#cp42285)">
<text xml:space="preserve" transform="matrix(1 0 -0 1 0 841.92)" font-size="14.04" font-family="Times New Roman,Italic" font-style="italic"><tspan y="-244.13" x="273.41">.</tspan></text>
</g>
<clipPath id="cp42286">
<path transform="matrix(1,0,0,-1,0,841.92)" d="M .000008871 0 L 595.32 0 L 595.32 841.92 L .000008871 841.92 Z " fill-rule="evenodd"/>
</clipPath>
<g clip-path="url(#cp42286)">
<text xml:space="preserve" transform="matrix(1 0 -0 1 0 841.92)" font-size="14.04" font-family="Times New Roman"><tspan y="-244.13" x="276.89 280.37004 283.85005 287.33006 290.81007 294.29008 297.77009 301.2501 304.84245 308.32246 311.80247 315.28248 318.76249 322.2425 325.83485">               </tspan></text>
</g>
<clipPath id="cp42287">
<path transform="matrix(1,0,0,-1,0,841.92)" d="M .000008871 0 L 595.32 0 L 595.32 841.92 L .000008871 841.92 Z " fill-rule="evenodd"/>
</clipPath>
<g clip-path="url(#cp42287)">
<text xml:space="preserve" transform="matrix(1 0 -0 1 0 841.92)" font-size="14.04" font-family="Times New Roman"><tspan y="-244.13" x="329.47"> </tspan></text>
</g>
<clipPath id="cp42288">
<path transform="matrix(1,0,0,-1,0,841.92)" d="M .000008871 0 L 595.32 0 L 595.32 841.92 L .000008871 841.92 Z " fill-rule="evenodd"/>
</clipPath>
<g clip-path="url(#cp42288)">
<text xml:space="preserve" transform="matrix(1 0 -0 1 0 841.92)" font-size="14.04" font-family="Times New Roman"><tspan y="-244.13" x="332.95 337.62535 344.70149">(3)</tspan></text>
</g>
<clipPath id="cp42289">
<path transform="matrix(1,0,0,-1,0,841.92)" d="M .000008871 0 L 595.32 0 L 595.32 841.92 L .000008871 841.92 Z " fill-rule="evenodd"/>
</clipPath>
<g clip-path="url(#cp42289)">
<text xml:space="preserve" transform="matrix(1 0 -0 1 0 841.92)" font-size="14.04" font-family="Times New Roman"><tspan y="-244.13" x="349.27"> </tspan></text>
</g>
</g>
<g id="Layer-1" data-name="P">
<clipPath id="cp42290">
<path transform="matrix(1,0,0,-1,0,841.92)" d="M .000008871 0 L 595.32 0 L 595.32 841.92 L .000008871 841.92 Z " fill-rule="evenodd"/>
</clipPath>
<g clip-path="url(#cp42290)">
<text xml:space="preserve" transform="matrix(1 0 -0 1 0 841.92)" font-size="14.04" font-family="Times New Roman"><tspan y="-218.93" x="127.58 133.81377 140.88994 144.7369 150.97066 154.81761 161.78145 165.72669 169.67192 173.18192 177.71685 184.77896 191.7428 198.70664 204.21031 208.15555 214.99303 221.22679 224.73679 231.75679 236.43212 243.45212 249.55953 253.50476 257.44999 260.80555 264.75077 269.4261 276.38993 283.45204 289.57347 293.51869 299.6401 305.14378 312.20588 315.71589 326.37226 333.56074 344.24519 351.30729 355.2525 362.3146 365.82463 369.1521 376.95835 384.02046 390.2542 394.8172 398.76243 405.72627 411.96003 415.47004 422.4058 429.4679 434.03089 438.7062 444.93998 448.89924 452.40925 455.8631 459.3731 462.82698 466.33699">chiziqli funksiya &#x043e;rq&#x0430;li if&#x043e;d&#x0430;l&#x0430;sh mumkin. Sh&#x0430;rtg&#x0430; ko&#x2019;r&#x0430;:      </tspan></text>
</g>
<clipPath id="cp42291">
<path transform="matrix(1,0,0,-1,0,841.92)" d="M .000008871 0 L 595.32 0 L 595.32 841.92 L .000008871 841.92 Z " fill-rule="evenodd"/>
</clipPath>
<g clip-path="url(#cp42291)">
<text xml:space="preserve" transform="matrix(1 0 -0 1 0 841.92)" font-size="14.04" font-family="Times New Roman,Italic" font-style="italic"><tspan y="-218.93" x="470.14">y</tspan></text>
</g>
<clipPath id="cp42292">
<path transform="matrix(1,0,0,-1,0,841.92)" d="M .000017745 0 L 595.32 0 L 595.32 841.92 L .000017745 841.92 Z " fill-rule="evenodd"/>
</clipPath>
<g clip-path="url(#cp42292)">
<text xml:space="preserve" transform="matrix(1 0 -.3333 1 0 841.92)" font-size="14.04" font-family="Symbol"><tspan y="-218.93" x="403.41065">&#xf0ae;</tspan></text>
</g>
<clipPath id="cp42293">
<path transform="matrix(1,0,0,-1,0,841.92)" d="M .000008871 0 L 595.32 0 L 595.32 841.92 L .000008871 841.92 Z " fill-rule="evenodd"/>
</clipPath>
<g clip-path="url(#cp42293)">
<text xml:space="preserve" transform="matrix(1 0 -0 1 0 841.92)" font-size="14.04" font-family="Times New Roman,Italic" font-style="italic"><tspan y="-218.93" x="490.18 500.2607 507.3228">max</tspan></text>
</g>
<clipPath id="cp42294">
<path transform="matrix(1,0,0,-1,0,841.92)" d="M .000008871 0 L 595.32 0 L 595.32 841.92 L .000008871 841.92 Z " fill-rule="evenodd"/>
</clipPath>
<g clip-path="url(#cp42294)">
<text xml:space="preserve" transform="matrix(1 0 -0 1 0 841.92)" font-size="14.04" font-family="Times New Roman"><tspan y="-218.93" x="513.58 517.06">. </tspan></text>
</g>
<clipPath id="cp42295">
<path transform="matrix(1,0,0,-1,0,841.92)" d="M .000008871 0 L 595.32 0 L 595.32 841.92 L .000008871 841.92 Z " fill-rule="evenodd"/>
</clipPath>
<g clip-path="url(#cp42295)">
<text xml:space="preserve" transform="matrix(1 0 -0 1 0 841.92)" font-size="14.04" font-family="Times New Roman"><tspan y="-218.93" x="520.42"> </tspan></text>
</g>
</g>
<g id="Layer-1" data-name="P">
<clipPath id="cp42296">
<path transform="matrix(1,0,0,-1,0,841.92)" d="M .000008871 0 L 595.32 0 L 595.32 841.92 L .000008871 841.92 Z " fill-rule="evenodd"/>
</clipPath>
<g clip-path="url(#cp42296)">
<text xml:space="preserve" transform="matrix(1 0 -0 1 0 841.92)" font-size="14.04" font-family="Times New Roman"><tspan y="-194.3" x="127.58 135.38625 142.44837 149.4122 156.37604 163.43816 169.67192 176.52344 185.50904 192.57115 196.51639 200.36334 204.2103 211.27242 214.78241 223.73993 227.68517 233.09056 240.0544 243.99964 250.12108 257.1832 266.1688 272.40257 279.3664 283.21336 290.27546 296.50923 301.0722 305.01744 310.42283 317.38667 324.44877 328.39399 337.37959 342.0549 348.28868 352.13563 358.25706 362.20228 368.3237 373.82737 380.7912 384.73643 388.58338 393.2587 397.10566 402.6093 409.67143 418.657 429.34147 435.57524 441.09294 447.3267 451.2719 457.39335 462.79875 466.74397 473.7078 477.653 484.61686 491.67897 500.66456 511.349 517.58279 521.528 527.8741 538.5585 544.79226 548.7375 552.5845 559.54837">Shund&#x0430;y qilib, ishl&#x0430;b chiq&#x0430;rishni r&#x0435;j&#x0430;l&#x0430;shtirish m&#x0430;s&#x0430;l&#x0430;sining m&#x0430;t&#x0435;m&#x0430;tik </tspan></text>
</g>
<clipPath id="cp42297">
<path transform="matrix(1,0,0,-1,0,841.92)" d="M .000008871 0 L 595.32 0 L 595.32 841.92 L .000008871 841.92 Z " fill-rule="evenodd"/>
</clipPath>
<g clip-path="url(#cp42297)">
<text xml:space="preserve" transform="matrix(1 0 -0 1 0 841.92)" font-size="14.04" font-family="Times New Roman"><tspan y="-170.06" x="99.264 109.94844 117.01056 124.07268 130.30644 134.25168 138.19692 141.70691 148.64267 155.70479 162.54227 166.4875 173.54962 179.67107 186.73319 190.67842 194.03398 200.99782 208.05994 212.62294 217.29827 221.14522 228.20734 232.05429 237.45969 244.5218 251.58393 257.8177 261.1873 268.15113 275.21324 279.7762 283.72145 289.9552 296.91905 300.86427">m&#x043e;d&#x0435;li quyid&#x0430;gi ko&#x2019;rinishd&#x0430; bo&#x2019;l&#x0430;di:</tspan></text>
</g>
<clipPath id="cp42298">
<path transform="matrix(1,0,0,-1,0,841.92)" d="M .000008871 0 L 595.32 0 L 595.32 841.92 L .000008871 841.92 Z " fill-rule="evenodd"/>
</clipPath>
<g clip-path="url(#cp42298)">
<text xml:space="preserve" transform="matrix(1 0 -0 1 0 841.92)" font-size="14.04" font-family="Times New Roman"><tspan y="-170.06" x="304.97"> </tspan></text>
</g>
</g>
</g>
</g>
</svg>
