<?xml version="1.0" encoding="UTF-8" standalone="no"?>
<!DOCTYPE svg PUBLIC "-//W3C//DTD SVG 1.1//EN" "http://www.w3.org/Graphics/SVG/1.1/DTD/svg11.dtd">
<svg xmlns="http://www.w3.org/2000/svg" xmlns:xlink="http://www.w3.org/1999/xlink" version="1.1" width="595.32pt" height="841.92pt" viewBox="0 0 595.32 841.92">
<g enable-background="new">
<g>
<g id="Layer-1" data-name="Artifact">
<clipPath id="cp42913">
<path transform="matrix(1,0,0,-1,0,841.92)" d="M .000008871 0 L 595.32 0 L 595.32 841.92 L .000008871 841.92 Z " fill-rule="evenodd"/>
</clipPath>
<g clip-path="url(#cp42913)">
<text xml:space="preserve" transform="matrix(1 0 -0 1 0 841.92)" font-size="11.04" font-family="Calibri"><tspan y="-51.864" x="314.09 319.72999 325.36997">270</tspan></text>
</g>
<clipPath id="cp42914">
<path transform="matrix(1,0,0,-1,0,841.92)" d="M .000008871 0 L 595.32 0 L 595.32 841.92 L .000008871 841.92 Z " fill-rule="evenodd"/>
</clipPath>
<g clip-path="url(#cp42914)">
<text xml:space="preserve" transform="matrix(1 0 -0 1 0 841.92)" font-size="11.04" font-family="Calibri"><tspan y="-51.864" x="331.03"> </tspan></text>
</g>
<clipPath id="cp42915">
<path transform="matrix(1,0,0,-1,0,841.92)" d="M .000008871 0 L 595.32 0 L 595.32 841.92 L .000008871 841.92 Z " fill-rule="evenodd"/>
</clipPath>
<g clip-path="url(#cp42915)">
</g>
<clipPath id="cp42916">
<path transform="matrix(1,0,0,-1,0,841.92)" d="M .000008871 0 L 595.32 0 L 595.32 841.92 L .000008871 841.92 Z " fill-rule="evenodd"/>
</clipPath>
<g clip-path="url(#cp42916)">
<text xml:space="preserve" transform="matrix(1 0 -0 1 0 841.92)" font-size="11.04" font-family="Calibri"><tspan y="-38.4" x="85.104"> </tspan></text>
</g>
<clipPath id="cp42917">
<path transform="matrix(1,0,0,-1,0,841.92)" d="M .000008871 0 L 595.32 0 L 595.32 841.92 L .000008871 841.92 Z " fill-rule="evenodd"/>
</clipPath>
<g clip-path="url(#cp42917)">
</g>
</g>
<g id="Layer-1" data-name="P">
<clipPath id="cp42918">
<path transform="matrix(1,0,0,-1,0,841.92)" d="M .000008871 0 L 595.32 0 L 595.32 841.92 L .000008871 841.92 Z " fill-rule="evenodd"/>
</clipPath>
<g clip-path="url(#cp42918)">
<text xml:space="preserve" transform="matrix(1 0 -0 1 0 841.92)" font-size="14.04" font-family="Times New Roman,Bold" font-weight="bold"><tspan y="-772.32" x="168.98 176.04212 183.10424 186.4598 193.52191 197.0319 200.48574 210.56645 218.3727 222.31793 228.43938 232.38462 240.19086 244.02378 247.96901 251.479 259.28526 265.36457 272.42668 279.3905 285.51194 292.57405 304.2132 315.74003 322.80213 326.74736 332.251 340.05726 344.6062 348.55143 354.67286 358.61808 364.12174 371.92799 375.438 386.9227 393.9848 399.3902 406.35404 410.29927 417.2631 422.76676 426.6137 434.41996 438.36518 446.04505 453.10716 456.61717 464.4234 471.34513 476.02046 482.98429 486.9295 490.77647 494.6234 500.12709 507.93333">14.3. Chiziqli programmalshtirish masalasining qo&#x2019;yilishi</tspan></text>
</g>
<clipPath id="cp42919">
<path transform="matrix(1,0,0,-1,0,841.92)" d="M .000008871 0 L 595.32 0 L 595.32 841.92 L .000008871 841.92 Z " fill-rule="evenodd"/>
</clipPath>
<g clip-path="url(#cp42919)">
<text xml:space="preserve" transform="matrix(1 0 -0 1 0 841.92)" font-size="14.04" font-family="Times New Roman,Bold" font-weight="bold"><tspan y="-772.32" x="512.14"> </tspan></text>
</g>
</g>
<g id="Layer-1" data-name="P">
<clipPath id="cp42920">
<path transform="matrix(1,0,0,-1,0,841.92)" d="M .000008871 0 L 595.32 0 L 595.32 841.92 L .000008871 841.92 Z " fill-rule="evenodd"/>
</clipPath>
<g clip-path="url(#cp42920)">
<text xml:space="preserve" transform="matrix(1 0 -0 1 0 841.92)" font-size="12" font-family="Times New Roman,Bold" font-weight="bold"><tspan y="-749.86" x="340.51"> </tspan></text>
</g>
</g>
<g id="Layer-1" data-name="P">
<clipPath id="cp42921">
<path transform="matrix(1,0,0,-1,0,841.92)" d="M .000008871 0 L 595.32 0 L 595.32 841.92 L .000008871 841.92 Z " fill-rule="evenodd"/>
</clipPath>
<g clip-path="url(#cp42921)">
<text xml:space="preserve" transform="matrix(1 0 -0 1 0 841.92)" font-size="14.04" font-family="Times New Roman"><tspan y="-727.66" x="120.5 125.17532 132.2515">(1)</tspan></text>
</g>
<clipPath id="cp42922">
<path transform="matrix(1,0,0,-1,0,841.92)" d="M .000008871 0 L 595.32 0 L 595.32 841.92 L .000008871 841.92 Z " fill-rule="evenodd"/>
</clipPath>
<g clip-path="url(#cp42922)">
<text xml:space="preserve" transform="matrix(1 0 -0 1 0 841.92)" font-size="14.04" font-family="Arial"><tspan y="-727.66" x="136.82"> </tspan></text>
</g>
<clipPath id="cp42923">
<path transform="matrix(1,0,0,-1,0,841.92)" d="M .000008871 0 L 595.32 0 L 595.32 841.92 L .000008871 841.92 Z " fill-rule="evenodd"/>
</clipPath>
<g clip-path="url(#cp42923)">
<text xml:space="preserve" transform="matrix(1 0 -0 1 0 841.92)" font-size="14.04" font-family="Times New Roman"><tspan y="-727.66" x="155.9"> </tspan></text>
</g>
<clipPath id="cp42924">
<path transform="matrix(1,0,0,-1,0,841.92)" d="M .000008871 0 L 595.32 0 L 595.32 841.92 L .000008871 841.92 Z " fill-rule="evenodd"/>
</clipPath>
<g clip-path="url(#cp42924)">
<text xml:space="preserve" transform="matrix(1 0 -0 1 0 841.92)" font-size="14.04" font-family="Times New Roman"><tspan y="-727.66" x="159.38 166.46">va</tspan></text>
</g>
<clipPath id="cp42925">
<path transform="matrix(1,0,0,-1,0,841.92)" d="M .000008871 0 L 595.32 0 L 595.32 841.92 L .000008871 841.92 Z " fill-rule="evenodd"/>
</clipPath>
<g clip-path="url(#cp42925)">
<text xml:space="preserve" transform="matrix(1 0 -0 1 0 841.92)" font-size="14.04" font-family="Times New Roman"><tspan y="-727.66" x="172.7"> </tspan></text>
</g>
<clipPath id="cp42926">
<path transform="matrix(1,0,0,-1,0,841.92)" d="M .000008871 0 L 595.32 0 L 595.32 841.92 L .000008871 841.92 Z " fill-rule="evenodd"/>
</clipPath>
<g clip-path="url(#cp42926)">
<text xml:space="preserve" transform="matrix(1 0 -0 1 0 841.92)" font-size="14.04" font-family="Times New Roman"><tspan y="-727.66" x="183.98 188.543 195.60512 200.28044 211.55455 222.239 228.47277 233.9905 240.22426 244.1695 250.29094 257.35307 263.58683 274.7346 285.9947 292.22846 299.3046 305.42604 312.38987 316.33509 322.4565 329.51863 333.36558 338.86924 345.83308 357.09318 361.0384 367.15983 374.12367 381.18577 385.0327 391.15415 401.9509 408.18467 419.4588 426.5209 433.583 438.146 442.82133 446.66828 453.73039 457.57734 463.081 470.04484 473.89179 480.9539 487.07533 494.13743 505.39753 509.24449 515.4782 522.4421 529.5042 534.9096 538.85488 544.9763 548.9216 552.6422 559.6061">(2) masalada  cheklanish tenglama ko&#x2018;rinishidan tengsizlik </tspan></text>
</g>
</g>
<g id="Layer-1" data-name="P">
<clipPath id="cp42927">
<path transform="matrix(1,0,0,-1,0,841.92)" d="M 0 .000061035 L 595.32 .000061035 L 595.32 841.92007 L 0 841.92007 Z " fill-rule="evenodd"/>
</clipPath>
<g clip-path="url(#cp42927)">
<clipPath id="cp42928">
<path transform="matrix(.9980904,0,0,-.9672492,85.16,144.65998)" d="M 0 0 L 71.385 0 L 71.385 19.333 L 0 19.333 Z " fill-rule="evenodd"/>
</clipPath>
<g clip-path="url(#cp42928)">
<text xml:space="preserve" transform="matrix(.9980904 0 -0 .9672492 85.16 144.65998)" font-size="13.932" font-family="Times New Roman"><tspan y="-6.3456" x="62.006">0</tspan></text>
<text xml:space="preserve" transform="matrix(.9980904 0 -0 .9672492 85.16 144.65998)" font-size="13.932" font-family="Times New Roman"><tspan y="-6.3456" x="43.963">)</tspan></text>
<text xml:space="preserve" transform="matrix(.9980904 0 -0 .9672492 85.16 144.65998)" font-size="13.932" font-family="Times New Roman"><tspan y="-6.3456" x="26.56">,</tspan></text>
<text xml:space="preserve" transform="matrix(.9980904 0 -0 .9672492 85.16 144.65998)" font-size="13.932" font-family="Times New Roman"><tspan y="-6.3456" x="10.535">(</tspan></text>
<text xml:space="preserve" transform="matrix(.9980904 0 -0 .9672492 85.16 144.65998)" font-size="6.9662" font-family="Times New Roman"><tspan y="-2.8395" x="38.646">2</tspan></text>
<text xml:space="preserve" transform="matrix(.9980904 0 -0 .9672492 85.16 144.65998)" font-size="6.9662" font-family="Times New Roman"><tspan y="-2.8395" x="22.006">1</tspan></text>
<text xml:space="preserve" transform="matrix(.9980904 0 -0 .9672492 85.16 144.65998)" font-size="13.932" font-family="Symbol"><tspan y="-6.3456" x="51.446">&#xf0a3;</tspan></text>
<text xml:space="preserve" transform="matrix(.9980904 0 -0 .9672492 85.16 144.65998)" font-size="13.932" font-family="Times New Roman,Italic" font-style="italic"><tspan y="-6.3456" x="32.099">x</tspan></text>
<text xml:space="preserve" transform="matrix(.9980904 0 -0 .9672492 85.16 144.65998)" font-size="13.932" font-family="Times New Roman,Italic" font-style="italic"><tspan y="-6.3456" x="16.246">x</tspan></text>
<text xml:space="preserve" transform="matrix(.9980904 0 -0 .9672492 85.16 144.65998)" font-size="13.932" font-family="Times New Roman,Italic" font-style="italic"><tspan y="-6.3456" x="2.4369">g</tspan></text>
</g>
</g>
</g>
<g id="Layer-1" data-name="P">
<clipPath id="cp42929">
<path transform="matrix(1,0,0,-1,0,841.92)" d="M .000008871 0 L 595.32 0 L 595.32 841.92 L .000008871 841.92 Z " fill-rule="evenodd"/>
</clipPath>
<g clip-path="url(#cp42929)">
<text xml:space="preserve" transform="matrix(1 0 -0 1 0 841.92)" font-size="14.04" font-family="Times New Roman"><tspan y="-703.3" x="156.38"> </tspan></text>
</g>
<clipPath id="cp42930">
<path transform="matrix(1,0,0,-1,0,841.92)" d="M .000008871 0 L 595.32 0 L 595.32 841.92 L .000008871 841.92 Z " fill-rule="evenodd"/>
</clipPath>
<g clip-path="url(#cp42930)">
<text xml:space="preserve" transform="matrix(1 0 -0 1 0 841.92)" font-size="14.04" font-family="Times New Roman"><tspan y="-703.3" x="161.9 168.96212 176.02423 180.58724 185.26256 189.2078 196.17163 200.11687 205.52227 212.4861 216.43134 223.39517 229.62894 235.14665 242.20877 248.44254 252.28949 256.13645 260.08168 264.757 268.60395 272.54917 277.95457 284.18833 287.69834 293.17396 300.23606 305.73976 312.80186 319.86396 323.7109 330.773 337.00679 342.5245 349.48835 353.43357 359.66734 365.18507 375.8695 382.10328 386.0485 392.28227 403.09306 409.3268 413.27204 417.21726 424.27937 429.78306 436.7469 442.98066 448.38606 452.33128 459.2951 463.97044 467.91566 474.03709 479.44248 486.50459 493.4684 497.31538 504.37748 511.3413 516.845 523.9071 530.96926 536.37466 543.3385 548.84219 552.7874 559.5126">ko&#x2018;rinishiga keltirilsa, u holda biz matematik dasturlashning xususiy </tspan></text>
</g>
<clipPath id="cp42931">
<path transform="matrix(1,0,0,-1,0,841.92)" d="M .000008871 0 L 595.32 0 L 595.32 841.92 L .000008871 841.92 Z " fill-rule="evenodd"/>
</clipPath>
<g clip-path="url(#cp42931)">
<text xml:space="preserve" transform="matrix(1 0 -0 1 0 841.92)" font-size="14.04" font-family="Times New Roman"><tspan y="-676.42" x="85.104 92.166118 99.12995 103.075199 106.92216 113.984279 120.21803 123.58763 130.64975 136.7712 140.71643 146.9502 157.63465 161.57988 167.81365">holiga kelamiz:</tspan></text>
</g>
<clipPath id="cp42932">
<path transform="matrix(1,0,0,-1,0,841.92)" d="M .000008871 0 L 595.32 0 L 595.32 841.92 L .000008871 841.92 Z " fill-rule="evenodd"/>
</clipPath>
<g clip-path="url(#cp42932)">
<text xml:space="preserve" transform="matrix(1 0 -0 1 0 841.92)" font-size="14.04" font-family="Times New Roman"><tspan y="-676.42" x="171.86"> </tspan></text>
</g>
</g>
<g id="Layer-1" data-name="P">
<clipPath id="cp42933">
<path transform="matrix(1,0,0,-1,0,841.92)" d="M .000008871 0 L 595.32 0 L 595.32 841.92 L .000008871 841.92 Z " fill-rule="evenodd"/>
</clipPath>
<g clip-path="url(#cp42933)">
<text xml:space="preserve" transform="matrix(1 0 -0 1 0 841.92)" font-size="14.04" font-family="Times New Roman"><tspan y="-649.78" x="102.14 105.62 109.100009 112.58001 116.06001 119.540019 123.02002 126.50002 130.09235 133.57234 137.05234 140.53234 144.01233 147.49233 151.08464 154.56464 158.04463 161.52463 165.00463 168.48462 172.07694 175.55693 179.03693 182.51692 185.99692 189.47692 193.06923 196.54923">                            </tspan></text>
</g>
</g>
<g id="Layer-1" data-name="P">
<clipPath id="cp42934">
<path transform="matrix(1,0,0,-1,0,841.92)" d="M 0 .000061035 L 595.32 .000061035 L 595.32 841.92007 L 0 841.92007 Z " fill-rule="evenodd"/>
</clipPath>
<g clip-path="url(#cp42934)">
<clipPath id="cp42935">
<path transform="matrix(1.3362291,0,0,-1.2854812,200.21,197.20996)" d="M 0 0 L 54.966 0 L 54.966 15.753 L 0 15.753 Z " fill-rule="evenodd"/>
</clipPath>
<g clip-path="url(#cp42935)">
<text xml:space="preserve" transform="matrix(1.3362291 0 -0 1.2854812 200.21 197.20996)" font-size="10.511" font-family="Times New Roman"><tspan y="-5.2098" x="48.345">0</tspan></text>
<text xml:space="preserve" transform="matrix(1.3362291 0 -0 1.2854812 200.21 197.20996)" font-size="10.511" font-family="Times New Roman"><tspan y="-5.2098" x="34.536">)</tspan></text>
<text xml:space="preserve" transform="matrix(1.3362291 0 -0 1.2854812 200.21 197.20996)" font-size="10.511" font-family="Times New Roman"><tspan y="-5.2098" x="20.579">,</tspan></text>
<text xml:space="preserve" transform="matrix(1.3362291 0 -0 1.2854812 200.21 197.20996)" font-size="10.511" font-family="Times New Roman"><tspan y="-5.2098" x="8.2708">(</tspan></text>
<text xml:space="preserve" transform="matrix(1.3362291 0 -0 1.2854812 200.21 197.20996)" font-size="7.36" font-family="Times New Roman"><tspan y="-2.5926" x="29.686">2</tspan></text>
<text xml:space="preserve" transform="matrix(1.3362291 0 -0 1.2854812 200.21 197.20996)" font-size="7.36" font-family="Times New Roman"><tspan y="-2.5926" x="16.419">1</tspan></text>
<text xml:space="preserve" transform="matrix(1.3362291 0 -0 1.2854812 200.21 197.20996)" font-size="10.511" font-family="Symbol"><tspan y="-5.2098" x="40.32">&#xf0a3;</tspan></text>
<text xml:space="preserve" transform="matrix(1.3362291 0 -0 1.2854812 200.21 197.20996)" font-size="10.511" font-family="Times New Roman,Italic" font-style="italic"><tspan y="-5.2098" x="24.886">x</tspan></text>
<text xml:space="preserve" transform="matrix(1.3362291 0 -0 1.2854812 200.21 197.20996)" font-size="10.511" font-family="Times New Roman,Italic" font-style="italic"><tspan y="-5.2098" x="12.431">x</tspan></text>
<text xml:space="preserve" transform="matrix(1.3362291 0 -0 1.2854812 200.21 197.20996)" font-size="10.511" font-family="Times New Roman,Italic" font-style="italic"><tspan y="-5.2098" x="2.3631">g</tspan></text>
</g>
</g>
</g>
<g id="Layer-1" data-name="P">
<clipPath id="cp42936">
<path transform="matrix(1,0,0,-1,0,841.92)" d="M .000008871 0 L 595.32 0 L 595.32 841.92 L .000008871 841.92 Z " fill-rule="evenodd"/>
</clipPath>
<g clip-path="url(#cp42936)">
<text xml:space="preserve" transform="matrix(1 0 -0 1 0 841.92)" font-size="14.04" font-family="Times New Roman"><tspan y="-649.78" x="273.65 277.13">  </tspan></text>
</g>
<clipPath id="cp42937">
<path transform="matrix(1,0,0,-1,0,841.92)" d="M .000008871 0 L 595.32 0 L 595.32 841.92 L .000008871 841.92 Z " fill-rule="evenodd"/>
</clipPath>
<g clip-path="url(#cp42937)">
<text xml:space="preserve" transform="matrix(1 0 -0 1 0 841.92)" font-size="14.04" font-family="Times New Roman"><tspan y="-649.78" x="280.61 284.12 287.57386 291.08387 294.53773 298.11793 301.62794 305.0818 308.5918 312.04566 315.55567 319.00953 322.51954 326.07167 329.58168 333.03553 336.54554 339.9994 343.5094 347.06153 350.57154 354.0254 357.5354 360.98927 364.49928 368.0514 371.5614 375.01527 378.52528">                             </tspan></text>
</g>
<clipPath id="cp42938">
<path transform="matrix(1,0,0,-1,0,841.92)" d="M .000008871 0 L 595.32 0 L 595.32 841.92 L .000008871 841.92 Z " fill-rule="evenodd"/>
</clipPath>
<g clip-path="url(#cp42938)">
<text xml:space="preserve" transform="matrix(1 0 -0 1 0 841.92)" font-size="14.04" font-family="Times New Roman"><tspan y="-649.78" x="382.03 386.71">(1</tspan></text>
</g>
<clipPath id="cp42939">
<path transform="matrix(1,0,0,-1,0,841.92)" d="M .000008871 0 L 595.32 0 L 595.32 841.92 L .000008871 841.92 Z " fill-rule="evenodd"/>
</clipPath>
<g clip-path="url(#cp42939)">
<text xml:space="preserve" transform="matrix(1 0 -0 1 0 841.92)" font-size="14.04" font-family="Times New Roman"><tspan y="-649.78" x="393.79">)</tspan></text>
</g>
<clipPath id="cp42940">
<path transform="matrix(1,0,0,-1,0,841.92)" d="M .000008871 0 L 595.32 0 L 595.32 841.92 L .000008871 841.92 Z " fill-rule="evenodd"/>
</clipPath>
<g clip-path="url(#cp42940)">
<text xml:space="preserve" transform="matrix(1 0 -0 1 0 841.92)" font-size="14.04" font-family="Times New Roman"><tspan y="-649.78" x="398.47"> </tspan></text>
</g>
</g>
<g id="Layer-1" data-name="P">
<clipPath id="cp42941">
<path transform="matrix(1,0,0,-1,0,841.92)" d="M .000008871 0 L 595.32 0 L 595.32 841.92 L .000008871 841.92 Z " fill-rule="evenodd"/>
</clipPath>
<g clip-path="url(#cp42941)">
<text xml:space="preserve" transform="matrix(1 0 -0 1 0 841.92)" font-size="14.04" font-family="Times New Roman"><tspan y="-622.9" x="85.104 90.60768 97.6698 103.79124 108.46656 112.31352 116.258769 122.49252 127.05553 134.11765 140.35141 143.8614 147.31523 150.82523 154.27906 157.78905 161.24288 164.75287 168.2067 171.71669 175.17052 178.68051 182.13434 185.64434 189.19644">shartlarda               </tspan></text>
</g>
</g>
<g id="Layer-1" data-name="P">
<clipPath id="cp42942">
<path transform="matrix(1,0,0,-1,0,841.92)" d="M 0 .000061035 L 595.32 .000061035 L 595.32 841.92007 L 0 841.92007 Z " fill-rule="evenodd"/>
</clipPath>
<g clip-path="url(#cp42942)">
<clipPath id="cp42943">
<path transform="matrix(1.1220367,0,0,-1.0982238,192.91,224.10999)" d="M 0 0 L 72.813 0 L 72.813 15.753 L 0 15.753 Z " fill-rule="evenodd"/>
</clipPath>
<g clip-path="url(#cp42943)">
<text xml:space="preserve" transform="matrix(1.1220367 0 -0 1.0982238 192.91 224.10999)" font-size="10.511" font-family="Times New Roman"><tspan y="-5.2098" x="53.096 61.042318 65.37285">max</tspan></text>
<text xml:space="preserve" transform="matrix(1.1220367 0 -0 1.0982238 192.91 224.10999)" font-size="10.511" font-family="Times New Roman"><tspan y="-5.2098" x="35.003">)</tspan></text>
<text xml:space="preserve" transform="matrix(1.1220367 0 -0 1.0982238 192.91 224.10999)" font-size="10.511" font-family="Times New Roman"><tspan y="-5.2098" x="21.169">,</tspan></text>
<text xml:space="preserve" transform="matrix(1.1220367 0 -0 1.0982238 192.91 224.10999)" font-size="10.511" font-family="Times New Roman"><tspan y="-5.2098" x="8.9847">(</tspan></text>
<text xml:space="preserve" transform="matrix(1.1220367 0 -0 1.0982238 192.91 224.10999)" font-size="7.36" font-family="Times New Roman"><tspan y="-2.5926" x="30.179">2</tspan></text>
<text xml:space="preserve" transform="matrix(1.1220367 0 -0 1.0982238 192.91 224.10999)" font-size="7.36" font-family="Times New Roman"><tspan y="-2.5926" x="17.059">1</tspan></text>
<text xml:space="preserve" transform="matrix(1.1220367 0 -0 1.0982238 192.91 224.10999)" font-size="10.511" font-family="Symbol"><tspan y="-5.2098" x="40.739">&#xf0ae;</tspan></text>
<text xml:space="preserve" transform="matrix(1.1220367 0 -0 1.0982238 192.91 224.10999)" font-size="10.511" font-family="Times New Roman,Italic" font-style="italic"><tspan y="-5.2098" x="25.452">x</tspan></text>
<text xml:space="preserve" transform="matrix(1.1220367 0 -0 1.0982238 192.91 224.10999)" font-size="10.511" font-family="Times New Roman,Italic" font-style="italic"><tspan y="-5.2098" x="13.095">x</tspan></text>
<text xml:space="preserve" transform="matrix(1.1220367 0 -0 1.0982238 192.91 224.10999)" font-size="10.511" font-family="Times New Roman,Italic" font-style="italic"><tspan y="-5.2098" x="3.7662">f</tspan></text>
</g>
</g>
</g>
<g id="Layer-1" data-name="P">
<clipPath id="cp42944">
<path transform="matrix(1,0,0,-1,0,841.92)" d="M .000008871 0 L 595.32 0 L 595.32 841.92 L .000008871 841.92 Z " fill-rule="evenodd"/>
</clipPath>
<g clip-path="url(#cp42944)">
<text xml:space="preserve" transform="matrix(1 0 -0 1 0 841.92)" font-size="14.04" font-family="Times New Roman"><tspan y="-622.9" x="274.61 278.09 281.57">   </tspan></text>
</g>
<clipPath id="cp42945">
<path transform="matrix(1,0,0,-1,0,841.92)" d="M .000008871 0 L 595.32 0 L 595.32 841.92 L .000008871 841.92 Z " fill-rule="evenodd"/>
</clipPath>
<g clip-path="url(#cp42945)">
<text xml:space="preserve" transform="matrix(1 0 -0 1 0 841.92)" font-size="14.04" font-family="Times New Roman"><tspan y="-622.9" x="285.05">(</tspan></text>
</g>
</g>
<g id="Layer-1" data-name="P">
<clipPath id="cp42946">
<path transform="matrix(1,0,0,-1,0,841.92)" d="M 0 .000061035 L 595.32 .000061035 L 595.32 841.92007 L 0 841.92007 Z " fill-rule="evenodd"/>
</clipPath>
<g clip-path="url(#cp42946)">
<clipPath id="cp42947">
<path transform="matrix(1.2107508,0,0,-1.1902757,289.76,224.10999)" d="M 0 0 L 69.957 0 L 69.957 15.753 L 0 15.753 Z " fill-rule="evenodd"/>
</clipPath>
<g clip-path="url(#cp42947)">
<text xml:space="preserve" transform="matrix(1.0322814 0 -0 1.3960605 289.76 224.10999)" font-size="12.130736" font-family="Symbol"><tspan y="-4.505032" x="10.50908">&#xf028;</tspan></text>
<text xml:space="preserve" transform="matrix(1.0322814 0 -0 1.3960605 289.76 224.10999)" font-size="12.130736" font-family="Symbol"><tspan y="-4.505032" x="40.420083">&#xf029;</tspan></text>
<text xml:space="preserve" transform="matrix(1.2107508 0 -0 1.1902757 289.76 224.10999)" font-size="10.511" font-family="Times New Roman"><tspan y="-5.2098" x="51.742 59.688318 61.874605">min</tspan></text>
<text xml:space="preserve" transform="matrix(1.2107508 0 -0 1.1902757 289.76 224.10999)" font-size="10.511" font-family="Times New Roman"><tspan y="-5.2098" x="20.382">,</tspan></text>
<text xml:space="preserve" transform="matrix(1.2107508 0 -0 1.1902757 289.76 224.10999)" font-size="7.36" font-family="Times New Roman"><tspan y="-2.5926" x="29.44">2</tspan></text>
<text xml:space="preserve" transform="matrix(1.2107508 0 -0 1.1902757 289.76 224.10999)" font-size="7.36" font-family="Times New Roman"><tspan y="-2.5926" x="16.369">1</tspan></text>
<text xml:space="preserve" transform="matrix(1.2107508 0 -0 1.1902757 289.76 224.10999)" font-size="10.511" font-family="Symbol"><tspan y="-5.2098" x="39.336">&#xf0ae;</tspan></text>
<text xml:space="preserve" transform="matrix(1.2107508 0 -0 1.1902757 289.76 224.10999)" font-size="10.511" font-family="Times New Roman,Italic" font-style="italic"><tspan y="-5.2098" x="24.812">x</tspan></text>
<text xml:space="preserve" transform="matrix(1.2107508 0 -0 1.1902757 289.76 224.10999)" font-size="10.511" font-family="Times New Roman,Italic" font-style="italic"><tspan y="-5.2098" x="12.529">x</tspan></text>
<text xml:space="preserve" transform="matrix(1.2107508 0 -0 1.1902757 289.76 224.10999)" font-size="10.511" font-family="Times New Roman,Italic" font-style="italic"><tspan y="-5.2098" x="3.7908">f</tspan></text>
</g>
</g>
</g>
<g id="Layer-1" data-name="P">
<clipPath id="cp42948">
<path transform="matrix(1,0,0,-1,0,841.92)" d="M .000008871 0 L 595.32 0 L 595.32 841.92 L .000008871 841.92 Z " fill-rule="evenodd"/>
</clipPath>
<g clip-path="url(#cp42948)">
<text xml:space="preserve" transform="matrix(1 0 -0 1 0 841.92)" font-size="14.04" font-family="Times New Roman"><tspan y="-622.9" x="374.47 379.14533 382.65534 386.1092 389.6192 393.07307 396.58308 400.03694 403.54695 407.0008 410.5108 414.06294 417.57295 421.0268 424.5368 427.99067 432.666 439.74214">)              (2)</tspan></text>
</g>
<clipPath id="cp42949">
<path transform="matrix(1,0,0,-1,0,841.92)" d="M .000008871 0 L 595.32 0 L 595.32 841.92 L .000008871 841.92 Z " fill-rule="evenodd"/>
</clipPath>
<g clip-path="url(#cp42949)">
<text xml:space="preserve" transform="matrix(1 0 -0 1 0 841.92)" font-size="14.04" font-family="Times New Roman"><tspan y="-622.9" x="444.46"> </tspan></text>
</g>
</g>
<g id="Layer-1" data-name="P">
<clipPath id="cp42950">
<path transform="matrix(1,0,0,-1,0,841.92)" d="M .000008871 0 L 595.32 0 L 595.32 841.92 L .000008871 841.92 Z " fill-rule="evenodd"/>
</clipPath>
<g clip-path="url(#cp42950)">
<text xml:space="preserve" transform="matrix(1 0 -0 1 0 841.92)" font-size="14.04" font-family="Times New Roman"><tspan y="-597.1" x="120.5 130.58072 135.14373 141.37749 148.45366 154.68743 159.36275 166.43892 173.40276 179.63652 186.60036 190.5456 194.39255 200.62631 205.30164 210.21564 215.71932 222.68315 229.64699 233.59223 238.49217 245.55429 250.58061 254.42757 260.66133 265.68766 272.6515 279.7136 284.27659 288.12355 295.18565 301.4194 308.38325 315.44535 321.6791 326.70545 337.3899 343.62367 347.56889 353.6903 364.48707 370.72084 374.66606 378.61128 385.67338 390.57334 397.63545 402.19844 409.16227 416.22438 420.8997 427.13346 437.94425 448.6287 454.86247 458.80769 465.04145 470.55915 477.62126 481.4682 485.41343 489.9764 493.92164 499.32704 506.38914 511.41548 522.09988 528.3336 533.8513 540.0851 544.03036 550.1518 555.65548 559.50247">O&#x2018;zgaruvchilar soni 2 ta bo&#x2018;lganda matematik programmalashtirish masalasi </tspan></text>
</g>
<clipPath id="cp42951">
<path transform="matrix(1,0,0,-1,0,841.92)" d="M .000008871 0 L 595.32 0 L 595.32 841.92 L .000008871 841.92 Z " fill-rule="evenodd"/>
</clipPath>
<g clip-path="url(#cp42951)">
<text xml:space="preserve" transform="matrix(1 0 -0 1 0 841.92)" font-size="14.04" font-family="Times New Roman"><tspan y="-572.95" x="85.104 89.89164 100.57608 106.80984 112.32756 118.56132 122.50656 128.74033 132.25032 142.9067 149.14046 156.21663 161.7203 165.66555 176.34999 183.53849 194.22293 201.28505 207.51882 212.19414 215.70413 222.72414 229.82839 236.66587 240.6111 247.67322 253.79467 260.7585 264.70375 268.21376 275.1495 282.2116 286.7746 291.44993 295.39515 302.35899 306.20594 311.7096 318.67344 325.63728 331.87104 335.38105 342.40104 349.50526 354.06825 358.01347 364.1349 371.09873 375.04396">(masala maksimumga) quyidagi ko&#x2018;rinishda bo&#x2018;ladi.</tspan></text>
</g>
<clipPath id="cp42952">
<path transform="matrix(1,0,0,-1,0,841.92)" d="M .000008871 0 L 595.32 0 L 595.32 841.92 L .000008871 841.92 Z " fill-rule="evenodd"/>
</clipPath>
<g clip-path="url(#cp42952)">
<text xml:space="preserve" transform="matrix(1 0 -0 1 0 841.92)" font-size="14.04" font-family="Times New Roman"><tspan y="-572.95" x="378.79"> </tspan></text>
</g>
</g>
<g id="Layer-1" data-name="P">
<clipPath id="cp42953">
<path transform="matrix(1,0,0,-1,0,841.92)" d="M .000008871 0 L 595.32 0 L 595.32 841.92 L .000008871 841.92 Z " fill-rule="evenodd"/>
</clipPath>
<g clip-path="url(#cp42953)">
<text xml:space="preserve" transform="matrix(1 0 -0 1 0 841.92)" font-size="14.04" font-family="Times New Roman"><tspan y="-546.43" x="102.14 105.62 109.100009 112.58001 116.06001 119.540019 123.02002 126.50002 130.09235 133.57234 137.05234 140.53234 144.01233 147.49233 151.08464 154.56464 158.04463 161.52463">                  </tspan></text>
</g>
</g>
<g id="Layer-1" data-name="P">
<clipPath id="cp42954">
<path transform="matrix(1,0,0,-1,0,841.92)" d="M 0 .000061035 L 595.32 .000061035 L 595.32 841.92007 L 0 841.92007 Z " fill-rule="evenodd"/>
</clipPath>
<g clip-path="url(#cp42954)">
<clipPath id="cp42955">
<path transform="matrix(1.3065484,0,0,-1.288635,165.16,300.56)" d="M 0 0 L 55.68 0 L 55.68 15.753 L 0 15.753 Z " fill-rule="evenodd"/>
</clipPath>
<g clip-path="url(#cp42955)">
<text xml:space="preserve" transform="matrix(1.3065484 0 -0 1.288635 165.16 300.56)" font-size="10.511" font-family="Times New Roman"><tspan y="-5.2098" x="48.813">0</tspan></text>
<text xml:space="preserve" transform="matrix(1.3065484 0 -0 1.288635 165.16 300.56)" font-size="10.511" font-family="Times New Roman"><tspan y="-5.2098" x="35.471">)</tspan></text>
<text xml:space="preserve" transform="matrix(1.3065484 0 -0 1.288635 165.16 300.56)" font-size="10.511" font-family="Times New Roman"><tspan y="-5.2098" x="22.572">,</tspan></text>
<text xml:space="preserve" transform="matrix(1.3065484 0 -0 1.288635 165.16 300.56)" font-size="10.511" font-family="Times New Roman"><tspan y="-5.2098" x="11.028">(</tspan></text>
<text xml:space="preserve" transform="matrix(1.3065484 0 -0 1.288635 165.16 300.56)" font-size="7.36" font-family="Times New Roman"><tspan y="-2.5926" x="30.991">2</tspan></text>
<text xml:space="preserve" transform="matrix(1.3065484 0 -0 1.288635 165.16 300.56)" font-size="7.36" font-family="Times New Roman"><tspan y="-2.5926" x="18.782">1</tspan></text>
<text xml:space="preserve" transform="matrix(1.3065484 0 -0 1.288635 165.16 300.56)" font-size="7.36" font-family="Times New Roman"><tspan y="-2.5926" x="7.0893">1</tspan></text>
<text xml:space="preserve" transform="matrix(1.3065484 0 -0 1.288635 165.16 300.56)" font-size="10.511" font-family="Symbol"><tspan y="-5.2098" x="41.034">&#xf0a3;</tspan></text>
<text xml:space="preserve" transform="matrix(1.3065484 0 -0 1.288635 165.16 300.56)" font-size="10.511" font-family="Times New Roman,Italic" font-style="italic"><tspan y="-5.2098" x="26.56">x</tspan></text>
<text xml:space="preserve" transform="matrix(1.3065484 0 -0 1.288635 165.16 300.56)" font-size="10.511" font-family="Times New Roman,Italic" font-style="italic"><tspan y="-5.2098" x="15.139">x</tspan></text>
<text xml:space="preserve" transform="matrix(1.3065484 0 -0 1.288635 165.16 300.56)" font-size="10.511" font-family="Times New Roman,Italic" font-style="italic"><tspan y="-5.2098" x="2.3385">g</tspan></text>
</g>
</g>
</g>
<g id="Layer-1" data-name="P">
<clipPath id="cp42956">
<path transform="matrix(1,0,0,-1,0,841.92)" d="M .000008871 0 L 595.32 0 L 595.32 841.92 L .000008871 841.92 Z " fill-rule="evenodd"/>
</clipPath>
<g clip-path="url(#cp42956)">
<text xml:space="preserve" transform="matrix(1 0 -0 1 0 841.92)" font-size="14.04" font-family="Times New Roman"><tspan y="-546.43" x="237.89">,</tspan></text>
</g>
</g>
<g id="Layer-1" data-name="P">
<clipPath id="cp42957">
<path transform="matrix(1,0,0,-1,0,841.92)" d="M .000008871 0 L 595.32 0 L 595.32 841.92 L .000008871 841.92 Z " fill-rule="evenodd"/>
</clipPath>
<g clip-path="url(#cp42957)">
<text xml:space="preserve" transform="matrix(1 0 -0 1 0 841.92)" font-size="14.04" font-family="Times New Roman"><tspan y="-546.43" x="241.37 244.87999 248.33382 251.84381 255.29764 258.80766 262.2615 265.8417 269.3517 272.80558 276.31559 279.76945 283.27946 286.83158 290.34159 293.79545 297.37565 300.88566 304.3395 307.84953 311.30339 314.8134 318.26725 321.77726 325.32939 328.8394 332.29325 335.80326 339.2571 342.76713 346.31925 349.82926 353.2831">                                 </tspan></text>
</g>
</g>
<g id="Layer-1" data-name="P">
<clipPath id="cp42958">
<path transform="matrix(1,0,0,-1,0,841.92)" d="M .000008871 0 L 595.32 0 L 595.32 841.92 L .000008871 841.92 Z " fill-rule="evenodd"/>
</clipPath>
<g clip-path="url(#cp42958)">
<text xml:space="preserve" transform="matrix(1 0 -0 1 0 841.92)" font-size="14.04" font-family="Times New Roman"><tspan y="-546.43" x="356.83 361.5053 368.58146 375.64356 379.15357 386.17356">(16.1)</tspan></text>
</g>
</g>
<g id="Layer-1" data-name="P">
<clipPath id="cp42959">
<path transform="matrix(1,0,0,-1,0,841.92)" d="M .000008871 0 L 595.32 0 L 595.32 841.92 L .000008871 841.92 Z " fill-rule="evenodd"/>
</clipPath>
<g clip-path="url(#cp42959)">
<text xml:space="preserve" transform="matrix(1 0 -0 1 0 841.92)" font-size="14.04" font-family="Times New Roman"><tspan y="-546.43" x="390.79"> </tspan></text>
</g>
</g>
<g id="Layer-1" data-name="P">
<clipPath id="cp42960">
<path transform="matrix(1,0,0,-1,0,841.92)" d="M .000008871 0 L 595.32 0 L 595.32 841.92 L .000008871 841.92 Z " fill-rule="evenodd"/>
</clipPath>
<g clip-path="url(#cp42960)">
<text xml:space="preserve" transform="matrix(1 0 -0 1 0 841.92)" font-size="14.04" font-family="Times New Roman"><tspan y="-520.51" x="102.14 105.62 109.100009 112.58001 116.06001 119.540019 123.02002 126.50002 130.09235 133.57234 137.05234 140.53234 144.01233 147.49233 151.08464 154.56464 158.04463 161.52463 165.00463">                   </tspan></text>
</g>
<clipPath id="cp42961">
<path transform="matrix(1,0,0,-1,0,841.92)" d="M .000008871 0 L 595.32 0 L 595.32 841.92 L .000008871 841.92 Z " fill-rule="evenodd"/>
</clipPath>
<g clip-path="url(#cp42961)">
<text xml:space="preserve" transform="matrix(1 0 -0 1 0 841.92)" font-size="14.04" font-family="Times New Roman"><tspan y="-520.51" x="168.5 172.0802 175.5902 179.04402 182.55402 186.00785 189.51784 193.06995 196.57994 200.03377 203.54376 206.99759 210.50759 214.0597 217.56969 221.02352 224.60372 228.11371 231.56754 235.07753 238.53136 242.04135 245.49518 249.00518 252.55728 256.0673 259.52116 263.03117 266.48503 269.99504 273.54716 277.05717 280.51103 284.02104 287.47489 290.9849 294.53703 298.04704 301.5009 305.0109 308.46476 311.97477 315.5269 319.0369 322.49076 326.00077 329.45463 332.96464 336.51676 340.02677 343.48063 347.06083 350.57084 354.0247 357.5347 360.98857 364.49858 367.95243 371.46244 375.01457 378.52458">..................,                                          </tspan></text>
</g>
<clipPath id="cp42962">
<path transform="matrix(1,0,0,-1,0,841.92)" d="M .000008871 0 L 595.32 0 L 595.32 841.92 L .000008871 841.92 Z " fill-rule="evenodd"/>
</clipPath>
<g clip-path="url(#cp42962)">
<text xml:space="preserve" transform="matrix(1 0 -0 1 0 841.92)" font-size="14.04" font-family="Times New Roman"><tspan y="-520.51" x="382.27"> </tspan></text>
</g>
</g>
<g id="Layer-1" data-name="P">
<clipPath id="cp42963">
<path transform="matrix(1,0,0,-1,0,841.92)" d="M .000008871 0 L 595.32 0 L 595.32 841.92 L .000008871 841.92 Z " fill-rule="evenodd"/>
</clipPath>
<g clip-path="url(#cp42963)">
<text xml:space="preserve" transform="matrix(1 0 -0 1 0 841.92)" font-size="14.04" font-family="Times New Roman"><tspan y="-496.15" x="102.14"> </tspan></text>
</g>
</g>
<g id="Layer-1" data-name="P">
<clipPath id="cp42964">
<path transform="matrix(1,0,0,-1,0,841.92)" d="M 0 .000061035 L 595.32 .000061035 L 595.32 841.92007 L 0 841.92007 Z " fill-rule="evenodd"/>
</clipPath>
<g clip-path="url(#cp42964)">
<clipPath id="cp42965">
<path transform="matrix(1.1907139,0,0,-1.14265,172.86,350.81)" d="M 0 0 L 58.536 0 L 58.536 15.753 L 0 15.753 Z " fill-rule="evenodd"/>
</clipPath>
<g clip-path="url(#cp42965)">
<text xml:space="preserve" transform="matrix(1.1907139 0 -0 1.14265 172.86 350.81)" font-size="10.511" font-family="Times New Roman"><tspan y="-5.2098" x="51.569">0</tspan></text>
<text xml:space="preserve" transform="matrix(1.1907139 0 -0 1.14265 172.86 350.81)" font-size="10.511" font-family="Times New Roman"><tspan y="-5.2098" x="38.302">)</tspan></text>
<text xml:space="preserve" transform="matrix(1.1907139 0 -0 1.14265 172.86 350.81)" font-size="10.511" font-family="Times New Roman"><tspan y="-5.2098" x="25.428">,</tspan></text>
<text xml:space="preserve" transform="matrix(1.1907139 0 -0 1.14265 172.86 350.81)" font-size="10.511" font-family="Times New Roman"><tspan y="-5.2098" x="13.957">(</tspan></text>
<text xml:space="preserve" transform="matrix(1.1907139 0 -0 1.14265 172.86 350.81)" font-size="7.36" font-family="Times New Roman"><tspan y="-2.5926" x="33.822">2</tspan></text>
<text xml:space="preserve" transform="matrix(1.1907139 0 -0 1.14265 172.86 350.81)" font-size="7.36" font-family="Times New Roman"><tspan y="-2.5926" x="21.662">1</tspan></text>
<text xml:space="preserve" transform="matrix(1.1907139 0 -0 1.14265 172.86 350.81)" font-size="10.511" font-family="Symbol"><tspan y="-5.2098" x="43.84">&#xf0a3;</tspan></text>
<text xml:space="preserve" transform="matrix(1.1907139 0 -0 1.14265 172.86 350.81)" font-size="10.511" font-family="Times New Roman,Italic" font-style="italic"><tspan y="-5.2098" x="29.44">x</tspan></text>
<text xml:space="preserve" transform="matrix(1.1907139 0 -0 1.14265 172.86 350.81)" font-size="10.511" font-family="Times New Roman,Italic" font-style="italic"><tspan y="-5.2098" x="18.043">x</tspan></text>
<text xml:space="preserve" transform="matrix(1.1907139 0 -0 1.14265 172.86 350.81)" font-size="10.511" font-family="Times New Roman,Italic" font-style="italic"><tspan y="-5.2098" x="2.3385">g</tspan></text>
<text xml:space="preserve" transform="matrix(1.1907139 0 -0 1.14265 172.86 350.81)" font-size="7.36" font-family="Times New Roman,Italic" font-style="italic"><tspan y="-2.5926" x="7.8277">m</tspan></text>
</g>
</g>
</g>
<g id="Layer-1" data-name="P">
<clipPath id="cp42966">
<path transform="matrix(1,0,0,-1,0,841.92)" d="M .000008871 0 L 595.32 0 L 595.32 841.92 L .000008871 841.92 Z " fill-rule="evenodd"/>
</clipPath>
<g clip-path="url(#cp42966)">
<text xml:space="preserve" transform="matrix(1 0 -0 1 0 841.92)" font-size="14.04" font-family="Times New Roman"><tspan y="-496.15" x="242.57">,</tspan></text>
</g>
</g>
<g id="Layer-1" data-name="P">
<clipPath id="cp42967">
<path transform="matrix(1,0,0,-1,0,841.92)" d="M .000008871 0 L 595.32 0 L 595.32 841.92 L .000008871 841.92 Z " fill-rule="evenodd"/>
</clipPath>
<g clip-path="url(#cp42967)">
<text xml:space="preserve" transform="matrix(1 0 -0 1 0 841.92)" font-size="14.04" font-family="Times New Roman"><tspan y="-496.15" x="246.05 249.56 253.01383 256.52384 259.9777 263.4877 266.94157 270.52177 274.03178 277.48564 280.99565 284.4495 287.9595 291.51164 295.02165 298.4755 301.9855 305.43937 308.94938 312.5015 316.0115 319.46537 322.97538 326.42924 329.93925 333.49137 337.00138 340.45524 343.96525 347.4191 350.9291 354.48124">                                </tspan></text>
</g>
</g>
<g id="Layer-1" data-name="P">
<clipPath id="cp42968">
<path transform="matrix(1,0,0,-1,0,841.92)" d="M .000008871 0 L 595.32 0 L 595.32 841.92 L .000008871 841.92 Z " fill-rule="evenodd"/>
</clipPath>
<g clip-path="url(#cp42968)">
<text xml:space="preserve" transform="matrix(1 0 -0 1 0 841.92)" font-size="14.04" font-family="Times New Roman"><tspan y="-496.15" x="358.03 362.70533 369.78147 376.84358 380.35359 391.00996">(16.m)</tspan></text>
</g>
</g>
<g id="Layer-1" data-name="P">
<clipPath id="cp42969">
<path transform="matrix(1,0,0,-1,0,841.92)" d="M .000008871 0 L 595.32 0 L 595.32 841.92 L .000008871 841.92 Z " fill-rule="evenodd"/>
</clipPath>
<g clip-path="url(#cp42969)">
<text xml:space="preserve" transform="matrix(1 0 -0 1 0 841.92)" font-size="14.04" font-family="Times New Roman"><tspan y="-496.15" x="395.71"> </tspan></text>
</g>
<clipPath id="cp42970">
<path transform="matrix(1,0,0,-1,0,841.92)" d="M .000008871 0 L 595.32 0 L 595.32 841.92 L .000008871 841.92 Z " fill-rule="evenodd"/>
</clipPath>
<g clip-path="url(#cp42970)">
</g>
</g>
<g id="Layer-1" data-name="P">
<clipPath id="cp42971">
<path transform="matrix(1,0,0,-1,0,841.92)" d="M .000008871 0 L 595.32 0 L 595.32 841.92 L .000008871 841.92 Z " fill-rule="evenodd"/>
</clipPath>
<g clip-path="url(#cp42971)">
<text xml:space="preserve" transform="matrix(1 0 -0 1 0 841.92)" font-size="14.04" font-family="Times New Roman"><tspan y="-468.55" x="102.14 105.62 109.100009 112.58001 116.06001 119.540019 123.02002 126.50002 130.09235 133.57234 137.05234 140.53234 144.01233 147.49233 151.08464 154.56464 158.04463 161.52463 165.00463">                   </tspan></text>
</g>
</g>
<g id="Layer-1" data-name="P">
<clipPath id="cp42972">
<path transform="matrix(1,0,0,-1,0,841.92)" d="M 0 .000061035 L 595.32 .000061035 L 595.32 841.92007 L 0 841.92007 Z " fill-rule="evenodd"/>
</clipPath>
<g clip-path="url(#cp42972)">
<clipPath id="cp42973">
<path transform="matrix(1.2680619,0,0,-1.241055,168.66,378.40998)" d="M 0 0 L 54.966 0 L 54.966 15.753 L 0 15.753 Z " fill-rule="evenodd"/>
</clipPath>
<g clip-path="url(#cp42973)">
<text xml:space="preserve" transform="matrix(1.2680619 0 -0 1.241055 168.66 378.40998)" font-size="10.511" font-family="Times New Roman"><tspan y="-5.2098" x="47.926">0</tspan></text>
<text xml:space="preserve" transform="matrix(1.2680619 0 -0 1.241055 168.66 378.40998)" font-size="10.511" font-family="Times New Roman"><tspan y="-5.2098" x="24.935">,</tspan></text>
<text xml:space="preserve" transform="matrix(1.2680619 0 -0 1.241055 168.66 378.40998)" font-size="10.511" font-family="Times New Roman"><tspan y="-5.2098" x="20.012">0</tspan></text>
<text xml:space="preserve" transform="matrix(1.2680619 0 -0 1.241055 168.66 378.40998)" font-size="7.36" font-family="Times New Roman"><tspan y="-2.5926" x="33.428">2</tspan></text>
<text xml:space="preserve" transform="matrix(1.2680619 0 -0 1.241055 168.66 378.40998)" font-size="7.36" font-family="Times New Roman"><tspan y="-2.5926" x="6.0308">1</tspan></text>
<text xml:space="preserve" transform="matrix(1.2680619 0 -0 1.241055 168.66 378.40998)" font-size="10.511" font-family="Symbol"><tspan y="-5.2098" x="40.074">&#xf0b3;</tspan></text>
<text xml:space="preserve" transform="matrix(1.2680619 0 -0 1.241055 168.66 378.40998)" font-size="10.511" font-family="Symbol"><tspan y="-5.2098" x="12.135">&#xf0b3;</tspan></text>
<text xml:space="preserve" transform="matrix(1.2680619 0 -0 1.241055 168.66 378.40998)" font-size="10.511" font-family="Times New Roman,Italic" font-style="italic"><tspan y="-5.2098" x="28.948">x</tspan></text>
<text xml:space="preserve" transform="matrix(1.2680619 0 -0 1.241055 168.66 378.40998)" font-size="10.511" font-family="Times New Roman,Italic" font-style="italic"><tspan y="-5.2098" x="2.3631">x</tspan></text>
</g>
</g>
</g>
<g id="Layer-1" data-name="P">
<clipPath id="cp42974">
<path transform="matrix(1,0,0,-1,0,841.92)" d="M .000008871 0 L 595.32 0 L 595.32 841.92 L .000008871 841.92 Z " fill-rule="evenodd"/>
</clipPath>
<g clip-path="url(#cp42974)">
<text xml:space="preserve" transform="matrix(1 0 -0 1 0 841.92)" font-size="14.04" font-family="Times New Roman"><tspan y="-468.55" x="238.37">,</tspan></text>
</g>
</g>
<g id="Layer-1" data-name="P">
<clipPath id="cp42975">
<path transform="matrix(1,0,0,-1,0,841.92)" d="M .000008871 0 L 595.32 0 L 595.32 841.92 L .000008871 841.92 Z " fill-rule="evenodd"/>
</clipPath>
<g clip-path="url(#cp42975)">
<text xml:space="preserve" transform="matrix(1 0 -0 1 0 841.92)" font-size="14.04" font-family="Times New Roman"><tspan y="-468.55" x="241.85 245.36 248.81383 252.32382 255.77765 259.28767 262.83979 266.3498 269.80366 273.31367 276.76753 280.27754 283.82966 287.33967 290.79353 294.37373 297.88374 301.3376 304.8476 308.30146 311.81147 315.26533 318.77534 322.32746 325.83747 329.29133 332.80134 336.2552 339.7652">                             </tspan></text>
</g>
</g>
<g id="Layer-1" data-name="P">
<clipPath id="cp42976">
<path transform="matrix(1,0,0,-1,0,841.92)" d="M .000008871 0 L 595.32 0 L 595.32 841.92 L .000008871 841.92 Z " fill-rule="evenodd"/>
</clipPath>
<g clip-path="url(#cp42976)">
<text xml:space="preserve" transform="matrix(1 0 -0 1 0 841.92)" font-size="14.04" font-family="Times New Roman"><tspan y="-468.55" x="343.39 346.87004 350.35005 353.83006 357.31007">     </tspan></text>
</g>
</g>
<g id="Layer-1" data-name="P">
<clipPath id="cp42977">
<path transform="matrix(1,0,0,-1,0,841.92)" d="M .000008871 0 L 595.32 0 L 595.32 841.92 L .000008871 841.92 Z " fill-rule="evenodd"/>
</clipPath>
<g clip-path="url(#cp42977)">
<text xml:space="preserve" transform="matrix(1 0 -0 1 0 841.92)" font-size="14.04" font-family="Times New Roman"><tspan y="-468.55" x="360.79 365.46534 372.54148 379.60359">(17)</tspan></text>
</g>
</g>
<g id="Layer-1" data-name="P">
<clipPath id="cp42978">
<path transform="matrix(1,0,0,-1,0,841.92)" d="M .000008871 0 L 595.32 0 L 595.32 841.92 L .000008871 841.92 Z " fill-rule="evenodd"/>
</clipPath>
<g clip-path="url(#cp42978)">
<text xml:space="preserve" transform="matrix(1 0 -0 1 0 841.92)" font-size="14.04" font-family="Times New Roman"><tspan y="-468.55" x="384.31"> </tspan></text>
</g>
</g>
<g id="Layer-1" data-name="P">
<clipPath id="cp42979">
<path transform="matrix(1,0,0,-1,0,841.92)" d="M .000008871 0 L 595.32 0 L 595.32 841.92 L .000008871 841.92 Z " fill-rule="evenodd"/>
</clipPath>
<g clip-path="url(#cp42979)">
<text xml:space="preserve" transform="matrix(1 0 -0 1 0 841.92)" font-size="14.04" font-family="Times New Roman"><tspan y="-442.39" x="85.104 90.60768 97.6698 103.79124 108.46656 112.31352 116.258769 122.49252 127.16785 130.53745 137.59957 143.83333 147.68029 153.91405 158.58937 162.43633 166.28328 173.3454 179.57917 186.543 193.60512">shartlar bajarilganda</tspan></text>
</g>
<clipPath id="cp42980">
<path transform="matrix(1,0,0,-1,0,841.92)" d="M .000008871 0 L 595.32 0 L 595.32 841.92 L .000008871 841.92 Z " fill-rule="evenodd"/>
</clipPath>
<g clip-path="url(#cp42980)">
<text xml:space="preserve" transform="matrix(1 0 -0 1 0 841.92)" font-size="14.04" font-family="Times New Roman"><tspan y="-442.39" x="199.97 203.48 206.80747">   </tspan></text>
</g>
</g>
<g id="Layer-1" data-name="P">
<clipPath id="cp42981">
<path transform="matrix(1,0,0,-1,0,841.92)" d="M .000008871 0 L 595.32 0 L 595.32 841.92 L .000008871 841.92 Z " fill-rule="evenodd"/>
</clipPath>
<g clip-path="url(#cp42981)">
<text xml:space="preserve" transform="matrix(1 0 -0 1 0 841.92)" font-size="14.04" font-family="Times New Roman"><tspan y="-442.39" x="210.29 213.79999 217.25382 220.76381 224.21764 227.72763 231.18146 234.76166">        </tspan></text>
</g>
</g>
<g id="Layer-1" data-name="P">
<clipPath id="cp42982">
<path transform="matrix(1,0,0,-1,0,841.92)" d="M 0 .000061035 L 595.32 .000061035 L 595.32 841.92007 L 0 841.92007 Z " fill-rule="evenodd"/>
</clipPath>
<g clip-path="url(#cp42982)">
<clipPath id="cp42983">
<path transform="matrix(1.1451645,0,0,-1.0950244,238.36,404.56)" d="M 0 0 L 71.385 0 L 71.385 15.753 L 0 15.753 Z " fill-rule="evenodd"/>
</clipPath>
<g clip-path="url(#cp42983)">
<text xml:space="preserve" transform="matrix(1.1451645 0 -0 1.0950244 238.36 404.56)" font-size="10.511" font-family="Times New Roman"><tspan y="-5.2098" x="52.037 59.90974 64.219249">max</tspan></text>
<text xml:space="preserve" transform="matrix(1.1451645 0 -0 1.0950244 238.36 404.56)" font-size="10.511" font-family="Times New Roman"><tspan y="-5.2098" x="34.166">)</tspan></text>
<text xml:space="preserve" transform="matrix(1.1451645 0 -0 1.0950244 238.36 404.56)" font-size="10.511" font-family="Times New Roman"><tspan y="-5.2098" x="20.628">,</tspan></text>
<text xml:space="preserve" transform="matrix(1.1451645 0 -0 1.0950244 238.36 404.56)" font-size="10.511" font-family="Times New Roman"><tspan y="-5.2098" x="8.8862">(</tspan></text>
<text xml:space="preserve" transform="matrix(1.1451645 0 -0 1.0950244 238.36 404.56)" font-size="7.36" font-family="Times New Roman"><tspan y="-2.5679" x="29.539">2</tspan></text>
<text xml:space="preserve" transform="matrix(1.1451645 0 -0 1.0950244 238.36 404.56)" font-size="7.36" font-family="Times New Roman"><tspan y="-2.5679" x="16.714">1</tspan></text>
<text xml:space="preserve" transform="matrix(1.1451645 0 -0 1.0950244 238.36 404.56)" font-size="10.511" font-family="Symbol"><tspan y="-5.2098" x="39.803">&#xf0ae;</tspan></text>
<text xml:space="preserve" transform="matrix(1.1451645 0 -0 1.0950244 238.36 404.56)" font-size="10.511" font-family="Times New Roman,Italic" font-style="italic"><tspan y="-5.2098" x="24.985">x</tspan></text>
<text xml:space="preserve" transform="matrix(1.1451645 0 -0 1.0950244 238.36 404.56)" font-size="10.511" font-family="Times New Roman,Italic" font-style="italic"><tspan y="-5.2098" x="12.923">x</tspan></text>
<text xml:space="preserve" transform="matrix(1.1451645 0 -0 1.0950244 238.36 404.56)" font-size="10.511" font-family="Times New Roman,Italic" font-style="italic"><tspan y="-5.2098" x="3.7169">f</tspan></text>
</g>
</g>
</g>
<g id="Layer-1" data-name="P">
<clipPath id="cp42984">
<path transform="matrix(1,0,0,-1,0,841.92)" d="M .000008871 0 L 595.32 0 L 595.32 841.92 L .000008871 841.92 Z " fill-rule="evenodd"/>
</clipPath>
<g clip-path="url(#cp42984)">
<text xml:space="preserve" transform="matrix(1 0 -0 1 0 841.92)" font-size="14.04" font-family="Times New Roman"><tspan y="-442.39" x="320.11 323.59 327.07 330.55003 334.03004 337.51005 340.99006 344.47007 347.95008 351.43009 354.9101 358.50245 361.98246 365.46247 368.94248 372.4225 375.9025 379.49485 382.97486 386.45487 389.93489 393.4149 396.8949 400.48725 403.96726 407.44728 411.0396 414.51963 417.99964 421.47966 424.95967 428.43968 431.91969">                                 </tspan></text>
</g>
<clipPath id="cp42985">
<path transform="matrix(1,0,0,-1,0,841.92)" d="M .000008871 0 L 595.32 0 L 595.32 841.92 L .000008871 841.92 Z " fill-rule="evenodd"/>
</clipPath>
<g clip-path="url(#cp42985)">
<text xml:space="preserve" transform="matrix(1 0 -0 1 0 841.92)" font-size="14.04" font-family="Times New Roman"><tspan y="-442.39" x="435.43 440.10533 447.18147">(2)</tspan></text>
</g>
<clipPath id="cp42986">
<path transform="matrix(1,0,0,-1,0,841.92)" d="M .000008871 0 L 595.32 0 L 595.32 841.92 L .000008871 841.92 Z " fill-rule="evenodd"/>
</clipPath>
<g clip-path="url(#cp42986)">
<text xml:space="preserve" transform="matrix(1 0 -0 1 0 841.92)" font-size="14.04" font-family="Times New Roman"><tspan y="-442.39" x="451.9"> </tspan></text>
</g>
</g>
<g id="Layer-1" data-name="P">
<clipPath id="cp42987">
<path transform="matrix(1,0,0,-1,0,841.92)" d="M .000008871 0 L 595.32 0 L 595.32 841.92 L .000008871 841.92 Z " fill-rule="evenodd"/>
</clipPath>
<g clip-path="url(#cp42987)">
<text xml:space="preserve" transform="matrix(1 0 -0 1 0 841.92)" font-size="14.04" font-family="Times New Roman"><tspan y="-416.59" x="85.104"> </tspan></text>
</g>
<clipPath id="cp42988">
<path transform="matrix(1,0,0,-1,0,841.92)" d="M .000008871 0 L 595.32 0 L 595.32 841.92 L .000008871 841.92 Z " fill-rule="evenodd"/>
</clipPath>
<g clip-path="url(#cp42988)">
<text xml:space="preserve" transform="matrix(1 0 -0 1 0 841.92)" font-size="14.04" font-family="Times New Roman"><tspan y="-416.59" x="88.584 95.64612 102.70824 107.27124 111.216487 117.33792 124.40004 128.34528">bo&#x2018;ladi.</tspan></text>
</g>
<clipPath id="cp42989">
<path transform="matrix(1,0,0,-1,0,841.92)" d="M .000008871 0 L 595.32 0 L 595.32 841.92 L .000008871 841.92 Z " fill-rule="evenodd"/>
</clipPath>
<g clip-path="url(#cp42989)">
<text xml:space="preserve" transform="matrix(1 0 -0 1 0 841.92)" font-size="14.04" font-family="Times New Roman"><tspan y="-416.59" x="131.78"> </tspan></text>
</g>
</g>
<g id="Layer-1" data-name="P">
<clipPath id="cp42990">
<path transform="matrix(1,0,0,-1,0,841.92)" d="M 0 .000061035 L 595.32 .000061035 L 595.32 841.92007 L 0 841.92007 Z " fill-rule="evenodd"/>
</clipPath>
<g clip-path="url(#cp42990)">
<clipPath id="cp42991">
<path transform="matrix(1.1431942,0,0,-1.14265,120.56,454.75999)" d="M 0 0 L 39.976 0 L 39.976 15.753 L 0 15.753 Z " fill-rule="evenodd"/>
</clipPath>
<g clip-path="url(#cp42991)">
<text xml:space="preserve" transform="matrix(1.1431942 0 -0 1.14265 120.56 454.75999)" font-size="10.511" font-family="Times New Roman"><tspan y="-5.2098" x="34.142">)</tspan></text>
<text xml:space="preserve" transform="matrix(1.1431942 0 -0 1.14265 120.56 454.75999)" font-size="10.511" font-family="Times New Roman"><tspan y="-5.2098" x="20.948">,</tspan></text>
<text xml:space="preserve" transform="matrix(1.1431942 0 -0 1.14265 120.56 454.75999)" font-size="10.511" font-family="Times New Roman"><tspan y="-5.2098" x="9.157">(</tspan></text>
<text xml:space="preserve" transform="matrix(1.1431942 0 -0 1.14265 120.56 454.75999)" font-size="7.36" font-family="Times New Roman"><tspan y="-2.5679" x="29.563">2</tspan></text>
<text xml:space="preserve" transform="matrix(1.1431942 0 -0 1.14265 120.56 454.75999)" font-size="7.36" font-family="Times New Roman"><tspan y="-2.5679" x="17.059">1</tspan></text>
<text xml:space="preserve" transform="matrix(1.1431942 0 -0 1.14265 120.56 454.75999)" font-size="10.511" font-family="Times New Roman,Italic" font-style="italic"><tspan y="-5.2098" x="25.034">x</tspan></text>
<text xml:space="preserve" transform="matrix(1.1431942 0 -0 1.14265 120.56 454.75999)" font-size="10.511" font-family="Times New Roman,Italic" font-style="italic"><tspan y="-5.2098" x="13.366">x</tspan></text>
<text xml:space="preserve" transform="matrix(1.1431942 0 -0 1.14265 120.56 454.75999)" font-size="10.511" font-family="Times New Roman,Italic" font-style="italic"><tspan y="-5.2098" x="3.84">f</tspan></text>
</g>
</g>
</g>
<g id="Layer-1" data-name="P">
<clipPath id="cp42992">
<path transform="matrix(1,0,0,-1,0,841.92)" d="M .000008871 0 L 595.32 0 L 595.32 841.92 L .000008871 841.92 Z " fill-rule="evenodd"/>
</clipPath>
<g clip-path="url(#cp42992)">
<text xml:space="preserve" transform="matrix(1 0 -0 1 0 841.92)" font-size="14.04" font-family="Times New Roman"><tspan y="-392.21" x="166.22"> </tspan></text>
</g>
<clipPath id="cp42993">
<path transform="matrix(1,0,0,-1,0,841.92)" d="M .000008871 0 L 595.32 0 L 595.32 841.92 L .000008871 841.92 Z " fill-rule="evenodd"/>
</clipPath>
<g clip-path="url(#cp42993)">
<text xml:space="preserve" transform="matrix(1 0 -0 1 0 841.92)" font-size="14.04" font-family="Times New Roman"><tspan y="-392.21" x="170.9 175.57532 182.65149 189.61533 196.57917 202.08284 206.02808 212.86556 219.09932">funksiya </tspan></text>
</g>
<clipPath id="cp42994">
<path transform="matrix(1,0,0,-1,0,841.92)" d="M .000008871 0 L 595.32 0 L 595.32 841.92 L .000008871 841.92 Z " fill-rule="evenodd"/>
</clipPath>
<g clip-path="url(#cp42994)">
<text xml:space="preserve" transform="matrix(1 0 -0 1 0 841.92)" font-size="14.04" font-family="Times New Roman,Italic" font-style="italic"><tspan y="-392.21" x="223.85 233.93073 240.99285 247.95668 253.46036 260.4242 267.4863">maqsad </tspan></text>
</g>
<clipPath id="cp42995">
<path transform="matrix(1,0,0,-1,0,841.92)" d="M .000008871 0 L 595.32 0 L 595.32 841.92 L .000008871 841.92 Z " fill-rule="evenodd"/>
</clipPath>
<g clip-path="url(#cp42995)">
<text xml:space="preserve" transform="matrix(1 0 -0 1 0 841.92)" font-size="14.04" font-family="Times New Roman,BoldItalic" font-weight="bold" font-style="italic"><tspan y="-392.21" x="272.21 276.8853 284.5652 292.37144 299.43354 304.83894 308.78416 314.90559">funksiya</tspan></text>
</g>
<clipPath id="cp42996">
<path transform="matrix(1,0,0,-1,0,841.92)" d="M .000008871 0 L 595.32 0 L 595.32 841.92 L .000008871 841.92 Z " fill-rule="evenodd"/>
</clipPath>
<g clip-path="url(#cp42996)">
<text xml:space="preserve" transform="matrix(1 0 -0 1 0 841.92)" font-size="14.04" font-family="Times New Roman"><tspan y="-392.21" x="322.03"> </tspan></text>
</g>
<clipPath id="cp42997">
<path transform="matrix(1,0,0,-1,0,841.92)" d="M .000008871 0 L 595.32 0 L 595.32 841.92 L .000008871 841.92 Z " fill-rule="evenodd"/>
</clipPath>
<g clip-path="url(#cp42997)">
<text xml:space="preserve" transform="matrix(1 0 -0 1 0 841.92)" font-size="14.04" font-family="Times New Roman"><tspan y="-392.21" x="326.71 333.67384 339.9076 346.98374 351.64503 357.76646 361.71168 367.8331 371.77833 377.89976 384.96186 388.90708 392.41709 397.0503 401.61329 408.67539 415.7375 419.2475 423.7684 430.8305 435.50584 439.01585 443.6631 448.3384 455.30226 462.36436 465.87437 470.50758 481.19203 485.86735 490.54267 494.48789 500.72166 507.7978 514.76168 520.16708 524.01406 530.2478 534.19308 538.04006 545.0039 548.94918 555.1829 559.7459">deb ataladi, (16, 1). (16, m) tengsizliklar </tspan></text>
</g>
<clipPath id="cp42998">
<path transform="matrix(1,0,0,-1,0,841.92)" d="M .000008871 0 L 595.32 0 L 595.32 841.92 L .000008871 841.92 Z " fill-rule="evenodd"/>
</clipPath>
<g clip-path="url(#cp42998)">
<text xml:space="preserve" transform="matrix(1 0 -0 1 0 841.92)" font-size="14.04" font-family="Times New Roman"><tspan y="-366.05" x="85.104 95.90076 102.134517 106.07976 112.313518 122.997959 129.23172 133.17696 137.1222 144.18431 154.72835 161.79047 167.91191 173.41559 177.26255 184.32466 188.88767 192.8329 198.95435 204.35974 211.42186 218.3857 222.23265 229.29477 236.35689">matematik dasturlashning </tspan></text>
</g>
<clipPath id="cp42999">
<path transform="matrix(1,0,0,-1,0,841.92)" d="M .000008871 0 L 595.32 0 L 595.32 841.92 L .000008871 841.92 Z " fill-rule="evenodd"/>
</clipPath>
<g clip-path="url(#cp42999)">
<text xml:space="preserve" transform="matrix(1 0 -0 1 0 841.92)" font-size="14.04" font-family="Times New Roman,Italic" font-style="italic"><tspan y="-366.05" x="247.13 257.08436 264.14646 270.38023 275.7856 282.74946 288.2531 298.79716 305.0309 311.99476 318.22853 324.34996 328.29518 335.259 342.3211 346.16807 351.57347 358.63557 362.4825 369.44636 374.95 378.89524">maxsus cheklanishlari,</tspan></text>
</g>
<clipPath id="cp43000">
<path transform="matrix(1,0,0,-1,0,841.92)" d="M .000008871 0 L 595.32 0 L 595.32 841.92 L .000008871 841.92 Z " fill-rule="evenodd"/>
</clipPath>
<g clip-path="url(#cp43000)">
<text xml:space="preserve" transform="matrix(1 0 -0 1 0 841.92)" font-size="14.04" font-family="Times New Roman"><tspan y="-366.05" x="382.51"> </tspan></text>
</g>
</g>
<g id="Layer-1" data-name="P">
<clipPath id="cp43001">
<path transform="matrix(1,0,0,-1,0,841.92)" d="M 0 .000061035 L 595.32 .000061035 L 595.32 841.92007 L 0 841.92007 Z " fill-rule="evenodd"/>
</clipPath>
<g clip-path="url(#cp43001)">
<clipPath id="cp43002">
<path transform="matrix(1.1461625,0,0,-1.0982238,392.96,480.90998)" d="M 0 0 L 54.966 0 L 54.966 15.753 L 0 15.753 Z " fill-rule="evenodd"/>
</clipPath>
<g clip-path="url(#cp43002)">
<text xml:space="preserve" transform="matrix(1.1461625 0 -0 1.0982238 392.96 480.90998)" font-size="10.511" font-family="Times New Roman"><tspan y="-5.2098" x="47.926">0</tspan></text>
<text xml:space="preserve" transform="matrix(1.1461625 0 -0 1.0982238 392.96 480.90998)" font-size="10.511" font-family="Times New Roman"><tspan y="-5.2098" x="24.935">,</tspan></text>
<text xml:space="preserve" transform="matrix(1.1461625 0 -0 1.0982238 392.96 480.90998)" font-size="10.511" font-family="Times New Roman"><tspan y="-5.2098" x="20.012">0</tspan></text>
<text xml:space="preserve" transform="matrix(1.1461625 0 -0 1.0982238 392.96 480.90998)" font-size="7.36" font-family="Times New Roman"><tspan y="-2.5926" x="33.428">2</tspan></text>
<text xml:space="preserve" transform="matrix(1.1461625 0 -0 1.0982238 392.96 480.90998)" font-size="7.36" font-family="Times New Roman"><tspan y="-2.5926" x="6.0308">1</tspan></text>
<text xml:space="preserve" transform="matrix(1.1461625 0 -0 1.0982238 392.96 480.90998)" font-size="10.511" font-family="Symbol"><tspan y="-5.2098" x="40.074">&#xf0b3;</tspan></text>
<text xml:space="preserve" transform="matrix(1.1461625 0 -0 1.0982238 392.96 480.90998)" font-size="10.511" font-family="Symbol"><tspan y="-5.2098" x="12.135">&#xf0b3;</tspan></text>
<text xml:space="preserve" transform="matrix(1.1461625 0 -0 1.0982238 392.96 480.90998)" font-size="10.511" font-family="Times New Roman,Italic" font-style="italic"><tspan y="-5.2098" x="28.948">x</tspan></text>
<text xml:space="preserve" transform="matrix(1.1461625 0 -0 1.0982238 392.96 480.90998)" font-size="10.511" font-family="Times New Roman,Italic" font-style="italic"><tspan y="-5.2098" x="2.3631">x</tspan></text>
</g>
</g>
</g>
<g id="Layer-1" data-name="P">
<clipPath id="cp43003">
<path transform="matrix(1,0,0,-1,0,841.92)" d="M .000008871 0 L 595.32 0 L 595.32 841.92 L .000008871 841.92 Z " fill-rule="evenodd"/>
</clipPath>
<g clip-path="url(#cp43003)">
<text xml:space="preserve" transform="matrix(1 0 -0 1 0 841.92)" font-size="14.04" font-family="Times New Roman"><tspan y="-366.05" x="455.98"> </tspan></text>
</g>
<clipPath id="cp43004">
<path transform="matrix(1,0,0,-1,0,841.92)" d="M .000008871 0 L 595.32 0 L 595.32 841.92 L .000008871 841.92 Z " fill-rule="evenodd"/>
</clipPath>
<g clip-path="url(#cp43004)">
<text xml:space="preserve" transform="matrix(1 0 -0 1 0 841.92)" font-size="14.04" font-family="Times New Roman"><tspan y="-366.05" x="466.54 470.48524 476.719 481.39433 488.3722 494.60597 505.16407">larga  </tspan></text>
</g>
<clipPath id="cp43005">
<path transform="matrix(1,0,0,-1,0,841.92)" d="M .000008871 0 L 595.32 0 L 595.32 841.92 L .000008871 841.92 Z " fill-rule="evenodd"/>
</clipPath>
<g clip-path="url(#cp43005)">
<text xml:space="preserve" transform="matrix(1 0 -0 1 0 841.92)" font-size="14.04" font-family="Times New Roman,Italic" font-style="italic"><tspan y="-366.05" x="515.74 522.8021 532.8829 539.945 550.02578 553.87277 559.9942">umumiy </tspan></text>
</g>
<clipPath id="cp43006">
<path transform="matrix(1,0,0,-1,0,841.92)" d="M .000008871 0 L 595.32 0 L 595.32 841.92 L .000008871 841.92 Z " fill-rule="evenodd"/>
</clipPath>
<g clip-path="url(#cp43006)">
<text xml:space="preserve" transform="matrix(1 0 -0 1 0 841.92)" font-size="14.04" font-family="Times New Roman,Italic" font-style="italic"><tspan y="-340.13" x="85.104 91.33775 98.41391 104.64767 110.769107 114.616069 121.678188 128.64202 132.58725 137.99265 144.95648 148.90172 155.86556 161.36923">cheklanishlari</tspan></text>
</g>
<clipPath id="cp43007">
<path transform="matrix(1,0,0,-1,0,841.92)" d="M .000008871 0 L 595.32 0 L 595.32 841.92 L .000008871 841.92 Z " fill-rule="evenodd"/>
</clipPath>
<g clip-path="url(#cp43007)">
<text xml:space="preserve" transform="matrix(1 0 -0 1 0 841.92)" font-size="14.04" font-family="Times New Roman"><tspan y="-340.13" x="165.38"> </tspan></text>
</g>
<clipPath id="cp43008">
<path transform="matrix(1,0,0,-1,0,841.92)" d="M .000008871 0 L 595.32 0 L 595.32 841.92 L .000008871 841.92 Z " fill-rule="evenodd"/>
</clipPath>
<g clip-path="url(#cp43008)">
<text xml:space="preserve" transform="matrix(1 0 -0 1 0 841.92)" font-size="14.04" font-family="Times New Roman"><tspan y="-340.13" x="171.02 178.08213 184.20357 191.26569 197.00804 203.2418 207.08876 213.32253 217.26776 223.3892 230.45133 234.39656 237.90656 243.62084 256.1024 262.22383 269.28593 274.6913 281.65516 287.1588 292.90119 299.9633 306.19706 311.95347 319.01557 329.7 336.76213 347.44657 351.51817 358.35563 364.098 370.33177 377.4079 383.64167 390.7178 394.66304 400.78446 407.7483 411.6935 417.0989 424.161 428.00798 434.24174 438.91706 445.89494 449.74189 455.48426 462.54637 468.78013 475.74397 482.80607 488.9275 492.8727 496.81794 502.93937 509.9032 513.84848 517.7937 522.3567 528.59048 535.5543 539.4013 546.46347 552.5849 559.54879">deb ataladi. Maxsus va umumiy cheklanishlarni qanoatlantiradigan </tspan></text>
</g>
</g>
<g id="Layer-1" data-name="P">
<clipPath id="cp43009">
<path transform="matrix(1,0,0,-1,0,841.92)" d="M 0 .000061035 L 595.32 .000061035 L 595.32 841.92007 L 0 841.92007 Z " fill-rule="evenodd"/>
</clipPath>
<g clip-path="url(#cp43009)">
<clipPath id="cp43010">
<path transform="matrix(.9835762,0,0,-.95329287,85.16,531.16)" d="M 0 0 L 33.551 0 L 33.551 16.469 L 0 16.469 Z " fill-rule="evenodd"/>
</clipPath>
<g clip-path="url(#cp43010)">
<text xml:space="preserve" transform="matrix(.8447253 0 -0 1.1099893 85.16 531.16)" font-size="12.747623" font-family="Symbol"><tspan y="-4.644041" x="1.9202856">&#xf028;</tspan></text>
<text xml:space="preserve" transform="matrix(.8447253 0 -0 1.1099893 85.16 531.16)" font-size="12.747623" font-family="Symbol"><tspan y="-4.644041" x="32.788774">&#xf029;</tspan></text>
<text xml:space="preserve" transform="matrix(.9835762 0 -0 .95329287 85.16 531.16)" font-size="7.0893" font-family="Times New Roman"><tspan y="-2.5185" x="23.065">2</tspan></text>
<text xml:space="preserve" transform="matrix(.9835762 0 -0 .95329287 85.16 531.16)" font-size="7.0893" font-family="Times New Roman"><tspan y="-2.5185" x="9.7724">1</tspan></text>
<text xml:space="preserve" transform="matrix(.9835762 0 -0 .95329287 85.16 531.16)" font-size="11.126" font-family="Times New Roman,Italic" font-style="italic"><tspan y="-5.3086" x="18.092">x</tspan></text>
<text xml:space="preserve" transform="matrix(.9835762 0 -0 .95329287 85.16 531.16)" font-size="11.126" font-family="Times New Roman,Italic" font-style="italic"><tspan y="-5.3086" x="14.326">,</tspan></text>
<text xml:space="preserve" transform="matrix(.9835762 0 -0 .95329287 85.16 531.16)" font-size="11.126" font-family="Times New Roman,Italic" font-style="italic"><tspan y="-5.3086" x="5.6123">x</tspan></text>
</g>
</g>
</g>
<g id="Layer-1" data-name="P">
<clipPath id="cp43011">
<path transform="matrix(1,0,0,-1,0,841.92)" d="M .000008871 0 L 595.32 0 L 595.32 841.92 L .000008871 841.92 Z " fill-rule="evenodd"/>
</clipPath>
<g clip-path="url(#cp43011)">
<text xml:space="preserve" transform="matrix(1 0 -0 1 0 841.92)" font-size="14.04" font-family="Times New Roman"><tspan y="-315.77" x="118.1"> </tspan></text>
</g>
<clipPath id="cp43012">
<path transform="matrix(1,0,0,-1,0,841.92)" d="M .000008871 0 L 595.32 0 L 595.32 841.92 L .000008871 841.92 Z " fill-rule="evenodd"/>
</clipPath>
<g clip-path="url(#cp43012)">
<text xml:space="preserve" transform="matrix(1 0 -0 1 0 841.92)" font-size="14.04" font-family="Times New Roman"><tspan y="-315.77" x="127.34 134.40212 141.46424 148.42807 152.3733 158.60707 167.84539 178.52983 184.7636 188.70883 195.05492 205.73937 211.97313 215.91837 219.8636 226.92572 236.15 243.21212 249.44588 254.85128 258.69825 265.76036 270.43568 274.28263 280.5164 285.92179 292.88563 299.94773 303.79469 310.85679 317.91889">nuqta matematik dasturlashning </tspan></text>
</g>
<clipPath id="cp43013">
<path transform="matrix(1,0,0,-1,0,841.92)" d="M .000008871 0 L 595.32 0 L 595.32 841.92 L .000008871 841.92 Z " fill-rule="evenodd"/>
</clipPath>
<g clip-path="url(#cp43013)">
<text xml:space="preserve" transform="matrix(1 0 -0 1 0 841.92)" font-size="14.04" font-family="Times New Roman,Italic" font-style="italic"><tspan y="-315.77" x="327.43 337.5107 344.5728 354.52717 360.76094 367.72477 374.78688 384.01118 391.07328 398.13539 402.69837 406.54533 413.60743 420.57127 427.63337 436.85768 443.09144 449.3252 455.4607 462.5228 466.46803 476.42237">mumkun bo&#x2018;lgan yechimi</tspan></text>
</g>
<clipPath id="cp43014">
<path transform="matrix(1,0,0,-1,0,841.92)" d="M .000008871 0 L 595.32 0 L 595.32 841.92 L .000008871 841.92 Z " fill-rule="evenodd"/>
</clipPath>
<g clip-path="url(#cp43014)">
<text xml:space="preserve" transform="matrix(1 0 -0 1 0 841.92)" font-size="14.04" font-family="Times New Roman"><tspan y="-315.77" x="480.58"> </tspan></text>
</g>
<clipPath id="cp43015">
<path transform="matrix(1,0,0,-1,0,841.92)" d="M .000008871 0 L 595.32 0 L 595.32 841.92 L .000008871 841.92 Z " fill-rule="evenodd"/>
</clipPath>
<g clip-path="url(#cp43015)">
<text xml:space="preserve" transform="matrix(1 0 -0 1 0 841.92)" font-size="14.04" font-family="Times New Roman"><tspan y="-315.77" x="489.82 496.8821 503.00355 510.06565 519.2899 525.5237 529.46896 535.7027 539.5497 545.78347 552.7473 556.5943 559.9499">deb ataladi. </tspan></text>
</g>
<clipPath id="cp43016">
<path transform="matrix(1,0,0,-1,0,841.92)" d="M .000008871 0 L 595.32 0 L 595.32 841.92 L .000008871 841.92 Z " fill-rule="evenodd"/>
</clipPath>
<g clip-path="url(#cp43016)">
<text xml:space="preserve" transform="matrix(1 0 -0 1 0 841.92)" font-size="14.04" font-family="Times New Roman"><tspan y="-289.85" x="85.104 97.585559 103.81931 107.76456 113.998317 124.682758 130.91652 134.86176 138.70871 145.77083 149.60375 156.66587 162.78731 168.29099 172.13794 179.20006 183.76306 187.7083 193.82975 199.33342 206.29726 210.2425 220.92694 227.1607 232.67844 238.9122 242.85744 249.0912 254.4966 258.44184 262.27476 266.95008 279.43165 289.51237 301.99394 306.66926 310.37583 317.43794 323.6717 328.23469 334.46846 341.5446 347.77836 351.61128 362.29573 369.4842 380.16865 387.23075 391.17597 398.23808 402.07099 409.03483 416.09693 420.6599 424.60514 431.56898 437.80274 444.87889 448.58546 455.4229 461.65669 467.89045 474.96659 478.9118 489.59626 493.54148 499.77525 504.45057 508.40983 512.24276 516.188 523.2501 527.8131 534.777 538.7222 544.956 555.6404 559.48739">Matematik dasturlash masalasi (MDM) barcha mumkin bo&#x2018;lgan yechimlari to&#x2018;plami </tspan></text>
</g>
<clipPath id="cp43017">
<path transform="matrix(1,0,0,-1,0,841.92)" d="M .000008871 0 L 595.32 0 L 595.32 841.92 L .000008871 841.92 Z " fill-rule="evenodd"/>
</clipPath>
<g clip-path="url(#cp43017)">
<text xml:space="preserve" transform="matrix(1 0 -0 1 0 841.92)" font-size="14.04" font-family="Times New Roman"><tspan y="-265.73" x="85.104 92.166118 99.22823 102.738239 113.39459 119.62835 125.14607 131.37984 135.32508 141.44652 148.50864 152.35559 159.31943 166.38155">bu masalaning </tspan></text>
</g>
<clipPath id="cp43018">
<path transform="matrix(1,0,0,-1,0,841.92)" d="M .000008871 0 L 595.32 0 L 595.32 841.92 L .000008871 841.92 Z " fill-rule="evenodd"/>
</clipPath>
<g clip-path="url(#cp43018)">
<text xml:space="preserve" transform="matrix(1 0 -0 1 0 841.92)" font-size="14.04" font-family="Times New Roman,Italic" font-style="italic"><tspan y="-265.73" x="169.94 180.02072 187.08284 197.16356 203.285 207.13196 214.19408 217.70407 224.63983 231.70195 236.26496 240.21019 247.17403 254.13787 261.19999 264.71 270.94377 277.17753 283.2849 290.34703 294.29225 304.24659 308.1918 315.15565 320.6593 324.60453 327.96009 331.9053 338.9674 343.5304 350.49424 354.43946 361.50157 371.4559">mumkin bo&#x2018;lgan yechimlari to&#x2018;plami</tspan></text>
</g>
<clipPath id="cp43019">
<path transform="matrix(1,0,0,-1,0,841.92)" d="M .000008871 0 L 595.32 0 L 595.32 841.92 L .000008871 841.92 Z " fill-rule="evenodd"/>
</clipPath>
<g clip-path="url(#cp43019)">
<text xml:space="preserve" transform="matrix(1 0 -0 1 0 841.92)" font-size="14.04" font-family="Times New Roman"><tspan y="-265.73" x="375.67"> </tspan></text>
</g>
<clipPath id="cp43020">
<path transform="matrix(1,0,0,-1,0,841.92)" d="M .000008871 0 L 595.32 0 L 595.32 841.92 L .000008871 841.92 Z " fill-rule="evenodd"/>
</clipPath>
<g clip-path="url(#cp43020)">
<text xml:space="preserve" transform="matrix(1 0 -0 1 0 841.92)" font-size="14.04" font-family="Times New Roman"><tspan y="-265.73" x="379.15 386.2121 392.33354 399.39564 402.90565 409.1394 415.9488 419.894 423.83924 427.6862 433.91996 440.8838 444.829">deb aytiladi.</tspan></text>
</g>
<clipPath id="cp43021">
<path transform="matrix(1,0,0,-1,0,841.92)" d="M .000008871 0 L 595.32 0 L 595.32 841.92 L .000008871 841.92 Z " fill-rule="evenodd"/>
</clipPath>
<g clip-path="url(#cp43021)">
<text xml:space="preserve" transform="matrix(1 0 -0 1 0 841.92)" font-size="14.04" font-family="Times New Roman"><tspan y="-265.73" x="448.3"> </tspan></text>
</g>
</g>
<g id="Layer-1" data-name="P">
<clipPath id="cp43022">
<path transform="matrix(1,0,0,-1,0,841.92)" d="M .000008871 0 L 595.32 0 L 595.32 841.92 L .000008871 841.92 Z " fill-rule="evenodd"/>
</clipPath>
<g clip-path="url(#cp43022)">
<text xml:space="preserve" transform="matrix(1 0 -0 1 0 841.92)" font-size="14.04" font-family="Times New Roman"><tspan y="-241.61" x="120.5 130.58072 137.64284 143.8766 148.55193 152.27252 164.75409 174.83481 187.31638 190.89658 197.9587 204.19246 210.3139 217.37602 220.95623 228.01834 235.08046 239.5171 243.46234 254.14679 260.38056 267.4567 273.69047 280.7666 287.8287 293.95014 297.6567 304.62055 308.56578 312.41273 316.35795 322.5917 326.29829 336.98274 344.1712 354.85566 361.91777 365.86299 372.92509 376.50529 383.46913 390.53123 395.0942 399.03944 406.10154 412.22297 419.28507 422.99165 429.8291 436.06288 442.29664 449.37278 453.318 464.00245 471.06455 477.2983 480.89256 487.1263 494.20246 500.43623 504.03047 510.9943 518.0564 522.6194 526.56466 532.0683 538.30209 541.8121 545.37826 552.44039 559.40426">Agar MDM hech bo&#x2018;lmaganda bitta mumkin bo&#x2018;lgan yechimga ega bo&#x2018;lsa, bu </tspan></text>
</g>
<clipPath id="cp43023">
<path transform="matrix(1,0,0,-1,0,841.92)" d="M .000008871 0 L 595.32 0 L 595.32 841.92 L .000008871 841.92 Z " fill-rule="evenodd"/>
</clipPath>
<g clip-path="url(#cp43023)">
<text xml:space="preserve" transform="matrix(1 0 -0 1 0 841.92)" font-size="14.04" font-family="Times New Roman"><tspan y="-217.46" x="85.104 91.33775 97.57151 104.549388 108.49463 119.17907">echim </tspan></text>
</g>
<clipPath id="cp43024">
<path transform="matrix(1,0,0,-1,0,841.92)" d="M .000008871 0 L 595.32 0 L 595.32 841.92 L .000008871 841.92 Z " fill-rule="evenodd"/>
</clipPath>
<g clip-path="url(#cp43024)">
<text xml:space="preserve" transform="matrix(1 0 -0 1 0 841.92)" font-size="14.04" font-family="Times New Roman,Italic" font-style="italic"><tspan y="-217.46" x="125.9 135.98072 143.04283 153.12355 159.35732 163.30255 170.36467 177.07579 184.03963 191.10175 195.66475 199.60999 206.57382 213.63594 220.69806 227.2828 233.51657 239.75034 245.88582 252.94794 256.89317">mumkin bo&#x2018;lgan yechim</tspan></text>
</g>
<clipPath id="cp43025">
<path transform="matrix(1,0,0,-1,0,841.92)" d="M .000008871 0 L 595.32 0 L 595.32 841.92 L .000008871 841.92 Z " fill-rule="evenodd"/>
</clipPath>
<g clip-path="url(#cp43025)">
<text xml:space="preserve" transform="matrix(1 0 -0 1 0 841.92)" font-size="14.04" font-family="Times New Roman"><tspan y="-217.46" x="267.17"> </tspan></text>
</g>
<clipPath id="cp43026">
<path transform="matrix(1,0,0,-1,0,841.92)" d="M .000008871 0 L 595.32 0 L 595.32 841.92 L .000008871 841.92 Z " fill-rule="evenodd"/>
</clipPath>
<g clip-path="url(#cp43026)">
<text xml:space="preserve" transform="matrix(1 0 -0 1 0 841.92)" font-size="14.04" font-family="Times New Roman"><tspan y="-217.46" x="273.77 280.8321 287.06587 293.91737 297.86259 301.8078 307.92924 314.99134 318.93656 322.44657 329.00328 335.23704 342.31318 348.54695 353.22227 359.82109 372.30265 382.38337 394.86494 401.57606 408.5399 412.38685 416.33207 420.27729 426.51106 433.10987 440.17198 446.2934 457.09016 463.9136 474.59806 481.78654 492.47099 499.53309 503.4783 510.5404 517.2515 524.2154 531.2775 535.8405 539.78579 546.74966 552.7447 559.70858">deyiladi, agar MDM bitta ham mumkin bo&#x2018;lgan </tspan></text>
</g>
<clipPath id="cp43027">
<path transform="matrix(1,0,0,-1,0,841.92)" d="M .000008871 0 L 595.32 0 L 595.32 841.92 L .000008871 841.92 Z " fill-rule="evenodd"/>
</clipPath>
<g clip-path="url(#cp43027)">
<text xml:space="preserve" transform="matrix(1 0 -0 1 0 841.92)" font-size="14.04" font-family="Times New Roman"><tspan y="-190.94" x="85.104 91.941478 98.17523 104.40899 111.485149 115.43039 126.11483 133.17694 139.4107 147.07654 153.3103 160.38648 166.62024 174.28607 181.34819 188.41031 192.97332 196.91855 207.71532 213.94908 219.46681 225.70058 229.21057 236.84833 243.91045">yechimga ega bo&#x2018;lmasa, u </tspan></text>
</g>
<clipPath id="cp43028">
<path transform="matrix(1,0,0,-1,0,841.92)" d="M .000008871 0 L 595.32 0 L 595.32 841.92 L .000008871 841.92 Z " fill-rule="evenodd"/>
</clipPath>
<g clip-path="url(#cp43028)">
<text xml:space="preserve" transform="matrix(1 0 -0 1 0 841.92)" font-size="14.04" font-family="Times New Roman,Italic" font-style="italic"><tspan y="-190.94" x="251.81 261.89073 268.95283 279.03355 285.15498 289.00193 296.06404 303.7299 310.69374 317.75584 322.31883 326.16578 336.2465 343.3086 350.27244 357.33454 364.39665 372.0625 378.18394 384.4177 390.65147 397.62934 401.57456 411.65528">mumkin bo&#x2019;lmagan yechim </tspan></text>
</g>
<clipPath id="cp43029">
<path transform="matrix(1,0,0,-1,0,841.92)" d="M .000008871 0 L 595.32 0 L 595.32 841.92 L .000008871 841.92 Z " fill-rule="evenodd"/>
</clipPath>
<g clip-path="url(#cp43029)">
<text xml:space="preserve" transform="matrix(1 0 -0 1 0 841.92)" font-size="14.04" font-family="Times New Roman"><tspan y="-190.94" x="419.47 426.5321 432.76588 439.61738 443.5626 447.40956 453.6433 460.71946 464.66468 468.17469">deyiladi. </tspan></text>
</g>
</g>
<clipPath id="cp43030">
<path transform="matrix(1,0,0,-1,0,841.92)" d="M 0 .000061035 L 595.32 .000061035 L 595.32 841.92007 L 0 841.92007 Z " fill-rule="evenodd"/>
</clipPath>
<g clip-path="url(#cp43030)">
<clipPath id="cp43031">
<path transform="matrix(.9945871,0,0,-.97761949,475.76,656.95999)" d="M 0 0 L 53.539 0 L 53.539 21.481 L 0 21.481 Z " fill-rule="evenodd"/>
</clipPath>
<g clip-path="url(#cp43031)">
<text xml:space="preserve" transform="matrix(.9945871 0 -0 .97761949 475.76 656.95999)" font-size="14.129" font-family="Times New Roman,Italic" font-style="italic"><tspan y="-6.2962" x="47.237">)</tspan></text>
<text xml:space="preserve" transform="matrix(.9945871 0 -0 .97761949 475.76 656.95999)" font-size="14.129" font-family="Times New Roman,Italic" font-style="italic"><tspan y="-6.2962" x="28.628">x</tspan></text>
<text xml:space="preserve" transform="matrix(.9945871 0 -0 .97761949 475.76 656.95999)" font-size="14.129" font-family="Times New Roman,Italic" font-style="italic"><tspan y="-6.2962" x="24.148">,</tspan></text>
<text xml:space="preserve" transform="matrix(.9945871 0 -0 .97761949 475.76 656.95999)" font-size="14.129" font-family="Times New Roman,Italic" font-style="italic"><tspan y="-6.2962" x="8.64">x</tspan></text>
<text xml:space="preserve" transform="matrix(.9945871 0 -0 .97761949 475.76 656.95999)" font-size="14.129" font-family="Times New Roman,Italic" font-style="italic"><tspan y="-6.2962" x=".91077">(</tspan></text>
<text xml:space="preserve" transform="matrix(.9945871 0 -0 .97761949 475.76 656.95999)" font-size="7.0646" font-family="Times New Roman"><tspan y="-13.975" x="39.68">0</tspan></text>
<text xml:space="preserve" transform="matrix(.9945871 0 -0 .97761949 475.76 656.95999)" font-size="7.0646" font-family="Times New Roman"><tspan y="-2.7407" x="35.2">2</tspan></text>
<text xml:space="preserve" transform="matrix(.9945871 0 -0 .97761949 475.76 656.95999)" font-size="7.0646" font-family="Times New Roman"><tspan y="-13.975" x="18.363">0</tspan></text>
<text xml:space="preserve" transform="matrix(.9945871 0 -0 .97761949 475.76 656.95999)" font-size="7.0646" font-family="Times New Roman"><tspan y="-2.7407" x="14.425">1</tspan></text>
</g>
</g>
<g id="Layer-1" data-name="P">
<clipPath id="cp43032">
<path transform="matrix(1,0,0,-1,0,841.92)" d="M .000008871 0 L 595.32 0 L 595.32 841.92 L .000008871 841.92 Z " fill-rule="evenodd"/>
</clipPath>
<g clip-path="url(#cp43032)">
<text xml:space="preserve" transform="matrix(1 0 -0 1 0 841.92)" font-size="14.04" font-family="Times New Roman"><tspan y="-190.94" x="529.06 536.12216 543.086 550.04989 553.89688 560.0183">nuqta </tspan></text>
</g>
<clipPath id="cp43033">
<path transform="matrix(1,0,0,-1,0,841.92)" d="M .000008871 0 L 595.32 0 L 595.32 841.92 L .000008871 841.92 Z " fill-rule="evenodd"/>
</clipPath>
<g clip-path="url(#cp43033)">
<text xml:space="preserve" transform="matrix(1 0 -0 1 0 841.92)" font-size="14.04" font-family="Times New Roman"><tspan y="-164.18" x="85.104 92.166118 99.12995 103.075199 107.02044 117.70488 123.93864 127.88388 135.54972 142.38719 148.62096 154.85472 161.9309 166.0025 176.68695 184.35279 191.4149 197.64867 204.72484 212.39067 218.73676 225.57424 229.51947 233.4647 237.40995 243.53139 250.5935 254.53874 258.04875 265.6865 271.80793 278.87004 285.1038 289.7791 293.28913 300.94093 308.00303 315.66889 322.731 326.57795 331.25328 335.1985 342.16233 348.3961 355.35993 359.20689 366.26899 372.50276 379.5789 387.24476 399.72633 409.80705 422.2886 429.95448 436.9183 440.86354 447.82737 454.88948 462.68168 473.36613 480.5546 491.23905 498.30116 502.24638 509.30848 516.9743 523.9382 531.0003 535.5633 539.50857 546.4724 552.46749 559.43136">optimal yechim deb aytiladi, agar, u birinchidan MDM ning mumkin bo&#x2018;lgan </tspan></text>
</g>
<clipPath id="cp43034">
<path transform="matrix(1,0,0,-1,0,841.92)" d="M .000008871 0 L 595.32 0 L 595.32 841.92 L .000008871 841.92 Z " fill-rule="evenodd"/>
</clipPath>
<g clip-path="url(#cp43034)">
<text xml:space="preserve" transform="matrix(1 0 -0 1 0 841.92)" font-size="14.04" font-family="Times New Roman"><tspan y="-140.06" x="85.104 91.941478 98.17523 104.40899 111.485149 115.43039 126.11483 130.06006 135.56374 142.62586 149.68798 154.25098 158.19622 163.69989 169.93366 173.44365 178.91925 184.31061 188.25585 195.21968 202.18352 206.03047 213.09259 219.21404 226.27616 230.12311 237.18523 243.30667 250.36879 253.87879 259.3544 266.31825 273.38035 278.7717 285.8338 292.79765 299.76148 303.7067 309.94047 316.9043 323.13807 328.52943 339.32618 345.55995 352.63609 358.13975 364.26118 371.32328 376.82698 381.38996 388.45207">yechimi bo&#x2019;lsa,  ikkinchidan, bu nuqtada maqsad fun</tspan></text>
</g>
<clipPath id="cp43035">
<path transform="matrix(1,0,0,-1,0,841.92)" d="M .000008871 0 L 595.32 0 L 595.32 841.92 L .000008871 841.92 Z " fill-rule="evenodd"/>
</clipPath>
<g clip-path="url(#cp43035)">
<text xml:space="preserve" transform="matrix(1 0 -0 1 0 841.92)" font-size="14.04" font-family="Times New Roman"><tspan y="-140.06" x="395.83 402.8921 408.2975 412.2427 419.08018 425.31394 432.39009 438.62385 444.0152 450.97904 454.92427 461.8881 468.9502 475.07164 479.01686 484.52055 495.205 501.43876 508.5149 514.01858 517.9638 528.6482 535.8367 546.52108 553.5832 559.81698">ksiyaga global maksimumga </tspan></text>
</g>
<clipPath id="cp43036">
<path transform="matrix(1,0,0,-1,0,841.92)" d="M .000008871 0 L 595.32 0 L 595.32 841.92 L .000008871 841.92 Z " fill-rule="evenodd"/>
</clipPath>
<g clip-path="url(#cp43036)">
<text xml:space="preserve" transform="matrix(1 0 -0 1 0 841.92)" font-size="14.04" font-family="Times New Roman"><tspan y="-115.94" x="85.104 89.89164 100.57608 106.80984 113.885997 119.38968 123.33492 134.01937 141.08148 151.87825 157.85929 168.54373 174.7775 180.29523 186.52899 190.47423 196.708 202.11339 205.96035 211.82906 218.89118 225.12494 232.08878 239.05261 246.11473 250.79006 256.65879 263.49626 270.55836 277.62046 281.56568 287.30805 294.37016 298.2171 305.18095 312.24305 318.4768 322.42204 328.1644 338.84886 342.79408 349.85618 353.92778 364.6122 371.8007 382.48515 389.54725 395.781 401.64976 406.4374 417.12187 421.06709 428.12919 432.0744 442.75886 449.82096 460.6177 466.59877 477.2832 483.51698 489.03468 495.26844 499.21366 505.44743 510.96513 514.91036 520.6527 527.71487 533.8363 540.89846 547.8623 554.8262 559.38919 562.8992">(maksimum masalasi uchun) yoki global minimumga (minimum masalasi uchun)  </tspan></text>
</g>
</g>
</g>
</g>
</svg>
