<?xml version="1.0" encoding="UTF-8" standalone="no"?>
<!DOCTYPE svg PUBLIC "-//W3C//DTD SVG 1.1//EN" "http://www.w3.org/Graphics/SVG/1.1/DTD/svg11.dtd">
<svg xmlns="http://www.w3.org/2000/svg" xmlns:xlink="http://www.w3.org/1999/xlink" version="1.1" width="595.32pt" height="841.92pt" viewBox="0 0 595.32 841.92">
<g enable-background="new">
<g>
<g id="Layer-1" data-name="Artifact">
<clipPath id="cp47694">
<path transform="matrix(1,0,0,-1,0,841.92)" d="M .000008871 0 L 595.32 0 L 595.32 841.92 L .000008871 841.92 Z " fill-rule="evenodd"/>
</clipPath>
<g clip-path="url(#cp47694)">
<text xml:space="preserve" transform="matrix(1 0 -0 1 0 841.92)" font-size="11.04" font-family="Calibri"><tspan y="-51.864" x="314.09 319.72999 325.36997">291</tspan></text>
</g>
<clipPath id="cp47695">
<path transform="matrix(1,0,0,-1,0,841.92)" d="M .000008871 0 L 595.32 0 L 595.32 841.92 L .000008871 841.92 Z " fill-rule="evenodd"/>
</clipPath>
<g clip-path="url(#cp47695)">
<text xml:space="preserve" transform="matrix(1 0 -0 1 0 841.92)" font-size="11.04" font-family="Calibri"><tspan y="-51.864" x="331.03"> </tspan></text>
</g>
<clipPath id="cp47696">
<path transform="matrix(1,0,0,-1,0,841.92)" d="M .000008871 0 L 595.32 0 L 595.32 841.92 L .000008871 841.92 Z " fill-rule="evenodd"/>
</clipPath>
<g clip-path="url(#cp47696)">
</g>
<clipPath id="cp47697">
<path transform="matrix(1,0,0,-1,0,841.92)" d="M .000008871 0 L 595.32 0 L 595.32 841.92 L .000008871 841.92 Z " fill-rule="evenodd"/>
</clipPath>
<g clip-path="url(#cp47697)">
<text xml:space="preserve" transform="matrix(1 0 -0 1 0 841.92)" font-size="11.04" font-family="Calibri"><tspan y="-38.4" x="85.104"> </tspan></text>
</g>
<clipPath id="cp47698">
<path transform="matrix(1,0,0,-1,0,841.92)" d="M .000008871 0 L 595.32 0 L 595.32 841.92 L .000008871 841.92 Z " fill-rule="evenodd"/>
</clipPath>
<g clip-path="url(#cp47698)">
</g>
</g>
<g id="Layer-1" data-name="P">
<clipPath id="cp47699">
<path transform="matrix(1,0,0,-1,0,841.92)" d="M .000008871 0 L 595.32 0 L 595.32 841.92 L .000008871 841.92 Z " fill-rule="evenodd"/>
</clipPath>
<g clip-path="url(#cp47699)">
<text xml:space="preserve" transform="matrix(1 0 -0 1 0 841.92)" font-size="14.04" font-family="Times New Roman"><tspan y="-772.56" x="85.104"> </tspan></text>
</g>
<clipPath id="cp47700">
<path transform="matrix(1,0,0,-1,0,841.92)" d="M .000008871 0 L 595.32 0 L 595.32 841.92 L .000008871 841.92 Z " fill-rule="evenodd"/>
</clipPath>
<g clip-path="url(#cp47700)">
<text xml:space="preserve" transform="matrix(1 0 -0 1 0 841.92)" font-size="14.04" font-family="Times New Roman"><tspan y="-772.56" x="120.5 129.86469 136.9268 142.3322 149.29604 153.24127 159.36272 166.42484 173.48696 178.04996 181.9952 188.11664 195.17876 198.68875 202.59188 208.82564 215.70525 221.93901 229.01519 235.13663 242.10047 245.61046 252.63047 256.60377 262.7252 269.68904 276.75114 280.69636 284.0519 287.99714 294.96098 301.9248 305.87004 311.27543 318.33753 321.84754 328.7833 335.8454 342.68287 346.62809 353.6902 359.8116 366.87373 370.81895 374.32896 380.4223 384.26927 391.33137 398.39347 402.95646 406.8034 410.74864 421.43309 424.94309 431.96308 439.05326 443.72859 450.58009 454.5253 460.75907 467.8352 474.06898 477.57899 484.59898 490.8608 494.70777 500.94154 505.61686 509.4638 513.40908 519.5305 526.59268 530.43966">Boshlang&#x2018;ich tayanch planni topish quyidagi algoritm bo&#x2018;yicha bajariladi:</tspan></text>
</g>
<clipPath id="cp47701">
<path transform="matrix(1,0,0,-1,0,841.92)" d="M .000008871 0 L 595.32 0 L 595.32 841.92 L .000008871 841.92 Z " fill-rule="evenodd"/>
</clipPath>
<g clip-path="url(#cp47701)">
<text xml:space="preserve" transform="matrix(1 0 -0 1 0 841.92)" font-size="14.04" font-family="Times New Roman"><tspan y="-772.56" x="534.7"> </tspan></text>
</g>
</g>
<g id="Layer-1" data-name="P">
<clipPath id="cp47702">
<path transform="matrix(1,0,0,-1,0,841.92)" d="M .000008871 0 L 595.32 0 L 595.32 841.92 L .000008871 841.92 Z " fill-rule="evenodd"/>
</clipPath>
<g clip-path="url(#cp47702)">
<text xml:space="preserve" transform="matrix(1 0 -0 1 0 841.92)" font-size="14.04" font-family="Times New Roman"><tspan y="-748.3" x="85.104"> </tspan></text>
</g>
<clipPath id="cp47703">
<path transform="matrix(1,0,0,-1,0,841.92)" d="M .000008871 0 L 595.32 0 L 595.32 841.92 L .000008871 841.92 Z " fill-rule="evenodd"/>
</clipPath>
<g clip-path="url(#cp47703)">
<text xml:space="preserve" transform="matrix(1 0 -0 1 0 841.92)" font-size="14.04" font-family="Times New Roman"><tspan y="-748.3" x="120.5 127.56212 131.07212 138.87836 142.78148 153.47997 160.54209 164.48732 170.60877 177.67089 183.17456 186.68456 190.4894 196.72316 203.687 210.74912 216.87056 220.71752 227.77964 234.0134 240.97724 244.48723 251.50724 257.741 261.72834 265.0839 272.146 275.99296 279.8399 286.902 293.9641 300.08555 307.04939 310.9946 314.5046 320.73838 324.55726 330.79103 341.47547 347.70924 354.78538 358.7306 365.7927 369.7379 373.09349 377.0387 384.00254 390.96638 394.9116 400.317 407.3791">1.Simpleks jadvaldan hal qiluvchi elementni topish:</tspan></text>
</g>
<clipPath id="cp47704">
<path transform="matrix(1,0,0,-1,0,841.92)" d="M .000008871 0 L 595.32 0 L 595.32 841.92 L .000008871 841.92 Z " fill-rule="evenodd"/>
</clipPath>
<g clip-path="url(#cp47704)">
<text xml:space="preserve" transform="matrix(1 0 -0 1 0 841.92)" font-size="14.04" font-family="Times New Roman"><tspan y="-748.3" x="411.55"> </tspan></text>
</g>
</g>
<g id="Layer-1" data-name="P">
<clipPath id="cp47705">
<path transform="matrix(1,0,0,-1,0,841.92)" d="M .000008871 0 L 595.32 0 L 595.32 841.92 L .000008871 841.92 Z " fill-rule="evenodd"/>
</clipPath>
<g clip-path="url(#cp47705)">
<text xml:space="preserve" transform="matrix(1 0 -0 1 0 841.92)" font-size="14.04" font-family="Times New Roman"><tspan y="-724.18" x="85.104"> </tspan></text>
</g>
<clipPath id="cp47706">
<path transform="matrix(1,0,0,-1,0,841.92)" d="M .000008871 0 L 595.32 0 L 595.32 841.92 L .000008871 841.92 Z " fill-rule="evenodd"/>
</clipPath>
<g clip-path="url(#cp47706)">
<text xml:space="preserve" transform="matrix(1 0 -0 1 0 841.92)" font-size="14.04" font-family="Times New Roman"><tspan y="-724.18" x="120.5 127.56212 131.07212 138.09212 141.60211 151.68283 157.80428 161.74951 171.21247 178.1763 182.02326 185.96849 192.93233 199.99445 206.11589 213.17801 217.02497 226.48792 232.60936 236.5546 242.67604 253.47281 259.70658 266.7827 270.72795 277.69178 281.637 290.98765 294.8346 301.8967 308.86054 312.80577 318.21116 325.27326 334.6239 341.58775 345.53297 352.4968 356.44203 363.40586 372.86885 379.93095 386.05238 389.9976 399.34825 406.41035 410.2573 414.10426 421.16636 428.22846 434.34989 441.31373 445.25895 454.6096 461.6717 467.0771 471.0223 477.98616 484.94999 492.0121 495.85905 505.32203 509.16899 516.2311 523.19497 527.04196 532.5456 539.50949 546.5716 552.56668 559.5305">1.1.Hal qiluvchi elementni topish oldin hal qiluvchi ustunni topishdan </tspan></text>
</g>
<clipPath id="cp47707">
<path transform="matrix(1,0,0,-1,0,841.92)" d="M .000008871 0 L 595.32 0 L 595.32 841.92 L .000008871 841.92 Z " fill-rule="evenodd"/>
</clipPath>
<g clip-path="url(#cp47707)">
<text xml:space="preserve" transform="matrix(1 0 -0 1 0 841.92)" font-size="14.04" font-family="Times New Roman"><tspan y="-700.06" x="85.104 92.166118 99.12995 104.535358 111.59747 115.54272 121.664157 128.72628 134.84772 141.90984 145.85507 149.36507 158.9263 168.16463 175.22675 182.19058 186.03754 193.09966 200.06349 209.6528 216.71492 222.94869 229.91252 236.97464 244.03676 253.49971 260.56184 266.7956 273.75944 280.82154 290.41087 297.3747 303.60847 310.5723 314.51753 320.63896 325.31428 334.9036 341.9657 347.3711 351.3163 358.28016 365.34226 369.1892 376.2513 382.48509">boshlanadi. Buning uchun ozod hadlar ustuniga </tspan></text>
</g>
<clipPath id="cp47708">
<path transform="matrix(1,0,0,-1,0,841.92)" d="M .000008871 0 L 595.32 0 L 595.32 841.92 L .000008871 841.92 Z " fill-rule="evenodd"/>
</clipPath>
<g clip-path="url(#cp47708)">
<text xml:space="preserve" transform="matrix(1 0 -0 1 0 841.92)" font-size="14.04" font-family="Times New Roman"><tspan y="-700.06" x="392.47 399.43385 405.6676 410.34294 416.47843 420.42366 426.54508 433.60719 437.5524 440.90797 450.49729 460.578 467.6401 473.87388 478.5492 488.15257 495.21467 501.44844 508.41227 515.47439 525.0637 532.12588 538.2473 545.2112 549.15646 555.2779 559.8409">qaraladi. Agar ozod xadlar </tspan></text>
</g>
<clipPath id="cp47709">
<path transform="matrix(1,0,0,-1,0,841.92)" d="M .000008871 0 L 595.32 0 L 595.32 841.92 L .000008871 841.92 Z " fill-rule="evenodd"/>
</clipPath>
<g clip-path="url(#cp47709)">
<text xml:space="preserve" transform="matrix(1 0 -0 1 0 841.92)" font-size="14.04" font-family="Times New Roman"><tspan y="-675.94" x="85.104 92.166118 97.57152 101.41848 108.4806 115.444438 119.38968 126.353519 132.58728 139.55112 143.49636 149.12639 155.24784 159.19307 165.42684 176.11128 182.34505 189.42122 193.36646 197.31169 203.43314 208.10846 213.7385 220.80062 227.03438 237.84519 248.52964 254.7634 260.2811 264.22633 269.9687 280.65315 287.71525 293.2189 300.281 306.40245 310.34767 315.85136 322.8152 329.8773 334.44029 338.3855 343.88917 350.12294 353.63294 359.10856 366.17066 373.23277 378.73646 385.7003 392.7624 398.1678 405.13163 409.07685 415.3106 422.27445 429.33656 433.89955 437.84477 443.9662 451.0283 456.65834 463.62217 467.56739 473.6888 480.75093 486.38096 490.2279 496.46168 503.31318 509.54695 516.6231 522.8569 529.93307 535.4367 542.49887 546.3458 552.4673 559.43118">ustunidagi elementlar hammasi musbat bo&#x2018;lsa, bu boshlang&#x2018;ich plan tayanch plan </tspan></text>
</g>
<clipPath id="cp47710">
<path transform="matrix(1,0,0,-1,0,841.92)" d="M .000008871 0 L 595.32 0 L 595.32 841.92 L .000008871 841.92 Z " fill-rule="evenodd"/>
</clipPath>
<g clip-path="url(#cp47710)">
<text xml:space="preserve" transform="matrix(1 0 -0 1 0 841.92)" font-size="14.04" font-family="Times New Roman"><tspan y="-651.7" x="85.104 92.166118 99.22823 103.79124 107.73648 113.85792 120.821758 124.767 130.98671 137.95055 144.18431 150.2917 154.23694 161.20078 168.2629 172.10985 179.17197 185.29341 192.25725 196.20249 202.30988 208.54364 212.48888 218.61032 225.67244 232.63628 238.87004 244.97743 252.03955 256.60255 260.54777 264.49299 268.33995 274.5737 281.53755 285.48277 288.99278 295.18443 305.26515 312.22898 318.46275 323.02574 329.24546 339.9299 346.16368 353.2398 357.91514 361.86036 368.6978 374.91755 381.1513 385.09654 391.44264 402.12709 408.36085 415.43699 419.3822 425.60194 436.28639 442.52015 449.59629 453.44325 460.40708 467.46919 473.5766 480.6387 487.7008 492.2638 496.11076 501.6144 507.84819 511.3582 517.4375 524.49966 528.4449 534.67868 539.24166 546.3038 552.42526 559.3891">bo&#x2018;ladi va ikkinchi etapga o&#x2018;tiladi. Agar manfiy element mavjud bo&#x2018;lsa, ulardan </tspan></text>
</g>
<clipPath id="cp47711">
<path transform="matrix(1,0,0,-1,0,841.92)" d="M .000008871 0 L 595.32 0 L 595.32 841.92 L .000008871 841.92 Z " fill-rule="evenodd"/>
</clipPath>
<g clip-path="url(#cp47711)">
<text xml:space="preserve" transform="matrix(1 0 -0 1 0 841.92)" font-size="14.04" font-family="Times New Roman"><tspan y="-627.58" x="85.104 95.78844 102.850559 109.912677 116.97479 120.92004 126.42372 133.48584 140.54796 145.11096 151.94844 155.89368 162.12744 169.20362 175.43738 181.06742 187.18886 194.1527 201.21482 206.71849 213.78061 220.01438 223.86133 227.80657 233.92801 239.43169 243.27864 248.90868 252.75563 258.98939 265.95323 269.89845 276.01988 283.08198 289.2034 296.2655 300.21073 305.71443 310.38975 316.6235 323.60139 329.83515 334.51048 340.1405 347.10435 351.04957 354.8965 358.84175 364.96318 370.5932 377.55705 384.61915 389.18214 393.12736 398.631 404.75245 410.38249 415.78788 422.7517 429.8138 435.44386 441.56529 445.41224 451.75834 462.44279 468.67655 475.7527 479.6979 485.2016 492.2637">modul bo&#x2018;yicha eng kattasi tanlanadi (agar bitta bo&#x2018;lsa shu element o&#x2018;</tspan></text>
</g>
<clipPath id="cp47712">
<path transform="matrix(1,0,0,-1,0,841.92)" d="M .000008871 0 L 595.32 0 L 595.32 841.92 L .000008871 841.92 Z " fill-rule="evenodd"/>
</clipPath>
<g clip-path="url(#cp47712)">
<text xml:space="preserve" transform="matrix(1 0 -0 1 0 841.92)" font-size="14.04" font-family="Times New Roman"><tspan y="-627.58" x="497.38 503.61378 507.559 513.0627 520.1248 523.9718 527.8188 534.8809 541.1147 548.07858 552.0238 556.5868 559.9424">zi olinadi). </tspan></text>
</g>
<clipPath id="cp47713">
<path transform="matrix(1,0,0,-1,0,841.92)" d="M .000008871 0 L 595.32 0 L 595.32 841.92 L .000008871 841.92 Z " fill-rule="evenodd"/>
</clipPath>
<g clip-path="url(#cp47713)">
<text xml:space="preserve" transform="matrix(1 0 -0 1 0 841.92)" font-size="14.04" font-family="Times New Roman"><tspan y="-603.46" x="85.104 97.585559 101.5308 106.9362 113.90004 117.84528 121.79053 128.85265 134.97409 142.03621 149.00005 156.06217 160.13376 166.36753 173.21904 177.16428 183.39804 190.24956 194.1948 198.14003 205.10387 209.17546 216.1393 223.20142 227.27301 233.39446 237.33969 243.57346 254.2579 260.49168 267.5678 271.51304">Misol uchun aytaylik bu element </tspan></text>
</g>
<clipPath id="cp47714">
<path transform="matrix(1,0,0,-1,0,841.92)" d="M .000008871 0 L 595.32 0 L 595.32 841.92 L .000008871 841.92 Z " fill-rule="evenodd"/>
</clipPath>
<g clip-path="url(#cp47714)">
<text xml:space="preserve" transform="matrix(1 0 -0 1 0 841.92)" font-size="14.04" font-family="Times New Roman,Italic" font-style="italic"><tspan y="-603.46" x="275.69">b</tspan></text>
</g>
<clipPath id="cp47715">
<path transform="matrix(1,0,0,-1,0,841.92)" d="M .000008871 0 L 595.32 0 L 595.32 841.92 L .000008871 841.92 Z " fill-rule="evenodd"/>
</clipPath>
<g clip-path="url(#cp47715)">
<text xml:space="preserve" transform="matrix(1 0 -0 1 0 841.92)" font-size="9" font-family="Times New Roman,Italic" font-style="italic"><tspan y="-601.9" x="282.77 286.25">r0</tspan></text>
</g>
<clipPath id="cp47716">
<path transform="matrix(1,0,0,-1,0,841.92)" d="M .000008871 0 L 595.32 0 L 595.32 841.92 L .000008871 841.92 Z " fill-rule="evenodd"/>
</clipPath>
<g clip-path="url(#cp47716)">
<text xml:space="preserve" transform="matrix(1 0 -0 1 0 841.92)" font-size="9" font-family="Times New Roman"><tspan y="-601.9" x="290.69 293.57">  </tspan></text>
</g>
<clipPath id="cp47717">
<path transform="matrix(1,0,0,-1,0,841.92)" d="M .000008871 0 L 595.32 0 L 595.32 841.92 L .000008871 841.92 Z " fill-rule="evenodd"/>
</clipPath>
<g clip-path="url(#cp47717)">
<text xml:space="preserve" transform="matrix(1 0 -0 1 0 841.92)" font-size="14.04" font-family="Times New Roman"><tspan y="-603.46" x="296.33 303.29383 310.35594 314.9189 318.86415 324.26954 328.21476 335.27687 338.78688 342.81636 350.49623 357.46006 364.52217">bo&#x2018;lsin. Shu </tspan></text>
</g>
<clipPath id="cp47718">
<path transform="matrix(1,0,0,-1,0,841.92)" d="M .000008871 0 L 595.32 0 L 595.32 841.92 L .000008871 841.92 Z " fill-rule="evenodd"/>
</clipPath>
<g clip-path="url(#cp47718)">
<text xml:space="preserve" transform="matrix(1 0 -0 1 0 841.92)" font-size="14.04" font-family="Times New Roman,Italic" font-style="italic"><tspan y="-603.46" x="368.59">b</tspan></text>
</g>
<clipPath id="cp47719">
<path transform="matrix(1,0,0,-1,0,841.92)" d="M .000008871 0 L 595.32 0 L 595.32 841.92 L .000008871 841.92 Z " fill-rule="evenodd"/>
</clipPath>
<g clip-path="url(#cp47719)">
<text xml:space="preserve" transform="matrix(1 0 -0 1 0 841.92)" font-size="9" font-family="Times New Roman,Italic" font-style="italic"><tspan y="-601.9" x="375.67 379.15003">r0</tspan></text>
</g>
<clipPath id="cp47720">
<path transform="matrix(1,0,0,-1,0,841.92)" d="M .000008871 0 L 595.32 0 L 595.32 841.92 L .000008871 841.92 Z " fill-rule="evenodd"/>
</clipPath>
<g clip-path="url(#cp47720)">
<text xml:space="preserve" transform="matrix(1 0 -0 1 0 841.92)" font-size="9" font-family="Times New Roman"><tspan y="-601.9" x="383.59"> </tspan></text>
</g>
<clipPath id="cp47721">
<path transform="matrix(1,0,0,-1,0,841.92)" d="M .000008871 0 L 595.32 0 L 595.32 841.92 L .000008871 841.92 Z " fill-rule="evenodd"/>
</clipPath>
<g clip-path="url(#cp47721)">
<text xml:space="preserve" transform="matrix(1 0 -0 1 0 841.92)" font-size="14.04" font-family="Times New Roman"><tspan y="-603.46" x="386.47"> </tspan></text>
</g>
<clipPath id="cp47722">
<path transform="matrix(1,0,0,-1,0,841.92)" d="M .000008871 0 L 595.32 0 L 595.32 841.92 L .000008871 841.92 Z " fill-rule="evenodd"/>
</clipPath>
<g clip-path="url(#cp47722)">
<text xml:space="preserve" transform="matrix(1 0 -0 1 0 841.92)" font-size="14.04" font-family="Times New Roman"><tspan y="-603.46" x="390.55 396.67143 400.61665 406.8504 417.53486 423.76863 430.84477 434.78999 438.73524 442.58219 449.6443 454.3196 461.28346 467.5172 474.48106 478.55268 483.228 487.17326 492.6769 498.79835 502.74357 507.41889 511.36415 518.4263 524.66006 529.3353 535.4708 539.4161 545.53756 552.5997 556.44668 559.80227">element turgan r satr qaraladi. </tspan></text>
</g>
<clipPath id="cp47723">
<path transform="matrix(1,0,0,-1,0,841.92)" d="M .000008871 0 L 595.32 0 L 595.32 841.92 L .000008871 841.92 Z " fill-rule="evenodd"/>
</clipPath>
<g clip-path="url(#cp47723)">
<text xml:space="preserve" transform="matrix(1 0 -0 1 0 841.92)" font-size="14.04" font-family="Times New Roman"><tspan y="-579.34" x="85.104 95.184719 102.24683 108.48059 113.155918 121.07448 126.57816 132.6996 136.64484 141.32016 149.22467 155.45844 159.40367 165.63744 176.32189 182.55565 189.63182 193.57706 197.42401 203.54546 208.22078 212.16602 219.12985 225.36362 232.43979 240.3443 247.30814 253.5419 264.3527 275.14945 281.3832 286.9009 290.84614 298.877 309.56147 316.62358 322.12724 329.18934 335.4231 339.36833 347.27287 354.2367 361.2988 365.8618 369.807 375.2124 381.44618 384.95619 392.95899 403.64344 409.8772 415.3949 421.62867 425.57389 431.6953 438.75743 442.60438 449.66648 456.72859 464.63313 471.47059 477.70436 483.9381 491.01426 494.95948 505.64393 509.58915 517.62 528.3044 534.53817 541.6143 545.4613 552.52346 559.4873">Agar satr elementlaridan hammasi musbat bo&#x2018;lsa, masalaning yechimi mavjud </tspan></text>
</g>
<clipPath id="cp47724">
<path transform="matrix(1,0,0,-1,0,841.92)" d="M .000008871 0 L 595.32 0 L 595.32 841.92 L .000008871 841.92 Z " fill-rule="evenodd"/>
</clipPath>
<g clip-path="url(#cp47724)">
<text xml:space="preserve" transform="matrix(1 0 -0 1 0 841.92)" font-size="14.04" font-family="Times New Roman"><tspan y="-555.07" x="85.104 92.166118 99.22823 103.79124 107.73648 118.42092 124.767 131.60448 138.6666 142.61183 151.35875 156.03408 162.99791 170.06003 178.68059 185.7427 192.70655 196.5535 203.51734 209.7511 218.49802 225.46186 229.40709 234.81249 241.8746 248.83844 252.78368 258.9051 264.3105 271.3726 275.3178 281.55158 286.11457 294.86149 300.26689 307.32899 314.29283 322.9134 326.76036 333.82246 340.6599 347.72203 353.95579 362.7027 366.64793 373.71003 378.273 385.23686 389.18208 395.41584 399.2628 403.208 407.05497 413.28874 420.25257 424.19779 428.8731 432.38313 440.98966 451.07038 458.13249 464.36625 469.04158 477.80253 483.20793 489.44169 493.3869 497.9499 505.012 511.24577 519.9927 530.67709 536.9108 543.987 548.6623 552.60757 559.44509">bo&#x2018;lmaydi (bu holda hisoblashlar shu joyda to&#x2018;xtatiladi). Agar satrda manfiy </tspan></text>
</g>
<clipPath id="cp47725">
<path transform="matrix(1,0,0,-1,0,841.92)" d="M .000008871 0 L 595.32 0 L 595.32 841.92 L .000008871 841.92 Z " fill-rule="evenodd"/>
</clipPath>
<g clip-path="url(#cp47725)">
<text xml:space="preserve" transform="matrix(1 0 -0 1 0 841.92)" font-size="14.04" font-family="Times New Roman"><tspan y="-530.95" x="85.104 91.33775 95.283 101.516757 112.201198 118.43495 125.51111 129.45635 135.67606 146.3605 152.59427 159.67044 163.5174 170.57952 177.64163 183.86135 190.82518 197.8873 202.4503 206.29726 211.80094 218.0347 221.5447 227.75037 234.7142 238.65944 244.8932 249.4562 256.5183 262.63975 269.70185 275.92158 286.60603 293.66813 300.73023 307.69407 311.63929 317.859 324.82286 331.88496 336.56028 343.41178 347.357 353.59077 360.6669 366.90068 373.13444 379.25587 386.2197 393.2818 399.50154 406.56364 412.68507 416.532 420.47724 426.711 432.1164 436.0616 442.16905 446.016 452.24977 459.3259 463.17286 469.40663 476.37046 482.60423 489.56806 493.51329 499.733 504.40834 510.52976 517.59188">element mavjud bo&#x2018;lsa, ulardan modul bo&#x2018;yicha eng kattasi tanlanadi (aga</tspan></text>
</g>
<clipPath id="cp47726">
<path transform="matrix(1,0,0,-1,0,841.92)" d="M .000008871 0 L 595.32 0 L 595.32 841.92 L .000008871 841.92 Z " fill-rule="evenodd"/>
</clipPath>
<g clip-path="url(#cp47726)">
<text xml:space="preserve" transform="matrix(1 0 -0 1 0 841.92)" font-size="14.04" font-family="Times New Roman"><tspan y="-530.95" x="524.38 529.0553 535.1627 542.22488 546.07186 549.9188 553.8641 559.98556">r bitta </tspan></text>
</g>
<clipPath id="cp47727">
<path transform="matrix(1,0,0,-1,0,841.92)" d="M .000008871 0 L 595.32 0 L 595.32 841.92 L .000008871 841.92 Z " fill-rule="evenodd"/>
</clipPath>
<g clip-path="url(#cp47727)">
<text xml:space="preserve" transform="matrix(1 0 -0 1 0 841.92)" font-size="14.04" font-family="Times New Roman"><tspan y="-506.83" x="85.104 92.166118 99.22823 103.79124 107.6382 113.141887 119.37564 125.24436 132.30648 136.86948 143.10324 147.04848 152.79084 159.85295 163.6999 167.64514 174.60898 180.84275 187.80658 191.75182 196.42714 199.93714 205.77777 213.58402 220.64614 227.70825 233.57697 239.69841 243.64365 249.87741 260.56187 266.79563 273.87178 277.817 283.68574 287.53269 294.5948 299.15779 306.21989 312.45365 319.5298 325.27217 332.33427 337.73966 341.5866 348.6487 355.71083 361.4532 368.5153 374.74906 378.69429 384.43666 391.49876 395.3457 399.19267 406.25477 413.31687 419.4383 426.40214 430.34736 436.2161 443.17994 448.6836 452.53056 459.4944 466.5565 472.42524 479.48735 485.7211 492.5726 496.51783 500.46305 506.58448 513.6466 517.59188 521.10189 526.9425 539.2977 543.243 548.6484 555.4859 559.3329">bo&#x2018;lsa o&#x2018;zi olinadi). Shu element turgan ustun hal qiluvchi ustun deyiladi. Misol </tspan></text>
</g>
<clipPath id="cp47728">
<path transform="matrix(1,0,0,-1,0,841.92)" d="M .000008871 0 L 595.32 0 L 595.32 841.92 L .000008871 841.92 Z " fill-rule="evenodd"/>
</clipPath>
<g clip-path="url(#cp47728)">
<text xml:space="preserve" transform="matrix(1 0 -0 1 0 841.92)" font-size="14.04" font-family="Times New Roman"><tspan y="-482.71" x="85.104 92.166118 98.28755 105.34967 112.31351 119.375629 122.88563 126.33947 133.3033 140.36542 143.87541">uchun  bu s</tspan></text>
</g>
<clipPath id="cp47729">
<path transform="matrix(1,0,0,-1,0,841.92)" d="M .000008871 0 L 595.32 0 L 595.32 841.92 L .000008871 841.92 Z " fill-rule="evenodd"/>
</clipPath>
<g clip-path="url(#cp47729)">
<text xml:space="preserve" transform="matrix(1 0 -0 1 0 841.92)" font-size="14.04" font-family="Times New Roman"><tspan y="-482.71" x="149.42">-</tspan></text>
</g>
<clipPath id="cp47730">
<path transform="matrix(1,0,0,-1,0,841.92)" d="M .000008871 0 L 595.32 0 L 595.32 841.92 L .000008871 841.92 Z " fill-rule="evenodd"/>
</clipPath>
<g clip-path="url(#cp47730)">
<text xml:space="preserve" transform="matrix(1 0 -0 1 0 841.92)" font-size="14.04" font-family="Times New Roman"><tspan y="-482.71" x="153.98 160.21376 167.1776 171.12284 174.63283 181.56859 186.97399 190.91922 197.88306 204.8469 208.35689 215.37689 222.4671 227.0301 230.97534 236.38074 240.22769 247.28981">chi ustun bo&#x2018;lsin.</tspan></text>
</g>
<clipPath id="cp47731">
<path transform="matrix(1,0,0,-1,0,841.92)" d="M .000008871 0 L 595.32 0 L 595.32 841.92 L .000008871 841.92 Z " fill-rule="evenodd"/>
</clipPath>
<g clip-path="url(#cp47731)">
<text xml:space="preserve" transform="matrix(1 0 -0 1 0 841.92)" font-size="14.04" font-family="Times New Roman"><tspan y="-482.71" x="250.73"> </tspan></text>
</g>
</g>
<g id="Layer-1" data-name="P">
<clipPath id="cp47732">
<path transform="matrix(1,0,0,-1,0,841.92)" d="M .000008871 0 L 595.32 0 L 595.32 841.92 L .000008871 841.92 Z " fill-rule="evenodd"/>
</clipPath>
<g clip-path="url(#cp47732)">
<text xml:space="preserve" transform="matrix(1 0 -0 1 0 841.92)" font-size="14.04" font-family="Times New Roman"><tspan y="-458.47" x="85.104"> </tspan></text>
</g>
<clipPath id="cp47733">
<path transform="matrix(1,0,0,-1,0,841.92)" d="M .000008871 0 L 595.32 0 L 595.32 841.92 L .000008871 841.92 Z " fill-rule="evenodd"/>
</clipPath>
<g clip-path="url(#cp47733)">
<text xml:space="preserve" transform="matrix(1 0 -0 1 0 841.92)" font-size="14.04" font-family="Times New Roman"><tspan y="-458.47" x="120.5 127.56212 131.07212 138.09212 141.60211 151.68283 157.80428 161.74951 166.1721 173.13594 177.08118 180.92813 187.99025 194.95409 201.18785 208.15169 212.09693 216.51952 222.0232 228.14464 232.08988 236.7652 241.07547 245.0207 251.98455 259.04667 262.89363 266.83885 272.96028 279.9241 283.86933 287.37934 291.77388 301.85459 308.08836 315.1645 322.2266 326.5369 333.599 339.72044 346.78254 350.72776 356.84919 361.41218 368.47428 372.4195 376.7298 383.7919 390.02568 393.9709 398.2812 405.3433 409.19026 413.0372 420.0993 427.06315 433.2969 440.26075 444.20597 448.62858 455.5924 461.09608 464.94303 471.90687 478.96897 483.27928 489.51304 493.45826 499.69203 510.37648 516.6102 523.6864 527.63168 531.47866 537.7124 542.3877 546.2347 553.2968 559.4183">1.2.Hal qiluvchi satr topiladi. Ozod xadlarni hal qiluvchi ustun elementlariga </tspan></text>
</g>
<clipPath id="cp47734">
<path transform="matrix(1,0,0,-1,0,841.92)" d="M .000008871 0 L 595.32 0 L 595.32 841.92 L .000008871 841.92 Z " fill-rule="evenodd"/>
</clipPath>
<g clip-path="url(#cp47734)">
<text xml:space="preserve" transform="matrix(1 0 -0 1 0 841.92)" font-size="14.04" font-family="Times New Roman"><tspan y="-434.35" x="85.104 92.166118 99.22823 103.79124 107.6382 111.58344 118.64556 122.15556 128.24893 135.21277 139.158 146.12184 150.06708 153.91403 160.1478 167.11164 171.05687 174.56687 181.50263 187.73639 191.24639 198.18215 202.0291 208.26287 212.93819 220.01436 226.1358 233.19792 236.70792 247.36429 254.4264 259.93009 266.9922 273.11363 277.05885 281.00407 287.1255 291.8008 295.64778 302.70988 306.55683 313.52067 320.58277 323.93833 330.1721 337.13594 344.19804 347.70805 354.6438 358.58903 364.82279 371.78663 375.63359 382.69569 386.6409">bo&#x2018;lib chiqiladi va ulardan musbatlarining eng kichigi </tspan></text>
</g>
<clipPath id="cp47735">
<path transform="matrix(1,0,0,-1,0,841.92)" d="M .000008871 0 L 595.32 0 L 595.32 841.92 L .000008871 841.92 Z " fill-rule="evenodd"/>
</clipPath>
<g clip-path="url(#cp47735)">
<text xml:space="preserve" transform="matrix(1 0 -0 1 0 841.92)" font-size="14.04" font-family="Times New Roman"><tspan y="-434.35" x="390.31 394.25523 400.37666 407.43876 411.38398 417.5054 424.5675 430.68894 437.65278 441.598 445.108 448.56187 452.14207 458.97953 465.2133 467.74049 474.80259 478.7478">tanlanadi,  ya'ni </tspan></text>
</g>
<clipPath id="cp47736">
<path transform="matrix(1,0,0,-1,0,841.92)" d="M .000008871 0 L 595.32 0 L 595.32 841.92 L .000008871 841.92 Z " fill-rule="evenodd"/>
</clipPath>
<g clip-path="url(#cp47736)">
<text xml:space="preserve" transform="matrix(1 0 -0 1 0 841.92)" font-size="14.04" font-family="Times New Roman"><tspan y="-434.35" x="482.26"> </tspan></text>
</g>
</g>
<g id="Layer-1" data-name="P">
<clipPath id="cp47737">
<path transform="matrix(1,0,0,-1,0,841.92)" d="M .000008871 0 L 595.32 0 L 595.32 841.92 L .000008871 841.92 Z " fill-rule="evenodd"/>
</clipPath>
<g clip-path="url(#cp47737)">
<text xml:space="preserve" transform="matrix(1 0 -0 1 0 841.92)" font-size="14.04" font-family="Times New Roman"><tspan y="-392.45" x="85.104"> </tspan></text>
</g>
<clipPath id="cp47738">
<path transform="matrix(1,0,0,-1,0,841.92)" d="M .000008871 0 L 595.32 0 L 595.32 841.92 L .000008871 841.92 Z " fill-rule="evenodd"/>
</clipPath>
<g clip-path="url(#cp47738)">
<text xml:space="preserve" transform="matrix(1 0 -0 1 0 841.92)" font-size="14.04" font-family="Times New Roman"><tspan y="-392.45" x="120.5"> </tspan></text>
</g>
</g>
<g id="Layer-1" data-name="P">
<clipPath id="cp47739">
<path transform="matrix(1,0,0,-1,0,841.92)" d="M 0 .000061035 L 595.32 .000061035 L 595.32 841.92007 L 0 841.92007 Z " fill-rule="evenodd"/>
</clipPath>
<g clip-path="url(#cp47739)">
<clipPath id="cp47740">
<path transform="matrix(1.2024331,0,0,-1.2039034,155.96,465.40998)" d="M 0 0 L 162.76 0 L 162.76 38.666 L 0 38.666 Z " fill-rule="evenodd"/>
</clipPath>
<g clip-path="url(#cp47740)">
<path transform="matrix(1.2024331,0,0,-1.2039034,155.96,465.40998)" stroke-width=".49231" stroke-linecap="butt" stroke-linejoin="round" fill="none" stroke="#000000" d="M 32.419 19.358 L 46.769 19.358 "/>
<path transform="matrix(1.2024331,0,0,-1.2039034,155.96,465.40998)" stroke-width=".49231" stroke-linecap="butt" stroke-linejoin="round" fill="none" stroke="#000000" d="M 53.662 19.358 L 68.874 19.358 "/>
<path transform="matrix(1.2024331,0,0,-1.2039034,155.96,465.40998)" stroke-width=".49231" stroke-linecap="butt" stroke-linejoin="round" fill="none" stroke="#000000" d="M 95.557 19.358 L 110.77 19.358 "/>
<path transform="matrix(1.2024331,0,0,-1.2039034,155.96,465.40998)" stroke-width=".49231" stroke-linecap="butt" stroke-linejoin="round" fill="none" stroke="#000000" d="M 137.45 19.358 L 154.61 19.358 "/>
<text xml:space="preserve" transform="matrix(1.2024331 0 -0 1.2039034 155.96 465.40998)" font-size="12.16" font-family="Symbol"><tspan y="-3.6296" x="155.35">&#xf0fe;</tspan></text>
<text xml:space="preserve" transform="matrix(1.2024331 0 -0 1.2039034 155.96 465.40998)" font-size="12.16" font-family="Symbol"><tspan y="-14.197" x="155.35">&#xf0fd;</tspan></text>
<text xml:space="preserve" transform="matrix(1.2024331 0 -0 1.2039034 155.96 465.40998)" font-size="12.16" font-family="Symbol"><tspan y="-24.79" x="155.35">&#xf0fc;</tspan></text>
<text xml:space="preserve" transform="matrix(1.2024331 0 -0 1.2039034 155.96 465.40998)" font-size="12.16" font-family="Symbol"><tspan y="-3.6296" x="21.194">&#xf0ee;</tspan></text>
<text xml:space="preserve" transform="matrix(1.2024331 0 -0 1.2039034 155.96 465.40998)" font-size="12.16" font-family="Symbol"><tspan y="-14.197" x="21.194">&#xf0ed;</tspan></text>
<text xml:space="preserve" transform="matrix(1.2024331 0 -0 1.2039034 155.96 465.40998)" font-size="12.16" font-family="Symbol"><tspan y="-24.79" x="21.194">&#xf0ec;</tspan></text>
<text xml:space="preserve" transform="matrix(1.2024331 0 -0 1.2039034 155.96 465.40998)" font-size="7.0893" font-family="Times New Roman,Italic" font-style="italic"><tspan y="-3.7777" x="144.17 149.19158">ms</tspan></text>
<text xml:space="preserve" transform="matrix(1.2024331 0 -0 1.2039034 155.96 465.40998)" font-size="7.0893" font-family="Times New Roman,Italic" font-style="italic"><tspan y="-21.037" x="143.66">m</tspan></text>
<text xml:space="preserve" transform="matrix(1.2024331 0 -0 1.2039034 155.96 465.40998)" font-size="7.0893" font-family="Times New Roman,Italic" font-style="italic"><tspan y="-3.7777" x="102.45 105.305438">rs</tspan></text>
<text xml:space="preserve" transform="matrix(1.2024331 0 -0 1.2039034 155.96 465.40998)" font-size="7.0893" font-family="Times New Roman,Italic" font-style="italic"><tspan y="-21.037" x="101.76">r</tspan></text>
<text xml:space="preserve" transform="matrix(1.2024331 0 -0 1.2039034 155.96 465.40998)" font-size="7.0893" font-family="Times New Roman,Italic" font-style="italic"><tspan y="-3.7777" x="63.976">s</tspan></text>
<text xml:space="preserve" transform="matrix(1.2024331 0 -0 1.2039034 155.96 465.40998)" font-size="7.0893" font-family="Times New Roman,Italic" font-style="italic"><tspan y="-3.7777" x="41.6">s</tspan></text>
<text xml:space="preserve" transform="matrix(1.2024331 0 -0 1.2039034 155.96 465.40998)" font-size="12.16" font-family="Times New Roman,Italic" font-style="italic"><tspan y="-6.8394" x="138.44">b</tspan></text>
<text xml:space="preserve" transform="matrix(1.2024331 0 -0 1.2039034 155.96 465.40998)" font-size="12.16" font-family="Times New Roman,Italic" font-style="italic"><tspan y="-24.074" x="137.9">b</tspan></text>
<text xml:space="preserve" transform="matrix(1.2024331 0 -0 1.2039034 155.96 465.40998)" font-size="12.16" font-family="Times New Roman,Italic" font-style="italic"><tspan y="-6.8394" x="96.69">b</tspan></text>
<text xml:space="preserve" transform="matrix(1.2024331 0 -0 1.2039034 155.96 465.40998)" font-size="12.16" font-family="Times New Roman,Italic" font-style="italic"><tspan y="-24.074" x="96">b</tspan></text>
<text xml:space="preserve" transform="matrix(1.2024331 0 -0 1.2039034 155.96 465.40998)" font-size="12.16" font-family="Times New Roman,Italic" font-style="italic"><tspan y="-6.8394" x="54.105">b</tspan></text>
<text xml:space="preserve" transform="matrix(1.2024331 0 -0 1.2039034 155.96 465.40998)" font-size="12.16" font-family="Times New Roman,Italic" font-style="italic"><tspan y="-24.074" x="54.129">b</tspan></text>
<text xml:space="preserve" transform="matrix(1.2024331 0 -0 1.2039034 155.96 465.40998)" font-size="12.16" font-family="Times New Roman,Italic" font-style="italic"><tspan y="-6.8394" x="33.059">b</tspan></text>
<text xml:space="preserve" transform="matrix(1.2024331 0 -0 1.2039034 155.96 465.40998)" font-size="12.16" font-family="Times New Roman,Italic" font-style="italic"><tspan y="-24.074" x="32.837">b</tspan></text>
<text xml:space="preserve" transform="matrix(1.2024331 0 -0 1.2039034 155.96 465.40998)" font-size="7.0893" font-family="Times New Roman"><tspan y="-21.037" x="149.17">0</tspan></text>
<text xml:space="preserve" transform="matrix(1.2024331 0 -0 1.2039034 155.96 465.40998)" font-size="7.0893" font-family="Times New Roman"><tspan y="-21.037" x="105.33">0</tspan></text>
<text xml:space="preserve" transform="matrix(1.2024331 0 -0 1.2039034 155.96 465.40998)" font-size="7.0893" font-family="Times New Roman"><tspan y="-3.7777" x="59.865">2</tspan></text>
<text xml:space="preserve" transform="matrix(1.2024331 0 -0 1.2039034 155.96 465.40998)" font-size="7.0893" font-family="Times New Roman"><tspan y="-21.037" x="59.889 63.458253">20</tspan></text>
<text xml:space="preserve" transform="matrix(1.2024331 0 -0 1.2039034 155.96 465.40998)" font-size="7.0893" font-family="Times New Roman"><tspan y="-3.7777" x="38.031">1</tspan></text>
<text xml:space="preserve" transform="matrix(1.2024331 0 -0 1.2039034 155.96 465.40998)" font-size="7.0893" font-family="Times New Roman"><tspan y="-21.037" x="37.809 41.37825">10</tspan></text>
<text xml:space="preserve" transform="matrix(1.2024331 0 -0 1.2039034 155.96 465.40998)" font-size="12.16" font-family="Times New Roman"><tspan y="-16.296" x="132.31">;</tspan></text>
<text xml:space="preserve" transform="matrix(1.2024331 0 -0 1.2039034 155.96 465.40998)" font-size="12.16" font-family="Times New Roman"><tspan y="-16.296" x="126.15">.</tspan></text>
<text xml:space="preserve" transform="matrix(1.2024331 0 -0 1.2039034 155.96 465.40998)" font-size="12.16" font-family="Times New Roman"><tspan y="-16.296" x="122.71">.</tspan></text>
<text xml:space="preserve" transform="matrix(1.2024331 0 -0 1.2039034 155.96 465.40998)" font-size="12.16" font-family="Times New Roman"><tspan y="-16.296" x="119.24">.</tspan></text>
<text xml:space="preserve" transform="matrix(1.2024331 0 -0 1.2039034 155.96 465.40998)" font-size="12.16" font-family="Times New Roman"><tspan y="-16.296" x="112.52">;</tspan></text>
<text xml:space="preserve" transform="matrix(1.2024331 0 -0 1.2039034 155.96 465.40998)" font-size="12.16" font-family="Times New Roman"><tspan y="-16.296" x="90.413">;</tspan></text>
<text xml:space="preserve" transform="matrix(1.2024331 0 -0 1.2039034 155.96 465.40998)" font-size="12.16" font-family="Times New Roman"><tspan y="-16.296" x="84.259">.</tspan></text>
<text xml:space="preserve" transform="matrix(1.2024331 0 -0 1.2039034 155.96 465.40998)" font-size="12.16" font-family="Times New Roman"><tspan y="-16.296" x="80.813">.</tspan></text>
<text xml:space="preserve" transform="matrix(1.2024331 0 -0 1.2039034 155.96 465.40998)" font-size="12.16" font-family="Times New Roman"><tspan y="-16.296" x="77.342">.</tspan></text>
<text xml:space="preserve" transform="matrix(1.2024331 0 -0 1.2039034 155.96 465.40998)" font-size="12.16" font-family="Times New Roman"><tspan y="-16.296" x="70.622">;</tspan></text>
<text xml:space="preserve" transform="matrix(1.2024331 0 -0 1.2039034 155.96 465.40998)" font-size="12.16" font-family="Times New Roman"><tspan y="-16.296" x="48.517">;</tspan></text>
<text xml:space="preserve" transform="matrix(1.2024331 0 -0 1.2039034 155.96 465.40998)" font-size="12.16" font-family="Times New Roman"><tspan y="-16.296" x="1.8215 11.14822 14.7111">min</tspan></text>
</g>
</g>
</g>
<g id="Layer-1" data-name="P">
<clipPath id="cp47741">
<path transform="matrix(1,0,0,-1,0,841.92)" d="M .000008871 0 L 595.32 0 L 595.32 841.92 L .000008871 841.92 Z " fill-rule="evenodd"/>
</clipPath>
<g clip-path="url(#cp47741)">
<text xml:space="preserve" transform="matrix(1 0 -0 1 0 841.92)" font-size="14.04" font-family="Times New Roman"><tspan y="-392.45" x="351.67">.</tspan></text>
</g>
<clipPath id="cp47742">
<path transform="matrix(1,0,0,-1,0,841.92)" d="M .000008871 0 L 595.32 0 L 595.32 841.92 L .000008871 841.92 Z " fill-rule="evenodd"/>
</clipPath>
<g clip-path="url(#cp47742)">
<text xml:space="preserve" transform="matrix(1 0 -0 1 0 841.92)" font-size="14.04" font-family="Times New Roman"><tspan y="-392.45" x="355.15"> </tspan></text>
</g>
</g>
<g id="Layer-1" data-name="P">
<clipPath id="cp47743">
<path transform="matrix(1,0,0,-1,0,841.92)" d="M .000008871 0 L 595.32 0 L 595.32 841.92 L .000008871 841.92 Z " fill-rule="evenodd"/>
</clipPath>
<g clip-path="url(#cp47743)">
<text xml:space="preserve" transform="matrix(1 0 -0 1 0 841.92)" font-size="14.04" font-family="Times New Roman"><tspan y="-355.61" x="85.104"> </tspan></text>
</g>
<clipPath id="cp47744">
<path transform="matrix(1,0,0,-1,0,841.92)" d="M .000008871 0 L 595.32 0 L 595.32 841.92 L .000008871 841.92 Z " fill-rule="evenodd"/>
</clipPath>
<g clip-path="url(#cp47744)">
<text xml:space="preserve" transform="matrix(1 0 -0 1 0 841.92)" font-size="14.04" font-family="Times New Roman"><tspan y="-355.61" x="120.5 130.679 137.51648 141.46172 147.69548 154.547 158.49224 162.43747 169.49959 173.00959 180.2823 187.24614 194.30826 201.60906 208.57289 212.51813 217.92353 224.98564 231.10709 235.05233 238.89928 245.13304 249.80837 257.1232 261.06843 267.18986 274.25196 278.0989 285.161 291.39479 298.70964 309.39408 316.45619 321.95985 329.02195 335.14338 338.99034 342.93556 349.1693 353.7323 360.69615 364.64137 371.6052 378.6673 385.9681 392.08955 399.15165 406.21376 413.40223 420.46434 424.31129 430.54505 437.50889 441.35585 448.41795 452.36317">Aytaylik, bu nisbatlar ichida musbatlarning eng kichigi </tspan></text>
</g>
<clipPath id="cp47745">
<path transform="matrix(1,0,0,-1,0,841.92)" d="M .000008871 0 L 595.32 0 L 595.32 841.92 L .000008871 841.92 Z " fill-rule="evenodd"/>
</clipPath>
<g clip-path="url(#cp47745)">
<text xml:space="preserve" transform="matrix(1 0 -0 1 0 841.92)" font-size="14.04" font-family="Times New Roman,Italic" font-style="italic"><tspan y="-355.61" x="460.06">b</tspan></text>
</g>
<clipPath id="cp47746">
<path transform="matrix(1,0,0,-1,0,841.92)" d="M .000008871 0 L 595.32 0 L 595.32 841.92 L .000008871 841.92 Z " fill-rule="evenodd"/>
</clipPath>
<g clip-path="url(#cp47746)">
<text xml:space="preserve" transform="matrix(1 0 -0 1 0 841.92)" font-size="9" font-family="Times New Roman,Italic" font-style="italic"><tspan y="-354.05" x="467.14 470.62004">r0</tspan></text>
</g>
<clipPath id="cp47747">
<path transform="matrix(1,0,0,-1,0,841.92)" d="M .000008871 0 L 595.32 0 L 595.32 841.92 L .000008871 841.92 Z " fill-rule="evenodd"/>
</clipPath>
<g clip-path="url(#cp47747)">
<text xml:space="preserve" transform="matrix(1 0 -0 1 0 841.92)" font-size="14.04" font-family="Times New Roman,Italic" font-style="italic"><tspan y="-355.61" x="475.06 478.90003">/b</tspan></text>
</g>
<clipPath id="cp47748">
<path transform="matrix(1,0,0,-1,0,841.92)" d="M .000008871 0 L 595.32 0 L 595.32 841.92 L .000008871 841.92 Z " fill-rule="evenodd"/>
</clipPath>
<g clip-path="url(#cp47748)">
<text xml:space="preserve" transform="matrix(1 0 -0 1 0 841.92)" font-size="9" font-family="Times New Roman,Italic" font-style="italic"><tspan y="-354.05" x="485.98 489.46003">rs</tspan></text>
</g>
<clipPath id="cp47749">
<path transform="matrix(1,0,0,-1,0,841.92)" d="M .000008871 0 L 595.32 0 L 595.32 841.92 L .000008871 841.92 Z " fill-rule="evenodd"/>
</clipPath>
<g clip-path="url(#cp47749)">
<text xml:space="preserve" transform="matrix(1 0 -0 1 0 841.92)" font-size="14.04" font-family="Times New Roman"><tspan y="-355.61" x="492.94"> </tspan></text>
</g>
<clipPath id="cp47750">
<path transform="matrix(1,0,0,-1,0,841.92)" d="M .000008871 0 L 595.32 0 L 595.32 841.92 L .000008871 841.92 Z " fill-rule="evenodd"/>
</clipPath>
<g clip-path="url(#cp47750)">
<text xml:space="preserve" transform="matrix(1 0 -0 1 0 841.92)" font-size="14.04" font-family="Times New Roman"><tspan y="-355.61" x="500.26 507.3221 514.3842 518.9472 522.7942 528.29788 532.14486 539.207 542.717 549.9897 559.9441">bo&#x2018;lsin. U </tspan></text>
</g>
<clipPath id="cp47751">
<path transform="matrix(1,0,0,-1,0,841.92)" d="M .000008871 0 L 595.32 0 L 595.32 841.92 L .000008871 841.92 Z " fill-rule="evenodd"/>
</clipPath>
<g clip-path="url(#cp47751)">
<text xml:space="preserve" transform="matrix(1 0 -0 1 0 841.92)" font-size="14.04" font-family="Times New Roman"><tspan y="-331.49" x="85.104 92.166118 99.12995 102.97691 110.03903 116.27279 120.21803 125.623439 132.58727 139.64939">holda shu </tspan></text>
</g>
<clipPath id="cp47752">
<path transform="matrix(1,0,0,-1,0,841.92)" d="M .000008871 0 L 595.32 0 L 595.32 841.92 L .000008871 841.92 Z " fill-rule="evenodd"/>
</clipPath>
<g clip-path="url(#cp47752)">
<text xml:space="preserve" transform="matrix(1 0 -0 1 0 841.92)" font-size="14.04" font-family="Times New Roman,Italic" font-style="italic"><tspan y="-331.49" x="143.66"> </tspan></text>
</g>
<clipPath id="cp47753">
<path transform="matrix(1,0,0,-1,0,841.92)" d="M .000008871 0 L 595.32 0 L 595.32 841.92 L .000008871 841.92 Z " fill-rule="evenodd"/>
</clipPath>
<g clip-path="url(#cp47753)">
<text xml:space="preserve" transform="matrix(1 0 -0 1 0 841.92)" font-size="14.04" font-family="Times New Roman,Italic" font-style="italic"><tspan y="-331.49" x="147.62">b</tspan></text>
</g>
<clipPath id="cp47754">
<path transform="matrix(1,0,0,-1,0,841.92)" d="M .000008871 0 L 595.32 0 L 595.32 841.92 L .000008871 841.92 Z " fill-rule="evenodd"/>
</clipPath>
<g clip-path="url(#cp47754)">
<text xml:space="preserve" transform="matrix(1 0 -0 1 0 841.92)" font-size="9" font-family="Times New Roman,Italic" font-style="italic"><tspan y="-329.93" x="154.7 158.18">rs</tspan></text>
</g>
<clipPath id="cp47755">
<path transform="matrix(1,0,0,-1,0,841.92)" d="M .000008871 0 L 595.32 0 L 595.32 841.92 L .000008871 841.92 Z " fill-rule="evenodd"/>
</clipPath>
<g clip-path="url(#cp47755)">
<text xml:space="preserve" transform="matrix(1 0 -0 1 0 841.92)" font-size="14.04" font-family="Times New Roman"><tspan y="-331.49" x="161.66"> </tspan></text>
</g>
<clipPath id="cp47756">
<path transform="matrix(1,0,0,-1,0,841.92)" d="M .000008871 0 L 595.32 0 L 595.32 841.92 L .000008871 841.92 Z " fill-rule="evenodd"/>
</clipPath>
<g clip-path="url(#cp47756)">
<text xml:space="preserve" transform="matrix(1 0 -0 1 0 841.92)" font-size="14.04" font-family="Times New Roman"><tspan y="-331.49" x="165.62 171.74144 175.68668 181.92044 192.60489 198.83866 205.91483 209.86006 213.8053 217.65225 224.71437 229.27738 236.3395 242.46094 249.52306 253.46829 258.97196 265.09339 269.0386 273.71394 277.54685 284.60896 290.73039 294.6756 298.62086 305.5847 309.5299 313.37687 320.3407 327.30455 333.5383 340.61445 344.55967 348.39259 353.89625 360.01768 363.9629 368.6382 372.47114 379.53324 385.767 392.6185 396.56373 400.50895 406.63038 413.69248 417.6377 421.1477">element turgan satr hal qiluvchi satr deyiladi, </tspan></text>
</g>
<clipPath id="cp47757">
<path transform="matrix(1,0,0,-1,0,841.92)" d="M .000008871 0 L 595.32 0 L 595.32 841.92 L .000008871 841.92 Z " fill-rule="evenodd"/>
</clipPath>
<g clip-path="url(#cp47757)">
<text xml:space="preserve" transform="matrix(1 0 -0 1 0 841.92)" font-size="14.04" font-family="Times New Roman,Italic" font-style="italic"><tspan y="-331.49" x="425.35">b</tspan></text>
</g>
<clipPath id="cp47758">
<path transform="matrix(1,0,0,-1,0,841.92)" d="M .000008871 0 L 595.32 0 L 595.32 841.92 L .000008871 841.92 Z " fill-rule="evenodd"/>
</clipPath>
<g clip-path="url(#cp47758)">
<text xml:space="preserve" transform="matrix(1 0 -0 1 0 841.92)" font-size="9" font-family="Times New Roman,Italic" font-style="italic"><tspan y="-329.93" x="432.43 435.91">rs</tspan></text>
</g>
<clipPath id="cp47759">
<path transform="matrix(1,0,0,-1,0,841.92)" d="M .000008871 0 L 595.32 0 L 595.32 841.92 L .000008871 841.92 Z " fill-rule="evenodd"/>
</clipPath>
<g clip-path="url(#cp47759)">
<text xml:space="preserve" transform="matrix(1 0 -0 1 0 841.92)" font-size="14.04" font-family="Times New Roman"><tspan y="-331.49" x="439.39"> </tspan></text>
</g>
<clipPath id="cp47760">
<path transform="matrix(1,0,0,-1,0,841.92)" d="M .000008871 0 L 595.32 0 L 595.32 841.92 L .000008871 841.92 Z " fill-rule="evenodd"/>
</clipPath>
<g clip-path="url(#cp47760)">
<text xml:space="preserve" transform="matrix(1 0 -0 1 0 841.92)" font-size="14.04" font-family="Times New Roman"><tspan y="-331.49" x="443.38 449.50144 453.44667 459.68043 470.36488 476.59864 483.67478 487.62 494.58384 498.52906 505.4929 512.555 516.38796 523.4501 528.01309 534.2468 538.1921 542.1373 548.2588 553.76248 559.8839">elementning o&#x2018;zi esa </tspan></text>
</g>
<clipPath id="cp47761">
<path transform="matrix(1,0,0,-1,0,841.92)" d="M .000008871 0 L 595.32 0 L 595.32 841.92 L .000008871 841.92 Z " fill-rule="evenodd"/>
</clipPath>
<g clip-path="url(#cp47761)">
<text xml:space="preserve" transform="matrix(1 0 -0 1 0 841.92)" font-size="14.04" font-family="Times New Roman"><tspan y="-307.37" x="85.104 92.166118 98.39987 102.345119 105.700679 112.66451 116.60976 120.45672 127.51884 134.48267 140.71643 147.68027 151.6255 155.1355 161.22887 165.1741 171.40787 182.09232 188.32608 195.40225 199.34749 202.85749 209.87749 216.9677 221.5307 225.47594 231.59738 238.56122 242.50646">hal qiluvchi element bo&#x2018;ladi.</tspan></text>
</g>
<clipPath id="cp47762">
<path transform="matrix(1,0,0,-1,0,841.92)" d="M .000008871 0 L 595.32 0 L 595.32 841.92 L .000008871 841.92 Z " fill-rule="evenodd"/>
</clipPath>
<g clip-path="url(#cp47762)">
<text xml:space="preserve" transform="matrix(1 0 -0 1 0 841.92)" font-size="14.04" font-family="Times New Roman"><tspan y="-307.37" x="246.17"> </tspan></text>
</g>
</g>
<g id="Layer-1" data-name="P">
<clipPath id="cp47763">
<path transform="matrix(1,0,0,-1,0,841.92)" d="M .000008871 0 L 595.32 0 L 595.32 841.92 L .000008871 841.92 Z " fill-rule="evenodd"/>
</clipPath>
<g clip-path="url(#cp47763)">
<text xml:space="preserve" transform="matrix(1 0 -0 1 0 841.92)" font-size="14.04" font-family="Times New Roman"><tspan y="-283.25" x="85.104"> </tspan></text>
</g>
<clipPath id="cp47764">
<path transform="matrix(1,0,0,-1,0,841.92)" d="M .000008871 0 L 595.32 0 L 595.32 841.92 L .000008871 841.92 Z " fill-rule="evenodd"/>
</clipPath>
<g clip-path="url(#cp47764)">
<text xml:space="preserve" transform="matrix(1 0 -0 1 0 841.92)" font-size="14.04" font-family="Times New Roman"><tspan y="-283.25" x="120.5 127.56212 131.07212 141.12476 147.35852 151.30376 156.33008 163.3922 167.23915 171.0861 178.14823 185.11206 191.34583 198.30966 202.2549 207.28122 214.34334 219.74874 223.69397 230.6578 237.71993 242.74625 249.80837 256.0421 261.06846 266.5721 272.80589 276.65284 281.32817 286.48085 293.54295 298.10594 304.3397 311.30354 317.5373 322.21263 329.1905 336.2526 342.37403 349.33787 353.28309 357.2283 363.34974 368.02507 371.97029 376.9966 384.05873 388.6217 393.29704 397.24226 404.2061 408.1513 414.38508 418.94807 422.89329 428.04597 434.1674 438.1126 448.79707 455.03083 460.54853 467.61064 471.55586 475.4028 480.07814 483.92509 487.8703 494.10408 501.0679 505.01313 508.52314 513.6337 518.309 525.1606 531.39437 533.9216 540.9837 544.92898">2.Hal qiluvchi ustun va satr o&#x2018;zgaruvchilari o&#x2018;rinlari almashtiriladi, (ya'ni </tspan></text>
</g>
<clipPath id="cp47765">
<path transform="matrix(1,0,0,-1,0,841.92)" d="M .000008871 0 L 595.32 0 L 595.32 841.92 L .000008871 841.92 Z " fill-rule="evenodd"/>
</clipPath>
<g clip-path="url(#cp47765)">
<text xml:space="preserve" transform="matrix(1 0 -0 1 0 841.92)" font-size="14.04" font-family="Times New Roman,Italic" font-style="italic"><tspan y="-283.25" x="550.54">x</tspan></text>
</g>
<clipPath id="cp47766">
<path transform="matrix(1,0,0,-1,0,841.92)" d="M .000008871 0 L 595.32 0 L 595.32 841.92 L .000008871 841.92 Z " fill-rule="evenodd"/>
</clipPath>
<g clip-path="url(#cp47766)">
<text xml:space="preserve" transform="matrix(1 0 -0 1 0 841.92)" font-size="9" font-family="Times New Roman,Italic" font-style="italic"><tspan y="-281.69" x="556.66">s</tspan></text>
</g>
<clipPath id="cp47767">
<path transform="matrix(1,0,0,-1,0,841.92)" d="M .000008871 0 L 595.32 0 L 595.32 841.92 L .000008871 841.92 Z " fill-rule="evenodd"/>
</clipPath>
<g clip-path="url(#cp47767)">
<text xml:space="preserve" transform="matrix(1 0 -0 1 0 841.92)" font-size="14.04" font-family="Times New Roman"><tspan y="-283.25" x="560.02"> </tspan></text>
</g>
<clipPath id="cp47768">
<path transform="matrix(1,0,0,-1,0,841.92)" d="M .000008871 0 L 595.32 0 L 595.32 841.92 L .000008871 841.92 Z " fill-rule="evenodd"/>
</clipPath>
<g clip-path="url(#cp47768)">
<text xml:space="preserve" transform="matrix(1 0 -0 1 0 841.92)" font-size="14.04" font-family="Times New Roman"><tspan y="-259.01" x="85.104 92.166118 98.39987 101.909877">va  </tspan></text>
</g>
<clipPath id="cp47769">
<path transform="matrix(1,0,0,-1,0,841.92)" d="M .000008871 0 L 595.32 0 L 595.32 841.92 L .000008871 841.92 Z " fill-rule="evenodd"/>
</clipPath>
<g clip-path="url(#cp47769)">
<text xml:space="preserve" transform="matrix(1 0 -0 1 0 841.92)" font-size="14.04" font-family="Times New Roman,Italic" font-style="italic"><tspan y="-259.01" x="105.38">y</tspan></text>
</g>
<clipPath id="cp47770">
<path transform="matrix(1,0,0,-1,0,841.92)" d="M .000008871 0 L 595.32 0 L 595.32 841.92 L .000008871 841.92 Z " fill-rule="evenodd"/>
</clipPath>
<g clip-path="url(#cp47770)">
<text xml:space="preserve" transform="matrix(1 0 -0 1 0 841.92)" font-size="9" font-family="Times New Roman,Italic" font-style="italic"><tspan y="-257.45" x="111.62">s</tspan></text>
</g>
<clipPath id="cp47771">
<path transform="matrix(1,0,0,-1,0,841.92)" d="M .000008871 0 L 595.32 0 L 595.32 841.92 L .000008871 841.92 Z " fill-rule="evenodd"/>
</clipPath>
<g clip-path="url(#cp47771)">
<text xml:space="preserve" transform="matrix(1 0 -0 1 0 841.92)" font-size="14.04" font-family="Times New Roman,Italic" font-style="italic"><tspan y="-259.01" x="115.1"> </tspan></text>
</g>
<clipPath id="cp47772">
<path transform="matrix(1,0,0,-1,0,841.92)" d="M .000008871 0 L 595.32 0 L 595.32 841.92 L .000008871 841.92 Z " fill-rule="evenodd"/>
</clipPath>
<g clip-path="url(#cp47772)">
<text xml:space="preserve" transform="matrix(1 0 -0 1 0 841.92)" font-size="14.04" font-family="Times New Roman"><tspan y="-259.01" x="118.58 122.060009">  </tspan></text>
</g>
<clipPath id="cp47773">
<path transform="matrix(1,0,0,-1,0,841.92)" d="M .000008871 0 L 595.32 0 L 595.32 841.92 L .000008871 841.92 Z " fill-rule="evenodd"/>
</clipPath>
<g clip-path="url(#cp47773)">
<text xml:space="preserve" transform="matrix(1 0 -0 1 0 841.92)" font-size="14.04" font-family="Times New Roman"><tspan y="-259.01" x="125.54 132.37747 138.61124 145.68741 152.74953 156.69477 160.20476 164.0096 170.24337 177.2072 184.26932 190.39076 194.336 201.39812 207.51956 211.02956 218.04956 222.64064 227.31597 231.2612 238.22504 242.17028 248.40404 252.96704 256.91227 260.42228 266.65605 270.55915 281.27168 287.50544 293.02314 300.08525 306.20668 313.26878 317.11573 321.79106 325.30107 328.7549 332.26493 335.71879 339.2288 342.68266 346.19267 349.6465 353.15653 356.70866 360.21867 363.67253 367.18254 370.63639 374.1464 377.69853 381.20854 384.66239 388.1724 391.62626">yangi jadvalda o&#x2018;rinlari almashadi).                    </tspan></text>
</g>
<clipPath id="cp47774">
<path transform="matrix(1,0,0,-1,0,841.92)" d="M .000008871 0 L 595.32 0 L 595.32 841.92 L .000008871 841.92 Z " fill-rule="evenodd"/>
</clipPath>
<g clip-path="url(#cp47774)">
<text xml:space="preserve" transform="matrix(1 0 -0 1 0 841.92)" font-size="14.04" font-family="Times New Roman"><tspan y="-259.01" x="395.47"> </tspan></text>
</g>
</g>
<g id="Layer-1" data-name="P">
<clipPath id="cp47775">
<path transform="matrix(1,0,0,-1,0,841.92)" d="M .000008871 0 L 595.32 0 L 595.32 841.92 L .000008871 841.92 Z " fill-rule="evenodd"/>
</clipPath>
<g clip-path="url(#cp47775)">
<text xml:space="preserve" transform="matrix(1 0 -0 1 0 841.92)" font-size="14.04" font-family="Times New Roman"><tspan y="-234.89" x="85.104"> </tspan></text>
</g>
<clipPath id="cp47776">
<path transform="matrix(1,0,0,-1,0,841.92)" d="M .000008871 0 L 595.32 0 L 595.32 841.92 L .000008871 841.92 Z " fill-rule="evenodd"/>
</clipPath>
<g clip-path="url(#cp47776)">
<text xml:space="preserve" transform="matrix(1 0 -0 1 0 841.92)" font-size="14.04" font-family="Times New Roman"><tspan y="-234.89" x="120.5 127.56212 131.07212 136.53368 142.6832 149.64704 156.70915 162.94292 166.78987 173.85199 180.08576 183.45536 188.95903 192.90427 203.58872 210.65084 214.59607 220.71752 227.77964 233.28331 236.7933 242.88668 246.83191 257.51637 263.75013 269.26783 276.32994 280.27516 284.1221 288.79743 292.64439 298.14805 305.21015 308.5657 315.6278 321.86158 325.70854 331.9423 336.50529 340.4505 344.39573 350.51716 357.481 361.4262">3.Jadvalda simpleks almashtirish bajariladi.</tspan></text>
</g>
<clipPath id="cp47777">
<path transform="matrix(1,0,0,-1,0,841.92)" d="M .000008871 0 L 595.32 0 L 595.32 841.92 L .000008871 841.92 Z " fill-rule="evenodd"/>
</clipPath>
<g clip-path="url(#cp47777)">
<text xml:space="preserve" transform="matrix(1 0 -0 1 0 841.92)" font-size="14.04" font-family="Times New Roman"><tspan y="-234.89" x="365.11"> </tspan></text>
</g>
</g>
<g id="Layer-1" data-name="P">
<clipPath id="cp47778">
<path transform="matrix(1,0,0,-1,0,841.92)" d="M .000008871 0 L 595.32 0 L 595.32 841.92 L .000008871 841.92 Z " fill-rule="evenodd"/>
</clipPath>
<g clip-path="url(#cp47778)">
<text xml:space="preserve" transform="matrix(1 0 -0 1 0 841.92)" font-size="14.04" font-family="Times New Roman"><tspan y="-210.74" x="121.1 128.16211 131.6721 138.69211 142.2021 152.28282 158.40427 162.3495 170.01534 177.07746 180.92441 184.77136 191.83348 198.79732 205.03108 211.99492 215.94016 223.60599 230.56983 236.0735 239.92046 246.98258 254.0447 261.71055 267.83198 271.7772 278.01097 288.6954 294.92918 302.0053 305.95054 309.89576 316.01719 320.6925 324.63774 332.17723 339.23933 345.47309 349.4183 356.9578 364.0199 367.86686 371.81208 378.7759 385.838 391.95945 398.92329 402.8685 410.53437 416.76814 420.71336 426.9471 437.63157 443.86534 450.94148 454.78843 461.85054 468.0843 475.75016 482.81227 489.87437 494.43736 498.2843">3.1.Hal qiluvchi ustun elementlari hal qiluvchi elementga bo&#x2018;li</tspan></text>
</g>
<clipPath id="cp47779">
<path transform="matrix(1,0,0,-1,0,841.92)" d="M .000008871 0 L 595.32 0 L 595.32 841.92 L .000008871 841.92 Z " fill-rule="evenodd"/>
</clipPath>
<g clip-path="url(#cp47779)">
<text xml:space="preserve" transform="matrix(1 0 -0 1 0 841.92)" font-size="14.04" font-family="Times New Roman"><tspan y="-210.74" x="502.78 509.8421 517.50796 523.6294 530.6915 534.5385 541.5024 545.44766 549.1683 553.01528 559.9791">b chiqilib </tspan></text>
</g>
<clipPath id="cp47780">
<path transform="matrix(1,0,0,-1,0,841.92)" d="M .000008871 0 L 595.32 0 L 595.32 841.92 L .000008871 841.92 Z " fill-rule="evenodd"/>
</clipPath>
<g clip-path="url(#cp47780)">
<text xml:space="preserve" transform="matrix(1 0 -0 1 0 841.92)" font-size="14.04" font-family="Times New Roman"><tspan y="-184.34" x="85.104 91.941478 98.17523 105.25139 112.31351 116.25875 119.76875 123.57359 129.80736 136.7712 143.83332 149.95476 153.9 160.96212 167.19588 170.70587 177.51528 184.5774 190.81116 194.65811 198.60335 204.7248 211.78691 215.73215 219.24214 222.69597 229.53345 235.76721 238.29442 245.35654 249.30178 252.81177">yangi jadvalga yoziladi, ya'ni  </tspan></text>
</g>
</g>
<g id="Layer-1" data-name="P">
<clipPath id="cp47781">
<path transform="matrix(1,0,0,-1,0,841.92)" d="M 0 .000061035 L 595.32 .000061035 L 595.32 841.92007 L 0 841.92007 Z " fill-rule="evenodd"/>
</clipPath>
<g clip-path="url(#cp47781)">
<clipPath id="cp47782">
<path transform="matrix(1.1267977,0,0,-1.0474453,256.36,663.56)" d="M 0 0 L 98.511 0 L 98.511 20.049 L 0 20.049 Z " fill-rule="evenodd"/>
</clipPath>
<g clip-path="url(#cp47782)">
<text xml:space="preserve" transform="matrix(1.1267977 0 -0 1.0474453 256.36 663.56)" font-size="12.849" font-family="Times New Roman"><tspan y="-6.074" x="92.603">)</tspan></text>
<text xml:space="preserve" transform="matrix(1.1267977 0 -0 1.0474453 256.36 663.56)" font-size="12.849" font-family="Times New Roman"><tspan y="-6.074" x="67.176">(</tspan></text>
<text xml:space="preserve" transform="matrix(1.1267977 0 -0 1.0474453 256.36 663.56)" font-size="12.849" font-family="Times New Roman"><tspan y="-6.074" x="45.957">/</tspan></text>
<text xml:space="preserve" transform="matrix(1.1267977 0 -0 1.0474453 256.36 663.56)" font-size="7.5077" font-family="Times New Roman"><tspan y="-11.852" x="8.2462">'</tspan></text>
<text xml:space="preserve" transform="matrix(1.1267977 0 -0 1.0474453 256.36 663.56)" font-size="12.849" font-family="Times New Roman,Italic" font-style="italic"><tspan y="-6.074" x="87.163">r</tspan></text>
<text xml:space="preserve" transform="matrix(1.1267977 0 -0 1.0474453 256.36 663.56)" font-size="12.849" font-family="Times New Roman,Italic" font-style="italic"><tspan y="-6.074" x="71.114">i</tspan></text>
<text xml:space="preserve" transform="matrix(1.1267977 0 -0 1.0474453 256.36 663.56)" font-size="12.849" font-family="Times New Roman,Italic" font-style="italic"><tspan y="-6.074" x="50.806">b</tspan></text>
<text xml:space="preserve" transform="matrix(1.1267977 0 -0 1.0474453 256.36 663.56)" font-size="12.849" font-family="Times New Roman,Italic" font-style="italic"><tspan y="-6.074" x="32.296">b</tspan></text>
<text xml:space="preserve" transform="matrix(1.1267977 0 -0 1.0474453 256.36 663.56)" font-size="12.849" font-family="Times New Roman,Italic" font-style="italic"><tspan y="-6.074" x="1.4523">b</tspan></text>
<text xml:space="preserve" transform="matrix(1.1267977 0 -0 1.0474453 256.36 663.56)" font-size="7.5077" font-family="Times New Roman,Italic" font-style="italic"><tspan y="-2.8642" x="56.689 59.568998">rs</tspan></text>
<text xml:space="preserve" transform="matrix(1.1267977 0 -0 1.0474453 256.36 663.56)" font-size="7.5077" font-family="Times New Roman,Italic" font-style="italic"><tspan y="-2.8642" x="37.932 40.09814">is</tspan></text>
<text xml:space="preserve" transform="matrix(1.1267977 0 -0 1.0474453 256.36 663.56)" font-size="7.5077" font-family="Times New Roman,Italic" font-style="italic"><tspan y="-2.8642" x="7.0893 9.255441">is</tspan></text>
<text xml:space="preserve" transform="matrix(1.1267977 0 -0 1.0474453 256.36 663.56)" font-size="12.849" font-family="Symbol"><tspan y="-6.074" x="77.539">&#xf0b9;</tspan></text>
<text xml:space="preserve" transform="matrix(1.1267977 0 -0 1.0474453 256.36 663.56)" font-size="12.849" font-family="Symbol"><tspan y="-6.074" x="25.748">&#xf02d;</tspan></text>
<text xml:space="preserve" transform="matrix(1.1267977 0 -0 1.0474453 256.36 663.56)" font-size="12.849" font-family="Symbol"><tspan y="-6.074" x="16.295">&#xf03d;</tspan></text>
</g>
</g>
</g>
<g id="Layer-1" data-name="P">
<clipPath id="cp47783">
<path transform="matrix(1,0,0,-1,0,841.92)" d="M .000008871 0 L 595.32 0 L 595.32 841.92 L .000008871 841.92 Z " fill-rule="evenodd"/>
</clipPath>
<g clip-path="url(#cp47783)">
<text xml:space="preserve" transform="matrix(1 0 -0 1 0 841.92)" font-size="14.04" font-family="Times New Roman"><tspan y="-184.34" x="367.39">.</tspan></text>
</g>
<clipPath id="cp47784">
<path transform="matrix(1,0,0,-1,0,841.92)" d="M .000008871 0 L 595.32 0 L 595.32 841.92 L .000008871 841.92 Z " fill-rule="evenodd"/>
</clipPath>
<g clip-path="url(#cp47784)">
<text xml:space="preserve" transform="matrix(1 0 -0 1 0 841.92)" font-size="14.04" font-family="Times New Roman"><tspan y="-184.34" x="370.87"> </tspan></text>
</g>
</g>
<g id="Layer-1" data-name="P">
<clipPath id="cp47785">
<path transform="matrix(1,0,0,-1,0,841.92)" d="M .000008871 0 L 595.32 0 L 595.32 841.92 L .000008871 841.92 Z " fill-rule="evenodd"/>
</clipPath>
<g clip-path="url(#cp47785)">
<text xml:space="preserve" transform="matrix(1 0 -0 1 0 841.92)" font-size="14.04" font-family="Times New Roman"><tspan y="-157.58" x="121.1 128.16211 131.6721 138.69211 142.2021 152.28282 158.40427 162.3495 166.89846 173.86229 177.70925 181.65448 188.61832 195.68044 201.80188 208.864 212.71096 217.2599 222.76358 228.88503 232.83026 237.50559 241.94222 248.17598 252.12122 258.35499 269.03944 275.2732 282.34934 286.29457 290.1415 296.37528 301.0506 305.00987 309.43247 316.49458 322.616 326.56123 330.98384 338.04594 341.89289 345.73985 352.80195 359.76579 365.99955 373.07569 376.92265 381.47163 387.70539 391.55235 397.7861 408.47056 414.7043 421.78047 425.72569 432.78779 438.9092 443.4582 450.42204 457.48414 462.04713 465.99235 469.8393 476.9014 481.324 487.55778 494.6339 498.48088 505.4447 509.38993 513.2369 517.08389 524.146 528.69497 535.5325 541.76626 548.8424 555.67996 559.5269">3.2.Hal qiluvchi satr elementlari hal qiluvchi elementga bo&#x2018;lib chiqilib yangi </tspan></text>
</g>
<clipPath id="cp47786">
<path transform="matrix(1,0,0,-1,0,841.92)" d="M .000008871 0 L 595.32 0 L 595.32 841.92 L .000008871 841.92 Z " fill-rule="evenodd"/>
</clipPath>
<g clip-path="url(#cp47786)">
<text xml:space="preserve" transform="matrix(1 0 -0 1 0 841.92)" font-size="14.04" font-family="Times New Roman"><tspan y="-130.58" x="85.104 88.95096 95.184719 102.26087 109.32299 115.44443 119.29139 126.35351 132.58727 136.09726 142.90666 149.96878 156.20255 160.14778 163.99474 170.2285 177.19234 181.13758 184.64757 188.1014 194.93888 201.17264 203.79813 210.86025 214.80548 218.31548 221.7693">jadvalga yoziladi, ya'ni   </tspan></text>
</g>
</g>
<g id="Layer-1" data-name="P">
<clipPath id="cp47787">
<path transform="matrix(1,0,0,-1,0,841.92)" d="M 0 .000061035 L 595.32 .000061035 L 595.32 841.92007 L 0 841.92007 Z " fill-rule="evenodd"/>
</clipPath>
<g clip-path="url(#cp47787)">
<clipPath id="cp47788">
<path transform="matrix(1.1261917,0,0,-1.0859237,225.31,718.26)" d="M 0 0 L 99.939 0 L 99.939 20.765 L 0 20.765 Z " fill-rule="evenodd"/>
</clipPath>
<g clip-path="url(#cp47788)">
<text xml:space="preserve" transform="matrix(1.1261917 0 -0 1.0859237 225.31 718.26)" font-size="12.455" font-family="Times New Roman"><tspan y="-7.2345" x="93.933">)</tspan></text>
<text xml:space="preserve" transform="matrix(1.1261917 0 -0 1.0859237 225.31 718.26)" font-size="12.455" font-family="Times New Roman"><tspan y="-7.2345" x="65.625">(</tspan></text>
<text xml:space="preserve" transform="matrix(1.1261917 0 -0 1.0859237 225.31 718.26)" font-size="12.455" font-family="Times New Roman"><tspan y="-7.2345" x="40.025">/</tspan></text>
<text xml:space="preserve" transform="matrix(1.1261917 0 -0 1.0859237 225.31 718.26)" font-size="7.2616" font-family="Times New Roman"><tspan y="-12.815" x="8.32">'</tspan></text>
<text xml:space="preserve" transform="matrix(1.1261917 0 -0 1.0859237 225.31 718.26)" font-size="12.455" font-family="Times New Roman,Italic" font-style="italic"><tspan y="-7.2345" x="88.813">s</tspan></text>
<text xml:space="preserve" transform="matrix(1.1261917 0 -0 1.0859237 225.31 718.26)" font-size="12.455" font-family="Times New Roman,Italic" font-style="italic"><tspan y="-7.2345" x="72.246">j</tspan></text>
<text xml:space="preserve" transform="matrix(1.1261917 0 -0 1.0859237 225.31 718.26)" font-size="12.455" font-family="Times New Roman,Italic" font-style="italic"><tspan y="-7.2345" x="44.923">b</tspan></text>
<text xml:space="preserve" transform="matrix(1.1261917 0 -0 1.0859237 225.31 718.26)" font-size="12.455" font-family="Times New Roman,Italic" font-style="italic"><tspan y="-7.2345" x="25.92">b</tspan></text>
<text xml:space="preserve" transform="matrix(1.1261917 0 -0 1.0859237 225.31 718.26)" font-size="12.455" font-family="Times New Roman,Italic" font-style="italic"><tspan y="-7.2345" x="1.4523">b</tspan></text>
<text xml:space="preserve" transform="matrix(1.1261917 0 -0 1.0859237 225.31 718.26)" font-size="7.2616" font-family="Times New Roman,Italic" font-style="italic"><tspan y="-4.0987" x="50.856 53.73606">rs</tspan></text>
<text xml:space="preserve" transform="matrix(1.1261917 0 -0 1.0859237 225.31 718.26)" font-size="7.2616" font-family="Times New Roman,Italic" font-style="italic"><tspan y="-4.0987" x="31.828 34.70806">rj</tspan></text>
<text xml:space="preserve" transform="matrix(1.1261917 0 -0 1.0859237 225.31 718.26)" font-size="7.2616" font-family="Times New Roman,Italic" font-style="italic"><tspan y="-4.0987" x="7.36 10.240063">rj</tspan></text>
<text xml:space="preserve" transform="matrix(1.1261917 0 -0 1.0859237 225.31 718.26)" font-size="12.455" font-family="Symbol"><tspan y="-7.2345" x="78.917">&#xf0b9;</tspan></text>
<text xml:space="preserve" transform="matrix(1.1261917 0 -0 1.0859237 225.31 718.26)" font-size="12.455" font-family="Symbol"><tspan y="-7.2345" x="16.763">&#xf03d;</tspan></text>
</g>
</g>
</g>
<g id="Layer-1" data-name="P">
<clipPath id="cp47789">
<path transform="matrix(1,0,0,-1,0,841.92)" d="M .000008871 0 L 595.32 0 L 595.32 841.92 L .000008871 841.92 Z " fill-rule="evenodd"/>
</clipPath>
<g clip-path="url(#cp47789)">
<text xml:space="preserve" transform="matrix(1 0 -0 1 0 841.92)" font-size="14.04" font-family="Times New Roman"><tspan y="-130.58" x="337.87"> </tspan></text>
</g>
<clipPath id="cp47790">
<path transform="matrix(1,0,0,-1,0,841.92)" d="M .000008871 0 L 595.32 0 L 595.32 841.92 L .000008871 841.92 Z " fill-rule="evenodd"/>
</clipPath>
<g clip-path="url(#cp47790)">
<text xml:space="preserve" transform="matrix(1 0 -0 1 0 841.92)" font-size="14.04" font-family="Times New Roman"><tspan y="-130.58" x="341.35">.</tspan></text>
</g>
<clipPath id="cp47791">
<path transform="matrix(1,0,0,-1,0,841.92)" d="M .000008871 0 L 595.32 0 L 595.32 841.92 L .000008871 841.92 Z " fill-rule="evenodd"/>
</clipPath>
<g clip-path="url(#cp47791)">
<text xml:space="preserve" transform="matrix(1 0 -0 1 0 841.92)" font-size="14.04" font-family="Times New Roman"><tspan y="-130.58" x="344.95"> </tspan></text>
</g>
</g>
<g id="Layer-1" data-name="P">
<clipPath id="cp47792">
<path transform="matrix(1,0,0,-1,0,841.92)" d="M .000008871 0 L 595.32 0 L 595.32 841.92 L .000008871 841.92 Z " fill-rule="evenodd"/>
</clipPath>
<g clip-path="url(#cp47792)">
<text xml:space="preserve" transform="matrix(1 0 -0 1 0 841.92)" font-size="14.04" font-family="Times New Roman"><tspan y="-100.58" x="121.1 128.16211 131.6721 138.69211 142.2021 152.28282 158.40427 162.3495 165.8595 172.79526 176.7405 180.58745 187.55129 194.6134 200.84717 207.811 211.75624 215.26624 221.3596 225.30484 231.5386 242.34941 248.58318 255.65935 259.60459 262.96015 270.02226 273.53227 280.46803 286.70179 290.2118 294.1149 300.26445 307.22828 314.29039 318.2356 324.35704 329.76243 336.82453 340.67149 344.6167 349.1797 353.1249 356.97187 360.81883 367.88093 371.39094 378.41093 383.002 389.23579 393.08274 400.14485 406.3786 409.8886 416.82438 423.88648 428.44947 432.39469 436.24165 443.30375 449.42518 456.389 460.33424 463.84425 467.2981 474.13557 480.36933 482.99479 490.0569 494.0021">3.3.Hal qiluvchi element 1 ga tenglashtirilib o&#x2018;ziga bo&#x2018;linadi, ya'ni </tspan></text>
</g>
</g>
<g id="Layer-1" data-name="P">
<clipPath id="cp47793">
<path transform="matrix(1,0,0,-1,0,841.92)" d="M 0 .000061035 L 595.32 .000061035 L 595.32 841.92007 L 0 841.92007 Z " fill-rule="evenodd"/>
</clipPath>
<g clip-path="url(#cp47793)">
<clipPath id="cp47794">
<path transform="matrix(1.1246464,0,0,-1.0862374,497.71,747.31)" d="M 0 0 L 50.683 0 L 50.683 19.333 L 0 19.333 Z " fill-rule="evenodd"/>
</clipPath>
<g clip-path="url(#cp47794)">
<text xml:space="preserve" transform="matrix(1.1246464 0 -0 1.0862374 497.71 747.31)" font-size="6.9662" font-family="Times New Roman,Italic" font-style="italic"><tspan y="-3.358" x="43.176 46.05585">rs</tspan></text>
<text xml:space="preserve" transform="matrix(1.1246464 0 -0 1.0862374 497.71 747.31)" font-size="6.9662" font-family="Times New Roman,Italic" font-style="italic"><tspan y="-3.358" x="7.3846 10.264452">rs</tspan></text>
<text xml:space="preserve" transform="matrix(1.1246464 0 -0 1.0862374 497.71 747.31)" font-size="11.939" font-family="Times New Roman,Italic" font-style="italic"><tspan y="-6.3456" x="37.243">b</tspan></text>
<text xml:space="preserve" transform="matrix(1.1246464 0 -0 1.0862374 497.71 747.31)" font-size="11.939" font-family="Times New Roman,Italic" font-style="italic"><tspan y="-6.3456" x="1.4523">b</tspan></text>
<text xml:space="preserve" transform="matrix(1.1246464 0 -0 1.0862374 497.71 747.31)" font-size="11.939" font-family="Times New Roman"><tspan y="-6.3456" x="32.345">/</tspan></text>
<text xml:space="preserve" transform="matrix(1.1246464 0 -0 1.0862374 497.71 747.31)" font-size="11.939" font-family="Times New Roman"><tspan y="-6.3456" x="25.699">1</tspan></text>
<text xml:space="preserve" transform="matrix(1.1246464 0 -0 1.0862374 497.71 747.31)" font-size="6.9662" font-family="Times New Roman"><tspan y="-11.728" x="8.32">'</tspan></text>
<text xml:space="preserve" transform="matrix(1.1246464 0 -0 1.0862374 497.71 747.31)" font-size="11.939" font-family="Symbol"><tspan y="-6.3456" x="17.477">&#xf03d;</tspan></text>
</g>
</g>
</g>
<g id="Layer-1" data-name="P">
<clipPath id="cp47795">
<path transform="matrix(1,0,0,-1,0,841.92)" d="M .000008871 0 L 595.32 0 L 595.32 841.92 L .000008871 841.92 Z " fill-rule="evenodd"/>
</clipPath>
<g clip-path="url(#cp47795)">
<text xml:space="preserve" transform="matrix(1 0 -0 1 0 841.92)" font-size="14.04" font-family="Times New Roman"><tspan y="-100.58" x="554.74">.</tspan></text>
</g>
<clipPath id="cp47796">
<path transform="matrix(1,0,0,-1,0,841.92)" d="M .000008871 0 L 595.32 0 L 595.32 841.92 L .000008871 841.92 Z " fill-rule="evenodd"/>
</clipPath>
<g clip-path="url(#cp47796)">
<text xml:space="preserve" transform="matrix(1 0 -0 1 0 841.92)" font-size="14.04" font-family="Times New Roman"><tspan y="-100.58" x="558.22"> </tspan></text>
</g>
</g>
</g>
</g>
</svg>
