<?xml version="1.0" encoding="UTF-8" standalone="no"?>
<!DOCTYPE svg PUBLIC "-//W3C//DTD SVG 1.1//EN" "http://www.w3.org/Graphics/SVG/1.1/DTD/svg11.dtd">
<svg xmlns="http://www.w3.org/2000/svg" xmlns:xlink="http://www.w3.org/1999/xlink" version="1.1" width="595.32pt" height="841.92pt" viewBox="0 0 595.32 841.92">
<g enable-background="new">
<g>
<g id="Layer-1" data-name="Artifact">
<clipPath id="cp48153">
<path transform="matrix(1,0,0,-1,0,841.92)" d="M .000008871 0 L 595.32 0 L 595.32 841.92 L .000008871 841.92 Z " fill-rule="evenodd"/>
</clipPath>
<g clip-path="url(#cp48153)">
<text xml:space="preserve" transform="matrix(1 0 -0 1 0 841.92)" font-size="11.04" font-family="Calibri"><tspan y="-51.864" x="314.09 319.72999 325.36997">293</tspan></text>
</g>
<clipPath id="cp48154">
<path transform="matrix(1,0,0,-1,0,841.92)" d="M .000008871 0 L 595.32 0 L 595.32 841.92 L .000008871 841.92 Z " fill-rule="evenodd"/>
</clipPath>
<g clip-path="url(#cp48154)">
<text xml:space="preserve" transform="matrix(1 0 -0 1 0 841.92)" font-size="11.04" font-family="Calibri"><tspan y="-51.864" x="331.03"> </tspan></text>
</g>
<clipPath id="cp48155">
<path transform="matrix(1,0,0,-1,0,841.92)" d="M .000008871 0 L 595.32 0 L 595.32 841.92 L .000008871 841.92 Z " fill-rule="evenodd"/>
</clipPath>
<g clip-path="url(#cp48155)">
</g>
<clipPath id="cp48156">
<path transform="matrix(1,0,0,-1,0,841.92)" d="M .000008871 0 L 595.32 0 L 595.32 841.92 L .000008871 841.92 Z " fill-rule="evenodd"/>
</clipPath>
<g clip-path="url(#cp48156)">
<text xml:space="preserve" transform="matrix(1 0 -0 1 0 841.92)" font-size="11.04" font-family="Calibri"><tspan y="-38.4" x="85.104"> </tspan></text>
</g>
<clipPath id="cp48157">
<path transform="matrix(1,0,0,-1,0,841.92)" d="M .000008871 0 L 595.32 0 L 595.32 841.92 L .000008871 841.92 Z " fill-rule="evenodd"/>
</clipPath>
<g clip-path="url(#cp48157)">
</g>
</g>
<g id="Layer-1" data-name="P">
<clipPath id="cp48158">
<path transform="matrix(1,0,0,-1,0,841.92)" d="M .000008871 0 L 595.32 0 L 595.32 841.92 L .000008871 841.92 Z " fill-rule="evenodd"/>
</clipPath>
<g clip-path="url(#cp48158)">
<text xml:space="preserve" transform="matrix(1 0 -0 1 0 841.92)" font-size="14.04" font-family="Times New Roman"><tspan y="-772.56" x="85.104 92.166118 99.12995 102.97691 110.03903 116.27279 123.82631 134.51076 140.74452 146.26226 152.49602 156.44126 162.67502 169.63886 173.48581 180.54793 187.61005 195.0372 201.15865 208.22077 214.34221 221.40433 226.80973 230.75496 236.98873 244.41588 251.478 258.5401 263.1031 270.1652 277.59236 284.65446 291.6183 295.5635 299.50874 310.19319 316.42695 320.2739 327.8134 334.8755 338.8207 344.94215 351.90599 355.8512 363.3907 374.07514 380.3089 387.38505 391.232 398.2941 405.3562 412.8957 419.85954 426.92164 431.48463 435.42985 441.55128 448.61338 452.5586 456.0686 463.58003 473.66075 480.62458 486.85835 491.53367 499.0872 507.60948 515.1489 520.6526 526.77407 530.7193 535.2823 542.3444 548.4659 555.528 559.375">holda masalaning cheksiz ko&#x2018;p optimal plani mavjud bo&#x2018;ladi. Agar Z satrdagi </tspan></text>
</g>
<clipPath id="cp48159">
<path transform="matrix(1,0,0,-1,0,841.92)" d="M .000008871 0 L 595.32 0 L 595.32 841.92 L .000008871 841.92 Z " fill-rule="evenodd"/>
</clipPath>
<g clip-path="url(#cp48159)">
<text xml:space="preserve" transform="matrix(1 0 -0 1 0 841.92)" font-size="14.04" font-family="Times New Roman"><tspan y="-748.3" x="85.104 91.33775 95.283 101.516757 112.201198 118.43495 125.51111 129.45635 133.3033 139.53707 144.21239 151.19028 157.42404 164.50022 173.00846 179.97229 186.20606 192.43982">elementlardan hech</tspan></text>
</g>
<clipPath id="cp48160">
<path transform="matrix(1,0,0,-1,0,841.92)" d="M .000008871 0 L 595.32 0 L 595.32 841.92 L .000008871 841.92 Z " fill-rule="evenodd"/>
</clipPath>
<g clip-path="url(#cp48160)">
<text xml:space="preserve" transform="matrix(1 0 -0 1 0 841.92)" font-size="14.04" font-family="Times New Roman"><tspan y="-748.3" x="199.49"> </tspan></text>
</g>
<clipPath id="cp48161">
<path transform="matrix(1,0,0,-1,0,841.92)" d="M .000008871 0 L 595.32 0 L 595.32 841.92 L .000008871 841.92 Z " fill-rule="evenodd"/>
</clipPath>
<g clip-path="url(#cp48161)">
<text xml:space="preserve" transform="matrix(1 0 -0 1 0 841.92)" font-size="14.04" font-family="Times New Roman"><tspan y="-748.3" x="208.01 215.07212 222.13423 226.69724 230.64247 241.32692 247.56069 254.63686 260.8706 267.94676 275.00886 281.2426 289.63856 296.70066 300.5476 304.49284 308.33979 314.57356 319.97895 323.92417 332.54475 343.2292 349.46296 356.5391 361.21443 365.15965 371.9971 380.50535 387.56745 394.62956 399.19255 403.13777 408.64143 414.87519 418.3852 426.86537 433.8292 440.79304 444.73826 448.68348 459.36793 465.60169 469.5469 478.05516 485.11726 489.06248 495.1839 502.246 510.75425 517.7181 524.7802 531.61776 535.563 542.6251 548.8589 555.71047 559.55746">bo&#x2018;lmaganda bittasi manfiy bo&#x2018;lsa, optimal plan quyidagi </tspan></text>
</g>
<clipPath id="cp48162">
<path transform="matrix(1,0,0,-1,0,841.92)" d="M .000008871 0 L 595.32 0 L 595.32 841.92 L .000008871 841.92 Z " fill-rule="evenodd"/>
</clipPath>
<g clip-path="url(#cp48162)">
<text xml:space="preserve" transform="matrix(1 0 -0 1 0 841.92)" font-size="14.04" font-family="Times New Roman"><tspan y="-724.18" x="85.104 91.33775 95.283 102.24683 109.30895 113.871959 117.8172 121.66416 125.609409 136.29386 139.80385 146.82386 153.91407 158.58939 165.4409 169.38614 175.6199 182.69608 188.92984 192.43984 196.25872 203.22255 210.28467 214.13162 218.07686 224.1983 231.26042 235.10738">algoritim bo&#x2018;yicha topiladi:</tspan></text>
</g>
<clipPath id="cp48163">
<path transform="matrix(1,0,0,-1,0,841.92)" d="M .000008871 0 L 595.32 0 L 595.32 841.92 L .000008871 841.92 Z " fill-rule="evenodd"/>
</clipPath>
<g clip-path="url(#cp48163)">
<text xml:space="preserve" transform="matrix(1 0 -0 1 0 841.92)" font-size="14.04" font-family="Times New Roman"><tspan y="-724.18" x="239.09"> </tspan></text>
</g>
</g>
<g id="Layer-1" data-name="P">
<clipPath id="cp48164">
<path transform="matrix(1,0,0,-1,0,841.92)" d="M .000008871 0 L 595.32 0 L 595.32 841.92 L .000008871 841.92 Z " fill-rule="evenodd"/>
</clipPath>
<g clip-path="url(#cp48164)">
<text xml:space="preserve" transform="matrix(1 0 -0 1 0 841.92)" font-size="14.04" font-family="Times New Roman"><tspan y="-700.06" x="85.104"> </tspan></text>
</g>
<clipPath id="cp48165">
<path transform="matrix(1,0,0,-1,0,841.92)" d="M .000008871 0 L 595.32 0 L 595.32 841.92 L .000008871 841.92 Z " fill-rule="evenodd"/>
</clipPath>
<g clip-path="url(#cp48165)">
<text xml:space="preserve" transform="matrix(1 0 -0 1 0 841.92)" font-size="14.04" font-family="Times New Roman"><tspan y="-700.06" x="120.5 127.56212 131.07212 134.52594 144.60666 150.84043 154.78566 158.29566 165.23142 169.07837 173.0236 179.98744 187.04956 193.171 200.23313 204.17836 207.68836 213.78173 217.72696 223.96073 234.64517 240.87894 247.95511 251.80207 258.86418 262.8094 266.16496 270.0119 277.074 284.03785 287.98307 293.38847 300.45057">1. Hal qiluvchi elementni topish.</tspan></text>
</g>
<clipPath id="cp48166">
<path transform="matrix(1,0,0,-1,0,841.92)" d="M .000008871 0 L 595.32 0 L 595.32 841.92 L .000008871 841.92 Z " fill-rule="evenodd"/>
</clipPath>
<g clip-path="url(#cp48166)">
<text xml:space="preserve" transform="matrix(1 0 -0 1 0 841.92)" font-size="14.04" font-family="Times New Roman"><tspan y="-700.06" x="304.01"> </tspan></text>
</g>
</g>
<g id="Layer-1" data-name="P">
<clipPath id="cp48167">
<path transform="matrix(1,0,0,-1,0,841.92)" d="M .000008871 0 L 595.32 0 L 595.32 841.92 L .000008871 841.92 Z " fill-rule="evenodd"/>
</clipPath>
<g clip-path="url(#cp48167)">
<text xml:space="preserve" transform="matrix(1 0 -0 1 0 841.92)" font-size="14.04" font-family="Times New Roman"><tspan y="-675.94" x="85.104"> </tspan></text>
</g>
<clipPath id="cp48168">
<path transform="matrix(1,0,0,-1,0,841.92)" d="M .000008871 0 L 595.32 0 L 595.32 841.92 L .000008871 841.92 Z " fill-rule="evenodd"/>
</clipPath>
<g clip-path="url(#cp48168)">
<text xml:space="preserve" transform="matrix(1 0 -0 1 0 841.92)" font-size="14.04" font-family="Times New Roman"><tspan y="-675.94" x="120.5 127.56212 131.07212 138.09212 141.60211 151.68283 157.80428 161.74951 168.93799 175.90183 179.84706 183.69402 190.65785 197.71997 203.84142 210.90354 214.84877 221.91089 228.87473 234.3784 238.22536 245.28748 252.3496 259.4117 263.25868 270.32078 277.2846 281.13157 285.07679 291.31056 298.27439 302.2196 305.7296 312.89">1.1.Hal qiluvchi ustun topiladi. Z</tspan></text>
</g>
<clipPath id="cp48169">
<path transform="matrix(1,0,0,-1,0,841.92)" d="M .000008871 0 L 595.32 0 L 595.32 841.92 L .000008871 841.92 Z " fill-rule="evenodd"/>
</clipPath>
<g clip-path="url(#cp48169)">
<text xml:space="preserve" transform="matrix(1 0 -0 1 0 841.92)" font-size="14.04" font-family="Times New Roman"><tspan y="-675.94" x="321.67">-</tspan></text>
</g>
<clipPath id="cp48170">
<path transform="matrix(1,0,0,-1,0,841.92)" d="M .000008871 0 L 595.32 0 L 595.32 841.92 L .000008871 841.92 Z " fill-rule="evenodd"/>
</clipPath>
<g clip-path="url(#cp48170)">
<text xml:space="preserve" transform="matrix(1 0 -0 1 0 841.92)" font-size="14.04" font-family="Times New Roman"><tspan y="-675.94" x="326.35 333.31385 339.5476 343.39457 350.45668 355.01966 362.08177 368.2032 375.2653 379.2105 386.399 397.08345 403.3172 410.39335 415.06867 419.0139 425.85136 433.03984 439.2736 443.2188 449.45259 460.13703 466.3708 473.44694 477.29389 481.2391 487.47288 492.03587 499.09797 502.94493 509.90876 516.9709 524.15939 534.84378 541.9059 548.968 555.9319 559.7789">qatordagi manfiy elementlarning modul </tspan></text>
</g>
<clipPath id="cp48171">
<path transform="matrix(1,0,0,-1,0,841.92)" d="M .000008871 0 L 595.32 0 L 595.32 841.92 L .000008871 841.92 Z " fill-rule="evenodd"/>
</clipPath>
<g clip-path="url(#cp48171)">
<text xml:space="preserve" transform="matrix(1 0 -0 1 0 841.92)" font-size="14.04" font-family="Times New Roman"><tspan y="-651.7" x="85.104 92.166118 99.22823 103.79124 110.628719 114.57396 120.80772 127.88387 134.11763 140.95511 147.07656 154.04039 161.10251 167.81363 174.87575 181.10951 184.95647 188.9017 195.02315 200.52683 204.37378 211.19722 215.87255 222.83638 226.78162 230.62857 234.5738 240.80757 247.51869 254.48253 261.54466 266.10765 270.05287 275.55653 281.79029 288.5014 295.5635 300.1265 306.36027 310.30549 314.86848 321.69194 325.53889 331.77265 338.8488 342.69575 348.9295 355.89335 362.1271 369.09095 373.03617 376.54618 383.34156 391.02143 398.08354 405.04737">bo&#x2018;yicha eng kattasi (bitta bo&#x2018;lsa o&#x2018;zi) tanlanadi. Shu </tspan></text>
</g>
<clipPath id="cp48172">
<path transform="matrix(1,0,0,-1,0,841.92)" d="M .000008871 0 L 595.32 0 L 595.32 841.92 L .000008871 841.92 Z " fill-rule="evenodd"/>
</clipPath>
<g clip-path="url(#cp48172)">
<text xml:space="preserve" transform="matrix(1 0 -0 1 0 841.92)" font-size="14.04" font-family="Times New Roman"><tspan y="-651.7" x="412.27 418.50376 422.3507 428.58448 439.26893 445.61503 452.67713 456.52409 463.34754 467.1945 474.2566 478.81959 485.88169 492.11546 499.07929 505.90275 512.8666 518.272 522.2172 529.1811 536.2432 542.95437 550.0165 556.01156 559.8585">element turgan ustun hal </tspan></text>
</g>
<clipPath id="cp48173">
<path transform="matrix(1,0,0,-1,0,841.92)" d="M .000008871 0 L 595.32 0 L 595.32 841.92 L .000008871 841.92 Z " fill-rule="evenodd"/>
</clipPath>
<g clip-path="url(#cp48173)">
<text xml:space="preserve" transform="matrix(1 0 -0 1 0 841.92)" font-size="14.04" font-family="Times New Roman"><tspan y="-627.58" x="85.104 92.166118 96.01308 99.95832 106.92216 113.984279 120.10571 127.06955 131.01479 134.52478 141.46054 146.96422 150.81118 157.77501 164.83713 168.34712 175.28289 182.345 186.908 190.85324 197.087 204.05084 207.99608">qiluvchi ustun bo&#x2018;ladi.</tspan></text>
</g>
<clipPath id="cp48174">
<path transform="matrix(1,0,0,-1,0,841.92)" d="M .000008871 0 L 595.32 0 L 595.32 841.92 L .000008871 841.92 Z " fill-rule="evenodd"/>
</clipPath>
<g clip-path="url(#cp48174)">
<text xml:space="preserve" transform="matrix(1 0 -0 1 0 841.92)" font-size="14.04" font-family="Times New Roman"><tspan y="-627.58" x="211.61"> </tspan></text>
</g>
</g>
<g id="Layer-1" data-name="P">
<clipPath id="cp48175">
<path transform="matrix(1,0,0,-1,0,841.92)" d="M .000008871 0 L 595.32 0 L 595.32 841.92 L .000008871 841.92 Z " fill-rule="evenodd"/>
</clipPath>
<g clip-path="url(#cp48175)">
<text xml:space="preserve" transform="matrix(1 0 -0 1 0 841.92)" font-size="14.04" font-family="Times New Roman"><tspan y="-603.46" x="85.104"> </tspan></text>
</g>
<clipPath id="cp48176">
<path transform="matrix(1,0,0,-1,0,841.92)" d="M .000008871 0 L 595.32 0 L 595.32 841.92 L .000008871 841.92 Z " fill-rule="evenodd"/>
</clipPath>
<g clip-path="url(#cp48176)">
<text xml:space="preserve" transform="matrix(1 0 -0 1 0 841.92)" font-size="14.04" font-family="Times New Roman"><tspan y="-603.46" x="120.5 127.56212 131.07212 138.09212 141.60211 151.68283 157.80428 161.74951 168.81163 175.87375 179.7207 183.66594 190.62978 197.6919 203.81334 210.77718 214.72241 221.78453 227.28821 233.52198 237.36893 241.93193 248.99405 252.93929 260.0014 266.96525 270.8122 274.75743 280.99119 287.95503 291.90025 295.41026 302.4443 312.52503 318.7588 325.72264 332.78474 339.84687 346.90898 353.14274 360.10658 363.95353 370.1873 374.8626 381.93879 388.17256 392.11778 398.35154 409.03599 415.26976 422.3459 426.2911 430.23634 436.4701 441.03309 444.9783 452.04045 459.10255 465.22398 469.1692 476.23133 483.19517 487.14039 490.98735 498.04945 505.01329 511.24705 518.2109 522.1561 529.21829 536.1821 541.6858 545.5328 552.49667 559.4605">1.2.Hal qiluvchi satr topiladi. Ozod hadlar elementlari hal qiluvchi ustun </tspan></text>
</g>
<clipPath id="cp48177">
<path transform="matrix(1,0,0,-1,0,841.92)" d="M .000008871 0 L 595.32 0 L 595.32 841.92 L .000008871 841.92 Z " fill-rule="evenodd"/>
</clipPath>
<g clip-path="url(#cp48177)">
<text xml:space="preserve" transform="matrix(1 0 -0 1 0 841.92)" font-size="14.04" font-family="Times New Roman"><tspan y="-579.34" x="85.104 91.33775 95.283 101.516757 112.201198 118.43495 125.51111 129.45635 133.3033 139.53707 144.21239 148.05934 155.12146 161.35523 166.14286 173.10669 180.16881 184.73181 188.67705 192.524 199.58612 204.37375 210.60752 217.68369 221.53064 228.49448 232.43972 236.28667 242.52043 249.48427 253.4295 258.21717 265.27928 271.51304 276.3007 283.3628 287.308 293.42945 298.10478 305.1809 311.30235 318.36445 323.1521 328.17845 338.86289 345.925 351.42866 358.3925 364.62626 368.4732 372.41844 378.6522 383.21519 387.1604 394.12425 397.9712 405.0333 412.0954 416.88307 423.11683 430.08067 437.14277 441.93043 448.99253 452.93775 459.05918 466.023 469.96824 476.93208 480.8773 485.66496 492.72706 496.574 500.42097 507.48307 513.7168 520.68069 524.6259 528.1359 533.0078 539.84536 546.0791 548.6063 555.5702 559.4172">elementlariga bo&#x2018;lib chiqiladi va ulardan  musbatlarining eng kichigi olinadi, ya'ni </tspan></text>
</g>
<clipPath id="cp48178">
<path transform="matrix(1,0,0,-1,0,841.92)" d="M .000008871 0 L 595.32 0 L 595.32 841.92 L .000008871 841.92 Z " fill-rule="evenodd"/>
</clipPath>
<g clip-path="url(#cp48178)">
<text xml:space="preserve" transform="matrix(1 0 -0 1 0 841.92)" font-size="14.04" font-family="Times New Roman"><tspan y="-555.07" x="85.104 92.166118 96.11136 100.67436 104.521327 111.58344 117.70488 124.767 128.71224 132.4188 139.48091 146.44475 151.94843 158.91226 162.8575 168.97895 175.94278 183.0049 186.85186 193.81569 200.8778 204.71073 211.77285 215.28284 222.30284 226.03748 233.0996 240.06343 247.02727 254.08939 257.93635 261.88157 268.8454 275.07917 282.043 285.98823 289.82115 296.78498 303.01875 309.98258 313.9278 317.4378 321.2286 330.5933 337.6554 341.4883">birinchi bosqichning 1.2 punktidagi kabi. Bu s</tspan></text>
</g>
<clipPath id="cp48179">
<path transform="matrix(1,0,0,-1,0,841.92)" d="M .000008871 0 L 595.32 0 L 595.32 841.92 L .000008871 841.92 Z " fill-rule="evenodd"/>
</clipPath>
<g clip-path="url(#cp48179)">
<text xml:space="preserve" transform="matrix(1 0 -0 1 0 841.92)" font-size="14.04" font-family="Times New Roman"><tspan y="-555.07" x="347.23 354.19386 361.25596 368.31806 374.55183 378.38475 389.06919 396.1313 401.63496 405.46788 412.52998 418.6514 422.49836 429.56047 436.5243 442.64573 449.70783 453.65306 457.35963 464.42173 469.82713 473.67408 480.73619 487.7 494.76213 500.88356 507.94566 511.89088 515.7238 521.8453 525.7905 532.0243 542.7087 548.94247 555.9063 559.7533">onga mos keluvchi ustundagi element </tspan></text>
</g>
<clipPath id="cp48180">
<path transform="matrix(1,0,0,-1,0,841.92)" d="M .000008871 0 L 595.32 0 L 595.32 841.92 L .000008871 841.92 Z " fill-rule="evenodd"/>
</clipPath>
<g clip-path="url(#cp48180)">
<text xml:space="preserve" transform="matrix(1 0 -0 1 0 841.92)" font-size="14.04" font-family="Times New Roman"><tspan y="-530.95" x="85.104 92.166118 98.39987 102.345119 105.700679 112.66451 116.60976 120.45672 127.51884 134.48267 140.71643 147.68027 151.6255 155.1355 161.22887 165.1741 171.40787 182.09232 188.32608 195.40225 199.34749 202.85749 209.87749 216.11125 219.62125 225.02664 231.99048 239.0526 242.56259 248.79636 252.69948 258.93324 269.64576 275.87953 282.95567 286.90089 290.25645 294.20167 301.26377 305.82676 312.88887 319.01029 326.0724 329.5824 335.04396 341.19349 345.1387 349.81404 353.32405 359.4174 364.92106 371.15483 374.66484 381.6006 387.83436 391.77958 395.13514 402.19725 406.0442 409.9894 416.95326 424.01536 430.13679 437.10063 440.94758 444.45759 449.91914 456.1529 460.14024 464.81556 468.18516 475.149 482.2111 486.77409 490.7193 496.95307 503.9169 507.86213">hal qiluvchi element va shu element turgan satr esa hal qiluvchi satr bo&#x2018;ladi.</tspan></text>
</g>
<clipPath id="cp48181">
<path transform="matrix(1,0,0,-1,0,841.92)" d="M .000008871 0 L 595.32 0 L 595.32 841.92 L .000008871 841.92 Z " fill-rule="evenodd"/>
</clipPath>
<g clip-path="url(#cp48181)">
<text xml:space="preserve" transform="matrix(1 0 -0 1 0 841.92)" font-size="14.04" font-family="Times New Roman"><tspan y="-530.95" x="511.66"> </tspan></text>
</g>
</g>
<g id="Layer-1" data-name="P">
<clipPath id="cp48182">
<path transform="matrix(1,0,0,-1,0,841.92)" d="M .000008871 0 L 595.32 0 L 595.32 841.92 L .000008871 841.92 Z " fill-rule="evenodd"/>
</clipPath>
<g clip-path="url(#cp48182)">
<text xml:space="preserve" transform="matrix(1 0 -0 1 0 841.92)" font-size="14.04" font-family="Times New Roman"><tspan y="-506.83" x="85.104"> </tspan></text>
</g>
<clipPath id="cp48183">
<path transform="matrix(1,0,0,-1,0,841.92)" d="M .000008871 0 L 595.32 0 L 595.32 841.92 L .000008871 841.92 Z " fill-rule="evenodd"/>
</clipPath>
<g clip-path="url(#cp48183)">
<text xml:space="preserve" transform="matrix(1 0 -0 1 0 841.92)" font-size="14.04" font-family="Times New Roman"><tspan y="-506.83" x="120.5 127.56212 131.07212 141.12476 147.35852 151.30376 154.65932 161.72144 165.56839 169.51363 176.47747 183.53958 189.66103 196.72315 200.66838 204.02394 209.52762 215.64907 219.5943 224.26963 227.77962 234.71538 240.83683 244.34682 251.36682 256.82838 260.73149 267.75148 274.77146 278.28147 285.34358 289.90657 296.02799 303.0901 309.32386 313.88685 320.94895 328.01106 334.13249 341.0963 345.04154 348.98677 355.1082 359.67118 363.6164 367.1264 374.1464 378.7375 384.97126 388.48127 392.30015 399.36225 406.1997 410.14494 416.3787 421.05403 425.01329 431.9771 435.92234 439.43235 445.5257 449.47093 460.15538 466.38914 471.90684 478.96894 482.91416 486.85939 491.42237 497.65614 504.61997 508.5652">2.Hal qiluvchi satr va ustun o&#x2018;zgaruvchilari o&#x2018;z joylarini almashtiradi.</tspan></text>
</g>
<clipPath id="cp48184">
<path transform="matrix(1,0,0,-1,0,841.92)" d="M .000008871 0 L 595.32 0 L 595.32 841.92 L .000008871 841.92 Z " fill-rule="evenodd"/>
</clipPath>
<g clip-path="url(#cp48184)">
<text xml:space="preserve" transform="matrix(1 0 -0 1 0 841.92)" font-size="14.04" font-family="Times New Roman"><tspan y="-506.83" x="512.38"> </tspan></text>
</g>
</g>
<g id="Layer-1" data-name="P">
<clipPath id="cp48185">
<path transform="matrix(1,0,0,-1,0,841.92)" d="M .000008871 0 L 595.32 0 L 595.32 841.92 L .000008871 841.92 Z " fill-rule="evenodd"/>
</clipPath>
<g clip-path="url(#cp48185)">
<text xml:space="preserve" transform="matrix(1 0 -0 1 0 841.92)" font-size="14.04" font-family="Times New Roman"><tspan y="-482.71" x="85.104"> </tspan></text>
</g>
<clipPath id="cp48186">
<path transform="matrix(1,0,0,-1,0,841.92)" d="M .000008871 0 L 595.32 0 L 595.32 841.92 L .000008871 841.92 Z " fill-rule="evenodd"/>
</clipPath>
<g clip-path="url(#cp48186)">
<text xml:space="preserve" transform="matrix(1 0 -0 1 0 841.92)" font-size="14.04" font-family="Times New Roman"><tspan y="-482.71" x="120.5 127.56212 131.07212 136.53368 142.6832 149.64704 156.70915 162.94292 166.78987 173.85199 179.97344 192.20227 197.60767 201.5529 212.23735 219.29947 223.2447 229.47847 236.4423 241.8477 254.07654 260.3103 264.25553 274.93998 281.17375 286.69145 293.75355 297.6005 301.54573 306.1087 310.05393 315.45933 322.52143 334.6239 341.686 347.91978 351.76673 358.0005 362.56349 366.5087 370.45393 376.57536 383.53919 387.4844 390.99443 403.1952 411.00144 414.94667 425.6311 432.6932 436.63844 442.75987 449.82197 455.22737 467.4562 473.68998 477.53694 488.33369 494.56745 500.08515 507.14726 510.9942 514.93948 519.50247 523.4477 528.8531">3.Jadvalda simpleks almashtirish bajariladi. Simpleks almashtirish</tspan></text>
</g>
<clipPath id="cp48187">
<path transform="matrix(1,0,0,-1,0,841.92)" d="M .000008871 0 L 595.32 0 L 595.32 841.92 L .000008871 841.92 Z " fill-rule="evenodd"/>
</clipPath>
<g clip-path="url(#cp48187)">
<text xml:space="preserve" transform="matrix(1 0 -0 1 0 841.92)" font-size="14.04" font-family="Times New Roman"><tspan y="-482.71" x="536.38"> </tspan></text>
</g>
<clipPath id="cp48188">
<path transform="matrix(1,0,0,-1,0,841.92)" d="M .000008871 0 L 595.32 0 L 595.32 841.92 L .000008871 841.92 Z " fill-rule="evenodd"/>
</clipPath>
<g clip-path="url(#cp48188)">
<text xml:space="preserve" transform="matrix(1 0 -0 1 0 841.92)" font-size="14.04" font-family="Times New Roman"><tspan y="-482.71" x="548.5">1</tspan></text>
</g>
<clipPath id="cp48189">
<path transform="matrix(1,0,0,-1,0,841.92)" d="M .000008871 0 L 595.32 0 L 595.32 841.92 L .000008871 841.92 Z " fill-rule="evenodd"/>
</clipPath>
<g clip-path="url(#cp48189)">
<text xml:space="preserve" transform="matrix(1 0 -0 1 0 841.92)" font-size="14.04" font-family="Times New Roman"><tspan y="-482.71" x="555.46">-</tspan></text>
</g>
<clipPath id="cp48190">
<path transform="matrix(1,0,0,-1,0,841.92)" d="M .000008871 0 L 595.32 0 L 595.32 841.92 L .000008871 841.92 Z " fill-rule="evenodd"/>
</clipPath>
<g clip-path="url(#cp48190)">
<text xml:space="preserve" transform="matrix(1 0 -0 1 0 841.92)" font-size="14.04" font-family="Times New Roman"><tspan y="-482.71" x="560.02"> </tspan></text>
</g>
<clipPath id="cp48191">
<path transform="matrix(1,0,0,-1,0,841.92)" d="M .000008871 0 L 595.32 0 L 595.32 841.92 L .000008871 841.92 Z " fill-rule="evenodd"/>
</clipPath>
<g clip-path="url(#cp48191)">
<text xml:space="preserve" transform="matrix(1 0 -0 1 0 841.92)" font-size="14.04" font-family="Times New Roman"><tspan y="-458.47" x="85.104 92.166118 99.12995 104.535358 111.59747 115.54272 121.664157 128.62799 135.69011 141.81156 148.87368 152.81891 156.17447 163.23659 166.74658 173.76659 177.27658 180.78658 187.80658 191.19022 198.25234 201.76233 205.0898 212.15192 215.66191 222.68192 226.19191 229.7019 236.72191 240.10555 247.16767 250.67766 257.61344 264.57728 271.63938 278.6032 282.45018 286.3954 292.62916 297.30448 300.81449 307.75025 313.984 320.94786 324.7948 328.3048 335.3248 341.55857 345.46168 351.69544 356.37077 360.18965 364.13487 370.2563 377.3184 381.2636 384.77363">bosqichdagi 3.1, 3.2, 3.3, 3.4 punktlar kabi bajariladi. </tspan></text>
</g>
<clipPath id="cp48192">
<path transform="matrix(1,0,0,-1,0,841.92)" d="M .000008871 0 L 595.32 0 L 595.32 841.92 L .000008871 841.92 Z " fill-rule="evenodd"/>
</clipPath>
<g clip-path="url(#cp48192)">
<text xml:space="preserve" transform="matrix(1 0 -0 1 0 841.92)" font-size="14.04" font-family="Times New Roman"><tspan y="-458.47" x="388.39"> </tspan></text>
</g>
</g>
<g id="Layer-1" data-name="P">
<clipPath id="cp48193">
<path transform="matrix(1,0,0,-1,0,841.92)" d="M .000008871 0 L 595.32 0 L 595.32 841.92 L .000008871 841.92 Z " fill-rule="evenodd"/>
</clipPath>
<g clip-path="url(#cp48193)">
<text xml:space="preserve" transform="matrix(1 0 -0 1 0 841.92)" font-size="14.04" font-family="Times New Roman"><tspan y="-434.35" x="85.104"> </tspan></text>
</g>
<clipPath id="cp48194">
<path transform="matrix(1,0,0,-1,0,841.92)" d="M .000008871 0 L 595.32 0 L 595.32 841.92 L .000008871 841.92 Z " fill-rule="evenodd"/>
</clipPath>
<g clip-path="url(#cp48194)">
<text xml:space="preserve" transform="matrix(1 0 -0 1 0 841.92)" font-size="14.04" font-family="Times New Roman"><tspan y="-434.35" x="120.5 127.56212 131.07212 141.12476 147.35852 154.32236 161.38448 165.32971 173.83795 177.78319 184.74703 191.71086 195.6561 199.50305 206.56517 212.68662 219.74874 228.3693 232.21625 238.45001 245.52619 252.49002 258.7238 262.57075 269.63285 273.4798 280.44364 287.50575 296.1263 304.6486 313.26918 318.77284 325.0066 328.85356 333.52888 337.4741 345.98234 353.04444 359.16587 363.8412 370.07496 374.0342 380.15565 387.21775 391.16297 394.67298 403.26548 413.3462 420.31004 426.5438 431.21913 439.85374 448.376 456.99659 464.0587 470.1801 474.12535 481.08918 485.7645 492.84065 498.96208 506.02418 509.9694 518.4776 525.53976 531.7735 542.5843 553.2687 559.50247">4.Yangi topilgan jadvalning Z satri qaraladi. Agar Z qatordagi hamma </tspan></text>
</g>
<clipPath id="cp48195">
<path transform="matrix(1,0,0,-1,0,841.92)" d="M .000008871 0 L 595.32 0 L 595.32 841.92 L .000008871 841.92 Z " fill-rule="evenodd"/>
</clipPath>
<g clip-path="url(#cp48195)">
<text xml:space="preserve" transform="matrix(1 0 -0 1 0 841.92)" font-size="14.04" font-family="Times New Roman"><tspan y="-410.23" x="85.104 91.33775 95.283 101.516757 112.201198 118.43495 125.51111 129.45635 133.3033 139.53707 144.21239 148.0453 158.72975 165.79187 171.29555 178.35767 184.47911 188.42435 192.1309 199.09474 206.05858 210.62158 214.56682 220.0705 226.30426 229.81426 233.49274 240.55486 244.40181 248.34705 255.31089 262.373 268.49443 275.55653 279.2631 286.22694 293.28904 297.23426 301.79725 308.76109 312.7063 316.41288 323.47499 327.32194 333.5557 340.63185 344.3384 355.02287 361.25663 366.77433 373.0081 376.9533 383.18708 390.1509 394.09614 401.05998 408.12208 411.82865 418.79249 425.85459 429.70155 433.64677 444.4435 450.67729 454.6225 458.32908 465.39118 469.23814 475.4719 482.43574 486.38096 490.08753 497.05137 504.11347 508.67646 512.6217 518.85549 525.81936 529.7646 533.2746 536.95309 547.0338 553.9977 559.4031">elementlar musbat bo&#x2018;lsa, olingan oxirgi plan masalaning optimal plani bo&#x2018;ladi. Aks </tspan></text>
</g>
<clipPath id="cp48196">
<path transform="matrix(1,0,0,-1,0,841.92)" d="M .000008871 0 L 595.32 0 L 595.32 841.92 L .000008871 841.92 Z " fill-rule="evenodd"/>
</clipPath>
<g clip-path="url(#cp48196)">
<text xml:space="preserve" transform="matrix(1 0 -0 1 0 841.92)" font-size="14.04" font-family="Times New Roman"><tspan y="-386.09" x="85.104 92.166118 99.12995 102.97691 110.03903 116.27279 119.78279 126.592189 133.6543 140.71642 147.77854 152.34154 156.18849 163.25061 169.37206 176.43418 180.37941 183.73497 190.79709 194.30709 201.32709 204.71073 211.77285 215.28284 222.2186 229.28072 236.24456 243.20839 247.15363 251.00058 257.23435 261.90968 265.41969 272.2431 278.47688 285.553 291.78678 295.29679 299.1999 305.34944">holda yuqoridagi 1,2,3 punktlar yana tak</tspan></text>
</g>
<clipPath id="cp48197">
<path transform="matrix(1,0,0,-1,0,841.92)" d="M .000008871 0 L 595.32 0 L 595.32 841.92 L .000008871 841.92 Z " fill-rule="evenodd"/>
</clipPath>
<g clip-path="url(#cp48197)">
<text xml:space="preserve" transform="matrix(1 0 -0 1 0 841.92)" font-size="14.04" font-family="Times New Roman"><tspan y="-386.09" x="312.65 317.32533 324.28916 328.96449 332.9097 339.03114 346.09324 352.327 359.29084 363.23606 366.74607 370.19993 374.04689 381.0107 388.0728 392.01805 395.3736 402.4357 409.39955 413.2465 417.1917 427.87617 434.10993 438.05516 441.63536 448.69746 452.64268 458.7641 465.8262 469.18177 473.12699 480.09083 487.15293 490.99989 494.84684 501.90895 508.87278 515.9349 522.05636 529.11849 535.35226">rorlanadi, toki optimal plan topilguncha.</tspan></text>
</g>
<clipPath id="cp48198">
<path transform="matrix(1,0,0,-1,0,841.92)" d="M .000008871 0 L 595.32 0 L 595.32 841.92 L .000008871 841.92 Z " fill-rule="evenodd"/>
</clipPath>
<g clip-path="url(#cp48198)">
<text xml:space="preserve" transform="matrix(1 0 -0 1 0 841.92)" font-size="14.04" font-family="Times New Roman"><tspan y="-386.09" x="539.02"> </tspan></text>
</g>
</g>
<g id="Layer-1" data-name="P">
<clipPath id="cp48199">
<path transform="matrix(1,0,0,-1,0,841.92)" d="M .000008871 0 L 595.32 0 L 595.32 841.92 L .000008871 841.92 Z " fill-rule="evenodd"/>
</clipPath>
<g clip-path="url(#cp48199)">
<text xml:space="preserve" transform="matrix(1 0 -0 1 0 841.92)" font-size="14.04" font-family="Times New Roman"><tspan y="-361.97" x="85.104"> </tspan></text>
</g>
<clipPath id="cp48200">
<path transform="matrix(1,0,0,-1,0,841.92)" d="M .000008871 0 L 595.32 0 L 595.32 841.92 L .000008871 841.92 Z " fill-rule="evenodd"/>
</clipPath>
<g clip-path="url(#cp48200)">
<text xml:space="preserve" transform="matrix(1 0 -0 1 0 841.92)" font-size="14.04" font-family="Times New Roman"><tspan y="-361.97" x="120.5 125.17532 131.40909 138.38698 145.4491 149.39434 152.97454 162.21286 169.27498 173.12194 179.3557 183.20265 190.26477 194.11173 198.05696 201.63716 208.601 214.83477 220.24016 224.08712 231.14923 235.82456 239.67151 245.90528 251.423 258.4851 262.0653 272.74977 278.98353 284.50123 290.735 294.6802 300.80165 306.3053 310.15226 317.21437 323.44813 326.95814 330.5243 336.64573 343.70783 349.9416 354.6169 358.12693 368.90965 375.1434 382.21955 387.7232 393.84465 400.90675 404.48695 409.16227 416.1261 423.1882 430.15205 435.55744 439.50267 446.34013 452.57389 458.09159 462.0368 469.00065 472.8476 479.81144 486.87355 490.45375 494.03395 497.61415 501.3207 512.0051 515.9504 523.0125 530.07467 540.75906 544.8306 555.515 559.46029">Izoh: Chiziqli dasturlash masalasida, agar maqsad funksiyasining    minumimi </tspan></text>
</g>
<clipPath id="cp48201">
<path transform="matrix(1,0,0,-1,0,841.92)" d="M .000008871 0 L 595.32 0 L 595.32 841.92 L .000008871 841.92 Z " fill-rule="evenodd"/>
</clipPath>
<g clip-path="url(#cp48201)">
<text xml:space="preserve" transform="matrix(1 0 -0 1 0 841.92)" font-size="14.04" font-family="Times New Roman"><tspan y="-337.73" x="85.104 89.04924 95.283 99.12996 105.363719 112.32755 117.83124 124.064998 128.1366 134.97408 142.0362 149.09832 156.06215 160.73748 164.58443 171.64655 177.76799 184.83011 188.77535 192.72058">izlansa yuqoridagi 1</tspan></text>
</g>
<clipPath id="cp48202">
<path transform="matrix(1,0,0,-1,0,841.92)" d="M .000008871 0 L 595.32 0 L 595.32 841.92 L .000008871 841.92 Z " fill-rule="evenodd"/>
</clipPath>
<g clip-path="url(#cp48202)">
<text xml:space="preserve" transform="matrix(1 0 -0 1 0 841.92)" font-size="14.04" font-family="Times New Roman"><tspan y="-337.73" x="199.97">-</tspan></text>
</g>
<clipPath id="cp48203">
<path transform="matrix(1,0,0,-1,0,841.92)" d="M .000008871 0 L 595.32 0 L 595.32 841.92 L .000008871 841.92 Z " fill-rule="evenodd"/>
</clipPath>
<g clip-path="url(#cp48203)">
<text xml:space="preserve" transform="matrix(1 0 -0 1 0 841.92)" font-size="14.04" font-family="Times New Roman"><tspan y="-337.73" x="204.53 210.76377 217.83994 221.78517 225.73041 232.79253 239.75637 245.16176 252.22388 256.07084 262.3046 269.38075 273.45237 277.29933 284.36143 288.9244 292.86964 296.71659 303.7787 308.34169 312.2869 318.40834 325.37217 331.60594 335.67756 342.73966 347.30265 351.97798 355.9232 362.88703 366.83226 370.77748 374.72273 381.78483 388.84693 393.4099 397.25688 401.2021 408.2642 411.7742 415.80369">chi bosqich to&#x2018;lig&#x2018;icha o&#x2018;rinli bo&#x2018;lib, 2</tspan></text>
</g>
<clipPath id="cp48204">
<path transform="matrix(1,0,0,-1,0,841.92)" d="M .000008871 0 L 595.32 0 L 595.32 841.92 L .000008871 841.92 Z " fill-rule="evenodd"/>
</clipPath>
<g clip-path="url(#cp48204)">
<text xml:space="preserve" transform="matrix(1 0 -0 1 0 841.92)" font-size="14.04" font-family="Times New Roman"><tspan y="-337.73" x="423.07">-</tspan></text>
</g>
<clipPath id="cp48205">
<path transform="matrix(1,0,0,-1,0,841.92)" d="M .000008871 0 L 595.32 0 L 595.32 841.92 L .000008871 841.92 Z " fill-rule="evenodd"/>
</clipPath>
<g clip-path="url(#cp48205)">
<text xml:space="preserve" transform="matrix(1 0 -0 1 0 841.92)" font-size="14.04" font-family="Times New Roman"><tspan y="-337.73" x="427.75 434.71385 441.77595 447.18135 454.24345 458.18867 464.3101 471.27394 478.33604 484.5698 488.64143 494.87519 500.28059 506.51435 510.58598 515.2613 521.49508 528.47299 534.7067 538.652 542.7236 551.24588">bosqichda esa faqat Z </tspan></text>
</g>
<clipPath id="cp48206">
<path transform="matrix(1,0,0,-1,0,841.92)" d="M .000008871 0 L 595.32 0 L 595.32 841.92 L .000008871 841.92 Z " fill-rule="evenodd"/>
</clipPath>
<g clip-path="url(#cp48206)">
<text xml:space="preserve" transform="matrix(1 0 -0 1 0 841.92)" font-size="14.04" font-family="Times New Roman"><tspan y="-337.73" x="555.46">-</tspan></text>
</g>
<clipPath id="cp48207">
<path transform="matrix(1,0,0,-1,0,841.92)" d="M .000008871 0 L 595.32 0 L 595.32 841.92 L .000008871 841.92 Z " fill-rule="evenodd"/>
</clipPath>
<g clip-path="url(#cp48207)">
<text xml:space="preserve" transform="matrix(1 0 -0 1 0 841.92)" font-size="14.04" font-family="Times New Roman"><tspan y="-313.61" x="85.104 92.166118 98.39987 102.24683 109.30895 113.984279 117.49428 123.58763 127.532878 133.76663 144.45108 150.68485 157.76102 161.70626 165.5532 171.78697 176.4623 180.42159 183.93158 194.58795 200.82172 207.89789 212.57321 216.51845 223.35593 226.86592 233.88593 240.90593 244.80905 250.95858 254.90381 261.9659 268.19969 271.7097 275.0512 282.1133 288.23475 292.17997 296.02693 299.97215 304.64747 308.49443 312.34138 316.2866 321.692 328.7541 332.6993 336.05488 343.11698 349.35075">qator elementlari manfiy holatga  keltirilishi ker</tspan></text>
</g>
<clipPath id="cp48208">
<path transform="matrix(1,0,0,-1,0,841.92)" d="M .000008871 0 L 595.32 0 L 595.32 841.92 L .000008871 841.92 Z " fill-rule="evenodd"/>
</clipPath>
<g clip-path="url(#cp48208)">
<text xml:space="preserve" transform="matrix(1 0 -0 1 0 841.92)" font-size="14.04" font-family="Times New Roman"><tspan y="-313.61" x="354.31 360.43144 367.49354 371.00355 374.4574 381.29487 387.52864 390.05583 397.11793 401.06315 404.57316 408.47627 414.6258 420.0312 427.0933 433.32707 437.89006 441.737 445.247 452.267 459.287 463.1901 469.33964 473.28486 476.79487 483.73063 490.79273 495.3557 499.30094 505.5347 512.49856 516.4438">ak, ya'ni teskari holat bo&#x2018;ladi.</tspan></text>
</g>
<clipPath id="cp48209">
<path transform="matrix(1,0,0,-1,0,841.92)" d="M .000008871 0 L 595.32 0 L 595.32 841.92 L .000008871 841.92 Z " fill-rule="evenodd"/>
</clipPath>
<g clip-path="url(#cp48209)">
<text xml:space="preserve" transform="matrix(1 0 -0 1 0 841.92)" font-size="14.04" font-family="Times New Roman"><tspan y="-313.61" x="519.94"> </tspan></text>
</g>
</g>
<g id="Layer-1" data-name="P">
<clipPath id="cp48210">
<path transform="matrix(1,0,0,-1,0,841.92)" d="M .000008871 0 L 595.32 0 L 595.32 841.92 L .000008871 841.92 Z " fill-rule="evenodd"/>
</clipPath>
<g clip-path="url(#cp48210)">
<text xml:space="preserve" transform="matrix(1 0 -0 1 0 841.92)" font-size="14.04" font-family="Times New Roman"><tspan y="-289.49" x="85.104 88.584 92.064">   </tspan></text>
</g>
<clipPath id="cp48211">
<path transform="matrix(1,0,0,-1,0,841.92)" d="M .000008871 0 L 595.32 0 L 595.32 841.92 L .000008871 841.92 Z " fill-rule="evenodd"/>
</clipPath>
<g clip-path="url(#cp48211)">
<text xml:space="preserve" transform="matrix(1 0 -0 1 0 841.92)" font-size="14.04" font-family="Times New Roman"><tspan y="-289.49" x="95.544">1</tspan></text>
</g>
<clipPath id="cp48212">
<path transform="matrix(1,0,0,-1,0,841.92)" d="M .000008871 0 L 595.32 0 L 595.32 841.92 L .000008871 841.92 Z " fill-rule="evenodd"/>
</clipPath>
<g clip-path="url(#cp48212)">
<text xml:space="preserve" transform="matrix(1 0 -0 1 0 841.92)" font-size="14.04" font-family="Times New Roman"><tspan y="-289.49" x="102.62">-</tspan></text>
</g>
<clipPath id="cp48213">
<path transform="matrix(1,0,0,-1,0,841.92)" d="M .000008871 0 L 595.32 0 L 595.32 841.92 L .000008871 841.92 Z " fill-rule="evenodd"/>
</clipPath>
<g clip-path="url(#cp48213)">
<text xml:space="preserve" transform="matrix(1 0 -0 1 0 841.92)" font-size="14.04" font-family="Times New Roman"><tspan y="-289.49" x="107.3 117.98444 121.92969 127.43337 134.49549">misol</tspan></text>
</g>
<clipPath id="cp48214">
<path transform="matrix(1,0,0,-1,0,841.92)" d="M .000008871 0 L 595.32 0 L 595.32 841.92 L .000008871 841.92 Z " fill-rule="evenodd"/>
</clipPath>
<g clip-path="url(#cp48214)">
<text xml:space="preserve" transform="matrix(1 0 -0 1 0 841.92)" font-size="14.04" font-family="Times New Roman"><tspan y="-289.49" x="138.38"> </tspan></text>
</g>
</g>
<g id="Layer-1" data-name="P">
<clipPath id="cp48215">
<path transform="matrix(1,0,0,-1,0,841.92)" d="M .000008871 0 L 595.32 0 L 595.32 841.92 L .000008871 841.92 Z " fill-rule="evenodd"/>
</clipPath>
<g clip-path="url(#cp48215)">
<text xml:space="preserve" transform="matrix(1 0 -0 1 0 841.92)" font-size="14.04" font-family="Times New Roman"><tspan y="-265.37" x="267.41 270.89 274.37004 277.85005 281.33006 284.81007 288.29008 291.77009 295.36244 298.84245">          </tspan></text>
</g>
<clipPath id="cp48216">
<path transform="matrix(1,0,0,-1,0,841.92)" d="M .000008871 0 L 595.32 0 L 595.32 841.92 L .000008871 841.92 Z " fill-rule="evenodd"/>
</clipPath>
<g clip-path="url(#cp48216)">
<text xml:space="preserve" transform="matrix(1 0 -0 1 0 841.92)" font-size="14.04" font-family="Times New Roman"><tspan y="-265.37" x="302.33 308.56376 316.4823 323.55845">z=5x</tspan></text>
</g>
<clipPath id="cp48217">
<path transform="matrix(1,0,0,-1,0,841.92)" d="M .000008871 0 L 595.32 0 L 595.32 841.92 L .000008871 841.92 Z " fill-rule="evenodd"/>
</clipPath>
<g clip-path="url(#cp48217)">
<text xml:space="preserve" transform="matrix(1 0 -0 1 0 841.92)" font-size="9" font-family="Times New Roman"><tspan y="-263.81" x="330.55">1</tspan></text>
</g>
<clipPath id="cp48218">
<path transform="matrix(1,0,0,-1,0,841.92)" d="M .000008871 0 L 595.32 0 L 595.32 841.92 L .000008871 841.92 Z " fill-rule="evenodd"/>
</clipPath>
<g clip-path="url(#cp48218)">
<text xml:space="preserve" transform="matrix(1 0 -0 1 0 841.92)" font-size="14.04" font-family="Times New Roman"><tspan y="-265.37" x="335.11">-</tspan></text>
</g>
<clipPath id="cp48219">
<path transform="matrix(1,0,0,-1,0,841.92)" d="M .000008871 0 L 595.32 0 L 595.32 841.92 L .000008871 841.92 Z " fill-rule="evenodd"/>
</clipPath>
<g clip-path="url(#cp48219)">
<text xml:space="preserve" transform="matrix(1 0 -0 1 0 841.92)" font-size="14.04" font-family="Times New Roman"><tspan y="-265.37" x="339.79">x</tspan></text>
</g>
<clipPath id="cp48220">
<path transform="matrix(1,0,0,-1,0,841.92)" d="M .000008871 0 L 595.32 0 L 595.32 841.92 L .000008871 841.92 Z " fill-rule="evenodd"/>
</clipPath>
<g clip-path="url(#cp48220)">
<text xml:space="preserve" transform="matrix(1 0 -0 1 0 841.92)" font-size="9" font-family="Times New Roman"><tspan y="-263.81" x="346.75">2</tspan></text>
</g>
<clipPath id="cp48221">
<path transform="matrix(1,0,0,-1,0,841.92)" d="M .000008871 0 L 595.32 0 L 595.32 841.92 L .000008871 841.92 Z " fill-rule="evenodd"/>
</clipPath>
<g clip-path="url(#cp48221)">
<text xml:space="preserve" transform="matrix(1 0 -0 1 0 841.92)" font-size="14.04" font-family="Times New Roman"><tspan y="-265.37" x="351.31 359.1162 366.1783">+3x</tspan></text>
</g>
<clipPath id="cp48222">
<path transform="matrix(1,0,0,-1,0,841.92)" d="M .000008871 0 L 595.32 0 L 595.32 841.92 L .000008871 841.92 Z " fill-rule="evenodd"/>
</clipPath>
<g clip-path="url(#cp48222)">
<text xml:space="preserve" transform="matrix(1 0 -0 1 0 841.92)" font-size="9" font-family="Times New Roman"><tspan y="-263.81" x="373.15">3</tspan></text>
</g>
<clipPath id="cp48223">
<path transform="matrix(1,0,0,-1,0,841.92)" d="M .000008871 0 L 595.32 0 L 595.32 841.92 L .000008871 841.92 Z " fill-rule="evenodd"/>
</clipPath>
<g clip-path="url(#cp48223)">
<text xml:space="preserve" transform="matrix(1 0 -0 1 0 841.92)" font-size="9" font-family="Times New Roman"><tspan y="-263.81" x="377.59"> </tspan></text>
</g>
</g>
<g id="Layer-1" data-name="P">
<clipPath id="cp48224">
<path transform="matrix(1,0,0,-1,0,841.92)" d="M .000008871 0 L 595.32 0 L 595.32 841.92 L .000008871 841.92 Z " fill-rule="evenodd"/>
</clipPath>
<g clip-path="url(#cp48224)">
<text xml:space="preserve" transform="matrix(1 0 -0 1 0 841.92)" font-size="14.04" font-family="Times New Roman"><tspan y="-241.13" x="85.104 91.33775 98.41391 102.26087 108.49463 112.34159 119.30543 123.25067 127.195919 130.70592 135.24085 142.30297 149.2668 156.23064 161.73432 165.67955 172.51703 178.7508 185.82697 192.06073 195.57073 206.35346 212.58722 219.66339 225.06879 229.01403 239.69847 246.88697 257.5714 261.08143 268.1014 272.0747 279.03855 289.8353 296.06907 300.01429 303.5243 310.54429 316.77806 321.36915 328.33299 335.39509 341.5165 348.5786">chiziqli funksiyaga maksimum qiymat beruvchi</tspan></text>
</g>
<clipPath id="cp48225">
<path transform="matrix(1,0,0,-1,0,841.92)" d="M .000008871 0 L 595.32 0 L 595.32 841.92 L .000008871 841.92 Z " fill-rule="evenodd"/>
</clipPath>
<g clip-path="url(#cp48225)">
<text xml:space="preserve" transform="matrix(1 0 -0 1 0 841.92)" font-size="14.04" font-family="Times New Roman"><tspan y="-241.13" x="352.63"> </tspan></text>
</g>
</g>
<g id="Layer-1" data-name="P">
<clipPath id="cp48226">
<path transform="matrix(1,0,0,-1,0,841.92)" d="M .000008871 0 L 595.32 0 L 595.32 841.92 L .000008871 841.92 Z " fill-rule="evenodd"/>
</clipPath>
<g clip-path="url(#cp48226)">
<text xml:space="preserve" transform="matrix(1 0 -0 1 0 841.92)" font-size="14.04" font-family="Times New Roman,Italic" font-style="italic"><tspan y="-216.98" x="290.21">x</tspan></text>
</g>
<clipPath id="cp48227">
<path transform="matrix(1,0,0,-1,0,841.92)" d="M .000008871 0 L 595.32 0 L 595.32 841.92 L .000008871 841.92 Z " fill-rule="evenodd"/>
</clipPath>
<g clip-path="url(#cp48227)">
<text xml:space="preserve" transform="matrix(1 0 -0 1 0 841.92)" font-size="9" font-family="Times New Roman,Italic" font-style="italic"><tspan y="-215.42" x="296.45">1</tspan></text>
</g>
<clipPath id="cp48228">
<path transform="matrix(1,0,0,-1,0,841.92)" d="M .000008871 0 L 595.32 0 L 595.32 841.92 L .000008871 841.92 Z " fill-rule="evenodd"/>
</clipPath>
<g clip-path="url(#cp48228)">
<text xml:space="preserve" transform="matrix(1 0 -0 1 0 841.92)" font-size="14.04" font-family="Times New Roman,Italic" font-style="italic"><tspan y="-216.98" x="301.01 310.49003">+x</tspan></text>
</g>
<clipPath id="cp48229">
<path transform="matrix(1,0,0,-1,0,841.92)" d="M .000008871 0 L 595.32 0 L 595.32 841.92 L .000008871 841.92 Z " fill-rule="evenodd"/>
</clipPath>
<g clip-path="url(#cp48229)">
<text xml:space="preserve" transform="matrix(1 0 -0 1 0 841.92)" font-size="9" font-family="Times New Roman,Italic" font-style="italic"><tspan y="-215.42" x="316.63">2</tspan></text>
</g>
<clipPath id="cp48230">
<path transform="matrix(1,0,0,-1,0,841.92)" d="M .000008871 0 L 595.32 0 L 595.32 841.92 L .000008871 841.92 Z " fill-rule="evenodd"/>
</clipPath>
<g clip-path="url(#cp48230)">
<text xml:space="preserve" transform="matrix(1 0 -0 1 0 841.92)" font-size="14.04" font-family="Times New Roman,Italic" font-style="italic"><tspan y="-216.98" x="321.19 330.67">+x</tspan></text>
</g>
<clipPath id="cp48231">
<path transform="matrix(1,0,0,-1,0,841.92)" d="M .000008871 0 L 595.32 0 L 595.32 841.92 L .000008871 841.92 Z " fill-rule="evenodd"/>
</clipPath>
<g clip-path="url(#cp48231)">
<text xml:space="preserve" transform="matrix(1 0 -0 1 0 841.92)" font-size="9" font-family="Times New Roman,Italic" font-style="italic"><tspan y="-215.42" x="336.79">3</tspan></text>
</g>
<clipPath id="cp48232">
<path transform="matrix(1,0,0,-1,0,841.92)" d="M .000017745 0 L 595.32 0 L 595.32 841.92 L .000017745 841.92 Z " fill-rule="evenodd"/>
</clipPath>
<g clip-path="url(#cp48232)">
<text xml:space="preserve" transform="matrix(1 0 -.3333 1 0 841.92)" font-size="12" font-family="Symbol"><tspan y="-216.98" x="268.91059">&#xf0a3;</tspan></text>
</g>
<clipPath id="cp48233">
<path transform="matrix(1,0,0,-1,0,841.92)" d="M .000008871 0 L 595.32 0 L 595.32 841.92 L .000008871 841.92 Z " fill-rule="evenodd"/>
</clipPath>
<g clip-path="url(#cp48233)">
<text xml:space="preserve" transform="matrix(1 0 -0 1 0 841.92)" font-size="14.04" font-family="Times New Roman,Italic" font-style="italic"><tspan y="-216.98" x="347.83">2</tspan></text>
</g>
<clipPath id="cp48234">
<path transform="matrix(1,0,0,-1,0,841.92)" d="M .000008871 0 L 595.32 0 L 595.32 841.92 L .000008871 841.92 Z " fill-rule="evenodd"/>
</clipPath>
<g clip-path="url(#cp48234)">
<text xml:space="preserve" transform="matrix(1 0 -0 1 0 841.92)" font-size="14.04" font-family="Times New Roman,Italic" font-style="italic"><tspan y="-216.98" x="354.91"> </tspan></text>
</g>
</g>
<g id="Layer-1" data-name="P">
<clipPath id="cp48235">
<path transform="matrix(1,0,0,-1,0,841.92)" d="M .000008871 0 L 595.32 0 L 595.32 841.92 L .000008871 841.92 Z " fill-rule="evenodd"/>
</clipPath>
<g clip-path="url(#cp48235)">
<text xml:space="preserve" transform="matrix(1 0 -0 1 0 841.92)" font-size="14.04" font-family="Times New Roman,Italic" font-style="italic"><tspan y="-192.86" x="283.25 290.33">4x</tspan></text>
</g>
<clipPath id="cp48236">
<path transform="matrix(1,0,0,-1,0,841.92)" d="M .000008871 0 L 595.32 0 L 595.32 841.92 L .000008871 841.92 Z " fill-rule="evenodd"/>
</clipPath>
<g clip-path="url(#cp48236)">
<text xml:space="preserve" transform="matrix(1 0 -0 1 0 841.92)" font-size="9" font-family="Times New Roman,Italic" font-style="italic"><tspan y="-191.3" x="296.57">1</tspan></text>
</g>
<clipPath id="cp48237">
<path transform="matrix(1,0,0,-1,0,841.92)" d="M .000008871 0 L 595.32 0 L 595.32 841.92 L .000008871 841.92 Z " fill-rule="evenodd"/>
</clipPath>
<g clip-path="url(#cp48237)">
<text xml:space="preserve" transform="matrix(1 0 -0 1 0 841.92)" font-size="14.04" font-family="Times New Roman,Italic" font-style="italic"><tspan y="-192.86" x="301.01 310.487 317.45085">+2x</tspan></text>
</g>
<clipPath id="cp48238">
<path transform="matrix(1,0,0,-1,0,841.92)" d="M .000008871 0 L 595.32 0 L 595.32 841.92 L .000008871 841.92 Z " fill-rule="evenodd"/>
</clipPath>
<g clip-path="url(#cp48238)">
<text xml:space="preserve" transform="matrix(1 0 -0 1 0 841.92)" font-size="9" font-family="Times New Roman,Italic" font-style="italic"><tspan y="-191.3" x="323.71">2</tspan></text>
</g>
<clipPath id="cp48239">
<path transform="matrix(1,0,0,-1,0,841.92)" d="M .000008871 0 L 595.32 0 L 595.32 841.92 L .000008871 841.92 Z " fill-rule="evenodd"/>
</clipPath>
<g clip-path="url(#cp48239)">
<text xml:space="preserve" transform="matrix(1 0 -0 1 0 841.92)" font-size="14.04" font-family="Times New Roman,Italic" font-style="italic"><tspan y="-192.86" x="328.27 337.75">+x</tspan></text>
</g>
<clipPath id="cp48240">
<path transform="matrix(1,0,0,-1,0,841.92)" d="M .000008871 0 L 595.32 0 L 595.32 841.92 L .000008871 841.92 Z " fill-rule="evenodd"/>
</clipPath>
<g clip-path="url(#cp48240)">
<text xml:space="preserve" transform="matrix(1 0 -0 1 0 841.92)" font-size="9" font-family="Times New Roman,Italic" font-style="italic"><tspan y="-191.3" x="343.87">3</tspan></text>
</g>
<clipPath id="cp48241">
<path transform="matrix(1,0,0,-1,0,841.92)" d="M .000017745 0 L 595.32 0 L 595.32 841.92 L .000017745 841.92 Z " fill-rule="evenodd"/>
</clipPath>
<g clip-path="url(#cp48241)">
<text xml:space="preserve" transform="matrix(1 0 -.3333 1 0 841.92)" font-size="12" font-family="Symbol"><tspan y="-192.86" x="284.02976">&#xf0a3;</tspan></text>
</g>
<clipPath id="cp48242">
<path transform="matrix(1,0,0,-1,0,841.92)" d="M .000008871 0 L 595.32 0 L 595.32 841.92 L .000008871 841.92 Z " fill-rule="evenodd"/>
</clipPath>
<g clip-path="url(#cp48242)">
<text xml:space="preserve" transform="matrix(1 0 -0 1 0 841.92)" font-size="14.04" font-family="Times New Roman,Italic" font-style="italic"><tspan y="-192.86" x="354.91">3</tspan></text>
</g>
<clipPath id="cp48243">
<path transform="matrix(1,0,0,-1,0,841.92)" d="M .000008871 0 L 595.32 0 L 595.32 841.92 L .000008871 841.92 Z " fill-rule="evenodd"/>
</clipPath>
<g clip-path="url(#cp48243)">
<text xml:space="preserve" transform="matrix(1 0 -0 1 0 841.92)" font-size="14.04" font-family="Times New Roman,Italic" font-style="italic"><tspan y="-192.86" x="361.87"> </tspan></text>
</g>
</g>
<g id="Layer-1" data-name="P">
<clipPath id="cp48244">
<path transform="matrix(1,0,0,-1,0,841.92)" d="M .000008871 0 L 595.32 0 L 595.32 841.92 L .000008871 841.92 Z " fill-rule="evenodd"/>
</clipPath>
<g clip-path="url(#cp48244)">
<text xml:space="preserve" transform="matrix(1 0 -0 1 0 841.92)" font-size="14.04" font-family="Times New Roman,Italic" font-style="italic"><tspan y="-168.74" x="286.73">x</tspan></text>
</g>
<clipPath id="cp48245">
<path transform="matrix(1,0,0,-1,0,841.92)" d="M .000008871 0 L 595.32 0 L 595.32 841.92 L .000008871 841.92 Z " fill-rule="evenodd"/>
</clipPath>
<g clip-path="url(#cp48245)">
<text xml:space="preserve" transform="matrix(1 0 -0 1 0 841.92)" font-size="9" font-family="Times New Roman,Italic" font-style="italic"><tspan y="-167.18" x="292.97">1</tspan></text>
</g>
<clipPath id="cp48246">
<path transform="matrix(1,0,0,-1,0,841.92)" d="M .000008871 0 L 595.32 0 L 595.32 841.92 L .000008871 841.92 Z " fill-rule="evenodd"/>
</clipPath>
<g clip-path="url(#cp48246)">
<text xml:space="preserve" transform="matrix(1 0 -0 1 0 841.92)" font-size="14.04" font-family="Times New Roman,Italic" font-style="italic"><tspan y="-168.74" x="297.53">-</tspan></text>
</g>
<clipPath id="cp48247">
<path transform="matrix(1,0,0,-1,0,841.92)" d="M .000008871 0 L 595.32 0 L 595.32 841.92 L .000008871 841.92 Z " fill-rule="evenodd"/>
</clipPath>
<g clip-path="url(#cp48247)">
<text xml:space="preserve" transform="matrix(1 0 -0 1 0 841.92)" font-size="14.04" font-family="Times New Roman,Italic" font-style="italic"><tspan y="-168.74" x="302.21">x</tspan></text>
</g>
<clipPath id="cp48248">
<path transform="matrix(1,0,0,-1,0,841.92)" d="M .000008871 0 L 595.32 0 L 595.32 841.92 L .000008871 841.92 Z " fill-rule="evenodd"/>
</clipPath>
<g clip-path="url(#cp48248)">
<text xml:space="preserve" transform="matrix(1 0 -0 1 0 841.92)" font-size="9" font-family="Times New Roman,Italic" font-style="italic"><tspan y="-167.18" x="308.33">2</tspan></text>
</g>
<clipPath id="cp48249">
<path transform="matrix(1,0,0,-1,0,841.92)" d="M .000008871 0 L 595.32 0 L 595.32 841.92 L .000008871 841.92 Z " fill-rule="evenodd"/>
</clipPath>
<g clip-path="url(#cp48249)">
<text xml:space="preserve" transform="matrix(1 0 -0 1 0 841.92)" font-size="14.04" font-family="Times New Roman,Italic" font-style="italic"><tspan y="-168.74" x="312.89 322.367 329.33085">+2x</tspan></text>
</g>
<clipPath id="cp48250">
<path transform="matrix(1,0,0,-1,0,841.92)" d="M .000008871 0 L 595.32 0 L 595.32 841.92 L .000008871 841.92 Z " fill-rule="evenodd"/>
</clipPath>
<g clip-path="url(#cp48250)">
<text xml:space="preserve" transform="matrix(1 0 -0 1 0 841.92)" font-size="9" font-family="Times New Roman,Italic" font-style="italic"><tspan y="-167.18" x="335.59">3</tspan></text>
</g>
<clipPath id="cp48251">
<path transform="matrix(1,0,0,-1,0,841.92)" d="M .000017745 0 L 595.32 0 L 595.32 841.92 L .000017745 841.92 Z " fill-rule="evenodd"/>
</clipPath>
<g clip-path="url(#cp48251)">
<text xml:space="preserve" transform="matrix(1 0 -.3333 1 0 841.92)" font-size="12" font-family="Symbol"><tspan y="-168.74" x="283.78895">&#xf0a3;</tspan></text>
</g>
<clipPath id="cp48252">
<path transform="matrix(1,0,0,-1,0,841.92)" d="M .000008871 0 L 595.32 0 L 595.32 841.92 L .000008871 841.92 Z " fill-rule="evenodd"/>
</clipPath>
<g clip-path="url(#cp48252)">
<text xml:space="preserve" transform="matrix(1 0 -0 1 0 841.92)" font-size="14.04" font-family="Times New Roman,Italic" font-style="italic"><tspan y="-168.74" x="346.63">-</tspan></text>
</g>
<clipPath id="cp48253">
<path transform="matrix(1,0,0,-1,0,841.92)" d="M .000008871 0 L 595.32 0 L 595.32 841.92 L .000008871 841.92 Z " fill-rule="evenodd"/>
</clipPath>
<g clip-path="url(#cp48253)">
<text xml:space="preserve" transform="matrix(1 0 -0 1 0 841.92)" font-size="14.04" font-family="Times New Roman,Italic" font-style="italic"><tspan y="-168.74" x="351.31">1</tspan></text>
</g>
<clipPath id="cp48254">
<path transform="matrix(1,0,0,-1,0,841.92)" d="M .000008871 0 L 595.32 0 L 595.32 841.92 L .000008871 841.92 Z " fill-rule="evenodd"/>
</clipPath>
<g clip-path="url(#cp48254)">
<text xml:space="preserve" transform="matrix(1 0 -0 1 0 841.92)" font-size="14.04" font-family="Times New Roman,Italic" font-style="italic"><tspan y="-168.74" x="358.27"> </tspan></text>
</g>
</g>
<g id="Layer-1" data-name="P">
<clipPath id="cp48255">
<path transform="matrix(1,0,0,-1,0,841.92)" d="M .000008871 0 L 595.32 0 L 595.32 841.92 L .000008871 841.92 Z " fill-rule="evenodd"/>
</clipPath>
<g clip-path="url(#cp48255)">
<text xml:space="preserve" transform="matrix(1 0 -0 1 0 841.92)" font-size="14.04" font-family="Times New Roman,Italic" font-style="italic"><tspan y="-144.5" x="279.77">-</tspan></text>
</g>
<clipPath id="cp48256">
<path transform="matrix(1,0,0,-1,0,841.92)" d="M .000008871 0 L 595.32 0 L 595.32 841.92 L .000008871 841.92 Z " fill-rule="evenodd"/>
</clipPath>
<g clip-path="url(#cp48256)">
<text xml:space="preserve" transform="matrix(1 0 -0 1 0 841.92)" font-size="14.04" font-family="Times New Roman,Italic" font-style="italic"><tspan y="-144.5" x="284.45 291.53">3x</tspan></text>
</g>
<clipPath id="cp48257">
<path transform="matrix(1,0,0,-1,0,841.92)" d="M .000008871 0 L 595.32 0 L 595.32 841.92 L .000008871 841.92 Z " fill-rule="evenodd"/>
</clipPath>
<g clip-path="url(#cp48257)">
<text xml:space="preserve" transform="matrix(1 0 -0 1 0 841.92)" font-size="9" font-family="Times New Roman,Italic" font-style="italic"><tspan y="-142.94" x="297.65">1</tspan></text>
</g>
<clipPath id="cp48258">
<path transform="matrix(1,0,0,-1,0,841.92)" d="M .000008871 0 L 595.32 0 L 595.32 841.92 L .000008871 841.92 Z " fill-rule="evenodd"/>
</clipPath>
<g clip-path="url(#cp48258)">
<text xml:space="preserve" transform="matrix(1 0 -0 1 0 841.92)" font-size="14.04" font-family="Times New Roman,Italic" font-style="italic"><tspan y="-144.5" x="302.21 311.68699 318.65083">+2x</tspan></text>
</g>
<clipPath id="cp48259">
<path transform="matrix(1,0,0,-1,0,841.92)" d="M .000008871 0 L 595.32 0 L 595.32 841.92 L .000008871 841.92 Z " fill-rule="evenodd"/>
</clipPath>
<g clip-path="url(#cp48259)">
<text xml:space="preserve" transform="matrix(1 0 -0 1 0 841.92)" font-size="9" font-family="Times New Roman,Italic" font-style="italic"><tspan y="-142.94" x="324.91">2</tspan></text>
</g>
<clipPath id="cp48260">
<path transform="matrix(1,0,0,-1,0,841.92)" d="M .000008871 0 L 595.32 0 L 595.32 841.92 L .000008871 841.92 Z " fill-rule="evenodd"/>
</clipPath>
<g clip-path="url(#cp48260)">
<text xml:space="preserve" transform="matrix(1 0 -0 1 0 841.92)" font-size="14.04" font-family="Times New Roman,Italic" font-style="italic"><tspan y="-144.5" x="329.47">-</tspan></text>
</g>
<clipPath id="cp48261">
<path transform="matrix(1,0,0,-1,0,841.92)" d="M .000008871 0 L 595.32 0 L 595.32 841.92 L .000008871 841.92 Z " fill-rule="evenodd"/>
</clipPath>
<g clip-path="url(#cp48261)">
<text xml:space="preserve" transform="matrix(1 0 -0 1 0 841.92)" font-size="14.04" font-family="Times New Roman,Italic" font-style="italic"><tspan y="-144.5" x="334.03 341.11">2x</tspan></text>
</g>
<clipPath id="cp48262">
<path transform="matrix(1,0,0,-1,0,841.92)" d="M .000008871 0 L 595.32 0 L 595.32 841.92 L .000008871 841.92 Z " fill-rule="evenodd"/>
</clipPath>
<g clip-path="url(#cp48262)">
<text xml:space="preserve" transform="matrix(1 0 -0 1 0 841.92)" font-size="9" font-family="Times New Roman,Italic" font-style="italic"><tspan y="-142.94" x="347.23">3</tspan></text>
</g>
<clipPath id="cp48263">
<path transform="matrix(1,0,0,-1,0,841.92)" d="M .000017745 0 L 595.32 0 L 595.32 841.92 L .000017745 841.92 Z " fill-rule="evenodd"/>
</clipPath>
<g clip-path="url(#cp48263)">
<text xml:space="preserve" transform="matrix(1 0 -.3333 1 0 841.92)" font-size="12" font-family="Symbol"><tspan y="-144.5" x="303.50819">&#xf0a3;</tspan></text>
</g>
<clipPath id="cp48264">
<path transform="matrix(1,0,0,-1,0,841.92)" d="M .000008871 0 L 595.32 0 L 595.32 841.92 L .000008871 841.92 Z " fill-rule="evenodd"/>
</clipPath>
<g clip-path="url(#cp48264)">
<text xml:space="preserve" transform="matrix(1 0 -0 1 0 841.92)" font-size="14.04" font-family="Times New Roman,Italic" font-style="italic"><tspan y="-144.5" x="358.27">5</tspan></text>
</g>
<clipPath id="cp48265">
<path transform="matrix(1,0,0,-1,0,841.92)" d="M .000008871 0 L 595.32 0 L 595.32 841.92 L .000008871 841.92 Z " fill-rule="evenodd"/>
</clipPath>
<g clip-path="url(#cp48265)">
<text xml:space="preserve" transform="matrix(1 0 -0 1 0 841.92)" font-size="14.04" font-family="Times New Roman,Italic" font-style="italic"><tspan y="-144.5" x="365.35"> </tspan></text>
</g>
</g>
<g id="Layer-1" data-name="P">
<clipPath id="cp48266">
<path transform="matrix(1,0,0,-1,0,841.92)" d="M .000008871 0 L 595.32 0 L 595.32 841.92 L .000008871 841.92 Z " fill-rule="evenodd"/>
</clipPath>
<g clip-path="url(#cp48266)">
<text xml:space="preserve" transform="matrix(1 0 -0 1 0 841.92)" font-size="14.04" font-family="Times New Roman,Italic" font-style="italic"><tspan y="-120.38" x="279.65">x</tspan></text>
</g>
<clipPath id="cp48267">
<path transform="matrix(1,0,0,-1,0,841.92)" d="M .000008871 0 L 595.32 0 L 595.32 841.92 L .000008871 841.92 Z " fill-rule="evenodd"/>
</clipPath>
<g clip-path="url(#cp48267)">
<text xml:space="preserve" transform="matrix(1 0 -0 1 0 841.92)" font-size="9" font-family="Times New Roman,Italic" font-style="italic"><tspan y="-118.82" x="285.89">1</tspan></text>
</g>
<clipPath id="cp48268">
<path transform="matrix(1,0,0,-1,0,841.92)" d="M .000017745 0 L 595.32 0 L 595.32 841.92 L .000017745 841.92 Z " fill-rule="evenodd"/>
</clipPath>
<g clip-path="url(#cp48268)">
<text xml:space="preserve" transform="matrix(1 0 -.3333 1 0 841.92)" font-size="12" font-family="Symbol"><tspan y="-120.38" x="250.20734">&#xf0b3;</tspan></text>
</g>
<clipPath id="cp48269">
<path transform="matrix(1,0,0,-1,0,841.92)" d="M .000008871 0 L 595.32 0 L 595.32 841.92 L .000008871 841.92 Z " fill-rule="evenodd"/>
</clipPath>
<g clip-path="url(#cp48269)">
<text xml:space="preserve" transform="matrix(1 0 -0 1 0 841.92)" font-size="14.04" font-family="Times New Roman,Italic" font-style="italic"><tspan y="-120.38" x="296.93 303.9921 307.5021 310.95597">0, x</tspan></text>
</g>
<clipPath id="cp48270">
<path transform="matrix(1,0,0,-1,0,841.92)" d="M .000008871 0 L 595.32 0 L 595.32 841.92 L .000008871 841.92 Z " fill-rule="evenodd"/>
</clipPath>
<g clip-path="url(#cp48270)">
<text xml:space="preserve" transform="matrix(1 0 -0 1 0 841.92)" font-size="9" font-family="Times New Roman,Italic" font-style="italic"><tspan y="-118.82" x="317.23 321.79">2 </tspan></text>
</g>
<clipPath id="cp48271">
<path transform="matrix(1,0,0,-1,0,841.92)" d="M .000017745 0 L 595.32 0 L 595.32 841.92 L .000017745 841.92 Z " fill-rule="evenodd"/>
</clipPath>
<g clip-path="url(#cp48271)">
<text xml:space="preserve" transform="matrix(1 0 -.3333 1 0 841.92)" font-size="12" font-family="Symbol"><tspan y="-120.38" x="283.82737">&#xf0b3;</tspan></text>
</g>
<clipPath id="cp48272">
<path transform="matrix(1,0,0,-1,0,841.92)" d="M .000008871 0 L 595.32 0 L 595.32 841.92 L .000008871 841.92 Z " fill-rule="evenodd"/>
</clipPath>
<g clip-path="url(#cp48272)">
<text xml:space="preserve" transform="matrix(1 0 -0 1 0 841.92)" font-size="14.04" font-family="Times New Roman,Italic" font-style="italic"><tspan y="-120.38" x="330.55 337.6121 341.1221">0,x</tspan></text>
</g>
<clipPath id="cp48273">
<path transform="matrix(1,0,0,-1,0,841.92)" d="M .000008871 0 L 595.32 0 L 595.32 841.92 L .000008871 841.92 Z " fill-rule="evenodd"/>
</clipPath>
<g clip-path="url(#cp48273)">
<text xml:space="preserve" transform="matrix(1 0 -0 1 0 841.92)" font-size="9" font-family="Times New Roman,Italic" font-style="italic"><tspan y="-118.82" x="347.35">3</tspan></text>
</g>
<clipPath id="cp48274">
<path transform="matrix(1,0,0,-1,0,841.92)" d="M .000017745 0 L 595.32 0 L 595.32 841.92 L .000017745 841.92 Z " fill-rule="evenodd"/>
</clipPath>
<g clip-path="url(#cp48274)">
<text xml:space="preserve" transform="matrix(1 0 -.3333 1 0 841.92)" font-size="12" font-family="Symbol"><tspan y="-120.38" x="311.66737">&#xf0b3;</tspan></text>
</g>
<clipPath id="cp48275">
<path transform="matrix(1,0,0,-1,0,841.92)" d="M .000008871 0 L 595.32 0 L 595.32 841.92 L .000008871 841.92 Z " fill-rule="evenodd"/>
</clipPath>
<g clip-path="url(#cp48275)">
<text xml:space="preserve" transform="matrix(1 0 -0 1 0 841.92)" font-size="14.04" font-family="Times New Roman,Italic" font-style="italic"><tspan y="-120.38" x="358.39">0</tspan></text>
</g>
<clipPath id="cp48276">
<path transform="matrix(1,0,0,-1,0,841.92)" d="M .000008871 0 L 595.32 0 L 595.32 841.92 L .000008871 841.92 Z " fill-rule="evenodd"/>
</clipPath>
<g clip-path="url(#cp48276)">
<text xml:space="preserve" transform="matrix(1 0 -0 1 0 841.92)" font-size="14.04" font-family="Times New Roman,Italic" font-style="italic"><tspan y="-120.38" x="365.35"> </tspan></text>
</g>
</g>
<g id="Layer-1" data-name="P">
<clipPath id="cp48277">
<path transform="matrix(1,0,0,-1,0,841.92)" d="M .000008871 0 L 595.32 0 L 595.32 841.92 L .000008871 841.92 Z " fill-rule="evenodd"/>
</clipPath>
<g clip-path="url(#cp48277)">
<text xml:space="preserve" transform="matrix(1 0 -0 1 0 841.92)" font-size="14.04" font-family="Times New Roman"><tspan y="-96.264" x="85.104 91.33775 98.41391 104.53535 111.597469 117.83122 122.506549 128.64203 135.60587 139.5511 146.38858 152.97333 156.91857 160.8638 167.09757 171.0428 181.72725 188.78937 192.7346 199.79673 206.76056 213.47168 224.15613 231.34462 242.02907 249.09119 253.03643 260.09855 266.68333 273.74543 280.80754 285.3705 289.21748 296.27958 302.401 309.4631 316.04789 322.88536 329.23146 335.4652 342.54136 346.48658 357.17103 361.11625 367.35 372.02534 375.9846 382.56938 387.97477 394.9386 402.0007 408.23448 413.63987 417.48683 424.54893 430.78269 437.3815 444.34535 451.30918 462.10594 468.3397 470.86689 474.8121 481.8742 492.55867 496.50389 502.73765 507.41297 514.0118 517.95706 525.01919 531.98306 535.9283 539.77529 545.18069 549.1259 556.0898 559.4454">chegaraviy tizimning mumkin bo&#x2018;lgan yechimlari sohasida noma'lumlar topilsin. </tspan></text>
</g>
<clipPath id="cp48278">
<path transform="matrix(1,0,0,-1,0,841.92)" d="M .000008871 0 L 595.32 0 L 595.32 841.92 L .000008871 841.92 Z " fill-rule="evenodd"/>
</clipPath>
<g clip-path="url(#cp48278)">
<text xml:space="preserve" transform="matrix(1 0 -0 1 0 841.92)" font-size="14.04" font-family="Times New Roman"><tspan y="-72.144" x="85.104 94.46867 101.53079 107.65223 114.71435 120.948108 125.62343 131.75891 138.72275 142.66799 149.50547 153.01546 156.91858 160.8919 167.12567 171.0709 181.75536 188.81748 192.76271 196.2727 203.20847 209.44223 216.40607 223.46819 230.43202 234.37726 241.43938 244.79494 251.75878 258.8209 263.38389 268.0592 272.00444 278.96827">Chegaraviy tizimni kanonik ko&#x2018;rini</tspan></text>
</g>
<clipPath id="cp48279">
<path transform="matrix(1,0,0,-1,0,841.92)" d="M .000008871 0 L 595.32 0 L 595.32 841.92 L .000008871 841.92 Z " fill-rule="evenodd"/>
</clipPath>
<g clip-path="url(#cp48279)">
<text xml:space="preserve" transform="matrix(1 0 -0 1 0 841.92)" font-size="14.04" font-family="Times New Roman"><tspan y="-72.144" x="283.13 288.5354 295.49925 302.56135 308.7951 312.3051 319.24089 326.30299 333.14045 337.08567 344.14778 350.38154 357.34538 361.2906 367.41203 374.47413 380.7079 384.2179 391.02729 398.0894 404.32316 408.1701 415.2322 418.74223 425.67799 429.6232 435.74464 446.42909 450.3743 456.60807">shda quyidagicha yozib olamiz:</tspan></text>
</g>
<clipPath id="cp48280">
<path transform="matrix(1,0,0,-1,0,841.92)" d="M .000008871 0 L 595.32 0 L 595.32 841.92 L .000008871 841.92 Z " fill-rule="evenodd"/>
</clipPath>
<g clip-path="url(#cp48280)">
<text xml:space="preserve" transform="matrix(1 0 -0 1 0 841.92)" font-size="14.04" font-family="Times New Roman"><tspan y="-72.144" x="460.78"> </tspan></text>
</g>
</g>
</g>
</g>
</svg>
