<?xml version="1.0" encoding="UTF-8" standalone="no"?>
<!DOCTYPE svg PUBLIC "-//W3C//DTD SVG 1.1//EN" "http://www.w3.org/Graphics/SVG/1.1/DTD/svg11.dtd">
<svg xmlns="http://www.w3.org/2000/svg" xmlns:xlink="http://www.w3.org/1999/xlink" version="1.1" width="595.32pt" height="841.92pt" viewBox="0 0 595.32 841.92">
<g enable-background="new">
<g>
<g id="Layer-1" data-name="Artifact">
<clipPath id="cp206">
<path transform="matrix(1,0,0,-1,0,841.92)" d="M .000008871 0 L 595.32 0 L 595.32 841.92 L .000008871 841.92 Z " fill-rule="evenodd"/>
</clipPath>
<g clip-path="url(#cp206)">
<text xml:space="preserve" transform="matrix(1 0 -0 1 0 841.92)" font-size="11.04" font-family="Calibri"><tspan y="-51.864" x="316.15">3</tspan></text>
</g>
<clipPath id="cp207">
<path transform="matrix(1,0,0,-1,0,841.92)" d="M .000008871 0 L 595.32 0 L 595.32 841.92 L .000008871 841.92 Z " fill-rule="evenodd"/>
</clipPath>
<g clip-path="url(#cp207)">
<text xml:space="preserve" transform="matrix(1 0 -0 1 0 841.92)" font-size="11.04" font-family="Calibri"><tspan y="-51.864" x="321.79"> </tspan></text>
</g>
<clipPath id="cp208">
<path transform="matrix(1,0,0,-1,0,841.92)" d="M .000008871 0 L 595.32 0 L 595.32 841.92 L .000008871 841.92 Z " fill-rule="evenodd"/>
</clipPath>
<g clip-path="url(#cp208)">
</g>
<clipPath id="cp209">
<path transform="matrix(1,0,0,-1,0,841.92)" d="M .000008871 0 L 595.32 0 L 595.32 841.92 L .000008871 841.92 Z " fill-rule="evenodd"/>
</clipPath>
<g clip-path="url(#cp209)">
<text xml:space="preserve" transform="matrix(1 0 -0 1 0 841.92)" font-size="11.04" font-family="Calibri"><tspan y="-38.4" x="85.104"> </tspan></text>
</g>
<clipPath id="cp210">
<path transform="matrix(1,0,0,-1,0,841.92)" d="M .000008871 0 L 595.32 0 L 595.32 841.92 L .000008871 841.92 Z " fill-rule="evenodd"/>
</clipPath>
<g clip-path="url(#cp210)">
</g>
</g>
<g id="Layer-1" data-name="P">
<clipPath id="cp211">
<path transform="matrix(1,0,0,-1,0,841.92)" d="M .000008871 0 L 595.32 0 L 595.32 841.92 L .000008871 841.92 Z " fill-rule="evenodd"/>
</clipPath>
<g clip-path="url(#cp211)">
<text xml:space="preserve" transform="matrix(1 0 -0 1 0 841.92)" font-size="14.04" font-family="Times New Roman,Bold" font-weight="bold"><tspan y="-772.32" x="102.14"> </tspan></text>
</g>
</g>
<g id="Layer-1" data-name="P">
<clipPath id="cp212">
<path transform="matrix(1,0,0,-1,0,841.92)" d="M .000008871 0 L 595.32 0 L 595.32 841.92 L .000008871 841.92 Z " fill-rule="evenodd"/>
</clipPath>
<g clip-path="url(#cp212)">
<text xml:space="preserve" transform="matrix(1 0 -0 1 0 841.92)" font-size="14.04" font-family="Times New Roman,Bold" font-weight="bold"><tspan y="-748.06" x="336.67"> </tspan></text>
</g>
<clipPath id="cp213">
<path transform="matrix(1,0,0,-1,0,841.92)" d="M .000008871 0 L 595.32 0 L 595.32 841.92 L .000008871 841.92 Z " fill-rule="evenodd"/>
</clipPath>
<g clip-path="url(#cp213)">
</g>
</g>
<g id="Layer-1" data-name="P">
<clipPath id="cp214">
<path transform="matrix(1,0,0,-1,0,841.92)" d="M .000008871 0 L 595.32 0 L 595.32 841.92 L .000008871 841.92 Z " fill-rule="evenodd"/>
</clipPath>
<g clip-path="url(#cp214)">
<text xml:space="preserve" transform="matrix(1 0 -0 1 0 841.92)" font-size="14.04" font-family="Times New Roman,Bold" font-weight="bold"><tspan y="-723.94" x="336.67"> </tspan></text>
</g>
<clipPath id="cp215">
<path transform="matrix(1,0,0,-1,0,841.92)" d="M .000008871 0 L 595.32 0 L 595.32 841.92 L .000008871 841.92 Z " fill-rule="evenodd"/>
</clipPath>
<g clip-path="url(#cp215)">
</g>
</g>
<g id="Layer-1" data-name="P">
<clipPath id="cp216">
<path transform="matrix(1,0,0,-1,0,841.92)" d="M .000008871 0 L 595.32 0 L 595.32 841.92 L .000008871 841.92 Z " fill-rule="evenodd"/>
</clipPath>
<g clip-path="url(#cp216)">
<text xml:space="preserve" transform="matrix(1 0 -0 1 0 841.92)" font-size="14.04" font-family="Times New Roman,Bold" font-weight="bold"><tspan y="-699.82" x="336.67"> </tspan></text>
</g>
<clipPath id="cp217">
<path transform="matrix(1,0,0,-1,0,841.92)" d="M .000008871 0 L 595.32 0 L 595.32 841.92 L .000008871 841.92 Z " fill-rule="evenodd"/>
</clipPath>
<g clip-path="url(#cp217)">
</g>
</g>
<g id="Layer-1" data-name="P">
<clipPath id="cp218">
<path transform="matrix(1,0,0,-1,0,841.92)" d="M .000008871 0 L 595.32 0 L 595.32 841.92 L .000008871 841.92 Z " fill-rule="evenodd"/>
</clipPath>
<g clip-path="url(#cp218)">
<text xml:space="preserve" transform="matrix(1 0 -0 1 0 841.92)" font-size="14.04" font-family="Times New Roman,Bold" font-weight="bold"><tspan y="-675.7" x="319.03"> </tspan></text>
</g>
<clipPath id="cp219">
<path transform="matrix(1,0,0,-1,0,841.92)" d="M .000008871 0 L 595.32 0 L 595.32 841.92 L .000008871 841.92 Z " fill-rule="evenodd"/>
</clipPath>
<g clip-path="url(#cp219)">
</g>
</g>
<g id="Layer-1" data-name="P">
<clipPath id="cp220">
<path transform="matrix(1,0,0,-1,0,841.92)" d="M .000008871 0 L 595.32 0 L 595.32 841.92 L .000008871 841.92 Z " fill-rule="evenodd"/>
</clipPath>
<g clip-path="url(#cp220)">
<text xml:space="preserve" transform="matrix(1 0 -0 1 0 841.92)" font-size="14.04" font-family="Times New Roman,Bold" font-weight="bold"><tspan y="-651.46" x="319.03"> </tspan></text>
</g>
<clipPath id="cp221">
<path transform="matrix(1,0,0,-1,0,841.92)" d="M .000008871 0 L 595.32 0 L 595.32 841.92 L .000008871 841.92 Z " fill-rule="evenodd"/>
</clipPath>
<g clip-path="url(#cp221)">
</g>
</g>
<g id="Layer-1" data-name="P">
<clipPath id="cp222">
<path transform="matrix(1,0,0,-1,0,841.92)" d="M .000008871 0 L 595.32 0 L 595.32 841.92 L .000008871 841.92 Z " fill-rule="evenodd"/>
</clipPath>
<g clip-path="url(#cp222)">
<text xml:space="preserve" transform="matrix(1 0 -0 1 0 841.92)" font-size="14.04" font-family="Times New Roman,Bold" font-weight="bold"><tspan y="-627.34" x="319.03"> </tspan></text>
</g>
<clipPath id="cp223">
<path transform="matrix(1,0,0,-1,0,841.92)" d="M .000008871 0 L 595.32 0 L 595.32 841.92 L .000008871 841.92 Z " fill-rule="evenodd"/>
</clipPath>
<g clip-path="url(#cp223)">
</g>
</g>
<g id="Layer-1" data-name="P">
<clipPath id="cp224">
<path transform="matrix(1,0,0,-1,0,841.92)" d="M .000008871 0 L 595.32 0 L 595.32 841.92 L .000008871 841.92 Z " fill-rule="evenodd"/>
</clipPath>
<g clip-path="url(#cp224)">
<text xml:space="preserve" transform="matrix(1 0 -0 1 0 841.92)" font-size="14.04" font-family="Times New Roman,Bold" font-weight="bold"><tspan y="-603.22" x="449.5 457.30625 465.1125 468.58039 481.77799 485.288 498.45753 502.40275 508.6365 514.87026 518.7172 525.6811 532.7432 539.80538 545.9268">Sh.M.Mirziyoyev</tspan></text>
</g>
<clipPath id="cp225">
<path transform="matrix(1,0,0,-1,0,841.92)" d="M .000008871 0 L 595.32 0 L 595.32 841.92 L .000008871 841.92 Z " fill-rule="evenodd"/>
</clipPath>
<g clip-path="url(#cp225)">
<text xml:space="preserve" transform="matrix(1 0 -0 1 0 841.92)" font-size="14.04" font-family="Times New Roman,Bold" font-weight="bold"><tspan y="-603.22" x="552.94"> </tspan></text>
</g>
<clipPath id="cp226">
<path transform="matrix(1,0,0,-1,0,841.92)" d="M .000008871 0 L 595.32 0 L 595.32 841.92 L .000008871 841.92 Z " fill-rule="evenodd"/>
</clipPath>
<g clip-path="url(#cp226)">
</g>
</g>
<g id="Layer-1" data-name="P">
<clipPath id="cp227">
<path transform="matrix(1,0,0,-1,0,841.92)" d="M .000008871 0 L 595.32 0 L 595.32 841.92 L .000008871 841.92 Z " fill-rule="evenodd"/>
</clipPath>
<g clip-path="url(#cp227)">
<text xml:space="preserve" transform="matrix(1 0 -0 1 0 841.92)" font-size="14.04" font-family="Times New Roman,Bold" font-weight="bold"><tspan y="-579.1" x="293.69 304.61314 310.1168 320.1975 325.70118 333.38105">KIRISH</tspan></text>
</g>
<clipPath id="cp228">
<path transform="matrix(1,0,0,-1,0,841.92)" d="M .000008871 0 L 595.32 0 L 595.32 841.92 L .000008871 841.92 Z " fill-rule="evenodd"/>
</clipPath>
<g clip-path="url(#cp228)">
<text xml:space="preserve" transform="matrix(1 0 -0 1 0 841.92)" font-size="14.04" font-family="Times New Roman,Bold" font-weight="bold"><tspan y="-579.1" x="344.23"> </tspan></text>
</g>
<clipPath id="cp229">
<path transform="matrix(1,0,0,-1,0,841.92)" d="M .000008871 0 L 595.32 0 L 595.32 841.92 L .000008871 841.92 Z " fill-rule="evenodd"/>
</clipPath>
<g clip-path="url(#cp229)">
</g>
</g>
<g id="Layer-1" data-name="P">
<clipPath id="cp230">
<path transform="matrix(1,0,0,-1,0,841.92)" d="M .000008871 0 L 595.32 0 L 595.32 841.92 L .000008871 841.92 Z " fill-rule="evenodd"/>
</clipPath>
<g clip-path="url(#cp230)">
<text xml:space="preserve" transform="matrix(1 0 -0 1 0 841.92)" font-size="14.04" font-family="Times New Roman"><tspan y="-555.07" x="120.5 132.98157 139.21533 143.77834 147.72357 154.78569 165.47014 172.53226 176.4775 181.50382 187.73758 194.81375 201.77759 208.8397 213.40271 220.46483 224.41007 229.43639 233.28334 239.40479 246.4669 253.43074 260.3946 264.3398 271.30366 278.36576 282.31098 289.14845 295.3822 299.32743 305.5612 310.12419 314.0694 319.09574 322.9427 329.17646 336.2526 342.37403 346.31925 351.34559 356.75099 363.81309 368.4884 373.0514 379.28517 383.23039 387.07734 393.3111 397.98643 403.0268 410.0889 413.93586 417.88108 424.0025 431.0646 436.09095 440.76628 444.61323 451.67533 458.73744 462.458 466.40324 472.52467 479.58677 483.43373 490.49583 495.52217 502.486 509.5481 514.2234 524.9078 531.9699 539.03207 546.0942 552.32797">Ma&#x2019;lumki axborot texnologiyalari jadal sur&#x2019;atlar bilan rivojlanib bormoqda </tspan></text>
</g>
<clipPath id="cp231">
<path transform="matrix(1,0,0,-1,0,841.92)" d="M .000008871 0 L 595.32 0 L 595.32 841.92 L .000008871 841.92 Z " fill-rule="evenodd"/>
</clipPath>
<g clip-path="url(#cp231)">
</g>
<clipPath id="cp232">
<path transform="matrix(1,0,0,-1,0,841.92)" d="M .000008871 0 L 595.32 0 L 595.32 841.92 L .000008871 841.92 Z " fill-rule="evenodd"/>
</clipPath>
<g clip-path="url(#cp232)">
<text xml:space="preserve" transform="matrix(1 0 -0 1 0 841.92)" font-size="14.04" font-family="Times New Roman"><tspan y="-530.95" x="85.104 92.166118 98.39987 109.08431 116.14643 122.38019 128.85263 132.79787 139.7617 145.26538 152.22922 159.29134 165.76377 170.43909 176.56053 183.52437 187.4696 191.41484 198.25232 204.48609 208.43132 212.27828 219.3404 223.18735 230.15119 237.2133 243.68573 247.53269 254.5948 259.15779 263.103 267.04823 273.39433 278.7997 285.86183 292.92393 299.04536 302.99058 309.22434 313.78733 317.63429 324.5981 330.83189 337.30433 341.24955 348.21339 355.17723 362.23933 366.91465 373.1484 379.50856 386.57066 392.69209 399.75419 406.81629 411.37928 418.3431 425.4052 431.87767 435.7246 442.68846 447.36378 451.309 458.14646 464.6189 470.85267 474.79789 478.7431 482.68833 493.37278 500.43489 507.3987 514.4608 520.6946 524.2046">hamda inson faoliyatining turli sohalariga tobora kengroq joriy etilmoqda. </tspan></text>
</g>
</g>
<g id="Layer-1" data-name="P">
<clipPath id="cp233">
<path transform="matrix(1,0,0,-1,0,841.92)" d="M .000008871 0 L 595.32 0 L 595.32 841.92 L .000008871 841.92 Z " fill-rule="evenodd"/>
</clipPath>
<g clip-path="url(#cp233)">
<text xml:space="preserve" transform="matrix(1 0 -0 1 0 841.92)" font-size="14.04" font-family="Times New Roman"><tspan y="-530.95" x="531.22">S</tspan></text>
</g>
</g>
<g id="Layer-1" data-name="P">
<clipPath id="cp234">
<path transform="matrix(1,0,0,-1,0,841.92)" d="M .000008871 0 L 595.32 0 L 595.32 841.92 L .000008871 841.92 Z " fill-rule="evenodd"/>
</clipPath>
<g clip-path="url(#cp234)">
<text xml:space="preserve" transform="matrix(1 0 -0 1 0 841.92)" font-size="14.04" font-family="Times New Roman"><tspan y="-530.95" x="539.02 545.98007 552.94009">uv </tspan></text>
</g>
<clipPath id="cp235">
<path transform="matrix(1,0,0,-1,0,841.92)" d="M .000008871 0 L 595.32 0 L 595.32 841.92 L .000008871 841.92 Z " fill-rule="evenodd"/>
</clipPath>
<g clip-path="url(#cp235)">
</g>
</g>
<g id="Layer-1" data-name="P">
<clipPath id="cp236">
<path transform="matrix(1,0,0,-1,0,841.92)" d="M .000008871 0 L 595.32 0 L 595.32 841.92 L .000008871 841.92 Z " fill-rule="evenodd"/>
</clipPath>
<g clip-path="url(#cp236)">
<text xml:space="preserve" transform="matrix(1 0 -0 1 0 841.92)" font-size="14.04" font-family="Times New Roman"><tspan y="-506.83" x="85.104 92.166118 99.22823 103.79124 107.6382 113.871959 117.8172 121.66416 128.62799 132.57323 139.53707 143.4823 148.14357 152.0888 158.21025 163.61565 170.67777">xo&#x2019;jaligini tashk</tspan></text>
</g>
</g>
<g id="Layer-1" data-name="P">
<clipPath id="cp237">
<path transform="matrix(1,0,0,-1,0,841.92)" d="M .000008871 0 L 595.32 0 L 595.32 841.92 L .000008871 841.92 Z " fill-rule="evenodd"/>
</clipPath>
<g clip-path="url(#cp237)">
<text xml:space="preserve" transform="matrix(1 0 -0 1 0 841.92)" font-size="14.04" font-family="Times New Roman"><tspan y="-506.83" x="177.74 181.68524 185.63048 190.29175 196.4132 200.26015 204.1071 209.61078 216.6729 221.22185 228.28397 234.51773 239.19304 246.15688 253.219 258.6244 265.58824 272.65034 278.8841 283.44709 287.3923 292.7977">il etish va boshqarish</tspan></text>
</g>
</g>
<g id="Layer-1" data-name="P">
<clipPath id="cp238">
<path transform="matrix(1,0,0,-1,0,841.92)" d="M .000008871 0 L 595.32 0 L 595.32 841.92 L .000008871 841.92 Z " fill-rule="evenodd"/>
</clipPath>
<g clip-path="url(#cp238)">
<text xml:space="preserve" transform="matrix(1 0 -0 1 0 841.92)" font-size="14.04" font-family="Times New Roman"><tspan y="-506.83" x="299.93 306.9921 310.83906 317.90116 324.865 329.52629 336.58839 343.55223 347.49745 353.7312 359.96498 364.54203 371.60414 376.2654 386.94987 393.18363 398.70133 404.9351 408.8803 415.11408 419.0593 425.18074 429.85606 433.703 440.7651 444.61207 449.39973 456.23719 462.47096 468.7047 475.78086 479.6278 485.13148 492.0953 499.1574 505.39118 510.0665 516.1879 523.25009 530.2139 537.27609 541.83908 548.8029 552.6499">ning dolzarb masalalarini yechishda axborot </tspan></text>
</g>
<clipPath id="cp239">
<path transform="matrix(1,0,0,-1,0,841.92)" d="M .000008871 0 L 595.32 0 L 595.32 841.92 L .000008871 841.92 Z " fill-rule="evenodd"/>
</clipPath>
<g clip-path="url(#cp239)">
</g>
</g>
<g id="Layer-1" data-name="P">
<clipPath id="cp240">
<path transform="matrix(1,0,0,-1,0,841.92)" d="M .000008871 0 L 595.32 0 L 595.32 841.92 L .000008871 841.92 Z " fill-rule="evenodd"/>
</clipPath>
<g clip-path="url(#cp240)">
<text xml:space="preserve" transform="matrix(1 0 -0 1 0 841.92)" font-size="14.04" font-family="Times New Roman"><tspan y="-482.71" x="85.104 89.04924 95.283 102.24683 109.21067 116.27279 120.11975 127.08359 134.1457 138.09095 144.92842 151.16219 155.10742 161.34119 165.90419 169.84943 179.31238 186.3745 192.60826 201.9589 212.75566 218.98943 222.93466 229.16843 239.85288 246.08664 250.03188 253.97711 261.0392 270.62855 281.313 288.3751 295.4372 301.67097 305.5179 309.46315 315.58457 320.98997 328.05207 331.89903 335.84425 340.40724 344.35246 349.75785 356.81996 366.28294 373.24678 378.75044 385.71427 389.6595 393.50645 399.7402 404.41554 408.26249 415.3246 421.446 428.50813 437.9711 442.5341 449.5962 456.43367 463.49577 469.72953 473.67475 479.79618 486.85829 490.70524 496.2089 503.271 512.73397 523.41836 530.48049 537.5426 541.48788 552.2846">texnologiyalari va matematik modellashtirish usullaridan foydalanish muhim </tspan></text>
</g>
<clipPath id="cp241">
<path transform="matrix(1,0,0,-1,0,841.92)" d="M .000008871 0 L 595.32 0 L 595.32 841.92 L .000008871 841.92 Z " fill-rule="evenodd"/>
</clipPath>
<g clip-path="url(#cp241)">
</g>
</g>
<g id="Layer-1" data-name="P">
<clipPath id="cp242">
<path transform="matrix(1,0,0,-1,0,841.92)" d="M .000008871 0 L 595.32 0 L 595.32 841.92 L .000008871 841.92 Z " fill-rule="evenodd"/>
</clipPath>
<g clip-path="url(#cp242)">
<text xml:space="preserve" transform="matrix(1 0 -0 1 0 841.92)" font-size="14.04" font-family="Times New Roman"><tspan y="-458.47" x="85.104 91.33775 98.41391 104.64767 115.33211 119.27735 126.11483 132.34859 136.29383 139.80382 146.82382 153.05759 158.6034 165.66551 169.1755 175.26888 179.21411 189.89856 196.96068 203.92452 210.98664 217.2204 220.7304">ahamiyat kasb etmoqda. </tspan></text>
</g>
</g>
<g id="Layer-1" data-name="P">
<clipPath id="cp243">
<path transform="matrix(1,0,0,-1,0,841.92)" d="M .000008871 0 L 595.32 0 L 595.32 841.92 L .000008871 841.92 Z " fill-rule="evenodd"/>
</clipPath>
<g clip-path="url(#cp243)">
<text xml:space="preserve" transform="matrix(1 0 -0 1 0 841.92)" font-size="14.04" font-family="Times New Roman"><tspan y="-458.47" x="224.21"> </tspan></text>
</g>
<clipPath id="cp244">
<path transform="matrix(1,0,0,-1,0,841.92)" d="M .000008871 0 L 595.32 0 L 595.32 841.92 L .000008871 841.92 Z " fill-rule="evenodd"/>
</clipPath>
<g clip-path="url(#cp244)">
</g>
</g>
<g id="Layer-1" data-name="P">
<clipPath id="cp245">
<path transform="matrix(1,0,0,-1,0,841.92)" d="M .000008871 0 L 595.32 0 L 595.32 841.92 L .000008871 841.92 Z " fill-rule="evenodd"/>
</clipPath>
<g clip-path="url(#cp245)">
<text xml:space="preserve" transform="matrix(1 0 -0 1 0 841.92)" font-size="14.04" font-family="Times New Roman"><tspan y="-434.35" x="120.5 132.98157 139.21533 149.89978 153.84502 160.07878 167.15496 173.38872 177.23567 181.18091 191.86536 195.8106 202.04436 206.83199 213.8941 217.74106 221.6863 228.52378 233.3114 237.25664 243.4904 248.0534 251.99864 255.94388 266.62834 271.416 275.3612 279.30644 285.5402 289.4854 300.16987 304.11509 311.1772 317.41096">Mamlakatimiz oliy ta&#x2019;lim tizimida </tspan></text>
</g>
<clipPath id="cp246">
<path transform="matrix(1,0,0,-1,0,841.92)" d="M .000008871 0 L 595.32 0 L 595.32 841.92 L .000008871 841.92 Z " fill-rule="evenodd"/>
</clipPath>
<g clip-path="url(#cp246)">
<text xml:space="preserve" transform="matrix(1 0 -0 1 0 841.92)" font-size="14.04" font-family="Times New Roman"><tspan y="-434.35" x="322.51 328.63145 335.69355 342.65739 349.71949 354.28248 361.34458 365.2898 369.95109 373.8963 380.01774 386.98158 394.04368 401.0075 404.85447 411.91658 418.8804 422.82563 429.6631 435.89686 439.84208 446.07585 450.75117 454.5981 461.66023 465.50718 472.471 479.5331 484.32078 488.16773 495.22984 499.79283 503.73805 507.585 512.3726 517.778 524.7419 531.804 538.0378 541.88479 548.1185 552.6815">axborot texnologiyalarining turli sohalar </tspan></text>
</g>
<clipPath id="cp247">
<path transform="matrix(1,0,0,-1,0,841.92)" d="M .000008871 0 L 595.32 0 L 595.32 841.92 L .000008871 841.92 Z " fill-rule="evenodd"/>
</clipPath>
<g clip-path="url(#cp247)">
</g>
<clipPath id="cp248">
<path transform="matrix(1,0,0,-1,0,841.92)" d="M .000008871 0 L 595.32 0 L 595.32 841.92 L .000008871 841.92 Z " fill-rule="evenodd"/>
</clipPath>
<g clip-path="url(#cp248)">
<text xml:space="preserve" transform="matrix(1 0 -0 1 0 841.92)" font-size="14.04" font-family="Times New Roman"><tspan y="-410.23" x="85.104 92.166118 96.01308 99.95832 106.07976 113.14188 124.16328 128.01023 135.07234 138.9193 145.15306 152.22924 156.79224 163.026 166.87296 172.37664 176.32187 183.15935 189.39311 194.91085 198.7578 205.72164 209.66687 220.68827 226.92203 237.60648 243.84024 247.78548 254.8476 261.08137 272.11683 279.08067 284.58433 291.54817 295.49339 300.05638 304.0016">bilan integratsiyasini amalga oshiris</tspan></text>
</g>
<clipPath id="cp249">
<path transform="matrix(1,0,0,-1,0,841.92)" d="M .000008871 0 L 595.32 0 L 595.32 841.92 L .000008871 841.92 Z " fill-rule="evenodd"/>
</clipPath>
<g clip-path="url(#cp249)">
<text xml:space="preserve" transform="matrix(1 0 -0 1 0 841.92)" font-size="14.04" font-family="Times New Roman"><tspan y="-410.23" x="309.65 316.7121 327.6212 334.6833 340.91706 351.9525 358.91636 365.8802 372.9423 376.78926 383.75309 390.8152 401.8366 408.8987 415.02015 418.8671 422.81233 426.65928 432.89305 438.41075 442.2577 449.22154 455.4553 466.49076 471.16609 477.39985 484.37773 491.43983 498.40367 504.63743 508.48439 515.5465 521.7803 526.34329 533.3071 540.36929 545.77468 552.7385">h va buning natijasida raqobatbardosh </tspan></text>
</g>
<clipPath id="cp250">
<path transform="matrix(1,0,0,-1,0,841.92)" d="M .000008871 0 L 595.32 0 L 595.32 841.92 L .000008871 841.92 Z " fill-rule="evenodd"/>
</clipPath>
<g clip-path="url(#cp250)">
</g>
<clipPath id="cp251">
<path transform="matrix(1,0,0,-1,0,841.92)" d="M .000008871 0 L 595.32 0 L 595.32 841.92 L .000008871 841.92 Z " fill-rule="evenodd"/>
</clipPath>
<g clip-path="url(#cp251)">
<text xml:space="preserve" transform="matrix(1 0 -0 1 0 841.92)" font-size="14.04" font-family="Times New Roman"><tspan y="-386.09" x="85.104 92.166118 98.28755 105.34967 110.024997 113.97024 120.091678 124.767 131.73084 135.67607 143.94564 147.79259 154.02635 160.99019 167.82767 174.88979 179.56511 183.51035 189.74411 195.1495 202.11334 209.17546 213.02242 219.98625 227.04837 235.31793 241.5517 247.78546 252.3625 259.42463 264.09996 268.04518 274.88264 283.1522 290.2143 296.44807 302.5695 306.5147 311.19004 317.31147 321.15843 327.39219 332.0675 335.91447 342.97657 346.92179 355.19136 361.4251 372.10957 378.34333 382.28855 389.35066 395.5844 403.74168 410.80378 416.20918 423.173 427.11824 431.79356 435.6405 441.0459 448.108 455.07185 461.3056 469.57518 476.41264 482.6464 489.72254 496.78465 500.72987 508.99943 513.56246 519.7962 526.7601 530.7053 536.9391 541.5021 548.5642 552.4112">kadrlarni tayyorlashning zaruriy vazifalarini amalga oshirishda yangi fanlarni </tspan></text>
</g>
<clipPath id="cp252">
<path transform="matrix(1,0,0,-1,0,841.92)" d="M .000008871 0 L 595.32 0 L 595.32 841.92 L .000008871 841.92 Z " fill-rule="evenodd"/>
</clipPath>
<g clip-path="url(#cp252)">
</g>
<clipPath id="cp253">
<path transform="matrix(1,0,0,-1,0,841.92)" d="M .000008871 0 L 595.32 0 L 595.32 841.92 L .000008871 841.92 Z " fill-rule="evenodd"/>
</clipPath>
<g clip-path="url(#cp253)">
<text xml:space="preserve" transform="matrix(1 0 -0 1 0 841.92)" font-size="14.04" font-family="Times New Roman"><tspan y="-361.97" x="85.104 89.04924 95.283 99.846 103.791248 107.73649 118.42093 129.68102 136.0271 146.71155 152.94532 156.89055 160.83579 167.67327 174.73538 178.68062 182.62586 189.58969 195.82346 206.9712 214.03333 220.15477 227.21689 234.279 245.42676 252.48888 259.551 264.11399 268.0592 274.29298 284.97743 292.03953 298.2733 309.54743 313.39439 320.45649 325.01948 328.86643 335.7039 346.964 353.19776 357.14299 361.0882 366.59187 373.5557 380.6178 386.85157 397.99934 405.06144 411.18287 415.12809 419.0733 425.30708 436.45484 442.6886 447.2516 451.1968 455.14204 462.10588 469.16798 473.8433 484.99107 492.05317 498.28694 502.8499 506.79515 510.74037 521.42477 528.4869 535.549 542.5129 548.74667 552.25668">ta&#x2019;lim amaliyotiga keng ko&#x2019;lamda joriy etishga katta e&#x2019;tibor berilmoqda. </tspan></text>
</g>
<clipPath id="cp254">
<path transform="matrix(1,0,0,-1,0,841.92)" d="M .000008871 0 L 595.32 0 L 595.32 841.92 L .000008871 841.92 Z " fill-rule="evenodd"/>
</clipPath>
<g clip-path="url(#cp254)">
</g>
<clipPath id="cp255">
<path transform="matrix(1,0,0,-1,0,841.92)" d="M .000008871 0 L 595.32 0 L 595.32 841.92 L .000008871 841.92 Z " fill-rule="evenodd"/>
</clipPath>
<g clip-path="url(#cp255)">
<text xml:space="preserve" transform="matrix(1 0 -0 1 0 841.92)" font-size="14.04" font-family="Times New Roman"><tspan y="-337.73" x="85.104 95.184719 99.74772 105.981479 113.05763 119.29139 126.367549 130.2145 135.71817 139.56513 146.52896 153.59108 172.78376 182.14844 188.26988 193.77356 200.7374 207.70124 214.76335 218.6103 222.55554 229.51938 235.75315 241.15854 245.0055 252.06761 256.01286 275.20555 282.043 288.27677 295.3529 301.58668 308.5505 314.67195 333.86463 338.53996 342.48518 349.449 356.5111 360.35807 364.30329 370.4247 377.38856 381.33378 385.279 389.84199 393.7872 399.1926 406.2547 425.32106 432.28489 439.347 444.0223 450.8738 454.81904 461.0528 468.12895 474.3627 493.5554 503.6361 509.86988 514.54519 520.68069 527.7428 533.86428 537.8095">O&#x2019;zbekiston Respublikasini yanada rivojlantirish bo&#x2019;yicha Harakatl</tspan></text>
</g>
<clipPath id="cp256">
<path transform="matrix(1,0,0,-1,0,841.92)" d="M .000008871 0 L 595.32 0 L 595.32 841.92 L .000008871 841.92 Z " fill-rule="evenodd"/>
</clipPath>
<g clip-path="url(#cp256)">
<text xml:space="preserve" transform="matrix(1 0 -0 1 0 841.92)" font-size="14.04" font-family="Times New Roman"><tspan y="-337.73" x="542.02 548.26 552.9416">ar </tspan></text>
</g>
<clipPath id="cp257">
<path transform="matrix(1,0,0,-1,0,841.92)" d="M .000008871 0 L 595.32 0 L 595.32 841.92 L .000008871 841.92 Z " fill-rule="evenodd"/>
</clipPath>
<g clip-path="url(#cp257)">
</g>
<clipPath id="cp258">
<path transform="matrix(1,0,0,-1,0,841.92)" d="M .000008871 0 L 595.32 0 L 595.32 841.92 L .000008871 841.92 Z " fill-rule="evenodd"/>
</clipPath>
<g clip-path="url(#cp258)">
<text xml:space="preserve" transform="matrix(1 0 -0 1 0 841.92)" font-size="14.04" font-family="Times New Roman"><tspan y="-313.61" x="85.104 90.60768 94.552928 99.11593 105.349689 109.29493 115.41637 122.3802 126.32545 133.16292 139.39669 144.91442 148.85965 155.82349 162.05725">strategiyasida </tspan></text>
</g>
<clipPath id="cp259">
<path transform="matrix(1,0,0,-1,0,841.92)" d="M .000008871 0 L 595.32 0 L 595.32 841.92 L .000008871 841.92 Z " fill-rule="evenodd"/>
</clipPath>
<g clip-path="url(#cp259)">
<text xml:space="preserve" transform="matrix(1 0 -0 1 0 841.92)" font-size="14.04" font-family="Times New Roman"><tspan y="-313.61" x="165.98 171.97509 182.0558 188.28957 192.2348 199.29692 206.26076 211.76444 215.70967 221.94344 225.53768 229.48291 235.71668 240.27968 244.22492 248.17015 258.85459 262.56117 266.50639 270.4516 276.68537 280.63059 291.31504 295.26026 298.96684 302.91206 309.1458 313.82115 320.799 324.64598 331.70808 335.55503 342.61714 348.8509 352.55747 359.5213 363.46653 368.0295 375.0916 382.05546 388.2892 395.25306 399.19828 402.90486 409.86869 413.8139 417.75914 424.5966 428.30317 432.24839 438.48216 443.04515 446.99037 450.93559 461.73234 465.4389 469.38414 473.32936 479.5631 483.50834 494.19279 498.138 505.2001 509.14533 512.85189 519.6894 525.92318 532.9993 539.1208 546.1829 552.3044">&#x201c;Uzluksiz ta&#x2019;lim tizimi tarkibiga kiruvchi oliy ta&#x2019;lim tizimini yanada </tspan></text>
</g>
<clipPath id="cp260">
<path transform="matrix(1,0,0,-1,0,841.92)" d="M .000008871 0 L 595.32 0 L 595.32 841.92 L .000008871 841.92 Z " fill-rule="evenodd"/>
</clipPath>
<g clip-path="url(#cp260)">
</g>
<clipPath id="cp261">
<path transform="matrix(1,0,0,-1,0,841.92)" d="M .000008871 0 L 595.32 0 L 595.32 841.92 L .000008871 841.92 Z " fill-rule="evenodd"/>
</clipPath>
<g clip-path="url(#cp261)">
<text xml:space="preserve" transform="matrix(1 0 -0 1 0 841.92)" font-size="14.04" font-family="Times New Roman"><tspan y="-289.49" x="85.104 89.04924 95.283 102.24683 109.30895 119.99339 123.93864 127.88388 131.82912 137.95056 143.35596 150.41808 154.26503 158.21027 162.88559 166.73255 172.13794 179.20006 182.71006 189.02805 195.86553 202.92765 209.98976 217.05188 221.61489 225.56012 231.90619 242.59064 248.8244 252.76964 259.0034 266.07954 272.20097 276.14619 280.0914 286.31114 293.37324 299.49467 306.55677 311.11976 315.06498 321.1864 325.86174 332.93788 336.8831 343.1028 347.04804 353.2818 360.1333 366.97077 374.03288 378.7082 382.6534 388.88719 394.40489 401.46699 407.6867 413.19038 419.42414 430.10859 436.34236 441.01768 447.25144 454.2293 461.2914 465.96675 469.8137 473.66065 480.72276 484.5697 491.6318 495.57704 501.79676 508.7606 514.2643 521.22817 525.1734 529.7364 533.68167 539.08706 546.1492">takomillashtirish, yuqori malakali kadrlarni tayyorlash samaradorligini oshirish&#x201d;</tspan></text>
</g>
</g>
<g id="Layer-1" data-name="P">
<clipPath id="cp262">
<path transform="matrix(1,0,0,-1,0,841.92)" d="M .000008871 0 L 595.32 0 L 595.32 841.92 L .000008871 841.92 Z " fill-rule="evenodd"/>
</clipPath>
<g clip-path="url(#cp262)">
<text xml:space="preserve" transform="matrix(1 0 -0 1 0 841.92)" font-size="9" font-family="Times New Roman"><tspan y="-294.53" x="552.94"> </tspan></text>
</g>
<clipPath id="cp263">
<path transform="matrix(1,0,0,-1,0,841.92)" d="M .000008871 0 L 595.32 0 L 595.32 841.92 L .000008871 841.92 Z " fill-rule="evenodd"/>
</clipPath>
<g clip-path="url(#cp263)">
</g>
</g>
<g id="Layer-1" data-name="P">
<clipPath id="cp264">
<path transform="matrix(1,0,0,-1,0,841.92)" d="M .000008871 0 L 595.32 0 L 595.32 841.92 L .000008871 841.92 Z " fill-rule="evenodd"/>
</clipPath>
<g clip-path="url(#cp264)">
<text xml:space="preserve" transform="matrix(1 0 -0 1 0 841.92)" font-size="14.04" font-family="Times New Roman"><tspan y="-265.37" x="85.104 92.166118 97.57152 101.41848 108.4806 115.444438 122.50655 127.18188 134.97408 142.0362 148.26996 154.3914 158.33664 163.01197 169.24573 177.03792 183.27169 187.11864 191.06388 198.02771 205.8199 212.88202 219.11579 222.96274 229.92658 233.87181 237.71877 243.95253 250.91637 257.9785 264.0999 271.16203 274.67204">ustuvor vazifa etib belgilangan. </tspan></text>
</g>
</g>
<g id="Layer-1" data-name="P">
<clipPath id="cp265">
<path transform="matrix(1,0,0,-1,0,841.92)" d="M .000008871 0 L 595.32 0 L 595.32 841.92 L .000008871 841.92 Z " fill-rule="evenodd"/>
</clipPath>
<g clip-path="url(#cp265)">
<text xml:space="preserve" transform="matrix(1 0 -0 1 0 841.92)" font-size="14.04" font-family="Times New Roman"><tspan y="-265.37" x="282.77 291.29228 297.52604 302.08903 306.03425 309.97947 320.6639 328.6948 334.19847 338.14369 342.70668 348.94044 352.78739 356.7326 364.5248 371.5869 377.82069 384.78453 389.45985 393.40507 399.5265 404.2018 411.16566 415.11088 422.0747 429.1368 437.04136 441.60435 447.72578 454.78788 461.7517 468.8138 474.93525 478.88047 485.8443 492.07807 496.7534 503.73127 510.6951 516.1988 523.16268 527.00967 530.9549 537.91879 541.864 548.8279 552.67489">Ta&#x2019;lim sifati kadrlarning raqobatbardoshligini </tspan></text>
</g>
<clipPath id="cp266">
<path transform="matrix(1,0,0,-1,0,841.92)" d="M .000008871 0 L 595.32 0 L 595.32 841.92 L .000008871 841.92 Z " fill-rule="evenodd"/>
</clipPath>
<g clip-path="url(#cp266)">
</g>
</g>
<g id="Layer-1" data-name="P">
<clipPath id="cp267">
<path transform="matrix(1,0,0,-1,0,841.92)" d="M .000008871 0 L 595.32 0 L 595.32 841.92 L .000008871 841.92 Z " fill-rule="evenodd"/>
</clipPath>
<g clip-path="url(#cp267)">
<text xml:space="preserve" transform="matrix(1 0 -0 1 0 841.92)" font-size="14.04" font-family="Times New Roman"><tspan y="-241.13" x="85.104 89.04924 95.283 99.95832 110.64276">ta&#x2019;mi</tspan></text>
</g>
</g>
<g id="Layer-1" data-name="P">
<clipPath id="cp268">
<path transform="matrix(1,0,0,-1,0,841.92)" d="M .000008871 0 L 595.32 0 L 595.32 841.92 L .000008871 841.92 Z " fill-rule="evenodd"/>
</clipPath>
<g clip-path="url(#cp268)">
<text xml:space="preserve" transform="matrix(1 0 -0 1 0 841.92)" font-size="14.04" font-family="Times New Roman"><tspan y="-241.13" x="114.62 121.68212 125.627368 131.74881 137.25249 144.21633 149.95868 156.92252 160.76947 164.7147 170.94847 177.91231 183.65467 190.6185 194.56374 199.12674 206.09058 212.32434 216.26958 220.11653 227.08037 234.14249 240.37625">nlash bilan birgalikda </tspan></text>
</g>
</g>
<g id="Layer-1" data-name="P">
<clipPath id="cp269">
<path transform="matrix(1,0,0,-1,0,841.92)" d="M .000008871 0 L 595.32 0 L 595.32 841.92 L .000008871 841.92 Z " fill-rule="evenodd"/>
</clipPath>
<g clip-path="url(#cp269)">
<text xml:space="preserve" transform="matrix(1 0 -0 1 0 841.92)" font-size="14.04" font-family="Times New Roman"><tspan y="-241.13" x="246.29 252.41144 259.37528 266.43739 273.4012 278.07655 285.04039 288.9856 294.61564 298.56086 304.68229 311.7444 318.70823 325.67207 329.61729 336.58113 343.64323 347.58845 354.4259 360.65968 364.6049 370.83866 375.40165 379.2486 386.3107 390.25593 395.9983 406.68275 413.74485 420.80696 427.0407 437.8515 448.64826 454.88203 458.82725 464.5696 471.6317 476.1947 482.42848 486.3737 492.49513 497.99879 504.96263 508.80958 512.7548 517.4301 521.2771 526.6825 533.7446 539.487 546.45089 552.5723">axborot texnologiyalarini mukammal o&#x2019;zlashtirish va </tspan></text>
</g>
<clipPath id="cp270">
<path transform="matrix(1,0,0,-1,0,841.92)" d="M .000008871 0 L 595.32 0 L 595.32 841.92 L .000008871 841.92 Z " fill-rule="evenodd"/>
</clipPath>
<g clip-path="url(#cp270)">
</g>
</g>
<g id="Layer-1" data-name="P">
<clipPath id="cp271">
<path transform="matrix(1,0,0,-1,0,841.92)" d="M .000008871 0 L 595.32 0 L 595.32 841.92 L .000008871 841.92 Z " fill-rule="evenodd"/>
</clipPath>
<g clip-path="url(#cp271)">
<text xml:space="preserve" transform="matrix(1 0 -0 1 0 841.92)" font-size="14.04" font-family="Times New Roman"><tspan y="-216.98" x="85.104 89.04924 96.11136 100.67436 104.521327 108.46657">turli </tspan></text>
</g>
</g>
<g id="Layer-1" data-name="P">
<clipPath id="cp272">
<path transform="matrix(1,0,0,-1,0,841.92)" d="M .000008871 0 L 595.32 0 L 595.32 841.92 L .000008871 841.92 Z " fill-rule="evenodd"/>
</clipPath>
<g clip-path="url(#cp272)">
<text xml:space="preserve" transform="matrix(1 0 -0 1 0 841.92)" font-size="14.04" font-family="Times New Roman"><tspan y="-216.98" x="113.54 118.215328 124.33676 131.39888 136.29883 141.8025 148.76634 155.82846 161.9499 165.89514 172.1289 176.69191 180.63715 187.69927 193.82071">fan sohalariga </tspan></text>
</g>
</g>
<g id="Layer-1" data-name="P">
<clipPath id="cp273">
<path transform="matrix(1,0,0,-1,0,841.92)" d="M .000008871 0 L 595.32 0 L 595.32 841.92 L .000008871 841.92 Z " fill-rule="evenodd"/>
</clipPath>
<g clip-path="url(#cp273)">
<text xml:space="preserve" transform="matrix(1 0 -0 1 0 841.92)" font-size="14.04" font-family="Times New Roman"><tspan y="-216.98" x="199.01 202.85695 209.09072 213.03595 219.99979 223.84674">tatbiq</tspan></text>
</g>
</g>
<g id="Layer-1" data-name="P">
<clipPath id="cp274">
<path transform="matrix(1,0,0,-1,0,841.92)" d="M .000008871 0 L 595.32 0 L 595.32 841.92 L .000008871 841.92 Z " fill-rule="evenodd"/>
</clipPath>
<g clip-path="url(#cp274)">
<text xml:space="preserve" transform="matrix(1 0 -0 1 0 841.92)" font-size="14.04" font-family="Times New Roman"><tspan y="-216.98" x="230.93"> </tspan></text>
</g>
</g>
<g id="Layer-1" data-name="P">
<clipPath id="cp275">
<path transform="matrix(1,0,0,-1,0,841.92)" d="M .000008871 0 L 595.32 0 L 595.32 841.92 L .000008871 841.92 Z " fill-rule="evenodd"/>
</clipPath>
<g clip-path="url(#cp275)">
<text xml:space="preserve" transform="matrix(1 0 -0 1 0 841.92)" font-size="14.04" font-family="Times New Roman"><tspan y="-216.98" x="235.97 242.09145 246.03668 249.88364 255.28903 262.35115 267.37748 274.3413 278.18827 282.13349 288.36726 295.3311 300.35743 307.41954 313.54096 317.3879 324.35176 328.29698 332.2422 338.36363 345.42573 356.11018 363.17228 370.23439 377.29649 383.53025 386.89985">etish bilan belgilanmoqda. </tspan></text>
</g>
</g>
<g id="Layer-1" data-name="P">
<clipPath id="cp276">
<path transform="matrix(1,0,0,-1,0,841.92)" d="M .000008871 0 L 595.32 0 L 595.32 841.92 L .000008871 841.92 Z " fill-rule="evenodd"/>
</clipPath>
<g clip-path="url(#cp276)">
<text xml:space="preserve" transform="matrix(1 0 -0 1 0 841.92)" font-size="14.04" font-family="Times New Roman"><tspan y="-216.98" x="392.11">&#x201c;</tspan></text>
</g>
</g>
<g id="Layer-1" data-name="P">
<clipPath id="cp277">
<path transform="matrix(1,0,0,-1,0,841.92)" d="M .000008871 0 L 595.32 0 L 595.32 841.92 L .000008871 841.92 Z " fill-rule="evenodd"/>
</clipPath>
<g clip-path="url(#cp277)">
<text xml:space="preserve" transform="matrix(1 0 -0 1 0 841.92)" font-size="14.04" font-family="Times New Roman"><tspan y="-216.98" x="398.23 408.31074 415.37284 422.43495 429.39878 434.0741 441.03794 444.8849 449.91123 453.85646 459.97789 467.03999 474.0038 480.96766 484.91288 491.8767 498.9388 502.88404 509.7215 515.95529 519.9005 526.1343 530.69729 534.6425 539.5425 546.6046 552.7261">Axborot texnologiyalari va </tspan></text>
</g>
<clipPath id="cp278">
<path transform="matrix(1,0,0,-1,0,841.92)" d="M .000008871 0 L 595.32 0 L 595.32 841.92 L .000008871 841.92 Z " fill-rule="evenodd"/>
</clipPath>
<g clip-path="url(#cp278)">
</g>
</g>
<g id="Layer-1" data-name="P">
<clipPath id="cp279">
<path transform="matrix(1,0,0,-1,0,841.92)" d="M .000008871 0 L 595.32 0 L 595.32 841.92 L .000008871 841.92 Z " fill-rule="evenodd"/>
</clipPath>
<g clip-path="url(#cp279)">
<text xml:space="preserve" transform="matrix(1 0 -0 1 0 841.92)" font-size="14.04" font-family="Times New Roman"><tspan y="-192.86" x="85.104 88.95096 95.184719 99.86004 106.093799 112.94531 120.00743 127.06955 131.01479 137.24855 141.81156 148.87368 152.81891 173.20499 183.88944 190.1232 194.06844 200.3022 211.113 217.34677 221.292 225.23725 232.29936 252.68544 263.36988 270.43199 277.49409 283.72785 287.5748 291.52003 297.64146 303.04685 310.10896 313.9559 317.90113 322.4641 326.40934 331.81474">jarayonlarni matematik modellashtirish</tspan></text>
</g>
</g>
<g id="Layer-1" data-name="P">
<clipPath id="cp280">
<path transform="matrix(1,0,0,-1,0,841.92)" d="M .000008871 0 L 595.32 0 L 595.32 841.92 L .000008871 841.92 Z " fill-rule="evenodd"/>
</clipPath>
<g clip-path="url(#cp280)">
<text xml:space="preserve" transform="matrix(1 0 -0 1 0 841.92)" font-size="14.04" font-family="Times New Roman"><tspan y="-192.86" x="339.19">&#x201d;</tspan></text>
</g>
</g>
<g id="Layer-1" data-name="P">
<clipPath id="cp281">
<path transform="matrix(1,0,0,-1,0,841.92)" d="M .000008871 0 L 595.32 0 L 595.32 841.92 L .000008871 841.92 Z " fill-rule="evenodd"/>
</clipPath>
<g clip-path="url(#cp281)">
<text xml:space="preserve" transform="matrix(1 0 -0 1 0 841.92)" font-size="14.04" font-family="Times New Roman"><tspan y="-192.86" x="345.43 365.83">  </tspan></text>
</g>
</g>
<g id="Layer-1" data-name="P">
<clipPath id="cp282">
<path transform="matrix(1,0,0,-1,0,841.92)" d="M .000008871 0 L 595.32 0 L 595.32 841.92 L .000008871 841.92 Z " fill-rule="evenodd"/>
</clipPath>
<g clip-path="url(#cp282)">
<text xml:space="preserve" transform="matrix(1 0 -0 1 0 841.92)" font-size="14.04" font-family="Times New Roman"><tspan y="-192.86" x="386.23 390.90534 397.02677 404.08888 408.0341 428.42018 434.65394 440.77537 451.4598 458.5219 465.584 471.81779 478.89393 482.83915 489.6766 510.06269 516.29647 523.3726 530.3365 537.3986 541.9616 548.9255 552.77249">fani zamonaviy axborot </tspan></text>
</g>
<clipPath id="cp283">
<path transform="matrix(1,0,0,-1,0,841.92)" d="M .000008871 0 L 595.32 0 L 595.32 841.92 L .000008871 841.92 Z " fill-rule="evenodd"/>
</clipPath>
<g clip-path="url(#cp283)">
</g>
</g>
<g id="Layer-1" data-name="P">
<clipPath id="cp284">
<path transform="matrix(1,0,0,-1,0,841.92)" d="M .000008871 0 L 595.32 0 L 595.32 841.92 L .000008871 841.92 Z " fill-rule="evenodd"/>
</clipPath>
<g clip-path="url(#cp284)">
<text xml:space="preserve" transform="matrix(1 0 -0 1 0 841.92)" font-size="14.04" font-family="Times New Roman"><tspan y="-168.74" x="85.104 89.04924 95.283 102.24683 109.21067 116.27279 120.11975 127.08359 134.1457 138.09095 144.92842 151.16219 155.10742 161.34119 165.90419 169.84943 176.81327">texnologiyalarini</tspan></text>
</g>
</g>
<g id="Layer-1" data-name="P">
<clipPath id="cp285">
<path transform="matrix(1,0,0,-1,0,841.92)" d="M .000008871 0 L 595.32 0 L 595.32 841.92 L .000008871 841.92 Z " fill-rule="evenodd"/>
</clipPath>
<g clip-path="url(#cp285)">
<text xml:space="preserve" transform="matrix(1 0 -0 1 0 841.92)" font-size="14.04" font-family="Times New Roman"><tspan y="-168.74" x="180.74 187.82">ng</tspan></text>
</g>
</g>
<g id="Layer-1" data-name="P">
<clipPath id="cp286">
<path transform="matrix(1,0,0,-1,0,841.92)" d="M .000008871 0 L 595.32 0 L 595.32 841.92 L .000008871 841.92 Z " fill-rule="evenodd"/>
</clipPath>
<g clip-path="url(#cp286)">
<text xml:space="preserve" transform="matrix(1 0 -0 1 0 841.92)" font-size="14.04" font-family="Times New Roman"><tspan y="-168.74" x="194.93"> </tspan></text>
</g>
</g>
<g id="Layer-1" data-name="P">
<clipPath id="cp287">
<path transform="matrix(1,0,0,-1,0,841.92)" d="M .000008871 0 L 595.32 0 L 595.32 841.92 L .000008871 841.92 Z " fill-rule="evenodd"/>
</clipPath>
<g clip-path="url(#cp287)">
<text xml:space="preserve" transform="matrix(1 0 -0 1 0 841.92)" font-size="14.04" font-family="Times New Roman"><tspan y="-168.74" x="201.17 208.23212 215.19596 222.15979 229.22191 236.18575 243.14958 247.09482 253.44089 260.40473 267.46684 274.43067 281.49278 287.6142">bugungi kundag</tspan></text>
</g>
</g>
<g id="Layer-1" data-name="P">
<clipPath id="cp288">
<path transform="matrix(1,0,0,-1,0,841.92)" d="M .000008871 0 L 595.32 0 L 595.32 841.92 L .000008871 841.92 Z " fill-rule="evenodd"/>
</clipPath>
<g clip-path="url(#cp288)">
<text xml:space="preserve" transform="matrix(1 0 -0 1 0 841.92)" font-size="14.04" font-family="Times New Roman"><tspan y="-168.74" x="294.65 298.5952 304.9413 311.77879 318.84089 322.7861 329.8482 336.81205 340.75727 346.99104 351.55403 355.40098 362.46308 366.4083">i yutuqlarini </tspan></text>
</g>
</g>
<g id="Layer-1" data-name="P">
<clipPath id="cp289">
<path transform="matrix(1,0,0,-1,0,841.92)" d="M .000008871 0 L 595.32 0 L 595.32 841.92 L .000008871 841.92 Z " fill-rule="evenodd"/>
</clipPath>
<g clip-path="url(#cp289)">
<text xml:space="preserve" transform="matrix(1 0 -0 1 0 841.92)" font-size="14.04" font-family="Times New Roman"><tspan y="-168.74" x="372.79">s</tspan></text>
</g>
</g>
<g id="Layer-1" data-name="P">
<clipPath id="cp290">
<path transform="matrix(1,0,0,-1,0,841.92)" d="M .000008871 0 L 595.32 0 L 595.32 841.92 L .000008871 841.92 Z " fill-rule="evenodd"/>
</clipPath>
<g clip-path="url(#cp290)">
<text xml:space="preserve" transform="matrix(1 0 -0 1 0 841.92)" font-size="14.04" font-family="Times New Roman"><tspan y="-168.74" x="378.31 385.27384 392.33595 398.55567 405.61778 412.67988 417.24287 421.0898 427.32359 431.2688 435.11576 442.0796 446.0248 452.98866 456.93388 463.27998 467.12693 473.3607 478.76609 485.8282">uv xo&#x2019;jaligini tashk</tspan></text>
</g>
</g>
<g id="Layer-1" data-name="P">
<clipPath id="cp291">
<path transform="matrix(1,0,0,-1,0,841.92)" d="M .000008871 0 L 595.32 0 L 595.32 841.92 L .000008871 841.92 Z " fill-rule="evenodd"/>
</clipPath>
<g clip-path="url(#cp291)">
<text xml:space="preserve" transform="matrix(1 0 -0 1 0 841.92)" font-size="14.04" font-family="Times New Roman"><tspan y="-168.74" x="492.94 496.78697 500.73219 507.07829 513.312 517.159 521.006 526.50967 533.5718 539.7915 546.7554 552.87686">il etish va </tspan></text>
</g>
<clipPath id="cp292">
<path transform="matrix(1,0,0,-1,0,841.92)" d="M .000008871 0 L 595.32 0 L 595.32 841.92 L .000008871 841.92 Z " fill-rule="evenodd"/>
</clipPath>
<g clip-path="url(#cp292)">
</g>
</g>
<g id="Layer-1" data-name="P">
<clipPath id="cp293">
<path transform="matrix(1,0,0,-1,0,841.92)" d="M .000008871 0 L 595.32 0 L 595.32 841.92 L .000008871 841.92 Z " fill-rule="evenodd"/>
</clipPath>
<g clip-path="url(#cp293)">
<text xml:space="preserve" transform="matrix(1 0 -0 1 0 841.92)" font-size="14.04" font-family="Times New Roman"><tspan y="-144.5" x="85.104 92.166118 99.12995 104.535358 111.59747 118.65959 124.78103 129.45635 133.3033 138.80698 145.8691">boshqarish </tspan></text>
</g>
</g>
<g id="Layer-1" data-name="P">
<clipPath id="cp294">
<path transform="matrix(1,0,0,-1,0,841.92)" d="M .000008871 0 L 595.32 0 L 595.32 841.92 L .000008871 841.92 Z " fill-rule="evenodd"/>
</clipPath>
<g clip-path="url(#cp294)">
<text xml:space="preserve" transform="matrix(1 0 -0 1 0 841.92)" font-size="14.04" font-family="Times New Roman"><tspan y="-144.5" x="158.06 161.90695 168.14072 172.81604 179.0498 185.90132 192.96344 199.92728 203.77423 210.008">jarayonlar</tspan></text>
</g>
</g>
<g id="Layer-1" data-name="P">
<clipPath id="cp295">
<path transform="matrix(1,0,0,-1,0,841.92)" d="M .000008871 0 L 595.32 0 L 595.32 841.92 L .000008871 841.92 Z " fill-rule="evenodd"/>
</clipPath>
<g clip-path="url(#cp295)">
<text xml:space="preserve" transform="matrix(1 0 -0 1 0 841.92)" font-size="14.04" font-family="Times New Roman"><tspan y="-144.5" x="214.73">i</tspan></text>
</g>
</g>
<g id="Layer-1" data-name="P">
<clipPath id="cp296">
<path transform="matrix(1,0,0,-1,0,841.92)" d="M .000008871 0 L 595.32 0 L 595.32 841.92 L .000008871 841.92 Z " fill-rule="evenodd"/>
</clipPath>
<g clip-path="url(#cp296)">
<text xml:space="preserve" transform="matrix(1 0 -0 1 0 841.92)" font-size="14.04" font-family="Times New Roman"><tspan y="-144.5" x="218.57 225.63213 229.57736 241.67984 252.36429 258.59806 262.54328 268.88938 279.57383 285.8076 289.7528 293.69804 300.76014 312.8626 323.65937 330.72148 337.6853 343.91908 347.76603 351.71125 357.83268 363.33634 370.30018 374.2454 378.1906 382.7536 386.60057 392.10423 399.06806 406.13017 412.36393 424.48045 428.42567">ni matematik modellashtirishga ta</tspan></text>
</g>
</g>
<g id="Layer-1" data-name="P">
<clipPath id="cp297">
<path transform="matrix(1,0,0,-1,0,841.92)" d="M .000008871 0 L 595.32 0 L 595.32 841.92 L .000008871 841.92 Z " fill-rule="evenodd"/>
</clipPath>
<g clip-path="url(#cp297)">
<text xml:space="preserve" transform="matrix(1 0 -0 1 0 841.92)" font-size="14.04" font-family="Times New Roman"><tspan y="-144.5" x="434.83">t</tspan></text>
</g>
</g>
<g id="Layer-1" data-name="P">
<clipPath id="cp298">
<path transform="matrix(1,0,0,-1,0,841.92)" d="M .000008871 0 L 595.32 0 L 595.32 841.92 L .000008871 841.92 Z " fill-rule="evenodd"/>
</clipPath>
<g clip-path="url(#cp298)">
<text xml:space="preserve" transform="matrix(1 0 -0 1 0 841.92)" font-size="14.04" font-family="Times New Roman"><tspan y="-144.5" x="438.67 445.63386 449.57908 456.64118 468.74366 474.97743 478.82438 482.67134 488.175 495.2371 498.7471 510.8215 517.78536 521.7306 527.96438 532.52737 539.5895 545.71096 552.7731">biq etish, ulardan </tspan></text>
</g>
<clipPath id="cp299">
<path transform="matrix(1,0,0,-1,0,841.92)" d="M .000008871 0 L 595.32 0 L 595.32 841.92 L .000008871 841.92 Z " fill-rule="evenodd"/>
</clipPath>
<g clip-path="url(#cp299)">
</g>
</g>
<g id="Layer-1" data-name="P">
<clipPath id="cp300">
<path transform="matrix(1,0,0,-1,0,841.92)" d="M .000008871 0 L 595.32 0 L 595.32 841.92 L .000008871 841.92 Z " fill-rule="evenodd"/>
</clipPath>
<g clip-path="url(#cp300)">
<text xml:space="preserve" transform="matrix(1 0 -0 1 0 841.92)" font-size="14.04" font-family="Times New Roman"><tspan y="-120.38" x="85.104 95.78844 102.850559 106.7958 113.02956 120.10571 126.33947 131.74486 137.24854 141.09549 146.50089 150.44612 154.29308 161.3552 166.74655 177.431 183.66477 189.1825 195.41626 199.3615 205.48294 209.42818 215.66194 220.22495 224.17018 231.13402 235.07926 240.47061 247.30809 253.54186 259.7756 266.85176 270.6987 276.20237 283.1662 290.2283 296.46208 301.74113 307.24479 313.47856 324.28935 330.5231 335.19844 341.4322 345.29319 349.2384">mutaxassislik masalalarini yechishda samarali </tspan></text>
</g>
</g>
<g id="Layer-1" data-name="P">
<clipPath id="cp301">
<path transform="matrix(1,0,0,-1,0,841.92)" d="M .000008871 0 L 595.32 0 L 595.32 841.92 L .000008871 841.92 Z " fill-rule="evenodd"/>
</clipPath>
<g clip-path="url(#cp301)">
<text xml:space="preserve" transform="matrix(1 0 -0 1 0 841.92)" font-size="14.04" font-family="Times New Roman"><tspan y="-120.38" x="354.91 359.473 366.5351 373.37257 380.43467 386.66844 390.61366 396.73509 403.79719 407.64414 413.1478 420.2099 425.60127 436.2857 443.3478 450.4099 454.35514 465.03959 470.43095 476.6647 483.74085 489.9746 500.65907 504.73066 511.5681 517.8019 521.74716 527.1385 534.2006 540.4344 545.7275">foydalanish muhim ahamiyat kasb</tspan></text>
</g>
</g>
<g id="Layer-1" data-name="P">
<clipPath id="cp302">
<path transform="matrix(1,0,0,-1,0,841.92)" d="M .000008871 0 L 595.32 0 L 595.32 841.92 L .000008871 841.92 Z " fill-rule="evenodd"/>
</clipPath>
<g clip-path="url(#cp302)">
<text xml:space="preserve" transform="matrix(1 0 -0 1 0 841.92)" font-size="14.04" font-family="Times New Roman"><tspan y="-120.38" x="552.94"> </tspan></text>
</g>
<clipPath id="cp303">
<path transform="matrix(1,0,0,-1,0,841.92)" d="M .000008871 0 L 595.32 0 L 595.32 841.92 L .000008871 841.92 Z " fill-rule="evenodd"/>
</clipPath>
<g clip-path="url(#cp303)">
</g>
</g>
<g id="Layer-1" data-name="P">
<clipPath id="cp304">
<path transform="matrix(1,0,0,-1,0,841.92)" d="M .000008871 0 L 595.32 0 L 595.32 841.92 L .000008871 841.92 Z " fill-rule="evenodd"/>
</clipPath>
<g clip-path="url(#cp304)">
<text xml:space="preserve" transform="matrix(1 0 -0 1 0 841.92)" font-size="14.04" font-family="Times New Roman"><tspan y="-96.264" x="85.104 91.33775 95.283 101.404438 108.46655 112.4118 115.9218">etadi. </tspan></text>
</g>
</g>
<g id="Layer-1" data-name="P">
<clipPath id="cp305">
<path transform="matrix(1,0,0,-1,0,841.92)" d="M .000008871 0 L 595.32 0 L 595.32 841.92 L .000008871 841.92 Z " fill-rule="evenodd"/>
</clipPath>
<g clip-path="url(#cp305)">
<text xml:space="preserve" transform="matrix(1 0 -0 1 0 841.92)" font-size="14.04" font-family="Times New Roman"><tspan y="-96.264" x="119.3"> </tspan></text>
</g>
<clipPath id="cp306">
<path transform="matrix(1,0,0,-1,0,841.92)" d="M .000008871 0 L 595.32 0 L 595.32 841.92 L .000008871 841.92 Z " fill-rule="evenodd"/>
</clipPath>
<g clip-path="url(#cp306)">
</g>
</g>
<g id="Layer-1" data-name="P">
<path transform="matrix(1,0,0,-1,0,841.92)" d="M 288.72 629.52 L 550.56 629.52 L 550.56 771.24 L 288.72 771.24 Z " fill="#ffffff" fill-rule="evenodd"/>
</g>
<g id="Layer-1" data-name="P">
<path transform="matrix(1,0,0,-1,0,841.92)" d="M 324.79 751.06 L 541.65 751.06 L 541.65 767.164 L 324.79 767.164 Z " fill="#ffffff" fill-rule="evenodd"/>
</g>
<g id="Layer-1" data-name="P">
<clipPath id="cp307">
<path transform="matrix(1,0,0,-1,0,841.92)" d="M 289.25 633.7 L 550.06 633.7 L 550.06 767.16006 L 289.25 767.16006 Z " fill-rule="evenodd"/>
</clipPath>
<g clip-path="url(#cp307)">
<text xml:space="preserve" transform="matrix(1 0 -0 1 0 841.92)" font-size="14.04" font-family="Times New Roman,Italic" font-style="italic"><tspan y="-754.44" x="324.79 332.59626 339.43373 344.8391 351.67658 355.52354 362.361 367.7664 371.61335 381.5677 385.28828 390.69367 397.6575 401.37809 408.34193 415.30577 419.4897 429.44404 436.2815 441.6869 445.40748 452.3713 459.33515 463.05574 466.90269 471.0866 474.93357 478.78053 484.7756 490.181 493.90159 500.86543 506.98686 513.82437 517.6713 524.50888 531.4727 538.4366 541.6798">Yoshlarimizning mustaqil fikrlaydigan, </tspan></text>
</g>
<path transform="matrix(1,0,0,-1,0,841.92)" d="M 297.65 734.98 L 541.66 734.98 L 541.66 751.42 L 297.65 751.42 Z " fill="#ffffff" fill-rule="evenodd"/>
</g>
<g id="Layer-1" data-name="P">
<clipPath id="cp308">
<path transform="matrix(1,0,0,-1,0,841.92)" d="M 289.25 633.7 L 550.06 633.7 L 550.06 767.16006 L 289.25 767.16006 Z " fill-rule="evenodd"/>
</clipPath>
<g clip-path="url(#cp308)">
<text xml:space="preserve" transform="matrix(1 0 -0 1 0 841.92)" font-size="14.04" font-family="Times New Roman,Italic" font-style="italic"><tspan y="-738.34" x="297.65 303.77143 310.73527 316.8567 322.1357 329.09956 335.22099 339.2926 343.01319 349.97703 353.82398 359.81907 363.66603 367.51298">yuksak intelle</tspan></text>
</g>
</g>
<g id="Layer-1" data-name="P">
<clipPath id="cp309">
<path transform="matrix(1,0,0,-1,0,841.92)" d="M 289.25 633.7 L 550.06 633.7 L 550.06 767.16006 L 289.25 767.16006 Z " fill-rule="evenodd"/>
</clipPath>
<g clip-path="url(#cp309)">
<text xml:space="preserve" transform="matrix(1 0 -0 1 0 841.92)" font-size="14.04" font-family="Times New Roman,Italic" font-style="italic"><tspan y="-738.34" x="373.63">k</tspan></text>
</g>
</g>
<g id="Layer-1" data-name="P">
<clipPath id="cp310">
<path transform="matrix(1,0,0,-1,0,841.92)" d="M 289.25 633.7 L 550.06 633.7 L 550.06 767.16006 L 289.25 767.16006 Z " fill-rule="evenodd"/>
</clipPath>
<g clip-path="url(#cp310)">
<text xml:space="preserve" transform="matrix(1 0 -0 1 0 841.92)" font-size="14.04" font-family="Times New Roman,Italic" font-style="italic"><tspan y="-738.34" x="379.75 383.47059 390.43443 397.27189 401.11885 405.19047 411.18556 418.023 422.09465 432.04899 439.01283 443.5758 450.53965 457.50349 463.49858 467.34553 473.46696 477.53858 482.8176 489.78144 493.502 500.46586 507.3033 511.15028 517.2717 524.10928 527.95626 534.79379 541.6313">tual va ma&#x2019;naviy salohiyatga </tspan></text>
</g>
<path transform="matrix(1,0,0,-1,0,841.92)" d="M 297.65 718.9 L 541.66 718.9 L 541.66 735.34 L 297.65 735.34 Z " fill="#ffffff" fill-rule="evenodd"/>
</g>
<g id="Layer-1" data-name="P">
<clipPath id="cp311">
<path transform="matrix(1,0,0,-1,0,841.92)" d="M 289.25 633.7 L 550.06 633.7 L 550.06 767.16006 L 289.25 767.16006 Z " fill-rule="evenodd"/>
</clipPath>
<g clip-path="url(#cp311)">
<text xml:space="preserve" transform="matrix(1 0 -0 1 0 841.92)" font-size="14.04" font-family="Times New Roman,Italic" font-style="italic"><tspan y="-722.26" x="297.65 303.77143 310.73527 317.6991 337.8465 344.68397 351.6478 356.2108 359.93138 363.77833 370.74217 374.09773 394.24513 401.08259 408.04643 414.88389 421.0053 427.96916 448.11656 458.0709 461.91786 468.88169 475.0031 481.84059 487.24598 490.96656 497.9304 504.89424 524.9153 531.87918 536.31576 541.5948">ega bo&#x2019;lib, dunyo miqyosida o&#x2019;z </tspan></text>
</g>
<path transform="matrix(1,0,0,-1,0,841.92)" d="M 297.65 702.82 L 541.66 702.82 L 541.66 719.26 L 297.65 719.26 Z " fill="#ffffff" fill-rule="evenodd"/>
</g>
<g id="Layer-1" data-name="P">
<clipPath id="cp312">
<path transform="matrix(1,0,0,-1,0,841.92)" d="M 289.25 633.7 L 550.06 633.7 L 550.06 767.16006 L 289.25 767.16006 Z " fill-rule="evenodd"/>
</clipPath>
<g clip-path="url(#cp312)">
<text xml:space="preserve" transform="matrix(1 0 -0 1 0 841.92)" font-size="14.04" font-family="Times New Roman,Italic" font-style="italic"><tspan y="-706.18" x="297.65 301.49696 307.61839 314.5822 321.41969 328.3835 335.22099 340.62638 347.46385 351.3108 358.14826 363.55366 367.27424 374.23808 381.2019 389.94883 396.91267 402.90776 409.02919 415.86665 424.61357 431.5774 438.54124 444.66267 449.94169 453.78865 462.53556 467.94096 474.7784 481.74226 488.5797 495.54356 502.5074 511.12797 518.0918 525.05569 529.49227 534.7713 541.6088">tengdoshlariga hech qaysi sohada bo&#x2019;sh </tspan></text>
</g>
<path transform="matrix(1,0,0,-1,0,841.92)" d="M 297.65 686.62 L 541.66 686.62 L 541.66 703.06 L 297.65 703.06 Z " fill="#ffffff" fill-rule="evenodd"/>
</g>
<g id="Layer-1" data-name="P">
<clipPath id="cp313">
<path transform="matrix(1,0,0,-1,0,841.92)" d="M 289.25 633.7 L 550.06 633.7 L 550.06 767.16006 L 289.25 767.16006 Z " fill-rule="evenodd"/>
</clipPath>
<g clip-path="url(#cp313)">
<text xml:space="preserve" transform="matrix(1 0 -0 1 0 841.92)" font-size="14.04" font-family="Times New Roman,Italic" font-style="italic"><tspan y="-689.98" x="297.65 303.77143 309.89286 313.7398 323.69416 330.658 336.77943 343.61689 347.46385 354.3013 361.26515 368.22898 373.2553 377.10227 383.93974 389.34513 396.1826 403.14643 406.867 413.83085 419.10987 424.1362 431.10005 438.06388 442.62687 446.47383 450.1944 457.15824 462.18458 468.306 475.26985 485.22419 492.18803 496.03498 501.0613 504.7819 511.74574 518.58328 522.43026 527.7093 534.67318 538.52017 541.637">kelmaydigan insonlar bo&#x2019;lib kamol topishi, </tspan></text>
</g>
<path transform="matrix(1,0,0,-1,0,841.92)" d="M 297.65 670.54 L 541.66 670.54 L 541.66 686.98 L 297.65 686.98 Z " fill="#ffffff" fill-rule="evenodd"/>
</g>
<g id="Layer-1" data-name="P">
<clipPath id="cp314">
<path transform="matrix(1,0,0,-1,0,841.92)" d="M 289.25 633.7 L 550.06 633.7 L 550.06 767.16006 L 289.25 767.16006 Z " fill-rule="evenodd"/>
</clipPath>
<g clip-path="url(#cp314)">
<text xml:space="preserve" transform="matrix(1 0 -0 1 0 841.92)" font-size="14.04" font-family="Times New Roman,Italic" font-style="italic"><tspan y="-673.9" x="297.65 304.61384 311.57768 317.6991 321.41969 325.26664 329.1136 345.6527 352.61656 359.58039 364.01704 367.86399 371.71095 376.98997 383.9538 387.80076 404.33988 411.3037 417.2988 424.26264 431.22648 438.1903 454.72944 461.69328 468.6571 474.6522 478.49916 485.3366 489.18357 493.03053 502.98487 506.70545 512.11087 528.7763 534.77139 541.6089">baxtli bo&#x2019;lishi uchun davlatimiz va </tspan></text>
</g>
<path transform="matrix(1,0,0,-1,0,841.92)" d="M 297.65 654.46 L 541.66 654.46 L 541.66 670.9 L 297.65 670.9 Z " fill="#ffffff" fill-rule="evenodd"/>
</g>
<g id="Layer-1" data-name="P">
<clipPath id="cp315">
<path transform="matrix(1,0,0,-1,0,841.92)" d="M 289.25 633.7 L 550.06 633.7 L 550.06 767.16006 L 289.25 767.16006 Z " fill-rule="evenodd"/>
</clipPath>
<g clip-path="url(#cp315)">
<text xml:space="preserve" transform="matrix(1 0 -0 1 0 841.92)" font-size="14.04" font-family="Times New Roman,Italic" font-style="italic"><tspan y="-657.82" x="297.65 301.49696 308.4608 318.41514 322.2621 328.3835 335.22099 339.06794 342.9149 352.86924 356.5898 361.9952 368.83268 372.67964 379.5171 386.48094 418.74488 425.7087 432.67256 437.95158 470.34187 476.4633 483.42713 489.4222 496.38606 528.77639 534.7714 541.60897">jamiyatimizning bor kuch va </tspan></text>
</g>
<path transform="matrix(1,0,0,-1,0,841.92)" d="M 297.65 638.38 L 476.14 638.38 L 476.14 654.82 L 297.65 654.82 Z " fill="#ffffff" fill-rule="evenodd"/>
</g>
<g id="Layer-1" data-name="P">
<clipPath id="cp316">
<path transform="matrix(1,0,0,-1,0,841.92)" d="M 289.25 633.7 L 550.06 633.7 L 550.06 767.16006 L 289.25 767.16006 Z " fill-rule="evenodd"/>
</clipPath>
<g clip-path="url(#cp316)">
<text xml:space="preserve" transform="matrix(1 0 -0 1 0 841.92)" font-size="14.04" font-family="Times New Roman,Italic" font-style="italic"><tspan y="-641.74" x="297.65 301.49696 311.4513 317.57273 324.53657 331.5004 335.34736 341.34245 348.30628 352.02687 355.8738 362.71128 368.11668 371.83726 378.8011 382.64805 386.0036 391.28263 398.24647 401.96705 408.93089 414.2099 421.17375 428.13758 433.54298 436.89854 442.89363 446.74058 453.7044 463.65876 467.5057">imkoniyatlarini safarbar etamiz</tspan></text>
</g>
</g>
<g id="Layer-1" data-name="P">
<clipPath id="cp317">
<path transform="matrix(1,0,0,-1,0,841.92)" d="M 289.25 633.7 L 550.06 633.7 L 550.06 767.16006 L 289.25 767.16006 Z " fill-rule="evenodd"/>
</clipPath>
<g clip-path="url(#cp317)">
<text xml:space="preserve" transform="matrix(1 0 -0 1 0 841.92)" font-size="14.04" font-family="Times New Roman,Italic" font-style="italic"><tspan y="-641.74" x="472.9">.</tspan></text>
</g>
</g>
<g id="Layer-1" data-name="P">
<clipPath id="cp318">
<path transform="matrix(1,0,0,-1,0,841.92)" d="M 289.25 633.7 L 550.06 633.7 L 550.06 767.16006 L 289.25 767.16006 Z " fill-rule="evenodd"/>
</clipPath>
<g clip-path="url(#cp318)">
<text xml:space="preserve" transform="matrix(1 0 -0 1 0 841.92)" font-size="14.04" font-family="Times New Roman,Italic" font-style="italic"><tspan y="-641.74" x="476.14"> </tspan></text>
</g>
</g>
<g id="Layer-1" data-name="P">
<clipPath id="cp319">
<path transform="matrix(1,0,0,-1,0,841.92)" d="M 289.25 633.7 L 550.06 633.7 L 550.06 767.16006 L 289.25 767.16006 Z " fill-rule="evenodd"/>
</clipPath>
<g clip-path="url(#cp319)">
<text xml:space="preserve" transform="matrix(1 0 -0 1 0 841.92)" font-size="11.04" font-family="Calibri"><tspan y="-627.94" x="419.59"> </tspan></text>
</g>
</g>
</g>
</g>
</svg>
