<?xml version="1.0" encoding="UTF-8" standalone="no"?>
<!DOCTYPE svg PUBLIC "-//W3C//DTD SVG 1.1//EN" "http://www.w3.org/Graphics/SVG/1.1/DTD/svg11.dtd">
<svg xmlns="http://www.w3.org/2000/svg" xmlns:xlink="http://www.w3.org/1999/xlink" version="1.1" width="595.32pt" height="841.92pt" viewBox="0 0 595.32 841.92">
<g enable-background="new">
<g>
<g id="Layer-1" data-name="Artifact">
<clipPath id="cp55459">
<path transform="matrix(1,0,0,-1,0,841.92)" d="M .000008871 0 L 595.32 0 L 595.32 841.92 L .000008871 841.92 Z " fill-rule="evenodd"/>
</clipPath>
<g clip-path="url(#cp55459)">
<text xml:space="preserve" transform="matrix(1 0 -0 1 0 841.92)" font-size="11.04" font-family="Calibri"><tspan y="-51.864" x="314.09 319.72999 325.36997">317</tspan></text>
</g>
<clipPath id="cp55460">
<path transform="matrix(1,0,0,-1,0,841.92)" d="M .000008871 0 L 595.32 0 L 595.32 841.92 L .000008871 841.92 Z " fill-rule="evenodd"/>
</clipPath>
<g clip-path="url(#cp55460)">
<text xml:space="preserve" transform="matrix(1 0 -0 1 0 841.92)" font-size="11.04" font-family="Calibri"><tspan y="-51.864" x="331.03"> </tspan></text>
</g>
<clipPath id="cp55461">
<path transform="matrix(1,0,0,-1,0,841.92)" d="M .000008871 0 L 595.32 0 L 595.32 841.92 L .000008871 841.92 Z " fill-rule="evenodd"/>
</clipPath>
<g clip-path="url(#cp55461)">
</g>
<clipPath id="cp55462">
<path transform="matrix(1,0,0,-1,0,841.92)" d="M .000008871 0 L 595.32 0 L 595.32 841.92 L .000008871 841.92 Z " fill-rule="evenodd"/>
</clipPath>
<g clip-path="url(#cp55462)">
<text xml:space="preserve" transform="matrix(1 0 -0 1 0 841.92)" font-size="11.04" font-family="Calibri"><tspan y="-38.4" x="85.104"> </tspan></text>
</g>
<clipPath id="cp55463">
<path transform="matrix(1,0,0,-1,0,841.92)" d="M .000008871 0 L 595.32 0 L 595.32 841.92 L .000008871 841.92 Z " fill-rule="evenodd"/>
</clipPath>
<g clip-path="url(#cp55463)">
</g>
</g>
<g id="Layer-1" data-name="P">
<clipPath id="cp55464">
<path transform="matrix(1,0,0,-1,0,841.92)" d="M .000008871 0 L 595.32 0 L 595.32 841.92 L .000008871 841.92 Z " fill-rule="evenodd"/>
</clipPath>
<g clip-path="url(#cp55464)">
<text xml:space="preserve" transform="matrix(1 0 -0 1 0 841.92)" font-size="14.04" font-family="Times New Roman"><tspan y="-772.56" x="85.104 92.166118 96.01308 99.95832 106.07976 113.14188 116.98884 124.05096 130.1724 137.23451 142.13446 146.80979 150.75502 156.16042 163.12425 167.06949 173.19094 177.13617 183.36994 190.33377 194.18073 201.24285 207.36429 214.4264 219.10173 224.01573 228.69106 234.92482 240.33022 247.39234 251.95534 257.459 261.40425 267.638 272.201 276.1462 281.04618 288.10829 294.34205 298.189 308.87345 312.81867 317.71864 322.39396 326.33918 331.84284 338.80668 342.7519 348.87333 355.93544 360.8354 367.06916 374.033 377.9782 385.0403 391.16175 395.83708 399.68403 405.18769 412.2498 417.14976 421.82508 427.9465 435.0086 438.85557 445.8194 450.49473 454.43995 460.6737 465.2367 469.18193 473.85725 477.36726">qiladigan (ishlatadigan) resurslari hajmi (ishlab chiqarish faktorlari), </tspan></text>
</g>
<clipPath id="cp55465">
<path transform="matrix(1,0,0,-1,0,841.92)" d="M .000008871 0 L 595.32 0 L 595.32 841.92 L .000008871 841.92 Z " fill-rule="evenodd"/>
</clipPath>
<g clip-path="url(#cp55465)">
<text xml:space="preserve" transform="matrix(1 0 -0 1 0 841.92)" font-size="14.04" font-family="Times New Roman,Italic" font-style="italic"><tspan y="-772.56" x="482.86">p</tspan></text>
</g>
<clipPath id="cp55466">
<path transform="matrix(1,0,0,-1,0,841.92)" d="M .000008871 0 L 595.32 0 L 595.32 841.92 L .000008871 841.92 Z " fill-rule="evenodd"/>
</clipPath>
<g clip-path="url(#cp55466)">
<text xml:space="preserve" transform="matrix(1 0 -0 1 0 841.92)" font-size="9" font-family="Times New Roman,Italic" font-style="italic"><tspan y="-771" x="489.94">1</tspan></text>
</g>
<clipPath id="cp55467">
<path transform="matrix(1,0,0,-1,0,841.92)" d="M .000008871 0 L 595.32 0 L 595.32 841.92 L .000008871 841.92 Z " fill-rule="evenodd"/>
</clipPath>
<g clip-path="url(#cp55467)">
<text xml:space="preserve" transform="matrix(1 0 -0 1 0 841.92)" font-size="14.04" font-family="Times New Roman"><tspan y="-772.56" x="494.5"> </tspan></text>
</g>
<clipPath id="cp55468">
<path transform="matrix(1,0,0,-1,0,841.92)" d="M .000008871 0 L 595.32 0 L 595.32 841.92 L .000008871 841.92 Z " fill-rule="evenodd"/>
</clipPath>
<g clip-path="url(#cp55468)">
<text xml:space="preserve" transform="matrix(1 0 -0 1 0 841.92)" font-size="14.04" font-family="Times New Roman"><tspan y="-772.56" x="499.42 506.48213 512.7159">va </tspan></text>
</g>
<clipPath id="cp55469">
<path transform="matrix(1,0,0,-1,0,841.92)" d="M .000008871 0 L 595.32 0 L 595.32 841.92 L .000008871 841.92 Z " fill-rule="evenodd"/>
</clipPath>
<g clip-path="url(#cp55469)">
<text xml:space="preserve" transform="matrix(1 0 -0 1 0 841.92)" font-size="14.04" font-family="Times New Roman,Italic" font-style="italic"><tspan y="-772.56" x="517.66">p</tspan></text>
</g>
<clipPath id="cp55470">
<path transform="matrix(1,0,0,-1,0,841.92)" d="M .000008871 0 L 595.32 0 L 595.32 841.92 L .000008871 841.92 Z " fill-rule="evenodd"/>
</clipPath>
<g clip-path="url(#cp55470)">
<text xml:space="preserve" transform="matrix(1 0 -0 1 0 841.92)" font-size="9" font-family="Times New Roman,Italic" font-style="italic"><tspan y="-771" x="524.62">2</tspan></text>
</g>
<clipPath id="cp55471">
<path transform="matrix(1,0,0,-1,0,841.92)" d="M .000008871 0 L 595.32 0 L 595.32 841.92 L .000008871 841.92 Z " fill-rule="evenodd"/>
</clipPath>
<g clip-path="url(#cp55471)">
<text xml:space="preserve" transform="matrix(1 0 -0 1 0 841.92)" font-size="14.04" font-family="Times New Roman"><tspan y="-772.56" x="529.18"> </tspan></text>
</g>
<clipPath id="cp55472">
<path transform="matrix(1,0,0,-1,0,841.92)" d="M .000008871 0 L 595.32 0 L 595.32 841.92 L .000008871 841.92 Z " fill-rule="evenodd"/>
</clipPath>
<g clip-path="url(#cp55472)">
<text xml:space="preserve" transform="matrix(1 0 -0 1 0 841.92)" font-size="14.04" font-family="Times New Roman"><tspan y="-772.56" x="534.1">&#x2013;</tspan></text>
</g>
<clipPath id="cp55473">
<path transform="matrix(1,0,0,-1,0,841.92)" d="M .000008871 0 L 595.32 0 L 595.32 841.92 L .000008871 841.92 Z " fill-rule="evenodd"/>
</clipPath>
<g clip-path="url(#cp55473)">
<text xml:space="preserve" transform="matrix(1 0 -0 1 0 841.92)" font-size="14.04" font-family="Times New Roman"><tspan y="-772.56" x="541.18"> </tspan></text>
</g>
<clipPath id="cp55474">
<path transform="matrix(1,0,0,-1,0,841.92)" d="M .000008871 0 L 595.32 0 L 595.32 841.92 L .000008871 841.92 Z " fill-rule="evenodd"/>
</clipPath>
<g clip-path="url(#cp55474)">
<text xml:space="preserve" transform="matrix(1 0 -0 1 0 841.92)" font-size="14.04" font-family="Times New Roman"><tspan y="-772.56" x="546.1 553.06 560.02">bu </tspan></text>
</g>
<clipPath id="cp55475">
<path transform="matrix(1,0,0,-1,0,841.92)" d="M .000008871 0 L 595.32 0 L 595.32 841.92 L .000008871 841.92 Z " fill-rule="evenodd"/>
</clipPath>
<g clip-path="url(#cp55475)">
<text xml:space="preserve" transform="matrix(1 0 -0 1 0 841.92)" font-size="14.04" font-family="Times New Roman"><tspan y="-748.3" x="85.104 89.77932 96.01308 101.41848 108.4806 113.15592 118.561328 122.50657 128.74033 133.30333 140.26717 144.2124 151.17624 158.23836 161.74835 168.68412 175.74623 181.86768 188.9298 193.60512 196.97472 203.93856 210.17232 217.13616 224.19828 229.60367 233.5489 237.0589 241.73423 245.5531 250.9585 258.0206 261.96583 268.08726 275.14936 278.65937 284.75273 291.81483 295.66178 302.72389 308.95765 313.52064 317.46586 322.87126 329.93336 333.44337 338.11869 344.21205 351.27415 355.1211 362.1832 366.85853 370.70549 375.3808">resurslarning bozor bahosi (ishlab chiqarish faktori).</tspan></text>
</g>
<clipPath id="cp55476">
<path transform="matrix(1,0,0,-1,0,841.92)" d="M .000008871 0 L 595.32 0 L 595.32 841.92 L .000008871 841.92 Z " fill-rule="evenodd"/>
</clipPath>
<g clip-path="url(#cp55476)">
<text xml:space="preserve" transform="matrix(1 0 -0 1 0 841.92)" font-size="14.04" font-family="Times New Roman"><tspan y="-748.3" x="379.15"> </tspan></text>
</g>
</g>
<g id="Layer-1" data-name="P">
<clipPath id="cp55477">
<path transform="matrix(1,0,0,-1,0,841.92)" d="M .000008871 0 L 595.32 0 L 595.32 841.92 L .000008871 841.92 Z " fill-rule="evenodd"/>
</clipPath>
<g clip-path="url(#cp55477)">
<text xml:space="preserve" transform="matrix(1 0 -0 1 0 841.92)" font-size="14.04" font-family="Times New Roman"><tspan y="-724.18" x="120.5 128.30625 132.25148 136.9268 147.61125 153.84502 160.92119 164.86643 171.83026">Firmaning</tspan></text>
</g>
<clipPath id="cp55478">
<path transform="matrix(1,0,0,-1,0,841.92)" d="M .000008871 0 L 595.32 0 L 595.32 841.92 L .000008871 841.92 Z " fill-rule="evenodd"/>
</clipPath>
<g clip-path="url(#cp55478)">
<text xml:space="preserve" transform="matrix(1 0 -0 1 0 841.92)" font-size="14.04" font-family="Times New Roman,Italic" font-style="italic"><tspan y="-724.18" x="178.94"> </tspan></text>
</g>
<clipPath id="cp55479">
<path transform="matrix(1,0,0,-1,0,841.92)" d="M .000008871 0 L 595.32 0 L 595.32 841.92 L .000008871 841.92 Z " fill-rule="evenodd"/>
</clipPath>
<g clip-path="url(#cp55479)">
<text xml:space="preserve" transform="matrix(1 0 -0 1 0 841.92)" font-size="14.04" font-family="Times New Roman"><tspan y="-724.18" x="183.02 193.70446 200.05054 204.61354 208.55878 215.6209 226.41767 230.48926 237.55138 241.39833 246.07366 250.14525 257.20738 263.44114 270.40498 275.0803 282.15644 288.27787 295.2417">ma&#x2019;lum bir davrdagi</tspan></text>
</g>
<clipPath id="cp55480">
<path transform="matrix(1,0,0,-1,0,841.92)" d="M .000008871 0 L 595.32 0 L 595.32 841.92 L .000008871 841.92 Z " fill-rule="evenodd"/>
</clipPath>
<g clip-path="url(#cp55480)">
<text xml:space="preserve" transform="matrix(1 0 -0 1 0 841.92)" font-size="14.04" font-family="Times New Roman,Italic" font-style="italic"><tspan y="-724.18" x="299.33"> </tspan></text>
</g>
<clipPath id="cp55481">
<path transform="matrix(1,0,0,-1,0,841.92)" d="M .000008871 0 L 595.32 0 L 595.32 841.92 L .000008871 841.92 Z " fill-rule="evenodd"/>
</clipPath>
<g clip-path="url(#cp55481)">
<text xml:space="preserve" transform="matrix(1 0 -0 1 0 841.92)" font-size="14.04" font-family="Times New Roman,Italic" font-style="italic"><tspan y="-724.18" x="303.41 311.93006">PR</tspan></text>
</g>
<clipPath id="cp55482">
<path transform="matrix(1,0,0,-1,0,841.92)" d="M .000008871 0 L 595.32 0 L 595.32 841.92 L .000008871 841.92 Z " fill-rule="evenodd"/>
</clipPath>
<g clip-path="url(#cp55482)">
<text xml:space="preserve" transform="matrix(1 0 -0 1 0 841.92)" font-size="14.04" font-family="Times New Roman"><tspan y="-724.18" x="320.47"> </tspan></text>
</g>
<clipPath id="cp55483">
<path transform="matrix(1,0,0,-1,0,841.92)" d="M .000008871 0 L 595.32 0 L 595.32 841.92 L .000008871 841.92 Z " fill-rule="evenodd"/>
</clipPath>
<g clip-path="url(#cp55483)">
<text xml:space="preserve" transform="matrix(1 0 -0 1 0 841.92)" font-size="14.04" font-family="Times New Roman,Italic" font-style="italic"><tspan y="-724.18" x="324.55 328.4952 335.5573 341.67875 348.74085 355.70469 361.11009 365.0553">foydasi </tspan></text>
</g>
<clipPath id="cp55484">
<path transform="matrix(1,0,0,-1,0,841.92)" d="M .000008871 0 L 595.32 0 L 595.32 841.92 L .000008871 841.92 Z " fill-rule="evenodd"/>
</clipPath>
<g clip-path="url(#cp55484)">
<text xml:space="preserve" transform="matrix(1 0 -0 1 0 841.92)" font-size="14.04" font-family="Times New Roman"><tspan y="-724.18" x="369.19 376.2521 382.37355 389.43565 393.50727 398.1826 402.1278 406.80314 417.48759 423.72135 430.7975 434.64445 441.70655 448.76866">deb firmaning </tspan></text>
</g>
<clipPath id="cp55485">
<path transform="matrix(1,0,0,-1,0,841.92)" d="M .000008871 0 L 595.32 0 L 595.32 841.92 L .000008871 841.92 Z " fill-rule="evenodd"/>
</clipPath>
<g clip-path="url(#cp55485)">
<text xml:space="preserve" transform="matrix(1 0 -0 1 0 841.92)" font-size="14.04" font-family="Times New Roman,Italic" font-style="italic"><tspan y="-724.18" x="452.98">R</tspan></text>
</g>
<clipPath id="cp55486">
<path transform="matrix(1,0,0,-1,0,841.92)" d="M .000008871 0 L 595.32 0 L 595.32 841.92 L .000008871 841.92 Z " fill-rule="evenodd"/>
</clipPath>
<g clip-path="url(#cp55486)">
<text xml:space="preserve" transform="matrix(1 0 -0 1 0 841.92)" font-size="14.04" font-family="Times New Roman"><tspan y="-724.18" x="461.5"> </tspan></text>
</g>
<clipPath id="cp55487">
<path transform="matrix(1,0,0,-1,0,841.92)" d="M .000008871 0 L 595.32 0 L 595.32 841.92 L .000008871 841.92 Z " fill-rule="evenodd"/>
</clipPath>
<g clip-path="url(#cp55487)">
<text xml:space="preserve" transform="matrix(1 0 -0 1 0 841.92)" font-size="14.04" font-family="Times New Roman"><tspan y="-724.18" x="465.58 472.6421 478.87586 483.43885 490.50096 501.1854 507.41917 514.4953 518.44058 522.51217 526.58377 530.65536 534.7269 541.78909 548.0228 552.0944 559.90066">daromadi    va S </tspan></text>
</g>
<clipPath id="cp55488">
<path transform="matrix(1,0,0,-1,0,841.92)" d="M .000008871 0 L 595.32 0 L 595.32 841.92 L .000008871 841.92 Z " fill-rule="evenodd"/>
</clipPath>
<g clip-path="url(#cp55488)">
<text xml:space="preserve" transform="matrix(1 0 -0 1 0 841.92)" font-size="14.04" font-family="Times New Roman"><tspan y="-700.06" x="85.104 92.166118 98.39987 103.075199 109.30895 113.16995 119.29139 123.23663 127.18188 133.30332 137.97864 141.92388 145.27944 152.34156 157.01688 163.13832 168.642 172.48896 179.55107 185.67252 192.73464 196.67987 200.18987 204.7248 210.95856 215.63388 222.61177 229.67389 235.90766 239.41765 245.65142 252.47486 256.42008 260.3653 264.21226 270.446 277.40986 281.35508">xarajatlari orasidagi farqqa aytiladi:</tspan></text>
</g>
<clipPath id="cp55489">
<path transform="matrix(1,0,0,-1,0,841.92)" d="M .000008871 0 L 595.32 0 L 595.32 841.92 L .000008871 841.92 Z " fill-rule="evenodd"/>
</clipPath>
<g clip-path="url(#cp55489)">
<text xml:space="preserve" transform="matrix(1 0 -0 1 0 841.92)" font-size="14.04" font-family="Times New Roman"><tspan y="-700.06" x="285.41"> </tspan></text>
</g>
</g>
<g id="Layer-1" data-name="P">
<clipPath id="cp55490">
<path transform="matrix(1,0,0,-1,0,841.92)" d="M .000008871 0 L 595.32 0 L 595.32 841.92 L .000008871 841.92 Z " fill-rule="evenodd"/>
</clipPath>
<g clip-path="url(#cp55490)">
<text xml:space="preserve" transform="matrix(1 0 -0 1 0 841.92)" font-size="14.04" font-family="Times New Roman,Italic" font-style="italic"><tspan y="-675.94" x="307.49">P</tspan></text>
</g>
<clipPath id="cp55491">
<path transform="matrix(1,0,0,-1,0,841.92)" d="M .000008871 0 L 595.32 0 L 595.32 841.92 L .000008871 841.92 Z " fill-rule="evenodd"/>
</clipPath>
<g clip-path="url(#cp55491)">
<text xml:space="preserve" transform="matrix(1 0 -0 1 0 841.92)" font-size="14.04" font-family="Times New Roman,Italic" font-style="italic"><tspan y="-675.94" x="316.03 324.55229 328.0623 337.53929 340.99314 349.5154">R = R </tspan></text>
</g>
<clipPath id="cp55492">
<path transform="matrix(1,0,0,-1,0,841.92)" d="M .000008871 0 L 595.32 0 L 595.32 841.92 L .000008871 841.92 Z " fill-rule="evenodd"/>
</clipPath>
<g clip-path="url(#cp55492)">
<text xml:space="preserve" transform="matrix(1 0 -0 1 0 841.92)" font-size="14.04" font-family="Times New Roman,Italic" font-style="italic"><tspan y="-675.94" x="352.99">&#x2013;</tspan></text>
</g>
<clipPath id="cp55493">
<path transform="matrix(1,0,0,-1,0,841.92)" d="M .000008871 0 L 595.32 0 L 595.32 841.92 L .000008871 841.92 Z " fill-rule="evenodd"/>
</clipPath>
<g clip-path="url(#cp55493)">
<text xml:space="preserve" transform="matrix(1 0 -0 1 0 841.92)" font-size="14.04" font-family="Times New Roman,Italic" font-style="italic"><tspan y="-675.94" x="360.07"> </tspan></text>
</g>
<clipPath id="cp55494">
<path transform="matrix(1,0,0,-1,0,841.92)" d="M .000008871 0 L 595.32 0 L 595.32 841.92 L .000008871 841.92 Z " fill-rule="evenodd"/>
</clipPath>
<g clip-path="url(#cp55494)">
<text xml:space="preserve" transform="matrix(1 0 -0 1 0 841.92)" font-size="14.04" font-family="Times New Roman,Italic" font-style="italic"><tspan y="-675.94" x="363.55">C</tspan></text>
</g>
<clipPath id="cp55495">
<path transform="matrix(1,0,0,-1,0,841.92)" d="M .000008871 0 L 595.32 0 L 595.32 841.92 L .000008871 841.92 Z " fill-rule="evenodd"/>
</clipPath>
<g clip-path="url(#cp55495)">
<text xml:space="preserve" transform="matrix(1 0 -0 1 0 841.92)" font-size="14.04" font-family="Times New Roman"><tspan y="-675.94" x="372.91"> </tspan></text>
</g>
</g>
<g id="Layer-1" data-name="P">
<clipPath id="cp55496">
<path transform="matrix(1,0,0,-1,0,841.92)" d="M .000008871 0 L 595.32 0 L 595.32 841.92 L .000008871 841.92 Z " fill-rule="evenodd"/>
</clipPath>
<g clip-path="url(#cp55496)">
<text xml:space="preserve" transform="matrix(1 0 -0 1 0 841.92)" font-size="14.04" font-family="Times New Roman"><tspan y="-651.7" x="120.5 127.33748 134.3996 141.46172">yoki</tspan></text>
</g>
</g>
<g id="Layer-1" data-name="P">
<clipPath id="cp55497">
<path transform="matrix(1,0,0,-1,0,841.92)" d="M .000008871 0 L 595.32 0 L 595.32 841.92 L .000008871 841.92 Z " fill-rule="evenodd"/>
</clipPath>
<g clip-path="url(#cp55497)">
<text xml:space="preserve" transform="matrix(1 0 -0 1 0 841.92)" font-size="14.04" font-family="Times New Roman"><tspan y="-651.7" x="145.34"> </tspan></text>
</g>
</g>
<g id="Layer-1" data-name="P">
<clipPath id="cp55498">
<path transform="matrix(1,0,0,-1,0,841.92)" d="M 0 .000061035 L 595.32 .000061035 L 595.32 841.92007 L 0 841.92007 Z " fill-rule="evenodd"/>
</clipPath>
<g clip-path="url(#cp55498)">
<clipPath id="cp55499">
<path transform="matrix(1.2379567,0,0,-1.211231,223.61,224.10999)" d="M 0 0 L 188.46 0 L 188.46 18.617 L 0 18.617 Z " fill-rule="evenodd"/>
</clipPath>
<g clip-path="url(#cp55499)">
<text xml:space="preserve" transform="matrix(1.0679915 0 -0 1.4039919 223.61 224.10999)" font-size="14.079347" font-family="Symbol"><tspan y="-5.474382" x="19.858468">&#xf028;</tspan></text>
<text xml:space="preserve" transform="matrix(1.0679915 0 -0 1.4039919 223.61 224.10999)" font-size="14.079347" font-family="Symbol"><tspan y="-5.474382" x="52.956689">&#xf029;</tspan></text>
<text xml:space="preserve" transform="matrix(1.0679915 0 -0 1.4039919 223.61 224.10999)" font-size="14.079347" font-family="Symbol"><tspan y="-5.474382" x="93.616008">&#xf028;</tspan></text>
<text xml:space="preserve" transform="matrix(1.0679915 0 -0 1.4039919 223.61 224.10999)" font-size="14.079347" font-family="Symbol"><tspan y="-5.474382" x="126.717708">&#xf029;</tspan></text>
<text xml:space="preserve" transform="matrix(1.0679915 0 -0 1.4039919 223.61 224.10999)" font-size="14.079347" font-family="Symbol"><tspan y="-5.474382" x="143.1196">&#xf028;</tspan></text>
<text xml:space="preserve" transform="matrix(1.0679915 0 -0 1.4039919 223.61 224.10999)" font-size="14.079347" font-family="Symbol"><tspan y="-5.474382" x="209.65451">&#xf029;</tspan></text>
<text xml:space="preserve" transform="matrix(1.2379567 0 -0 1.211231 223.61 224.10999)" font-size="12.308" font-family="Times New Roman"><tspan y="-6.2716" x="183.46">.</tspan></text>
<text xml:space="preserve" transform="matrix(1.2379567 0 -0 1.211231 223.61 224.10999)" font-size="12.308" font-family="Times New Roman"><tspan y="-6.2716" x="93.859">,</tspan></text>
<text xml:space="preserve" transform="matrix(1.2379567 0 -0 1.211231 223.61 224.10999)" font-size="12.308" font-family="Times New Roman"><tspan y="-6.2716" x="30.228">,</tspan></text>
<text xml:space="preserve" transform="matrix(1.2379567 0 -0 1.211231 223.61 224.10999)" font-size="7.1877" font-family="Times New Roman"><tspan y="-3.1852" x="175.78">2</tspan></text>
<text xml:space="preserve" transform="matrix(1.2379567 0 -0 1.211231 223.61 224.10999)" font-size="7.1877" font-family="Times New Roman"><tspan y="-3.1852" x="165.71">2</tspan></text>
<text xml:space="preserve" transform="matrix(1.2379567 0 -0 1.211231 223.61 224.10999)" font-size="7.1877" font-family="Times New Roman"><tspan y="-3.1852" x="142.65">1</tspan></text>
<text xml:space="preserve" transform="matrix(1.2379567 0 -0 1.211231 223.61 224.10999)" font-size="7.1877" font-family="Times New Roman"><tspan y="-3.1852" x="133.88">1</tspan></text>
<text xml:space="preserve" transform="matrix(1.2379567 0 -0 1.211231 223.61 224.10999)" font-size="7.1877" font-family="Times New Roman"><tspan y="-3.1852" x="104.2">2</tspan></text>
<text xml:space="preserve" transform="matrix(1.2379567 0 -0 1.211231 223.61 224.10999)" font-size="7.1877" font-family="Times New Roman"><tspan y="-3.1852" x="89.847">1</tspan></text>
<text xml:space="preserve" transform="matrix(1.2379567 0 -0 1.211231 223.61 224.10999)" font-size="7.1877" font-family="Times New Roman"><tspan y="-3.1852" x="68.382">0</tspan></text>
<text xml:space="preserve" transform="matrix(1.2379567 0 -0 1.211231 223.61 224.10999)" font-size="7.1877" font-family="Times New Roman"><tspan y="-3.1852" x="40.566">2</tspan></text>
<text xml:space="preserve" transform="matrix(1.2379567 0 -0 1.211231 223.61 224.10999)" font-size="7.1877" font-family="Times New Roman"><tspan y="-3.1852" x="26.216">1</tspan></text>
<text xml:space="preserve" transform="matrix(1.2379567 0 -0 1.211231 223.61 224.10999)" font-size="12.308" font-family="Times New Roman,Italic" font-style="italic"><tspan y="-6.2716" x="170.07">x</tspan></text>
<text xml:space="preserve" transform="matrix(1.2379567 0 -0 1.211231 223.61 224.10999)" font-size="12.308" font-family="Times New Roman,Italic" font-style="italic"><tspan y="-6.2716" x="159.58">p</tspan></text>
<text xml:space="preserve" transform="matrix(1.2379567 0 -0 1.211231 223.61 224.10999)" font-size="12.308" font-family="Times New Roman,Italic" font-style="italic"><tspan y="-6.2716" x="137.72">x</tspan></text>
<text xml:space="preserve" transform="matrix(1.2379567 0 -0 1.211231 223.61 224.10999)" font-size="12.308" font-family="Times New Roman,Italic" font-style="italic"><tspan y="-6.2716" x="128.54">p</tspan></text>
<text xml:space="preserve" transform="matrix(1.2379567 0 -0 1.211231 223.61 224.10999)" font-size="12.308" font-family="Times New Roman,Italic" font-style="italic"><tspan y="-6.2716" x="98.487">x</tspan></text>
<text xml:space="preserve" transform="matrix(1.2379567 0 -0 1.211231 223.61 224.10999)" font-size="12.308" font-family="Times New Roman,Italic" font-style="italic"><tspan y="-6.2716" x="84.899">x</tspan></text>
<text xml:space="preserve" transform="matrix(1.2379567 0 -0 1.211231 223.61 224.10999)" font-size="12.308" font-family="Times New Roman,Italic" font-style="italic"><tspan y="-6.2716" x="74.61">f</tspan></text>
<text xml:space="preserve" transform="matrix(1.2379567 0 -0 1.211231 223.61 224.10999)" font-size="12.308" font-family="Times New Roman,Italic" font-style="italic"><tspan y="-6.2716" x="62.376">p</tspan></text>
<text xml:space="preserve" transform="matrix(1.2379567 0 -0 1.211231 223.61 224.10999)" font-size="12.308" font-family="Times New Roman,Italic" font-style="italic"><tspan y="-6.2716" x="34.856">x</tspan></text>
<text xml:space="preserve" transform="matrix(1.2379567 0 -0 1.211231 223.61 224.10999)" font-size="12.308" font-family="Times New Roman,Italic" font-style="italic"><tspan y="-6.2716" x="21.268">x</tspan></text>
<text xml:space="preserve" transform="matrix(1.2379567 0 -0 1.211231 223.61 224.10999)" font-size="12.308" font-family="Times New Roman,Italic" font-style="italic"><tspan y="-6.2716" x="2.1908 9.353988">PR</tspan></text>
<text xml:space="preserve" transform="matrix(1.2379567 0 -0 1.211231 223.61 224.10999)" font-size="12.308" font-family="Symbol"><tspan y="-6.2716" x="149.1">&#xf02b;</tspan></text>
<text xml:space="preserve" transform="matrix(1.2379567 0 -0 1.211231 223.61 224.10999)" font-size="12.308" font-family="Symbol"><tspan y="-6.2716" x="114.68">&#xf02d;</tspan></text>
<text xml:space="preserve" transform="matrix(1.2379567 0 -0 1.211231 223.61 224.10999)" font-size="12.308" font-family="Symbol"><tspan y="-6.2716" x="51.545">&#xf03d;</tspan></text>
</g>
</g>
</g>
<g id="Layer-1" data-name="P">
<clipPath id="cp55500">
<path transform="matrix(1,0,0,-1,0,841.92)" d="M .000008871 0 L 595.32 0 L 595.32 841.92 L .000008871 841.92 Z " fill-rule="evenodd"/>
</clipPath>
<g clip-path="url(#cp55500)">
<text xml:space="preserve" transform="matrix(1 0 -0 1 0 841.92)" font-size="14.04" font-family="Times New Roman"><tspan y="-623.86" x="456.94"> </tspan></text>
</g>
</g>
<g id="Layer-1" data-name="P">
<clipPath id="cp55501">
<path transform="matrix(1,0,0,-1,0,841.92)" d="M .000008871 0 L 595.32 0 L 595.32 841.92 L .000008871 841.92 Z " fill-rule="evenodd"/>
</clipPath>
<g clip-path="url(#cp55501)">
<text xml:space="preserve" transform="matrix(1 0 -0 1 0 841.92)" font-size="14.04" font-family="Times New Roman"><tspan y="-597.1" x="120.5 130.58072 137.64284 141.58808 146.15108 153.2132 157.15843 162.54979 166.49503 172.72879 179.69263 186.65647 190.6017 196.83547 207.51992 213.75368 219.2714 223.94672 227.89196 232.56728 243.37808 249.61185 256.688 260.6332 267.59706 274.65916 280.16285 285.6665 291.78794 296.46327 301.13859 306.6563 313.7184 317.56538 321.41233 325.35755 332.32139 338.55516 345.51899 349.36595 356.42805 362.54948 369.61158 375.11528 379.7906 383.7358 389.1412 396.10505 400.05027 406.28404 410.13099 413.97795 417.92317 424.15693 431.12077 434.9677 442.02983 448.15126 455.21336 459.88868 465.39237 470.0677 476.30146 481.81916 488.783 493.4583 498.8637 502.80894 509.0427 513.718 519.2357 523.18099 529.3024 533.9777 544.6621 548.60739 555.6695 559.5165">Ohirgi tenglama firmaning sarf qilinadigan (ishlatiladigan) resurslar termini </tspan></text>
</g>
<clipPath id="cp55502">
<path transform="matrix(1,0,0,-1,0,841.92)" d="M .000008871 0 L 595.32 0 L 595.32 841.92 L .000008871 841.92 Z " fill-rule="evenodd"/>
</clipPath>
<g clip-path="url(#cp55502)">
<text xml:space="preserve" transform="matrix(1 0 -0 1 0 841.92)" font-size="14.04" font-family="Times New Roman"><tspan y="-567.43" x="85.104 92.166118 96.84144 103.805278 110.03903 113.885997 117.83124 122.3802 126.32545 130.88845 137.85228 144.9144 151.14817 154.99512 161.22888 168.19272 175.25484 181.37628 188.4384 192.98735 197.66268 204.62651 211.46399 218.52611 224.75988 230.2776 234.22284 241.18668 247.42044 254.49662 258.91923 262.86445 269.82829 276.89039 281.5657 287.68714 291.63236 298.5962 302.5414 307.21675 310.72676">orqali ifodalangan foydasidan iboratdir. </tspan></text>
</g>
</g>
<g id="Layer-1" data-name="P">
<clipPath id="cp55503">
<path transform="matrix(1,0,0,-1,0,841.92)" d="M 0 .000061035 L 595.32 .000061035 L 595.32 841.92007 L 0 841.92007 Z " fill-rule="evenodd"/>
</clipPath>
<g clip-path="url(#cp55503)">
<clipPath id="cp55504">
<path transform="matrix(1.3583734,0,0,-1.3015918,315.41,279.56)" d="M 0 0 L 63.533 0 L 63.533 17.901 L 0 17.901 Z " fill-rule="evenodd"/>
</clipPath>
<g clip-path="url(#cp55504)">
<text xml:space="preserve" transform="matrix(1.1738029 0 -0 1.5062561 315.41 279.56)" font-size="14.5492529" font-family="Symbol"><tspan y="-4.4805686" x="35.408117">&#xf028;</tspan></text>
<text xml:space="preserve" transform="matrix(1.1738029 0 -0 1.5062561 315.41 279.56)" font-size="14.5492529" font-family="Symbol"><tspan y="-4.4805686" x="68.02497">&#xf029;</tspan></text>
<text xml:space="preserve" transform="matrix(1.3583734 0 -0 1.3015918 315.41 279.56)" font-size="7.4339" font-family="Times New Roman"><tspan y="-1.9259" x="53.637">2</tspan></text>
<text xml:space="preserve" transform="matrix(1.3583734 0 -0 1.3015918 315.41 279.56)" font-size="7.4339" font-family="Times New Roman"><tspan y="-1.9259" x="39.459">1</tspan></text>
<text xml:space="preserve" transform="matrix(1.3583734 0 -0 1.3015918 315.41 279.56)" font-size="12.751" font-family="Times New Roman"><tspan y="-5.1111" x="43.496">,</tspan></text>
<text xml:space="preserve" transform="matrix(1.3583734 0 -0 1.3015918 315.41 279.56)" font-size="12.751" font-family="Times New Roman,Italic" font-style="italic"><tspan y="-5.1111" x="48.32">x</tspan></text>
<text xml:space="preserve" transform="matrix(1.3583734 0 -0 1.3015918 315.41 279.56)" font-size="12.751" font-family="Times New Roman,Italic" font-style="italic"><tspan y="-5.1111" x="34.929">x</tspan></text>
<text xml:space="preserve" transform="matrix(1.3583734 0 -0 1.3015918 315.41 279.56)" font-size="12.751" font-family="Times New Roman,Italic" font-style="italic"><tspan y="-5.1111" x="24.394">f</tspan></text>
<text xml:space="preserve" transform="matrix(1.3583734 0 -0 1.3015918 315.41 279.56)" font-size="12.751" font-family="Times New Roman,Italic" font-style="italic"><tspan y="-5.1111" x="2.9539">y</tspan></text>
<text xml:space="preserve" transform="matrix(1.3583734 0 -0 1.3015918 315.41 279.56)" font-size="12.751" font-family="Symbol"><tspan y="-5.1111" x="12.086">&#xf03d;</tspan></text>
</g>
</g>
</g>
<g id="Layer-1" data-name="P">
<clipPath id="cp55505">
<path transform="matrix(1,0,0,-1,0,841.92)" d="M .000008871 0 L 595.32 0 L 595.32 841.92 L .000008871 841.92 Z " fill-rule="evenodd"/>
</clipPath>
<g clip-path="url(#cp55505)">
<text xml:space="preserve" transform="matrix(1 0 -0 1 0 841.92)" font-size="14.04" font-family="Times New Roman"><tspan y="-567.43" x="401.71"> </tspan></text>
</g>
<clipPath id="cp55506">
<path transform="matrix(1,0,0,-1,0,841.92)" d="M .000008871 0 L 595.32 0 L 595.32 841.92 L .000008871 841.92 Z " fill-rule="evenodd"/>
</clipPath>
<g clip-path="url(#cp55506)">
<text xml:space="preserve" transform="matrix(1 0 -0 1 0 841.92)" font-size="14.04" font-family="Times New Roman"><tspan y="-567.43" x="406.27">-</tspan></text>
</g>
<clipPath id="cp55507">
<path transform="matrix(1,0,0,-1,0,841.92)" d="M .000008871 0 L 595.32 0 L 595.32 841.92 L .000008871 841.92 Z " fill-rule="evenodd"/>
</clipPath>
<g clip-path="url(#cp55507)">
<text xml:space="preserve" transform="matrix(1 0 -0 1 0 841.92)" font-size="14.04" font-family="Times New Roman"><tspan y="-567.43" x="410.95 415.62535 419.57057 424.24589 434.93034 441.1641 448.24024 452.18547 459.1493 466.2114 470.76039 474.60734 480.111 487.07484 491.02006 497.14149 504.20359 508.75257 514.874 521.93618 525.78317 532.747 538.9808 543.65609 547.50308 552.90847 559.8723">firmaning ishlab chiqarish </tspan></text>
</g>
<clipPath id="cp55508">
<path transform="matrix(1,0,0,-1,0,841.92)" d="M .000008871 0 L 595.32 0 L 595.32 841.92 L .000008871 841.92 Z " fill-rule="evenodd"/>
</clipPath>
<g clip-path="url(#cp55508)">
<text xml:space="preserve" transform="matrix(1 0 -0 1 0 841.92)" font-size="14.04" font-family="Times New Roman"><tspan y="-541.51" x="85.104 89.77932 96.85548 103.81931 110.78315 116.286838 120.23208 127.06956 133.30332 138.82105 142.668 149.73012 155.85157 162.91368 170.57952 174.52475 181.48859 188.5507 193.22603 199.34748 203.19443 210.25655 214.20178 218.8771 222.3871 230.15122 237.9434 245.7356 253.41548 257.36073 262.03605 272.7205 278.95426 286.74647 290.69169 297.75379 308.43824 315.50035 322.56245 326.50767 333.56977 339.6912 346.7533 354.41917 358.36439 363.76979 370.7336 374.67884 380.9126 387.98875 395.6546 401.88838 408.8522 412.69917 419.76127 425.99504 430.558 434.50325 438.44847 444.5699 451.632 455.47895 462.54106 468.66249 475.72459 483.51679 494.20124 500.435 507.51115 513.01486 519.9787 523.92398 530.8878 534.7348 541.79696 545.6439 552.48147 559.4453">funksiyasidan iboratdir.   Firma tomonidan ishlab chiqariladigan mahsulotning </tspan></text>
</g>
<clipPath id="cp55509">
<path transform="matrix(1,0,0,-1,0,841.92)" d="M .000008871 0 L 595.32 0 L 595.32 841.92 L .000008871 841.92 Z " fill-rule="evenodd"/>
</clipPath>
<g clip-path="url(#cp55509)">
<text xml:space="preserve" transform="matrix(1 0 -0 1 0 841.92)" font-size="14.04" font-family="Times New Roman"><tspan y="-517.39" x="85.104 92.166118 102.850559 110.03903 120.72347 124.795078 131.63256 136.78524 143.84735 150.08112 154.02635 164.7108 168.65604 173.80872 183.88944 189.04212 196.10424 199.95119 206.91503 213.97714 219.00347 224.50714 230.7409 235.41623 240.09156 245.13191 252.19403 256.041 259.88795 263.83317 270.797 277.03077 283.9946 287.93983 294.90367 301.13743 308.10127 313.25395 317.92927 321.7762 327.1816 334.2437 338.18894 344.31037 348.15733 352.10255 356.04777 362.1692 369.13304 373.07826 380.04209 386.27586 393.352 397.91499 403.06767 407.74299 413.8644 419.36808 426.43019 430.99317 436.39857 440.34379 446.4652 451.14054 456.2932 463.35533 469.58909 473.43605 484.12049 488.0657 493.21839">umumiy hajmi Y ning sarf qilinadigan (ishlatiladigan) resurslar hajmi x</tspan></text>
</g>
<clipPath id="cp55510">
<path transform="matrix(1,0,0,-1,0,841.92)" d="M .000008871 0 L 595.32 0 L 595.32 841.92 L .000008871 841.92 Z " fill-rule="evenodd"/>
</clipPath>
<g clip-path="url(#cp55510)">
<text xml:space="preserve" transform="matrix(1 0 -0 1 0 841.92)" font-size="9" font-family="Times New Roman"><tspan y="-515.83" x="500.74">1</tspan></text>
</g>
<clipPath id="cp55511">
<path transform="matrix(1,0,0,-1,0,841.92)" d="M .000008871 0 L 595.32 0 L 595.32 841.92 L .000008871 841.92 Z " fill-rule="evenodd"/>
</clipPath>
<g clip-path="url(#cp55511)">
<text xml:space="preserve" transform="matrix(1 0 -0 1 0 841.92)" font-size="14.04" font-family="Times New Roman"><tspan y="-517.39" x="505.3"> </tspan></text>
</g>
<clipPath id="cp55512">
<path transform="matrix(1,0,0,-1,0,841.92)" d="M .000008871 0 L 595.32 0 L 595.32 841.92 L .000008871 841.92 Z " fill-rule="evenodd"/>
</clipPath>
<g clip-path="url(#cp55512)">
<text xml:space="preserve" transform="matrix(1 0 -0 1 0 841.92)" font-size="14.04" font-family="Times New Roman"><tspan y="-517.39" x="510.34 517.4021 523.63589 528.6622">va x</tspan></text>
</g>
<clipPath id="cp55513">
<path transform="matrix(1,0,0,-1,0,841.92)" d="M .000008871 0 L 595.32 0 L 595.32 841.92 L .000008871 841.92 Z " fill-rule="evenodd"/>
</clipPath>
<g clip-path="url(#cp55513)">
<text xml:space="preserve" transform="matrix(1 0 -0 1 0 841.92)" font-size="9" font-family="Times New Roman"><tspan y="-515.83" x="535.66">2</tspan></text>
</g>
<clipPath id="cp55514">
<path transform="matrix(1,0,0,-1,0,841.92)" d="M .000008871 0 L 595.32 0 L 595.32 841.92 L .000008871 841.92 Z " fill-rule="evenodd"/>
</clipPath>
<g clip-path="url(#cp55514)">
<text xml:space="preserve" transform="matrix(1 0 -0 1 0 841.92)" font-size="14.04" font-family="Times New Roman"><tspan y="-517.39" x="540.22"> </tspan></text>
</g>
<clipPath id="cp55515">
<path transform="matrix(1,0,0,-1,0,841.92)" d="M .000008871 0 L 595.32 0 L 595.32 841.92 L .000008871 841.92 Z " fill-rule="evenodd"/>
</clipPath>
<g clip-path="url(#cp55515)">
<text xml:space="preserve" transform="matrix(1 0 -0 1 0 841.92)" font-size="14.04" font-family="Times New Roman"><tspan y="-517.39" x="545.38 549.227 555.46078 560.02377">lar </tspan></text>
</g>
<clipPath id="cp55516">
<path transform="matrix(1,0,0,-1,0,841.92)" d="M .000008871 0 L 595.32 0 L 595.32 841.92 L .000008871 841.92 Z " fill-rule="evenodd"/>
</clipPath>
<g clip-path="url(#cp55516)">
<text xml:space="preserve" transform="matrix(1 0 -0 1 0 841.92)" font-size="14.04" font-family="Times New Roman"><tspan y="-493.27" x="85.104 92.166118 96.84144 103.805278 110.03903 113.885997 117.83124 121.34124 125.24436 129.83544 136.79927 143.86139 149.98284 155.48651 159.33347 166.39559 170.24254 174.91786 178.42786 181.88169">orqali ifodasidir.  </tspan></text>
</g>
<clipPath id="cp55517">
<path transform="matrix(1,0,0,-1,0,841.92)" d="M .000008871 0 L 595.32 0 L 595.32 841.92 L .000008871 841.92 Z " fill-rule="evenodd"/>
</clipPath>
<g clip-path="url(#cp55517)">
<text xml:space="preserve" transform="matrix(1 0 -0 1 0 841.92)" font-size="14.04" font-family="Times New Roman"><tspan y="-493.27" x="185.42"> </tspan></text>
</g>
</g>
<g id="Layer-1" data-name="P">
<clipPath id="cp55518">
<path transform="matrix(1,0,0,-1,0,841.92)" d="M .000008871 0 L 595.32 0 L 595.32 841.92 L .000008871 841.92 Z " fill-rule="evenodd"/>
</clipPath>
<g clip-path="url(#cp55518)">
<text xml:space="preserve" transform="matrix(1 0 -0 1 0 841.92)" font-size="14.04" font-family="Times New Roman"><tspan y="-469.15" x="120.5 128.30625 132.25148 136.9268 147.61125 153.84502 157.79026 164.02402 168.69934 173.85202 180.91414 187.03559 193.26935 199.50312 204.08016 208.02539 214.86287 221.09664 226.61437 230.5596 237.52344 243.7572 248.90988 255.14365 262.10749 268.34126 273.01658 278.16926 282.73225 286.67747 291.35279 302.03724 308.271 313.42369 318.92735 325.98945 332.2232 336.7862 343.8483 347.69526 351.5422 355.38917 362.45127 368.68504 373.8377">Firmalar nazariyasida agar firma sharoitida f</tspan></text>
</g>
<clipPath id="cp55519">
<path transform="matrix(1,0,0,-1,0,841.92)" d="M .000008871 0 L 595.32 0 L 595.32 841.92 L .000008871 841.92 Z " fill-rule="evenodd"/>
</clipPath>
<g clip-path="url(#cp55519)">
<text xml:space="preserve" transform="matrix(1 0 -0 1 0 841.92)" font-size="14.04" font-family="Times New Roman"><tspan y="-469.15" x="378.67 384.90379 391.8676 395.81285 399.75807 406.59553 412.82929 416.7745 421.80085 428.86296 435.92506 440.48805 445.16337 450.56877 456.80253 460.74775 466.9815 473.833 480.8951 484.74208 491.80418 497.9256 504.9877 510.01405 517.0762 524.1383 528.7013 532.5483 538.05197 544.2857 547.7957 552.79397 559.7578">aoliyat ko&#x2018;rsatayotgan bo&#x2018;lsa, u </tspan></text>
</g>
<clipPath id="cp55520">
<path transform="matrix(1,0,0,-1,0,841.92)" d="M .000008871 0 L 595.32 0 L 595.32 841.92 L .000008871 841.92 Z " fill-rule="evenodd"/>
</clipPath>
<g clip-path="url(#cp55520)">
<text xml:space="preserve" transform="matrix(1 0 -0 1 0 841.92)" font-size="14.04" font-family="Times New Roman,Italic" font-style="italic"><tspan y="-444.91" x="85.104">p</tspan></text>
</g>
<clipPath id="cp55521">
<path transform="matrix(1,0,0,-1,0,841.92)" d="M .000008871 0 L 595.32 0 L 595.32 841.92 L .000008871 841.92 Z " fill-rule="evenodd"/>
</clipPath>
<g clip-path="url(#cp55521)">
<text xml:space="preserve" transform="matrix(1 0 -0 1 0 841.92)" font-size="9" font-family="Times New Roman,Italic" font-style="italic"><tspan y="-443.35" x="92.184">0</tspan></text>
</g>
<clipPath id="cp55522">
<path transform="matrix(1,0,0,-1,0,841.92)" d="M .000008871 0 L 595.32 0 L 595.32 841.92 L .000008871 841.92 Z " fill-rule="evenodd"/>
</clipPath>
<g clip-path="url(#cp55522)">
<text xml:space="preserve" transform="matrix(1 0 -0 1 0 841.92)" font-size="14.04" font-family="Times New Roman,Italic" font-style="italic"><tspan y="-444.91" x="96.744 100.254009 108.256809">, p</tspan></text>
</g>
<clipPath id="cp55523">
<path transform="matrix(1,0,0,-1,0,841.92)" d="M .000008871 0 L 595.32 0 L 595.32 841.92 L .000008871 841.92 Z " fill-rule="evenodd"/>
</clipPath>
<g clip-path="url(#cp55523)">
<text xml:space="preserve" transform="matrix(1 0 -0 1 0 841.92)" font-size="9" font-family="Times New Roman,Italic" font-style="italic"><tspan y="-443.35" x="115.34">1</tspan></text>
</g>
<clipPath id="cp55524">
<path transform="matrix(1,0,0,-1,0,841.92)" d="M .000008871 0 L 595.32 0 L 595.32 841.92 L .000008871 841.92 Z " fill-rule="evenodd"/>
</clipPath>
<g clip-path="url(#cp55524)">
<text xml:space="preserve" transform="matrix(1 0 -0 1 0 841.92)" font-size="14.04" font-family="Times New Roman"><tspan y="-444.91" x="119.9"> </tspan></text>
</g>
<clipPath id="cp55525">
<path transform="matrix(1,0,0,-1,0,841.92)" d="M .000008871 0 L 595.32 0 L 595.32 841.92 L .000008871 841.92 Z " fill-rule="evenodd"/>
</clipPath>
<g clip-path="url(#cp55525)">
<text xml:space="preserve" transform="matrix(1 0 -0 1 0 841.92)" font-size="14.04" font-family="Times New Roman"><tspan y="-444.91" x="127.94 135.00212 141.23589">va </tspan></text>
</g>
<clipPath id="cp55526">
<path transform="matrix(1,0,0,-1,0,841.92)" d="M .000008871 0 L 595.32 0 L 595.32 841.92 L .000008871 841.92 Z " fill-rule="evenodd"/>
</clipPath>
<g clip-path="url(#cp55526)">
<text xml:space="preserve" transform="matrix(1 0 -0 1 0 841.92)" font-size="14.04" font-family="Times New Roman,Italic" font-style="italic"><tspan y="-444.91" x="149.3">p</tspan></text>
</g>
<clipPath id="cp55527">
<path transform="matrix(1,0,0,-1,0,841.92)" d="M .000008871 0 L 595.32 0 L 595.32 841.92 L .000008871 841.92 Z " fill-rule="evenodd"/>
</clipPath>
<g clip-path="url(#cp55527)">
<text xml:space="preserve" transform="matrix(1 0 -0 1 0 841.92)" font-size="9" font-family="Times New Roman,Italic" font-style="italic"><tspan y="-443.35" x="156.38">2</tspan></text>
</g>
<clipPath id="cp55528">
<path transform="matrix(1,0,0,-1,0,841.92)" d="M .000008871 0 L 595.32 0 L 595.32 841.92 L .000008871 841.92 Z " fill-rule="evenodd"/>
</clipPath>
<g clip-path="url(#cp55528)">
<text xml:space="preserve" transform="matrix(1 0 -0 1 0 841.92)" font-size="14.04" font-family="Times New Roman"><tspan y="-444.91" x="160.94 169.1">  </tspan></text>
</g>
<clipPath id="cp55529">
<path transform="matrix(1,0,0,-1,0,841.92)" d="M .000008871 0 L 595.32 0 L 595.32 841.92 L .000008871 841.92 Z " fill-rule="evenodd"/>
</clipPath>
<g clip-path="url(#cp55529)">
<text xml:space="preserve" transform="matrix(1 0 -0 1 0 841.92)" font-size="14.04" font-family="Times New Roman"><tspan y="-444.91" x="177.14 184.20212 191.16596 197.39972 204.36356 209.03888 217.19612 224.25824 230.492 235.05501 242.11713 245.96408 252.19785 256.87318 260.72013 267.78224 274.016 282.04689 285.9921 292.22587 296.78886 302.2925 306.23774 310.91307 318.94395 325.90779 330.47077 334.416 341.4781 347.71186 353.94563 360.17939 368.2243 375.2864 379.23164 389.91609 396.26219 403.09965 410.16175 414.10697 417.61698 425.73213 432.79423 438.91566 442.7626 449.8247 453.76994 461.8008 468.76466 475.82676 483.96998 491.03208 497.1535 501.82884 508.79267 512.7379 518.9717 523.647 531.67788 538.74 542.587 546.5322 552.5273 559.49118">bozor narxlariga ta&#x2019;sir o&#x2018;tkaza olmaydi, balki bu narxlar bilan </tspan></text>
</g>
<clipPath id="cp55530">
<path transform="matrix(1,0,0,-1,0,841.92)" d="M .000008871 0 L 595.32 0 L 595.32 841.92 L .000008871 841.92 Z " fill-rule="evenodd"/>
</clipPath>
<g clip-path="url(#cp55530)">
<text xml:space="preserve" transform="matrix(1 0 -0 1 0 841.92)" font-size="14.04" font-family="Times New Roman"><tspan y="-420.79" x="85.104 92.06783 99.12995 105.36371 109.21067 113.155918 118.56132 125.623439 131.74488 138.80699 142.75223 149.71607 153.22606">&#x00ab;kelishadi&#x00bb;. </tspan></text>
</g>
<clipPath id="cp55531">
<path transform="matrix(1,0,0,-1,0,841.92)" d="M .000008871 0 L 595.32 0 L 595.32 841.92 L .000008871 841.92 Z " fill-rule="evenodd"/>
</clipPath>
<g clip-path="url(#cp55531)">
<text xml:space="preserve" transform="matrix(1 0 -0 1 0 841.92)" font-size="14.04" font-family="Times New Roman"><tspan y="-420.79" x="156.62"> </tspan></text>
</g>
</g>
<g id="Layer-1" data-name="P">
<clipPath id="cp55532">
<path transform="matrix(1,0,0,-1,0,841.92)" d="M .000008871 0 L 595.32 0 L 595.32 841.92 L .000008871 841.92 Z " fill-rule="evenodd"/>
</clipPath>
<g clip-path="url(#cp55532)">
<text xml:space="preserve" transform="matrix(1 0 -0 1 0 841.92)" font-size="14.04" font-family="Times New Roman"><tspan y="-396.67" x="120.5 128.30625 132.25148 136.9268 147.61125 153.84502 160.92119 164.86643 171.83026 178.89238 188.48169 194.60314 200.00853 207.07065 212.47605 216.42128 223.25876">Firmaning asosiy </tspan></text>
</g>
<clipPath id="cp55533">
<path transform="matrix(1,0,0,-1,0,841.92)" d="M .000008871 0 L 595.32 0 L 595.32 841.92 L .000008871 841.92 Z " fill-rule="evenodd"/>
</clipPath>
<g clip-path="url(#cp55533)">
<text xml:space="preserve" transform="matrix(1 0 -0 1 0 841.92)" font-size="14.04" font-family="Times New Roman,Italic" font-style="italic"><tspan y="-396.67" x="232.97 243.149 250.21112 257.17497 262.58036 269.64247 276.6063 280.5515">maqsadi </tspan></text>
</g>
<clipPath id="cp55534">
<path transform="matrix(1,0,0,-1,0,841.92)" d="M .000008871 0 L 595.32 0 L 595.32 841.92 L .000008871 841.92 Z " fill-rule="evenodd"/>
</clipPath>
<g clip-path="url(#cp55534)">
<text xml:space="preserve" transform="matrix(1 0 -0 1 0 841.92)" font-size="14.04" font-family="Times New Roman"><tspan y="-396.67" x="290.21"> </tspan></text>
</g>
<clipPath id="cp55535">
<path transform="matrix(1,0,0,-1,0,841.92)" d="M .000008871 0 L 595.32 0 L 595.32 841.92 L .000008871 841.92 Z " fill-rule="evenodd"/>
</clipPath>
<g clip-path="url(#cp55535)">
<text xml:space="preserve" transform="matrix(1 0 -0 1 0 841.92)" font-size="14.04" font-family="Times New Roman"><tspan y="-396.67" x="299.69 305.19367 311.42744 316.10276 320.6798 330.26914 337.23298 341.07994 345.02516 348.8721 355.9342 362.05564 369.11775 372.9647 380.0268 386.14823 393.21034 402.79966 407.36265 411.30787 416.71327 423.6771 427.6223 433.85609 437.70304 441.55 445.4952 451.72898 458.6928 462.53977 469.60188 475.7233 482.68714 487.36247 496.95179 501.6271 507.86088 513.2663 520.3284 524.8914 530.3951 534.24209 540.4758 545.1511 548.9981 555.962 559.80899">sarf qilinadigan (ishlatiladigan) resurslarini </tspan></text>
</g>
<clipPath id="cp55536">
<path transform="matrix(1,0,0,-1,0,841.92)" d="M .000008871 0 L 595.32 0 L 595.32 841.92 L .000008871 841.92 Z " fill-rule="evenodd"/>
</clipPath>
<g clip-path="url(#cp55536)">
<text xml:space="preserve" transform="matrix(1 0 -0 1 0 841.92)" font-size="14.04" font-family="Times New Roman"><tspan y="-372.53" x="85.104 89.77932 96.01308 101.41848 105.36372 112.32756 119.38968 125.511119 129.45635 138.44194 142.38718 148.50862 155.57074 160.97614 164.92137 175.60582 179.55106 185.78482 191.30255 198.36467 207.2239 214.28603 218.96135 225.92519 232.15895 236.0059 239.95114 248.93674 253.61206 260.6882 267.52568 274.58778 280.82154 287.78538 291.7306">rasional taqsimlash orqali foydani </tspan></text>
</g>
<clipPath id="cp55537">
<path transform="matrix(1,0,0,-1,0,841.92)" d="M .000008871 0 L 595.32 0 L 595.32 841.92 L .000008871 841.92 Z " fill-rule="evenodd"/>
</clipPath>
<g clip-path="url(#cp55537)">
<text xml:space="preserve" transform="matrix(1 0 -0 1 0 841.92)" font-size="14.04" font-family="Times New Roman,Italic" font-style="italic"><tspan y="-372.53" x="301.01 311.09074 318.15284 324.27427 329.67967 333.62489 343.7056 350.66944 354.61466 358.4616 365.5237 370.9291 377.89295 381.83818 385.68513 391.18879 395.03575 400.44114 407.50325 414.46708 421.4309">maksimallashtirishdan</tspan></text>
</g>
<clipPath id="cp55538">
<path transform="matrix(1,0,0,-1,0,841.92)" d="M .000008871 0 L 595.32 0 L 595.32 841.92 L .000008871 841.92 Z " fill-rule="evenodd"/>
</clipPath>
<g clip-path="url(#cp55538)">
<text xml:space="preserve" transform="matrix(1 0 -0 1 0 841.92)" font-size="14.04" font-family="Times New Roman"><tspan y="-372.53" x="428.59 437.59">  </tspan></text>
</g>
<clipPath id="cp55539">
<path transform="matrix(1,0,0,-1,0,841.92)" d="M .000008871 0 L 595.32 0 L 595.32 841.92 L .000008871 841.92 Z " fill-rule="evenodd"/>
</clipPath>
<g clip-path="url(#cp55539)">
<text xml:space="preserve" transform="matrix(1 0 -0 1 0 841.92)" font-size="14.04" font-family="Times New Roman"><tspan y="-372.53" x="446.62 450.56523 457.62733 464.68943 469.2524 475.48619 479.33314 486.29698 490.2422 494.9175 498.42753 507.38505 517.46578 524.5279 528.3749 535.437 544.4226 551.48477 555.3317 559.8947">iboratdir. Aniq bir </tspan></text>
</g>
<clipPath id="cp55540">
<path transform="matrix(1,0,0,-1,0,841.92)" d="M .000008871 0 L 595.32 0 L 595.32 841.92 L .000008871 841.92 Z " fill-rule="evenodd"/>
</clipPath>
<g clip-path="url(#cp55540)">
<text xml:space="preserve" transform="matrix(1 0 -0 1 0 841.92)" font-size="14.04" font-family="Times New Roman"><tspan y="-347.33" x="85.104 92.166118 98.28755 105.34967 110.024997 116.98883 123.22259 130.18642 134.13166 137.64165 142.31697 149.33698 156.21659 163.2787 169.40015 176.46227 180.4075 183.9175 194.57387 200.80764 207.8838 213.2892 217.23444 227.91889 234.15265 238.09789 242.04312 248.27689 253.68228 260.64613 264.59135 268.53657 273.09956 277.04478 282.45018 289.51228 293.02229 303.67866 309.9124 315.4301 321.66389 325.6091 331.84288 337.24827 341.19349">davrdagi foydani maksimallashtirish masalasi </tspan></text>
</g>
<clipPath id="cp55541">
<path transform="matrix(1,0,0,-1,0,841.92)" d="M .000008871 0 L 595.32 0 L 595.32 841.92 L .000008871 841.92 Z " fill-rule="evenodd"/>
</clipPath>
<g clip-path="url(#cp55541)">
<text xml:space="preserve" transform="matrix(1 0 -0 1 0 841.92)" font-size="14.04" font-family="Times New Roman,Italic" font-style="italic"><tspan y="-347.33" x="344.95 353.47007">PR</tspan></text>
</g>
</g>
<g id="Layer-1" data-name="P">
<clipPath id="cp55542">
<path transform="matrix(1,0,0,-1,0,841.92)" d="M .000008871 0 L 595.32 0 L 595.32 841.92 L .000008871 841.92 Z " fill-rule="evenodd"/>
</clipPath>
<g clip-path="url(#cp55542)">
<text xml:space="preserve" transform="matrix(1 0 -.3333 1 0 841.92)" font-size="14.04" font-family="Symbol"><tspan y="-347.33" x="246.22492">&#xf0ae;</tspan></text>
</g>
</g>
<g id="Layer-1" data-name="P">
<clipPath id="cp55543">
<path transform="matrix(1,0,0,-1,0,841.92)" d="M .000008871 0 L 595.32 0 L 595.32 841.92 L .000008871 841.92 Z " fill-rule="evenodd"/>
</clipPath>
<g clip-path="url(#cp55543)">
<text xml:space="preserve" transform="matrix(1 0 -0 1 0 841.92)" font-size="14.04" font-family="Times New Roman,Italic" font-style="italic"><tspan y="-347.33" x="375.79 385.87074 392.93284 399.1666">max </tspan></text>
</g>
</g>
<g id="Layer-1" data-name="P">
<clipPath id="cp55544">
<path transform="matrix(1,0,0,-1,0,841.92)" d="M .000008871 0 L 595.32 0 L 595.32 841.92 L .000008871 841.92 Z " fill-rule="evenodd"/>
</clipPath>
<g clip-path="url(#cp55544)">
<text xml:space="preserve" transform="matrix(1 0 -0 1 0 841.92)" font-size="14.04" font-family="Times New Roman"><tspan y="-347.33" x="402.67 409.73213 415.85356 422.91566 426.2712 430.21644 437.18028 444.1441 448.81944 455.0532 458.90016 465.96226 469.90748 474.5828">dan iboratdir.</tspan></text>
</g>
</g>
<g id="Layer-1" data-name="P">
<clipPath id="cp55545">
<path transform="matrix(1,0,0,-1,0,841.92)" d="M .000008871 0 L 595.32 0 L 595.32 841.92 L .000008871 841.92 Z " fill-rule="evenodd"/>
</clipPath>
<g clip-path="url(#cp55545)">
<text xml:space="preserve" transform="matrix(1 0 -0 1 0 841.92)" font-size="14.04" font-family="Times New Roman"><tspan y="-347.33" x="478.06"> </tspan></text>
</g>
</g>
<g id="Layer-1" data-name="P">
<clipPath id="cp55546">
<path transform="matrix(1,0,0,-1,0,841.92)" d="M .000008871 0 L 595.32 0 L 595.32 841.92 L .000008871 841.92 Z " fill-rule="evenodd"/>
</clipPath>
<g clip-path="url(#cp55546)">
<text xml:space="preserve" transform="matrix(1 0 -0 1 0 841.92)" font-size="14.04" font-family="Times New Roman"><tspan y="-322.61" x="120.5 129.86469 136.81449 143.8766 150.93872 157.17249 164.024 168.92395 179.6084 185.84217 192.91834 198.42201 202.36725 213.0517 219.28546 223.2307 227.17594 233.29738 238.70278 245.7649 249.61185 253.55709 258.12007 262.06529 267.47068 274.53279 279.32044 290.00489 296.23866 301.75636 307.9901 311.93534 318.05677 323.56044 327.40739 334.46949 338.31645 345.28028 352.34239 357.00367 364.06578 371.12788 375.69087 382.52833 386.47355 390.41877 394.36399 399.76939 406.73323 410.67845 415.4661 422.42994 428.6637 435.62754 442.68965 448.9234 455.7749 460.56257 466.79634 473.87248 477.71943 484.78153 489.56919 496.53303 502.76679 509.73063 513.67587 518.33718 525.3993 530.0746 536.19607 540.1413 543.9883 551.0504 555.6134 559.4604">Bunday maksimallashtirish masalasining qo&#x2018;yilishi qanday aniq vaqt oralig&#x2018;i </tspan></text>
</g>
<clipPath id="cp55547">
<path transform="matrix(1,0,0,-1,0,841.92)" d="M .000008871 0 L 595.32 0 L 595.32 841.92 L .000008871 841.92 Z " fill-rule="evenodd"/>
</clipPath>
<g clip-path="url(#cp55547)">
<text xml:space="preserve" transform="matrix(1 0 -0 1 0 841.92)" font-size="14.04" font-family="Times New Roman"><tspan y="-298.49" x="85.104 89.77932 96.85548 102.97691 110.03903 117.10115 120.61115 131.26752 138.32964 145.39176 152.35559 158.58936 162.43631 166.38155 170.32678 173.83678 180.64618 187.7083 194.67214 198.61737 201.97293 209.03505 212.882 218.2874 225.34952 231.58329 235.09328 245.74965 252.81177 259.87388 266.93598 273.0574 277.00263 280.84959 284.7948 289.47013 292.98014 299.9159 306.14967 310.82499 316.96049 320.80744 324.75267 330.15806 337.22016 341.0671 348.1292 354.36299 357.873 361.2145 368.2766 375.24046 382.30256 386.86555 390.81077 394.6577 401.62156 408.68367 412.62889 417.3042">(uzoq muddatli yoki qisqa muddatli) qaralishiga  bog&#x2018;liqdir.</tspan></text>
</g>
<clipPath id="cp55548">
<path transform="matrix(1,0,0,-1,0,841.92)" d="M .000008871 0 L 595.32 0 L 595.32 841.92 L .000008871 841.92 Z " fill-rule="evenodd"/>
</clipPath>
<g clip-path="url(#cp55548)">
<text xml:space="preserve" transform="matrix(1 0 -0 1 0 841.92)" font-size="14.04" font-family="Times New Roman"><tspan y="-298.49" x="421.03"> </tspan></text>
</g>
</g>
<g id="Layer-1" data-name="P">
<clipPath id="cp55549">
<path transform="matrix(1,0,0,-1,0,841.92)" d="M .000008871 0 L 595.32 0 L 595.32 841.92 L .000008871 841.92 Z " fill-rule="evenodd"/>
</clipPath>
<g clip-path="url(#cp55549)">
<text xml:space="preserve" transform="matrix(1 0 -0 1 0 841.92)" font-size="14.04" font-family="Times New Roman"><tspan y="-274.37" x="120.5 130.58072 136.81449 143.89066 150.95278 157.06017 167.74462 174.80673 181.86885 188.83269 195.06645 198.9134 202.85865 206.80388 212.78491 219.84703 224.52236 230.6438 234.58904 238.43599 245.49811 252.46195 258.6957 264.80314 269.47846 273.42369 278.099 288.78346 295.0172 301.12464">Uzoq muddatli oraliqda firma s</tspan></text>
</g>
<clipPath id="cp55550">
<path transform="matrix(1,0,0,-1,0,841.92)" d="M .000008871 0 L 595.32 0 L 595.32 841.92 L .000008871 841.92 Z " fill-rule="evenodd"/>
</clipPath>
<g clip-path="url(#cp55550)">
<text xml:space="preserve" transform="matrix(1 0 -0 1 0 841.92)" font-size="14.04" font-family="Times New Roman"><tspan y="-274.37" x="306.89 313.12379 317.7991 322.47444 328.5959 335.658 341.77943 346.45475 352.6885 356.53547 362.76924 366.71446 370.5614 376.79518 381.4705 387.59196 392.26728 398.50105 404.63655 411.69865 417.10404 420.951 428.0131 434.13453 441.19664 447.30406 451.151 458.2131 462.06007 466.00529 472.84275 479.90486 484.58018 488.5254 495.36286 501.47029">arf xarajatlar fazosidan ixtiyoriy  </tspan></text>
</g>
<clipPath id="cp55551">
<path transform="matrix(1,0,0,-1,0,841.92)" d="M .000008871 0 L 595.32 0 L 595.32 841.92 L .000008871 841.92 Z " fill-rule="evenodd"/>
</clipPath>
<g clip-path="url(#cp55551)">
<text xml:space="preserve" transform="matrix(1 0 -0 1 0 841.92)" font-size="14.04" font-family="Times New Roman,Italic" font-style="italic"><tspan y="-274.37" x="507.82 516.3423 525.8193 530.49459">X=(x</tspan></text>
</g>
<clipPath id="cp55552">
<path transform="matrix(1,0,0,-1,0,841.92)" d="M .000008871 0 L 595.32 0 L 595.32 841.92 L .000008871 841.92 Z " fill-rule="evenodd"/>
</clipPath>
<g clip-path="url(#cp55552)">
<text xml:space="preserve" transform="matrix(1 0 -0 1 0 841.92)" font-size="9" font-family="Times New Roman,Italic" font-style="italic"><tspan y="-272.81" x="536.74">1</tspan></text>
</g>
<clipPath id="cp55553">
<path transform="matrix(1,0,0,-1,0,841.92)" d="M .000008871 0 L 595.32 0 L 595.32 841.92 L .000008871 841.92 Z " fill-rule="evenodd"/>
</clipPath>
<g clip-path="url(#cp55553)">
<text xml:space="preserve" transform="matrix(1 0 -0 1 0 841.92)" font-size="14.04" font-family="Times New Roman,Italic" font-style="italic"><tspan y="-274.37" x="541.3 544.77999">,x</tspan></text>
</g>
<clipPath id="cp55554">
<path transform="matrix(1,0,0,-1,0,841.92)" d="M .000008871 0 L 595.32 0 L 595.32 841.92 L .000008871 841.92 Z " fill-rule="evenodd"/>
</clipPath>
<g clip-path="url(#cp55554)">
<text xml:space="preserve" transform="matrix(1 0 -0 1 0 841.92)" font-size="9" font-family="Times New Roman,Italic" font-style="italic"><tspan y="-272.81" x="551.02">2</tspan></text>
</g>
<clipPath id="cp55555">
<path transform="matrix(1,0,0,-1,0,841.92)" d="M .000008871 0 L 595.32 0 L 595.32 841.92 L .000008871 841.92 Z " fill-rule="evenodd"/>
</clipPath>
<g clip-path="url(#cp55555)">
<text xml:space="preserve" transform="matrix(1 0 -0 1 0 841.92)" font-size="14.04" font-family="Times New Roman,Italic" font-style="italic"><tspan y="-274.37" x="555.46">)</tspan></text>
</g>
<clipPath id="cp55556">
<path transform="matrix(1,0,0,-1,0,841.92)" d="M .000008871 0 L 595.32 0 L 595.32 841.92 L .000008871 841.92 Z " fill-rule="evenodd"/>
</clipPath>
<g clip-path="url(#cp55556)">
<text xml:space="preserve" transform="matrix(1 0 -0 1 0 841.92)" font-size="14.04" font-family="Times New Roman"><tspan y="-274.37" x="560.02"> </tspan></text>
</g>
<clipPath id="cp55557">
<path transform="matrix(1,0,0,-1,0,841.92)" d="M .000008871 0 L 595.32 0 L 595.32 841.92 L .000008871 841.92 Z " fill-rule="evenodd"/>
</clipPath>
<g clip-path="url(#cp55557)">
<text xml:space="preserve" transform="matrix(1 0 -0 1 0 841.92)" font-size="14.04" font-family="Times New Roman"><tspan y="-250.13" x="85.104 92.166118 98.28755 105.34967 109.19663 116.25875 120.821758 127.88387 131.8291 140.21099 146.33243 151.00775 157.97159 161.91683 168.97895 177.2485 181.19374 187.31519 194.27902 198.22426 204.3457 209.84938 216.81322 220.75846 229.14034 239.82479 247.01328 257.69773 264.75984 268.70506 275.76716 279.27717">vektorni erkin tanlashi mumkin. </tspan></text>
</g>
</g>
<g id="Layer-1" data-name="P">
<clipPath id="cp55558">
<path transform="matrix(1,0,0,-1,0,841.92)" d="M .000008871 0 L 595.32 0 L 595.32 841.92 L .000008871 841.92 Z " fill-rule="evenodd"/>
</clipPath>
<g clip-path="url(#cp55558)">
<text xml:space="preserve" transform="matrix(1 0 -0 1 0 841.92)" font-size="14.04" font-family="Times New Roman"><tspan y="-250.13" x="287.93 295.60987 302.67198 309.6358 316.6979 320.54487 327.60697 334.66908 342.93864 350.00074 356.12217 363.086 370.1481 377.2102 385.47978 392.54188 398.77565 409.46009 417.84199 424.90409 431.9662 438.93003 445.99214 452.2259 459.0774 467.4593 474.5214 481.5835 485.43046 491.6642 495.51118 502.57328 508.80705 517.20297 521.7659 528.82809 535.6656 542.7277 548.9615 555.92538 559.646">Shuning uchun ham bunday holatda foydani </tspan></text>
</g>
</g>
<g id="Layer-1" data-name="P">
<clipPath id="cp55559">
<path transform="matrix(1,0,0,-1,0,841.92)" d="M .000008871 0 L 595.32 0 L 595.32 841.92 L .000008871 841.92 Z " fill-rule="evenodd"/>
</clipPath>
<g clip-path="url(#cp55559)">
<text xml:space="preserve" transform="matrix(1 0 -0 1 0 841.92)" font-size="14.04" font-family="Times New Roman"><tspan y="-225.77" x="85.104 95.90076 102.134517 109.21067 114.714359 118.6596 129.34404 135.5778 139.52304 143.46828 149.58972 155.0934 162.05724 165.90419 169.84943 174.52475 178.3717 183.7771 190.83922 194.34922 205.1179 211.35167 216.8694 222.99085 226.93608 233.16985 238.57524">maksimallashtirish masalasi</tspan></text>
</g>
</g>
<g id="Layer-1" data-name="P">
<clipPath id="cp55560">
<path transform="matrix(1,0,0,-1,0,841.92)" d="M .000008871 0 L 595.32 0 L 595.32 841.92 L .000008871 841.92 Z " fill-rule="evenodd"/>
</clipPath>
<g clip-path="url(#cp55560)">
<text xml:space="preserve" transform="matrix(1 0 -0 1 0 841.92)" font-size="14.04" font-family="Times New Roman"><tspan y="-225.77" x="242.69"> </tspan></text>
</g>
</g>
<g id="Layer-1" data-name="P">
<clipPath id="cp55561">
<path transform="matrix(1,0,0,-1,0,841.92)" d="M 0 .000061035 L 595.32 .000061035 L 595.32 841.92007 L 0 841.92007 Z " fill-rule="evenodd"/>
</clipPath>
<g clip-path="url(#cp55561)">
<clipPath id="cp55562">
<path transform="matrix(.9942783,0,0,-.96361479,246.06,621.16)" d="M 0 0 L 65.674 0 L 65.674 17.901 L 0 17.901 Z " fill-rule="evenodd"/>
</clipPath>
<g clip-path="url(#cp55562)">
<text xml:space="preserve" transform="matrix(.9942783 0 -0 .96361479 246.06 621.16)" font-size="12.751" font-family="Times New Roman"><tspan y="-5.1111" x="58.019">0</tspan></text>
<text xml:space="preserve" transform="matrix(.9942783 0 -0 .96361479 246.06 621.16)" font-size="12.751" font-family="Times New Roman"><tspan y="-5.1111" x="30.056">,</tspan></text>
<text xml:space="preserve" transform="matrix(.9942783 0 -0 .96361479 246.06 621.16)" font-size="12.751" font-family="Times New Roman"><tspan y="-5.1111" x="24.172">0</tspan></text>
<text xml:space="preserve" transform="matrix(.9942783 0 -0 .96361479 246.06 621.16)" font-size="7.4339" font-family="Times New Roman"><tspan y="-1.9259" x="40.246">2</tspan></text>
<text xml:space="preserve" transform="matrix(.9942783 0 -0 .96361479 246.06 621.16)" font-size="7.4339" font-family="Times New Roman"><tspan y="-1.9259" x="6.9416">1</tspan></text>
<text xml:space="preserve" transform="matrix(.9942783 0 -0 .96361479 246.06 621.16)" font-size="12.751" font-family="Symbol"><tspan y="-5.1111" x="48.123">&#xf0b3;</tspan></text>
<text xml:space="preserve" transform="matrix(.9942783 0 -0 .96361479 246.06 621.16)" font-size="12.751" font-family="Symbol"><tspan y="-5.1111" x="14.277">&#xf0b3;</tspan></text>
<text xml:space="preserve" transform="matrix(.9942783 0 -0 .96361479 246.06 621.16)" font-size="12.751" font-family="Times New Roman,Italic" font-style="italic"><tspan y="-5.1111" x="34.905">x</tspan></text>
<text xml:space="preserve" transform="matrix(.9942783 0 -0 .96361479 246.06 621.16)" font-size="12.751" font-family="Times New Roman,Italic" font-style="italic"><tspan y="-5.1111" x="2.3877">x</tspan></text>
</g>
</g>
</g>
<g id="Layer-1" data-name="P">
<clipPath id="cp55563">
<path transform="matrix(1,0,0,-1,0,841.92)" d="M .000008871 0 L 595.32 0 L 595.32 841.92 L .000008871 841.92 Z " fill-rule="evenodd"/>
</clipPath>
<g clip-path="url(#cp55563)">
<text xml:space="preserve" transform="matrix(1 0 -0 1 0 841.92)" font-size="14.04" font-family="Times New Roman"><tspan y="-225.77" x="311.33"> </tspan></text>
</g>
<clipPath id="cp55564">
<path transform="matrix(1,0,0,-1,0,841.92)" d="M .000008871 0 L 595.32 0 L 595.32 841.92 L .000008871 841.92 Z " fill-rule="evenodd"/>
</clipPath>
<g clip-path="url(#cp55564)">
<text xml:space="preserve" transform="matrix(1 0 -0 1 0 841.92)" font-size="14.04" font-family="Times New Roman"><tspan y="-225.77" x="314.81 320.31367 327.37577 333.60954 338.17253 342.11775 345.9647 352.19847 356.87379 363.85166">shartlarda</tspan></text>
</g>
<clipPath id="cp55565">
<path transform="matrix(1,0,0,-1,0,841.92)" d="M .000008871 0 L 595.32 0 L 595.32 841.92 L .000008871 841.92 Z " fill-rule="evenodd"/>
</clipPath>
<g clip-path="url(#cp55565)">
<text xml:space="preserve" transform="matrix(1 0 -0 1 0 841.92)" font-size="14.04" font-family="Times New Roman"><tspan y="-225.77" x="370.03"> </tspan></text>
</g>
</g>
<g id="Layer-1" data-name="P">
<clipPath id="cp55566">
<path transform="matrix(1,0,0,-1,0,841.92)" d="M 0 .000061035 L 595.32 .000061035 L 595.32 841.92007 L 0 841.92007 Z " fill-rule="evenodd"/>
</clipPath>
<g clip-path="url(#cp55566)">
<clipPath id="cp55567">
<path transform="matrix(1.3320718,0,0,-1.2891204,120.56,653.20999)" d="M 0 0 L 237 0 L 237 18.617 L 0 18.617 Z " fill-rule="evenodd"/>
</clipPath>
<g clip-path="url(#cp55567)">
<text xml:space="preserve" transform="matrix(1.151075 0 -0 1.4918238 120.56 653.20999)" font-size="14.038556" font-family="Symbol"><tspan y="-5.483384" x="26.292529">&#xf028;</tspan></text>
<text xml:space="preserve" transform="matrix(1.151075 0 -0 1.4918238 120.56 653.20999)" font-size="14.038556" font-family="Symbol"><tspan y="-5.483384" x="61.501607">&#xf029;</tspan></text>
<text xml:space="preserve" transform="matrix(1.151075 0 -0 1.4918238 120.56 653.20999)" font-size="14.038556" font-family="Symbol"><tspan y="-5.483384" x="77.966838">&#xf028;</tspan></text>
<text xml:space="preserve" transform="matrix(1.151075 0 -0 1.4918238 120.56 653.20999)" font-size="14.038556" font-family="Symbol"><tspan y="-5.483384" x="148.98329">&#xf029;</tspan></text>
<text xml:space="preserve" transform="matrix(1.3320718 0 -0 1.2891204 120.56 653.20999)" font-size="12.308" font-family="Times New Roman"><tspan y="-6.2716" x="214.47 223.79947 228.79653">max</tspan></text>
<text xml:space="preserve" transform="matrix(1.3320718 0 -0 1.2891204 120.56 653.20999)" font-size="12.308" font-family="Times New Roman"><tspan y="-6.2716" x="192.62">)</tspan></text>
<text xml:space="preserve" transform="matrix(1.3320718 0 -0 1.2891204 120.56 653.20999)" font-size="12.308" font-family="Times New Roman"><tspan y="-6.2716" x="176.47">,</tspan></text>
<text xml:space="preserve" transform="matrix(1.3320718 0 -0 1.2891204 120.56 653.20999)" font-size="12.308" font-family="Times New Roman"><tspan y="-6.2716" x="162.02">(</tspan></text>
<text xml:space="preserve" transform="matrix(1.3320718 0 -0 1.2891204 120.56 653.20999)" font-size="12.308" font-family="Times New Roman"><tspan y="-6.2716" x="131.32">.</tspan></text>
<text xml:space="preserve" transform="matrix(1.3320718 0 -0 1.2891204 120.56 653.20999)" font-size="12.308" font-family="Times New Roman"><tspan y="-6.2716" x="36.603">,</tspan></text>
<text xml:space="preserve" transform="matrix(1.3320718 0 -0 1.2891204 120.56 653.20999)" font-size="7.1877" font-family="Times New Roman"><tspan y="-3.1852" x="187.37">2</tspan></text>
<text xml:space="preserve" transform="matrix(1.3320718 0 -0 1.2891204 120.56 653.20999)" font-size="7.1877" font-family="Times New Roman"><tspan y="-3.1852" x="171.94">1</tspan></text>
<text xml:space="preserve" transform="matrix(1.3320718 0 -0 1.2891204 120.56 653.20999)" font-size="7.1877" font-family="Times New Roman"><tspan y="-3.1852" x="123.1">2</tspan></text>
<text xml:space="preserve" transform="matrix(1.3320718 0 -0 1.2891204 120.56 653.20999)" font-size="7.1877" font-family="Times New Roman"><tspan y="-3.1852" x="112.25">2</tspan></text>
<text xml:space="preserve" transform="matrix(1.3320718 0 -0 1.2891204 120.56 653.20999)" font-size="7.1877" font-family="Times New Roman"><tspan y="-3.1852" x="87.976">1</tspan></text>
<text xml:space="preserve" transform="matrix(1.3320718 0 -0 1.2891204 120.56 653.20999)" font-size="7.1877" font-family="Times New Roman"><tspan y="-3.1852" x="78.425">1</tspan></text>
<text xml:space="preserve" transform="matrix(1.3320718 0 -0 1.2891204 120.56 653.20999)" font-size="7.1877" font-family="Times New Roman"><tspan y="-3.1852" x="47.508">2</tspan></text>
<text xml:space="preserve" transform="matrix(1.3320718 0 -0 1.2891204 120.56 653.20999)" font-size="7.1877" font-family="Times New Roman"><tspan y="-3.1852" x="32.074">1</tspan></text>
<text xml:space="preserve" transform="matrix(1.3320718 0 -0 1.2891204 120.56 653.20999)" font-size="7.1877" font-family="Times New Roman"><tspan y="-3.1852" x="9.7724">0</tspan></text>
<text xml:space="preserve" transform="matrix(1.3320718 0 -0 1.2891204 120.56 653.20999)" font-size="12.308" font-family="Symbol"><tspan y="-6.2716" x="199.58">&#xf0ae;</tspan></text>
<text xml:space="preserve" transform="matrix(1.3320718 0 -0 1.2891204 120.56 653.20999)" font-size="12.308" font-family="Symbol"><tspan y="-6.2716" x="136.79">&#xf03d;</tspan></text>
<text xml:space="preserve" transform="matrix(1.3320718 0 -0 1.2891204 120.56 653.20999)" font-size="12.308" font-family="Symbol"><tspan y="-6.2716" x="94.967">&#xf02b;</tspan></text>
<text xml:space="preserve" transform="matrix(1.3320718 0 -0 1.2891204 120.56 653.20999)" font-size="12.308" font-family="Symbol"><tspan y="-6.2716" x="58.536">&#xf02d;</tspan></text>
<text xml:space="preserve" transform="matrix(1.3320718 0 -0 1.2891204 120.56 653.20999)" font-size="12.308" font-family="Times New Roman,Italic" font-style="italic"><tspan y="-6.2716" x="181.56">x</tspan></text>
<text xml:space="preserve" transform="matrix(1.3320718 0 -0 1.2891204 120.56 653.20999)" font-size="12.308" font-family="Times New Roman,Italic" font-style="italic"><tspan y="-6.2716" x="166.92">x</tspan></text>
<text xml:space="preserve" transform="matrix(1.3320718 0 -0 1.2891204 120.56 653.20999)" font-size="12.308" font-family="Times New Roman,Italic" font-style="italic"><tspan y="-6.2716" x="146.95 154.11319">PR</tspan></text>
<text xml:space="preserve" transform="matrix(1.3320718 0 -0 1.2891204 120.56 653.20999)" font-size="12.308" font-family="Times New Roman,Italic" font-style="italic"><tspan y="-6.2716" x="117.29">x</tspan></text>
<text xml:space="preserve" transform="matrix(1.3320718 0 -0 1.2891204 120.56 653.20999)" font-size="12.308" font-family="Times New Roman,Italic" font-style="italic"><tspan y="-6.2716" x="105.67">p</tspan></text>
<text xml:space="preserve" transform="matrix(1.3320718 0 -0 1.2891204 120.56 653.20999)" font-size="12.308" font-family="Times New Roman,Italic" font-style="italic"><tspan y="-6.2716" x="82.954">x</tspan></text>
<text xml:space="preserve" transform="matrix(1.3320718 0 -0 1.2891204 120.56 653.20999)" font-size="12.308" font-family="Times New Roman,Italic" font-style="italic"><tspan y="-6.2716" x="72.64">p</tspan></text>
<text xml:space="preserve" transform="matrix(1.3320718 0 -0 1.2891204 120.56 653.20999)" font-size="12.308" font-family="Times New Roman,Italic" font-style="italic"><tspan y="-6.2716" x="41.699">x</tspan></text>
<text xml:space="preserve" transform="matrix(1.3320718 0 -0 1.2891204 120.56 653.20999)" font-size="12.308" font-family="Times New Roman,Italic" font-style="italic"><tspan y="-6.2716" x="27.052">x</tspan></text>
<text xml:space="preserve" transform="matrix(1.3320718 0 -0 1.2891204 120.56 653.20999)" font-size="12.308" font-family="Times New Roman,Italic" font-style="italic"><tspan y="-6.2716" x="16.517">f</tspan></text>
<text xml:space="preserve" transform="matrix(1.3320718 0 -0 1.2891204 120.56 653.20999)" font-size="12.308" font-family="Times New Roman,Italic" font-style="italic"><tspan y="-6.2716" x="3.3231">p</tspan></text>
</g>
</g>
</g>
<g id="Layer-1" data-name="P">
<clipPath id="cp55568">
<path transform="matrix(1,0,0,-1,0,841.92)" d="M .000008871 0 L 595.32 0 L 595.32 841.92 L .000008871 841.92 Z " fill-rule="evenodd"/>
</clipPath>
<g clip-path="url(#cp55568)">
<text xml:space="preserve" transform="matrix(1 0 -0 1 0 841.92)" font-size="14.04" font-family="Times New Roman"><tspan y="-194.66" x="436.27"> </tspan></text>
</g>
</g>
<g id="Layer-1" data-name="P">
<clipPath id="cp55569">
<path transform="matrix(1,0,0,-1,0,841.92)" d="M .000008871 0 L 595.32 0 L 595.32 841.92 L .000008871 841.92 Z " fill-rule="evenodd"/>
</clipPath>
<g clip-path="url(#cp55569)">
<text xml:space="preserve" transform="matrix(1 0 -0 1 0 841.92)" font-size="14.04" font-family="Times New Roman"><tspan y="-167.9" x="120.5 127.56212 133.68357 140.74568 144.25568 147.7095 151.65474 158.61858 165.6807 170.35602 176.47747 180.32442 187.38654 191.33177 196.0071">dan  iboratdir.</tspan></text>
</g>
<clipPath id="cp55570">
<path transform="matrix(1,0,0,-1,0,841.92)" d="M .000008871 0 L 595.32 0 L 595.32 841.92 L .000008871 841.92 Z " fill-rule="evenodd"/>
</clipPath>
<g clip-path="url(#cp55570)">
<text xml:space="preserve" transform="matrix(1 0 -0 1 0 841.92)" font-size="14.04" font-family="Times New Roman"><tspan y="-167.9" x="199.49"> </tspan></text>
</g>
</g>
<g id="Layer-1" data-name="P">
<clipPath id="cp55571">
<path transform="matrix(1,0,0,-1,0,841.92)" d="M .000008871 0 L 595.32 0 L 595.32 841.92 L .000008871 841.92 Z " fill-rule="evenodd"/>
</clipPath>
<g clip-path="url(#cp55571)">
<text xml:space="preserve" transform="matrix(1 0 -0 1 0 841.92)" font-size="14.04" font-family="Times New Roman"><tspan y="-143.66" x="120.5 130.58072 134.52596 139.93135 146.99347 153.22724 159.93836 170.6228 177.68492 184.74704 191.71088 197.94464 201.88988 208.47463 215.53675 220.09975 226.33351 230.18047 234.1257 241.08954 245.65254 249.59778 256.65989 262.89366 269.49247 274.1678 278.113 282.78834 293.47279 299.70655 306.41767 313.00245 320.06455 324.62754 330.8613 334.80653 341.3913 346.89497 353.12873 357.80406 362.47938 369.0782 376.1403 380.0855 384.03074 390.15217 397.116 401.06123 408.02507 414.25883 421.33497 427.91975 432.59507 436.44203 441.8474 448.90953 452.85475 458.97618 462.9214 469.04283 476.10493 479.95188 487.01399 493.1354 500.1975 504.87284 511.4576 516.13296 522.3667 527.7721 534.8342 539.5095 544.9149 548.7619 554.88339 559.44638">Qisqa muddat oralig&#x2018;ida firma  o&#x2018;zi sarf qiladigan (ishlatadigan) resurslar </tspan></text>
</g>
<clipPath id="cp55572">
<path transform="matrix(1,0,0,-1,0,841.92)" d="M .000008871 0 L 595.32 0 L 595.32 841.92 L .000008871 841.92 Z " fill-rule="evenodd"/>
</clipPath>
<g clip-path="url(#cp55572)">
<text xml:space="preserve" transform="matrix(1 0 -0 1 0 841.92)" font-size="14.04" font-family="Times New Roman"><tspan y="-119.54" x="85.104 92.166118 98.39987 102.24683 112.931278 116.87652 123.93864 127.88388 134.84772 141.90984 145.85507 152.91719 159.03864 162.98387 167.54688 171.49211 178.32959 182.27483 188.50859 195.58477 201.81853 208.8947 212.83994 218.96138 225.92522 232.98734 239.10878 246.1709 250.01786 253.96309 260.92695 264.7739 271.836 275.78123 279.61415 286.67625 290.5232 295.9286 302.9907 309.95454 317.01664 323.13807 327.0833 334.14543 337.99238 341.9376 347.343 354.4051 358.3503 362.18324 369.24534 375.4791 380.15443 386.28993 393.35203 396.86204 400.7792">hajmining qat&#x2019;iy cheklanganligini hisobga olishi kerak.  </tspan></text>
</g>
</g>
<g id="Layer-1" data-name="P">
<clipPath id="cp55573">
<path transform="matrix(1,0,0,-1,0,841.92)" d="M .000008871 0 L 595.32 0 L 595.32 841.92 L .000008871 841.92 Z " fill-rule="evenodd"/>
</clipPath>
<g clip-path="url(#cp55573)">
<text xml:space="preserve" transform="matrix(1 0 -0 1 0 841.92)" font-size="14.04" font-family="Times New Roman"><tspan y="-119.54" x="405.19 414.5547 421.5045 428.5666 432.5118 436.34474 443.30857 450.37068 457.20814 461.15336 468.21546 474.44923 481.41307 485.35829 491.4797 498.5418 504.77558 508.72084 512.5678 517.2431 524.207 531.2691 537.39059 541.3358 547.5696 552.8627 559.82656">Buni quyidagicha ifodalash </tspan></text>
</g>
</g>
<g id="Layer-1" data-name="P">
<clipPath id="cp55574">
<path transform="matrix(1,0,0,-1,0,841.92)" d="M .000008871 0 L 595.32 0 L 595.32 841.92 L .000008871 841.92 Z " fill-rule="evenodd"/>
</clipPath>
<g clip-path="url(#cp55574)">
<text xml:space="preserve" transform="matrix(1 0 -0 1 0 841.92)" font-size="14.04" font-family="Times New Roman"><tspan y="-95.424" x="85.104 95.78844 102.97691 113.661357 120.72347 124.66872 131.73084">mumkin:</tspan></text>
</g>
</g>
<g id="Layer-1" data-name="P">
<clipPath id="cp55575">
<path transform="matrix(1,0,0,-1,0,841.92)" d="M .000008871 0 L 595.32 0 L 595.32 841.92 L .000008871 841.92 Z " fill-rule="evenodd"/>
</clipPath>
<g clip-path="url(#cp55575)">
<text xml:space="preserve" transform="matrix(1 0 -0 1 0 841.92)" font-size="14.04" font-family="Times New Roman"><tspan y="-95.424" x="135.62"> </tspan></text>
</g>
</g>
<g id="Layer-1" data-name="P">
<clipPath id="cp55576">
<path transform="matrix(1,0,0,-1,0,841.92)" d="M 0 .000061035 L 595.32 .000061035 L 595.32 841.92007 L 0 841.92007 Z " fill-rule="evenodd"/>
</clipPath>
<g clip-path="url(#cp55576)">
<clipPath id="cp55577">
<path transform="matrix(1.370375,0,0,-1.1312156,120.56,778.01)" d="M 0 0 L 65.674 0 L 65.674 17.901 L 0 17.901 Z " fill-rule="evenodd"/>
</clipPath>
<g clip-path="url(#cp55577)">
<text xml:space="preserve" transform="matrix(1.370375 0 -0 1.1312156 120.56 778.01)" font-size="12.751" font-family="Times New Roman,Italic" font-style="italic"><tspan y="-5.1111" x="57.428">b</tspan></text>
<text xml:space="preserve" transform="matrix(1.370375 0 -0 1.1312156 120.56 778.01)" font-size="12.751" font-family="Times New Roman,Italic" font-style="italic"><tspan y="-5.1111" x="29.859">x</tspan></text>
<text xml:space="preserve" transform="matrix(1.370375 0 -0 1.1312156 120.56 778.01)" font-size="12.751" font-family="Times New Roman,Italic" font-style="italic"><tspan y="-5.1111" x="14.302">x</tspan></text>
<text xml:space="preserve" transform="matrix(1.370375 0 -0 1.1312156 120.56 778.01)" font-size="12.751" font-family="Times New Roman,Italic" font-style="italic"><tspan y="-5.1111" x="2.3877">g</tspan></text>
<text xml:space="preserve" transform="matrix(1.370375 0 -0 1.1312156 120.56 778.01)" font-size="12.751" font-family="Symbol"><tspan y="-5.1111" x="48.197">&#xf0a3;</tspan></text>
<text xml:space="preserve" transform="matrix(1.370375 0 -0 1.1312156 120.56 778.01)" font-size="12.751" font-family="Times New Roman"><tspan y="-5.1111" x="41.452">)</tspan></text>
<text xml:space="preserve" transform="matrix(1.370375 0 -0 1.1312156 120.56 778.01)" font-size="12.751" font-family="Times New Roman"><tspan y="-5.1111" x="24.369">,</tspan></text>
<text xml:space="preserve" transform="matrix(1.370375 0 -0 1.1312156 120.56 778.01)" font-size="12.751" font-family="Times New Roman"><tspan y="-5.1111" x="9.3785">(</tspan></text>
<text xml:space="preserve" transform="matrix(1.370375 0 -0 1.1312156 120.56 778.01)" font-size="7.4339" font-family="Times New Roman"><tspan y="-1.9259" x="35.914">2</tspan></text>
<text xml:space="preserve" transform="matrix(1.370375 0 -0 1.1312156 120.56 778.01)" font-size="7.4339" font-family="Times New Roman"><tspan y="-1.9259" x="19.569">1</tspan></text>
</g>
</g>
</g>
<g id="Layer-1" data-name="P">
<clipPath id="cp55578">
<path transform="matrix(1,0,0,-1,0,841.92)" d="M .000008871 0 L 595.32 0 L 595.32 841.92 L .000008871 841.92 Z " fill-rule="evenodd"/>
</clipPath>
<g clip-path="url(#cp55578)">
<text xml:space="preserve" transform="matrix(1 0 -0 1 0 841.92)" font-size="14.04" font-family="Times New Roman"><tspan y="-68.904" x="210.53"> </tspan></text>
</g>
<clipPath id="cp55579">
<path transform="matrix(1,0,0,-1,0,841.92)" d="M .000008871 0 L 595.32 0 L 595.32 841.92 L .000008871 841.92 Z " fill-rule="evenodd"/>
</clipPath>
<g clip-path="url(#cp55579)">
<text xml:space="preserve" transform="matrix(1 0 -0 1 0 841.92)" font-size="14.04" font-family="Times New Roman"><tspan y="-68.904" x="214.01 218.68532 225.76149 232.82361 236.3336 242.42697 249.48909 255.61054 262.67265 266.5196 272.75337 279.7172 283.56416 289.0678 296.03166 299.97688 306.21064 310.88597 314.25556 321.31767 325.26289 329.82588 333.33589 340.35588 346.58964 352.73918 359.80128 363.7465 369.98027 373.34986 380.3137 387.3758 391.93879 395.884 399.82923 405.23463 412.19847 416.14369 419.6537 430.31007 437.49855 448.2953 455.3574 459.20436 466.26646 469.77647">(bu cheklanishlar bir nechta bo&#x2018;lishi mumkin.)</tspan></text>
</g>
<clipPath id="cp55580">
<path transform="matrix(1,0,0,-1,0,841.92)" d="M .000008871 0 L 595.32 0 L 595.32 841.92 L .000008871 841.92 Z " fill-rule="evenodd"/>
</clipPath>
<g clip-path="url(#cp55580)">
<text xml:space="preserve" transform="matrix(1 0 -0 1 0 841.92)" font-size="14.04" font-family="Times New Roman"><tspan y="-68.904" x="474.58"> </tspan></text>
</g>
</g>
</g>
</g>
</svg>
