<?xml version="1.0" encoding="UTF-8" standalone="no"?>
<!DOCTYPE svg PUBLIC "-//W3C//DTD SVG 1.1//EN" "http://www.w3.org/Graphics/SVG/1.1/DTD/svg11.dtd">
<svg xmlns="http://www.w3.org/2000/svg" xmlns:xlink="http://www.w3.org/1999/xlink" version="1.1" width="595.32pt" height="841.92pt" viewBox="0 0 595.32 841.92">
<g enable-background="new">
<g>
<g id="Layer-1" data-name="Artifact">
<clipPath id="cp4486">
<path transform="matrix(1,0,0,-1,0,841.92)" d="M .000008871 0 L 595.32 0 L 595.32 841.92 L .000008871 841.92 Z " fill-rule="evenodd"/>
</clipPath>
<g clip-path="url(#cp4486)">
<text xml:space="preserve" transform="matrix(1 0 -0 1 0 841.92)" font-size="11.04" font-family="Calibri"><tspan y="-51.864" x="316.87 322.50999">34</tspan></text>
</g>
<clipPath id="cp4487">
<path transform="matrix(1,0,0,-1,0,841.92)" d="M .000008871 0 L 595.32 0 L 595.32 841.92 L .000008871 841.92 Z " fill-rule="evenodd"/>
</clipPath>
<g clip-path="url(#cp4487)">
<text xml:space="preserve" transform="matrix(1 0 -0 1 0 841.92)" font-size="11.04" font-family="Calibri"><tspan y="-51.864" x="328.15"> </tspan></text>
</g>
<clipPath id="cp4488">
<path transform="matrix(1,0,0,-1,0,841.92)" d="M .000008871 0 L 595.32 0 L 595.32 841.92 L .000008871 841.92 Z " fill-rule="evenodd"/>
</clipPath>
<g clip-path="url(#cp4488)">
</g>
<clipPath id="cp4489">
<path transform="matrix(1,0,0,-1,0,841.92)" d="M .000008871 0 L 595.32 0 L 595.32 841.92 L .000008871 841.92 Z " fill-rule="evenodd"/>
</clipPath>
<g clip-path="url(#cp4489)">
<text xml:space="preserve" transform="matrix(1 0 -0 1 0 841.92)" font-size="11.04" font-family="Calibri"><tspan y="-38.4" x="85.104"> </tspan></text>
</g>
<clipPath id="cp4490">
<path transform="matrix(1,0,0,-1,0,841.92)" d="M .000008871 0 L 595.32 0 L 595.32 841.92 L .000008871 841.92 Z " fill-rule="evenodd"/>
</clipPath>
<g clip-path="url(#cp4490)">
</g>
</g>
<g id="Layer-1" data-name="P">
<clipPath id="cp4491">
<path transform="matrix(1,0,0,-1,0,841.92)" d="M .000008871 0 L 595.32 0 L 595.32 841.92 L .000008871 841.92 Z " fill-rule="evenodd"/>
</clipPath>
<g clip-path="url(#cp4491)">
<text xml:space="preserve" transform="matrix(1 0 -0 1 0 841.92)" font-size="14.04" font-family="Times New Roman,Bold" font-weight="bold"><tspan y="-772.32" x="99.024 106.08612 109.59612 116.61612">2.3.</tspan></text>
</g>
<clipPath id="cp4492">
<path transform="matrix(1,0,0,-1,0,841.92)" d="M .000008871 0 L 595.32 0 L 595.32 841.92 L .000008871 841.92 Z " fill-rule="evenodd"/>
</clipPath>
<g clip-path="url(#cp4492)">
<text xml:space="preserve" transform="matrix(1 0 -0 1 0 841.92)" font-size="14.04" font-family="Arial,Bold" font-weight="bold"><tspan y="-772.32" x="120.02"> </tspan></text>
</g>
<clipPath id="cp4493">
<path transform="matrix(1,0,0,-1,0,841.92)" d="M .000008871 0 L 595.32 0 L 595.32 841.92 L .000008871 841.92 Z " fill-rule="evenodd"/>
</clipPath>
<g clip-path="url(#cp4493)">
<text xml:space="preserve" transform="matrix(1 0 -0 1 0 841.92)" font-size="14.04" font-family="Times New Roman,Bold" font-weight="bold"><tspan y="-772.32" x="134.42 144.50072 148.44596 155.50807 163.18796 170.25008 173.76007 180.69583 187.75795 191.26795 198.79338 205.98188 217.62104 229.14788 236.95412 244.76036 248.81792 256.49778 263.55989 268.2352 273.6406 277.48756 284.54966 291.61177 294.96733 302.02943 308.99327 314.39866 318.34388 323.0192 329.98304 333.83 340.8921 347.12586 351.07109 354.5811 358.03495 367.9893 374.95314 382.75938 389.82148 395.9429 403.005 407.68034 411.19035 415.86567 422.80143 428.30509 436.11134 443.7912 450.8533 457.08708 464.76695 468.71217 472.22218 479.15794 486.22004 489.73005 495.09333 502.15544 509.96168 513.7946 520.7585 527.8206 534.0544 541.73428 545.6795">Aloqa va kommunikatsiya vositalari. Axborot tashuvchi va saqlovchi </tspan></text>
</g>
<clipPath id="cp4494">
<path transform="matrix(1,0,0,-1,0,841.92)" d="M .000008871 0 L 595.32 0 L 595.32 841.92 L .000008871 841.92 Z " fill-rule="evenodd"/>
</clipPath>
<g clip-path="url(#cp4494)">
</g>
<clipPath id="cp4495">
<path transform="matrix(1,0,0,-1,0,841.92)" d="M .000008871 0 L 595.32 0 L 595.32 841.92 L .000008871 841.92 Z " fill-rule="evenodd"/>
</clipPath>
<g clip-path="url(#cp4495)">
<text xml:space="preserve" transform="matrix(1 0 -0 1 0 841.92)" font-size="14.04" font-family="Times New Roman,Bold" font-weight="bold"><tspan y="-748.06" x="296.45 303.51213 310.47596 315.88136 319.82658 324.5019 331.46574 335.31269 342.3748">vositalar</tspan></text>
</g>
<clipPath id="cp4496">
<path transform="matrix(1,0,0,-1,0,841.92)" d="M .000008871 0 L 595.32 0 L 595.32 841.92 L .000008871 841.92 Z " fill-rule="evenodd"/>
</clipPath>
<g clip-path="url(#cp4496)">
<text xml:space="preserve" transform="matrix(1 0 -0 1 0 841.92)" font-size="14.04" font-family="Times New Roman,Bold" font-weight="bold"><tspan y="-748.06" x="348.55"> </tspan></text>
</g>
<clipPath id="cp4497">
<path transform="matrix(1,0,0,-1,0,841.92)" d="M .000008871 0 L 595.32 0 L 595.32 841.92 L .000008871 841.92 Z " fill-rule="evenodd"/>
</clipPath>
<g clip-path="url(#cp4497)">
</g>
</g>
<g id="Layer-1" data-name="P">
<clipPath id="cp4498">
<path transform="matrix(1,0,0,-1,0,841.92)" d="M .000008871 0 L 595.32 0 L 595.32 841.92 L .000008871 841.92 Z " fill-rule="evenodd"/>
</clipPath>
<g clip-path="url(#cp4498)">
<text xml:space="preserve" transform="matrix(1 0 -0 1 0 841.92)" font-size="14.04" font-family="Times New Roman"><tspan y="-724.18" x="120.5 130.57999">Ko</tspan></text>
</g>
<clipPath id="cp4499">
<path transform="matrix(1,0,0,-1,0,841.92)" d="M .000008871 0 L 595.32 0 L 595.32 841.92 L .000008871 841.92 Z " fill-rule="evenodd"/>
</clipPath>
<g clip-path="url(#cp4499)">
<text xml:space="preserve" transform="matrix(1 0 -0 1 0 841.92)" font-size="14.04" font-family="Times New Roman"><tspan y="-724.18" x="137.66">&#x2019;</tspan></text>
</g>
<clipPath id="cp4500">
<path transform="matrix(1,0,0,-1,0,841.92)" d="M .000008871 0 L 595.32 0 L 595.32 841.92 L .000008871 841.92 Z " fill-rule="evenodd"/>
</clipPath>
<g clip-path="url(#cp4500)">
<text xml:space="preserve" transform="matrix(1 0 -0 1 0 841.92)" font-size="14.04" font-family="Times New Roman"><tspan y="-724.18" x="142.22 149.28212 155.02448 161.86196 168.09572 175.17189 182.23401 186.17925 191.9216 198.88544 205.94756 216.632 223.8205 230.65798 237.7201 241.66533 247.8991 252.57442 258.3308 262.27604 266.22126 272.34269 276.2879 286.97236 290.91758 297.15135 301.82667 305.78593 311.5283 318.49214 325.55424 331.67567 335.62089 340.2962 346.0526 351.55628 355.40324 361.52467 368.58677 375.5506 381.78437 386.4597 390.41896 396.16133 401.9037 405.75065 409.69587 416.6597 423.7218 429.84324 433.78846 439.90989 446.972 453.93583 460.1696 467.24574 472.9881 482.94245 493.02317 503.10389 508.97264 515.8101 522.87228 527.54757 531.4928 535.43807 542.4019 546.34719 552.4686 559.4325">p yangi kompyuter tizimlari hozir standart  jihozlangan DVD yuritgich </tspan></text>
</g>
<clipPath id="cp4501">
<path transform="matrix(1,0,0,-1,0,841.92)" d="M .000008871 0 L 595.32 0 L 595.32 841.92 L .000008871 841.92 Z " fill-rule="evenodd"/>
</clipPath>
<g clip-path="url(#cp4501)">
</g>
<clipPath id="cp4502">
<path transform="matrix(1,0,0,-1,0,841.92)" d="M .000008871 0 L 595.32 0 L 595.32 841.92 L .000008871 841.92 Z " fill-rule="evenodd"/>
</clipPath>
<g clip-path="url(#cp4502)">
<text xml:space="preserve" transform="matrix(1 0 -0 1 0 841.92)" font-size="14.04" font-family="Times New Roman"><tspan y="-700.06" x="85.104 92.166118 96.01308 99.95832 106.07976 113.14188 118.77192 125.83404 131.95548 135.90071 142.02216 149.08428 153.02951 156.5395 162.14147 170.66374 177.62758 184.6897 190.31974 197.38185 203.5033 207.35025 211.29549 217.52925 223.15929 229.39305 234.06838 240.30214 246.43762 250.38286 254.22982 258.07679 265.1389 269.0841 274.71415 281.67799 288.74009 294.37013 301.20759 308.26969 312.945 316.89024 320.73719 327.70103 331.64625 337.88 344.84385 348.78907">bilan keladi. Eng katta afzalligi bu yuritgichla</tspan></text>
</g>
<clipPath id="cp4503">
<path transform="matrix(1,0,0,-1,0,841.92)" d="M .000008871 0 L 595.32 0 L 595.32 841.92 L .000008871 841.92 Z " fill-rule="evenodd"/>
</clipPath>
<g clip-path="url(#cp4503)">
<text xml:space="preserve" transform="matrix(1 0 -0 1 0 841.92)" font-size="14.04" font-family="Times New Roman"><tspan y="-700.06" x="355.39 360.06535 365.56904 371.0727 375.0179 381.13935 388.10319 395.16529 401.39906 405.96205 409.90727 415.5373 424.90199">r standart CD</tspan></text>
</g>
<clipPath id="cp4504">
<path transform="matrix(1,0,0,-1,0,841.92)" d="M .000008871 0 L 595.32 0 L 595.32 841.92 L .000008871 841.92 Z " fill-rule="evenodd"/>
</clipPath>
<g clip-path="url(#cp4504)">
<text xml:space="preserve" transform="matrix(1 0 -0 1 0 841.92)" font-size="14.04" font-family="Times New Roman"><tspan y="-700.06" x="435.07">-</tspan></text>
</g>
<clipPath id="cp4505">
<path transform="matrix(1,0,0,-1,0,841.92)" d="M .000008871 0 L 595.32 0 L 595.32 841.92 L .000008871 841.92 Z " fill-rule="evenodd"/>
</clipPath>
<g clip-path="url(#cp4505)">
<text xml:space="preserve" transform="matrix(1 0 -0 1 0 841.92)" font-size="14.04" font-family="Times New Roman"><tspan y="-700.06" x="439.75 449.1147 459.1954 471.67698 477.307 484.3691 488.31434 493.71974 500.68357 504.62879 510.86256 515.42556 519.3708 526.33468 530.2799 535.91 542.9721 549.2059 559.89028">ROM disklarini ham </tspan></text>
</g>
<clipPath id="cp4506">
<path transform="matrix(1,0,0,-1,0,841.92)" d="M .000008871 0 L 595.32 0 L 595.32 841.92 L .000008871 841.92 Z " fill-rule="evenodd"/>
</clipPath>
<g clip-path="url(#cp4506)">
</g>
<clipPath id="cp4507">
<path transform="matrix(1,0,0,-1,0,841.92)" d="M .000008871 0 L 595.32 0 L 595.32 841.92 L .000008871 841.92 Z " fill-rule="evenodd"/>
</clipPath>
<g clip-path="url(#cp4507)">
<text xml:space="preserve" transform="matrix(1 0 -0 1 0 841.92)" font-size="14.04" font-family="Times New Roman"><tspan y="-675.94" x="85.104">o</tspan></text>
</g>
<clipPath id="cp4508">
<path transform="matrix(1,0,0,-1,0,841.92)" d="M .000008871 0 L 595.32 0 L 595.32 841.92 L .000008871 841.92 Z " fill-rule="evenodd"/>
</clipPath>
<g clip-path="url(#cp4508)">
<text xml:space="preserve" transform="matrix(1 0 -0 1 0 841.92)" font-size="14.04" font-family="Times New Roman"><tspan y="-675.94" x="92.184">&#x2019;</tspan></text>
</g>
<clipPath id="cp4509">
<path transform="matrix(1,0,0,-1,0,841.92)" d="M .000008871 0 L 595.32 0 L 595.32 841.92 L .000008871 841.92 Z " fill-rule="evenodd"/>
</clipPath>
<g clip-path="url(#cp4509)">
<text xml:space="preserve" transform="matrix(1 0 -0 1 0 841.92)" font-size="14.04" font-family="Times New Roman"><tspan y="-675.94" x="96.744 103.80612 107.751369 114.588848 119.85384 126.91596 130.86119 136.98264 143.94647 147.89171 151.4017 156.63861 162.044 169.00785 176.06996 183.0338 186.88076 193.94287 200.90671 207.96883 214.09027 221.15239 226.41739 233.38123 240.44335 246.56479 250.51003 255.07303 262.13514 268.3689 273.52159 279.02525 282.8722 289.10597 294.385 304.46574 314.54646 324.62718 329.89219 334.5675 338.51274 342.45796 353.1424 357.08763 363.32139 367.9967 374.97459 378.9198 384.07249 391.13459">qiy oladi, shuningdek hozirda siz DVD filmlarni ko</tspan></text>
</g>
<clipPath id="cp4510">
<path transform="matrix(1,0,0,-1,0,841.92)" d="M .000008871 0 L 595.32 0 L 595.32 841.92 L .000008871 841.92 Z " fill-rule="evenodd"/>
</clipPath>
<g clip-path="url(#cp4510)">
<text xml:space="preserve" transform="matrix(1 0 -0 1 0 841.92)" font-size="14.04" font-family="Times New Roman"><tspan y="-675.94" x="398.59">&#x2019;</tspan></text>
</g>
<clipPath id="cp4511">
<path transform="matrix(1,0,0,-1,0,841.92)" d="M .000008871 0 L 595.32 0 L 595.32 841.92 L .000008871 841.92 Z " fill-rule="evenodd"/>
</clipPath>
<g clip-path="url(#cp4511)">
<text xml:space="preserve" transform="matrix(1 0 -0 1 0 841.92)" font-size="14.04" font-family="Times New Roman"><tspan y="-675.94" x="403.15 407.82533 414.05909 419.21177 426.27388 430.12083 436.24226 441.7459 445.69114 451.81257 457.07759 464.0414 470.27519 475.55424 482.51808 486.4633 491.1386 496.40364 503.2411 510.3032 514.9785 518.8255 522.6725 529.7346 533.5816 539.81539 546.77926 553.7431 559.86459">ra olasiz va bir yuritgichda </tspan></text>
</g>
<clipPath id="cp4512">
<path transform="matrix(1,0,0,-1,0,841.92)" d="M .000008871 0 L 595.32 0 L 595.32 841.92 L .000008871 841.92 Z " fill-rule="evenodd"/>
</clipPath>
<g clip-path="url(#cp4512)">
</g>
<clipPath id="cp4513">
<path transform="matrix(1,0,0,-1,0,841.92)" d="M .000008871 0 L 595.32 0 L 595.32 841.92 L .000008871 841.92 Z " fill-rule="evenodd"/>
</clipPath>
<g clip-path="url(#cp4513)">
<text xml:space="preserve" transform="matrix(1 0 -0 1 0 841.92)" font-size="14.04" font-family="Times New Roman"><tspan y="-651.7" x="85.104 94.464">CD</tspan></text>
</g>
<clipPath id="cp4514">
<path transform="matrix(1,0,0,-1,0,841.92)" d="M .000008871 0 L 595.32 0 L 595.32 841.92 L .000008871 841.92 Z " fill-rule="evenodd"/>
</clipPath>
<g clip-path="url(#cp4514)">
<text xml:space="preserve" transform="matrix(1 0 -0 1 0 841.92)" font-size="14.04" font-family="Times New Roman"><tspan y="-651.7" x="104.54">-</tspan></text>
</g>
<clipPath id="cp4515">
<path transform="matrix(1,0,0,-1,0,841.92)" d="M .000008871 0 L 595.32 0 L 595.32 841.92 L .000008871 841.92 Z " fill-rule="evenodd"/>
</clipPath>
<g clip-path="url(#cp4515)">
<text xml:space="preserve" transform="matrix(1 0 -0 1 0 841.92)" font-size="14.04" font-family="Times New Roman"><tspan y="-651.7" x="109.22 118.58468 128.66539 141.14696 144.65695 151.67696 155.65029 159.00585 166.06797 172.30173 182.98618 186.56638 193.40386 200.46598 205.1413 209.08654 213.03177 219.26554 222.63513 229.69725 233.5442 239.77797 245.18337 249.1286 255.36237 258.87239">ROM ni ham yurita olasiz. </tspan></text>
</g>
<clipPath id="cp4516">
<path transform="matrix(1,0,0,-1,0,841.92)" d="M .000008871 0 L 595.32 0 L 595.32 841.92 L .000008871 841.92 Z " fill-rule="evenodd"/>
</clipPath>
<g clip-path="url(#cp4516)">
<text xml:space="preserve" transform="matrix(1 0 -0 1 0 841.92)" font-size="14.04" font-family="Times New Roman"><tspan y="-651.7" x="262.37"> </tspan></text>
</g>
<clipPath id="cp4517">
<path transform="matrix(1,0,0,-1,0,841.92)" d="M .000008871 0 L 595.32 0 L 595.32 841.92 L .000008871 841.92 Z " fill-rule="evenodd"/>
</clipPath>
<g clip-path="url(#cp4517)">
</g>
</g>
<g id="Layer-1" data-name="P">
<clipPath id="cp4518">
<path transform="matrix(1,0,0,-1,0,841.92)" d="M .000008871 0 L 595.32 0 L 595.32 841.92 L .000008871 841.92 Z " fill-rule="evenodd"/>
</clipPath>
<g clip-path="url(#cp4518)">
<text xml:space="preserve" transform="matrix(1 0 -0 1 0 841.92)" font-size="14.04" font-family="Times New Roman"><tspan y="-627.58" x="120.5 132.98157 139.21533 146.17917 153.24129 157.08824 161.03348 166.90219 170.74915 176.98291 182.50064 193.18509 199.41886 204.93659 208.88182 214.75054 221.71437 228.77649 234.51885">Magnit tasmasi bu o</tspan></text>
</g>
<clipPath id="cp4519">
<path transform="matrix(1,0,0,-1,0,841.92)" d="M .000008871 0 L 595.32 0 L 595.32 841.92 L .000008871 841.92 Z " fill-rule="evenodd"/>
</clipPath>
<g clip-path="url(#cp4519)">
<text xml:space="preserve" transform="matrix(1 0 -0 1 0 841.92)" font-size="14.04" font-family="Times New Roman"><tspan y="-627.58" x="241.61">&#x2019;</tspan></text>
</g>
<clipPath id="cp4520">
<path transform="matrix(1,0,0,-1,0,841.92)" d="M .000008871 0 L 595.32 0 L 595.32 841.92 L .000008871 841.92 Z " fill-rule="evenodd"/>
</clipPath>
<g clip-path="url(#cp4520)">
<text xml:space="preserve" transform="matrix(1 0 -0 1 0 841.92)" font-size="14.04" font-family="Times New Roman"><tspan y="-627.58" x="246.17 252.40377 256.349 263.4111 269.64488 275.5136 282.47746 288.7112 292.55818 296.5034 302.73716 308.49357 315.55567 321.78944 325.63639 336.32084 343.38294 349.6167 356.69285 360.5398 366.52085 377.2053">zida katta hajmdagi ma</tspan></text>
</g>
<clipPath id="cp4521">
<path transform="matrix(1,0,0,-1,0,841.92)" d="M .000008871 0 L 595.32 0 L 595.32 841.92 L .000008871 841.92 Z " fill-rule="evenodd"/>
</clipPath>
<g clip-path="url(#cp4521)">
<text xml:space="preserve" transform="matrix(1 0 -0 1 0 841.92)" font-size="14.04" font-family="Times New Roman"><tspan y="-627.58" x="383.59">&#x2019;</tspan></text>
</g>
<clipPath id="cp4522">
<path transform="matrix(1,0,0,-1,0,841.92)" d="M .000008871 0 L 595.32 0 L 595.32 841.92 L .000008871 841.92 Z " fill-rule="evenodd"/>
</clipPath>
<g clip-path="url(#cp4522)">
<text xml:space="preserve" transform="matrix(1 0 -0 1 0 841.92)" font-size="14.04" font-family="Times New Roman"><tspan y="-627.58" x="388.15 392.0952 399.2837 409.96815 417.03025 420.97547 424.9207 431.15446 435.71745 442.77955 446.72477 452.46714 457.9708 464.09223 471.15434 475.00129 481.1227 487.96018 493.82893 500.89103 504.83625 511.07 518.1462 521.99319 529.0553 535.17678 542.2389 548.1076">lumotlarni saqlay oladigan 2</tspan></text>
</g>
<clipPath id="cp4523">
<path transform="matrix(1,0,0,-1,0,841.92)" d="M .000008871 0 L 595.32 0 L 595.32 841.92 L .000008871 841.92 Z " fill-rule="evenodd"/>
</clipPath>
<g clip-path="url(#cp4523)">
<text xml:space="preserve" transform="matrix(1 0 -0 1 0 841.92)" font-size="14.04" font-family="Times New Roman"><tspan y="-627.58" x="555.34">-</tspan></text>
</g>
<clipPath id="cp4524">
<path transform="matrix(1,0,0,-1,0,841.92)" d="M .000008871 0 L 595.32 0 L 595.32 841.92 L .000008871 841.92 Z " fill-rule="evenodd"/>
</clipPath>
<g clip-path="url(#cp4524)">
<text xml:space="preserve" transform="matrix(1 0 -0 1 0 841.92)" font-size="14.04" font-family="Times New Roman"><tspan y="-603.46" x="85.104 92.166118 99.12995 103.075199 106.92216 111.59748 117.83124 125.86212 132.82596 139.88808 144.5634 148.41036 152.35559 163.04004 169.2738 174.79154 178.73677 185.7006 189.64585 194.32117 197.83116 205.83396 214.35623 220.59 226.10773 236.79218 243.02594 251.05681 258.11894 264.3527 268.4243 279.10874">xotira qurilmasidir. Tasma ketma</tspan></text>
</g>
<clipPath id="cp4525">
<path transform="matrix(1,0,0,-1,0,841.92)" d="M .000008871 0 L 595.32 0 L 595.32 841.92 L .000008871 841.92 Z " fill-rule="evenodd"/>
</clipPath>
<g clip-path="url(#cp4525)">
<text xml:space="preserve" transform="matrix(1 0 -0 1 0 841.92)" font-size="14.04" font-family="Times New Roman"><tspan y="-603.46" x="285.53">-</tspan></text>
</g>
<clipPath id="cp4526">
<path transform="matrix(1,0,0,-1,0,841.92)" d="M .000008871 0 L 595.32 0 L 595.32 841.92 L .000008871 841.92 Z " fill-rule="evenodd"/>
</clipPath>
<g clip-path="url(#cp4526)">
<text xml:space="preserve" transform="matrix(1 0 -0 1 0 841.92)" font-size="14.04" font-family="Times New Roman"><tspan y="-603.46" x="290.21 297.2721 303.50587 307.3528 311.29804 315.145">ketlik</tspan></text>
</g>
<clipPath id="cp4527">
<path transform="matrix(1,0,0,-1,0,841.92)" d="M .000008871 0 L 595.32 0 L 595.32 841.92 L .000008871 841.92 Z " fill-rule="evenodd"/>
</clipPath>
<g clip-path="url(#cp4527)">
<text xml:space="preserve" transform="matrix(1 0 -0 1 0 841.92)" font-size="14.04" font-family="Times New Roman"><tspan y="-603.46" x="322.15 329.2121 335.33354 342.39564 346.34086 354.37174">dagi r</tspan></text>
</g>
<clipPath id="cp4528">
<path transform="matrix(1,0,0,-1,0,841.92)" d="M .000008871 0 L 595.32 0 L 595.32 841.92 L .000008871 841.92 Z " fill-rule="evenodd"/>
</clipPath>
<g clip-path="url(#cp4528)">
<text xml:space="preserve" transform="matrix(1 0 -0 1 0 841.92)" font-size="14.04" font-family="Times New Roman"><tspan y="-603.46" x="359.11">u</tspan></text>
</g>
<clipPath id="cp4529">
<path transform="matrix(1,0,0,-1,0,841.92)" d="M .000008871 0 L 595.32 0 L 595.32 841.92 L .000008871 841.92 Z " fill-rule="evenodd"/>
</clipPath>
<g clip-path="url(#cp4529)">
<text xml:space="preserve" transform="matrix(1 0 -0 1 0 841.92)" font-size="14.04" font-family="Times New Roman"><tspan y="-603.46" x="366.07 373.03385 378.5375 384.65895 388.60417 396.63505 402.8688 406.81404 410.66099 414.50794 421.57005 427.69148 434.75358 442.78446 453.5812 459.81498 466.8911 470.83634 476.95777 484.01988 487.9651 492.6404 500.54496 507.60707 513.8408 521.8717 528.8356 535.8977 542.95986 549.0813 555.9188 559.7658">xsat etilgan mediadir va undagi </tspan></text>
</g>
<clipPath id="cp4530">
<path transform="matrix(1,0,0,-1,0,841.92)" d="M .000008871 0 L 595.32 0 L 595.32 841.92 L .000008871 841.92 Z " fill-rule="evenodd"/>
</clipPath>
<g clip-path="url(#cp4530)">
<text xml:space="preserve" transform="matrix(1 0 -0 1 0 841.92)" font-size="14.04" font-family="Times New Roman"><tspan y="-579.34" x="85.104 95.90411">ma</tspan></text>
</g>
<clipPath id="cp4531">
<path transform="matrix(1,0,0,-1,0,841.92)" d="M .000008871 0 L 595.32 0 L 595.32 841.92 L .000008871 841.92 Z " fill-rule="evenodd"/>
</clipPath>
<g clip-path="url(#cp4531)">
<text xml:space="preserve" transform="matrix(1 0 -0 1 0 841.92)" font-size="14.04" font-family="Times New Roman"><tspan y="-579.34" x="102.14">&#x2019;</tspan></text>
</g>
<clipPath id="cp4532">
<path transform="matrix(1,0,0,-1,0,841.92)" d="M .000008871 0 L 595.32 0 L 595.32 841.92 L .000008871 841.92 Z " fill-rule="evenodd"/>
</clipPath>
<g clip-path="url(#cp4532)">
<text xml:space="preserve" transform="matrix(1 0 -0 1 0 841.92)" font-size="14.04" font-family="Times New Roman"><tspan y="-579.34" x="106.7 110.64524 117.83372 128.51816 135.58028 139.52552 143.47075 149.70452 154.37984 159.89756 166.95967 173.19344 177.13867 187.82312">lumotlar ketma</tspan></text>
</g>
<clipPath id="cp4533">
<path transform="matrix(1,0,0,-1,0,841.92)" d="M .000008871 0 L 595.32 0 L 595.32 841.92 L .000008871 841.92 Z " fill-rule="evenodd"/>
</clipPath>
<g clip-path="url(#cp4533)">
<text xml:space="preserve" transform="matrix(1 0 -0 1 0 841.92)" font-size="14.04" font-family="Times New Roman"><tspan y="-579.34" x="194.21">-</tspan></text>
</g>
<clipPath id="cp4534">
<path transform="matrix(1,0,0,-1,0,841.92)" d="M .000008871 0 L 595.32 0 L 595.32 841.92 L .000008871 841.92 Z " fill-rule="evenodd"/>
</clipPath>
<g clip-path="url(#cp4534)">
<text xml:space="preserve" transform="matrix(1 0 -0 1 0 841.92)" font-size="14.04" font-family="Times New Roman"><tspan y="-579.34" x="198.89 205.85384 212.0876 216.03284 221.66287 228.72499 234.84644 241.81027 248.87239 252.81763 258.32133 265.38343 269.23039 273.1756 277.02256 284.08467 290.2061 297.2682 301.2134 304.72343 310.32539 320.4061 326.52754 330.47276 334.41798 340.65174 346.16947 353.23158 359.46534 363.3123 373.99674 377.94197 381.88719 387.5172 392.19255 398.4263 405.2778 409.22303 413.16825 419.402 424.07734 429.70738 436.76948 443.7333 450.7954 457.02919 462.6592 468.16288 474.2843 481.24815 485.19337 491.42713 498.39097 504.62474 511.58857 515.5338 519.0438 524.6458 534.72659 541.7887 545.6357 552.59957 559.5634">ket qabul qilinadi. Katta hajmli fayllar unda saqlanadi. Uning </tspan></text>
</g>
<clipPath id="cp4535">
<path transform="matrix(1,0,0,-1,0,841.92)" d="M .000008871 0 L 595.32 0 L 595.32 841.92 L .000008871 841.92 Z " fill-rule="evenodd"/>
</clipPath>
<g clip-path="url(#cp4535)">
<text xml:space="preserve" transform="matrix(1 0 -0 1 0 841.92)" font-size="14.04" font-family="Times New Roman"><tspan y="-555.07" x="85.104 92.166118 99.12995 104.535358 111.59747 117.00288 120.94812 127.7856 134.01937 137.9646 141.90984 148.87368 155.10744 158.61743 165.63744 171.78696 176.46228 182.69605 189.77222 193.28221 196.60968 203.6718 207.51876 213.75252 218.42784 221.93784">xususiyatiga qarab, ular o</tspan></text>
</g>
<clipPath id="cp4536">
<path transform="matrix(1,0,0,-1,0,841.92)" d="M .000008871 0 L 595.32 0 L 595.32 841.92 L .000008871 841.92 Z " fill-rule="evenodd"/>
</clipPath>
<g clip-path="url(#cp4536)">
<text xml:space="preserve" transform="matrix(1 0 -0 1 0 841.92)" font-size="14.04" font-family="Times New Roman"><tspan y="-555.07" x="229.13">&#x2019;</tspan></text>
</g>
<clipPath id="cp4537">
<path transform="matrix(1,0,0,-1,0,841.92)" d="M .000008871 0 L 595.32 0 L 595.32 841.92 L .000008871 841.92 Z " fill-rule="evenodd"/>
</clipPath>
<g clip-path="url(#cp4537)">
<text xml:space="preserve" transform="matrix(1 0 -0 1 0 841.92)" font-size="14.04" font-family="Times New Roman"><tspan y="-555.07" x="233.69 239.92377 246.99994 253.2337 257.7967 264.76054 271.82264 278.0564 285.02024 291.254 298.33015 301.84016 312.49653">zgaruvchan ma</tspan></text>
</g>
<clipPath id="cp4538">
<path transform="matrix(1,0,0,-1,0,841.92)" d="M .000008871 0 L 595.32 0 L 595.32 841.92 L .000008871 841.92 Z " fill-rule="evenodd"/>
</clipPath>
<g clip-path="url(#cp4538)">
<text xml:space="preserve" transform="matrix(1 0 -0 1 0 841.92)" font-size="14.04" font-family="Times New Roman"><tspan y="-555.07" x="318.79">&#x2019;</tspan></text>
</g>
<clipPath id="cp4539">
<path transform="matrix(1,0,0,-1,0,841.92)" d="M .000008871 0 L 595.32 0 L 595.32 841.92 L .000008871 841.92 Z " fill-rule="evenodd"/>
</clipPath>
<g clip-path="url(#cp4539)">
<text xml:space="preserve" transform="matrix(1 0 -0 1 0 841.92)" font-size="14.04" font-family="Times New Roman"><tspan y="-555.07" x="323.35 327.4216 334.4837 345.16816 352.23027 356.17549 360.1207 366.35447 370.91746 377.97956 381.92478 385.28034 390.784 396.90544 403.96754 407.91276 414.03419 419.43959 426.50169 430.0117 437.03169 443.1812 450.24333 457.20716 464.26927 467.77928 474.71504 481.67887 485.62409 491.85786 498.70936 502.21937 508.53736 519.22177 525.4555 530.9732 534.4832">lumotlarni saqlash uchun qulay emas. </tspan></text>
</g>
<clipPath id="cp4540">
<path transform="matrix(1,0,0,-1,0,841.92)" d="M .000008871 0 L 595.32 0 L 595.32 841.92 L .000008871 841.92 Z " fill-rule="evenodd"/>
</clipPath>
<g clip-path="url(#cp4540)">
<text xml:space="preserve" transform="matrix(1 0 -0 1 0 841.92)" font-size="14.04" font-family="Times New Roman"><tspan y="-555.07" x="538.3"> </tspan></text>
</g>
</g>
<g id="Layer-1" data-name="P">
<clipPath id="cp4541">
<path transform="matrix(1,0,0,-1,0,841.92)" d="M .000008871 0 L 595.32 0 L 595.32 841.92 L .000008871 841.92 Z " fill-rule="evenodd"/>
</clipPath>
<g clip-path="url(#cp4541)">
<text xml:space="preserve" transform="matrix(1 0 -0 1 0 841.92)" font-size="14.04" font-family="Times New Roman"><tspan y="-530.95" x="120.5 130.58072 136.81449 140.75972 144.70496 150.93872 160.05068 167.1128 174.17491 184.85936 191.92148 198.75896 205.82108 209.76631 216.00008 220.6754 224.63469 230.86846 235.43146 242.3953 248.62906 252.13906 261.33525 265.28047 271.51423 277.03193 287.71638 293.95014 297.89537 304.12913 308.80445 318.1551 328.83955 335.0733 342.14945 347.6531 354.61695 360.02235">Katta kompyuterlarda, tasmalar maxsus </tspan></text>
</g>
<clipPath id="cp4542">
<path transform="matrix(1,0,0,-1,0,841.92)" d="M .000008871 0 L 595.32 0 L 595.32 841.92 L .000008871 841.92 Z " fill-rule="evenodd"/>
</clipPath>
<g clip-path="url(#cp4542)">
<text xml:space="preserve" transform="matrix(1 0 -0 1 0 841.92)" font-size="14.04" font-family="Times New Roman"><tspan y="-530.95" x="369.55 376.6121 382.84587 387.52119 391.48045 396.04344 399.98866">kartrij</tspan></text>
</g>
<clipPath id="cp4543">
<path transform="matrix(1,0,0,-1,0,841.92)" d="M .000008871 0 L 595.32 0 L 595.32 841.92 L .000008871 841.92 Z " fill-rule="evenodd"/>
</clipPath>
<g clip-path="url(#cp4543)">
<text xml:space="preserve" transform="matrix(1 0 -0 1 0 841.92)" font-size="14.04" font-family="Times New Roman"><tspan y="-530.95" x="403.87 407.81523 414.04899 418.7243 427.96266 431.8096 438.04338 445.0072 448.85417 455.91627 462.15003">lar ichida </tspan></text>
</g>
<clipPath id="cp4544">
<path transform="matrix(1,0,0,-1,0,841.92)" d="M .000008871 0 L 595.32 0 L 595.32 841.92 L .000008871 841.92 Z " fill-rule="evenodd"/>
</clipPath>
<g clip-path="url(#cp4544)">
<text xml:space="preserve" transform="matrix(1 0 -0 1 0 841.92)" font-size="14.04" font-family="Times New Roman"><tspan y="-530.95" x="471.46 482.25675 488.4905 495.45436 502.51646 506.3634 510.30863 519.5329 523.47817 529.5996 535.1033 545.78768 552.0214 555.9667 559.9119">magnit tasmali </tspan></text>
</g>
<clipPath id="cp4545">
<path transform="matrix(1,0,0,-1,0,841.92)" d="M .000008871 0 L 595.32 0 L 595.32 841.92 L .000008871 841.92 Z " fill-rule="evenodd"/>
</clipPath>
<g clip-path="url(#cp4545)">
<text xml:space="preserve" transform="matrix(1 0 -0 1 0 841.92)" font-size="14.04" font-family="Times New Roman"><tspan y="-506.83" x="85.104 92.184">bo</tspan></text>
</g>
<clipPath id="cp4546">
<path transform="matrix(1,0,0,-1,0,841.92)" d="M .000008871 0 L 595.32 0 L 595.32 841.92 L .000008871 841.92 Z " fill-rule="evenodd"/>
</clipPath>
<g clip-path="url(#cp4546)">
<text xml:space="preserve" transform="matrix(1 0 -0 1 0 841.92)" font-size="14.04" font-family="Times New Roman"><tspan y="-506.83" x="99.264">&#x2019;</tspan></text>
</g>
<clipPath id="cp4547">
<path transform="matrix(1,0,0,-1,0,841.92)" d="M .000008871 0 L 595.32 0 L 595.32 841.92 L .000008871 841.92 Z " fill-rule="evenodd"/>
</clipPath>
<g clip-path="url(#cp4547)">
<text xml:space="preserve" transform="matrix(1 0 -0 1 0 841.92)" font-size="14.04" font-family="Times New Roman"><tspan y="-506.83" x="103.82 107.66696 111.612209 122.296649 129.35877 135.59253 142.30365 149.14113 156.20325 163.26537 167.2106 173.92173 180.98384 187.10529 191.05052 197.17197 204.1358 210.36957 217.44574 223.6795 230.39063 234.95363 242.01575 248.85323 255.91535 262.1491 266.09434 272.21577 279.1796 283.12483 287.07005 293.19148 300.1553 304.10054 307.61054 314.27955 323.51786 330.57997 337.29109 341.13804 347.3718 352.8895 363.57395 369.8077 373.75294 379.9867 384.66203 391.6399 395.5851 402.54896 409.61106 416.19584 423.25794 429.4917 434.16703 440.76585 447.82795 451.77317 456.33616 460.28138 466.86616 473.92826 480.8921 487.9542 494.6653 504.74604 514.1107 520.6955 527.7576 533.9914 537.8384 548.52279 555.5849 559.4319">limda yoki kalavada foydalaniladi. Bu tasmalarning har biri 160 GB hajmni </tspan></text>
</g>
<clipPath id="cp4548">
<path transform="matrix(1,0,0,-1,0,841.92)" d="M .000008871 0 L 595.32 0 L 595.32 841.92 L .000008871 841.92 Z " fill-rule="evenodd"/>
</clipPath>
<g clip-path="url(#cp4548)">
<text xml:space="preserve" transform="matrix(1 0 -0 1 0 841.92)" font-size="14.04" font-family="Times New Roman"><tspan y="-482.71" x="85.104 91.33775 98.41391 104.53535 108.48059 112.425838 118.65959 125.51111 132.57323 136.51847 140.02846 143.70694 156.1885">egallaydi. Mi</tspan></text>
</g>
<clipPath id="cp4549">
<path transform="matrix(1,0,0,-1,0,841.92)" d="M .000008871 0 L 595.32 0 L 595.32 841.92 L .000008871 841.92 Z " fill-rule="evenodd"/>
</clipPath>
<g clip-path="url(#cp4549)">
<text xml:space="preserve" transform="matrix(1 0 -0 1 0 841.92)" font-size="14.04" font-family="Times New Roman"><tspan y="-482.71" x="160.1 167.16213 171.72513 178.68897 185.75109 192.8132 203.60997 210.67209 217.50957 224.57169 228.51692 234.75069 239.31369 243.25893 249.49269 254.0557 261.1178 267.35157 270.86158 274.54008 278.4853 284.71907 290.23677 300.9212 307.15498 310.86155 317.92366 324.1574 328.83274 332.792 337.46733">krokompyuterlarda, tasma kartri</tspan></text>
</g>
<clipPath id="cp4550">
<path transform="matrix(1,0,0,-1,0,841.92)" d="M .000008871 0 L 595.32 0 L 595.32 841.92 L .000008871 841.92 Z " fill-rule="evenodd"/>
</clipPath>
<g clip-path="url(#cp4550)">
<text xml:space="preserve" transform="matrix(1 0 -0 1 0 841.92)" font-size="14.04" font-family="Times New Roman"><tspan y="-482.71" x="341.71 345.43058 349.3758 355.60957 360.17256 367.23466 371.0816 378.04545 385.10755 388.81413 395.87623 399.72319 405.22685 415.9113 419.8565 426.9186 433.15238 436.85896 441.53428 448.6104 455.44789 462.50999 468.74375 472.68898 478.8104 485.8725 489.71946 493.66468 499.7861 506.8482 510.79344 514.3034 517.9819 524.94577 528.891 534.39468 545.07907 549.0243 555.14578 559.70877">jlarning qismida foydalaniladi, qismlar </tspan></text>
</g>
<clipPath id="cp4551">
<path transform="matrix(1,0,0,-1,0,841.92)" d="M .000008871 0 L 595.32 0 L 595.32 841.92 L .000008871 841.92 Z " fill-rule="evenodd"/>
</clipPath>
<g clip-path="url(#cp4551)">
<text xml:space="preserve" transform="matrix(1 0 -0 1 0 841.92)" font-size="14.04" font-family="Times New Roman"><tspan y="-458.47" x="85.104 92.166118 96.11136 102.232799 107.6382 111.58344 115.52869 121.76244 126.91512 130.86035 136.9818 144.04392 147.89087 154.95299 161.07444 168.03827 171.9835 177.2485 181.09546">plastic ichidagi to</tspan></text>
</g>
<clipPath id="cp4552">
<path transform="matrix(1,0,0,-1,0,841.92)" d="M .000008871 0 L 595.32 0 L 595.32 841.92 L .000008871 841.92 Z " fill-rule="evenodd"/>
</clipPath>
<g clip-path="url(#cp4552)">
<text xml:space="preserve" transform="matrix(1 0 -0 1 0 841.92)" font-size="14.04" font-family="Times New Roman"><tspan y="-458.47" x="188.3">&#x2019;</tspan></text>
</g>
<clipPath id="cp4553">
<path transform="matrix(1,0,0,-1,0,841.92)" d="M .000008871 0 L 595.32 0 L 595.32 841.92 L .000008871 841.92 Z " fill-rule="evenodd"/>
</clipPath>
<g clip-path="url(#cp4553)">
<text xml:space="preserve" transform="matrix(1 0 -0 1 0 841.92)" font-size="14.04" font-family="Times New Roman"><tspan y="-458.47" x="192.89 197.56533 201.41228 208.4744 215.53652 220.09952 226.33329 233.29712 239.53089 246.60706 251.75974 255.70497 261.8264 267.33006 278.0145 284.24827 288.19349 294.42726 299.10258 306.1787 312.30015 319.26399 324.529 328.4742 335.43806 342.50016 347.17549 353.2969 357.24214 362.50715 368.62858 375.69068 382.6545 386.50148 393.56358 398.82859 405.79243 412.02619 417.54389 423.6653 427.61054 433.73197 437.57893 443.81269 448.488 455.56416 461.7979 466.9506">rtburchak tasmalardan iborat audio kasetalarga o</tspan></text>
</g>
<clipPath id="cp4554">
<path transform="matrix(1,0,0,-1,0,841.92)" d="M .000008871 0 L 595.32 0 L 595.32 841.92 L .000008871 841.92 Z " fill-rule="evenodd"/>
</clipPath>
<g clip-path="url(#cp4554)">
<text xml:space="preserve" transform="matrix(1 0 -0 1 0 841.92)" font-size="14.04" font-family="Times New Roman"><tspan y="-458.47" x="474.34">&#x2019;</tspan></text>
</g>
<clipPath id="cp4555">
<path transform="matrix(1,0,0,-1,0,841.92)" d="M .000008871 0 L 595.32 0 L 595.32 841.92 L .000008871 841.92 Z " fill-rule="evenodd"/>
</clipPath>
<g clip-path="url(#cp4555)">
<text xml:space="preserve" transform="matrix(1 0 -0 1 0 841.92)" font-size="14.04" font-family="Times New Roman"><tspan y="-458.47" x="478.9 485.9621 491.3675 498.4296 504.66337 511.51487 518.57699 522.5222 526.0322 531.26919 535.94448">xshaydi. Ic</tspan></text>
</g>
<clipPath id="cp4556">
<path transform="matrix(1,0,0,-1,0,841.92)" d="M .000008871 0 L 595.32 0 L 595.32 841.92 L .000008871 841.92 Z " fill-rule="evenodd"/>
</clipPath>
<g clip-path="url(#cp4556)">
<text xml:space="preserve" transform="matrix(1 0 -0 1 0 841.92)" font-size="14.04" font-family="Times New Roman"><tspan y="-458.47" x="542.14 549.1039 556.166 560.013">hki </tspan></text>
</g>
<clipPath id="cp4557">
<path transform="matrix(1,0,0,-1,0,841.92)" d="M .000008871 0 L 595.32 0 L 595.32 841.92 L .000008871 841.92 Z " fill-rule="evenodd"/>
</clipPath>
<g clip-path="url(#cp4557)">
<text xml:space="preserve" transform="matrix(1 0 -0 1 0 841.92)" font-size="14.04" font-family="Times New Roman"><tspan y="-434.35" x="85.104 92.166118 98.39987 101.909877 105.72875 111.96251 117.36791 124.43003 131.39386 135.3391 138.84909 145.78485 149.6318 155.13549 162.1976 165.7076 172.517 179.57912 184.25444 188.1014 192.04663 199.01047 202.85742 209.09119 216.16736 219.67736 223.4822 229.71596 235.23369 245.91814 252.1519 255.74614 266.43058 272.66435 279.74049 283.6857 289.91947 295.43717 299.28413 306.24797 310.19319 313.7032 318.3785 325.31428 332.15174 339.21385 345.4476 349.39283 355.6266 362.59043 366.53565 371.94105 379.00315 385.96699 392.20075 395.71076 406.36714 413.42924 420.49134 424.43656 431.49867 435.3456 438.85563 445.79139">va tashqi disk yuritgich tasma mediasini foydalanishga muhtoj bo</tspan></text>
</g>
<clipPath id="cp4558">
<path transform="matrix(1,0,0,-1,0,841.92)" d="M .000008871 0 L 595.32 0 L 595.32 841.92 L .000008871 841.92 Z " fill-rule="evenodd"/>
</clipPath>
<g clip-path="url(#cp4558)">
<text xml:space="preserve" transform="matrix(1 0 -0 1 0 841.92)" font-size="14.04" font-family="Times New Roman"><tspan y="-434.35" x="453.22">&#x2019;</tspan></text>
</g>
<clipPath id="cp4559">
<path transform="matrix(1,0,0,-1,0,841.92)" d="M .000008871 0 L 595.32 0 L 595.32 841.92 L .000008871 841.92 Z " fill-rule="evenodd"/>
</clipPath>
<g clip-path="url(#cp4559)">
<text xml:space="preserve" transform="matrix(1 0 -0 1 0 841.92)" font-size="14.04" font-family="Times New Roman"><tspan y="-434.35" x="457.78 461.72523 467.95899 474.92283 478.86805">ladi.</tspan></text>
</g>
<clipPath id="cp4560">
<path transform="matrix(1,0,0,-1,0,841.92)" d="M .000008871 0 L 595.32 0 L 595.32 841.92 L .000008871 841.92 Z " fill-rule="evenodd"/>
</clipPath>
<g clip-path="url(#cp4560)">
<text xml:space="preserve" transform="matrix(1 0 -0 1 0 841.92)" font-size="14.04" font-family="Times New Roman"><tspan y="-434.35" x="482.26"> </tspan></text>
</g>
</g>
<g id="Layer-1" data-name="P">
<clipPath id="cp4561">
<path transform="matrix(1,0,0,-1,0,841.92)" d="M .000008871 0 L 595.32 0 L 595.32 841.92 L .000008871 841.92 Z " fill-rule="evenodd"/>
</clipPath>
<g clip-path="url(#cp4561)">
<text xml:space="preserve" transform="matrix(1 0 -0 1 0 841.92)" font-size="14.04" font-family="Times New Roman"><tspan y="-410.23" x="120.5 128.30625 132.25148 138.37293 143.8766 150.93872 159.55928 166.6214 172.74285 177.41817 181.3634 187.59717 196.23177 206.91622 213.97834 219.48201 223.42725 229.54869 236.51253 243.57465 249.80841 260.49287 269.11344 276.17555 283.23765 287.18287 293.41664 297.26359 304.32569 310.4471 317.50923 321.45445 330.075 337.03886 344.0027 347.9479 351.89314 356.45613 362.68989 371.3245 378.3866 385.4487 390.0117 393.9569 397.90214 408.58659 414.82035 420.33805 424.185 431.2471 435.19233 439.86766 443.37767 451.9842 462.0649 470.6855 481.48225 487.716 494.79216 501.85426 505.7012 509.64643 518.26699 523.7706 529.8921 536.9542 540.8012 547.035 552.44039 559.40426">Flash karta mustahkam holatdagi xotira qurilmasidir. U magnit saqlash </tspan></text>
</g>
<clipPath id="cp4562">
<path transform="matrix(1,0,0,-1,0,841.92)" d="M .000008871 0 L 595.32 0 L 595.32 841.92 L .000008871 841.92 Z " fill-rule="evenodd"/>
</clipPath>
<g clip-path="url(#cp4562)">
<text xml:space="preserve" transform="matrix(1 0 -0 1 0 841.92)" font-size="14.04" font-family="Times New Roman"><tspan y="-386.09" x="85.104 92.166118 99.22823 103.79124 107.6382 111.58344 122.26788 128.50165 134.01938 137.96462 145.02674 151.2605 154.96706">qurilmasiga o</tspan></text>
</g>
<clipPath id="cp4563">
<path transform="matrix(1,0,0,-1,0,841.92)" d="M .000008871 0 L 595.32 0 L 595.32 841.92 L .000008871 841.92 Z " fill-rule="evenodd"/>
</clipPath>
<g clip-path="url(#cp4563)">
<text xml:space="preserve" transform="matrix(1 0 -0 1 0 841.92)" font-size="14.04" font-family="Times New Roman"><tspan y="-386.09" x="162.14">&#x2019;</tspan></text>
</g>
<clipPath id="cp4564">
<path transform="matrix(1,0,0,-1,0,841.92)" d="M .000008871 0 L 595.32 0 L 595.32 841.92 L .000008871 841.92 Z " fill-rule="evenodd"/>
</clipPath>
<g clip-path="url(#cp4564)">
<text xml:space="preserve" transform="matrix(1 0 -0 1 0 841.92)" font-size="14.04" font-family="Times New Roman"><tspan y="-386.09" x="166.7 173.76212 179.16751 186.22963 192.35108 197.75647 204.7203 208.55323 215.51706">xshash ko</tspan></text>
</g>
<clipPath id="cp4565">
<path transform="matrix(1,0,0,-1,0,841.92)" d="M .000008871 0 L 595.32 0 L 595.32 841.92 L .000008871 841.92 Z " fill-rule="evenodd"/>
</clipPath>
<g clip-path="url(#cp4565)">
<text xml:space="preserve" transform="matrix(1 0 -0 1 0 841.92)" font-size="14.04" font-family="Times New Roman"><tspan y="-386.09" x="222.65">&#x2019;</tspan></text>
</g>
<clipPath id="cp4566">
<path transform="matrix(1,0,0,-1,0,841.92)" d="M .000008871 0 L 595.32 0 L 595.32 841.92 L .000008871 841.92 Z " fill-rule="evenodd"/>
</clipPath>
<g clip-path="url(#cp4566)">
<text xml:space="preserve" transform="matrix(1 0 -0 1 0 841.92)" font-size="14.04" font-family="Times New Roman"><tspan y="-386.09" x="227.21 233.44377 240.51995 244.46518 249.02819 252.97342 256.82038 263.7842 270.8463 276.96775 284.02986 287.97508 291.68165 298.64549 302.5907 308.09437 318.7788 322.72404 326.55696 333.3944">chiriluvchi qismi yo</tspan></text>
</g>
<clipPath id="cp4567">
<path transform="matrix(1,0,0,-1,0,841.92)" d="M .000008871 0 L 595.32 0 L 595.32 841.92 L .000008871 841.92 Z " fill-rule="evenodd"/>
</clipPath>
<g clip-path="url(#cp4567)">
<text xml:space="preserve" transform="matrix(1 0 -0 1 0 841.92)" font-size="14.04" font-family="Times New Roman"><tspan y="-386.09" x="340.75">&#x2019;</tspan></text>
</g>
<clipPath id="cp4568">
<path transform="matrix(1,0,0,-1,0,841.92)" d="M .000008871 0 L 595.32 0 L 595.32 841.92 L .000008871 841.92 Z " fill-rule="evenodd"/>
</clipPath>
<g clip-path="url(#cp4568)">
<text xml:space="preserve" transform="matrix(1 0 -0 1 0 841.92)" font-size="14.04" font-family="Times New Roman"><tspan y="-386.09" x="345.31 352.3721 355.8821 359.6729 366.73503 370.4416 377.5037 384.46754 388.31449 392.2597 399.3218 403.15473 409.9922 417.0543 421.61729 425.5625 429.40946 436.47157 440.3185 446.43995 453.50205 457.44728 463.5687 468.24403 475.32017 481.4416 485.2745">q, u optik yuritgichlarga o</tspan></text>
</g>
<clipPath id="cp4569">
<path transform="matrix(1,0,0,-1,0,841.92)" d="M .000008871 0 L 595.32 0 L 595.32 841.92 L .000008871 841.92 Z " fill-rule="evenodd"/>
</clipPath>
<g clip-path="url(#cp4569)">
<text xml:space="preserve" transform="matrix(1 0 -0 1 0 841.92)" font-size="14.04" font-family="Times New Roman"><tspan y="-386.09" x="492.58">&#x2019;</tspan></text>
</g>
<clipPath id="cp4570">
<path transform="matrix(1,0,0,-1,0,841.92)" d="M .000008871 0 L 595.32 0 L 595.32 841.92 L .000008871 841.92 Z " fill-rule="evenodd"/>
</clipPath>
<g clip-path="url(#cp4570)">
<text xml:space="preserve" transform="matrix(1 0 -0 1 0 841.92)" font-size="14.04" font-family="Times New Roman"><tspan y="-386.09" x="497.14 504.10386 509.6075 516.57138 522.8051 533.4895 539.72329 546.79946 553.0332 559.9971">xshamagan </tspan></text>
</g>
<clipPath id="cp4571">
<path transform="matrix(1,0,0,-1,0,841.92)" d="M .000008871 0 L 595.32 0 L 595.32 841.92 L .000008871 841.92 Z " fill-rule="evenodd"/>
</clipPath>
<g clip-path="url(#cp4571)">
<text xml:space="preserve" transform="matrix(1 0 -0 1 0 841.92)" font-size="14.04" font-family="Times New Roman"><tspan y="-361.97" x="85.104 92.166118 99.12995 102.97691 110.03903 116.27279 119.78279 123.68591 129.83544 136.0692 142.30297 146.97829 150.48828 157.43808 164.40192 169.9056 173.75255 177.69779 181.20778 188.14354 191.9905 195.93573 202.05718 209.1193 213.06453">holda lazer hosil qiladi.</tspan></text>
</g>
<clipPath id="cp4572">
<path transform="matrix(1,0,0,-1,0,841.92)" d="M .000008871 0 L 595.32 0 L 595.32 841.92 L .000008871 841.92 Z " fill-rule="evenodd"/>
</clipPath>
<g clip-path="url(#cp4572)">
<text xml:space="preserve" transform="matrix(1 0 -0 1 0 841.92)" font-size="14.04" font-family="Times New Roman"><tspan y="-361.97" x="216.53"> </tspan></text>
</g>
</g>
<g id="Layer-1" data-name="P">
<clipPath id="cp4573">
<path transform="matrix(1,0,0,-1,0,841.92)" d="M .000008871 0 L 595.32 0 L 595.32 841.92 L .000008871 841.92 Z " fill-rule="evenodd"/>
</clipPath>
<g clip-path="url(#cp4573)">
<text xml:space="preserve" transform="matrix(1 0 -0 1 0 841.92)" font-size="14.04" font-family="Times New Roman"><tspan y="-337.73" x="120.5 132.98">Mu</tspan></text>
</g>
<clipPath id="cp4574">
<path transform="matrix(1,0,0,-1,0,841.92)" d="M .000008871 0 L 595.32 0 L 595.32 841.92 L .000008871 841.92 Z " fill-rule="evenodd"/>
</clipPath>
<g clip-path="url(#cp4574)">
<text xml:space="preserve" transform="matrix(1 0 -0 1 0 841.92)" font-size="14.04" font-family="Times New Roman"><tspan y="-337.73" x="139.94 143.88524 147.7322 151.67743 162.36188 168.59564 175.67182 179.61705 185.85082 196.28253 203.34465 210.30849 215.81217 219.65912 223.60436 229.7258 233.67104 239.79248 244.4678 248.41304 252.35828 262.78999 269.02375 273.69908 284.1308">ltimedia vositalari: a) n</tspan></text>
</g>
<clipPath id="cp4575">
<path transform="matrix(1,0,0,-1,0,841.92)" d="M .000008871 0 L 595.32 0 L 595.32 841.92 L .000008871 841.92 Z " fill-rule="evenodd"/>
</clipPath>
<g clip-path="url(#cp4575)">
<text xml:space="preserve" transform="matrix(1 0 -0 1 0 841.92)" font-size="14.04" font-family="Times New Roman"><tspan y="-337.73" x="291.29 298.3521 302.19908 309.1629 313.10813 317.05335 327.48509 333.71885 340.68269 347.6465 354.70863 359.2716 366.3337 370.18067 377.24278 381.188 391.49336 398.55546 402.50068 407.06367 411.00889 414.85585 418.7028 424.20646">utqli axborotni kiritish</tspan></text>
</g>
<clipPath id="cp4576">
<path transform="matrix(1,0,0,-1,0,841.92)" d="M .000008871 0 L 595.32 0 L 595.32 841.92 L .000008871 841.92 Z " fill-rule="evenodd"/>
</clipPath>
<g clip-path="url(#cp4576)">
<text xml:space="preserve" transform="matrix(1 0 -0 1 0 841.92)" font-size="14.04" font-family="Times New Roman"><tspan y="-337.73" x="431.47">-</tspan></text>
</g>
<clipPath id="cp4577">
<path transform="matrix(1,0,0,-1,0,841.92)" d="M .000008871 0 L 595.32 0 L 595.32 841.92 L .000008871 841.92 Z " fill-rule="evenodd"/>
</clipPath>
<g clip-path="url(#cp4577)">
<text xml:space="preserve" transform="matrix(1 0 -0 1 0 841.92)" font-size="14.04" font-family="Times New Roman"><tspan y="-337.73" x="436.03 442.26377 449.2276 453.07456 460.13667 466.37043 471.04576 474.8927 480.2981 487.3602 497.79194 504.85404 511.81788 516.49319 520.34017 524.2854 534.9698 541.20358 545.1488 551.38259 556.05789 559.90487">chiqarish qurilmalari </tspan></text>
</g>
<clipPath id="cp4578">
<path transform="matrix(1,0,0,-1,0,841.92)" d="M .000008871 0 L 595.32 0 L 595.32 841.92 L .000008871 841.92 Z " fill-rule="evenodd"/>
</clipPath>
<g clip-path="url(#cp4578)">
</g>
<clipPath id="cp4579">
<path transform="matrix(1,0,0,-1,0,841.92)" d="M .000008871 0 L 595.32 0 L 595.32 841.92 L .000008871 841.92 Z " fill-rule="evenodd"/>
</clipPath>
<g clip-path="url(#cp4579)">
<text xml:space="preserve" transform="matrix(1 0 -0 1 0 841.92)" font-size="14.04" font-family="Times New Roman"><tspan y="-313.61" x="85.104 89.89164 100.57608 104.521327 111.58344 116.258769 123.2226 127.89793 134.86176 141.92388 145.43387 154.86875 161.83258 168.8947 175.01615 182.07826 188.31203 195.16355 199.10878 203.05402 207.61702 214.67914 218.62438 224.74582 231.70966 235.65489 241.88866 246.56398 250.07398 259.5229 268.98588 272.83283 279.79667 286.85877 293.8226 299.228 306.2901 315.75309 325.10374 332.16584 339.12968 342.97663 350.03874 357.00257 364.06468 370.1861 374.13133 380.36509 384.92808 388.8733 393.5486 397.49385 406.84449 413.9066 418.5819 428.05894 434.18037 441.1442 444.99116 455.7879">(mikrofon, kuchaytirgichlar,  tovush  kolonkalari); b) anima</tspan></text>
</g>
<clipPath id="cp4580">
<path transform="matrix(1,0,0,-1,0,841.92)" d="M .000008871 0 L 595.32 0 L 595.32 841.92 L .000008871 841.92 Z " fill-rule="evenodd"/>
</clipPath>
<g clip-path="url(#cp4580)">
<text xml:space="preserve" transform="matrix(1 0 -0 1 0 841.92)" font-size="14.04" font-family="Times New Roman"><tspan y="-313.61" x="462.46">t</tspan></text>
</g>
<clipPath id="cp4581">
<path transform="matrix(1,0,0,-1,0,841.92)" d="M .000008871 0 L 595.32 0 L 595.32 841.92 L .000008871 841.92 Z " fill-rule="evenodd"/>
</clipPath>
<g clip-path="url(#cp4581)">
<text xml:space="preserve" transform="matrix(1 0 -0 1 0 841.92)" font-size="14.04" font-family="Times New Roman"><tspan y="-313.61" x="466.42 471.92369 475.77064 482.73448 489.79658 499.25956 506.32167 512.5554 521.90609 528.86996 532.8152 539.8773 546.71487 552.9486 559.9125">sion va vidyeo </tspan></text>
</g>
<clipPath id="cp4582">
<path transform="matrix(1,0,0,-1,0,841.92)" d="M .000008871 0 L 595.32 0 L 595.32 841.92 L .000008871 841.92 Z " fill-rule="evenodd"/>
</clipPath>
<g clip-path="url(#cp4582)">
</g>
<clipPath id="cp4583">
<path transform="matrix(1,0,0,-1,0,841.92)" d="M .000008871 0 L 595.32 0 L 595.32 841.92 L .000008871 841.92 Z " fill-rule="evenodd"/>
</clipPath>
<g clip-path="url(#cp4583)">
<text xml:space="preserve" transform="matrix(1 0 -0 1 0 841.92)" font-size="14.04" font-family="Times New Roman"><tspan y="-289.49" x="85.104 95.90411">ma</tspan></text>
</g>
<clipPath id="cp4584">
<path transform="matrix(1,0,0,-1,0,841.92)" d="M .000008871 0 L 595.32 0 L 595.32 841.92 L .000008871 841.92 Z " fill-rule="evenodd"/>
</clipPath>
<g clip-path="url(#cp4584)">
<text xml:space="preserve" transform="matrix(1 0 -0 1 0 841.92)" font-size="14.04" font-family="Times New Roman"><tspan y="-289.49" x="102.14">&#x2019;</tspan></text>
</g>
<clipPath id="cp4585">
<path transform="matrix(1,0,0,-1,0,841.92)" d="M .000008871 0 L 595.32 0 L 595.32 841.92 L .000008871 841.92 Z " fill-rule="evenodd"/>
</clipPath>
<g clip-path="url(#cp4585)">
<text xml:space="preserve" transform="matrix(1 0 -0 1 0 841.92)" font-size="14.04" font-family="Times New Roman"><tspan y="-289.49" x="106.7 110.64524 117.83372 128.51816 135.58028 139.52552 143.47075 149.70452 154.26752 161.23136 165.17659 169.59918 176.56302 180.50826 185.18358 189.03054 192.87749 196.82273 202.22812 209.29024 213.71283 220.67667 226.91043 231.34706 237.58083 244.54467 248.39162 255.45374 261.6875 266.2505 270.1957 275.6011 282.6632 287.08583 294.04966 301.11177 305.67475 309.61997 313.5652 324.24964 330.4834 334.42863 340.66239 345.22538 349.1706 353.5932 358.1562 365.2183 369.06526 376.12736 382.9648 389.19859 396.27473 403.33683 409.5706 420.38139 427.21885 433.4526 438.12794 444.3617 448.32096 454.55473 459.23005 462.74006 467.14863 474.11247 477.9594 485.0215 491.85899 498.09275 505.16889 512.231 516.794 523.85617 530.69369 536.9274 544.0036 547.94888 554.9127 559.4757">lumotlarni kiritish va chiqarish qurilmalari (vidyeokamyeralar, vidyeoproyektor </tspan></text>
</g>
<clipPath id="cp4586">
<path transform="matrix(1,0,0,-1,0,841.92)" d="M .000008871 0 L 595.32 0 L 595.32 841.92 L .000008871 841.92 Z " fill-rule="evenodd"/>
</clipPath>
<g clip-path="url(#cp4586)">
</g>
<clipPath id="cp4587">
<path transform="matrix(1,0,0,-1,0,841.92)" d="M .000008871 0 L 595.32 0 L 595.32 841.92 L .000008871 841.92 Z " fill-rule="evenodd"/>
</clipPath>
<g clip-path="url(#cp4587)">
<text xml:space="preserve" transform="matrix(1 0 -0 1 0 841.92)" font-size="14.04" font-family="Times New Roman"><tspan y="-265.37" x="85.104 92.166118 98.39987 101.909877 108.00323 115.065349 119.74067 125.86211 132.92423 136.86946 142.9909 147.66623 152.34156 156.30084 159.6564 166.71852 171.39385 174.90384 178.72272 185.68656 192.74868 199.71251 205.1179 212.18003 216.02698">va ekranlar); v) tovushli</tspan></text>
</g>
<clipPath id="cp4588">
<path transform="matrix(1,0,0,-1,0,841.92)" d="M .000008871 0 L 595.32 0 L 595.32 841.92 L .000008871 841.92 Z " fill-rule="evenodd"/>
</clipPath>
<g clip-path="url(#cp4588)">
<text xml:space="preserve" transform="matrix(1 0 -0 1 0 841.92)" font-size="14.04" font-family="Times New Roman"><tspan y="-265.37" x="220.13 223.61">  </tspan></text>
</g>
<clipPath id="cp4589">
<path transform="matrix(1,0,0,-1,0,841.92)" d="M .000008871 0 L 595.32 0 L 595.32 841.92 L .000008871 841.92 Z " fill-rule="evenodd"/>
</clipPath>
<g clip-path="url(#cp4589)">
<text xml:space="preserve" transform="matrix(1 0 -0 1 0 841.92)" font-size="14.04" font-family="Times New Roman"><tspan y="-265.37" x="227.09 234.15212 240.38588 243.89588 247.23738 254.2995 258.14646 265.20857 272.04603 278.2798 285.35594 288.86595 292.41807 303.1025">va  vidyeo  ma</tspan></text>
</g>
<clipPath id="cp4590">
<path transform="matrix(1,0,0,-1,0,841.92)" d="M .000008871 0 L 595.32 0 L 595.32 841.92 L .000008871 841.92 Z " fill-rule="evenodd"/>
</clipPath>
<g clip-path="url(#cp4590)">
<text xml:space="preserve" transform="matrix(1 0 -0 1 0 841.92)" font-size="14.04" font-family="Times New Roman"><tspan y="-265.37" x="309.41">&#x2019;</tspan></text>
</g>
<clipPath id="cp4591">
<path transform="matrix(1,0,0,-1,0,841.92)" d="M .000008871 0 L 595.32 0 L 595.32 841.92 L .000008871 841.92 Z " fill-rule="evenodd"/>
</clipPath>
<g clip-path="url(#cp4591)">
<text xml:space="preserve" transform="matrix(1 0 -0 1 0 841.92)" font-size="14.04" font-family="Times New Roman"><tspan y="-265.37" x="313.97 317.91523 324.97734 335.66178 342.72389 346.6691 350.61433 356.84809 361.5234 368.50129 372.4465 375.9565 381.41807 387.5676 394.53144 398.47666 405.4405 412.5026 418.62403 425.68614 429.63136 432.9869 439.95075 446.91459 450.8598 454.70677 461.76887 465.27888 472.21464 476.06159 481.56526 488.52909 492.4743 498.70808 503.3834">lumotlarni saqlovchi optik disklar.</tspan></text>
</g>
<clipPath id="cp4592">
<path transform="matrix(1,0,0,-1,0,841.92)" d="M .000008871 0 L 595.32 0 L 595.32 841.92 L .000008871 841.92 Z " fill-rule="evenodd"/>
</clipPath>
<g clip-path="url(#cp4592)">
<text xml:space="preserve" transform="matrix(1 0 -0 1 0 841.92)" font-size="14.04" font-family="Times New Roman"><tspan y="-265.37" x="506.98"> </tspan></text>
</g>
<clipPath id="cp4593">
<path transform="matrix(1,0,0,-1,0,841.92)" d="M .000008871 0 L 595.32 0 L 595.32 841.92 L .000008871 841.92 Z " fill-rule="evenodd"/>
</clipPath>
<g clip-path="url(#cp4593)">
</g>
</g>
<g id="Layer-1" data-name="P">
<clipPath id="cp4594">
<path transform="matrix(1,0,0,-1,0,841.92)" d="M .000008871 0 L 595.32 0 L 595.32 841.92 L .000008871 841.92 Z " fill-rule="evenodd"/>
</clipPath>
<g clip-path="url(#cp4594)">
<text xml:space="preserve" transform="matrix(1 0 -0 1 0 841.92)" font-size="14.04" font-family="Times New Roman"><tspan y="-241.13" x="120.5 130.58072 137.64284 148.4396 159.12406 166.18618 173.24829 177.19353 184.25565 190.48941 195.8948 199.84004 206.67752 212.91129 220.33844 227.40056 234.3644 239.76979 243.71503 247.66027 253.78171 257.72694 263.9607 268.52369 272.4689 279.7697 286.83183 293.89393 304.57838 311.64048 318.47795 325.54005 329.48527 335.71903 340.39436 344.3536 350.47505 355.15037 362.1142 366.05943 373.48658">Kommunikasiya vositalari kompyuterlarni o</tspan></text>
</g>
<clipPath id="cp4595">
<path transform="matrix(1,0,0,-1,0,841.92)" d="M .000008871 0 L 595.32 0 L 595.32 841.92 L .000008871 841.92 Z " fill-rule="evenodd"/>
</clipPath>
<g clip-path="url(#cp4595)">
<text xml:space="preserve" transform="matrix(1 0 -0 1 0 841.92)" font-size="14.04" font-family="Times New Roman"><tspan y="-241.13" x="380.95">&#x2019;</tspan></text>
</g>
<clipPath id="cp4596">
<path transform="matrix(1,0,0,-1,0,841.92)" d="M .000008871 0 L 595.32 0 L 595.32 841.92 L .000008871 841.92 Z " fill-rule="evenodd"/>
</clipPath>
<g clip-path="url(#cp4596)">
<text xml:space="preserve" transform="matrix(1 0 -0 1 0 841.92)" font-size="14.04" font-family="Times New Roman"><tspan y="-241.13" x="385.51 391.74378 397.97755 402.5546 409.6167 416.9175 423.9796 430.21339 440.89784 447.95994 454.1937 461.62086 465.4678 472.5299 476.47514 482.59657 487.27189 494.34803 500.46946 504.41468 511.84187 515.68887 521.9226 526.5979 537.2823 544.3444">zaro hamda internet tarmog</tspan></text>
</g>
<clipPath id="cp4597">
<path transform="matrix(1,0,0,-1,0,841.92)" d="M .000008871 0 L 595.32 0 L 595.32 841.92 L .000008871 841.92 Z " fill-rule="evenodd"/>
</clipPath>
<g clip-path="url(#cp4597)">
<text xml:space="preserve" transform="matrix(1 0 -0 1 0 841.92)" font-size="14.04" font-family="Times New Roman"><tspan y="-241.13" x="551.62">&#x2019;</tspan></text>
</g>
<clipPath id="cp4598">
<path transform="matrix(1,0,0,-1,0,841.92)" d="M .000008871 0 L 595.32 0 L 595.32 841.92 L .000008871 841.92 Z " fill-rule="evenodd"/>
</clipPath>
<g clip-path="url(#cp4598)">
<text xml:space="preserve" transform="matrix(1 0 -0 1 0 841.92)" font-size="14.04" font-family="Times New Roman"><tspan y="-241.13" x="556.18 560.02">i </tspan></text>
</g>
<clipPath id="cp4599">
<path transform="matrix(1,0,0,-1,0,841.92)" d="M .000008871 0 L 595.32 0 L 595.32 841.92 L .000008871 841.92 Z " fill-rule="evenodd"/>
</clipPath>
<g clip-path="url(#cp4599)">
</g>
<clipPath id="cp4600">
<path transform="matrix(1,0,0,-1,0,841.92)" d="M .000008871 0 L 595.32 0 L 595.32 841.92 L .000008871 841.92 Z " fill-rule="evenodd"/>
</clipPath>
<g clip-path="url(#cp4600)">
<text xml:space="preserve" transform="matrix(1 0 -0 1 0 841.92)" font-size="14.04" font-family="Times New Roman"><tspan y="-216.98" x="85.104 92.166118 96.01308 99.95832 106.07976 113.14188 116.65188 123.58763 130.64975">bilan bog</tspan></text>
</g>
<clipPath id="cp4601">
<path transform="matrix(1,0,0,-1,0,841.92)" d="M .000008871 0 L 595.32 0 L 595.32 841.92 L .000008871 841.92 Z " fill-rule="evenodd"/>
</clipPath>
<g clip-path="url(#cp4601)">
<text xml:space="preserve" transform="matrix(1 0 -0 1 0 841.92)" font-size="14.04" font-family="Times New Roman"><tspan y="-216.98" x="137.78">&#x2019;</tspan></text>
</g>
<clipPath id="cp4602">
<path transform="matrix(1,0,0,-1,0,841.92)" d="M .000008871 0 L 595.32 0 L 595.32 841.92 L .000008871 841.92 Z " fill-rule="evenodd"/>
</clipPath>
<g clip-path="url(#cp4602)">
<text xml:space="preserve" transform="matrix(1 0 -0 1 0 841.92)" font-size="14.04" font-family="Times New Roman"><tspan y="-216.98" x="142.34 146.28524 152.40668 157.81208 164.87419 168.38419 175.40419 181.55371 188.61583 195.57967 202.64179 205.99735 213.05947 217.0047 223.23847 233.92292 240.15668 244.10192 247.61191 254.63191 258.53504 262.43815 268.58769 275.64979 279.595 282.95057 290.01268 296.24644 299.75645 306.6922 310.63743 316.8712 321.5465 324.9161 331.9782 336.65354 343.61738 349.85115 353.6981 357.6433 361.15333 371.8097">lash uchun xizmat qiladi va ular orqali ma</tspan></text>
</g>
<clipPath id="cp4603">
<path transform="matrix(1,0,0,-1,0,841.92)" d="M .000008871 0 L 595.32 0 L 595.32 841.92 L .000008871 841.92 Z " fill-rule="evenodd"/>
</clipPath>
<g clip-path="url(#cp4603)">
<text xml:space="preserve" transform="matrix(1 0 -0 1 0 841.92)" font-size="14.04" font-family="Times New Roman"><tspan y="-216.98" x="378.43">&#x2019;</tspan></text>
</g>
<clipPath id="cp4604">
<path transform="matrix(1,0,0,-1,0,841.92)" d="M .000008871 0 L 595.32 0 L 595.32 841.92 L .000008871 841.92 Z " fill-rule="evenodd"/>
</clipPath>
<g clip-path="url(#cp4604)">
<text xml:space="preserve" transform="matrix(1 0 -0 1 0 841.92)" font-size="14.04" font-family="Times New Roman"><tspan y="-216.98" x="382.99 386.9352 393.9973 404.68177 411.74388 415.6891 419.6343 425.86808 430.5434 434.0534 440.28718 444.1201 454.91685 461.1506 466.6683 473.7304 477.57737 484.5412 488.48643 492.43165 498.55308 505.5169 509.46214 512.9721 516.42599 528.90756 535.8714 542.93356 549.1673 559.8517">lumotlar almashiniladi. Modem </tspan></text>
</g>
<clipPath id="cp4605">
<path transform="matrix(1,0,0,-1,0,841.92)" d="M .000008871 0 L 595.32 0 L 595.32 841.92 L .000008871 841.92 Z " fill-rule="evenodd"/>
</clipPath>
<g clip-path="url(#cp4605)">
</g>
<clipPath id="cp4606">
<path transform="matrix(1,0,0,-1,0,841.92)" d="M .000008871 0 L 595.32 0 L 595.32 841.92 L .000008871 841.92 Z " fill-rule="evenodd"/>
</clipPath>
<g clip-path="url(#cp4606)">
<text xml:space="preserve" transform="matrix(1 0 -0 1 0 841.92)" font-size="14.04" font-family="Times New Roman"><tspan y="-192.86" x="85.104">-</tspan></text>
</g>
<clipPath id="cp4607">
<path transform="matrix(1,0,0,-1,0,841.92)" d="M .000008871 0 L 595.32 0 L 595.32 841.92 L .000008871 841.92 Z " fill-rule="evenodd"/>
</clipPath>
<g clip-path="url(#cp4607)">
<text xml:space="preserve" transform="matrix(1 0 -0 1 0 841.92)" font-size="14.04" font-family="Times New Roman"><tspan y="-192.86" x="89.784"> </tspan></text>
</g>
<clipPath id="cp4608">
<path transform="matrix(1,0,0,-1,0,841.92)" d="M .000008871 0 L 595.32 0 L 595.32 841.92 L .000008871 841.92 Z " fill-rule="evenodd"/>
</clipPath>
<g clip-path="url(#cp4608)">
<text xml:space="preserve" transform="matrix(1 0 -0 1 0 841.92)" font-size="14.04" font-family="Times New Roman"><tspan y="-192.86" x="93.264 97.20924 103.443 107.28996 113.52372 118.19904 125.17692 132.23903 135.74903 139.55387 145.78763 150.46295 161.1474 168.20952">telefon tarmog</tspan></text>
</g>
<clipPath id="cp4609">
<path transform="matrix(1,0,0,-1,0,841.92)" d="M .000008871 0 L 595.32 0 L 595.32 841.92 L .000008871 841.92 Z " fill-rule="evenodd"/>
</clipPath>
<g clip-path="url(#cp4609)">
<text xml:space="preserve" transform="matrix(1 0 -0 1 0 841.92)" font-size="14.04" font-family="Times New Roman"><tspan y="-192.86" x="175.34">&#x2019;</tspan></text>
</g>
<clipPath id="cp4610">
<path transform="matrix(1,0,0,-1,0,841.92)" d="M .000008871 0 L 595.32 0 L 595.32 841.92 L .000008871 841.92 Z " fill-rule="evenodd"/>
</clipPath>
<g clip-path="url(#cp4610)">
<text xml:space="preserve" transform="matrix(1 0 -0 1 0 841.92)" font-size="14.04" font-family="Times New Roman"><tspan y="-192.86" x="179.9 183.84523 187.35523 194.37523 199.05055 206.07056 212.30432 216.20745 220.19481 223.55037 230.5142 237.57633 248.26078 255.44927 262.28675 269.34886 273.29408 279.52784 284.20317 287.71318 294.64894 298.59416 302.4411 308.67488 315.751 319.26103 325.35438 329.2996 336.26344 343.32554 349.5593">i orqali kompyuter bilan aloqa </tspan></text>
</g>
<clipPath id="cp4611">
<path transform="matrix(1,0,0,-1,0,841.92)" d="M .000008871 0 L 595.32 0 L 595.32 841.92 L .000008871 841.92 Z " fill-rule="evenodd"/>
</clipPath>
<g clip-path="url(#cp4611)">
<text xml:space="preserve" transform="matrix(1 0 -0 1 0 841.92)" font-size="14.04" font-family="Times New Roman"><tspan y="-192.86" x="353.11 360.1721 364.01905 367.96427 371.81123 377.2166 384.27873 387.78874 391.69184 402.40437 409.46647 416.52857 423.4924 427.33937 434.40147 438.34669 441.70225 448.76435 454.9981 459.5611 466.6232 473.58705 479.8208 486.78465 490.72987 494.23988 501.17564 508.23774 512.8007 516.746 520.6912 531.3756 537.6094">qilish imkonini beruvchi qurilma.</tspan></text>
</g>
<clipPath id="cp4612">
<path transform="matrix(1,0,0,-1,0,841.92)" d="M .000008871 0 L 595.32 0 L 595.32 841.92 L .000008871 841.92 Z " fill-rule="evenodd"/>
</clipPath>
<g clip-path="url(#cp4612)">
<text xml:space="preserve" transform="matrix(1 0 -0 1 0 841.92)" font-size="14.04" font-family="Times New Roman"><tspan y="-192.86" x="541.3"> </tspan></text>
</g>
<clipPath id="cp4613">
<path transform="matrix(1,0,0,-1,0,841.92)" d="M .000008871 0 L 595.32 0 L 595.32 841.92 L .000008871 841.92 Z " fill-rule="evenodd"/>
</clipPath>
<g clip-path="url(#cp4613)">
</g>
</g>
<g id="Layer-1" data-name="P">
<clipPath id="cp4614">
<path transform="matrix(1,0,0,-1,0,841.92)" d="M .000008871 0 L 595.32 0 L 595.32 841.92 L .000008871 841.92 Z " fill-rule="evenodd"/>
</clipPath>
<g clip-path="url(#cp4614)">
<text xml:space="preserve" transform="matrix(1 0 -0 1 0 841.92)" font-size="14.04" font-family="Times New Roman,Italic" font-style="italic"><tspan y="-168.74" x="120.5 132.14002">Ma</tspan></text>
</g>
<clipPath id="cp4615">
<path transform="matrix(1,0,0,-1,0,841.92)" d="M .000008871 0 L 595.32 0 L 595.32 841.92 L .000008871 841.92 Z " fill-rule="evenodd"/>
</clipPath>
<g clip-path="url(#cp4615)">
<text xml:space="preserve" transform="matrix(1 0 -0 1 0 841.92)" font-size="14.04" font-family="Times New Roman,Italic" font-style="italic"><tspan y="-168.74" x="139.22">&#x2019;</tspan></text>
</g>
<clipPath id="cp4616">
<path transform="matrix(1,0,0,-1,0,841.92)" d="M .000008871 0 L 595.32 0 L 595.32 841.92 L .000008871 841.92 Z " fill-rule="evenodd"/>
</clipPath>
<g clip-path="url(#cp4616)">
<text xml:space="preserve" transform="matrix(1 0 -0 1 0 841.92)" font-size="14.04" font-family="Times New Roman,Italic" font-style="italic"><tspan y="-168.74" x="143.9 147.74695 154.80907 164.88979 171.85363 175.79886 181.54122 185.38817 192.45029 197.85569 204.81952 211.88164 218.1154 224.23685 231.29897 235.2442 240.87424 247.108 254.18418 259.58958 263.43653 267.38175 274.34559 278.19255 285.25465">lumot tashuvchi vositalar</tspan></text>
</g>
</g>
<g id="Layer-1" data-name="P">
<clipPath id="cp4617">
<path transform="matrix(1,0,0,-1,0,841.92)" d="M .000008871 0 L 595.32 0 L 595.32 841.92 L .000008871 841.92 Z " fill-rule="evenodd"/>
</clipPath>
<g clip-path="url(#cp4617)">
<text xml:space="preserve" transform="matrix(1 0 -0 1 0 841.92)" font-size="14.04" font-family="Times New Roman,Italic" font-style="italic"><tspan y="-168.74" x="290.93">.</tspan></text>
</g>
</g>
<g id="Layer-1" data-name="P">
<clipPath id="cp4618">
<path transform="matrix(1,0,0,-1,0,841.92)" d="M .000008871 0 L 595.32 0 L 595.32 841.92 L .000008871 841.92 Z " fill-rule="evenodd"/>
</clipPath>
<g clip-path="url(#cp4618)">
<text xml:space="preserve" transform="matrix(1 0 -0 1 0 841.92)" font-size="14.04" font-family="Times New Roman,Bold" font-weight="bold"><tspan y="-168.74" x="294.41"> </tspan></text>
</g>
</g>
<g id="Layer-1" data-name="P">
<clipPath id="cp4619">
<path transform="matrix(1,0,0,-1,0,841.92)" d="M .000008871 0 L 595.32 0 L 595.32 841.92 L .000008871 841.92 Z " fill-rule="evenodd"/>
</clipPath>
<g clip-path="url(#cp4619)">
<text xml:space="preserve" transform="matrix(1 0 -0 1 0 841.92)" font-size="14.04" font-family="Times New Roman"><tspan y="-168.74" x="300.17 310.25074 317.21458 321.1598 325.00675 332.06886 337.81123 344.77507 348.72029 354.12568 361.0895 365.03474 371.2685">Optik disklar</tspan></text>
</g>
</g>
<g id="Layer-1" data-name="P">
<clipPath id="cp4620">
<path transform="matrix(1,0,0,-1,0,841.92)" d="M .000008871 0 L 595.32 0 L 595.32 841.92 L .000008871 841.92 Z " fill-rule="evenodd"/>
</clipPath>
<g clip-path="url(#cp4620)">
<text xml:space="preserve" transform="matrix(1 0 -0 1 0 841.92)" font-size="14.04" font-family="Times New Roman,Bold" font-weight="bold"><tspan y="-168.74" x="376.03"> </tspan></text>
</g>
</g>
<g id="Layer-1" data-name="P">
<clipPath id="cp4621">
<path transform="matrix(1,0,0,-1,0,841.92)" d="M .000008871 0 L 595.32 0 L 595.32 841.92 L .000008871 841.92 Z " fill-rule="evenodd"/>
</clipPath>
<g clip-path="url(#cp4621)">
<text xml:space="preserve" transform="matrix(1 0 -0 1 0 841.92)" font-size="14.04" font-family="Times New Roman"><tspan y="-168.74" x="381.79 391.87074 398.83457 405.89668 409.74363 416.80574 422.5481 431.91279 441.9935 447.73588 454.79798 458.7432 464.37324 468.31846 473.72386 480.68769 484.6329 490.86668 494.71363 501.77574 507.89717 514.9593 520.70169 527.7638 533.88528 538.56057 544.31698 551.2808 555.2261 559.78909">Audio CD ni ishlatgan har bir </tspan></text>
</g>
</g>
<g id="Layer-1" data-name="P">
<clipPath id="cp4622">
<path transform="matrix(1,0,0,-1,0,841.92)" d="M .000008871 0 L 595.32 0 L 595.32 841.92 L .000008871 841.92 Z " fill-rule="evenodd"/>
</clipPath>
<g clip-path="url(#cp4622)">
<text xml:space="preserve" transform="matrix(1 0 -0 1 0 841.92)" font-size="14.04" font-family="Times New Roman"><tspan y="-144.5" x="85.104 92.166118 96.01308 101.41848 108.4806 112.42584 119.24928 126.3114 133.27524 137.22048 141.06743 148.12955 154.95299 162.0151 165.86206 171.26746 178.32958 182.27481 188.50858 193.1839 200.02138 206.98522 210.93045 214.87569 220.99713 228.05925 234.88269 238.82793 245.06169 252.02553 255.87248 261.37617">kishi optik disklar bilan tanish</tspan></text>
</g>
</g>
<g id="Layer-1" data-name="P">
<clipPath id="cp4623">
<path transform="matrix(1,0,0,-1,0,841.92)" d="M .000008871 0 L 595.32 0 L 595.32 841.92 L .000008871 841.92 Z " fill-rule="evenodd"/>
</clipPath>
<g clip-path="url(#cp4623)">
<text xml:space="preserve" transform="matrix(1 0 -0 1 0 841.92)" font-size="14.04" font-family="Times New Roman,Italic" font-style="italic"><tspan y="-144.5" x="268.73 272.24003 279.16175 289.24247 296.2063 300.05326 303.99848 310.23225 317.18205 324.14588 327.99284 333.4965 339.73027 346.68006 352.80149">. Optik disk ko</tspan></text>
</g>
</g>
<g id="Layer-1" data-name="P">
<clipPath id="cp4624">
<path transform="matrix(1,0,0,-1,0,841.92)" d="M .000008871 0 L 595.32 0 L 595.32 841.92 L .000008871 841.92 Z " fill-rule="evenodd"/>
</clipPath>
<g clip-path="url(#cp4624)">
<text xml:space="preserve" transform="matrix(1 0 -0 1 0 841.92)" font-size="14.04" font-family="Times New Roman,Italic" font-style="italic"><tspan y="-144.5" x="359.95">&#x2019;</tspan></text>
</g>
</g>
<g id="Layer-1" data-name="P">
<clipPath id="cp4625">
<path transform="matrix(1,0,0,-1,0,841.92)" d="M .000008871 0 L 595.32 0 L 595.32 841.92 L .000008871 841.92 Z " fill-rule="evenodd"/>
</clipPath>
<g clip-path="url(#cp4625)">
<text xml:space="preserve" transform="matrix(1 0 -0 1 0 841.92)" font-size="14.04" font-family="Times New Roman,Italic" font-style="italic"><tspan y="-144.5" x="364.63 370.75144 377.81355 384.87565 390.99708 397.23085 404.19468 408.1399 415.0897 422.05354 425.90049 431.40415 437.6379 444.4754 451.5375 455.38447 460.78987 467.85197 474.8158 478.76103 485.72486 492.6887 499.7508 506.71464 510.65986 514.16989 521.0916 528.0555 535.01937 542.0815 545.92849 552.89236 559.8562">chuvchi disk hisoblanadi, odatda </tspan></text>
</g>
</g>
<g id="Layer-1" data-name="P">
<clipPath id="cp4626">
<path transform="matrix(1,0,0,-1,0,841.92)" d="M .000008871 0 L 595.32 0 L 595.32 841.92 L .000008871 841.92 Z " fill-rule="evenodd"/>
</clipPath>
<g clip-path="url(#cp4626)">
<text xml:space="preserve" transform="matrix(1 0 -0 1 0 841.92)" font-size="14.04" font-family="Times New Roman,Italic" font-style="italic"><tspan y="-120.38" x="85.104 92.166118 96.01308 103.075199 113.155918 119.38967 123.23663 128.64203 132.58727 138.45598 145.5181 149.02809 155.96385 163.02597 168.89469 172.83992 179.80376 186.03752 193.00136 198.98239 205.10384 212.16596 218.03467 225.09679 232.06063 236.00586 239.85282 246.81665 250.76189 254.60884 261.5727 265.5179 271.38667 278.44877 282.29573 289.35783 296.32167 302.3027 306.14967 313.21177 319.3332 326.29704 332.27809 339.2419 346.30403 353.26786 359.2489 365.37034">diametri 4,75 inch va qalinligi 1/20 inch dan ko</tspan></text>
</g>
</g>
<g id="Layer-1" data-name="P">
<clipPath id="cp4627">
<path transform="matrix(1,0,0,-1,0,841.92)" d="M .000008871 0 L 595.32 0 L 595.32 841.92 L .000008871 841.92 Z " fill-rule="evenodd"/>
</clipPath>
<g clip-path="url(#cp4627)">
<text xml:space="preserve" transform="matrix(1 0 -0 1 0 841.92)" font-size="14.04" font-family="Times New Roman,Italic" font-style="italic"><tspan y="-120.38" x="372.79">&#x2019;</tspan></text>
</g>
</g>
<g id="Layer-1" data-name="P">
<clipPath id="cp4628">
<path transform="matrix(1,0,0,-1,0,841.92)" d="M .000008871 0 L 595.32 0 L 595.32 841.92 L .000008871 841.92 Z " fill-rule="evenodd"/>
</clipPath>
<g clip-path="url(#cp4628)">
<text xml:space="preserve" transform="matrix(1 0 -0 1 0 841.92)" font-size="14.04" font-family="Times New Roman,Italic" font-style="italic"><tspan y="-120.38" x="377.47 382.8754 389.9375 395.91856 402.03999 409.10209 419.1828 424.5882 431.55204 438.61415 444.48289 451.54499">ra kamroq bo</tspan></text>
</g>
</g>
<g id="Layer-1" data-name="P">
<clipPath id="cp4629">
<path transform="matrix(1,0,0,-1,0,841.92)" d="M .000008871 0 L 595.32 0 L 595.32 841.92 L .000008871 841.92 Z " fill-rule="evenodd"/>
</clipPath>
<g clip-path="url(#cp4629)">
<text xml:space="preserve" transform="matrix(1 0 -0 1 0 841.92)" font-size="14.04" font-family="Times New Roman,Italic" font-style="italic"><tspan y="-120.38" x="458.74">&#x2019;</tspan></text>
</g>
</g>
<g id="Layer-1" data-name="P">
<clipPath id="cp4630">
<path transform="matrix(1,0,0,-1,0,841.92)" d="M .000008871 0 L 595.32 0 L 595.32 841.92 L .000008871 841.92 Z " fill-rule="evenodd"/>
</clipPath>
<g clip-path="url(#cp4630)">
<text xml:space="preserve" transform="matrix(1 0 -0 1 0 841.92)" font-size="14.04" font-family="Times New Roman,Italic" font-style="italic"><tspan y="-120.38" x="463.3 467.14695 474.20906 481.17289 485.1181 488.6281 500.2392">ladi.Ma</tspan></text>
</g>
</g>
<g id="Layer-1" data-name="P">
<clipPath id="cp4631">
<path transform="matrix(1,0,0,-1,0,841.92)" d="M .000008871 0 L 595.32 0 L 595.32 841.92 L .000008871 841.92 Z " fill-rule="evenodd"/>
</clipPath>
<g clip-path="url(#cp4631)">
<text xml:space="preserve" transform="matrix(1 0 -0 1 0 841.92)" font-size="14.04" font-family="Times New Roman,Italic" font-style="italic"><tspan y="-120.38" x="507.34">&#x2019;</tspan></text>
</g>
</g>
<g id="Layer-1" data-name="P">
<clipPath id="cp4632">
<path transform="matrix(1,0,0,-1,0,841.92)" d="M .000008871 0 L 595.32 0 L 595.32 841.92 L .000008871 841.92 Z " fill-rule="evenodd"/>
</clipPath>
<g clip-path="url(#cp4632)">
<text xml:space="preserve" transform="matrix(1 0 -0 1 0 841.92)" font-size="14.04" font-family="Times New Roman,Italic" font-style="italic"><tspan y="-120.38" x="511.9 515.74697 522.8091 532.88986 539.8537 543.79898 547.64596 554.6098 560.0152">lumotlar </tspan></text>
</g>
</g>
<g id="Layer-1" data-name="P">
<clipPath id="cp4633">
<path transform="matrix(1,0,0,-1,0,841.92)" d="M .000008871 0 L 595.32 0 L 595.32 841.92 L .000008871 841.92 Z " fill-rule="evenodd"/>
</clipPath>
<g clip-path="url(#cp4633)">
<text xml:space="preserve" transform="matrix(1 0 -0 1 0 841.92)" font-size="14.04" font-family="Times New Roman,Italic" font-style="italic"><tspan y="-96.264" x="85.104 92.166118 97.57152 101.51676 105.36372 112.32756 119.38968 123.81228 130.04604 137.00988 142.41527 146.3605 150.20746 157.1713 164.23342 168.17865 172.60124 178.72269 185.7848 190.2074 194.05435 201.11647 206.52187 212.75563 218.27336 222.69596 228.92972 235.89356 241.29895 248.36107">ustiga yoziladi va lazer yorug</tspan></text>
</g>
</g>
<g id="Layer-1" data-name="P">
<clipPath id="cp4634">
<path transform="matrix(1,0,0,-1,0,841.92)" d="M .000008871 0 L 595.32 0 L 595.32 841.92 L .000008871 841.92 Z " fill-rule="evenodd"/>
</clipPath>
<g clip-path="url(#cp4634)">
<text xml:space="preserve" transform="matrix(1 0 -0 1 0 841.92)" font-size="14.04" font-family="Times New Roman,Italic" font-style="italic"><tspan y="-96.264" x="255.53">&#x2019;</tspan></text>
</g>
</g>
<g id="Layer-1" data-name="P">
<clipPath id="cp4635">
<path transform="matrix(1,0,0,-1,0,841.92)" d="M .000008871 0 L 595.32 0 L 595.32 841.92 L .000008871 841.92 Z " fill-rule="evenodd"/>
</clipPath>
<g clip-path="url(#cp4635)">
<text xml:space="preserve" transform="matrix(1 0 -0 1 0 841.92)" font-size="14.04" font-family="Times New Roman,Italic" font-style="italic"><tspan y="-96.264" x="260.21 264.05696 268.00218 274.966 278.91123 283.33384 290.29768 295.70307 302.76518 309.729 313.57597 317.52119 321.9438">ligi orqali o</tspan></text>
</g>
</g>
<g id="Layer-1" data-name="P">
<clipPath id="cp4636">
<path transform="matrix(1,0,0,-1,0,841.92)" d="M .000008871 0 L 595.32 0 L 595.32 841.92 L .000008871 841.92 Z " fill-rule="evenodd"/>
</clipPath>
<g clip-path="url(#cp4636)">
<text xml:space="preserve" transform="matrix(1 0 -0 1 0 841.92)" font-size="14.04" font-family="Times New Roman,Italic" font-style="italic"><tspan y="-96.264" x="328.99">&#x2019;</tspan></text>
</g>
</g>
<g id="Layer-1" data-name="P">
<clipPath id="cp4637">
<path transform="matrix(1,0,0,-1,0,841.92)" d="M .000008871 0 L 595.32 0 L 595.32 841.92 L .000008871 841.92 Z " fill-rule="evenodd"/>
</clipPath>
<g clip-path="url(#cp4637)">
<text xml:space="preserve" transform="matrix(1 0 -0 1 0 841.92)" font-size="14.04" font-family="Times New Roman,Italic" font-style="italic"><tspan y="-96.264" x="333.67 340.73213 344.57908 348.42604 355.48814 362.45198">qiladi</tspan></text>
</g>
</g>
<g id="Layer-1" data-name="P">
<clipPath id="cp4638">
<path transform="matrix(1,0,0,-1,0,841.92)" d="M .000008871 0 L 595.32 0 L 595.32 841.92 L .000008871 841.92 Z " fill-rule="evenodd"/>
</clipPath>
<g clip-path="url(#cp4638)">
<text xml:space="preserve" transform="matrix(1 0 -0 1 0 841.92)" font-size="14.04" font-family="Times New Roman"><tspan y="-96.264" x="366.43 369.94 374.33454 384.41526 391.3791 398.4412 402.28816 409.35026 413.77287 423.13755 433.21827 437.64088 444.6047 451.56855 456.11753 466.80198 470.7472 477.8093 484.77314 488.71836 492.5653 496.51054 503.57264 507.88294 514.94509 521.17886 525.0258 535.7102 542.77236 549.0061 555.97 559.81698">. Audio CD 74 minutlik hajmdagi </tspan></text>
</g>
</g>
</g>
</g>
</svg>
