<?xml version="1.0" encoding="UTF-8" standalone="no"?>
<!DOCTYPE svg PUBLIC "-//W3C//DTD SVG 1.1//EN" "http://www.w3.org/Graphics/SVG/1.1/DTD/svg11.dtd">
<svg xmlns="http://www.w3.org/2000/svg" xmlns:xlink="http://www.w3.org/1999/xlink" version="1.1" width="595.32pt" height="841.92pt" viewBox="0 0 595.32 841.92">
<g enable-background="new">
<g>
<g id="Layer-1" data-name="Artifact">
<clipPath id="cp6267">
<path transform="matrix(1,0,0,-1,0,841.92)" d="M .000008871 0 L 595.32 0 L 595.32 841.92 L .000008871 841.92 Z " fill-rule="evenodd"/>
</clipPath>
<g clip-path="url(#cp6267)">
<text xml:space="preserve" transform="matrix(1 0 -0 1 0 841.92)" font-size="11.04" font-family="Calibri"><tspan y="-51.864" x="316.87 322.50999">44</tspan></text>
</g>
<clipPath id="cp6268">
<path transform="matrix(1,0,0,-1,0,841.92)" d="M .000008871 0 L 595.32 0 L 595.32 841.92 L .000008871 841.92 Z " fill-rule="evenodd"/>
</clipPath>
<g clip-path="url(#cp6268)">
<text xml:space="preserve" transform="matrix(1 0 -0 1 0 841.92)" font-size="11.04" font-family="Calibri"><tspan y="-51.864" x="328.15"> </tspan></text>
</g>
<clipPath id="cp6269">
<path transform="matrix(1,0,0,-1,0,841.92)" d="M .000008871 0 L 595.32 0 L 595.32 841.92 L .000008871 841.92 Z " fill-rule="evenodd"/>
</clipPath>
<g clip-path="url(#cp6269)">
</g>
<clipPath id="cp6270">
<path transform="matrix(1,0,0,-1,0,841.92)" d="M .000008871 0 L 595.32 0 L 595.32 841.92 L .000008871 841.92 Z " fill-rule="evenodd"/>
</clipPath>
<g clip-path="url(#cp6270)">
<text xml:space="preserve" transform="matrix(1 0 -0 1 0 841.92)" font-size="11.04" font-family="Calibri"><tspan y="-38.4" x="85.104"> </tspan></text>
</g>
<clipPath id="cp6271">
<path transform="matrix(1,0,0,-1,0,841.92)" d="M .000008871 0 L 595.32 0 L 595.32 841.92 L .000008871 841.92 Z " fill-rule="evenodd"/>
</clipPath>
<g clip-path="url(#cp6271)">
</g>
</g>
<g id="Layer-1" data-name="P">
<clipPath id="cp6272">
<path transform="matrix(1,0,0,-1,0,841.92)" d="M .000008871 0 L 595.32 0 L 595.32 841.92 L .000008871 841.92 Z " fill-rule="evenodd"/>
</clipPath>
<g clip-path="url(#cp6272)">
<text xml:space="preserve" transform="matrix(1 0 -0 1 0 841.92)" font-size="14.04" font-family="Times New Roman"><tspan y="-772.56" x="121.1">&#x2013;</tspan></text>
</g>
<clipPath id="cp6273">
<path transform="matrix(1,0,0,-1,0,841.92)" d="M .000008871 0 L 595.32 0 L 595.32 841.92 L .000008871 841.92 Z " fill-rule="evenodd"/>
</clipPath>
<g clip-path="url(#cp6273)">
<text xml:space="preserve" transform="matrix(1 0 -0 1 0 841.92)" font-size="14.04" font-family="Times New Roman"><tspan y="-772.56" x="128.18"> </tspan></text>
</g>
<clipPath id="cp6274">
<path transform="matrix(1,0,0,-1,0,841.92)" d="M .000008871 0 L 595.32 0 L 595.32 841.92 L .000008871 841.92 Z " fill-rule="evenodd"/>
</clipPath>
<g clip-path="url(#cp6274)">
<text xml:space="preserve" transform="matrix(1 0 -0 1 0 841.92)" font-size="14.04" font-family="Times New Roman"><tspan y="-772.56" x="142.34 149.30384 156.36595 167.0504 174.11252 180.95 188.01212 191.95735 198.19112 202.86644 206.82573 213.0595 217.6225 224.68462 230.80606 245.0707 255.75514 261.9889 266.55189 270.4971 277.68559 288.37004 295.43214 299.37736 303.32258 309.55635 314.23167 328.27168 335.33378 341.56755 347.68898 353.92274 359.44044 363.28739 370.25123 374.19645 388.3488 392.294 398.41545 403.82084 410.88294 417.84678 421.69374 425.63896 439.7913 446.02507 449.872 453.71897 459.22264 466.18647 480.3388 487.4009 493.63468 507.78703 513.19247 519.4262 526.3901 530.3353 536.4568 541.96047 548.9243 555.76187 559.6088">kompyuterlarda ma&#x2019;lumotlar bazasini tashkil etish va saqlashni </tspan></text>
</g>
<clipPath id="cp6275">
<path transform="matrix(1,0,0,-1,0,841.92)" d="M .000008871 0 L 595.32 0 L 595.32 841.92 L .000008871 841.92 Z " fill-rule="evenodd"/>
</clipPath>
<g clip-path="url(#cp6275)">
<text xml:space="preserve" transform="matrix(1 0 -0 1 0 841.92)" font-size="14.04" font-family="Times New Roman"><tspan y="-748.3" x="85.104 89.04924 95.283 99.95832 110.64276 114.588008 121.65012 125.497089 132.5592 139.52304 145.7568 152.72064 156.66588 160.17588 170.83225 177.17833 181.74134 185.68657 192.74869 203.54546 210.60758 214.45453 218.39977 224.63353 229.30886 232.67845 239.74057 245.97434 252.2081 258.3436 263.749 267.6942 274.65806 278.60328 282.11329 289.04905 296.11116 301.51655 308.48039 315.54249 321.6639 326.33924 330.28446 335.68986 342.75196 346.26197 350.0668 354.01203 360.13346 364.07868 374.76313 378.70835 384.9421 389.61744 393.5767 397.0867 401.76203 414.2436 423.60829">ta&#x2019;minlovchi ma&#x2019;lumotlar bazasini boshqarish tizimlari (MBB</tspan></text>
</g>
</g>
<g id="Layer-1" data-name="P">
<clipPath id="cp6276">
<path transform="matrix(1,0,0,-1,0,841.92)" d="M .000008871 0 L 595.32 0 L 595.32 841.92 L .000008871 841.92 Z " fill-rule="evenodd"/>
</clipPath>
<g clip-path="url(#cp6276)">
<text xml:space="preserve" transform="matrix(1 0 -0 1 0 841.92)" font-size="14.04" font-family="Times New Roman"><tspan y="-748.3" x="433.27">&#x0422;</tspan></text>
</g>
</g>
<g id="Layer-1" data-name="P">
<clipPath id="cp6277">
<path transform="matrix(1,0,0,-1,0,841.92)" d="M .000008871 0 L 595.32 0 L 595.32 841.92 L .000008871 841.92 Z " fill-rule="evenodd"/>
</clipPath>
<g clip-path="url(#cp6277)">
<text xml:space="preserve" transform="matrix(1 0 -0 1 0 841.92)" font-size="14.04" font-family="Times New Roman"><tspan y="-748.3" x="441.7 446.38">);</tspan></text>
</g>
</g>
<g id="Layer-1" data-name="P">
<clipPath id="cp6278">
<path transform="matrix(1,0,0,-1,0,841.92)" d="M .000008871 0 L 595.32 0 L 595.32 841.92 L .000008871 841.92 Z " fill-rule="evenodd"/>
</clipPath>
<g clip-path="url(#cp6278)">
<text xml:space="preserve" transform="matrix(1 0 -0 1 0 841.92)" font-size="14.04" font-family="Times New Roman"><tspan y="-748.3" x="450.22"> </tspan></text>
</g>
</g>
<g id="Layer-1" data-name="P">
<clipPath id="cp6279">
<path transform="matrix(1,0,0,-1,0,841.92)" d="M .000008871 0 L 595.32 0 L 595.32 841.92 L .000008871 841.92 Z " fill-rule="evenodd"/>
</clipPath>
<g clip-path="url(#cp6279)">
<text xml:space="preserve" transform="matrix(1 0 -0 1 0 841.92)" font-size="14.04" font-family="Times New Roman"><tspan y="-724.18" x="121.1">&#x2013;</tspan></text>
</g>
<clipPath id="cp6280">
<path transform="matrix(1,0,0,-1,0,841.92)" d="M .000008871 0 L 595.32 0 L 595.32 841.92 L .000008871 841.92 Z " fill-rule="evenodd"/>
</clipPath>
<g clip-path="url(#cp6280)">
<text xml:space="preserve" transform="matrix(1 0 -0 1 0 841.92)" font-size="14.04" font-family="Times New Roman"><tspan y="-724.18" x="128.18"> </tspan></text>
</g>
<clipPath id="cp6281">
<path transform="matrix(1,0,0,-1,0,841.92)" d="M .000008871 0 L 595.32 0 L 595.32 841.92 L .000008871 841.92 Z " fill-rule="evenodd"/>
</clipPath>
<g clip-path="url(#cp6281)">
<text xml:space="preserve" transform="matrix(1 0 -0 1 0 841.92)" font-size="14.04" font-family="Times New Roman"><tspan y="-724.18" x="135.74 146.42446 152.65822 156.60346 163.66558 167.51253 171.45777 178.99724 185.96108 193.0232 196.87015 200.7171 206.95087 210.79782 214.74306 220.97682 225.53983 232.60195 236.4489 243.98838 250.22214 257.18598 261.1312 268.1933 278.87776 285.1115 289.05674 292.9037 299.9658 307.50529 312.1806 318.30204 325.36415 329.2111 334.6165 341.6786 348.7407 354.86213 362.4016 369.4637 373.31068 379.54444 386.50828 390.4535 401.13795 405.08317 411.31694 416.83464 423.79847 427.74369 431.6889 436.2519 443.21574 450.27784 456.39927 463.46138 467.4066 470.76216 478.30165 485.36375 489.2107 495.44447 500.11979 507.09767 511.04289 518.47006 522.4153 528.53677 535.5989 539.44589 544.9495 551.9134 555.63406 559.481">matnli hujjatlarni avtomatik ravishda bichimlashtiruvchi, ularni tegishli </tspan></text>
</g>
<clipPath id="cp6282">
<path transform="matrix(1,0,0,-1,0,841.92)" d="M .000008871 0 L 595.32 0 L 595.32 841.92 L .000008871 841.92 Z " fill-rule="evenodd"/>
</clipPath>
<g clip-path="url(#cp6282)">
<text xml:space="preserve" transform="matrix(1 0 -0 1 0 841.92)" font-size="14.04" font-family="Times New Roman"><tspan y="-700.06" x="85.104 92.166118 99.12995 103.075199 109.19663 113.14188 120.10571">holatda</tspan></text>
</g>
<clipPath id="cp6283">
<path transform="matrix(1,0,0,-1,0,841.92)" d="M .000008871 0 L 595.32 0 L 595.32 841.92 L .000008871 841.92 Z " fill-rule="evenodd"/>
</clipPath>
<g clip-path="url(#cp6283)">
<text xml:space="preserve" transform="matrix(1 0 -0 1 0 841.92)" font-size="14.04" font-family="Times New Roman"><tspan y="-700.06" x="126.38"> </tspan></text>
</g>
<clipPath id="cp6284">
<path transform="matrix(1,0,0,-1,0,841.92)" d="M .000008871 0 L 595.32 0 L 595.32 841.92 L .000008871 841.92 Z " fill-rule="evenodd"/>
</clipPath>
<g clip-path="url(#cp6284)">
<text xml:space="preserve" transform="matrix(1 0 -0 1 0 841.92)" font-size="14.04" font-family="Times New Roman"><tspan y="-700.06" x="129.86 134.53533 140.76909 146.28682 156.97127 160.9165 167.75399 171.69922 177.93299 183.45072 190.51284 194.35979 198.30503 202.86803 209.93015 216.89398 223.12775 230.09159 234.03682 237.54682 244.56682 250.80059 254.19826 260.432 267.39585 274.35969 281.42179 284.9318 291.16557 294.98445 302.04655 309.01039 315.24415 322.20799 326.1532 329.6632 340.31959 346.55335 350.49858 357.56068 361.07069 368.09068 372.766 379.78599 383.60487 389.10853 395.3423 400.74769 406.15309 413.21519 417.8905 421.73747 427.97123 432.64656 436.4935">rasmiylashtiruvchi va chop etuvchi matn protsessorlari;</tspan></text>
</g>
<clipPath id="cp6285">
<path transform="matrix(1,0,0,-1,0,841.92)" d="M .000008871 0 L 595.32 0 L 595.32 841.92 L .000008871 841.92 Z " fill-rule="evenodd"/>
</clipPath>
<g clip-path="url(#cp6285)">
<text xml:space="preserve" transform="matrix(1 0 -0 1 0 841.92)" font-size="14.04" font-family="Times New Roman"><tspan y="-700.06" x="440.59"> </tspan></text>
</g>
</g>
<g id="Layer-1" data-name="P">
<clipPath id="cp6286">
<path transform="matrix(1,0,0,-1,0,841.92)" d="M .000008871 0 L 595.32 0 L 595.32 841.92 L .000008871 841.92 Z " fill-rule="evenodd"/>
</clipPath>
<g clip-path="url(#cp6286)">
<text xml:space="preserve" transform="matrix(1 0 -0 1 0 841.92)" font-size="14.04" font-family="Times New Roman"><tspan y="-675.94" x="121.1">&#x2013;</tspan></text>
</g>
<clipPath id="cp6287">
<path transform="matrix(1,0,0,-1,0,841.92)" d="M .000008871 0 L 595.32 0 L 595.32 841.92 L .000008871 841.92 Z " fill-rule="evenodd"/>
</clipPath>
<g clip-path="url(#cp6287)">
<text xml:space="preserve" transform="matrix(1 0 -0 1 0 841.92)" font-size="14.04" font-family="Times New Roman"><tspan y="-675.94" x="128.18"> </tspan></text>
</g>
<clipPath id="cp6288">
<path transform="matrix(1,0,0,-1,0,841.92)" d="M .000008871 0 L 595.32 0 L 595.32 841.92 L .000008871 841.92 Z " fill-rule="evenodd"/>
</clipPath>
<g clip-path="url(#cp6288)">
<text xml:space="preserve" transform="matrix(1 0 -0 1 0 841.92)" font-size="14.04" font-family="Times New Roman"><tspan y="-675.94" x="131.66 138.72212 143.28513 149.51889 154.19422 158.04117 165.10329 168.61328 179.26966 186.33177 193.39389 199.62766 204.30298 208.9783 212.83931 217.51464 221.45987 227.69364 232.25664">grafik muharrirlar;</tspan></text>
</g>
<clipPath id="cp6289">
<path transform="matrix(1,0,0,-1,0,841.92)" d="M .000008871 0 L 595.32 0 L 595.32 841.92 L .000008871 841.92 Z " fill-rule="evenodd"/>
</clipPath>
<g clip-path="url(#cp6289)">
<text xml:space="preserve" transform="matrix(1 0 -0 1 0 841.92)" font-size="14.04" font-family="Times New Roman"><tspan y="-675.94" x="236.21"> </tspan></text>
</g>
</g>
<g id="Layer-1" data-name="P">
<clipPath id="cp6290">
<path transform="matrix(1,0,0,-1,0,841.92)" d="M .000008871 0 L 595.32 0 L 595.32 841.92 L .000008871 841.92 Z " fill-rule="evenodd"/>
</clipPath>
<g clip-path="url(#cp6290)">
<text xml:space="preserve" transform="matrix(1 0 -0 1 0 841.92)" font-size="14.04" font-family="Times New Roman"><tspan y="-651.7" x="121.1">&#x2013;</tspan></text>
</g>
<clipPath id="cp6291">
<path transform="matrix(1,0,0,-1,0,841.92)" d="M .000008871 0 L 595.32 0 L 595.32 841.92 L .000008871 841.92 Z " fill-rule="evenodd"/>
</clipPath>
<g clip-path="url(#cp6291)">
<text xml:space="preserve" transform="matrix(1 0 -0 1 0 841.92)" font-size="14.04" font-family="Times New Roman"><tspan y="-651.7" x="128.18"> </tspan></text>
</g>
<clipPath id="cp6292">
<path transform="matrix(1,0,0,-1,0,841.92)" d="M .000008871 0 L 595.32 0 L 595.32 841.92 L .000008871 841.92 Z " fill-rule="evenodd"/>
</clipPath>
<g clip-path="url(#cp6292)">
<text xml:space="preserve" transform="matrix(1 0 -0 1 0 841.92)" font-size="14.04" font-family="Times New Roman"><tspan y="-651.7" x="131.66 138.62384 142.56908 147.97447 154.93831 162.00043 165.94567 172.06711 177.4725 184.53462 188.38158 194.61534 199.29067 202.80066 209.82067 215.98423 222.94806 230.01018 237.0723 240.42786 247.48998 254.45381 258.39906 264.6328 271.4843 275.0645 285.74897 292.81108 299.87318 303.8184 307.66535 314.62919 318.5744 322.0844 325.98753 332.22129 336.81239 347.49684 351.44206 358.50416 362.44938 369.51148 376.4753 382.70909 389.6729 393.61814 397.12815 400.93299 407.16676 414.13059 421.1927 427.31413 431.25935 434.76936 441.78935 446.38044 453.44255 457.2895 462.79316 468.91459 474.41825 479.82365 486.88575 491.56108 495.40803 501.64179 506.3171 510.16407">hisoblashlar uchun qulay muhitni ta&#x2019;minlovchi jadval protsessorlari;</tspan></text>
</g>
<clipPath id="cp6293">
<path transform="matrix(1,0,0,-1,0,841.92)" d="M .000008871 0 L 595.32 0 L 595.32 841.92 L .000008871 841.92 Z " fill-rule="evenodd"/>
</clipPath>
<g clip-path="url(#cp6293)">
<text xml:space="preserve" transform="matrix(1 0 -0 1 0 841.92)" font-size="14.04" font-family="Times New Roman"><tspan y="-651.7" x="514.42"> </tspan></text>
</g>
</g>
<g id="Layer-1" data-name="P">
<clipPath id="cp6294">
<path transform="matrix(1,0,0,-1,0,841.92)" d="M .000008871 0 L 595.32 0 L 595.32 841.92 L .000008871 841.92 Z " fill-rule="evenodd"/>
</clipPath>
<g clip-path="url(#cp6294)">
<text xml:space="preserve" transform="matrix(1 0 -0 1 0 841.92)" font-size="14.04" font-family="Times New Roman"><tspan y="-627.58" x="121.1">&#x2013;</tspan></text>
</g>
<clipPath id="cp6295">
<path transform="matrix(1,0,0,-1,0,841.92)" d="M .000008871 0 L 595.32 0 L 595.32 841.92 L .000008871 841.92 Z " fill-rule="evenodd"/>
</clipPath>
<g clip-path="url(#cp6295)">
<text xml:space="preserve" transform="matrix(1 0 -0 1 0 841.92)" font-size="14.04" font-family="Times New Roman"><tspan y="-627.58" x="128.18"> </tspan></text>
</g>
<clipPath id="cp6296">
<path transform="matrix(1,0,0,-1,0,841.92)" d="M .000008871 0 L 595.32 0 L 595.32 841.92 L .000008871 841.92 Z " fill-rule="evenodd"/>
</clipPath>
<g clip-path="url(#cp6296)">
<text xml:space="preserve" transform="matrix(1 0 -0 1 0 841.92)" font-size="14.04" font-family="Times New Roman"><tspan y="-627.58" x="137.3 141.14696 147.38072 154.34456 161.40668 165.35192 176.03636 183.09848 187.04372 196.02931 203.09143 206.93839 210.88362 214.73058 220.13597 227.19809 236.31005 243.27388 250.336 255.7414 259.6866 263.53358 269.76734 273.71257 279.83399 284.5093 288.45454 291.96455 301.0344 307.87187 314.10563 318.6686 325.7307 329.67594 338.7879 342.73313 348.85456 354.35823 361.32206 365.169 369.84434 373.78956 380.02333 384.69865 393.6983 400.66215 407.72425 413.12965 417.07487 421.02009 430.00569 436.9695 440.91474 444.7617 448.7069 454.1123 461.1744 464.68443 473.64195 480.70405 484.551 490.78477 495.46009 502.43797 506.38319 515.4952 521.61666 528.6788 533.35409 539.4755 546.4394 553.40328 559.5247">taqdimot qilish vositalari, ya&#x2019;ni tasvirlar hosil qilish, ularni ekranda </tspan></text>
</g>
<clipPath id="cp6297">
<path transform="matrix(1,0,0,-1,0,841.92)" d="M .000008871 0 L 595.32 0 L 595.32 841.92 L .000008871 841.92 Z " fill-rule="evenodd"/>
</clipPath>
<g clip-path="url(#cp6297)">
<text xml:space="preserve" transform="matrix(1 0 -0 1 0 841.92)" font-size="14.04" font-family="Times New Roman"><tspan y="-603.46" x="85.104 92.166118 98.39987 109.08431 116.27279 123.11027 127.05551 132.55919 139.6213 146.5711 152.69255 156.63779 160.48474 165.98842 173.05054 176.56053 183.48224 188.88764 192.83287 199.06664 205.91815 212.98027 216.9255 223.04695 227.72228 231.23227 238.15398 244.38774 251.46392 255.40915 266.0936">namoyish etish, slaydlar, anima</tspan></text>
</g>
<clipPath id="cp6298">
<path transform="matrix(1,0,0,-1,0,841.92)" d="M .000008871 0 L 595.32 0 L 595.32 841.92 L .000008871 841.92 Z " fill-rule="evenodd"/>
</clipPath>
<g clip-path="url(#cp6298)">
<text xml:space="preserve" transform="matrix(1 0 -0 1 0 841.92)" font-size="14.04" font-family="Times New Roman"><tspan y="-603.46" x="272.57 276.51524 281.92063 285.86585 292.7033 298.93708 302.44709 309.3688 314.04414 317.98936 321.93458 332.61903 336.56425 342.798 347.47334 354.43717 358.3824 364.7285 371.69233 378.5298 385.5919 390.2672 394.21244 400.4462 405.8516 412.9137 419.87754 426.1113 433.18748 443.98423 451.04634 455.6093 459.55455 463.4015 469.63526 473.58049 477.42744 483.6612 490.62504 497.68714 503.80857 510.87068 517.9328 528.6172 534.85098 541.9271 547.3325 554.2964 559.7018">tsiya, filmlar tayyorlashga mo&#x2018;ljallangan maxsus </tspan></text>
</g>
<clipPath id="cp6299">
<path transform="matrix(1,0,0,-1,0,841.92)" d="M .000008871 0 L 595.32 0 L 595.32 841.92 L .000008871 841.92 Z " fill-rule="evenodd"/>
</clipPath>
<g clip-path="url(#cp6299)">
<text xml:space="preserve" transform="matrix(1 0 -0 1 0 841.92)" font-size="14.04" font-family="Times New Roman"><tspan y="-579.34" x="85.104 92.166118 98.39987 103.805278 107.65224 114.714359 119.38968 123.23664 129.4704 134.14572">dasturlar.</tspan></text>
</g>
<clipPath id="cp6300">
<path transform="matrix(1,0,0,-1,0,841.92)" d="M .000008871 0 L 595.32 0 L 595.32 841.92 L .000008871 841.92 Z " fill-rule="evenodd"/>
</clipPath>
<g clip-path="url(#cp6300)">
<text xml:space="preserve" transform="matrix(1 0 -0 1 0 841.92)" font-size="14.04" font-family="Times New Roman"><tspan y="-579.34" x="137.54"> </tspan></text>
</g>
</g>
<g id="Layer-1" data-name="P">
<clipPath id="cp6301">
<path transform="matrix(1,0,0,-1,0,841.92)" d="M .000008871 0 L 595.32 0 L 595.32 841.92 L .000008871 841.92 Z " fill-rule="evenodd"/>
</clipPath>
<g clip-path="url(#cp6301)">
<text xml:space="preserve" transform="matrix(1 0 -0 1 0 841.92)" font-size="14.04" font-family="Times New Roman,Italic" font-style="italic"><tspan y="-555.07" x="121.1 131.18071 135.12595 138.9729 144.47658 148.66049 157.18277">Ofis AD</tspan></text>
</g>
</g>
<g id="Layer-1" data-name="P">
<clipPath id="cp6302">
<path transform="matrix(1,0,0,-1,0,841.92)" d="M .000008871 0 L 595.32 0 L 595.32 841.92 L .000008871 841.92 Z " fill-rule="evenodd"/>
</clipPath>
<g clip-path="url(#cp6302)">
<text xml:space="preserve" transform="matrix(1 0 -0 1 0 841.92)" font-size="14.04" font-family="Times New Roman,Italic" font-style="italic"><tspan y="-555.07" x="167.3">&#x0422;</tspan></text>
</g>
</g>
<g id="Layer-1" data-name="P">
<clipPath id="cp6303">
<path transform="matrix(1,0,0,-1,0,841.92)" d="M .000008871 0 L 595.32 0 L 595.32 841.92 L .000008871 841.92 Z " fill-rule="evenodd"/>
</clipPath>
<g clip-path="url(#cp6303)">
<text xml:space="preserve" transform="matrix(1 0 -0 1 0 841.92)" font-size="14.04" font-family="Times New Roman"><tspan y="-555.07" x="175.1"> </tspan></text>
</g>
</g>
<g id="Layer-1" data-name="P">
<clipPath id="cp6304">
<path transform="matrix(1,0,0,-1,0,841.92)" d="M .000008871 0 L 595.32 0 L 595.32 841.92 L .000008871 841.92 Z " fill-rule="evenodd"/>
</clipPath>
<g clip-path="url(#cp6304)">
<text xml:space="preserve" transform="matrix(1 0 -0 1 0 841.92)" font-size="14.04" font-family="Times New Roman"><tspan y="-555.07" x="179.3 183.24524 190.20908 197.2712 201.94652 208.18029 212.37824 217.05356 223.175 230.23712 234.08408 237.93103 244.76851 251.00228 254.94751 258.89274 265.95484 269.90007 273.97169 277.9169 284.03834 289.542 296.50584 303.56794 307.4149 311.26185 315.20707 322.04454 326.22846 333.29057 340.35267 345.75807 352.82017 359.784 366.01777 370.69309 374.54005 380.0437 387.00755 394.06965 398.01487 402.0865 406.0317 412.26548 416.9408 427.62525 431.57048 438.63258 442.47953 449.44337 456.50547 462.6269 469.689 473.63423 477.70585 484.76795 491.0017 496.4071 500.25407 507.31617 511.9915 515.83847 522.0722 526.7475 533.7254 537.67068 541.74227 548.8044 553.3674 559.48886">idora faoliyatini tashkiliy boshqarishni ta&#x2019;minlovchi dasturlarni o&#x2018;z </tspan></text>
</g>
</g>
<g id="Layer-1" data-name="P">
<clipPath id="cp6305">
<path transform="matrix(1,0,0,-1,0,841.92)" d="M .000008871 0 L 595.32 0 L 595.32 841.92 L .000008871 841.92 Z " fill-rule="evenodd"/>
</clipPath>
<g clip-path="url(#cp6305)">
<text xml:space="preserve" transform="matrix(1 0 -0 1 0 841.92)" font-size="14.04" font-family="Times New Roman"><tspan y="-530.95" x="85.104 89.04924 95.283 102.24683 106.093799 113.155918 119.38967 122.89967 129.83544 133.78067 139.90212 146.96424 150.90947 154.41947 157.87329 167.95401 171.80097 178.03473 182.71006 189.68795 195.9217 199.4317 206.36746 213.42958 220.26706 224.2123 231.27442 237.50818 244.47202 248.31897 252.2642 258.49797 263.17329 266.6833 273.61906 277.56428 282.2396 288.36103 295.32487 299.27009">ichiga oladi. Ularga quyidagilar kiradi:</tspan></text>
</g>
</g>
<g id="Layer-1" data-name="P">
<clipPath id="cp6306">
<path transform="matrix(1,0,0,-1,0,841.92)" d="M .000008871 0 L 595.32 0 L 595.32 841.92 L .000008871 841.92 Z " fill-rule="evenodd"/>
</clipPath>
<g clip-path="url(#cp6306)">
<text xml:space="preserve" transform="matrix(1 0 -0 1 0 841.92)" font-size="14.04" font-family="Times New Roman"><tspan y="-530.95" x="303.29"> </tspan></text>
</g>
</g>
<g id="Layer-1" data-name="P">
<clipPath id="cp6307">
<path transform="matrix(1,0,0,-1,0,841.92)" d="M .000008871 0 L 595.32 0 L 595.32 841.92 L .000008871 841.92 Z " fill-rule="evenodd"/>
</clipPath>
<g clip-path="url(#cp6307)">
<text xml:space="preserve" transform="matrix(1 0 -0 1 0 841.92)" font-size="14.04" font-family="Times New Roman"><tspan y="-506.83" x="121.1">&#x2013;</tspan></text>
</g>
<clipPath id="cp6308">
<path transform="matrix(1,0,0,-1,0,841.92)" d="M .000008871 0 L 595.32 0 L 595.32 841.92 L .000008871 841.92 Z " fill-rule="evenodd"/>
</clipPath>
<g clip-path="url(#cp6308)">
<text xml:space="preserve" transform="matrix(1 0 -0 1 0 841.92)" font-size="14.04" font-family="Times New Roman"><tspan y="-506.83" x="128.18"> </tspan></text>
</g>
<clipPath id="cp6309">
<path transform="matrix(1,0,0,-1,0,841.92)" d="M .000008871 0 L 595.32 0 L 595.32 841.92 L .000008871 841.92 Z " fill-rule="evenodd"/>
</clipPath>
<g clip-path="url(#cp6309)">
<text xml:space="preserve" transform="matrix(1 0 -0 1 0 841.92)" font-size="14.04" font-family="Times New Roman"><tspan y="-506.83" x="141.86 146.53533 152.76909 156.61605 162.84981 166.69676 173.75888 180.72272 186.95648 193.92032 197.86556 211.52648 218.36396 225.42607 232.48819 236.33515 249.99607 257.05818 261.7335 268.80964 274.93107 281.99317 288.22694 295.07844 301.3122 307.54597 312.22129 316.18055 322.4143 327.08964 330.59965 344.24653 351.08399 357.31776 361.88075 368.94285 372.88807 386.54899 390.4942 395.8996 402.9617 416.62263 423.68473 429.80616 436.77 440.7152 444.56217 451.526 455.47123 469.13215 473.80747 479.9289 483.77586 490.0096 493.95484 500.1886 505.594 512.6561 516.5031 520.44839 525.01138 532.0735 539.03738 545.2711 552.235 556.18026 559.5358">rejalovchi yoki organayzerlar, ya&#x2019;ni ish vaqtini rejalashtiruvchi, </tspan></text>
</g>
<clipPath id="cp6310">
<path transform="matrix(1,0,0,-1,0,841.92)" d="M .000008871 0 L 595.32 0 L 595.32 841.92 L .000008871 841.92 Z " fill-rule="evenodd"/>
</clipPath>
<g clip-path="url(#cp6310)">
<text xml:space="preserve" transform="matrix(1 0 -0 1 0 841.92)" font-size="14.04" font-family="Times New Roman"><tspan y="-482.71" x="85.104 92.166118 98.28755 105.34967 110.024997 116.25875 121.664157 128.62799 135.69011 142.65395 146.59918 152.83295 157.50827 164.21939 171.28151 177.51528 184.36679 191.42891 198.39275 205.35659 212.4187 223.10315 229.33692 233.28215 239.51592 244.19124 248.15053 255.11437 259.0596 262.5696 269.365 273.21195 279.4457 286.40956 293.47166 299.7054 303.55238 307.4976 313.73136 318.29435 325.25819 329.2034 336.02687 339.8738 346.9359 353.05735 360.11946 367.18156 373.30299 380.2668 384.21205 387.72206 394.51744 398.46266 404.58409 408.5293 414.76307 419.32606 426.38816 433.45027 440.16139 447.1252 453.35899 460.19648 467.03395 474.09605 480.3298 487.40596 494.46806 501.2915 508.25535 512.1023 516.04757 523.0114 530.07357 533.92056 540.1543 544.8296 548.6766 555.64047 559.4874">uchrashuvlar bayonnomalarini, jadvallarni tuzuvchi, telefon va yozuv kitoblarini </tspan></text>
</g>
<clipPath id="cp6311">
<path transform="matrix(1,0,0,-1,0,841.92)" d="M .000008871 0 L 595.32 0 L 595.32 841.92 L .000008871 841.92 Z " fill-rule="evenodd"/>
</clipPath>
<g clip-path="url(#cp6311)">
<text xml:space="preserve" transform="matrix(1 0 -0 1 0 841.92)" font-size="14.04" font-family="Times New Roman"><tspan y="-458.47" x="85.104 92.166118 96.01308 99.95832 107.02044 110.376 117.339839 124.401958 129.07727 136.0411 143.10323 149.22467 156.1885 160.13375 163.64374 170.66374 176.81327 182.31694 186.1639 193.22602 197.78902 201.63597 207.86974 212.54506">olib boruvchi dasturlar;</tspan></text>
</g>
<clipPath id="cp6312">
<path transform="matrix(1,0,0,-1,0,841.92)" d="M .000008871 0 L 595.32 0 L 595.32 841.92 L .000008871 841.92 Z " fill-rule="evenodd"/>
</clipPath>
<g clip-path="url(#cp6312)">
<text xml:space="preserve" transform="matrix(1 0 -0 1 0 841.92)" font-size="14.04" font-family="Times New Roman"><tspan y="-458.47" x="216.53"> </tspan></text>
</g>
</g>
<g id="Layer-1" data-name="P">
<clipPath id="cp6313">
<path transform="matrix(1,0,0,-1,0,841.92)" d="M .000008871 0 L 595.32 0 L 595.32 841.92 L .000008871 841.92 Z " fill-rule="evenodd"/>
</clipPath>
<g clip-path="url(#cp6313)">
<text xml:space="preserve" transform="matrix(1 0 -0 1 0 841.92)" font-size="14.04" font-family="Times New Roman"><tspan y="-434.35" x="121.1">&#x2013;</tspan></text>
</g>
<clipPath id="cp6314">
<path transform="matrix(1,0,0,-1,0,841.92)" d="M .000008871 0 L 595.32 0 L 595.32 841.92 L .000008871 841.92 Z " fill-rule="evenodd"/>
</clipPath>
<g clip-path="url(#cp6314)">
<text xml:space="preserve" transform="matrix(1 0 -0 1 0 841.92)" font-size="14.04" font-family="Times New Roman"><tspan y="-434.35" x="128.18"> </tspan></text>
</g>
<clipPath id="cp6315">
<path transform="matrix(1,0,0,-1,0,841.92)" d="M .000008871 0 L 595.32 0 L 595.32 841.92 L .000008871 841.92 Z " fill-rule="evenodd"/>
</clipPath>
<g clip-path="url(#cp6315)">
<text xml:space="preserve" transform="matrix(1 0 -0 1 0 841.92)" font-size="14.04" font-family="Times New Roman"><tspan y="-434.35" x="134.9 138.84523 145.079 149.75432 153.60128 157.54651 168.23096 175.29308 182.3552 189.06632 196.12844 202.3622 207.7676 211.61455 218.67667 223.35199 227.19895 233.43271 238.10803 241.47763 248.30107 255.13855 261.48466 266.04765 273.10975 277.05497 283.76609 290.8282 297.06196 301.62495 305.57017 309.4171 316.47923 322.60066 329.66276 336.37388 343.43598 350.3998 355.8052 362.76905 366.71427 372.94804 379.91188 386.97398 391.53697 395.48219 401.6036 408.6657 415.48918 426.1736 432.40739 436.3526">tarjimon dasturlar, ya&#x2019;ni berilgan boshlang&#x2018;ich matn</tspan></text>
</g>
<clipPath id="cp6316">
<path transform="matrix(1,0,0,-1,0,841.92)" d="M .000008871 0 L 595.32 0 L 595.32 841.92 L .000008871 841.92 Z " fill-rule="evenodd"/>
</clipPath>
<g clip-path="url(#cp6316)">
<text xml:space="preserve" transform="matrix(1 0 -0 1 0 841.92)" font-size="14.04" font-family="Times New Roman"><tspan y="-434.35" x="443.86 450.82383 454.76905 461.48017 468.444 475.5061 480.0691 484.74443 490.24809 496.48185 500.3288 504.17576 508.12098 515.1831 521.30459 528.3667 535.0778 538.9248 542.87008 546.71707 553.7792 559.90066">ni ko&#x2018;rsatilgan tilga </tspan></text>
</g>
<clipPath id="cp6317">
<path transform="matrix(1,0,0,-1,0,841.92)" d="M .000008871 0 L 595.32 0 L 595.32 841.92 L .000008871 841.92 Z " fill-rule="evenodd"/>
</clipPath>
<g clip-path="url(#cp6317)">
<text xml:space="preserve" transform="matrix(1 0 -0 1 0 841.92)" font-size="14.04" font-family="Times New Roman"><tspan y="-410.23" x="85.104 89.04924 95.283 99.95832 103.80528 107.75053 118.43497 124.668727 128.17873 135.19873 139.1861 143.03305 146.97829 152.38368 159.34752 166.40964 172.6434 176.1534 186.80977 193.87189 198.43489 202.38013 206.32537 212.55913 216.50437 220.35132 226.58509 233.54892 240.61104 246.73249 253.7946 257.3046 264.24037 270.47413">tarjima qilishga mo&#x2018;ljallangan das</tspan></text>
</g>
<clipPath id="cp6318">
<path transform="matrix(1,0,0,-1,0,841.92)" d="M .000008871 0 L 595.32 0 L 595.32 841.92 L .000008871 841.92 Z " fill-rule="evenodd"/>
</clipPath>
<g clip-path="url(#cp6318)">
<text xml:space="preserve" transform="matrix(1 0 -0 1 0 841.92)" font-size="14.04" font-family="Times New Roman"><tspan y="-410.23" x="276.05 279.9952 287.0573 291.6203 295.56553 301.7993 306.36228">turlar;</tspan></text>
</g>
<clipPath id="cp6319">
<path transform="matrix(1,0,0,-1,0,841.92)" d="M .000008871 0 L 595.32 0 L 595.32 841.92 L .000008871 841.92 Z " fill-rule="evenodd"/>
</clipPath>
<g clip-path="url(#cp6319)">
<text xml:space="preserve" transform="matrix(1 0 -0 1 0 841.92)" font-size="14.04" font-family="Times New Roman"><tspan y="-410.23" x="310.25"> </tspan></text>
</g>
</g>
<g id="Layer-1" data-name="P">
<clipPath id="cp6320">
<path transform="matrix(1,0,0,-1,0,841.92)" d="M .000008871 0 L 595.32 0 L 595.32 841.92 L .000008871 841.92 Z " fill-rule="evenodd"/>
</clipPath>
<g clip-path="url(#cp6320)">
<text xml:space="preserve" transform="matrix(1 0 -0 1 0 841.92)" font-size="14.04" font-family="Times New Roman"><tspan y="-386.09" x="121.1">&#x2013;</tspan></text>
</g>
<clipPath id="cp6321">
<path transform="matrix(1,0,0,-1,0,841.92)" d="M .000008871 0 L 595.32 0 L 595.32 841.92 L .000008871 841.92 Z " fill-rule="evenodd"/>
</clipPath>
<g clip-path="url(#cp6321)">
<text xml:space="preserve" transform="matrix(1 0 -0 1 0 841.92)" font-size="14.04" font-family="Times New Roman"><tspan y="-386.09" x="128.18"> </tspan></text>
</g>
<clipPath id="cp6322">
<path transform="matrix(1,0,0,-1,0,841.92)" d="M .000008871 0 L 595.32 0 L 595.32 841.92 L .000008871 841.92 Z " fill-rule="evenodd"/>
</clipPath>
<g clip-path="url(#cp6322)">
<text xml:space="preserve" transform="matrix(1 0 -0 1 0 841.92)" font-size="14.04" font-family="Times New Roman"><tspan y="-386.09" x="136.34 141.84368 148.90579 155.02724 162.08936 168.32312 172.88613 181.15569 187.99317 195.05529 199.7306 206.80678 213.04055 223.72499 227.67023 234.73235 240.85379 249.12335 256.18547 260.74845 267.81056 271.6575 275.50447 282.56657 288.80033 295.76417 304.03373 310.15516">skaner yordamida o&#x2018;qilgan ax</tspan></text>
</g>
<clipPath id="cp6323">
<path transform="matrix(1,0,0,-1,0,841.92)" d="M .000008871 0 L 595.32 0 L 595.32 841.92 L .000008871 841.92 Z " fill-rule="evenodd"/>
</clipPath>
<g clip-path="url(#cp6323)">
<text xml:space="preserve" transform="matrix(1 0 -0 1 0 841.92)" font-size="14.04" font-family="Times New Roman"><tspan y="-386.09" x="317.47 324.43385 331.49595 336.05894 343.12104 346.968 353.93183 357.77879 366.04835 369.99357 376.115 383.1771 387.02406 394.08616 402.22938 409.29148 413.13844 420.10227 427.16438 433.2858 440.3479 444.19486 452.46443 459.52653 465.64796 473.79118 484.58793 490.8217 494.7669 501.829 505.67597 509.6212 517.76437 521.7096 526.2726 533.3347 540.39688 546.5183 553.58047 559.7019">borotni tanib oluvchi va matnli ifodaga </tspan></text>
</g>
<clipPath id="cp6324">
<path transform="matrix(1,0,0,-1,0,841.92)" d="M .000008871 0 L 595.32 0 L 595.32 841.92 L .000008871 841.92 Z " fill-rule="evenodd"/>
</clipPath>
<g clip-path="url(#cp6324)">
<text xml:space="preserve" transform="matrix(1 0 -0 1 0 841.92)" font-size="14.04" font-family="Times New Roman"><tspan y="-361.97" x="85.104 92.166118 96.72912 102.962879 110.03903 116.27279 120.83579 124.78104 128.72628 133.28928 140.25312 147.31523 153.43668 160.4988 164.44403 167.79959 174.86171 181.09548 186.50087 190.34783 197.40995 202.08527 205.93222 212.89606 216.40605 223.42606 230.51627 235.92166 239.76862 243.71385 249.94762 253.79457 260.02833 264.70365">o&#x2018;zgartiruvchi dasturiy vositalar;</tspan></text>
</g>
<clipPath id="cp6325">
<path transform="matrix(1,0,0,-1,0,841.92)" d="M .000008871 0 L 595.32 0 L 595.32 841.92 L .000008871 841.92 Z " fill-rule="evenodd"/>
</clipPath>
<g clip-path="url(#cp6325)">
<text xml:space="preserve" transform="matrix(1 0 -0 1 0 841.92)" font-size="14.04" font-family="Times New Roman"><tspan y="-361.97" x="268.73"> </tspan></text>
</g>
</g>
<g id="Layer-1" data-name="P">
<clipPath id="cp6326">
<path transform="matrix(1,0,0,-1,0,841.92)" d="M .000008871 0 L 595.32 0 L 595.32 841.92 L .000008871 841.92 Z " fill-rule="evenodd"/>
</clipPath>
<g clip-path="url(#cp6326)">
<text xml:space="preserve" transform="matrix(1 0 -0 1 0 841.92)" font-size="14.04" font-family="Times New Roman"><tspan y="-337.73" x="121.1">&#x2013;</tspan></text>
</g>
<clipPath id="cp6327">
<path transform="matrix(1,0,0,-1,0,841.92)" d="M .000008871 0 L 595.32 0 L 595.32 841.92 L .000008871 841.92 Z " fill-rule="evenodd"/>
</clipPath>
<g clip-path="url(#cp6327)">
<text xml:space="preserve" transform="matrix(1 0 -0 1 0 841.92)" font-size="14.04" font-family="Times New Roman"><tspan y="-337.73" x="128.18"> </tspan></text>
</g>
<clipPath id="cp6328">
<path transform="matrix(1,0,0,-1,0,841.92)" d="M .000008871 0 L 595.32 0 L 595.32 841.92 L .000008871 841.92 Z " fill-rule="evenodd"/>
</clipPath>
<g clip-path="url(#cp6328)">
<text xml:space="preserve" transform="matrix(1 0 -0 1 0 841.92)" font-size="14.04" font-family="Times New Roman"><tspan y="-337.73" x="138.74 142.68524 148.919 153.59433 164.27878 171.3409 178.40302 185.36685 191.60062 198.56446 202.50969 213.05373 220.11585 226.23729 233.20113 240.16497 250.83536 261.5198 267.75358 273.27128 280.33338 285.0087 291.24247 298.22035 304.4541 315.0122 318.85917 325.92127 332.75874 336.70396 342.9377 348.4554 355.41926 362.3831 368.61686 375.693 386.23704 392.4708 399.43464 406.39848 413.46058 419.582 426.6441 430.58934 441.13337 448.0972 451.94416 455.88938 462.12315 469.19929 479.74333 484.3063 491.3684 498.20588 505.26799 511.50175 515.44699 521.5684 528.63058 535.5944 542.65658 548.778 555.7419 559.58889">tarmoqdagi uzoq masofada joylashgan abonent bilan foydalanuvchi </tspan></text>
</g>
<clipPath id="cp6329">
<path transform="matrix(1,0,0,-1,0,841.92)" d="M .000008871 0 L 595.32 0 L 595.32 841.92 L .000008871 841.92 Z " fill-rule="evenodd"/>
</clipPath>
<g clip-path="url(#cp6329)">
<text xml:space="preserve" transform="matrix(1 0 -0 1 0 841.92)" font-size="14.04" font-family="Times New Roman"><tspan y="-313.61" x="85.104 92.166118 96.84144 102.962879 108.46656 112.31352 119.37564 125.49708 132.55919 136.50443 139.85999 146.9221 151.4851 157.71887 163.95264 168.62796 175.70413 179.21413 189.8705 196.93262 200.77957 207.84169 214.80553 221.76937 225.7146 232.67844 236.62368 240.13367 244.03679 250.18631 255.5917 262.6538 269.61766 273.4646 277.40983 280.91984 287.1536 290.97248 298.03459 304.9984 311.23219 318.196 322.04298 325.55299 332.57298 339.66316 350.4599 361.14436 368.20646 375.26856 379.21379 386.27589 392.3973 396.24427 401.74794 405.59489 412.55873 419.62083 423.13084 430.15083 436.30036 441.70576 445.65098 452.71308 457.27607 461.22129 467.45506 472.13038">orasidagi o&#x2018;zaro muloqotni tashkil etuvchi kommunikatsion dasturlar.</tspan></text>
</g>
<clipPath id="cp6330">
<path transform="matrix(1,0,0,-1,0,841.92)" d="M .000008871 0 L 595.32 0 L 595.32 841.92 L .000008871 841.92 Z " fill-rule="evenodd"/>
</clipPath>
<g clip-path="url(#cp6330)">
<text xml:space="preserve" transform="matrix(1 0 -0 1 0 841.92)" font-size="14.04" font-family="Times New Roman"><tspan y="-313.61" x="475.9"> </tspan></text>
</g>
</g>
<g id="Layer-1" data-name="P">
<clipPath id="cp6331">
<path transform="matrix(1,0,0,-1,0,841.92)" d="M .000008871 0 L 595.32 0 L 595.32 841.92 L .000008871 841.92 Z " fill-rule="evenodd"/>
</clipPath>
<g clip-path="url(#cp6331)">
<text xml:space="preserve" transform="matrix(1 0 -0 1 0 841.92)" font-size="14.04" font-family="Times New Roman,Italic" font-style="italic"><tspan y="-289.49" x="121.1 130.46468 134.40991 140.53136 147.59348 151.53871 157.77248 170.60503 177.66715 184.63098 190.03638 197.0985 202.50389 206.44913 212.57057 219.63269 223.57793 236.5228 240.36975 244.31499 249.72039 253.66562 263.74635 267.5933 274.6554 280.0608">Kichik nashriyot tizimlari</tspan></text>
</g>
<clipPath id="cp6332">
<path transform="matrix(1,0,0,-1,0,841.92)" d="M .000008871 0 L 595.32 0 L 595.32 841.92 L .000008871 841.92 Z " fill-rule="evenodd"/>
</clipPath>
<g clip-path="url(#cp6332)">
<text xml:space="preserve" transform="matrix(1 0 -0 1 0 841.92)" font-size="14.04" font-family="Times New Roman"><tspan y="-289.49" x="284.21"> </tspan></text>
</g>
<clipPath id="cp6333">
<path transform="matrix(1,0,0,-1,0,841.92)" d="M .000008871 0 L 595.32 0 L 595.32 841.92 L .000008871 841.92 Z " fill-rule="evenodd"/>
</clipPath>
<g clip-path="url(#cp6333)">
<text xml:space="preserve" transform="matrix(1 0 -0 1 0 841.92)" font-size="14.04" font-family="Times New Roman"><tspan y="-289.49" x="297.17 304.13386 311.19596 318.25807 328.9425 336.0046 342.84208 349.90419 353.8494 359.97084 364.64616 368.59138 372.5366 385.36918 392.43128 398.66505 404.07044 411.13255 415.69554 419.64076 426.4782 433.5403 437.48554 450.43043 455.10575 461.3395 468.31739 472.2626 476.10957 482.94703 489.1808 493.126 497.07124 504.03507 516.98 523.21377 530.2899 537.35208 544.3159 548.9912 555.8428 559.68978">&#x00ab;kompyuterli nashriyot faoliyati&#x00bb; axborot </tspan></text>
</g>
<clipPath id="cp6334">
<path transform="matrix(1,0,0,-1,0,841.92)" d="M .000008871 0 L 595.32 0 L 595.32 841.92 L .000008871 841.92 Z " fill-rule="evenodd"/>
</clipPath>
<g clip-path="url(#cp6334)">
<text xml:space="preserve" transform="matrix(1 0 -0 1 0 841.92)" font-size="14.04" font-family="Times New Roman"><tspan y="-265.37" x="85.104 89.04924 95.283 102.24683 109.21067 116.27279 120.11975 127.08359 134.1457 138.09095 144.92842 151.16219 156.67992 160.52687 167.4907 171.43595 181.61495 185.56018 191.79395 196.35695 207.15372 211.09896 218.06279 222.00803 228.24179 235.0933 242.15543 246.10066 249.61066 259.76158 270.446 276.67979 280.625 287.6871 294.65095 298.59617 308.66285 315.72496 319.67018 325.7916 332.8537 336.79893 347.48338 354.54548 360.77925 370.9723 376.3777 383.4398 387.28675 391.23197 396.63737 403.69947 413.76615 420.82826 427.062 437.1287 441.0739 447.19535 454.25746 458.93278 462.77973 467.45506 471.40028 477.5217 482.9271 489.9892 493.4992 503.65016 509.8839 516.8478 520.69479 527.7569 538.4413 544.67507 548.6203 552.4673 559.43118">texnologiyasini ta&#x2019;minlaydi, matnni bichimga solish va tahrirlash, avtomatik </tspan></text>
</g>
<clipPath id="cp6335">
<path transform="matrix(1,0,0,-1,0,841.92)" d="M .000008871 0 L 595.32 0 L 595.32 841.92 L .000008871 841.92 Z " fill-rule="evenodd"/>
</clipPath>
<g clip-path="url(#cp6335)">
<text xml:space="preserve" transform="matrix(1 0 -0 1 0 841.92)" font-size="14.04" font-family="Times New Roman"><tspan y="-241.13" x="85.104 89.77932 96.01308 102.99095 106.936199 112.3416 119.305438 126.36755 132.60132 139.7898 146.85192 152.97336 156.9186 160.76555 166.99932 171.67464 178.65253 184.88629 192.07477 198.30854 202.15549 206.83081 213.06458 217.02387 220.87082 226.27622 233.33834 236.84833 244.00873 251.07085 257.19227 261.13749 268.32597 275.2898 282.3519 287.7573 294.8194 298.66636 304.90013 309.57545 313.4224 320.38624 324.2332 331.534 338.37147 344.60523 349.28056 355.5143 359.47358 363.32054 368.8242 375.8863 379.3963 386.5567 391.23204 397.35346 404.41557 411.3794 415.22636 419.17158 426.36006 433.42216 438.09748 444.2189 448.89424 452.83946 459.80329 466.03706 473.0009 476.9461 484.13459 494.81904 501.0528 504.99803 512.0601 519.2486 526.3107 530.986 537.2198 542.6252 546.47219 553.43606 559.5575">ravishda betlarga ajratish, xat boshlarini yaratish, rangli grafikani matn orasiga </tspan></text>
</g>
<clipPath id="cp6336">
<path transform="matrix(1,0,0,-1,0,841.92)" d="M .000008871 0 L 595.32 0 L 595.32 841.92 L .000008871 841.92 Z " fill-rule="evenodd"/>
</clipPath>
<g clip-path="url(#cp6336)">
<text xml:space="preserve" transform="matrix(1 0 -0 1 0 841.92)" font-size="14.04" font-family="Times New Roman"><tspan y="-216.98" x="85.104 92.166118 99.22823 103.79124 110.628719 114.57396 120.077648 127.13976 130.64977 137.58553 143.81929 147.32929 154.26505 161.32717 168.291 174.52477 180.64621 187.70833 191.65357 197.77501 202.33802 209.40013 213.34537 216.70093 223.76305 229.99681 233.84377 240.07753 244.75286 250.88834 257.95045 261.89567">qo&#x2018;yish va hokazolarni bajaradi.</tspan></text>
</g>
<clipPath id="cp6337">
<path transform="matrix(1,0,0,-1,0,841.92)" d="M .000008871 0 L 595.32 0 L 595.32 841.92 L .000008871 841.92 Z " fill-rule="evenodd"/>
</clipPath>
<g clip-path="url(#cp6337)">
<text xml:space="preserve" transform="matrix(1 0 -0 1 0 841.92)" font-size="14.04" font-family="Times New Roman"><tspan y="-216.98" x="265.49"> </tspan></text>
</g>
</g>
<g id="Layer-1" data-name="P">
<clipPath id="cp6338">
<path transform="matrix(1,0,0,-1,0,841.92)" d="M .000008871 0 L 595.32 0 L 595.32 841.92 L .000008871 841.92 Z " fill-rule="evenodd"/>
</clipPath>
<g clip-path="url(#cp6338)">
<text xml:space="preserve" transform="matrix(1 0 -0 1 0 841.92)" font-size="14.04" font-family="Times New Roman,Italic" font-style="italic"><tspan y="-192.86" x="121.1 132.73915 139.80127 143.64823 147.59346 151.5387 161.61942 167.74086 174.80298 178.64994 185.71205 190.73838 197.80049 204.76433 210.16973 214.11496 221.0788 226.58248 230.42943 236.6632">Multimedia dasturiy </tspan></text>
</g>
<clipPath id="cp6339">
<path transform="matrix(1,0,0,-1,0,841.92)" d="M .000008871 0 L 595.32 0 L 595.32 841.92 L .000008871 841.92 Z " fill-rule="evenodd"/>
</clipPath>
<g clip-path="url(#cp6339)">
<text xml:space="preserve" transform="matrix(1 0 -0 1 0 841.92)" font-size="14.04" font-family="Times New Roman,Italic" font-style="italic"><tspan y="-192.86" x="241.85 248.08377 255.15995 260.56535 264.4123 268.3575 275.32136 279.1683 286.2304 291.6358">vositalari</tspan></text>
</g>
<clipPath id="cp6340">
<path transform="matrix(1,0,0,-1,0,841.92)" d="M .000008871 0 L 595.32 0 L 595.32 841.92 L .000008871 841.92 Z " fill-rule="evenodd"/>
</clipPath>
<g clip-path="url(#cp6340)">
<text xml:space="preserve" transform="matrix(1 0 -0 1 0 841.92)" font-size="14.04" font-family="Times New Roman"><tspan y="-192.86" x="295.61"> </tspan></text>
</g>
<clipPath id="cp6341">
<path transform="matrix(1,0,0,-1,0,841.92)" d="M .000008871 0 L 595.32 0 L 595.32 841.92 L .000008871 841.92 Z " fill-rule="evenodd"/>
</clipPath>
<g clip-path="url(#cp6341)">
<text xml:space="preserve" transform="matrix(1 0 -0 1 0 841.92)" font-size="14.04" font-family="Times New Roman"><tspan y="-192.86" x="300.77 307.73384 313.9676 319.373 323.21995 330.28205 334.95738 338.9026 345.74006 351.00508 361.80183 368.03559 375.11174 380.51713 387.48097 391.42619 398.39 402.23698 406.1822 412.41596 416.97895 424.04106 427.888 434.9501 441.91395 447.06663 454.03047 457.97569 463.38108 470.44319 476.5646 480.41157 486.64533 493.72148 498.87416 505.7116 511.94538 519.02157 525.9854 529.93069 535.0834 540.4888 544.33578 551.3979 555.9609 559.80789">dasturiy mahsulotlarning nisbatan yangi sinfi </tspan></text>
</g>
<clipPath id="cp6342">
<path transform="matrix(1,0,0,-1,0,841.92)" d="M .000008871 0 L 595.32 0 L 595.32 841.92 L .000008871 841.92 Z " fill-rule="evenodd"/>
</clipPath>
<g clip-path="url(#cp6342)">
<text xml:space="preserve" transform="matrix(1 0 -0 1 0 841.92)" font-size="14.04" font-family="Times New Roman"><tspan y="-168.74" x="85.104 92.166118 96.01308 101.41848 108.4806 115.444438 119.38968 125.511119 132.57323 138.80699 145.77083 149.71607 153.22606 156.77817 166.85889 170.43909 181.12354 187.3573 191.9203 195.86554 202.92766 213.6121 220.67423 224.61946 228.5647 234.79846 239.47379 246.45168 250.39691 253.9069 260.9269 267.16069 274.04026 277.98548 284.21925 287.81349 291.66044 297.1641 304.12794 308.07316 314.19459 319.59999 326.66209 330.24229 340.92674 347.98884 355.05094 358.8979 362.8431 366.69007 373.75218 377.59913 384.56297 391.62507 395.13508 402.15507 406.74617 412.97993 420.05607 426.28984 430.8528 434.79804 440.20344 447.26554 451.21076 454.72077 458.17463 462.11985 468.3536 474.47505 480.7088 485.38414 489.23109 493.1763 496.6863 503.7063 507.6094 512.9727 520.03488 523.9801 530.10159 534.77688 541.7407 545.686 552.64987 559.48739">hisoblanadi. U ma&#x2019;lumotlarni qayta ishlash muhitining o&#x2018;zgarishi, lazerli disklarning </tspan></text>
</g>
<clipPath id="cp6343">
<path transform="matrix(1,0,0,-1,0,841.92)" d="M .000008871 0 L 595.32 0 L 595.32 841.92 L .000008871 841.92 Z " fill-rule="evenodd"/>
</clipPath>
<g clip-path="url(#cp6343)">
<text xml:space="preserve" transform="matrix(1 0 -0 1 0 841.92)" font-size="14.04" font-family="Times New Roman"><tspan y="-144.5" x="85.104 92.166118 98.39987 105.25139 112.31351 119.375629 123.55955 130.62166 137.68378 142.24678 146.09374 150.03897 155.44437 162.50649 166.45172 169.96172 174.24391 184.92836 191.16213 195.72513 199.67037 206.73249 217.41693 224.47905 228.42429 232.36952 238.60329 243.27861 250.2565 254.20174 261.1656 268.2277 272.41163 276.35685 282.5906 287.26594 297.95039 305.01249 312.0746 315.92155 319.86677 324.0507 327.89765 334.1314 341.09526 348.15736 355.1212 359.0664 366.03025 372.99409 376.9393 383.77677 390.01054 393.95576 400.1895 404.86485 408.7118 415.7739 419.62086 426.5847 433.6468 437.9571 442.52009 446.36705 453.42915 460.49125 464.3382 468.18516 474.4189 481.38276 485.2297 490.73338 497.6972 501.64244 505.82637 512.8885 519.12228 522.96926 526.9145 530.7615 536.99526 542.40066 546.2476 553.30978 559.4312">paydo bo&#x2018;lishi, ma&#x2019;lumotlarning tarmoqli texnologiyalarining rivojlanishi natijasida </tspan></text>
</g>
<clipPath id="cp6344">
<path transform="matrix(1,0,0,-1,0,841.92)" d="M .000008871 0 L 595.32 0 L 595.32 841.92 L .000008871 841.92 Z " fill-rule="evenodd"/>
</clipPath>
<g clip-path="url(#cp6344)">
<text xml:space="preserve" transform="matrix(1 0 -0 1 0 841.92)" font-size="14.04" font-family="Times New Roman"><tspan y="-120.38" x="85.104 90.60768 97.6698 103.79124 110.75507 114.70032 118.54728 124.78104 131.74488 138.80699 142.75223">shakllandi.</tspan></text>
</g>
<clipPath id="cp6345">
<path transform="matrix(1,0,0,-1,0,841.92)" d="M .000008871 0 L 595.32 0 L 595.32 841.92 L .000008871 841.92 Z " fill-rule="evenodd"/>
</clipPath>
<g clip-path="url(#cp6345)">
<text xml:space="preserve" transform="matrix(1 0 -0 1 0 841.92)" font-size="14.04" font-family="Times New Roman"><tspan y="-120.38" x="146.18"> </tspan></text>
</g>
</g>
<g id="Layer-1" data-name="P">
<clipPath id="cp6346">
<path transform="matrix(1,0,0,-1,0,841.92)" d="M .000008871 0 L 595.32 0 L 595.32 841.92 L .000008871 841.92 Z " fill-rule="evenodd"/>
</clipPath>
<g clip-path="url(#cp6346)">
<text xml:space="preserve" transform="matrix(1 0 -0 1 0 841.92)" font-size="14.04" font-family="Times New Roman,Italic" font-style="italic"><tspan y="-96.264" x="121.1 128.16211 135.12595 142.18807 146.75107 150.6963 156.93007 162.32143 166.16838 173.2305 177.07746 183.31122 187.15818 191.10341 197.33718 203.45862">Sun&#x2019;iy intellekt</tspan></text>
</g>
<clipPath id="cp6347">
<path transform="matrix(1,0,0,-1,0,841.92)" d="M .000008871 0 L 595.32 0 L 595.32 841.92 L .000008871 841.92 Z " fill-rule="evenodd"/>
</clipPath>
<g clip-path="url(#cp6347)">
<text xml:space="preserve" transform="matrix(1 0 -0 1 0 841.92)" font-size="14.04" font-family="Times New Roman,Italic" font-style="italic"><tspan y="-96.264" x="207.53"> </tspan></text>
</g>
<clipPath id="cp6348">
<path transform="matrix(1,0,0,-1,0,841.92)" d="M .000008871 0 L 595.32 0 L 595.32 841.92 L .000008871 841.92 Z " fill-rule="evenodd"/>
</clipPath>
<g clip-path="url(#cp6348)">
<text xml:space="preserve" transform="matrix(1 0 -0 1 0 841.92)" font-size="14.04" font-family="Times New Roman,Italic" font-style="italic"><tspan y="-96.264" x="212.93 216.77695 220.72219 226.12758 230.07282 240.02718 243.97241 250.93625 256.4399 260.38514">tizimlari.</tspan></text>
</g>
<clipPath id="cp6349">
<path transform="matrix(1,0,0,-1,0,841.92)" d="M .000008871 0 L 595.32 0 L 595.32 841.92 L .000008871 841.92 Z " fill-rule="evenodd"/>
</clipPath>
<g clip-path="url(#cp6349)">
<text xml:space="preserve" transform="matrix(1 0 -0 1 0 841.92)" font-size="14.04" font-family="Times New Roman"><tspan y="-96.264" x="263.93"> </tspan></text>
</g>
<clipPath id="cp6350">
<path transform="matrix(1,0,0,-1,0,841.92)" d="M .000008871 0 L 595.32 0 L 595.32 841.92 L .000008871 841.92 Z " fill-rule="evenodd"/>
</clipPath>
<g clip-path="url(#cp6350)">
<text xml:space="preserve" transform="matrix(1 0 -0 1 0 841.92)" font-size="14.04" font-family="Times New Roman"><tspan y="-96.264" x="269.33 278.5683 285.6304 291.02177 296.42716 303.48927 310.4531 316.68687 323.6507 329.88447 336.8483 340.79353 346.18489 350.1301 356.25154 360.09849 366.33226 373.4084 377.25535 382.66075 389.72285 393.5698 399.80357 404.47889 411.45677 415.40199 420.79335 424.6403 431.7024 436.26539 440.9407 444.88594 450.27729 457.11476 464.17686 468.73985 475.80195 482.0357 485.98094 489.82789 495.33155 502.29539 509.35749 515.59127 520.8703 527.93246 534.99459 539.55758 543.40457 547.3498 552.7552 559.71908">Bu sohadagi izlanishlarni to&#x2018;rt yo&#x2018;nalishga bo&#x2018;lish </tspan></text>
</g>
<clipPath id="cp6351">
<path transform="matrix(1,0,0,-1,0,841.92)" d="M .000008871 0 L 595.32 0 L 595.32 841.92 L .000008871 841.92 Z " fill-rule="evenodd"/>
</clipPath>
<g clip-path="url(#cp6351)">
<text xml:space="preserve" transform="matrix(1 0 -0 1 0 841.92)" font-size="14.04" font-family="Times New Roman"><tspan y="-72.144" x="85.104 95.78844 102.97691 113.661357 120.72347 124.66872 131.73084">mumkin:</tspan></text>
</g>
<clipPath id="cp6352">
<path transform="matrix(1,0,0,-1,0,841.92)" d="M .000008871 0 L 595.32 0 L 595.32 841.92 L .000008871 841.92 Z " fill-rule="evenodd"/>
</clipPath>
<g clip-path="url(#cp6352)">
<text xml:space="preserve" transform="matrix(1 0 -0 1 0 841.92)" font-size="14.04" font-family="Times New Roman"><tspan y="-72.144" x="135.62"> </tspan></text>
</g>
</g>
</g>
</g>
</svg>
