<?xml version="1.0" encoding="UTF-8" standalone="no"?>
<!DOCTYPE svg PUBLIC "-//W3C//DTD SVG 1.1//EN" "http://www.w3.org/Graphics/SVG/1.1/DTD/svg11.dtd">
<svg xmlns="http://www.w3.org/2000/svg" xmlns:xlink="http://www.w3.org/1999/xlink" version="1.1" width="595.32pt" height="841.92pt" viewBox="0 0 595.32 841.92">
<g enable-background="new">
<g>
<g id="Layer-1" data-name="Artifact">
<clipPath id="cp446">
<path transform="matrix(1,0,0,-1,0,841.92)" d="M .000008871 0 L 595.32 0 L 595.32 841.92 L .000008871 841.92 Z " fill-rule="evenodd"/>
</clipPath>
<g clip-path="url(#cp446)">
<text xml:space="preserve" transform="matrix(1 0 -0 1 0 841.92)" font-size="11.04" font-family="Calibri"><tspan y="-51.864" x="316.15">5</tspan></text>
</g>
<clipPath id="cp447">
<path transform="matrix(1,0,0,-1,0,841.92)" d="M .000008871 0 L 595.32 0 L 595.32 841.92 L .000008871 841.92 Z " fill-rule="evenodd"/>
</clipPath>
<g clip-path="url(#cp447)">
<text xml:space="preserve" transform="matrix(1 0 -0 1 0 841.92)" font-size="11.04" font-family="Calibri"><tspan y="-51.864" x="321.79"> </tspan></text>
</g>
<clipPath id="cp448">
<path transform="matrix(1,0,0,-1,0,841.92)" d="M .000008871 0 L 595.32 0 L 595.32 841.92 L .000008871 841.92 Z " fill-rule="evenodd"/>
</clipPath>
<g clip-path="url(#cp448)">
</g>
<clipPath id="cp449">
<path transform="matrix(1,0,0,-1,0,841.92)" d="M .000008871 0 L 595.32 0 L 595.32 841.92 L .000008871 841.92 Z " fill-rule="evenodd"/>
</clipPath>
<g clip-path="url(#cp449)">
<text xml:space="preserve" transform="matrix(1 0 -0 1 0 841.92)" font-size="11.04" font-family="Calibri"><tspan y="-38.4" x="85.104"> </tspan></text>
</g>
<clipPath id="cp450">
<path transform="matrix(1,0,0,-1,0,841.92)" d="M .000008871 0 L 595.32 0 L 595.32 841.92 L .000008871 841.92 Z " fill-rule="evenodd"/>
</clipPath>
<g clip-path="url(#cp450)">
</g>
</g>
<g id="Layer-1" data-name="P">
<clipPath id="cp451">
<path transform="matrix(1,0,0,-1,0,841.92)" d="M .000008871 0 L 595.32 0 L 595.32 841.92 L .000008871 841.92 Z " fill-rule="evenodd"/>
</clipPath>
<g clip-path="url(#cp451)">
<text xml:space="preserve" transform="matrix(1 0 -0 1 0 841.92)" font-size="14.04" font-family="Times New Roman"><tspan y="-772.56" x="121.1 131.18071 135.74372 142.80583 149.86795 156.93007 173.83423 180.79807 187.86019 192.42319 196.36843 200.31366 206.4351 213.49723 224.18167 230.52776">O&#x2019;quv qo&#x2019;llanma </tspan></text>
</g>
<clipPath id="cp452">
<path transform="matrix(1,0,0,-1,0,841.92)" d="M .000008871 0 L 595.32 0 L 595.32 841.92 L .000008871 841.92 Z " fill-rule="evenodd"/>
</clipPath>
<g clip-path="url(#cp452)">
<text xml:space="preserve" transform="matrix(1 0 -0 1 0 841.92)" font-size="14.04" font-family="Times New Roman"><tspan y="-772.56" x="247.61 251.55524 257.789 261.73423 267.85566 274.91777 281.15153 284.99848 291.23225 295.90757 302.88545 306.7324 313.7945 320.8566">talabalarning </tspan></text>
</g>
<clipPath id="cp453">
<path transform="matrix(1,0,0,-1,0,841.92)" d="M .000008871 0 L 595.32 0 L 595.32 841.92 L .000008871 841.92 Z " fill-rule="evenodd"/>
</clipPath>
<g clip-path="url(#cp453)">
<text xml:space="preserve" transform="matrix(1 0 -0 1 0 841.92)" font-size="14.04" font-family="Times New Roman"><tspan y="-772.56" x="337.87 343.99143 350.95527 358.01737 365.07948 369.64247 376.6063 380.5515 397.4557 401.4009 407.52235 414.58445 421.54829 428.61039 432.45735 439.42118 446.48329 450.4285 457.26597 463.49974 467.44496 473.56639 478.2417 482.18693">axborot texnologiyalari </tspan></text>
</g>
<clipPath id="cp454">
<path transform="matrix(1,0,0,-1,0,841.92)" d="M .000008871 0 L 595.32 0 L 595.32 841.92 L .000008871 841.92 Z " fill-rule="evenodd"/>
</clipPath>
<g clip-path="url(#cp454)">
<text xml:space="preserve" transform="matrix(1 0 -0 1 0 841.92)" font-size="14.04" font-family="Times New Roman"><tspan y="-772.56" x="499.3 505.53376 510.93916 518.0013 523.4067 527.3519 533.5857 538.1487 542.09396 549.0578 552.9048">asoslarini </tspan></text>
</g>
<clipPath id="cp455">
<path transform="matrix(1,0,0,-1,0,841.92)" d="M .000008871 0 L 595.32 0 L 595.32 841.92 L .000008871 841.92 Z " fill-rule="evenodd"/>
</clipPath>
<g clip-path="url(#cp455)">
<text xml:space="preserve" transform="matrix(1 0 -0 1 0 841.92)" font-size="14.04" font-family="Times New Roman"><tspan y="-748.3" x="85.104">o</tspan></text>
</g>
<clipPath id="cp456">
<path transform="matrix(1,0,0,-1,0,841.92)" d="M .000008871 0 L 595.32 0 L 595.32 841.92 L .000008871 841.92 Z " fill-rule="evenodd"/>
</clipPath>
<g clip-path="url(#cp456)">
<text xml:space="preserve" transform="matrix(1 0 -0 1 0 841.92)" font-size="14.04" font-family="Times New Roman"><tspan y="-748.3" x="92.184">&#x2018;</tspan></text>
</g>
<clipPath id="cp457">
<path transform="matrix(1,0,0,-1,0,841.92)" d="M .000008871 0 L 595.32 0 L 595.32 841.92 L .000008871 841.92 Z " fill-rule="evenodd"/>
</clipPath>
<g clip-path="url(#cp457)">
<text xml:space="preserve" transform="matrix(1 0 -0 1 0 841.92)" font-size="14.04" font-family="Times New Roman"><tspan y="-748.3" x="96.744 102.97776 106.923007 113.15676 118.562168 125.526 129.47124 133.41648 137.97948 141.82643 147.33011 154.29395 158.23918 164.47295 169.03595 172.98119 177.53014 184.59226 190.82602">zlashtirishlari va </tspan></text>
</g>
<clipPath id="cp458">
<path transform="matrix(1,0,0,-1,0,841.92)" d="M .000008871 0 L 595.32 0 L 595.32 841.92 L .000008871 841.92 Z " fill-rule="evenodd"/>
</clipPath>
<g clip-path="url(#cp458)">
<text xml:space="preserve" transform="matrix(1 0 -0 1 0 841.92)" font-size="14.04" font-family="Times New Roman"><tspan y="-748.3" x="195.53 206.32677 213.38889 217.33412 223.45557 230.51769 236.63913 242.04453 247.5482 251.39516 256.89884 260.7458 264.59275 271.65486 276.31614 287.00059 293.23435 298.75205 304.9858 308.93104 315.05247 318.99769 325.1191 329.79444 333.73966 340.7035 344.6487 349.1977 356.03517 362.26893 368.5027 375.57884 379.52406 384.92945 391.89329 398.95539 405.18916 409.73814 415.85957 422.92167 429.8855 436.9476 441.5106 448.5727 452.5179 457.0669 460.91386 467.1476 474.11146 481.0753 488.1374 491.98435 498.94819 506.01029 509.9555 516.793 523.0268 526.97207 533.2058 537.7688 541.71408 548.6779 552.5249">mutaxassislik masalalarini yechishda axborot texnologiyalarini </tspan></text>
</g>
<clipPath id="cp459">
<path transform="matrix(1,0,0,-1,0,841.92)" d="M .000008871 0 L 595.32 0 L 595.32 841.92 L .000008871 841.92 Z " fill-rule="evenodd"/>
</clipPath>
<g clip-path="url(#cp459)">
<text xml:space="preserve" transform="matrix(1 0 -0 1 0 841.92)" font-size="14.04" font-family="Times New Roman"><tspan y="-724.18" x="85.104 92.166118 99.22823 103.79124 107.6382 111.58344 117.8172 123.2226 130.28472 133.79471 143.46826 147.31522 152.72061 159.78273 163.62969 169.86345 176.93962 186.64125 192.7627 199.72653 203.57349 210.6356 216.86937 221.43238 225.37761 230.783 237.84513 247.54676 258.2312 264.46498 269.98268 276.21644 280.16166 286.39543 290.24238 296.47615 301.15147 304.9984 311.96226 315.90748 325.4968 336.29356 342.5273 346.47254 352.7063 363.39076 369.6245 373.56974 377.51496 384.57707 394.27873 404.96318 412.02528 419.08738 425.32115 429.26637 433.1133 439.34709 444.75248 451.81459 455.66154 459.60676 464.16975 468.11497 473.52037 480.58247 490.28413 497.24797 502.65336 509.71546 513.56246 517.5077 523.74148 528.30447 532.2497 539.21359 545.4473 552.4112">qo&#x2019;llash, ishlab chiqarish masalalarini matematik modellashtirish usullaridan </tspan></text>
</g>
<clipPath id="cp460">
<path transform="matrix(1,0,0,-1,0,841.92)" d="M .000008871 0 L 595.32 0 L 595.32 841.92 L .000008871 841.92 Z " fill-rule="evenodd"/>
</clipPath>
<g clip-path="url(#cp460)">
<text xml:space="preserve" transform="matrix(1 0 -0 1 0 841.92)" font-size="14.04" font-family="Times New Roman"><tspan y="-700.06" x="85.104 89.77932 96.85548 103.692958 110.75507 116.98883 120.934078 127.05551 134.11763 137.96459 145.0267 151.73783 158.5753 164.80907 171.04283 178.119 182.06424 187.46964 194.53176 201.24288 208.305 214.53876 221.24988 226.65528 233.71739 240.77951 246.90096 253.96308 260.19685 266.90797 273.0294 280.0915 287.05534 294.11744 298.68043 305.74253 309.68775 316.39888 320.24583 326.47959 333.44343 340.50553 347.46937 351.41459 358.37843 365.34226 369.28749 376.12495 382.3587 386.30393 392.5377 397.213 401.05998 408.12208 412.0673">foydalanib yechish va sohaga axborot texnologiyalarini </tspan></text>
</g>
<clipPath id="cp461">
<path transform="matrix(1,0,0,-1,0,841.92)" d="M .000008871 0 L 595.32 0 L 595.32 841.92 L .000008871 841.92 Z " fill-rule="evenodd"/>
</clipPath>
<g clip-path="url(#cp461)">
<text xml:space="preserve" transform="matrix(1 0 -0 1 0 841.92)" font-size="14.04" font-family="Times New Roman"><tspan y="-700.06" x="419.23 423.07698 429.31074 433.15769">tatb</tspan></text>
</g>
<clipPath id="cp462">
<path transform="matrix(1,0,0,-1,0,841.92)" d="M .000008871 0 L 595.32 0 L 595.32 841.92 L .000008871 841.92 Z " fill-rule="evenodd"/>
</clipPath>
<g clip-path="url(#cp462)">
<text xml:space="preserve" transform="matrix(1 0 -0 1 0 841.92)" font-size="14.04" font-family="Times New Roman"><tspan y="-700.06" x="440.11 444.07">iq</tspan></text>
</g>
<clipPath id="cp463">
<path transform="matrix(1,0,0,-1,0,841.92)" d="M .000008871 0 L 595.32 0 L 595.32 841.92 L .000008871 841.92 Z " fill-rule="evenodd"/>
</clipPath>
<g clip-path="url(#cp463)">
<text xml:space="preserve" transform="matrix(1 0 -0 1 0 841.92)" font-size="14.04" font-family="Times New Roman"><tspan y="-700.06" x="451.18"> </tspan></text>
</g>
<clipPath id="cp464">
<path transform="matrix(1,0,0,-1,0,841.92)" d="M .000008871 0 L 595.32 0 L 595.32 841.92 L .000008871 841.92 Z " fill-rule="evenodd"/>
</clipPath>
<g clip-path="url(#cp464)">
<text xml:space="preserve" transform="matrix(1 0 -0 1 0 841.92)" font-size="14.04" font-family="Times New Roman"><tspan y="-700.06" x="457.9 464.13377 467.9807 471.82768 477.33134 484.39344 491.10456 498.0684 504.30216 514.9866 522.0487 528.2825">etish hamda </tspan></text>
</g>
<clipPath id="cp465">
<path transform="matrix(1,0,0,-1,0,841.92)" d="M .000008871 0 L 595.32 0 L 595.32 841.92 L .000008871 841.92 Z " fill-rule="evenodd"/>
</clipPath>
<g clip-path="url(#cp465)">
<text xml:space="preserve" transform="matrix(1 0 -0 1 0 841.92)" font-size="14.04" font-family="Times New Roman"><tspan y="-700.06" x="535.06">o</tspan></text>
</g>
<clipPath id="cp466">
<path transform="matrix(1,0,0,-1,0,841.92)" d="M .000008871 0 L 595.32 0 L 595.32 841.92 L .000008871 841.92 Z " fill-rule="evenodd"/>
</clipPath>
<g clip-path="url(#cp466)">
<text xml:space="preserve" transform="matrix(1 0 -0 1 0 841.92)" font-size="14.04" font-family="Times New Roman"><tspan y="-700.06" x="542.14">&#x2018;</tspan></text>
</g>
<clipPath id="cp467">
<path transform="matrix(1,0,0,-1,0,841.92)" d="M .000008871 0 L 595.32 0 L 595.32 841.92 L .000008871 841.92 Z " fill-rule="evenodd"/>
</clipPath>
<g clip-path="url(#cp467)">
<text xml:space="preserve" transform="matrix(1 0 -0 1 0 841.92)" font-size="14.04" font-family="Times New Roman"><tspan y="-700.06" x="546.7 552.94">z </tspan></text>
</g>
<clipPath id="cp468">
<path transform="matrix(1,0,0,-1,0,841.92)" d="M .000008871 0 L 595.32 0 L 595.32 841.92 L .000008871 841.92 Z " fill-rule="evenodd"/>
</clipPath>
<g clip-path="url(#cp468)">
<text xml:space="preserve" transform="matrix(1 0 -0 1 0 841.92)" font-size="14.04" font-family="Times New Roman"><tspan y="-675.94" x="85.104 92.166118 98.39987 103.805278 110.76911 114.714359 121.551837 127.420558 132.09587 138.32964 145.4058 149.35105 153.29628 160.13376 166.36753 170.21448 174.15972 180.39348 185.0688 188.91576 195.97788 202.09932 207.96804 212.64336 219.71953 226.557 233.61913 239.85289 243.79813 249.91957 256.9817 263.21546 268.97187 276.03398 279.88093 283.82615 289.23155 296.29365 302.16239 312.84684 319.0806 323.02583 329.25959 336.33573 342.5695 348.3259 355.388 361.62178 367.4905 374.45436">kasbiy faoliyatlarida foydalana olish malaka va ko</tspan></text>
</g>
<clipPath id="cp469">
<path transform="matrix(1,0,0,-1,0,841.92)" d="M .000008871 0 L 595.32 0 L 595.32 841.92 L .000008871 841.92 Z " fill-rule="evenodd"/>
</clipPath>
<g clip-path="url(#cp469)">
<text xml:space="preserve" transform="matrix(1 0 -0 1 0 841.92)" font-size="14.04" font-family="Times New Roman"><tspan y="-675.94" x="381.91">&#x2018;</tspan></text>
</g>
<clipPath id="cp470">
<path transform="matrix(1,0,0,-1,0,841.92)" d="M .000008871 0 L 595.32 0 L 595.32 841.92 L .000008871 841.92 Z " fill-rule="evenodd"/>
</clipPath>
<g clip-path="url(#cp470)">
<text xml:space="preserve" transform="matrix(1 0 -0 1 0 841.92)" font-size="14.04" font-family="Times New Roman"><tspan y="-675.94" x="386.47 393.43385 397.37907 404.44117 415.1256">nikma</tspan></text>
</g>
<clipPath id="cp471">
<path transform="matrix(1,0,0,-1,0,841.92)" d="M .000008871 0 L 595.32 0 L 595.32 841.92 L .000008871 841.92 Z " fill-rule="evenodd"/>
</clipPath>
<g clip-path="url(#cp471)">
<text xml:space="preserve" transform="matrix(1 0 -0 1 0 841.92)" font-size="14.04" font-family="Times New Roman"><tspan y="-675.94" x="421.39 425.33525 431.569">lar</tspan></text>
</g>
<clipPath id="cp472">
<path transform="matrix(1,0,0,-1,0,841.92)" d="M .000008871 0 L 595.32 0 L 595.32 841.92 L .000008871 841.92 Z " fill-rule="evenodd"/>
</clipPath>
<g clip-path="url(#cp472)">
<text xml:space="preserve" transform="matrix(1 0 -0 1 0 841.92)" font-size="14.04" font-family="Times New Roman"><tspan y="-675.94" x="436.27 440.11695 447.17906 451.12428 456.86665 463.83049 470.89259 476.29798 480.2432 484.18843 489.9308 496.9929 500.83985 504.6868 508.63203 514.0374">ini hosil qilish</tspan></text>
</g>
<clipPath id="cp473">
<path transform="matrix(1,0,0,-1,0,841.92)" d="M .000008871 0 L 595.32 0 L 595.32 841.92 L .000008871 841.92 Z " fill-rule="evenodd"/>
</clipPath>
<g clip-path="url(#cp473)">
<text xml:space="preserve" transform="matrix(1 0 -0 1 0 841.92)" font-size="14.04" font-family="Times New Roman"><tspan y="-675.94" x="521.26 525.107 531.34078 536.01608">lari</tspan></text>
</g>
<clipPath id="cp474">
<path transform="matrix(1,0,0,-1,0,841.92)" d="M .000008871 0 L 595.32 0 L 595.32 841.92 L .000008871 841.92 Z " fill-rule="evenodd"/>
</clipPath>
<g clip-path="url(#cp474)">
<text xml:space="preserve" transform="matrix(1 0 -0 1 0 841.92)" font-size="14.04" font-family="Times New Roman"><tspan y="-675.94" x="539.86 546.82388 552.9453">ga </tspan></text>
</g>
<clipPath id="cp475">
<path transform="matrix(1,0,0,-1,0,841.92)" d="M .000008871 0 L 595.32 0 L 595.32 841.92 L .000008871 841.92 Z " fill-rule="evenodd"/>
</clipPath>
<g clip-path="url(#cp475)">
<text xml:space="preserve" transform="matrix(1 0 -0 1 0 841.92)" font-size="14.04" font-family="Times New Roman"><tspan y="-651.7" x="85.104 92.166118 98.39987 103.075199 109.21067 113.155918 117.00288 120.84984 127.91196 134.0334 141.09552 144.60552">qaratilgan. </tspan></text>
</g>
<clipPath id="cp476">
<path transform="matrix(1,0,0,-1,0,841.92)" d="M .000008871 0 L 595.32 0 L 595.32 841.92 L .000008871 841.92 Z " fill-rule="evenodd"/>
</clipPath>
<g clip-path="url(#cp476)">
<text xml:space="preserve" transform="matrix(1 0 -0 1 0 841.92)" font-size="14.04" font-family="Times New Roman"><tspan y="-651.7" x="148.1"> </tspan></text>
</g>
</g>
<g id="Layer-1" data-name="P">
<clipPath id="cp477">
<path transform="matrix(1,0,0,-1,0,841.92)" d="M .000008871 0 L 595.32 0 L 595.32 841.92 L .000008871 841.92 Z " fill-rule="evenodd"/>
</clipPath>
<g clip-path="url(#cp477)">
<text xml:space="preserve" transform="matrix(1 0 -0 1 0 841.92)" font-size="14.04" font-family="Times New Roman"><tspan y="-627.58" x="121.1 131.18071 138.24283 145.30495 151.53871 161.25438 167.37583 174.33966 181.40178 188.4639 193.0269 199.99074 203.93598 213.6376 217.58284 223.70429 230.7664 237.73024 244.79236 248.63932 255.60315 262.66526 266.61048 273.44795 279.6817 283.62693 289.8607 294.42369 298.3689 305.33274 309.27796 316.2418 323.3039 332.89323 339.95533 346.1891 352.42286 358.55836 363.23368 367.1789 374.01637 383.71803 389.95179 395.46949 402.5316 407.93699 411.8822 418.11598 422.67897 426.62419 430.1342 439.80778 443.753 449.87443 456.93653 463.90037 467.7473 474.71116 484.4128 491.4749 497.70869 507.42439 514.4865 520.608 526.11166 529.9586 537.02078 541.58377 545.529 552.3665">Unda axborot texnologiyalarining nazariy asoslari, texnik va dasturiy </tspan></text>
</g>
<clipPath id="cp478">
<path transform="matrix(1,0,0,-1,0,841.92)" d="M .000008871 0 L 595.32 0 L 595.32 841.92 L .000008871 841.92 Z " fill-rule="evenodd"/>
</clipPath>
<g clip-path="url(#cp478)">
<text xml:space="preserve" transform="matrix(1 0 -0 1 0 841.92)" font-size="14.04" font-family="Times New Roman"><tspan y="-603.46" x="85.104 89.04924 95.283 99.95832 110.64276 114.588008 121.65012 128.61396 132.55919 136.50443 140.01442">ta&#x2019;minoti, </tspan></text>
</g>
<clipPath id="cp479">
<path transform="matrix(1,0,0,-1,0,841.92)" d="M .000008871 0 L 595.32 0 L 595.32 841.92 L .000008871 841.92 Z " fill-rule="evenodd"/>
</clipPath>
<g clip-path="url(#cp479)">
<text xml:space="preserve" transform="matrix(1 0 -0 1 0 841.92)" font-size="14.04" font-family="Times New Roman"><tspan y="-603.46" x="151.7 162.38445 168.61821 173.18122 177.12645 184.31494 194.99939 202.06151 205.90847 209.8537 216.08747 220.76279 232.27558 239.33769 245.57146 251.80522 257.9407 261.88594 268.1197 272.68269 276.6279 288.14073 295.20283 301.43659 312.9494 320.0115 323.85847 330.09223 334.76756 341.74543 345.69065 357.31578 364.2796 371.24345 376.7471 383.71095 390.77305 397.0068 401.5698 405.41676 410.9204 417.9825 429.49534 433.3423 437.2875 443.40895 447.35417 458.0386 461.98384 468.2176 472.8929 476.85218 480.36219 491.95924 498.92308 505.98518 516.66958 523.85806 530.69558 537.7577 541.70297">ma&#x2019;lumotlar bazalari va ularni boshqarish tizimlari, kompyute</tspan></text>
</g>
<clipPath id="cp480">
<path transform="matrix(1,0,0,-1,0,841.92)" d="M .000008871 0 L 595.32 0 L 595.32 841.92 L .000008871 841.92 Z " fill-rule="evenodd"/>
</clipPath>
<g clip-path="url(#cp480)">
<text xml:space="preserve" transform="matrix(1 0 -0 1 0 841.92)" font-size="14.04" font-family="Times New Roman"><tspan y="-603.46" x="548.38 552.9403">r </tspan></text>
</g>
<clipPath id="cp481">
<path transform="matrix(1,0,0,-1,0,841.92)" d="M .000008871 0 L 595.32 0 L 595.32 841.92 L .000008871 841.92 Z " fill-rule="evenodd"/>
</clipPath>
<g clip-path="url(#cp481)">
<text xml:space="preserve" transform="matrix(1 0 -0 1 0 841.92)" font-size="14.04" font-family="Times New Roman"><tspan y="-579.34" x="85.104 89.04924 95.283 99.95832 110.64276 117.70488 124.767 128.71224 134.946 139.509 143.45424 146.96424">tarmoqlari, </tspan></text>
</g>
<clipPath id="cp482">
<path transform="matrix(1,0,0,-1,0,841.92)" d="M .000008871 0 L 595.32 0 L 595.32 841.92 L .000008871 841.92 Z " fill-rule="evenodd"/>
</clipPath>
<g clip-path="url(#cp482)">
<text xml:space="preserve" transform="matrix(1 0 -0 1 0 841.92)" font-size="14.04" font-family="Times New Roman"><tspan y="-579.34" x="162.02 168.14145 171.9884 179.05052 186.11264 190.67565 194.5226 198.36956 209.054 212.99924 219.233 224.75074 231.81285 246.79352 253.85564 259.97706 274.95774 282.01985 288.14128 293.54667 297.49189 304.554 309.11698 313.0622 319.18363 324.6873 331.7494 335.2594 350.0997 353.94667 361.00877 364.8557 368.80094 374.20634 381.17018 388.23228 392.1775 399.01496 414.122 424.80647 431.04023 436.55793 442.7917 446.7369 452.85835 456.80357 463.03733 467.6003 474.6624 478.60765 493.58833 504.27278 510.50654 514.4518 520.68557 531.36996 537.6037 541.54898 545.4942 552.45809">algoritmlash va dasturlash, iqtisodiy masalalarni matematik </tspan></text>
</g>
<clipPath id="cp483">
<path transform="matrix(1,0,0,-1,0,841.92)" d="M .000008871 0 L 595.32 0 L 595.32 841.92 L .000008871 841.92 Z " fill-rule="evenodd"/>
</clipPath>
<g clip-path="url(#cp483)">
<text xml:space="preserve" transform="matrix(1 0 -0 1 0 841.92)" font-size="14.04" font-family="Times New Roman"><tspan y="-555.07" x="85.104 95.78844 102.850559 109.912677 116.14643 120.091678 124.03692 130.15836 135.66204 142.62587 146.47283 150.41806 155.09339 158.94034 164.34574 171.40785 174.91785 195.99188 206.78865 213.85077 217.796 223.91745 230.97957 237.10102 242.50641 248.01009 251.85704 257.36073 261.20768 265.05464 272.11674 293.21888 303.90333 310.1371 315.6548 321.88856 325.7355 331.96928 335.9145 342.14826 346.71125 350.65647 357.6203 361.56553 382.66767 393.3521 399.58589 403.5311 409.76487 420.4493 426.68309 430.6283 434.57353 441.53736 462.76585 473.4503 480.5124 487.5745 493.69593 497.64115 501.58638 507.7078 513.1132 520.17538 524.02236 527.9676 532.5306 536.4758 541.8812 548.94338 552.45339">modellashtirish, mutaxassislik masalalarini matematik modellashtirish, </tspan></text>
</g>
<clipPath id="cp484">
<path transform="matrix(1,0,0,-1,0,841.92)" d="M .000008871 0 L 595.32 0 L 595.32 841.92 L .000008871 841.92 Z " fill-rule="evenodd"/>
</clipPath>
<g clip-path="url(#cp484)">
<text xml:space="preserve" transform="matrix(1 0 -0 1 0 841.92)" font-size="14.04" font-family="Times New Roman"><tspan y="-530.95" x="85.104 91.33775 95.283 102.24683 109.30895 113.871959 117.8172 121.66416 125.609409 136.29386 140.23909 146.47286 151.99059 159.0527 170.80419 177.76802 184.00179 195.75327 202.7171 208.95087 214.4686 218.31555 225.37767 229.94068 233.88591 240.00736 245.51103 252.47487 259.537 265.77076 277.52226 284.48609 288.4313 295.4934 307.2449 317.92936 324.27546 328.22068 334.45445 339.01744 342.96266 349.1964 353.04338 356.9886 363.22236 367.89768 379.64918 386.71128 392.8327 397.50804 401.35499 405.3002 412.26405 418.4978 425.57395 429.08396 440.79335 446.19874 453.26084 463.94529 467.8905 474.12428 481.2004 487.43418 494.5103 498.02033 509.7297 515.96347 522.9273 529.8912 536.9533 541.6286 548.59249">algoritimlash va dasturlashga oid materiallar berilgan. Jumladan, axborot</tspan></text>
</g>
<clipPath id="cp485">
<path transform="matrix(1,0,0,-1,0,841.92)" d="M .000008871 0 L 595.32 0 L 595.32 841.92 L .000008871 841.92 Z " fill-rule="evenodd"/>
</clipPath>
<g clip-path="url(#cp485)">
<text xml:space="preserve" transform="matrix(1 0 -0 1 0 841.92)" font-size="14.04" font-family="Times New Roman"><tspan y="-530.95" x="552.94"> </tspan></text>
</g>
<clipPath id="cp486">
<path transform="matrix(1,0,0,-1,0,841.92)" d="M .000008871 0 L 595.32 0 L 595.32 841.92 L .000008871 841.92 Z " fill-rule="evenodd"/>
</clipPath>
<g clip-path="url(#cp486)">
<text xml:space="preserve" transform="matrix(1 0 -0 1 0 841.92)" font-size="14.04" font-family="Times New Roman"><tspan y="-506.83" x="85.104 89.04924 95.283 102.24683 109.21067 116.27279 120.11975 127.08359 134.1457 138.09095 144.92842 151.16219 155.10742 161.34119 165.90419 169.84943 173.35942 183.03298 189.26674 196.23058 203.19441 210.25653 214.93186 221.89569 225.84093 235.43024 239.37548 243.32071 249.44216 253.38739 264.07185 268.01707 274.25083 278.92616 282.8854 292.58708 296.43403">texnologiyalari, axborot tizimlari tu</tspan></text>
</g>
<clipPath id="cp487">
<path transform="matrix(1,0,0,-1,0,841.92)" d="M .000008871 0 L 595.32 0 L 595.32 841.92 L .000008871 841.92 Z " fill-rule="evenodd"/>
</clipPath>
<g clip-path="url(#cp487)">
<text xml:space="preserve" transform="matrix(1 0 -0 1 0 841.92)" font-size="14.04" font-family="Times New Roman"><tspan y="-506.83" x="303.77 309.17539 316.13923 323.10307 330.16517 336.2866 343.3487 349.58247 353.4294 359.66319 364.3385 368.29777 371.80778 381.48136 387.71513 393.94889 404.64738 411.70948 418.77159 424.893 431.9551 435.90034 442.7378 452.43946 459.50157 466.56367 477.2481 484.3102 491.14768 498.20979 502.155 508.38877 513.0641 517.0234 523.25717 527.8201 534.784 538.72927 545.6931 552.657">shunchalari, zamonaviy kompyuterlarning </tspan></text>
</g>
<clipPath id="cp488">
<path transform="matrix(1,0,0,-1,0,841.92)" d="M .000008871 0 L 595.32 0 L 595.32 841.92 L .000008871 841.92 Z " fill-rule="evenodd"/>
</clipPath>
<g clip-path="url(#cp488)">
<text xml:space="preserve" transform="matrix(1 0 -0 1 0 841.92)" font-size="14.04" font-family="Times New Roman"><tspan y="-482.71" x="85.104 91.33775 96.01308 102.99095 106.936199 110.88144 117.00288 123.96671 127.91196 134.97408 139.53708 145.77085 151.17624 155.12148 162.66095 169.72307 175.95684 183.38399 188.88767 192.73462 197.40995 204.37378 211.4359 215.28285 222.34497 227.0203 233.14174 238.64542 242.59066 246.10065 253.61205 259.73347 266.6973 273.7594 280.8215 285.3845 292.34834 296.29356 300.23878 306.3602 311.03553 318.11167 324.2331 331.77259 335.7178 341.1232 348.1853 352.03227 358.9961 366.0582 373.5977 380.6598 386.89356 391.45655 395.40177 400.80717 407.86927 415.29646 422.35856 429.42066">arxitekturasi va strukturasi, axborotlarga ishlov berish qur</tspan></text>
</g>
<clipPath id="cp489">
<path transform="matrix(1,0,0,-1,0,841.92)" d="M .000008871 0 L 595.32 0 L 595.32 841.92 L .000008871 841.92 Z " fill-rule="evenodd"/>
</clipPath>
<g clip-path="url(#cp489)">
<text xml:space="preserve" transform="matrix(1 0 -0 1 0 841.92)" font-size="14.04" font-family="Times New Roman"><tspan y="-482.71" x="434.47">i</tspan></text>
</g>
<clipPath id="cp490">
<path transform="matrix(1,0,0,-1,0,841.92)" d="M .000008871 0 L 595.32 0 L 595.32 841.92 L .000008871 841.92 Z " fill-rule="evenodd"/>
</clipPath>
<g clip-path="url(#cp490)">
<text xml:space="preserve" transform="matrix(1 0 -0 1 0 841.92)" font-size="14.04" font-family="Times New Roman"><tspan y="-482.71" x="438.31 442.15696 452.9537 459.18748 463.1327 469.36647 474.04179 478.00105 485.54054 492.50437 498.73814 506.29167 513.2555 517.20077 523.4345 527.9975 535.05966 538.9066 545.8705 552.83438">lmalari va ularning </tspan></text>
</g>
<clipPath id="cp491">
<path transform="matrix(1,0,0,-1,0,841.92)" d="M .000008871 0 L 595.32 0 L 595.32 841.92 L .000008871 841.92 Z " fill-rule="evenodd"/>
</clipPath>
<g clip-path="url(#cp491)">
<text xml:space="preserve" transform="matrix(1 0 -0 1 0 841.92)" font-size="14.04" font-family="Times New Roman"><tspan y="-458.47" x="85.104 89.04924 95.283 100.6884 107.65224 111.59748 116.272808">tasnifi</tspan></text>
</g>
<clipPath id="cp492">
<path transform="matrix(1,0,0,-1,0,841.92)" d="M .000008871 0 L 595.32 0 L 595.32 841.92 L .000008871 841.92 Z " fill-rule="evenodd"/>
</clipPath>
<g clip-path="url(#cp492)">
<text xml:space="preserve" transform="matrix(1 0 -0 1 0 841.92)" font-size="14.04" font-family="Times New Roman"><tspan y="-458.47" x="120.26 123.740009">, </tspan></text>
</g>
<clipPath id="cp493">
<path transform="matrix(1,0,0,-1,0,841.92)" d="M .000008871 0 L 595.32 0 L 595.32 841.92 L .000008871 841.92 Z " fill-rule="evenodd"/>
</clipPath>
<g clip-path="url(#cp493)">
<text xml:space="preserve" transform="matrix(1 0 -0 1 0 841.92)" font-size="14.04" font-family="Times New Roman"><tspan y="-458.47" x="128.06 134.18144 141.14528 148.2074 155.17124 159.84656 166.8104 170.75563 175.0659 178.91286 185.14662 190.55202 197.61414 204.57798 211.64009 217.76154 224.82366 228.76889 232.9528 240.01493 246.24869 250.44664 255.95032 262.18409 269.14793 272.99488 280.05699 287.0208 293.25459 300.2184 304.16365 308.47395 315.43778 322.4016 327.90528 331.75224 335.69746 341.81889 345.7641 351.99787 356.6732 360.1832 364.4654 370.69917 381.3836 387.61738 391.5626 395.5078 402.34529 406.65559 413.71769 419.95146 425.46916 429.3161 436.3782 440.9412 444.78816 451.0219 455.69725 460.00755 467.06965 473.19108 480.25318 486.3746">axborot tashuvchi va saqlovchi vositalar, amaliy dasturlar paket</tspan></text>
</g>
<clipPath id="cp494">
<path transform="matrix(1,0,0,-1,0,841.92)" d="M .000008871 0 L 595.32 0 L 595.32 841.92 L .000008871 841.92 Z " fill-rule="evenodd"/>
</clipPath>
<g clip-path="url(#cp494)">
<text xml:space="preserve" transform="matrix(1 0 -0 1 0 841.92)" font-size="14.04" font-family="Times New Roman"><tspan y="-458.47" x="490.78 494.72523 500.84666">lar</tspan></text>
</g>
<clipPath id="cp495">
<path transform="matrix(1,0,0,-1,0,841.92)" d="M .000008871 0 L 595.32 0 L 595.32 841.92 L .000008871 841.92 Z " fill-rule="evenodd"/>
</clipPath>
<g clip-path="url(#cp495)">
<text xml:space="preserve" transform="matrix(1 0 -0 1 0 841.92)" font-size="14.04" font-family="Times New Roman"><tspan y="-458.47" x="505.54 509.48524 513.6692 520.7313 526.9651 531.1631 538.2252 542.1705 548.29196 552.8549">i va ular </tspan></text>
</g>
<clipPath id="cp496">
<path transform="matrix(1,0,0,-1,0,841.92)" d="M .000008871 0 L 595.32 0 L 595.32 841.92 L .000008871 841.92 Z " fill-rule="evenodd"/>
</clipPath>
<g clip-path="url(#cp496)">
<text xml:space="preserve" transform="matrix(1 0 -0 1 0 841.92)" font-size="14.04" font-family="Times New Roman"><tspan y="-434.35" x="85.104 91.941478 99.00359 103.67892 110.75507 116.98883 127.67327 131.6185 138.68062 144.91439 151.51319 158.35066 164.58443 170.81819 177.89437 181.8396 185.78484 191.90628 198.9684 202.81536 209.87747 215.99892 223.06104 229.64579 240.33023 246.564 252.08173 258.3155 262.2607 268.49449 272.4397 278.67347 283.3488 289.82124 293.76646 300.7303 305.4056 312.36946 319.33329 330.01774">yordamida yechiladigan masalalar turkumi</tspan></text>
</g>
<clipPath id="cp497">
<path transform="matrix(1,0,0,-1,0,841.92)" d="M .000008871 0 L 595.32 0 L 595.32 841.92 L .000008871 841.92 Z " fill-rule="evenodd"/>
</clipPath>
<g clip-path="url(#cp497)">
<text xml:space="preserve" transform="matrix(1 0 -0 1 0 841.92)" font-size="14.04" font-family="Times New Roman"><tspan y="-434.35" x="334.27">,</tspan></text>
</g>
<clipPath id="cp498">
<path transform="matrix(1,0,0,-1,0,841.92)" d="M .000008871 0 L 595.32 0 L 595.32 841.92 L .000008871 841.92 Z " fill-rule="evenodd"/>
</clipPath>
<g clip-path="url(#cp498)">
<text xml:space="preserve" transform="matrix(1 0 -0 1 0 841.92)" font-size="14.04" font-family="Times New Roman"><tspan y="-434.35" x="337.75"> </tspan></text>
</g>
<clipPath id="cp499">
<path transform="matrix(1,0,0,-1,0,841.92)" d="M .000008871 0 L 595.32 0 L 595.32 841.92 L .000008871 841.92 Z " fill-rule="evenodd"/>
</clipPath>
<g clip-path="url(#cp499)">
<text xml:space="preserve" transform="matrix(1 0 -0 1 0 841.92)" font-size="14.04" font-family="Times New Roman"><tspan y="-434.35" x="344.35">u</tspan></text>
</g>
<clipPath id="cp500">
<path transform="matrix(1,0,0,-1,0,841.92)" d="M .000008871 0 L 595.32 0 L 595.32 841.92 L .000008871 841.92 Z " fill-rule="evenodd"/>
</clipPath>
<g clip-path="url(#cp500)">
<text xml:space="preserve" transform="matrix(1 0 -0 1 0 841.92)" font-size="14.04" font-family="Times New Roman"><tspan y="-434.35" x="351.43 356.93367 363.99577 370.9596 378.0217 384.14314 391.20524 395.15046 401.9879 408.5727 415.6348 421.86857 427.27397 431.21919 438.183 442.85835 446.80357 453.64103 460.2258 467.2879 474.35 479.7554 483.70063 487.54759 493.78135 497.72657 503.96034 508.63566 515.1081 522.1702 528.2917 535.3538 541.4753 545.42056 549.2675 552.6231">skunaviy dasturiy vositalar paketi, </tspan></text>
</g>
<clipPath id="cp501">
<path transform="matrix(1,0,0,-1,0,841.92)" d="M .000008871 0 L 595.32 0 L 595.32 841.92 L .000008871 841.92 Z " fill-rule="evenodd"/>
</clipPath>
<g clip-path="url(#cp501)">
<text xml:space="preserve" transform="matrix(1 0 -0 1 0 841.92)" font-size="14.04" font-family="Times New Roman"><tspan y="-410.23" x="85.104 92.166118 99.12995 105.36371 110.03903 116.27279 120.13379 125.53919 129.48442 136.44826 143.51038 151.41489 155.26184 159.20708 165.32852 169.27376 179.9582 187.86272 193.3664 199.60016 204.27548 211.35166 215.19861 220.70229 228.6068 235.66892 241.79036 247.19576 251.14099 258.2031 262.76609 266.7113 272.94508 277.50807 281.45329 289.35783 296.32167 302.55543 310.474 317.43785 321.2848 327.51856 332.19389 339.17176 343.11698 350.0808 357.1429 365.04747 368.99269 379.67713 386.73924 393.80134 400.76518 404.7104 411.54786 417.78163 421.72685 425.67207 431.90583 436.4688 440.41404 443.7696 451.67414 455.61936 461.85313 466.52845 477.2129 484.275 491.3371 499.24165 506.30375 512.5375 520.45608 527.4199 534.48208 538.32907 545.2929 552.35507">operatsion tizim servis dasturlari va ularning imkoniyatlari, tarmoq va uning </tspan></text>
</g>
<clipPath id="cp502">
<path transform="matrix(1,0,0,-1,0,841.92)" d="M .000008871 0 L 595.32 0 L 595.32 841.92 L .000008871 841.92 Z " fill-rule="evenodd"/>
</clipPath>
<g clip-path="url(#cp502)">
<text xml:space="preserve" transform="matrix(1 0 -0 1 0 841.92)" font-size="14.04" font-family="Times New Roman"><tspan y="-386.09" x="85.104 89.77932 96.01308 101.41848 108.4806 113.15592 118.561328 122.50657 128.74033 133.30333 137.15029 144.2124 148.15764 160.73748 167.70131 174.76343 180.16883 187.13266 194.19478 200.42855 204.99155 208.93679 214.34218 221.4043 224.91429 237.46605 244.52817 250.64962 256.1533 260.00025 267.06236 271.62535 275.57057 281.80433 286.3673 293.4294 297.37464 309.9545 317.0166 321.5796 326.2549 333.33106 339.56483 343.41178 347.25874 352.7624 359.8245 372.40437 379.3682 385.60197 398.19587 405.25798 409.82096 416.05473 423.13087 427.07609 431.63908 435.48603 440.9897 447.95353 451.46354 464.14167 474.8261 481.05989 485.0051 492.0672 496.01243 499.95765 512.5375 517.21279 523.44656 530.2981 534.24337 538.1886 544.42239 548.98538 552.34097">resurslarini boshqarish, dasturlarni o&#x2019;rnatish va o&#x2019;chirish, matnli fayllar, </tspan></text>
</g>
<clipPath id="cp503">
<path transform="matrix(1,0,0,-1,0,841.92)" d="M .000008871 0 L 595.32 0 L 595.32 841.92 L .000008871 841.92 Z " fill-rule="evenodd"/>
</clipPath>
<g clip-path="url(#cp503)">
<text xml:space="preserve" transform="matrix(1 0 -0 1 0 841.92)" font-size="14.04" font-family="Times New Roman"><tspan y="-361.97" x="85.104 95.78844 102.850559 106.7958 113.02956 120.10571 126.33947 131.74486 137.24854 141.09549 146.50089 150.44612 154.29308 161.3552 168.31903 174.5528 181.26392 188.22776 192.17299 199.2351 205.81986 212.05362 219.01746 226.07958 233.1417 237.7047 244.66854 248.61377 252.559 258.68043 263.35575 270.31959 274.2648 280.97593 287.8134 294.04716 298.72248 304.95625 308.9155 312.86073 318.2661 325.22996 331.94108 339.00318 345.23695 351.94807 355.89329 361.29869 368.2625 372.20774 379.17158 386.23368 392.9448 399.90864 406.1424 410.81773 414.66468 420.07008 427.13218 434.19429 440.42805 447.02687 454.08897 461.0528 464.99803">mutaxassislikka oid axborotlarni yaratish va ishlov berishda opti</tspan></text>
</g>
<clipPath id="cp504">
<path transform="matrix(1,0,0,-1,0,841.92)" d="M .000008871 0 L 595.32 0 L 595.32 841.92 L .000008871 841.92 Z " fill-rule="evenodd"/>
</clipPath>
<g clip-path="url(#cp504)">
<text xml:space="preserve" transform="matrix(1 0 -0 1 0 841.92)" font-size="14.04" font-family="Times New Roman"><tspan y="-361.97" x="469.42 480.10447 486.33824 490.28346 496.99458 504.05668 509.46208 513.309 520.37118 527.335 531.2803 537.51406 542.077 549.0409 552.8879">mal uslublarni </tspan></text>
</g>
<clipPath id="cp505">
<path transform="matrix(1,0,0,-1,0,841.92)" d="M .000008871 0 L 595.32 0 L 595.32 841.92 L .000008871 841.92 Z " fill-rule="evenodd"/>
</clipPath>
<g clip-path="url(#cp505)">
<text xml:space="preserve" transform="matrix(1 0 -0 1 0 841.92)" font-size="14.04" font-family="Times New Roman"><tspan y="-337.73" x="85.104 92.166118 99.22823 103.79124 107.6382 111.58344 117.8172 123.2226 130.28472 133.79471 138.31558 144.43703 148.38227 154.50371 161.56583 165.51107 170.07407 177.0379 184.10002 188.64897 192.49593 198.72969 205.69353 212.75565 218.98941 222.83637 226.7816 233.01537 237.57837 244.5422 248.48744 253.03639 260.00025 266.234 273.0855 277.03074 283.2645 287.81349 291.7587 297.1641 304.2262 308.07316 314.30693 319.7123 326.67616 333.73826 339.97203 344.521 348.36796 354.6017 361.56556 368.62767 374.74909 378.6943 383.2433 390.20713 394.88246 401.84629 405.7915 411.1969 417.43067 422.83607 428.24147 435.30357 440.80723 445.3702 449.21717 455.45094 460.12626 463.9732 471.0353 474.88227 481.8461 488.9082 493.45719 498.1325 505.09635 512.0602 519.1223 524.5277 528.47299 535.4368 542.49899 548.6204 552.4674">qo&#x2019;llash, elektron jadvallarni qayta ishlashda jadval protsessosrlarining funksional </tspan></text>
</g>
<clipPath id="cp506">
<path transform="matrix(1,0,0,-1,0,841.92)" d="M .000008871 0 L 595.32 0 L 595.32 841.92 L .000008871 841.92 Z " fill-rule="evenodd"/>
</clipPath>
<g clip-path="url(#cp506)">
<text xml:space="preserve" transform="matrix(1 0 -0 1 0 841.92)" font-size="14.04" font-family="Times New Roman"><tspan y="-313.61" x="85.104 89.04924 99.73368 106.7958 113.85792 120.92004 124.86528 131.70276 137.93653 141.88176 145.72872 151.96248 156.6378 160.48476 167.54688 173.66832 180.73044 188.39627 195.45839 202.42223 206.26918 210.21442 217.17826 224.24037 230.47414 238.26633 242.82933 249.89145 256.7289 263.79103 270.02479 273.97 280.09144 287.05528 291.0005 296.40589 303.468 306.978 314.7281 325.52485 332.58695 336.53218 342.6536 349.7157 355.83714 361.24253 366.7462 370.59315 376.0968 379.94377 383.7907 390.8528 397.91493 404.03636 411.82856 418.7924 422.7376 429.70146 437.49366 441.3406 447.57438 454.6505 461.61436 467.8481 471.79335 479.58555 490.27 496.50376 501.06675 505.01197 512.20046 522.8848 529.94699 533.8922 537.83749 543.9589 548.5219 552.3689">imkoniyatlaridan oqilona foydalanish, mutaxassislikka oid jadval ma&#x2019;lumotlari </tspan></text>
</g>
<clipPath id="cp507">
<path transform="matrix(1,0,0,-1,0,841.92)" d="M .000008871 0 L 595.32 0 L 595.32 841.92 L .000008871 841.92 Z " fill-rule="evenodd"/>
</clipPath>
<g clip-path="url(#cp507)">
<text xml:space="preserve" transform="matrix(1 0 -0 1 0 841.92)" font-size="14.04" font-family="Times New Roman"><tspan y="-289.49" x="85.104 92.166118 96.01308 99.95832 106.07976 113.14188 120.203998 124.05096 129.45635 136.51847 140.4637 146.58515 151.99054 159.05266 162.56266 169.59668 175.71813 182.78025 189.74408 196.8062 201.3692 208.43132 212.27828 216.22351 222.45728 227.02028 234.0824 237.92935 244.99147 248.9367 255.05815 262.022 269.0841 273.02934 283.71379 290.77589 294.7211 298.56806 304.80183 309.47715 316.5533 323.51716 330.57926 335.14225 339.81758 343.7628 350.72663 354.67185 360.07725 367.04109 370.9863 378.0484 384.16984 391.23197 396.63737 403.69947 409.8209 416.883 420.72996 424.67518 430.7966 437.8587 441.70567 445.5526 450.22795 454.17317 459.57856 466.64067 473.59046 477.53569 483.6571 490.7192 497.68305 504.74516 508.5921 515.55599 522.6181 526.56338">bilan ishlash, axborotlarni taqdimotlar ko&#x2019;rinishida shakllantirish texnologiy</tspan></text>
</g>
<clipPath id="cp508">
<path transform="matrix(1,0,0,-1,0,841.92)" d="M .000008871 0 L 595.32 0 L 595.32 841.92 L .000008871 841.92 Z " fill-rule="evenodd"/>
</clipPath>
<g clip-path="url(#cp508)">
<text xml:space="preserve" transform="matrix(1 0 -0 1 0 841.92)" font-size="14.04" font-family="Times New Roman"><tspan y="-289.49" x="533.98 540.21377 545.73147 549.5784 552.934">asi, </tspan></text>
</g>
<clipPath id="cp509">
<path transform="matrix(1,0,0,-1,0,841.92)" d="M .000008871 0 L 595.32 0 L 595.32 841.92 L .000008871 841.92 Z " fill-rule="evenodd"/>
</clipPath>
<g clip-path="url(#cp509)">
<text xml:space="preserve" transform="matrix(1 0 -0 1 0 841.92)" font-size="14.04" font-family="Times New Roman"><tspan y="-265.37" x="85.104 95.90076 102.134517 106.69752 110.64276 117.83124 128.51569 135.5778 139.52304 143.46828 149.70204 154.37737 159.6564 166.71852 172.95229 179.07373 185.3075 190.71289 194.65813 198.16812 203.51735 209.02103">ma&#x2019;lumotlar bazasi, so</tspan></text>
</g>
<clipPath id="cp510">
<path transform="matrix(1,0,0,-1,0,841.92)" d="M .000008871 0 L 595.32 0 L 595.32 841.92 L .000008871 841.92 Z " fill-rule="evenodd"/>
</clipPath>
<g clip-path="url(#cp510)">
<text xml:space="preserve" transform="matrix(1 0 -0 1 0 841.92)" font-size="14.04" font-family="Times New Roman"><tspan y="-265.37" x="216.17">h</tspan></text>
</g>
<clipPath id="cp511">
<path transform="matrix(1,0,0,-1,0,841.92)" d="M .000008871 0 L 595.32 0 L 595.32 841.92 L .000008871 841.92 Z " fill-rule="evenodd"/>
</clipPath>
<g clip-path="url(#cp511)">
<text xml:space="preserve" transform="matrix(1 0 -0 1 0 841.92)" font-size="14.04" font-family="Times New Roman"><tspan y="-265.37" x="223.25 229.37145 236.43357 242.66733 247.94637 255.00849 258.85545 265.91755 271.3089 281.99336 288.33946 292.90245 296.84767 303.90977 314.5942 321.6563 325.60154 329.54676 335.78053 340.45585 345.7349 352.797 359.03077 365.26454 371.40003 376.9037 380.75065 387.71449 391.6597 397.05107 403.88853 410.12229 414.7976 421.03138 424.99064 428.8376 434.34126 441.40336 446.66838 453.73048 459.96424 465.3556 472.31944 479.28327 483.2285 488.61985 495.58369 502.54753 508.05119 515.015 522.07717 528.3109 532.8739 536.81918 542.22457 549.1884 552.544">aga oid ma&#x2019;lumotlar bazasini yaratish va uni boshqarish, </tspan></text>
</g>
<clipPath id="cp512">
<path transform="matrix(1,0,0,-1,0,841.92)" d="M .000008871 0 L 595.32 0 L 595.32 841.92 L .000008871 841.92 Z " fill-rule="evenodd"/>
</clipPath>
<g clip-path="url(#cp512)">
<text xml:space="preserve" transform="matrix(1 0 -0 1 0 841.92)" font-size="14.04" font-family="Times New Roman"><tspan y="-241.13" x="85.104 89.04924 94.45464 101.51676 105.36372 112.32756 119.38968 123.46128 130.52339 136.64484 141.32016 145.16712 150.67079 157.73291 161.2429 165.16007 172.22219 179.2843 189.96875 197.03087 203.9947 211.05683 215.00206 221.1235 225.79883 229.87042 233.81566 240.04943 244.72475 255.4092 262.4713 269.53343 273.38038 279.61415 284.28947 288.24873 292.19398 299.25608 305.48985 309.56147 313.40843 319.64219 324.20518 334.88963 341.95173 349.01383 353.08546 357.03068 363.26445 370.34059 377.3044 384.26826 388.21348 395.1773 402.14115 406.08638 412.92384 419.1576 423.1028 429.33659 434.0119 437.97117 441.48118 445.39836 449.34358 456.3074 460.25263 466.4864 471.04939 478.11149 484.2329 488.17814 492.24977 499.31187 505.54563 509.49089 513.4361 520.39999 524.3452 529.0205 535.14199 542.2041 548.32559 552.2708">ishlov berish, kompyuter tarmoqlari va tarmoq texnologiyalari, internet va intranet </tspan></text>
</g>
<clipPath id="cp513">
<path transform="matrix(1,0,0,-1,0,841.92)" d="M .000008871 0 L 595.32 0 L 595.32 841.92 L .000008871 841.92 Z " fill-rule="evenodd"/>
</clipPath>
<g clip-path="url(#cp513)">
<text xml:space="preserve" transform="matrix(1 0 -0 1 0 841.92)" font-size="14.04" font-family="Times New Roman"><tspan y="-216.98" x="85.104 92.166118 96.11136 102.345119 113.02956 119.26331 123.20856 127.1538 133.38756 137.95056 141.8958 145.40579 149.68799 153.63323 160.59706 164.5423 168.38925 173.79465 180.85677 187.8206 191.76584 198.60332 203.02591 213.82268 220.05644 225.57418 231.80794 235.75318 241.87462 245.81986 252.05362 256.6166 263.6787 267.62394 271.93424 278.168 282.01496 289.07707 296.0409 300.71623 304.56318 308.5084 319.19285 323.13807 329.37184 334.88954 341.85337 346.27598 353.33808 359.4595 363.8821 370.9442 377.06565 382.47105 386.41627 393.47837 398.04136 401.98658 408.108 413.5134 420.5755 424.0855 428.48005 433.88545 440.84928 447.91139 452.33399 459.29783 466.35993 470.9229 474.76988 481.00364 484.94886 488.7958 495.8579 499.70487 506.6687 510.61393 515.0365 518.8835 525.11727 530.52267 537.4865 544.54867 548.3956 552.3409">xizmatlari, iqtisodiy masalalarni algoritmlash va dasturlash, suv xo&#x2019;jaligini tashkil </tspan></text>
</g>
<clipPath id="cp514">
<path transform="matrix(1,0,0,-1,0,841.92)" d="M .000008871 0 L 595.32 0 L 595.32 841.92 L .000008871 841.92 Z " fill-rule="evenodd"/>
</clipPath>
<g clip-path="url(#cp514)">
<text xml:space="preserve" transform="matrix(1 0 -0 1 0 841.92)" font-size="14.04" font-family="Times New Roman"><tspan y="-192.86" x="85.104">e</tspan></text>
</g>
<clipPath id="cp515">
<path transform="matrix(1,0,0,-1,0,841.92)" d="M .000008871 0 L 595.32 0 L 595.32 841.92 L .000008871 841.92 Z " fill-rule="evenodd"/>
</clipPath>
<g clip-path="url(#cp515)">
<text xml:space="preserve" transform="matrix(1 0 -0 1 0 841.92)" font-size="14.04" font-family="Times New Roman"><tspan y="-192.86" x="91.344 95.289249 99.13621 104.54161 111.60373 116.75641 123.81853 130.05229 135.20497 142.26709 149.23093 153.17617 158.32884 165.39096 172.3548 177.7602 184.82231 191.78615 198.01992 202.69524 206.54219 212.04587 219.0097 226.07183 232.30559 237.58463 248.26908 254.50284 258.44807 264.68183 275.36628 281.60005 285.54527 289.49049 296.55259 301.8176 312.50205 319.56416 326.52799 332.76176 336.70698 340.55393 346.7877 352.19309 359.2552 363.10215 367.04737 371.61036 375.55558 380.96098 388.02308 393.17576 400.1396 405.64326 412.6071 416.5523 420.39927 426.63304 431.30836 435.2676 438.77763 443.88819 450.9503 457.91413 461.85935 465.80458 476.489 482.72279 486.668 491.933 502.61747 509.67958 516.7417 522.97549 526.82247 530.7677 537.00149 541.56448 548.5283 552.3753">tish va uni boshqarishda matematik modellashtirish usullari, optimal modellarni </tspan></text>
</g>
<clipPath id="cp516">
<path transform="matrix(1,0,0,-1,0,841.92)" d="M .000008871 0 L 595.32 0 L 595.32 841.92 L .000008871 841.92 Z " fill-rule="evenodd"/>
</clipPath>
<g clip-path="url(#cp516)">
<text xml:space="preserve" transform="matrix(1 0 -0 1 0 841.92)" font-size="14.04" font-family="Times New Roman"><tspan y="-168.74" x="85.104 89.04924 94.45464 101.51676 105.36372 111.59748 118.67364 125.2584 131.49216 138.456 142.30295 149.36507 153.21202 158.7157 165.67954 172.39066 179.35449 184.75989 191.822 195.66896 199.6142 205.73564 210.41097 214.3562 220.94095 228.00307 234.23683 240.83563 247.89775 251.84299 257.96443 262.63975 269.60359 273.5488 280.51264 287.57475 294.28587 300.4073 307.37113 314.43324 321.39707 325.96006 333.02217 336.96739 343.55216 347.49739 353.6188 360.58265 367.64476 374.60859 378.5538 385.51765 392.48149 396.4267 403.26417 409.49794 413.44316 419.6769 424.35224 428.3115 434.89628 441.95838 445.80534 449.75056 455.9843 462.94816 469.65928 476.72138 481.28437 487.51814 493.7519 498.32896 505.39106 512.1022 519.06607 526.0299 533.09207 537.655 541.6003 545.44729 552.41116">ishlab chiqish usullari va ularning axborot texnologiyalari bilan o&#x2019;zaro bog&#x2019;liq </tspan></text>
</g>
<clipPath id="cp517">
<path transform="matrix(1,0,0,-1,0,841.92)" d="M .000008871 0 L 595.32 0 L 595.32 841.92 L .000008871 841.92 Z " fill-rule="evenodd"/>
</clipPath>
<g clip-path="url(#cp517)">
<text xml:space="preserve" transform="matrix(1 0 -0 1 0 841.92)" font-size="14.04" font-family="Times New Roman"><tspan y="-144.5" x="85.104 91.941478 98.17523 104.40899 111.485149 115.43039 126.11483 130.06006 136.29383 140.96915 144.92844 148.43843 154.6722 161.6922 167.238 170.748 176.84137 180.68833 187.75045 193.87189 200.934 204.444">yechimlari aks etgan. </tspan></text>
</g>
<clipPath id="cp518">
<path transform="matrix(1,0,0,-1,0,841.92)" d="M .000008871 0 L 595.32 0 L 595.32 841.92 L .000008871 841.92 Z " fill-rule="evenodd"/>
</clipPath>
<g clip-path="url(#cp518)">
<text xml:space="preserve" transform="matrix(1 0 -0 1 0 841.92)" font-size="14.04" font-family="Times New Roman"><tspan y="-144.5" x="208.01"> </tspan></text>
</g>
</g>
<g id="Layer-1" data-name="P">
<clipPath id="cp519">
<path transform="matrix(1,0,0,-1,0,841.92)" d="M .000008871 0 L 595.32 0 L 595.32 841.92 L .000008871 841.92 Z " fill-rule="evenodd"/>
</clipPath>
<g clip-path="url(#cp519)">
<text xml:space="preserve" transform="matrix(1 0 -0 1 0 841.92)" font-size="14.04" font-family="Times New Roman"><tspan y="-120.38" x="121.1 131.18071 136.68439 143.64823 150.71035 157.77246 166.04203 170.71735 176.83879 183.80263 190.86475 194.80998 203.07955 210.14167 214.70467 219.37999 226.34383 232.57759 239.54143 243.38838 248.89206 255.95418 264.22373 271.18757 277.42134 281.26829 285.2135 289.06047 295.29423 300.69963 304.54658 311.60868 317.84245 326.112 330.05723 336.17866 340.12388 346.2453 353.3074 359.54118 363.38813 369.6219 374.2972 382.5808 388.81459 395.04835 405.74684 412.80894 419.87104 426.1048 433.18095 437.12617 443.96363 452.2332 459.2953 466.3574 477.04185 484.10395 490.9414 498.0035 501.94874 508.1825 512.8578 516.8171 523.05087 527.61386 534.67599 538.52297 545.4868 552.4507">Ushbu fanni o&#x2019;rganish natijasida talabalar zamonaviy kompyuterlarning </tspan></text>
</g>
<clipPath id="cp520">
<path transform="matrix(1,0,0,-1,0,841.92)" d="M .000008871 0 L 595.32 0 L 595.32 841.92 L .000008871 841.92 Z " fill-rule="evenodd"/>
</clipPath>
<g clip-path="url(#cp520)">
<text xml:space="preserve" transform="matrix(1 0 -0 1 0 841.92)" font-size="14.04" font-family="Times New Roman"><tspan y="-96.264" x="85.104 89.06402">is</tspan></text>
</g>
<clipPath id="cp521">
<path transform="matrix(1,0,0,-1,0,841.92)" d="M .000008871 0 L 595.32 0 L 595.32 841.92 L .000008871 841.92 Z " fill-rule="evenodd"/>
</clipPath>
<g clip-path="url(#cp521)">
<text xml:space="preserve" transform="matrix(1 0 -0 1 0 841.92)" font-size="14.04" font-family="Times New Roman"><tspan y="-96.264" x="94.464 101.526119 105.37308 111.606838 117.01224 124.074359 138.339 145.40113 149.96413 153.81108 160.8732 166.2786 170.22383 177.18767 181.1329 187.36667 191.92967 195.77663 202.83875 206.6857 210.1957 224.43225 231.49437 235.4396 241.67337 246.23638 253.2985 257.14546 264.10929 271.1714 285.43605 291.6698 297.0752 304.1373 309.5427 313.4879 320.32539">hlash prinsiplarini, ularning asosiy </tspan></text>
</g>
<clipPath id="cp522">
<path transform="matrix(1,0,0,-1,0,841.92)" d="M .000008871 0 L 595.32 0 L 595.32 841.92 L .000008871 841.92 Z " fill-rule="evenodd"/>
</clipPath>
<g clip-path="url(#cp522)">
<text xml:space="preserve" transform="matrix(1 0 -0 1 0 841.92)" font-size="14.04" font-family="Times New Roman"><tspan y="-96.264" x="334.87 341.9321 348.9942 353.5572 357.5024 361.44764 372.13209">qurilma</tspan></text>
</g>
<clipPath id="cp523">
<path transform="matrix(1,0,0,-1,0,841.92)" d="M .000008871 0 L 595.32 0 L 595.32 841.92 L .000008871 841.92 Z " fill-rule="evenodd"/>
</clipPath>
<g clip-path="url(#cp523)">
<text xml:space="preserve" transform="matrix(1 0 -0 1 0 841.92)" font-size="14.04" font-family="Times New Roman"><tspan y="-96.264" x="378.43 382.3752 388.60899 393.2843 397.13127 404.19337 408.13859 422.29093 429.35304 435.47447 449.7391 456.8012 463.03498 467.7103 473.8458 480.9079 484.85313 491.08689 495.64988 499.49684 505.0005 508.84745 512.79269 519.75656 523.7018 529.93557 534.49856 538.3455 545.40768 549.3529 552.7085">larini va xarakteristiklarini, </tspan></text>
</g>
<clipPath id="cp524">
<path transform="matrix(1,0,0,-1,0,841.92)" d="M .000008871 0 L 595.32 0 L 595.32 841.92 L .000008871 841.92 Z " fill-rule="evenodd"/>
</clipPath>
<g clip-path="url(#cp524)">
<text xml:space="preserve" transform="matrix(1 0 -0 1 0 841.92)" font-size="14.04" font-family="Times New Roman"><tspan y="-72.144" x="85.104 91.33775 95.283 102.24683 109.30895 113.871959 117.8172 121.76244 132.44689 136.39212 142.62589 147.30121 151.61148 155.45844 162.52056 168.642 172.58724 177.99263 185.05475 189.36502 196.32886 202.56262 206.76058 213.8227 217.76793 223.88938 228.5647 235.52854 239.47377 243.78404 247.631 253.86476 259.27018 266.33229 270.17924 274.85456 278.79978 284.9212 290.3266 297.3887 304.35255">algoritmlar tuzish va ularni tasvirlashni</tspan></text>
</g>
<clipPath id="cp525">
<path transform="matrix(1,0,0,-1,0,841.92)" d="M .000008871 0 L 595.32 0 L 595.32 841.92 L .000008871 841.92 Z " fill-rule="evenodd"/>
</clipPath>
<g clip-path="url(#cp525)">
<text xml:space="preserve" transform="matrix(1 0 -0 1 0 841.92)" font-size="14.04" font-family="Times New Roman"><tspan y="-72.144" x="308.57">,</tspan></text>
</g>
<clipPath id="cp526">
<path transform="matrix(1,0,0,-1,0,841.92)" d="M .000008871 0 L 595.32 0 L 595.32 841.92 L .000008871 841.92 Z " fill-rule="evenodd"/>
</clipPath>
<g clip-path="url(#cp526)">
<text xml:space="preserve" transform="matrix(1 0 -0 1 0 841.92)" font-size="14.04" font-family="Times New Roman"><tspan y="-72.144" x="312.05"> </tspan></text>
</g>
<clipPath id="cp527">
<path transform="matrix(1,0,0,-1,0,841.92)" d="M .000008871 0 L 595.32 0 L 595.32 841.92 L .000008871 841.92 Z " fill-rule="evenodd"/>
</clipPath>
<g clip-path="url(#cp527)">
<text xml:space="preserve" transform="matrix(1 0 -0 1 0 841.92)" font-size="14.04" font-family="Times New Roman"><tspan y="-72.144" x="316.39 323.45213 329.57356 335.0772 338.92417 345.98628 350.54927 354.49449 360.72825 366.13365 373.19575 377.50605 383.62748 389.13114 396.09498 401.50038 405.4456 411.67936 416.24235 420.18757 427.1514 431.09663 434.60664 438.88883 445.85267 452.91477 463.5992 470.7877 477.62516 484.68727 488.63249 494.86625 499.54158 503.38853 509.62229 514.2976 518.6079 525.5718 531.80557 538.7694 545.7333 552.69717">dasturlash asoslarini, kompyuterlar uchun </tspan></text>
</g>
</g>
</g>
</g>
</svg>
