<?xml version="1.0" encoding="UTF-8" standalone="no"?>
<!DOCTYPE svg PUBLIC "-//W3C//DTD SVG 1.1//EN" "http://www.w3.org/Graphics/SVG/1.1/DTD/svg11.dtd">
<svg xmlns="http://www.w3.org/2000/svg" xmlns:xlink="http://www.w3.org/1999/xlink" version="1.1" width="595.32pt" height="841.92pt" viewBox="0 0 595.32 841.92">
<g enable-background="new">
<g>
<g id="Layer-1" data-name="Artifact">
<clipPath id="cp9499">
<path transform="matrix(1,0,0,-1,0,841.92)" d="M .000008871 0 L 595.32 0 L 595.32 841.92 L .000008871 841.92 Z " fill-rule="evenodd"/>
</clipPath>
<g clip-path="url(#cp9499)">
<text xml:space="preserve" transform="matrix(1 0 -0 1 0 841.92)" font-size="11.04" font-family="Calibri"><tspan y="-51.864" x="316.87 322.50999">66</tspan></text>
</g>
<clipPath id="cp9500">
<path transform="matrix(1,0,0,-1,0,841.92)" d="M .000008871 0 L 595.32 0 L 595.32 841.92 L .000008871 841.92 Z " fill-rule="evenodd"/>
</clipPath>
<g clip-path="url(#cp9500)">
<text xml:space="preserve" transform="matrix(1 0 -0 1 0 841.92)" font-size="11.04" font-family="Calibri"><tspan y="-51.864" x="328.15"> </tspan></text>
</g>
<clipPath id="cp9501">
<path transform="matrix(1,0,0,-1,0,841.92)" d="M .000008871 0 L 595.32 0 L 595.32 841.92 L .000008871 841.92 Z " fill-rule="evenodd"/>
</clipPath>
<g clip-path="url(#cp9501)">
</g>
<clipPath id="cp9502">
<path transform="matrix(1,0,0,-1,0,841.92)" d="M .000008871 0 L 595.32 0 L 595.32 841.92 L .000008871 841.92 Z " fill-rule="evenodd"/>
</clipPath>
<g clip-path="url(#cp9502)">
<text xml:space="preserve" transform="matrix(1 0 -0 1 0 841.92)" font-size="11.04" font-family="Calibri"><tspan y="-38.4" x="85.104"> </tspan></text>
</g>
<clipPath id="cp9503">
<path transform="matrix(1,0,0,-1,0,841.92)" d="M .000008871 0 L 595.32 0 L 595.32 841.92 L .000008871 841.92 Z " fill-rule="evenodd"/>
</clipPath>
<g clip-path="url(#cp9503)">
</g>
</g>
<g id="Layer-1" data-name="P">
<clipPath id="cp9504">
<path transform="matrix(1,0,0,-1,0,841.92)" d="M .000008871 0 L 595.32 0 L 595.32 841.92 L .000008871 841.92 Z " fill-rule="evenodd"/>
</clipPath>
<g clip-path="url(#cp9504)">
<text xml:space="preserve" transform="matrix(1 0 -0 1 0 841.92)" font-size="14.04" font-family="Times New Roman"><tspan y="-772.56" x="85.104 92.184 99.264">12.</tspan></text>
</g>
<clipPath id="cp9505">
<path transform="matrix(1,0,0,-1,0,841.92)" d="M .000008871 0 L 595.32 0 L 595.32 841.92 L .000008871 841.92 Z " fill-rule="evenodd"/>
</clipPath>
<g clip-path="url(#cp9505)">
<text xml:space="preserve" transform="matrix(1 0 -0 1 0 841.92)" font-size="14.04" font-family="Arial"><tspan y="-772.56" x="102.62"> </tspan></text>
</g>
<clipPath id="cp9506">
<path transform="matrix(1,0,0,-1,0,841.92)" d="M .000008871 0 L 595.32 0 L 595.32 841.92 L .000008871 841.92 Z " fill-rule="evenodd"/>
</clipPath>
<g clip-path="url(#cp9506)">
<text xml:space="preserve" transform="matrix(1 0 -0 1 0 841.92)" font-size="14.04" font-family="Times New Roman"><tspan y="-772.56" x="120.5">&#x00ab;</tspan></text>
</g>
<clipPath id="cp9507">
<path transform="matrix(1,0,0,-1,0,841.92)" d="M .000008871 0 L 595.32 0 L 595.32 841.92 L .000008871 841.92 Z " fill-rule="evenodd"/>
</clipPath>
<g clip-path="url(#cp9507)">
<text xml:space="preserve" transform="matrix(1 0 -0 1 0 841.92)" font-size="14.04" font-family="Times New Roman,Bold" font-weight="bold"><tspan y="-772.56" x="127.46 138.38312 146.18936 153.25148 159.62564 167.43189 174.36765 183.84465 193.40589">&#x041f;&#x0440;&#x043e;&#x0433;&#x0440;&#x0430;&#x043c;&#x043c;&#x044b;</tspan></text>
</g>
<clipPath id="cp9508">
<path transform="matrix(1,0,0,-1,0,841.92)" d="M .000008871 0 L 595.32 0 L 595.32 841.92 L .000008871 841.92 Z " fill-rule="evenodd"/>
</clipPath>
<g clip-path="url(#cp9508)">
<text xml:space="preserve" transform="matrix(1 0 -0 1 0 841.92)" font-size="14.04" font-family="Times New Roman"><tspan y="-772.56" x="204.41">&#x00bb;</tspan></text>
</g>
<clipPath id="cp9509">
<path transform="matrix(1,0,0,-1,0,841.92)" d="M .000008871 0 L 595.32 0 L 595.32 841.92 L .000008871 841.92 Z " fill-rule="evenodd"/>
</clipPath>
<g clip-path="url(#cp9509)">
<text xml:space="preserve" transform="matrix(1 0 -0 1 0 841.92)" font-size="14.04" font-family="Times New Roman"><tspan y="-772.56" x="211.37"> </tspan></text>
</g>
<clipPath id="cp9510">
<path transform="matrix(1,0,0,-1,0,841.92)" d="M .000008871 0 L 595.32 0 L 595.32 841.92 L .000008871 841.92 Z " fill-rule="evenodd"/>
</clipPath>
<g clip-path="url(#cp9510)">
<text xml:space="preserve" transform="matrix(1 0 -0 1 0 841.92)" font-size="14.04" font-family="Times New Roman"><tspan y="-772.56" x="214.85 219.52533 229.60605 235.83982 241.24521 245.19045 252.25257 256.81556 260.76078 266.99455 271.66987 276.34519 279.8552 283.19673 290.25883 297.22267 301.0696 306.57328 310.5185 317.35597 323.58973 329.10743 333.05265 336.4082 343.4703 347.41554 358.09999 364.33375 367.84376 374.86375 381.12559 387.247 391.19224 395.86756 401.98899 409.0511 412.9963 416.35188 423.41398 429.64775 433.4947 439.72846 444.40379 450.53929 457.60139 461.44834">(Dasturlar)  optsiyasi nima vazifani bajaradi?</tspan></text>
</g>
<clipPath id="cp9511">
<path transform="matrix(1,0,0,-1,0,841.92)" d="M .000008871 0 L 595.32 0 L 595.32 841.92 L .000008871 841.92 Z " fill-rule="evenodd"/>
</clipPath>
<g clip-path="url(#cp9511)">
<text xml:space="preserve" transform="matrix(1 0 -0 1 0 841.92)" font-size="14.04" font-family="Times New Roman"><tspan y="-772.56" x="467.86"> </tspan></text>
</g>
</g>
<g id="Layer-1" data-name="P">
<clipPath id="cp9512">
<path transform="matrix(1,0,0,-1,0,841.92)" d="M .000008871 0 L 595.32 0 L 595.32 841.92 L .000008871 841.92 Z " fill-rule="evenodd"/>
</clipPath>
<g clip-path="url(#cp9512)">
<text xml:space="preserve" transform="matrix(1 0 -0 1 0 841.92)" font-size="14.04" font-family="Times New Roman"><tspan y="-748.3" x="85.104 92.184 99.264">13.</tspan></text>
</g>
<clipPath id="cp9513">
<path transform="matrix(1,0,0,-1,0,841.92)" d="M .000008871 0 L 595.32 0 L 595.32 841.92 L .000008871 841.92 Z " fill-rule="evenodd"/>
</clipPath>
<g clip-path="url(#cp9513)">
<text xml:space="preserve" transform="matrix(1 0 -0 1 0 841.92)" font-size="14.04" font-family="Arial"><tspan y="-748.3" x="102.62"> </tspan></text>
</g>
<clipPath id="cp9514">
<path transform="matrix(1,0,0,-1,0,841.92)" d="M .000008871 0 L 595.32 0 L 595.32 841.92 L .000008871 841.92 Z " fill-rule="evenodd"/>
</clipPath>
<g clip-path="url(#cp9514)">
<text xml:space="preserve" transform="matrix(1 0 -0 1 0 841.92)" font-size="14.04" font-family="Times New Roman"><tspan y="-748.3" x="120.5 132.98 140.78469">MS </tspan></text>
</g>
<clipPath id="cp9515">
<path transform="matrix(1,0,0,-1,0,841.92)" d="M .000008871 0 L 595.32 0 L 595.32 841.92 L .000008871 841.92 Z " fill-rule="evenodd"/>
</clipPath>
<g clip-path="url(#cp9515)">
<text xml:space="preserve" transform="matrix(1 0 -0 1 0 841.92)" font-size="14.04" font-family="Times New Roman"><tspan y="-748.3" x="144.26 157.34528 161.29051 168.35263 175.31647 182.37859 192.4593 197.96298 201.47298 208.40874 214.6425 220.0479 223.89485 230.95697 235.6323 239.47925 246.54137 252.77513 256.28514 263.3051 270.1847 277.2468 283.48057 287.3275 293.56129 298.2366 301.7466 308.68238 314.91615 321.99229 328.1137 335.07756 342.13966 348.3734 351.88343 358.81919 362.7644 373.44886 379.68263 383.19264 387.09574 394.19996 399.7036 406.66746 413.6313 420.6934 424.54035 428.48558 434.607 441.6691 445.51606 451.86216 455.37217 465.29844 472.36054 476.2075 483.2696 490.3317 493.68727 500.74937 506.8708 513.9329 520.8968 527.13058 533.9821">Windows dasturida oynalar deganda nima tushuniladi? Uning qanday </tspan></text>
</g>
<clipPath id="cp9516">
<path transform="matrix(1,0,0,-1,0,841.92)" d="M .000008871 0 L 595.32 0 L 595.32 841.92 L .000008871 841.92 Z " fill-rule="evenodd"/>
</clipPath>
<g clip-path="url(#cp9516)">
<text xml:space="preserve" transform="matrix(1 0 -0 1 0 841.92)" font-size="14.04" font-family="Times New Roman"><tspan y="-724.18" x="85.104 89.04924 96.11136 100.67436 104.619609 110.85336 115.41637 119.26333 126.32545 130.27068 133.62624 140.68836 144.53531 148.48055 154.60199 160.10567 164.0509 170.17235">turlarini bilasiz?</tspan></text>
</g>
<clipPath id="cp9517">
<path transform="matrix(1,0,0,-1,0,841.92)" d="M .000008871 0 L 595.32 0 L 595.32 841.92 L .000008871 841.92 Z " fill-rule="evenodd"/>
</clipPath>
<g clip-path="url(#cp9517)">
<text xml:space="preserve" transform="matrix(1 0 -0 1 0 841.92)" font-size="14.04" font-family="Times New Roman"><tspan y="-724.18" x="176.42"> </tspan></text>
</g>
</g>
<g id="Layer-1" data-name="P">
<clipPath id="cp9518">
<path transform="matrix(1,0,0,-1,0,841.92)" d="M .000008871 0 L 595.32 0 L 595.32 841.92 L .000008871 841.92 Z " fill-rule="evenodd"/>
</clipPath>
<g clip-path="url(#cp9518)">
<text xml:space="preserve" transform="matrix(1 0 -0 1 0 841.92)" font-size="14.04" font-family="Times New Roman"><tspan y="-700.06" x="85.104 92.184 99.264">14.</tspan></text>
</g>
<clipPath id="cp9519">
<path transform="matrix(1,0,0,-1,0,841.92)" d="M .000008871 0 L 595.32 0 L 595.32 841.92 L .000008871 841.92 Z " fill-rule="evenodd"/>
</clipPath>
<g clip-path="url(#cp9519)">
<text xml:space="preserve" transform="matrix(1 0 -0 1 0 841.92)" font-size="14.04" font-family="Arial"><tspan y="-700.06" x="102.62"> </tspan></text>
</g>
<clipPath id="cp9520">
<path transform="matrix(1,0,0,-1,0,841.92)" d="M .000008871 0 L 595.32 0 L 595.32 841.92 L .000008871 841.92 Z " fill-rule="evenodd"/>
</clipPath>
<g clip-path="url(#cp9520)">
<text xml:space="preserve" transform="matrix(1 0 -0 1 0 841.92)" font-size="14.04" font-family="Times New Roman"><tspan y="-700.06" x="120.5 125.17532 130.679 137.74112 141.09668 146.60036 150.44731 157.41115 161.35639 165.20334 172.26546 178.3869 185.44902 189.39426 192.90425 199.71366 206.77577 211.4511 215.29805 219.24329 226.20713 230.15236 236.38613 240.94913 244.45912 247.91295 254.97507 259.53807 263.48329 269.71705 276.79319 283.02696 293.7114 297.65663 301.16664 308.1866 314.42039 321.44038 328.46037 334.7222 341.55967 345.06968 352.08967 356.68077 362.91453 369.99067 376.22444 380.7874 384.73265 388.67787 393.24085 397.0878 401.03303 407.26679 414.23063 418.07759">Ish stolidagi yorliqlar  o&#x2019;lchami qanday o&#x2019;zgartiriladi?</tspan></text>
</g>
<clipPath id="cp9521">
<path transform="matrix(1,0,0,-1,0,841.92)" d="M .000008871 0 L 595.32 0 L 595.32 841.92 L .000008871 841.92 Z " fill-rule="evenodd"/>
</clipPath>
<g clip-path="url(#cp9521)">
<text xml:space="preserve" transform="matrix(1 0 -0 1 0 841.92)" font-size="14.04" font-family="Times New Roman"><tspan y="-700.06" x="424.63"> </tspan></text>
</g>
</g>
<g id="Layer-1" data-name="P">
<clipPath id="cp9522">
<path transform="matrix(1,0,0,-1,0,841.92)" d="M .000008871 0 L 595.32 0 L 595.32 841.92 L .000008871 841.92 Z " fill-rule="evenodd"/>
</clipPath>
<g clip-path="url(#cp9522)">
<text xml:space="preserve" transform="matrix(1 0 -0 1 0 841.92)" font-size="14.04" font-family="Times New Roman"><tspan y="-675.94" x="85.104 92.184 99.264">15.</tspan></text>
</g>
<clipPath id="cp9523">
<path transform="matrix(1,0,0,-1,0,841.92)" d="M .000008871 0 L 595.32 0 L 595.32 841.92 L .000008871 841.92 Z " fill-rule="evenodd"/>
</clipPath>
<g clip-path="url(#cp9523)">
<text xml:space="preserve" transform="matrix(1 0 -0 1 0 841.92)" font-size="14.04" font-family="Arial"><tspan y="-675.94" x="102.62"> </tspan></text>
</g>
<clipPath id="cp9524">
<path transform="matrix(1,0,0,-1,0,841.92)" d="M .000008871 0 L 595.32 0 L 595.32 841.92 L .000008871 841.92 Z " fill-rule="evenodd"/>
</clipPath>
<g clip-path="url(#cp9524)">
<text xml:space="preserve" transform="matrix(1 0 -0 1 0 841.92)" font-size="14.04" font-family="Times New Roman"><tspan y="-675.94" x="120.5 132.98157 140.78781 144.2978 157.34098 161.28621 168.34833 175.31217 182.37429 192.455 197.95868 201.46868 208.40444 214.6382 220.0436 223.89055 230.95267 235.62799 239.47495 246.53707 250.38402 257.34788 264.40998 267.91999 271.72483 277.2285 284.2906 287.64616 293.1498 296.99678 304.05888 307.90583 311.75279 318.81489 325.04866 328.55867 335.49443 339.43965 350.12409 356.35786 360.30308 366.53684 371.21217 374.72218 378.54106 385.60316 392.4406 396.38584 402.6196 408.1373 415.10115 422.16325 428.28468 435.2485">MS Windows dasturining ish stolida nimalar joylashgan?</tspan></text>
</g>
<clipPath id="cp9525">
<path transform="matrix(1,0,0,-1,0,841.92)" d="M .000008871 0 L 595.32 0 L 595.32 841.92 L .000008871 841.92 Z " fill-rule="evenodd"/>
</clipPath>
<g clip-path="url(#cp9525)">
<text xml:space="preserve" transform="matrix(1 0 -0 1 0 841.92)" font-size="14.04" font-family="Times New Roman"><tspan y="-675.94" x="441.82"> </tspan></text>
</g>
</g>
<g id="Layer-1" data-name="P">
<clipPath id="cp9526">
<path transform="matrix(1,0,0,-1,0,841.92)" d="M .000008871 0 L 595.32 0 L 595.32 841.92 L .000008871 841.92 Z " fill-rule="evenodd"/>
</clipPath>
<g clip-path="url(#cp9526)">
<text xml:space="preserve" transform="matrix(1 0 -0 1 0 841.92)" font-size="14.04" font-family="Times New Roman"><tspan y="-651.7" x="85.104 92.184 99.264">16.</tspan></text>
</g>
<clipPath id="cp9527">
<path transform="matrix(1,0,0,-1,0,841.92)" d="M .000008871 0 L 595.32 0 L 595.32 841.92 L .000008871 841.92 Z " fill-rule="evenodd"/>
</clipPath>
<g clip-path="url(#cp9527)">
<text xml:space="preserve" transform="matrix(1 0 -0 1 0 841.92)" font-size="14.04" font-family="Arial"><tspan y="-651.7" x="102.62"> </tspan></text>
</g>
<clipPath id="cp9528">
<path transform="matrix(1,0,0,-1,0,841.92)" d="M .000008871 0 L 595.32 0 L 595.32 841.92 L .000008871 841.92 Z " fill-rule="evenodd"/>
</clipPath>
<g clip-path="url(#cp9528)">
<text xml:space="preserve" transform="matrix(1 0 -0 1 0 841.92)" font-size="14.04" font-family="Times New Roman,Bold" font-weight="bold"><tspan y="-651.7" x="120.5 127.56212 137.64284 144.70496 152.5112 158.15528 166.18614 174.23107 181.1949 188.25702">&#x00ab;&#x041a;&#x043e;&#x0440;&#x0437;&#x0438;&#x043d;&#x0430;&#x00bb; </tspan></text>
</g>
<clipPath id="cp9529">
<path transform="matrix(1,0,0,-1,0,841.92)" d="M .000008871 0 L 595.32 0 L 595.32 841.92 L .000008871 841.92 Z " fill-rule="evenodd"/>
</clipPath>
<g clip-path="url(#cp9529)">
<text xml:space="preserve" transform="matrix(1 0 -0 1 0 841.92)" font-size="14.04" font-family="Times New Roman"><tspan y="-651.7" x="191.81 196.48532 204.29157 210.41301 217.47513 223.59658 227.54181 232.21714 235.72713 242.66289 248.89665 255.86049 262.9226 269.15638 276.00788 279.51789 283.421 290.51118 296.74494 302.86637 306.81159 313.04536 320.0092 326.24296 333.2068 337.05375 343.39985 346.90986">(Savat) qanday tozalanadi?  </tspan></text>
</g>
<clipPath id="cp9530">
<path transform="matrix(1,0,0,-1,0,841.92)" d="M .000008871 0 L 595.32 0 L 595.32 841.92 L .000008871 841.92 Z " fill-rule="evenodd"/>
</clipPath>
<g clip-path="url(#cp9530)">
<text xml:space="preserve" transform="matrix(1 0 -0 1 0 841.92)" font-size="14.04" font-family="Times New Roman"><tspan y="-651.7" x="350.35"> </tspan></text>
</g>
</g>
<g id="Layer-1" data-name="P">
<clipPath id="cp9531">
<path transform="matrix(1,0,0,-1,0,841.92)" d="M .000008871 0 L 595.32 0 L 595.32 841.92 L .000008871 841.92 Z " fill-rule="evenodd"/>
</clipPath>
<g clip-path="url(#cp9531)">
<text xml:space="preserve" transform="matrix(1 0 -0 1 0 841.92)" font-size="14.04" font-family="Times New Roman"><tspan y="-627.58" x="85.104 92.184 99.264">17.</tspan></text>
</g>
<clipPath id="cp9532">
<path transform="matrix(1,0,0,-1,0,841.92)" d="M .000008871 0 L 595.32 0 L 595.32 841.92 L .000008871 841.92 Z " fill-rule="evenodd"/>
</clipPath>
<g clip-path="url(#cp9532)">
<text xml:space="preserve" transform="matrix(1 0 -0 1 0 841.92)" font-size="14.04" font-family="Arial"><tspan y="-627.58" x="102.62"> </tspan></text>
</g>
<clipPath id="cp9533">
<path transform="matrix(1,0,0,-1,0,841.92)" d="M .000008871 0 L 595.32 0 L 595.32 841.92 L .000008871 841.92 Z " fill-rule="evenodd"/>
</clipPath>
<g clip-path="url(#cp9533)">
<text xml:space="preserve" transform="matrix(1 0 -0 1 0 841.92)" font-size="14.04" font-family="Times New Roman"><tspan y="-627.58" x="120.5 132.98157 140.78781 144.2978 157.34098 161.28621 168.34833 175.31217 182.37429 192.455 197.95868 201.46868 208.40444 214.6382 221.60204 228.66416 234.89792 241.74944">MS Windows qanday </tspan></text>
</g>
<clipPath id="cp9534">
<path transform="matrix(1,0,0,-1,0,841.92)" d="M .000008871 0 L 595.32 0 L 595.32 841.92 L .000008871 841.92 Z " fill-rule="evenodd"/>
</clipPath>
<g clip-path="url(#cp9534)">
<text xml:space="preserve" transform="matrix(1 0 -0 1 0 841.92)" font-size="14.04" font-family="Times New Roman"><tspan y="-627.58" x="245.33 249.27524 259.9597 267.0218 274.0839 281.146 285.09123 291.92869 298.16246 302.10768 306.0529 312.17433 316.84965 323.81349 330.04725 333.55726 339.79103 346.83909 352.9605">imkoniyatlarga ega?</tspan></text>
</g>
<clipPath id="cp9535">
<path transform="matrix(1,0,0,-1,0,841.92)" d="M .000008871 0 L 595.32 0 L 595.32 841.92 L .000008871 841.92 Z " fill-rule="evenodd"/>
</clipPath>
<g clip-path="url(#cp9535)">
<text xml:space="preserve" transform="matrix(1 0 -0 1 0 841.92)" font-size="14.04" font-family="Times New Roman"><tspan y="-627.58" x="359.23"> </tspan></text>
</g>
</g>
<g id="Layer-1" data-name="P">
<clipPath id="cp9536">
<path transform="matrix(1,0,0,-1,0,841.92)" d="M .000008871 0 L 595.32 0 L 595.32 841.92 L .000008871 841.92 Z " fill-rule="evenodd"/>
</clipPath>
<g clip-path="url(#cp9536)">
<text xml:space="preserve" transform="matrix(1 0 -0 1 0 841.92)" font-size="14.04" font-family="Times New Roman"><tspan y="-603.46" x="85.104 92.184 99.264">18.</tspan></text>
</g>
<clipPath id="cp9537">
<path transform="matrix(1,0,0,-1,0,841.92)" d="M .000008871 0 L 595.32 0 L 595.32 841.92 L .000008871 841.92 Z " fill-rule="evenodd"/>
</clipPath>
<g clip-path="url(#cp9537)">
<text xml:space="preserve" transform="matrix(1 0 -0 1 0 841.92)" font-size="14.04" font-family="Arial"><tspan y="-603.46" x="102.62"> </tspan></text>
</g>
<clipPath id="cp9538">
<path transform="matrix(1,0,0,-1,0,841.92)" d="M .000008871 0 L 595.32 0 L 595.32 841.92 L .000008871 841.92 Z " fill-rule="evenodd"/>
</clipPath>
<g clip-path="url(#cp9538)">
<text xml:space="preserve" transform="matrix(1 0 -0 1 0 841.92)" font-size="14.04" font-family="Times New Roman,Bold" font-weight="bold"><tspan y="-603.46" x="120.5 127.56212 138.48525 146.16513 153.22725 160.80886 167.82886 174.9331 183.02014 191.02294 199.06786">&#x00ab;&#x041f;&#x0440;&#x043e;&#x0432;&#x043e;&#x0434;&#x043d;&#x0438;&#x043a;&#x00bb;</tspan></text>
</g>
<clipPath id="cp9539">
<path transform="matrix(1,0,0,-1,0,841.92)" d="M .000008871 0 L 595.32 0 L 595.32 841.92 L .000008871 841.92 Z " fill-rule="evenodd"/>
</clipPath>
<g clip-path="url(#cp9539)">
<text xml:space="preserve" transform="matrix(1 0 -0 1 0 841.92)" font-size="14.04" font-family="Times New Roman"><tspan y="-603.46" x="206.21"> </tspan></text>
</g>
<clipPath id="cp9540">
<path transform="matrix(1,0,0,-1,0,841.92)" d="M .000008871 0 L 595.32 0 L 595.32 841.92 L .000008871 841.92 Z " fill-rule="evenodd"/>
</clipPath>
<g clip-path="url(#cp9540)">
<text xml:space="preserve" transform="matrix(1 0 -0 1 0 841.92)" font-size="14.04" font-family="Times New Roman"><tspan y="-603.46" x="209.69 214.36533 223.60366 230.56749 236.07117 243.035 246.98024 253.94408 261.0062 267.12763 274.18974 278.03669 282.712 286.22203 293.242 299.39155 304.8952 308.74217 315.80427 320.36726 324.31248 327.82249 334.75825 338.70347 349.3879 355.62168 359.2159 366.278 372.39945 379.46156 386.42539 393.4875 396.9975 403.93327 407.87849 414.11225 424.7967 431.03047 434.97569 438.4857 445.50569 449.40879 453.3119 459.46144 466.52354 470.37049">(Boshlovchi) dasturi nima uchun xizmat qiladi?</tspan></text>
</g>
<clipPath id="cp9541">
<path transform="matrix(1,0,0,-1,0,841.92)" d="M .000008871 0 L 595.32 0 L 595.32 841.92 L .000008871 841.92 Z " fill-rule="evenodd"/>
</clipPath>
<g clip-path="url(#cp9541)">
<text xml:space="preserve" transform="matrix(1 0 -0 1 0 841.92)" font-size="14.04" font-family="Times New Roman"><tspan y="-603.46" x="476.74"> </tspan></text>
</g>
</g>
<g id="Layer-1" data-name="P">
<clipPath id="cp9542">
<path transform="matrix(1,0,0,-1,0,841.92)" d="M .000008871 0 L 595.32 0 L 595.32 841.92 L .000008871 841.92 Z " fill-rule="evenodd"/>
</clipPath>
<g clip-path="url(#cp9542)">
<text xml:space="preserve" transform="matrix(1 0 -0 1 0 841.92)" font-size="14.04" font-family="Times New Roman"><tspan y="-579.34" x="106.82"> </tspan></text>
</g>
</g>
<g id="Layer-1" data-name="P">
<clipPath id="cp9543">
<path transform="matrix(1,0,0,-1,0,841.92)" d="M .000008871 0 L 595.32 0 L 595.32 841.92 L .000008871 841.92 Z " fill-rule="evenodd"/>
</clipPath>
<g clip-path="url(#cp9543)">
<text xml:space="preserve" transform="matrix(1 0 -0 1 0 841.92)" font-size="14.04" font-family="Times New Roman,Bold" font-weight="bold"><tspan y="-554.83" x="352.87"> </tspan></text>
</g>
</g>
<g id="Layer-1" data-name="P">
<clipPath id="cp9544">
<path transform="matrix(1,0,0,-1,0,841.92)" d="M .000008871 0 L 595.32 0 L 595.32 841.92 L .000008871 841.92 Z " fill-rule="evenodd"/>
</clipPath>
<g clip-path="url(#cp9544)">
<text xml:space="preserve" transform="matrix(1 0 -0 1 0 841.92)" font-size="14.04" font-family="Times New Roman"><tspan y="-530.95" x="145.82"> </tspan></text>
</g>
</g>
</g>
</g>
</svg>
