<?xml version="1.0" encoding="UTF-8" standalone="no"?>
<!DOCTYPE svg PUBLIC "-//W3C//DTD SVG 1.1//EN" "http://www.w3.org/Graphics/SVG/1.1/DTD/svg11.dtd">
<svg xmlns="http://www.w3.org/2000/svg" xmlns:xlink="http://www.w3.org/1999/xlink" version="1.1" width="595.32pt" height="841.92pt" viewBox="0 0 595.32 841.92">
<g enable-background="new">
<g>
<g id="Layer-1" data-name="Artifact">
<clipPath id="cp9847">
<path transform="matrix(1,0,0,-1,0,841.92)" d="M .000008871 0 L 595.32 0 L 595.32 841.92 L .000008871 841.92 Z " fill-rule="evenodd"/>
</clipPath>
<g clip-path="url(#cp9847)">
<text xml:space="preserve" transform="matrix(1 0 -0 1 0 841.92)" font-size="11.04" font-family="Calibri"><tspan y="-51.864" x="316.87 322.50999">69</tspan></text>
</g>
<clipPath id="cp9848">
<path transform="matrix(1,0,0,-1,0,841.92)" d="M .000008871 0 L 595.32 0 L 595.32 841.92 L .000008871 841.92 Z " fill-rule="evenodd"/>
</clipPath>
<g clip-path="url(#cp9848)">
<text xml:space="preserve" transform="matrix(1 0 -0 1 0 841.92)" font-size="11.04" font-family="Calibri"><tspan y="-51.864" x="328.15"> </tspan></text>
</g>
<clipPath id="cp9849">
<path transform="matrix(1,0,0,-1,0,841.92)" d="M .000008871 0 L 595.32 0 L 595.32 841.92 L .000008871 841.92 Z " fill-rule="evenodd"/>
</clipPath>
<g clip-path="url(#cp9849)">
</g>
<clipPath id="cp9850">
<path transform="matrix(1,0,0,-1,0,841.92)" d="M .000008871 0 L 595.32 0 L 595.32 841.92 L .000008871 841.92 Z " fill-rule="evenodd"/>
</clipPath>
<g clip-path="url(#cp9850)">
<text xml:space="preserve" transform="matrix(1 0 -0 1 0 841.92)" font-size="11.04" font-family="Calibri"><tspan y="-38.4" x="85.104"> </tspan></text>
</g>
<clipPath id="cp9851">
<path transform="matrix(1,0,0,-1,0,841.92)" d="M .000008871 0 L 595.32 0 L 595.32 841.92 L .000008871 841.92 Z " fill-rule="evenodd"/>
</clipPath>
<g clip-path="url(#cp9851)">
</g>
</g>
<g id="Layer-1" data-name="P">
<clipPath id="cp9852">
<path transform="matrix(1,0,0,-1,0,841.92)" d="M .000008871 0 L 595.32 0 L 595.32 841.92 L .000008871 841.92 Z " fill-rule="evenodd"/>
</clipPath>
<g clip-path="url(#cp9852)">
<text xml:space="preserve" transform="matrix(1 0 -0 1 0 841.92)" font-size="14.04" font-family="Times New Roman"><tspan y="-772.56" x="85.104">o</tspan></text>
</g>
<clipPath id="cp9853">
<path transform="matrix(1,0,0,-1,0,841.92)" d="M .000008871 0 L 595.32 0 L 595.32 841.92 L .000008871 841.92 Z " fill-rule="evenodd"/>
</clipPath>
<g clip-path="url(#cp9853)">
<text xml:space="preserve" transform="matrix(1 0 -0 1 0 841.92)" font-size="14.04" font-family="Times New Roman"><tspan y="-772.56" x="92.184">&#x2019;</tspan></text>
</g>
<clipPath id="cp9854">
<path transform="matrix(1,0,0,-1,0,841.92)" d="M .000008871 0 L 595.32 0 L 595.32 841.92 L .000008871 841.92 Z " fill-rule="evenodd"/>
</clipPath>
<g clip-path="url(#cp9854)">
<text xml:space="preserve" transform="matrix(1 0 -0 1 0 841.92)" font-size="14.04" font-family="Times New Roman"><tspan y="-772.56" x="96.744 102.97776 110.05392 113.99916 118.562168 122.40913 126.35437 132.58814 139.55197 143.49721 147.0072 152.11775 161.48244 168.43224 175.49436 182.45819 188.69196 195.76813 200.9208 204.76776 211.00153 216.51926 223.4831 230.54521 236.77898 241.34198 245.28722 250.4399 257.40376 261.34898 267.58274 272.7354 278.1408 282.08604 288.3198 295.28364 302.24748 309.30958 316.2734 322.39485 329.45695 335.6907 340.84339 347.9055 352.46849 359.53059 365.652 369.59724 373.54246 378.69514 385.65898 389.6042 394.16719 401.22929 408.29139 413.44407 420.4079 424.35313 429.02845 434.18113 444.97789 451.21165 455.15687 462.21897 467.2453 474.3074 478.15437 483.65803 494.34248 498.2877 505.3498 509.295 514.4477 521.5098 527.6313 531.57656 538.5404 542.3874 546.33267 552.4541 559.41799">chiriladi. Bundan tashqari biz sichqoncha orqali biron bir matn qismini belgilab </tspan></text>
</g>
<clipPath id="cp9855">
<path transform="matrix(1,0,0,-1,0,841.92)" d="M .000008871 0 L 595.32 0 L 595.32 841.92 L .000008871 841.92 Z " fill-rule="evenodd"/>
</clipPath>
<g clip-path="url(#cp9855)">
<text xml:space="preserve" transform="matrix(1 0 -0 1 0 841.92)" font-size="14.04" font-family="Times New Roman"><tspan y="-748.3" x="85.104 92.166118 99.12995 104.535358 111.59747 118.65959 124.89335 131.1271 135.80243 142.0362 148.88771 152.83295 159.89507 166.12883 172.23622 179.29834 186.26218 191.66757 198.72969 204.85114 210.35482 214.20177 221.26389 225.20912 231.31652 238.37863">boshqa faylga nusxasini ko</tspan></text>
</g>
<clipPath id="cp9856">
<path transform="matrix(1,0,0,-1,0,841.92)" d="M .000008871 0 L 595.32 0 L 595.32 841.92 L .000008871 841.92 Z " fill-rule="evenodd"/>
</clipPath>
<g clip-path="url(#cp9856)">
<text xml:space="preserve" transform="matrix(1 0 -0 1 0 841.92)" font-size="14.04" font-family="Times New Roman"><tspan y="-748.3" x="245.69">&#x2019;</tspan></text>
</g>
<clipPath id="cp9857">
<path transform="matrix(1,0,0,-1,0,841.92)" d="M .000008871 0 L 595.32 0 L 595.32 841.92 L .000008871 841.92 Z " fill-rule="evenodd"/>
</clipPath>
<g clip-path="url(#cp9857)">
<text xml:space="preserve" transform="matrix(1 0 -0 1 0 841.92)" font-size="14.04" font-family="Times New Roman"><tspan y="-748.3" x="250.25 256.48377 263.4476 267.39283 271.9558 275.90104 281.30644 288.36854 292.31376 302.9982 306.94343 313.1772 316.6872 322.89289 333.68965 339.9234">chirishimiz, mat</tspan></text>
</g>
<clipPath id="cp9858">
<path transform="matrix(1,0,0,-1,0,841.92)" d="M .000008871 0 L 595.32 0 L 595.32 841.92 L .000008871 841.92 Z " fill-rule="evenodd"/>
</clipPath>
<g clip-path="url(#cp9858)">
<text xml:space="preserve" transform="matrix(1 0 -0 1 0 841.92)" font-size="14.04" font-family="Times New Roman"><tspan y="-748.3" x="343.99 351.0521 358.01594 364.2497 371.21354 375.15876 381.37849">ndagi o</tspan></text>
</g>
<clipPath id="cp9859">
<path transform="matrix(1,0,0,-1,0,841.92)" d="M .000008871 0 L 595.32 0 L 595.32 841.92 L .000008871 841.92 Z " fill-rule="evenodd"/>
</clipPath>
<g clip-path="url(#cp9859)">
<text xml:space="preserve" transform="matrix(1 0 -0 1 0 841.92)" font-size="14.04" font-family="Times New Roman"><tspan y="-748.3" x="388.51">&#x2019;</tspan></text>
</g>
<clipPath id="cp9860">
<path transform="matrix(1,0,0,-1,0,841.92)" d="M .000008871 0 L 595.32 0 L 595.32 841.92 L .000008871 841.92 Z " fill-rule="evenodd"/>
</clipPath>
<g clip-path="url(#cp9860)">
<text xml:space="preserve" transform="matrix(1 0 -0 1 0 841.92)" font-size="14.04" font-family="Times New Roman"><tspan y="-748.3" x="393.07 397.74534 404.70918 408.6544 415.61824 419.56346 425.78318 432.01695 435.8639 446.66065 452.8944 458.4121 465.4742 469.32118 473.2664 477.82939 481.7746 487.18 494.2421 498.18733 508.87178 512.817 519.0508 522.5608 528.8788 535.7163 541.9501 549.02627 555.9901 559.8371">rnini almashtirishimiz, yangi </tspan></text>
</g>
<clipPath id="cp9861">
<path transform="matrix(1,0,0,-1,0,841.92)" d="M .000008871 0 L 595.32 0 L 595.32 841.92 L .000008871 841.92 Z " fill-rule="evenodd"/>
</clipPath>
<g clip-path="url(#cp9861)">
<text xml:space="preserve" transform="matrix(1 0 -0 1 0 841.92)" font-size="14.04" font-family="Times New Roman"><tspan y="-724.18" x="85.104 89.77932 96.85548 101.5308 112.21524 118.449 122.39424 125.90424 132.92424 139.158 143.83333 147.73645 153.11377 160.17589 164.12113 174.80558 178.75081 184.98458 188.49457 195.30397 202.49246 209.55458 213.49982 216.85538 223.9175 227.86273 232.42574 239.48786 245.6093 252.57314 256.51838 263.58049 269.81425 273.18385 280.24595 286.36738 290.3126 297.27644 301.12339 305.0686 311.30238 318.2662 325.3283 331.44975 338.51185 342.02186 348.9576 352.90284 358.4065 369.09095 376.15306 380.09828 383.60829">format berishimiz yoki birdaniga belgilangan qismni o</tspan></text>
</g>
<clipPath id="cp9862">
<path transform="matrix(1,0,0,-1,0,841.92)" d="M .000008871 0 L 595.32 0 L 595.32 841.92 L .000008871 841.92 Z " fill-rule="evenodd"/>
</clipPath>
<g clip-path="url(#cp9862)">
<text xml:space="preserve" transform="matrix(1 0 -0 1 0 841.92)" font-size="14.04" font-family="Times New Roman"><tspan y="-724.18" x="391.03">&#x2019;</tspan></text>
</g>
<clipPath id="cp9863">
<path transform="matrix(1,0,0,-1,0,841.92)" d="M .000008871 0 L 595.32 0 L 595.32 841.92 L .000008871 841.92 Z " fill-rule="evenodd"/>
</clipPath>
<g clip-path="url(#cp9863)">
<text xml:space="preserve" transform="matrix(1 0 -0 1 0 841.92)" font-size="14.04" font-family="Times New Roman"><tspan y="-724.18" x="395.59 401.82377 408.7876 412.73283 417.2958 421.24104 428.30314 431.6587 435.50566 441.7394 447.2571 454.22096 458.16618 464.2876 469.693 476.7551 480.70033 491.38478 495.33 501.56376 505.158 515.8424 523.0309 533.7153 540.7774 544.72268 551.7848 555.1404">chirib tashlashimiz mumkin. </tspan></text>
</g>
<clipPath id="cp9864">
<path transform="matrix(1,0,0,-1,0,841.92)" d="M .000008871 0 L 595.32 0 L 595.32 841.92 L .000008871 841.92 Z " fill-rule="evenodd"/>
</clipPath>
<g clip-path="url(#cp9864)">
<text xml:space="preserve" transform="matrix(1 0 -0 1 0 841.92)" font-size="14.04" font-family="Times New Roman"><tspan y="-724.18" x="558.82"> </tspan></text>
</g>
</g>
<g id="Layer-1" data-name="P">
<clipPath id="cp9865">
<path transform="matrix(1,0,0,-1,0,841.92)" d="M .000008871 0 L 595.32 0 L 595.32 841.92 L .000008871 841.92 Z " fill-rule="evenodd"/>
</clipPath>
<g clip-path="url(#cp9865)">
<text xml:space="preserve" transform="matrix(1 0 -0 1 0 841.92)" font-size="14.04" font-family="Times New Roman,Bold" font-weight="bold"><tspan y="-700.06" x="120.5 127.58">1.</tspan></text>
</g>
<clipPath id="cp9866">
<path transform="matrix(1,0,0,-1,0,841.92)" d="M .000008871 0 L 595.32 0 L 595.32 841.92 L .000008871 841.92 Z " fill-rule="evenodd"/>
</clipPath>
<g clip-path="url(#cp9866)">
<text xml:space="preserve" transform="matrix(1 0 -0 1 0 841.92)" font-size="14.04" font-family="Arial,Bold" font-weight="bold"><tspan y="-700.06" x="131.06"> </tspan></text>
</g>
<clipPath id="cp9867">
<path transform="matrix(1,0,0,-1,0,841.92)" d="M .000008871 0 L 595.32 0 L 595.32 841.92 L .000008871 841.92 Z " fill-rule="evenodd"/>
</clipPath>
<g clip-path="url(#cp9867)">
<text xml:space="preserve" transform="matrix(1 0 -0 1 0 841.92)" font-size="14.04" font-family="Times New Roman,Bold" font-weight="bold"><tspan y="-700.06" x="141.74 151.10469 158.16681 165.8467 169.79193 177.59818 191.37142 198.33525 202.28049 213.80733 220.86945 226.37313 234.17937 238.72834 242.67357 248.90734 252.75429 258.1597 265.96595 270.64128">Topib almashtirish: </tspan></text>
</g>
<clipPath id="cp9868">
<path transform="matrix(1,0,0,-1,0,841.92)" d="M .000008871 0 L 595.32 0 L 595.32 841.92 L .000008871 841.92 Z " fill-rule="evenodd"/>
</clipPath>
<g clip-path="url(#cp9868)">
<text xml:space="preserve" transform="matrix(1 0 -0 1 0 841.92)" font-size="14.04" font-family="Times New Roman,Italic" font-style="italic"><tspan y="-700.06" x="284.57 292.37626 299.43836 306.4022 310.24916 315.7528 322.8149">Topish </tspan></text>
</g>
<clipPath id="cp9869">
<path transform="matrix(1,0,0,-1,0,841.92)" d="M .000008871 0 L 595.32 0 L 595.32 841.92 L .000008871 841.92 Z " fill-rule="evenodd"/>
</clipPath>
<g clip-path="url(#cp9869)">
<text xml:space="preserve" transform="matrix(1 0 -0 1 0 841.92)" font-size="14.04" font-family="Times New Roman"><tspan y="-700.06" x="336.67 343.50749 350.56959 357.53343 361.47865">yoki </tspan></text>
</g>
<clipPath id="cp9870">
<path transform="matrix(1,0,0,-1,0,841.92)" d="M .000008871 0 L 595.32 0 L 595.32 841.92 L .000008871 841.92 Z " fill-rule="evenodd"/>
</clipPath>
<g clip-path="url(#cp9870)">
<text xml:space="preserve" transform="matrix(1 0 -0 1 0 841.92)" font-size="14.04" font-family="Times New Roman,Italic" font-style="italic"><tspan y="-700.06" x="375.31 385.39073 389.33595 396.29978 400.245 405.6504 409.5956 415.001 422.0631">Qidirish </tspan></text>
</g>
<clipPath id="cp9871">
<path transform="matrix(1,0,0,-1,0,841.92)" d="M .000008871 0 L 595.32 0 L 595.32 841.92 L .000008871 841.92 Z " fill-rule="evenodd"/>
</clipPath>
<g clip-path="url(#cp9871)">
<text xml:space="preserve" transform="matrix(1 0 -0 1 0 841.92)" font-size="14.04" font-family="Times New Roman"><tspan y="-700.06" x="435.91 442.87385 449.93595 456.7734 461.44874 468.52488 475.4887 479.43394 485.6677 490.23069 494.07765 507.97724 518.6616 524.8954 528.84066 535.9028 542.9649 549.08639 556.05026 559.8972">buyruqlari matndagi </tspan></text>
</g>
<clipPath id="cp9872">
<path transform="matrix(1,0,0,-1,0,841.92)" d="M .000008871 0 L 595.32 0 L 595.32 841.92 L .000008871 841.92 Z " fill-rule="evenodd"/>
</clipPath>
<g clip-path="url(#cp9872)">
</g>
<clipPath id="cp9873">
<path transform="matrix(1,0,0,-1,0,841.92)" d="M .000008871 0 L 595.32 0 L 595.32 841.92 L .000008871 841.92 Z " fill-rule="evenodd"/>
</clipPath>
<g clip-path="url(#cp9873)">
<text xml:space="preserve" transform="matrix(1 0 -0 1 0 841.92)" font-size="14.04" font-family="Times New Roman"><tspan y="-675.94" x="85.104">o</tspan></text>
</g>
<clipPath id="cp9874">
<path transform="matrix(1,0,0,-1,0,841.92)" d="M .000008871 0 L 595.32 0 L 595.32 841.92 L .000008871 841.92 Z " fill-rule="evenodd"/>
</clipPath>
<g clip-path="url(#cp9874)">
<text xml:space="preserve" transform="matrix(1 0 -0 1 0 841.92)" font-size="14.04" font-family="Times New Roman"><tspan y="-675.94" x="92.184">&#x2019;</tspan></text>
</g>
<clipPath id="cp9875">
<path transform="matrix(1,0,0,-1,0,841.92)" d="M .000008871 0 L 595.32 0 L 595.32 841.92 L .000008871 841.92 Z " fill-rule="evenodd"/>
</clipPath>
<g clip-path="url(#cp9875)">
<text xml:space="preserve" transform="matrix(1 0 -0 1 0 841.92)" font-size="14.04" font-family="Times New Roman"><tspan y="-675.94" x="96.744 102.97776 110.05392 116.287677 120.85068 124.79592 128.74115 133.30416 137.15111 141.09635 144.9433 150.44698 157.41082 161.35605 171.18404 178.24616 184.47992 189.15525 195.29073 202.25457 212.19487 219.1587">zgartirilishi kerak bo</tspan></text>
</g>
<clipPath id="cp9876">
<path transform="matrix(1,0,0,-1,0,841.92)" d="M .000008871 0 L 595.32 0 L 595.32 841.92 L .000008871 841.92 Z " fill-rule="evenodd"/>
</clipPath>
<g clip-path="url(#cp9876)">
<text xml:space="preserve" transform="matrix(1 0 -0 1 0 841.92)" font-size="14.04" font-family="Times New Roman"><tspan y="-675.94" x="226.37">&#x2019;</tspan></text>
</g>
<clipPath id="cp9877">
<path transform="matrix(1,0,0,-1,0,841.92)" d="M .000008871 0 L 595.32 0 L 595.32 841.92 L .000008871 841.92 Z " fill-rule="evenodd"/>
</clipPath>
<g clip-path="url(#cp9877)">
<text xml:space="preserve" transform="matrix(1 0 -0 1 0 841.92)" font-size="14.04" font-family="Times New Roman"><tspan y="-675.94" x="230.93 234.87523 241.93735 248.05879 255.12091 264.9489 270.45259">lgan so</tspan></text>
</g>
<clipPath id="cp9878">
<path transform="matrix(1,0,0,-1,0,841.92)" d="M .000008871 0 L 595.32 0 L 595.32 841.92 L .000008871 841.92 Z " fill-rule="evenodd"/>
</clipPath>
<g clip-path="url(#cp9878)">
<text xml:space="preserve" transform="matrix(1 0 -0 1 0 841.92)" font-size="14.04" font-family="Times New Roman"><tspan y="-675.94" x="277.61">&#x2019;</tspan></text>
</g>
<clipPath id="cp9879">
<path transform="matrix(1,0,0,-1,0,841.92)" d="M .000008871 0 L 595.32 0 L 595.32 841.92 L .000008871 841.92 Z " fill-rule="evenodd"/>
</clipPath>
<g clip-path="url(#cp9879)">
<text xml:space="preserve" transform="matrix(1 0 -0 1 0 841.92)" font-size="14.04" font-family="Times New Roman"><tspan y="-675.94" x="282.17 288.40379 298.35816 305.19563 312.25773 319.31983 323.16679 333.10713 338.61079">z yoki so</tspan></text>
</g>
<clipPath id="cp9880">
<path transform="matrix(1,0,0,-1,0,841.92)" d="M .000008871 0 L 595.32 0 L 595.32 841.92 L .000008871 841.92 Z " fill-rule="evenodd"/>
</clipPath>
<g clip-path="url(#cp9880)">
<text xml:space="preserve" transform="matrix(1 0 -0 1 0 841.92)" font-size="14.04" font-family="Times New Roman"><tspan y="-675.94" x="345.79">&#x2019;</tspan></text>
</g>
<clipPath id="cp9881">
<path transform="matrix(1,0,0,-1,0,841.92)" d="M .000008871 0 L 595.32 0 L 595.32 841.92 L .000008871 841.92 Z " fill-rule="evenodd"/>
</clipPath>
<g clip-path="url(#cp9881)">
<text xml:space="preserve" transform="matrix(1 0 -0 1 0 841.92)" font-size="14.04" font-family="Times New Roman"><tspan y="-675.94" x="350.35 356.58378 366.41178 373.47389 377.4191 381.9821 385.82905 392.89115 403.5756 409.80937 415.32707 419.27229 426.2361 430.18135 440.12168 443.96864 451.03074 457.99458 464.22834 471.19218 475.1374 478.6474">z birikmasini topadi. </tspan></text>
</g>
<clipPath id="cp9882">
<path transform="matrix(1,0,0,-1,0,841.92)" d="M .000008871 0 L 595.32 0 L 595.32 841.92 L .000008871 841.92 Z " fill-rule="evenodd"/>
</clipPath>
<g clip-path="url(#cp9882)">
<text xml:space="preserve" transform="matrix(1 0 -0 1 0 841.92)" font-size="14.04" font-family="Times New Roman,Italic" font-style="italic"><tspan y="-675.94" x="488.74 497.26228 501.2075 511.16184 518.22396 523.62936 530.69149 534.53848 538.38546 543.8891 547.60977 553.01516 559.979">Almashtirish </tspan></text>
</g>
<clipPath id="cp9883">
<path transform="matrix(1,0,0,-1,0,841.92)" d="M .000008871 0 L 595.32 0 L 595.32 841.92 L .000008871 841.92 Z " fill-rule="evenodd"/>
</clipPath>
<g clip-path="url(#cp9883)">
</g>
<clipPath id="cp9884">
<path transform="matrix(1,0,0,-1,0,841.92)" d="M .000008871 0 L 595.32 0 L 595.32 841.92 L .000008871 841.92 Z " fill-rule="evenodd"/>
</clipPath>
<g clip-path="url(#cp9884)">
<text xml:space="preserve" transform="matrix(1 0 -0 1 0 841.92)" font-size="14.04" font-family="Times New Roman"><tspan y="-651.7" x="85.104 92.166118 99.22823 106.06571 110.741039 117.81719">buyrug</tspan></text>
</g>
<clipPath id="cp9885">
<path transform="matrix(1,0,0,-1,0,841.92)" d="M .000008871 0 L 595.32 0 L 595.32 841.92 L .000008871 841.92 Z " fill-rule="evenodd"/>
</clipPath>
<g clip-path="url(#cp9885)">
<text xml:space="preserve" transform="matrix(1 0 -0 1 0 841.92)" font-size="14.04" font-family="Times New Roman"><tspan y="-651.7" x="124.94">&#x2019;</tspan></text>
</g>
<clipPath id="cp9886">
<path transform="matrix(1,0,0,-1,0,841.92)" d="M .000008871 0 L 595.32 0 L 595.32 841.92 L .000008871 841.92 Z " fill-rule="evenodd"/>
</clipPath>
<g clip-path="url(#cp9886)">
<text xml:space="preserve" transform="matrix(1 0 -0 1 0 841.92)" font-size="14.04" font-family="Times New Roman"><tspan y="-651.7" x="129.5 133.44524 140.26868 146.50244 152.02017 158.14162 165.09142 168.93837 175.9022 182.96433 186.81128 190.75652 197.72035 203.8418 210.90392 217.85372 223.25911">i esa topilgan so</tspan></text>
</g>
<clipPath id="cp9887">
<path transform="matrix(1,0,0,-1,0,841.92)" d="M .000008871 0 L 595.32 0 L 595.32 841.92 L .000008871 841.92 Z " fill-rule="evenodd"/>
</clipPath>
<g clip-path="url(#cp9887)">
<text xml:space="preserve" transform="matrix(1 0 -0 1 0 841.92)" font-size="14.04" font-family="Times New Roman"><tspan y="-651.7" x="230.45">&#x2019;</tspan></text>
</g>
<clipPath id="cp9888">
<path transform="matrix(1,0,0,-1,0,841.92)" d="M .000008871 0 L 595.32 0 L 595.32 841.92 L .000008871 841.92 Z " fill-rule="evenodd"/>
</clipPath>
<g clip-path="url(#cp9888)">
<text xml:space="preserve" transform="matrix(1 0 -0 1 0 841.92)" font-size="14.04" font-family="Times New Roman"><tspan y="-651.7" x="235.01 241.24376 244.75376 251.67546 257.08088">z, so</tspan></text>
</g>
<clipPath id="cp9889">
<path transform="matrix(1,0,0,-1,0,841.92)" d="M .000008871 0 L 595.32 0 L 595.32 841.92 L .000008871 841.92 Z " fill-rule="evenodd"/>
</clipPath>
<g clip-path="url(#cp9889)">
<text xml:space="preserve" transform="matrix(1 0 -0 1 0 841.92)" font-size="14.04" font-family="Times New Roman"><tspan y="-651.7" x="264.17">&#x2019;</tspan></text>
</g>
<clipPath id="cp9890">
<path transform="matrix(1,0,0,-1,0,841.92)" d="M .000008871 0 L 595.32 0 L 595.32 841.92 L .000008871 841.92 Z " fill-rule="evenodd"/>
</clipPath>
<g clip-path="url(#cp9890)">
<text xml:space="preserve" transform="matrix(1 0 -0 1 0 841.92)" font-size="14.04" font-family="Times New Roman"><tspan y="-651.7" x="268.73 274.96379 281.91358 288.8774 292.82264 297.49797 301.3449 308.407 319.09147 325.43757 330.94123 334.78819 341.85029 345.69725 352.64704">z birikmasini o</tspan></text>
</g>
<clipPath id="cp9891">
<path transform="matrix(1,0,0,-1,0,841.92)" d="M .000008871 0 L 595.32 0 L 595.32 841.92 L .000008871 841.92 Z " fill-rule="evenodd"/>
</clipPath>
<g clip-path="url(#cp9891)">
<text xml:space="preserve" transform="matrix(1 0 -0 1 0 841.92)" font-size="14.04" font-family="Times New Roman"><tspan y="-651.7" x="359.83">&#x2019;</tspan></text>
</g>
<clipPath id="cp9892">
<path transform="matrix(1,0,0,-1,0,841.92)" d="M .000008871 0 L 595.32 0 L 595.32 841.92 L .000008871 841.92 Z " fill-rule="evenodd"/>
</clipPath>
<g clip-path="url(#cp9892)">
<text xml:space="preserve" transform="matrix(1 0 -0 1 0 841.92)" font-size="14.04" font-family="Times New Roman"><tspan y="-651.7" x="364.39 369.06535 376.02919 379.87614 386.93824 393.172 400.0095 407.0716 411.0168 417.13825 424.20036 430.4341 437.2716 444.23545 450.4692 455.14454 461.3783 468.35618 472.3014 476.14836 483.11219 487.0574 494.02125 497.96647 504.78993 511.85203">rniga bizga kerakligini qo</tspan></text>
</g>
<clipPath id="cp9893">
<path transform="matrix(1,0,0,-1,0,841.92)" d="M .000008871 0 L 595.32 0 L 595.32 841.92 L .000008871 841.92 Z " fill-rule="evenodd"/>
</clipPath>
<g clip-path="url(#cp9893)">
<text xml:space="preserve" transform="matrix(1 0 -0 1 0 841.92)" font-size="14.04" font-family="Times New Roman"><tspan y="-651.7" x="519.1">&#x2019;</tspan></text>
</g>
<clipPath id="cp9894">
<path transform="matrix(1,0,0,-1,0,841.92)" d="M .000008871 0 L 595.32 0 L 595.32 841.92 L .000008871 841.92 Z " fill-rule="evenodd"/>
</clipPath>
<g clip-path="url(#cp9894)">
<text xml:space="preserve" transform="matrix(1 0 -0 1 0 841.92)" font-size="14.04" font-family="Times New Roman"><tspan y="-651.7" x="523.66 530.4975 534.44277 539.9464 546.9103 553.87417 559.9956">yishga </tspan></text>
</g>
<clipPath id="cp9895">
<path transform="matrix(1,0,0,-1,0,841.92)" d="M .000008871 0 L 595.32 0 L 595.32 841.92 L .000008871 841.92 Z " fill-rule="evenodd"/>
</clipPath>
<g clip-path="url(#cp9895)">
</g>
<clipPath id="cp9896">
<path transform="matrix(1,0,0,-1,0,841.92)" d="M .000008871 0 L 595.32 0 L 595.32 841.92 L .000008871 841.92 Z " fill-rule="evenodd"/>
</clipPath>
<g clip-path="url(#cp9896)">
<text xml:space="preserve" transform="matrix(1 0 -0 1 0 841.92)" font-size="14.04" font-family="Times New Roman"><tspan y="-627.58" x="85.104 92.166118 96.11136 102.345119 113.02956 119.26331 123.20856 126.71856 133.65431 137.59955 141.54479 147.66623 154.63007 158.5753">xizmat qiladi.</tspan></text>
</g>
<clipPath id="cp9897">
<path transform="matrix(1,0,0,-1,0,841.92)" d="M .000008871 0 L 595.32 0 L 595.32 841.92 L .000008871 841.92 Z " fill-rule="evenodd"/>
</clipPath>
<g clip-path="url(#cp9897)">
<text xml:space="preserve" transform="matrix(1 0 -0 1 0 841.92)" font-size="14.04" font-family="Times New Roman"><tspan y="-627.58" x="162.14"> </tspan></text>
</g>
<clipPath id="cp9898">
<path transform="matrix(1,0,0,-1,0,841.92)" d="M .000008871 0 L 595.32 0 L 595.32 841.92 L .000008871 841.92 Z " fill-rule="evenodd"/>
</clipPath>
<g clip-path="url(#cp9898)">
</g>
</g>
<g id="Layer-1" data-name="P">
<clipPath id="cp9899">
<path transform="matrix(1,0,0,-1,0,841.92)" d="M .000008871 0 L 595.32 0 L 595.32 841.92 L .000008871 841.92 Z " fill-rule="evenodd"/>
</clipPath>
<g clip-path="url(#cp9899)">
<text xml:space="preserve" transform="matrix(1 0 -0 1 0 841.92)" font-size="14.04" font-family="Times New Roman,Bold" font-weight="bold"><tspan y="-603.46" x="120.5 127.58">2.</tspan></text>
</g>
<clipPath id="cp9900">
<path transform="matrix(1,0,0,-1,0,841.92)" d="M .000008871 0 L 595.32 0 L 595.32 841.92 L .000008871 841.92 Z " fill-rule="evenodd"/>
</clipPath>
<g clip-path="url(#cp9900)">
<text xml:space="preserve" transform="matrix(1 0 -0 1 0 841.92)" font-size="14.04" font-family="Arial,Bold" font-weight="bold"><tspan y="-603.46" x="131.06"> </tspan></text>
</g>
<clipPath id="cp9901">
<path transform="matrix(1,0,0,-1,0,841.92)" d="M .000008871 0 L 595.32 0 L 595.32 841.92 L .000008871 841.92 Z " fill-rule="evenodd"/>
</clipPath>
<g clip-path="url(#cp9901)">
<text xml:space="preserve" transform="matrix(1 0 -0 1 0 841.92)" font-size="14.04" font-family="Times New Roman,Bold" font-weight="bold"><tspan y="-603.46" x="141.74 152.66313 159.72525 164.28826 171.35037 179.15662 183.10186 195.09201 199.65502 205.88878 213.45635 218.96002 226.76627 230.7115 236.94527 240.8905 246.2959 254.10214 258.6511">Hatoni tekshirish: </tspan></text>
</g>
<clipPath id="cp9902">
<path transform="matrix(1,0,0,-1,0,841.92)" d="M .000008871 0 L 595.32 0 L 595.32 841.92 L .000008871 841.92 Z " fill-rule="evenodd"/>
</clipPath>
<g clip-path="url(#cp9902)">
<text xml:space="preserve" transform="matrix(1 0 -0 1 0 841.92)" font-size="14.04" font-family="Times New Roman,Italic" font-style="italic"><tspan y="-603.46" x="270.77 280.8507 287.9128 291.85804 298.82188 305.7857 309.73094 321.7211 325.66633 331.78776 338.0215 343.4269 350.489 354.33598 359.74137 363.68659 369.09199 376.05583">Hatoni tekshirish </tspan></text>
</g>
<clipPath id="cp9903">
<path transform="matrix(1,0,0,-1,0,841.92)" d="M .000008871 0 L 595.32 0 L 595.32 841.92 L .000008871 841.92 Z " fill-rule="evenodd"/>
</clipPath>
<g clip-path="url(#cp9903)">
<text xml:space="preserve" transform="matrix(1 0 -0 1 0 841.92)" font-size="14.04" font-family="Times New Roman"><tspan y="-603.46" x="388.15 395.2121 402.2742 409.11167 413.787 420.86314">buyrug</tspan></text>
</g>
<clipPath id="cp9904">
<path transform="matrix(1,0,0,-1,0,841.92)" d="M .000008871 0 L 595.32 0 L 595.32 841.92 L .000008871 841.92 Z " fill-rule="evenodd"/>
</clipPath>
<g clip-path="url(#cp9904)">
<text xml:space="preserve" transform="matrix(1 0 -0 1 0 841.92)" font-size="14.04" font-family="Times New Roman"><tspan y="-603.46" x="427.99">&#x2019;</tspan></text>
</g>
<clipPath id="cp9905">
<path transform="matrix(1,0,0,-1,0,841.92)" d="M .000008871 0 L 595.32 0 L 595.32 841.92 L .000008871 841.92 Z " fill-rule="evenodd"/>
</clipPath>
<g clip-path="url(#cp9905)">
<text xml:space="preserve" transform="matrix(1 0 -0 1 0 841.92)" font-size="14.04" font-family="Times New Roman"><tspan y="-603.46" x="432.55 436.4952 448.48539 459.16984 465.4036 469.34883 476.41093 483.47303 489.59446 501.58464 505.52986 510.93525 517.9974 521.9426 528.0641 531.9111 535.8563 539.7033 546.76547 552.8869 559.85079">i matnda ishlatilgan </tspan></text>
</g>
<clipPath id="cp9906">
<path transform="matrix(1,0,0,-1,0,841.92)" d="M .000008871 0 L 595.32 0 L 595.32 841.92 L .000008871 841.92 Z " fill-rule="evenodd"/>
</clipPath>
<g clip-path="url(#cp9906)">
</g>
<clipPath id="cp9907">
<path transform="matrix(1,0,0,-1,0,841.92)" d="M .000008871 0 L 595.32 0 L 595.32 841.92 L .000008871 841.92 Z " fill-rule="evenodd"/>
</clipPath>
<g clip-path="url(#cp9907)">
<text xml:space="preserve" transform="matrix(1 0 -0 1 0 841.92)" font-size="14.04" font-family="Times New Roman"><tspan y="-579.34" x="85.104 90.623958">so</tspan></text>
</g>
<clipPath id="cp9908">
<path transform="matrix(1,0,0,-1,0,841.92)" d="M .000008871 0 L 595.32 0 L 595.32 841.92 L .000008871 841.92 Z " fill-rule="evenodd"/>
</clipPath>
<g clip-path="url(#cp9908)">
<text xml:space="preserve" transform="matrix(1 0 -0 1 0 841.92)" font-size="14.04" font-family="Times New Roman"><tspan y="-579.34" x="97.704">&#x2019;</tspan></text>
</g>
<clipPath id="cp9909">
<path transform="matrix(1,0,0,-1,0,841.92)" d="M .000008871 0 L 595.32 0 L 595.32 841.92 L .000008871 841.92 Z " fill-rule="evenodd"/>
</clipPath>
<g clip-path="url(#cp9909)">
<text xml:space="preserve" transform="matrix(1 0 -0 1 0 841.92)" font-size="14.04" font-family="Times New Roman"><tspan y="-579.34" x="102.26 108.49376 112.439 118.56044 123.23576 130.1996 134.14484 139.04479 146.1069 152.22835 157.63375 161.57898 168.6411 173.2041 180.16794 184.11318 191.07701 198.13913 202.92676">zlarni dasturning o</tspan></text>
</g>
<clipPath id="cp9910">
<path transform="matrix(1,0,0,-1,0,841.92)" d="M .000008871 0 L 595.32 0 L 595.32 841.92 L .000008871 841.92 Z " fill-rule="evenodd"/>
</clipPath>
<g clip-path="url(#cp9910)">
<text xml:space="preserve" transform="matrix(1 0 -0 1 0 841.92)" font-size="14.04" font-family="Times New Roman"><tspan y="-579.34" x="210.17">&#x2019;</tspan></text>
</g>
<clipPath id="cp9911">
<path transform="matrix(1,0,0,-1,0,841.92)" d="M .000008871 0 L 595.32 0 L 595.32 841.92 L .000008871 841.92 Z " fill-rule="evenodd"/>
</clipPath>
<g clip-path="url(#cp9911)">
<text xml:space="preserve" transform="matrix(1 0 -0 1 0 841.92)" font-size="14.04" font-family="Times New Roman"><tspan y="-579.34" x="214.73 220.96376 224.909 231.97112 238.20488 243.11888 253.80333 260.03709 267.11323 270.96018 278.02229 285.08439 289.87205 293.81727 300.7811">zida mavjud lug</tspan></text>
</g>
<clipPath id="cp9912">
<path transform="matrix(1,0,0,-1,0,841.92)" d="M .000008871 0 L 595.32 0 L 595.32 841.92 L .000008871 841.92 Z " fill-rule="evenodd"/>
</clipPath>
<g clip-path="url(#cp9912)">
<text xml:space="preserve" transform="matrix(1 0 -0 1 0 841.92)" font-size="14.04" font-family="Times New Roman"><tspan y="-579.34" x="307.97">&#x2019;</tspan></text>
</g>
<clipPath id="cp9913">
<path transform="matrix(1,0,0,-1,0,841.92)" d="M .000008871 0 L 595.32 0 L 595.32 841.92 L .000008871 841.92 Z " fill-rule="evenodd"/>
</clipPath>
<g clip-path="url(#cp9913)">
<text xml:space="preserve" transform="matrix(1 0 -0 1 0 841.92)" font-size="14.04" font-family="Times New Roman"><tspan y="-579.34" x="312.53 318.76377 322.61073 327.51069 334.57279 338.41975 342.36497 348.59873 355.67488 360.46253 365.86793 372.93003 376.77699 380.7222 386.1276 393.09144 397.03666 400.98188 405.6572 411.77864 418.74247 422.68769 426.1977 431.06959 439.59187 446.65397">at bilan solishtiradi. Lug</tspan></text>
</g>
<clipPath id="cp9914">
<path transform="matrix(1,0,0,-1,0,841.92)" d="M .000008871 0 L 595.32 0 L 595.32 841.92 L .000008871 841.92 Z " fill-rule="evenodd"/>
</clipPath>
<g clip-path="url(#cp9914)">
<text xml:space="preserve" transform="matrix(1 0 -0 1 0 841.92)" font-size="14.04" font-family="Times New Roman"><tspan y="-579.34" x="453.94">&#x2019;</tspan></text>
</g>
<clipPath id="cp9915">
<path transform="matrix(1,0,0,-1,0,841.92)" d="M .000008871 0 L 595.32 0 L 595.32 841.92 L .000008871 841.92 Z " fill-rule="evenodd"/>
</clipPath>
<g clip-path="url(#cp9915)">
<text xml:space="preserve" transform="matrix(1 0 -0 1 0 841.92)" font-size="14.04" font-family="Times New Roman"><tspan y="-579.34" x="458.5 464.73377 468.58073 475.64283 481.8766 486.7906 493.62806">atda yo</tspan></text>
</g>
<clipPath id="cp9916">
<path transform="matrix(1,0,0,-1,0,841.92)" d="M .000008871 0 L 595.32 0 L 595.32 841.92 L .000008871 841.92 Z " fill-rule="evenodd"/>
</clipPath>
<g clip-path="url(#cp9916)">
<text xml:space="preserve" transform="matrix(1 0 -0 1 0 841.92)" font-size="14.04" font-family="Times New Roman"><tspan y="-579.34" x="500.74">&#x2019;</tspan></text>
</g>
<clipPath id="cp9917">
<path transform="matrix(1,0,0,-1,0,841.92)" d="M .000008871 0 L 595.32 0 L 595.32 841.92 L .000008871 841.92 Z " fill-rule="evenodd"/>
</clipPath>
<g clip-path="url(#cp9917)">
<text xml:space="preserve" transform="matrix(1 0 -0 1 0 841.92)" font-size="14.04" font-family="Times New Roman"><tspan y="-579.34" x="505.3 512.3621 517.2621 524.3242">q bo</tspan></text>
</g>
<clipPath id="cp9918">
<path transform="matrix(1,0,0,-1,0,841.92)" d="M .000008871 0 L 595.32 0 L 595.32 841.92 L .000008871 841.92 Z " fill-rule="evenodd"/>
</clipPath>
<g clip-path="url(#cp9918)">
<text xml:space="preserve" transform="matrix(1 0 -0 1 0 841.92)" font-size="14.04" font-family="Times New Roman"><tspan y="-579.34" x="531.46">&#x2019;</tspan></text>
</g>
<clipPath id="cp9919">
<path transform="matrix(1,0,0,-1,0,841.92)" d="M .000008871 0 L 595.32 0 L 595.32 841.92 L .000008871 841.92 Z " fill-rule="evenodd"/>
</clipPath>
<g clip-path="url(#cp9919)">
<text xml:space="preserve" transform="matrix(1 0 -0 1 0 841.92)" font-size="14.04" font-family="Times New Roman"><tspan y="-579.34" x="536.02 539.867 546.92916">lga</tspan></text>
</g>
<clipPath id="cp9920">
<path transform="matrix(1,0,0,-1,0,841.92)" d="M .000008871 0 L 595.32 0 L 595.32 841.92 L .000008871 841.92 Z " fill-rule="evenodd"/>
</clipPath>
<g clip-path="url(#cp9920)">
<text xml:space="preserve" transform="matrix(1 0 -0 1 0 841.92)" font-size="14.04" font-family="Times New Roman"><tspan y="-579.34" x="553.18 560.02">n </tspan></text>
</g>
<clipPath id="cp9921">
<path transform="matrix(1,0,0,-1,0,841.92)" d="M .000008871 0 L 595.32 0 L 595.32 841.92 L .000008871 841.92 Z " fill-rule="evenodd"/>
</clipPath>
<g clip-path="url(#cp9921)">
</g>
<clipPath id="cp9922">
<path transform="matrix(1,0,0,-1,0,841.92)" d="M .000008871 0 L 595.32 0 L 595.32 841.92 L .000008871 841.92 Z " fill-rule="evenodd"/>
</clipPath>
<g clip-path="url(#cp9922)">
<text xml:space="preserve" transform="matrix(1 0 -0 1 0 841.92)" font-size="14.04" font-family="Times New Roman"><tspan y="-555.07" x="85.104 90.623958">so</tspan></text>
</g>
<clipPath id="cp9923">
<path transform="matrix(1,0,0,-1,0,841.92)" d="M .000008871 0 L 595.32 0 L 595.32 841.92 L .000008871 841.92 Z " fill-rule="evenodd"/>
</clipPath>
<g clip-path="url(#cp9923)">
<text xml:space="preserve" transform="matrix(1 0 -0 1 0 841.92)" font-size="14.04" font-family="Times New Roman"><tspan y="-555.07" x="97.704">&#x2019;</tspan></text>
</g>
<clipPath id="cp9924">
<path transform="matrix(1,0,0,-1,0,841.92)" d="M .000008871 0 L 595.32 0 L 595.32 841.92 L .000008871 841.92 Z " fill-rule="evenodd"/>
</clipPath>
<g clip-path="url(#cp9924)">
<text xml:space="preserve" transform="matrix(1 0 -0 1 0 841.92)" font-size="14.04" font-family="Times New Roman"><tspan y="-555.07" x="102.26 108.49376 112.439 118.56044 123.23576 137.50041 144.56253 150.7963 154.64325 161.60709 165.55233 169.49756 175.619 182.68112 196.94576 203.90959">zlar belgilab qo</tspan></text>
</g>
<clipPath id="cp9925">
<path transform="matrix(1,0,0,-1,0,841.92)" d="M .000008871 0 L 595.32 0 L 595.32 841.92 L .000008871 841.92 Z " fill-rule="evenodd"/>
</clipPath>
<g clip-path="url(#cp9925)">
<text xml:space="preserve" transform="matrix(1 0 -0 1 0 841.92)" font-size="14.04" font-family="Times New Roman"><tspan y="-555.07" x="211.13">&#x2019;</tspan></text>
</g>
<clipPath id="cp9926">
<path transform="matrix(1,0,0,-1,0,841.92)" d="M .000008871 0 L 595.32 0 L 595.32 841.92 L .000008871 841.92 Z " fill-rule="evenodd"/>
</clipPath>
<g clip-path="url(#cp9926)">
<text xml:space="preserve" transform="matrix(1 0 -0 1 0 841.92)" font-size="14.04" font-family="Times New Roman"><tspan y="-555.07" x="215.81 222.64748 226.59272 230.53795 236.6594 243.72151 247.66675 261.9314 268.9935 275.11494 289.50596 296.4698 300.415 306.64878 320.92747 327.98957 331.93479 338.0562 342.73155 349.69538 353.6406 367.90525">yiladi va biz ularni o</tspan></text>
</g>
<clipPath id="cp9927">
<path transform="matrix(1,0,0,-1,0,841.92)" d="M .000008871 0 L 595.32 0 L 595.32 841.92 L .000008871 841.92 Z " fill-rule="evenodd"/>
</clipPath>
<g clip-path="url(#cp9927)">
<text xml:space="preserve" transform="matrix(1 0 -0 1 0 841.92)" font-size="14.04" font-family="Times New Roman"><tspan y="-555.07" x="375.19">&#x2019;</tspan></text>
</g>
<clipPath id="cp9928">
<path transform="matrix(1,0,0,-1,0,841.92)" d="M .000008871 0 L 595.32 0 L 595.32 841.92 L .000008871 841.92 Z " fill-rule="evenodd"/>
</clipPath>
<g clip-path="url(#cp9928)">
<text xml:space="preserve" transform="matrix(1 0 -0 1 0 841.92)" font-size="14.04" font-family="Times New Roman"><tspan y="-555.07" x="379.75 385.98377 393.0599 399.29368 403.85667 407.80189 411.64884 416.32417 420.1711 425.67478 432.6386 436.48558 447.17 451.11524 457.349 460.859 475.22193 480.7256 487.7877 494.75154 501.81364 508.77748 515.0112 521.8628 525.80807 529.7533 536.71719 540.6624 546.7839 553.74777 559.8692">zgartirishimiz, shundayligicha </tspan></text>
</g>
<clipPath id="cp9929">
<path transform="matrix(1,0,0,-1,0,841.92)" d="M .000008871 0 L 595.32 0 L 595.32 841.92 L .000008871 841.92 Z " fill-rule="evenodd"/>
</clipPath>
<g clip-path="url(#cp9929)">
</g>
<clipPath id="cp9930">
<path transform="matrix(1,0,0,-1,0,841.92)" d="M .000008871 0 L 595.32 0 L 595.32 841.92 L .000008871 841.92 Z " fill-rule="evenodd"/>
</clipPath>
<g clip-path="url(#cp9930)">
<text xml:space="preserve" transform="matrix(1 0 -0 1 0 841.92)" font-size="14.04" font-family="Times New Roman"><tspan y="-530.95" x="85.104 92.166118 99.12995 102.97691 110.03903 113.984279 118.54728 122.49252 127.89793 134.86176 138.80699 149.49144 153.43668 159.67044 169.86348 176.70096 183.76308 190.8252 194.77043 204.71074 208.65598 215.61981">qoldirishimiz yoki lug</tspan></text>
</g>
<clipPath id="cp9931">
<path transform="matrix(1,0,0,-1,0,841.92)" d="M .000008871 0 L 595.32 0 L 595.32 841.92 L .000008871 841.92 Z " fill-rule="evenodd"/>
</clipPath>
<g clip-path="url(#cp9931)">
<text xml:space="preserve" transform="matrix(1 0 -0 1 0 841.92)" font-size="14.04" font-family="Times New Roman"><tspan y="-530.95" x="222.89">&#x2019;</tspan></text>
</g>
<clipPath id="cp9932">
<path transform="matrix(1,0,0,-1,0,841.92)" d="M .000008871 0 L 595.32 0 L 595.32 841.92 L .000008871 841.92 Z " fill-rule="evenodd"/>
</clipPath>
<g clip-path="url(#cp9932)">
<text xml:space="preserve" transform="matrix(1 0 -0 1 0 841.92)" font-size="14.04" font-family="Times New Roman"><tspan y="-530.95" x="227.45 233.68376 237.53072 244.59284 250.8266 260.89329 267.85713">atga qo</tspan></text>
</g>
<clipPath id="cp9933">
<path transform="matrix(1,0,0,-1,0,841.92)" d="M .000008871 0 L 595.32 0 L 595.32 841.92 L .000008871 841.92 Z " fill-rule="evenodd"/>
</clipPath>
<g clip-path="url(#cp9933)">
<text xml:space="preserve" transform="matrix(1 0 -0 1 0 841.92)" font-size="14.04" font-family="Times New Roman"><tspan y="-530.95" x="274.97">&#x2019;</tspan></text>
</g>
<clipPath id="cp9934">
<path transform="matrix(1,0,0,-1,0,841.92)" d="M .000008871 0 L 595.32 0 L 595.32 841.92 L .000008871 841.92 Z " fill-rule="evenodd"/>
</clipPath>
<g clip-path="url(#cp9934)">
<text xml:space="preserve" transform="matrix(1 0 -0 1 0 841.92)" font-size="14.04" font-family="Times New Roman"><tspan y="-530.95" x="279.53 285.03367 291.9975 295.94273 303.00483 312.94517 320.00727">shib qo</tspan></text>
</g>
<clipPath id="cp9935">
<path transform="matrix(1,0,0,-1,0,841.92)" d="M .000008871 0 L 595.32 0 L 595.32 841.92 L .000008871 841.92 Z " fill-rule="evenodd"/>
</clipPath>
<g clip-path="url(#cp9935)">
<text xml:space="preserve" transform="matrix(1 0 -0 1 0 841.92)" font-size="14.04" font-family="Times New Roman"><tspan y="-530.95" x="327.07">&#x2019;</tspan></text>
</g>
<clipPath id="cp9936">
<path transform="matrix(1,0,0,-1,0,841.92)" d="M .000008871 0 L 595.32 0 L 595.32 841.92 L .000008871 841.92 Z " fill-rule="evenodd"/>
</clipPath>
<g clip-path="url(#cp9936)">
<text xml:space="preserve" transform="matrix(1 0 -0 1 0 841.92)" font-size="14.04" font-family="Times New Roman"><tspan y="-530.95" x="331.75 338.58747 342.53269 348.03636 355.09846 359.04368 369.72813 373.67335 379.9071 390.10017 400.7846 407.97309 418.65754 425.71965 429.66487 436.72697 446.6673 453.7294">yishimiz mumkin bo</tspan></text>
</g>
<clipPath id="cp9937">
<path transform="matrix(1,0,0,-1,0,841.92)" d="M .000008871 0 L 595.32 0 L 595.32 841.92 L .000008871 841.92 Z " fill-rule="evenodd"/>
</clipPath>
<g clip-path="url(#cp9937)">
<text xml:space="preserve" transform="matrix(1 0 -0 1 0 841.92)" font-size="14.04" font-family="Times New Roman"><tspan y="-530.95" x="461.02">&#x2019;</tspan></text>
</g>
<clipPath id="cp9938">
<path transform="matrix(1,0,0,-1,0,841.92)" d="M .000008871 0 L 595.32 0 L 595.32 841.92 L .000008871 841.92 Z " fill-rule="evenodd"/>
</clipPath>
<g clip-path="url(#cp9938)">
<text xml:space="preserve" transform="matrix(1 0 -0 1 0 841.92)" font-size="14.04" font-family="Times New Roman"><tspan y="-530.95" x="465.58 469.5252 475.64665 482.61048 486.5557 490.0657 500.1043 509.469 513.41427 519.648 529.7147 535.1201 542.18228 549.1461 556.11 559.957">ladi. Biz shuni </tspan></text>
</g>
<clipPath id="cp9939">
<path transform="matrix(1,0,0,-1,0,841.92)" d="M .000008871 0 L 595.32 0 L 595.32 841.92 L .000008871 841.92 Z " fill-rule="evenodd"/>
</clipPath>
<g clip-path="url(#cp9939)">
</g>
<clipPath id="cp9940">
<path transform="matrix(1,0,0,-1,0,841.92)" d="M .000008871 0 L 595.32 0 L 595.32 841.92 L .000008871 841.92 Z " fill-rule="evenodd"/>
</clipPath>
<g clip-path="url(#cp9940)">
<text xml:space="preserve" transform="matrix(1 0 -0 1 0 841.92)" font-size="14.04" font-family="Times New Roman"><tspan y="-506.83" x="85.104 92.166118 96.01308 99.95832 103.80528 109.210689 116.272808 120.21805 130.9025 134.84774 141.0815 148.63501 155.69713 161.9309 166.4939 172.72766 179.6915 186.75362 190.69886 194.20885 201.60793 208.67005 214.90381 218.75077 225.7146 229.65984 233.50679 239.74056 246.81673 254.24388 261.306">bilishimiz kerakki, belgilab qo</tspan></text>
</g>
<clipPath id="cp9941">
<path transform="matrix(1,0,0,-1,0,841.92)" d="M .000008871 0 L 595.32 0 L 595.32 841.92 L .000008871 841.92 Z " fill-rule="evenodd"/>
</clipPath>
<g clip-path="url(#cp9941)">
<text xml:space="preserve" transform="matrix(1 0 -0 1 0 841.92)" font-size="14.04" font-family="Times New Roman"><tspan y="-506.83" x="268.61">&#x2019;</tspan></text>
</g>
<clipPath id="cp9942">
<path transform="matrix(1,0,0,-1,0,841.92)" d="M .000008871 0 L 595.32 0 L 595.32 841.92 L .000008871 841.92 Z " fill-rule="evenodd"/>
</clipPath>
<g clip-path="url(#cp9942)">
<text xml:space="preserve" transform="matrix(1 0 -0 1 0 841.92)" font-size="14.04" font-family="Times New Roman"><tspan y="-506.83" x="273.17 280.00749 283.9527 287.89793 294.96003 301.08146 308.14356 315.57075 320.97615">yilgan so</tspan></text>
</g>
<clipPath id="cp9943">
<path transform="matrix(1,0,0,-1,0,841.92)" d="M .000008871 0 L 595.32 0 L 595.32 841.92 L .000008871 841.92 Z " fill-rule="evenodd"/>
</clipPath>
<g clip-path="url(#cp9943)">
<text xml:space="preserve" transform="matrix(1 0 -0 1 0 841.92)" font-size="14.04" font-family="Times New Roman"><tspan y="-506.83" x="328.15">&#x2019;</tspan></text>
</g>
<clipPath id="cp9944">
<path transform="matrix(1,0,0,-1,0,841.92)" d="M .000008871 0 L 595.32 0 L 595.32 841.92 L .000008871 841.92 Z " fill-rule="evenodd"/>
</clipPath>
<g clip-path="url(#cp9944)">
<text xml:space="preserve" transform="matrix(1 0 -0 1 0 841.92)" font-size="14.04" font-family="Times New Roman"><tspan y="-506.83" x="332.71 338.94377 346.49729 352.73106 356.67628 363.6401 369.87388 373.72084 377.66606 383.8998 391.32698 398.38908 404.5105 408.45573 415.41957 419.36479 423.21174 430.17558 437.23768 443.3591 450.4212 457.9607 464.92454 471.1583 475.00526 482.06736 485.9143 492.14808 496.0933 503.52046 510.58256 516.8163 521.4916 532.17599 538.52206 545.35958 552.4217 556.36697 559.72256">z albatta hatolikdan dalolat bermaydi, </tspan></text>
</g>
<clipPath id="cp9945">
<path transform="matrix(1,0,0,-1,0,841.92)" d="M .000008871 0 L 595.32 0 L 595.32 841.92 L .000008871 841.92 Z " fill-rule="evenodd"/>
</clipPath>
<g clip-path="url(#cp9945)">
</g>
<clipPath id="cp9946">
<path transform="matrix(1,0,0,-1,0,841.92)" d="M .000008871 0 L 595.32 0 L 595.32 841.92 L .000008871 841.92 Z " fill-rule="evenodd"/>
</clipPath>
<g clip-path="url(#cp9946)">
<text xml:space="preserve" transform="matrix(1 0 -0 1 0 841.92)" font-size="14.04" font-family="Times New Roman"><tspan y="-482.71" x="85.104 92.166118 97.57152 104.535358 111.59747 118.65959 122.492519 127.89792">ushbu so</tspan></text>
</g>
<clipPath id="cp9947">
<path transform="matrix(1,0,0,-1,0,841.92)" d="M .000008871 0 L 595.32 0 L 595.32 841.92 L .000008871 841.92 Z " fill-rule="evenodd"/>
</clipPath>
<g clip-path="url(#cp9947)">
<text xml:space="preserve" transform="matrix(1 0 -0 1 0 841.92)" font-size="14.04" font-family="Times New Roman"><tspan y="-482.71" x="135.02">&#x2019;</tspan></text>
</g>
<clipPath id="cp9948">
<path transform="matrix(1,0,0,-1,0,841.92)" d="M .000008871 0 L 595.32 0 L 595.32 841.92 L .000008871 841.92 Z " fill-rule="evenodd"/>
</clipPath>
<g clip-path="url(#cp9948)">
<text xml:space="preserve" transform="matrix(1 0 -0 1 0 841.92)" font-size="14.04" font-family="Times New Roman"><tspan y="-482.71" x="139.58 145.81377 149.64669 155.15036 162.1142 169.17632 176.14015 182.37392 189.45009 195.57154 202.53537 206.38233 210.21524 217.27736 223.51113 228.91652">z shunchaki dast</tspan></text>
</g>
<clipPath id="cp9949">
<path transform="matrix(1,0,0,-1,0,841.92)" d="M .000008871 0 L 595.32 0 L 595.32 841.92 L .000008871 841.92 Z " fill-rule="evenodd"/>
</clipPath>
<g clip-path="url(#cp9949)">
<text xml:space="preserve" transform="matrix(1 0 -0 1 0 841.92)" font-size="14.04" font-family="Times New Roman"><tspan y="-482.71" x="232.97 240.03212 244.70745 248.54036 252.38732 259.35118">ur lug</tspan></text>
</g>
<clipPath id="cp9950">
<path transform="matrix(1,0,0,-1,0,841.92)" d="M .000008871 0 L 595.32 0 L 595.32 841.92 L .000008871 841.92 Z " fill-rule="evenodd"/>
</clipPath>
<g clip-path="url(#cp9950)">
<text xml:space="preserve" transform="matrix(1 0 -0 1 0 841.92)" font-size="14.04" font-family="Times New Roman"><tspan y="-482.71" x="266.45">&#x2019;</tspan></text>
</g>
<clipPath id="cp9951">
<path transform="matrix(1,0,0,-1,0,841.92)" d="M .000008871 0 L 595.32 0 L 595.32 841.92 L .000008871 841.92 Z " fill-rule="evenodd"/>
</clipPath>
<g clip-path="url(#cp9951)">
<text xml:space="preserve" transform="matrix(1 0 -0 1 0 841.92)" font-size="14.04" font-family="Times New Roman"><tspan y="-482.71" x="271.01 277.24378 281.189 285.03596 292.09806 298.33183 302.16474 309.0022">atida yo</tspan></text>
</g>
<clipPath id="cp9952">
<path transform="matrix(1,0,0,-1,0,841.92)" d="M .000008871 0 L 595.32 0 L 595.32 841.92 L .000008871 841.92 Z " fill-rule="evenodd"/>
</clipPath>
<g clip-path="url(#cp9952)">
<text xml:space="preserve" transform="matrix(1 0 -0 1 0 841.92)" font-size="14.04" font-family="Times New Roman"><tspan y="-482.71" x="316.15">&#x2019;</tspan></text>
</g>
<clipPath id="cp9953">
<path transform="matrix(1,0,0,-1,0,841.92)" d="M .000008871 0 L 595.32 0 L 595.32 841.92 L .000008871 841.92 Z " fill-rule="evenodd"/>
</clipPath>
<g clip-path="url(#cp9953)">
<text xml:space="preserve" transform="matrix(1 0 -0 1 0 841.92)" font-size="14.04" font-family="Times New Roman"><tspan y="-482.71" x="320.71 327.7721 331.2821 335.0729 343.59519 350.6573">q. Lug</tspan></text>
</g>
<clipPath id="cp9954">
<path transform="matrix(1,0,0,-1,0,841.92)" d="M .000008871 0 L 595.32 0 L 595.32 841.92 L .000008871 841.92 Z " fill-rule="evenodd"/>
</clipPath>
<g clip-path="url(#cp9954)">
<text xml:space="preserve" transform="matrix(1 0 -0 1 0 841.92)" font-size="14.04" font-family="Times New Roman"><tspan y="-482.71" x="357.79">&#x2019;</tspan></text>
</g>
<clipPath id="cp9955">
<path transform="matrix(1,0,0,-1,0,841.92)" d="M .000008871 0 L 595.32 0 L 595.32 841.92 L .000008871 841.92 Z " fill-rule="evenodd"/>
</clipPath>
<g clip-path="url(#cp9955)">
<text xml:space="preserve" transform="matrix(1 0 -0 1 0 841.92)" font-size="14.04" font-family="Times New Roman"><tspan y="-482.71" x="362.35 368.58378 372.529 379.5911 385.82487 389.65779 396.6216">atga qo</tspan></text>
</g>
<clipPath id="cp9956">
<path transform="matrix(1,0,0,-1,0,841.92)" d="M .000008871 0 L 595.32 0 L 595.32 841.92 L .000008871 841.92 Z " fill-rule="evenodd"/>
</clipPath>
<g clip-path="url(#cp9956)">
<text xml:space="preserve" transform="matrix(1 0 -0 1 0 841.92)" font-size="14.04" font-family="Times New Roman"><tspan y="-482.71" x="403.75">&#x2019;</tspan></text>
</g>
<clipPath id="cp9957">
<path transform="matrix(1,0,0,-1,0,841.92)" d="M .000008871 0 L 595.32 0 L 595.32 841.92 L .000008871 841.92 Z " fill-rule="evenodd"/>
</clipPath>
<g clip-path="url(#cp9957)">
<text xml:space="preserve" transform="matrix(1 0 -0 1 0 841.92)" font-size="14.04" font-family="Times New Roman"><tspan y="-482.71" x="408.31 413.81367 420.7775 424.62446 431.68656 435.51948 442.58158">shib qo</tspan></text>
</g>
<clipPath id="cp9958">
<path transform="matrix(1,0,0,-1,0,841.92)" d="M .000008871 0 L 595.32 0 L 595.32 841.92 L .000008871 841.92 Z " fill-rule="evenodd"/>
</clipPath>
<g clip-path="url(#cp9958)">
<text xml:space="preserve" transform="matrix(1 0 -0 1 0 841.92)" font-size="14.04" font-family="Times New Roman"><tspan y="-482.71" x="449.62">&#x2019;</tspan></text>
</g>
<clipPath id="cp9959">
<path transform="matrix(1,0,0,-1,0,841.92)" d="M .000008871 0 L 595.32 0 L 595.32 841.92 L .000008871 841.92 Z " fill-rule="evenodd"/>
</clipPath>
<g clip-path="url(#cp9959)">
<text xml:space="preserve" transform="matrix(1 0 -0 1 0 841.92)" font-size="14.04" font-family="Times New Roman"><tspan y="-482.71" x="454.3 461.13746 465.08268 469.0279 476.09 482.21144 489.27354 493.10646 498.6101">yilgan so</tspan></text>
</g>
<clipPath id="cp9960">
<path transform="matrix(1,0,0,-1,0,841.92)" d="M .000008871 0 L 595.32 0 L 595.32 841.92 L .000008871 841.92 Z " fill-rule="evenodd"/>
</clipPath>
<g clip-path="url(#cp9960)">
<text xml:space="preserve" transform="matrix(1 0 -0 1 0 841.92)" font-size="14.04" font-family="Times New Roman"><tspan y="-482.71" x="505.78">&#x2019;</tspan></text>
</g>
<clipPath id="cp9961">
<path transform="matrix(1,0,0,-1,0,841.92)" d="M .000008871 0 L 595.32 0 L 595.32 841.92 L .000008871 841.92 Z " fill-rule="evenodd"/>
</clipPath>
<g clip-path="url(#cp9961)">
<text xml:space="preserve" transform="matrix(1 0 -0 1 0 841.92)" font-size="14.04" font-family="Times New Roman"><tspan y="-482.71" x="510.34 516.5737 520.4067 527.4688 534.4327 539.8381 546.9002 553.8641 559.98556">z boshqa </tspan></text>
</g>
<clipPath id="cp9962">
<path transform="matrix(1,0,0,-1,0,841.92)" d="M .000008871 0 L 595.32 0 L 595.32 841.92 L .000008871 841.92 Z " fill-rule="evenodd"/>
</clipPath>
<g clip-path="url(#cp9962)">
</g>
<clipPath id="cp9963">
<path transform="matrix(1,0,0,-1,0,841.92)" d="M .000008871 0 L 595.32 0 L 595.32 841.92 L .000008871 841.92 Z " fill-rule="evenodd"/>
</clipPath>
<g clip-path="url(#cp9963)">
<text xml:space="preserve" transform="matrix(1 0 -0 1 0 841.92)" font-size="14.04" font-family="Times New Roman"><tspan y="-458.47" x="85.104 92.166118 98.39987 102.24683 109.21067 113.155918 117.00288 123.23663 130.3128 140.99726 147.34334 154.18082 161.24294 165.18817 168.69817 172.152 182.23271 186.17795 192.41172 197.08704 200.59703 207.53279 213.76656 220.84273 226.24813 233.21196 237.1572 240.66719 247.6872 253.92096 257.31864 261.26387">belgilanmaydi. Ular yaxshi va to</tspan></text>
</g>
<clipPath id="cp9964">
<path transform="matrix(1,0,0,-1,0,841.92)" d="M .000008871 0 L 595.32 0 L 595.32 841.92 L .000008871 841.92 Z " fill-rule="evenodd"/>
</clipPath>
<g clip-path="url(#cp9964)">
<text xml:space="preserve" transform="matrix(1 0 -0 1 0 841.92)" font-size="14.04" font-family="Times New Roman"><tspan y="-458.47" x="268.49">&#x2019;</tspan></text>
</g>
<clipPath id="cp9965">
<path transform="matrix(1,0,0,-1,0,841.92)" d="M .000008871 0 L 595.32 0 L 595.32 841.92 L .000008871 841.92 Z " fill-rule="evenodd"/>
</clipPath>
<g clip-path="url(#cp9965)">
<text xml:space="preserve" transform="matrix(1 0 -0 1 0 841.92)" font-size="14.04" font-family="Times New Roman"><tspan y="-458.47" x="273.05 276.89695 280.84217 287.90428 291.25984 298.22367 305.28578 309.13273 312.97969 319.21345 323.15867 327.0056 333.23939 337.9147 344.89259 348.8378 352.3478 356.25093 362.48469 369.36427 376.20173 383.26383 387.93916 391.88438 398.11814 403.63584 410.59968 417.66178 423.89555 427.40556 431.22444 438.18827 445.1521 451.38587 454.89588 461.91587 468.1777 478.86216 482.37217 489.39216">liq hujjatlarni tayyorlashda juda ham qo</tspan></text>
</g>
<clipPath id="cp9966">
<path transform="matrix(1,0,0,-1,0,841.92)" d="M .000008871 0 L 595.32 0 L 595.32 841.92 L .000008871 841.92 Z " fill-rule="evenodd"/>
</clipPath>
<g clip-path="url(#cp9966)">
<text xml:space="preserve" transform="matrix(1 0 -0 1 0 841.92)" font-size="14.04" font-family="Times New Roman"><tspan y="-458.47" x="496.66">&#x2019;</tspan></text>
</g>
<clipPath id="cp9967">
<path transform="matrix(1,0,0,-1,0,841.92)" d="M .000008871 0 L 595.32 0 L 595.32 841.92 L .000008871 841.92 Z " fill-rule="evenodd"/>
</clipPath>
<g clip-path="url(#cp9967)">
<text xml:space="preserve" transform="matrix(1 0 -0 1 0 841.92)" font-size="14.04" font-family="Times New Roman"><tspan y="-458.47" x="501.22 505.16523 508.67524 515.69528 521.929 525.83218 532.0659 539.0017 542.94699">l keladi.</tspan></text>
</g>
<clipPath id="cp9968">
<path transform="matrix(1,0,0,-1,0,841.92)" d="M .000008871 0 L 595.32 0 L 595.32 841.92 L .000008871 841.92 Z " fill-rule="evenodd"/>
</clipPath>
<g clip-path="url(#cp9968)">
<text xml:space="preserve" transform="matrix(1 0 -0 1 0 841.92)" font-size="14.04" font-family="Times New Roman"><tspan y="-458.47" x="546.34"> </tspan></text>
</g>
<clipPath id="cp9969">
<path transform="matrix(1,0,0,-1,0,841.92)" d="M .000008871 0 L 595.32 0 L 595.32 841.92 L .000008871 841.92 Z " fill-rule="evenodd"/>
</clipPath>
<g clip-path="url(#cp9969)">
</g>
</g>
<g id="Layer-1" data-name="P">
<clipPath id="cp9970">
<path transform="matrix(1,0,0,-1,0,841.92)" d="M .000008871 0 L 595.32 0 L 595.32 841.92 L .000008871 841.92 Z " fill-rule="evenodd"/>
</clipPath>
<g clip-path="url(#cp9970)">
<text xml:space="preserve" transform="matrix(1 0 -0 1 0 841.92)" font-size="14.04" font-family="Times New Roman,Bold" font-weight="bold"><tspan y="-434.35" x="120.5 127.58">3.</tspan></text>
</g>
<clipPath id="cp9971">
<path transform="matrix(1,0,0,-1,0,841.92)" d="M .000008871 0 L 595.32 0 L 595.32 841.92 L .000008871 841.92 Z " fill-rule="evenodd"/>
</clipPath>
<g clip-path="url(#cp9971)">
<text xml:space="preserve" transform="matrix(1 0 -0 1 0 841.92)" font-size="14.04" font-family="Arial,Bold" font-weight="bold"><tspan y="-434.35" x="131.06"> </tspan></text>
</g>
<clipPath id="cp9972">
<path transform="matrix(1,0,0,-1,0,841.92)" d="M .000008871 0 L 595.32 0 L 595.32 841.92 L .000008871 841.92 Z " fill-rule="evenodd"/>
</clipPath>
<g clip-path="url(#cp9972)">
<text xml:space="preserve" transform="matrix(1 0 -0 1 0 841.92)" font-size="14.04" font-family="Times New Roman,Bold" font-weight="bold"><tspan y="-434.35" x="141.74 152.66313 158.8969 165.95902 177.48586 189.0127 196.07482 200.75014 204.82175 212.37528 224.0004 228.67572 235.0218 242.57534 248.07901 255.88526 259.83049 266.06425 273.87049 280.9326 285.6079">Grammatik tekshiruv: </tspan></text>
</g>
<clipPath id="cp9973">
<path transform="matrix(1,0,0,-1,0,841.92)" d="M .000008871 0 L 595.32 0 L 595.32 841.92 L .000008871 841.92 Z " fill-rule="evenodd"/>
</clipPath>
<g clip-path="url(#cp9973)">
<text xml:space="preserve" transform="matrix(1 0 -0 1 0 841.92)" font-size="14.04" font-family="Times New Roman,Italic" font-style="italic"><tspan y="-434.35" x="297.41 307.36436 312.868 319.9301 330.01084 340.09156 347.0554 350.90235 354.84757 361.08134 372.7205 376.56745 382.68888 388.92265 394.44035 401.40419 405.25114 410.7548 417.71864 423.9524">Grammatik tekshiruv </tspan></text>
</g>
<clipPath id="cp9974">
<path transform="matrix(1,0,0,-1,0,841.92)" d="M .000008871 0 L 595.32 0 L 595.32 841.92 L .000008871 841.92 Z " fill-rule="evenodd"/>
</clipPath>
<g clip-path="url(#cp9974)">
<text xml:space="preserve" transform="matrix(1 0 -0 1 0 841.92)" font-size="14.04" font-family="Times New Roman"><tspan y="-434.35" x="435.67 446.35447 452.58824 456.53346 463.59556 470.65766 476.77909 483.8412 487.68815 499.20097 506.26307 510.9384 517.1721 527.9829 538.6673 544.90109 548.8463 552.79159 559.8537">matndagi grammatik </tspan></text>
</g>
<clipPath id="cp9975">
<path transform="matrix(1,0,0,-1,0,841.92)" d="M .000008871 0 L 595.32 0 L 595.32 841.92 L .000008871 841.92 Z " fill-rule="evenodd"/>
</clipPath>
<g clip-path="url(#cp9975)">
</g>
<clipPath id="cp9976">
<path transform="matrix(1,0,0,-1,0,841.92)" d="M .000008871 0 L 595.32 0 L 595.32 841.92 L .000008871 841.92 Z " fill-rule="evenodd"/>
</clipPath>
<g clip-path="url(#cp9976)">
<text xml:space="preserve" transform="matrix(1 0 -0 1 0 841.92)" font-size="14.04" font-family="Times New Roman"><tspan y="-410.23" x="85.104 92.166118 98.39987 102.24683 109.21067 113.155918 117.00288 123.96671 127.91196 134.14572 138.70873 145.77085 149.71608 153.22608 156.77819 163.74202 170.70586 174.6511">hatoliklarni, noto</tspan></text>
</g>
<clipPath id="cp9977">
<path transform="matrix(1,0,0,-1,0,841.92)" d="M .000008871 0 L 595.32 0 L 595.32 841.92 L .000008871 841.92 Z " fill-rule="evenodd"/>
</clipPath>
<g clip-path="url(#cp9977)">
<text xml:space="preserve" transform="matrix(1 0 -0 1 0 841.92)" font-size="14.04" font-family="Times New Roman"><tspan y="-410.23" x="181.82">&#x2019;</tspan></text>
</g>
<clipPath id="cp9978">
<path transform="matrix(1,0,0,-1,0,841.92)" d="M .000008871 0 L 595.32 0 L 595.32 841.92 L .000008871 841.92 Z " fill-rule="evenodd"/>
</clipPath>
<g clip-path="url(#cp9978)">
<text xml:space="preserve" transform="matrix(1 0 -0 1 0 841.92)" font-size="14.04" font-family="Times New Roman"><tspan y="-410.23" x="186.38">g</tspan></text>
</g>
<clipPath id="cp9979">
<path transform="matrix(1,0,0,-1,0,841.92)" d="M .000008871 0 L 595.32 0 L 595.32 841.92 L .000008871 841.92 Z " fill-rule="evenodd"/>
</clipPath>
<g clip-path="url(#cp9979)">
<text xml:space="preserve" transform="matrix(1 0 -0 1 0 841.92)" font-size="14.04" font-family="Times New Roman"><tspan y="-410.23" x="193.49">&#x2019;</tspan></text>
</g>
<clipPath id="cp9980">
<path transform="matrix(1,0,0,-1,0,841.92)" d="M .000008871 0 L 595.32 0 L 595.32 841.92 L .000008871 841.92 Z " fill-rule="evenodd"/>
</clipPath>
<g clip-path="url(#cp9980)">
<text xml:space="preserve" transform="matrix(1 0 -0 1 0 841.92)" font-size="14.04" font-family="Times New Roman"><tspan y="-410.23" x="198.05 202.72533 206.57228 210.15248 217.2146 221.15984 225.72284 229.66808 236.7302 247.41464 253.6484 257.59364 263.8274 268.50273 275.4806 279.4258 283.006 286.95124 293.07267 300.0365 305.54017 312.504 316.44923 321.0122 324.85917 330.36283 337.32667 344.38877 350.62254 354.13255 361.15254">ri birikmalarni tekshirishda qo</tspan></text>
</g>
<clipPath id="cp9981">
<path transform="matrix(1,0,0,-1,0,841.92)" d="M .000008871 0 L 595.32 0 L 595.32 841.92 L .000008871 841.92 Z " fill-rule="evenodd"/>
</clipPath>
<g clip-path="url(#cp9981)">
<text xml:space="preserve" transform="matrix(1 0 -0 1 0 841.92)" font-size="14.04" font-family="Times New Roman"><tspan y="-410.23" x="368.47">&#x2019;</tspan></text>
</g>
<clipPath id="cp9982">
<path transform="matrix(1,0,0,-1,0,841.92)" d="M .000008871 0 L 595.32 0 L 595.32 841.92 L .000008871 841.92 Z " fill-rule="evenodd"/>
</clipPath>
<g clip-path="url(#cp9982)">
<text xml:space="preserve" transform="matrix(1 0 -0 1 0 841.92)" font-size="14.04" font-family="Times New Roman"><tspan y="-410.23" x="373.03 376.97523 380.82218 387.05595 394.01979 397.86674 401.81196 408.04573 415.00956 418.95478 422.46479 426.0169 436.09764 441.50303 448.56513 455.52897 462.59107 466.17127 473.1351 479.36888 484.77427 488.71949 495.68333 500.35865 503.95289 510.18666 517.1505 521.09579 528.1579 538.8423 545.07608 549.0213 552.8683 559.83218">llaniladi. Ushbu dastur avtomatik </tspan></text>
</g>
<clipPath id="cp9983">
<path transform="matrix(1,0,0,-1,0,841.92)" d="M .000008871 0 L 595.32 0 L 595.32 841.92 L .000008871 841.92 Z " fill-rule="evenodd"/>
</clipPath>
<g clip-path="url(#cp9983)">
</g>
<clipPath id="cp9984">
<path transform="matrix(1,0,0,-1,0,841.92)" d="M .000008871 0 L 595.32 0 L 595.32 841.92 L .000008871 841.92 Z " fill-rule="evenodd"/>
</clipPath>
<g clip-path="url(#cp9984)">
<text xml:space="preserve" transform="matrix(1 0 -0 1 0 841.92)" font-size="14.04" font-family="Times New Roman"><tspan y="-386.09" x="85.104 89.04924 95.283 99.95832 106.093799 113.155918 119.38967 122.89967 129.91968 136.0692 140.01444 146.97827 150.92351 157.15727 161.72028 168.68412 172.62935 176.13935 180.04247">tarzda hatolarni to</tspan></text>
</g>
<clipPath id="cp9985">
<path transform="matrix(1,0,0,-1,0,841.92)" d="M .000008871 0 L 595.32 0 L 595.32 841.92 L .000008871 841.92 Z " fill-rule="evenodd"/>
</clipPath>
<g clip-path="url(#cp9985)">
<text xml:space="preserve" transform="matrix(1 0 -0 1 0 841.92)" font-size="14.04" font-family="Times New Roman"><tspan y="-386.09" x="187.22">&#x2019;</tspan></text>
</g>
<clipPath id="cp9986">
<path transform="matrix(1,0,0,-1,0,841.92)" d="M .000008871 0 L 595.32 0 L 595.32 841.92 L .000008871 841.92 Z " fill-rule="evenodd"/>
</clipPath>
<g clip-path="url(#cp9986)">
<text xml:space="preserve" transform="matrix(1 0 -0 1 0 841.92)" font-size="14.04" font-family="Times New Roman"><tspan y="-386.09" x="191.81">g</tspan></text>
</g>
<clipPath id="cp9987">
<path transform="matrix(1,0,0,-1,0,841.92)" d="M .000008871 0 L 595.32 0 L 595.32 841.92 L .000008871 841.92 Z " fill-rule="evenodd"/>
</clipPath>
<g clip-path="url(#cp9987)">
<text xml:space="preserve" transform="matrix(1 0 -0 1 0 841.92)" font-size="14.04" font-family="Times New Roman"><tspan y="-386.09" x="198.89">&#x2019;</tspan></text>
</g>
<clipPath id="cp9988">
<path transform="matrix(1,0,0,-1,0,841.92)" d="M .000008871 0 L 595.32 0 L 595.32 841.92 L .000008871 841.92 Z " fill-rule="evenodd"/>
</clipPath>
<g clip-path="url(#cp9988)">
<text xml:space="preserve" transform="matrix(1 0 -0 1 0 841.92)" font-size="14.04" font-family="Times New Roman"><tspan y="-386.09" x="203.45 207.29695 211.97228 215.91751 222.15128 232.83573 239.18181 246.01929 253.0814 257.02665 260.53666 264.08879 274.1695 277.7497 283.1551 290.2172 297.18104 304.24314 310.36457 317.42668 323.5481 330.6102 334.45716 338.03736 345.09947 351.2209 355.06785 362.12995 365.9769 369.82386 376.88597 380.46617 387.43">irlamaydi. U shunchaki hatolik bo</tspan></text>
</g>
<clipPath id="cp9989">
<path transform="matrix(1,0,0,-1,0,841.92)" d="M .000008871 0 L 595.32 0 L 595.32 841.92 L .000008871 841.92 Z " fill-rule="evenodd"/>
</clipPath>
<g clip-path="url(#cp9989)">
<text xml:space="preserve" transform="matrix(1 0 -0 1 0 841.92)" font-size="14.04" font-family="Times New Roman"><tspan y="-386.09" x="394.75">&#x2019;</tspan></text>
</g>
<clipPath id="cp9990">
<path transform="matrix(1,0,0,-1,0,841.92)" d="M .000008871 0 L 595.32 0 L 595.32 841.92 L .000008871 841.92 Z " fill-rule="evenodd"/>
</clipPath>
<g clip-path="url(#cp9990)">
<text xml:space="preserve" transform="matrix(1 0 -0 1 0 841.92)" font-size="14.04" font-family="Times New Roman"><tspan y="-386.09" x="399.31 403.25523 407.10218 412.50758 419.56968 423.41664 426.99684 437.68128 444.74339 455.42784 462.48994 466.43516 473.49726 477.07746 484.0413">lishi mumkin bo</tspan></text>
</g>
<clipPath id="cp9991">
<path transform="matrix(1,0,0,-1,0,841.92)" d="M .000008871 0 L 595.32 0 L 595.32 841.92 L .000008871 841.92 Z " fill-rule="evenodd"/>
</clipPath>
<g clip-path="url(#cp9991)">
<text xml:space="preserve" transform="matrix(1 0 -0 1 0 841.92)" font-size="14.04" font-family="Times New Roman"><tspan y="-386.09" x="491.26">&#x2019;</tspan></text>
</g>
<clipPath id="cp9992">
<path transform="matrix(1,0,0,-1,0,841.92)" d="M .000008871 0 L 595.32 0 L 595.32 841.92 L .000008871 841.92 Z " fill-rule="evenodd"/>
</clipPath>
<g clip-path="url(#cp9992)">
<text xml:space="preserve" transform="matrix(1 0 -0 1 0 841.92)" font-size="14.04" font-family="Times New Roman"><tspan y="-386.09" x="495.82 499.76524 506.82734 512.9488 520.0109 523.52096 528.8842 535.94638 542.9102 549.144 556.10787 559.95486">lgan sohani </tspan></text>
</g>
<clipPath id="cp9993">
<path transform="matrix(1,0,0,-1,0,841.92)" d="M .000008871 0 L 595.32 0 L 595.32 841.92 L .000008871 841.92 Z " fill-rule="evenodd"/>
</clipPath>
<g clip-path="url(#cp9993)">
</g>
<clipPath id="cp9994">
<path transform="matrix(1,0,0,-1,0,841.92)" d="M .000008871 0 L 595.32 0 L 595.32 841.92 L .000008871 841.92 Z " fill-rule="evenodd"/>
</clipPath>
<g clip-path="url(#cp9994)">
<text xml:space="preserve" transform="matrix(1 0 -0 1 0 841.92)" font-size="14.04" font-family="Times New Roman"><tspan y="-361.97" x="85.104 92.166118 98.39987 102.24683 109.21067 113.155918 117.00288 123.23663 130.3128 133.8228 140.75856">belgilab qo</tspan></text>
</g>
<clipPath id="cp9995">
<path transform="matrix(1,0,0,-1,0,841.92)" d="M .000008871 0 L 595.32 0 L 595.32 841.92 L .000008871 841.92 Z " fill-rule="evenodd"/>
</clipPath>
<g clip-path="url(#cp9995)">
<text xml:space="preserve" transform="matrix(1 0 -0 1 0 841.92)" font-size="14.04" font-family="Times New Roman"><tspan y="-361.97" x="147.86">&#x2019;</tspan></text>
</g>
<clipPath id="cp9996">
<path transform="matrix(1,0,0,-1,0,841.92)" d="M .000008871 0 L 595.32 0 L 595.32 841.92 L .000008871 841.92 Z " fill-rule="evenodd"/>
</clipPath>
<g clip-path="url(#cp9996)">
<text xml:space="preserve" transform="matrix(1 0 -0 1 0 841.92)" font-size="14.04" font-family="Times New Roman"><tspan y="-361.97" x="152.42 159.25748 165.49124 172.56742 176.51265 180.09285 187.05669 194.1188 197.96576 204.9296 210.43328 213.94327 217.49538 227.5761 232.25142 238.48519 249.29599 259.98045 266.2142 270.15943 274.10466 281.16676 284.74696 288.69218 294.8136 301.77745 307.2811 314.24494 318.19017 322.75315 329.81526 336.77909 340.35929 347.19676 353.4305 360.50666 366.0103 372.97416 376.91938 380.49958 387.33705 394.39915 400.6329 404.47987 408.3268 412.27204 417.67744 424.73954 428.5865 432.1667 439.13053 445.25196 449.92729 456.16105 463.23719 466.7472 473.68296">yadi xolos. Grammatik tekshiruv yaxshi yozilishi kerak bo</tspan></text>
</g>
<clipPath id="cp9997">
<path transform="matrix(1,0,0,-1,0,841.92)" d="M .000008871 0 L 595.32 0 L 595.32 841.92 L .000008871 841.92 Z " fill-rule="evenodd"/>
</clipPath>
<g clip-path="url(#cp9997)">
<text xml:space="preserve" transform="matrix(1 0 -0 1 0 841.92)" font-size="14.04" font-family="Times New Roman"><tspan y="-361.97" x="481.18">&#x2019;</tspan></text>
</g>
<clipPath id="cp9998">
<path transform="matrix(1,0,0,-1,0,841.92)" d="M .000008871 0 L 595.32 0 L 595.32 841.92 L .000008871 841.92 Z " fill-rule="evenodd"/>
</clipPath>
<g clip-path="url(#cp9998)">
<text xml:space="preserve" transform="matrix(1 0 -0 1 0 841.92)" font-size="14.04" font-family="Times New Roman"><tspan y="-361.97" x="485.74 489.6852 496.7473 502.86875 509.93086 513.44088 520.37667 527.4388 531.28579 535.13278 541.3665 545.31179 549.257 555.3785 559.94149">lgan hujjatlar </tspan></text>
</g>
<clipPath id="cp9999">
<path transform="matrix(1,0,0,-1,0,841.92)" d="M .000008871 0 L 595.32 0 L 595.32 841.92 L .000008871 841.92 Z " fill-rule="evenodd"/>
</clipPath>
<g clip-path="url(#cp9999)">
</g>
<clipPath id="cp10000">
<path transform="matrix(1,0,0,-1,0,841.92)" d="M .000008871 0 L 595.32 0 L 595.32 841.92 L .000008871 841.92 Z " fill-rule="evenodd"/>
</clipPath>
<g clip-path="url(#cp10000)">
<text xml:space="preserve" transform="matrix(1 0 -0 1 0 841.92)" font-size="14.04" font-family="Times New Roman"><tspan y="-337.73" x="85.104 89.04924 95.283 102.24683 109.08431 116.14643 120.821758 124.767 131.00077 136.40616 143.37 150.43212 156.66588 160.17588 166.98528 174.0474 178.72272 185.79889 192.03266 202.7171 206.2973 213.35942 219.59319 224.26851 230.40399 237.46611 241.41135">tayyorlashda yordam beradi.</tspan></text>
</g>
<clipPath id="cp10001">
<path transform="matrix(1,0,0,-1,0,841.92)" d="M .000008871 0 L 595.32 0 L 595.32 841.92 L .000008871 841.92 Z " fill-rule="evenodd"/>
</clipPath>
<g clip-path="url(#cp10001)">
<text xml:space="preserve" transform="matrix(1 0 -0 1 0 841.92)" font-size="14.04" font-family="Times New Roman"><tspan y="-337.73" x="244.97"> </tspan></text>
</g>
<clipPath id="cp10002">
<path transform="matrix(1,0,0,-1,0,841.92)" d="M .000008871 0 L 595.32 0 L 595.32 841.92 L .000008871 841.92 Z " fill-rule="evenodd"/>
</clipPath>
<g clip-path="url(#cp10002)">
</g>
</g>
<g id="Layer-1" data-name="P">
<clipPath id="cp10003">
<path transform="matrix(1,0,0,-1,0,841.92)" d="M .000008871 0 L 595.32 0 L 595.32 841.92 L .000008871 841.92 Z " fill-rule="evenodd"/>
</clipPath>
<g clip-path="url(#cp10003)">
<text xml:space="preserve" transform="matrix(1 0 -0 1 0 841.92)" font-size="14.04" font-family="Times New Roman,Bold" font-weight="bold"><tspan y="-313.61" x="120.5 127.58">4.</tspan></text>
</g>
<clipPath id="cp10004">
<path transform="matrix(1,0,0,-1,0,841.92)" d="M .000008871 0 L 595.32 0 L 595.32 841.92 L .000008871 841.92 Z " fill-rule="evenodd"/>
</clipPath>
<g clip-path="url(#cp10004)">
<text xml:space="preserve" transform="matrix(1 0 -0 1 0 841.92)" font-size="14.04" font-family="Arial,Bold" font-weight="bold"><tspan y="-313.61" x="131.06"> </tspan></text>
</g>
<clipPath id="cp10005">
<path transform="matrix(1,0,0,-1,0,841.92)" d="M .000008871 0 L 595.32 0 L 595.32 841.92 L .000008871 841.92 Z " fill-rule="evenodd"/>
</clipPath>
<g clip-path="url(#cp10005)">
<text xml:space="preserve" transform="matrix(1 0 -0 1 0 841.92)" font-size="14.04" font-family="Times New Roman,Bold" font-weight="bold"><tspan y="-313.61" x="141.74 151.10469 157.33846 162.74385 169.80597 177.61222 183.84598 191.52587 197.02954 201.70487">Tesaurus: </tspan></text>
</g>
<clipPath id="cp10006">
<path transform="matrix(1,0,0,-1,0,841.92)" d="M .000008871 0 L 595.32 0 L 595.32 841.92 L .000008871 841.92 Z " fill-rule="evenodd"/>
</clipPath>
<g clip-path="url(#cp10006)">
<text xml:space="preserve" transform="matrix(1 0 -0 1 0 841.92)" font-size="14.04" font-family="Times New Roman"><tspan y="-313.61" x="205.25 215.33072 220.8344 227.79824 234.76207 241.82419 245.33419 252.35419 258.50373 263.90913 267.85435 274.91645 279.59178 282.96138 288.46504">Ushbu dastur si</tspan></text>
</g>
<clipPath id="cp10007">
<path transform="matrix(1,0,0,-1,0,841.92)" d="M .000008871 0 L 595.32 0 L 595.32 841.92 L .000008871 841.92 Z " fill-rule="evenodd"/>
</clipPath>
<g clip-path="url(#cp10007)">
<text xml:space="preserve" transform="matrix(1 0 -0 1 0 841.92)" font-size="14.04" font-family="Times New Roman"><tspan y="-313.61" x="292.49 298.61143 305.67353 311.9073 315.4173 326.07368 333.13578 338.63945 342.14945 349.0852 356.1473 360.7103 364.65553 368.60075 374.00614 380.96998 384.81694 388.39714 399.08158 406.27006 416.9545 424.0166 427.96183 435.02394 438.53395 443.89723 450.95933 455.5223 461.75608 465.7013 471.93507 476.49806 483.56016 487.50538 491.01539 497.82478 504.88688 511.94898 515.8942 519.2498 524.7535 528.6987 534.8202 541.78408 545.7293 552.6932 559.65707">zga mos bo&#x2019;lishi mumkin so&#x2019;zlarni yoki sizning </tspan></text>
</g>
<clipPath id="cp10008">
<path transform="matrix(1,0,0,-1,0,841.92)" d="M .000008871 0 L 595.32 0 L 595.32 841.92 L .000008871 841.92 Z " fill-rule="evenodd"/>
</clipPath>
<g clip-path="url(#cp10008)">
</g>
<clipPath id="cp10009">
<path transform="matrix(1,0,0,-1,0,841.92)" d="M .000008871 0 L 595.32 0 L 595.32 841.92 L .000008871 841.92 Z " fill-rule="evenodd"/>
</clipPath>
<g clip-path="url(#cp10009)">
<text xml:space="preserve" transform="matrix(1 0 -0 1 0 841.92)" font-size="14.04" font-family="Times New Roman"><tspan y="-289.49" x="85.104 90.60768 97.6698 102.2328 108.46656 112.31352 119.27736 126.33948 130.28472 136.40616 143.46828 149.70204 158.68764 164.19132 168.03827 175.0021 182.06423 189.02806 192.9733 203.65775 207.60298 213.83675 220.91292 224.75988 231.72371 238.78583 245.74967 256.4341 265.54609 271.04975 278.11186 282.67485 288.9086 292.85383 299.0876 303.7629 310.83906 314.78428 323.76988 327.61683 334.67893 341.64277 345.48973 352.55183 361.6638 368.7259 374.95967 379.52265 383.3696 388.87327 395.8371 402.8992 409.13298 418.11857 425.18067 432.24278 436.80577 440.75099 449.73658 456.79869 463.03245 466.8794 473.11317 480.077 484.02223 487.53224 496.60209 504.40834 511.35813 516.03347 526.71786 532.9516 536.89688 540.8421 547.07589 552.48129 559.4451">so&#x2019;zingizga sinonim/antonym so&#x2019;zlarni topib berishda qo&#x2019;l keladi. Formatlash </tspan></text>
</g>
<clipPath id="cp10010">
<path transform="matrix(1,0,0,-1,0,841.92)" d="M .000008871 0 L 595.32 0 L 595.32 841.92 L .000008871 841.92 Z " fill-rule="evenodd"/>
</clipPath>
<g clip-path="url(#cp10010)">
</g>
<clipPath id="cp10011">
<path transform="matrix(1,0,0,-1,0,841.92)" d="M .000008871 0 L 595.32 0 L 595.32 841.92 L .000008871 841.92 Z " fill-rule="evenodd"/>
</clipPath>
<g clip-path="url(#cp10011)">
<text xml:space="preserve" transform="matrix(1 0 -0 1 0 841.92)" font-size="14.04" font-family="Times New Roman"><tspan y="-265.37" x="85.104 92.166118 99.22823 103.075199 106.92216 113.155918 117.00288 123.96671 127.91196 133.54199 139.66344 146.72556 150.67079 155.2338 162.29592 169.13339 173.07863 177.02387 181.58687 188.64899 195.7111 201.21479 208.2769 214.51067 220.02838 227.0905 231.6535 238.71562 242.56258 248.06626 255.03009 260.66014 267.72224 273.84367 280.8075 287.8696 294.83345 300.46348 307.4273 312.8327 319.79655 326.85865 331.53398 338.4978 345.5599 351.0636 358.02745 361.97267 365.8196 369.76484 376.72868 382.3587 389.4208 395.54225 400.21757 404.0645 409.56819 416.532 423.59413 429.71556 435.34559 442.30943 446.25465 452.4884 463.17286 469.40663 473.35185 478.98188 486.04399 489.89094 493.83616 499.95759 507.01969 510.9649 514.4749 519.9505 529.3152 535.54898 540.22427 546.3457 553.3096 559.431">hujjatni chiroyliroq va o&#x2019;qish uchun osonroq qilib berishga xizmat qiladi. Barcha </tspan></text>
</g>
<clipPath id="cp10012">
<path transform="matrix(1,0,0,-1,0,841.92)" d="M .000008871 0 L 595.32 0 L 595.32 841.92 L .000008871 841.92 Z " fill-rule="evenodd"/>
</clipPath>
<g clip-path="url(#cp10012)">
</g>
<clipPath id="cp10013">
<path transform="matrix(1,0,0,-1,0,841.92)" d="M .000008871 0 L 595.32 0 L 595.32 841.92 L .000008871 841.92 Z " fill-rule="evenodd"/>
</clipPath>
<g clip-path="url(#cp10013)">
<text xml:space="preserve" transform="matrix(1 0 -0 1 0 841.92)" font-size="14.04" font-family="Times New Roman"><tspan y="-241.13" x="85.104 90.60768 97.6698 102.2328 108.46656 112.411808 118.53324 123.208568 133.03656 140.09868 145.50408 149.35103 153.29627 160.35839 166.59215 176.30782 180.25305 185.65845 192.72057 196.56752 202.68897 208.19264 215.25476 225.08275 232.04659 238.28035 243.68575 247.5327 254.59482 259.27015 263.21537 270.05284 279.88084 283.82606 290.0598 294.73515 305.4196 309.3648 316.4269 323.39076 327.33598 337.16398 344.22608 348.78907 355.85118 362.91328 367.47627 373.71003 384.5208 395.31758">so&#x2019;zlar ustida ishlash dasturiy ta&#x2019;minot programma</tspan></text>
</g>
<clipPath id="cp10014">
<path transform="matrix(1,0,0,-1,0,841.92)" d="M .000008871 0 L 595.32 0 L 595.32 841.92 L .000008871 841.92 Z " fill-rule="evenodd"/>
</clipPath>
<g clip-path="url(#cp10014)">
<text xml:space="preserve" transform="matrix(1 0 -0 1 0 841.92)" font-size="14.04" font-family="Times New Roman"><tspan y="-241.13" x="401.95 405.89524 412.129 416.80433 420.76359 430.59159 437.6537 442.21669 448.45045 452.39567 459.3595 465.59327 475.42127 479.3665 485.4879 492.55003 499.51387 503.45909 513.2871 520.251 527.3131 531.8761 535.82138 539.66836 546.73049 552.8519 559.8158">lari o&#x2019;zida ichki qurilgan </tspan></text>
</g>
<clipPath id="cp10015">
<path transform="matrix(1,0,0,-1,0,841.92)" d="M .000008871 0 L 595.32 0 L 595.32 841.92 L .000008871 841.92 Z " fill-rule="evenodd"/>
</clipPath>
<g clip-path="url(#cp10015)">
</g>
<clipPath id="cp10016">
<path transform="matrix(1,0,0,-1,0,841.92)" d="M .000008871 0 L 595.32 0 L 595.32 841.92 L .000008871 841.92 Z " fill-rule="evenodd"/>
</clipPath>
<g clip-path="url(#cp10016)">
<text xml:space="preserve" transform="matrix(1 0 -0 1 0 841.92)" font-size="14.04" font-family="Times New Roman"><tspan y="-216.98" x="85.104 89.77932 96.85548 101.5308 112.21524 118.449 122.39424 126.339488 133.4016 139.63536 143.14536 146.48686 150.4321 155.8375 162.80133 166.74657 172.98033 178.38573 185.44785 188.8034 195.86553 202.09929 205.46889 212.531 217.09401 223.32778 230.40395 236.63771 241.20072 245.14595 249.09119 253.65419 257.50117 263.00483 270.06694 273.4225 280.4846 285.88999 292.85383 299.91593 303.42594 310.3617 317.4238 321.9868 325.932 332.9941 339.11555 346.17765 349.68766 354.36299 361.38298 366.0583 376.7708 383.00459 386.9498 394.0119 400.24568 403.75569 409.84904 416.91114 423.1449 426.6549">formatiga, ishlash va o&#x2019;zgartirish oson bo&#x2019;lgan formatga ega. </tspan></text>
</g>
<clipPath id="cp10017">
<path transform="matrix(1,0,0,-1,0,841.92)" d="M .000008871 0 L 595.32 0 L 595.32 841.92 L .000008871 841.92 Z " fill-rule="evenodd"/>
</clipPath>
<g clip-path="url(#cp10017)">
<text xml:space="preserve" transform="matrix(1 0 -0 1 0 841.92)" font-size="14.04" font-family="Times New Roman"><tspan y="-216.98" x="430.39"> </tspan></text>
</g>
<clipPath id="cp10018">
<path transform="matrix(1,0,0,-1,0,841.92)" d="M .000008871 0 L 595.32 0 L 595.32 841.92 L .000008871 841.92 Z " fill-rule="evenodd"/>
</clipPath>
<g clip-path="url(#cp10018)">
</g>
</g>
<g id="Layer-1" data-name="P">
<clipPath id="cp10019">
<path transform="matrix(1,0,0,-1,0,841.92)" d="M .000008871 0 L 595.32 0 L 595.32 841.92 L .000008871 841.92 Z " fill-rule="evenodd"/>
</clipPath>
<g clip-path="url(#cp10019)">
<text xml:space="preserve" transform="matrix(1 0 -0 1 0 841.92)" font-size="14.04" font-family="Times New Roman,Bold" font-weight="bold"><tspan y="-192.86" x="120.5 130.57999">Na</tspan></text>
</g>
<clipPath id="cp10020">
<path transform="matrix(1,0,0,-1,0,841.92)" d="M .000008871 0 L 595.32 0 L 595.32 841.92 L .000008871 841.92 Z " fill-rule="evenodd"/>
</clipPath>
<g clip-path="url(#cp10020)">
<text xml:space="preserve" transform="matrix(1 0 -0 1 0 841.92)" font-size="14.04" font-family="Times New Roman,Bold" font-weight="bold"><tspan y="-192.86" x="137.66">&#x2019;</tspan></text>
</g>
<clipPath id="cp10021">
<path transform="matrix(1,0,0,-1,0,841.92)" d="M .000008871 0 L 595.32 0 L 595.32 841.92 L .000008871 841.92 Z " fill-rule="evenodd"/>
</clipPath>
<g clip-path="url(#cp10021)">
<text xml:space="preserve" transform="matrix(1 0 -0 1 0 841.92)" font-size="14.04" font-family="Times New Roman,Bold" font-weight="bold"><tspan y="-192.86" x="142.34 153.86684 161.67308 169.47933 176.5274 180.47264 187.43648 193.67024 198.34557">munalar: </tspan></text>
</g>
<clipPath id="cp10022">
<path transform="matrix(1,0,0,-1,0,841.92)" d="M .000008871 0 L 595.32 0 L 595.32 841.92 L .000008871 841.92 Z " fill-rule="evenodd"/>
</clipPath>
<g clip-path="url(#cp10022)">
<text xml:space="preserve" transform="matrix(1 0 -0 1 0 841.92)" font-size="14.04" font-family="Times New Roman"><tspan y="-192.86" x="204.41 214.49073 218.43596 224.66973 229.34505 235.34012 242.30396 246.24919 253.21303 257.15827 264.1221 271.1842 277.30564 284.36775 290.3488 295.0241 302.10026 306.77558 317.46003 323.6938 327.639 331.58424 337.70567 344.6695 351.7316 357.96537 364.9292 370.91026 377.97236 385.03446 388.8814 392.72837 398.96214 402.90736 406.7543 412.98808 417.6634 423.65849 430.72059">Ular oldindan formatlangan hujjatlar bo</tspan></text>
</g>
<clipPath id="cp10023">
<path transform="matrix(1,0,0,-1,0,841.92)" d="M .000008871 0 L 595.32 0 L 595.32 841.92 L .000008871 841.92 Z " fill-rule="evenodd"/>
</clipPath>
<g clip-path="url(#cp10023)">
<text xml:space="preserve" transform="matrix(1 0 -0 1 0 841.92)" font-size="14.04" font-family="Times New Roman"><tspan y="-192.86" x="438.07">&#x2019;</tspan></text>
</g>
<clipPath id="cp10024">
<path transform="matrix(1,0,0,-1,0,841.92)" d="M .000008871 0 L 595.32 0 L 595.32 841.92 L .000008871 841.92 Z " fill-rule="evenodd"/>
</clipPath>
<g clip-path="url(#cp10024)">
<text xml:space="preserve" transform="matrix(1 0 -0 1 0 841.92)" font-size="14.04" font-family="Times New Roman"><tspan y="-192.86" x="442.66 446.50697 450.45219 457.51429 461.0243 466.97727 473.9411 477.88633 484.00776 491.06986 494.9168 501.88066 508.94276 514.9238 521.76138 527.9951 535.0713 542.1334 549.19558 553.1408 559.86599">lib, bizning yakuniy </tspan></text>
</g>
<clipPath id="cp10025">
<path transform="matrix(1,0,0,-1,0,841.92)" d="M .000008871 0 L 595.32 0 L 595.32 841.92 L .000008871 841.92 Z " fill-rule="evenodd"/>
</clipPath>
<g clip-path="url(#cp10025)">
</g>
<clipPath id="cp10026">
<path transform="matrix(1,0,0,-1,0,841.92)" d="M .000008871 0 L 595.32 0 L 595.32 841.92 L .000008871 841.92 Z " fill-rule="evenodd"/>
</clipPath>
<g clip-path="url(#cp10026)">
<text xml:space="preserve" transform="matrix(1 0 -0 1 0 841.92)" font-size="14.04" font-family="Times New Roman"><tspan y="-168.74" x="85.104 92.166118 99.22823 103.075199 106.92216 113.155918 117.00288 120.94812 131.63257 135.5778 141.81157 148.88774 152.83298 160.26013 165.76381 172.82593 178.94738 185.91121 189.85645 193.7034 199.93717 206.901 210.84624 214.79148 219.35448 223.29972 228.70511 235.66895 242.73107 248.96483 256.51835 262.63978 268.14344 275.10728 280.51268 284.4579 291.29536 298.83485 305.89695 312.95906 317.63438 324.5982 328.44517 335.98466 343.04676">hujjatimizni shakllantirishda asosiy qurol bo</tspan></text>
</g>
<clipPath id="cp10027">
<path transform="matrix(1,0,0,-1,0,841.92)" d="M .000008871 0 L 595.32 0 L 595.32 841.92 L .000008871 841.92 Z " fill-rule="evenodd"/>
</clipPath>
<g clip-path="url(#cp10027)">
<text xml:space="preserve" transform="matrix(1 0 -0 1 0 841.92)" font-size="14.04" font-family="Times New Roman"><tspan y="-168.74" x="350.47">&#x2019;</tspan></text>
</g>
<clipPath id="cp10028">
<path transform="matrix(1,0,0,-1,0,841.92)" d="M .000008871 0 L 595.32 0 L 595.32 841.92 L .000008871 841.92 Z " fill-rule="evenodd"/>
</clipPath>
<g clip-path="url(#cp10028)">
<text xml:space="preserve" transform="matrix(1 0 -0 1 0 841.92)" font-size="14.04" font-family="Times New Roman"><tspan y="-168.74" x="355.03 358.97523 362.82218 369.88429 377.31147 384.37358 388.3188 394.55256 405.237 411.47077 415.416 422.95549 429.9193 433.86454 437.80976 443.93119 450.89503 454.84025">lib xizmat qiladi </tspan></text>
</g>
<clipPath id="cp10029">
<path transform="matrix(1,0,0,-1,0,841.92)" d="M .000008871 0 L 595.32 0 L 595.32 841.92 L .000008871 841.92 Z " fill-rule="evenodd"/>
</clipPath>
<g clip-path="url(#cp10029)">
<text xml:space="preserve" transform="matrix(1 0 -0 1 0 841.92)" font-size="14.04" font-family="Times New Roman"><tspan y="-168.74" x="462.58">&#x2013;</tspan></text>
</g>
<clipPath id="cp10030">
<path transform="matrix(1,0,0,-1,0,841.92)" d="M .000008871 0 L 595.32 0 L 595.32 841.92 L .000008871 841.92 Z " fill-rule="evenodd"/>
</clipPath>
<g clip-path="url(#cp10030)">
<text xml:space="preserve" transform="matrix(1 0 -0 1 0 841.92)" font-size="14.04" font-family="Times New Roman"><tspan y="-168.74" x="469.66"> </tspan></text>
</g>
<clipPath id="cp10031">
<path transform="matrix(1,0,0,-1,0,841.92)" d="M .000008871 0 L 595.32 0 L 595.32 841.92 L .000008871 841.92 Z " fill-rule="evenodd"/>
</clipPath>
<g clip-path="url(#cp10031)">
<text xml:space="preserve" transform="matrix(1 0 -0 1 0 841.92)" font-size="14.04" font-family="Times New Roman"><tspan y="-168.74" x="477.22 487.90446 494.1382 499.6559 505.88969 509.8349 515.95639 523.0185 530.558 535.9634 543.0255 547.7008 551.5478 556.1108 559.95779">masalan shrift </tspan></text>
</g>
<clipPath id="cp10032">
<path transform="matrix(1,0,0,-1,0,841.92)" d="M .000008871 0 L 595.32 0 L 595.32 841.92 L .000008871 841.92 Z " fill-rule="evenodd"/>
</clipPath>
<g clip-path="url(#cp10032)">
</g>
<clipPath id="cp10033">
<path transform="matrix(1,0,0,-1,0,841.92)" d="M .000008871 0 L 595.32 0 L 595.32 841.92 L .000008871 841.92 Z " fill-rule="evenodd"/>
</clipPath>
<g clip-path="url(#cp10033)">
<text xml:space="preserve" transform="matrix(1 0 -0 1 0 841.92)" font-size="14.04" font-family="Times New Roman"><tspan y="-144.5" x="85.104 90.60768 97.6698 103.79124 110.75507 114.70032 118.64556 122.15556">shakli, </tspan></text>
</g>
<clipPath id="cp10034">
<path transform="matrix(1,0,0,-1,0,841.92)" d="M .000008871 0 L 595.32 0 L 595.32 841.92 L .000008871 841.92 Z " fill-rule="evenodd"/>
</clipPath>
<g clip-path="url(#cp10034)">
<text xml:space="preserve" transform="matrix(1 0 -0 1 0 841.92)" font-size="14.04" font-family="Times New Roman"><tspan y="-144.5" x="125.66 130.33533 136.45677 143.42061 150.48273 154.42797 157.93796 161.39179 165.95479 173.0169 177.69223 188.37668 194.61045 198.55568 202.50092 206.01091 212.82032 219.88243 226.94455 230.88979 234.39978 241.41979 247.5693 251.51454 255.02454 261.9603 268.19407 275.1579 282.12174 289.18385 292.69386 298.9276 305.16139 309.71034 316.77244 321.44776 324.81736 331.87947">rangi, formati yoki xat uchun zarur bo</tspan></text>
</g>
<clipPath id="cp10035">
<path transform="matrix(1,0,0,-1,0,841.92)" d="M .000008871 0 L 595.32 0 L 595.32 841.92 L .000008871 841.92 Z " fill-rule="evenodd"/>
</clipPath>
<g clip-path="url(#cp10035)">
<text xml:space="preserve" transform="matrix(1 0 -0 1 0 841.92)" font-size="14.04" font-family="Times New Roman"><tspan y="-144.5" x="339.19">&#x2019;</tspan></text>
</g>
<clipPath id="cp10036">
<path transform="matrix(1,0,0,-1,0,841.92)" d="M .000008871 0 L 595.32 0 L 595.32 841.92 L .000008871 841.92 Z " fill-rule="evenodd"/>
</clipPath>
<g clip-path="url(#cp10036)">
<text xml:space="preserve" transform="matrix(1 0 -0 1 0 841.92)" font-size="14.04" font-family="Times New Roman"><tspan y="-144.5" x="343.75 347.59696 354.65907 360.7805 367.8426 371.3526 376.02793 383.0479 387.72325 398.43577 404.66954 408.61476 415.57859 419.5238 423.0338 428.49537 434.6449 441.60874 445.4557 452.5178 459.48164 465.7154 472.67924 476.62446 480.13447 484.80979 491.04356 497.86698 501.8122 505.75743 511.99119 516.6665">lgan formatni saqlovchi fayllar.</tspan></text>
</g>
<clipPath id="cp10037">
<path transform="matrix(1,0,0,-1,0,841.92)" d="M .000008871 0 L 595.32 0 L 595.32 841.92 L .000008871 841.92 Z " fill-rule="evenodd"/>
</clipPath>
<g clip-path="url(#cp10037)">
<text xml:space="preserve" transform="matrix(1 0 -0 1 0 841.92)" font-size="14.04" font-family="Times New Roman"><tspan y="-144.5" x="520.18"> </tspan></text>
</g>
<clipPath id="cp10038">
<path transform="matrix(1,0,0,-1,0,841.92)" d="M .000008871 0 L 595.32 0 L 595.32 841.92 L .000008871 841.92 Z " fill-rule="evenodd"/>
</clipPath>
<g clip-path="url(#cp10038)">
</g>
</g>
<g id="Layer-1" data-name="P">
<clipPath id="cp10039">
<path transform="matrix(1,0,0,-1,0,841.92)" d="M .000008871 0 L 595.32 0 L 595.32 841.92 L .000008871 841.92 Z " fill-rule="evenodd"/>
</clipPath>
<g clip-path="url(#cp10039)">
<text xml:space="preserve" transform="matrix(1 0 -0 1 0 841.92)" font-size="14.04" font-family="Times New Roman,Bold" font-weight="bold"><tspan y="-120.38" x="120.5 130.58072 137.64284 143.8766 151.68285 158.74497 170.2718 176.50557 184.31182 188.15877 192.104 199.06784 205.3016 209.97693">Yordamchilar: </tspan></text>
</g>
<clipPath id="cp10040">
<path transform="matrix(1,0,0,-1,0,841.92)" d="M .000008871 0 L 595.32 0 L 595.32 841.92 L .000008871 841.92 Z " fill-rule="evenodd"/>
</clipPath>
<g clip-path="url(#cp10040)">
<text xml:space="preserve" transform="matrix(1 0 -0 1 0 841.92)" font-size="14.04" font-family="Times New Roman"><tspan y="-120.38" x="223.25 232.48833 239.45217 243.3974 249.63117 254.30649 267.5041 272.06709 279.12919 285.96665 293.02876 299.2625 303.20774 309.32917 316.293 323.3551 330.4172 336.53865 343.50248 347.4477 360.51896 366.0226 372.25639 379.2202 386.18406 390.12928 393.97624 400.21 404.8853 408.73228 415.79438 422.02815 435.22575 439.0727 445.19413 452.25624 459.22007 466.28218 479.35343 486.41554 492.6493 497.21229 501.1575 508.2196 511.7296 524.7587 531.7226 535.66787 541.9016 546.4646 553.52676 559.6482">Bular foydalanuvchi savollariga javob berib, ularga </tspan></text>
</g>
<clipPath id="cp10041">
<path transform="matrix(1,0,0,-1,0,841.92)" d="M .000008871 0 L 595.32 0 L 595.32 841.92 L .000008871 841.92 Z " fill-rule="evenodd"/>
</clipPath>
<g clip-path="url(#cp10041)">
</g>
<clipPath id="cp10042">
<path transform="matrix(1,0,0,-1,0,841.92)" d="M .000008871 0 L 595.32 0 L 595.32 841.92 L .000008871 841.92 Z " fill-rule="evenodd"/>
</clipPath>
<g clip-path="url(#cp10042)">
<text xml:space="preserve" transform="matrix(1 0 -0 1 0 841.92)" font-size="14.04" font-family="Times New Roman"><tspan y="-96.264" x="85.104 91.33775 96.85548 103.81931 109.22472 113.16996 119.2914 126.353519 133.41564 139.53708 146.5992 150.1794 157.14324 164.20536 168.0523 175.11443 181.34819 184.94243 191.90627 198.96839 202.81534 206.6623 212.89606 216.8413 223.80513 227.65209 234.7142 241.77632 245.35652 252.32036">asoslangan holda hujjatning ko</tspan></text>
</g>
<clipPath id="cp10043">
<path transform="matrix(1,0,0,-1,0,841.92)" d="M .000008871 0 L 595.32 0 L 595.32 841.92 L .000008871 841.92 Z " fill-rule="evenodd"/>
</clipPath>
<g clip-path="url(#cp10043)">
<text xml:space="preserve" transform="matrix(1 0 -0 1 0 841.92)" font-size="14.04" font-family="Times New Roman"><tspan y="-96.264" x="259.61">&#x2019;</tspan></text>
</g>
<clipPath id="cp10044">
<path transform="matrix(1,0,0,-1,0,841.92)" d="M .000008871 0 L 595.32 0 L 595.32 841.92 L .000008871 841.92 Z " fill-rule="evenodd"/>
</clipPath>
<g clip-path="url(#cp10044)">
<text xml:space="preserve" transform="matrix(1 0 -0 1 0 841.92)" font-size="14.04" font-family="Times New Roman"><tspan y="-96.264" x="264.17 268.84535 272.6923 279.7544 283.60136 289.105 296.06886 300.01408 303.59428 310.65638 316.89015 320.48439 325.04737 332.10948 336.7848 347.46925 353.703 357.64823 361.59346 368.55729 372.5025 376.0827 383.1448 389.26625 393.21147 400.1753 404.1205 407.96748 414.20124 421.27738 424.85758 431.8214 438.05519 442.61817 449.68028 456.6441 462.87788 469.8417 473.78694 477.63389 483.86766 488.54298 495.52085 499.46607 504.1414 507.6514 511.21757 524.30288 531.365 536.0403 543.11648 550.0803 556.3141 559.6837">rinishi va formatini belgilab beruvchilardir. Wordda, </tspan></text>
</g>
<clipPath id="cp10045">
<path transform="matrix(1,0,0,-1,0,841.92)" d="M .000008871 0 L 595.32 0 L 595.32 841.92 L .000008871 841.92 Z " fill-rule="evenodd"/>
</clipPath>
<g clip-path="url(#cp10045)">
</g>
<clipPath id="cp10046">
<path transform="matrix(1,0,0,-1,0,841.92)" d="M .000008871 0 L 595.32 0 L 595.32 841.92 L .000008871 841.92 Z " fill-rule="evenodd"/>
</clipPath>
<g clip-path="url(#cp10046)">
<text xml:space="preserve" transform="matrix(1 0 -0 1 0 841.92)" font-size="14.04" font-family="Times New Roman"><tspan y="-72.144" x="85.104 92.166118 96.11136 102.345119">biz </tspan></text>
</g>
<clipPath id="cp10047">
<path transform="matrix(1,0,0,-1,0,841.92)" d="M .000008871 0 L 595.32 0 L 595.32 841.92 L .000008871 841.92 Z " fill-rule="evenodd"/>
</clipPath>
<g clip-path="url(#cp10047)">
<text xml:space="preserve" transform="matrix(1 0 -0 1 0 841.92)" font-size="14.04" font-family="Times New Roman,Italic" font-style="italic"><tspan y="-72.144" x="110.78 122.41916 128.65293 138.62133 145.68344 154.06533 165.59217 169.5374 175.04108 182.1032 187.50859 194.57071 202.95259 207.5156 212.19092 217.6946 224.65843 230.8922 237.85604 241.80127 250.18315 258.70545 265.66929 269.6145 273.55973 281.94163 292.02235 297.42774 301.37297">Memo Wizard (Ishchi Xati Usta</tspan></text>
</g>
<clipPath id="cp10048">
<path transform="matrix(1,0,0,-1,0,841.92)" d="M .000008871 0 L 595.32 0 L 595.32 841.92 L .000008871 841.92 Z " fill-rule="evenodd"/>
</clipPath>
<g clip-path="url(#cp10048)">
<text xml:space="preserve" transform="matrix(1 0 -0 1 0 841.92)" font-size="14.04" font-family="Times New Roman,Italic" font-style="italic"><tspan y="-72.144" x="308.57 313.9754 317.92063 321.76759 329.57383 336.63594 342.04133 349.00517 356.06727 366.14799 372.38175 379.34559 383.2908 388.6962 392.64143 397.31675">si/Yordamchisi) </tspan></text>
</g>
<clipPath id="cp10049">
<path transform="matrix(1,0,0,-1,0,841.92)" d="M .000008871 0 L 595.32 0 L 595.32 841.92 L .000008871 841.92 Z " fill-rule="evenodd"/>
</clipPath>
<g clip-path="url(#cp10049)">
<text xml:space="preserve" transform="matrix(1 0 -0 1 0 841.92)" font-size="14.04" font-family="Times New Roman"><tspan y="-72.144" x="405.79 412.75386 418.9876 426.06376 434.44566 441.2831 448.3452 455.40733 459.35255">dan yoki </tspan></text>
</g>
<clipPath id="cp10050">
<path transform="matrix(1,0,0,-1,0,841.92)" d="M .000008871 0 L 595.32 0 L 595.32 841.92 L .000008871 841.92 Z " fill-rule="evenodd"/>
</clipPath>
<g clip-path="url(#cp10050)">
<text xml:space="preserve" transform="matrix(1 0 -0 1 0 841.92)" font-size="14.04" font-family="Times New Roman,Italic" font-style="italic"><tspan y="-72.144" x="467.86 476.38227 482.61604 488.02143 495.08354 505.16426 511.398 519.79397 531.3208 535.26608 540.7697 547.7336 553.01266 559.9765">Resume Wizard </tspan></text>
</g>
<clipPath id="cp10051">
<path transform="matrix(1,0,0,-1,0,841.92)" d="M .000008871 0 L 595.32 0 L 595.32 841.92 L .000008871 841.92 Z " fill-rule="evenodd"/>
</clipPath>
<g clip-path="url(#cp10051)">
</g>
</g>
</g>
</g>
</svg>
