<?xml version="1.0" encoding="UTF-8" standalone="no"?>
<!DOCTYPE svg PUBLIC "-//W3C//DTD SVG 1.1//EN" "http://www.w3.org/Graphics/SVG/1.1/DTD/svg11.dtd">
<svg xmlns="http://www.w3.org/2000/svg" xmlns:xlink="http://www.w3.org/1999/xlink" version="1.1" width="595.32pt" height="841.92pt" viewBox="0 0 595.32 841.92">
<g enable-background="new">
<g>
<g id="Layer-1" data-name="Artifact">
<clipPath id="cp550">
<path transform="matrix(1,0,0,-1,0,841.92)" d="M .000008871 0 L 595.32 0 L 595.32 841.92 L .000008871 841.92 Z " fill-rule="evenodd"/>
</clipPath>
<g clip-path="url(#cp550)">
<text xml:space="preserve" transform="matrix(1 0 -0 1 0 841.92)" font-size="11.04" font-family="Calibri"><tspan y="-51.864" x="316.15">7</tspan></text>
</g>
<clipPath id="cp551">
<path transform="matrix(1,0,0,-1,0,841.92)" d="M .000008871 0 L 595.32 0 L 595.32 841.92 L .000008871 841.92 Z " fill-rule="evenodd"/>
</clipPath>
<g clip-path="url(#cp551)">
<text xml:space="preserve" transform="matrix(1 0 -0 1 0 841.92)" font-size="11.04" font-family="Calibri"><tspan y="-51.864" x="321.79"> </tspan></text>
</g>
<clipPath id="cp552">
<path transform="matrix(1,0,0,-1,0,841.92)" d="M .000008871 0 L 595.32 0 L 595.32 841.92 L .000008871 841.92 Z " fill-rule="evenodd"/>
</clipPath>
<g clip-path="url(#cp552)">
</g>
<clipPath id="cp553">
<path transform="matrix(1,0,0,-1,0,841.92)" d="M .000008871 0 L 595.32 0 L 595.32 841.92 L .000008871 841.92 Z " fill-rule="evenodd"/>
</clipPath>
<g clip-path="url(#cp553)">
<text xml:space="preserve" transform="matrix(1 0 -0 1 0 841.92)" font-size="11.04" font-family="Calibri"><tspan y="-38.4" x="85.104"> </tspan></text>
</g>
<clipPath id="cp554">
<path transform="matrix(1,0,0,-1,0,841.92)" d="M .000008871 0 L 595.32 0 L 595.32 841.92 L .000008871 841.92 Z " fill-rule="evenodd"/>
</clipPath>
<g clip-path="url(#cp554)">
</g>
</g>
<g id="Layer-1" data-name="P">
<clipPath id="cp555">
<path transform="matrix(1,0,0,-1,0,841.92)" d="M .000008871 0 L 595.32 0 L 595.32 841.92 L .000008871 841.92 Z " fill-rule="evenodd"/>
</clipPath>
<g clip-path="url(#cp555)">
<text xml:space="preserve" transform="matrix(1 0 -0 1 0 841.92)" font-size="14.04" font-family="Times New Roman,Bold" font-weight="bold"><tspan y="-772.32" x="96.024">1</tspan></text>
</g>
<clipPath id="cp556">
<path transform="matrix(1,0,0,-1,0,841.92)" d="M .000008871 0 L 595.32 0 L 595.32 841.92 L .000008871 841.92 Z " fill-rule="evenodd"/>
</clipPath>
<g clip-path="url(#cp556)">
<text xml:space="preserve" transform="matrix(1 0 -0 1 0 841.92)" font-size="14.04" font-family="Times New Roman,Bold" font-weight="bold"><tspan y="-772.32" x="103.1">-</tspan></text>
</g>
<clipPath id="cp557">
<path transform="matrix(1,0,0,-1,0,841.92)" d="M .000008871 0 L 595.32 0 L 595.32 841.92 L .000008871 841.92 Z " fill-rule="evenodd"/>
</clipPath>
<g clip-path="url(#cp557)">
<text xml:space="preserve" transform="matrix(1 0 -0 1 0 841.92)" font-size="14.04" font-family="Times New Roman,Bold" font-weight="bold"><tspan y="-772.32" x="107.78 117.14 128.05844">BOB</tspan></text>
</g>
<clipPath id="cp558">
<path transform="matrix(1,0,0,-1,0,841.92)" d="M .000008871 0 L 595.32 0 L 595.32 841.92 L .000008871 841.92 Z " fill-rule="evenodd"/>
</clipPath>
<g clip-path="url(#cp558)">
<text xml:space="preserve" transform="matrix(1 0 -0 1 0 841.92)" font-size="14.04" font-family="Times New Roman,Bold" font-weight="bold"><tspan y="-772.32" x="137.42">.</tspan></text>
</g>
<clipPath id="cp559">
<path transform="matrix(1,0,0,-1,0,841.92)" d="M .000008871 0 L 595.32 0 L 595.32 841.92 L .000008871 841.92 Z " fill-rule="evenodd"/>
</clipPath>
<g clip-path="url(#cp559)">
<text xml:space="preserve" transform="matrix(1 0 -0 1 0 841.92)" font-size="14.04" font-family="Times New Roman,Bold" font-weight="bold"><tspan y="-772.32" x="140.9"> </tspan></text>
</g>
<clipPath id="cp560">
<path transform="matrix(1,0,0,-1,0,841.92)" d="M .000008871 0 L 595.32 0 L 595.32 841.92 L .000008871 841.92 Z " fill-rule="evenodd"/>
</clipPath>
<g clip-path="url(#cp560)">
<text xml:space="preserve" transform="matrix(1 0 -0 1 0 841.92)" font-size="14.04" font-family="Times New Roman,Bold" font-weight="bold"><tspan y="-772.32" x="144.26"> </tspan></text>
</g>
<clipPath id="cp561">
<path transform="matrix(1,0,0,-1,0,841.92)" d="M .000008871 0 L 595.32 0 L 595.32 841.92 L .000008871 841.92 Z " fill-rule="evenodd"/>
</clipPath>
<g clip-path="url(#cp561)">
<text xml:space="preserve" transform="matrix(1 0 -0 1 0 841.92)" font-size="14.04" font-family="Times New Roman,Bold" font-weight="bold"><tspan y="-772.32" x="147.74 157.82073 167.77509 177.13977 188.0629 198.01726 208.81403">AXBOROT</tspan></text>
</g>
<clipPath id="cp562">
<path transform="matrix(1,0,0,-1,0,841.92)" d="M .000008871 0 L 595.32 0 L 595.32 841.92 L .000008871 841.92 Z " fill-rule="evenodd"/>
</clipPath>
<g clip-path="url(#cp562)">
<text xml:space="preserve" transform="matrix(1 0 -0 1 0 841.92)" font-size="14.04" font-family="Times New Roman,Bold" font-weight="bold"><tspan y="-772.32" x="218.09"> </tspan></text>
</g>
<clipPath id="cp563">
<path transform="matrix(1,0,0,-1,0,841.92)" d="M .000008871 0 L 595.32 0 L 595.32 841.92 L .000008871 841.92 Z " fill-rule="evenodd"/>
</clipPath>
<g clip-path="url(#cp563)">
<text xml:space="preserve" transform="matrix(1 0 -0 1 0 841.92)" font-size="14.04" font-family="Times New Roman,Bold" font-weight="bold"><tspan y="-772.32" x="221.57 230.9347 240.17302 250.25374 260.33448 271.13124 280.36955 291.29267 302.08943 307.4948 317.57554 327.65626 336.89457 346.97529 357.056 362.55967 372.514 377.9194 388.00013">TEXNOLOGIYALARINING</tspan></text>
</g>
<clipPath id="cp564">
<path transform="matrix(1,0,0,-1,0,841.92)" d="M .000008871 0 L 595.32 0 L 595.32 841.92 L .000008871 841.92 Z " fill-rule="evenodd"/>
</clipPath>
<g clip-path="url(#cp564)">
<text xml:space="preserve" transform="matrix(1 0 -0 1 0 841.92)" font-size="14.04" font-family="Times New Roman,Bold" font-weight="bold"><tspan y="-772.32" x="398.83"> </tspan></text>
</g>
<clipPath id="cp565">
<path transform="matrix(1,0,0,-1,0,841.92)" d="M .000008871 0 L 595.32 0 L 595.32 841.92 L .000008871 841.92 Z " fill-rule="evenodd"/>
</clipPath>
<g clip-path="url(#cp565)">
<text xml:space="preserve" transform="matrix(1 0 -0 1 0 841.92)" font-size="14.04" font-family="Times New Roman,Bold" font-weight="bold"><tspan y="-772.32" x="402.31 412.39073 422.47145 431.59745 441.67817 451.75889 457.16429">NAZARIY</tspan></text>
</g>
<clipPath id="cp566">
<path transform="matrix(1,0,0,-1,0,841.92)" d="M .000008871 0 L 595.32 0 L 595.32 841.92 L .000008871 841.92 Z " fill-rule="evenodd"/>
</clipPath>
<g clip-path="url(#cp566)">
<text xml:space="preserve" transform="matrix(1 0 -0 1 0 841.92)" font-size="14.04" font-family="Times New Roman,Bold" font-weight="bold"><tspan y="-772.32" x="467.26"> </tspan></text>
</g>
<clipPath id="cp567">
<path transform="matrix(1,0,0,-1,0,841.92)" d="M .000008871 0 L 595.32 0 L 595.32 841.92 L .000008871 841.92 Z " fill-rule="evenodd"/>
</clipPath>
<g clip-path="url(#cp567)">
<text xml:space="preserve" transform="matrix(1 0 -0 1 0 841.92)" font-size="14.04" font-family="Times New Roman,Bold" font-weight="bold"><tspan y="-772.32" x="470.74 480.8207 488.50059 499.4237 507.10359 516.46829 526.549 536.5034">ASOSLARI</tspan></text>
</g>
<clipPath id="cp568">
<path transform="matrix(1,0,0,-1,0,841.92)" d="M .000008871 0 L 595.32 0 L 595.32 841.92 L .000008871 841.92 Z " fill-rule="evenodd"/>
</clipPath>
<g clip-path="url(#cp568)">
<text xml:space="preserve" transform="matrix(1 0 -0 1 0 841.92)" font-size="14.04" font-family="Times New Roman,Bold" font-weight="bold"><tspan y="-772.32" x="541.9"> </tspan></text>
</g>
</g>
<g id="Layer-1" data-name="P">
<path transform="matrix(1,0,0,-1,0,841.92)" d="M 128.9 744.94 L 539.61 744.94 L 539.61 761.764 L 128.9 761.764 Z " fill="#ffffff" fill-rule="evenodd"/>
</g>
<g id="Layer-1" data-name="P">
<clipPath id="cp569">
<path transform="matrix(1,0,0,-1,0,841.92)" d="M .000008871 0 L 595.32 0 L 595.32 841.92 L .000008871 841.92 Z " fill-rule="evenodd"/>
</clipPath>
<g clip-path="url(#cp569)">
<text xml:space="preserve" transform="matrix(1 0 -0 1 0 841.92)" font-size="14.04" font-family="Times New Roman,Bold" font-weight="bold"><tspan y="-748.3" x="98.304 105.36612 108.87612 115.89612">1.1.</tspan></text>
</g>
</g>
<g id="Layer-1" data-name="P">
<clipPath id="cp570">
<path transform="matrix(1,0,0,-1,0,841.92)" d="M .000008871 0 L 595.32 0 L 595.32 841.92 L .000008871 841.92 Z " fill-rule="evenodd"/>
</clipPath>
<g clip-path="url(#cp570)">
<text xml:space="preserve" transform="matrix(1 0 -0 1 0 841.92)" font-size="14.04" font-family="Times New Roman"><tspan y="-748.3" x="119.42"> </tspan></text>
</g>
</g>
<g id="Layer-1" data-name="P">
<clipPath id="cp571">
<path transform="matrix(1,0,0,-1,0,841.92)" d="M .000008871 0 L 595.32 0 L 595.32 841.92 L .000008871 841.92 Z " fill-rule="evenodd"/>
</clipPath>
<g clip-path="url(#cp571)">
<text xml:space="preserve" transform="matrix(1 0 -0 1 0 841.92)" font-size="14.04" font-family="Times New Roman"><tspan y="-748.3" x="122.9">&#x201c;</tspan></text>
</g>
</g>
<g id="Layer-1" data-name="P">
<clipPath id="cp572">
<path transform="matrix(1,0,0,-1,0,841.92)" d="M .000008871 0 L 595.32 0 L 595.32 841.92 L .000008871 841.92 Z " fill-rule="evenodd"/>
</clipPath>
<g clip-path="url(#cp572)">
<text xml:space="preserve" transform="matrix(1 0 -0 1 0 841.92)" font-size="14.04" font-family="Times New Roman,Bold" font-weight="bold"><tspan y="-748.3" x="128.9 138.98072 146.04283 153.84908 160.9112 167.14496 174.22113">Axborot</tspan></text>
</g>
</g>
<g id="Layer-1" data-name="P">
<clipPath id="cp573">
<path transform="matrix(1,0,0,-1,0,841.92)" d="M .000008871 0 L 595.32 0 L 595.32 841.92 L .000008871 841.92 Z " fill-rule="evenodd"/>
</clipPath>
<g clip-path="url(#cp573)">
<text xml:space="preserve" transform="matrix(1 0 -0 1 0 841.92)" font-size="14.04" font-family="Times New Roman,Bold" font-weight="bold"><tspan y="-748.3" x="178.94"> </tspan></text>
</g>
</g>
<g id="Layer-1" data-name="P">
<clipPath id="cp574">
<path transform="matrix(1,0,0,-1,0,841.92)" d="M .000008871 0 L 595.32 0 L 595.32 841.92 L .000008871 841.92 Z " fill-rule="evenodd"/>
</clipPath>
<g clip-path="url(#cp574)">
<text xml:space="preserve" transform="matrix(1 0 -0 1 0 841.92)" font-size="14.04" font-family="Times New Roman,Bold" font-weight="bold"><tspan y="-748.3" x="182.42 187.09532 193.21677 200.27889 207.95877 215.02089 218.86785 225.92996 232.8938 236.74076 243.80287 250.76671 254.71195 261.67579 267.90956">texnologiyalari</tspan></text>
</g>
</g>
<g id="Layer-1" data-name="P">
<clipPath id="cp575">
<path transform="matrix(1,0,0,-1,0,841.92)" d="M .000008871 0 L 595.32 0 L 595.32 841.92 L .000008871 841.92 Z " fill-rule="evenodd"/>
</clipPath>
<g clip-path="url(#cp575)">
<text xml:space="preserve" transform="matrix(1 0 -0 1 0 841.92)" font-size="14.04" font-family="Times New Roman,Bold" font-weight="bold"><tspan y="-748.3" x="271.97"> </tspan></text>
</g>
</g>
<g id="Layer-1" data-name="P">
<clipPath id="cp576">
<path transform="matrix(1,0,0,-1,0,841.92)" d="M .000008871 0 L 595.32 0 L 595.32 841.92 L .000008871 841.92 Z " fill-rule="evenodd"/>
</clipPath>
<g clip-path="url(#cp576)">
<text xml:space="preserve" transform="matrix(1 0 -0 1 0 841.92)" font-size="14.04" font-family="Times New Roman,Bold" font-weight="bold"><tspan y="-748.3" x="275.33 282.40998">va</tspan></text>
</g>
</g>
<g id="Layer-1" data-name="P">
<clipPath id="cp577">
<path transform="matrix(1,0,0,-1,0,841.92)" d="M .000008871 0 L 595.32 0 L 595.32 841.92 L .000008871 841.92 Z " fill-rule="evenodd"/>
</clipPath>
<g clip-path="url(#cp577)">
<text xml:space="preserve" transform="matrix(1 0 -0 1 0 841.92)" font-size="14.04" font-family="Times New Roman,Bold" font-weight="bold"><tspan y="-748.3" x="289.49"> </tspan></text>
</g>
</g>
<g id="Layer-1" data-name="P">
<clipPath id="cp578">
<path transform="matrix(1,0,0,-1,0,841.92)" d="M .000008871 0 L 595.32 0 L 595.32 841.92 L .000008871 841.92 Z " fill-rule="evenodd"/>
</clipPath>
<g clip-path="url(#cp578)">
<text xml:space="preserve" transform="matrix(1 0 -0 1 0 841.92)" font-size="14.04" font-family="Times New Roman,Bold" font-weight="bold"><tspan y="-748.3" x="292.97 297.533 304.5951 310.71653 317.68037 324.74247 331.80458 339.48445 343.42967 350.49177 356.6132 364.41944">jarayonlarni</tspan></text>
</g>
</g>
<g id="Layer-1" data-name="P">
<clipPath id="cp579">
<path transform="matrix(1,0,0,-1,0,841.92)" d="M .000008871 0 L 595.32 0 L 595.32 841.92 L .000008871 841.92 Z " fill-rule="evenodd"/>
</clipPath>
<g clip-path="url(#cp579)">
<text xml:space="preserve" transform="matrix(1 0 -0 1 0 841.92)" font-size="14.04" font-family="Times New Roman,Bold" font-weight="bold"><tspan y="-748.3" x="368.47"> </tspan></text>
</g>
</g>
<g id="Layer-1" data-name="P">
<clipPath id="cp580">
<path transform="matrix(1,0,0,-1,0,841.92)" d="M .000008871 0 L 595.32 0 L 595.32 841.92 L .000008871 841.92 Z " fill-rule="evenodd"/>
</clipPath>
<g clip-path="url(#cp580)">
<text xml:space="preserve" transform="matrix(1 0 -0 1 0 841.92)" font-size="14.04" font-family="Times New Roman,Bold" font-weight="bold"><tspan y="-748.3" x="371.95 383.47685 390.53895 395.21427 401.44804 412.97486 420.03697 424.71229 428.6575">matematik</tspan></text>
</g>
</g>
<g id="Layer-1" data-name="P">
<clipPath id="cp581">
<path transform="matrix(1,0,0,-1,0,841.92)" d="M .000008871 0 L 595.32 0 L 595.32 841.92 L .000008871 841.92 Z " fill-rule="evenodd"/>
</clipPath>
<g clip-path="url(#cp581)">
<text xml:space="preserve" transform="matrix(1 0 -0 1 0 841.92)" font-size="14.04" font-family="Times New Roman,Bold" font-weight="bold"><tspan y="-748.3" x="436.27"> </tspan></text>
</g>
</g>
<g id="Layer-1" data-name="P">
<clipPath id="cp582">
<path transform="matrix(1,0,0,-1,0,841.92)" d="M .000008871 0 L 595.32 0 L 595.32 841.92 L .000008871 841.92 Z " fill-rule="evenodd"/>
</clipPath>
<g clip-path="url(#cp582)">
<text xml:space="preserve" transform="matrix(1 0 -0 1 0 841.92)" font-size="14.04" font-family="Times New Roman,Bold" font-weight="bold"><tspan y="-748.3" x="439.87 451.39683 458.5853 466.39155 472.6253 476.57054 480.41749 487.38133 492.88499 500.69123 505.24018 509.1854 515.4191 519.2661 524.7698">modellashtirish</tspan></text>
</g>
</g>
<g id="Layer-1" data-name="P">
<clipPath id="cp583">
<path transform="matrix(1,0,0,-1,0,841.92)" d="M .000008871 0 L 595.32 0 L 595.32 841.92 L .000008871 841.92 Z " fill-rule="evenodd"/>
</clipPath>
<g clip-path="url(#cp583)">
<text xml:space="preserve" transform="matrix(1 0 -0 1 0 841.92)" font-size="14.04" font-family="Times New Roman,Bold" font-weight="bold"><tspan y="-748.3" x="532.54 539.62">&#x201d; </tspan></text>
</g>
<path transform="matrix(1,0,0,-1,0,841.92)" d="M 197.45 720.82 L 440.59 720.82 L 440.59 737.38 L 197.45 737.38 Z " fill="#ffffff" fill-rule="evenodd"/>
</g>
<g id="Layer-1" data-name="P">
<clipPath id="cp584">
<path transform="matrix(1,0,0,-1,0,841.92)" d="M .000008871 0 L 595.32 0 L 595.32 841.92 L .000008871 841.92 Z " fill-rule="evenodd"/>
</clipPath>
<g clip-path="url(#cp584)">
<text xml:space="preserve" transform="matrix(1 0 -0 1 0 841.92)" font-size="14.04" font-family="Times New Roman,Bold" font-weight="bold"><tspan y="-723.94" x="197.45 202.12532 209.20149 216.88138 220.82662 228.63286 232.5781 240.25798">fanining</tspan></text>
</g>
</g>
<g id="Layer-1" data-name="P">
<clipPath id="cp585">
<path transform="matrix(1,0,0,-1,0,841.92)" d="M .000008871 0 L 595.32 0 L 595.32 841.92 L .000008871 841.92 Z " fill-rule="evenodd"/>
</clipPath>
<g clip-path="url(#cp585)">
<text xml:space="preserve" transform="matrix(1 0 -0 1 0 841.92)" font-size="14.04" font-family="Times New Roman,Bold" font-weight="bold"><tspan y="-723.94" x="247.37"> </tspan></text>
</g>
</g>
<g id="Layer-1" data-name="P">
<clipPath id="cp586">
<path transform="matrix(1,0,0,-1,0,841.92)" d="M .000008871 0 L 595.32 0 L 595.32 841.92 L .000008871 841.92 Z " fill-rule="evenodd"/>
</clipPath>
<g clip-path="url(#cp586)">
<text xml:space="preserve" transform="matrix(1 0 -0 1 0 841.92)" font-size="14.04" font-family="Times New Roman,Bold" font-weight="bold"><tspan y="-723.94" x="250.85 258.65626 264.89 271.12379 278.93003 290.45686 296.6906 301.36595">predmeti</tspan></text>
</g>
</g>
<g id="Layer-1" data-name="P">
<clipPath id="cp587">
<path transform="matrix(1,0,0,-1,0,841.92)" d="M .000008871 0 L 595.32 0 L 595.32 841.92 L .000008871 841.92 Z " fill-rule="evenodd"/>
</clipPath>
<g clip-path="url(#cp587)">
<text xml:space="preserve" transform="matrix(1 0 -0 1 0 841.92)" font-size="14.04" font-family="Times New Roman,Bold" font-weight="bold"><tspan y="-723.94" x="305.33 308.81">, </tspan></text>
</g>
</g>
<g id="Layer-1" data-name="P">
<clipPath id="cp588">
<path transform="matrix(1,0,0,-1,0,841.92)" d="M .000008871 0 L 595.32 0 L 595.32 841.92 L .000008871 841.92 Z " fill-rule="evenodd"/>
</clipPath>
<g clip-path="url(#cp588)">
<text xml:space="preserve" transform="matrix(1 0 -0 1 0 841.92)" font-size="14.04" font-family="Times New Roman,Bold" font-weight="bold"><tspan y="-723.94" x="312.17 323.69685 330.75895 338.5652 344.06886 351.13096 358.81083">maqsadi</tspan></text>
</g>
</g>
<g id="Layer-1" data-name="P">
<clipPath id="cp589">
<path transform="matrix(1,0,0,-1,0,841.92)" d="M .000008871 0 L 595.32 0 L 595.32 841.92 L .000008871 841.92 Z " fill-rule="evenodd"/>
</clipPath>
<g clip-path="url(#cp589)">
<text xml:space="preserve" transform="matrix(1 0 -0 1 0 841.92)" font-size="14.04" font-family="Times New Roman,Bold" font-weight="bold"><tspan y="-723.94" x="362.83"> </tspan></text>
</g>
</g>
<g id="Layer-1" data-name="P">
<clipPath id="cp590">
<path transform="matrix(1,0,0,-1,0,841.92)" d="M .000008871 0 L 595.32 0 L 595.32 841.92 L .000008871 841.92 Z " fill-rule="evenodd"/>
</clipPath>
<g clip-path="url(#cp590)">
<text xml:space="preserve" transform="matrix(1 0 -0 1 0 841.92)" font-size="14.04" font-family="Times New Roman,Bold" font-weight="bold"><tspan y="-723.94" x="366.31 373.27">va</tspan></text>
</g>
</g>
<g id="Layer-1" data-name="P">
<clipPath id="cp591">
<path transform="matrix(1,0,0,-1,0,841.92)" d="M .000008871 0 L 595.32 0 L 595.32 841.92 L .000008871 841.92 Z " fill-rule="evenodd"/>
</clipPath>
<g clip-path="url(#cp591)">
<text xml:space="preserve" transform="matrix(1 0 -0 1 0 841.92)" font-size="14.04" font-family="Times New Roman,Bold" font-weight="bold"><tspan y="-723.94" x="380.35"> </tspan></text>
</g>
</g>
<g id="Layer-1" data-name="P">
<clipPath id="cp592">
<path transform="matrix(1,0,0,-1,0,841.92)" d="M .000008871 0 L 595.32 0 L 595.32 841.92 L .000008871 841.92 Z " fill-rule="evenodd"/>
</clipPath>
<g clip-path="url(#cp592)">
<text xml:space="preserve" transform="matrix(1 0 -0 1 0 841.92)" font-size="14.04" font-family="Times New Roman,Bold" font-weight="bold"><tspan y="-723.94" x="383.83 390.79383 397.85594 403.97737 407.92259 412.5979 419.56175 423.4087 430.37254 436.6063">vazifalari</tspan></text>
</g>
</g>
<g id="Layer-1" data-name="P">
<clipPath id="cp593">
<path transform="matrix(1,0,0,-1,0,841.92)" d="M .000008871 0 L 595.32 0 L 595.32 841.92 L .000008871 841.92 Z " fill-rule="evenodd"/>
</clipPath>
<g clip-path="url(#cp593)">
<text xml:space="preserve" transform="matrix(1 0 -0 1 0 841.92)" font-size="14.04" font-family="Times New Roman,Bold" font-weight="bold"><tspan y="-723.94" x="440.59"> </tspan></text>
</g>
</g>
<g id="Layer-1" data-name="P">
<clipPath id="cp594">
<path transform="matrix(1,0,0,-1,0,841.92)" d="M .000008871 0 L 595.32 0 L 595.32 841.92 L .000008871 841.92 Z " fill-rule="evenodd"/>
</clipPath>
<g clip-path="url(#cp594)">
<text xml:space="preserve" transform="matrix(1 0 -0 1 0 841.92)" font-size="14.04" font-family="Times New Roman"><tspan y="-723.94" x="444.1"> </tspan></text>
</g>
</g>
<g id="Layer-1" data-name="P">
<clipPath id="cp595">
<path transform="matrix(1,0,0,-1,0,841.92)" d="M .000008871 0 L 595.32 0 L 595.32 841.92 L .000008871 841.92 Z " fill-rule="evenodd"/>
</clipPath>
<g clip-path="url(#cp595)">
<text xml:space="preserve" transform="matrix(1 0 -0 1 0 841.92)" font-size="11.04" font-family="Calibri"><tspan y="-723.94" x="447.58"> </tspan></text>
</g>
</g>
<g id="Layer-1" data-name="P">
<path transform="matrix(1,0,0,-1,0,841.92)" d="M 85.104 696.7 L 551.734 696.7 L 551.734 713.14 L 85.104 713.14 Z " fill="#ffffff" fill-rule="evenodd"/>
</g>
<g id="Layer-1" data-name="P">
<clipPath id="cp596">
<path transform="matrix(1,0,0,-1,0,841.92)" d="M .000008871 0 L 595.32 0 L 595.32 841.92 L .000008871 841.92 Z " fill-rule="evenodd"/>
</clipPath>
<g clip-path="url(#cp596)">
<text xml:space="preserve" transform="matrix(1 0 -0 1 0 841.92)" font-size="14.04" font-family="Times New Roman"><tspan y="-700.06" x="85.104 88.45956 91.81512 95.17068 98.68068 102.00816 105.36372 108.873729 112.20121 115.55677">          </tspan></text>
</g>
</g>
<g id="Layer-1" data-name="P">
<clipPath id="cp597">
<path transform="matrix(1,0,0,-1,0,841.92)" d="M .000008871 0 L 595.32 0 L 595.32 841.92 L .000008871 841.92 Z " fill-rule="evenodd"/>
</clipPath>
<g clip-path="url(#cp597)">
<text xml:space="preserve" transform="matrix(1 0 -0 1 0 841.92)" font-size="14.04" font-family="Times New Roman"><tspan y="-700.06" x="119.06 129.01436 135.9782 142.94203 149.90587 154.46887 161.30635 165.1533 169.81458 173.66153 179.78298 186.62046 193.58429 200.42177 204.14237 211.1062 218.07004 221.91699 228.64215 234.7636 238.61055 244.732 249.295">Axborot texnologiyalari</tspan></text>
</g>
</g>
<g id="Layer-1" data-name="P">
<clipPath id="cp598">
<path transform="matrix(1,0,0,-1,0,841.92)" d="M .000008871 0 L 595.32 0 L 595.32 841.92 L .000008871 841.92 Z " fill-rule="evenodd"/>
</clipPath>
<g clip-path="url(#cp598)">
<text xml:space="preserve" transform="matrix(1 0 -0 1 0 841.92)" font-size="14.04" font-family="Times New Roman"><tspan y="-700.06" x="253.13"> </tspan></text>
</g>
</g>
<g id="Layer-1" data-name="P">
<clipPath id="cp599">
<path transform="matrix(1,0,0,-1,0,841.92)" d="M .000008871 0 L 595.32 0 L 595.32 841.92 L .000008871 841.92 Z " fill-rule="evenodd"/>
</clipPath>
<g clip-path="url(#cp599)">
<text xml:space="preserve" transform="matrix(1 0 -0 1 0 841.92)" font-size="14.04" font-family="Times New Roman"><tspan y="-700.06" x="257.81 264.77384 270.89527 275.5706 281.69203 288.65586 294.77729 298.7225 303.3838 309.50523 316.46907 323.4329 330.39674 334.95973 341.92356 345.7705 352.73435 356.67958 361.34086 368.3047 374.53846 381.38996 385.2369 391.47068 396.146 399.99296 405.39836 412.36219 416.20915 422.33058 427.73597 434.6998 441.66365 445.5106 452.47444 459.43827 464.09956 471.16166 477.28309 482.68849 486.53544 493.49928 498.06227 502.00749 508.84495 512.3549 516.98818 520.9334 527.0549 534.01876 540.9826 544.8296 551.6671">nafaqat axborotni qayta ishlashning dasturiy, texnik </tspan></text>
</g>
<path transform="matrix(1,0,0,-1,0,841.92)" d="M 85.104 672.58 L 551.734 672.58 L 551.734 689.02 L 85.104 689.02 Z " fill="#ffffff" fill-rule="evenodd"/>
</g>
<g id="Layer-1" data-name="P">
<clipPath id="cp600">
<path transform="matrix(1,0,0,-1,0,841.92)" d="M .000008871 0 L 595.32 0 L 595.32 841.92 L .000008871 841.92 Z " fill-rule="evenodd"/>
</clipPath>
<g clip-path="url(#cp600)">
<text xml:space="preserve" transform="matrix(1 0 -0 1 0 841.92)" font-size="14.04" font-family="Times New Roman"><tspan y="-675.94" x="85.104 92.06783 98.30159 102.850559 109.81439 116.77823 122.18363 129.14746 136.1113 142.23274 146.7817 153.74553 160.70937 166.11476 169.96172 173.80867 179.93012 183.77707 190.01084 194.57384">va boshqa vositalari</tspan></text>
</g>
</g>
<g id="Layer-1" data-name="P">
<clipPath id="cp601">
<path transform="matrix(1,0,0,-1,0,841.92)" d="M .000008871 0 L 595.32 0 L 595.32 841.92 L .000008871 841.92 Z " fill-rule="evenodd"/>
</clipPath>
<g clip-path="url(#cp601)">
<text xml:space="preserve" transform="matrix(1 0 -0 1 0 841.92)" font-size="14.04" font-family="Times New Roman"><tspan y="-675.94" x="198.53">,</tspan></text>
</g>
</g>
<g id="Layer-1" data-name="P">
<clipPath id="cp602">
<path transform="matrix(1,0,0,-1,0,841.92)" d="M .000008871 0 L 595.32 0 L 595.32 841.92 L .000008871 841.92 Z " fill-rule="evenodd"/>
</clipPath>
<g clip-path="url(#cp602)">
<text xml:space="preserve" transform="matrix(1 0 -0 1 0 841.92)" font-size="14.04" font-family="Times New Roman"><tspan y="-675.94" x="202.01"> </tspan></text>
</g>
</g>
<g id="Layer-1" data-name="P">
<clipPath id="cp603">
<path transform="matrix(1,0,0,-1,0,841.92)" d="M .000008871 0 L 595.32 0 L 595.32 841.92 L .000008871 841.92 Z " fill-rule="evenodd"/>
</clipPath>
<g clip-path="url(#cp603)">
<text xml:space="preserve" transform="matrix(1 0 -0 1 0 841.92)" font-size="14.04" font-family="Times New Roman"><tspan y="-675.94" x="206.45 213.41384 219.53528 223.38224 230.34607 234.2913 238.84026 243.3892 248.06453 254.18598 261.1498 267.27125 271.21647 275.63908 282.6029 289.665 294.08763 297.93458 304.8984 310.3038 317.26765 324.23149 331.1953 337.31675 344.37886 350.50028 357.4641 363.69789 368.13453 375.19664 385.88108 392.94319 403.62763 407.57286 414.4103 419.0716 425.90907 432.97117 439.935 446.77247 452.8939 458.2993 465.26313 472.22697 479.28907 483.71168 490.77378 495.33677 502.3006 508.42204 512.269 516.21426 520.7632 527.6007 533.72219 540.68606 547.6499 551.4969">balki  faqat bu tushunchaga umumiy yondashuv orqali yangi </tspan></text>
</g>
<path transform="matrix(1,0,0,-1,0,841.92)" d="M 85.104 648.34 L 551.734 648.34 L 551.734 664.78 L 85.104 664.78 Z " fill="#ffffff" fill-rule="evenodd"/>
</g>
<g id="Layer-1" data-name="P">
<clipPath id="cp604">
<path transform="matrix(1,0,0,-1,0,841.92)" d="M .000008871 0 L 595.32 0 L 595.32 841.92 L .000008871 841.92 Z " fill-rule="evenodd"/>
</clipPath>
<g clip-path="url(#cp604)">
<text xml:space="preserve" transform="matrix(1 0 -0 1 0 841.92)" font-size="14.04" font-family="Times New Roman"><tspan y="-651.7" x="85.104 90.5094 94.35636 99.031688 105.15312 109.000087 115.96392 122.19768 135.87264 141.99408 146.55709 150.40404 155.80944 162.77327 166.62023 172.02562 179.08774 182.59774 196.11824 199.9652 206.92903 211.49204 215.33899 219.28423 232.94515 239.06659 246.03043 252.99427 259.9581 264.5211 271.48493 275.43016 289.09107 292.81166 299.0454 303.6084 309.84217 316.69367 323.6575 330.62135 334.4683 340.70207">sifatga erishish, turli axborot jarayonlar</tspan></text>
</g>
</g>
<g id="Layer-1" data-name="P">
<clipPath id="cp605">
<path transform="matrix(1,0,0,-1,0,841.92)" d="M .000008871 0 L 595.32 0 L 595.32 841.92 L .000008871 841.92 Z " fill-rule="evenodd"/>
</clipPath>
<g clip-path="url(#cp605)">
<text xml:space="preserve" transform="matrix(1 0 -0 1 0 841.92)" font-size="14.04" font-family="Times New Roman"><tspan y="-651.7" x="345.31">i</tspan></text>
</g>
</g>
<g id="Layer-1" data-name="P">
<clipPath id="cp606">
<path transform="matrix(1,0,0,-1,0,841.92)" d="M .000008871 0 L 595.32 0 L 595.32 841.92 L .000008871 841.92 Z " fill-rule="evenodd"/>
</clipPath>
<g clip-path="url(#cp606)">
<text xml:space="preserve" transform="matrix(1 0 -0 1 0 841.92)" font-size="14.04" font-family="Times New Roman"><tspan y="-651.7" x="349.15 356.11384 360.05906 373.60768 380.5715 387.53535 391.3823 395.3275 406.01197 412.1334 415.98036 419.92558 426.047 431.4524 438.41624 442.26319 446.11015 450.67314 454.52009 459.92549 466.98759 470.4976">ni optimallashtirish, </tspan></text>
</g>
</g>
<g id="Layer-1" data-name="P">
<clipPath id="cp607">
<path transform="matrix(1,0,0,-1,0,841.92)" d="M .000008871 0 L 595.32 0 L 595.32 841.92 L .000008871 841.92 Z " fill-rule="evenodd"/>
</clipPath>
<g clip-path="url(#cp607)">
<text xml:space="preserve" transform="matrix(1 0 -0 1 0 841.92)" font-size="14.04" font-family="Times New Roman"><tspan y="-651.7" x="484.06 488.02003">ta</tspan></text>
</g>
</g>
<g id="Layer-1" data-name="P">
<clipPath id="cp608">
<path transform="matrix(1,0,0,-1,0,841.92)" d="M .000008871 0 L 595.32 0 L 595.32 841.92 L .000008871 841.92 Z " fill-rule="evenodd"/>
</clipPath>
<g clip-path="url(#cp608)">
<text xml:space="preserve" transform="matrix(1 0 -0 1 0 841.92)" font-size="14.04" font-family="Times New Roman"><tspan y="-651.7" x="494.26">y</tspan></text>
</g>
</g>
<g id="Layer-1" data-name="P">
<clipPath id="cp609">
<path transform="matrix(1,0,0,-1,0,841.92)" d="M .000008871 0 L 595.32 0 L 595.32 841.92 L .000008871 841.92 Z " fill-rule="evenodd"/>
</clipPath>
<g clip-path="url(#cp609)">
<text xml:space="preserve" transform="matrix(1 0 -0 1 0 841.92)" font-size="14.04" font-family="Times New Roman"><tspan y="-651.7" x="501.1 507.93748 514.9996 519.56259 526.5264 532.6479 537.2109 541.05789 544.7785 551.7424">yorgarlik </tspan></text>
</g>
<path transform="matrix(1,0,0,-1,0,841.92)" d="M 85.104 624.22 L 551.734 624.22 L 551.734 640.66 L 85.104 640.66 Z " fill="#ffffff" fill-rule="evenodd"/>
</g>
<g id="Layer-1" data-name="P">
<clipPath id="cp610">
<path transform="matrix(1,0,0,-1,0,841.92)" d="M .000008871 0 L 595.32 0 L 595.32 841.92 L .000008871 841.92 Z " fill-rule="evenodd"/>
</clipPath>
<g clip-path="url(#cp610)">
<text xml:space="preserve" transform="matrix(1 0 -0 1 0 841.92)" font-size="14.04" font-family="Times New Roman"><tspan y="-627.58" x="85.104 92.06783 99.03167 104.43707 111.40091 115.24787 121.36931 128.33315 132.1801 139.14394 145.26538 152.3275 155.8375 159.16497 166.1288 173.09264 178.59632 189.28076 195.4022 202.36605 208.59981 212.1098 218.20317 225.167 229.01396 235.9778 242.09925 246.66225 250.5092 254.35616 261.41828 267.5397 274.50355 278.01356 281.34104 288.40315 294.52458 299.92997 306.8938 311.56913 314.93873 321.90257 325.7495 329.59648 333.44343 340.40727 347.3711 353.49253 360.55464 364.06465 374.721 380.95478 387.9186 393.324 400.28785 404.1348 411.09864 414.9456 418.79255 424.91398 429.47697 436.53907 442.6605 449.7226 453.07817 460.042 467.00584 472.41123 479.37507 483.22203 489.34346 496.40556 499.7611 503.60807 510.67018 514.1802 517.5077 521.3547 527.47616 534.44 538.38528 544.5067 548.3537 551.7093">bosqichidan, bosmaga chiqarilgan, nashr qilingan mahsulotlardan boshlab to  tabiat, </tspan></text>
</g>
<path transform="matrix(1,0,0,-1,0,841.92)" d="M 85.104 600.1 L 551.734 600.1 L 551.734 616.54 L 85.104 616.54 Z " fill="#ffffff" fill-rule="evenodd"/>
</g>
<g id="Layer-1" data-name="P">
<clipPath id="cp611">
<path transform="matrix(1,0,0,-1,0,841.92)" d="M .000008871 0 L 595.32 0 L 595.32 841.92 L .000008871 841.92 Z " fill-rule="evenodd"/>
</clipPath>
<g clip-path="url(#cp611)">
<text xml:space="preserve" transform="matrix(1 0 -0 1 0 841.92)" font-size="14.04" font-family="Times New Roman"><tspan y="-603.46" x="85.104 88.95096 95.184719 105.869159 109.8144 116.65188 122.885639 126.83088 138.58237 143.14537 146.99233 153.95616 161.01828 164.73888 168.58583 174.70728 181.67111 185.51807 190.92346 197.8873 201.73426 208.69809 212.54505 219.50888 226.47272 238.2242 245.18804 249.03499 255.99883 262.96269 269.0841 273.02934 284.89314 288.6137 294.84748 299.41047 305.64424 312.49574 319.45957 326.4234 330.27037 336.50413 341.0671 344.91407 351.8779 355.72486 367.58866 379.34016 385.46159 392.4254 399.38926 406.3531 410.91609 417.8799 421.72688 425.57383 429.51905 441.27055 451.955 459.0171 466.0792">jamiyat rivojlanishining global jarayonlarini  axborotli mode</tspan></text>
</g>
</g>
<g id="Layer-1" data-name="P">
<clipPath id="cp612">
<path transform="matrix(1,0,0,-1,0,841.92)" d="M .000008871 0 L 595.32 0 L 595.32 841.92 L .000008871 841.92 Z " fill-rule="evenodd"/>
</clipPath>
<g clip-path="url(#cp612)">
<text xml:space="preserve" transform="matrix(1 0 -0 1 0 841.92)" font-size="14.04" font-family="Times New Roman"><tspan y="-603.46" x="472.3 476.14695 479.9939 486.11534 491.52073 498.48457 502.3315 506.17848 510.74147 514.58847 519.99386 527.05599 538.80746 545.64498 551.7664">llashtirish va </tspan></text>
</g>
<path transform="matrix(1,0,0,-1,0,841.92)" d="M 85.104 575.98 L 206.324 575.98 L 206.324 592.42 L 85.104 592.42 Z " fill="#ffffff" fill-rule="evenodd"/>
</g>
<g id="Layer-1" data-name="P">
<clipPath id="cp613">
<path transform="matrix(1,0,0,-1,0,841.92)" d="M .000008871 0 L 595.32 0 L 595.32 841.92 L .000008871 841.92 Z " fill-rule="evenodd"/>
</clipPath>
<g clip-path="url(#cp613)">
<text xml:space="preserve" transform="matrix(1 0 -0 1 0 841.92)" font-size="14.04" font-family="Times New Roman"><tspan y="-579.34" x="85.104 92.06783 96.63084 103.59467 110.55851 117.52235 124.48618 130.60762 134.55286">prognozla</tspan></text>
</g>
</g>
<g id="Layer-1" data-name="P">
<clipPath id="cp614">
<path transform="matrix(1,0,0,-1,0,841.92)" d="M .000008871 0 L 595.32 0 L 595.32 841.92 L .000008871 841.92 Z " fill-rule="evenodd"/>
</clipPath>
<g clip-path="url(#cp614)">
<text xml:space="preserve" transform="matrix(1 0 -0 1 0 841.92)" font-size="14.04" font-family="Times New Roman"><tspan y="-579.34" x="140.66 146.05997">sh</tspan></text>
</g>
</g>
<g id="Layer-1" data-name="P">
<clipPath id="cp615">
<path transform="matrix(1,0,0,-1,0,841.92)" d="M .000008871 0 L 595.32 0 L 595.32 841.92 L .000008871 841.92 Z " fill-rule="evenodd"/>
</clipPath>
<g clip-path="url(#cp615)">
<text xml:space="preserve" transform="matrix(1 0 -0 1 0 841.92)" font-size="14.04" font-family="Times New Roman"><tspan y="-579.34" x="153.02"> </tspan></text>
</g>
</g>
<g id="Layer-1" data-name="P">
<clipPath id="cp616">
<path transform="matrix(1,0,0,-1,0,841.92)" d="M .000008871 0 L 595.32 0 L 595.32 841.92 L .000008871 841.92 Z " fill-rule="evenodd"/>
</clipPath>
<g clip-path="url(#cp616)">
<text xml:space="preserve" transform="matrix(1 0 -0 1 0 841.92)" font-size="14.04" font-family="Times New Roman"><tspan y="-579.34" x="156.5 167.18445 174.24657 184.93102 191.99314 195.84009 202.9022">mumkin.</tspan></text>
</g>
</g>
<g id="Layer-1" data-name="P">
<clipPath id="cp617">
<path transform="matrix(1,0,0,-1,0,841.92)" d="M .000008871 0 L 595.32 0 L 595.32 841.92 L .000008871 841.92 Z " fill-rule="evenodd"/>
</clipPath>
<g clip-path="url(#cp617)">
<text xml:space="preserve" transform="matrix(1 0 -0 1 0 841.92)" font-size="14.04" font-family="Times New Roman"><tspan y="-579.34" x="206.33"> </tspan></text>
</g>
</g>
<g id="Layer-1" data-name="P">
<clipPath id="cp618">
<path transform="matrix(1,0,0,-1,0,841.92)" d="M .000008871 0 L 595.32 0 L 595.32 841.92 L .000008871 841.92 Z " fill-rule="evenodd"/>
</clipPath>
<g clip-path="url(#cp618)">
<text xml:space="preserve" transform="matrix(1 0 -0 1 0 841.92)" font-size="14.04" font-family="Times New Roman"><tspan y="-579.34" x="209.81"> </tspan></text>
</g>
</g>
<g id="Layer-1" data-name="P">
<clipPath id="cp619">
<path transform="matrix(1,0,0,-1,0,841.92)" d="M .000008871 0 L 595.32 0 L 595.32 841.92 L .000008871 841.92 Z " fill-rule="evenodd"/>
</clipPath>
<g clip-path="url(#cp619)">
<text xml:space="preserve" transform="matrix(1 0 -0 1 0 841.92)" font-size="14.04" font-family="Times New Roman,Italic" font-style="italic"><tspan y="-555.07" x="121.1 129.62227 135.85604 142.9322 149.89604 155.30144 162.36356 166.30879 170.85774 174.80298 181.03675 187.15819 194.12203 201.18415 205.0311 211.99494 219.05706 223.00229 229.12374 236.08757 241.49297">Axborot texnologiyasi</tspan></text>
</g>
<clipPath id="cp620">
<path transform="matrix(1,0,0,-1,0,841.92)" d="M .000008871 0 L 595.32 0 L 595.32 841.92 L .000008871 841.92 Z " fill-rule="evenodd"/>
</clipPath>
<g clip-path="url(#cp620)">
<text xml:space="preserve" transform="matrix(1 0 -0 1 0 841.92)" font-size="14.04" font-family="Times New Roman"><tspan y="-555.07" x="245.57"> </tspan></text>
</g>
<clipPath id="cp621">
<path transform="matrix(1,0,0,-1,0,841.92)" d="M .000008871 0 L 595.32 0 L 595.32 841.92 L .000008871 841.92 Z " fill-rule="evenodd"/>
</clipPath>
<g clip-path="url(#cp621)">
<text xml:space="preserve" transform="matrix(1 0 -0 1 0 841.92)" font-size="14.04" font-family="Times New Roman"><tspan y="-555.07" x="250.13">&#x2013;</tspan></text>
</g>
<clipPath id="cp622">
<path transform="matrix(1,0,0,-1,0,841.92)" d="M .000008871 0 L 595.32 0 L 595.32 841.92 L .000008871 841.92 Z " fill-rule="evenodd"/>
</clipPath>
<g clip-path="url(#cp622)">
<text xml:space="preserve" transform="matrix(1 0 -0 1 0 841.92)" font-size="14.04" font-family="Times New Roman"><tspan y="-555.07" x="257.21"> </tspan></text>
</g>
<clipPath id="cp623">
<path transform="matrix(1,0,0,-1,0,841.92)" d="M .000008871 0 L 595.32 0 L 595.32 841.92 L .000008871 841.92 Z " fill-rule="evenodd"/>
</clipPath>
<g clip-path="url(#cp623)">
<text xml:space="preserve" transform="matrix(1 0 -0 1 0 841.92)" font-size="14.04" font-family="Times New Roman"><tspan y="-555.07" x="261.77 268.00376 275.0799 282.04374 289.10585 293.66883 297.61405 304.4515 309.1128 319.90956 326.25566 330.81864 334.76387 341.82597 352.5104 359.5725 363.51774 370.57984 374.52507 379.07405 386.03788 389.9831 394.65843 399.2074 406.17124 413.23335 417.79634 422.47166 426.41688 433.3807 437.32594 442.73133 449.69517 456.75727 462.8787 469.9408 474.48979 478.435">axboriy ma&#x2019;lumotni bir ko&#x2018;rinishdan ik</tspan></text>
</g>
<clipPath id="cp624">
<path transform="matrix(1,0,0,-1,0,841.92)" d="M .000008871 0 L 595.32 0 L 595.32 841.92 L .000008871 841.92 Z " fill-rule="evenodd"/>
</clipPath>
<g clip-path="url(#cp624)">
<text xml:space="preserve" transform="matrix(1 0 -0 1 0 841.92)" font-size="14.04" font-family="Times New Roman"><tspan y="-555.07" x="485.74 492.8021 496.64906 503.71116 509.83259 516.8947 520.83999 524.35 528.87088 534.27627 538.2215 542.8968 549.01828 552.86526">kinchi, sifat </tspan></text>
</g>
<clipPath id="cp625">
<path transform="matrix(1,0,0,-1,0,841.92)" d="M .000008871 0 L 595.32 0 L 595.32 841.92 L .000008871 841.92 Z " fill-rule="evenodd"/>
</clipPath>
<g clip-path="url(#cp625)">
<text xml:space="preserve" transform="matrix(1 0 -0 1 0 841.92)" font-size="14.04" font-family="Times New Roman"><tspan y="-530.95" x="85.104 88.95096 92.8962 99.95832 106.07976 110.025 113.87196 120.93408 127.05552 134.11763 137.62763 144.43703 150.67079 157.74697 164.80908 168.75432 172.10988 179.07372 186.13584 190.69884 195.37416 199.3194 206.28324 210.22847 215.63387 222.5977 229.65982 235.89359 239.40358 246.42359 252.5731 256.42008 260.3653 264.31053 268.8735 272.81874 278.22413 285.28623 288.79624 292.2501 298.37153 305.43363 312.39747 319.45957 324.02256 331.08467 334.9316 341.9937 345.93894 349.44895 356.25834 360.20356 367.26567 371.82865 375.6756 381.17927 388.24137 391.75138 395.07887 402.14097 408.37474 415.22624 419.17146 425.4052 428.91523 432.81834 438.27989 445.21565 449.16087 455.39463 460.80003 467.86213 471.21769 478.2798 484.51356 488.02357 495.04356 501.19309 507.42686 511.2738 515.21908 520.62448 527.5883 534.65048 538.49746 545.4613 552.4252">jihatidan yangi ko&#x2018;rinishga keltirish, axborotni yig&#x2018;ish, qayta ishlash va uzatishning </tspan></text>
</g>
<clipPath id="cp626">
<path transform="matrix(1,0,0,-1,0,841.92)" d="M .000008871 0 L 595.32 0 L 595.32 841.92 L .000008871 841.92 Z " fill-rule="evenodd"/>
</clipPath>
<g clip-path="url(#cp626)">
<text xml:space="preserve" transform="matrix(1 0 -0 1 0 841.92)" font-size="14.04" font-family="Times New Roman"><tspan y="-506.83" x="85.104 92.166118 97.57152 104.535358 108.4806 111.9906 119.0106 125.244358 128.64203 135.70415 142.66799 148.07338 152.01862 155.96385 162.0853 166.03054 172.2643 176.8273 180.77254 184.28253 194.9389 201.17267 205.1179 215.80236 222.86447 229.09824 234.61597 238.5612 245.62332 251.74477 258.8069 262.3169 266.99223 274.0122 280.89179 287.9539 294.07533 298.02055 304.2543 311.21815 315.0651 320.56877 327.5326 331.0426 334.84745 341.0812 345.75654 351.9903 358.8418 365.9039 372.966 376.91123 383.87507 387.82029 392.4956">usul va vositalari majmuasidan foydalanish jarayonidir.</tspan></text>
</g>
<clipPath id="cp627">
<path transform="matrix(1,0,0,-1,0,841.92)" d="M .000008871 0 L 595.32 0 L 595.32 841.92 L .000008871 841.92 Z " fill-rule="evenodd"/>
</clipPath>
<g clip-path="url(#cp627)">
<text xml:space="preserve" transform="matrix(1 0 -0 1 0 841.92)" font-size="14.04" font-family="Times New Roman"><tspan y="-506.83" x="396.19"> </tspan></text>
</g>
</g>
<g id="Layer-1" data-name="P">
<clipPath id="cp628">
<path transform="matrix(1,0,0,-1,0,841.92)" d="M .000008871 0 L 595.32 0 L 595.32 841.92 L .000008871 841.92 Z " fill-rule="evenodd"/>
</clipPath>
<g clip-path="url(#cp628)">
<text xml:space="preserve" transform="matrix(1 0 -0 1 0 841.92)" font-size="14.04" font-family="Times New Roman"><tspan y="-482.71" x="118.1 128.18071 132.74372 137.41904 144.49521 150.72898 157.80515 161.6521 165.59734 171.8311 178.68262 185.74474 189.59169 196.65381 202.88758 209.96375 227.94898 231.79593 237.91738 242.5927 248.82646 255.67798 262.74009 269.8022 276.76603 280.71125 287.67509 294.73719 312.72245 319.68629 326.74839 332.15379 337.65745 343.77888 361.76414 368.82624 375.06 393.04527 400.10737 407.0712 412.57487 419.5387 424.9441 428.8893 435.72679 441.96055 445.90577 449.85099 456.08476 460.64775 464.4947 471.5568 475.502 493.48728 504.17173 510.4055 514.3507 520.6968 531.38119 537.6149 541.5602 545.50546 552.4693">O&#x2018;rganilayotgan jarayonning xossa va xususiyatlarini matematik </tspan></text>
</g>
<clipPath id="cp629">
<path transform="matrix(1,0,0,-1,0,841.92)" d="M .000008871 0 L 595.32 0 L 595.32 841.92 L .000008871 841.92 Z " fill-rule="evenodd"/>
</clipPath>
<g clip-path="url(#cp629)">
<text xml:space="preserve" transform="matrix(1 0 -0 1 0 841.92)" font-size="14.04" font-family="Times New Roman"><tspan y="-458.47" x="85.104 95.78844 102.850559 109.912677 116.97479 122.47848 128.59992 135.66204 141.8958 145.74275 149.68799 155.92176 160.59708 166.47983 173.54195 178.10495 185.16707 191.40084 195.24779 199.19303 205.06174 209.00698 213.6823 220.64614 227.70825 233.8297 237.77494 243.89638 249.40006 256.3639 263.426 269.65977 275.5285 281.03218 287.996 295.0581">munosabatlar orqali ifodalashga shu </tspan></text>
</g>
<clipPath id="cp630">
<path transform="matrix(1,0,0,-1,0,841.92)" d="M .000008871 0 L 595.32 0 L 595.32 841.92 L .000008871 841.92 Z " fill-rule="evenodd"/>
</clipPath>
<g clip-path="url(#cp630)">
<text xml:space="preserve" transform="matrix(1 0 -0 1 0 841.92)" font-size="14.04" font-family="Times New Roman"><tspan y="-458.47" x="301.37 305.21696 311.4507 316.12605 322.26155 329.099 336.1611 343.2232 350.2853 354.13227 361.0961 368.1582">jarayonning </tspan></text>
</g>
<clipPath id="cp631">
<path transform="matrix(1,0,0,-1,0,841.92)" d="M .000008871 0 L 595.32 0 L 595.32 841.92 L .000008871 841.92 Z " fill-rule="evenodd"/>
</clipPath>
<g clip-path="url(#cp631)">
<text xml:space="preserve" transform="matrix(1 0 -0 1 0 841.92)" font-size="14.04" font-family="Times New Roman,BoldItalic" font-weight="bold" font-style="italic"><tspan y="-458.47" x="373.99 385.13777 392.1016 396.0468 402.0419 413.18968 420.1535 424.00047 427.8474 434.90953 440.89057 451.91197 458.8758 465.83964 472.0734 475.92036">matematik modeli</tspan></text>
</g>
<clipPath id="cp632">
<path transform="matrix(1,0,0,-1,0,841.92)" d="M .000008871 0 L 595.32 0 L 595.32 841.92 L .000008871 841.92 Z " fill-rule="evenodd"/>
</clipPath>
<g clip-path="url(#cp632)">
<text xml:space="preserve" transform="matrix(1 0 -0 1 0 841.92)" font-size="14.04" font-family="Times New Roman"><tspan y="-458.47" x="479.98"> </tspan></text>
</g>
<clipPath id="cp633">
<path transform="matrix(1,0,0,-1,0,841.92)" d="M .000008871 0 L 595.32 0 L 595.32 841.92 L .000008871 841.92 Z " fill-rule="evenodd"/>
</clipPath>
<g clip-path="url(#cp633)">
<text xml:space="preserve" transform="matrix(1 0 -0 1 0 841.92)" font-size="14.04" font-family="Times New Roman"><tspan y="-458.47" x="485.98 492.94386 499.1776 506.25376 512.2348 518.35629 522.3015 528.423 532.3682 538.602 545.56588 549.5111 552.8667">deb ataladi. </tspan></text>
</g>
</g>
<g id="Layer-1" data-name="P">
<clipPath id="cp634">
<path transform="matrix(1,0,0,-1,0,841.92)" d="M .000008871 0 L 595.32 0 L 595.32 841.92 L .000008871 841.92 Z " fill-rule="evenodd"/>
</clipPath>
<g clip-path="url(#cp634)">
<text xml:space="preserve" transform="matrix(1 0 -0 1 0 841.92)" font-size="14.04" font-family="Times New Roman"><tspan y="-434.35" x="85.104 97.585559 103.81931 107.76456 113.998317 124.682758 130.91652 134.86176 138.70871 145.77083 151.2745 161.95896 169.02108 176.08319 182.31696 186.16391 191.66759 198.63143 205.59526 210.27059 214.21582 219.62122 226.68334 232.07469 239.13681 245.37058 250.76194 257.72578 264.78788 268.63484">Matematik model qurish va uni </tspan></text>
</g>
</g>
<g id="Layer-1" data-name="P">
<clipPath id="cp635">
<path transform="matrix(1,0,0,-1,0,841.92)" d="M .000008871 0 L 595.32 0 L 595.32 841.92 L .000008871 841.92 Z " fill-rule="evenodd"/>
</clipPath>
<g clip-path="url(#cp635)">
<text xml:space="preserve" transform="matrix(1 0 -0 1 0 841.92)" font-size="14.04" font-family="Times New Roman"><tspan y="-434.35" x="274.37">y</tspan></text>
</g>
</g>
<g id="Layer-1" data-name="P">
<clipPath id="cp636">
<path transform="matrix(1,0,0,-1,0,841.92)" d="M .000008871 0 L 595.32 0 L 595.32 841.92 L .000008871 841.92 Z " fill-rule="evenodd"/>
</clipPath>
<g clip-path="url(#cp636)">
<text xml:space="preserve" transform="matrix(1 0 -0 1 0 841.92)" font-size="14.04" font-family="Times New Roman"><tspan y="-434.35" x="281.21 287.44377 293.67753 300.75367 304.60063 310.10429 317.0681 322.5718 326.41877 332.65254 337.32786 343.5616 350.41313 357.47523 364.53733 368.48255 373.8739 380.10768 385.62538 391.7468">echish jarayoni esa </tspan></text>
</g>
</g>
<g id="Layer-1" data-name="P">
<clipPath id="cp637">
<path transform="matrix(1,0,0,-1,0,841.92)" d="M .000008871 0 L 595.32 0 L 595.32 841.92 L .000008871 841.92 Z " fill-rule="evenodd"/>
</clipPath>
<g clip-path="url(#cp637)">
<text xml:space="preserve" transform="matrix(1 0 -0 1 0 841.92)" font-size="14.04" font-family="Times New Roman,BoldItalic" font-weight="bold" font-style="italic"><tspan y="-434.35" x="397.15 408.29777 415.2616 419.20683 425.2019 436.34968 443.3135 447.0341 450.9793 457.94316 463.20817 474.35594 481.31977 488.38188 494.5033 498.44853 502.29548 509.2593 514.763 522.5692 526.40219 530.24917 535.7528 539.5998 545.10348">matematik modellashtirish</tspan></text>
</g>
</g>
<g id="Layer-1" data-name="P">
<clipPath id="cp638">
<path transform="matrix(1,0,0,-1,0,841.92)" d="M .000008871 0 L 595.32 0 L 595.32 841.92 L .000008871 841.92 Z " fill-rule="evenodd"/>
</clipPath>
<g clip-path="url(#cp638)">
<text xml:space="preserve" transform="matrix(1 0 -0 1 0 841.92)" font-size="14.04" font-family="Times New Roman"><tspan y="-434.35" x="552.94"> </tspan></text>
</g>
</g>
<g id="Layer-1" data-name="P">
<clipPath id="cp639">
<path transform="matrix(1,0,0,-1,0,841.92)" d="M .000008871 0 L 595.32 0 L 595.32 841.92 L .000008871 841.92 Z " fill-rule="evenodd"/>
</clipPath>
<g clip-path="url(#cp639)">
<text xml:space="preserve" transform="matrix(1 0 -0 1 0 841.92)" font-size="14.04" font-family="Times New Roman"><tspan y="-410.23" x="85.104 92.166118 98.39987 105.25139 109.19663 113.14188 119.26331 126.32543 130.27066 133.78066">deyiladi. </tspan></text>
</g>
</g>
<g id="Layer-1" data-name="P">
<clipPath id="cp640">
<path transform="matrix(1,0,0,-1,0,841.92)" d="M .000008871 0 L 595.32 0 L 595.32 841.92 L .000008871 841.92 Z " fill-rule="evenodd"/>
</clipPath>
<g clip-path="url(#cp640)">
<text xml:space="preserve" transform="matrix(1 0 -0 1 0 841.92)" font-size="14.04" font-family="Times New Roman"><tspan y="-410.23" x="137.18"> </tspan></text>
</g>
</g>
<g id="Layer-1" data-name="P">
<clipPath id="cp641">
<path transform="matrix(1,0,0,-1,0,841.92)" d="M .000008871 0 L 595.32 0 L 595.32 841.92 L .000008871 841.92 Z " fill-rule="evenodd"/>
</clipPath>
<g clip-path="url(#cp641)">
<text xml:space="preserve" transform="matrix(1 0 -0 1 0 841.92)" font-size="14.04" font-family="Times New Roman"><tspan y="-386.09" x="120.5 130.58072 136.81449 141.4898 146.40381 153.46593 159.69969 166.66353 173.72565 179.95941 186.81093 191.71088 195.55783 201.7916 206.46692 212.82704 219.66452 226.72664 233.78876 240.7526 244.69783 249.59778 260.28224 266.516 270.4612 276.8073 287.49177 293.72554 297.67076 301.61598 308.67808 313.57804 324.26249 331.3246 338.3867 344.62046 348.56568 352.41264 358.53407 364.03773 371.00157 374.94679 378.79374 383.46907 387.316 392.81968 399.88179 404.66944 411.73155 415.5785 420.2538 425.16783 432.22993 438.46369 444.5851 451.64723 457.88099 462.66865 469.73075 476.69459 482.19825 489.16209 493.1073 499.22874 506.29084 511.1908 517.42459 522.82998 529.8921 535.2975 539.1445 546.2066 552.32809">Har qanday jarayonni matematik modellashtirish bir necha bosqich asosida </tspan></text>
</g>
<clipPath id="cp642">
<path transform="matrix(1,0,0,-1,0,841.92)" d="M .000008871 0 L 595.32 0 L 595.32 841.92 L .000008871 841.92 Z " fill-rule="evenodd"/>
</clipPath>
<g clip-path="url(#cp642)">
<text xml:space="preserve" transform="matrix(1 0 -0 1 0 841.92)" font-size="14.04" font-family="Times New Roman"><tspan y="-361.97" x="85.104 91.45007 102.134517 108.36827 112.313518 119.37563 125.60939">amalga </tspan></text>
</g>
</g>
<g id="Layer-1" data-name="P">
<clipPath id="cp643">
<path transform="matrix(1,0,0,-1,0,841.92)" d="M .000008871 0 L 595.32 0 L 595.32 841.92 L .000008871 841.92 Z " fill-rule="evenodd"/>
</clipPath>
<g clip-path="url(#cp643)">
<text xml:space="preserve" transform="matrix(1 0 -0 1 0 841.92)" font-size="14.04" font-family="Times New Roman"><tspan y="-361.97" x="129.02">&#x043e;</tspan></text>
</g>
</g>
<g id="Layer-1" data-name="P">
<clipPath id="cp644">
<path transform="matrix(1,0,0,-1,0,841.92)" d="M .000008871 0 L 595.32 0 L 595.32 841.92 L .000008871 841.92 Z " fill-rule="evenodd"/>
</clipPath>
<g clip-path="url(#cp644)">
<text xml:space="preserve" transform="matrix(1 0 -0 1 0 841.92)" font-size="14.04" font-family="Times New Roman"><tspan y="-361.97" x="136.1 141.5054 148.56752 152.41448 157.0898 160.93675 164.88199 171.00344 178.06555">shiriladi</tspan></text>
</g>
</g>
<g id="Layer-1" data-name="P">
<clipPath id="cp645">
<path transform="matrix(1,0,0,-1,0,841.92)" d="M .000008871 0 L 595.32 0 L 595.32 841.92 L .000008871 841.92 Z " fill-rule="evenodd"/>
</clipPath>
<g clip-path="url(#cp645)">
<text xml:space="preserve" transform="matrix(1 0 -0 1 0 841.92)" font-size="14.04" font-family="Times New Roman"><tspan y="-361.97" x="182.06">.</tspan></text>
</g>
</g>
<g id="Layer-1" data-name="P">
<clipPath id="cp646">
<path transform="matrix(1,0,0,-1,0,841.92)" d="M .000008871 0 L 595.32 0 L 595.32 841.92 L .000008871 841.92 Z " fill-rule="evenodd"/>
</clipPath>
<g clip-path="url(#cp646)">
<text xml:space="preserve" transform="matrix(1 0 -0 1 0 841.92)" font-size="14.04" font-family="Times New Roman"><tspan y="-361.97" x="185.54"> </tspan></text>
</g>
</g>
<g id="Layer-1" data-name="P">
<clipPath id="cp647">
<path transform="matrix(1,0,0,-1,0,841.92)" d="M .000008871 0 L 595.32 0 L 595.32 841.92 L .000008871 841.92 Z " fill-rule="evenodd"/>
</clipPath>
<g clip-path="url(#cp647)">
<text xml:space="preserve" transform="matrix(1 0 -0 1 0 841.92)" font-size="14.04" font-family="Times New Roman"><tspan y="-361.97" x="189.05 198.28833 205.25217 208.76216 215.78217 222.80217 228.26374 235.28374 239.18686 245.33638 252.3985 256.24546 262.47923 267.15455 270.66456 274.13246 281.09629 288.1584 294.99586 298.94108 306.00318 312.1246 319.1867 323.03367 326.8806 333.11439 337.7897 344.86585 350.98728 358.04939 361.5594">Bu bosqichlar  quyidagilardan  </tspan></text>
</g>
</g>
<g id="Layer-1" data-name="P">
<clipPath id="cp648">
<path transform="matrix(1,0,0,-1,0,841.92)" d="M .000008871 0 L 595.32 0 L 595.32 841.92 L .000008871 841.92 Z " fill-rule="evenodd"/>
</clipPath>
<g clip-path="url(#cp648)">
<text xml:space="preserve" transform="matrix(1 0 -0 1 0 841.92)" font-size="14.04" font-family="Times New Roman"><tspan y="-361.97" x="365.11 368.95695 376.01905 382.98289 387.6582 393.89198 397.73893">iborat:</tspan></text>
</g>
</g>
<g id="Layer-1" data-name="P">
<clipPath id="cp649">
<path transform="matrix(1,0,0,-1,0,841.92)" d="M .000008871 0 L 595.32 0 L 595.32 841.92 L .000008871 841.92 Z " fill-rule="evenodd"/>
</clipPath>
<g clip-path="url(#cp649)">
<text xml:space="preserve" transform="matrix(1 0 -0 1 0 841.92)" font-size="14.04" font-family="Times New Roman"><tspan y="-361.97" x="401.59"> </tspan></text>
</g>
</g>
<g id="Layer-1" data-name="P">
<clipPath id="cp650">
<path transform="matrix(1,0,0,-1,0,841.92)" d="M .000008871 0 L 595.32 0 L 595.32 841.92 L .000008871 841.92 Z " fill-rule="evenodd"/>
</clipPath>
<g clip-path="url(#cp650)">
<text xml:space="preserve" transform="matrix(1 0 -0 1 0 841.92)" font-size="14.04" font-family="Times New Roman"><tspan y="-337.73" x="121.1 128.18">1.</tspan></text>
</g>
<clipPath id="cp651">
<path transform="matrix(1,0,0,-1,0,841.92)" d="M .000008871 0 L 595.32 0 L 595.32 841.92 L .000008871 841.92 Z " fill-rule="evenodd"/>
</clipPath>
<g clip-path="url(#cp651)">
<text xml:space="preserve" transform="matrix(1 0 -0 1 0 841.92)" font-size="14.04" font-family="Arial"><tspan y="-337.73" x="131.66"> </tspan></text>
</g>
<clipPath id="cp652">
<path transform="matrix(1,0,0,-1,0,841.92)" d="M .000008871 0 L 595.32 0 L 595.32 841.92 L .000008871 841.92 Z " fill-rule="evenodd"/>
</clipPath>
<g clip-path="url(#cp652)">
<text xml:space="preserve" transform="matrix(1 0 -0 1 0 841.92)" font-size="14.04" font-family="Times New Roman"><tspan y="-337.73" x="139.1 144.60369 150.83745 155.51277 161.74654 168.59806 175.66017 182.62401 189.68613">Jarayonni</tspan></text>
</g>
</g>
<g id="Layer-1" data-name="P">
<clipPath id="cp653">
<path transform="matrix(1,0,0,-1,0,841.92)" d="M .000008871 0 L 595.32 0 L 595.32 841.92 L .000008871 841.92 Z " fill-rule="evenodd"/>
</clipPath>
<g clip-path="url(#cp653)">
<text xml:space="preserve" transform="matrix(1 0 -0 1 0 841.92)" font-size="14.04" font-family="Times New Roman"><tspan y="-337.73" x="193.73"> </tspan></text>
</g>
</g>
<g id="Layer-1" data-name="P">
<clipPath id="cp654">
<path transform="matrix(1,0,0,-1,0,841.92)" d="M .000008871 0 L 595.32 0 L 595.32 841.92 L .000008871 841.92 Z " fill-rule="evenodd"/>
</clipPath>
<g clip-path="url(#cp654)">
<text xml:space="preserve" transform="matrix(1 0 -0 1 0 841.92)" font-size="14.04" font-family="Times New Roman"><tspan y="-337.73" x="197.09 204.15212 208.71512 213.39044 220.46662 226.58806 233.65018 237.49713 242.90253 249.96465">o&#x2018;rganish.</tspan></text>
</g>
</g>
<g id="Layer-1" data-name="P">
<clipPath id="cp655">
<path transform="matrix(1,0,0,-1,0,841.92)" d="M .000008871 0 L 595.32 0 L 595.32 841.92 L .000008871 841.92 Z " fill-rule="evenodd"/>
</clipPath>
<g clip-path="url(#cp655)">
<text xml:space="preserve" transform="matrix(1 0 -0 1 0 841.92)" font-size="14.04" font-family="Times New Roman"><tspan y="-337.73" x="253.49"> </tspan></text>
</g>
<clipPath id="cp656">
<path transform="matrix(1,0,0,-1,0,841.92)" d="M .000008871 0 L 595.32 0 L 595.32 841.92 L .000008871 841.92 Z " fill-rule="evenodd"/>
</clipPath>
<g clip-path="url(#cp656)">
</g>
</g>
<g id="Layer-1" data-name="P">
<clipPath id="cp657">
<path transform="matrix(1,0,0,-1,0,841.92)" d="M .000008871 0 L 595.32 0 L 595.32 841.92 L .000008871 841.92 Z " fill-rule="evenodd"/>
</clipPath>
<g clip-path="url(#cp657)">
<text xml:space="preserve" transform="matrix(1 0 -0 1 0 841.92)" font-size="14.04" font-family="Times New Roman"><tspan y="-313.61" x="121.1 128.18">2.</tspan></text>
</g>
<clipPath id="cp658">
<path transform="matrix(1,0,0,-1,0,841.92)" d="M .000008871 0 L 595.32 0 L 595.32 841.92 L .000008871 841.92 Z " fill-rule="evenodd"/>
</clipPath>
<g clip-path="url(#cp658)">
<text xml:space="preserve" transform="matrix(1 0 -0 1 0 841.92)" font-size="14.04" font-family="Arial"><tspan y="-313.61" x="131.66"> </tspan></text>
</g>
<clipPath id="cp659">
<path transform="matrix(1,0,0,-1,0,841.92)" d="M .000008871 0 L 595.32 0 L 595.32 841.92 L .000008871 841.92 Z " fill-rule="evenodd"/>
</clipPath>
<g clip-path="url(#cp659)">
<text xml:space="preserve" transform="matrix(1 0 -0 1 0 841.92)" font-size="14.04" font-family="Times New Roman"><tspan y="-313.61" x="139.1 144.60369 150.83745 155.51277 161.74654 168.59806 175.66017 182.62401 189.68613 193.53308 200.49692">Jarayonning</tspan></text>
</g>
</g>
<g id="Layer-1" data-name="P">
<clipPath id="cp660">
<path transform="matrix(1,0,0,-1,0,841.92)" d="M .000008871 0 L 595.32 0 L 595.32 841.92 L .000008871 841.92 Z " fill-rule="evenodd"/>
</clipPath>
<g clip-path="url(#cp660)">
<text xml:space="preserve" transform="matrix(1 0 -0 1 0 841.92)" font-size="14.04" font-family="Times New Roman"><tspan y="-313.61" x="207.65"> </tspan></text>
</g>
</g>
<g id="Layer-1" data-name="P">
<clipPath id="cp661">
<path transform="matrix(1,0,0,-1,0,841.92)" d="M .000008871 0 L 595.32 0 L 595.32 841.92 L .000008871 841.92 Z " fill-rule="evenodd"/>
</clipPath>
<g clip-path="url(#cp661)">
<text xml:space="preserve" transform="matrix(1 0 -0 1 0 841.92)" font-size="14.04" font-family="Times New Roman"><tspan y="-313.61" x="211.13 221.81446 228.04822 231.99346 238.33954 249.02399 255.25775 259.20298 263.1482">matematik</tspan></text>
</g>
</g>
<g id="Layer-1" data-name="P">
<clipPath id="cp662">
<path transform="matrix(1,0,0,-1,0,841.92)" d="M .000008871 0 L 595.32 0 L 595.32 841.92 L .000008871 841.92 Z " fill-rule="evenodd"/>
</clipPath>
<g clip-path="url(#cp662)">
<text xml:space="preserve" transform="matrix(1 0 -0 1 0 841.92)" font-size="14.04" font-family="Times New Roman"><tspan y="-313.61" x="270.29"> </tspan></text>
</g>
</g>
<g id="Layer-1" data-name="P">
<clipPath id="cp663">
<path transform="matrix(1,0,0,-1,0,841.92)" d="M .000008871 0 L 595.32 0 L 595.32 841.92 L .000008871 841.92 Z " fill-rule="evenodd"/>
</clipPath>
<g clip-path="url(#cp663)">
<text xml:space="preserve" transform="matrix(1 0 -0 1 0 841.92)" font-size="14.04" font-family="Times New Roman"><tspan y="-313.61" x="273.77 284.45445 291.51655 298.57865 304.8124 308.65937 312.50633 319.56843">modelini</tspan></text>
</g>
</g>
<g id="Layer-1" data-name="P">
<clipPath id="cp664">
<path transform="matrix(1,0,0,-1,0,841.92)" d="M .000008871 0 L 595.32 0 L 595.32 841.92 L .000008871 841.92 Z " fill-rule="evenodd"/>
</clipPath>
<g clip-path="url(#cp664)">
<text xml:space="preserve" transform="matrix(1 0 -0 1 0 841.92)" font-size="14.04" font-family="Times New Roman"><tspan y="-313.61" x="323.59"> </tspan></text>
</g>
</g>
<g id="Layer-1" data-name="P">
<clipPath id="cp665">
<path transform="matrix(1,0,0,-1,0,841.92)" d="M .000008871 0 L 595.32 0 L 595.32 841.92 L .000008871 841.92 Z " fill-rule="evenodd"/>
</clipPath>
<g clip-path="url(#cp665)">
<text xml:space="preserve" transform="matrix(1 0 -0 1 0 841.92)" font-size="14.04" font-family="Times New Roman"><tspan y="-313.61" x="326.95 334.01213 340.97596 345.65129 349.49824 355.0019 362.064">qurish.</tspan></text>
</g>
</g>
<g id="Layer-1" data-name="P">
<clipPath id="cp666">
<path transform="matrix(1,0,0,-1,0,841.92)" d="M .000008871 0 L 595.32 0 L 595.32 841.92 L .000008871 841.92 Z " fill-rule="evenodd"/>
</clipPath>
<g clip-path="url(#cp666)">
<text xml:space="preserve" transform="matrix(1 0 -0 1 0 841.92)" font-size="14.04" font-family="Times New Roman"><tspan y="-313.61" x="365.47"> </tspan></text>
</g>
<clipPath id="cp667">
<path transform="matrix(1,0,0,-1,0,841.92)" d="M .000008871 0 L 595.32 0 L 595.32 841.92 L .000008871 841.92 Z " fill-rule="evenodd"/>
</clipPath>
<g clip-path="url(#cp667)">
</g>
</g>
<g id="Layer-1" data-name="P">
<clipPath id="cp668">
<path transform="matrix(1,0,0,-1,0,841.92)" d="M .000008871 0 L 595.32 0 L 595.32 841.92 L .000008871 841.92 Z " fill-rule="evenodd"/>
</clipPath>
<g clip-path="url(#cp668)">
<text xml:space="preserve" transform="matrix(1 0 -0 1 0 841.92)" font-size="14.04" font-family="Times New Roman"><tspan y="-289.49" x="121.1 128.18">3.</tspan></text>
</g>
<clipPath id="cp669">
<path transform="matrix(1,0,0,-1,0,841.92)" d="M .000008871 0 L 595.32 0 L 595.32 841.92 L .000008871 841.92 Z " fill-rule="evenodd"/>
</clipPath>
<g clip-path="url(#cp669)">
<text xml:space="preserve" transform="matrix(1 0 -0 1 0 841.92)" font-size="14.04" font-family="Arial"><tspan y="-289.49" x="131.66"> </tspan></text>
</g>
<clipPath id="cp670">
<path transform="matrix(1,0,0,-1,0,841.92)" d="M .000008871 0 L 595.32 0 L 595.32 841.92 L .000008871 841.92 Z " fill-rule="evenodd"/>
</clipPath>
<g clip-path="url(#cp670)">
<text xml:space="preserve" transform="matrix(1 0 -0 1 0 841.92)" font-size="14.04" font-family="Times New Roman"><tspan y="-289.49" x="139.1 151.58158 157.81534 163.31902 169.44046 173.3857 179.50714 186.56926 190.5145 194.02449 200.8339 207.06766 213.30142 220.3776 224.22455 229.62995 236.69207 240.20206 247.13782 252.6415 259.60536 263.55058 267.4958">Masalani yechish usuli </tspan></text>
</g>
<clipPath id="cp671">
<path transform="matrix(1,0,0,-1,0,841.92)" d="M .000008871 0 L 595.32 0 L 595.32 841.92 L .000008871 841.92 Z " fill-rule="evenodd"/>
</clipPath>
<g clip-path="url(#cp671)">
<text xml:space="preserve" transform="matrix(1 0 -0 1 0 841.92)" font-size="14.04" font-family="Times New Roman"><tspan y="-289.49" x="271.13">(</tspan></text>
</g>
<clipPath id="cp672">
<path transform="matrix(1,0,0,-1,0,841.92)" d="M .000008871 0 L 595.32 0 L 595.32 841.92 L .000008871 841.92 Z " fill-rule="evenodd"/>
</clipPath>
<g clip-path="url(#cp672)">
<text xml:space="preserve" transform="matrix(1 0 -0 1 0 841.92)" font-size="14.04" font-family="Times New Roman"><tspan y="-289.49" x="275.81 281.93144 285.77839 292.84049 299.9026 304.46559 308.31254 312.25776 322.9422">algoritmi</tspan></text>
</g>
<clipPath id="cp673">
<path transform="matrix(1,0,0,-1,0,841.92)" d="M .000008871 0 L 595.32 0 L 595.32 841.92 L .000008871 841.92 Z " fill-rule="evenodd"/>
</clipPath>
<g clip-path="url(#cp673)">
<text xml:space="preserve" transform="matrix(1 0 -0 1 0 841.92)" font-size="14.04" font-family="Times New Roman"><tspan y="-289.49" x="326.95">)</tspan></text>
</g>
<clipPath id="cp674">
<path transform="matrix(1,0,0,-1,0,841.92)" d="M .000008871 0 L 595.32 0 L 595.32 841.92 L .000008871 841.92 Z " fill-rule="evenodd"/>
</clipPath>
<g clip-path="url(#cp674)">
<text xml:space="preserve" transform="matrix(1 0 -0 1 0 841.92)" font-size="14.04" font-family="Times New Roman"><tspan y="-289.49" x="331.63 338.6921 342.63734 346.14735 350.05046 356.19999 363.16383 367.10905 373.3428 378.7482 385.8103 389.3203 396.1297 403.1918 410.2539 414.19914 417.70915 421.51399 426.91938 433.98149 437.82844 444.0622 451.13835 454.64836 460.7417 467.8038 471.65077 478.6146 482.5598 487.9652 495.0273">ni tanlash yoki ishlab chiqish.</tspan></text>
</g>
<clipPath id="cp675">
<path transform="matrix(1,0,0,-1,0,841.92)" d="M .000008871 0 L 595.32 0 L 595.32 841.92 L .000008871 841.92 Z " fill-rule="evenodd"/>
</clipPath>
<g clip-path="url(#cp675)">
<text xml:space="preserve" transform="matrix(1 0 -0 1 0 841.92)" font-size="14.04" font-family="Times New Roman"><tspan y="-289.49" x="498.58"> </tspan></text>
</g>
<clipPath id="cp676">
<path transform="matrix(1,0,0,-1,0,841.92)" d="M .000008871 0 L 595.32 0 L 595.32 841.92 L .000008871 841.92 Z " fill-rule="evenodd"/>
</clipPath>
<g clip-path="url(#cp676)">
</g>
</g>
<g id="Layer-1" data-name="P">
<clipPath id="cp677">
<path transform="matrix(1,0,0,-1,0,841.92)" d="M .000008871 0 L 595.32 0 L 595.32 841.92 L .000008871 841.92 Z " fill-rule="evenodd"/>
</clipPath>
<g clip-path="url(#cp677)">
<text xml:space="preserve" transform="matrix(1 0 -0 1 0 841.92)" font-size="14.04" font-family="Times New Roman"><tspan y="-265.37" x="121.1 128.18">4.</tspan></text>
</g>
<clipPath id="cp678">
<path transform="matrix(1,0,0,-1,0,841.92)" d="M .000008871 0 L 595.32 0 L 595.32 841.92 L .000008871 841.92 Z " fill-rule="evenodd"/>
</clipPath>
<g clip-path="url(#cp678)">
<text xml:space="preserve" transform="matrix(1 0 -0 1 0 841.92)" font-size="14.04" font-family="Arial"><tspan y="-265.37" x="131.66"> </tspan></text>
</g>
<clipPath id="cp679">
<path transform="matrix(1,0,0,-1,0,841.92)" d="M .000008871 0 L 595.32 0 L 595.32 841.92 L .000008871 841.92 Z " fill-rule="evenodd"/>
</clipPath>
<g clip-path="url(#cp679)">
<text xml:space="preserve" transform="matrix(1 0 -0 1 0 841.92)" font-size="14.04" font-family="Times New Roman"><tspan y="-265.37" x="139.1 147.62229 153.85605 160.93222 164.87746 170.9989 177.96274 185.02486 191.1463 198.20842 204.79317 211.63065 218.69277 225.75489 229.60184 236.18659 240.03354 245.43894 252.50106 256.34803 262.5818 269.65794 276.2427 282.36415 289.32798 293.2732 300.23704 304.18226 308.0292 315.0913 321.21275 328.27485 334.74729 340.98106 344.828 351.8901 358.85395 363.52928 367.37623 371.22319 381.90763 388.4924 394.72618 400.24388 407.30598 412.80964 416.6566 423.7187 429.95246 436.4249 443.38874 450.45085 461.13529 468.32377 475.16123 482.22334 486.16856 492.28999 496.9653 503.55009 510.61219 516.73367 522.13906 526.0843 533.1464 537.7094 541.5564 548.6185 552.4655">Tanlangan yoki ishlab chiqilgan algoritm asosida kompyuter dasturini </tspan></text>
</g>
<clipPath id="cp680">
<path transform="matrix(1,0,0,-1,0,841.92)" d="M .000008871 0 L 595.32 0 L 595.32 841.92 L .000008871 841.92 Z " fill-rule="evenodd"/>
</clipPath>
<g clip-path="url(#cp680)">
</g>
<clipPath id="cp681">
<path transform="matrix(1,0,0,-1,0,841.92)" d="M .000008871 0 L 595.32 0 L 595.32 841.92 L .000008871 841.92 Z " fill-rule="evenodd"/>
</clipPath>
<g clip-path="url(#cp681)">
<text xml:space="preserve" transform="matrix(1 0 -0 1 0 841.92)" font-size="14.04" font-family="Times New Roman"><tspan y="-241.13" x="139.1 143.04524 150.10736 156.2288 160.07576 165.57944 172.64156">tuzish.</tspan></text>
</g>
<clipPath id="cp682">
<path transform="matrix(1,0,0,-1,0,841.92)" d="M .000008871 0 L 595.32 0 L 595.32 841.92 L .000008871 841.92 Z " fill-rule="evenodd"/>
</clipPath>
<g clip-path="url(#cp682)">
<text xml:space="preserve" transform="matrix(1 0 -0 1 0 841.92)" font-size="14.04" font-family="Times New Roman"><tspan y="-241.13" x="176.06"> </tspan></text>
</g>
<clipPath id="cp683">
<path transform="matrix(1,0,0,-1,0,841.92)" d="M .000008871 0 L 595.32 0 L 595.32 841.92 L .000008871 841.92 Z " fill-rule="evenodd"/>
</clipPath>
<g clip-path="url(#cp683)">
</g>
</g>
<g id="Layer-1" data-name="P">
<clipPath id="cp684">
<path transform="matrix(1,0,0,-1,0,841.92)" d="M .000008871 0 L 595.32 0 L 595.32 841.92 L .000008871 841.92 Z " fill-rule="evenodd"/>
</clipPath>
<g clip-path="url(#cp684)">
<text xml:space="preserve" transform="matrix(1 0 -0 1 0 841.92)" font-size="14.04" font-family="Times New Roman"><tspan y="-216.98" x="121.1 128.18">5.</tspan></text>
</g>
<clipPath id="cp685">
<path transform="matrix(1,0,0,-1,0,841.92)" d="M .000008871 0 L 595.32 0 L 595.32 841.92 L .000008871 841.92 Z " fill-rule="evenodd"/>
</clipPath>
<g clip-path="url(#cp685)">
<text xml:space="preserve" transform="matrix(1 0 -0 1 0 841.92)" font-size="14.04" font-family="Arial"><tspan y="-216.98" x="131.66"> </tspan></text>
</g>
<clipPath id="cp686">
<path transform="matrix(1,0,0,-1,0,841.92)" d="M .000008871 0 L 595.32 0 L 595.32 841.92 L .000008871 841.92 Z " fill-rule="evenodd"/>
</clipPath>
<g clip-path="url(#cp686)">
<text xml:space="preserve" transform="matrix(1 0 -0 1 0 841.92)" font-size="14.04" font-family="Times New Roman"><tspan y="-216.98" x="139.1 148.46469 154.69846 159.37378 163.22074 167.16597 174.1298 180.36357 187.43975 190.7953 197.85742 204.82126 210.22666 217.28878 221.23401 227.35546 234.31929 241.38141 245.94441 249.88965 256.01109 263.07319 266.5832 273.51896 277.46418 284.428 295.11247 301.34623 305.29145 309.23667 315.47044 320.14576 327.2219 333.34333 340.40544 343.91545 348.45036 355.51246 362.3499 369.41203 375.64579 379.591 385.82478 392.7886 396.63557">Berilgan boshlang&#x2018;ich qiymatlardan foydalanib</tspan></text>
</g>
<clipPath id="cp687">
<path transform="matrix(1,0,0,-1,0,841.92)" d="M .000008871 0 L 595.32 0 L 595.32 841.92 L .000008871 841.92 Z " fill-rule="evenodd"/>
</clipPath>
<g clip-path="url(#cp687)">
<text xml:space="preserve" transform="matrix(1 0 -0 1 0 841.92)" font-size="14.04" font-family="Times New Roman"><tspan y="-216.98" x="403.99 407.5 410.95387 418.01597 424.1374 428.0826 432.02784 435.8748 441.99623 445.94145 452.1752 456.85054 460.22013 467.28224 471.12919 475.0744 480.4798 487.5419">, natijalar olish.</tspan></text>
</g>
<clipPath id="cp688">
<path transform="matrix(1,0,0,-1,0,841.92)" d="M .000008871 0 L 595.32 0 L 595.32 841.92 L .000008871 841.92 Z " fill-rule="evenodd"/>
</clipPath>
<g clip-path="url(#cp688)">
<text xml:space="preserve" transform="matrix(1 0 -0 1 0 841.92)" font-size="14.04" font-family="Times New Roman"><tspan y="-216.98" x="491.02"> </tspan></text>
</g>
<clipPath id="cp689">
<path transform="matrix(1,0,0,-1,0,841.92)" d="M .000008871 0 L 595.32 0 L 595.32 841.92 L .000008871 841.92 Z " fill-rule="evenodd"/>
</clipPath>
<g clip-path="url(#cp689)">
</g>
</g>
<g id="Layer-1" data-name="P">
<clipPath id="cp690">
<path transform="matrix(1,0,0,-1,0,841.92)" d="M .000008871 0 L 595.32 0 L 595.32 841.92 L .000008871 841.92 Z " fill-rule="evenodd"/>
</clipPath>
<g clip-path="url(#cp690)">
<text xml:space="preserve" transform="matrix(1 0 -0 1 0 841.92)" font-size="14.04" font-family="Times New Roman"><tspan y="-192.86" x="121.1 128.18">6.</tspan></text>
</g>
<clipPath id="cp691">
<path transform="matrix(1,0,0,-1,0,841.92)" d="M .000008871 0 L 595.32 0 L 595.32 841.92 L .000008871 841.92 Z " fill-rule="evenodd"/>
</clipPath>
<g clip-path="url(#cp691)">
<text xml:space="preserve" transform="matrix(1 0 -0 1 0 841.92)" font-size="14.04" font-family="Arial"><tspan y="-192.86" x="131.66"> </tspan></text>
</g>
<clipPath id="cp692">
<path transform="matrix(1,0,0,-1,0,841.92)" d="M .000008871 0 L 595.32 0 L 595.32 841.92 L .000008871 841.92 Z " fill-rule="evenodd"/>
</clipPath>
<g clip-path="url(#cp692)">
<text xml:space="preserve" transform="matrix(1 0 -0 1 0 841.92)" font-size="14.04" font-family="Times New Roman"><tspan y="-192.86" x="139.1 149.18073 153.12596 156.97292 164.03504 171.09716 177.2186 184.28072 187.63628 194.6984 200.93216 204.77912 208.72435 212.5713 218.80507 222.65203 228.88579 233.56111 240.539 244.48424 247.99423 251.44806 255.3933 261.5147 268.5768 272.42378 276.369 280.3142 283.66978 290.73188 294.57884 298.42579 302.371 307.7764 314.8385 318.3485 325.28428 331.51805 335.02806 338.93116 345.0807 352.1428 355.98976 361.39515 368.45726 372.3042 376.24943 379.60499 386.66709 393.63093 397.47789 404.53999 410.04365 416.16508 420.1103 426.34407 431.01939 434.5294 440.63679 447.60063 451.54585 458.60795 464.72938 469.4047 473.25166 478.7553 485.8174">Olingan natijalarni  tahlil qilish va tegishli xulosalar chiqarish.</tspan></text>
</g>
<clipPath id="cp693">
<path transform="matrix(1,0,0,-1,0,841.92)" d="M .000008871 0 L 595.32 0 L 595.32 841.92 L .000008871 841.92 Z " fill-rule="evenodd"/>
</clipPath>
<g clip-path="url(#cp693)">
<text xml:space="preserve" transform="matrix(1 0 -0 1 0 841.92)" font-size="14.04" font-family="Times New Roman"><tspan y="-192.86" x="489.58"> </tspan></text>
</g>
<clipPath id="cp694">
<path transform="matrix(1,0,0,-1,0,841.92)" d="M .000008871 0 L 595.32 0 L 595.32 841.92 L .000008871 841.92 Z " fill-rule="evenodd"/>
</clipPath>
<g clip-path="url(#cp694)">
</g>
</g>
<g id="Layer-1" data-name="P">
<clipPath id="cp695">
<path transform="matrix(1,0,0,-1,0,841.92)" d="M .000008871 0 L 595.32 0 L 595.32 841.92 L .000008871 841.92 Z " fill-rule="evenodd"/>
</clipPath>
<g clip-path="url(#cp695)">
<text xml:space="preserve" transform="matrix(1 0 -0 1 0 841.92)" font-size="14.04" font-family="Times New Roman"><tspan y="-168.74" x="121.1 130.46468 134.40991 139.08524 142.93219 149.99431 156.11576 163.07959 167.02483 172.1775 179.23963 186.20346 191.70714 198.67098 202.61621 208.73766 215.70149 222.76361 228.99738 234.15006 241.11389 247.34766 252.02298 258.25675 262.216 268.44978 275.30128 282.36338 286.21034 293.27244 299.39387 306.45597 311.72099 315.56794 321.8017 326.47703 332.7108 339.5623 346.6244 353.58824 360.55207 364.49729 371.46113 378.52323 383.6759 390.738 396.97178 401.6471 407.7826 414.8447 421.07847 426.23115 433.19499 440.25709 445.66249 451.16615 457.3999 462.55259 469.6147 475.7361 480.8888 487.9509 494.91474 500.32014 507.38224 512.78768 516.7329 523.57046 529.8042 533.74948 537.6947 543.92849 548.49148 552.4367">Birinchi bosqichda qaralayotgan jarayonning barcha xossa va xususiyatlari </tspan></text>
</g>
<clipPath id="cp696">
<path transform="matrix(1,0,0,-1,0,841.92)" d="M .000008871 0 L 595.32 0 L 595.32 841.92 L .000008871 841.92 Z " fill-rule="evenodd"/>
</clipPath>
<g clip-path="url(#cp696)">
<text xml:space="preserve" transform="matrix(1 0 -0 1 0 841.92)" font-size="14.04" font-family="Times New Roman"><tspan y="-144.5" x="85.104 91.33775 98.30159 105.36371 112.327548 119.38966 124.06499 127.65923 134.72135 139.28435 143.95967 151.03585 157.15729 164.2194 168.06636 172.0116 175.85855 182.92067 186.43067 189.98278 197.04489 203.16634 207.84166 211.54822 215.49346 221.72722 226.40254 232.53803 237.21335 241.15859 247.39235 258.07679 264.31056 268.01713 271.96235 278.1961 285.15995 289.0069 292.95213 296.89735 300.47755 307.44139 311.3866 315.23356 319.0805 326.1426 332.26405 339.32615 343.27137 346.78138 350.45988 360.5406 366.77436 371.44969 377.58518 381.5304 387.76417 394.61567 401.67778 405.52473 412.58683 418.70826 425.77037 429.47694 433.32389 439.4453 444.12065 450.3544 457.2059 464.268 471.3301 478.29396 482.23918 489.203 496.2651">chuqur o&#x2018;rganilib, har taraflama tahlil qilinadi. Qaralayotgan jarayonning </tspan></text>
</g>
<clipPath id="cp697">
<path transform="matrix(1,0,0,-1,0,841.92)" d="M .000008871 0 L 595.32 0 L 595.32 841.92 L .000008871 841.92 Z " fill-rule="evenodd"/>
</clipPath>
<g clip-path="url(#cp697)">
<text xml:space="preserve" transform="matrix(1 0 -0 1 0 841.92)" font-size="14.04" font-family="Times New Roman"><tspan y="-144.5" x="500.38 504.32524 511.28907 515.2343 519.0813 524.4867 531.5488 538.5127 542.45797 549.2955 552.8757">iqtisodiy, </tspan></text>
</g>
<clipPath id="cp698">
<path transform="matrix(1,0,0,-1,0,841.92)" d="M .000008871 0 L 595.32 0 L 595.32 841.92 L .000008871 841.92 Z " fill-rule="evenodd"/>
</clipPath>
<g clip-path="url(#cp698)">
<text xml:space="preserve" transform="matrix(1 0 -0 1 0 841.92)" font-size="14.04" font-family="Times New Roman"><tspan y="-120.38" x="85.104 89.04924 92.8962 96.841449 100.78669 111.47113 118.53325 122.47849 129.31597">ijtimoiy,</tspan></text>
</g>
<clipPath id="cp699">
<path transform="matrix(1,0,0,-1,0,841.92)" d="M .000008871 0 L 595.32 0 L 595.32 841.92 L .000008871 841.92 Z " fill-rule="evenodd"/>
</clipPath>
<g clip-path="url(#cp699)">
<text xml:space="preserve" transform="matrix(1 0 -0 1 0 841.92)" font-size="14.04" font-family="Times New Roman"><tspan y="-120.38" x="132.86"> </tspan></text>
</g>
<clipPath id="cp700">
<path transform="matrix(1,0,0,-1,0,841.92)" d="M .000008871 0 L 595.32 0 L 595.32 841.92 L .000008871 841.92 Z " fill-rule="evenodd"/>
</clipPath>
<g clip-path="url(#cp700)">
<text xml:space="preserve" transform="matrix(1 0 -0 1 0 841.92)" font-size="14.04" font-family="Times New Roman"><tspan y="-120.38" x="143.9 154.58444 160.8182 167.89438 174.12815 181.20432 185.14955 192.21167 195.72167 206.4763 213.53842 217.38538 224.4475 228.29445 235.25829 242.3204 246.16736 253.22948 256.73948 267.62049 274.58433 280.81809 287.89424 298.57868 304.81245 308.75767 313.43299 317.27995 324.34205 327.6976 338.6067 344.84046 351.9166 358.88044 362.7274 369.7895 376.75334 380.60029 387.66239 398.57148 405.63359 411.86735 422.66413 429.72624 436.69007 442.09547 449.0593 456.1214 462.35517 473.26426 480.2281 487.19194 492.6956 498.19926 504.433 515.2298 522.29196 528.5257 539.2101 546.2722 552.506">mexanik, biologik, geometrik, ekologik va boshqa xossa hamda </tspan></text>
</g>
<clipPath id="cp701">
<path transform="matrix(1,0,0,-1,0,841.92)" d="M .000008871 0 L 595.32 0 L 595.32 841.92 L .000008871 841.92 Z " fill-rule="evenodd"/>
</clipPath>
<g clip-path="url(#cp701)">
<text xml:space="preserve" transform="matrix(1 0 -0 1 0 841.92)" font-size="14.04" font-family="Times New Roman"><tspan y="-96.264" x="85.104 92.166118 99.12995 104.535358 111.59747 117.00288 120.94812 127.7856 134.01937 137.9646 141.90984 148.1436 152.7066 156.65184 163.61568 167.56092 172.7136 176.65883 181.22183 188.18567 195.24779 201.36923 205.21619 212.2783 219.24214 225.4759 232.43975 236.38498 241.53766 248.59978 254.72122 259.39656 265.6303 276.31477 282.54853 286.49375 291.16908 295.1143 301.34806 306.02339 311.17607 318.23817 322.80116 329.0349 334.5526 338.39958 345.46168 351.5831 358.54695 362.49217 367.64485 374.60868 381.67079 388.73289 393.29588 397.2411 403.36253 410.42463 414.27159 419.67698 426.73908 430.6843 436.80574 441.3687 446.5214 452.75517 459.8313 463.67826 470.74037 474.5873 480.82109 487.7849 494.01869 500.9825 504.92774 508.43775 513.54837 523.6291 529.13278 536.0966 541.502 545.44729 552.41116">xususiyatlarini ifodalovchi parametrlar orasidagi bog&#x2018;lanishlar aniqlanadi. Asosiy </tspan></text>
</g>
<clipPath id="cp702">
<path transform="matrix(1,0,0,-1,0,841.92)" d="M .000008871 0 L 595.32 0 L 595.32 841.92 L .000008871 841.92 Z " fill-rule="evenodd"/>
</clipPath>
<g clip-path="url(#cp702)">
<text xml:space="preserve" transform="matrix(1 0 -0 1 0 841.92)" font-size="14.04" font-family="Times New Roman"><tspan y="-72.144" x="85.104 92.166118 98.39987 103.075199 109.30895 120.00743 126.24119 130.18642 134.86174 138.80698 145.04074 149.60375 156.56758 160.51282 167.47666 174.53878 178.04877 181.8536 188.08737 192.7627 198.99646 205.84798 212.9101 219.87393 226.93605 233.16982 236.53942 240.48465 246.71842 251.28142 256.7851 260.73033 265.40565 268.77525 275.83735 282.0711 286.74644 292.9802 296.8412 302.96263 306.90785 313.1416 317.7046 321.6498 325.00538 331.23915 338.31529 342.16224 349.12608 353.0713 359.19273 366.25483 372.4886 379.45243 383.39765">parametrlarning jarayonga ta&#x2019;sir darajalari aniqlanadi.</tspan></text>
</g>
<clipPath id="cp703">
<path transform="matrix(1,0,0,-1,0,841.92)" d="M .000008871 0 L 595.32 0 L 595.32 841.92 L .000008871 841.92 Z " fill-rule="evenodd"/>
</clipPath>
<g clip-path="url(#cp703)">
<text xml:space="preserve" transform="matrix(1 0 -0 1 0 841.92)" font-size="14.04" font-family="Times New Roman"><tspan y="-72.144" x="387.07"> </tspan></text>
</g>
</g>
</g>
</g>
</svg>
