<?xml version="1.0" encoding="UTF-8" standalone="no"?>
<!DOCTYPE svg PUBLIC "-//W3C//DTD SVG 1.1//EN" "http://www.w3.org/Graphics/SVG/1.1/DTD/svg11.dtd">
<svg xmlns="http://www.w3.org/2000/svg" xmlns:xlink="http://www.w3.org/1999/xlink" version="1.1" width="595.32pt" height="841.92pt" viewBox="0 0 595.32 841.92">
<g enable-background="new">
<g>
<g id="Layer-1" data-name="Artifact">
<clipPath id="cp10052">
<path transform="matrix(1,0,0,-1,0,841.92)" d="M .000008871 0 L 595.32 0 L 595.32 841.92 L .000008871 841.92 Z " fill-rule="evenodd"/>
</clipPath>
<g clip-path="url(#cp10052)">
<text xml:space="preserve" transform="matrix(1 0 -0 1 0 841.92)" font-size="11.04" font-family="Calibri"><tspan y="-51.864" x="316.87 322.50999">70</tspan></text>
</g>
<clipPath id="cp10053">
<path transform="matrix(1,0,0,-1,0,841.92)" d="M .000008871 0 L 595.32 0 L 595.32 841.92 L .000008871 841.92 Z " fill-rule="evenodd"/>
</clipPath>
<g clip-path="url(#cp10053)">
<text xml:space="preserve" transform="matrix(1 0 -0 1 0 841.92)" font-size="11.04" font-family="Calibri"><tspan y="-51.864" x="328.15"> </tspan></text>
</g>
<clipPath id="cp10054">
<path transform="matrix(1,0,0,-1,0,841.92)" d="M .000008871 0 L 595.32 0 L 595.32 841.92 L .000008871 841.92 Z " fill-rule="evenodd"/>
</clipPath>
<g clip-path="url(#cp10054)">
</g>
<clipPath id="cp10055">
<path transform="matrix(1,0,0,-1,0,841.92)" d="M .000008871 0 L 595.32 0 L 595.32 841.92 L .000008871 841.92 Z " fill-rule="evenodd"/>
</clipPath>
<g clip-path="url(#cp10055)">
<text xml:space="preserve" transform="matrix(1 0 -0 1 0 841.92)" font-size="11.04" font-family="Calibri"><tspan y="-38.4" x="85.104"> </tspan></text>
</g>
<clipPath id="cp10056">
<path transform="matrix(1,0,0,-1,0,841.92)" d="M .000008871 0 L 595.32 0 L 595.32 841.92 L .000008871 841.92 Z " fill-rule="evenodd"/>
</clipPath>
<g clip-path="url(#cp10056)">
</g>
</g>
<g id="Layer-1" data-name="P">
<clipPath id="cp10057">
<path transform="matrix(1,0,0,-1,0,841.92)" d="M .000008871 0 L 595.32 0 L 595.32 841.92 L .000008871 841.92 Z " fill-rule="evenodd"/>
</clipPath>
<g clip-path="url(#cp10057)">
<text xml:space="preserve" transform="matrix(1 0 -0 1 0 841.92)" font-size="14.04" font-family="Times New Roman,Italic" font-style="italic"><tspan y="-772.56" x="85.104 89.77932 98.3016 104.535358 110.05308 117.1152 127.195919 133.42967 138.456 148.41036 153.91403 157.76099 164.72483 170.2285 174.07546 177.92241 185.72866 192.79077 198.19617 205.16 212.22212 222.30284 228.5366 235.50045 239.44568 244.85108 248.79631 253.47164">(Rezume Ustasi/Yordamchisi) </tspan></text>
</g>
<clipPath id="cp10058">
<path transform="matrix(1,0,0,-1,0,841.92)" d="M .000008871 0 L 595.32 0 L 595.32 841.92 L .000008871 841.92 Z " fill-rule="evenodd"/>
</clipPath>
<g clip-path="url(#cp10058)">
<text xml:space="preserve" transform="matrix(1 0 -0 1 0 841.92)" font-size="14.04" font-family="Times New Roman"><tspan y="-772.56" x="258.53 265.5921 271.71354 278.77565 283.80198 288.36497 295.42707 302.26454 309.32664 315.5604 319.5056 325.62705 332.68916 339.65299 345.88676 352.9629 357.86286 364.8267 371.8888 375.73576 382.79786 389.03163 393.94563 401.00773 405.5707 412.6328 417.30815 423.42958 428.93324 434.33863 438.28385 445.24769 452.30979 458.54356 462.3905 467.41685 471.2638 476.76747 483.7313 489.96507 496.9289 500.8741 505.77409 512.8362 519.06997 522.91696 526.8622 533.09597 537.65896 541.6042 546.50418 553.468 559.5895">dan foydalangan holda professional ishchi xatlari va </tspan></text>
</g>
<clipPath id="cp10059">
<path transform="matrix(1,0,0,-1,0,841.92)" d="M .000008871 0 L 595.32 0 L 595.32 841.92 L .000008871 841.92 Z " fill-rule="evenodd"/>
</clipPath>
<g clip-path="url(#cp10059)">
</g>
<clipPath id="cp10060">
<path transform="matrix(1,0,0,-1,0,841.92)" d="M .000008871 0 L 595.32 0 L 595.32 841.92 L .000008871 841.92 Z " fill-rule="evenodd"/>
</clipPath>
<g clip-path="url(#cp10060)">
<text xml:space="preserve" transform="matrix(1 0 -0 1 0 841.92)" font-size="14.04" font-family="Times New Roman"><tspan y="-748.3" x="85.104 89.77932 96.01308 102.24683 109.32299 120.00743 126.24119 130.18642 136.42018 141.0955 144.6055 148.50862 154.77046 161.60794 168.44542 175.50754 180.18286 184.1281 190.36186 195.8796 202.84343 206.69039 217.37483 221.32007 227.55384 231.14807 241.83252 249.02101 259.70545 266.76756 270.71278 277.77488 281.28489 284.73875 292.54499 299.6071 304.2824 314.96687 321.20063 325.14585 329.09107 335.32484 340.84254 347.80638 354.7702 358.71543 365.67927 372.74137 376.25138 382.34474 387.8484 394.81224 400.21763 404.16285 411.0003 414.5103 420.74409 426.20564 433.30986 439.5436 446.50746 450.3544 454.29963 460.5334 465.09638 469.0416 472.5516 479.48738 486.54948 490.05949 496.99525 504.05735 510.8948 514.84 521.90219 528.0236 535.08578 538.93276 542.878 549.11178 553.67477">rezumelar tayyorlashimiz mumkin. Formatlashning asosiy aspektlari bu quyidagilar:</tspan></text>
</g>
<clipPath id="cp10061">
<path transform="matrix(1,0,0,-1,0,841.92)" d="M .000008871 0 L 595.32 0 L 595.32 841.92 L .000008871 841.92 Z " fill-rule="evenodd"/>
</clipPath>
<g clip-path="url(#cp10061)">
<text xml:space="preserve" transform="matrix(1 0 -0 1 0 841.92)" font-size="14.04" font-family="Times New Roman"><tspan y="-748.3" x="557.98"> </tspan></text>
</g>
<clipPath id="cp10062">
<path transform="matrix(1,0,0,-1,0,841.92)" d="M .000008871 0 L 595.32 0 L 595.32 841.92 L .000008871 841.92 Z " fill-rule="evenodd"/>
</clipPath>
<g clip-path="url(#cp10062)">
</g>
</g>
<g id="Layer-1" data-name="P">
<clipPath id="cp10063">
<path transform="matrix(1,0,0,-1,0,841.92)" d="M .000008871 0 L 595.32 0 L 595.32 841.92 L .000008871 841.92 Z " fill-rule="evenodd"/>
</clipPath>
<g clip-path="url(#cp10063)">
<text xml:space="preserve" transform="matrix(1 0 -0 1 0 841.92)" font-size="14.04" font-family="Times New Roman,Bold" font-weight="bold"><tspan y="-724.18" x="120.5 127.58">1.</tspan></text>
</g>
<clipPath id="cp10064">
<path transform="matrix(1,0,0,-1,0,841.92)" d="M .000008871 0 L 595.32 0 L 595.32 841.92 L .000008871 841.92 Z " fill-rule="evenodd"/>
</clipPath>
<g clip-path="url(#cp10064)">
<text xml:space="preserve" transform="matrix(1 0 -0 1 0 841.92)" font-size="14.04" font-family="Arial,Bold" font-weight="bold"><tspan y="-724.18" x="131.06"> </tspan></text>
</g>
<clipPath id="cp10065">
<path transform="matrix(1,0,0,-1,0,841.92)" d="M .000008871 0 L 595.32 0 L 595.32 841.92 L .000008871 841.92 Z " fill-rule="evenodd"/>
</clipPath>
<g clip-path="url(#cp10065)">
<text xml:space="preserve" transform="matrix(1 0 -0 1 0 841.92)" font-size="14.04" font-family="Times New Roman,Bold" font-weight="bold"><tspan y="-724.18" x="141.74 151.82073 159.62697 165.86074 172.92285 179.88669 186.12046 193.08429 196.93125 203.99337 210.22713">Chegaralar:</tspan></text>
</g>
<clipPath id="cp10066">
<path transform="matrix(1,0,0,-1,0,841.92)" d="M .000008871 0 L 595.32 0 L 595.32 841.92 L .000008871 841.92 Z " fill-rule="evenodd"/>
</clipPath>
<g clip-path="url(#cp10066)">
<text xml:space="preserve" transform="matrix(1 0 -0 1 0 841.92)" font-size="14.04" font-family="Times New Roman,Italic" font-style="italic"><tspan y="-724.18" x="214.97"> </tspan></text>
</g>
<clipPath id="cp10067">
<path transform="matrix(1,0,0,-1,0,841.92)" d="M .000008871 0 L 595.32 0 L 595.32 841.92 L .000008871 841.92 Z " fill-rule="evenodd"/>
</clipPath>
<g clip-path="url(#cp10067)">
<text xml:space="preserve" transform="matrix(1 0 -0 1 0 841.92)" font-size="14.04" font-family="Times New Roman"><tspan y="-724.18" x="221.93 231.29468 238.3568 245.3066 255.99103 262.33714 266.28236 273.34446 280.29426 287.2581 293.49186 298.16719 305.14506">Bu matn varog</tspan></text>
</g>
<clipPath id="cp10068">
<path transform="matrix(1,0,0,-1,0,841.92)" d="M .000008871 0 L 595.32 0 L 595.32 841.92 L .000008871 841.92 Z " fill-rule="evenodd"/>
</clipPath>
<g clip-path="url(#cp10068)">
<text xml:space="preserve" transform="matrix(1 0 -0 1 0 841.92)" font-size="14.04" font-family="Times New Roman"><tspan y="-724.18" x="312.29">&#x2019;</tspan></text>
</g>
<clipPath id="cp10069">
<path transform="matrix(1,0,0,-1,0,841.92)" d="M .000008871 0 L 595.32 0 L 595.32 841.92 L .000008871 841.92 Z " fill-rule="evenodd"/>
</clipPath>
<g clip-path="url(#cp10069)">
<text xml:space="preserve" transform="matrix(1 0 -0 1 0 841.92)" font-size="14.04" font-family="Times New Roman"><tspan y="-724.18" x="316.87 320.81523 327.77906 331.626 338.6881 345.7502 352.7 359.76213 366.7119 370.55888 376.79264 381.35563 387.5894 392.2647 396.11167 403.17378 409.40754 416.37138 420.3166 427.2664 434.23023 441.29234 448.24214 455.20597">ining 4 tarafidagi oq bo</tspan></text>
</g>
<clipPath id="cp10070">
<path transform="matrix(1,0,0,-1,0,841.92)" d="M .000008871 0 L 595.32 0 L 595.32 841.92 L .000008871 841.92 Z " fill-rule="evenodd"/>
</clipPath>
<g clip-path="url(#cp10070)">
<text xml:space="preserve" transform="matrix(1 0 -0 1 0 841.92)" font-size="14.04" font-family="Times New Roman"><tspan y="-724.18" x="462.46">&#x2019;</tspan></text>
</g>
<clipPath id="cp10071">
<path transform="matrix(1,0,0,-1,0,841.92)" d="M .000008871 0 L 595.32 0 L 595.32 841.92 L .000008871 841.92 Z " fill-rule="evenodd"/>
</clipPath>
<g clip-path="url(#cp10071)">
<text xml:space="preserve" transform="matrix(1 0 -0 1 0 841.92)" font-size="14.04" font-family="Times New Roman"><tspan y="-724.18" x="467.02 472.52366 479.4875 483.4327 487.27967 494.34178 498.18873 504.4225 509.0978 516.0757 520.02096 524.6962 528.20626 535.128 545.20877 549.154 555.38778 559.95077">shliqlardir. Ular </tspan></text>
</g>
<clipPath id="cp10072">
<path transform="matrix(1,0,0,-1,0,841.92)" d="M .000008871 0 L 595.32 0 L 595.32 841.92 L .000008871 841.92 Z " fill-rule="evenodd"/>
</clipPath>
<g clip-path="url(#cp10072)">
</g>
<clipPath id="cp10073">
<path transform="matrix(1,0,0,-1,0,841.92)" d="M .000008871 0 L 595.32 0 L 595.32 841.92 L .000008871 841.92 Z " fill-rule="evenodd"/>
</clipPath>
<g clip-path="url(#cp10073)">
<text xml:space="preserve" transform="matrix(1 0 -0 1 0 841.92)" font-size="14.04" font-family="Times New Roman"><tspan y="-700.06" x="85.104 95.90076 102.134517 106.07976 113.14188 120.10571 124.05096 127.56096 133.65433 140.71645 146.83789 153.90001 160.13378 164.8091 171.04286 174.4265 181.48862 185.33557 189.2808 195.40225 202.46437 205.97437 216.74306 222.97682 228.49456 235.55667 240.232 246.35344 251.85712 255.70407 262.76618 266.7114 270.06697">matnni chegara bilan masofasini o</tspan></text>
</g>
<clipPath id="cp10074">
<path transform="matrix(1,0,0,-1,0,841.92)" d="M .000008871 0 L 595.32 0 L 595.32 841.92 L .000008871 841.92 Z " fill-rule="evenodd"/>
</clipPath>
<g clip-path="url(#cp10074)">
<text xml:space="preserve" transform="matrix(1 0 -0 1 0 841.92)" font-size="14.04" font-family="Times New Roman"><tspan y="-700.06" x="277.37">&#x2019;</tspan></text>
</g>
<clipPath id="cp10075">
<path transform="matrix(1,0,0,-1,0,841.92)" d="M .000008871 0 L 595.32 0 L 595.32 841.92 L .000008871 841.92 Z " fill-rule="evenodd"/>
</clipPath>
<g clip-path="url(#cp10075)">
<text xml:space="preserve" transform="matrix(1 0 -0 1 0 841.92)" font-size="14.04" font-family="Times New Roman"><tspan y="-700.06" x="281.93 288.16377 295.2399 301.47367 306.03666 309.8836 313.82884 318.50416 325.468 331.70176 338.7779 342.2879 349.22367 356.1875 360.13273 367.19483 373.4286 376.7982 383.76203 390.82414 394.67109 398.51805 404.7518 408.69703 415.75914 421.9929 425.3625 429.3077 435.42915 440.9328 447.89665 454.95875 458.90397 462.41398 468.50733 475.47117 479.41639 484.0917 491.16786 498.0053 501.51533 508.5353 514.76907 519.44436 525.6079 532.67007 536.6153">zgartirgan holda hujjatga tashqi chiroy beradi.</tspan></text>
</g>
<clipPath id="cp10076">
<path transform="matrix(1,0,0,-1,0,841.92)" d="M .000008871 0 L 595.32 0 L 595.32 841.92 L .000008871 841.92 Z " fill-rule="evenodd"/>
</clipPath>
<g clip-path="url(#cp10076)">
<text xml:space="preserve" transform="matrix(1 0 -0 1 0 841.92)" font-size="14.04" font-family="Times New Roman"><tspan y="-700.06" x="540.22"> </tspan></text>
</g>
<clipPath id="cp10077">
<path transform="matrix(1,0,0,-1,0,841.92)" d="M .000008871 0 L 595.32 0 L 595.32 841.92 L .000008871 841.92 Z " fill-rule="evenodd"/>
</clipPath>
<g clip-path="url(#cp10077)">
</g>
</g>
<g id="Layer-1" data-name="P">
<clipPath id="cp10078">
<path transform="matrix(1,0,0,-1,0,841.92)" d="M .000008871 0 L 595.32 0 L 595.32 841.92 L .000008871 841.92 Z " fill-rule="evenodd"/>
</clipPath>
<g clip-path="url(#cp10078)">
<text xml:space="preserve" transform="matrix(1 0 -0 1 0 841.92)" font-size="14.04" font-family="Times New Roman,Bold" font-weight="bold"><tspan y="-675.94" x="120.5 127.58">2.</tspan></text>
</g>
<clipPath id="cp10079">
<path transform="matrix(1,0,0,-1,0,841.92)" d="M .000008871 0 L 595.32 0 L 595.32 841.92 L .000008871 841.92 Z " fill-rule="evenodd"/>
</clipPath>
<g clip-path="url(#cp10079)">
<text xml:space="preserve" transform="matrix(1 0 -0 1 0 841.92)" font-size="14.04" font-family="Arial,Bold" font-weight="bold"><tspan y="-675.94" x="131.06"> </tspan></text>
</g>
<clipPath id="cp10080">
<path transform="matrix(1,0,0,-1,0,841.92)" d="M .000008871 0 L 595.32 0 L 595.32 841.92 L .000008871 841.92 Z " fill-rule="evenodd"/>
</clipPath>
<g clip-path="url(#cp10080)">
<text xml:space="preserve" transform="matrix(1 0 -0 1 0 841.92)" font-size="14.04" font-family="Times New Roman,Bold" font-weight="bold"><tspan y="-675.94" x="141.74 151.82073 159.62697 167.43321 174.4813 180.71506 184.56201 191.52585 195.47109 204.09165 211.05548 218.1176 226.73816 234.41805 241.38188 246.88556 251.56089 259.12846 263.20005 271.94697 279.5005 286.5626 290.5078 297.56993 305.37617 309.9251 313.87034 318.54566 326.22554 330.17076">Yuqorigi va pastki kolontitul:</tspan></text>
</g>
<clipPath id="cp10081">
<path transform="matrix(1,0,0,-1,0,841.92)" d="M .000008871 0 L 595.32 0 L 595.32 841.92 L .000008871 841.92 Z " fill-rule="evenodd"/>
</clipPath>
<g clip-path="url(#cp10081)">
<text xml:space="preserve" transform="matrix(1 0 -0 1 0 841.92)" font-size="14.04" font-family="Times New Roman,Italic" font-style="italic"><tspan y="-675.94" x="335.11"> </tspan></text>
</g>
<clipPath id="cp10082">
<path transform="matrix(1,0,0,-1,0,841.92)" d="M .000008871 0 L 595.32 0 L 595.32 841.92 L .000008871 841.92 Z " fill-rule="evenodd"/>
</clipPath>
<g clip-path="url(#cp10082)">
<text xml:space="preserve" transform="matrix(1 0 -0 1 0 841.92)" font-size="14.04" font-family="Times New Roman"><tspan y="-675.94" x="343.75 353.83073 357.67768 363.91145 368.58677 377.10905 387.9058 394.13957 398.08479 405.14689 412.11073 415.95768 423.01979 430.08189 438.59013 445.55397">Ular matnning bo</tspan></text>
</g>
<clipPath id="cp10083">
<path transform="matrix(1,0,0,-1,0,841.92)" d="M .000008871 0 L 595.32 0 L 595.32 841.92 L .000008871 841.92 Z " fill-rule="evenodd"/>
</clipPath>
<g clip-path="url(#cp10083)">
<text xml:space="preserve" transform="matrix(1 0 -0 1 0 841.92)" font-size="14.04" font-family="Times New Roman"><tspan y="-675.94" x="452.74">&#x2019;</tspan></text>
</g>
<clipPath id="cp10084">
<path transform="matrix(1,0,0,-1,0,841.92)" d="M .000008871 0 L 595.32 0 L 595.32 841.92 L .000008871 841.92 Z " fill-rule="evenodd"/>
</clipPath>
<g clip-path="url(#cp10084)">
<text xml:space="preserve" transform="matrix(1 0 -0 1 0 841.92)" font-size="14.04" font-family="Times New Roman"><tspan y="-675.94" x="457.3 461.2452 465.19044 475.87489 479.8201 483.3301 491.9226 497.42628 503.66004 510.73619 514.5831 519.2584 525.4922 530.8976 534.84286 538.35287 546.833 553.7969 559.91836">limi, sahifasi, va </tspan></text>
</g>
<clipPath id="cp10085">
<path transform="matrix(1,0,0,-1,0,841.92)" d="M .000008871 0 L 595.32 0 L 595.32 841.92 L .000008871 841.92 Z " fill-rule="evenodd"/>
</clipPath>
<g clip-path="url(#cp10085)">
</g>
<clipPath id="cp10086">
<path transform="matrix(1,0,0,-1,0,841.92)" d="M .000008871 0 L 595.32 0 L 595.32 841.92 L .000008871 841.92 Z " fill-rule="evenodd"/>
</clipPath>
<g clip-path="url(#cp10086)">
<text xml:space="preserve" transform="matrix(1 0 -0 1 0 841.92)" font-size="14.04" font-family="Times New Roman"><tspan y="-651.7" x="85.104 92.166118 99.12995 104.535358 111.59747 118.65959 124.89335 128.26296 135.32508 141.55884 146.12184 152.3556 159.31945 163.26468 167.20992 170.56548 177.52931">boshqa kerakli bo</tspan></text>
</g>
<clipPath id="cp10087">
<path transform="matrix(1,0,0,-1,0,841.92)" d="M .000008871 0 L 595.32 0 L 595.32 841.92 L .000008871 841.92 Z " fill-rule="evenodd"/>
</clipPath>
<g clip-path="url(#cp10087)">
<text xml:space="preserve" transform="matrix(1 0 -0 1 0 841.92)" font-size="14.04" font-family="Times New Roman"><tspan y="-651.7" x="184.7">&#x2019;</tspan></text>
</g>
<clipPath id="cp10088">
<path transform="matrix(1,0,0,-1,0,841.92)" d="M .000008871 0 L 595.32 0 L 595.32 841.92 L .000008871 841.92 Z " fill-rule="evenodd"/>
</clipPath>
<g clip-path="url(#cp10088)">
<text xml:space="preserve" transform="matrix(1 0 -0 1 0 841.92)" font-size="14.04" font-family="Times New Roman"><tspan y="-651.7" x="189.29 193.23523 200.29735 206.4188 213.48091 216.9909 227.64728">lgan ma</tspan></text>
</g>
<clipPath id="cp10089">
<path transform="matrix(1,0,0,-1,0,841.92)" d="M .000008871 0 L 595.32 0 L 595.32 841.92 L .000008871 841.92 Z " fill-rule="evenodd"/>
</clipPath>
<g clip-path="url(#cp10089)">
<text xml:space="preserve" transform="matrix(1 0 -0 1 0 841.92)" font-size="14.04" font-family="Times New Roman"><tspan y="-651.7" x="234.05">&#x2019;</tspan></text>
</g>
<clipPath id="cp10090">
<path transform="matrix(1,0,0,-1,0,841.92)" d="M .000008871 0 L 595.32 0 L 595.32 841.92 L .000008871 841.92 Z " fill-rule="evenodd"/>
</clipPath>
<g clip-path="url(#cp10090)">
<text xml:space="preserve" transform="matrix(1 0 -0 1 0 841.92)" font-size="14.04" font-family="Times New Roman"><tspan y="-651.7" x="238.61 242.55524 249.61736 260.3018 267.3639 271.3091 275.25434 281.4881 286.16343 293.1413 297.08653 300.59654 304.40138">lumotlarni ta</tspan></text>
</g>
<clipPath id="cp10091">
<path transform="matrix(1,0,0,-1,0,841.92)" d="M .000008871 0 L 595.32 0 L 595.32 841.92 L .000008871 841.92 Z " fill-rule="evenodd"/>
</clipPath>
<g clip-path="url(#cp10091)">
<text xml:space="preserve" transform="matrix(1 0 -0 1 0 841.92)" font-size="14.04" font-family="Times New Roman"><tspan y="-651.7" x="310.73">&#x2019;</tspan></text>
</g>
<clipPath id="cp10092">
<path transform="matrix(1,0,0,-1,0,841.92)" d="M .000008871 0 L 595.32 0 L 595.32 841.92 L .000008871 841.92 Z " fill-rule="evenodd"/>
</clipPath>
<g clip-path="url(#cp10092)">
<text xml:space="preserve" transform="matrix(1 0 -0 1 0 841.92)" font-size="14.04" font-family="Times New Roman"><tspan y="-651.7" x="315.43 326.22676 330.17198 337.1358 341.08103 347.3148 354.1663 361.2284 365.1736">minlaydi.</tspan></text>
</g>
<clipPath id="cp10093">
<path transform="matrix(1,0,0,-1,0,841.92)" d="M .000008871 0 L 595.32 0 L 595.32 841.92 L .000008871 841.92 Z " fill-rule="evenodd"/>
</clipPath>
<g clip-path="url(#cp10093)">
<text xml:space="preserve" transform="matrix(1 0 -0 1 0 841.92)" font-size="14.04" font-family="Times New Roman"><tspan y="-651.7" x="368.59"> </tspan></text>
</g>
<clipPath id="cp10094">
<path transform="matrix(1,0,0,-1,0,841.92)" d="M .000008871 0 L 595.32 0 L 595.32 841.92 L .000008871 841.92 Z " fill-rule="evenodd"/>
</clipPath>
<g clip-path="url(#cp10094)">
</g>
</g>
<g id="Layer-1" data-name="P">
<clipPath id="cp10095">
<path transform="matrix(1,0,0,-1,0,841.92)" d="M .000008871 0 L 595.32 0 L 595.32 841.92 L .000008871 841.92 Z " fill-rule="evenodd"/>
</clipPath>
<g clip-path="url(#cp10095)">
<text xml:space="preserve" transform="matrix(1 0 -0 1 0 841.92)" font-size="14.04" font-family="Times New Roman,Bold" font-weight="bold"><tspan y="-627.58" x="120.5 127.58">3.</tspan></text>
</g>
<clipPath id="cp10096">
<path transform="matrix(1,0,0,-1,0,841.92)" d="M .000008871 0 L 595.32 0 L 595.32 841.92 L .000008871 841.92 Z " fill-rule="evenodd"/>
</clipPath>
<g clip-path="url(#cp10096)">
<text xml:space="preserve" transform="matrix(1 0 -0 1 0 841.92)" font-size="14.04" font-family="Arial,Bold" font-weight="bold"><tspan y="-627.58" x="131.06"> </tspan></text>
</g>
<clipPath id="cp10097">
<path transform="matrix(1,0,0,-1,0,841.92)" d="M .000008871 0 L 595.32 0 L 595.32 841.92 L .000008871 841.92 Z " fill-rule="evenodd"/>
</clipPath>
<g clip-path="url(#cp10097)">
<text xml:space="preserve" transform="matrix(1 0 -0 1 0 841.92)" font-size="14.04" font-family="Times New Roman,Bold" font-weight="bold"><tspan y="-627.58" x="141.74 151.82073 158.88285 166.68909 173.7512 185.27805 189.22328 196.2854 202.40685">Raqamlar:</tspan></text>
</g>
<clipPath id="cp10098">
<path transform="matrix(1,0,0,-1,0,841.92)" d="M .000008871 0 L 595.32 0 L 595.32 841.92 L .000008871 841.92 Z " fill-rule="evenodd"/>
</clipPath>
<g clip-path="url(#cp10098)">
<text xml:space="preserve" transform="matrix(1 0 -0 1 0 841.92)" font-size="14.04" font-family="Times New Roman,Italic" font-style="italic"><tspan y="-627.58" x="207.17"> </tspan></text>
</g>
<clipPath id="cp10099">
<path transform="matrix(1,0,0,-1,0,841.92)" d="M .000008871 0 L 595.32 0 L 595.32 841.92 L .000008871 841.92 Z " fill-rule="evenodd"/>
</clipPath>
<g clip-path="url(#cp10099)">
<text xml:space="preserve" transform="matrix(1 0 -0 1 0 841.92)" font-size="14.04" font-family="Times New Roman"><tspan y="-627.58" x="211.61 221.69072 225.63596 231.86972 236.54505 240.98168 251.66613 257.89988 261.8451 268.9072 275.87104 282.1048 289.06864 293.01387 297.32417 304.38627 310.62004 315.29536 319.60566 326.66777 330.5147 334.45994 338.88255 343.44554">Ular matndagi har xil ro</tspan></text>
</g>
<clipPath id="cp10100">
<path transform="matrix(1,0,0,-1,0,841.92)" d="M .000008871 0 L 595.32 0 L 595.32 841.92 L .000008871 841.92 Z " fill-rule="evenodd"/>
</clipPath>
<g clip-path="url(#cp10100)">
<text xml:space="preserve" transform="matrix(1 0 -0 1 0 841.92)" font-size="14.04" font-family="Times New Roman"><tspan y="-627.58" x="350.71">&#x2019;</tspan></text>
</g>
<clipPath id="cp10101">
<path transform="matrix(1,0,0,-1,0,841.92)" d="M .000008871 0 L 595.32 0 L 595.32 841.92 L .000008871 841.92 Z " fill-rule="evenodd"/>
</clipPath>
<g clip-path="url(#cp10101)">
<text xml:space="preserve" transform="matrix(1 0 -0 1 0 841.92)" font-size="14.04" font-family="Times New Roman"><tspan y="-627.58" x="355.27 362.10746 369.16957 375.40333">yhat</tspan></text>
</g>
<clipPath id="cp10102">
<path transform="matrix(1,0,0,-1,0,841.92)" d="M .000008871 0 L 595.32 0 L 595.32 841.92 L .000008871 841.92 Z " fill-rule="evenodd"/>
</clipPath>
<g clip-path="url(#cp10102)">
<text xml:space="preserve" transform="matrix(1 0 -0 1 0 841.92)" font-size="14.04" font-family="Times New Roman"><tspan y="-627.58" x="379.39 383.23698 389.47074 394.14607 398.5827 402.42967 409.49177 415.72554 419.57249 423.5177 429.75148 436.60298 443.66508 447.51203 454.57414 460.69557 467.75767 471.6046 478.66673 484.90049 489.33714 493.90013 500.02156 507.08366 513.3174 524.0018 527.947 534.1808 539.6985 546.66238 553.7245 559.84597">lar tuzilayotganida raqamlashda </tspan></text>
</g>
<clipPath id="cp10103">
<path transform="matrix(1,0,0,-1,0,841.92)" d="M .000008871 0 L 595.32 0 L 595.32 841.92 L .000008871 841.92 Z " fill-rule="evenodd"/>
</clipPath>
<g clip-path="url(#cp10103)">
</g>
<clipPath id="cp10104">
<path transform="matrix(1,0,0,-1,0,841.92)" d="M .000008871 0 L 595.32 0 L 595.32 841.92 L .000008871 841.92 Z " fill-rule="evenodd"/>
</clipPath>
<g clip-path="url(#cp10104)">
<text xml:space="preserve" transform="matrix(1 0 -0 1 0 841.92)" font-size="14.04" font-family="Times New Roman"><tspan y="-603.46" x="85.104 91.941478 99.00359 103.67892 110.75507 116.98883 127.79963 131.30963 138.32964 144.5634 149.23873 155.50057 162.4644 166.40964 169.91963 176.8554 183.08916 186.59915 192.83292 199.76868 203.61563 210.67775 221.3622 227.59597 231.5412 235.48644 242.54856 246.05855 249.86339 256.09715 260.77247 266.90797 273.97007 280.20384 283.71385 289.8072 296.8693 300.71626 307.77836 314.01213 318.5751 322.42207 326.36729 330.21424 337.27635 340.78636 344.5912 351.6533 356.3286 362.45005 369.41389 373.3591 376.8691">yordam beradi va avtomatik tarzda chiqarilib turadi. </tspan></text>
</g>
<clipPath id="cp10105">
<path transform="matrix(1,0,0,-1,0,841.92)" d="M .000008871 0 L 595.32 0 L 595.32 841.92 L .000008871 841.92 Z " fill-rule="evenodd"/>
</clipPath>
<g clip-path="url(#cp10105)">
<text xml:space="preserve" transform="matrix(1 0 -0 1 0 841.92)" font-size="14.04" font-family="Times New Roman"><tspan y="-603.46" x="380.59"> </tspan></text>
</g>
<clipPath id="cp10106">
<path transform="matrix(1,0,0,-1,0,841.92)" d="M .000008871 0 L 595.32 0 L 595.32 841.92 L .000008871 841.92 Z " fill-rule="evenodd"/>
</clipPath>
<g clip-path="url(#cp10106)">
</g>
</g>
<g id="Layer-1" data-name="P">
<clipPath id="cp10107">
<path transform="matrix(1,0,0,-1,0,841.92)" d="M .000008871 0 L 595.32 0 L 595.32 841.92 L .000008871 841.92 Z " fill-rule="evenodd"/>
</clipPath>
<g clip-path="url(#cp10107)">
<text xml:space="preserve" transform="matrix(1 0 -0 1 0 841.92)" font-size="14.04" font-family="Times New Roman,Bold" font-weight="bold"><tspan y="-579.34" x="120.5 127.58">4.</tspan></text>
</g>
<clipPath id="cp10108">
<path transform="matrix(1,0,0,-1,0,841.92)" d="M .000008871 0 L 595.32 0 L 595.32 841.92 L .000008871 841.92 Z " fill-rule="evenodd"/>
</clipPath>
<g clip-path="url(#cp10108)">
<text xml:space="preserve" transform="matrix(1 0 -0 1 0 841.92)" font-size="14.04" font-family="Arial,Bold" font-weight="bold"><tspan y="-579.34" x="131.06"> </tspan></text>
</g>
<clipPath id="cp10109">
<path transform="matrix(1,0,0,-1,0,841.92)" d="M .000008871 0 L 595.32 0 L 595.32 841.92 L .000008871 841.92 Z " fill-rule="evenodd"/>
</clipPath>
<g clip-path="url(#cp10109)">
<text xml:space="preserve" transform="matrix(1 0 -0 1 0 841.92)" font-size="14.04" font-family="Times New Roman,Bold" font-weight="bold"><tspan y="-579.34" x="141.74 151.81999">Ro</tspan></text>
</g>
<clipPath id="cp10110">
<path transform="matrix(1,0,0,-1,0,841.92)" d="M .000008871 0 L 595.32 0 L 595.32 841.92 L .000008871 841.92 Z " fill-rule="evenodd"/>
</clipPath>
<g clip-path="url(#cp10110)">
<text xml:space="preserve" transform="matrix(1 0 -0 1 0 841.92)" font-size="14.04" font-family="Times New Roman,Bold" font-weight="bold"><tspan y="-579.34" x="158.9">&#x2019;</tspan></text>
</g>
<clipPath id="cp10111">
<path transform="matrix(1,0,0,-1,0,841.92)" d="M .000008871 0 L 595.32 0 L 595.32 841.92 L .000008871 841.92 Z " fill-rule="evenodd"/>
</clipPath>
<g clip-path="url(#cp10111)">
<text xml:space="preserve" transform="matrix(1 0 -0 1 0 841.92)" font-size="14.04" font-family="Times New Roman,Bold" font-weight="bold"><tspan y="-579.34" x="163.58 170.64212 178.322 185.38413 189.94713 193.89237">yhatlo</tspan></text>
</g>
<clipPath id="cp10112">
<path transform="matrix(1,0,0,-1,0,841.92)" d="M .000008871 0 L 595.32 0 L 595.32 841.92 L .000008871 841.92 Z " fill-rule="evenodd"/>
</clipPath>
<g clip-path="url(#cp10112)">
<text xml:space="preserve" transform="matrix(1 0 -0 1 0 841.92)" font-size="14.04" font-family="Times New Roman,Bold" font-weight="bold"><tspan y="-579.34" x="200.93">&#x2019;</tspan></text>
</g>
<clipPath id="cp10113">
<path transform="matrix(1,0,0,-1,0,841.92)" d="M .000008871 0 L 595.32 0 L 595.32 841.92 L .000008871 841.92 Z " fill-rule="evenodd"/>
</clipPath>
<g clip-path="url(#cp10113)">
<text xml:space="preserve" transform="matrix(1 0 -0 1 0 841.92)" font-size="14.04" font-family="Times New Roman,Bold" font-weight="bold"><tspan y="-579.34" x="205.61 212.67212 218.79357 226.59981 230.54505 239.1656 245.28705 252.34917 263.876 270.10978 274.055 281.01884 287.2526">vchi ramzlar:</tspan></text>
</g>
<clipPath id="cp10114">
<path transform="matrix(1,0,0,-1,0,841.92)" d="M .000008871 0 L 595.32 0 L 595.32 841.92 L .000008871 841.92 Z " fill-rule="evenodd"/>
</clipPath>
<g clip-path="url(#cp10114)">
<text xml:space="preserve" transform="matrix(1 0 -0 1 0 841.92)" font-size="14.04" font-family="Times New Roman,Italic" font-style="italic"><tspan y="-579.34" x="292.01"> </tspan></text>
</g>
<clipPath id="cp10115">
<path transform="matrix(1,0,0,-1,0,841.92)" d="M .000008871 0 L 595.32 0 L 595.32 841.92 L .000008871 841.92 Z " fill-rule="evenodd"/>
</clipPath>
<g clip-path="url(#cp10115)">
<text xml:space="preserve" transform="matrix(1 0 -0 1 0 841.92)" font-size="14.04" font-family="Times New Roman"><tspan y="-579.34" x="300.65 310.7307 316.1361 323.1982 330.16206 337.22416 345.7324 352.7945 359.02827 363.70359 372.22587 379.28797 383.13493 387.08015 395.7007 401.1061 408.1682 414.28965 421.35176 425.1987 429.14393 435.3777 439.94068 447.00279 453.23655 461.74479 468.8069">Ushbu har xil shakllarda bo</tspan></text>
</g>
<clipPath id="cp10116">
<path transform="matrix(1,0,0,-1,0,841.92)" d="M .000008871 0 L 595.32 0 L 595.32 841.92 L .000008871 841.92 Z " fill-rule="evenodd"/>
</clipPath>
<g clip-path="url(#cp10116)">
<text xml:space="preserve" transform="matrix(1 0 -0 1 0 841.92)" font-size="14.04" font-family="Times New Roman"><tspan y="-579.34" x="476.14">&#x2019;</tspan></text>
</g>
<clipPath id="cp10117">
<path transform="matrix(1,0,0,-1,0,841.92)" d="M .000008871 0 L 595.32 0 L 595.32 841.92 L .000008871 841.92 Z " fill-rule="evenodd"/>
</clipPath>
<g clip-path="url(#cp10117)">
<text xml:space="preserve" transform="matrix(1 0 -0 1 0 841.92)" font-size="14.04" font-family="Times New Roman"><tspan y="-579.34" x="480.7 484.54698 488.4922 493.89759 500.86143 504.70838 513.4553 524.1397 531.3282 542.0126 549.0747 553.01998 559.9838">lishi mumkin </tspan></text>
</g>
<clipPath id="cp10118">
<path transform="matrix(1,0,0,-1,0,841.92)" d="M .000008871 0 L 595.32 0 L 595.32 841.92 L .000008871 841.92 Z " fill-rule="evenodd"/>
</clipPath>
<g clip-path="url(#cp10118)">
</g>
<clipPath id="cp10119">
<path transform="matrix(1,0,0,-1,0,841.92)" d="M .000008871 0 L 595.32 0 L 595.32 841.92 L .000008871 841.92 Z " fill-rule="evenodd"/>
</clipPath>
<g clip-path="url(#cp10119)">
<text xml:space="preserve" transform="matrix(1 0 -0 1 0 841.92)" font-size="14.04" font-family="Times New Roman"><tspan y="-555.07" x="85.104 92.184">bo</tspan></text>
</g>
<clipPath id="cp10120">
<path transform="matrix(1,0,0,-1,0,841.92)" d="M .000008871 0 L 595.32 0 L 595.32 841.92 L .000008871 841.92 Z " fill-rule="evenodd"/>
</clipPath>
<g clip-path="url(#cp10120)">
<text xml:space="preserve" transform="matrix(1 0 -0 1 0 841.92)" font-size="14.04" font-family="Times New Roman"><tspan y="-555.07" x="99.264">&#x2019;</tspan></text>
</g>
<clipPath id="cp10121">
<path transform="matrix(1,0,0,-1,0,841.92)" d="M .000008871 0 L 595.32 0 L 595.32 841.92 L .000008871 841.92 Z " fill-rule="evenodd"/>
</clipPath>
<g clip-path="url(#cp10121)">
<text xml:space="preserve" transform="matrix(1 0 -0 1 0 841.92)" font-size="14.04" font-family="Times New Roman"><tspan y="-555.07" x="103.82 107.66696 114.72908 120.85052 127.912639 136.89824 141.57357 147.80733 158.49178 164.72554 168.67078 174.90454 179.57987 186.55776 190.50299 199.36223 210.159 216.39276 220.338 227.40012 234.36396 240.59772 247.56156 251.50679 260.36604 267.42814 273.54957 277.49479 288.17924">lgan ramzlarni matndagi ketma</tspan></text>
</g>
<clipPath id="cp10122">
<path transform="matrix(1,0,0,-1,0,841.92)" d="M .000008871 0 L 595.32 0 L 595.32 841.92 L .000008871 841.92 Z " fill-rule="evenodd"/>
</clipPath>
<g clip-path="url(#cp10122)">
<text xml:space="preserve" transform="matrix(1 0 -0 1 0 841.92)" font-size="14.04" font-family="Times New Roman"><tspan y="-555.07" x="294.65">-</tspan></text>
</g>
<clipPath id="cp10123">
<path transform="matrix(1,0,0,-1,0,841.92)" d="M .000008871 0 L 595.32 0 L 595.32 841.92 L .000008871 841.92 Z " fill-rule="evenodd"/>
</clipPath>
<g clip-path="url(#cp10123)">
<text xml:space="preserve" transform="matrix(1 0 -0 1 0 841.92)" font-size="14.04" font-family="Times New Roman"><tspan y="-555.07" x="299.33 306.3921 312.62586 316.57109 320.41804 324.36326 331.3271 335.2723 344.2579 354.94236 362.00447 369.06657 373.01179 383.69624 392.68183 399.74394">ketligi muhim bo</tspan></text>
</g>
<clipPath id="cp10124">
<path transform="matrix(1,0,0,-1,0,841.92)" d="M .000008871 0 L 595.32 0 L 595.32 841.92 L .000008871 841.92 Z " fill-rule="evenodd"/>
</clipPath>
<g clip-path="url(#cp10124)">
<text xml:space="preserve" transform="matrix(1 0 -0 1 0 841.92)" font-size="14.04" font-family="Times New Roman"><tspan y="-555.07" x="406.99">&#x2019;</tspan></text>
</g>
<clipPath id="cp10125">
<path transform="matrix(1,0,0,-1,0,841.92)" d="M .000008871 0 L 595.32 0 L 595.32 841.92 L .000008871 841.92 Z " fill-rule="evenodd"/>
</clipPath>
<g clip-path="url(#cp10125)">
<text xml:space="preserve" transform="matrix(1 0 -0 1 0 841.92)" font-size="14.04" font-family="Times New Roman"><tspan y="-555.07" x="411.55 415.4952 426.17967 432.41343 439.48957 445.72334 452.79948 461.78507 466.34806">lmagan ro</tspan></text>
</g>
<clipPath id="cp10126">
<path transform="matrix(1,0,0,-1,0,841.92)" d="M .000008871 0 L 595.32 0 L 595.32 841.92 L .000008871 841.92 Z " fill-rule="evenodd"/>
</clipPath>
<g clip-path="url(#cp10126)">
<text xml:space="preserve" transform="matrix(1 0 -0 1 0 841.92)" font-size="14.04" font-family="Times New Roman"><tspan y="-555.07" x="473.5">&#x2019;</tspan></text>
</g>
<clipPath id="cp10127">
<path transform="matrix(1,0,0,-1,0,841.92)" d="M .000008871 0 L 595.32 0 L 595.32 841.92 L .000008871 841.92 Z " fill-rule="evenodd"/>
</clipPath>
<g clip-path="url(#cp10127)">
<text xml:space="preserve" transform="matrix(1 0 -0 1 0 841.92)" font-size="14.04" font-family="Times New Roman"><tspan y="-555.07" x="478.06 484.89747 491.95957 498.19334 502.13856 506.08378 512.3175 516.9928 525.8661 532.9282 539.0497 546.01358 553.0757 559.9132">yhatlar uchun </tspan></text>
</g>
<clipPath id="cp10128">
<path transform="matrix(1,0,0,-1,0,841.92)" d="M .000008871 0 L 595.32 0 L 595.32 841.92 L .000008871 841.92 Z " fill-rule="evenodd"/>
</clipPath>
<g clip-path="url(#cp10128)">
</g>
<clipPath id="cp10129">
<path transform="matrix(1,0,0,-1,0,841.92)" d="M .000008871 0 L 595.32 0 L 595.32 841.92 L .000008871 841.92 Z " fill-rule="evenodd"/>
</clipPath>
<g clip-path="url(#cp10129)">
<text xml:space="preserve" transform="matrix(1 0 -0 1 0 841.92)" font-size="14.04" font-family="Times New Roman"><tspan y="-530.95" x="85.104 89.04924 94.45464 101.51676 105.36372 111.59748 115.44444 119.38969 124.79509 131.85721 135.3672 146.02358 153.21207 163.89652 170.95864 174.90387 181.96599">ishlatish mumkin.</tspan></text>
</g>
<clipPath id="cp10130">
<path transform="matrix(1,0,0,-1,0,841.92)" d="M .000008871 0 L 595.32 0 L 595.32 841.92 L .000008871 841.92 Z " fill-rule="evenodd"/>
</clipPath>
<g clip-path="url(#cp10130)">
<text xml:space="preserve" transform="matrix(1 0 -0 1 0 841.92)" font-size="14.04" font-family="Times New Roman"><tspan y="-530.95" x="185.42"> </tspan></text>
</g>
<clipPath id="cp10131">
<path transform="matrix(1,0,0,-1,0,841.92)" d="M .000008871 0 L 595.32 0 L 595.32 841.92 L .000008871 841.92 Z " fill-rule="evenodd"/>
</clipPath>
<g clip-path="url(#cp10131)">
</g>
</g>
<g id="Layer-1" data-name="P">
<clipPath id="cp10132">
<path transform="matrix(1,0,0,-1,0,841.92)" d="M .000008871 0 L 595.32 0 L 595.32 841.92 L .000008871 841.92 Z " fill-rule="evenodd"/>
</clipPath>
<g clip-path="url(#cp10132)">
<text xml:space="preserve" transform="matrix(1 0 -0 1 0 841.92)" font-size="14.04" font-family="Times New Roman,Bold" font-weight="bold"><tspan y="-506.83" x="120.5 127.58">5.</tspan></text>
</g>
<clipPath id="cp10133">
<path transform="matrix(1,0,0,-1,0,841.92)" d="M .000008871 0 L 595.32 0 L 595.32 841.92 L .000008871 841.92 Z " fill-rule="evenodd"/>
</clipPath>
<g clip-path="url(#cp10133)">
<text xml:space="preserve" transform="matrix(1 0 -0 1 0 841.92)" font-size="14.04" font-family="Arial,Bold" font-weight="bold"><tspan y="-506.83" x="131.06"> </tspan></text>
</g>
<clipPath id="cp10134">
<path transform="matrix(1,0,0,-1,0,841.92)" d="M .000008871 0 L 595.32 0 L 595.32 841.92 L .000008871 841.92 Z " fill-rule="evenodd"/>
</clipPath>
<g clip-path="url(#cp10134)">
<text xml:space="preserve" transform="matrix(1 0 -0 1 0 841.92)" font-size="14.04" font-family="Times New Roman,Bold" font-weight="bold"><tspan y="-506.83" x="141.74 149.54625 157.3525 163.58626 167.5315 172.20682 176.76982 180.61678 187.6789 193.91266">Shriftlar:</tspan></text>
</g>
<clipPath id="cp10135">
<path transform="matrix(1,0,0,-1,0,841.92)" d="M .000008871 0 L 595.32 0 L 595.32 841.92 L .000008871 841.92 Z " fill-rule="evenodd"/>
</clipPath>
<g clip-path="url(#cp10135)">
<text xml:space="preserve" transform="matrix(1 0 -0 1 0 841.92)" font-size="14.04" font-family="Times New Roman,Italic" font-style="italic"><tspan y="-506.83" x="198.65"> </tspan></text>
</g>
<clipPath id="cp10136">
<path transform="matrix(1,0,0,-1,0,841.92)" d="M .000008871 0 L 595.32 0 L 595.32 841.92 L .000008871 841.92 Z " fill-rule="evenodd"/>
</clipPath>
<g clip-path="url(#cp10136)">
<text xml:space="preserve" transform="matrix(1 0 -0 1 0 841.92)" font-size="14.04" font-family="Times New Roman"><tspan y="-506.83" x="206.33 218.68521 224.91898 228.76593 235.72977 242.79189 249.02565 256.57917">Matnga o</tspan></text>
</g>
<clipPath id="cp10137">
<path transform="matrix(1,0,0,-1,0,841.92)" d="M .000008871 0 L 595.32 0 L 595.32 841.92 L .000008871 841.92 Z " fill-rule="evenodd"/>
</clipPath>
<g clip-path="url(#cp10137)">
<text xml:space="preserve" transform="matrix(1 0 -0 1 0 841.92)" font-size="14.04" font-family="Times New Roman"><tspan y="-506.83" x="263.57">&#x2019;</tspan></text>
</g>
<clipPath id="cp10138">
<path transform="matrix(1,0,0,-1,0,841.92)" d="M .000008871 0 L 595.32 0 L 595.32 841.92 L .000008871 841.92 Z " fill-rule="evenodd"/>
</clipPath>
<g clip-path="url(#cp10138)">
<text xml:space="preserve" transform="matrix(1 0 -0 1 0 841.92)" font-size="14.04" font-family="Times New Roman"><tspan y="-506.83" x="268.13 274.36378 278.309 285.3711 291.60487 299.1584 306.2205 313.18434 318.688 326.22749 333.1913 340.25343 346.37486 353.43696 359.67073 366.52223 370.46745 374.41267 379.08799 382.93495 388.4386 395.40245 399.34767 405.58143 410.25675 417.81028 424.7741 428.71934 433.39466 437.2416 441.08857 445.03379 450.43919 457.50129 465.04078 472.10289 478.2243 485.2864 492.25025 499.31236 502.6679 510.33378 521.0182 527.25198 532.76968 539.0034 542.94869 549.18246 556.2586 559.6142">ziga xos kuchaytirishlar kiritish uchun, masalan, </tspan></text>
</g>
<clipPath id="cp10139">
<path transform="matrix(1,0,0,-1,0,841.92)" d="M .000008871 0 L 595.32 0 L 595.32 841.92 L .000008871 841.92 Z " fill-rule="evenodd"/>
</clipPath>
<g clip-path="url(#cp10139)">
</g>
<clipPath id="cp10140">
<path transform="matrix(1,0,0,-1,0,841.92)" d="M .000008871 0 L 595.32 0 L 595.32 841.92 L .000008871 841.92 Z " fill-rule="evenodd"/>
</clipPath>
<g clip-path="url(#cp10140)">
<text xml:space="preserve" transform="matrix(1 0 -0 1 0 841.92)" font-size="14.04" font-family="Times New Roman"><tspan y="-482.71" x="85.104 95.90076 102.134517 106.07976 113.14188 120.10571 124.05096 127.56096 134.49672 140.73049 144.57744 148.52268 155.48651 159.43175 165.55319 170.95859 178.0207 181.86766 185.8129 190.48822 194.33518 199.74057 206.7044 210.2144 213.66823 220.73035 227.69419 234.7563 240.1617 244.10694 248.78226 252.29225 259.22804 263.07499 267.0202 270.86717 276.37083 283.43293 286.94294 293.75233 300.81443 307.77827 311.72349 315.2335 319.03834 325.15977 332.22187 336.06883 343.13093 349.3647 352.8747 358.96806 366.03016 369.8771 376.11088 379.95783 385.4615">matnni qalinlashtirish, kuvsif qilish yoki tagiga chizish</tspan></text>
</g>
<clipPath id="cp10141">
<path transform="matrix(1,0,0,-1,0,841.92)" d="M .000008871 0 L 595.32 0 L 595.32 841.92 L .000008871 841.92 Z " fill-rule="evenodd"/>
</clipPath>
<g clip-path="url(#cp10141)">
<text xml:space="preserve" transform="matrix(1 0 -0 1 0 841.92)" font-size="14.04" font-family="Times New Roman,Italic" font-style="italic"><tspan y="-482.71" x="392.83"> </tspan></text>
</g>
<clipPath id="cp10142">
<path transform="matrix(1,0,0,-1,0,841.92)" d="M .000008871 0 L 595.32 0 L 595.32 841.92 L .000008871 841.92 Z " fill-rule="evenodd"/>
</clipPath>
<g clip-path="url(#cp10142)">
<text xml:space="preserve" transform="matrix(1 0 -0 1 0 841.92)" font-size="14.04" font-family="Times New Roman"><tspan y="-482.71" x="396.19 403.2521 409.37355 416.43565 423.39949 430.46159 433.81715 440.87925">uchun qo</tspan></text>
</g>
<clipPath id="cp10143">
<path transform="matrix(1,0,0,-1,0,841.92)" d="M .000008871 0 L 595.32 0 L 595.32 841.92 L .000008871 841.92 Z " fill-rule="evenodd"/>
</clipPath>
<g clip-path="url(#cp10143)">
<text xml:space="preserve" transform="matrix(1 0 -0 1 0 841.92)" font-size="14.04" font-family="Times New Roman"><tspan y="-482.71" x="447.94">&#x2019;</tspan></text>
</g>
<clipPath id="cp10144">
<path transform="matrix(1,0,0,-1,0,841.92)" d="M .000008871 0 L 595.32 0 L 595.32 841.92 L .000008871 841.92 Z " fill-rule="evenodd"/>
</clipPath>
<g clip-path="url(#cp10144)">
<text xml:space="preserve" transform="matrix(1 0 -0 1 0 841.92)" font-size="14.04" font-family="Times New Roman"><tspan y="-482.71" x="452.5 456.44523 460.39045 466.6242 473.58805 477.53327 481.38023 487.61399 494.57783 498.52305 505.48689 511.72065 518.7968 522.1524 526.09768 529.94467 536.1784 540.12368 550.80807">llaniladigan tizim.</tspan></text>
</g>
<clipPath id="cp10145">
<path transform="matrix(1,0,0,-1,0,841.92)" d="M .000008871 0 L 595.32 0 L 595.32 841.92 L .000008871 841.92 Z " fill-rule="evenodd"/>
</clipPath>
<g clip-path="url(#cp10145)">
<text xml:space="preserve" transform="matrix(1 0 -0 1 0 841.92)" font-size="14.04" font-family="Times New Roman"><tspan y="-482.71" x="554.5"> </tspan></text>
</g>
<clipPath id="cp10146">
<path transform="matrix(1,0,0,-1,0,841.92)" d="M .000008871 0 L 595.32 0 L 595.32 841.92 L .000008871 841.92 Z " fill-rule="evenodd"/>
</clipPath>
<g clip-path="url(#cp10146)">
</g>
</g>
<g id="Layer-1" data-name="P">
<clipPath id="cp10147">
<path transform="matrix(1,0,0,-1,0,841.92)" d="M .000008871 0 L 595.32 0 L 595.32 841.92 L .000008871 841.92 Z " fill-rule="evenodd"/>
</clipPath>
<g clip-path="url(#cp10147)">
<text xml:space="preserve" transform="matrix(1 0 -0 1 0 841.92)" font-size="14.04" font-family="Times New Roman,Bold" font-weight="bold"><tspan y="-458.47" x="120.5 127.58">6.</tspan></text>
</g>
<clipPath id="cp10148">
<path transform="matrix(1,0,0,-1,0,841.92)" d="M .000008871 0 L 595.32 0 L 595.32 841.92 L .000008871 841.92 Z " fill-rule="evenodd"/>
</clipPath>
<g clip-path="url(#cp10148)">
<text xml:space="preserve" transform="matrix(1 0 -0 1 0 841.92)" font-size="14.04" font-family="Arial,Bold" font-weight="bold"><tspan y="-458.47" x="131.06"> </tspan></text>
</g>
<clipPath id="cp10149">
<path transform="matrix(1,0,0,-1,0,841.92)" d="M .000008871 0 L 595.32 0 L 595.32 841.92 L .000008871 841.92 Z " fill-rule="evenodd"/>
</clipPath>
<g clip-path="url(#cp10149)">
<text xml:space="preserve" transform="matrix(1 0 -0 1 0 841.92)" font-size="14.04" font-family="Times New Roman,Bold" font-weight="bold"><tspan y="-458.47" x="141.74 148.80213 155.86425 163.54413 170.50797 177.57009 181.41704 185.26399 192.32611">Jadvallar</tspan></text>
</g>
<clipPath id="cp10150">
<path transform="matrix(1,0,0,-1,0,841.92)" d="M .000008871 0 L 595.32 0 L 595.32 841.92 L .000008871 841.92 Z " fill-rule="evenodd"/>
</clipPath>
<g clip-path="url(#cp10150)">
<text xml:space="preserve" transform="matrix(1 0 -0 1 0 841.92)" font-size="14.04" font-family="Times New Roman,Italic" font-style="italic"><tspan y="-458.47" x="198.65 203.32999">: </tspan></text>
</g>
<clipPath id="cp10151">
<path transform="matrix(1,0,0,-1,0,841.92)" d="M .000008871 0 L 595.32 0 L 595.32 841.92 L .000008871 841.92 Z " fill-rule="evenodd"/>
</clipPath>
<g clip-path="url(#cp10151)">
<text xml:space="preserve" transform="matrix(1 0 -0 1 0 841.92)" font-size="14.04" font-family="Times New Roman"><tspan y="-458.47" x="206.81 212.2154 218.44916 225.413 232.47512 238.59656 242.5418 246.38875 250.33399 253.68955 264.4863">Jadvalli ma</tspan></text>
</g>
<clipPath id="cp10152">
<path transform="matrix(1,0,0,-1,0,841.92)" d="M .000008871 0 L 595.32 0 L 595.32 841.92 L .000008871 841.92 Z " fill-rule="evenodd"/>
</clipPath>
<g clip-path="url(#cp10152)">
<text xml:space="preserve" transform="matrix(1 0 -0 1 0 841.92)" font-size="14.04" font-family="Times New Roman"><tspan y="-458.47" x="270.77">&#x2019;</tspan></text>
</g>
<clipPath id="cp10153">
<path transform="matrix(1,0,0,-1,0,841.92)" d="M .000008871 0 L 595.32 0 L 595.32 841.92 L .000008871 841.92 Z " fill-rule="evenodd"/>
</clipPath>
<g clip-path="url(#cp10153)">
<text xml:space="preserve" transform="matrix(1 0 -0 1 0 841.92)" font-size="14.04" font-family="Times New Roman"><tspan y="-458.47" x="275.33 279.2752 286.46369 297.14814 304.21025 308.15547 312.10069 318.33445 322.89744 329.86128 333.8065 337.3165 344.25227 348.19749 352.8728 356.71977 360.5667 364.51194 369.91734 376.97944 383.94328 390.17704 393.68705 400.6228 404.56803 410.8018 421.48625 427.72 431.66523 435.17524 442.19523 446.09834 450.00144 456.2352 463.2552 467.1583">lumotlarni kiritishga xizmat qiladi.</tspan></text>
</g>
<clipPath id="cp10154">
<path transform="matrix(1,0,0,-1,0,841.92)" d="M .000008871 0 L 595.32 0 L 595.32 841.92 L .000008871 841.92 Z " fill-rule="evenodd"/>
</clipPath>
<g clip-path="url(#cp10154)">
<text xml:space="preserve" transform="matrix(1 0 -0 1 0 841.92)" font-size="14.04" font-family="Times New Roman"><tspan y="-458.47" x="470.74"> </tspan></text>
</g>
<clipPath id="cp10155">
<path transform="matrix(1,0,0,-1,0,841.92)" d="M .000008871 0 L 595.32 0 L 595.32 841.92 L .000008871 841.92 Z " fill-rule="evenodd"/>
</clipPath>
<g clip-path="url(#cp10155)">
</g>
</g>
<g id="Layer-1" data-name="P">
<clipPath id="cp10156">
<path transform="matrix(1,0,0,-1,0,841.92)" d="M .000008871 0 L 595.32 0 L 595.32 841.92 L .000008871 841.92 Z " fill-rule="evenodd"/>
</clipPath>
<g clip-path="url(#cp10156)">
<text xml:space="preserve" transform="matrix(1 0 -0 1 0 841.92)" font-size="14.04" font-family="Times New Roman,Bold" font-weight="bold"><tspan y="-434.35" x="120.5 127.58">7.</tspan></text>
</g>
<clipPath id="cp10157">
<path transform="matrix(1,0,0,-1,0,841.92)" d="M .000008871 0 L 595.32 0 L 595.32 841.92 L .000008871 841.92 Z " fill-rule="evenodd"/>
</clipPath>
<g clip-path="url(#cp10157)">
<text xml:space="preserve" transform="matrix(1 0 -0 1 0 841.92)" font-size="14.04" font-family="Arial,Bold" font-weight="bold"><tspan y="-434.35" x="131.06"> </tspan></text>
</g>
<clipPath id="cp10158">
<path transform="matrix(1,0,0,-1,0,841.92)" d="M .000008871 0 L 595.32 0 L 595.32 841.92 L .000008871 841.92 Z " fill-rule="evenodd"/>
</clipPath>
<g clip-path="url(#cp10158)">
<text xml:space="preserve" transform="matrix(1 0 -0 1 0 841.92)" font-size="14.04" font-family="Times New Roman,Bold" font-weight="bold"><tspan y="-434.35" x="141.74 151.82073 159.62697 165.86074 172.92285 177.59818 183.00357">Abzats:</tspan></text>
</g>
<clipPath id="cp10159">
<path transform="matrix(1,0,0,-1,0,841.92)" d="M .000008871 0 L 595.32 0 L 595.32 841.92 L .000008871 841.92 Z " fill-rule="evenodd"/>
</clipPath>
<g clip-path="url(#cp10159)">
<text xml:space="preserve" transform="matrix(1 0 -0 1 0 841.92)" font-size="14.04" font-family="Times New Roman,Italic" font-style="italic"><tspan y="-434.35" x="187.7"> </tspan></text>
</g>
<clipPath id="cp10160">
<path transform="matrix(1,0,0,-1,0,841.92)" d="M .000008871 0 L 595.32 0 L 595.32 841.92 L .000008871 841.92 Z " fill-rule="evenodd"/>
</clipPath>
<g clip-path="url(#cp10160)">
<text xml:space="preserve" transform="matrix(1 0 -0 1 0 841.92)" font-size="14.04" font-family="Times New Roman"><tspan y="-434.35" x="191.21 201.29073 207.52449 212.19982 215.70981 222.72982 228.99166 233.55466 239.78842 246.8646 251.4276 257.66136 262.22434 269.28645 273.1334 280.09724 287.15934 290.66935 297.6051 304.6672 310.0726 317.03645 320.98167 328.04377 334.1652 341.12904 345.07426 348.58427 355.52003">Har paragrafning boshidagi bo</tspan></text>
</g>
<clipPath id="cp10161">
<path transform="matrix(1,0,0,-1,0,841.92)" d="M .000008871 0 L 595.32 0 L 595.32 841.92 L .000008871 841.92 Z " fill-rule="evenodd"/>
</clipPath>
<g clip-path="url(#cp10161)">
<text xml:space="preserve" transform="matrix(1 0 -0 1 0 841.92)" font-size="14.04" font-family="Times New Roman"><tspan y="-434.35" x="362.71">&#x2019;</tspan></text>
</g>
<clipPath id="cp10162">
<path transform="matrix(1,0,0,-1,0,841.92)" d="M .000008871 0 L 595.32 0 L 595.32 841.92 L .000008871 841.92 Z " fill-rule="evenodd"/>
</clipPath>
<g clip-path="url(#cp10162)">
<text xml:space="preserve" transform="matrix(1 0 -0 1 0 841.92)" font-size="14.04" font-family="Times New Roman"><tspan y="-434.35" x="367.27 372.77366 379.7375 383.58445 387.52967 394.59178 398.10179 402.6367 409.6988 413.54576 418.95115 422.89637">shlik (otstu</tspan></text>
</g>
<clipPath id="cp10163">
<path transform="matrix(1,0,0,-1,0,841.92)" d="M .000008871 0 L 595.32 0 L 595.32 841.92 L .000008871 841.92 Z " fill-rule="evenodd"/>
</clipPath>
<g clip-path="url(#cp10163)">
<text xml:space="preserve" transform="matrix(1 0 -0 1 0 841.92)" font-size="14.04" font-family="Times New Roman"><tspan y="-434.35" x="429.91 436.9721 441.64744">p).</tspan></text>
</g>
<clipPath id="cp10164">
<path transform="matrix(1,0,0,-1,0,841.92)" d="M .000008871 0 L 595.32 0 L 595.32 841.92 L .000008871 841.92 Z " fill-rule="evenodd"/>
</clipPath>
<g clip-path="url(#cp10164)">
<text xml:space="preserve" transform="matrix(1 0 -0 1 0 841.92)" font-size="14.04" font-family="Times New Roman"><tspan y="-434.35" x="445.06"> </tspan></text>
</g>
<clipPath id="cp10165">
<path transform="matrix(1,0,0,-1,0,841.92)" d="M .000008871 0 L 595.32 0 L 595.32 841.92 L .000008871 841.92 Z " fill-rule="evenodd"/>
</clipPath>
<g clip-path="url(#cp10165)">
</g>
</g>
<g id="Layer-1" data-name="P">
<clipPath id="cp10166">
<path transform="matrix(1,0,0,-1,0,841.92)" d="M .000008871 0 L 595.32 0 L 595.32 841.92 L .000008871 841.92 Z " fill-rule="evenodd"/>
</clipPath>
<g clip-path="url(#cp10166)">
<text xml:space="preserve" transform="matrix(1 0 -0 1 0 841.92)" font-size="14.04" font-family="Times New Roman,Bold" font-weight="bold"><tspan y="-410.23" x="120.5 127.58">8.</tspan></text>
</g>
<clipPath id="cp10167">
<path transform="matrix(1,0,0,-1,0,841.92)" d="M .000008871 0 L 595.32 0 L 595.32 841.92 L .000008871 841.92 Z " fill-rule="evenodd"/>
</clipPath>
<g clip-path="url(#cp10167)">
<text xml:space="preserve" transform="matrix(1 0 -0 1 0 841.92)" font-size="14.04" font-family="Arial,Bold" font-weight="bold"><tspan y="-410.23" x="131.06"> </tspan></text>
</g>
<clipPath id="cp10168">
<path transform="matrix(1,0,0,-1,0,841.92)" d="M .000008871 0 L 595.32 0 L 595.32 841.92 L .000008871 841.92 Z " fill-rule="evenodd"/>
</clipPath>
<g clip-path="url(#cp10168)">
<text xml:space="preserve" transform="matrix(1 0 -0 1 0 841.92)" font-size="14.04" font-family="Times New Roman,Bold" font-weight="bold"><tspan y="-410.23" x="141.74 149.54625 156.60837 164.41461 168.24753 172.92285 179.99903 184.6603 190.89406 197.97023 205.65012 212.71224 224.23908 228.18431 235.24643 241.36788 245.31311">Sahifa raqamlari:</tspan></text>
</g>
<clipPath id="cp10169">
<path transform="matrix(1,0,0,-1,0,841.92)" d="M .000008871 0 L 595.32 0 L 595.32 841.92 L .000008871 841.92 Z " fill-rule="evenodd"/>
</clipPath>
<g clip-path="url(#cp10169)">
<text xml:space="preserve" transform="matrix(1 0 -0 1 0 841.92)" font-size="14.04" font-family="Times New Roman,Italic" font-style="italic"><tspan y="-410.23" x="250.13"> </tspan></text>
</g>
<clipPath id="cp10170">
<path transform="matrix(1,0,0,-1,0,841.92)" d="M .000008871 0 L 595.32 0 L 595.32 841.92 L .000008871 841.92 Z " fill-rule="evenodd"/>
</clipPath>
<g clip-path="url(#cp10170)">
<text xml:space="preserve" transform="matrix(1 0 -0 1 0 841.92)" font-size="14.04" font-family="Times New Roman"><tspan y="-410.23" x="254.93 264.1683 271.2304 275.17564 281.29707 285.97239 290.76005 296.2637 302.38514 309.34898 313.2942 317.9695 324.09095 328.03617 334.26994 338.83293 345.89503 349.84025 354.50154 361.56364 367.7974 372.47273 377.14805 384.11189 388.0571 392.00233 396.6636 403.7257 409.1311 416.09495 420.04017 426.27394 430.8369 437.89903 444.13279 448.92045 453.59577 459.7172 466.7793 473.01307 483.6975 487.64274 493.8765 500.95265 505.61393 510.40159 521.086 527.31979 532.83749 539.0712 543.0165 549.13796 556.2001 559.55569">Bular sahifalarni har xil usularda raqamlab (masalan, </tspan></text>
</g>
<clipPath id="cp10171">
<path transform="matrix(1,0,0,-1,0,841.92)" d="M .000008871 0 L 595.32 0 L 595.32 841.92 L .000008871 841.92 Z " fill-rule="evenodd"/>
</clipPath>
<g clip-path="url(#cp10171)">
</g>
<clipPath id="cp10172">
<path transform="matrix(1,0,0,-1,0,841.92)" d="M .000008871 0 L 595.32 0 L 595.32 841.92 L .000008871 841.92 Z " fill-rule="evenodd"/>
</clipPath>
<g clip-path="url(#cp10172)">
<text xml:space="preserve" transform="matrix(1 0 -0 1 0 841.92)" font-size="14.04" font-family="Times New Roman"><tspan y="-386.09" x="85.104 94.46867 98.41392 109.09836 112.60836 117.28368 123.51744 130.53745 136.92565 147.61009 151.55533 157.7891 162.46442 166.4237 169.9337 173.38753 183.46825 188.14357 194.37734 201.4535 204.80907 209.48439 215.71816 222.79433 229.02809 239.71254 243.65778 249.89154 254.56687 258.52613 263.20146 266.57106 273.63316 279.8669 284.4299 288.37513 293.78053 300.74436 307.80647 314.04023 317.55024 321.3691 326.7745 333.8366 337.78184 343.90327 347.7502 351.69544 355.64067 361.7621 368.72593 372.67115">Rim raqamlari, Arab raqamlari) berishda ishlatiladi.</tspan></text>
</g>
<clipPath id="cp10173">
<path transform="matrix(1,0,0,-1,0,841.92)" d="M .000008871 0 L 595.32 0 L 595.32 841.92 L .000008871 841.92 Z " fill-rule="evenodd"/>
</clipPath>
<g clip-path="url(#cp10173)">
<text xml:space="preserve" transform="matrix(1 0 -0 1 0 841.92)" font-size="14.04" font-family="Times New Roman"><tspan y="-386.09" x="376.27"> </tspan></text>
</g>
<clipPath id="cp10174">
<path transform="matrix(1,0,0,-1,0,841.92)" d="M .000008871 0 L 595.32 0 L 595.32 841.92 L .000008871 841.92 Z " fill-rule="evenodd"/>
</clipPath>
<g clip-path="url(#cp10174)">
</g>
</g>
<g id="Layer-1" data-name="P">
<clipPath id="cp10175">
<path transform="matrix(1,0,0,-1,0,841.92)" d="M .000008871 0 L 595.32 0 L 595.32 841.92 L .000008871 841.92 Z " fill-rule="evenodd"/>
</clipPath>
<g clip-path="url(#cp10175)">
<text xml:space="preserve" transform="matrix(1 0 -0 1 0 841.92)" font-size="14.04" font-family="Times New Roman"><tspan y="-361.97" x="113.42 121.942279 128.17604 135.25222 139.92754 143.87277 148.43578 152.38101 158.50246 163.90785 170.96997 180.08193 187.04576 194.10788 203.21984 207.89516 214.12892">Taxrirlash bu fay</tspan></text>
</g>
<clipPath id="cp10176">
<path transform="matrix(1,0,0,-1,0,841.92)" d="M .000008871 0 L 595.32 0 L 595.32 841.92 L .000008871 841.92 Z " fill-rule="evenodd"/>
</clipPath>
<g clip-path="url(#cp10176)">
<text xml:space="preserve" transform="matrix(1 0 -0 1 0 841.92)" font-size="14.04" font-family="Times New Roman"><tspan y="-361.97" x="221.09">i</tspan></text>
</g>
<clipPath id="cp10177">
<path transform="matrix(1,0,0,-1,0,841.92)" d="M .000008871 0 L 595.32 0 L 595.32 841.92 L .000008871 841.92 Z " fill-rule="evenodd"/>
</clipPath>
<g clip-path="url(#cp10177)">
<text xml:space="preserve" transform="matrix(1 0 -0 1 0 841.92)" font-size="14.04" font-family="Times New Roman"><tspan y="-361.97" x="225.05 232.01384 238.2476 245.32378 249.26902 258.38099 269.06544">dagi ma</tspan></text>
</g>
<clipPath id="cp10178">
<path transform="matrix(1,0,0,-1,0,841.92)" d="M .000008871 0 L 595.32 0 L 595.32 841.92 L .000008871 841.92 Z " fill-rule="evenodd"/>
</clipPath>
<g clip-path="url(#cp10178)">
<text xml:space="preserve" transform="matrix(1 0 -0 1 0 841.92)" font-size="14.04" font-family="Times New Roman"><tspan y="-361.97" x="275.33">&#x2019;</tspan></text>
</g>
<clipPath id="cp10179">
<path transform="matrix(1,0,0,-1,0,841.92)" d="M .000008871 0 L 595.32 0 L 595.32 841.92 L .000008871 841.92 Z " fill-rule="evenodd"/>
</clipPath>
<g clip-path="url(#cp10179)">
<text xml:space="preserve" transform="matrix(1 0 -0 1 0 841.92)" font-size="14.04" font-family="Times New Roman"><tspan y="-361.97" x="279.89 283.83525 291.0237 301.70817 308.77027 312.71549 316.6607 322.78215 327.45747 334.4213 338.36653 347.4785 351.32545 358.38755 364.6213 370.74275 374.68797 378.5349 383.9403 391.0024 400.11439 406.95185 414.01396 421.07606 425.02128 434.13325 438.69624 445.75834 450.43367 461.1181 467.35188 471.2971 475.2423 482.20616 486.15138 495.26335">lumotlarni tuzatish yoki formatini o</tspan></text>
</g>
<clipPath id="cp10180">
<path transform="matrix(1,0,0,-1,0,841.92)" d="M .000008871 0 L 595.32 0 L 595.32 841.92 L .000008871 841.92 Z " fill-rule="evenodd"/>
</clipPath>
<g clip-path="url(#cp10180)">
<text xml:space="preserve" transform="matrix(1 0 -0 1 0 841.92)" font-size="14.04" font-family="Times New Roman"><tspan y="-361.97" x="502.66">&#x2019;</tspan></text>
</g>
<clipPath id="cp10181">
<path transform="matrix(1,0,0,-1,0,841.92)" d="M .000008871 0 L 595.32 0 L 595.32 841.92 L .000008871 841.92 Z " fill-rule="evenodd"/>
</clipPath>
<g clip-path="url(#cp10181)">
<text xml:space="preserve" transform="matrix(1 0 -0 1 0 841.92)" font-size="14.04" font-family="Times New Roman"><tspan y="-361.97" x="507.22 513.45376 520.4176 526.65139 531.32669 535.17367 539.1189 543.6819 547.62716 553.03256 559.9964">zgartirish </tspan></text>
</g>
<clipPath id="cp10182">
<path transform="matrix(1,0,0,-1,0,841.92)" d="M .000008871 0 L 595.32 0 L 595.32 841.92 L .000008871 841.92 Z " fill-rule="evenodd"/>
</clipPath>
<g clip-path="url(#cp10182)">
</g>
<clipPath id="cp10183">
<path transform="matrix(1,0,0,-1,0,841.92)" d="M .000008871 0 L 595.32 0 L 595.32 841.92 L .000008871 841.92 Z " fill-rule="evenodd"/>
</clipPath>
<g clip-path="url(#cp10183)">
<text xml:space="preserve" transform="matrix(1 0 -0 1 0 841.92)" font-size="14.04" font-family="Times New Roman"><tspan y="-337.73" x="85.104 92.166118 98.28755 105.34967 111.58343 118.547267 122.394229 129.45635 133.40158 138.0769 141.5869 145.98142 155.3461">deganidir. Ba</tspan></text>
</g>
<clipPath id="cp10184">
<path transform="matrix(1,0,0,-1,0,841.92)" d="M .000008871 0 L 595.32 0 L 595.32 841.92 L .000008871 841.92 Z " fill-rule="evenodd"/>
</clipPath>
<g clip-path="url(#cp10184)">
<text xml:space="preserve" transform="matrix(1 0 -0 1 0 841.92)" font-size="14.04" font-family="Times New Roman"><tspan y="-337.73" x="161.66">&#x2019;</tspan></text>
</g>
<clipPath id="cp10185">
<path transform="matrix(1,0,0,-1,0,841.92)" d="M .000008871 0 L 595.32 0 L 595.32 841.92 L .000008871 841.92 Z " fill-rule="evenodd"/>
</clipPath>
<g clip-path="url(#cp10185)">
<text xml:space="preserve" transform="matrix(1 0 -0 1 0 841.92)" font-size="14.04" font-family="Times New Roman"><tspan y="-337.73" x="166.22 172.45377 176.399 180.8216">zi O</tspan></text>
</g>
<clipPath id="cp10186">
<path transform="matrix(1,0,0,-1,0,841.92)" d="M .000008871 0 L 595.32 0 L 595.32 841.92 L .000008871 841.92 Z " fill-rule="evenodd"/>
</clipPath>
<g clip-path="url(#cp10186)">
<text xml:space="preserve" transform="matrix(1 0 -0 1 0 841.92)" font-size="14.04" font-family="Times New Roman"><tspan y="-337.73" x="190.97">&#x2019;</tspan></text>
</g>
<clipPath id="cp10187">
<path transform="matrix(1,0,0,-1,0,841.92)" d="M .000008871 0 L 595.32 0 L 595.32 841.92 L .000008871 841.92 Z " fill-rule="evenodd"/>
</clipPath>
<g clip-path="url(#cp10187)">
<text xml:space="preserve" transform="matrix(1 0 -0 1 0 841.92)" font-size="14.04" font-family="Times New Roman"><tspan y="-337.73" x="195.53 201.76377 208.83994 215.0737 219.6367 223.58194 227.52718 232.09018 235.93714 241.44081 248.50293 252.92552 257.4885 264.5506 271.51445 278.57655 283.98194 287.92716 294.76463 300.99839 306.51609 310.36305 317.42515 323.54658 328.09556 338.78 342.72523 348.22889 355.291 359.2362 363.6588 370.62266 374.4696 378.41484">zgartirish funksiyasiga misol qili</tspan></text>
</g>
<clipPath id="cp10188">
<path transform="matrix(1,0,0,-1,0,841.92)" d="M .000008871 0 L 595.32 0 L 595.32 841.92 L .000008871 841.92 Z " fill-rule="evenodd"/>
</clipPath>
<g clip-path="url(#cp10188)">
<text xml:space="preserve" transform="matrix(1 0 -0 1 0 841.92)" font-size="14.04" font-family="Times New Roman"><tspan y="-337.73" x="382.51 389.5721 393.99473 400.95857 404.90379 409.5791 413.42607 417.273 421.21824 426.62364 433.68574 437.19575 441.59028">b kiritish, o</tspan></text>
</g>
<clipPath id="cp10189">
<path transform="matrix(1,0,0,-1,0,841.92)" d="M .000008871 0 L 595.32 0 L 595.32 841.92 L .000008871 841.92 Z " fill-rule="evenodd"/>
</clipPath>
<g clip-path="url(#cp10189)">
<text xml:space="preserve" transform="matrix(1 0 -0 1 0 841.92)" font-size="14.04" font-family="Times New Roman"><tspan y="-337.73" x="448.78">&#x2019;</tspan></text>
</g>
<clipPath id="cp10190">
<path transform="matrix(1,0,0,-1,0,841.92)" d="M .000008871 0 L 595.32 0 L 595.32 841.92 L .000008871 841.92 Z " fill-rule="evenodd"/>
</clipPath>
<g clip-path="url(#cp10190)">
<text xml:space="preserve" transform="matrix(1 0 -0 1 0 841.92)" font-size="14.04" font-family="Times New Roman"><tspan y="-337.73" x="453.34 459.57377 466.6499 470.59513 475.1581 479.00508 484.50874 491.57084 495.08085 499.47538">chirish, o</tspan></text>
</g>
<clipPath id="cp10191">
<path transform="matrix(1,0,0,-1,0,841.92)" d="M .000008871 0 L 595.32 0 L 595.32 841.92 L .000008871 841.92 Z " fill-rule="evenodd"/>
</clipPath>
<g clip-path="url(#cp10191)">
<text xml:space="preserve" transform="matrix(1 0 -0 1 0 841.92)" font-size="14.04" font-family="Times New Roman"><tspan y="-337.73" x="506.62">&#x2019;</tspan></text>
</g>
<clipPath id="cp10192">
<path transform="matrix(1,0,0,-1,0,841.92)" d="M .000008871 0 L 595.32 0 L 595.32 841.92 L .000008871 841.92 Z " fill-rule="evenodd"/>
</clipPath>
<g clip-path="url(#cp10192)">
<text xml:space="preserve" transform="matrix(1 0 -0 1 0 841.92)" font-size="14.04" font-family="Times New Roman"><tspan y="-337.73" x="511.18 517.41378 524.3776 528.3229 532.88589 536.8311 542.2365 549.2004 556.16427 560.0112">chirishni </tspan></text>
</g>
<clipPath id="cp10193">
<path transform="matrix(1,0,0,-1,0,841.92)" d="M .000008871 0 L 595.32 0 L 595.32 841.92 L .000008871 841.92 Z " fill-rule="evenodd"/>
</clipPath>
<g clip-path="url(#cp10193)">
</g>
<clipPath id="cp10194">
<path transform="matrix(1,0,0,-1,0,841.92)" d="M .000008871 0 L 595.32 0 L 595.32 841.92 L .000008871 841.92 Z " fill-rule="evenodd"/>
</clipPath>
<g clip-path="url(#cp10194)">
<text xml:space="preserve" transform="matrix(1 0 -0 1 0 841.92)" font-size="14.04" font-family="Times New Roman"><tspan y="-313.61" x="85.104 92.166118 98.39987 105.25139 109.19663 115.43039 120.10571 123.952678 129.45635 136.51847 140.02846 151.02178 154.86873 161.83257 168.89469 172.74164 179.80376 190.82515 197.05892 200.90587 211.70264 217.9364 223.45413 230.51625 234.3632 238.30844 242.87145 246.81668 252.22208 259.28419 262.7942 273.7875 280.8496 284.69657 289.3719 296.33573 300.28096 307.24479 311.09175 318.05558 325.11769 330.52308 337.58518 343.7066 347.65184 353.77326 360.83537 371.85679 378.91889">qaytarish, topib almashtirish, qirqib/nusxalab qo</tspan></text>
</g>
<clipPath id="cp10195">
<path transform="matrix(1,0,0,-1,0,841.92)" d="M .000008871 0 L 595.32 0 L 595.32 841.92 L .000008871 841.92 Z " fill-rule="evenodd"/>
</clipPath>
<g clip-path="url(#cp10195)">
<text xml:space="preserve" transform="matrix(1 0 -0 1 0 841.92)" font-size="14.04" font-family="Times New Roman"><tspan y="-313.61" x="386.35">&#x2019;</tspan></text>
</g>
<clipPath id="cp10196">
<path transform="matrix(1,0,0,-1,0,841.92)" d="M .000008871 0 L 595.32 0 L 595.32 841.92 L .000008871 841.92 Z " fill-rule="evenodd"/>
</clipPath>
<g clip-path="url(#cp10196)">
<text xml:space="preserve" transform="matrix(1 0 -0 1 0 841.92)" font-size="14.04" font-family="Times New Roman"><tspan y="-313.61" x="390.91 397.74748 401.6927 407.19636 414.25846 417.76847 428.76179 435.72563 441.95939 445.9046 452.86845 456.7154 460.6606 467.62446 471.56968 477.80345 482.36643 489.42854 493.37376 504.28285 508.22807 514.4618 521.42568 526.83108 533.8932 537.83847 542.4014 549.3653 556.32919 559.8392">yish, hatoliklarni tekshiruv, </tspan></text>
</g>
<clipPath id="cp10197">
<path transform="matrix(1,0,0,-1,0,841.92)" d="M .000008871 0 L 595.32 0 L 595.32 841.92 L .000008871 841.92 Z " fill-rule="evenodd"/>
</clipPath>
<g clip-path="url(#cp10197)">
</g>
<clipPath id="cp10198">
<path transform="matrix(1,0,0,-1,0,841.92)" d="M .000008871 0 L 595.32 0 L 595.32 841.92 L .000008871 841.92 Z " fill-rule="evenodd"/>
</clipPath>
<g clip-path="url(#cp10198)">
<text xml:space="preserve" transform="matrix(1 0 -0 1 0 841.92)" font-size="14.04" font-family="Times New Roman"><tspan y="-289.49" x="85.104 95.184719 99.86004 106.206119 117.00288 127.68732 133.92108 137.86632 141.81156 148.87368 156.5395 163.60163 169.72307 173.57003 180.63214 184.57738 190.69882 195.37415 202.33798 206.18494 213.85077 217.796 224.02977 230.9936 236.399 243.46112 247.40636 251.96936 258.9332 265.9953 273.66117 280.72328 286.95704">Grammatik hatolarni tekshiruv va </tspan></text>
</g>
<clipPath id="cp10199">
<path transform="matrix(1,0,0,-1,0,841.92)" d="M .000008871 0 L 595.32 0 L 595.32 841.92 L .000008871 841.92 Z " fill-rule="evenodd"/>
</clipPath>
<g clip-path="url(#cp10199)">
<text xml:space="preserve" transform="matrix(1 0 -0 1 0 841.92)" font-size="14.04" font-family="Times New Roman"><tspan y="-289.49" x="294.77 301.73384 308.79594 314.20133 321.16517 328.129">boshqa</tspan></text>
</g>
<clipPath id="cp10200">
<path transform="matrix(1,0,0,-1,0,841.92)" d="M .000008871 0 L 595.32 0 L 595.32 841.92 L .000008871 841.92 Z " fill-rule="evenodd"/>
</clipPath>
<g clip-path="url(#cp10200)">
<text xml:space="preserve" transform="matrix(1 0 -0 1 0 841.92)" font-size="14.04" font-family="Times New Roman"><tspan y="-289.49" x="334.39 338.33525 344.569 349.132 356.1941 360.1393 367.6788 374.7409 380.86235 384.80757 388.6545 392.59974 397.16273 401.10795 406.51335 413.47718 417.4224 428.10685 432.05207 438.28584 446.07804 456.76249 463.95097 474.6354 481.6975 485.64274 492.70484 496.21485 503.8526 513.2173 520.2794 524.2247 530.3461 535.0214 541.9853 545.8323 552.79617 559.76">larni keltirishimiz mumkin. Bularning </tspan></text>
</g>
<clipPath id="cp10201">
<path transform="matrix(1,0,0,-1,0,841.92)" d="M .000008871 0 L 595.32 0 L 595.32 841.92 L .000008871 841.92 Z " fill-rule="evenodd"/>
</clipPath>
<g clip-path="url(#cp10201)">
</g>
<clipPath id="cp10202">
<path transform="matrix(1,0,0,-1,0,841.92)" d="M .000008871 0 L 595.32 0 L 595.32 841.92 L .000008871 841.92 Z " fill-rule="evenodd"/>
</clipPath>
<g clip-path="url(#cp10202)">
<text xml:space="preserve" transform="matrix(1 0 -0 1 0 841.92)" font-size="14.04" font-family="Times New Roman"><tspan y="-265.37" x="85.104 92.166118 98.39987 103.075199 109.21067 116.27279 122.394229 127.89791 131.84314">barchasi </tspan></text>
</g>
</g>
<g id="Layer-1" data-name="P">
<clipPath id="cp10203">
<path transform="matrix(1,0,0,-1,0,841.92)" d="M .000008871 0 L 595.32 0 L 595.32 841.92 L .000008871 841.92 Z " fill-rule="evenodd"/>
</clipPath>
<g clip-path="url(#cp10203)">
<text xml:space="preserve" transform="matrix(1 0 -0 1 0 841.92)" font-size="14.04" font-family="Times New Roman"><tspan y="-265.37" x="135.26 143.4032 150.36705 156.60082 163.22769 170.73909 176.88861">&#x0413;&#x043b;&#x0430;&#x0432;&#x043d;&#x0430;&#x044f;</tspan></text>
</g>
</g>
<g id="Layer-1" data-name="P">
<clipPath id="cp10204">
<path transform="matrix(1,0,0,-1,0,841.92)" d="M .000008871 0 L 595.32 0 L 595.32 841.92 L .000008871 841.92 Z " fill-rule="evenodd"/>
</clipPath>
<g clip-path="url(#cp10204)">
<text xml:space="preserve" transform="matrix(1 0 -0 1 0 841.92)" font-size="14.04" font-family="Times New Roman"><tspan y="-265.37" x="183.38"> </tspan></text>
</g>
</g>
<g id="Layer-1" data-name="P">
<clipPath id="cp10205">
<path transform="matrix(1,0,0,-1,0,841.92)" d="M .000008871 0 L 595.32 0 L 595.32 841.92 L .000008871 841.92 Z " fill-rule="evenodd"/>
</clipPath>
<g clip-path="url(#cp10205)">
<text xml:space="preserve" transform="matrix(1 0 -0 1 0 841.92)" font-size="14.04" font-family="Times New Roman"><tspan y="-265.37" x="186.86 193.09377 198.49916 205.463 210.96668 214.91191 221.74939 225.32959 236.01404 242.2478 249.4363 256.27378 263.33589 268.83955 272.6865 279.7486 285.98237 289.35197 296.41407">asosiy menyusida ko</tspan></text>
</g>
</g>
<g id="Layer-1" data-name="P">
<clipPath id="cp10206">
<path transform="matrix(1,0,0,-1,0,841.92)" d="M .000008871 0 L 595.32 0 L 595.32 841.92 L .000008871 841.92 Z " fill-rule="evenodd"/>
</clipPath>
<g clip-path="url(#cp10206)">
<text xml:space="preserve" transform="matrix(1 0 -0 1 0 841.92)" font-size="14.04" font-family="Times New Roman"><tspan y="-265.37" x="303.65">&#x2019;</tspan></text>
</g>
</g>
<g id="Layer-1" data-name="P">
<clipPath id="cp10207">
<path transform="matrix(1,0,0,-1,0,841.92)" d="M .000008871 0 L 595.32 0 L 595.32 841.92 L .000008871 841.92 Z " fill-rule="evenodd"/>
</clipPath>
<g clip-path="url(#cp10207)">
<text xml:space="preserve" transform="matrix(1 0 -0 1 0 841.92)" font-size="14.04" font-family="Times New Roman"><tspan y="-265.37" x="308.21 312.8853 318.38899 324.5104 328.45564 332.30259 336.2478 343.21165 349.4454 356.52156">rsatilgan.</tspan></text>
</g>
</g>
<g id="Layer-1" data-name="P">
<clipPath id="cp10208">
<path transform="matrix(1,0,0,-1,0,841.92)" d="M .000008871 0 L 595.32 0 L 595.32 841.92 L .000008871 841.92 Z " fill-rule="evenodd"/>
</clipPath>
<g clip-path="url(#cp10208)">
<text xml:space="preserve" transform="matrix(1 0 -0 1 0 841.92)" font-size="14.04" font-family="Times New Roman"><tspan y="-265.37" x="359.95"> </tspan></text>
</g>
<clipPath id="cp10209">
<path transform="matrix(1,0,0,-1,0,841.92)" d="M .000008871 0 L 595.32 0 L 595.32 841.92 L .000008871 841.92 Z " fill-rule="evenodd"/>
</clipPath>
<g clip-path="url(#cp10209)">
</g>
</g>
<g id="Layer-1" data-name="P">
<clipPath id="cp10210">
<path transform="matrix(1,0,0,-1,0,841.92)" d="M .000008871 0 L 595.32 0 L 595.32 841.92 L .000008871 841.92 Z " fill-rule="evenodd"/>
</clipPath>
<g clip-path="url(#cp10210)">
<text xml:space="preserve" transform="matrix(1 0 -0 1 0 841.92)" font-size="14.04" font-family="Times New Roman"><tspan y="-241.13" x="113.42 123.50072 130.56284 141.24729 148.43578 155.27326 162.33538 166.28061 172.51438 177.1897 184.26587 190.49964 198.29183 205.25566 209.2009 215.32234">Kompyuterga ulan</tspan></text>
</g>
<clipPath id="cp10211">
<path transform="matrix(1,0,0,-1,0,841.92)" d="M .000008871 0 L 595.32 0 L 595.32 841.92 L .000008871 841.92 Z " fill-rule="evenodd"/>
</clipPath>
<g clip-path="url(#cp10211)">
<text xml:space="preserve" transform="matrix(1 0 -0 1 0 841.92)" font-size="14.04" font-family="Times New Roman"><tspan y="-241.13" x="222.53 229.59212 235.71356 242.77568 250.68019 257.7423 262.3053 266.15226 273.21437 277.0613 283.29508 287.9704 295.88899 302.95109 307.51408 314.57618 320.6976 324.64283 328.58805 336.38026 343.3441 350.4062 354.25315 358.1001 364.33387 368.27909 372.12605 378.3598 383.03514 390.013 393.95823 401.75044 408.81254 415.77638 421.28004 431.96449 438.19825 445.27439 451.50816 458.5843 466.48884 472.61027 479.5741 483.51933 490.58143 496.70286 501.37818 505.22514 510.7288 517.7909 525.5831 532.64529 538.7667 545.7306 552.69448 559.6583">gan printer orqali hujjatlarni bosmadan chiqarish uchun </tspan></text>
</g>
<clipPath id="cp10212">
<path transform="matrix(1,0,0,-1,0,841.92)" d="M .000008871 0 L 595.32 0 L 595.32 841.92 L .000008871 841.92 Z " fill-rule="evenodd"/>
</clipPath>
<g clip-path="url(#cp10212)">
<text xml:space="preserve" transform="matrix(1 0 -0 1 0 841.92)" font-size="14.04" font-family="Times New Roman"><tspan y="-216.98" x="85.104 92.166118 98.39987 103.075199 109.21067 116.27279 121.17275 128.13658">kerak bo</tspan></text>
</g>
<clipPath id="cp10213">
<path transform="matrix(1,0,0,-1,0,841.92)" d="M .000008871 0 L 595.32 0 L 595.32 841.92 L .000008871 841.92 Z " fill-rule="evenodd"/>
</clipPath>
<g clip-path="url(#cp10213)">
<text xml:space="preserve" transform="matrix(1 0 -0 1 0 841.92)" font-size="14.04" font-family="Times New Roman"><tspan y="-216.98" x="135.26">&#x2019;</tspan></text>
</g>
<clipPath id="cp10214">
<path transform="matrix(1,0,0,-1,0,841.92)" d="M .000008871 0 L 595.32 0 L 595.32 841.92 L .000008871 841.92 Z " fill-rule="evenodd"/>
</clipPath>
<g clip-path="url(#cp10214)">
<text xml:space="preserve" transform="matrix(1 0 -0 1 0 841.92)" font-size="14.04" font-family="Times New Roman"><tspan y="-216.98" x="139.82 143.76525 149.88669 156.9488 160.79576 167.85788 173.97933 181.04145 185.94139 196.62584">ladigan ma</tspan></text>
</g>
<clipPath id="cp10215">
<path transform="matrix(1,0,0,-1,0,841.92)" d="M .000008871 0 L 595.32 0 L 595.32 841.92 L .000008871 841.92 Z " fill-rule="evenodd"/>
</clipPath>
<g clip-path="url(#cp10215)">
<text xml:space="preserve" transform="matrix(1 0 -0 1 0 841.92)" font-size="14.04" font-family="Times New Roman"><tspan y="-216.98" x="203.09">&#x2019;</tspan></text>
</g>
<clipPath id="cp10216">
<path transform="matrix(1,0,0,-1,0,841.92)" d="M .000008871 0 L 595.32 0 L 595.32 841.92 L .000008871 841.92 Z " fill-rule="evenodd"/>
</clipPath>
<g clip-path="url(#cp10216)">
<text xml:space="preserve" transform="matrix(1 0 -0 1 0 841.92)" font-size="14.04" font-family="Times New Roman"><tspan y="-216.98" x="207.77 211.71524 218.77736 229.4618 234.36176 241.42388 247.65764 252.33296 258.5667 269.2652 275.49897 279.44419 284.1195 288.06474 294.2985 298.97383 302.48384 307.36976 314.3336 321.3957 326.8011 337.59785 343.8316 350.90776 357.1415 364.21766 369.1176 375.23905 382.30116 386.1481 393.2102 399.44398 404.00697 407.95219 413.35758 420.41969 425.20735 432.26945 438.39088 445.3547 452.4168 459.4789 464.26658 471.32868 477.4501 481.39533 485.34056 491.46199 496.1373 501.0513 508.01515 511.96037 518.0818 525.1439 532.20608 538.3275 545.2914 552.3535 556.2005 559.5561">lum parametrlar, bosmadan chiqarish uchun betlar diapozoni, </tspan></text>
</g>
<clipPath id="cp10217">
<path transform="matrix(1,0,0,-1,0,841.92)" d="M .000008871 0 L 595.32 0 L 595.32 841.92 L .000008871 841.92 Z " fill-rule="evenodd"/>
</clipPath>
<g clip-path="url(#cp10217)">
<text xml:space="preserve" transform="matrix(1 0 -0 1 0 841.92)" font-size="14.04" font-family="Times New Roman"><tspan y="-192.86" x="85.104 92.166118 99.12995 104.535358 111.59747 117.83123 121.34123 131.9976 135.94284 143.00496 150.06708 157.03092 161.70624 165.65148 169.00704 176.06916 182.30292 185.81291 192.83292 196.23059 203.29271 206.64827 210.15827 217.17827 223.41204 230.43204 234.25092 241.31304 247.5468 251.0568 258.07679 268.7893 275.97779 286.66224 290.60746 297.44493 300.95494 307.1887 314.20869 321.3129 328.27674 332.95207 340.0282 343.87516 350.839 354.7842 358.29423 365.22999 369.1752 373.85054 377.69749 381.54444 385.48966 392.55177 396.06178 399.51564 405.63706 412.69917 419.663 426.7251 430.2351 436.32847 440.27369 444.12065 449.52604 456.58815 460.4351 467.39894 474.46104 478.40626 484.64 488.15003 498.8064 505.99488 516.67929 523.7414 527.68667 534.7488">nusxa miqdori va h.k. haqida umumiy axborotni kiritib, chop etishingiz mumkin.</tspan></text>
</g>
<clipPath id="cp10218">
<path transform="matrix(1,0,0,-1,0,841.92)" d="M .000008871 0 L 595.32 0 L 595.32 841.92 L .000008871 841.92 Z " fill-rule="evenodd"/>
</clipPath>
<g clip-path="url(#cp10218)">
<text xml:space="preserve" transform="matrix(1 0 -0 1 0 841.92)" font-size="14.04" font-family="Times New Roman,Bold" font-weight="bold"><tspan y="-192.86" x="538.54"> </tspan></text>
</g>
</g>
<g id="Layer-1" data-name="P">
<clipPath id="cp10219">
<path transform="matrix(1,0,0,-1,0,841.92)" d="M .000008871 0 L 595.32 0 L 595.32 841.92 L .000008871 841.92 Z " fill-rule="evenodd"/>
</clipPath>
<g clip-path="url(#cp10219)">
<text xml:space="preserve" transform="matrix(1 0 -0 1 0 841.92)" font-size="14.04" font-family="Times New Roman"><tspan y="-168.74" x="113.42 123.50072 130.56284 134.40979 138.25675 144.49051 148.43575 155.39958 159.34482 164.37114 175.05559">Hujjatni ma</tspan></text>
</g>
<clipPath id="cp10220">
<path transform="matrix(1,0,0,-1,0,841.92)" d="M .000008871 0 L 595.32 0 L 595.32 841.92 L .000008871 841.92 Z " fill-rule="evenodd"/>
</clipPath>
<g clip-path="url(#cp10220)">
<text xml:space="preserve" transform="matrix(1 0 -0 1 0 841.92)" font-size="14.04" font-family="Times New Roman"><tspan y="-168.74" x="181.34">&#x2019;</tspan></text>
</g>
<clipPath id="cp10221">
<path transform="matrix(1,0,0,-1,0,841.92)" d="M .000008871 0 L 595.32 0 L 595.32 841.92 L .000008871 841.92 Z " fill-rule="evenodd"/>
</clipPath>
<g clip-path="url(#cp10221)">
<text xml:space="preserve" transform="matrix(1 0 -0 1 0 841.92)" font-size="14.04" font-family="Times New Roman"><tspan y="-168.74" x="185.9 189.84523 197.03372 207.71817 214.78029 218.72553 223.62548 230.68759 234.53455 239.20987 243.1551 247.00206 253.23583 260.08735 267.14945 271.09468 278.15678 284.2782 291.24205 298.30415 304.5379 309.4519 313.39714 319.51856 326.4824 333.5445 337.48973">lumot kiritayotganda ichki </tspan></text>
</g>
<clipPath id="cp10222">
<path transform="matrix(1,0,0,-1,0,841.92)" d="M .000008871 0 L 595.32 0 L 595.32 841.92 L .000008871 841.92 Z " fill-rule="evenodd"/>
</clipPath>
<g clip-path="url(#cp10222)">
<text xml:space="preserve" transform="matrix(1 0 -0 1 0 841.92)" font-size="14.04" font-family="Times New Roman"><tspan y="-168.74" x="342.67 349.63386 356.5977 360.5429 364.48814 369.05113 375.28489 382.36103 388.5948 393.5088 404.19325">xotiraga ma</tspan></text>
</g>
<clipPath id="cp10223">
<path transform="matrix(1,0,0,-1,0,841.92)" d="M .000008871 0 L 595.32 0 L 595.32 841.92 L .000008871 841.92 Z " fill-rule="evenodd"/>
</clipPath>
<g clip-path="url(#cp10223)">
<text xml:space="preserve" transform="matrix(1 0 -0 1 0 841.92)" font-size="14.04" font-family="Times New Roman"><tspan y="-168.74" x="410.47">&#x2019;</tspan></text>
</g>
<clipPath id="cp10224">
<path transform="matrix(1,0,0,-1,0,841.92)" d="M .000008871 0 L 595.32 0 L 595.32 841.92 L .000008871 841.92 Z " fill-rule="evenodd"/>
</clipPath>
<g clip-path="url(#cp10224)">
<text xml:space="preserve" transform="matrix(1 0 -0 1 0 841.92)" font-size="14.04" font-family="Times New Roman"><tspan y="-168.74" x="415.03 418.97523 426.1637 436.84815 443.91026 447.85548 452.75544 458.2591 464.49287 471.4567 475.30366 481.5374 488.61357 494.735 501.7971 505.7423 509.25233 514.1242 524.20498 531.2671 535.1141 538.96109 545.1948 549.0418 556.0057 559.85269">lumot saqlanadi. Hujjatni </tspan></text>
</g>
<clipPath id="cp10225">
<path transform="matrix(1,0,0,-1,0,841.92)" d="M .000008871 0 L 595.32 0 L 595.32 841.92 L .000008871 841.92 Z " fill-rule="evenodd"/>
</clipPath>
<g clip-path="url(#cp10225)">
</g>
<clipPath id="cp10226">
<path transform="matrix(1,0,0,-1,0,841.92)" d="M .000008871 0 L 595.32 0 L 595.32 841.92 L .000008871 841.92 Z " fill-rule="evenodd"/>
</clipPath>
<g clip-path="url(#cp10226)">
<text xml:space="preserve" transform="matrix(1 0 -0 1 0 841.92)" font-size="14.04" font-family="Times New Roman"><tspan y="-144.5" x="85.104 91.941478 98.17523 102.850559 109.08431 113.043598 116.98884 124.05096 133.4016 140.46372 146.69748 153.549 159.05268 162.99791 172.34854 179.41066 183.25762 188.66301 195.72513 202.68897 208.92273 218.39972 223.9034 230.02484 236.98868 240.93392 247.16768 252.57308 259.6352 268.98585 276.04795 282.2817 286.95704 293.09254 300.05638 304.0016 307.84855 314.81239 318.65934 328.1223 335.08616">yaratib qaysi diskda saqlash kerakligi ko</tspan></text>
</g>
<clipPath id="cp10227">
<path transform="matrix(1,0,0,-1,0,841.92)" d="M .000008871 0 L 595.32 0 L 595.32 841.92 L .000008871 841.92 Z " fill-rule="evenodd"/>
</clipPath>
<g clip-path="url(#cp10227)">
<text xml:space="preserve" transform="matrix(1 0 -0 1 0 841.92)" font-size="14.04" font-family="Times New Roman"><tspan y="-144.5" x="342.43">&#x2019;</tspan></text>
</g>
<clipPath id="cp10228">
<path transform="matrix(1,0,0,-1,0,841.92)" d="M .000008871 0 L 595.32 0 L 595.32 841.92 L .000008871 841.92 Z " fill-rule="evenodd"/>
</clipPath>
<g clip-path="url(#cp10228)">
<text xml:space="preserve" transform="matrix(1 0 -0 1 0 841.92)" font-size="14.04" font-family="Times New Roman"><tspan y="-144.5" x="346.99 352.49366 358.72743 362.57438 366.5196 370.4648 376.58625 383.55009 387.4953 391.0053 400.4402 410.5209 417.583 421.42997 425.27693 431.51069 435.35765 442.41975 446.36497 455.7156 461.21928 467.3407 474.30455 478.24977 484.48353 489.88893 496.95103 506.30168 513.3638 519.4852 523.4305 530.39437 537.3582 542.8619 546.70889 553.6727 559.7942">satiladi. Hujjatni saqlash kelgusida </tspan></text>
</g>
<clipPath id="cp10229">
<path transform="matrix(1,0,0,-1,0,841.92)" d="M .000008871 0 L 595.32 0 L 595.32 841.92 L .000008871 841.92 Z " fill-rule="evenodd"/>
</clipPath>
<g clip-path="url(#cp10229)">
</g>
<clipPath id="cp10230">
<path transform="matrix(1,0,0,-1,0,841.92)" d="M .000008871 0 L 595.32 0 L 595.32 841.92 L .000008871 841.92 Z " fill-rule="evenodd"/>
</clipPath>
<g clip-path="url(#cp10230)">
<text xml:space="preserve" transform="matrix(1 0 -0 1 0 841.92)" font-size="14.04" font-family="Times New Roman"><tspan y="-120.38" x="85.104 92.166118 98.28755 105.34967 111.58343 118.547267 125.5111 129.45633 133.40157 138.07689 141.44649 145.39173 150.79712 157.76096 161.70619 167.93996 173.34535 180.30919 184.25443 194.93888 198.88411 205.11788 208.62787 215.64788 221.90972 228.87355 235.83739 242.8995 246.4095 252.64327 258.877 263.42597 270.48808 275.1634 278.6734">bexavotir ishlashimiz uchun zarur. </tspan></text>
</g>
</g>
<g id="Layer-1" data-name="P">
<clipPath id="cp10231">
<path transform="matrix(1,0,0,-1,0,841.92)" d="M .000008871 0 L 595.32 0 L 595.32 841.92 L .000008871 841.92 Z " fill-rule="evenodd"/>
</clipPath>
<g clip-path="url(#cp10231)">
<text xml:space="preserve" transform="matrix(1 0 -0 1 0 841.92)" font-size="14.04" font-family="Times New Roman"><tspan y="-120.38" x="282.29 294.77159 300.893 304.83824 311.90034 315.2559 322.21974 329.28184 333.12879 336.97575 343.2095 347.15473 351.09996 357.22138 361.8967 368.86054 372.80577 376.31578 381.7773 387.92686 394.8907 398.8359 404.95735 410.461 417.42485 421.37007 432.0545 435.99974 442.2335 445.7435 452.7635 459.02534 465.98918 472.953 480.0151">Matn hujjatlarni saqlashimiz uchun:</tspan></text>
</g>
</g>
<g id="Layer-1" data-name="P">
<clipPath id="cp10232">
<path transform="matrix(1,0,0,-1,0,841.92)" d="M .000008871 0 L 595.32 0 L 595.32 841.92 L .000008871 841.92 Z " fill-rule="evenodd"/>
</clipPath>
<g clip-path="url(#cp10232)">
<text xml:space="preserve" transform="matrix(1 0 -0 1 0 841.92)" font-size="14.04" font-family="Times New Roman"><tspan y="-120.38" x="484.06"> </tspan></text>
</g>
<clipPath id="cp10233">
<path transform="matrix(1,0,0,-1,0,841.92)" d="M .000008871 0 L 595.32 0 L 595.32 841.92 L .000008871 841.92 Z " fill-rule="evenodd"/>
</clipPath>
<g clip-path="url(#cp10233)">
</g>
</g>
<g id="Layer-1" data-name="P">
<clipPath id="cp10234">
<path transform="matrix(1,0,0,-1,0,841.92)" d="M .000008871 0 L 595.32 0 L 595.32 841.92 L .000008871 841.92 Z " fill-rule="evenodd"/>
</clipPath>
<g clip-path="url(#cp10234)">
<text xml:space="preserve" transform="matrix(1 0 -0 1 0 841.92)" font-size="14.04" font-family="Times New Roman"><tspan y="-96.264" x="113.42 120.5">1.</tspan></text>
</g>
<clipPath id="cp10235">
<path transform="matrix(1,0,0,-1,0,841.92)" d="M .000008871 0 L 595.32 0 L 595.32 841.92 L .000008871 841.92 Z " fill-rule="evenodd"/>
</clipPath>
<g clip-path="url(#cp10235)">
<text xml:space="preserve" transform="matrix(1 0 -0 1 0 841.92)" font-size="14.04" font-family="Arial"><tspan y="-96.264" x="123.98"> </tspan></text>
</g>
<clipPath id="cp10236">
<path transform="matrix(1,0,0,-1,0,841.92)" d="M .000008871 0 L 595.32 0 L 595.32 841.92 L .000008871 841.92 Z " fill-rule="evenodd"/>
</clipPath>
<g clip-path="url(#cp10236)">
<text xml:space="preserve" transform="matrix(1 0 -0 1 0 841.92)" font-size="14.04" font-family="Times New Roman"><tspan y="-96.264" x="127.7 137.78072 142.45604 147.13137 151.09066 157.32442 163.55818 167.06818 170.88706 177.85089 184.91301 195.59746 201.83123 207.34896 211.29419 218.25803 222.20326 225.71326 232.64902 239.71114 245.11653 248.96349 256.0256 263.0877">Office tugmasini bosing.</tspan></text>
</g>
<clipPath id="cp10237">
<path transform="matrix(1,0,0,-1,0,841.92)" d="M .000008871 0 L 595.32 0 L 595.32 841.92 L .000008871 841.92 Z " fill-rule="evenodd"/>
</clipPath>
<g clip-path="url(#cp10237)">
<text xml:space="preserve" transform="matrix(1 0 -0 1 0 841.92)" font-size="14.04" font-family="Times New Roman"><tspan y="-96.264" x="266.57"> </tspan></text>
</g>
<clipPath id="cp10238">
<path transform="matrix(1,0,0,-1,0,841.92)" d="M .000008871 0 L 595.32 0 L 595.32 841.92 L .000008871 841.92 Z " fill-rule="evenodd"/>
</clipPath>
<g clip-path="url(#cp10238)">
</g>
</g>
<g id="Layer-1" data-name="P">
<clipPath id="cp10239">
<path transform="matrix(1,0,0,-1,0,841.92)" d="M .000008871 0 L 595.32 0 L 595.32 841.92 L .000008871 841.92 Z " fill-rule="evenodd"/>
</clipPath>
<g clip-path="url(#cp10239)">
<text xml:space="preserve" transform="matrix(1 0 -0 1 0 841.92)" font-size="14.04" font-family="Times New Roman"><tspan y="-72.144" x="113.42 120.5">2.</tspan></text>
</g>
<clipPath id="cp10240">
<path transform="matrix(1,0,0,-1,0,841.92)" d="M .000008871 0 L 595.32 0 L 595.32 841.92 L .000008871 841.92 Z " fill-rule="evenodd"/>
</clipPath>
<g clip-path="url(#cp10240)">
<text xml:space="preserve" transform="matrix(1 0 -0 1 0 841.92)" font-size="14.04" font-family="Arial"><tspan y="-72.144" x="123.98"> </tspan></text>
</g>
<clipPath id="cp10241">
<path transform="matrix(1,0,0,-1,0,841.92)" d="M .000008871 0 L 595.32 0 L 595.32 841.92 L .000008871 841.92 Z " fill-rule="evenodd"/>
</clipPath>
<g clip-path="url(#cp10241)">
<text xml:space="preserve" transform="matrix(1 0 -0 1 0 841.92)" font-size="14.04" font-family="Times New Roman"><tspan y="-72.144" x="127.7 135.50624 141.74 148.70384 152.64908 158.88285 164.28824 171.35036 174.86035 178.66519 185.62903 192.69115 203.3756 209.60936 215.12709 219.07233 222.58232 229.51808 236.5802 241.9856 245.83255 252.89467 259.9568">Saqlash tugmasi bosing.</tspan></text>
</g>
<clipPath id="cp10242">
<path transform="matrix(1,0,0,-1,0,841.92)" d="M .000008871 0 L 595.32 0 L 595.32 841.92 L .000008871 841.92 Z " fill-rule="evenodd"/>
</clipPath>
<g clip-path="url(#cp10242)">
<text xml:space="preserve" transform="matrix(1 0 -0 1 0 841.92)" font-size="14.04" font-family="Times New Roman"><tspan y="-72.144" x="263.45"> </tspan></text>
</g>
<clipPath id="cp10243">
<path transform="matrix(1,0,0,-1,0,841.92)" d="M .000008871 0 L 595.32 0 L 595.32 841.92 L .000008871 841.92 Z " fill-rule="evenodd"/>
</clipPath>
<g clip-path="url(#cp10243)">
</g>
</g>
</g>
</g>
</svg>
