<?xml version="1.0" encoding="UTF-8" standalone="no"?>
<!DOCTYPE svg PUBLIC "-//W3C//DTD SVG 1.1//EN" "http://www.w3.org/Graphics/SVG/1.1/DTD/svg11.dtd">
<svg xmlns="http://www.w3.org/2000/svg" xmlns:xlink="http://www.w3.org/1999/xlink" version="1.1" width="595.32pt" height="841.92pt" viewBox="0 0 595.32 841.92">
<g enable-background="new">
<g>
<g id="Layer-1" data-name="Artifact">
<clipPath id="cp10656">
<path transform="matrix(1,0,0,-1,0,841.92)" d="M .000008871 0 L 595.32 0 L 595.32 841.92 L .000008871 841.92 Z " fill-rule="evenodd"/>
</clipPath>
<g clip-path="url(#cp10656)">
<text xml:space="preserve" transform="matrix(1 0 -0 1 0 841.92)" font-size="11.04" font-family="Calibri"><tspan y="-51.864" x="316.87 322.50999">76</tspan></text>
</g>
<clipPath id="cp10657">
<path transform="matrix(1,0,0,-1,0,841.92)" d="M .000008871 0 L 595.32 0 L 595.32 841.92 L .000008871 841.92 Z " fill-rule="evenodd"/>
</clipPath>
<g clip-path="url(#cp10657)">
<text xml:space="preserve" transform="matrix(1 0 -0 1 0 841.92)" font-size="11.04" font-family="Calibri"><tspan y="-51.864" x="328.15"> </tspan></text>
</g>
<clipPath id="cp10658">
<path transform="matrix(1,0,0,-1,0,841.92)" d="M .000008871 0 L 595.32 0 L 595.32 841.92 L .000008871 841.92 Z " fill-rule="evenodd"/>
</clipPath>
<g clip-path="url(#cp10658)">
</g>
<clipPath id="cp10659">
<path transform="matrix(1,0,0,-1,0,841.92)" d="M .000008871 0 L 595.32 0 L 595.32 841.92 L .000008871 841.92 Z " fill-rule="evenodd"/>
</clipPath>
<g clip-path="url(#cp10659)">
<text xml:space="preserve" transform="matrix(1 0 -0 1 0 841.92)" font-size="11.04" font-family="Calibri"><tspan y="-38.4" x="85.104"> </tspan></text>
</g>
<clipPath id="cp10660">
<path transform="matrix(1,0,0,-1,0,841.92)" d="M .000008871 0 L 595.32 0 L 595.32 841.92 L .000008871 841.92 Z " fill-rule="evenodd"/>
</clipPath>
<g clip-path="url(#cp10660)">
</g>
</g>
<g id="Layer-1" data-name="P">
<clipPath id="cp10661">
<path transform="matrix(1,0,0,-1,0,841.92)" d="M .000008871 0 L 595.32 0 L 595.32 841.92 L .000008871 841.92 Z " fill-rule="evenodd"/>
</clipPath>
<g clip-path="url(#cp10661)">
<text xml:space="preserve" transform="matrix(1 0 -0 1 0 841.92)" font-size="14.04" font-family="Times New Roman"><tspan y="-772.56" x="85.104 92.166118 99.22823 103.79124 109.19664 116.25876 120.204 130.88845 137.12221 144.19838 150.43215 154.37738 167.6873 174.65114 178.59638 183.15938 187.10462 194.06845 200.30222 207.26605 211.21129 224.52121 237.83113 242.50646 249.58263 256.54649 260.4917 265.16703 272.13087 276.07609 280.7514 294.06135 299.46675 303.41197 314.0964 321.1585 328.2206 332.16584 345.58808 356.27253 362.5063 369.58244 373.42939 380.4915 387.45533 391.40055 395.2475 402.3096 406.25483 419.4384 426.5005 432.73426 443.4187 450.4808 456.71458 470.0245 475.52818 479.4734 490.15785 497.21995 504.28205 508.129 512.0742 518.308 522.9833 536.2932 541.6986 548.76077 555.59829 559.44528">qo&#x2019;shimcha: birinchi  (oxirgi) simvol mavjudligi hamda simvollar soni </tspan></text>
</g>
<clipPath id="cp10662">
<path transform="matrix(1,0,0,-1,0,841.92)" d="M .000008871 0 L 595.32 0 L 595.32 841.92 L .000008871 841.92 Z " fill-rule="evenodd"/>
</clipPath>
<g clip-path="url(#cp10662)">
<text xml:space="preserve" transform="matrix(1 0 -0 1 0 841.92)" font-size="14.04" font-family="Times New Roman"><tspan y="-748.3" x="85.104 91.33775 98.41391 104.53535 111.597469 115.44443 121.678188 128.64202 135.70413 141.82558">cheklangan</tspan></text>
</g>
<clipPath id="cp10663">
<path transform="matrix(1,0,0,-1,0,841.92)" d="M .000008871 0 L 595.32 0 L 595.32 841.92 L .000008871 841.92 Z " fill-rule="evenodd"/>
</clipPath>
<g clip-path="url(#cp10663)">
<text xml:space="preserve" transform="matrix(1 0 -0 1 0 841.92)" font-size="14.04" font-family="Times New Roman"><tspan y="-748.3" x="148.94 152.78696 156.63391 163.69603 167.64127 171.15126 174.60509 179.16809 184.67177 191.73389 196.29689 202.53066 206.04065 213.06066 219.21018 226.2723 233.23613 237.18137 241.02832 247.99216 251.9374 256.6127 260.1227">ligi  (so&#x2019;z uzunligi). </tspan></text>
</g>
<clipPath id="cp10664">
<path transform="matrix(1,0,0,-1,0,841.92)" d="M .000008871 0 L 595.32 0 L 595.32 841.92 L .000008871 841.92 Z " fill-rule="evenodd"/>
</clipPath>
<g clip-path="url(#cp10664)">
<text xml:space="preserve" transform="matrix(1 0 -0 1 0 841.92)" font-size="14.04" font-family="Times New Roman"><tspan y="-748.3" x="263.69"> </tspan></text>
</g>
</g>
<g id="Layer-1" data-name="P">
<clipPath id="cp10665">
<path transform="matrix(1,0,0,-1,0,841.92)" d="M .000008871 0 L 595.32 0 L 595.32 841.92 L .000008871 841.92 Z " fill-rule="evenodd"/>
</clipPath>
<g clip-path="url(#cp10665)">
<text xml:space="preserve" transform="matrix(1 0 -0 1 0 841.92)" font-size="14.04" font-family="Times New Roman,Italic" font-style="italic"><tspan y="-724.18" x="120.5 130.58072 137.64284 141.48979 148.55191">Qator</tspan></text>
</g>
<clipPath id="cp10666">
<path transform="matrix(1,0,0,-1,0,841.92)" d="M .000008871 0 L 595.32 0 L 595.32 841.92 L .000008871 841.92 Z " fill-rule="evenodd"/>
</clipPath>
<g clip-path="url(#cp10666)">
<text xml:space="preserve" transform="matrix(1 0 -0 1 0 841.92)" font-size="14.04" font-family="Times New Roman"><tspan y="-724.18" x="154.1"> </tspan></text>
</g>
<clipPath id="cp10667">
<path transform="matrix(1,0,0,-1,0,841.92)" d="M .000008871 0 L 595.32 0 L 595.32 841.92 L .000008871 841.92 Z " fill-rule="evenodd"/>
</clipPath>
<g clip-path="url(#cp10667)">
<text xml:space="preserve" transform="matrix(1 0 -0 1 0 841.92)" font-size="14.04" font-family="Times New Roman"><tspan y="-724.18" x="159.26">&#x2014;</tspan></text>
</g>
<clipPath id="cp10668">
<path transform="matrix(1,0,0,-1,0,841.92)" d="M .000008871 0 L 595.32 0 L 595.32 841.92 L .000008871 841.92 Z " fill-rule="evenodd"/>
</clipPath>
<g clip-path="url(#cp10668)">
<text xml:space="preserve" transform="matrix(1 0 -0 1 0 841.92)" font-size="14.04" font-family="Times New Roman"><tspan y="-724.18" x="173.3"> </tspan></text>
</g>
<clipPath id="cp10669">
<path transform="matrix(1,0,0,-1,0,841.92)" d="M .000008871 0 L 595.32 0 L 595.32 841.92 L .000008871 841.92 Z " fill-rule="evenodd"/>
</clipPath>
<g clip-path="url(#cp10669)">
<text xml:space="preserve" transform="matrix(1 0 -0 1 0 841.92)" font-size="14.04" font-family="Times New Roman"><tspan y="-724.18" x="178.46 183.8654 190.92752 197.98964 203.14232 210.10616 217.16828 227.85272 231.79796 235.7432 240.89588 247.958 254.92183 261.98396 267.13664 274.10047 278.0457 281.9909 288.11235 295.17445 300.32713 304.17408 311.23619 318.2 324.43379 331.50993 337.63136 344.69346 349.84614 355.25154 359.09849 369.78294 376.84504 383.90715 387.85237 391.79759 398.03135 402.70668 407.85935 414.92146 421.04289 424.9881 435.67256">shu nomli kod bilan tugagan simvollar ketma</tspan></text>
</g>
<clipPath id="cp10670">
<path transform="matrix(1,0,0,-1,0,841.92)" d="M .000008871 0 L 595.32 0 L 595.32 841.92 L .000008871 841.92 Z " fill-rule="evenodd"/>
</clipPath>
<g clip-path="url(#cp10670)">
<text xml:space="preserve" transform="matrix(1 0 -0 1 0 841.92)" font-size="14.04" font-family="Times New Roman"><tspan y="-724.18" x="442.3">-</tspan></text>
</g>
<clipPath id="cp10671">
<path transform="matrix(1,0,0,-1,0,841.92)" d="M .000008871 0 L 595.32 0 L 595.32 841.92 L .000008871 841.92 Z " fill-rule="evenodd"/>
</clipPath>
<g clip-path="url(#cp10671)">
<text xml:space="preserve" transform="matrix(1 0 -0 1 0 841.92)" font-size="14.04" font-family="Times New Roman"><tspan y="-724.18" x="446.98 454.0421 460.27589 464.12284 468.06806 471.915 478.87886 482.82408 486.33409 491.44465 501.52537 508.58747 513.15048 518.6541 525.71627 529.6615 540.3459 546.57968 553.6558 559.8896">ketligi. Qo&#x2019;shimcha </tspan></text>
</g>
<path transform="matrix(1,0,0,-1,0,841.92)" d="M 120.5 721.9 L 154.1 721.9 L 154.1 722.62 L 120.5 722.62 Z " fill-rule="evenodd"/>
<clipPath id="cp10672">
<path transform="matrix(1,0,0,-1,0,841.92)" d="M .000008871 0 L 595.32 0 L 595.32 841.92 L .000008871 841.92 Z " fill-rule="evenodd"/>
</clipPath>
<g clip-path="url(#cp10672)">
<text xml:space="preserve" transform="matrix(1 0 -0 1 0 841.92)" font-size="14.04" font-family="Times New Roman"><tspan y="-700.06" x="85.104 92.166118 99.12995 104.535358 111.59747 117.00288 120.94812 127.7856 134.01937 137.9646 141.90984 148.1436 152.7066 156.65184 164.68271 171.74483 177.86627 181.81151 188.87363 193.54895 201.45346 208.51558 215.47942 220.88481 227.94693 231.89217 239.92304 246.98516 253.21892 261.13749 268.1996 275.16343 279.10865 283.67164 287.61686 291.12687 299.242 309.92646 316.16023 320.10545 327.16755 334.13139 340.36515 348.39604 355.45814 361.6919 365.53886 372.60096 377.27629 385.30717 389.25239 395.3738 400.04914 403.8961 407.8413 414.9034 422.9343 427.60963 433.73106 440.6949 447.041 457.72544 461.67066 465.18067 473.18348 480.24559 486.47935 490.42457 497.3884 502.06373 510.0946 517.15676 523.2782 530.34036 537.3042 541.24948 545.09646 552.0603 556.00558 559.36117">xususiyatlar: qator boshi va oxiri, matnda qator tartib raqami, qator uzunligi, </tspan></text>
</g>
<clipPath id="cp10673">
<path transform="matrix(1,0,0,-1,0,841.92)" d="M .000008871 0 L 595.32 0 L 595.32 841.92 L .000008871 841.92 Z " fill-rule="evenodd"/>
</clipPath>
<g clip-path="url(#cp10673)">
<text xml:space="preserve" transform="matrix(1 0 -0 1 0 841.92)" font-size="14.04" font-family="Times New Roman"><tspan y="-675.94" x="85.104 92.166118 98.39987 102.24683 109.30895 113.871959 120.83579 124.78104 131.74488 138.80699 142.31699 148.41036 155.47248 161.70624 168.78241 172.13797 179.20009 185.43386 188.80345 195.86557 200.42858 207.49069 214.55281 218.0628 224.29657 231.23233 237.4661 244.54227 250.66371 255.33904 261.57279 266.97819 270.9234 274.4334 285.08979 291.32356 298.3997 302.24665 309.30876 316.37086 320.2178 324.06477 331.12687 335.07209 338.5821">qatorning chap va o&#x2019;ng chegarasi mavjudligi. </tspan></text>
</g>
<clipPath id="cp10674">
<path transform="matrix(1,0,0,-1,0,841.92)" d="M .000008871 0 L 595.32 0 L 595.32 841.92 L .000008871 841.92 Z " fill-rule="evenodd"/>
</clipPath>
<g clip-path="url(#cp10674)">
<text xml:space="preserve" transform="matrix(1 0 -0 1 0 841.92)" font-size="14.04" font-family="Times New Roman"><tspan y="-675.94" x="342.19"> </tspan></text>
</g>
</g>
<g id="Layer-1" data-name="P">
<clipPath id="cp10675">
<path transform="matrix(1,0,0,-1,0,841.92)" d="M .000008871 0 L 595.32 0 L 595.32 841.92 L .000008871 841.92 Z " fill-rule="evenodd"/>
</clipPath>
<g clip-path="url(#cp10675)">
<text xml:space="preserve" transform="matrix(1 0 -0 1 0 841.92)" font-size="14.04" font-family="Times New Roman,Italic" font-style="italic"><tspan y="-651.7" x="120.5 129.02228 136.0844 141.58808 147.70952 154.67336">Parcha</tspan></text>
</g>
<clipPath id="cp10676">
<path transform="matrix(1,0,0,-1,0,841.92)" d="M .000008871 0 L 595.32 0 L 595.32 841.92 L .000008871 841.92 Z " fill-rule="evenodd"/>
</clipPath>
<g clip-path="url(#cp10676)">
<text xml:space="preserve" transform="matrix(1 0 -0 1 0 841.92)" font-size="14.04" font-family="Times New Roman"><tspan y="-651.7" x="161.78"> </tspan></text>
</g>
<clipPath id="cp10677">
<path transform="matrix(1,0,0,-1,0,841.92)" d="M .000008871 0 L 595.32 0 L 595.32 841.92 L .000008871 841.92 Z " fill-rule="evenodd"/>
</clipPath>
<g clip-path="url(#cp10677)">
<text xml:space="preserve" transform="matrix(1 0 -0 1 0 841.92)" font-size="14.04" font-family="Times New Roman"><tspan y="-651.7" x="165.26">&#x2014;</tspan></text>
</g>
<clipPath id="cp10678">
<path transform="matrix(1,0,0,-1,0,841.92)" d="M .000008871 0 L 595.32 0 L 595.32 841.92 L .000008871 841.92 Z " fill-rule="evenodd"/>
</clipPath>
<g clip-path="url(#cp10678)">
<text xml:space="preserve" transform="matrix(1 0 -0 1 0 841.92)" font-size="14.04" font-family="Times New Roman"><tspan y="-651.7" x="179.3"> </tspan></text>
</g>
<clipPath id="cp10679">
<path transform="matrix(1,0,0,-1,0,841.92)" d="M .000008871 0 L 595.32 0 L 595.32 841.92 L .000008871 841.92 Z " fill-rule="evenodd"/>
</clipPath>
<g clip-path="url(#cp10679)">
<text xml:space="preserve" transform="matrix(1 0 -0 1 0 841.92)" font-size="14.04" font-family="Times New Roman"><tspan y="-651.7" x="182.78 193.46445 199.69821 203.64345 210.70557 217.76769 221.61464 228.57848 235.6406 238.99616 246.05828 252.29204 256.139 263.10285 267.04808 270.89503 277.12879 284.20494 287.5605 294.6226 298.46955 302.41477 309.3786 316.4407 322.56214">matnning belgilab olingan</tspan></text>
</g>
<clipPath id="cp10680">
<path transform="matrix(1,0,0,-1,0,841.92)" d="M .000008871 0 L 595.32 0 L 595.32 841.92 L .000008871 841.92 Z " fill-rule="evenodd"/>
</clipPath>
<g clip-path="url(#cp10680)">
<text xml:space="preserve" transform="matrix(1 0 -0 1 0 841.92)" font-size="14.04" font-family="Times New Roman"><tspan y="-651.7" x="329.83"> </tspan></text>
</g>
<clipPath id="cp10681">
<path transform="matrix(1,0,0,-1,0,841.92)" d="M .000008871 0 L 595.32 0 L 595.32 841.92 L .000008871 841.92 Z " fill-rule="evenodd"/>
</clipPath>
<g clip-path="url(#cp10681)">
<text xml:space="preserve" transform="matrix(1 0 -0 1 0 841.92)" font-size="14.04" font-family="Times New Roman"><tspan y="-651.7" x="333.19 340.2521 344.09907 349.60273 360.39949 364.3447">qismi.</tspan></text>
</g>
<clipPath id="cp10682">
<path transform="matrix(1,0,0,-1,0,841.92)" d="M .000008871 0 L 595.32 0 L 595.32 841.92 L .000008871 841.92 Z " fill-rule="evenodd"/>
</clipPath>
<g clip-path="url(#cp10682)">
<text xml:space="preserve" transform="matrix(1 0 -0 1 0 841.92)" font-size="14.04" font-family="Times New Roman"><tspan y="-651.7" x="367.87"> </tspan></text>
</g>
<path transform="matrix(1,0,0,-1,0,841.92)" d="M 120.5 649.42 L 161.78 649.42 L 161.78 650.13998 L 120.5 650.13998 Z " fill-rule="evenodd"/>
</g>
<g id="Layer-1" data-name="P">
<clipPath id="cp10683">
<path transform="matrix(1,0,0,-1,0,841.92)" d="M .000008871 0 L 595.32 0 L 595.32 841.92 L .000008871 841.92 Z " fill-rule="evenodd"/>
</clipPath>
<g clip-path="url(#cp10683)">
<text xml:space="preserve" transform="matrix(1 0 -0 1 0 841.92)" font-size="14.04" font-family="Times New Roman,Italic" font-style="italic"><tspan y="-627.58" x="120.5 129.02228 136.0844 141.48979 148.55191 152.39887">Abzats</tspan></text>
</g>
<clipPath id="cp10684">
<path transform="matrix(1,0,0,-1,0,841.92)" d="M .000008871 0 L 595.32 0 L 595.32 841.92 L .000008871 841.92 Z " fill-rule="evenodd"/>
</clipPath>
<g clip-path="url(#cp10684)">
<text xml:space="preserve" transform="matrix(1 0 -0 1 0 841.92)" font-size="14.04" font-family="Times New Roman"><tspan y="-627.58" x="157.94"> </tspan></text>
</g>
<clipPath id="cp10685">
<path transform="matrix(1,0,0,-1,0,841.92)" d="M .000008871 0 L 595.32 0 L 595.32 841.92 L .000008871 841.92 Z " fill-rule="evenodd"/>
</clipPath>
<g clip-path="url(#cp10685)">
<text xml:space="preserve" transform="matrix(1 0 -0 1 0 841.92)" font-size="14.04" font-family="Times New Roman"><tspan y="-627.58" x="166.1">&#x2014;</tspan></text>
</g>
<clipPath id="cp10686">
<path transform="matrix(1,0,0,-1,0,841.92)" d="M .000008871 0 L 595.32 0 L 595.32 841.92 L .000008871 841.92 Z " fill-rule="evenodd"/>
</clipPath>
<g clip-path="url(#cp10686)">
<text xml:space="preserve" transform="matrix(1 0 -0 1 0 841.92)" font-size="14.04" font-family="Times New Roman"><tspan y="-627.58" x="180.02"> </tspan></text>
</g>
<clipPath id="cp10687">
<path transform="matrix(1,0,0,-1,0,841.92)" d="M .000008871 0 L 595.32 0 L 595.32 841.92 L .000008871 841.92 Z " fill-rule="evenodd"/>
</clipPath>
<g clip-path="url(#cp10687)">
<text xml:space="preserve" transform="matrix(1 0 -0 1 0 841.92)" font-size="14.04" font-family="Times New Roman"><tspan y="-627.58" x="188.18 194.30144 201.36356 207.59732 213.71877 217.664 223.16768 231.19855 238.16239 244.39615 248.34139 255.30522 259.1522 264.65586 268.60108 276.63197 283.5958 287.54103 291.38798 297.62174 304.69789 312.72877 318.96253 322.80949 327.4848 333.71858 337.56553 341.51075 345.3577 352.4198 358.54124 365.60334 373.74656 379.15196 383.09718 393.78163 400.84373 407.90583 411.75279 415.698 421.93177 426.6071 434.63798 441.70008 447.8215 451.76673 462.45118">abzats belgisi bilan ajratilgan simvollar ketma</tspan></text>
</g>
<clipPath id="cp10688">
<path transform="matrix(1,0,0,-1,0,841.92)" d="M .000008871 0 L 595.32 0 L 595.32 841.92 L .000008871 841.92 Z " fill-rule="evenodd"/>
</clipPath>
<g clip-path="url(#cp10688)">
<text xml:space="preserve" transform="matrix(1 0 -0 1 0 841.92)" font-size="14.04" font-family="Times New Roman"><tspan y="-627.58" x="469.06">-</tspan></text>
</g>
<clipPath id="cp10689">
<path transform="matrix(1,0,0,-1,0,841.92)" d="M .000008871 0 L 595.32 0 L 595.32 841.92 L .000008871 841.92 Z " fill-rule="evenodd"/>
</clipPath>
<g clip-path="url(#cp10689)">
<text xml:space="preserve" transform="matrix(1 0 -0 1 0 841.92)" font-size="14.04" font-family="Times New Roman"><tspan y="-627.58" x="473.74 480.8021 487.03587 490.98109 494.82804 498.675 505.7371 509.6823 513.1923 521.30746 531.26187 538.324 544.55776 550.6792 554.5262 559.9316">ketligi. Abzats </tspan></text>
</g>
<path transform="matrix(1,0,0,-1,0,841.92)" d="M 120.5 625.3 L 157.94 625.3 L 157.94 626.01998 L 120.5 626.01998 Z " fill-rule="evenodd"/>
<clipPath id="cp10690">
<path transform="matrix(1,0,0,-1,0,841.92)" d="M .000008871 0 L 595.32 0 L 595.32 841.92 L .000008871 841.92 Z " fill-rule="evenodd"/>
</clipPath>
<g clip-path="url(#cp10690)">
<text xml:space="preserve" transform="matrix(1 0 -0 1 0 841.92)" font-size="14.04" font-family="Times New Roman"><tspan y="-603.46" x="85.104 90.60768 94.552928 105.237369 112.299488 119.3616 123.208568 127.15381 139.49497 145.72873 152.69257 159.6564 166.71852 179.05968 185.29344 189.1404 193.08563 196.93259 207.72936 214.07544 220.91292 227.97504 231.92028 235.43027 247.8697 258.55415 264.7879 268.73313 275.79524 282.85734 289.0911 301.44633 309.84223 319.92295 328.44523 336.9675 346.33219 358.67335 362.61857 369.68067 376.74278 387.42723 393.66099 399.89476 406.9709 413.20466 418.61006 422.457 434.79817 441.86027 448.8241 454.32777 458.1747 462.11994 469.08378 475.31755 482.28138 489.34349 495.57725 507.93247 514.8963 518.84158 523.40457 527.3498 531.1968 535.142 538.989 545.1105 552.1726 556.11788 559.47348">simvoli chop etilmaydi, matnga ENTER tugmachasi bosilganda kiritiladi. </tspan></text>
</g>
<clipPath id="cp10691">
<path transform="matrix(1,0,0,-1,0,841.92)" d="M .000008871 0 L 595.32 0 L 595.32 841.92 L .000008871 841.92 Z " fill-rule="evenodd"/>
</clipPath>
<g clip-path="url(#cp10691)">
<text xml:space="preserve" transform="matrix(1 0 -0 1 0 841.92)" font-size="14.04" font-family="Times New Roman"><tspan y="-579.34" x="85.104 95.184719 102.24683 108.48059 114.71435 118.56131 123.96671 131.02883 134.87578 141.83962 148.90174 155.12145 162.08528 169.1474 173.7104 179.21408 186.17792 190.12316 200.8076 207.15369 214.2158 220.44957 226.68332 233.64716 240.611 246.11467 253.0785 258.48393 262.42915 269.2666 275.50038 279.4456 283.3908 289.62458 294.18757 298.13279 302.078 308.29774 314.41917 321.48127 327.6027 334.6648 340.88453 347.94664 354.1804 360.2878 367.3499 371.9129 378.87675 385.93885 392.15858 398.39234 405.35618 411.58995 418.66609 424.7875 429.46284 435.6966 439.54356 445.66499 450.3403 454.28553 457.79554 463.98719 470.22096 477.18479 483.41856 489.6523 493.49928 499.00294 505.11036 512.1725 519.13638 524.64 531.6039 535.45089 542.513 548.63449 555.5983 559.4453">Abzatsning qo&#x2019;shimcha xususiyatlari: chap va o&#x2019;ng chegaralari, abzats boshidagi </tspan></text>
</g>
<clipPath id="cp10692">
<path transform="matrix(1,0,0,-1,0,841.92)" d="M .000008871 0 L 595.32 0 L 595.32 841.92 L .000008871 841.92 Z " fill-rule="evenodd"/>
</clipPath>
<g clip-path="url(#cp10692)">
<text xml:space="preserve" transform="matrix(1 0 -0 1 0 841.92)" font-size="14.04" font-family="Times New Roman"><tspan y="-555.07" x="85.104 90.60768 94.45464 98.39989 102.24685 106.09381 111.597499 118.659618 122.16962 125.4971 132.55922 138.79299 142.63994 149.70206 154.26506 158.2103 164.44406 169.11939 172.62938 178.0067 184.97054 192.03266 195.97789 199.48789 202.81536 209.87747 216.11124 219.95819 227.02031 231.58332 235.52855 241.76232 246.43764 249.80724 256.86936 261.43235 266.10768 270.0529">siljish, qatorlar soni, qatorlar o&#x2019;rta</tspan></text>
</g>
<clipPath id="cp10693">
<path transform="matrix(1,0,0,-1,0,841.92)" d="M .000008871 0 L 595.32 0 L 595.32 841.92 L .000008871 841.92 Z " fill-rule="evenodd"/>
</clipPath>
<g clip-path="url(#cp10693)">
<text xml:space="preserve" transform="matrix(1 0 -0 1 0 841.92)" font-size="14.04" font-family="Times New Roman"><tspan y="-555.07" x="276.53 281.9354 285.78236 292.84446 298.96589 306.02799 309.9732 313.32878 317.274 324.23783 328.18305 334.4168 338.9798 346.0419 352.27568 356.2209 359.7309 363.05839 370.12049 376.35426 381.02958 387.16508 394.1289 401.191 407.31245 414.37455 418.31977 421.82978 425.6346 432.69673 439.53419 443.4794 449.71318 456.7893 460.63627 466.04167 473.10377 477.04899">sidagi interval, varaqdagi joylanishi.</tspan></text>
</g>
<clipPath id="cp10694">
<path transform="matrix(1,0,0,-1,0,841.92)" d="M .000008871 0 L 595.32 0 L 595.32 841.92 L .000008871 841.92 Z " fill-rule="evenodd"/>
</clipPath>
<g clip-path="url(#cp10694)">
<text xml:space="preserve" transform="matrix(1 0 -0 1 0 841.92)" font-size="14.04" font-family="Times New Roman"><tspan y="-555.07" x="480.7"> </tspan></text>
</g>
</g>
<g id="Layer-1" data-name="P">
<clipPath id="cp10695">
<path transform="matrix(1,0,0,-1,0,841.92)" d="M .000008871 0 L 595.32 0 L 595.32 841.92 L .000008871 841.92 Z " fill-rule="evenodd"/>
</clipPath>
<g clip-path="url(#cp10695)">
<text xml:space="preserve" transform="matrix(1 0 -0 1 0 841.92)" font-size="14.04" font-family="Times New Roman,Italic" font-style="italic"><tspan y="-530.95" x="120.5 127.56212 134.52596 141.48979 145.43503 149.28199">Sahifa</tspan></text>
</g>
<clipPath id="cp10696">
<path transform="matrix(1,0,0,-1,0,841.92)" d="M .000008871 0 L 595.32 0 L 595.32 841.92 L .000008871 841.92 Z " fill-rule="evenodd"/>
</clipPath>
<g clip-path="url(#cp10696)">
<text xml:space="preserve" transform="matrix(1 0 -0 1 0 841.92)" font-size="14.04" font-family="Times New Roman"><tspan y="-530.95" x="156.38"> </tspan></text>
</g>
<clipPath id="cp10697">
<path transform="matrix(1,0,0,-1,0,841.92)" d="M .000008871 0 L 595.32 0 L 595.32 841.92 L .000008871 841.92 Z " fill-rule="evenodd"/>
</clipPath>
<g clip-path="url(#cp10697)">
<text xml:space="preserve" transform="matrix(1 0 -0 1 0 841.92)" font-size="14.04" font-family="Times New Roman"><tspan y="-530.95" x="161.9">&#x2014;</tspan></text>
</g>
<clipPath id="cp10698">
<path transform="matrix(1,0,0,-1,0,841.92)" d="M .000008871 0 L 595.32 0 L 595.32 841.92 L .000008871 841.92 Z " fill-rule="evenodd"/>
</clipPath>
<g clip-path="url(#cp10698)">
<text xml:space="preserve" transform="matrix(1 0 -0 1 0 841.92)" font-size="14.04" font-family="Times New Roman"><tspan y="-530.95" x="175.94"> </tspan></text>
</g>
<clipPath id="cp10699">
<path transform="matrix(1,0,0,-1,0,841.92)" d="M .000008871 0 L 595.32 0 L 595.32 841.92 L .000008871 841.92 Z " fill-rule="evenodd"/>
</clipPath>
<g clip-path="url(#cp10699)">
<text xml:space="preserve" transform="matrix(1 0 -0 1 0 841.92)" font-size="14.04" font-family="Times New Roman"><tspan y="-530.95" x="181.46 188.52213 195.58425 201.08792 206.49332 212.72708 219.69092 223.63616 228.31148 234.54524 239.9366 246.99872 253.96256 260.9264 264.8716 270.3753 277.4374 281.28437 285.22959 291.351 298.41313 303.9168 307.86204 314.82588 321.88798 328.0094 331.95463 335.80158 342.03535 348.99919 355.963 363.02513 369.14656 376.20866 380.15388 385.65757 392.71968 398.8411 402.68806 409.75016 414.42549 418.27244 424.5062 429.18153 434.69926 438.64448 445.70658 450.26957 457.2334 461.17863 467.41239 478.22319 482.1684 485.6784 491.15403 501.23475 508.29685 512.85989 518.3635 525.42568 529.3709 540.0553 546.28909 553.36526 559.4867">bu sahifa kodi bilan tugallanuvchi qatorlar to&#x2019;plami. Qo&#x2019;shimcha </tspan></text>
</g>
<path transform="matrix(1,0,0,-1,0,841.92)" d="M 120.5 528.67 L 156.38 528.67 L 156.38 529.38998 L 120.5 529.38998 Z " fill-rule="evenodd"/>
<clipPath id="cp10700">
<path transform="matrix(1,0,0,-1,0,841.92)" d="M .000008871 0 L 595.32 0 L 595.32 841.92 L .000008871 841.92 Z " fill-rule="evenodd"/>
</clipPath>
<g clip-path="url(#cp10700)">
<text xml:space="preserve" transform="matrix(1 0 -0 1 0 841.92)" font-size="14.04" font-family="Times New Roman"><tspan y="-506.83" x="85.104 92.166118 99.12995 104.535358 111.59747 117.00288 120.94812 127.7856 134.01937 137.9646 141.90984 148.1436 152.7066 156.65184 160.59708 163.95264 169.45632 175.57776 182.63988 186.58512 191.14812 197.38188 200.89188 204.71076 210.94452 215.61985 219.4668 223.41204 230.47415 233.98415 238.65947 244.75284 251.81496 258.0487 268.73316 272.67839 276.1884 279.64225 285.1459 291.37968 298.3435 302.28874 306.96406 313.08549 320.14759 326.269 333.33113 337.27635 340.6319 347.694 353.81544 357.76066 364.82276 369.38575 373.33097 379.56474 384.24006 387.60966 393.1133 400.07716 407.041 410.9862 414.49623">xususiyatlari: sahifa tartib raqami, sahifadagi qatorlar soni. </tspan></text>
</g>
<clipPath id="cp10701">
<path transform="matrix(1,0,0,-1,0,841.92)" d="M .000008871 0 L 595.32 0 L 595.32 841.92 L .000008871 841.92 Z " fill-rule="evenodd"/>
</clipPath>
<g clip-path="url(#cp10701)">
<text xml:space="preserve" transform="matrix(1 0 -0 1 0 841.92)" font-size="14.04" font-family="Times New Roman"><tspan y="-506.83" x="418.39"> </tspan></text>
</g>
</g>
<g id="Layer-1" data-name="P">
<clipPath id="cp10702">
<path transform="matrix(1,0,0,-1,0,841.92)" d="M .000008871 0 L 595.32 0 L 595.32 841.92 L .000008871 841.92 Z " fill-rule="evenodd"/>
</clipPath>
<g clip-path="url(#cp10702)">
<text xml:space="preserve" transform="matrix(1 0 -0 1 0 841.92)" font-size="14.04" font-family="Times New Roman"><tspan y="-482.71" x="120.5 130.58072 136.0844 143.04824 148.55191 152.49715 159.33463 165.55434 172.61646 176.56169 183.52553 190.58765 196.70909 200.65433 206.87404 213.83788 220.9 225.463 231.69676 238.77294 242.61989">Asosiy global ob&#x2019;ekt </tspan></text>
</g>
<clipPath id="cp10703">
<path transform="matrix(1,0,0,-1,0,841.92)" d="M .000008871 0 L 595.32 0 L 595.32 841.92 L .000008871 841.92 Z " fill-rule="evenodd"/>
</clipPath>
<g clip-path="url(#cp10703)">
<text xml:space="preserve" transform="matrix(1 0 -0 1 0 841.92)" font-size="14.04" font-family="Times New Roman"><tspan y="-482.71" x="249.05">&#x2014;</tspan></text>
</g>
<clipPath id="cp10704">
<path transform="matrix(1,0,0,-1,0,841.92)" d="M .000008871 0 L 595.32 0 L 595.32 841.92 L .000008871 841.92 Z " fill-rule="evenodd"/>
</clipPath>
<g clip-path="url(#cp10704)">
<text xml:space="preserve" transform="matrix(1 0 -0 1 0 841.92)" font-size="14.04" font-family="Times New Roman"><tspan y="-482.71" x="263.09"> </tspan></text>
</g>
<clipPath id="cp10705">
<path transform="matrix(1,0,0,-1,0,841.92)" d="M .000008871 0 L 595.32 0 L 595.32 841.92 L .000008871 841.92 Z " fill-rule="evenodd"/>
</clipPath>
<g clip-path="url(#cp10705)">
<text xml:space="preserve" transform="matrix(1 0 -0 1 0 841.92)" font-size="14.04" font-family="Times New Roman"><tspan y="-482.71" x="269.45 280.13447 286.36824 290.31346 297.37556 304.3394 308.2846 315.24845 322.31056 328.53028 335.59239 340.15538 346.38914 350.23609 357.2982 361.14515 365.82048 369.33049 375.53617 385.61689 392.679 397.24198 402.74565 409.80775 413.75297 424.4374 430.67118 437.7473 443.98109 450.21485 457.27696 464.24079 469.64619 476.70829 482.11369 486.0589 492.89637 499.13014 503.07536 507.02058 513.25436 517.8173 521.7626 525.7078 531.92758 542.61196 548.8457 552.6927 559.65658">matnning o&#x2019;zidir. Qo&#x2019;shimcha xususiyatlari: matn </tspan></text>
</g>
<clipPath id="cp10706">
<path transform="matrix(1,0,0,-1,0,841.92)" d="M .000008871 0 L 595.32 0 L 595.32 841.92 L .000008871 841.92 Z " fill-rule="evenodd"/>
</clipPath>
<g clip-path="url(#cp10706)">
<text xml:space="preserve" transform="matrix(1 0 -0 1 0 841.92)" font-size="14.04" font-family="Times New Roman"><tspan y="-458.47" x="85.104 92.166118 99.12995 104.535358 111.59747 115.54272 118.89828">boshi v</tspan></text>
</g>
<clipPath id="cp10707">
<path transform="matrix(1,0,0,-1,0,841.92)" d="M .000008871 0 L 595.32 0 L 595.32 841.92 L .000008871 841.92 Z " fill-rule="evenodd"/>
</clipPath>
<g clip-path="url(#cp10707)">
<text xml:space="preserve" transform="matrix(1 0 -0 1 0 841.92)" font-size="14.04" font-family="Times New Roman"><tspan y="-458.47" x="126.02 132.25376 135.76375 142.69951 149.66335 153.60858 158.2839 162.22914 165.73914 169.19297 179.87741 186.11118 190.05641 197.11853 204.08237 210.31613 217.3923 221.33754 224.6931 231.75522 237.87667 241.8219 248.78574 253.46106 257.40629 263.5277 268.20304 271.71305 277.09037 284.15248 291.1163 295.06153 298.57154 302.0254 312.70985 318.9436 322.88883 329.95094 336.91477 340.76173 347.82383 354.88594 358.2415 365.3036 371.53736 376.21269 382.34819 389.312 396.3741 402.60789 406.1179 409.93678 416.99888 423.83634 427.78157 434.01533 440.97917 444.8261 450.32978 457.2936 461.23884">a oxiri, matndagi qatorlar soni, matnning varaqda joylanishi.</tspan></text>
</g>
<clipPath id="cp10708">
<path transform="matrix(1,0,0,-1,0,841.92)" d="M .000008871 0 L 595.32 0 L 595.32 841.92 L .000008871 841.92 Z " fill-rule="evenodd"/>
</clipPath>
<g clip-path="url(#cp10708)">
<text xml:space="preserve" transform="matrix(1 0 -0 1 0 841.92)" font-size="14.04" font-family="Times New Roman"><tspan y="-458.47" x="464.98"> </tspan></text>
</g>
</g>
<g id="Layer-1" data-name="P">
<clipPath id="cp10709">
<path transform="matrix(1,0,0,-1,0,841.92)" d="M .000008871 0 L 595.32 0 L 595.32 841.92 L .000008871 841.92 Z " fill-rule="evenodd"/>
</clipPath>
<g clip-path="url(#cp10709)">
<text xml:space="preserve" transform="matrix(1 0 -0 1 0 841.92)" font-size="14.04" font-family="Times New Roman"><tspan y="-434.35" x="120.5 130.58072 137.64284 148.32729 155.51578 162.35326 169.41538 173.36061 179.59438 184.2697 191.34587 197.57964 201.08963 211.746 217.97977 221.925 228.98712 232.49712 239.43288 243.37812 248.05344 251.90039 255.84563 259.6926 265.098 272.1601 275.6701 282.60588 289.66798 293.51493 300.57704 306.69847 310.64369 316.87745 321.44044 325.38566 328.89567 335.83143 342.89353 349.731 353.6762 360.64006 366.8738 373.94996 377.7969 384.03068 390.9945 397.22828">Kompyuterga matn kiritish qoidalari quyidagicha:</tspan></text>
</g>
<clipPath id="cp10710">
<path transform="matrix(1,0,0,-1,0,841.92)" d="M .000008871 0 L 595.32 0 L 595.32 841.92 L .000008871 841.92 Z " fill-rule="evenodd"/>
</clipPath>
<g clip-path="url(#cp10710)">
<text xml:space="preserve" transform="matrix(1 0 -0 1 0 841.92)" font-size="14.04" font-family="Times New Roman"><tspan y="-434.35" x="401.35"> </tspan></text>
</g>
</g>
<g id="Layer-1" data-name="P">
<clipPath id="cp10711">
<path transform="matrix(1,0,0,-1,0,841.92)" d="M .000008871 0 L 595.32 0 L 595.32 841.92 L .000008871 841.92 Z " fill-rule="evenodd"/>
</clipPath>
<g clip-path="url(#cp10711)">
<text xml:space="preserve" transform="matrix(1 0 -0 1 0 841.92)" font-size="14.04" font-family="Wingdings"><tspan y="-410.23" x="138.5">&#xf0fc;</tspan></text>
</g>
<clipPath id="cp10712">
<path transform="matrix(1,0,0,-1,0,841.92)" d="M .000008871 0 L 595.32 0 L 595.32 841.92 L .000008871 841.92 Z " fill-rule="evenodd"/>
</clipPath>
<g clip-path="url(#cp10712)">
<text xml:space="preserve" transform="matrix(1 0 -0 1 0 841.92)" font-size="14.04" font-family="Arial"><tspan y="-410.23" x="149.54"> </tspan></text>
</g>
<clipPath id="cp10713">
<path transform="matrix(1,0,0,-1,0,841.92)" d="M .000008871 0 L 595.32 0 L 595.32 841.92 L .000008871 841.92 Z " fill-rule="evenodd"/>
</clipPath>
<g clip-path="url(#cp10713)">
<text xml:space="preserve" transform="matrix(1 0 -0 1 0 841.92)" font-size="14.04" font-family="Times New Roman"><tspan y="-410.23" x="156.5 164.30625 168.25148 178.93593 185.99805 193.06017 197.0054 200.5154 207.45116 214.51328 219.07628 224.57996 231.5438 236.21912 239.72911 243.54799 250.6101 255.28543 262.24928 268.48304 275.55918 278.91474 282.7617 289.8238 296.66127 303.72337 309.95713 313.46714 320.48713 324.47447 329.03746 332.98268 336.82963 340.77485 344.6218 350.85557 357.8194 361.76463">Simvol kursor turgan joyga kiritiladi.</tspan></text>
</g>
<clipPath id="cp10714">
<path transform="matrix(1,0,0,-1,0,841.92)" d="M .000008871 0 L 595.32 0 L 595.32 841.92 L .000008871 841.92 Z " fill-rule="evenodd"/>
</clipPath>
<g clip-path="url(#cp10714)">
<text xml:space="preserve" transform="matrix(1 0 -0 1 0 841.92)" font-size="14.04" font-family="Times New Roman"><tspan y="-410.23" x="365.35"> </tspan></text>
</g>
<clipPath id="cp10715">
<path transform="matrix(1,0,0,-1,0,841.92)" d="M .000008871 0 L 595.32 0 L 595.32 841.92 L .000008871 841.92 Z " fill-rule="evenodd"/>
</clipPath>
<g clip-path="url(#cp10715)">
</g>
</g>
<g id="Layer-1" data-name="P">
<clipPath id="cp10716">
<path transform="matrix(1,0,0,-1,0,841.92)" d="M .000008871 0 L 595.32 0 L 595.32 841.92 L .000008871 841.92 Z " fill-rule="evenodd"/>
</clipPath>
<g clip-path="url(#cp10716)">
<text xml:space="preserve" transform="matrix(1 0 -0 1 0 841.92)" font-size="14.04" font-family="Wingdings"><tspan y="-386.09" x="138.5">&#xf0fc;</tspan></text>
</g>
<clipPath id="cp10717">
<path transform="matrix(1,0,0,-1,0,841.92)" d="M .000008871 0 L 595.32 0 L 595.32 841.92 L .000008871 841.92 Z " fill-rule="evenodd"/>
</clipPath>
<g clip-path="url(#cp10717)">
<text xml:space="preserve" transform="matrix(1 0 -0 1 0 841.92)" font-size="14.04" font-family="Arial"><tspan y="-386.09" x="149.54"> </tspan></text>
</g>
<clipPath id="cp10718">
<path transform="matrix(1,0,0,-1,0,841.92)" d="M .000008871 0 L 595.32 0 L 595.32 841.92 L .000008871 841.92 Z " fill-rule="evenodd"/>
</clipPath>
<g clip-path="url(#cp10718)">
<text xml:space="preserve" transform="matrix(1 0 -0 1 0 841.92)" font-size="14.04" font-family="Times New Roman"><tspan y="-386.09" x="156.5 164.30625 168.25148 174.37293 181.43505 188.39888 195.36272 202.42484 208.6586 215.62244 221.8562 227.72492 234.68875 241.75087 246.31388 250.9892 256.49287 262.72663 266.57359 273.5374 277.38438 283.61814 290.69429 294.6395 300.38188 307.44398 314.4078 319.08314 324.48854 331.55064 336.11363 343.17573 347.12095 352.8633 359.9254 366.15919 370.8345 376.97 384.0321 387.87907 391.82429 397.56666 401.4136 408.4757 415.31318 422.37528 428.60905 434.47779 438.423 444.65678 450.89054 456.77333 463.83543 467.68238 471.52934 478.59144 484.46018 491.424 498.4861 503.16145 507.0084 512.4138 519.3777 525.2464 532.30856 538.5423 545.50619 552.47006 559.53219">Sichqoncha ko&#x2019;rsatkichi kursorni kerakli joyga tez olib borish uchun </tspan></text>
</g>
<clipPath id="cp10719">
<path transform="matrix(1,0,0,-1,0,841.92)" d="M .000008871 0 L 595.32 0 L 595.32 841.92 L .000008871 841.92 Z " fill-rule="evenodd"/>
</clipPath>
<g clip-path="url(#cp10719)">
</g>
<clipPath id="cp10720">
<path transform="matrix(1,0,0,-1,0,841.92)" d="M .000008871 0 L 595.32 0 L 595.32 841.92 L .000008871 841.92 Z " fill-rule="evenodd"/>
</clipPath>
<g clip-path="url(#cp10720)">
<text xml:space="preserve" transform="matrix(1 0 -0 1 0 841.92)" font-size="14.04" font-family="Times New Roman"><tspan y="-361.97" x="156.5 160.44524 165.85063 172.91275 176.7597 182.99347 186.84043 190.78566 194.63262 200.86638 207.83022 211.77545 215.28545 222.2212 228.45497 231.96497 242.62134 248.8551 252.80034 259.86247 263.37248 267.27558 273.50935 278.10044 282.04566 287.45106 294.51316 298.02317 301.828 308.06178 312.7371 318.97087 325.82237 332.88447 339.94657 343.79353 350.85563">ishlatiladi va matn terish jarayonida</tspan></text>
</g>
<clipPath id="cp10721">
<path transform="matrix(1,0,0,-1,0,841.92)" d="M .000008871 0 L 595.32 0 L 595.32 841.92 L .000008871 841.92 Z " fill-rule="evenodd"/>
</clipPath>
<g clip-path="url(#cp10721)">
<text xml:space="preserve" transform="matrix(1 0 -0 1 0 841.92)" font-size="14.04" font-family="Times New Roman"><tspan y="-361.97" x="357.31"> </tspan></text>
</g>
<clipPath id="cp10722">
<path transform="matrix(1,0,0,-1,0,841.92)" d="M .000008871 0 L 595.32 0 L 595.32 841.92 L .000008871 841.92 Z " fill-rule="evenodd"/>
</clipPath>
<g clip-path="url(#cp10722)">
<text xml:space="preserve" transform="matrix(1 0 -0 1 0 841.92)" font-size="14.04" font-family="Times New Roman"><tspan y="-361.97" x="360.67 367.73213 373.85356 377.79878 384.86088 390.9823 396.3877 403.4498 414.13426 420.48036 427.3178 434.3799 438.32514">qatnashmaydi.</tspan></text>
</g>
<clipPath id="cp10723">
<path transform="matrix(1,0,0,-1,0,841.92)" d="M .000008871 0 L 595.32 0 L 595.32 841.92 L .000008871 841.92 Z " fill-rule="evenodd"/>
</clipPath>
<g clip-path="url(#cp10723)">
<text xml:space="preserve" transform="matrix(1 0 -0 1 0 841.92)" font-size="14.04" font-family="Times New Roman"><tspan y="-361.97" x="441.94"> </tspan></text>
</g>
<clipPath id="cp10724">
<path transform="matrix(1,0,0,-1,0,841.92)" d="M .000008871 0 L 595.32 0 L 595.32 841.92 L .000008871 841.92 Z " fill-rule="evenodd"/>
</clipPath>
<g clip-path="url(#cp10724)">
</g>
</g>
<g id="Layer-1" data-name="P">
<clipPath id="cp10725">
<path transform="matrix(1,0,0,-1,0,841.92)" d="M .000008871 0 L 595.32 0 L 595.32 841.92 L .000008871 841.92 Z " fill-rule="evenodd"/>
</clipPath>
<g clip-path="url(#cp10725)">
<text xml:space="preserve" transform="matrix(1 0 -0 1 0 841.92)" font-size="14.04" font-family="Wingdings"><tspan y="-337.73" x="106.46">&#xf0fc;</tspan></text>
</g>
<clipPath id="cp10726">
<path transform="matrix(1,0,0,-1,0,841.92)" d="M .000008871 0 L 595.32 0 L 595.32 841.92 L .000008871 841.92 Z " fill-rule="evenodd"/>
</clipPath>
<g clip-path="url(#cp10726)">
<text xml:space="preserve" transform="matrix(1 0 -0 1 0 841.92)" font-size="14.04" font-family="Arial"><tspan y="-337.73" x="117.5"> </tspan></text>
</g>
<clipPath id="cp10727">
<path transform="matrix(1,0,0,-1,0,841.92)" d="M .000008871 0 L 595.32 0 L 595.32 841.92 L .000008871 841.92 Z " fill-rule="evenodd"/>
</clipPath>
<g clip-path="url(#cp10727)">
<text xml:space="preserve" transform="matrix(1 0 -0 1 0 841.92)" font-size="14.04" font-family="Times New Roman,Bold" font-weight="bold"><tspan y="-337.73" x="120.5 129.86469 139.9454 149.31009 158.67478">ENTER</tspan></text>
</g>
<clipPath id="cp10728">
<path transform="matrix(1,0,0,-1,0,841.92)" d="M .000008871 0 L 595.32 0 L 595.32 841.92 L .000008871 841.92 Z " fill-rule="evenodd"/>
</clipPath>
<g clip-path="url(#cp10728)">
<text xml:space="preserve" transform="matrix(1 0 -0 1 0 841.92)" font-size="14.04" font-family="Times New Roman"><tspan y="-337.73" x="168.74"> </tspan></text>
</g>
<clipPath id="cp10729">
<path transform="matrix(1,0,0,-1,0,841.92)" d="M .000008871 0 L 595.32 0 L 595.32 841.92 L .000008871 841.92 Z " fill-rule="evenodd"/>
</clipPath>
<g clip-path="url(#cp10729)">
<text xml:space="preserve" transform="matrix(1 0 -0 1 0 841.92)" font-size="14.04" font-family="Times New Roman"><tspan y="-337.73" x="172.22 176.16524 183.12908 190.1912 200.87564 207.1094 213.34317 220.41934 226.6531 232.17084 236.01779 242.98163 246.92687 250.43686 255.11219 261.34596 268.2817 274.51548 278.4607 281.9707 288.06407 295.12617 301.35993 307.48136 311.3283 316.83198 320.34199 327.27775 334.33985 338.28507 342.84806 346.695 353.7571 359.99089 363.36048 370.42259 377.3864 382.7918 386.73704 392.14244 399.20454 402.71455 408.9483 415.18208 419.73103 426.79313 431.46846">tugmachasini faqat abzats oxirida bosish zarur.</tspan></text>
</g>
<clipPath id="cp10730">
<path transform="matrix(1,0,0,-1,0,841.92)" d="M .000008871 0 L 595.32 0 L 595.32 841.92 L .000008871 841.92 Z " fill-rule="evenodd"/>
</clipPath>
<g clip-path="url(#cp10730)">
<text xml:space="preserve" transform="matrix(1 0 -0 1 0 841.92)" font-size="14.04" font-family="Times New Roman"><tspan y="-337.73" x="435.07"> </tspan></text>
</g>
</g>
<g id="Layer-1" data-name="P">
<clipPath id="cp10731">
<path transform="matrix(1,0,0,-1,0,841.92)" d="M .000008871 0 L 595.32 0 L 595.32 841.92 L .000008871 841.92 Z " fill-rule="evenodd"/>
</clipPath>
<g clip-path="url(#cp10731)">
<text xml:space="preserve" transform="matrix(1 0 -0 1 0 841.92)" font-size="14.04" font-family="Wingdings"><tspan y="-313.61" x="106.46">&#xf0fc;</tspan></text>
</g>
<clipPath id="cp10732">
<path transform="matrix(1,0,0,-1,0,841.92)" d="M .000008871 0 L 595.32 0 L 595.32 841.92 L .000008871 841.92 Z " fill-rule="evenodd"/>
</clipPath>
<g clip-path="url(#cp10732)">
<text xml:space="preserve" transform="matrix(1 0 -0 1 0 841.92)" font-size="14.04" font-family="Arial"><tspan y="-313.61" x="117.5"> </tspan></text>
</g>
<clipPath id="cp10733">
<path transform="matrix(1,0,0,-1,0,841.92)" d="M .000008871 0 L 595.32 0 L 595.32 841.92 L .000008871 841.92 Z " fill-rule="evenodd"/>
</clipPath>
<g clip-path="url(#cp10733)">
<text xml:space="preserve" transform="matrix(1 0 -0 1 0 841.92)" font-size="14.04" font-family="Times New Roman"><tspan y="-313.61" x="120.5 132.98157 139.21533 143.06229 150.1244 157.08824 161.03348 165.93343 172.99555 177.55855 182.23387 186.17911 192.30055 199.36267 205.59644 210.51044 214.35739 221.41951 228.25699 232.20223 238.43599 243.95372 250.91756 254.8628 258.70976 263.38508 267.23204 272.7357 279.7978 283.3078 288.1797 294.30113 301.36323 307.597 313.7184 317.66365 323.1673 328.06727 333.47267 337.41789 341.3631 345.08369 349.0289 354.4343 361.4964 365.34336 372.40547 376.35069 381.13835 388.20045 395.26255 399.82554 406.663 410.60823 416.11189 423.17399 428.07395 435.13606 441.3698 446.2838 456.96827 463.20204 467.14726 474.20936 481.27146 485.21669 490.11665 497.08049 501.0257 505.70103 510.61503 514.462 521.5241 532.2085 539.2706 546.2345 553.19839 559.3198">Matnni o&#x2019;rtaga joylashtirish, abzats siljishini qo&#x2019;yish va matnni bir tomonga </tspan></text>
</g>
<clipPath id="cp10734">
<path transform="matrix(1,0,0,-1,0,841.92)" d="M .000008871 0 L 595.32 0 L 595.32 841.92 L .000008871 841.92 Z " fill-rule="evenodd"/>
</clipPath>
<g clip-path="url(#cp10734)">
<text xml:space="preserve" transform="matrix(1 0 -0 1 0 841.92)" font-size="14.04" font-family="Times New Roman"><tspan y="-289.49" x="85.104 90.60768 97.6698 102.2328 106.079769 111.58345 118.64557 122.00113 129.06325 135.1847 142.24681 149.21065 156.27277">surish uchun </tspan></text>
</g>
<clipPath id="cp10735">
<path transform="matrix(1,0,0,-1,0,841.92)" d="M .000008871 0 L 595.32 0 L 595.32 841.92 L .000008871 841.92 Z " fill-rule="evenodd"/>
</clipPath>
<g clip-path="url(#cp10735)">
<text xml:space="preserve" transform="matrix(1 0 -0 1 0 841.92)" font-size="14.04" font-family="Times New Roman,Bold" font-weight="bold"><tspan y="-289.49" x="159.86">&#x00ab;</tspan></text>
</g>
</g>
<g id="Layer-1" data-name="P">
<clipPath id="cp10736">
<path transform="matrix(1,0,0,-1,0,841.92)" d="M .000008871 0 L 595.32 0 L 595.32 841.92 L .000008871 841.92 Z " fill-rule="evenodd"/>
</clipPath>
<g clip-path="url(#cp10736)">
<text xml:space="preserve" transform="matrix(1 0 -0 1 0 841.92)" font-size="14.04" font-family="Times New Roman,Bold" font-weight="bold"><tspan y="-289.49" x="166.82 177.74314 185.54938 192.49918 199.5613 205.68274">&#x041f;&#x0440;&#x043e;&#x0431;&#x0435;&#x043b;</tspan></text>
</g>
</g>
<g id="Layer-1" data-name="P">
<clipPath id="cp10737">
<path transform="matrix(1,0,0,-1,0,841.92)" d="M .000008871 0 L 595.32 0 L 595.32 841.92 L .000008871 841.92 Z " fill-rule="evenodd"/>
</clipPath>
<g clip-path="url(#cp10737)">
<text xml:space="preserve" transform="matrix(1 0 -0 1 0 841.92)" font-size="14.04" font-family="Times New Roman,Bold" font-weight="bold"><tspan y="-289.49" x="213.65">&#x00bb;</tspan></text>
</g>
</g>
<g id="Layer-1" data-name="P">
<clipPath id="cp10738">
<path transform="matrix(1,0,0,-1,0,841.92)" d="M .000008871 0 L 595.32 0 L 595.32 841.92 L .000008871 841.92 Z " fill-rule="evenodd"/>
</clipPath>
<g clip-path="url(#cp10738)">
<text xml:space="preserve" transform="matrix(1 0 -0 1 0 841.92)" font-size="14.04" font-family="Times New Roman"><tspan y="-289.49" x="220.73"> </tspan></text>
</g>
</g>
<g id="Layer-1" data-name="P">
<clipPath id="cp10739">
<path transform="matrix(1,0,0,-1,0,841.92)" d="M .000008871 0 L 595.32 0 L 595.32 841.92 L .000008871 841.92 Z " fill-rule="evenodd"/>
</clipPath>
<g clip-path="url(#cp10739)">
<text xml:space="preserve" transform="matrix(1 0 -0 1 0 841.92)" font-size="14.04" font-family="Times New Roman"><tspan y="-289.49" x="224.21 228.88533 238.12366 245.18578 249.74878 255.25246 262.31459 265.8246 269.62944 276.69154 283.529 288.2043 291.71434 295.61744 302.63743 309.6574 320.36994 326.6037 332.83747 339.9136 346.03504 351.5387 355.38566 362.44776 368.56919 375.6313 379.1413 383.81663 390.8366 397.7162 404.7783 410.89973 414.84495 421.0787 428.04255 431.8895 437.39317 444.45527 447.81083 451.75605 457.9898 464.95365 470.35905 474.30427 481.14173 487.3755 490.8855 497.11927 501.02238 505.0097 508.95494 519.63937 525.9854 532.82296 539.8851 543.8303">(Bo&#x2019;sh joy) tugmachasidan foydalanish tavsiya etilmaydi.</tspan></text>
</g>
</g>
<g id="Layer-1" data-name="P">
<clipPath id="cp10740">
<path transform="matrix(1,0,0,-1,0,841.92)" d="M .000008871 0 L 595.32 0 L 595.32 841.92 L .000008871 841.92 Z " fill-rule="evenodd"/>
</clipPath>
<g clip-path="url(#cp10740)">
<text xml:space="preserve" transform="matrix(1 0 -0 1 0 841.92)" font-size="14.04" font-family="Times New Roman"><tspan y="-289.49" x="547.54"> </tspan></text>
</g>
</g>
<g id="Layer-1" data-name="P">
<clipPath id="cp10741">
<path transform="matrix(1,0,0,-1,0,841.92)" d="M .000008871 0 L 595.32 0 L 595.32 841.92 L .000008871 841.92 Z " fill-rule="evenodd"/>
</clipPath>
<g clip-path="url(#cp10741)">
<text xml:space="preserve" transform="matrix(1 0 -0 1 0 841.92)" font-size="14.04" font-family="Wingdings"><tspan y="-265.37" x="106.46">&#xf0fc;</tspan></text>
</g>
<clipPath id="cp10742">
<path transform="matrix(1,0,0,-1,0,841.92)" d="M .000008871 0 L 595.32 0 L 595.32 841.92 L .000008871 841.92 Z " fill-rule="evenodd"/>
</clipPath>
<g clip-path="url(#cp10742)">
<text xml:space="preserve" transform="matrix(1 0 -0 1 0 841.92)" font-size="14.04" font-family="Arial"><tspan y="-265.37" x="117.5"> </tspan></text>
</g>
<clipPath id="cp10743">
<path transform="matrix(1,0,0,-1,0,841.92)" d="M .000008871 0 L 595.32 0 L 595.32 841.92 L .000008871 841.92 Z " fill-rule="evenodd"/>
</clipPath>
<g clip-path="url(#cp10743)">
<text xml:space="preserve" transform="matrix(1 0 -0 1 0 841.92)" font-size="14.04" font-family="Times New Roman"><tspan y="-265.37" x="120.5 132.98157 139.21533 143.06229 150.1244 153.6344 157.53752 163.77129 168.36237 172.20932 177.713 184.77512 188.28511 192.08995 198.32372 202.99904 209.2328 216.08432 223.14644 230.11028 233.95723 240.92107 247.15483 250.66483 257.6848 264.7048 268.6079">Matn terish jarayonida uni </tspan></text>
</g>
<clipPath id="cp10744">
<path transform="matrix(1,0,0,-1,0,841.92)" d="M .000008871 0 L 595.32 0 L 595.32 841.92 L .000008871 841.92 Z " fill-rule="evenodd"/>
</clipPath>
<g clip-path="url(#cp10744)">
<text xml:space="preserve" transform="matrix(1 0 -0 1 0 841.92)" font-size="14.04" font-family="Times New Roman"><tspan y="-265.37" x="272.21 276.05696 282.2907">tez</tspan></text>
</g>
<clipPath id="cp10745">
<path transform="matrix(1,0,0,-1,0,841.92)" d="M .000008871 0 L 595.32 0 L 595.32 841.92 L .000008871 841.92 Z " fill-rule="evenodd"/>
</clipPath>
<g clip-path="url(#cp10745)">
<text xml:space="preserve" transform="matrix(1 0 -0 1 0 841.92)" font-size="14.04" font-family="Times New Roman"><tspan y="-265.37" x="288.53">-</tspan></text>
</g>
<clipPath id="cp10746">
<path transform="matrix(1,0,0,-1,0,841.92)" d="M .000008871 0 L 595.32 0 L 595.32 841.92 L .000008871 841.92 Z " fill-rule="evenodd"/>
</clipPath>
<g clip-path="url(#cp10746)">
<text xml:space="preserve" transform="matrix(1 0 -0 1 0 841.92)" font-size="14.04" font-family="Times New Roman"><tspan y="-265.37" x="293.09 297.03523 303.26899 309.50276 313.01277 319.94853 326.91236 330.85758 334.8028 339.36579 345.59956 352.5634 358.79716 362.30717 367.7687 374.00248 381.02247 384.92558 391.08915 398.15126 401.66127 408.59703 415.65913 420.2221 427.05958 431.0048 436.50846 443.57057 447.08058 450.8854 457.9475 464.06895 468.01417 478.6986">tez xotiraga saqlab qo&#x2019;yish lozim.</tspan></text>
</g>
<clipPath id="cp10747">
<path transform="matrix(1,0,0,-1,0,841.92)" d="M .000008871 0 L 595.32 0 L 595.32 841.92 L .000008871 841.92 Z " fill-rule="evenodd"/>
</clipPath>
<g clip-path="url(#cp10747)">
<text xml:space="preserve" transform="matrix(1 0 -0 1 0 841.92)" font-size="14.04" font-family="Times New Roman"><tspan y="-265.37" x="482.5"> </tspan></text>
</g>
</g>
<g id="Layer-1" data-name="P">
<clipPath id="cp10748">
<path transform="matrix(1,0,0,-1,0,841.92)" d="M .000008871 0 L 595.32 0 L 595.32 841.92 L .000008871 841.92 Z " fill-rule="evenodd"/>
</clipPath>
<g clip-path="url(#cp10748)">
<text xml:space="preserve" transform="matrix(1 0 -0 1 0 841.92)" font-size="14.04" font-family="Wingdings"><tspan y="-241.13" x="106.46">&#xf0fc;</tspan></text>
</g>
<clipPath id="cp10749">
<path transform="matrix(1,0,0,-1,0,841.92)" d="M .000008871 0 L 595.32 0 L 595.32 841.92 L .000008871 841.92 Z " fill-rule="evenodd"/>
</clipPath>
<g clip-path="url(#cp10749)">
<text xml:space="preserve" transform="matrix(1 0 -0 1 0 841.92)" font-size="14.04" font-family="Arial"><tspan y="-241.13" x="117.5"> </tspan></text>
</g>
<clipPath id="cp10750">
<path transform="matrix(1,0,0,-1,0,841.92)" d="M .000008871 0 L 595.32 0 L 595.32 841.92 L .000008871 841.92 Z " fill-rule="evenodd"/>
</clipPath>
<g clip-path="url(#cp10750)">
<text xml:space="preserve" transform="matrix(1 0 -0 1 0 841.92)" font-size="14.04" font-family="Times New Roman"><tspan y="-241.13" x="120.5 128.30625 134.54001 141.50385 145.44908 150.1244 156.24585 160.19109 166.42485 170.98786 178.04998 184.28374 187.79373 191.69686 197.84638 202.5217 206.36865 210.31389 217.376 220.886 225.42093 231.6547 238.61853 244.96462 255.64907 259.5943 263.1043 270.1243 274.0976 280.21903 287.18287 291.12809 297.36186 301.2088 308.2709 312.94624 319.06767 326.12977 332.2512 339.3133 342.8233 349.75907 353.70429 358.26728 362.2125 366.05946 370.00468 373.9499 384.63435 390.98045 397.8179 404.88 408.82524">Sahifalarga tartib raqami klaviaturadan kiritilmaydi.</tspan></text>
</g>
<clipPath id="cp10751">
<path transform="matrix(1,0,0,-1,0,841.92)" d="M .000008871 0 L 595.32 0 L 595.32 841.92 L .000008871 841.92 Z " fill-rule="evenodd"/>
</clipPath>
<g clip-path="url(#cp10751)">
<text xml:space="preserve" transform="matrix(1 0 -0 1 0 841.92)" font-size="14.04" font-family="Times New Roman"><tspan y="-241.13" x="412.51"> </tspan></text>
</g>
</g>
<g id="Layer-1" data-name="P">
<clipPath id="cp10752">
<path transform="matrix(1,0,0,-1,0,841.92)" d="M .000008871 0 L 595.32 0 L 595.32 841.92 L .000008871 841.92 Z " fill-rule="evenodd"/>
</clipPath>
<g clip-path="url(#cp10752)">
<text xml:space="preserve" transform="matrix(1 0 -0 1 0 841.92)" font-size="14.04" font-family="Wingdings"><tspan y="-216.98" x="106.46">&#xf0fc;</tspan></text>
</g>
<clipPath id="cp10753">
<path transform="matrix(1,0,0,-1,0,841.92)" d="M .000008871 0 L 595.32 0 L 595.32 841.92 L .000008871 841.92 Z " fill-rule="evenodd"/>
</clipPath>
<g clip-path="url(#cp10753)">
<text xml:space="preserve" transform="matrix(1 0 -0 1 0 841.92)" font-size="14.04" font-family="Arial"><tspan y="-216.98" x="117.5"> </tspan></text>
</g>
<clipPath id="cp10754">
<path transform="matrix(1,0,0,-1,0,841.92)" d="M .000008871 0 L 595.32 0 L 595.32 841.92 L .000008871 841.92 Z " fill-rule="evenodd"/>
</clipPath>
<g clip-path="url(#cp10754)">
<text xml:space="preserve" transform="matrix(1 0 -0 1 0 841.92)" font-size="14.04" font-family="Times New Roman"><tspan y="-216.98" x="120.5 130.58072 137.64284 144.60668 148.55191 154.78568 158.29567 165.23143 171.4652 174.97519 181.9952 188.25704 192.82004 199.78388 206.846 210.69295 217.75507 223.87651 230.93863 234.44863 241.38439 245.32962 252.29346 256.23869 263.30079 266.65635 273.62019 280.68229 285.24528 290.74894 297.81105 301.32106 306.68434 310.62956 321.314 328.3761 335.4382 339.38343 342.73899 349.8011 356.8632 361.29985 368.1373 372.08253 377.58619 384.6483 388.1583 392.0614 398.21095 405.27305 410.67845 414.62367 421.46113 427.6949 431.2049 437.43867 441.34178 445.24488 449.14799 459.8605 466.2066 473.04408 480.23255 484.17778">Nuqta va verguldan oldin bo&#x2019;sh simvol qo&#x2019;yish tavsiya etilmaydi.</tspan></text>
</g>
<clipPath id="cp10755">
<path transform="matrix(1,0,0,-1,0,841.92)" d="M .000008871 0 L 595.32 0 L 595.32 841.92 L .000008871 841.92 Z " fill-rule="evenodd"/>
</clipPath>
<g clip-path="url(#cp10755)">
<text xml:space="preserve" transform="matrix(1 0 -0 1 0 841.92)" font-size="14.04" font-family="Times New Roman"><tspan y="-216.98" x="488.14"> </tspan></text>
</g>
</g>
<g id="Layer-1" data-name="P">
<clipPath id="cp10756">
<path transform="matrix(1,0,0,-1,0,841.92)" d="M .000008871 0 L 595.32 0 L 595.32 841.92 L .000008871 841.92 Z " fill-rule="evenodd"/>
</clipPath>
<g clip-path="url(#cp10756)">
<text xml:space="preserve" transform="matrix(1 0 -0 1 0 841.92)" font-size="14.04" font-family="Times New Roman"><tspan y="-192.86" x="120.5 129.02228 136.0844 143.04824 146.99347 152.49715 163.1816 169.41536 173.3606 180.42272 187.38655 193.62032 199.01168 206.07379 212.30756 216.98288 223.11837 230.18048 236.30193 240.14888 244.09412 250.32788 257.29173 261.13868 266.64234 273.70445 279.0958 286.05964 292.2934 299.25724 306.22108 313.28318 318.67454 322.61976 328.02516 334.98899 338.9342 345.16798 349.01493 352.86189 356.70884 362.9426 370.01875 373.8657 380.9278 387.04924 394.11134 399.5027 405.73646 411.14186 418.10569 423.60935 427.55458 434.39204 439.7834 443.7286 450.7907 457.8528 468.53727 474.77104 481.0048 488.08094 494.20237 498.14759 504.38136 508.94435 516.0065 519.9517 525.3431 532.30697 539.3691 543.93209 548.60739 552.45437 559.5165">Endi matnda harakatlanish uchun ishlatiladigan asosiy tugmachalarni ko&#x2019;rib </tspan></text>
</g>
<clipPath id="cp10757">
<path transform="matrix(1,0,0,-1,0,841.92)" d="M .000008871 0 L 595.32 0 L 595.32 841.92 L .000008871 841.92 Z " fill-rule="evenodd"/>
</clipPath>
<g clip-path="url(#cp10757)">
<text xml:space="preserve" transform="matrix(1 0 -0 1 0 841.92)" font-size="14.04" font-family="Times New Roman"><tspan y="-168.74" x="85.104 91.33775 98.41391 102.26087 109.32299 115.55675 122.408267 126.35351 130.20046 137.26258 141.20781">chiqaylik: </tspan></text>
</g>
<clipPath id="cp10758">
<path transform="matrix(1,0,0,-1,0,841.92)" d="M .000008871 0 L 595.32 0 L 595.32 841.92 L .000008871 841.92 Z " fill-rule="evenodd"/>
</clipPath>
<g clip-path="url(#cp10758)">
<text xml:space="preserve" transform="matrix(1 0 -0 1 0 841.92)" font-size="14.04" font-family="Times New Roman"><tspan y="-168.74" x="144.62"> </tspan></text>
</g>
</g>
<clipPath id="cp10759">
<path transform="matrix(1,0,0,-1,0,841.92)" d="M 93.864 132.62 L 214.364 132.62 L 214.364 156.73999 L 93.864 156.73999 Z " fill-rule="evenodd"/>
</clipPath>
<g clip-path="url(#cp10759)">
<g id="Layer-1" data-name="P">
<clipPath id="cp10760">
<path transform="matrix(1,0,0,-1,0,841.92)" d="M 93.864 132.62 L 214.364 132.62 L 214.364 156.73999 L 93.864 156.73999 Z " fill-rule="evenodd"/>
</clipPath>
<g clip-path="url(#cp10760)">
<text xml:space="preserve" transform="matrix(1 0 -0 1 0 841.92)" font-size="14.04" font-family="Times New Roman"><tspan y="-144.02" x="99.024 107.54628 114.6084 121.67052 132.35497 138.58873 144.8225 151.89867 158.13243">Tugmacha </tspan></text>
</g>
<clipPath id="cp10761">
<path transform="matrix(1,0,0,-1,0,841.92)" d="M 93.864 132.62 L 214.364 132.62 L 214.364 156.73999 L 93.864 156.73999 Z " fill-rule="evenodd"/>
</clipPath>
<g clip-path="url(#cp10761)">
<text xml:space="preserve" transform="matrix(1 0 -0 1 0 841.92)" font-size="14.04" font-family="Times New Roman"><tspan y="-144.02" x="161.66"> </tspan></text>
</g>
</g>
</g>
<clipPath id="cp10762">
<path transform="matrix(1,0,0,-1,0,841.92)" d="M 214.85 132.62 L 547.06 132.62 L 547.06 156.73999 L 214.85 156.73999 Z " fill-rule="evenodd"/>
</clipPath>
<g clip-path="url(#cp10762)">
<g id="Layer-1" data-name="P">
<clipPath id="cp10763">
<path transform="matrix(1,0,0,-1,0,841.92)" d="M 214.85 132.62 L 547.06 132.62 L 547.06 156.73999 L 214.85 156.73999 Z " fill-rule="evenodd"/>
</clipPath>
<g clip-path="url(#cp10763)">
<text xml:space="preserve" transform="matrix(1 0 -0 1 0 841.92)" font-size="14.04" font-family="Times New Roman"><tspan y="-144.02" x="220.01">V</tspan></text>
</g>
<clipPath id="cp10764">
<path transform="matrix(1,0,0,-1,0,841.92)" d="M 214.85 132.62 L 547.06 132.62 L 547.06 156.73999 L 214.85 156.73999 Z " fill-rule="evenodd"/>
</clipPath>
<g clip-path="url(#cp10764)">
<text xml:space="preserve" transform="matrix(1 0 -0 1 0 841.92)" font-size="14.04" font-family="Times New Roman"><tspan y="-144.02" x="230.09 236.32376 242.55753 246.51682 251.19214 257.31358 262.81724">azifasi</tspan></text>
</g>
<clipPath id="cp10765">
<path transform="matrix(1,0,0,-1,0,841.92)" d="M 214.85 132.62 L 547.06 132.62 L 547.06 156.73999 L 214.85 156.73999 Z " fill-rule="evenodd"/>
</clipPath>
<g clip-path="url(#cp10765)">
<text xml:space="preserve" transform="matrix(1 0 -0 1 0 841.92)" font-size="14.04" font-family="Times New Roman"><tspan y="-144.02" x="266.69"> </tspan></text>
</g>
</g>
</g>
<g id="Layer-1" data-name="P">
<path transform="matrix(1,0,0,-1,0,841.92)" d="M 93.384 156.74 L 93.864009 156.74 L 93.864009 157.22005 L 93.384 157.22005 Z " fill-rule="evenodd"/>
<path transform="matrix(1,0,0,-1,0,841.92)" d="M 93.384 156.74 L 93.864009 156.74 L 93.864009 157.22005 L 93.384 157.22005 Z " fill-rule="evenodd"/>
<path transform="matrix(1,0,0,-1,0,841.92)" d="M 93.864 156.74 L 214.48401 156.74 L 214.48401 157.22005 L 93.864 157.22005 Z " fill-rule="evenodd"/>
<path transform="matrix(1,0,0,-1,0,841.92)" d="M 214.49 156.74 L 214.97 156.74 L 214.97 157.22005 L 214.49 157.22005 Z " fill-rule="evenodd"/>
<path transform="matrix(1,0,0,-1,0,841.92)" d="M 214.97 156.74 L 547.06 156.74 L 547.06 157.22005 L 214.97 157.22005 Z " fill-rule="evenodd"/>
<path transform="matrix(1,0,0,-1,0,841.92)" d="M 547.06 156.74 L 547.54 156.74 L 547.54 157.22005 L 547.06 157.22005 Z " fill-rule="evenodd"/>
<path transform="matrix(1,0,0,-1,0,841.92)" d="M 547.06 156.74 L 547.54 156.74 L 547.54 157.22005 L 547.06 157.22005 Z " fill-rule="evenodd"/>
<path transform="matrix(1,0,0,-1,0,841.92)" d="M 93.384 132.62 L 93.864009 132.62 L 93.864009 156.73999 L 93.384 156.73999 Z " fill-rule="evenodd"/>
<path transform="matrix(1,0,0,-1,0,841.92)" d="M 214.49 132.62 L 214.97 132.62 L 214.97 156.73999 L 214.49 156.73999 Z " fill-rule="evenodd"/>
<path transform="matrix(1,0,0,-1,0,841.92)" d="M 547.06 132.62 L 547.54 132.62 L 547.54 156.73999 L 547.06 156.73999 Z " fill-rule="evenodd"/>
</g>
<clipPath id="cp10766">
<path transform="matrix(1,0,0,-1,0,841.92)" d="M 93.864 108.02 L 214.364 108.02 L 214.364 132.14 L 93.864 132.14 Z " fill-rule="evenodd"/>
</clipPath>
<g clip-path="url(#cp10766)">
<g id="Layer-1" data-name="P">
<clipPath id="cp10767">
<path transform="matrix(1,0,0,-1,0,841.92)" d="M 93.864 108.02 L 214.364 108.02 L 214.364 132.14 L 93.864 132.14 Z " fill-rule="evenodd"/>
</clipPath>
<g clip-path="url(#cp10767)">
<text xml:space="preserve" transform="matrix(1 0 -0 1 0 841.92)" font-size="14.04" font-family="Times New Roman"><tspan y="-119.42" x="99.024 106.830249 113.892368 117.73933 122.41465 126.35989 134.27846 138.95378 149.0345 155.15595 159.83127 164.50659">Shift+(Harf)</tspan></text>
</g>
<clipPath id="cp10768">
<path transform="matrix(1,0,0,-1,0,841.92)" d="M 93.864 108.02 L 214.364 108.02 L 214.364 132.14 L 93.864 132.14 Z " fill-rule="evenodd"/>
</clipPath>
<g clip-path="url(#cp10768)">
<text xml:space="preserve" transform="matrix(1 0 -0 1 0 841.92)" font-size="14.04" font-family="Times New Roman"><tspan y="-119.42" x="169.1"> </tspan></text>
</g>
</g>
</g>
<clipPath id="cp10769">
<path transform="matrix(1,0,0,-1,0,841.92)" d="M 214.85 108.02 L 547.06 108.02 L 547.06 132.14 L 214.85 132.14 Z " fill-rule="evenodd"/>
</clipPath>
<g clip-path="url(#cp10769)">
<g id="Layer-1" data-name="P">
<clipPath id="cp10770">
<path transform="matrix(1,0,0,-1,0,841.92)" d="M 214.85 108.02 L 547.06 108.02 L 547.06 132.14 L 214.85 132.14 Z " fill-rule="evenodd"/>
</clipPath>
<g clip-path="url(#cp10770)">
<text xml:space="preserve" transform="matrix(1 0 -0 1 0 841.92)" font-size="14.04" font-family="Times New Roman"><tspan y="-119.42" x="220.01 227.07212 233.30588 237.15283 241.09807 247.33184 250.70143 257.76356 263.9973 268.67265 273.2497 280.21354 284.15876 287.66877 294.47816 301.54026 307.77403 311.71925 317.12464">katta harfni yozish</tspan></text>
</g>
<clipPath id="cp10771">
<path transform="matrix(1,0,0,-1,0,841.92)" d="M 214.85 108.02 L 547.06 108.02 L 547.06 132.14 L 214.85 132.14 Z " fill-rule="evenodd"/>
</clipPath>
<g clip-path="url(#cp10771)">
<text xml:space="preserve" transform="matrix(1 0 -0 1 0 841.92)" font-size="14.04" font-family="Times New Roman"><tspan y="-119.42" x="324.19"> </tspan></text>
</g>
</g>
</g>
<g id="Layer-1" data-name="P">
<path transform="matrix(1,0,0,-1,0,841.92)" d="M 93.384 132.14 L 93.864009 132.14 L 93.864009 132.61998 L 93.384 132.61998 Z " fill-rule="evenodd"/>
<path transform="matrix(1,0,0,-1,0,841.92)" d="M 93.864 132.14 L 214.48401 132.14 L 214.48401 132.61998 L 93.864 132.61998 Z " fill-rule="evenodd"/>
<path transform="matrix(1,0,0,-1,0,841.92)" d="M 214.49 132.14 L 214.97 132.14 L 214.97 132.61998 L 214.49 132.61998 Z " fill-rule="evenodd"/>
<path transform="matrix(1,0,0,-1,0,841.92)" d="M 214.97 132.14 L 547.06 132.14 L 547.06 132.61998 L 214.97 132.61998 Z " fill-rule="evenodd"/>
<path transform="matrix(1,0,0,-1,0,841.92)" d="M 547.06 132.14 L 547.54 132.14 L 547.54 132.61998 L 547.06 132.61998 Z " fill-rule="evenodd"/>
<path transform="matrix(1,0,0,-1,0,841.92)" d="M 93.384 108.02 L 93.864009 108.02 L 93.864009 132.14 L 93.384 132.14 Z " fill-rule="evenodd"/>
<path transform="matrix(1,0,0,-1,0,841.92)" d="M 214.49 108.02 L 214.97 108.02 L 214.97 132.14 L 214.49 132.14 Z " fill-rule="evenodd"/>
<path transform="matrix(1,0,0,-1,0,841.92)" d="M 547.06 108.02 L 547.54 108.02 L 547.54 132.14 L 547.06 132.14 Z " fill-rule="evenodd"/>
</g>
<clipPath id="cp10772">
<path transform="matrix(1,0,0,-1,0,841.92)" d="M 93.864 83.304 L 214.364 83.304 L 214.364 107.424 L 93.864 107.424 Z " fill-rule="evenodd"/>
</clipPath>
<g clip-path="url(#cp10772)">
<g id="Layer-1" data-name="P">
<clipPath id="cp10773">
<path transform="matrix(1,0,0,-1,0,841.92)" d="M 93.864 83.304 L 214.364 83.304 L 214.364 107.424 L 93.864 107.424 Z " fill-rule="evenodd"/>
</clipPath>
<g clip-path="url(#cp10773)">
<text xml:space="preserve" transform="matrix(1 0 -0 1 0 841.92)" font-size="14.04" font-family="Times New Roman"><tspan y="-94.704" x="99.024 108.38868 114.62244 120.85619 127.82003 133.22542 140.28754 146.5213 152.75507 158.98883">Backspace </tspan></text>
</g>
<clipPath id="cp10774">
<path transform="matrix(1,0,0,-1,0,841.92)" d="M 93.864 83.304 L 214.364 83.304 L 214.364 107.424 L 93.864 107.424 Z " fill-rule="evenodd"/>
</clipPath>
<g clip-path="url(#cp10774)">
<text xml:space="preserve" transform="matrix(1 0 -0 1 0 841.92)" font-size="14.04" font-family="Times New Roman"><tspan y="-94.704" x="162.38"> </tspan></text>
</g>
</g>
</g>
<clipPath id="cp10775">
<path transform="matrix(1,0,0,-1,0,841.92)" d="M 214.85 83.304 L 547.06 83.304 L 547.06 107.424 L 214.85 107.424 Z " fill-rule="evenodd"/>
</clipPath>
<g clip-path="url(#cp10775)">
<g id="Layer-1" data-name="P">
<clipPath id="cp10776">
<path transform="matrix(1,0,0,-1,0,841.92)" d="M 214.85 83.304 L 547.06 83.304 L 547.06 107.424 L 214.85 107.424 Z " fill-rule="evenodd"/>
</clipPath>
<g clip-path="url(#cp10776)">
<text xml:space="preserve" transform="matrix(1 0 -0 1 0 841.92)" font-size="14.04" font-family="Times New Roman"><tspan y="-94.704" x="220.01 227.07212 234.13423 238.69724 244.10263 251.16475 255.72776 262.78987 269.02363 276.09977 279.60978 285.70314 292.76524 298.88667 305.8505 312.9126 319.14637 322.65638 326.47526 333.53736 338.10035 345.16246 351.28388 358.34599 361.856 367.21928 371.1645 381.84895 388.91105 395.97315 399.91838 406.8822 410.82743 414.33744 421.35743 425.94853 432.18229 439.14613 443.09135 447.65434 451.59956 457.00495">kursordan chapda turgan simvolni o&#x2019;chirish</tspan></text>
</g>
<clipPath id="cp10777">
<path transform="matrix(1,0,0,-1,0,841.92)" d="M 214.85 83.304 L 547.06 83.304 L 547.06 107.424 L 214.85 107.424 Z " fill-rule="evenodd"/>
</clipPath>
<g clip-path="url(#cp10777)">
<text xml:space="preserve" transform="matrix(1 0 -0 1 0 841.92)" font-size="14.04" font-family="Times New Roman"><tspan y="-94.704" x="464.26"> </tspan></text>
</g>
</g>
</g>
<g id="Layer-1" data-name="P">
<path transform="matrix(1,0,0,-1,0,841.92)" d="M 93.384 107.54 L 93.864009 107.54 L 93.864009 108.01998 L 93.384 108.01998 Z " fill-rule="evenodd"/>
<path transform="matrix(1,0,0,-1,0,841.92)" d="M 93.864 107.54 L 214.48401 107.54 L 214.48401 108.01998 L 93.864 108.01998 Z " fill-rule="evenodd"/>
<path transform="matrix(1,0,0,-1,0,841.92)" d="M 214.49 107.54 L 214.97 107.54 L 214.97 108.01998 L 214.49 108.01998 Z " fill-rule="evenodd"/>
<path transform="matrix(1,0,0,-1,0,841.92)" d="M 214.97 107.54 L 547.06 107.54 L 547.06 108.01998 L 214.97 108.01998 Z " fill-rule="evenodd"/>
<path transform="matrix(1,0,0,-1,0,841.92)" d="M 547.06 107.54 L 547.54 107.54 L 547.54 108.01998 L 547.06 108.01998 Z " fill-rule="evenodd"/>
<path transform="matrix(1,0,0,-1,0,841.92)" d="M 93.384 83.304 L 93.864009 83.304 L 93.864009 107.544 L 93.384 107.544 Z " fill-rule="evenodd"/>
<path transform="matrix(1,0,0,-1,0,841.92)" d="M 93.384 82.824 L 93.864009 82.824 L 93.864009 83.30398 L 93.384 83.30398 Z " fill-rule="evenodd"/>
<path transform="matrix(1,0,0,-1,0,841.92)" d="M 93.384 82.824 L 93.864009 82.824 L 93.864009 83.30398 L 93.384 83.30398 Z " fill-rule="evenodd"/>
<path transform="matrix(1,0,0,-1,0,841.92)" d="M 93.864 82.824 L 214.48401 82.824 L 214.48401 83.30398 L 93.864 83.30398 Z " fill-rule="evenodd"/>
<path transform="matrix(1,0,0,-1,0,841.92)" d="M 214.49 83.304 L 214.97 83.304 L 214.97 107.544 L 214.49 107.544 Z " fill-rule="evenodd"/>
<path transform="matrix(1,0,0,-1,0,841.92)" d="M 214.49 82.824 L 214.97 82.824 L 214.97 83.30398 L 214.49 83.30398 Z " fill-rule="evenodd"/>
<path transform="matrix(1,0,0,-1,0,841.92)" d="M 214.97 82.824 L 547.06 82.824 L 547.06 83.30398 L 214.97 83.30398 Z " fill-rule="evenodd"/>
<path transform="matrix(1,0,0,-1,0,841.92)" d="M 547.06 83.304 L 547.54 83.304 L 547.54 107.544 L 547.06 107.544 Z " fill-rule="evenodd"/>
<path transform="matrix(1,0,0,-1,0,841.92)" d="M 547.06 82.824 L 547.54 82.824 L 547.54 83.30398 L 547.06 83.30398 Z " fill-rule="evenodd"/>
<path transform="matrix(1,0,0,-1,0,841.92)" d="M 547.06 82.824 L 547.54 82.824 L 547.54 83.30398 L 547.06 83.30398 Z " fill-rule="evenodd"/>
</g>
</g>
</g>
</svg>
