<?xml version="1.0" encoding="UTF-8" standalone="no"?>
<!DOCTYPE svg PUBLIC "-//W3C//DTD SVG 1.1//EN" "http://www.w3.org/Graphics/SVG/1.1/DTD/svg11.dtd">
<svg xmlns="http://www.w3.org/2000/svg" xmlns:xlink="http://www.w3.org/1999/xlink" version="1.1" width="595.32pt" height="841.92pt" viewBox="0 0 595.32 841.92">
<g enable-background="new">
<g>
<g id="Layer-1" data-name="Artifact">
<clipPath id="cp10778">
<path transform="matrix(1,0,0,-1,0,841.92)" d="M .000008871 0 L 595.32 0 L 595.32 841.92 L .000008871 841.92 Z " fill-rule="evenodd"/>
</clipPath>
<g clip-path="url(#cp10778)">
<text xml:space="preserve" transform="matrix(1 0 -0 1 0 841.92)" font-size="11.04" font-family="Calibri"><tspan y="-51.864" x="316.87 322.50999">77</tspan></text>
</g>
<clipPath id="cp10779">
<path transform="matrix(1,0,0,-1,0,841.92)" d="M .000008871 0 L 595.32 0 L 595.32 841.92 L .000008871 841.92 Z " fill-rule="evenodd"/>
</clipPath>
<g clip-path="url(#cp10779)">
<text xml:space="preserve" transform="matrix(1 0 -0 1 0 841.92)" font-size="11.04" font-family="Calibri"><tspan y="-51.864" x="328.15"> </tspan></text>
</g>
<clipPath id="cp10780">
<path transform="matrix(1,0,0,-1,0,841.92)" d="M .000008871 0 L 595.32 0 L 595.32 841.92 L .000008871 841.92 Z " fill-rule="evenodd"/>
</clipPath>
<g clip-path="url(#cp10780)">
</g>
<clipPath id="cp10781">
<path transform="matrix(1,0,0,-1,0,841.92)" d="M .000008871 0 L 595.32 0 L 595.32 841.92 L .000008871 841.92 Z " fill-rule="evenodd"/>
</clipPath>
<g clip-path="url(#cp10781)">
<text xml:space="preserve" transform="matrix(1 0 -0 1 0 841.92)" font-size="11.04" font-family="Calibri"><tspan y="-38.4" x="85.104"> </tspan></text>
</g>
<clipPath id="cp10782">
<path transform="matrix(1,0,0,-1,0,841.92)" d="M .000008871 0 L 595.32 0 L 595.32 841.92 L .000008871 841.92 Z " fill-rule="evenodd"/>
</clipPath>
<g clip-path="url(#cp10782)">
</g>
</g>
<clipPath id="cp10783">
<path transform="matrix(1,0,0,-1,0,841.92)" d="M 93.864 760.56 L 214.364 760.56 L 214.364 784.68 L 93.864 784.68 Z " fill-rule="evenodd"/>
</clipPath>
<g clip-path="url(#cp10783)">
<g id="Layer-1" data-name="P">
<clipPath id="cp10784">
<path transform="matrix(1,0,0,-1,0,841.92)" d="M 93.864 760.56 L 214.364 760.56 L 214.364 784.68 L 93.864 784.68 Z " fill-rule="evenodd"/>
</clipPath>
<g clip-path="url(#cp10784)">
<text xml:space="preserve" transform="matrix(1 0 -0 1 0 841.92)" font-size="14.04" font-family="Times New Roman"><tspan y="-771.96" x="99.024 109.10472 115.33848 119.28372 125.51748 129.36443">Delete</tspan></text>
</g>
<clipPath id="cp10785">
<path transform="matrix(1,0,0,-1,0,841.92)" d="M 93.864 760.56 L 214.364 760.56 L 214.364 784.68 L 93.864 784.68 Z " fill-rule="evenodd"/>
</clipPath>
<g clip-path="url(#cp10785)">
<text xml:space="preserve" transform="matrix(1 0 -0 1 0 841.92)" font-size="14.04" font-family="Times New Roman"><tspan y="-771.96" x="135.5"> </tspan></text>
</g>
</g>
</g>
<clipPath id="cp10786">
<path transform="matrix(1,0,0,-1,0,841.92)" d="M 214.85 760.56 L 547.06 760.56 L 547.06 784.68 L 214.85 784.68 Z " fill-rule="evenodd"/>
</clipPath>
<g clip-path="url(#cp10786)">
<g id="Layer-1" data-name="P">
<clipPath id="cp10787">
<path transform="matrix(1,0,0,-1,0,841.92)" d="M 214.85 760.56 L 547.06 760.56 L 547.06 784.68 L 214.85 784.68 Z " fill-rule="evenodd"/>
</clipPath>
<g clip-path="url(#cp10787)">
<text xml:space="preserve" transform="matrix(1 0 -0 1 0 841.92)" font-size="14.04" font-family="Times New Roman"><tspan y="-771.96" x="220.01 227.07212 234.13423 238.69724 244.10263 251.16475 255.72776 262.78987 269.02363 276.09977 279.45533 286.51744 291.0804 298.14253 305.10636 312.16847 318.40223 321.77183 325.71705 332.77915 337.34214 344.40425 350.52568 357.58778 361.09779 366.46107 370.40629 381.09074 388.15284 395.21495 399.16017 406.124 410.0692 413.57923 420.5992 425.1903 431.42408 438.3879 442.33314 446.89613 450.84135 456.24674">kursordan o&#x2019;ngda turgan simvolni o&#x2019;chirish</tspan></text>
</g>
<clipPath id="cp10788">
<path transform="matrix(1,0,0,-1,0,841.92)" d="M 214.85 760.56 L 547.06 760.56 L 547.06 784.68 L 214.85 784.68 Z " fill-rule="evenodd"/>
</clipPath>
<g clip-path="url(#cp10788)">
<text xml:space="preserve" transform="matrix(1 0 -0 1 0 841.92)" font-size="14.04" font-family="Times New Roman"><tspan y="-771.96" x="463.54"> </tspan></text>
</g>
</g>
</g>
<g id="Layer-1" data-name="P">
<path transform="matrix(1,0,0,-1,0,841.92)" d="M 93.384 784.8 L 93.864009 784.8 L 93.864009 785.27999 L 93.384 785.27999 Z " fill-rule="evenodd"/>
<path transform="matrix(1,0,0,-1,0,841.92)" d="M 93.384 784.8 L 93.864009 784.8 L 93.864009 785.27999 L 93.384 785.27999 Z " fill-rule="evenodd"/>
<path transform="matrix(1,0,0,-1,0,841.92)" d="M 93.864 784.8 L 214.48401 784.8 L 214.48401 785.27999 L 93.864 785.27999 Z " fill-rule="evenodd"/>
<path transform="matrix(1,0,0,-1,0,841.92)" d="M 214.49 784.8 L 214.97 784.8 L 214.97 785.27999 L 214.49 785.27999 Z " fill-rule="evenodd"/>
<path transform="matrix(1,0,0,-1,0,841.92)" d="M 214.97 784.8 L 547.06 784.8 L 547.06 785.27999 L 214.97 785.27999 Z " fill-rule="evenodd"/>
<path transform="matrix(1,0,0,-1,0,841.92)" d="M 547.06 784.8 L 547.54 784.8 L 547.54 785.27999 L 547.06 785.27999 Z " fill-rule="evenodd"/>
<path transform="matrix(1,0,0,-1,0,841.92)" d="M 547.06 784.8 L 547.54 784.8 L 547.54 785.27999 L 547.06 785.27999 Z " fill-rule="evenodd"/>
<path transform="matrix(1,0,0,-1,0,841.92)" d="M 93.384 760.56 L 93.864009 760.56 L 93.864009 784.8 L 93.384 784.8 Z " fill-rule="evenodd"/>
<path transform="matrix(1,0,0,-1,0,841.92)" d="M 214.49 760.56 L 214.97 760.56 L 214.97 784.8 L 214.49 784.8 Z " fill-rule="evenodd"/>
<path transform="matrix(1,0,0,-1,0,841.92)" d="M 547.06 760.56 L 547.54 760.56 L 547.54 784.8 L 547.06 784.8 Z " fill-rule="evenodd"/>
</g>
<clipPath id="cp10789">
<path transform="matrix(1,0,0,-1,0,841.92)" d="M 93.864 735.94 L 214.364 735.94 L 214.364 760.084 L 93.864 760.084 Z " fill-rule="evenodd"/>
</clipPath>
<g clip-path="url(#cp10789)">
<g id="Layer-1" data-name="P">
<clipPath id="cp10790">
<path transform="matrix(1,0,0,-1,0,841.92)" d="M 93.864 735.94 L 214.364 735.94 L 214.364 760.084 L 93.864 760.084 Z " fill-rule="evenodd"/>
</clipPath>
<g clip-path="url(#cp10790)">
<text xml:space="preserve" transform="matrix(1 0 -0 1 0 841.92)" font-size="14.04" font-family="Times New Roman"><tspan y="-747.34" x="99.024 108.38868 114.62244 121.58627 127.08996 130.59996 139.09416 146.15628 152.27773">Caps Lock</tspan></text>
</g>
<clipPath id="cp10791">
<path transform="matrix(1,0,0,-1,0,841.92)" d="M 93.864 735.94 L 214.364 735.94 L 214.364 760.084 L 93.864 760.084 Z " fill-rule="evenodd"/>
</clipPath>
<g clip-path="url(#cp10791)">
<text xml:space="preserve" transform="matrix(1 0 -0 1 0 841.92)" font-size="14.04" font-family="Times New Roman"><tspan y="-747.34" x="159.26"> </tspan></text>
</g>
</g>
</g>
<clipPath id="cp10792">
<path transform="matrix(1,0,0,-1,0,841.92)" d="M 214.85 735.94 L 547.06 735.94 L 547.06 760.084 L 214.85 760.084 Z " fill-rule="evenodd"/>
</clipPath>
<g clip-path="url(#cp10792)">
<g id="Layer-1" data-name="P">
<clipPath id="cp10793">
<path transform="matrix(1,0,0,-1,0,841.92)" d="M 214.85 735.94 L 547.06 735.94 L 547.06 760.084 L 214.85 760.084 Z " fill-rule="evenodd"/>
</clipPath>
<g clip-path="url(#cp10793)">
<text xml:space="preserve" transform="matrix(1 0 -0 1 0 841.92)" font-size="14.04" font-family="Times New Roman"><tspan y="-747.34" x="220.01 224.68532 230.91909 237.99526 244.1167 248.06194 251.57193 258.5077 264.74147 268.5884 272.53364 278.7674 282.2774 289.21318 295.44694 300.12226 304.79759 308.65858 314.89234 319.56767 323.07768 330.01344 333.86039 337.70735 343.9411 351.01725 354.52726 361.33665 368.39875 374.6325 378.57774 383.98313">faqat katta harflar bilan yozish</tspan></text>
</g>
<clipPath id="cp10794">
<path transform="matrix(1,0,0,-1,0,841.92)" d="M 214.85 735.94 L 547.06 735.94 L 547.06 760.084 L 214.85 760.084 Z " fill-rule="evenodd"/>
</clipPath>
<g clip-path="url(#cp10794)">
<text xml:space="preserve" transform="matrix(1 0 -0 1 0 841.92)" font-size="14.04" font-family="Times New Roman"><tspan y="-747.34" x="391.03"> </tspan></text>
</g>
</g>
</g>
<g id="Layer-1" data-name="P">
<path transform="matrix(1,0,0,-1,0,841.92)" d="M 93.384 760.08 L 93.864009 760.08 L 93.864009 760.56 L 93.384 760.56 Z " fill-rule="evenodd"/>
<path transform="matrix(1,0,0,-1,0,841.92)" d="M 93.864 760.08 L 214.48401 760.08 L 214.48401 760.56 L 93.864 760.56 Z " fill-rule="evenodd"/>
<path transform="matrix(1,0,0,-1,0,841.92)" d="M 214.49 760.08 L 214.97 760.08 L 214.97 760.56 L 214.49 760.56 Z " fill-rule="evenodd"/>
<path transform="matrix(1,0,0,-1,0,841.92)" d="M 214.97 760.08 L 547.06 760.08 L 547.06 760.56 L 214.97 760.56 Z " fill-rule="evenodd"/>
<path transform="matrix(1,0,0,-1,0,841.92)" d="M 547.06 760.08 L 547.54 760.08 L 547.54 760.56 L 547.06 760.56 Z " fill-rule="evenodd"/>
<path transform="matrix(1,0,0,-1,0,841.92)" d="M 93.384 735.94 L 93.864009 735.94 L 93.864009 760.084 L 93.384 760.084 Z " fill-rule="evenodd"/>
<path transform="matrix(1,0,0,-1,0,841.92)" d="M 214.49 735.94 L 214.97 735.94 L 214.97 760.084 L 214.49 760.084 Z " fill-rule="evenodd"/>
<path transform="matrix(1,0,0,-1,0,841.92)" d="M 547.06 735.94 L 547.54 735.94 L 547.54 760.084 L 547.06 760.084 Z " fill-rule="evenodd"/>
</g>
<clipPath id="cp10795">
<path transform="matrix(1,0,0,-1,0,841.92)" d="M 93.864 709.66 L 214.364 709.66 L 214.364 735.45999 L 93.864 735.45999 Z " fill-rule="evenodd"/>
</clipPath>
<g clip-path="url(#cp10795)">
<g id="Layer-1" data-name="P">
<clipPath id="cp10796">
<path transform="matrix(1,0,0,-1,0,841.92)" d="M 93.864 709.66 L 214.364 709.66 L 214.364 735.45999 L 93.864 735.45999 Z " fill-rule="evenodd"/>
</clipPath>
<g clip-path="url(#cp10796)">
<text xml:space="preserve" transform="matrix(1 0 -0 1 0 841.92)" font-size="14.04" font-family="Times New Roman"><tspan y="-721.66" x="99.024 108.38868 112.33392 117.00925 120.85621">Ctrl+</tspan></text>
</g>
<clipPath id="cp10797">
<path transform="matrix(1,0,0,-1,0,841.92)" d="M 93.864 709.66 L 214.364 709.66 L 214.364 735.45999 L 93.864 735.45999 Z " fill-rule="evenodd"/>
</clipPath>
<g clip-path="url(#cp10797)">
<text xml:space="preserve" transform="matrix(1 0 -0 1 0 841.92)" font-size="14.04" font-family="Symbol"><tspan y="-721.66" x="128.78">&#xf0ac;</tspan></text>
</g>
<clipPath id="cp10798">
<path transform="matrix(1,0,0,-1,0,841.92)" d="M 93.864 709.66 L 214.364 709.66 L 214.364 735.45999 L 93.864 735.45999 Z " fill-rule="evenodd"/>
</clipPath>
<g clip-path="url(#cp10798)">
<text xml:space="preserve" transform="matrix(1 0 -0 1 0 841.92)" font-size="14.04" font-family="Times New Roman"><tspan y="-721.66" x="142.46"> </tspan></text>
</g>
</g>
</g>
<clipPath id="cp10799">
<path transform="matrix(1,0,0,-1,0,841.92)" d="M 214.85 709.66 L 547.06 709.66 L 547.06 735.45999 L 214.85 735.45999 Z " fill-rule="evenodd"/>
</clipPath>
<g clip-path="url(#cp10799)">
<g id="Layer-1" data-name="P">
<clipPath id="cp10800">
<path transform="matrix(1,0,0,-1,0,841.92)" d="M 214.85 709.66 L 547.06 709.66 L 547.06 735.45999 L 214.85 735.45999 Z " fill-rule="evenodd"/>
</clipPath>
<g clip-path="url(#cp10800)">
<text xml:space="preserve" transform="matrix(1 0 -0 1 0 841.92)" font-size="14.04" font-family="Times New Roman"><tspan y="-722.74" x="220.01 227.07212 234.13423 238.69724 244.10263 251.16475 255.72776 262.78987 266.73509 270.2451 276.33845 283.40055 289.52198 296.58409 303.5479 309.78169 313.2917 320.22746 324.17268 328.01963 331.96485 338.1986 341.5682 347.07188 354.13398 358.69697 364.93074 368.44075 373.81806 377.76329 381.7085 385.55546 389.4024 393.24937 397.19459 402.59999">kursorni chapga bitta so&#x2019;z siljitish</tspan></text>
</g>
<clipPath id="cp10801">
<path transform="matrix(1,0,0,-1,0,841.92)" d="M 214.85 709.66 L 547.06 709.66 L 547.06 735.45999 L 214.85 735.45999 Z " fill-rule="evenodd"/>
</clipPath>
<g clip-path="url(#cp10801)">
<text xml:space="preserve" transform="matrix(1 0 -0 1 0 841.92)" font-size="14.04" font-family="Times New Roman"><tspan y="-722.74" x="409.75"> </tspan></text>
</g>
</g>
</g>
<g id="Layer-1" data-name="P">
<path transform="matrix(1,0,0,-1,0,841.92)" d="M 93.384 735.46 L 93.864009 735.46 L 93.864009 735.94 L 93.384 735.94 Z " fill-rule="evenodd"/>
<path transform="matrix(1,0,0,-1,0,841.92)" d="M 93.864 735.46 L 214.48401 735.46 L 214.48401 735.94 L 93.864 735.94 Z " fill-rule="evenodd"/>
<path transform="matrix(1,0,0,-1,0,841.92)" d="M 214.49 735.46 L 214.97 735.46 L 214.97 735.94 L 214.49 735.94 Z " fill-rule="evenodd"/>
<path transform="matrix(1,0,0,-1,0,841.92)" d="M 214.97 735.46 L 547.06 735.46 L 547.06 735.94 L 214.97 735.94 Z " fill-rule="evenodd"/>
<path transform="matrix(1,0,0,-1,0,841.92)" d="M 547.06 735.46 L 547.54 735.46 L 547.54 735.94 L 547.06 735.94 Z " fill-rule="evenodd"/>
<path transform="matrix(1,0,0,-1,0,841.92)" d="M 93.384 709.66 L 93.864009 709.66 L 93.864009 735.45999 L 93.384 735.45999 Z " fill-rule="evenodd"/>
<path transform="matrix(1,0,0,-1,0,841.92)" d="M 214.49 709.66 L 214.97 709.66 L 214.97 735.45999 L 214.49 735.45999 Z " fill-rule="evenodd"/>
<path transform="matrix(1,0,0,-1,0,841.92)" d="M 547.06 709.66 L 547.54 709.66 L 547.54 735.45999 L 547.06 735.45999 Z " fill-rule="evenodd"/>
</g>
<clipPath id="cp10802">
<path transform="matrix(1,0,0,-1,0,841.92)" d="M 93.864 683.5 L 214.364 683.5 L 214.364 709.18 L 93.864 709.18 Z " fill-rule="evenodd"/>
</clipPath>
<g clip-path="url(#cp10802)">
<g id="Layer-1" data-name="P">
<clipPath id="cp10803">
<path transform="matrix(1,0,0,-1,0,841.92)" d="M 93.864 683.5 L 214.364 683.5 L 214.364 709.18 L 93.864 709.18 Z " fill-rule="evenodd"/>
</clipPath>
<g clip-path="url(#cp10803)">
<text xml:space="preserve" transform="matrix(1 0 -0 1 0 841.92)" font-size="14.04" font-family="Times New Roman"><tspan y="-695.38" x="99.024 108.38868 112.33392 117.00925 120.85621">Ctrl+</tspan></text>
</g>
<clipPath id="cp10804">
<path transform="matrix(1,0,0,-1,0,841.92)" d="M 93.864 683.5 L 214.364 683.5 L 214.364 709.18 L 93.864 709.18 Z " fill-rule="evenodd"/>
</clipPath>
<g clip-path="url(#cp10804)">
<text xml:space="preserve" transform="matrix(1 0 -0 1 0 841.92)" font-size="14.04" font-family="Symbol"><tspan y="-695.38" x="128.78">&#xf0ae;</tspan></text>
</g>
<clipPath id="cp10805">
<path transform="matrix(1,0,0,-1,0,841.92)" d="M 93.864 683.5 L 214.364 683.5 L 214.364 709.18 L 93.864 709.18 Z " fill-rule="evenodd"/>
</clipPath>
<g clip-path="url(#cp10805)">
<text xml:space="preserve" transform="matrix(1 0 -0 1 0 841.92)" font-size="14.04" font-family="Times New Roman"><tspan y="-695.38" x="142.46"> </tspan></text>
</g>
</g>
</g>
<clipPath id="cp10806">
<path transform="matrix(1,0,0,-1,0,841.92)" d="M 214.85 683.5 L 547.06 683.5 L 547.06 709.18 L 214.85 709.18 Z " fill-rule="evenodd"/>
</clipPath>
<g clip-path="url(#cp10806)">
<g id="Layer-1" data-name="P">
<clipPath id="cp10807">
<path transform="matrix(1,0,0,-1,0,841.92)" d="M 214.85 683.5 L 547.06 683.5 L 547.06 709.18 L 214.85 709.18 Z " fill-rule="evenodd"/>
</clipPath>
<g clip-path="url(#cp10807)">
<text xml:space="preserve" transform="matrix(1 0 -0 1 0 841.92)" font-size="14.04" font-family="Times New Roman"><tspan y="-696.46" x="220.01 227.07212 234.13423 238.69724 244.10263 251.16475 255.72776 262.78987 266.73509">kursorni </tspan></text>
</g>
<clipPath id="cp10808">
<path transform="matrix(1,0,0,-1,0,841.92)" d="M 214.85 683.5 L 547.06 683.5 L 547.06 709.18 L 214.85 709.18 Z " fill-rule="evenodd"/>
</clipPath>
<g clip-path="url(#cp10808)">
<text xml:space="preserve" transform="matrix(1 0 -0 1 0 841.92)" font-size="14.04" font-family="Times New Roman"><tspan y="-696.46" x="270.17 277.23213 281.7951 288.8572 295.82106 302.88316 309.1169 312.62693 319.56269 323.40965 327.35487 331.30009 337.53385 340.90345 346.4071 353.4692 358.0322 364.26597 367.77598 373.1533 377.0985 381.04374 384.8907 388.73765 392.5846 396.52983 401.9352">o&#x2019;ngga bitta so&#x2019;z siljitish</tspan></text>
</g>
<clipPath id="cp10809">
<path transform="matrix(1,0,0,-1,0,841.92)" d="M 214.85 683.5 L 547.06 683.5 L 547.06 709.18 L 214.85 709.18 Z " fill-rule="evenodd"/>
</clipPath>
<g clip-path="url(#cp10809)">
<text xml:space="preserve" transform="matrix(1 0 -0 1 0 841.92)" font-size="14.04" font-family="Times New Roman"><tspan y="-696.46" x="409.03"> </tspan></text>
</g>
</g>
</g>
<g id="Layer-1" data-name="P">
<path transform="matrix(1,0,0,-1,0,841.92)" d="M 93.384 709.18 L 93.864009 709.18 L 93.864009 709.66 L 93.384 709.66 Z " fill-rule="evenodd"/>
<path transform="matrix(1,0,0,-1,0,841.92)" d="M 93.864 709.18 L 214.48401 709.18 L 214.48401 709.66 L 93.864 709.66 Z " fill-rule="evenodd"/>
<path transform="matrix(1,0,0,-1,0,841.92)" d="M 214.49 709.18 L 214.97 709.18 L 214.97 709.66 L 214.49 709.66 Z " fill-rule="evenodd"/>
<path transform="matrix(1,0,0,-1,0,841.92)" d="M 214.97 709.18 L 547.06 709.18 L 547.06 709.66 L 214.97 709.66 Z " fill-rule="evenodd"/>
<path transform="matrix(1,0,0,-1,0,841.92)" d="M 547.06 709.18 L 547.54 709.18 L 547.54 709.66 L 547.06 709.66 Z " fill-rule="evenodd"/>
<path transform="matrix(1,0,0,-1,0,841.92)" d="M 93.384 683.5 L 93.864009 683.5 L 93.864009 709.18 L 93.384 709.18 Z " fill-rule="evenodd"/>
<path transform="matrix(1,0,0,-1,0,841.92)" d="M 214.49 683.5 L 214.97 683.5 L 214.97 709.18 L 214.49 709.18 Z " fill-rule="evenodd"/>
<path transform="matrix(1,0,0,-1,0,841.92)" d="M 547.06 683.5 L 547.54 683.5 L 547.54 709.18 L 547.06 709.18 Z " fill-rule="evenodd"/>
</g>
<clipPath id="cp10810">
<path transform="matrix(1,0,0,-1,0,841.92)" d="M 93.864 657.22 L 214.364 657.22 L 214.364 682.89999 L 93.864 682.89999 Z " fill-rule="evenodd"/>
</clipPath>
<g clip-path="url(#cp10810)">
<g id="Layer-1" data-name="P">
<clipPath id="cp10811">
<path transform="matrix(1,0,0,-1,0,841.92)" d="M 93.864 657.22 L 214.364 657.22 L 214.364 682.89999 L 93.864 682.89999 Z " fill-rule="evenodd"/>
</clipPath>
<g clip-path="url(#cp10811)">
<text xml:space="preserve" transform="matrix(1 0 -0 1 0 841.92)" font-size="14.04" font-family="Times New Roman"><tspan y="-669.1" x="99.024 108.38868 112.33392 117.00925 120.85621">Ctrl+</tspan></text>
</g>
<clipPath id="cp10812">
<path transform="matrix(1,0,0,-1,0,841.92)" d="M 93.864 657.22 L 214.364 657.22 L 214.364 682.89999 L 93.864 682.89999 Z " fill-rule="evenodd"/>
</clipPath>
<g clip-path="url(#cp10812)">
<text xml:space="preserve" transform="matrix(1 0 -0 1 0 841.92)" font-size="14.04" font-family="Symbol"><tspan y="-669.1" x="128.78">&#xf0ad;</tspan></text>
</g>
<clipPath id="cp10813">
<path transform="matrix(1,0,0,-1,0,841.92)" d="M 93.864 657.22 L 214.364 657.22 L 214.364 682.89999 L 93.864 682.89999 Z " fill-rule="evenodd"/>
</clipPath>
<g clip-path="url(#cp10813)">
<text xml:space="preserve" transform="matrix(1 0 -0 1 0 841.92)" font-size="14.04" font-family="Times New Roman"><tspan y="-669.1" x="137.18"> </tspan></text>
</g>
</g>
</g>
<clipPath id="cp10814">
<path transform="matrix(1,0,0,-1,0,841.92)" d="M 214.85 657.22 L 547.06 657.22 L 547.06 682.89999 L 214.85 682.89999 Z " fill-rule="evenodd"/>
</clipPath>
<g clip-path="url(#cp10814)">
<g id="Layer-1" data-name="P">
<clipPath id="cp10815">
<path transform="matrix(1,0,0,-1,0,841.92)" d="M 214.85 657.22 L 547.06 657.22 L 547.06 682.89999 L 214.85 682.89999 Z " fill-rule="evenodd"/>
</clipPath>
<g clip-path="url(#cp10815)">
<text xml:space="preserve" transform="matrix(1 0 -0 1 0 841.92)" font-size="14.04" font-family="Times New Roman"><tspan y="-670.18" x="220.01 227.07212 234.13423 238.69724 244.10263 251.16475 255.72776 262.78987 266.73509 270.09065 277.15275 281.09797 285.7733 289.2833 295.37666 302.43876 308.67253 314.79396 318.6409 324.14457 327.65458 334.46397 341.52607 348.58818 355.65028 360.21327 364.0602 371.1223 377.35609 380.8661 386.2434 390.09037 394.03559 397.88255 401.82777 405.6747 409.61994 415.02534">kursorni bir abzats yuqoriga siljitish</tspan></text>
</g>
<clipPath id="cp10816">
<path transform="matrix(1,0,0,-1,0,841.92)" d="M 214.85 657.22 L 547.06 657.22 L 547.06 682.89999 L 214.85 682.89999 Z " fill-rule="evenodd"/>
</clipPath>
<g clip-path="url(#cp10816)">
<text xml:space="preserve" transform="matrix(1 0 -0 1 0 841.92)" font-size="14.04" font-family="Times New Roman"><tspan y="-670.18" x="422.23"> </tspan></text>
</g>
</g>
</g>
<g id="Layer-1" data-name="P">
<path transform="matrix(1,0,0,-1,0,841.92)" d="M 93.384 683.02 L 93.864009 683.02 L 93.864009 683.5 L 93.384 683.5 Z " fill-rule="evenodd"/>
<path transform="matrix(1,0,0,-1,0,841.92)" d="M 93.864 683.02 L 214.48401 683.02 L 214.48401 683.5 L 93.864 683.5 Z " fill-rule="evenodd"/>
<path transform="matrix(1,0,0,-1,0,841.92)" d="M 214.49 683.02 L 214.97 683.02 L 214.97 683.5 L 214.49 683.5 Z " fill-rule="evenodd"/>
<path transform="matrix(1,0,0,-1,0,841.92)" d="M 214.97 683.02 L 547.06 683.02 L 547.06 683.5 L 214.97 683.5 Z " fill-rule="evenodd"/>
<path transform="matrix(1,0,0,-1,0,841.92)" d="M 547.06 683.02 L 547.54 683.02 L 547.54 683.5 L 547.06 683.5 Z " fill-rule="evenodd"/>
<path transform="matrix(1,0,0,-1,0,841.92)" d="M 93.384 657.22 L 93.864009 657.22 L 93.864009 683.01998 L 93.384 683.01998 Z " fill-rule="evenodd"/>
<path transform="matrix(1,0,0,-1,0,841.92)" d="M 214.49 657.22 L 214.97 657.22 L 214.97 683.01998 L 214.49 683.01998 Z " fill-rule="evenodd"/>
<path transform="matrix(1,0,0,-1,0,841.92)" d="M 547.06 657.22 L 547.54 657.22 L 547.54 683.01998 L 547.06 683.01998 Z " fill-rule="evenodd"/>
</g>
<clipPath id="cp10817">
<path transform="matrix(1,0,0,-1,0,841.92)" d="M 93.864 630.94 L 214.364 630.94 L 214.364 656.74 L 93.864 656.74 Z " fill-rule="evenodd"/>
</clipPath>
<g clip-path="url(#cp10817)">
<g id="Layer-1" data-name="P">
<clipPath id="cp10818">
<path transform="matrix(1,0,0,-1,0,841.92)" d="M 93.864 630.94 L 214.364 630.94 L 214.364 656.74 L 93.864 656.74 Z " fill-rule="evenodd"/>
</clipPath>
<g clip-path="url(#cp10818)">
<text xml:space="preserve" transform="matrix(1 0 -0 1 0 841.92)" font-size="14.04" font-family="Times New Roman"><tspan y="-642.94" x="99.024 108.38868 112.33392 117.00925 120.85621">Ctrl+</tspan></text>
</g>
<clipPath id="cp10819">
<path transform="matrix(1,0,0,-1,0,841.92)" d="M 93.864 630.94 L 214.364 630.94 L 214.364 656.74 L 93.864 656.74 Z " fill-rule="evenodd"/>
</clipPath>
<g clip-path="url(#cp10819)">
<text xml:space="preserve" transform="matrix(1 0 -0 1 0 841.92)" font-size="14.04" font-family="Symbol"><tspan y="-642.94" x="128.78">&#xf0af;</tspan></text>
</g>
<clipPath id="cp10820">
<path transform="matrix(1,0,0,-1,0,841.92)" d="M 93.864 630.94 L 214.364 630.94 L 214.364 656.74 L 93.864 656.74 Z " fill-rule="evenodd"/>
</clipPath>
<g clip-path="url(#cp10820)">
<text xml:space="preserve" transform="matrix(1 0 -0 1 0 841.92)" font-size="14.04" font-family="Times New Roman"><tspan y="-642.94" x="137.18"> </tspan></text>
</g>
</g>
</g>
<clipPath id="cp10821">
<path transform="matrix(1,0,0,-1,0,841.92)" d="M 214.85 630.94 L 547.06 630.94 L 547.06 656.74 L 214.85 656.74 Z " fill-rule="evenodd"/>
</clipPath>
<g clip-path="url(#cp10821)">
<g id="Layer-1" data-name="P">
<clipPath id="cp10822">
<path transform="matrix(1,0,0,-1,0,841.92)" d="M 214.85 630.94 L 547.06 630.94 L 547.06 656.74 L 214.85 656.74 Z " fill-rule="evenodd"/>
</clipPath>
<g clip-path="url(#cp10822)">
<text xml:space="preserve" transform="matrix(1 0 -0 1 0 841.92)" font-size="14.04" font-family="Times New Roman"><tspan y="-644.02" x="220.01 227.07212 234.13423 238.69724 244.10263 251.16475 255.72776 262.78987 266.73509 270.09065 277.15275 281.09797 285.7733 289.2833 295.37666 302.43876 308.67253 314.79396 318.6409 324.14457 327.65458 334.67457 340.8241 346.32777 350.1747 357.23683 363.47059 366.9806 372.3579 376.20487 380.1501 383.99705 387.94227 391.7892 395.63618 401.13984">kursorni bir abzats pastga siljitish</tspan></text>
</g>
<clipPath id="cp10823">
<path transform="matrix(1,0,0,-1,0,841.92)" d="M 214.85 630.94 L 547.06 630.94 L 547.06 656.74 L 214.85 656.74 Z " fill-rule="evenodd"/>
</clipPath>
<g clip-path="url(#cp10823)">
<text xml:space="preserve" transform="matrix(1 0 -0 1 0 841.92)" font-size="14.04" font-family="Times New Roman"><tspan y="-644.02" x="408.31"> </tspan></text>
</g>
</g>
</g>
<g id="Layer-1" data-name="P">
<path transform="matrix(1,0,0,-1,0,841.92)" d="M 93.384 656.74 L 93.864009 656.74 L 93.864009 657.22 L 93.384 657.22 Z " fill-rule="evenodd"/>
<path transform="matrix(1,0,0,-1,0,841.92)" d="M 93.864 656.74 L 214.48401 656.74 L 214.48401 657.22 L 93.864 657.22 Z " fill-rule="evenodd"/>
<path transform="matrix(1,0,0,-1,0,841.92)" d="M 214.49 656.74 L 214.97 656.74 L 214.97 657.22 L 214.49 657.22 Z " fill-rule="evenodd"/>
<path transform="matrix(1,0,0,-1,0,841.92)" d="M 214.97 656.74 L 547.06 656.74 L 547.06 657.22 L 214.97 657.22 Z " fill-rule="evenodd"/>
<path transform="matrix(1,0,0,-1,0,841.92)" d="M 547.06 656.74 L 547.54 656.74 L 547.54 657.22 L 547.06 657.22 Z " fill-rule="evenodd"/>
<path transform="matrix(1,0,0,-1,0,841.92)" d="M 93.384 630.94 L 93.864009 630.94 L 93.864009 656.74 L 93.384 656.74 Z " fill-rule="evenodd"/>
<path transform="matrix(1,0,0,-1,0,841.92)" d="M 214.49 630.94 L 214.97 630.94 L 214.97 656.74 L 214.49 656.74 Z " fill-rule="evenodd"/>
<path transform="matrix(1,0,0,-1,0,841.92)" d="M 547.06 630.94 L 547.54 630.94 L 547.54 656.74 L 547.06 656.74 Z " fill-rule="evenodd"/>
</g>
<clipPath id="cp10824">
<path transform="matrix(1,0,0,-1,0,841.92)" d="M 93.864 606.34 L 214.364 606.34 L 214.364 630.46 L 93.864 630.46 Z " fill-rule="evenodd"/>
</clipPath>
<g clip-path="url(#cp10824)">
<g id="Layer-1" data-name="P">
<clipPath id="cp10825">
<path transform="matrix(1,0,0,-1,0,841.92)" d="M 93.864 606.34 L 214.364 606.34 L 214.364 630.46 L 93.864 630.46 Z " fill-rule="evenodd"/>
</clipPath>
<g clip-path="url(#cp10825)">
<text xml:space="preserve" transform="matrix(1 0 -0 1 0 841.92)" font-size="14.04" font-family="Times New Roman"><tspan y="-617.74" x="99.024 108.38868 112.33392 117.00925 120.85621 128.77477 137.29705 144.26088">Ctrl+End</tspan></text>
</g>
<clipPath id="cp10826">
<path transform="matrix(1,0,0,-1,0,841.92)" d="M 93.864 606.34 L 214.364 606.34 L 214.364 630.46 L 93.864 630.46 Z " fill-rule="evenodd"/>
</clipPath>
<g clip-path="url(#cp10826)">
<text xml:space="preserve" transform="matrix(1 0 -0 1 0 841.92)" font-size="14.04" font-family="Times New Roman"><tspan y="-617.74" x="151.22"> </tspan></text>
</g>
</g>
</g>
<clipPath id="cp10827">
<path transform="matrix(1,0,0,-1,0,841.92)" d="M 214.85 606.34 L 547.06 606.34 L 547.06 630.46 L 214.85 630.46 Z " fill-rule="evenodd"/>
</clipPath>
<g clip-path="url(#cp10827)">
<g id="Layer-1" data-name="P">
<clipPath id="cp10828">
<path transform="matrix(1,0,0,-1,0,841.92)" d="M 214.85 606.34 L 547.06 606.34 L 547.06 630.46 L 214.85 630.46 Z " fill-rule="evenodd"/>
</clipPath>
<g clip-path="url(#cp10828)">
<text xml:space="preserve" transform="matrix(1 0 -0 1 0 841.92)" font-size="14.04" font-family="Times New Roman"><tspan y="-617.74" x="220.01 227.07212 234.13423 238.69724 244.10263 251.16475 255.72776 262.78987 266.73509 270.2451 280.90147 287.13523 291.08045 298.14256 305.10639 308.95335 316.01545 323.07756 326.4331 333.4952 340.45906 344.40428 349.0796 356.04344 359.98866 363.49867 370.43443 376.66819 381.3435 385.92057 389.86579 396.9279 403.16166 406.53126 412.0349 415.88188 419.8271 423.67405 427.521 431.46623 435.31318 440.71858">kursorni matnning oxirgi harfiga siljitish</tspan></text>
</g>
<clipPath id="cp10829">
<path transform="matrix(1,0,0,-1,0,841.92)" d="M 214.85 606.34 L 547.06 606.34 L 547.06 630.46 L 214.85 630.46 Z " fill-rule="evenodd"/>
</clipPath>
<g clip-path="url(#cp10829)">
<text xml:space="preserve" transform="matrix(1 0 -0 1 0 841.92)" font-size="14.04" font-family="Times New Roman"><tspan y="-617.74" x="447.94"> </tspan></text>
</g>
</g>
</g>
<g id="Layer-1" data-name="P">
<path transform="matrix(1,0,0,-1,0,841.92)" d="M 93.384 630.46 L 93.864009 630.46 L 93.864009 630.94 L 93.384 630.94 Z " fill-rule="evenodd"/>
<path transform="matrix(1,0,0,-1,0,841.92)" d="M 93.864 630.46 L 214.48401 630.46 L 214.48401 630.94 L 93.864 630.94 Z " fill-rule="evenodd"/>
<path transform="matrix(1,0,0,-1,0,841.92)" d="M 214.49 630.46 L 214.97 630.46 L 214.97 630.94 L 214.49 630.94 Z " fill-rule="evenodd"/>
<path transform="matrix(1,0,0,-1,0,841.92)" d="M 214.97 630.46 L 547.06 630.46 L 547.06 630.94 L 214.97 630.94 Z " fill-rule="evenodd"/>
<path transform="matrix(1,0,0,-1,0,841.92)" d="M 547.06 630.46 L 547.54 630.46 L 547.54 630.94 L 547.06 630.94 Z " fill-rule="evenodd"/>
<path transform="matrix(1,0,0,-1,0,841.92)" d="M 93.384 606.34 L 93.864009 606.34 L 93.864009 630.46 L 93.384 630.46 Z " fill-rule="evenodd"/>
<path transform="matrix(1,0,0,-1,0,841.92)" d="M 214.49 606.34 L 214.97 606.34 L 214.97 630.46 L 214.49 630.46 Z " fill-rule="evenodd"/>
<path transform="matrix(1,0,0,-1,0,841.92)" d="M 547.06 606.34 L 547.54 606.34 L 547.54 630.46 L 547.06 630.46 Z " fill-rule="evenodd"/>
</g>
<clipPath id="cp10830">
<path transform="matrix(1,0,0,-1,0,841.92)" d="M 93.864 581.74 L 214.364 581.74 L 214.364 605.86 L 93.864 605.86 Z " fill-rule="evenodd"/>
</clipPath>
<g clip-path="url(#cp10830)">
<g id="Layer-1" data-name="P">
<clipPath id="cp10831">
<path transform="matrix(1,0,0,-1,0,841.92)" d="M 93.864 581.74 L 214.364 581.74 L 214.364 605.86 L 93.864 605.86 Z " fill-rule="evenodd"/>
</clipPath>
<g clip-path="url(#cp10831)">
<text xml:space="preserve" transform="matrix(1 0 -0 1 0 841.92)" font-size="14.04" font-family="Times New Roman"><tspan y="-593.14" x="99.024 108.38868 112.33392 117.00925 120.85621 128.77477 138.85549 145.9176 156.60205">Ctrl+Home</tspan></text>
</g>
<clipPath id="cp10832">
<path transform="matrix(1,0,0,-1,0,841.92)" d="M 93.864 581.74 L 214.364 581.74 L 214.364 605.86 L 93.864 605.86 Z " fill-rule="evenodd"/>
</clipPath>
<g clip-path="url(#cp10832)">
<text xml:space="preserve" transform="matrix(1 0 -0 1 0 841.92)" font-size="14.04" font-family="Times New Roman"><tspan y="-593.14" x="162.86"> </tspan></text>
</g>
</g>
</g>
<clipPath id="cp10833">
<path transform="matrix(1,0,0,-1,0,841.92)" d="M 214.85 581.74 L 547.06 581.74 L 547.06 605.86 L 214.85 605.86 Z " fill-rule="evenodd"/>
</clipPath>
<g clip-path="url(#cp10833)">
<g id="Layer-1" data-name="P">
<clipPath id="cp10834">
<path transform="matrix(1,0,0,-1,0,841.92)" d="M 214.85 581.74 L 547.06 581.74 L 547.06 605.86 L 214.85 605.86 Z " fill-rule="evenodd"/>
</clipPath>
<g clip-path="url(#cp10834)">
<text xml:space="preserve" transform="matrix(1 0 -0 1 0 841.92)" font-size="14.04" font-family="Times New Roman"><tspan y="-593.14" x="220.01 227.07212 234.13423 238.69724 244.10263 251.16475 255.72776 262.78987 266.73509 270.2451 280.90147 287.13523 291.08045 298.14256 305.10639 308.95335 316.01545 323.07756 326.4331 333.4952 337.44044 342.00343 345.94865 353.01075 359.13218 366.096 370.04124 373.55125 380.57124 386.72077 391.3961 396.0714 399.91838 406.98048 413.21424 416.58384 422.0875 425.93446 429.87968 433.72663 437.57359 441.5188 445.36576 450.86943">kursorni matnning birinchi harfiga siljitish</tspan></text>
</g>
<clipPath id="cp10835">
<path transform="matrix(1,0,0,-1,0,841.92)" d="M 214.85 581.74 L 547.06 581.74 L 547.06 605.86 L 214.85 605.86 Z " fill-rule="evenodd"/>
</clipPath>
<g clip-path="url(#cp10835)">
<text xml:space="preserve" transform="matrix(1 0 -0 1 0 841.92)" font-size="14.04" font-family="Times New Roman"><tspan y="-593.14" x="458.14"> </tspan></text>
</g>
</g>
</g>
<g id="Layer-1" data-name="P">
<path transform="matrix(1,0,0,-1,0,841.92)" d="M 93.384 605.86 L 93.864009 605.86 L 93.864009 606.33999 L 93.384 606.33999 Z " fill-rule="evenodd"/>
<path transform="matrix(1,0,0,-1,0,841.92)" d="M 93.864 605.86 L 214.48401 605.86 L 214.48401 606.33999 L 93.864 606.33999 Z " fill-rule="evenodd"/>
<path transform="matrix(1,0,0,-1,0,841.92)" d="M 214.49 605.86 L 214.97 605.86 L 214.97 606.33999 L 214.49 606.33999 Z " fill-rule="evenodd"/>
<path transform="matrix(1,0,0,-1,0,841.92)" d="M 214.97 605.86 L 547.06 605.86 L 547.06 606.33999 L 214.97 606.33999 Z " fill-rule="evenodd"/>
<path transform="matrix(1,0,0,-1,0,841.92)" d="M 547.06 605.86 L 547.54 605.86 L 547.54 606.33999 L 547.06 606.33999 Z " fill-rule="evenodd"/>
<path transform="matrix(1,0,0,-1,0,841.92)" d="M 93.384 581.74 L 93.864009 581.74 L 93.864009 605.86 L 93.384 605.86 Z " fill-rule="evenodd"/>
<path transform="matrix(1,0,0,-1,0,841.92)" d="M 214.49 581.74 L 214.97 581.74 L 214.97 605.86 L 214.49 605.86 Z " fill-rule="evenodd"/>
<path transform="matrix(1,0,0,-1,0,841.92)" d="M 547.06 581.74 L 547.54 581.74 L 547.54 605.86 L 547.06 605.86 Z " fill-rule="evenodd"/>
</g>
<clipPath id="cp10836">
<path transform="matrix(1,0,0,-1,0,841.92)" d="M 93.864 556.99 L 214.364 556.99 L 214.364 581.25399 L 93.864 581.25399 Z " fill-rule="evenodd"/>
</clipPath>
<g clip-path="url(#cp10836)">
<g id="Layer-1" data-name="P">
<clipPath id="cp10837">
<path transform="matrix(1,0,0,-1,0,841.92)" d="M 93.864 556.99 L 214.364 556.99 L 214.364 581.25399 L 93.864 581.25399 Z " fill-rule="evenodd"/>
</clipPath>
<g clip-path="url(#cp10837)">
<text xml:space="preserve" transform="matrix(1 0 -0 1 0 841.92)" font-size="14.04" font-family="Times New Roman"><tspan y="-568.51" x="99.024 107.54628 114.6084">End</tspan></text>
</g>
<clipPath id="cp10838">
<path transform="matrix(1,0,0,-1,0,841.92)" d="M 93.864 556.99 L 214.364 556.99 L 214.364 581.25399 L 93.864 581.25399 Z " fill-rule="evenodd"/>
</clipPath>
<g clip-path="url(#cp10838)">
<text xml:space="preserve" transform="matrix(1 0 -0 1 0 841.92)" font-size="14.04" font-family="Times New Roman"><tspan y="-568.51" x="121.58"> </tspan></text>
</g>
</g>
</g>
<clipPath id="cp10839">
<path transform="matrix(1,0,0,-1,0,841.92)" d="M 214.85 556.99 L 547.06 556.99 L 547.06 581.25399 L 214.85 581.25399 Z " fill-rule="evenodd"/>
</clipPath>
<g clip-path="url(#cp10839)">
<g id="Layer-1" data-name="P">
<clipPath id="cp10840">
<path transform="matrix(1,0,0,-1,0,841.92)" d="M 214.85 556.99 L 547.06 556.99 L 547.06 581.25399 L 214.85 581.25399 Z " fill-rule="evenodd"/>
</clipPath>
<g clip-path="url(#cp10840)">
<text xml:space="preserve" transform="matrix(1 0 -0 1 0 841.92)" font-size="14.04" font-family="Times New Roman"><tspan y="-568.51" x="220.01 227.07212 234.13423 238.69724 244.10263 251.16475 255.72776 262.78987 266.73509 270.09065 277.15275 283.3865 287.23347 294.29557 298.9709 302.34049 309.4026 316.36643 320.31166 324.87464 328.81986 335.7837">kursorni qator oxiriga</tspan></text>
</g>
<clipPath id="cp10841">
<path transform="matrix(1,0,0,-1,0,841.92)" d="M 214.85 556.99 L 547.06 556.99 L 547.06 581.25399 L 214.85 581.25399 Z " fill-rule="evenodd"/>
</clipPath>
<g clip-path="url(#cp10841)">
<text xml:space="preserve" transform="matrix(1 0 -0 1 0 841.92)" font-size="14.04" font-family="Times New Roman"><tspan y="-568.51" x="342.07"> </tspan></text>
</g>
<clipPath id="cp10842">
<path transform="matrix(1,0,0,-1,0,841.92)" d="M 214.85 556.99 L 547.06 556.99 L 547.06 581.25399 L 214.85 581.25399 Z " fill-rule="evenodd"/>
</clipPath>
<g clip-path="url(#cp10842)">
<text xml:space="preserve" transform="matrix(1 0 -0 1 0 841.92)" font-size="14.04" font-family="Times New Roman"><tspan y="-568.51" x="345.55 351.05366 354.9006 358.84584 362.69279 366.638 370.48497 374.3319 379.83558">siljitish</tspan></text>
</g>
<clipPath id="cp10843">
<path transform="matrix(1,0,0,-1,0,841.92)" d="M 214.85 556.99 L 547.06 556.99 L 547.06 581.25399 L 214.85 581.25399 Z " fill-rule="evenodd"/>
</clipPath>
<g clip-path="url(#cp10843)">
<text xml:space="preserve" transform="matrix(1 0 -0 1 0 841.92)" font-size="14.04" font-family="Times New Roman"><tspan y="-568.51" x="386.83"> </tspan></text>
</g>
</g>
</g>
<g id="Layer-1" data-name="P">
<path transform="matrix(1,0,0,-1,0,841.92)" d="M 93.384 581.26 L 93.864009 581.26 L 93.864009 581.74 L 93.384 581.74 Z " fill-rule="evenodd"/>
<path transform="matrix(1,0,0,-1,0,841.92)" d="M 93.864 581.26 L 214.48401 581.26 L 214.48401 581.74 L 93.864 581.74 Z " fill-rule="evenodd"/>
<path transform="matrix(1,0,0,-1,0,841.92)" d="M 214.49 581.26 L 214.97 581.26 L 214.97 581.74 L 214.49 581.74 Z " fill-rule="evenodd"/>
<path transform="matrix(1,0,0,-1,0,841.92)" d="M 214.97 581.26 L 547.06 581.26 L 547.06 581.74 L 214.97 581.74 Z " fill-rule="evenodd"/>
<path transform="matrix(1,0,0,-1,0,841.92)" d="M 547.06 581.26 L 547.54 581.26 L 547.54 581.74 L 547.06 581.74 Z " fill-rule="evenodd"/>
<path transform="matrix(1,0,0,-1,0,841.92)" d="M 93.384 556.99 L 93.864009 556.99 L 93.864009 581.25399 L 93.384 581.25399 Z " fill-rule="evenodd"/>
<path transform="matrix(1,0,0,-1,0,841.92)" d="M 214.49 556.99 L 214.97 556.99 L 214.97 581.25399 L 214.49 581.25399 Z " fill-rule="evenodd"/>
<path transform="matrix(1,0,0,-1,0,841.92)" d="M 547.06 556.99 L 547.54 556.99 L 547.54 581.25399 L 547.06 581.25399 Z " fill-rule="evenodd"/>
</g>
<clipPath id="cp10844">
<path transform="matrix(1,0,0,-1,0,841.92)" d="M 93.864 532.39 L 214.364 532.39 L 214.364 556.51 L 93.864 556.51 Z " fill-rule="evenodd"/>
</clipPath>
<g clip-path="url(#cp10844)">
<g id="Layer-1" data-name="P">
<clipPath id="cp10845">
<path transform="matrix(1,0,0,-1,0,841.92)" d="M 93.864 532.39 L 214.364 532.39 L 214.364 556.51 L 93.864 556.51 Z " fill-rule="evenodd"/>
</clipPath>
<g clip-path="url(#cp10845)">
<text xml:space="preserve" transform="matrix(1 0 -0 1 0 841.92)" font-size="14.04" font-family="Times New Roman"><tspan y="-543.79" x="99.024 109.10472 116.16684 126.85128">Home</tspan></text>
</g>
<clipPath id="cp10846">
<path transform="matrix(1,0,0,-1,0,841.92)" d="M 93.864 532.39 L 214.364 532.39 L 214.364 556.51 L 93.864 556.51 Z " fill-rule="evenodd"/>
</clipPath>
<g clip-path="url(#cp10846)">
<text xml:space="preserve" transform="matrix(1 0 -0 1 0 841.92)" font-size="14.04" font-family="Times New Roman"><tspan y="-543.79" x="133.22"> </tspan></text>
</g>
</g>
</g>
<clipPath id="cp10847">
<path transform="matrix(1,0,0,-1,0,841.92)" d="M 214.85 532.39 L 547.06 532.39 L 547.06 556.51 L 214.85 556.51 Z " fill-rule="evenodd"/>
</clipPath>
<g clip-path="url(#cp10847)">
<g id="Layer-1" data-name="P">
<clipPath id="cp10848">
<path transform="matrix(1,0,0,-1,0,841.92)" d="M 214.85 532.39 L 547.06 532.39 L 547.06 556.51 L 214.85 556.51 Z " fill-rule="evenodd"/>
</clipPath>
<g clip-path="url(#cp10848)">
<text xml:space="preserve" transform="matrix(1 0 -0 1 0 841.92)" font-size="14.04" font-family="Times New Roman"><tspan y="-543.79" x="220.01 227.07212 234.13423 238.69724 244.10263 251.16475 255.72776 262.78987 266.73509 270.09065 277.15275 283.3865 287.23347 294.29557 298.9709 302.34049 309.4026 316.36643 321.77183 328.83393 332.68089 339.6447 345.87849 349.3885 354.85005 358.75315 362.65626 366.55937 370.3642 374.30943 378.15638 383.66004">kursorni qator boshiga siljitish</tspan></text>
</g>
<clipPath id="cp10849">
<path transform="matrix(1,0,0,-1,0,841.92)" d="M 214.85 532.39 L 547.06 532.39 L 547.06 556.51 L 214.85 556.51 Z " fill-rule="evenodd"/>
</clipPath>
<g clip-path="url(#cp10849)">
<text xml:space="preserve" transform="matrix(1 0 -0 1 0 841.92)" font-size="14.04" font-family="Times New Roman"><tspan y="-543.79" x="390.79"> </tspan></text>
</g>
</g>
</g>
<g id="Layer-1" data-name="P">
<path transform="matrix(1,0,0,-1,0,841.92)" d="M 93.384 556.51 L 93.864009 556.51 L 93.864009 556.99 L 93.384 556.99 Z " fill-rule="evenodd"/>
<path transform="matrix(1,0,0,-1,0,841.92)" d="M 93.864 556.51 L 214.48401 556.51 L 214.48401 556.99 L 93.864 556.99 Z " fill-rule="evenodd"/>
<path transform="matrix(1,0,0,-1,0,841.92)" d="M 214.49 556.51 L 214.97 556.51 L 214.97 556.99 L 214.49 556.99 Z " fill-rule="evenodd"/>
<path transform="matrix(1,0,0,-1,0,841.92)" d="M 214.97 556.51 L 547.06 556.51 L 547.06 556.99 L 214.97 556.99 Z " fill-rule="evenodd"/>
<path transform="matrix(1,0,0,-1,0,841.92)" d="M 547.06 556.51 L 547.54 556.51 L 547.54 556.99 L 547.06 556.99 Z " fill-rule="evenodd"/>
<path transform="matrix(1,0,0,-1,0,841.92)" d="M 93.384 532.39 L 93.864009 532.39 L 93.864009 556.51 L 93.384 556.51 Z " fill-rule="evenodd"/>
<path transform="matrix(1,0,0,-1,0,841.92)" d="M 214.49 532.39 L 214.97 532.39 L 214.97 556.51 L 214.49 556.51 Z " fill-rule="evenodd"/>
<path transform="matrix(1,0,0,-1,0,841.92)" d="M 547.06 532.39 L 547.54 532.39 L 547.54 556.51 L 547.06 556.51 Z " fill-rule="evenodd"/>
</g>
<clipPath id="cp10850">
<path transform="matrix(1,0,0,-1,0,841.92)" d="M 93.864 507.67 L 214.364 507.67 L 214.364 531.91006 L 93.864 531.91006 Z " fill-rule="evenodd"/>
</clipPath>
<g clip-path="url(#cp10850)">
<g id="Layer-1" data-name="P">
<clipPath id="cp10851">
<path transform="matrix(1,0,0,-1,0,841.92)" d="M 93.864 507.67 L 214.364 507.67 L 214.364 531.91006 L 93.864 531.91006 Z " fill-rule="evenodd"/>
</clipPath>
<g clip-path="url(#cp10851)">
<text xml:space="preserve" transform="matrix(1 0 -0 1 0 841.92)" font-size="14.04" font-family="Times New Roman"><tspan y="-519.19" x="99.024 106.830249 113.064 120.12612 126.35988 129.86988 139.92252">Page Up</tspan></text>
</g>
<clipPath id="cp10852">
<path transform="matrix(1,0,0,-1,0,841.92)" d="M 93.864 507.67 L 214.364 507.67 L 214.364 531.91006 L 93.864 531.91006 Z " fill-rule="evenodd"/>
</clipPath>
<g clip-path="url(#cp10852)">
<text xml:space="preserve" transform="matrix(1 0 -0 1 0 841.92)" font-size="14.04" font-family="Times New Roman"><tspan y="-519.19" x="146.9"> </tspan></text>
</g>
</g>
</g>
<clipPath id="cp10853">
<path transform="matrix(1,0,0,-1,0,841.92)" d="M 214.85 507.67 L 547.06 507.67 L 547.06 531.91006 L 214.85 531.91006 Z " fill-rule="evenodd"/>
</clipPath>
<g clip-path="url(#cp10853)">
<g id="Layer-1" data-name="P">
<clipPath id="cp10854">
<path transform="matrix(1,0,0,-1,0,841.92)" d="M 214.85 507.67 L 547.06 507.67 L 547.06 531.91006 L 214.85 531.91006 Z " fill-rule="evenodd"/>
</clipPath>
<g clip-path="url(#cp10854)">
<text xml:space="preserve" transform="matrix(1 0 -0 1 0 841.92)" font-size="14.04" font-family="Times New Roman"><tspan y="-519.19" x="220.01 228.53227 235.59439 240.26972 246.50348 253.57965 256.9352 263.9973 270.11875 274.06398 277.91093 284.14469 288.82 292.66697 299.72908 303.6743 307.1843 313.99369 321.0558 328.01963 335.08174 339.6447 343.58995 350.65205 356.8858 360.2554 367.3175 373.55128 378.11427 384.34803 391.31187 395.25709 401.3785 406.88218">Ekran betlarini yuqoriga varaqlash</tspan></text>
</g>
<clipPath id="cp10855">
<path transform="matrix(1,0,0,-1,0,841.92)" d="M 214.85 507.67 L 547.06 507.67 L 547.06 531.91006 L 214.85 531.91006 Z " fill-rule="evenodd"/>
</clipPath>
<g clip-path="url(#cp10855)">
<text xml:space="preserve" transform="matrix(1 0 -0 1 0 841.92)" font-size="14.04" font-family="Times New Roman"><tspan y="-519.19" x="414.07"> </tspan></text>
</g>
</g>
</g>
<g id="Layer-1" data-name="P">
<path transform="matrix(1,0,0,-1,0,841.92)" d="M 93.384 531.91 L 93.864009 531.91 L 93.864009 532.38998 L 93.384 532.38998 Z " fill-rule="evenodd"/>
<path transform="matrix(1,0,0,-1,0,841.92)" d="M 93.864 531.91 L 214.48401 531.91 L 214.48401 532.38998 L 93.864 532.38998 Z " fill-rule="evenodd"/>
<path transform="matrix(1,0,0,-1,0,841.92)" d="M 214.49 531.91 L 214.97 531.91 L 214.97 532.38998 L 214.49 532.38998 Z " fill-rule="evenodd"/>
<path transform="matrix(1,0,0,-1,0,841.92)" d="M 214.97 531.91 L 547.06 531.91 L 547.06 532.38998 L 214.97 532.38998 Z " fill-rule="evenodd"/>
<path transform="matrix(1,0,0,-1,0,841.92)" d="M 547.06 531.91 L 547.54 531.91 L 547.54 532.38998 L 547.06 532.38998 Z " fill-rule="evenodd"/>
<path transform="matrix(1,0,0,-1,0,841.92)" d="M 93.384 507.67 L 93.864009 507.67 L 93.864009 531.91006 L 93.384 531.91006 Z " fill-rule="evenodd"/>
<path transform="matrix(1,0,0,-1,0,841.92)" d="M 214.49 507.67 L 214.97 507.67 L 214.97 531.91006 L 214.49 531.91006 Z " fill-rule="evenodd"/>
<path transform="matrix(1,0,0,-1,0,841.92)" d="M 547.06 507.67 L 547.54 507.67 L 547.54 531.91006 L 547.06 531.91006 Z " fill-rule="evenodd"/>
</g>
<clipPath id="cp10856">
<path transform="matrix(1,0,0,-1,0,841.92)" d="M 93.864 483.07 L 214.364 483.07 L 214.364 507.19 L 93.864 507.19 Z " fill-rule="evenodd"/>
</clipPath>
<g clip-path="url(#cp10856)">
<g id="Layer-1" data-name="P">
<clipPath id="cp10857">
<path transform="matrix(1,0,0,-1,0,841.92)" d="M 93.864 483.07 L 214.364 483.07 L 214.364 507.19 L 93.864 507.19 Z " fill-rule="evenodd"/>
</clipPath>
<g clip-path="url(#cp10857)">
<text xml:space="preserve" transform="matrix(1 0 -0 1 0 841.92)" font-size="14.04" font-family="Times New Roman"><tspan y="-494.47" x="99.024 106.830249 113.064 120.12612 126.35988 129.86988 139.92252 146.98464 156.939">Page Down</tspan></text>
</g>
<clipPath id="cp10858">
<path transform="matrix(1,0,0,-1,0,841.92)" d="M 93.864 483.07 L 214.364 483.07 L 214.364 507.19 L 93.864 507.19 Z " fill-rule="evenodd"/>
</clipPath>
<g clip-path="url(#cp10858)">
<text xml:space="preserve" transform="matrix(1 0 -0 1 0 841.92)" font-size="14.04" font-family="Times New Roman"><tspan y="-494.47" x="163.94"> </tspan></text>
</g>
</g>
</g>
<clipPath id="cp10859">
<path transform="matrix(1,0,0,-1,0,841.92)" d="M 214.85 483.07 L 547.06 483.07 L 547.06 507.19 L 214.85 507.19 Z " fill-rule="evenodd"/>
</clipPath>
<g clip-path="url(#cp10859)">
<g id="Layer-1" data-name="P">
<clipPath id="cp10860">
<path transform="matrix(1,0,0,-1,0,841.92)" d="M 214.85 483.07 L 547.06 483.07 L 547.06 507.19 L 214.85 507.19 Z " fill-rule="evenodd"/>
</clipPath>
<g clip-path="url(#cp10860)">
<text xml:space="preserve" transform="matrix(1 0 -0 1 0 841.92)" font-size="14.04" font-family="Times New Roman"><tspan y="-494.47" x="220.01 228.53227 235.59439 240.26972 246.50348 253.57965 256.9352 263.9973 270.11875 274.06398 277.91093 284.14469 288.82 292.66697 299.72908 303.6743 307.02986 314.09196 320.21339 325.71705 329.564 336.52784 342.7616 346.2716 353.2916 359.55345 364.22877 370.3502 377.31404 381.25926 387.493 392.8984">Ekran betlarini pastga varaqlash</tspan></text>
</g>
<clipPath id="cp10861">
<path transform="matrix(1,0,0,-1,0,841.92)" d="M 214.85 483.07 L 547.06 483.07 L 547.06 507.19 L 214.85 507.19 Z " fill-rule="evenodd"/>
</clipPath>
<g clip-path="url(#cp10861)">
<text xml:space="preserve" transform="matrix(1 0 -0 1 0 841.92)" font-size="14.04" font-family="Times New Roman"><tspan y="-494.47" x="400.03"> </tspan></text>
</g>
</g>
</g>
<g id="Layer-1" data-name="P">
<path transform="matrix(1,0,0,-1,0,841.92)" d="M 93.384 507.19 L 93.864009 507.19 L 93.864009 507.66999 L 93.384 507.66999 Z " fill-rule="evenodd"/>
<path transform="matrix(1,0,0,-1,0,841.92)" d="M 93.864 507.19 L 214.48401 507.19 L 214.48401 507.66999 L 93.864 507.66999 Z " fill-rule="evenodd"/>
<path transform="matrix(1,0,0,-1,0,841.92)" d="M 214.49 507.19 L 214.97 507.19 L 214.97 507.66999 L 214.49 507.66999 Z " fill-rule="evenodd"/>
<path transform="matrix(1,0,0,-1,0,841.92)" d="M 214.97 507.19 L 547.06 507.19 L 547.06 507.66999 L 214.97 507.66999 Z " fill-rule="evenodd"/>
<path transform="matrix(1,0,0,-1,0,841.92)" d="M 547.06 507.19 L 547.54 507.19 L 547.54 507.66999 L 547.06 507.66999 Z " fill-rule="evenodd"/>
<path transform="matrix(1,0,0,-1,0,841.92)" d="M 93.384 483.07 L 93.864009 483.07 L 93.864009 507.19 L 93.384 507.19 Z " fill-rule="evenodd"/>
<path transform="matrix(1,0,0,-1,0,841.92)" d="M 93.384 482.59 L 93.864009 482.59 L 93.864009 483.07 L 93.384 483.07 Z " fill-rule="evenodd"/>
<path transform="matrix(1,0,0,-1,0,841.92)" d="M 93.384 482.59 L 93.864009 482.59 L 93.864009 483.07 L 93.384 483.07 Z " fill-rule="evenodd"/>
<path transform="matrix(1,0,0,-1,0,841.92)" d="M 93.864 482.59 L 214.48401 482.59 L 214.48401 483.07 L 93.864 483.07 Z " fill-rule="evenodd"/>
<path transform="matrix(1,0,0,-1,0,841.92)" d="M 214.49 483.07 L 214.97 483.07 L 214.97 507.19 L 214.49 507.19 Z " fill-rule="evenodd"/>
<path transform="matrix(1,0,0,-1,0,841.92)" d="M 214.49 482.59 L 214.97 482.59 L 214.97 483.07 L 214.49 483.07 Z " fill-rule="evenodd"/>
<path transform="matrix(1,0,0,-1,0,841.92)" d="M 214.97 482.59 L 547.06 482.59 L 547.06 483.07 L 214.97 483.07 Z " fill-rule="evenodd"/>
<path transform="matrix(1,0,0,-1,0,841.92)" d="M 547.06 483.07 L 547.54 483.07 L 547.54 507.19 L 547.06 507.19 Z " fill-rule="evenodd"/>
<path transform="matrix(1,0,0,-1,0,841.92)" d="M 547.06 482.59 L 547.54 482.59 L 547.54 483.07 L 547.06 483.07 Z " fill-rule="evenodd"/>
<path transform="matrix(1,0,0,-1,0,841.92)" d="M 547.06 482.59 L 547.54 482.59 L 547.54 483.07 L 547.06 483.07 Z " fill-rule="evenodd"/>
</g>
<g id="Layer-1" data-name="P">
<clipPath id="cp10862">
<path transform="matrix(1,0,0,-1,0,841.92)" d="M .000008871 0 L 595.32 0 L 595.32 841.92 L .000008871 841.92 Z " fill-rule="evenodd"/>
</clipPath>
<g clip-path="url(#cp10862)">
<text xml:space="preserve" transform="matrix(1 0 -0 1 0 841.92)" font-size="14.04" font-family="Times New Roman,Italic" font-style="italic"><tspan y="-469.87" x="120.5 129.02228 132.96752 136.91275 140.7597 147.82183 152.24442 159.30654 166.36865 170.93166 176.33705 183.39917 187.94812 194.91196 201.97408 205.82103 212.78487 218.28855 222.8375 229.07126 232.91822 238.42189 242.26885 246.21408 250.06104 255.56472 262.62684">Bitta bo&#x2019;sh qator kiritish </tspan></text>
</g>
<clipPath id="cp10863">
<path transform="matrix(1,0,0,-1,0,841.92)" d="M .000008871 0 L 595.32 0 L 595.32 841.92 L .000008871 841.92 Z " fill-rule="evenodd"/>
</clipPath>
<g clip-path="url(#cp10863)">
<text xml:space="preserve" transform="matrix(1 0 -0 1 0 841.92)" font-size="14.04" font-family="Times New Roman"><tspan y="-469.87" x="267.29 274.3521 280.47355 287.53565 294.49949 301.56159 305.9842 313.0463 320.1084 324.6714 330.07679 337.1389 341.8142 348.77806 352.72328 357.27226 364.23609 368.1813 375.14515 379.09037 386.0542 393.01805 396.96327 401.51225 408.57435 414.69578 418.54273 425.60484 430.28016 437.244 441.09095 448.15306 455.21516 459.63777 466.6016 473.6637 477.60893 482.1719 489.234 493.17924 497.60185 503.1055 507.05073 517.7351 524.79727 531.8594 535.70639 539.55337 546.6155 552.61056 559.5744">uchun kursorni oldingi qatorning oxirgi simvolidan </tspan></text>
</g>
<path transform="matrix(1,0,0,-1,0,841.92)" d="M 120.5 467.59 L 267.28 467.59 L 267.28 468.31 L 120.5 468.31 Z " fill-rule="evenodd"/>
<clipPath id="cp10864">
<path transform="matrix(1,0,0,-1,0,841.92)" d="M .000008871 0 L 595.32 0 L 595.32 841.92 L .000008871 841.92 Z " fill-rule="evenodd"/>
</clipPath>
<g clip-path="url(#cp10864)">
<text xml:space="preserve" transform="matrix(1 0 -0 1 0 841.92)" font-size="14.04" font-family="Times New Roman"><tspan y="-445.75" x="85.104 92.166118 98.39987 105.25139 109.19663 116.25875 119.76875 126.704509 133.76662 138.32962 145.1671 149.11234 156.17446 159.68445 163.13828 166.64827 170.1021 178.62438 188.7051 197.32566 205.94622 215.3109 218.82089 222.72402 229.74402 236.76403 247.46251 253.69628 259.93003 267.00617 273.23994 278.64533 282.59056 286.10057 293.03633 300.09843 305.5038 309.35078 313.296 319.52976 326.4936 330.4388 333.94883">keyin qo&#x2019;yib,   ENTER tugmachasi bosiladi. </tspan></text>
</g>
<clipPath id="cp10865">
<path transform="matrix(1,0,0,-1,0,841.92)" d="M .000008871 0 L 595.32 0 L 595.32 841.92 L .000008871 841.92 Z " fill-rule="evenodd"/>
</clipPath>
<g clip-path="url(#cp10865)">
<text xml:space="preserve" transform="matrix(1 0 -0 1 0 841.92)" font-size="14.04" font-family="Times New Roman"><tspan y="-445.75" x="337.63"> </tspan></text>
</g>
</g>
<g id="Layer-1" data-name="P">
<clipPath id="cp10866">
<path transform="matrix(1,0,0,-1,0,841.92)" d="M .000008871 0 L 595.32 0 L 595.32 841.92 L .000008871 841.92 Z " fill-rule="evenodd"/>
</clipPath>
<g clip-path="url(#cp10866)">
<text xml:space="preserve" transform="matrix(1 0 -0 1 0 841.92)" font-size="14.04" font-family="Times New Roman,Italic" font-style="italic"><tspan y="-421.51" x="120.5 129.02228 132.96752 136.91275 140.7597 147.82183 155.0103 162.07242 169.03626 172.98149 179.94533 185.35073 192.41284 196.35808 203.54656 207.49179 213.72556 219.847 223.79224 230.75608 237.71991 245.0207 252.08283 259.14494 263.70793 267.65315 271.5001 276.9055">Bitta qatorni ikkiga bo&#x2019;lish</tspan></text>
</g>
<clipPath id="cp10867">
<path transform="matrix(1,0,0,-1,0,841.92)" d="M .000008871 0 L 595.32 0 L 595.32 841.92 L .000008871 841.92 Z " fill-rule="evenodd"/>
</clipPath>
<g clip-path="url(#cp10867)">
<text xml:space="preserve" transform="matrix(1 0 -0 1 0 841.92)" font-size="14.04" font-family="Times New Roman"><tspan y="-421.51" x="284.21"> </tspan></text>
</g>
<clipPath id="cp10868">
<path transform="matrix(1,0,0,-1,0,841.92)" d="M .000008871 0 L 595.32 0 L 595.32 841.92 L .000008871 841.92 Z " fill-rule="evenodd"/>
</clipPath>
<g clip-path="url(#cp10868)">
<text xml:space="preserve" transform="matrix(1 0 -0 1 0 841.92)" font-size="14.04" font-family="Times New Roman"><tspan y="-421.51" x="291.53 298.5921 304.71354 311.67738 318.73948 325.80158 333.1024 339.93986 346.1736 353.24977 360.2136 364.1588 371.45964 378.52174 384.64317 388.58839 395.55223 400.22755 407.5424 414.50624 421.56834 426.97373 434.03584 437.88279 444.11656 451.08039 455.0256 460.431 467.39485 471.34007 478.64088 485.70298 491.93675 496.61207 502.74757 509.80967 517.1104 524.0743 531.1364 535.6994 539.64468 546.6085 552.73 559.69387">uchun yangi qator boshlanishi kerak bo&#x2019;lgan </tspan></text>
</g>
<path transform="matrix(1,0,0,-1,0,841.92)" d="M 120.5 419.23 L 284.2 419.23 L 284.2 419.95 L 120.5 419.95 Z " fill-rule="evenodd"/>
<clipPath id="cp10869">
<path transform="matrix(1,0,0,-1,0,841.92)" d="M .000008871 0 L 595.32 0 L 595.32 841.92 L .000008871 841.92 Z " fill-rule="evenodd"/>
</clipPath>
<g clip-path="url(#cp10869)">
<text xml:space="preserve" transform="matrix(1 0 -0 1 0 841.92)" font-size="14.04" font-family="Times New Roman"><tspan y="-397.39" x="85.104 92.166118 99.12995 105.36371 109.21067 113.155918 118.56132 122.50656 129.34404 135.5778 142.65398 148.88774 152.39774 159.3335 166.39562 170.95862 176.4623 183.52442 188.08742 195.05126 198.99649 202.50649 209.52649 213.42961 217.33274 224.42295 227.7785 234.74234 241.80446 246.47978 250.32674 257.38887 260.89888 264.35273 272.875 282.95573 291.478 300.00028 309.36497 312.87498 316.77809 323.79808 330.81806 341.51655 347.7503 353.98408 361.0602 367.29399 372.81169 376.7569 380.11247 387.0763 394.1384 399.5438 403.489 407.33598 413.56974 420.53358 424.4788">pozitsiyaga kursorni olib borib, ENTER tugmachasi bosiladi.</tspan></text>
</g>
<clipPath id="cp10870">
<path transform="matrix(1,0,0,-1,0,841.92)" d="M .000008871 0 L 595.32 0 L 595.32 841.92 L .000008871 841.92 Z " fill-rule="evenodd"/>
</clipPath>
<g clip-path="url(#cp10870)">
<text xml:space="preserve" transform="matrix(1 0 -0 1 0 841.92)" font-size="14.04" font-family="Times New Roman"><tspan y="-397.39" x="428.11"> </tspan></text>
</g>
</g>
<g id="Layer-1" data-name="P">
<clipPath id="cp10871">
<path transform="matrix(1,0,0,-1,0,841.92)" d="M .000008871 0 L 595.32 0 L 595.32 841.92 L .000008871 841.92 Z " fill-rule="evenodd"/>
</clipPath>
<g clip-path="url(#cp10871)">
<text xml:space="preserve" transform="matrix(1 0 -0 1 0 841.92)" font-size="14.04" font-family="Times New Roman,Italic" font-style="italic"><tspan y="-373.25" x="120.5 125.17532 131.40909 137.64286 141.50386 145.4491 152.51122 164.6137 171.57753 178.63965 182.4866 189.45044 194.95412 201.91796 205.86319 217.96567 225.02779 228.87474 234.37842 238.22537 245.28749 250.69289 257.65675 261.60197 265.4489 270.95259 274.79954 280.20494">Ikkita qatorni birlashtirish</tspan></text>
</g>
<clipPath id="cp10872">
<path transform="matrix(1,0,0,-1,0,841.92)" d="M .000008871 0 L 595.32 0 L 595.32 841.92 L .000008871 841.92 Z " fill-rule="evenodd"/>
</clipPath>
<g clip-path="url(#cp10872)">
<text xml:space="preserve" transform="matrix(1 0 -0 1 0 841.92)" font-size="14.04" font-family="Times New Roman"><tspan y="-373.25" x="287.45"> </tspan></text>
</g>
<clipPath id="cp10873">
<path transform="matrix(1,0,0,-1,0,841.92)" d="M .000008871 0 L 595.32 0 L 595.32 841.92 L .000008871 841.92 Z " fill-rule="evenodd"/>
</clipPath>
<g clip-path="url(#cp10873)">
<text xml:space="preserve" transform="matrix(1 0 -0 1 0 841.92)" font-size="14.04" font-family="Times New Roman"><tspan y="-373.25" x="299.69 306.7521 312.87355 319.83738 326.89949 333.8633 346.09217 353.056 360.01985 364.69517 370.19883 377.16267 381.83799 388.80183 392.74705 404.84953 411.91163 415.85685 420.41984 424.26679 431.3289 437.56266 444.5265 448.4717 460.5742 467.6363 473.75773 477.60469 484.66679 489.3421 496.30595 500.1529 507.215 514.2771 526.3796 533.34347 540.4056 544.25259 548.92788 555.8917 559.7387">uchun kursorni birinchi qatorning oxirgi </tspan></text>
</g>
<path transform="matrix(1,0,0,-1,0,841.92)" d="M 120.5 370.97 L 287.44 370.97 L 287.44 371.69 L 120.5 371.69 Z " fill-rule="evenodd"/>
<clipPath id="cp10874">
<path transform="matrix(1,0,0,-1,0,841.92)" d="M .000008871 0 L 595.32 0 L 595.32 841.92 L .000008871 841.92 Z " fill-rule="evenodd"/>
</clipPath>
<g clip-path="url(#cp10874)">
<text xml:space="preserve" transform="matrix(1 0 -0 1 0 841.92)" font-size="14.04" font-family="Times New Roman"><tspan y="-349.13" x="85.104 90.60768 94.552928 105.237369 112.299488 119.3616 123.208568 127.05553 134.11765 140.35141 147.42758 150.78314 157.84526 164.07903 170.93054 174.87578 181.9379 185.29346 192.35558 199.4177 203.9807 210.81818 214.76342 221.82553 225.33553 228.78936 232.29935 242.35199 248.58576 252.53099 258.76475 262.70997 268.94374 272.45375 276.2726 283.23646 290.29856 300.983 307.21678 313.45054 320.52668 326.76045 332.27815 336.22337 339.57893 346.54277 353.60487 359.01026 362.95549 366.80244 373.0362 380.00004 383.94526">simvolidan keyin qo&#x2019;yib,  Delete tugmachasi bosiladi.</tspan></text>
</g>
<clipPath id="cp10875">
<path transform="matrix(1,0,0,-1,0,841.92)" d="M .000008871 0 L 595.32 0 L 595.32 841.92 L .000008871 841.92 Z " fill-rule="evenodd"/>
</clipPath>
<g clip-path="url(#cp10875)">
<text xml:space="preserve" transform="matrix(1 0 -0 1 0 841.92)" font-size="14.04" font-family="Times New Roman"><tspan y="-349.13" x="387.67"> </tspan></text>
</g>
</g>
<g id="Layer-1" data-name="P">
<clipPath id="cp10876">
<path transform="matrix(1,0,0,-1,0,841.92)" d="M .000008871 0 L 595.32 0 L 595.32 841.92 L .000008871 841.92 Z " fill-rule="evenodd"/>
</clipPath>
<g clip-path="url(#cp10876)">
<text xml:space="preserve" transform="matrix(1 0 -0 1 0 841.92)" font-size="14.04" font-family="Times New Roman"><tspan y="-325.01" x="120.5 132.98">Ma</tspan></text>
</g>
<clipPath id="cp10877">
<path transform="matrix(1,0,0,-1,0,841.92)" d="M .000008871 0 L 595.32 0 L 595.32 841.92 L .000008871 841.92 Z " fill-rule="evenodd"/>
</clipPath>
<g clip-path="url(#cp10877)">
<text xml:space="preserve" transform="matrix(1 0 -0 1 0 841.92)" font-size="14.04" font-family="Times New Roman"><tspan y="-325.01" x="139.22">&#x2019;</tspan></text>
</g>
<clipPath id="cp10878">
<path transform="matrix(1,0,0,-1,0,841.92)" d="M .000008871 0 L 595.32 0 L 595.32 841.92 L .000008871 841.92 Z " fill-rule="evenodd"/>
</clipPath>
<g clip-path="url(#cp10878)">
<text xml:space="preserve" transform="matrix(1 0 -0 1 0 841.92)" font-size="14.04" font-family="Times New Roman"><tspan y="-325.01" x="143.78 147.72524 154.78736 165.4718 172.53392 176.47916 179.98915 184.27135 191.10883 198.17095 204.40471 211.48088 218.543 222.85327 233.53772 239.8838 245.38748 252.35132 256.19828 263.26039 270.32249 276.4439 281.8493 285.79454 292.85664 299.0904 303.4007 314.08515 320.3189 324.26414 331.32624 335.63655 342.474 349.5361 355.76988 359.61683 363.56205 370.62416 376.74559 383.7094 390.7715 397.00529 401.31559 408.27943 415.24327">lumki, yozuv mashinkasida matn yozilganda qog</tspan></text>
</g>
<clipPath id="cp10879">
<path transform="matrix(1,0,0,-1,0,841.92)" d="M .000008871 0 L 595.32 0 L 595.32 841.92 L .000008871 841.92 Z " fill-rule="evenodd"/>
</clipPath>
<g clip-path="url(#cp10879)">
<text xml:space="preserve" transform="matrix(1 0 -0 1 0 841.92)" font-size="14.04" font-family="Times New Roman"><tspan y="-325.01" x="422.71">&#x2019;</tspan></text>
</g>
<clipPath id="cp10880">
<path transform="matrix(1,0,0,-1,0,841.92)" d="M .000008871 0 L 595.32 0 L 595.32 841.92 L .000008871 841.92 Z " fill-rule="evenodd"/>
</clipPath>
<g clip-path="url(#cp10880)">
<text xml:space="preserve" transform="matrix(1 0 -0 1 0 841.92)" font-size="14.04" font-family="Times New Roman"><tspan y="-325.01" x="427.27 434.3321 440.56587 447.5297 453.76347 458.07377 464.30754 471.38368 477.5051 484.5672 490.80097 495.4763 501.71006 505.90803 512.97018">ozga chegara qo</tspan></text>
</g>
<clipPath id="cp10881">
<path transform="matrix(1,0,0,-1,0,841.92)" d="M .000008871 0 L 595.32 0 L 595.32 841.92 L .000008871 841.92 Z " fill-rule="evenodd"/>
</clipPath>
<g clip-path="url(#cp10881)">
<text xml:space="preserve" transform="matrix(1 0 -0 1 0 841.92)" font-size="14.04" font-family="Times New Roman"><tspan y="-325.01" x="520.18">&#x2019;</tspan></text>
</g>
<clipPath id="cp10882">
<path transform="matrix(1,0,0,-1,0,841.92)" d="M .000008871 0 L 595.32 0 L 595.32 841.92 L .000008871 841.92 Z " fill-rule="evenodd"/>
</clipPath>
<g clip-path="url(#cp10882)">
<text xml:space="preserve" transform="matrix(1 0 -0 1 0 841.92)" font-size="14.04" font-family="Times New Roman"><tspan y="-325.01" x="524.74 531.5775 535.52279 539.468 545.7018 552.66567 556.6109 559.9665">yiladi. </tspan></text>
</g>
<clipPath id="cp10883">
<path transform="matrix(1,0,0,-1,0,841.92)" d="M .000008871 0 L 595.32 0 L 595.32 841.92 L .000008871 841.92 Z " fill-rule="evenodd"/>
</clipPath>
<g clip-path="url(#cp10883)">
<text xml:space="preserve" transform="matrix(1 0 -0 1 0 841.92)" font-size="14.04" font-family="Times New Roman"><tspan y="-300.77" x="85.104 94.46867 101.41847 108.48059 115.54271 121.77647 126.08675 133.14887 139.38263 144.05796 150.19344 154.13867 161.10251 167.33628 171.88523 182.56967">Bunda karetka ma</tspan></text>
</g>
<clipPath id="cp10884">
<path transform="matrix(1,0,0,-1,0,841.92)" d="M .000008871 0 L 595.32 0 L 595.32 841.92 L .000008871 841.92 Z " fill-rule="evenodd"/>
</clipPath>
<g clip-path="url(#cp10884)">
<text xml:space="preserve" transform="matrix(1 0 -0 1 0 841.92)" font-size="14.04" font-family="Times New Roman"><tspan y="-300.77" x="188.9">&#x2019;</tspan></text>
</g>
<clipPath id="cp10885">
<path transform="matrix(1,0,0,-1,0,841.92)" d="M .000008871 0 L 595.32 0 L 595.32 841.92 L .000008871 841.92 Z " fill-rule="evenodd"/>
</clipPath>
<g clip-path="url(#cp10885)">
<text xml:space="preserve" transform="matrix(1 0 -0 1 0 841.92)" font-size="14.04" font-family="Times New Roman"><tspan y="-300.77" x="193.49 197.43524 204.49736 215.29413 219.84308 223.69004 230.75215 237.58963 244.65175 250.88552 255.32215 262.38426 268.618 272.56324 279.62535 285.74678 291.98054 299.05668 302.56669 306.9612 313.92506 320.1588 324.00578 331.06788 335.7432 342.70704 348.9408 356.01695 360.32725 367.38935 373.6231 377.47007 384.53218 389.09516 396.15727 402.39103 406.82768 413.06144 420.02528 423.87223 430.93434 441.73109 447.96485 451.91007 455.75703 462.81913 467.24174 471.91706 478.03849 485.1006 488.94755 494.4512 501.41505 508.47715 514.7109 519.1475 523.5701">lum joyga kelgach, qatordan qatorga avtomatik ravishda  o</tspan></text>
</g>
<clipPath id="cp10886">
<path transform="matrix(1,0,0,-1,0,841.92)" d="M .000008871 0 L 595.32 0 L 595.32 841.92 L .000008871 841.92 Z " fill-rule="evenodd"/>
</clipPath>
<g clip-path="url(#cp10886)">
<text xml:space="preserve" transform="matrix(1 0 -0 1 0 841.92)" font-size="14.04" font-family="Times New Roman"><tspan y="-300.77" x="531.1">&#x2019;</tspan></text>
</g>
<clipPath id="cp10887">
<path transform="matrix(1,0,0,-1,0,841.92)" d="M .000008871 0 L 595.32 0 L 595.32 841.92 L .000008871 841.92 Z " fill-rule="evenodd"/>
</clipPath>
<g clip-path="url(#cp10887)">
<text xml:space="preserve" transform="matrix(1 0 -0 1 0 841.92)" font-size="14.04" font-family="Times New Roman"><tspan y="-300.77" x="535.66 539.6052 545.7267 552.7888 556.6358 559.9914">tadi. </tspan></text>
</g>
<clipPath id="cp10888">
<path transform="matrix(1,0,0,-1,0,841.92)" d="M .000008871 0 L 595.32 0 L 595.32 841.92 L .000008871 841.92 Z " fill-rule="evenodd"/>
</clipPath>
<g clip-path="url(#cp10888)">
<text xml:space="preserve" transform="matrix(1 0 -0 1 0 841.92)" font-size="14.04" font-family="Times New Roman"><tspan y="-276.65" x="85.104 92.91024 99.97236 106.936199 113.90003 120.96215">Shunga</tspan></text>
</g>
<clipPath id="cp10889">
<path transform="matrix(1,0,0,-1,0,841.92)" d="M .000008871 0 L 595.32 0 L 595.32 841.92 L .000008871 841.92 Z " fill-rule="evenodd"/>
</clipPath>
<g clip-path="url(#cp10889)">
<text xml:space="preserve" transform="matrix(1 0 -0 1 0 841.92)" font-size="14.04" font-family="Times New Roman"><tspan y="-276.65" x="127.22"> </tspan></text>
</g>
<clipPath id="cp10890">
<path transform="matrix(1,0,0,-1,0,841.92)" d="M .000008871 0 L 595.32 0 L 595.32 841.92 L .000008871 841.92 Z " fill-rule="evenodd"/>
</clipPath>
<g clip-path="url(#cp10890)">
<text xml:space="preserve" transform="matrix(1 0 -0 1 0 841.92)" font-size="14.04" font-family="Times New Roman"><tspan y="-276.65" x="131.3">o</tspan></text>
</g>
<clipPath id="cp10891">
<path transform="matrix(1,0,0,-1,0,841.92)" d="M .000008871 0 L 595.32 0 L 595.32 841.92 L .000008871 841.92 Z " fill-rule="evenodd"/>
</clipPath>
<g clip-path="url(#cp10891)">
<text xml:space="preserve" transform="matrix(1 0 -0 1 0 841.92)" font-size="14.04" font-family="Times New Roman"><tspan y="-276.65" x="138.38">&#x2019;</tspan></text>
</g>
<clipPath id="cp10892">
<path transform="matrix(1,0,0,-1,0,841.92)" d="M .000008871 0 L 595.32 0 L 595.32 841.92 L .000008871 841.92 Z " fill-rule="evenodd"/>
</clipPath>
<g clip-path="url(#cp10892)">
<text xml:space="preserve" transform="matrix(1 0 -0 1 0 841.92)" font-size="14.04" font-family="Times New Roman"><tspan y="-276.65" x="142.94 150.00212 155.40752 162.46964 168.7034 174.1088 181.17092 185.35483 191.5886 202.3994 208.63317 212.5784 216.42536 222.65912 227.33444 234.31233 238.25757 242.44149 254.92305 262.72929 266.9132 279.99848 290.0792 299.44389 309.5246 316.5867 322.70814 326.89207 333.95417 340.18794 344.03489 350.26866 354.94398 358.79093 364.19633 371.25843 375.44236 382.50447 388.6259 395.58973 402.65184 409.71394 413.89787 420.73533 427.79743 434.76127 441.7251 446.40043 450.34565 457.30949 463.54325 470.50709 474.4523 478.63624 484.75767 491.81977 498.05354 504.17497 509.67863 513.86257 520.9247 527.04617 530.8931 537.95529 542.63058 546.47756 553.4414 559.56289">xshash amallarni MS WORDda bajarish uchun yuqoridagi abzas qatoriga </tspan></text>
</g>
<clipPath id="cp10893">
<path transform="matrix(1,0,0,-1,0,841.92)" d="M .000008871 0 L 595.32 0 L 595.32 841.92 L .000008871 841.92 Z " fill-rule="evenodd"/>
</clipPath>
<g clip-path="url(#cp10893)">
<text xml:space="preserve" transform="matrix(1 0 -0 1 0 841.92)" font-size="14.04" font-family="Times New Roman"><tspan y="-252.53" x="85.104 90.60768 94.552928 100.67436 107.6382 114.70032 121.664157 128.72628 134.84772 141.90984 148.1436 155.0934 159.03864 166.00247 173.06459 183.74904 189.9828 195.50054 199.44577 206.4096 210.35485 217.41696 221.26392 228.32604 235.28987 239.2351 246.29723 256.98167 263.21543 267.89076 271.85 278.08378 285.15995 292.22206 299.18589 304.59129 308.5365 312.48173 318.60316 325.567 329.5122 333.02223 340.05628 350.137 356.37077 360.31599 364.2612 368.10816 374.22959 381.2917 387.52546 394.60163">sichqoncha tugmasini ikki marta bosiladi. Natijada  </tspan></text>
</g>
<clipPath id="cp10894">
<path transform="matrix(1,0,0,-1,0,841.92)" d="M .000008871 0 L 595.32 0 L 595.32 841.92 L .000008871 841.92 Z " fill-rule="evenodd"/>
</clipPath>
<g clip-path="url(#cp10894)">
<text xml:space="preserve" transform="matrix(1 0 -0 1 0 841.92)" font-size="14.04" font-family="Times New Roman,Bold" font-weight="bold"><tspan y="-252.53" x="402.07">&#x00ab;</tspan></text>
</g>
</g>
<g id="Layer-1" data-name="P">
<clipPath id="cp10895">
<path transform="matrix(1,0,0,-1,0,841.92)" d="M .000008871 0 L 595.32 0 L 595.32 841.92 L .000008871 841.92 Z " fill-rule="evenodd"/>
</clipPath>
<g clip-path="url(#cp10895)">
<text xml:space="preserve" transform="matrix(1 0 -0 1 0 841.92)" font-size="14.04" font-family="Times New Roman,Bold" font-weight="bold"><tspan y="-252.53" x="409.03 419.95314 427.01524 434.6951 441.65895 451.22019 457.48204 464.31953 472.12577">&#x041f;&#x0430;&#x0440;&#x0430;&#x043c;&#x0435;&#x0442;&#x0440;&#x044b;</tspan></text>
</g>
</g>
<g id="Layer-1" data-name="P">
<clipPath id="cp10896">
<path transform="matrix(1,0,0,-1,0,841.92)" d="M .000008871 0 L 595.32 0 L 595.32 841.92 L .000008871 841.92 Z " fill-rule="evenodd"/>
</clipPath>
<g clip-path="url(#cp10896)">
<text xml:space="preserve" transform="matrix(1 0 -0 1 0 841.92)" font-size="14.04" font-family="Times New Roman,Bold" font-weight="bold"><tspan y="-252.53" x="483.1"> </tspan></text>
</g>
</g>
<g id="Layer-1" data-name="P">
<clipPath id="cp10897">
<path transform="matrix(1,0,0,-1,0,841.92)" d="M .000008871 0 L 595.32 0 L 595.32 841.92 L .000008871 841.92 Z " fill-rule="evenodd"/>
</clipPath>
<g clip-path="url(#cp10897)">
<text xml:space="preserve" transform="matrix(1 0 -0 1 0 841.92)" font-size="14.04" font-family="Times New Roman,Bold" font-weight="bold"><tspan y="-252.53" x="490.18 496.41377 503.36357 511.04344 518.1055 526.15048 534.1954 542.2403">&#x0441;&#x0442;&#x0440;&#x0430;&#x043d;&#x0438;&#x0446;&#x044b;</tspan></text>
</g>
</g>
<g id="Layer-1" data-name="P">
<clipPath id="cp10898">
<path transform="matrix(1,0,0,-1,0,841.92)" d="M .000008871 0 L 595.32 0 L 595.32 841.92 L .000008871 841.92 Z " fill-rule="evenodd"/>
</clipPath>
<g clip-path="url(#cp10898)">
<text xml:space="preserve" transform="matrix(1 0 -0 1 0 841.92)" font-size="14.04" font-family="Times New Roman,Bold" font-weight="bold"><tspan y="-252.53" x="553.06">&#x00bb;</tspan></text>
</g>
</g>
<g id="Layer-1" data-name="P">
<clipPath id="cp10899">
<path transform="matrix(1,0,0,-1,0,841.92)" d="M .000008871 0 L 595.32 0 L 595.32 841.92 L .000008871 841.92 Z " fill-rule="evenodd"/>
</clipPath>
<g clip-path="url(#cp10899)">
<text xml:space="preserve" transform="matrix(1 0 -0 1 0 841.92)" font-size="14.04" font-family="Times New Roman"><tspan y="-252.53" x="560.02"> </tspan></text>
</g>
</g>
<g id="Layer-1" data-name="P">
<clipPath id="cp10900">
<path transform="matrix(1,0,0,-1,0,841.92)" d="M .000008871 0 L 595.32 0 L 595.32 841.92 L .000008871 841.92 Z " fill-rule="evenodd"/>
</clipPath>
<g clip-path="url(#cp10900)">
<text xml:space="preserve" transform="matrix(1 0 -0 1 0 841.92)" font-size="14.04" font-family="Times New Roman"><tspan y="-228.41" x="85.104 89.77932 97.58556 103.81932 110.78316 114.7284 119.403728 125.63748 129.00708 136.0692 142.30297 146.97829 153.21205 163.91054 170.1443 174.08954 178.76486 182.7101 188.94387 193.50687 197.4521 202.12743 205.49703 211.0007 217.23447 224.1983 228.14354 232.81887 238.9403 244.3457 248.29094 251.80094 258.82093 265.0547 271.93428 278.99638 286.05848 289.41404 296.47615">(Sahifa parametrlari) sahifasi paydo bo</tspan></text>
</g>
</g>
<g id="Layer-1" data-name="P">
<clipPath id="cp10901">
<path transform="matrix(1,0,0,-1,0,841.92)" d="M .000008871 0 L 595.32 0 L 595.32 841.92 L .000008871 841.92 Z " fill-rule="evenodd"/>
</clipPath>
<g clip-path="url(#cp10901)">
<text xml:space="preserve" transform="matrix(1 0 -0 1 0 841.92)" font-size="14.04" font-family="Times New Roman"><tspan y="-228.41" x="303.77 308.33299 312.2782 318.39964 325.36347 329.3087 332.8187 336.27256 340.94789 348.02403 351.37959 358.44169">&#x2019;ladi. (2.28</tspan></text>
</g>
</g>
<g id="Layer-1" data-name="P">
<clipPath id="cp10902">
<path transform="matrix(1,0,0,-1,0,841.92)" d="M .000008871 0 L 595.32 0 L 595.32 841.92 L .000008871 841.92 Z " fill-rule="evenodd"/>
</clipPath>
<g clip-path="url(#cp10902)">
<text xml:space="preserve" transform="matrix(1 0 -0 1 0 841.92)" font-size="14.04" font-family="Times New Roman"><tspan y="-228.41" x="365.59">-</tspan></text>
</g>
</g>
<g id="Layer-1" data-name="P">
<clipPath id="cp10903">
<path transform="matrix(1,0,0,-1,0,841.92)" d="M .000008871 0 L 595.32 0 L 595.32 841.92 L .000008871 841.92 Z " fill-rule="evenodd"/>
</clipPath>
<g clip-path="url(#cp10903)">
<text xml:space="preserve" transform="matrix(1 0 -0 1 0 841.92)" font-size="14.04" font-family="Times New Roman"><tspan y="-228.41" x="370.15 374.82533 381.05909 386.57679 397.26124 401.93656">rasm).</tspan></text>
</g>
</g>
<g id="Layer-1" data-name="P">
<clipPath id="cp10904">
<path transform="matrix(1,0,0,-1,0,841.92)" d="M .000008871 0 L 595.32 0 L 595.32 841.92 L .000008871 841.92 Z " fill-rule="evenodd"/>
</clipPath>
<g clip-path="url(#cp10904)">
<text xml:space="preserve" transform="matrix(1 0 -0 1 0 841.92)" font-size="14.04" font-family="Times New Roman"><tspan y="-228.41" x="405.43"> </tspan></text>
</g>
</g>
</g>
</g>
</svg>
