<?xml version="1.0" encoding="UTF-8" standalone="no"?>
<!DOCTYPE svg PUBLIC "-//W3C//DTD SVG 1.1//EN" "http://www.w3.org/Graphics/SVG/1.1/DTD/svg11.dtd">
<svg xmlns="http://www.w3.org/2000/svg" xmlns:xlink="http://www.w3.org/1999/xlink" version="1.1" width="595.32pt" height="841.92pt" viewBox="0 0 595.32 841.92">
<g enable-background="new">
<g>
<g id="Layer-1" data-name="Artifact">
<clipPath id="cp11306">
<path transform="matrix(1,0,0,-1,0,841.92)" d="M .000008871 0 L 595.32 0 L 595.32 841.92 L .000008871 841.92 Z " fill-rule="evenodd"/>
</clipPath>
<g clip-path="url(#cp11306)">
<text xml:space="preserve" transform="matrix(1 0 -0 1 0 841.92)" font-size="11.04" font-family="Calibri"><tspan y="-51.864" x="316.87 322.50999">81</tspan></text>
</g>
<clipPath id="cp11307">
<path transform="matrix(1,0,0,-1,0,841.92)" d="M .000008871 0 L 595.32 0 L 595.32 841.92 L .000008871 841.92 Z " fill-rule="evenodd"/>
</clipPath>
<g clip-path="url(#cp11307)">
<text xml:space="preserve" transform="matrix(1 0 -0 1 0 841.92)" font-size="11.04" font-family="Calibri"><tspan y="-51.864" x="328.15"> </tspan></text>
</g>
<clipPath id="cp11308">
<path transform="matrix(1,0,0,-1,0,841.92)" d="M .000008871 0 L 595.32 0 L 595.32 841.92 L .000008871 841.92 Z " fill-rule="evenodd"/>
</clipPath>
<g clip-path="url(#cp11308)">
</g>
<clipPath id="cp11309">
<path transform="matrix(1,0,0,-1,0,841.92)" d="M .000008871 0 L 595.32 0 L 595.32 841.92 L .000008871 841.92 Z " fill-rule="evenodd"/>
</clipPath>
<g clip-path="url(#cp11309)">
<text xml:space="preserve" transform="matrix(1 0 -0 1 0 841.92)" font-size="11.04" font-family="Calibri"><tspan y="-38.4" x="85.104"> </tspan></text>
</g>
<clipPath id="cp11310">
<path transform="matrix(1,0,0,-1,0,841.92)" d="M .000008871 0 L 595.32 0 L 595.32 841.92 L .000008871 841.92 Z " fill-rule="evenodd"/>
</clipPath>
<g clip-path="url(#cp11310)">
</g>
</g>
<g id="Layer-1" data-name="P">
<clipPath id="cp11311">
<path transform="matrix(1,0,0,-1,0,841.92)" d="M .000008871 0 L 595.32 0 L 595.32 841.92 L .000008871 841.92 Z " fill-rule="evenodd"/>
</clipPath>
<g clip-path="url(#cp11311)">
<text xml:space="preserve" transform="matrix(1 0 -0 1 0 841.92)" font-size="14.04" font-family="Times New Roman,Bold" font-weight="bold"><tspan y="-772.56" x="120.5">&#x00ab;</tspan></text>
</g>
</g>
<g id="Layer-1" data-name="P">
<clipPath id="cp11312">
<path transform="matrix(1,0,0,-1,0,841.92)" d="M .000008871 0 L 595.32 0 L 595.32 841.92 L .000008871 841.92 Z " fill-rule="evenodd"/>
</clipPath>
<g clip-path="url(#cp11312)">
<text xml:space="preserve" transform="matrix(1 0 -0 1 0 841.92)" font-size="14.04" font-family="Times New Roman,Bold" font-weight="bold"><tspan y="-772.56" x="127.58 138.37677 145.43889 153.48381 161.52873">&#x041f;&#x0430;&#x043f;&#x043a;&#x0430;</tspan></text>
</g>
</g>
<g id="Layer-1" data-name="P">
<clipPath id="cp11313">
<path transform="matrix(1,0,0,-1,0,841.92)" d="M .000008871 0 L 595.32 0 L 595.32 841.92 L .000008871 841.92 Z " fill-rule="evenodd"/>
</clipPath>
<g clip-path="url(#cp11313)">
<text xml:space="preserve" transform="matrix(1 0 -0 1 0 841.92)" font-size="14.04" font-family="Times New Roman,Bold" font-weight="bold"><tspan y="-772.56" x="168.62">&#x00bb;</tspan></text>
</g>
</g>
<g id="Layer-1" data-name="P">
<clipPath id="cp11314">
<path transform="matrix(1,0,0,-1,0,841.92)" d="M .000008871 0 L 595.32 0 L 595.32 841.92 L .000008871 841.92 Z " fill-rule="evenodd"/>
</clipPath>
<g clip-path="url(#cp11314)">
<text xml:space="preserve" transform="matrix(1 0 -0 1 0 841.92)" font-size="14.04" font-family="Times New Roman"><tspan y="-772.56" x="175.58"> </tspan></text>
</g>
</g>
<g id="Layer-1" data-name="P">
<clipPath id="cp11315">
<path transform="matrix(1,0,0,-1,0,841.92)" d="M .000008871 0 L 595.32 0 L 595.32 841.92 L .000008871 841.92 Z " fill-rule="evenodd"/>
</clipPath>
<g clip-path="url(#cp11315)">
<text xml:space="preserve" transform="matrix(1 0 -0 1 0 841.92)" font-size="14.04" font-family="Times New Roman"><tspan y="-772.56" x="194.21 198.88533 206.69158 212.81302 219.87514 226.83898 233.07274 237.63574 256.2247 263.2868 269.52058 274.1959 280.3314 287.3935 293.51493 298.92033 302.86555 309.92765 316.04908 323.11119 341.5738 348.6359 354.75733 361.5948 365.54 372.6021 391.19108 395.03804 402.10014 408.9376 412.8828 419.11659 424.63429 431.5981 438.66023 444.78166 451.84376 470.30638 477.2702 481.21543 488.17927 492.12449 499.08833 506.15043 510.7134 516.94717 527.75796 538.5547 544.78848 548.7337 554.96749 559.64279">(Papka) darchasidan keyin joylashgan piktogrammalar </tspan></text>
</g>
</g>
<g id="Layer-1" data-name="P">
<clipPath id="cp11316">
<path transform="matrix(1,0,0,-1,0,841.92)" d="M .000008871 0 L 595.32 0 L 595.32 841.92 L .000008871 841.92 Z " fill-rule="evenodd"/>
</clipPath>
<g clip-path="url(#cp11316)">
<text xml:space="preserve" transform="matrix(1 0 -0 1 0 841.92)" font-size="14.04" font-family="Times New Roman"><tspan y="-748.3" x="85.104 92.166118 99.22823 106.06571 110.010959 117.073078 123.19451 130.15834 134.10358 138.04882 144.17026 148.84558 155.80942 159.75466 163.26465 170.20041 174.04737 177.9926 184.95644 188.90167 193.577 199.69844 206.66228 210.60752">quyidagilarni bildiradi:</tspan></text>
</g>
</g>
<g id="Layer-1" data-name="P">
<clipPath id="cp11317">
<path transform="matrix(1,0,0,-1,0,841.92)" d="M .000008871 0 L 595.32 0 L 595.32 841.92 L .000008871 841.92 Z " fill-rule="evenodd"/>
</clipPath>
<g clip-path="url(#cp11317)">
<text xml:space="preserve" transform="matrix(1 0 -0 1 0 841.92)" font-size="14.04" font-family="Times New Roman"><tspan y="-748.3" x="214.61"> </tspan></text>
</g>
</g>
<g id="Layer-1" data-name="P">
<clipPath id="cp11318">
<path transform="matrix(1,0,0,-1,0,841.92)" d="M .000008871 0 L 595.32 0 L 595.32 841.92 L .000008871 841.92 Z " fill-rule="evenodd"/>
</clipPath>
<g clip-path="url(#cp11318)">
<text xml:space="preserve" transform="matrix(1 0 -0 1 0 841.92)" font-size="14.04" font-family="Times New Roman"><tspan y="-724.18" x="120.5">&#x2014;</tspan></text>
</g>
<clipPath id="cp11319">
<path transform="matrix(1,0,0,-1,0,841.92)" d="M .000008871 0 L 595.32 0 L 595.32 841.92 L .000008871 841.92 Z " fill-rule="evenodd"/>
</clipPath>
<g clip-path="url(#cp11319)">
<text xml:space="preserve" transform="matrix(1 0 -0 1 0 841.92)" font-size="14.04" font-family="Times New Roman"><tspan y="-724.18" x="134.54"> </tspan></text>
</g>
<clipPath id="cp11320">
<path transform="matrix(1,0,0,-1,0,841.92)" d="M .000008871 0 L 595.32 0 L 595.32 841.92 L .000008871 841.92 Z " fill-rule="evenodd"/>
</clipPath>
<g clip-path="url(#cp11320)">
<text xml:space="preserve" transform="matrix(1 0 -0 1 0 841.92)" font-size="14.04" font-family="Times New Roman"><tspan y="-724.18" x="141.5 148.56212 152.40908 157.0844 164.0342 170.99803 177.96187 185.02399 189.58699 196.64911 203.71123 209.94499 216.89479 223.73227 230.79439 237.75823 244.82035 249.49567 253.34262 260.40473 266.6385 273.47599 280.5381 285.10108 289.0463 292.89326 298.3969 305.459 308.96903 315.89076 322.7282 328.96199 333.52497 340.58708 344.5323 351.4821 358.44593 364.6797 371.64353 378.70564 384.9394 391.90324 395.75019 402.8123 409.8744 416.69786 420.64308 426.7645 433.8266 437.67356 444.73567 450.8571 457.9192 464.869 471.70646 478.76856 485.83067 492.89277 497.45576 501.40098 508.22444 515.28659 521.5203 525.3673 529.31259 535.5463 546.2307 553.29287 559.4143">bir pog&#x2019;ona yuqoriga o&#x2019;tish, ya&#x2019;ni papkaning ichidan yuqori qatlamga </tspan></text>
</g>
<clipPath id="cp11321">
<path transform="matrix(1,0,0,-1,0,841.92)" d="M .000008871 0 L 595.32 0 L 595.32 841.92 L .000008871 841.92 Z " fill-rule="evenodd"/>
</clipPath>
<g clip-path="url(#cp11321)">
<text xml:space="preserve" transform="matrix(1 0 -0 1 0 841.92)" font-size="14.04" font-family="Times New Roman"><tspan y="-700.06" x="85.104 91.33775 98.41391 102.26087 109.22471 113.16995 118.575359 125.53919">chiqish;</tspan></text>
</g>
<clipPath id="cp11322">
<path transform="matrix(1,0,0,-1,0,841.92)" d="M .000008871 0 L 595.32 0 L 595.32 841.92 L .000008871 841.92 Z " fill-rule="evenodd"/>
</clipPath>
<g clip-path="url(#cp11322)">
<text xml:space="preserve" transform="matrix(1 0 -0 1 0 841.92)" font-size="14.04" font-family="Times New Roman"><tspan y="-700.06" x="129.38"> </tspan></text>
</g>
</g>
<g id="Layer-1" data-name="P">
<clipPath id="cp11323">
<path transform="matrix(1,0,0,-1,0,841.92)" d="M .000008871 0 L 595.32 0 L 595.32 841.92 L .000008871 841.92 Z " fill-rule="evenodd"/>
</clipPath>
<g clip-path="url(#cp11323)">
<text xml:space="preserve" transform="matrix(1 0 -0 1 0 841.92)" font-size="14.04" font-family="Times New Roman"><tspan y="-675.94" x="120.5">&#x2014;</tspan></text>
</g>
<clipPath id="cp11324">
<path transform="matrix(1,0,0,-1,0,841.92)" d="M .000008871 0 L 595.32 0 L 595.32 841.92 L .000008871 841.92 Z " fill-rule="evenodd"/>
</clipPath>
<g clip-path="url(#cp11324)">
<text xml:space="preserve" transform="matrix(1 0 -0 1 0 841.92)" font-size="14.04" font-family="Times New Roman"><tspan y="-675.94" x="134.54"> </tspan></text>
</g>
<clipPath id="cp11325">
<path transform="matrix(1,0,0,-1,0,841.92)" d="M .000008871 0 L 595.32 0 L 595.32 841.92 L .000008871 841.92 Z " fill-rule="evenodd"/>
</clipPath>
<g clip-path="url(#cp11325)">
<text xml:space="preserve" transform="matrix(1 0 -0 1 0 841.92)" font-size="14.04" font-family="Times New Roman,Bold" font-weight="bold"><tspan y="-675.94" x="138.02">&#x00ab;</tspan></text>
</g>
</g>
<g id="Layer-1" data-name="P">
<clipPath id="cp11326">
<path transform="matrix(1,0,0,-1,0,841.92)" d="M .000008871 0 L 595.32 0 L 595.32 841.92 L .000008871 841.92 Z " fill-rule="evenodd"/>
</clipPath>
<g clip-path="url(#cp11326)">
<text xml:space="preserve" transform="matrix(1 0 -0 1 0 841.92)" font-size="14.04" font-family="Times New Roman,Bold" font-weight="bold"><tspan y="-675.94" x="145.1 156.02313 161.54085 168.60297 176.28285 183.34497 191.3899 199.43482 206.49694">&#x0418;&#x0437;&#x0431;&#x0440;&#x0430;&#x043d;&#x043d;&#x043e;&#x0435;</tspan></text>
</g>
</g>
<g id="Layer-1" data-name="P">
<clipPath id="cp11327">
<path transform="matrix(1,0,0,-1,0,841.92)" d="M .000008871 0 L 595.32 0 L 595.32 841.92 L .000008871 841.92 Z " fill-rule="evenodd"/>
</clipPath>
<g clip-path="url(#cp11327)">
<text xml:space="preserve" transform="matrix(1 0 -0 1 0 841.92)" font-size="14.04" font-family="Times New Roman,Bold" font-weight="bold"><tspan y="-675.94" x="212.69">&#x00bb;</tspan></text>
</g>
</g>
<g id="Layer-1" data-name="P">
<clipPath id="cp11328">
<path transform="matrix(1,0,0,-1,0,841.92)" d="M .000008871 0 L 595.32 0 L 595.32 841.92 L .000008871 841.92 Z " fill-rule="evenodd"/>
</clipPath>
<g clip-path="url(#cp11328)">
<text xml:space="preserve" transform="matrix(1 0 -0 1 0 841.92)" font-size="14.04" font-family="Times New Roman"><tspan y="-675.94" x="219.77 223.25">  </tspan></text>
</g>
</g>
<g id="Layer-1" data-name="P">
<clipPath id="cp11329">
<path transform="matrix(1,0,0,-1,0,841.92)" d="M .000008871 0 L 595.32 0 L 595.32 841.92 L .000008871 841.92 Z " fill-rule="evenodd"/>
</clipPath>
<g clip-path="url(#cp11329)">
<text xml:space="preserve" transform="matrix(1 0 -0 1 0 841.92)" font-size="14.04" font-family="Times New Roman"><tspan y="-675.94" x="226.73 231.41">(&#x00ab;</tspan></text>
</g>
</g>
<g id="Layer-1" data-name="P">
<clipPath id="cp11330">
<path transform="matrix(1,0,0,-1,0,841.92)" d="M .000008871 0 L 595.32 0 L 595.32 841.92 L .000008871 841.92 Z " fill-rule="evenodd"/>
</clipPath>
<g clip-path="url(#cp11330)">
<text xml:space="preserve" transform="matrix(1 0 -0 1 0 841.92)" font-size="14.04" font-family="Times New Roman"><tspan y="-675.94" x="238.37">&#x0422;</tspan></text>
</g>
</g>
<g id="Layer-1" data-name="P">
<clipPath id="cp11331">
<path transform="matrix(1,0,0,-1,0,841.92)" d="M .000008871 0 L 595.32 0 L 595.32 841.92 L .000008871 841.92 Z " fill-rule="evenodd"/>
</clipPath>
<g clip-path="url(#cp11331)">
<text xml:space="preserve" transform="matrix(1 0 -0 1 0 841.92)" font-size="14.04" font-family="Times New Roman"><tspan y="-675.94" x="246.89 253.12377 260.19993 264.14515 270.26658 277.2304 284.2925 290.41395 297.47605 304.43989 309.1152 312.6252 319.6452 325.79475 332.85685 339.82069 346.05445 351.45985 355.3068 362.3689 366.31413 369.66969 373.6149 379.73634 386.79844 390.74366 396.86509 402.27049 409.33259">anlangan&#x00bb;) papkasini tanlash;</tspan></text>
</g>
</g>
<g id="Layer-1" data-name="P">
<clipPath id="cp11332">
<path transform="matrix(1,0,0,-1,0,841.92)" d="M .000008871 0 L 595.32 0 L 595.32 841.92 L .000008871 841.92 Z " fill-rule="evenodd"/>
</clipPath>
<g clip-path="url(#cp11332)">
<text xml:space="preserve" transform="matrix(1 0 -0 1 0 841.92)" font-size="14.04" font-family="Times New Roman"><tspan y="-675.94" x="413.35"> </tspan></text>
</g>
</g>
<g id="Layer-1" data-name="P">
<clipPath id="cp11333">
<path transform="matrix(1,0,0,-1,0,841.92)" d="M .000008871 0 L 595.32 0 L 595.32 841.92 L .000008871 841.92 Z " fill-rule="evenodd"/>
</clipPath>
<g clip-path="url(#cp11333)">
<text xml:space="preserve" transform="matrix(1 0 -0 1 0 841.92)" font-size="14.04" font-family="Times New Roman"><tspan y="-651.7" x="120.5">&#x2014;</tspan></text>
</g>
<clipPath id="cp11334">
<path transform="matrix(1,0,0,-1,0,841.92)" d="M .000008871 0 L 595.32 0 L 595.32 841.92 L .000008871 841.92 Z " fill-rule="evenodd"/>
</clipPath>
<g clip-path="url(#cp11334)">
<text xml:space="preserve" transform="matrix(1 0 -0 1 0 841.92)" font-size="14.04" font-family="Times New Roman"><tspan y="-651.7" x="134.54"> </tspan></text>
</g>
<clipPath id="cp11335">
<path transform="matrix(1,0,0,-1,0,841.92)" d="M .000008871 0 L 595.32 0 L 595.32 841.92 L .000008871 841.92 Z " fill-rule="evenodd"/>
</clipPath>
<g clip-path="url(#cp11335)">
<text xml:space="preserve" transform="matrix(1 0 -0 1 0 841.92)" font-size="14.04" font-family="Times New Roman"><tspan y="-651.7" x="138.02 144.85749 151.09125 158.16742 165.22954 169.17478 172.68477 179.62053 185.8543 192.81813 199.88025 206.11402 209.62401 216.43341 222.66718 227.3425 233.57627 237.53556 241.3825 246.88619 253.85002">yangi papka yaratish;</tspan></text>
</g>
<clipPath id="cp11336">
<path transform="matrix(1,0,0,-1,0,841.92)" d="M .000008871 0 L 595.32 0 L 595.32 841.92 L .000008871 841.92 Z " fill-rule="evenodd"/>
</clipPath>
<g clip-path="url(#cp11336)">
<text xml:space="preserve" transform="matrix(1 0 -0 1 0 841.92)" font-size="14.04" font-family="Times New Roman"><tspan y="-651.7" x="257.81"> </tspan></text>
</g>
</g>
<g id="Layer-1" data-name="P">
<clipPath id="cp11337">
<path transform="matrix(1,0,0,-1,0,841.92)" d="M .000008871 0 L 595.32 0 L 595.32 841.92 L .000008871 841.92 Z " fill-rule="evenodd"/>
</clipPath>
<g clip-path="url(#cp11337)">
<text xml:space="preserve" transform="matrix(1 0 -0 1 0 841.92)" font-size="14.04" font-family="Times New Roman"><tspan y="-627.58" x="120.5">&#x2014;</tspan></text>
</g>
<clipPath id="cp11338">
<path transform="matrix(1,0,0,-1,0,841.92)" d="M .000008871 0 L 595.32 0 L 595.32 841.92 L .000008871 841.92 Z " fill-rule="evenodd"/>
</clipPath>
<g clip-path="url(#cp11338)">
<text xml:space="preserve" transform="matrix(1 0 -0 1 0 841.92)" font-size="14.04" font-family="Times New Roman"><tspan y="-627.58" x="134.54"> </tspan></text>
</g>
<clipPath id="cp11339">
<path transform="matrix(1,0,0,-1,0,841.92)" d="M .000008871 0 L 595.32 0 L 595.32 841.92 L .000008871 841.92 Z " fill-rule="evenodd"/>
</clipPath>
<g clip-path="url(#cp11339)">
<text xml:space="preserve" transform="matrix(1 0 -0 1 0 841.92)" font-size="14.04" font-family="Times New Roman"><tspan y="-627.58" x="138.02 145.08213 151.20357 158.26569 165.22953 171.46329 174.97328 181.99329 188.25513 191.76512 196.44045 202.67421 209.49765 213.44289 217.28984 223.5236 228.19893 235.17682 239.12206 242.47762 247.15294 254.22911 258.79209 265.62956 272.69166 278.9254 282.87065 286.38066 293.40065 300.4908 305.0538 309.72914 313.57609 320.63819 324.48515 329.89054 336.95265 340.7996 347.8617 354.09547 357.60548 361.42436 367.6581 373.1758 380.13966 384.08488 388.64787 392.59309 398.7145 404.21818 411.182">papka va fayllarni ro&#x2019;yxat ko&#x2019;rinishida tasvirlash;</tspan></text>
</g>
<clipPath id="cp11340">
<path transform="matrix(1,0,0,-1,0,841.92)" d="M .000008871 0 L 595.32 0 L 595.32 841.92 L .000008871 841.92 Z " fill-rule="evenodd"/>
</clipPath>
<g clip-path="url(#cp11340)">
<text xml:space="preserve" transform="matrix(1 0 -0 1 0 841.92)" font-size="14.04" font-family="Times New Roman"><tspan y="-627.58" x="415.27"> </tspan></text>
</g>
</g>
<g id="Layer-1" data-name="P">
<clipPath id="cp11341">
<path transform="matrix(1,0,0,-1,0,841.92)" d="M .000008871 0 L 595.32 0 L 595.32 841.92 L .000008871 841.92 Z " fill-rule="evenodd"/>
</clipPath>
<g clip-path="url(#cp11341)">
<text xml:space="preserve" transform="matrix(1 0 -0 1 0 841.92)" font-size="14.04" font-family="Times New Roman"><tspan y="-603.46" x="120.5">&#x2014;</tspan></text>
</g>
<clipPath id="cp11342">
<path transform="matrix(1,0,0,-1,0,841.92)" d="M .000008871 0 L 595.32 0 L 595.32 841.92 L .000008871 841.92 Z " fill-rule="evenodd"/>
</clipPath>
<g clip-path="url(#cp11342)">
<text xml:space="preserve" transform="matrix(1 0 -0 1 0 841.92)" font-size="14.04" font-family="Times New Roman"><tspan y="-603.46" x="134.54"> </tspan></text>
</g>
<clipPath id="cp11343">
<path transform="matrix(1,0,0,-1,0,841.92)" d="M .000008871 0 L 595.32 0 L 595.32 841.92 L .000008871 841.92 Z " fill-rule="evenodd"/>
</clipPath>
<g clip-path="url(#cp11343)">
<text xml:space="preserve" transform="matrix(1 0 -0 1 0 841.92)" font-size="14.04" font-family="Times New Roman"><tspan y="-603.46" x="139.46 146.52213 152.64357 159.70569 166.7678 173.00157 177.7892 184.85132 191.08509 195.99909 200.67441 206.90818 213.75969 217.70493 221.65016 227.88393 232.44693 239.41077 243.356 248.25595 252.1029 258.33668 265.4128 272.37666 278.6104 282.55564 287.4556 294.41944 301.48155 306.04454 310.71986 314.5668 321.6289 325.47587 330.97953 337.94337 341.7903 348.85243 355.08619 359.87385 364.7738 369.44914 376.52528 382.75904 386.70426 397.3887 401.33393 404.84394 409.8422 416.67967 422.91343 427.58876 433.8225 437.78178 441.62873 445.57395 452.63606 458.75749 465.81959 470.71955 476.12495 482.24638 489.30848 495.54225 500.94764 504.89286 508.40287 513.2748 520.3369 526.4584 533.42227 537.3675 541.31277 546.1004 553.16256 559.3963">papka va fayllarni jadval ko&#x2019;rinishida  (hajmi, yaratilgan sanasi, vaqti va </tspan></text>
</g>
<clipPath id="cp11344">
<path transform="matrix(1,0,0,-1,0,841.92)" d="M .000008871 0 L 595.32 0 L 595.32 841.92 L .000008871 841.92 Z " fill-rule="evenodd"/>
</clipPath>
<g clip-path="url(#cp11344)">
<text xml:space="preserve" transform="matrix(1 0 -0 1 0 841.92)" font-size="14.04" font-family="Times New Roman"><tspan y="-579.34" x="85.104 92.166118 95.67612 102.69611 106.206119 110.88144 114.25104 118.19628 124.43004 129.83544 136.79927 140.7445 145.41983 148.92983 155.16359 158.98247 162.82942 168.3331 175.29694">h.k.) tasvir etish;</tspan></text>
</g>
<clipPath id="cp11345">
<path transform="matrix(1,0,0,-1,0,841.92)" d="M .000008871 0 L 595.32 0 L 595.32 841.92 L .000008871 841.92 Z " fill-rule="evenodd"/>
</clipPath>
<g clip-path="url(#cp11345)">
<text xml:space="preserve" transform="matrix(1 0 -0 1 0 841.92)" font-size="14.04" font-family="Times New Roman"><tspan y="-579.34" x="179.18"> </tspan></text>
</g>
</g>
<g id="Layer-1" data-name="P">
<clipPath id="cp11346">
<path transform="matrix(1,0,0,-1,0,841.92)" d="M .000008871 0 L 595.32 0 L 595.32 841.92 L .000008871 841.92 Z " fill-rule="evenodd"/>
</clipPath>
<g clip-path="url(#cp11346)">
<text xml:space="preserve" transform="matrix(1 0 -0 1 0 841.92)" font-size="14.04" font-family="Times New Roman"><tspan y="-555.07" x="120.5">&#x2014;</tspan></text>
</g>
<clipPath id="cp11347">
<path transform="matrix(1,0,0,-1,0,841.92)" d="M .000008871 0 L 595.32 0 L 595.32 841.92 L .000008871 841.92 Z " fill-rule="evenodd"/>
</clipPath>
<g clip-path="url(#cp11347)">
<text xml:space="preserve" transform="matrix(1 0 -0 1 0 841.92)" font-size="14.04" font-family="Times New Roman"><tspan y="-555.07" x="134.54"> </tspan></text>
</g>
<clipPath id="cp11348">
<path transform="matrix(1,0,0,-1,0,841.92)" d="M .000008871 0 L 595.32 0 L 595.32 841.92 L .000008871 841.92 Z " fill-rule="evenodd"/>
</clipPath>
<g clip-path="url(#cp11348)">
<text xml:space="preserve" transform="matrix(1 0 -0 1 0 841.92)" font-size="14.04" font-family="Times New Roman"><tspan y="-555.07" x="138.02 145.08213 151.20357 158.26569 165.22953 171.46329 174.97328 181.99329 188.25513 191.76512 196.44045 202.67421 209.49765 213.44289 217.28984 223.5236 228.19893 235.17682 239.02378 246.08589 253.14801">papka va fayllarning </tspan></text>
</g>
<clipPath id="cp11349">
<path transform="matrix(1,0,0,-1,0,841.92)" d="M .000008871 0 L 595.32 0 L 595.32 841.92 L .000008871 841.92 Z " fill-rule="evenodd"/>
</clipPath>
<g clip-path="url(#cp11349)">
<text xml:space="preserve" transform="matrix(1 0 -0 1 0 841.92)" font-size="14.04" font-family="Times New Roman"><tspan y="-555.07" x="256.61 263.6721 270.63594 276.04133 283.10343 288.50883 292.45405 299.2915 305.52528 309.4705 313.4157 319.64949 324.21247 328.05943 335.12153 339.06675 342.57676 348.6701 355.7322 361.1376 364.6476 370.88139 374.7845 378.6876 382.5907 387.1818 391.127 396.5324 403.5945">xususiyatlarini aks ettirish;</tspan></text>
</g>
<clipPath id="cp11350">
<path transform="matrix(1,0,0,-1,0,841.92)" d="M .000008871 0 L 595.32 0 L 595.32 841.92 L .000008871 841.92 Z " fill-rule="evenodd"/>
</clipPath>
<g clip-path="url(#cp11350)">
<text xml:space="preserve" transform="matrix(1 0 -0 1 0 841.92)" font-size="14.04" font-family="Times New Roman"><tspan y="-555.07" x="407.59"> </tspan></text>
</g>
</g>
<g id="Layer-1" data-name="P">
<clipPath id="cp11351">
<path transform="matrix(1,0,0,-1,0,841.92)" d="M .000008871 0 L 595.32 0 L 595.32 841.92 L .000008871 841.92 Z " fill-rule="evenodd"/>
</clipPath>
<g clip-path="url(#cp11351)">
<text xml:space="preserve" transform="matrix(1 0 -0 1 0 841.92)" font-size="14.04" font-family="Times New Roman"><tspan y="-530.95" x="120.5">&#x2014;</tspan></text>
</g>
<clipPath id="cp11352">
<path transform="matrix(1,0,0,-1,0,841.92)" d="M .000008871 0 L 595.32 0 L 595.32 841.92 L .000008871 841.92 Z " fill-rule="evenodd"/>
</clipPath>
<g clip-path="url(#cp11352)">
<text xml:space="preserve" transform="matrix(1 0 -0 1 0 841.92)" font-size="14.04" font-family="Times New Roman"><tspan y="-530.95" x="134.54"> </tspan></text>
</g>
<clipPath id="cp11353">
<path transform="matrix(1,0,0,-1,0,841.92)" d="M .000008871 0 L 595.32 0 L 595.32 841.92 L .000008871 841.92 Z " fill-rule="evenodd"/>
</clipPath>
<g clip-path="url(#cp11353)">
<text xml:space="preserve" transform="matrix(1 0 -0 1 0 841.92)" font-size="14.04" font-family="Times New Roman"><tspan y="-530.95" x="138.02 145.08213 152.14424 158.98172 163.65705 170.62088 177.683 181.62824 187.74968 192.425 195.935 202.955 209.18877 212.69876 217.37409 223.60785 227.35654 231.30178 242.09854 246.04378 252.27754 256.95286 260.46287 267.39863 271.24559 278.30769 282.15464 289.11848 296.18058 300.8559 307.08967 317.90046 328.5849 334.81867 340.33638 344.2816">buyruqlar va rejimlar piktogrammasi.</tspan></text>
</g>
<clipPath id="cp11354">
<path transform="matrix(1,0,0,-1,0,841.92)" d="M .000008871 0 L 595.32 0 L 595.32 841.92 L .000008871 841.92 Z " fill-rule="evenodd"/>
</clipPath>
<g clip-path="url(#cp11354)">
<text xml:space="preserve" transform="matrix(1 0 -0 1 0 841.92)" font-size="14.04" font-family="Times New Roman"><tspan y="-530.95" x="347.95"> </tspan></text>
</g>
</g>
<g id="Layer-1" data-name="P">
<clipPath id="cp11355">
<path transform="matrix(1,0,0,-1,0,841.92)" d="M .000008871 0 L 595.32 0 L 595.32 841.92 L .000008871 841.92 Z " fill-rule="evenodd"/>
</clipPath>
<g clip-path="url(#cp11355)">
<text xml:space="preserve" transform="matrix(1 0 -0 1 0 841.92)" font-size="14.04" font-family="Times New Roman"><tspan y="-506.83" x="120.5 132.98157 139.21533 145.4491 152.42699 159.4891 164.16443 170.03314 177.09526 184.15738 188.00434 191.85129 198.08506 201.932 208.99413 215.22789 221.0966 225.04184 230.44724 237.50936 241.35631 248.41843 255.48055 261.34928 268.41139 274.64515 279.20814 283.15336 288.55876 295.62086 301.6019 305.44886 312.4127 319.4748 325.59623 332.65834 338.77976 345.84187 349.6888 356.75093 362.87236 369.93446 375.9155 382.9776 389.21138 396.06288 400.0081 407.0702 412.93894 420.00105 426.96488 430.9101 436.89115 443.7286 450.7907 457.75456 461.69978 467.10517 474.16728 480.036 486.26979 492.50355 497.17887 504.255 508.93034 512.4403 518.4073 527.6456 534.6095 541.67166 545.5186 552.4825 559.44638">Mazkur hujjatga ishlov berish tugaganidan keyin uni yopish zarur. Buning </tspan></text>
</g>
<clipPath id="cp11356">
<path transform="matrix(1,0,0,-1,0,841.92)" d="M .000008871 0 L 595.32 0 L 595.32 841.92 L .000008871 841.92 Z " fill-rule="evenodd"/>
</clipPath>
<g clip-path="url(#cp11356)">
<text xml:space="preserve" transform="matrix(1 0 -0 1 0 841.92)" font-size="14.04" font-family="Times New Roman"><tspan y="-482.71" x="85.104 92.166118 98.28755 105.34967 112.31351 119.375629">uchun </tspan></text>
</g>
<clipPath id="cp11357">
<path transform="matrix(1,0,0,-1,0,841.92)" d="M .000008871 0 L 595.32 0 L 595.32 841.92 L .000008871 841.92 Z " fill-rule="evenodd"/>
</clipPath>
<g clip-path="url(#cp11357)">
<text xml:space="preserve" transform="matrix(1 0 -0 1 0 841.92)" font-size="14.04" font-family="Times New Roman,Bold" font-weight="bold"><tspan y="-482.71" x="122.9">&#x00ab;</tspan></text>
</g>
</g>
<g id="Layer-1" data-name="P">
<clipPath id="cp11358">
<path transform="matrix(1,0,0,-1,0,841.92)" d="M .000008871 0 L 595.32 0 L 595.32 841.92 L .000008871 841.92 Z " fill-rule="evenodd"/>
</clipPath>
<g clip-path="url(#cp11358)">
<text xml:space="preserve" transform="matrix(1 0 -0 1 0 841.92)" font-size="14.04" font-family="Times New Roman,Bold" font-weight="bold"><tspan y="-482.71" x="129.98 141.85784 148.91996 156.96488">&#x0424;&#x0430;&#x0439;&#x043b;</tspan></text>
</g>
</g>
<g id="Layer-1" data-name="P">
<clipPath id="cp11359">
<path transform="matrix(1,0,0,-1,0,841.92)" d="M .000008871 0 L 595.32 0 L 595.32 841.92 L .000008871 841.92 Z " fill-rule="evenodd"/>
</clipPath>
<g clip-path="url(#cp11359)">
<text xml:space="preserve" transform="matrix(1 0 -0 1 0 841.92)" font-size="14.04" font-family="Times New Roman,Bold" font-weight="bold"><tspan y="-482.71" x="164.78">&#x00bb;</tspan></text>
</g>
</g>
<g id="Layer-1" data-name="P">
<clipPath id="cp11360">
<path transform="matrix(1,0,0,-1,0,841.92)" d="M .000008871 0 L 595.32 0 L 595.32 841.92 L .000008871 841.92 Z " fill-rule="evenodd"/>
</clipPath>
<g clip-path="url(#cp11360)">
<text xml:space="preserve" transform="matrix(1 0 -0 1 0 841.92)" font-size="14.04" font-family="Times New Roman"><tspan y="-482.71" x="171.86"> </tspan></text>
</g>
</g>
<g id="Layer-1" data-name="P">
<clipPath id="cp11361">
<path transform="matrix(1,0,0,-1,0,841.92)" d="M .000008871 0 L 595.32 0 L 595.32 841.92 L .000008871 841.92 Z " fill-rule="evenodd"/>
</clipPath>
<g clip-path="url(#cp11361)">
<text xml:space="preserve" transform="matrix(1 0 -0 1 0 841.92)" font-size="14.04" font-family="Times New Roman"><tspan y="-482.71" x="175.34 186.02445 192.25821 199.4467 206.41054 213.47266 218.87805 222.725 229.78713 236.02089 242.98473 246.92996">menyusidagi </tspan></text>
</g>
</g>
<g id="Layer-1" data-name="P">
<clipPath id="cp11362">
<path transform="matrix(1,0,0,-1,0,841.92)" d="M .000008871 0 L 595.32 0 L 595.32 841.92 L .000008871 841.92 Z " fill-rule="evenodd"/>
</clipPath>
<g clip-path="url(#cp11362)">
<text xml:space="preserve" transform="matrix(1 0 -0 1 0 841.92)" font-size="14.04" font-family="Times New Roman,Bold" font-weight="bold"><tspan y="-482.71" x="250.49">&#x00ab;</tspan></text>
</g>
</g>
<g id="Layer-1" data-name="P">
<clipPath id="cp11363">
<path transform="matrix(1,0,0,-1,0,841.92)" d="M .000008871 0 L 595.32 0 L 595.32 841.92 L .000008871 841.92 Z " fill-rule="evenodd"/>
</clipPath>
<g clip-path="url(#cp11363)">
<text xml:space="preserve" transform="matrix(1 0 -0 1 0 841.92)" font-size="14.04" font-family="Times New Roman,Bold" font-weight="bold"><tspan y="-482.71" x="257.45 264.76487 271.82698 279.8719 287.67814 298.58723 305.53703">&#x0417;&#x0430;&#x043a;&#x0440;&#x044b;&#x0442;&#x044c;</tspan></text>
</g>
</g>
<g id="Layer-1" data-name="P">
<clipPath id="cp11364">
<path transform="matrix(1,0,0,-1,0,841.92)" d="M .000008871 0 L 595.32 0 L 595.32 841.92 L .000008871 841.92 Z " fill-rule="evenodd"/>
</clipPath>
<g clip-path="url(#cp11364)">
<text xml:space="preserve" transform="matrix(1 0 -0 1 0 841.92)" font-size="14.04" font-family="Times New Roman,Bold" font-weight="bold"><tspan y="-482.71" x="312.89">&#x00bb;</tspan></text>
</g>
</g>
<g id="Layer-1" data-name="P">
<clipPath id="cp11365">
<path transform="matrix(1,0,0,-1,0,841.92)" d="M .000008871 0 L 595.32 0 L 595.32 841.92 L .000008871 841.92 Z " fill-rule="evenodd"/>
</clipPath>
<g clip-path="url(#cp11365)">
<text xml:space="preserve" transform="matrix(1 0 -0 1 0 841.92)" font-size="14.04" font-family="Times New Roman"><tspan y="-482.71" x="319.99"> </tspan></text>
</g>
</g>
<g id="Layer-1" data-name="P">
<clipPath id="cp11366">
<path transform="matrix(1,0,0,-1,0,841.92)" d="M .000008871 0 L 595.32 0 L 595.32 841.92 L .000008871 841.92 Z " fill-rule="evenodd"/>
</clipPath>
<g clip-path="url(#cp11366)">
<text xml:space="preserve" transform="matrix(1 0 -0 1 0 841.92)" font-size="14.04" font-family="Times New Roman"><tspan y="-482.71" x="323.47 328.033 338.1137 345.1758 352.13966 356.08488 361.49028 368.55238 373.2277 376.5973 383.6594 390.7215 397.55897 402.23429 409.31044 416.37254 420.93553 424.78248 431.84458 435.7898 439.2998 443.83473 449.95616 457.01826 460.8652 464.81044 470.93186 476.43553 483.39936 487.34458 491.19154 495.86686 499.7138 505.21748 512.2796 515.6352 519.4822 526.5443 532.7781 536.7233 547.4077">(Yopish) buyrug&#x2019;ini faollashtirish lozim.</tspan></text>
</g>
</g>
<g id="Layer-1" data-name="P">
<clipPath id="cp11367">
<path transform="matrix(1,0,0,-1,0,841.92)" d="M .000008871 0 L 595.32 0 L 595.32 841.92 L .000008871 841.92 Z " fill-rule="evenodd"/>
</clipPath>
<g clip-path="url(#cp11367)">
<text xml:space="preserve" transform="matrix(1 0 -0 1 0 841.92)" font-size="14.04" font-family="Times New Roman"><tspan y="-482.71" x="551.26"> </tspan></text>
</g>
</g>
<g id="Layer-1" data-name="P">
<clipPath id="cp11368">
<path transform="matrix(1,0,0,-1,0,841.92)" d="M .000008871 0 L 595.32 0 L 595.32 841.92 L .000008871 841.92 Z " fill-rule="evenodd"/>
</clipPath>
<g clip-path="url(#cp11368)">
<text xml:space="preserve" transform="matrix(1 0 -0 1 0 841.92)" font-size="14.04" font-family="Times New Roman"><tspan y="-458.47" x="120.5 130.58072 136.81449 142.33222 146.17917 153.24129 157.91661 164.99277 168.83972 174.24512 181.30724 185.15419 192.21631 196.16155 203.11135 207.05658 214.02042 221.08254 227.20398 231.14922 241.94599 248.17975 253.69748 260.66133 266.89509 273.97123 280.92103 287.98313 294.2169 298.8922 305.0277 312.0898 318.32359 325.27339 332.33549 338.4569 345.519">Dastur ishini tugatmasdan barcha ochi</tspan></text>
</g>
<clipPath id="cp11369">
<path transform="matrix(1,0,0,-1,0,841.92)" d="M .000008871 0 L 595.32 0 L 595.32 841.92 L .000008871 841.92 Z " fill-rule="evenodd"/>
</clipPath>
<g clip-path="url(#cp11369)">
<text xml:space="preserve" transform="matrix(1 0 -0 1 0 841.92)" font-size="14.04" font-family="Times New Roman"><tspan y="-458.47" x="349.63 353.57524 360.53907 366.77284 373.84898 380.9111 385.58644 391.8202 398.6717 402.6169 406.56214 412.7959 417.3589 424.421 428.3662 435.42835 442.2658 449.3279 456.29176 460.23698 465.64237 472.70448 479.65428 486.71638 492.8378 499.8999 506.86375 513.92587 520.988 528.7942 538.87496 543.55026 551.35647 559.7524">lgan fayllarni yopish uchun SHIFT </tspan></text>
</g>
<clipPath id="cp11370">
<path transform="matrix(1,0,0,-1,0,841.92)" d="M .000008871 0 L 595.32 0 L 595.32 841.92 L .000008871 841.92 Z " fill-rule="evenodd"/>
</clipPath>
<g clip-path="url(#cp11370)">
<text xml:space="preserve" transform="matrix(1 0 -0 1 0 841.92)" font-size="14.04" font-family="Times New Roman"><tspan y="-434.35" x="85.104 89.04924 96.01308 103.075199 113.759639 119.99339 126.22715 133.30332 139.53708 144.94248 148.88771 155.85155 159.79679 168.41735 175.38118 182.4433 187.8487 191.69565 198.75777 202.26776">tugmachasini bosib, </tspan></text>
</g>
<clipPath id="cp11371">
<path transform="matrix(1,0,0,-1,0,841.92)" d="M .000008871 0 L 595.32 0 L 595.32 841.92 L .000008871 841.92 Z " fill-rule="evenodd"/>
</clipPath>
<g clip-path="url(#cp11371)">
<text xml:space="preserve" transform="matrix(1 0 -0 1 0 841.92)" font-size="14.04" font-family="Times New Roman,Bold" font-weight="bold"><tspan y="-434.35" x="211.01">&#x00ab;</tspan></text>
</g>
</g>
<g id="Layer-1" data-name="P">
<clipPath id="cp11372">
<path transform="matrix(1,0,0,-1,0,841.92)" d="M .000008871 0 L 595.32 0 L 595.32 841.92 L .000008871 841.92 Z " fill-rule="evenodd"/>
</clipPath>
<g clip-path="url(#cp11372)">
<text xml:space="preserve" transform="matrix(1 0 -0 1 0 841.92)" font-size="14.04" font-family="Times New Roman,Bold" font-weight="bold"><tspan y="-434.35" x="218.09 230.0942 237.15631 245.20124">&#x0424;&#x0430;&#x0439;&#x043b;</tspan></text>
</g>
</g>
<g id="Layer-1" data-name="P">
<clipPath id="cp11373">
<path transform="matrix(1,0,0,-1,0,841.92)" d="M .000008871 0 L 595.32 0 L 595.32 841.92 L .000008871 841.92 Z " fill-rule="evenodd"/>
</clipPath>
<g clip-path="url(#cp11373)">
<text xml:space="preserve" transform="matrix(1 0 -0 1 0 841.92)" font-size="14.04" font-family="Times New Roman,Bold" font-weight="bold"><tspan y="-434.35" x="253.01">&#x00bb;</tspan></text>
</g>
</g>
<g id="Layer-1" data-name="P">
<clipPath id="cp11374">
<path transform="matrix(1,0,0,-1,0,841.92)" d="M .000008871 0 L 595.32 0 L 595.32 841.92 L .000008871 841.92 Z " fill-rule="evenodd"/>
</clipPath>
<g clip-path="url(#cp11374)">
<text xml:space="preserve" transform="matrix(1 0 -0 1 0 841.92)" font-size="14.04" font-family="Times New Roman"><tspan y="-434.35" x="260.09"> </tspan></text>
</g>
</g>
<g id="Layer-1" data-name="P">
<clipPath id="cp11375">
<path transform="matrix(1,0,0,-1,0,841.92)" d="M .000008871 0 L 595.32 0 L 595.32 841.92 L .000008871 841.92 Z " fill-rule="evenodd"/>
</clipPath>
<g clip-path="url(#cp11375)">
<text xml:space="preserve" transform="matrix(1 0 -0 1 0 841.92)" font-size="14.04" font-family="Times New Roman"><tspan y="-434.35" x="268.85 279.53446 285.76823 292.84437 299.68183 306.74394 312.2476 316.09455 323.05839 329.29216">menyusida </tspan></text>
</g>
</g>
<g id="Layer-1" data-name="P">
<clipPath id="cp11376">
<path transform="matrix(1,0,0,-1,0,841.92)" d="M .000008871 0 L 595.32 0 L 595.32 841.92 L .000008871 841.92 Z " fill-rule="evenodd"/>
</clipPath>
<g clip-path="url(#cp11376)">
<text xml:space="preserve" transform="matrix(1 0 -0 1 0 841.92)" font-size="14.04" font-family="Times New Roman,Bold" font-weight="bold"><tspan y="-434.35" x="337.99">&#x00ab;</tspan></text>
</g>
</g>
<g id="Layer-1" data-name="P">
<clipPath id="cp11377">
<path transform="matrix(1,0,0,-1,0,841.92)" d="M .000008871 0 L 595.32 0 L 595.32 841.92 L .000008871 841.92 Z " fill-rule="evenodd"/>
</clipPath>
<g clip-path="url(#cp11377)">
<text xml:space="preserve" transform="matrix(1 0 -0 1 0 841.92)" font-size="14.04" font-family="Times New Roman,Bold" font-weight="bold"><tspan y="-434.35" x="345.07 352.38487 359.44697 367.49189 375.29814 386.2072 393.157">&#x0417;&#x0430;&#x043a;&#x0440;&#x044b;&#x0442;&#x044c;</tspan></text>
</g>
</g>
<g id="Layer-1" data-name="P">
<clipPath id="cp11378">
<path transform="matrix(1,0,0,-1,0,841.92)" d="M .000008871 0 L 595.32 0 L 595.32 841.92 L .000008871 841.92 Z " fill-rule="evenodd"/>
</clipPath>
<g clip-path="url(#cp11378)">
<text xml:space="preserve" transform="matrix(1 0 -0 1 0 841.92)" font-size="14.04" font-family="Times New Roman,Bold" font-weight="bold"><tspan y="-434.35" x="400.63"> </tspan></text>
</g>
</g>
<g id="Layer-1" data-name="P">
<clipPath id="cp11379">
<path transform="matrix(1,0,0,-1,0,841.92)" d="M .000008871 0 L 595.32 0 L 595.32 841.92 L .000008871 841.92 Z " fill-rule="evenodd"/>
</clipPath>
<g clip-path="url(#cp11379)">
<text xml:space="preserve" transform="matrix(1 0 -0 1 0 841.92)" font-size="14.04" font-family="Times New Roman,Bold" font-weight="bold"><tspan y="-434.35" x="409.27 416.8516 423.08537">&#x0432;&#x0441;&#x0435;</tspan></text>
</g>
</g>
<g id="Layer-1" data-name="P">
<clipPath id="cp11380">
<path transform="matrix(1,0,0,-1,0,841.92)" d="M .000008871 0 L 595.32 0 L 595.32 841.92 L .000008871 841.92 Z " fill-rule="evenodd"/>
</clipPath>
<g clip-path="url(#cp11380)">
<text xml:space="preserve" transform="matrix(1 0 -0 1 0 841.92)" font-size="14.04" font-family="Times New Roman,Bold" font-weight="bold"><tspan y="-434.35" x="429.19">&#x00bb;</tspan></text>
</g>
</g>
<g id="Layer-1" data-name="P">
<clipPath id="cp11381">
<path transform="matrix(1,0,0,-1,0,841.92)" d="M .000008871 0 L 595.32 0 L 595.32 841.92 L .000008871 841.92 Z " fill-rule="evenodd"/>
</clipPath>
<g clip-path="url(#cp11381)">
<text xml:space="preserve" transform="matrix(1 0 -0 1 0 841.92)" font-size="14.04" font-family="Times New Roman"><tspan y="-434.35" x="436.27"> </tspan></text>
</g>
</g>
<g id="Layer-1" data-name="P">
<clipPath id="cp11382">
<path transform="matrix(1,0,0,-1,0,841.92)" d="M .000008871 0 L 595.32 0 L 595.32 841.92 L .000008871 841.92 Z " fill-rule="evenodd"/>
</clipPath>
<g clip-path="url(#cp11382)">
<text xml:space="preserve" transform="matrix(1 0 -0 1 0 841.92)" font-size="14.04" font-family="Times New Roman"><tspan y="-434.35" x="444.82 449.49534 458.86003 465.09379 469.7691 475.9046 482.9667 489.20048 494.60588 498.45283 505.51493 509.46015 518.0807 524.9182 531.98037 539.0425 542.88949 548.29489 555.357 559.92">(Barchasini yopish) </tspan></text>
</g>
</g>
<g id="Layer-1" data-name="P">
<clipPath id="cp11383">
<path transform="matrix(1,0,0,-1,0,841.92)" d="M .000008871 0 L 595.32 0 L 595.32 841.92 L .000008871 841.92 Z " fill-rule="evenodd"/>
</clipPath>
<g clip-path="url(#cp11383)">
<text xml:space="preserve" transform="matrix(1 0 -0 1 0 841.92)" font-size="14.04" font-family="Times New Roman"><tspan y="-410.23" x="85.104 92.166118 99.22823 106.06571 110.741039 117.81719 124.87931 129.4423 133.28926 140.35138 144.29662 147.80661 152.34154 158.5753 165.53914 169.48438 173.33133 179.5651 184.97049 191.93433 195.87957 199.8248 204.3878 208.33304 213.73844 220.80055 224.31055 231.2463 237.48007 242.1554 248.29088 255.353">buyrug&#x2019;ini faollashtirish kerak.</tspan></text>
</g>
</g>
<g id="Layer-1" data-name="P">
<clipPath id="cp11384">
<path transform="matrix(1,0,0,-1,0,841.92)" d="M .000008871 0 L 595.32 0 L 595.32 841.92 L .000008871 841.92 Z " fill-rule="evenodd"/>
</clipPath>
<g clip-path="url(#cp11384)">
<text xml:space="preserve" transform="matrix(1 0 -0 1 0 841.92)" font-size="14.04" font-family="Times New Roman"><tspan y="-410.23" x="259.01"> </tspan></text>
</g>
</g>
<g id="Layer-1" data-name="P">
<clipPath id="cp11385">
<path transform="matrix(1,0,0,-1,0,841.92)" d="M .000008871 0 L 595.32 0 L 595.32 841.92 L .000008871 841.92 Z " fill-rule="evenodd"/>
</clipPath>
<g clip-path="url(#cp11385)">
<text xml:space="preserve" transform="matrix(1 0 -0 1 0 841.92)" font-size="14.04" font-family="Times New Roman,Bold" font-weight="bold"><tspan y="-386.09" x="120.5"> </tspan></text>
</g>
<clipPath id="cp11386">
<path transform="matrix(1,0,0,-1,0,841.92)" d="M .000008871 0 L 595.32 0 L 595.32 841.92 L .000008871 841.92 Z " fill-rule="evenodd"/>
</clipPath>
<g clip-path="url(#cp11386)">
<text xml:space="preserve" transform="matrix(1 0 -0 1 0 841.92)" font-size="14.04" font-family="Times New Roman,Bold" font-weight="bold"><tspan y="-386.09" x="123.98 134.90001 142.70313 147.37532 152.04752">Hujja</tspan></text>
</g>
</g>
<g id="Layer-1" data-name="P">
<clipPath id="cp11387">
<path transform="matrix(1,0,0,-1,0,841.92)" d="M .000008871 0 L 595.32 0 L 595.32 841.92 L .000008871 841.92 Z " fill-rule="evenodd"/>
</clipPath>
<g clip-path="url(#cp11387)">
<text xml:space="preserve" transform="matrix(1 0 -0 1 0 841.92)" font-size="14.04" font-family="Times New Roman,Bold" font-weight="bold"><tspan y="-386.09" x="159.02">&#x0442;</tspan></text>
</g>
</g>
<g id="Layer-1" data-name="P">
<clipPath id="cp11388">
<path transform="matrix(1,0,0,-1,0,841.92)" d="M .000008871 0 L 595.32 0 L 595.32 841.92 L .000008871 841.92 Z " fill-rule="evenodd"/>
</clipPath>
<g clip-path="url(#cp11388)">
<text xml:space="preserve" transform="matrix(1 0 -0 1 0 841.92)" font-size="14.04" font-family="Times New Roman,Bold" font-weight="bold"><tspan y="-386.09" x="165.98 169.82695 176.88907 183.12284 190.80272 194.74796 200.25164 206.4854 214.16529 221.2274 229.03365 234.53733">larni chop e</tspan></text>
</g>
</g>
<g id="Layer-1" data-name="P">
<clipPath id="cp11389">
<path transform="matrix(1,0,0,-1,0,841.92)" d="M .000008871 0 L 595.32 0 L 595.32 841.92 L .000008871 841.92 Z " fill-rule="evenodd"/>
</clipPath>
<g clip-path="url(#cp11389)">
<text xml:space="preserve" transform="matrix(1 0 -0 1 0 841.92)" font-size="14.04" font-family="Times New Roman,Bold" font-weight="bold"><tspan y="-386.09" x="240.77">&#x0442;</tspan></text>
</g>
</g>
<g id="Layer-1" data-name="P">
<clipPath id="cp11390">
<path transform="matrix(1,0,0,-1,0,841.92)" d="M .000008871 0 L 595.32 0 L 595.32 841.92 L .000008871 841.92 Z " fill-rule="evenodd"/>
</clipPath>
<g clip-path="url(#cp11390)">
<text xml:space="preserve" transform="matrix(1 0 -0 1 0 841.92)" font-size="14.04" font-family="Times New Roman,Bold" font-weight="bold"><tspan y="-386.09" x="247.73 251.57695 257.08064 264.88688 268.39689">ish. </tspan></text>
</g>
</g>
<g id="Layer-1" data-name="P">
<clipPath id="cp11391">
<path transform="matrix(1,0,0,-1,0,841.92)" d="M .000008871 0 L 595.32 0 L 595.32 841.92 L .000008871 841.92 Z " fill-rule="evenodd"/>
</clipPath>
<g clip-path="url(#cp11391)">
<text xml:space="preserve" transform="matrix(1 0 -0 1 0 841.92)" font-size="14.04" font-family="Times New Roman"><tspan y="-386.09" x="273.89 283.97074 291.03285 294.8798 298.72676 304.9605 308.80747 315.86958 319.8148 325.20616 331.4399 338.40376 345.36759 352.4297 357.82106 364.0548 368.00004 371.847 377.25239 384.31449 391.27833 397.5121 404.58824 410.09193 416.21336 423.1772 430.2393 436.47306 440.41828 443.92829 449.27754 456.33964 461.731 468.7931 475.75694 482.81904 487.38203 494.44413 500.6779 507.64173 513.8755 519.3932 526.4553 532.5768 539.54067 546.6028 552.83657 559.6881">Hujjatni chop etishdan avval, u qog&#x2019;ozda qanday </tspan></text>
</g>
</g>
<g id="Layer-1" data-name="P">
<clipPath id="cp11392">
<path transform="matrix(1,0,0,-1,0,841.92)" d="M .000008871 0 L 595.32 0 L 595.32 841.92 L .000008871 841.92 Z " fill-rule="evenodd"/>
</clipPath>
<g clip-path="url(#cp11392)">
<text xml:space="preserve" transform="matrix(1 0 -0 1 0 841.92)" font-size="14.04" font-family="Times New Roman"><tspan y="-361.97" x="85.104 88.95096 96.01308 102.850559 106.7958 113.02956 120.10571 123.952678 129.45635 136.42018 140.36542 147.32926 151.27449 160.49877 167.56089 171.40784 178.37168 182.31691 189.28075 196.34287 202.46431 209.52643 218.87706 225.8409 232.90302 237.46602 242.14134 245.9883 253.05042 262.40107 269.3649 276.427 280.99 287.82746 291.77268 297.27635 304.33845 313.6891 324.48585 330.7196 337.79576 343.20115 349.4349 356.39875 363.46086">joylanishini oldindan ko&#x2019;rib qo&#x2019;yish maqsadga</tspan></text>
</g>
</g>
<g id="Layer-1" data-name="P">
<clipPath id="cp11393">
<path transform="matrix(1,0,0,-1,0,841.92)" d="M .000008871 0 L 595.32 0 L 595.32 841.92 L .000008871 841.92 Z " fill-rule="evenodd"/>
</clipPath>
<g clip-path="url(#cp11393)">
<text xml:space="preserve" transform="matrix(1 0 -0 1 0 841.92)" font-size="14.04" font-family="Times New Roman"><tspan y="-361.97" x="370.03"> </tspan></text>
</g>
</g>
<g id="Layer-1" data-name="P">
<clipPath id="cp11394">
<path transform="matrix(1,0,0,-1,0,841.92)" d="M .000008871 0 L 595.32 0 L 595.32 841.92 L .000008871 841.92 Z " fill-rule="evenodd"/>
</clipPath>
<g clip-path="url(#cp11394)">
<text xml:space="preserve" transform="matrix(1 0 -0 1 0 841.92)" font-size="14.04" font-family="Times New Roman"><tspan y="-361.97" x="379.39 390.07447 397.13658 404.1004 411.1625 415.83784 419.68479 426.7469 430.2569 439.4531 448.81779 455.76759 462.82969 469.89179 476.12556 482.97706 492.3277 496.27293 506.95738 514.0195 521.0816 528.0455 531.9907 538.82827 545.062 549.00729 556.0694 559.79006">muvofiq. Bunday imkoniyatni </tspan></text>
</g>
</g>
<g id="Layer-1" data-name="P">
<clipPath id="cp11395">
<path transform="matrix(1,0,0,-1,0,841.92)" d="M .000008871 0 L 595.32 0 L 595.32 841.92 L .000008871 841.92 Z " fill-rule="evenodd"/>
</clipPath>
<g clip-path="url(#cp11395)">
<text xml:space="preserve" transform="matrix(1 0 -0 1 0 841.92)" font-size="14.04" font-family="Times New Roman,Bold" font-weight="bold"><tspan y="-337.73" x="85.104">&#x00ab;</tspan></text>
</g>
</g>
<g id="Layer-1" data-name="P">
<clipPath id="cp11396">
<path transform="matrix(1,0,0,-1,0,841.92)" d="M .000008871 0 L 595.32 0 L 595.32 841.92 L .000008871 841.92 Z " fill-rule="evenodd"/>
</clipPath>
<g clip-path="url(#cp11396)">
<text xml:space="preserve" transform="matrix(1 0 -0 1 0 841.92)" font-size="14.04" font-family="Times New Roman,Bold" font-weight="bold"><tspan y="-337.73" x="92.184 103.10712 110.91336 117.14712 124.25136 131.66448 138.7266 146.53284 154.5637 161.40119 167.63495 175.5535 182.98065 191.06769 201.83637">&#x041f;&#x0440;&#x0435;&#x0434;&#x0432;&#x0430;&#x0440;&#x0438;&#x0442;&#x0435;&#x043b;&#x044c;&#x043d;&#x044b;&#x0439;</tspan></text>
</g>
</g>
<g id="Layer-1" data-name="P">
<clipPath id="cp11397">
<path transform="matrix(1,0,0,-1,0,841.92)" d="M .000008871 0 L 595.32 0 L 595.32 841.92 L .000008871 841.92 Z " fill-rule="evenodd"/>
</clipPath>
<g clip-path="url(#cp11397)">
<text xml:space="preserve" transform="matrix(1 0 -0 1 0 841.92)" font-size="14.04" font-family="Times New Roman,Bold" font-weight="bold"><tspan y="-337.73" x="209.93"> </tspan></text>
</g>
</g>
<g id="Layer-1" data-name="P">
<clipPath id="cp11398">
<path transform="matrix(1,0,0,-1,0,841.92)" d="M .000008871 0 L 595.32 0 L 595.32 841.92 L .000008871 841.92 Z " fill-rule="evenodd"/>
</clipPath>
<g clip-path="url(#cp11398)">
<text xml:space="preserve" transform="matrix(1 0 -0 1 0 841.92)" font-size="14.04" font-family="Times New Roman,Bold" font-weight="bold"><tspan y="-337.73" x="219.05 227.09493 234.90117 241.96329 248.19705 257.6881 264.65196 271.60176">&#x043f;&#x0440;&#x043e;&#x0441;&#x043c;&#x043e;&#x0442;&#x0440;</tspan></text>
</g>
</g>
<g id="Layer-1" data-name="P">
<clipPath id="cp11399">
<path transform="matrix(1,0,0,-1,0,841.92)" d="M .000008871 0 L 595.32 0 L 595.32 841.92 L .000008871 841.92 Z " fill-rule="evenodd"/>
</clipPath>
<g clip-path="url(#cp11399)">
<text xml:space="preserve" transform="matrix(1 0 -0 1 0 841.92)" font-size="14.04" font-family="Times New Roman,Bold" font-weight="bold"><tspan y="-337.73" x="279.41">&#x00bb;</tspan></text>
</g>
</g>
<g id="Layer-1" data-name="P">
<clipPath id="cp11400">
<path transform="matrix(1,0,0,-1,0,841.92)" d="M .000008871 0 L 595.32 0 L 595.32 841.92 L .000008871 841.92 Z " fill-rule="evenodd"/>
</clipPath>
<g clip-path="url(#cp11400)">
<text xml:space="preserve" transform="matrix(1 0 -0 1 0 841.92)" font-size="14.04" font-family="Times New Roman"><tspan y="-337.73" x="286.49"> </tspan></text>
</g>
</g>
<g id="Layer-1" data-name="P">
<clipPath id="cp11401">
<path transform="matrix(1,0,0,-1,0,841.92)" d="M .000008871 0 L 595.32 0 L 595.32 841.92 L .000008871 841.92 Z " fill-rule="evenodd"/>
</clipPath>
<g clip-path="url(#cp11401)">
<text xml:space="preserve" transform="matrix(1 0 -0 1 0 841.92)" font-size="14.04" font-family="Times New Roman"><tspan y="-337.73" x="295.49 300.1653 310.24604 316.4798 321.8852 325.8304 329.77565 335.89707 342.8609 349.923 353.86824 362.85383 369.81767 376.87977 381.44276 386.11808 390.0633 395.4687 402.5308 407.20613 416.1917 423.2538 430.31593 437.15339 441.8287 448.90486 455.96696 460.52995 464.47517 473.58714 480.4246 486.65837 491.33369 497.56745 501.42845 505.37367 512.4358 521.4214 528.4835 534.7173 539.2803 545.51406 552.4779 556.3249 559.6805">(Dastlabki ko&#x2019;rish) buyrug&#x2019;i yaratib beradi. </tspan></text>
</g>
</g>
<g id="Layer-1" data-name="P">
<clipPath id="cp11402">
<path transform="matrix(1,0,0,-1,0,841.92)" d="M .000008871 0 L 595.32 0 L 595.32 841.92 L .000008871 841.92 Z " fill-rule="evenodd"/>
</clipPath>
<g clip-path="url(#cp11402)">
<text xml:space="preserve" transform="matrix(1 0 -0 1 0 841.92)" font-size="14.04" font-family="Times New Roman"><tspan y="-313.61" x="85.104 95.184719 101.41847 106.936199 110.78316 114.7284 120.84984 127.91196 134.8758 138.82103 153.92807 160.8919 167.95403 172.51703 177.19235 181.13759 186.54299 193.50682 208.61386 213.28919 219.52295 223.3699 227.44152 238.12596 242.0712 249.13332 255.36708 262.44325 277.5503 283.67173 290.73384 294.58079 301.64289 305.48985 310.89524 317.95735 333.0644 340.1265 346.24794 353.31004 360.27388 367.33598 382.44303 389.50514 395.7389 406.42335 413.48545 420.3229 427.385 434.4471 449.55418 456.61628 463.67839 468.24137 472.08833 479.15043 485.27186 492.33396 507.441 514.5031 521.34066 528.4028 534.63656 541.6004 545.4474 552.5095 559.4734">Dastlabki ko&#x2019;rish rejimidan chiqish uchun namoyon bo&#x2019;lgan oynaning </tspan></text>
</g>
</g>
<g id="Layer-1" data-name="P">
<clipPath id="cp11403">
<path transform="matrix(1,0,0,-1,0,841.92)" d="M .000008871 0 L 595.32 0 L 595.32 841.92 L .000008871 841.92 Z " fill-rule="evenodd"/>
</clipPath>
<g clip-path="url(#cp11403)">
<text xml:space="preserve" transform="matrix(1 0 -0 1 0 841.92)" font-size="14.04" font-family="Times New Roman"><tspan y="-289.49" x="85.104 92.166118 96.01308 103.075199 106.92216 113.885997 120.94811 125.623439 131.8572 142.668 153.35245 159.58621 163.53145 169.76522 174.44054 177.95053 184.97054 191.23238 195.07933 202.14145 206.70446 210.64969 217.7118 223.94557">piktogrammalar qatorida </tspan></text>
</g>
</g>
<g id="Layer-1" data-name="P">
<clipPath id="cp11404">
<path transform="matrix(1,0,0,-1,0,841.92)" d="M .000008871 0 L 595.32 0 L 595.32 841.92 L .000008871 841.92 Z " fill-rule="evenodd"/>
</clipPath>
<g clip-path="url(#cp11404)">
<text xml:space="preserve" transform="matrix(1 0 -0 1 0 841.92)" font-size="14.04" font-family="Times New Roman,Bold" font-weight="bold"><tspan y="-289.49" x="227.45">&#x00ab;</tspan></text>
</g>
</g>
<g id="Layer-1" data-name="P">
<clipPath id="cp11405">
<path transform="matrix(1,0,0,-1,0,841.92)" d="M .000008871 0 L 595.32 0 L 595.32 841.92 L .000008871 841.92 Z " fill-rule="evenodd"/>
</clipPath>
<g clip-path="url(#cp11405)">
<text xml:space="preserve" transform="matrix(1 0 -0 1 0 841.92)" font-size="14.04" font-family="Times New Roman,Bold" font-weight="bold"><tspan y="-289.49" x="234.53 241.84484 248.90695 256.95188 264.75813 275.55488 282.50468">&#x0417;&#x0430;&#x043a;&#x0440;&#x044b;&#x0442;&#x044c;</tspan></text>
</g>
</g>
<g id="Layer-1" data-name="P">
<clipPath id="cp11406">
<path transform="matrix(1,0,0,-1,0,841.92)" d="M .000008871 0 L 595.32 0 L 595.32 841.92 L .000008871 841.92 Z " fill-rule="evenodd"/>
</clipPath>
<g clip-path="url(#cp11406)">
<text xml:space="preserve" transform="matrix(1 0 -0 1 0 841.92)" font-size="14.04" font-family="Times New Roman,Bold" font-weight="bold"><tspan y="-289.49" x="289.97">&#x00bb;</tspan></text>
</g>
</g>
<g id="Layer-1" data-name="P">
<clipPath id="cp11407">
<path transform="matrix(1,0,0,-1,0,841.92)" d="M .000008871 0 L 595.32 0 L 595.32 841.92 L .000008871 841.92 Z " fill-rule="evenodd"/>
</clipPath>
<g clip-path="url(#cp11407)">
<text xml:space="preserve" transform="matrix(1 0 -0 1 0 841.92)" font-size="14.04" font-family="Times New Roman"><tspan y="-289.49" x="297.05"> </tspan></text>
</g>
</g>
<g id="Layer-1" data-name="P">
<clipPath id="cp11408">
<path transform="matrix(1,0,0,-1,0,841.92)" d="M .000008871 0 L 595.32 0 L 595.32 841.92 L .000008871 841.92 Z " fill-rule="evenodd"/>
</clipPath>
<g clip-path="url(#cp11408)">
<text xml:space="preserve" transform="matrix(1 0 -0 1 0 841.92)" font-size="14.04" font-family="Times New Roman"><tspan y="-289.49" x="300.41 307.37385 311.31907 318.2829 322.22813 329.19197 336.25407 340.92939 347.16316 357.97395 368.6584 374.89216 380.40986 384.35508 391.41719 395.3624 398.71797 402.66319 408.06858 415.13069 418.97764 425.2114 429.05836 433.00358 438.40898 445.47108 448.82664 455.0604 461.29417 465.96949 473.04563 477.72096">piktogrammasini ishlatish zarur.</tspan></text>
</g>
</g>
<g id="Layer-1" data-name="P">
<clipPath id="cp11409">
<path transform="matrix(1,0,0,-1,0,841.92)" d="M .000008871 0 L 595.32 0 L 595.32 841.92 L .000008871 841.92 Z " fill-rule="evenodd"/>
</clipPath>
<g clip-path="url(#cp11409)">
<text xml:space="preserve" transform="matrix(1 0 -0 1 0 841.92)" font-size="14.04" font-family="Times New Roman"><tspan y="-289.49" x="481.3"> </tspan></text>
</g>
</g>
<g id="Layer-1" data-name="P">
<clipPath id="cp11410">
<path transform="matrix(1,0,0,-1,0,841.92)" d="M .000008871 0 L 595.32 0 L 595.32 841.92 L .000008871 841.92 Z " fill-rule="evenodd"/>
</clipPath>
<g clip-path="url(#cp11410)">
<text xml:space="preserve" transform="matrix(1 0 -0 1 0 841.92)" font-size="14.04" font-family="Times New Roman"><tspan y="-265.37" x="120.5 130.58072 137.64284 141.48979 145.33675 151.57051 155.51575 162.47959 166.42482 173.6133 179.84706 186.8109 193.87302 200.93514 208.12361 214.24506 218.19029 222.03725 227.44264 234.50476 241.69324 248.75536 254.8768 261.9389 268.90275 275.96485">Hujjatni chop etish uchun </tspan></text>
</g>
<clipPath id="cp11411">
<path transform="matrix(1,0,0,-1,0,841.92)" d="M .000008871 0 L 595.32 0 L 595.32 841.92 L .000008871 841.92 Z " fill-rule="evenodd"/>
</clipPath>
<g clip-path="url(#cp11411)">
<text xml:space="preserve" transform="matrix(1 0 -0 1 0 841.92)" font-size="14.04" font-family="Times New Roman,Bold" font-weight="bold"><tspan y="-265.37" x="283.37 290.4321 302.30995 309.37205 317.41697 325.32148">&#x00ab;&#x0424;&#x0430;&#x0439;&#x043b;&#x00bb;</tspan></text>
</g>
<clipPath id="cp11412">
<path transform="matrix(1,0,0,-1,0,841.92)" d="M .000008871 0 L 595.32 0 L 595.32 841.92 L .000008871 841.92 Z " fill-rule="evenodd"/>
</clipPath>
<g clip-path="url(#cp11412)">
<text xml:space="preserve" transform="matrix(1 0 -0 1 0 841.92)" font-size="14.04" font-family="Times New Roman"><tspan y="-265.37" x="332.47"> </tspan></text>
</g>
<clipPath id="cp11413">
<path transform="matrix(1,0,0,-1,0,841.92)" d="M .000008871 0 L 595.32 0 L 595.32 841.92 L .000008871 841.92 Z " fill-rule="evenodd"/>
</clipPath>
<g clip-path="url(#cp11413)">
<text xml:space="preserve" transform="matrix(1 0 -0 1 0 841.92)" font-size="14.04" font-family="Times New Roman"><tspan y="-265.37" x="339.67 350.35447 356.58824 363.66438 370.50184 377.56394 383.0676 387.01283 393.97666 397.92189 404.8857 411.9478">menyusining </tspan></text>
</g>
<clipPath id="cp11414">
<path transform="matrix(1,0,0,-1,0,841.92)" d="M .000008871 0 L 595.32 0 L 595.32 841.92 L .000008871 841.92 Z " fill-rule="evenodd"/>
</clipPath>
<g clip-path="url(#cp11414)">
<text xml:space="preserve" transform="matrix(1 0 -0 1 0 841.92)" font-size="14.04" font-family="Times New Roman,Bold" font-weight="bold"><tspan y="-265.37" x="419.23">&#x00ab;</tspan></text>
</g>
</g>
<g id="Layer-1" data-name="P">
<clipPath id="cp11415">
<path transform="matrix(1,0,0,-1,0,841.92)" d="M .000008871 0 L 595.32 0 L 595.32 841.92 L .000008871 841.92 Z " fill-rule="evenodd"/>
</clipPath>
<g clip-path="url(#cp11415)">
<text xml:space="preserve" transform="matrix(1 0 -0 1 0 841.92)" font-size="14.04" font-family="Times New Roman,Bold" font-weight="bold"><tspan y="-265.37" x="426.19 437.11314 443.3469 451.1531 458.2152 465.0527">&#x041f;&#x0435;&#x0447;&#x0430;&#x0442;&#x044c;</tspan></text>
</g>
</g>
<g id="Layer-1" data-name="P">
<clipPath id="cp11416">
<path transform="matrix(1,0,0,-1,0,841.92)" d="M .000008871 0 L 595.32 0 L 595.32 841.92 L .000008871 841.92 Z " fill-rule="evenodd"/>
</clipPath>
<g clip-path="url(#cp11416)">
<text xml:space="preserve" transform="matrix(1 0 -0 1 0 841.92)" font-size="14.04" font-family="Times New Roman,Bold" font-weight="bold"><tspan y="-265.37" x="472.54">&#x00bb;</tspan></text>
</g>
</g>
<g id="Layer-1" data-name="P">
<clipPath id="cp11417">
<path transform="matrix(1,0,0,-1,0,841.92)" d="M .000008871 0 L 595.32 0 L 595.32 841.92 L .000008871 841.92 Z " fill-rule="evenodd"/>
</clipPath>
<g clip-path="url(#cp11417)">
<text xml:space="preserve" transform="matrix(1 0 -0 1 0 841.92)" font-size="14.04" font-family="Times New Roman"><tspan y="-265.37" x="479.5"> </tspan></text>
</g>
</g>
<g id="Layer-1" data-name="P">
<clipPath id="cp11418">
<path transform="matrix(1,0,0,-1,0,841.92)" d="M .000008871 0 L 595.32 0 L 595.32 841.92 L .000008871 841.92 Z " fill-rule="evenodd"/>
</clipPath>
<g clip-path="url(#cp11418)">
<text xml:space="preserve" transform="matrix(1 0 -0 1 0 841.92)" font-size="14.04" font-family="Times New Roman"><tspan y="-265.37" x="486.7 491.37535 500.74003 507.80213 514.766 521.8281 529.0166 535.25039 539.09738 543.0426 548.448 555.41189 559.97488">(Chop etish) </tspan></text>
</g>
</g>
<g id="Layer-1" data-name="P">
<clipPath id="cp11419">
<path transform="matrix(1,0,0,-1,0,841.92)" d="M .000008871 0 L 595.32 0 L 595.32 841.92 L .000008871 841.92 Z " fill-rule="evenodd"/>
</clipPath>
<g clip-path="url(#cp11419)">
<text xml:space="preserve" transform="matrix(1 0 -0 1 0 841.92)" font-size="14.04" font-family="Times New Roman"><tspan y="-241.13" x="85.104 92.166118 99.22823 106.06571 110.741039 117.81719 124.87931 129.4423 133.38755 136.89754 141.57286 147.66623 154.63007 158.5753 162.52054 168.64199 174.04738 181.1095 184.95645 188.90169 193.46469 197.40993 201.35517 207.47661 214.53873 218.48397 221.99396 225.44779 235.5285 241.76227 245.60923 249.55446 253.40142 259.63517 266.599 272.83277 276.34278 283.27854 290.34065 297.1781 301.12333 308.18544 314.30686 321.36897 325.31419 328.66975 335.73185 342.5693 349.6314 355.86518 359.37519 366.39518 372.657 383.34147 390.52995 397.3674 404.4295 411.4916 415.00163 421.93739 428.99949 433.56248 437.5077 443.62913 450.59297 454.53819 458.0482 461.50205 466.17738 473.2535 476.60908 483.67118">buyrug&#x2019;i faollashtiriladi. Natijada quyidagi oyna namoyon bo&#x2019;ladi  (2.31</tspan></text>
</g>
</g>
<g id="Layer-1" data-name="P">
<clipPath id="cp11420">
<path transform="matrix(1,0,0,-1,0,841.92)" d="M .000008871 0 L 595.32 0 L 595.32 841.92 L .000008871 841.92 Z " fill-rule="evenodd"/>
</clipPath>
<g clip-path="url(#cp11420)">
<text xml:space="preserve" transform="matrix(1 0 -0 1 0 841.92)" font-size="14.04" font-family="Times New Roman"><tspan y="-241.13" x="491.26">-</tspan></text>
</g>
</g>
<g id="Layer-1" data-name="P">
<clipPath id="cp11421">
<path transform="matrix(1,0,0,-1,0,841.92)" d="M .000008871 0 L 595.32 0 L 595.32 841.92 L .000008871 841.92 Z " fill-rule="evenodd"/>
</clipPath>
<g clip-path="url(#cp11421)">
<text xml:space="preserve" transform="matrix(1 0 -0 1 0 841.92)" font-size="14.04" font-family="Times New Roman"><tspan y="-241.13" x="495.82 500.49534 506.7291 512.2468 522.9312 527.6065">rasm).</tspan></text>
</g>
</g>
<g id="Layer-1" data-name="P">
<clipPath id="cp11422">
<path transform="matrix(1,0,0,-1,0,841.92)" d="M .000008871 0 L 595.32 0 L 595.32 841.92 L .000008871 841.92 Z " fill-rule="evenodd"/>
</clipPath>
<g clip-path="url(#cp11422)">
<text xml:space="preserve" transform="matrix(1 0 -0 1 0 841.92)" font-size="14.04" font-family="Times New Roman"><tspan y="-241.13" x="531.1"> </tspan></text>
</g>
</g>
</g>
</g>
</svg>
