<?xml version="1.0" encoding="UTF-8" standalone="no"?>
<!DOCTYPE svg PUBLIC "-//W3C//DTD SVG 1.1//EN" "http://www.w3.org/Graphics/SVG/1.1/DTD/svg11.dtd">
<svg xmlns="http://www.w3.org/2000/svg" xmlns:xlink="http://www.w3.org/1999/xlink" version="1.1" width="595.32pt" height="841.92pt" viewBox="0 0 595.32 841.92">
<g enable-background="new">
<g>
<g id="Layer-1" data-name="Artifact">
<clipPath id="cp11526">
<path transform="matrix(1,0,0,-1,0,841.92)" d="M .000008871 0 L 595.32 0 L 595.32 841.92 L .000008871 841.92 Z " fill-rule="evenodd"/>
</clipPath>
<g clip-path="url(#cp11526)">
<text xml:space="preserve" transform="matrix(1 0 -0 1 0 841.92)" font-size="11.04" font-family="Calibri"><tspan y="-51.864" x="316.87 322.50999">83</tspan></text>
</g>
<clipPath id="cp11527">
<path transform="matrix(1,0,0,-1,0,841.92)" d="M .000008871 0 L 595.32 0 L 595.32 841.92 L .000008871 841.92 Z " fill-rule="evenodd"/>
</clipPath>
<g clip-path="url(#cp11527)">
<text xml:space="preserve" transform="matrix(1 0 -0 1 0 841.92)" font-size="11.04" font-family="Calibri"><tspan y="-51.864" x="328.15"> </tspan></text>
</g>
<clipPath id="cp11528">
<path transform="matrix(1,0,0,-1,0,841.92)" d="M .000008871 0 L 595.32 0 L 595.32 841.92 L .000008871 841.92 Z " fill-rule="evenodd"/>
</clipPath>
<g clip-path="url(#cp11528)">
</g>
<clipPath id="cp11529">
<path transform="matrix(1,0,0,-1,0,841.92)" d="M .000008871 0 L 595.32 0 L 595.32 841.92 L .000008871 841.92 Z " fill-rule="evenodd"/>
</clipPath>
<g clip-path="url(#cp11529)">
<text xml:space="preserve" transform="matrix(1 0 -0 1 0 841.92)" font-size="11.04" font-family="Calibri"><tspan y="-38.4" x="85.104"> </tspan></text>
</g>
<clipPath id="cp11530">
<path transform="matrix(1,0,0,-1,0,841.92)" d="M .000008871 0 L 595.32 0 L 595.32 841.92 L .000008871 841.92 Z " fill-rule="evenodd"/>
</clipPath>
<g clip-path="url(#cp11530)">
</g>
</g>
<g id="Layer-1" data-name="P">
<clipPath id="cp11531">
<path transform="matrix(1,0,0,-1,0,841.92)" d="M .000008871 0 L 595.32 0 L 595.32 841.92 L .000008871 841.92 Z " fill-rule="evenodd"/>
</clipPath>
<g clip-path="url(#cp11531)">
<text xml:space="preserve" transform="matrix(1 0 -0 1 0 841.92)" font-size="14.04" font-family="Times New Roman,Bold" font-weight="bold"><tspan y="-772.56" x="85.104 92.91024 99.144 109.22472 117.26964 126.83088">&#x0440;&#x0435;&#x0436;&#x0438;&#x043c;&#x044b;</tspan></text>
</g>
</g>
<g id="Layer-1" data-name="P">
<clipPath id="cp11532">
<path transform="matrix(1,0,0,-1,0,841.92)" d="M .000008871 0 L 595.32 0 L 595.32 841.92 L .000008871 841.92 Z " fill-rule="evenodd"/>
</clipPath>
<g clip-path="url(#cp11532)">
<text xml:space="preserve" transform="matrix(1 0 -0 1 0 841.92)" font-size="14.04" font-family="Times New Roman,Bold" font-weight="bold"><tspan y="-772.56" x="137.78">&#x00bb;</tspan></text>
</g>
</g>
<g id="Layer-1" data-name="P">
<clipPath id="cp11533">
<path transform="matrix(1,0,0,-1,0,841.92)" d="M .000008871 0 L 595.32 0 L 595.32 841.92 L .000008871 841.92 Z " fill-rule="evenodd"/>
</clipPath>
<g clip-path="url(#cp11533)">
<text xml:space="preserve" transform="matrix(1 0 -0 1 0 841.92)" font-size="14.04" font-family="Times New Roman"><tspan y="-772.56" x="144.86"> </tspan></text>
</g>
</g>
<g id="Layer-1" data-name="P">
<clipPath id="cp11534">
<path transform="matrix(1,0,0,-1,0,841.92)" d="M .000008871 0 L 595.32 0 L 595.32 841.92 L .000008871 841.92 Z " fill-rule="evenodd"/>
</clipPath>
<g clip-path="url(#cp11534)">
<text xml:space="preserve" transform="matrix(1 0 -0 1 0 841.92)" font-size="14.04" font-family="Times New Roman"><tspan y="-772.56" x="151.94 156.61533 165.98001 173.04213 179.87961 184.55493 191.51877 198.58089 202.42784 208.6616 213.33693 220.41309 227.4752 233.70897 240.78513 245.46045 251.69422 255.42885 259.37409 270.05854 274.00376 280.23753 284.91285 289.58818 296.66435">(Buyruqlar va rejimlar) t</tspan></text>
</g>
</g>
<g id="Layer-1" data-name="P">
<clipPath id="cp11535">
<path transform="matrix(1,0,0,-1,0,841.92)" d="M .000008871 0 L 595.32 0 L 595.32 841.92 L .000008871 841.92 Z " fill-rule="evenodd"/>
</clipPath>
<g clip-path="url(#cp11535)">
<text xml:space="preserve" transform="matrix(1 0 -0 1 0 841.92)" font-size="14.04" font-family="Times New Roman"><tspan y="-772.56" x="300.77 307.73384 314.69767 325.49443 331.72819 337.96195 345.0381 351.27186 356.67726 360.62248 367.5863 371.53153 378.48133 385.54344 392.50727 398.01094 401.85789 408.91999 412.43 419.46406 424.86946 431.93156 436.49455 443.55665 450.61875">ugmachasini bosib, so&#x2019;ng </tspan></text>
</g>
</g>
<g id="Layer-1" data-name="P">
<clipPath id="cp11536">
<path transform="matrix(1,0,0,-1,0,841.92)" d="M .000008871 0 L 595.32 0 L 595.32 841.92 L .000008871 841.92 Z " fill-rule="evenodd"/>
</clipPath>
<g clip-path="url(#cp11536)">
<text xml:space="preserve" transform="matrix(1 0 -0 1 0 841.92)" font-size="14.04" font-family="Times New Roman,Bold" font-weight="bold"><tspan y="-772.56" x="457.78 464.8421 475.76524 481.88667 489.8052 496.76905 503.71885 511.03367">&#x00ab;&#x041f;&#x0435;&#x0447;&#x0430;&#x0442;&#x044c;&#x00bb;</tspan></text>
</g>
</g>
<g id="Layer-1" data-name="P">
<clipPath id="cp11537">
<path transform="matrix(1,0,0,-1,0,841.92)" d="M .000008871 0 L 595.32 0 L 595.32 841.92 L .000008871 841.92 Z " fill-rule="evenodd"/>
</clipPath>
<g clip-path="url(#cp11537)">
<text xml:space="preserve" transform="matrix(1 0 -0 1 0 841.92)" font-size="14.04" font-family="Times New Roman"><tspan y="-772.56" x="518.14"> </tspan></text>
</g>
</g>
<g id="Layer-1" data-name="P">
<clipPath id="cp11538">
<path transform="matrix(1,0,0,-1,0,841.92)" d="M .000008871 0 L 595.32 0 L 595.32 841.92 L .000008871 841.92 Z " fill-rule="evenodd"/>
</clipPath>
<g clip-path="url(#cp11538)">
<text xml:space="preserve" transform="matrix(1 0 -0 1 0 841.92)" font-size="14.04" font-family="Times New Roman"><tspan y="-772.56" x="525.22 529.89529 539.1336 546.19577 553.03329 559.99716">(Chop </tspan></text>
</g>
</g>
<g id="Layer-1" data-name="P">
<clipPath id="cp11539">
<path transform="matrix(1,0,0,-1,0,841.92)" d="M .000008871 0 L 595.32 0 L 595.32 841.92 L .000008871 841.92 Z " fill-rule="evenodd"/>
</clipPath>
<g clip-path="url(#cp11539)">
<text xml:space="preserve" transform="matrix(1 0 -0 1 0 841.92)" font-size="14.04" font-family="Times New Roman"><tspan y="-748.3" x="85.104 91.33775 95.283 99.12996 104.53536 111.59748 116.272808 119.78281 123.601688 130.56552 137.62764 148.31209 154.54586 160.77962 167.85579 174.08956 179.60729 183.55252 186.90808 193.9702 200.93404 207.77152 212.44684 219.52301 226.58513 231.14813 235.09337 238.60337 242.50649 248.74025 255.76026 259.66337 265.8129 272.875 279.10877 286.0726 290.01783">etish) tugmachasi buyrug&#x2019;i tanlanadi.</tspan></text>
</g>
</g>
<g id="Layer-1" data-name="P">
<clipPath id="cp11540">
<path transform="matrix(1,0,0,-1,0,841.92)" d="M .000008871 0 L 595.32 0 L 595.32 841.92 L .000008871 841.92 Z " fill-rule="evenodd"/>
</clipPath>
<g clip-path="url(#cp11540)">
<text xml:space="preserve" transform="matrix(1 0 -0 1 0 841.92)" font-size="14.04" font-family="Times New Roman"><tspan y="-748.3" x="293.57"> </tspan></text>
</g>
</g>
<g id="Layer-1" data-name="P">
<clipPath id="cp11541">
<path transform="matrix(1,0,0,-1,0,841.92)" d="M .000008871 0 L 595.32 0 L 595.32 841.92 L .000008871 841.92 Z " fill-rule="evenodd"/>
</clipPath>
<g clip-path="url(#cp11541)">
<text xml:space="preserve" transform="matrix(1 0 -0 1 0 841.92)" font-size="14.04" font-family="Times New Roman"><tspan y="-724.18" x="120.5 132.98157 139.21533 146.2915 150.13846 157.1023 164.16442 173.38869 180.4508 187.51293 191.35988 195.20684 201.4406 205.28755 212.25139 216.19663 225.54726 229.39421 236.45633 241.01934 244.96457 251.19834 255.04529 258.89225 265.95436 269.89958 276.021 283.0831 289.31687 298.5552 304.78898 311.7528 318.71665 325.77876 335.1294 341.25083 345.19606 349.043 354.54667 361.5105 370.86116 377.92326 384.04469 391.10679 398.07063 405.13273 414.35704 419.8607 423.8059 429.92735 436.89118 443.95329 450.18705 454.75004 458.69526 468.0459 475.00975 481.97358 487.47724 491.3242 495.2694 501.39085 505.33607 511.56983 516.2451 525.48348 532.5456 538.66708 545.7292 551.96298 555.6836 559.5306">Mavjud hujjatni to&#x2019;laligicha chop etish uchun standart vositalar paneli </tspan></text>
</g>
<clipPath id="cp11542">
<path transform="matrix(1,0,0,-1,0,841.92)" d="M .000008871 0 L 595.32 0 L 595.32 841.92 L .000008871 841.92 Z " fill-rule="evenodd"/>
</clipPath>
<g clip-path="url(#cp11542)">
<text xml:space="preserve" transform="matrix(1 0 -0 1 0 841.92)" font-size="14.04" font-family="Times New Roman"><tspan y="-700.06" x="85.104 92.166118 98.39987 102.24683 109.30895 113.871959 117.71892 124.78104 131.0148 137.97864 141.92388">qatoridagi </tspan></text>
</g>
<clipPath id="cp11543">
<path transform="matrix(1,0,0,-1,0,841.92)" d="M .000008871 0 L 595.32 0 L 595.32 841.92 L .000008871 841.92 Z " fill-rule="evenodd"/>
</clipPath>
<g clip-path="url(#cp11543)">
<text xml:space="preserve" transform="matrix(1 0 -0 1 0 841.92)" font-size="14.04" font-family="Times New Roman,Bold" font-weight="bold"><tspan y="-700.06" x="145.46">&#x00ab;</tspan></text>
</g>
</g>
<g id="Layer-1" data-name="P">
<clipPath id="cp11544">
<path transform="matrix(1,0,0,-1,0,841.92)" d="M .000008871 0 L 595.32 0 L 595.32 841.92 L .000008871 841.92 Z " fill-rule="evenodd"/>
</clipPath>
<g clip-path="url(#cp11544)">
<text xml:space="preserve" transform="matrix(1 0 -0 1 0 841.92)" font-size="14.04" font-family="Times New Roman,Bold" font-weight="bold"><tspan y="-700.06" x="152.42 163.34313 169.57689 177.38314 184.44525 191.28273">&#x041f;&#x0435;&#x0447;&#x0430;&#x0442;&#x044c;</tspan></text>
</g>
</g>
<g id="Layer-1" data-name="P">
<clipPath id="cp11545">
<path transform="matrix(1,0,0,-1,0,841.92)" d="M .000008871 0 L 595.32 0 L 595.32 841.92 L .000008871 841.92 Z " fill-rule="evenodd"/>
</clipPath>
<g clip-path="url(#cp11545)">
<text xml:space="preserve" transform="matrix(1 0 -0 1 0 841.92)" font-size="14.04" font-family="Times New Roman,Bold" font-weight="bold"><tspan y="-700.06" x="198.77 205.73001">&#x00bb; </tspan></text>
</g>
</g>
<g id="Layer-1" data-name="P">
<clipPath id="cp11546">
<path transform="matrix(1,0,0,-1,0,841.92)" d="M .000008871 0 L 595.32 0 L 595.32 841.92 L .000008871 841.92 Z " fill-rule="evenodd"/>
</clipPath>
<g clip-path="url(#cp11546)">
<text xml:space="preserve" transform="matrix(1 0 -0 1 0 841.92)" font-size="14.04" font-family="Times New Roman"><tspan y="-700.06" x="209.21 213.88533 223.25002 230.31214 237.27597 244.33809 247.84809 253.94145 257.8867 261.73365 267.13905 274.20115 278.87648">(Chop etish) </tspan></text>
</g>
</g>
<g id="Layer-1" data-name="P">
<clipPath id="cp11547">
<path transform="matrix(1,0,0,-1,0,841.92)" d="M .000008871 0 L 595.32 0 L 595.32 841.92 L .000008871 841.92 Z " fill-rule="evenodd"/>
</clipPath>
<g clip-path="url(#cp11547)">
<text xml:space="preserve" transform="matrix(1 0 -0 1 0 841.92)" font-size="14.04" font-family="Times New Roman"><tspan y="-700.06" x="282.41 289.37385 293.31907 300.2829 304.12986 311.19197 318.1558 322.71879 329.06489 339.86164 350.54609 356.77986 362.29756 366.24278 369.75279 373.20664 377.15187 383.38563 390.34947 394.29469 400.4161 407.4782 413.59965 420.66175 424.60697">piktogrammasi  tanlanadi.</tspan></text>
</g>
</g>
<g id="Layer-1" data-name="P">
<clipPath id="cp11548">
<path transform="matrix(1,0,0,-1,0,841.92)" d="M .000008871 0 L 595.32 0 L 595.32 841.92 L .000008871 841.92 Z " fill-rule="evenodd"/>
</clipPath>
<g clip-path="url(#cp11548)">
<text xml:space="preserve" transform="matrix(1 0 -0 1 0 841.92)" font-size="14.04" font-family="Times New Roman"><tspan y="-700.06" x="428.11"> </tspan></text>
</g>
</g>
<g id="Layer-1" data-name="P">
<clipPath id="cp11549">
<path transform="matrix(1,0,0,-1,0,841.92)" d="M .000008871 0 L 595.32 0 L 595.32 841.92 L .000008871 841.92 Z " fill-rule="evenodd"/>
</clipPath>
<g clip-path="url(#cp11549)">
<text xml:space="preserve" transform="matrix(1 0 -0 1 0 841.92)" font-size="14.04" font-family="Times New Roman,Bold" font-weight="bold"><tspan y="-675.94" x="120.5">&#x0425;</tspan></text>
</g>
</g>
<g id="Layer-1" data-name="P">
<clipPath id="cp11550">
<path transform="matrix(1,0,0,-1,0,841.92)" d="M .000008871 0 L 595.32 0 L 595.32 841.92 L .000008871 841.92 Z " fill-rule="evenodd"/>
</clipPath>
<g clip-path="url(#cp11550)">
<text xml:space="preserve" transform="matrix(1 0 -0 1 0 841.92)" font-size="14.04" font-family="Times New Roman,Bold" font-weight="bold"><tspan y="-675.94" x="130.58 138.38625 143.06157 147.7369">ujja</tspan></text>
</g>
</g>
<g id="Layer-1" data-name="P">
<clipPath id="cp11551">
<path transform="matrix(1,0,0,-1,0,841.92)" d="M .000008871 0 L 595.32 0 L 595.32 841.92 L .000008871 841.92 Z " fill-rule="evenodd"/>
</clipPath>
<g clip-path="url(#cp11551)">
<text xml:space="preserve" transform="matrix(1 0 -0 1 0 841.92)" font-size="14.04" font-family="Times New Roman,Bold" font-weight="bold"><tspan y="-675.94" x="154.82">&#x0442;</tspan></text>
</g>
</g>
<g id="Layer-1" data-name="P">
<clipPath id="cp11552">
<path transform="matrix(1,0,0,-1,0,841.92)" d="M .000008871 0 L 595.32 0 L 595.32 841.92 L .000008871 841.92 Z " fill-rule="evenodd"/>
</clipPath>
<g clip-path="url(#cp11552)">
<text xml:space="preserve" transform="matrix(1 0 -0 1 0 841.92)" font-size="14.04" font-family="Times New Roman,Bold" font-weight="bold"><tspan y="-675.94" x="161.66 165.50696 172.56908 178.80284 186.48273 190.42797 201.44936 206.12468 213.08852 220.89476 227.12853 230.97548 237.20925 241.0562 248.11832 253.622 261.42823">larni tahrirlash.</tspan></text>
</g>
</g>
<g id="Layer-1" data-name="P">
<clipPath id="cp11553">
<path transform="matrix(1,0,0,-1,0,841.92)" d="M .000008871 0 L 595.32 0 L 595.32 841.92 L .000008871 841.92 Z " fill-rule="evenodd"/>
</clipPath>
<g clip-path="url(#cp11553)">
<text xml:space="preserve" transform="matrix(1 0 -0 1 0 841.92)" font-size="14.04" font-family="Times New Roman"><tspan y="-675.94" x="265.01"> </tspan></text>
</g>
</g>
<g id="Layer-1" data-name="P">
<clipPath id="cp11554">
<path transform="matrix(1,0,0,-1,0,841.92)" d="M .000008871 0 L 595.32 0 L 595.32 841.92 L .000008871 841.92 Z " fill-rule="evenodd"/>
</clipPath>
<g clip-path="url(#cp11554)">
<text xml:space="preserve" transform="matrix(1 0 -0 1 0 841.92)" font-size="14.04" font-family="Times New Roman"><tspan y="-675.94" x="268.49 280.97157 287.093 294.1551 298.00205 304.96589 312.02799 322.93708 329.99919 337.06129 340.90824 344.7552 350.98896 354.8359 361.79975 365.74497 376.7664 380.7116 386.83305 393.89515 398.45814 402.40336 407.07868 410.92564 417.1594 422.5648 429.6269 440.53599 447.59809 453.83186 460.7957 467.75953 474.72337 485.74479 498.22636 506.0326 517.054 530.13937 540.2201 549.5848 559.7638">Mavjud hujjatni tahrirlash uchun MS WORD </tspan></text>
</g>
</g>
<g id="Layer-1" data-name="P">
<clipPath id="cp11555">
<path transform="matrix(1,0,0,-1,0,841.92)" d="M .000008871 0 L 595.32 0 L 595.32 841.92 L .000008871 841.92 Z " fill-rule="evenodd"/>
</clipPath>
<g clip-path="url(#cp11555)">
<text xml:space="preserve" transform="matrix(1 0 -0 1 0 841.92)" font-size="14.04" font-family="Times New Roman"><tspan y="-651.7" x="85.104 92.166118 98.39987 103.805278 107.65224 114.714359 119.38968 123.23664 130.29875 136.53252 145.16712 151.40088 155.24784 162.30995 169.27379 173.12075 180.18286 186.41663 195.05123 202.01506 209.07718 215.91466 220.58998 227.66616 234.72827 238.57523 244.80899 249.48432 258.24528 262.09223 269.15434 273.71733 280.77943 284.62638 290.86015 301.5446 305.4898 314.23674 321.29884 325.24406 329.91938 333.76634 337.71156 341.5585 345.40547 352.46757 358.589 365.6511 369.1611 377.87995 387.96067 391.90589 398.13966 402.70265 409.76475 413.6117 420.57554 427.63764 436.38456 443.3484 449.58216 454.25749 460.49125 467.56739 473.6888 479.0942 483.03944">dasturida alohida buyruqlar to&#x2019;plami kiritilgan. Ularning barchasi </tspan></text>
</g>
</g>
<g id="Layer-1" data-name="P">
<clipPath id="cp11556">
<path transform="matrix(1,0,0,-1,0,841.92)" d="M .000008871 0 L 595.32 0 L 595.32 841.92 L .000008871 841.92 Z " fill-rule="evenodd"/>
</clipPath>
<g clip-path="url(#cp11556)">
<text xml:space="preserve" transform="matrix(1 0 -0 1 0 841.92)" font-size="14.04" font-family="Times New Roman,Bold" font-weight="bold"><tspan y="-651.7" x="492.22">&#x00ab;</tspan></text>
</g>
</g>
<g id="Layer-1" data-name="P">
<clipPath id="cp11557">
<path transform="matrix(1,0,0,-1,0,841.92)" d="M .000008871 0 L 595.32 0 L 595.32 841.92 L .000008871 841.92 Z " fill-rule="evenodd"/>
</clipPath>
<g clip-path="url(#cp11557)">
<text xml:space="preserve" transform="matrix(1 0 -0 1 0 841.92)" font-size="14.04" font-family="Times New Roman,Bold" font-weight="bold"><tspan y="-651.7" x="499.3 508.06095 515.96548 523.0276 530.6092 538.51376 545.57589">&#x0413;&#x043b;&#x0430;&#x0432;&#x043d;&#x0430;&#x044f;</tspan></text>
</g>
</g>
<g id="Layer-1" data-name="P">
<clipPath id="cp11558">
<path transform="matrix(1,0,0,-1,0,841.92)" d="M .000008871 0 L 595.32 0 L 595.32 841.92 L .000008871 841.92 Z " fill-rule="evenodd"/>
</clipPath>
<g clip-path="url(#cp11558)">
<text xml:space="preserve" transform="matrix(1 0 -0 1 0 841.92)" font-size="14.04" font-family="Times New Roman,Bold" font-weight="bold"><tspan y="-651.7" x="553.06 560.02">&#x00bb; </tspan></text>
</g>
</g>
<g id="Layer-1" data-name="P">
<clipPath id="cp11559">
<path transform="matrix(1,0,0,-1,0,841.92)" d="M .000008871 0 L 595.32 0 L 595.32 841.92 L .000008871 841.92 Z " fill-rule="evenodd"/>
</clipPath>
<g clip-path="url(#cp11559)">
<text xml:space="preserve" transform="matrix(1 0 -0 1 0 841.92)" font-size="14.04" font-family="Times New Roman,Bold" font-weight="bold"><tspan y="-627.58" x="85.104">(</tspan></text>
</g>
</g>
<g id="Layer-1" data-name="P">
<clipPath id="cp11560">
<path transform="matrix(1,0,0,-1,0,841.92)" d="M .000008871 0 L 595.32 0 L 595.32 841.92 L .000008871 841.92 Z " fill-rule="evenodd"/>
</clipPath>
<g clip-path="url(#cp11560)">
<text xml:space="preserve" transform="matrix(1 0 -0 1 0 841.92)" font-size="14.04" font-family="Times New Roman"><tspan y="-627.58" x="89.784 99.148677 106.09847 111.60216">Bosh</tspan></text>
</g>
</g>
<g id="Layer-1" data-name="P">
<clipPath id="cp11561">
<path transform="matrix(1,0,0,-1,0,841.92)" d="M .000008871 0 L 595.32 0 L 595.32 841.92 L .000008871 841.92 Z " fill-rule="evenodd"/>
</clipPath>
<g clip-path="url(#cp11561)">
<text xml:space="preserve" transform="matrix(1 0 -0 1 0 841.92)" font-size="14.04" font-family="Times New Roman,Bold" font-weight="bold"><tspan y="-627.58" x="118.7">)</tspan></text>
</g>
</g>
<g id="Layer-1" data-name="P">
<clipPath id="cp11562">
<path transform="matrix(1,0,0,-1,0,841.92)" d="M .000008871 0 L 595.32 0 L 595.32 841.92 L .000008871 841.92 Z " fill-rule="evenodd"/>
</clipPath>
<g clip-path="url(#cp11562)">
<text xml:space="preserve" transform="matrix(1 0 -0 1 0 841.92)" font-size="14.04" font-family="Times New Roman"><tspan y="-627.58" x="123.38"> </tspan></text>
</g>
</g>
<g id="Layer-1" data-name="P">
<clipPath id="cp11563">
<path transform="matrix(1,0,0,-1,0,841.92)" d="M .000008871 0 L 595.32 0 L 595.32 841.92 L .000008871 841.92 Z " fill-rule="evenodd"/>
</clipPath>
<g clip-path="url(#cp11563)">
<text xml:space="preserve" transform="matrix(1 0 -0 1 0 841.92)" font-size="14.04" font-family="Times New Roman"><tspan y="-627.58" x="126.86 137.54445 143.77822 150.85439 157.69187 164.75399 170.25766 174.10462 181.16674 187.4005 190.91049 194.72937 200.96314 211.64759 215.59282 221.82659 228.90276 235.96488 242.19864 249.27481">menyusida jamlangan.</tspan></text>
</g>
</g>
<g id="Layer-1" data-name="P">
<clipPath id="cp11564">
<path transform="matrix(1,0,0,-1,0,841.92)" d="M .000008871 0 L 595.32 0 L 595.32 841.92 L .000008871 841.92 Z " fill-rule="evenodd"/>
</clipPath>
<g clip-path="url(#cp11564)">
<text xml:space="preserve" transform="matrix(1 0 -0 1 0 841.92)" font-size="14.04" font-family="Times New Roman"><tspan y="-627.58" x="252.77"> </tspan></text>
</g>
</g>
<g id="Layer-1" data-name="P">
<clipPath id="cp11565">
<path transform="matrix(1,0,0,-1,0,841.92)" d="M .000008871 0 L 595.32 0 L 595.32 841.92 L .000008871 841.92 Z " fill-rule="evenodd"/>
</clipPath>
<g clip-path="url(#cp11565)">
<text xml:space="preserve" transform="matrix(1 0 -0 1 0 841.92)" font-size="14.04" font-family="Times New Roman"><tspan y="-603.46" x="120.5 129.86469 136.09845 141.60213 152.28658 156.23181 162.46558 167.1409 174.21707 180.33852 187.40064 191.94959 198.78707 205.84918 212.9113 216.85654 221.40549 232.08994 238.3237 242.26894 249.33106 256.2949 262.52867 269.6048 274.0274 281.0895 288.05335 293.557 300.52085 306.7546 311.3036 318.26744 322.21266 326.0596 331.56327 338.62538 342.13539 346.65629 350.50325 357.56535 364.4028 368.34803 375.31187 379.25709 383.80607 388.35505 395.41716 399.98014 406.2139 413.29005 419.5238 424.0868 428.032 431.87898 436.5543 440.40126 445.9049 452.967 457.516 468.20045 475.38893 486.18568 493.24778 497.09474 504.15684 507.66685 512.18777 524.6693 530.9031 534.75009 541.8122 546.2348 553.29696 559.4184">Rasmlardan yoki matndan nusxa olish, joyini  o&#x2019;zgartirish mumkin. Matn va </tspan></text>
</g>
<clipPath id="cp11566">
<path transform="matrix(1,0,0,-1,0,841.92)" d="M .000008871 0 L 595.32 0 L 595.32 841.92 L .000008871 841.92 Z " fill-rule="evenodd"/>
</clipPath>
<g clip-path="url(#cp11566)">
<text xml:space="preserve" transform="matrix(1 0 -0 1 0 841.92)" font-size="14.04" font-family="Times New Roman"><tspan y="-579.34" x="85.104 89.77932 96.01308 101.5308 112.21524 116.160488 122.39424 127.069568 134.14574 138.09098 142.63993 149.60376 153.549 158.22432 162.89963 169.86347 176.92559 180.77254 184.61949 190.85326 194.70021 201.76233 205.60929 212.6714 219.73352 224.28247 231.34459 235.9076 242.14136 245.98831 253.05043 259.28419 262.7942 267.44145 272.84684">rasmlarni bir hujjatning o&#x2019;zida, sh</tspan></text>
</g>
<clipPath id="cp11567">
<path transform="matrix(1,0,0,-1,0,841.92)" d="M .000008871 0 L 595.32 0 L 595.32 841.92 L .000008871 841.92 Z " fill-rule="evenodd"/>
</clipPath>
<g clip-path="url(#cp11567)">
<text xml:space="preserve" transform="matrix(1 0 -0 1 0 841.92)" font-size="14.04" font-family="Times New Roman"><tspan y="-579.34" x="280.13 287.09385 294.05769 298.0029 304.96675 311.93058 318.99269 325.1141 332.1762 335.68623 340.31944 347.28327 351.2285 355.9038 360.57914 367.54298 374.60508 378.45204 382.29899 388.53276 392.3797 399.4418 405.56324 412.62535 417.28663 424.25047 431.2143 436.71797 443.6818 450.7439 456.97767 462.38307 466.23 473.2921 479.52589 483.0359 487.68315 494.64698 500.88075 504.7277 508.6729 515.73507 520.284 527.24789 534.31 539.7154 546.67929 553.6431 559.7646">uningdek, bir hujjatdan boshqasiga, xatto boshqa </tspan></text>
</g>
<clipPath id="cp11568">
<path transform="matrix(1,0,0,-1,0,841.92)" d="M .000008871 0 L 595.32 0 L 595.32 841.92 L .000008871 841.92 Z " fill-rule="evenodd"/>
</clipPath>
<g clip-path="url(#cp11568)">
<text xml:space="preserve" transform="matrix(1 0 -0 1 0 841.92)" font-size="14.04" font-family="Times New Roman"><tspan y="-555.07" x="85.104 89.04924 92.8962 99.95832 106.92216 113.155918 120.11975 126.35351 131.26752 138.23136 145.29347 149.85648 156.09024 163.05408 166.99932 171.67464 175.52159 180.92699 187.9891 192.88906 199.95117 206.07262 210.97257 218.03469 221.97992 228.10137 232.77669 239.74053 245.97429 253.05046 257.8381 264.80195 271.86405 277.26945 284.33155 290.5653 295.35298 302.41508 306.26203 310.20726 315.61265 322.67475 327.4624 338.14686 345.33534 356.01979 363.08189 367.0271 374.0892 377.5992 382.4711 391.8358 398.8979 403.79786 410.03163 420.71607 426.94984 430.89506 434.84028 441.07405 445.63703 452.69914 456.64436 461.432 468.4941 474.72789 478.57484 484.8086 489.37159 493.3168 498.7222 505.68605 512.74819 518.98196 526.0581 530.84579 537.80966 541.7549 548.71878 552.4394 559.40328">ilovaga ko&#x2019;chirish va ulardan nusxa olish mumkin. Bu amallarni bajarishdan oldin </tspan></text>
</g>
<clipPath id="cp11569">
<path transform="matrix(1,0,0,-1,0,841.92)" d="M .000008871 0 L 595.32 0 L 595.32 841.92 L .000008871 841.92 Z " fill-rule="evenodd"/>
</clipPath>
<g clip-path="url(#cp11569)">
<text xml:space="preserve" transform="matrix(1 0 -0 1 0 841.92)" font-size="14.04" font-family="Times New Roman"><tspan y="-530.95" x="85.104 95.90076 102.134517 106.07976 113.14188 116.65188 123.671878 129.90564 133.41564 137.97864 144.2124 149.73014 160.41458 164.35982 170.59358 175.2689 178.7789 185.7989 191.96247 195.9077 202.87154 206.71849 210.66373 216.89749 223.97367 227.32923 234.29306 238.2383 242.08525 249.14737 255.26882 262.33094 266.27616">matn va rasmlar belgilab olinadi.</tspan></text>
</g>
<clipPath id="cp11570">
<path transform="matrix(1,0,0,-1,0,841.92)" d="M .000008871 0 L 595.32 0 L 595.32 841.92 L .000008871 841.92 Z " fill-rule="evenodd"/>
</clipPath>
<g clip-path="url(#cp11570)">
<text xml:space="preserve" transform="matrix(1 0 -0 1 0 841.92)" font-size="14.04" font-family="Times New Roman"><tspan y="-530.95" x="269.81"> </tspan></text>
</g>
</g>
<g id="Layer-1" data-name="P">
<clipPath id="cp11571">
<path transform="matrix(1,0,0,-1,0,841.92)" d="M .000008871 0 L 595.32 0 L 595.32 841.92 L .000008871 841.92 Z " fill-rule="evenodd"/>
</clipPath>
<g clip-path="url(#cp11571)">
<text xml:space="preserve" transform="matrix(1 0 -0 1 0 841.92)" font-size="14.04" font-family="Times New Roman,Italic" font-style="italic"><tspan y="-506.83" x="120.5 132.13916 139.20128 143.04824 150.11035 153.62035 159.85411 166.87412 170.27179 175.67719 182.7393 188.24298 198.3237 202.17066 209.13449 214.63817 221.602 225.54724 229.05724 234.42052 238.26747 244.50124 251.46508 258.5272 265.49104 272.55314 278.67457 285.73667 292.79878 296.30879 302.40214 309.36598 314.86964 321.83348 328.89558 338.9763 342.82325 349.78709 356.84919 360.20475 363.71476 370.73475 376.9685 380.8716 387.80738 391.7526 395.59956 402.66166 408.06706 415.12916 418.63917 423.17408 430.23619 434.08314 439.48854 446.55064 450.39759 454.3428 459.7482 466.8103 471.48564">Matn va rasmlarni sichqoncha yordamida  belgilash (ajratish):</tspan></text>
</g>
<clipPath id="cp11572">
<path transform="matrix(1,0,0,-1,0,841.92)" d="M .000008871 0 L 595.32 0 L 595.32 841.92 L .000008871 841.92 Z " fill-rule="evenodd"/>
</clipPath>
<g clip-path="url(#cp11572)">
<text xml:space="preserve" transform="matrix(1 0 -0 1 0 841.92)" font-size="14.04" font-family="Times New Roman"><tspan y="-506.83" x="476.38"> </tspan></text>
</g>
</g>
<g id="Layer-1" data-name="P">
<clipPath id="cp11573">
<path transform="matrix(1,0,0,-1,0,841.92)" d="M .000008871 0 L 595.32 0 L 595.32 841.92 L .000008871 841.92 Z " fill-rule="evenodd"/>
</clipPath>
<g clip-path="url(#cp11573)">
<text xml:space="preserve" transform="matrix(1 0 -0 1 0 841.92)" font-size="14.04" font-family="Wingdings"><tspan y="-482.71" x="106.46">&#xf0fc;</tspan></text>
</g>
<clipPath id="cp11574">
<path transform="matrix(1,0,0,-1,0,841.92)" d="M .000008871 0 L 595.32 0 L 595.32 841.92 L .000008871 841.92 Z " fill-rule="evenodd"/>
</clipPath>
<g clip-path="url(#cp11574)">
<text xml:space="preserve" transform="matrix(1 0 -0 1 0 841.92)" font-size="14.04" font-family="Arial"><tspan y="-482.71" x="117.5"> </tspan></text>
</g>
<clipPath id="cp11575">
<path transform="matrix(1,0,0,-1,0,841.92)" d="M .000008871 0 L 595.32 0 L 595.32 841.92 L .000008871 841.92 Z " fill-rule="evenodd"/>
</clipPath>
<g clip-path="url(#cp11575)">
<text xml:space="preserve" transform="matrix(1 0 -0 1 0 841.92)" font-size="14.04" font-family="Times New Roman"><tspan y="-482.71" x="120.5 131.29677 137.53054 141.47577 148.53789 155.50173 159.34868 166.4108 173.47292 176.82848 180.77371 187.73755 191.5845 195.52974 202.36722 209.42934 214.10466 218.0499 224.88738 228.39737 231.8512 238.91332 242.85855 248.36223 259.04667 262.99189 270.054 273.9992 277.50923">matnning ixtiyoriy  qismini  </tspan></text>
</g>
<clipPath id="cp11576">
<path transform="matrix(1,0,0,-1,0,841.92)" d="M .000008871 0 L 595.32 0 L 595.32 841.92 L .000008871 841.92 Z " fill-rule="evenodd"/>
</clipPath>
<g clip-path="url(#cp11576)">
<text xml:space="preserve" transform="matrix(1 0 -0 1 0 841.92)" font-size="14.04" font-family="Times New Roman"><tspan y="-482.71" x="281.21 287.44377 291.2907 295.96604 302.1998 306.04676 309.99198 315.39738 322.45948 325.96949 332.90525 339.139 346.10285 353.06669 360.12879 363.6388 369.10035 373.00346 376.90657 380.80967 384.6145 388.55973 392.40669 397.91035 404.97245 408.48246 414.71623 425.3726 431.60636 435.55158 439.39854 446.46064 450.40586 453.7614 457.70664 463.11204 470.07588 474.0211 480.25486 484.1018 488.04704 493.45243 500.51454 504.02455 510.9603 517.19406 521.8693 528.0048 535.06698">ajratish uchun siljitish amalini ishlatish kerak;</tspan></text>
</g>
<clipPath id="cp11577">
<path transform="matrix(1,0,0,-1,0,841.92)" d="M .000008871 0 L 595.32 0 L 595.32 841.92 L .000008871 841.92 Z " fill-rule="evenodd"/>
</clipPath>
<g clip-path="url(#cp11577)">
<text xml:space="preserve" transform="matrix(1 0 -0 1 0 841.92)" font-size="14.04" font-family="Times New Roman"><tspan y="-482.71" x="539.14"> </tspan></text>
</g>
</g>
<g id="Layer-1" data-name="P">
<clipPath id="cp11578">
<path transform="matrix(1,0,0,-1,0,841.92)" d="M .000008871 0 L 595.32 0 L 595.32 841.92 L .000008871 841.92 Z " fill-rule="evenodd"/>
</clipPath>
<g clip-path="url(#cp11578)">
<text xml:space="preserve" transform="matrix(1 0 -0 1 0 841.92)" font-size="14.04" font-family="Wingdings"><tspan y="-458.47" x="106.46">&#xf0fc;</tspan></text>
</g>
<clipPath id="cp11579">
<path transform="matrix(1,0,0,-1,0,841.92)" d="M .000008871 0 L 595.32 0 L 595.32 841.92 L .000008871 841.92 Z " fill-rule="evenodd"/>
</clipPath>
<g clip-path="url(#cp11579)">
<text xml:space="preserve" transform="matrix(1 0 -0 1 0 841.92)" font-size="14.04" font-family="Arial"><tspan y="-458.47" x="117.5"> </tspan></text>
</g>
<clipPath id="cp11580">
<path transform="matrix(1,0,0,-1,0,841.92)" d="M .000008871 0 L 595.32 0 L 595.32 841.92 L .000008871 841.92 Z " fill-rule="evenodd"/>
</clipPath>
<g clip-path="url(#cp11580)">
<text xml:space="preserve" transform="matrix(1 0 -0 1 0 841.92)" font-size="14.04" font-family="Times New Roman"><tspan y="-458.47" x="120.5 126.003688 133.0658 137.6288 143.86257 150.8264 154.77164 159.67159 164.57154 171.63365 177.7551 181.70034 188.66417 192.51113 196.45636 202.69013 208.09552 215.15764 220.05759 227.02143 233.25519 240.21903 247.28115 254.34326 259.13093 266.19303 273.15687 277.83219 283.23759 290.29969 294.86268 301.92478 305.87 310.76997 316.17536 323.23747 327.80046 334.0342 338.9482 346.0103 351.4157 355.26268 359.10963 366.17173 372.4055 377.3195 384.28334 388.22856 392.0755 399.1376 404.03758 411.0014 417.23518 421.08213 424.92909 431.99119 435.5012 440.37309 445.87675 449.82197 455.9434 462.90724 469.96934 476.93318 483.99528 490.1167 497.1788 503.41258 510.3764 514.2234 521.2855 528.34768 533.2476 539.3691 546.4312 552.4263 559.39016">so&#x2019;zni  belgilash uchun kursorni so&#x2019;z ustiga olib kelib, sichqonchaning chap </tspan></text>
</g>
<clipPath id="cp11581">
<path transform="matrix(1,0,0,-1,0,841.92)" d="M .000008871 0 L 595.32 0 L 595.32 841.92 L .000008871 841.92 Z " fill-rule="evenodd"/>
</clipPath>
<g clip-path="url(#cp11581)">
<text xml:space="preserve" transform="matrix(1 0 -0 1 0 841.92)" font-size="14.04" font-family="Times New Roman"><tspan y="-434.35" x="85.104 89.04924 96.01308 103.075199 113.759639 119.99339 126.22715 133.30332 139.53708 144.94248 148.88771 155.85155 159.79679 163.30678 167.11162 174.07546 181.13758 185.08281 188.5928 199.24918 205.59526 210.27059 214.21582 220.44959 223.95958 230.89534 237.85918 243.36286 247.20981 252.6152 259.6773 263.18733 270.2073 276.44108 281.03218 287.26594 294.22978">tugmachasini ikki marta bosish kerak;</tspan></text>
</g>
<clipPath id="cp11582">
<path transform="matrix(1,0,0,-1,0,841.92)" d="M .000008871 0 L 595.32 0 L 595.32 841.92 L .000008871 841.92 Z " fill-rule="evenodd"/>
</clipPath>
<g clip-path="url(#cp11582)">
<text xml:space="preserve" transform="matrix(1 0 -0 1 0 841.92)" font-size="14.04" font-family="Times New Roman"><tspan y="-434.35" x="298.25"> </tspan></text>
</g>
</g>
<g id="Layer-1" data-name="P">
<clipPath id="cp11583">
<path transform="matrix(1,0,0,-1,0,841.92)" d="M .000008871 0 L 595.32 0 L 595.32 841.92 L .000008871 841.92 Z " fill-rule="evenodd"/>
</clipPath>
<g clip-path="url(#cp11583)">
<text xml:space="preserve" transform="matrix(1 0 -0 1 0 841.92)" font-size="14.04" font-family="Wingdings"><tspan y="-410.23" x="106.46">&#xf0fc;</tspan></text>
</g>
<clipPath id="cp11584">
<path transform="matrix(1,0,0,-1,0,841.92)" d="M .000008871 0 L 595.32 0 L 595.32 841.92 L .000008871 841.92 Z " fill-rule="evenodd"/>
</clipPath>
<g clip-path="url(#cp11584)">
<text xml:space="preserve" transform="matrix(1 0 -0 1 0 841.92)" font-size="14.04" font-family="Arial"><tspan y="-410.23" x="117.5"> </tspan></text>
</g>
<clipPath id="cp11585">
<path transform="matrix(1,0,0,-1,0,841.92)" d="M .000008871 0 L 595.32 0 L 595.32 841.92 L .000008871 841.92 Z " fill-rule="evenodd"/>
</clipPath>
<g clip-path="url(#cp11585)">
<text xml:space="preserve" transform="matrix(1 0 -0 1 0 841.92)" font-size="14.04" font-family="Times New Roman"><tspan y="-410.23" x="120.5 125.17532 131.40909 136.92682 147.61127 154.67339 158.61862 164.24866 170.48242 174.32938 179.0047 185.23847 189.19776 193.04471 198.4501 205.51222 211.14226 218.20438 224.32582 231.28966 238.2535 245.31562 250.94565 257.9095 264.9716 269.6469 275.0523 282.1144 286.6774 293.7395 297.68473 303.31477 307.87776 314.1115 319.6292 330.31367 335.9437 343.0058 348.50947 352.45469 356.30165 363.36375 369.5975 375.22755 382.19139 386.1366 389.98356 397.04566 402.6757 409.63954 415.8733 419.72026 423.66548 430.72758 434.23759 439.7132 445.21687 449.16209 455.2835 462.24736 469.30946 476.2733 483.3354 489.45683 496.51893 502.7527 509.71653 513.5635 520.6256 527.68777 533.3178 539.4393 546.5014 552.49649 559.4603">rasmni ajratish uchun kursorni rasm ustiga olib kelib, sichqonchaning chap </tspan></text>
</g>
<clipPath id="cp11586">
<path transform="matrix(1,0,0,-1,0,841.92)" d="M .000008871 0 L 595.32 0 L 595.32 841.92 L .000008871 841.92 Z " fill-rule="evenodd"/>
</clipPath>
<g clip-path="url(#cp11586)">
<text xml:space="preserve" transform="matrix(1 0 -0 1 0 841.92)" font-size="14.04" font-family="Times New Roman"><tspan y="-386.09" x="85.104 89.04924 96.01308 103.075199 113.759639 119.99339 126.22715 133.30332 139.53708 144.94248 148.88771 155.85155 159.79679 163.30678 167.11162 174.07546">tugmachasini ikk</tspan></text>
</g>
<clipPath id="cp11587">
<path transform="matrix(1,0,0,-1,0,841.92)" d="M .000008871 0 L 595.32 0 L 595.32 841.92 L .000008871 841.92 Z " fill-rule="evenodd"/>
</clipPath>
<g clip-path="url(#cp11587)">
<text xml:space="preserve" transform="matrix(1 0 -0 1 0 841.92)" font-size="14.04" font-family="Times New Roman"><tspan y="-386.09" x="181.22 185.16524 188.67523 199.3316 205.67769 210.35301 214.29825 220.53202 224.042 230.97777 237.9416 243.44528 247.29224 252.69763 259.75975 263.26976 270.28974 276.5235 281.1146 287.34837 294.3122">i marta bosish kerak;</tspan></text>
</g>
<clipPath id="cp11588">
<path transform="matrix(1,0,0,-1,0,841.92)" d="M .000008871 0 L 595.32 0 L 595.32 841.92 L .000008871 841.92 Z " fill-rule="evenodd"/>
</clipPath>
<g clip-path="url(#cp11588)">
<text xml:space="preserve" transform="matrix(1 0 -0 1 0 841.92)" font-size="14.04" font-family="Times New Roman"><tspan y="-386.09" x="298.25"> </tspan></text>
</g>
</g>
<g id="Layer-1" data-name="P">
<clipPath id="cp11589">
<path transform="matrix(1,0,0,-1,0,841.92)" d="M .000008871 0 L 595.32 0 L 595.32 841.92 L .000008871 841.92 Z " fill-rule="evenodd"/>
</clipPath>
<g clip-path="url(#cp11589)">
<text xml:space="preserve" transform="matrix(1 0 -0 1 0 841.92)" font-size="14.04" font-family="Wingdings"><tspan y="-361.97" x="106.46">&#xf0fc;</tspan></text>
</g>
<clipPath id="cp11590">
<path transform="matrix(1,0,0,-1,0,841.92)" d="M .000008871 0 L 595.32 0 L 595.32 841.92 L .000008871 841.92 Z " fill-rule="evenodd"/>
</clipPath>
<g clip-path="url(#cp11590)">
<text xml:space="preserve" transform="matrix(1 0 -0 1 0 841.92)" font-size="14.04" font-family="Arial"><tspan y="-361.97" x="117.5"> </tspan></text>
</g>
<clipPath id="cp11591">
<path transform="matrix(1,0,0,-1,0,841.92)" d="M .000008871 0 L 595.32 0 L 595.32 841.92 L .000008871 841.92 Z " fill-rule="evenodd"/>
</clipPath>
<g clip-path="url(#cp11591)">
<text xml:space="preserve" transform="matrix(1 0 -0 1 0 841.92)" font-size="14.04" font-family="Times New Roman"><tspan y="-361.97" x="120.5 131.29677 137.53054 141.47577 148.53789 155.50173 159.34868 166.4108 173.47292 177.17948 184.14331 190.37708 194.22403 201.28615 205.84915 209.79439 216.75823 220.70346 224.41002 228.11658 235.1787 241.30014 245.24538 252.20922 256.15446 260.0014 266.23518 271.64057 278.70268 282.40925 289.47135 295.59278 302.5566 309.6187 316.68083 320.3874 327.35124 334.41334 338.97633 344.47999 351.54209 356.10508 363.0689 367.01414 370.7207 377.7828 384.01658 387.86354 394.92564 399.48863 406.45246 410.39768 417.3615 424.4236 428.1302 434.36396 441.4401 447.56153 454.62364 458.3302 464.56398 471.5278 477.76158 481.60853 485.45549 492.51759 498.75135 502.45793 509.42176 513.367 517.214 524.2761 527.98269 535.0448 541.16629 545.1115 548.9585 556.0206 559.3762">matnning qatorini  belgilash uchun kursorni qatorning chap chetiga olib kelib, </tspan></text>
</g>
<clipPath id="cp11592">
<path transform="matrix(1,0,0,-1,0,841.92)" d="M .000008871 0 L 595.32 0 L 595.32 841.92 L .000008871 841.92 Z " fill-rule="evenodd"/>
</clipPath>
<g clip-path="url(#cp11592)">
<text xml:space="preserve" transform="matrix(1 0 -0 1 0 841.92)" font-size="14.04" font-family="Times New Roman"><tspan y="-337.73" x="85.104 92.166118 96.11136 103.17348 107.73648 114.7986 121.762439 128.82456 135.05832 139.00356 145.84104 152.90316 157.46616 164.52828 170.76204 174.609 178.55423 182.49947 187.06247 191.0077 194.85466 201.8185 208.05226 215.12844 219.07367 224.47907 228.4243 233.09963 239.22107 243.1663 250.13014 256.3639 260.30915 265.71455 272.77665 279.0104 285.97425 289.8212 293.76643 300.73027 304.67549 308.62074 315.68284 321.80427 328.86637 335.8302 339.77543 343.72068 350.6845 354.62974 358.47669 365.5388 371.66023 378.62406 385.68617 391.8076 398.8697 402.81495 409.87705 416.1108 422.9623 426.90754 433.96965 437.47966 441.27046 446.7741 450.71934 456.84077 463.8046 470.8667 477.83055 484.89265 491.01408 498.07618 504.1976 511.2597 515.1067 522.07058 529.1327 533.07797 539.3117 546.3879 552.38296 559.3468">u o&#x2019;ngga yo&#x2019;naltirilgan strelka shaklini qabul qilgandan keyin, sichqonchaning chap </tspan></text>
</g>
<clipPath id="cp11593">
<path transform="matrix(1,0,0,-1,0,841.92)" d="M .000008871 0 L 595.32 0 L 595.32 841.92 L .000008871 841.92 Z " fill-rule="evenodd"/>
</clipPath>
<g clip-path="url(#cp11593)">
<text xml:space="preserve" transform="matrix(1 0 -0 1 0 841.92)" font-size="14.04" font-family="Times New Roman"><tspan y="-313.61" x="85.104 89.04924 96.01308 103.075199 113.759639 119.99339 126.22715 133.30332 139.53708 144.94248 148.88771 155.85155 159.79679 163.30678 166.7606 173.72444 177.66968 182.345 185.855 196.51137 202.74514 207.53278 211.47801 217.71178 221.22177 228.15753 235.12137 240.62505 244.472 249.97568 257.03779 260.39335 267.45545 273.6892 278.36454 284.50004 291.46388">tugmachasini  bir marta bosish kerak;</tspan></text>
</g>
<clipPath id="cp11594">
<path transform="matrix(1,0,0,-1,0,841.92)" d="M .000008871 0 L 595.32 0 L 595.32 841.92 L .000008871 841.92 Z " fill-rule="evenodd"/>
</clipPath>
<g clip-path="url(#cp11594)">
<text xml:space="preserve" transform="matrix(1 0 -0 1 0 841.92)" font-size="14.04" font-family="Times New Roman"><tspan y="-313.61" x="295.49"> </tspan></text>
</g>
</g>
<g id="Layer-1" data-name="P">
<clipPath id="cp11595">
<path transform="matrix(1,0,0,-1,0,841.92)" d="M .000008871 0 L 595.32 0 L 595.32 841.92 L .000008871 841.92 Z " fill-rule="evenodd"/>
</clipPath>
<g clip-path="url(#cp11595)">
<text xml:space="preserve" transform="matrix(1 0 -0 1 0 841.92)" font-size="14.04" font-family="Wingdings"><tspan y="-289.49" x="106.46">&#xf0fc;</tspan></text>
</g>
<clipPath id="cp11596">
<path transform="matrix(1,0,0,-1,0,841.92)" d="M .000008871 0 L 595.32 0 L 595.32 841.92 L .000008871 841.92 Z " fill-rule="evenodd"/>
</clipPath>
<g clip-path="url(#cp11596)">
<text xml:space="preserve" transform="matrix(1 0 -0 1 0 841.92)" font-size="14.04" font-family="Arial"><tspan y="-289.49" x="117.5"> </tspan></text>
</g>
<clipPath id="cp11597">
<path transform="matrix(1,0,0,-1,0,841.92)" d="M .000008871 0 L 595.32 0 L 595.32 841.92 L .000008871 841.92 Z " fill-rule="evenodd"/>
</clipPath>
<g clip-path="url(#cp11597)">
<text xml:space="preserve" transform="matrix(1 0 -0 1 0 841.92)" font-size="14.04" font-family="Times New Roman"><tspan y="-289.49" x="120.5 131.29677 137.53054 141.47577 148.53789 155.50173 159.34868 166.4108 173.47292 177.30583 184.26967 188.2149 192.89023 196.72315 203.78527 209.90671 216.14048 223.10431 227.04955 233.28331 236.98987 244.05199 250.28575 254.1327 261.19483 265.7578 269.60478 276.66688 280.6121 284.445 291.5071 297.62855 301.4755">matnning bir nechta qatorini belg</tspan></text>
</g>
<clipPath id="cp11598">
<path transform="matrix(1,0,0,-1,0,841.92)" d="M .000008871 0 L 595.32 0 L 595.32 841.92 L .000008871 841.92 Z " fill-rule="evenodd"/>
</clipPath>
<g clip-path="url(#cp11598)">
<text xml:space="preserve" transform="matrix(1 0 -0 1 0 841.92)" font-size="14.04" font-family="Times New Roman"><tspan y="-289.49" x="308.81 312.65696 316.60218 322.7236 328.22727 335.28938 339.12229 346.08613 352.3199 359.28373 366.34584 373.40794 377.24085 381.07377 388.0376 395.0997 399.77503 405.18043 412.24253 416.8055 423.8676 427.81285 431.64576 438.6096 444.84336 448.6903 455.7524 460.3154 467.3775 471.22447 478.1883 485.2504 489.0833 495.31709 502.39323 508.51466 515.5768 519.4097 525.6435 532.71969 538.8411 542.6881 546.63339 553.5972 559.7187">ilash uchun  kursorni qatorning chap chetiga </tspan></text>
</g>
<clipPath id="cp11599">
<path transform="matrix(1,0,0,-1,0,841.92)" d="M .000008871 0 L 595.32 0 L 595.32 841.92 L .000008871 841.92 Z " fill-rule="evenodd"/>
</clipPath>
<g clip-path="url(#cp11599)">
<text xml:space="preserve" transform="matrix(1 0 -0 1 0 841.92)" font-size="14.04" font-family="Times New Roman"><tspan y="-265.37" x="85.104 92.166118 96.01308 99.95832 106.92216 111.94848 119.0106 125.132038 128.97899 132.92423 139.98635 143.49634 148.36821 155.43033 160.33028 167.3924 171.9554 179.01752 185.98136 193.04347 199.27724 204.19124 211.02872 218.21721 222.78022 229.84233 236.0761 239.92305 243.86829 247.81352 252.37653 256.32176 260.1687 267.2308 273.35224 280.41435 285.3143 290.81797 294.76319 299.32618 305.55995 309.4069 316.469 322.59043 327.61677 333.12043 340.08427 346.31803 353.28187 357.22709 361.07405 368.03788 371.9831 377.00944 383.97328 390.20704 397.17088 404.23298 408.07994 413.10627 420.0701 424.01533 427.86228 434.92439 441.0458 448.1079 455.07176 461.3055 468.38166 473.28163 480.34373 486.57749 493.429 497.3742 504.4363 507.94633 512.81826 519.8804 526.9425 531.5055 536.9109 543.973 548.6483 555.4999 559.34689">olib kelib, u o&#x2019;ngga yo&#x2019;naltirilgan strelka shaklini qabul qilgandan keyin, kursorni </tspan></text>
</g>
<clipPath id="cp11600">
<path transform="matrix(1,0,0,-1,0,841.92)" d="M .000008871 0 L 595.32 0 L 595.32 841.92 L .000008871 841.92 Z " fill-rule="evenodd"/>
</clipPath>
<g clip-path="url(#cp11600)">
<text xml:space="preserve" transform="matrix(1 0 -0 1 0 841.92)" font-size="14.04" font-family="Times New Roman"><tspan y="-241.13" x="85.104 92.166118 98.39987 103.805278 107.65224 114.714359 120.94811 124.458118 131.26752 138.32964 145.39176 149.33699 152.84699 159.65639 166.7185 173.68235 180.74446 185.30747 189.2527 196.31482 202.54859 205.91819 211.42186 215.26882 219.21405 223.061 226.90796 230.8532 234.70015 240.20383 247.26595 250.6215 257.68363 263.9174 268.5927 274.7282 281.69206">pastga yoki yuqoriga siljitish kerak;</tspan></text>
</g>
<clipPath id="cp11601">
<path transform="matrix(1,0,0,-1,0,841.92)" d="M .000008871 0 L 595.32 0 L 595.32 841.92 L .000008871 841.92 Z " fill-rule="evenodd"/>
</clipPath>
<g clip-path="url(#cp11601)">
<text xml:space="preserve" transform="matrix(1 0 -0 1 0 841.92)" font-size="14.04" font-family="Times New Roman"><tspan y="-241.13" x="285.77"> </tspan></text>
</g>
</g>
<g id="Layer-1" data-name="P">
<clipPath id="cp11602">
<path transform="matrix(1,0,0,-1,0,841.92)" d="M .000008871 0 L 595.32 0 L 595.32 841.92 L .000008871 841.92 Z " fill-rule="evenodd"/>
</clipPath>
<g clip-path="url(#cp11602)">
<text xml:space="preserve" transform="matrix(1 0 -0 1 0 841.92)" font-size="14.04" font-family="Wingdings"><tspan y="-216.98" x="106.46">&#xf0fc;</tspan></text>
</g>
<clipPath id="cp11603">
<path transform="matrix(1,0,0,-1,0,841.92)" d="M .000008871 0 L 595.32 0 L 595.32 841.92 L .000008871 841.92 Z " fill-rule="evenodd"/>
</clipPath>
<g clip-path="url(#cp11603)">
<text xml:space="preserve" transform="matrix(1 0 -0 1 0 841.92)" font-size="14.04" font-family="Arial"><tspan y="-216.98" x="117.5"> </tspan></text>
</g>
<clipPath id="cp11604">
<path transform="matrix(1,0,0,-1,0,841.92)" d="M .000008871 0 L 595.32 0 L 595.32 841.92 L .000008871 841.92 Z " fill-rule="evenodd"/>
</clipPath>
<g clip-path="url(#cp11604)">
<text xml:space="preserve" transform="matrix(1 0 -0 1 0 841.92)" font-size="14.04" font-family="Times New Roman"><tspan y="-216.98" x="120.5 127.56212 133.68357 140.74568 147.70952 151.65476 158.4782 165.54032 171.66176 175.607 182.57083 186.51607 190.36302 196.59679 202.00218 209.0643 215.88774 222.94986 229.0713 236.13343 243.09726 250.15938 257.10917 266.47386 274.99613 284.3608 292.8831 299.70655 303.65177 310.6156 317.6777 328.36216 334.59593 340.82969 347.90583 354.1396 359.54499 363.39195 370.45405 374.301 381.2508 388.21464 395.27674 400.68214 404.52909 411.5912 418.41465 422.35987 429.42198 433.98497 441.04707 447.1685 454.2306 461.05406 468.11616 475.08 478.92695 485.89079 492.12455 499.07435 506.13645 512.2579 519.32 526.14346 533.1073 538.61099 542.45797 546.4032 553.36709 559.4885">gapni belgilash uchun CTRL tugmachasini bosib turgan holda gap ustida </tspan></text>
</g>
<clipPath id="cp11605">
<path transform="matrix(1,0,0,-1,0,841.92)" d="M .000008871 0 L 595.32 0 L 595.32 841.92 L .000008871 841.92 Z " fill-rule="evenodd"/>
</clipPath>
<g clip-path="url(#cp11605)">
<text xml:space="preserve" transform="matrix(1 0 -0 1 0 841.92)" font-size="14.04" font-family="Times New Roman"><tspan y="-192.86" x="85.104 90.60768 94.552928 100.67436 107.6382 114.70032 121.664157 128.72628 134.84772 141.90984 148.03128 155.0934 158.94036 165.90419 172.96631 176.4763 182.71007 189.64583">sichqonchaning cha</tspan></text>
</g>
<clipPath id="cp11606">
<path transform="matrix(1,0,0,-1,0,841.92)" d="M .000008871 0 L 595.32 0 L 595.32 841.92 L .000008871 841.92 Z " fill-rule="evenodd"/>
</clipPath>
<g clip-path="url(#cp11606)">
<text xml:space="preserve" transform="matrix(1 0 -0 1 0 841.92)" font-size="14.04" font-family="Times New Roman"><tspan y="-192.86" x="196.01 203.07212 206.42768 210.37291 217.33675 224.39887 235.08332 241.31708 247.55084 254.62702 260.86079 266.26618 270.2114 277.17524 281.12046 284.63047 288.08433 295.04817 298.99339 303.6687 307.1787 317.83509 324.06886 328.8565 332.80174 339.0355 342.5455 349.48127 356.4451 361.94877 365.79573 371.29939 378.36149 381.71705 388.77915 395.0129 399.68824 405.82374 412.78758">p tugmachasini  bir marta bosish kerak;</tspan></text>
</g>
<clipPath id="cp11607">
<path transform="matrix(1,0,0,-1,0,841.92)" d="M .000008871 0 L 595.32 0 L 595.32 841.92 L .000008871 841.92 Z " fill-rule="evenodd"/>
</clipPath>
<g clip-path="url(#cp11607)">
<text xml:space="preserve" transform="matrix(1 0 -0 1 0 841.92)" font-size="14.04" font-family="Times New Roman"><tspan y="-192.86" x="416.83"> </tspan></text>
</g>
</g>
<g id="Layer-1" data-name="P">
<clipPath id="cp11608">
<path transform="matrix(1,0,0,-1,0,841.92)" d="M .000008871 0 L 595.32 0 L 595.32 841.92 L .000008871 841.92 Z " fill-rule="evenodd"/>
</clipPath>
<g clip-path="url(#cp11608)">
<text xml:space="preserve" transform="matrix(1 0 -0 1 0 841.92)" font-size="14.04" font-family="Wingdings"><tspan y="-168.74" x="106.46">&#xf0fc;</tspan></text>
</g>
<clipPath id="cp11609">
<path transform="matrix(1,0,0,-1,0,841.92)" d="M .000008871 0 L 595.32 0 L 595.32 841.92 L .000008871 841.92 Z " fill-rule="evenodd"/>
</clipPath>
<g clip-path="url(#cp11609)">
<text xml:space="preserve" transform="matrix(1 0 -0 1 0 841.92)" font-size="14.04" font-family="Arial"><tspan y="-168.74" x="117.5"> </tspan></text>
</g>
<clipPath id="cp11610">
<path transform="matrix(1,0,0,-1,0,841.92)" d="M .000008871 0 L 595.32 0 L 595.32 841.92 L .000008871 841.92 Z " fill-rule="evenodd"/>
</clipPath>
<g clip-path="url(#cp11610)">
<text xml:space="preserve" transform="matrix(1 0 -0 1 0 841.92)" font-size="14.04" font-family="Times New Roman"><tspan y="-168.74" x="120.5 126.73376 133.80992 140.04369 146.16513 150.11037 155.51576 162.4796 166.42484 171.32479 176.22473 181.12468 188.1868 194.42057 198.26752 205.23136 209.17659 213.02355 219.25731 224.6627 231.72483 236.51245 243.57457 249.69602 256.75813 263.72196 270.78407 275.68403 280.58399 287.54783 294.60993 298.45689 305.42073 312.48283 317.38279 323.61656 330.6927 336.81413 343.87623 348.77619 354.8976 361.95973 368.19349 372.04045 375.8874 382.9495 389.18327 394.09727 401.0611 408.1232 412.6862 418.18986 425.1537 429.829 436.79286 440.73808 445.63804 452.60188 456.5471 460.39405 467.45616 472.2438 479.3059 485.53968 489.38664 493.23359 500.2957 503.8057 508.67759 515.7397 520.63967 527.7018 532.2648 539.22866 546.1925 553.25466 559.3761">abzatsni   belgilash uchun  uning chap chetiga kursorni olib kelib, u o&#x2019;ngga </tspan></text>
</g>
<clipPath id="cp11611">
<path transform="matrix(1,0,0,-1,0,841.92)" d="M .000008871 0 L 595.32 0 L 595.32 841.92 L .000008871 841.92 Z " fill-rule="evenodd"/>
</clipPath>
<g clip-path="url(#cp11611)">
<text xml:space="preserve" transform="matrix(1 0 -0 1 0 841.92)" font-size="14.04" font-family="Times New Roman"><tspan y="-144.5" x="85.104 91.941478 99.12995 103.692958 110.75507 116.98883 120.83579 124.78104 128.72628 133.28928 137.23451 141.08147 148.14359 154.26503 161.32715 173.42963 178.83502 182.78026 187.45558 193.68935 197.5363 204.50014 210.7339 222.85042 228.3541 235.41622 241.53766 248.59978 252.44673 256.2937 263.3558 267.30104 279.4035 286.4656 292.58705 299.55088 306.61299 310.5582 322.54838 329.61048 333.45744 337.40266 344.3665 350.60026 357.5641 364.6262 370.74763 377.80973 389.9122 396.9743 403.20808 410.05958 414.0048 421.0669 433.16938 438.57478 442.42173 448.6555 455.61933 462.68144 469.64527 476.70738 482.8288 489.8909 496.01234 503.07444 506.9214 513.88528 520.9474 533.04989 539.2836 546.3598 552.48129 559.4451">yo&#x2019;naltirilgan strelka shaklini qabul qilgandan keyin sichqonchaning chap </tspan></text>
</g>
<clipPath id="cp11612">
<path transform="matrix(1,0,0,-1,0,841.92)" d="M .000008871 0 L 595.32 0 L 595.32 841.92 L .000008871 841.92 Z " fill-rule="evenodd"/>
</clipPath>
<g clip-path="url(#cp11612)">
<text xml:space="preserve" transform="matrix(1 0 -0 1 0 841.92)" font-size="14.04" font-family="Times New Roman"><tspan y="-120.38" x="85.104 89.04924 96.01308 103.075199 113.759639 119.99339 126.22715 133.30332 139.53708 144.94248 148.88771 155.85155 159.79679 163.9807 167.92594 174.88977 181.8536 185.79885 190.10912 200.79357 207.13965 211.81497 215.76021 221.99398 226.19193 233.15576 240.21788 245.62328 249.56851 254.9739 262.036 266.21995 273.28205 279.5158 284.19114 290.32664 297.29048 301.2357 305.546 309.8563 316.69377 322.92753 330.00367 336.23744 340.4354 347.4975 351.34446 356.01979 360.33009 367.2939 372.6993 379.7614 383.60838 387.5536">tugmachasini ikki marta bosish kerak;  yana bir usuli </tspan></text>
</g>
<clipPath id="cp11613">
<path transform="matrix(1,0,0,-1,0,841.92)" d="M .000008871 0 L 595.32 0 L 595.32 841.92 L .000008871 841.92 Z " fill-rule="evenodd"/>
</clipPath>
<g clip-path="url(#cp11613)">
<text xml:space="preserve" transform="matrix(1 0 -0 1 0 841.92)" font-size="14.04" font-family="Times New Roman"><tspan y="-120.38" x="392.23">&#x2014;</tspan></text>
</g>
<clipPath id="cp11614">
<path transform="matrix(1,0,0,-1,0,841.92)" d="M .000008871 0 L 595.32 0 L 595.32 841.92 L .000008871 841.92 Z " fill-rule="evenodd"/>
</clipPath>
<g clip-path="url(#cp11614)">
<text xml:space="preserve" transform="matrix(1 0 -0 1 0 841.92)" font-size="14.04" font-family="Times New Roman"><tspan y="-120.38" x="406.15"> </tspan></text>
</g>
<clipPath id="cp11615">
<path transform="matrix(1,0,0,-1,0,841.92)" d="M .000008871 0 L 595.32 0 L 595.32 841.92 L .000008871 841.92 Z " fill-rule="evenodd"/>
</clipPath>
<g clip-path="url(#cp11615)">
<text xml:space="preserve" transform="matrix(1 0 -0 1 0 841.92)" font-size="14.04" font-family="Times New Roman"><tspan y="-120.38" x="410.47 416.59144 423.65354 429.8873 436.00874 439.95396 445.35935 449.66966 456.63349">abzats us</tspan></text>
</g>
<clipPath id="cp11616">
<path transform="matrix(1,0,0,-1,0,841.92)" d="M .000008871 0 L 595.32 0 L 595.32 841.92 L .000008871 841.92 Z " fill-rule="evenodd"/>
</clipPath>
<g clip-path="url(#cp11616)">
<text xml:space="preserve" transform="matrix(1 0 -0 1 0 841.92)" font-size="14.04" font-family="Times New Roman"><tspan y="-120.38" x="462.22 466.06697 470.01219 476.976 483.20979 487.52009 494.48393 501.54603 506.109 511.5144 518.57656 523.25186 530.2157 534.16098 538.3449 545.40707 549.254 552.9747 559.93856">tiga kursorni olib </tspan></text>
</g>
<clipPath id="cp11617">
<path transform="matrix(1,0,0,-1,0,841.92)" d="M .000008871 0 L 595.32 0 L 595.32 841.92 L .000008871 841.92 Z " fill-rule="evenodd"/>
</clipPath>
<g clip-path="url(#cp11617)">
<text xml:space="preserve" transform="matrix(1 0 -0 1 0 841.92)" font-size="14.04" font-family="Times New Roman"><tspan y="-96.264" x="85.104 92.166118 98.39987 102.24683 106.093799 113.155918 116.66592 120.11976 125.52516 129.4704 135.70417 142.668 149.63184 156.69396 163.65779 169.89156 176.96773 183.08917 190.05301 193.99825 200.96208 208.0242 211.5342 217.76796 224.70372 230.93749 238.01366 241.36922 245.31446 252.27829 259.3404 270.02485 276.2586 282.49238 289.5685 295.80229 301.20768 305.1529 312.11674 316.06196 319.57197 322.89945 329.96156 336.08299 343.14509 346.6551 357.31147 363.54524 368.22056 372.1798 378.41358 381.92359 388.94358 395.96357 401.4251 405.32823 410.78977 417.80976 421.71287">kelib, sichqonchaning chap tugmachasini  uch marta bosish; </tspan></text>
</g>
<clipPath id="cp11618">
<path transform="matrix(1,0,0,-1,0,841.92)" d="M .000008871 0 L 595.32 0 L 595.32 841.92 L .000008871 841.92 Z " fill-rule="evenodd"/>
</clipPath>
<g clip-path="url(#cp11618)">
<text xml:space="preserve" transform="matrix(1 0 -0 1 0 841.92)" font-size="14.04" font-family="Times New Roman"><tspan y="-96.264" x="425.35"> </tspan></text>
</g>
</g>
</g>
</g>
</svg>
