<?xml version="1.0" encoding="UTF-8" standalone="no"?>
<!DOCTYPE svg PUBLIC "-//W3C//DTD SVG 1.1//EN" "http://www.w3.org/Graphics/SVG/1.1/DTD/svg11.dtd">
<svg xmlns="http://www.w3.org/2000/svg" xmlns:xlink="http://www.w3.org/1999/xlink" version="1.1" width="595.32pt" height="841.92pt" viewBox="0 0 595.32 841.92">
<g enable-background="new">
<g>
<g id="Layer-1" data-name="Artifact">
<clipPath id="cp11619">
<path transform="matrix(1,0,0,-1,0,841.92)" d="M .000008871 0 L 595.32 0 L 595.32 841.92 L .000008871 841.92 Z " fill-rule="evenodd"/>
</clipPath>
<g clip-path="url(#cp11619)">
<text xml:space="preserve" transform="matrix(1 0 -0 1 0 841.92)" font-size="11.04" font-family="Calibri"><tspan y="-51.864" x="316.87 322.50999">84</tspan></text>
</g>
<clipPath id="cp11620">
<path transform="matrix(1,0,0,-1,0,841.92)" d="M .000008871 0 L 595.32 0 L 595.32 841.92 L .000008871 841.92 Z " fill-rule="evenodd"/>
</clipPath>
<g clip-path="url(#cp11620)">
<text xml:space="preserve" transform="matrix(1 0 -0 1 0 841.92)" font-size="11.04" font-family="Calibri"><tspan y="-51.864" x="328.15"> </tspan></text>
</g>
<clipPath id="cp11621">
<path transform="matrix(1,0,0,-1,0,841.92)" d="M .000008871 0 L 595.32 0 L 595.32 841.92 L .000008871 841.92 Z " fill-rule="evenodd"/>
</clipPath>
<g clip-path="url(#cp11621)">
</g>
<clipPath id="cp11622">
<path transform="matrix(1,0,0,-1,0,841.92)" d="M .000008871 0 L 595.32 0 L 595.32 841.92 L .000008871 841.92 Z " fill-rule="evenodd"/>
</clipPath>
<g clip-path="url(#cp11622)">
<text xml:space="preserve" transform="matrix(1 0 -0 1 0 841.92)" font-size="11.04" font-family="Calibri"><tspan y="-38.4" x="85.104"> </tspan></text>
</g>
<clipPath id="cp11623">
<path transform="matrix(1,0,0,-1,0,841.92)" d="M .000008871 0 L 595.32 0 L 595.32 841.92 L .000008871 841.92 Z " fill-rule="evenodd"/>
</clipPath>
<g clip-path="url(#cp11623)">
</g>
</g>
<g id="Layer-1" data-name="P">
<clipPath id="cp11624">
<path transform="matrix(1,0,0,-1,0,841.92)" d="M .000008871 0 L 595.32 0 L 595.32 841.92 L .000008871 841.92 Z " fill-rule="evenodd"/>
</clipPath>
<g clip-path="url(#cp11624)">
<text xml:space="preserve" transform="matrix(1 0 -0 1 0 841.92)" font-size="14.04" font-family="Wingdings"><tspan y="-772.56" x="106.46">&#xf0fc;</tspan></text>
</g>
<clipPath id="cp11625">
<path transform="matrix(1,0,0,-1,0,841.92)" d="M .000008871 0 L 595.32 0 L 595.32 841.92 L .000008871 841.92 Z " fill-rule="evenodd"/>
</clipPath>
<g clip-path="url(#cp11625)">
<text xml:space="preserve" transform="matrix(1 0 -0 1 0 841.92)" font-size="14.04" font-family="Arial"><tspan y="-772.56" x="117.5"> </tspan></text>
</g>
<clipPath id="cp11626">
<path transform="matrix(1,0,0,-1,0,841.92)" d="M .000008871 0 L 595.32 0 L 595.32 841.92 L .000008871 841.92 Z " fill-rule="evenodd"/>
</clipPath>
<g clip-path="url(#cp11626)">
<text xml:space="preserve" transform="matrix(1 0 -0 1 0 841.92)" font-size="14.04" font-family="Times New Roman"><tspan y="-772.56" x="120.5 127.56212 134.52596 138.37291 145.43503 152.49715 157.28478 164.24861 171.31073 175.15769 179.00464 185.2384 189.08536 196.14748 200.09272 204.88034 209.66797 216.73009 222.85153 226.79677 233.7606 237.60756 241.45452 247.68828 253.20601 260.26814 264.9294 271.99153 278.11296 285.17506 292.1389 299.201 303.98866 310.95249 318.0146 322.6899 328.0953 335.1574 339.7204 346.68424 350.62947 355.4171 366.21388 372.44764 376.39286 383.45497 390.4188 394.26576 401.32786 408.38996 413.1776 419.29905 426.36116 432.48258 439.54469 444.33235 450.5661 457.64225 463.76368 467.7089 471.55586 478.61796 484.8517 489.63938 496.6032 500.54844 504.3954 511.4575 516.2451 523.30728 529.4287 533.37399 537.22097 544.2831 547.7931 552.42636 559.3902">butun hujjatni  belgilash uchun kursorni matnning chap chetiga olib kelib, u </tspan></text>
</g>
<clipPath id="cp11627">
<path transform="matrix(1,0,0,-1,0,841.92)" d="M .000008871 0 L 595.32 0 L 595.32 841.92 L .000008871 841.92 Z " fill-rule="evenodd"/>
</clipPath>
<g clip-path="url(#cp11627)">
<text xml:space="preserve" transform="matrix(1 0 -0 1 0 841.92)" font-size="14.04" font-family="Times New Roman"><tspan y="-748.3" x="85.104 92.166118 96.72912 103.79124 110.75507 117.81719 124.05095 129.80736 136.64484 143.70696 148.26996 155.33208 161.56584 165.51108 169.35803 173.30327 177.97859 181.82555 185.6725 192.73462 198.85607 205.8199 211.56226 217.06594 221.01117 225.6865 231.80794 235.75318 242.71701 248.95078 254.70717 260.21086 267.17469 273.40846 280.37229 284.3175 288.16447 295.1283 299.07353 304.8159 311.878 317.99943 324.96327 332.02537 335.97059 341.60063 348.66273 352.50968 356.4549 363.41874 369.6525 376.61634 383.67845 389.79988 396.86198 402.60435 409.66645 415.9002 422.7517 426.69694 433.75904 439.5014 444.9068 448.85203 455.0858 462.04963 469.01347 476.07557 483.0394 489.27317 496.237 502.47077 509.4346 513.3798 520.3437 527.4058 533.1482 539.26968 546.3318 552.45327 559.4171">o&#x2019;ngga yo&#x2019;naltirilgan strelka shaklini qabul qilgandan keyin sichqonchaning chap </tspan></text>
</g>
<clipPath id="cp11628">
<path transform="matrix(1,0,0,-1,0,841.92)" d="M .000008871 0 L 595.32 0 L 595.32 841.92 L .000008871 841.92 Z " fill-rule="evenodd"/>
</clipPath>
<g clip-path="url(#cp11628)">
<text xml:space="preserve" transform="matrix(1 0 -0 1 0 841.92)" font-size="14.04" font-family="Times New Roman"><tspan y="-724.18" x="85.104 89.04924 96.01308 103.075199 113.759639 119.99339 126.22715 133.30332 139.53708 144.94248 148.88771 155.85155 159.79679 163.30678 166.7606 173.82273 179.94417 187.00629 190.51628">tugmachasini  uch m</tspan></text>
</g>
<clipPath id="cp11629">
<path transform="matrix(1,0,0,-1,0,841.92)" d="M .000008871 0 L 595.32 0 L 595.32 841.92 L .000008871 841.92 Z " fill-rule="evenodd"/>
</clipPath>
<g clip-path="url(#cp11629)">
<text xml:space="preserve" transform="matrix(1 0 -0 1 0 841.92)" font-size="14.04" font-family="Times New Roman"><tspan y="-724.18" x="201.29 207.63608 212.3114 216.25664 222.4904 226.0004 232.93616 239.9 245.40367 249.25063 254.65602 261.71815 265.22816 272.24815 278.4819 283.073 289.30677 296.2706">arta bosish kerak;</tspan></text>
</g>
<clipPath id="cp11630">
<path transform="matrix(1,0,0,-1,0,841.92)" d="M .000008871 0 L 595.32 0 L 595.32 841.92 L .000008871 841.92 Z " fill-rule="evenodd"/>
</clipPath>
<g clip-path="url(#cp11630)">
<text xml:space="preserve" transform="matrix(1 0 -0 1 0 841.92)" font-size="14.04" font-family="Times New Roman"><tspan y="-724.18" x="300.17"> </tspan></text>
</g>
</g>
<g id="Layer-1" data-name="P">
<clipPath id="cp11631">
<path transform="matrix(1,0,0,-1,0,841.92)" d="M .000008871 0 L 595.32 0 L 595.32 841.92 L .000008871 841.92 Z " fill-rule="evenodd"/>
</clipPath>
<g clip-path="url(#cp11631)">
<text xml:space="preserve" transform="matrix(1 0 -0 1 0 841.92)" font-size="14.04" font-family="Wingdings"><tspan y="-700.06" x="106.46">&#xf0fc;</tspan></text>
</g>
<clipPath id="cp11632">
<path transform="matrix(1,0,0,-1,0,841.92)" d="M .000008871 0 L 595.32 0 L 595.32 841.92 L .000008871 841.92 Z " fill-rule="evenodd"/>
</clipPath>
<g clip-path="url(#cp11632)">
<text xml:space="preserve" transform="matrix(1 0 -0 1 0 841.92)" font-size="14.04" font-family="Arial"><tspan y="-700.06" x="117.5"> </tspan></text>
</g>
<clipPath id="cp11633">
<path transform="matrix(1,0,0,-1,0,841.92)" d="M .000008871 0 L 595.32 0 L 595.32 841.92 L .000008871 841.92 Z " fill-rule="evenodd"/>
</clipPath>
<g clip-path="url(#cp11633)">
<text xml:space="preserve" transform="matrix(1 0 -0 1 0 841.92)" font-size="14.04" font-family="Times New Roman"><tspan y="-700.06" x="120.5 127.56212 134.52596 138.37291 145.43503 152.39887 156.3441 160.19106 164.03801 171.10013 174.94709 178.89232 185.12609 189.68909 196.7512 200.69644 217.6006 234.39244 241.35628 247.59004 251.53528 258.4991 262.34608 266.2913 272.52507 277.93046 284.99256 301.7844 308.8465 315.08027 322.0441 329.00794 336.07005">kolontitullarni  belgilash uchun </tspan></text>
</g>
<clipPath id="cp11634">
<path transform="matrix(1,0,0,-1,0,841.92)" d="M .000008871 0 L 595.32 0 L 595.32 841.92 L .000008871 841.92 Z " fill-rule="evenodd"/>
</clipPath>
<g clip-path="url(#cp11634)">
<text xml:space="preserve" transform="matrix(1 0 -0 1 0 841.92)" font-size="14.04" font-family="Times New Roman,Bold" font-weight="bold"><tspan y="-700.06" x="353.23 360.19386 369.55854 377.58943 384.69367 391.71366">&#x00ab;&#x0412;&#x0438;&#x0434;&#x00bb; </tspan></text>
</g>
<clipPath id="cp11635">
<path transform="matrix(1,0,0,-1,0,841.92)" d="M .000008871 0 L 595.32 0 L 595.32 841.92 L .000008871 841.92 Z " fill-rule="evenodd"/>
</clipPath>
<g clip-path="url(#cp11635)">
<text xml:space="preserve" transform="matrix(1 0 -0 1 0 841.92)" font-size="14.04" font-family="Times New Roman"><tspan y="-700.06" x="408.67 413.34535 423.42607 430.48817 435.05116 439.72648 443.57344 450.63554 454.48249 459.98616 466.94999 471.51298 488.5435 499.22795 505.4617 512.53787 519.37539 526.4375 531.94119 535.8864 542.94857 549.07 556.0339 559.88088">(Ko&#x2019;rinish) menyusidagi </tspan></text>
</g>
<clipPath id="cp11636">
<path transform="matrix(1,0,0,-1,0,841.92)" d="M .000008871 0 L 595.32 0 L 595.32 841.92 L .000008871 841.92 Z " fill-rule="evenodd"/>
</clipPath>
<g clip-path="url(#cp11636)">
<text xml:space="preserve" transform="matrix(1 0 -0 1 0 841.92)" font-size="14.04" font-family="Times New Roman,Bold" font-weight="bold"><tspan y="-675.94" x="85.104">&#x00ab;</tspan></text>
</g>
</g>
<g id="Layer-1" data-name="P">
<clipPath id="cp11637">
<path transform="matrix(1,0,0,-1,0,841.92)" d="M .000008871 0 L 595.32 0 L 595.32 841.92 L .000008871 841.92 Z " fill-rule="evenodd"/>
</clipPath>
<g clip-path="url(#cp11637)">
<text xml:space="preserve" transform="matrix(1 0 -0 1 0 841.92)" font-size="14.04" font-family="Times New Roman,Bold" font-weight="bold"><tspan y="-675.94" x="92.184 102.26472 109.326839 117.13308 124.1952 132.24013 139.18994 147.10849 153.94597 161.00809 168.9126">&#x041a;&#x043e;&#x043b;&#x043e;&#x043d;&#x0442;&#x0438;&#x0442;&#x0443;&#x043b;&#x044b;</tspan></text>
</g>
</g>
<g id="Layer-1" data-name="P">
<clipPath id="cp11638">
<path transform="matrix(1,0,0,-1,0,841.92)" d="M .000008871 0 L 595.32 0 L 595.32 841.92 L .000008871 841.92 Z " fill-rule="evenodd"/>
</clipPath>
<g clip-path="url(#cp11638)">
<text xml:space="preserve" transform="matrix(1 0 -0 1 0 841.92)" font-size="14.04" font-family="Times New Roman,Bold" font-weight="bold"><tspan y="-675.94" x="179.78">&#x00bb;</tspan></text>
</g>
</g>
<g id="Layer-1" data-name="P">
<clipPath id="cp11639">
<path transform="matrix(1,0,0,-1,0,841.92)" d="M .000008871 0 L 595.32 0 L 595.32 841.92 L .000008871 841.92 Z " fill-rule="evenodd"/>
</clipPath>
<g clip-path="url(#cp11639)">
<text xml:space="preserve" transform="matrix(1 0 -0 1 0 841.92)" font-size="14.04" font-family="Times New Roman"><tspan y="-675.94" x="186.86"> </tspan></text>
</g>
</g>
<g id="Layer-1" data-name="P">
<clipPath id="cp11640">
<path transform="matrix(1,0,0,-1,0,841.92)" d="M .000008871 0 L 595.32 0 L 595.32 841.92 L .000008871 841.92 Z " fill-rule="evenodd"/>
</clipPath>
<g clip-path="url(#cp11640)">
<text xml:space="preserve" transform="matrix(1 0 -0 1 0 841.92)" font-size="14.04" font-family="Times New Roman"><tspan y="-675.94" x="190.49 195.16533 205.24605 212.30817 216.15512 223.11896 230.18108 234.02803 237.97327 241.82022 248.78406 252.7293 256.67454 262.79597 267.47129 272.1466 275.74085 282.80296 289.86506 296.7025 301.37785 308.34169 315.40379 319.96678 323.912 330.9741 334.9193 338.4995 342.34648 348.58024 355.54408 359.4893 365.61073 371.11439 378.17649 381.75669 385.60365 392.66575 398.78718 402.7324 413.41685 417.36207">(Kolontitullar) buyrug&#x2019;ini tanlash lozim; </tspan></text>
</g>
</g>
<g id="Layer-1" data-name="P">
<clipPath id="cp11641">
<path transform="matrix(1,0,0,-1,0,841.92)" d="M .000008871 0 L 595.32 0 L 595.32 841.92 L .000008871 841.92 Z " fill-rule="evenodd"/>
</clipPath>
<g clip-path="url(#cp11641)">
<text xml:space="preserve" transform="matrix(1 0 -0 1 0 841.92)" font-size="14.04" font-family="Times New Roman,Bold" font-weight="bold"><tspan y="-675.94" x="421.27">&#x00ab;</tspan></text>
</g>
</g>
<g id="Layer-1" data-name="P">
<clipPath id="cp11642">
<path transform="matrix(1,0,0,-1,0,841.92)" d="M .000008871 0 L 595.32 0 L 595.32 841.92 L .000008871 841.92 Z " fill-rule="evenodd"/>
</clipPath>
<g clip-path="url(#cp11642)">
<text xml:space="preserve" transform="matrix(1 0 -0 1 0 841.92)" font-size="14.04" font-family="Times New Roman,Bold" font-weight="bold"><tspan y="-675.94" x="428.35 436.87229 443.9344 449.57847 459.1397 465.28926 472.23905 480.28398">&#x0420;&#x0430;&#x0437;&#x043c;&#x0435;&#x0442;&#x043a;&#x0430;</tspan></text>
</g>
</g>
<g id="Layer-1" data-name="P">
<clipPath id="cp11643">
<path transform="matrix(1,0,0,-1,0,841.92)" d="M .000008871 0 L 595.32 0 L 595.32 841.92 L .000008871 841.92 Z " fill-rule="evenodd"/>
</clipPath>
<g clip-path="url(#cp11643)">
<text xml:space="preserve" transform="matrix(1 0 -0 1 0 841.92)" font-size="14.04" font-family="Times New Roman,Bold" font-weight="bold"><tspan y="-675.94" x="487.3 494.37998">&#x00bb; </tspan></text>
</g>
</g>
<g id="Layer-1" data-name="P">
<clipPath id="cp11644">
<path transform="matrix(1,0,0,-1,0,841.92)" d="M .000008871 0 L 595.32 0 L 595.32 841.92 L .000008871 841.92 Z " fill-rule="evenodd"/>
</clipPath>
<g clip-path="url(#cp11644)">
<text xml:space="preserve" transform="matrix(1 0 -0 1 0 841.92)" font-size="14.04" font-family="Times New Roman"><tspan y="-675.94" x="497.98 502.65534 512.02 518.2538 522.10079 529.1629 533.0099 536.95516 543.0766 548.482 555.44589 560.00888">(Belgilash) </tspan></text>
</g>
</g>
<g id="Layer-1" data-name="P">
<clipPath id="cp11645">
<path transform="matrix(1,0,0,-1,0,841.92)" d="M .000008871 0 L 595.32 0 L 595.32 841.92 L .000008871 841.92 Z " fill-rule="evenodd"/>
</clipPath>
<g clip-path="url(#cp11645)">
<text xml:space="preserve" transform="matrix(1 0 -0 1 0 841.92)" font-size="14.04" font-family="Times New Roman"><tspan y="-651.7" x="85.104 92.166118 99.12995 103.075199 109.19663 113.14188 116.98884 124.05096 130.28472 135.91475 139.7617 146.82382 151.38683 155.33206 162.39418 165.90418 171.37978 178.4419 185.40573 189.25269 196.3148 203.27864 207.1256 211.07083 214.91779 221.9799 225.82686 229.7721 236.00586 240.68119 246.31122 256.99568 263.22944 267.17466 274.23677 278.18199 283.68568 290.74778 296.15318 300.0984 303.94535 311.00746 317.2412 322.75895 329.72279 336.78489 341.4602 346.8656 353.9277 358.4907 365.5528 369.49803 375.0017 382.0638 385.91078 389.75773 396.81983 402.44987 409.51197 415.6334 419.5786 423.42558 430.48768 433.99769 439.59965 445.00505 448.852 455.08576 462.0496 469.1117 476.07554 483.13764 489.25907 496.32118 502.4426 509.5047 513.3517 520.31558 527.3777 533.00778 539.2415 546.3177 552.43917 559.403">holatida turib, kolontitullar matni ustiga kursorni olib kelib, sichqonchaning chap </tspan></text>
</g>
</g>
<g id="Layer-1" data-name="P">
<clipPath id="cp11646">
<path transform="matrix(1,0,0,-1,0,841.92)" d="M .000008871 0 L 595.32 0 L 595.32 841.92 L .000008871 841.92 Z " fill-rule="evenodd"/>
</clipPath>
<g clip-path="url(#cp11646)">
<text xml:space="preserve" transform="matrix(1 0 -0 1 0 841.92)" font-size="14.04" font-family="Times New Roman"><tspan y="-627.58" x="85.104 89.04924 96.01308 103.075199 113.759639 119.99339 126.22715 133.30332 139.53708 144.94248 148.88771 155.85155 159.79679 165.53914 169.3861 176.34993 183.41205 187.35729 193.09964 203.78409 210.01786 214.69318 218.65247 224.88623 230.51627 237.57839 244.54222 249.94762 253.89286 259.29826 266.36036 272.10273 279.06657 285.30033 289.97566 296.11116 303.17326 307.11848 312.7485 318.1539 325.11775 329.68074 336.74284 343.80494 349.5473 356.51115 363.57325 367.4202 374.38404 381.44615 385.2931 389.2383 393.08528 400.0491 403.99433 410.95817 414.8051 421.86723 428.92933 434.6717 440.79313 447.75697 453.99073 461.06687 466.80924 472.93067 479.99278 486.1142 490.05943 493.90638 500.96849 507.20225 512.8323 519.8944 526.95657 531.51956 536.9249 543.98709 548.66238 555.6262 559.4732">tugmachasini ikki marta bosish kerak; so&#x2019;ng kolontitulning chap chetiga kursorni </tspan></text>
</g>
</g>
<g id="Layer-1" data-name="P">
<clipPath id="cp11647">
<path transform="matrix(1,0,0,-1,0,841.92)" d="M .000008871 0 L 595.32 0 L 595.32 841.92 L .000008871 841.92 Z " fill-rule="evenodd"/>
</clipPath>
<g clip-path="url(#cp11647)">
<text xml:space="preserve" transform="matrix(1 0 -0 1 0 841.92)" font-size="14.04" font-family="Times New Roman"><tspan y="-603.46" x="85.104 92.166118 96.01308 99.95832 106.92216 117.70488 124.66872 130.90248 134.74944 138.69467 145.75679 149.26679 159.9091 166.97122 177.64162 184.70374 189.26674 196.32886 203.2927 210.35482 216.58858 227.38533 234.22281 241.28493 245.84793 252.91005 259.1438 262.99076 266.93598 270.8812 275.44419 279.3894 283.23637 290.29847 296.4199 303.482 314.1524 319.65608 323.50303 328.17835 334.4121 338.25907 345.32118 351.55494 362.22535 367.729 374.7911 380.91255 387.87638 391.8216 395.66856 402.6324 406.5776 417.36036 424.3242 430.55796 437.5218 444.48564 448.43086 459.21357 466.1774 470.02436 473.96958 481.03169 487.1531 494.11695 501.17906 507.30049 514.3626 525.1453 530.5507 537.61288 542.17587 549.1397 556.1036 559.45919">olib kelib, u o&#x2019;ngga yo&#x2019;naltirilgan strelka shaklini qabul qilgandan so&#x2019;ng, </tspan></text>
</g>
</g>
<g id="Layer-1" data-name="P">
<clipPath id="cp11648">
<path transform="matrix(1,0,0,-1,0,841.92)" d="M .000008871 0 L 595.32 0 L 595.32 841.92 L .000008871 841.92 Z " fill-rule="evenodd"/>
</clipPath>
<g clip-path="url(#cp11648)">
<text xml:space="preserve" transform="matrix(1 0 -0 1 0 841.92)" font-size="14.04" font-family="Times New Roman"><tspan y="-579.34" x="85.104 90.623958 94.58547">sic</tspan></text>
</g>
</g>
<g id="Layer-1" data-name="P">
<clipPath id="cp11649">
<path transform="matrix(1,0,0,-1,0,841.92)" d="M .000008871 0 L 595.32 0 L 595.32 841.92 L .000008871 841.92 Z " fill-rule="evenodd"/>
</clipPath>
<g clip-path="url(#cp11649)">
<text xml:space="preserve" transform="matrix(1 0 -0 1 0 841.92)" font-size="14.04" font-family="Times New Roman"><tspan y="-579.34" x="100.7 107.66383 114.72595 121.68979 128.7519 134.87335 141.93547 148.05692 155.11904 158.96599 165.92983 172.99195 176.50194 182.7357 189.67147 195.90523 202.9814 206.33696 210.2822 217.24604 224.30815 234.9926 241.22637 247.46013 254.5363 260.77006 266.17546 270.12068 277.0845 281.02973 284.53974 287.9936 295.0557 301.17713 308.23924 311.74925 322.4056 328.7517 333.42704 337.37226 343.60603 347.11604 354.0518 361.01564 366.5193 370.36625 375.77165 382.83375 386.34376 393.36375 399.5975 404.1886 410.42237 417.3862 421.33143">hqonchaning chap tugmachasini  uch marta bosish kerak; </tspan></text>
</g>
</g>
<g id="Layer-1" data-name="P">
<clipPath id="cp11650">
<path transform="matrix(1,0,0,-1,0,841.92)" d="M .000008871 0 L 595.32 0 L 595.32 841.92 L .000008871 841.92 Z " fill-rule="evenodd"/>
</clipPath>
<g clip-path="url(#cp11650)">
<text xml:space="preserve" transform="matrix(1 0 -0 1 0 841.92)" font-size="14.04" font-family="Times New Roman"><tspan y="-579.34" x="424.99"> </tspan></text>
</g>
</g>
<g id="Layer-1" data-name="P">
<clipPath id="cp11651">
<path transform="matrix(1,0,0,-1,0,841.92)" d="M .000008871 0 L 595.32 0 L 595.32 841.92 L .000008871 841.92 Z " fill-rule="evenodd"/>
</clipPath>
<g clip-path="url(#cp11651)">
<text xml:space="preserve" transform="matrix(1 0 -0 1 0 841.92)" font-size="14.04" font-family="Wingdings"><tspan y="-555.07" x="106.46">&#xf0fc;</tspan></text>
</g>
<clipPath id="cp11652">
<path transform="matrix(1,0,0,-1,0,841.92)" d="M .000008871 0 L 595.32 0 L 595.32 841.92 L .000008871 841.92 Z " fill-rule="evenodd"/>
</clipPath>
<g clip-path="url(#cp11652)">
<text xml:space="preserve" transform="matrix(1 0 -0 1 0 841.92)" font-size="14.04" font-family="Arial"><tspan y="-555.07" x="117.5"> </tspan></text>
</g>
<clipPath id="cp11653">
<path transform="matrix(1,0,0,-1,0,841.92)" d="M .000008871 0 L 595.32 0 L 595.32 841.92 L .000008871 841.92 Z " fill-rule="evenodd"/>
</clipPath>
<g clip-path="url(#cp11653)">
<text xml:space="preserve" transform="matrix(1 0 -0 1 0 841.92)" font-size="14.04" font-family="Times New Roman"><tspan y="-555.07" x="120.5 124.445247 130.679 137.64284 144.60668 148.55191 154.78568 159.461 163.65895 170.72107 176.95484 181.15279 188.2149 194.33635 201.30019 208.3623 212.30754 218.42899 222.37422 228.60799 233.17099 240.13483 244.08007 248.39034 252.7006 257.26359 262.76725 269.73109 276.69493 282.19859 289.1624 295.39619 299.3414 305.57518 310.13816 317.102 321.0472 325.72254 330.03285 334.21678 341.27888 347.4003 351.34553 358.30937 362.1563 366.10154 372.3353 377.7407 384.8028 388.98674 396.04884 402.17027 409.23237 416.1962 423.2583 427.44224 434.50434 441.3418 448.4039 454.63768 461.6015 465.54673 472.51057 479.57267 483.7566 494.44105 501.50315 507.0068 511.3171 516.8208 523.78469 530.8468 537.08059 542.48599 546.33297 553.2968 559.4183 562.9283">izohlar va havolalarni  (snoskalarni)  belgilash uchun oynaning mos sohasida  </tspan></text>
</g>
<clipPath id="cp11654">
<path transform="matrix(1,0,0,-1,0,841.92)" d="M .000008871 0 L 595.32 0 L 595.32 841.92 L .000008871 841.92 Z " fill-rule="evenodd"/>
</clipPath>
<g clip-path="url(#cp11654)">
<text xml:space="preserve" transform="matrix(1 0 -0 1 0 841.92)" font-size="14.04" font-family="Times New Roman"><tspan y="-530.95" x="85.104 90.60768 94.552928 100.67436 107.6382 114.70032 121.664157 128.72628 134.84772 141.90984 148.03128 155.0934 159.03864 167.18183 174.14566 181.20778 186.61318 190.46013 197.52225 201.03224 209.27371 216.33583 223.39795 227.96096 232.63628 238.13996 244.2614 248.10836 255.17047 259.01744 265.2512 272.21504 279.27714 283.12409 291.39366 302.0781 308.31187 312.25709 319.31919 326.3813 330.22825 337.19209 344.25419 352.52375 358.64518 365.70729 371.94105 379.01719 387.1604 393.39418 400.358 406.59178 410.43873 414.38395 421.34779 427.58155 435.7388 442.8009 446.64787 450.59309 457.55693 465.82649 472.88859 479.01 482.85697 486.8022 493.8643 497.3743 505.48945 512.5516 520.69479 527.7569 532.3199 539.382 546.3459 553.30978 559.4312">sichqonchani bosib, ko&#x2019;rsatkichni matnning chap chetiga olib kelib, u o&#x2019;ngga </tspan></text>
</g>
<clipPath id="cp11655">
<path transform="matrix(1,0,0,-1,0,841.92)" d="M .000008871 0 L 595.32 0 L 595.32 841.92 L .000008871 841.92 Z " fill-rule="evenodd"/>
</clipPath>
<g clip-path="url(#cp11655)">
<text xml:space="preserve" transform="matrix(1 0 -0 1 0 841.92)" font-size="14.04" font-family="Times New Roman"><tspan y="-506.83" x="85.104 91.941478 99.12995 103.692958 110.75507 116.98883 120.83579 124.78104 128.72628 133.28928 137.23451 141.08147 148.14359 154.26503 161.32715 168.99298 174.49666 178.4419 183.0049 189.23867 193.08562 200.14774 206.26918 214.06137 219.56505 226.62717 232.74861 239.71245 243.65769 247.50464 254.46848 258.4137 266.2059 273.268 279.38945 286.35328 293.41539 297.3606 305.02647 311.9903 315.93553 319.78248 326.7463 332.98008 339.9439">yo&#x2019;naltirilgan strelka shaklini qabul qilgand</tspan></text>
</g>
<clipPath id="cp11656">
<path transform="matrix(1,0,0,-1,0,841.92)" d="M .000008871 0 L 595.32 0 L 595.32 841.92 L .000008871 841.92 Z " fill-rule="evenodd"/>
</clipPath>
<g clip-path="url(#cp11656)">
<text xml:space="preserve" transform="matrix(1 0 -0 1 0 841.92)" font-size="14.04" font-family="Times New Roman"><tspan y="-506.83" x="347.35 353.58378 360.6599 368.32579 373.73118 380.79328 385.35627 392.41838 399.48048 402.99049 410.62825 416.1319 420.07713 426.19856 433.16239 440.2245 447.18833 454.25044 460.37187 467.43397 473.66773 480.63157 484.57679 492.369 500.03486 507.09696 513.2184 520.2805 528.07278 538.75717 544.9909 549.6662 553.6255 559.74697">an so&#x2019;ng, sichqonchani  uch marta </tspan></text>
</g>
<clipPath id="cp11657">
<path transform="matrix(1,0,0,-1,0,841.92)" d="M .000008871 0 L 595.32 0 L 595.32 841.92 L .000008871 841.92 Z " fill-rule="evenodd"/>
</clipPath>
<g clip-path="url(#cp11657)">
<text xml:space="preserve" transform="matrix(1 0 -0 1 0 841.92)" font-size="14.04" font-family="Times New Roman"><tspan y="-482.71" x="85.104 92.166118 99.12995 104.535358 108.4806 113.886 120.94812 124.45812 131.47812 137.62764 142.30297 148.53673 155.51462">bosish kerak;</tspan></text>
</g>
<clipPath id="cp11658">
<path transform="matrix(1,0,0,-1,0,841.92)" d="M .000008871 0 L 595.32 0 L 595.32 841.92 L .000008871 841.92 Z " fill-rule="evenodd"/>
</clipPath>
<g clip-path="url(#cp11658)">
<text xml:space="preserve" transform="matrix(1 0 -0 1 0 841.92)" font-size="14.04" font-family="Times New Roman"><tspan y="-482.71" x="159.38"> </tspan></text>
</g>
</g>
<g id="Layer-1" data-name="P">
<clipPath id="cp11659">
<path transform="matrix(1,0,0,-1,0,841.92)" d="M .000008871 0 L 595.32 0 L 595.32 841.92 L .000008871 841.92 Z " fill-rule="evenodd"/>
</clipPath>
<g clip-path="url(#cp11659)">
<text xml:space="preserve" transform="matrix(1 0 -0 1 0 841.92)" font-size="14.04" font-family="Wingdings"><tspan y="-458.47" x="106.46">&#xf0fc;</tspan></text>
</g>
<clipPath id="cp11660">
<path transform="matrix(1,0,0,-1,0,841.92)" d="M .000008871 0 L 595.32 0 L 595.32 841.92 L .000008871 841.92 Z " fill-rule="evenodd"/>
</clipPath>
<g clip-path="url(#cp11660)">
<text xml:space="preserve" transform="matrix(1 0 -0 1 0 841.92)" font-size="14.04" font-family="Arial"><tspan y="-458.47" x="117.5"> </tspan></text>
</g>
<clipPath id="cp11661">
<path transform="matrix(1,0,0,-1,0,841.92)" d="M .000008871 0 L 595.32 0 L 595.32 841.92 L .000008871 841.92 Z " fill-rule="evenodd"/>
</clipPath>
<g clip-path="url(#cp11661)">
<text xml:space="preserve" transform="matrix(1 0 -0 1 0 841.92)" font-size="14.04" font-family="Times New Roman"><tspan y="-458.47" x="120.5 131.29677 137.53054 141.47577 148.53789 155.50173 159.34868 166.4108 173.47292 183.77828 190.8404 197.07416 201.63716 205.48412 209.42935 216.49147 222.61292 226.55815 236.86351 243.92563 247.77259 254.73642 261.79853 265.64549 272.70759 276.55455 286.98628 297.418 302.09333 305.94029 312.17405 319.13789 326.19999 332.3214 336.26664">matnning vertikal blokini  (jadval </tspan></text>
</g>
<clipPath id="cp11662">
<path transform="matrix(1,0,0,-1,0,841.92)" d="M .000008871 0 L 595.32 0 L 595.32 841.92 L .000008871 841.92 Z " fill-rule="evenodd"/>
</clipPath>
<g clip-path="url(#cp11662)">
<text xml:space="preserve" transform="matrix(1 0 -0 1 0 841.92)" font-size="14.04" font-family="Times New Roman"><tspan y="-458.47" x="346.87 353.83384 360.0676 364.01283 370.13426">katak</tspan></text>
</g>
<clipPath id="cp11663">
<path transform="matrix(1,0,0,-1,0,841.92)" d="M .000008871 0 L 595.32 0 L 595.32 841.92 L .000008871 841.92 Z " fill-rule="evenodd"/>
</clipPath>
<g clip-path="url(#cp11663)">
<text xml:space="preserve" transform="matrix(1 0 -0 1 0 841.92)" font-size="14.04" font-family="Times New Roman"><tspan y="-458.47" x="377.23 382.6354 386.58064 396.886 400.8312 407.06498 414.0288 417.87577 424.93788 431.0593 438.1214 442.06663 452.49836 463.1828 469.41658 473.3618 480.4239 487.38774 493.6215 500.69764 511.003 514.94827 521.0697 526.57339 533.53726 540.59939 546.8331 551.3961 555.2431 559.8061 563.3161">si ichidagi matndan tashqari)  </tspan></text>
</g>
<clipPath id="cp11664">
<path transform="matrix(1,0,0,-1,0,841.92)" d="M .000008871 0 L 595.32 0 L 595.32 841.92 L .000008871 841.92 Z " fill-rule="evenodd"/>
</clipPath>
<g clip-path="url(#cp11664)">
<text xml:space="preserve" transform="matrix(1 0 -0 1 0 841.92)" font-size="14.04" font-family="Times New Roman"><tspan y="-434.35" x="85.104 92.166118 98.39987 102.24683 109.21067 113.155918 117.00288 123.23663 128.64203 135.70415 139.21414 142.66797 149.73009 155.85153 162.81537 169.87749 176.9396 180.29517 185.79885 189.6458 193.59104 197.43799 201.28495 205.1319 209.07714 214.48253 221.54465 225.05464 231.9904 238.22417 245.188 252.25012 262.93458 266.8798 273.9419 280.17567 283.68568 293.7383 302.2606 310.78288 314.29289 318.19599 325.21598 332.23597 342.9485 349.18226 355.41603 362.49217 368.72593 374.24363 378.09059 385.0544 388.99964 392.50965 399.4454 406.5075 411.9129 415.75987 422.82197 426.33198 430.1368 437.1989 441.87425 445.7212 451.22486 458.28697 461.64253 468.70463 474.9384 479.6137 485.7492 492.8113 496.32133 499.77519 503.2852 506.73905 510.24906 513.7029">belgilash  uchun siljitish davomida ALT tugmachasini bosib turish kerak.      </tspan></text>
</g>
<clipPath id="cp11665">
<path transform="matrix(1,0,0,-1,0,841.92)" d="M .000008871 0 L 595.32 0 L 595.32 841.92 L .000008871 841.92 Z " fill-rule="evenodd"/>
</clipPath>
<g clip-path="url(#cp11665)">
<text xml:space="preserve" transform="matrix(1 0 -0 1 0 841.92)" font-size="14.04" font-family="Times New Roman"><tspan y="-434.35" x="517.54"> </tspan></text>
</g>
</g>
<g id="Layer-1" data-name="P">
<clipPath id="cp11666">
<path transform="matrix(1,0,0,-1,0,841.92)" d="M .000008871 0 L 595.32 0 L 595.32 841.92 L .000008871 841.92 Z " fill-rule="evenodd"/>
</clipPath>
<g clip-path="url(#cp11666)">
<text xml:space="preserve" transform="matrix(1 0 -0 1 0 841.92)" font-size="14.04" font-family="Times New Roman,Italic" font-style="italic"><tspan y="-410.23" x="120.5 129.02228 139.103 146.16512 150.11035 153.9573 160.92115 166.42482 173.38866 177.3339 180.84389 187.77965 194.01342 200.24718 207.22507 212.72875 216.23874 223.1745 227.02146 230.96669 234.81365 240.21904 247.28116">Amallarni bekor qilish.</tspan></text>
</g>
<clipPath id="cp11667">
<path transform="matrix(1,0,0,-1,0,841.92)" d="M .000008871 0 L 595.32 0 L 595.32 841.92 L .000008871 841.92 Z " fill-rule="evenodd"/>
</clipPath>
<g clip-path="url(#cp11667)">
<text xml:space="preserve" transform="matrix(1 0 -0 1 0 841.92)" font-size="14.04" font-family="Times New Roman"><tspan y="-410.23" x="250.85"> </tspan></text>
</g>
</g>
<g id="Layer-1" data-name="P">
<clipPath id="cp11668">
<path transform="matrix(1,0,0,-1,0,841.92)" d="M .000008871 0 L 595.32 0 L 595.32 841.92 L .000008871 841.92 Z " fill-rule="evenodd"/>
</clipPath>
<g clip-path="url(#cp11668)">
<text xml:space="preserve" transform="matrix(1 0 -0 1 0 841.92)" font-size="14.04" font-family="Times New Roman"><tspan y="-386.09" x="120.5 129.86469 136.09845 143.06229 150.1244 154.79973 169.79445 176.75829 180.60524 184.55048 188.39743 195.45955 199.3065 204.7119 211.77402 215.71926 230.69992 236.82137 242.94281 247.61814 254.6943 259.36964 274.36436 281.3282">Bekor qilinishi zarur bo</tspan></text>
</g>
<clipPath id="cp11669">
<path transform="matrix(1,0,0,-1,0,841.92)" d="M .000008871 0 L 595.32 0 L 595.32 841.92 L .000008871 841.92 Z " fill-rule="evenodd"/>
</clipPath>
<g clip-path="url(#cp11669)">
<text xml:space="preserve" transform="matrix(1 0 -0 1 0 841.92)" font-size="14.04" font-family="Times New Roman"><tspan y="-386.09" x="288.53">&#x2019;</tspan></text>
</g>
<clipPath id="cp11670">
<path transform="matrix(1,0,0,-1,0,841.92)" d="M .000008871 0 L 595.32 0 L 595.32 841.92 L .000008871 841.92 Z " fill-rule="evenodd"/>
</clipPath>
<g clip-path="url(#cp11670)">
<text xml:space="preserve" transform="matrix(1 0 -0 1 0 841.92)" font-size="14.04" font-family="Times New Roman"><tspan y="-386.09" x="293.09 296.93696 303.99906 310.23283 317.30897 332.28965 338.5234 349.20787 355.44163">lgan amal</tspan></text>
</g>
<clipPath id="cp11671">
<path transform="matrix(1,0,0,-1,0,841.92)" d="M .000008871 0 L 595.32 0 L 595.32 841.92 L .000008871 841.92 Z " fill-rule="evenodd"/>
</clipPath>
<g clip-path="url(#cp11671)">
<text xml:space="preserve" transform="matrix(1 0 -0 1 0 841.92)" font-size="14.04" font-family="Times New Roman"><tspan y="-386.09" x="359.47 363.31697 369.55073 374.22605 389.22077 393.8961">lar ro</tspan></text>
</g>
<clipPath id="cp11672">
<path transform="matrix(1,0,0,-1,0,841.92)" d="M .000008871 0 L 595.32 0 L 595.32 841.92 L .000008871 841.92 Z " fill-rule="evenodd"/>
</clipPath>
<g clip-path="url(#cp11672)">
<text xml:space="preserve" transform="matrix(1 0 -0 1 0 841.92)" font-size="14.04" font-family="Times New Roman"><tspan y="-386.09" x="400.99">&#x2019;</tspan></text>
</g>
<clipPath id="cp11673">
<path transform="matrix(1,0,0,-1,0,841.92)" d="M .000008871 0 L 595.32 0 L 595.32 841.92 L .000008871 841.92 Z " fill-rule="evenodd"/>
</clipPath>
<g clip-path="url(#cp11673)">
<text xml:space="preserve" transform="matrix(1 0 -0 1 0 841.92)" font-size="14.04" font-family="Times New Roman"><tspan y="-386.09" x="405.55 412.38746 419.44956 425.68333 429.62855 433.4755 440.5376 444.48283 459.4635 465.58494 472.64704 476.494 483.45783 489.6916 494.3669 498.21388 503.71754">yxatini chiqarish</tspan></text>
</g>
<clipPath id="cp11674">
<path transform="matrix(1,0,0,-1,0,841.92)" d="M .000008871 0 L 595.32 0 L 595.32 841.92 L .000008871 841.92 Z " fill-rule="evenodd"/>
</clipPath>
<g clip-path="url(#cp11674)">
<text xml:space="preserve" transform="matrix(1 0 -0 1 0 841.92)" font-size="14.04" font-family="Times New Roman"><tspan y="-386.09" x="510.94"> </tspan></text>
</g>
<clipPath id="cp11675">
<path transform="matrix(1,0,0,-1,0,841.92)" d="M .000008871 0 L 595.32 0 L 595.32 841.92 L .000008871 841.92 Z " fill-rule="evenodd"/>
</clipPath>
<g clip-path="url(#cp11675)">
<text xml:space="preserve" transform="matrix(1 0 -0 1 0 841.92)" font-size="14.04" font-family="Times New Roman"><tspan y="-386.09" x="525.82 532.88217 539.0036 546.06576 553.0296 559.99349">uchun </tspan></text>
</g>
<clipPath id="cp11676">
<path transform="matrix(1,0,0,-1,0,841.92)" d="M .000008871 0 L 595.32 0 L 595.32 841.92 L .000008871 841.92 Z " fill-rule="evenodd"/>
</clipPath>
<g clip-path="url(#cp11676)">
<text xml:space="preserve" transform="matrix(1 0 -0 1 0 841.92)" font-size="14.04" font-family="Times New Roman,Bold" font-weight="bold"><tspan y="-361.97" x="85.104 92.184">&#x00ab;O</tspan></text>
</g>
</g>
<g id="Layer-1" data-name="P">
<clipPath id="cp11677">
<path transform="matrix(1,0,0,-1,0,841.92)" d="M .000008871 0 L 595.32 0 L 595.32 841.92 L .000008871 841.92 Z " fill-rule="evenodd"/>
</clipPath>
<g clip-path="url(#cp11677)">
<text xml:space="preserve" transform="matrix(1 0 -0 1 0 841.92)" font-size="14.04" font-family="Times New Roman,Bold" font-weight="bold"><tspan y="-361.97" x="102.98 109.9298 119.49104 125.752887 133.7978 141.71636 148.66617">&#x0442;&#x043c;&#x0435;&#x043d;&#x0438;&#x0442;&#x044c;</tspan></text>
</g>
</g>
<g id="Layer-1" data-name="P">
<clipPath id="cp11678">
<path transform="matrix(1,0,0,-1,0,841.92)" d="M .000008871 0 L 595.32 0 L 595.32 841.92 L .000008871 841.92 Z " fill-rule="evenodd"/>
</clipPath>
<g clip-path="url(#cp11678)">
<text xml:space="preserve" transform="matrix(1 0 -0 1 0 841.92)" font-size="14.04" font-family="Times New Roman,Bold" font-weight="bold"><tspan y="-361.97" x="156.02">&#x00bb;</tspan></text>
</g>
</g>
<g id="Layer-1" data-name="P">
<clipPath id="cp11679">
<path transform="matrix(1,0,0,-1,0,841.92)" d="M .000008871 0 L 595.32 0 L 595.32 841.92 L .000008871 841.92 Z " fill-rule="evenodd"/>
</clipPath>
<g clip-path="url(#cp11679)">
<text xml:space="preserve" transform="matrix(1 0 -0 1 0 841.92)" font-size="14.04" font-family="Times New Roman"><tspan y="-361.97" x="163.1"> </tspan></text>
</g>
</g>
<g id="Layer-1" data-name="P">
<clipPath id="cp11680">
<path transform="matrix(1,0,0,-1,0,841.92)" d="M .000008871 0 L 595.32 0 L 595.32 841.92 L .000008871 841.92 Z " fill-rule="evenodd"/>
</clipPath>
<g clip-path="url(#cp11680)">
<text xml:space="preserve" transform="matrix(1 0 -0 1 0 841.92)" font-size="14.04" font-family="Times New Roman"><tspan y="-361.97" x="166.7 171.37532 180.74 186.86145 193.92357 200.8874 205.45041 209.03061 216.09273 219.93968 223.88492 227.73188 233.13727 240.19939 244.87471 248.46895 252.04915 255.8961 262.85997 269.92207 280.6065 286.84028 293.07405 300.15019 306.38395 311.78935 315.73457 319.31477 326.2786 330.22383 337.18766 341.13288 348.0967 354.33049 361.2943 365.23954 368.74955 375.76954 381.91908 388.98118 395.945 403.0071 407.68244 413.80387 420.86598 426.9874 434.0495 437.89646 441.84169 445.35169 452.37168 459.46186 464.02485 468.70018 474.20384 480.32527 484.1722 491.2343 495.17955 501.30097 508.36308 511.87309 518.89309 525.9131 531.27639 535.2216 539.1669 545.2883 552.2522 556.19747 559.55307">(Bekor qilish)  tugmachasi oldidagi uchburchakli ko&#x2019;rsatkich bosiladi. </tspan></text>
</g>
</g>
<g id="Layer-1" data-name="P">
<clipPath id="cp11681">
<path transform="matrix(1,0,0,-1,0,841.92)" d="M .000008871 0 L 595.32 0 L 595.32 841.92 L .000008871 841.92 Z " fill-rule="evenodd"/>
</clipPath>
<g clip-path="url(#cp11681)">
<text xml:space="preserve" transform="matrix(1 0 -0 1 0 841.92)" font-size="14.04" font-family="Times New Roman"><tspan y="-337.73" x="85.104 92.91024 96.855487 102.97692 110.03904 117.00288 123.96671 131.02883 137.26259 144.22643 150.46019 155.85155 162.91367 169.03511 176.09723 183.15935 187.83467 193.09967 200.16179 204.00875 207.95398 211.80094 218.86305 222.71 228.1154 235.17752 239.12276 244.51412 251.47795 257.7117 262.38703 268.52253 275.58464 280.97599 288.0381 295.1002 299.66319 303.51014 310.57225 316.69367 323.6575 329.04887 335.39497 346.0794 352.31318 356.2584 361.64976 368.71186 374.2155 378.06248 382.0077 388.97154 395.2053 400.59666 407.65876 411.60398 416.2793 421.67066 432.3551 438.58888 443.2642 447.22346 453.4572 458.84858 465.8124 472.8745 478.2799 482.22514 486.07209 492.30586 499.26969 503.2149 506.7249 512.07418 517.4655 527.64456 538.3289 544.5627 548.50796 555.57009 559.41708">Sichqoncha bekor qilinishi kerak bo&#x2019;lgan amal ustida bir marta bosiladi.  Amalni </tspan></text>
</g>
</g>
<g id="Layer-1" data-name="P">
<clipPath id="cp11682">
<path transform="matrix(1,0,0,-1,0,841.92)" d="M .000008871 0 L 595.32 0 L 595.32 841.92 L .000008871 841.92 Z " fill-rule="evenodd"/>
</clipPath>
<g clip-path="url(#cp11682)">
<text xml:space="preserve" transform="matrix(1 0 -0 1 0 841.92)" font-size="14.04" font-family="Times New Roman"><tspan y="-313.61" x="85.104 92.166118 98.28755 105.34967 112.41179 116.97479 121.28507 128.2489 132.19414 136.04109 139.88805 145.39173 152.45384 156.76412 160.61107 166.84484 171.40784 177.6416 184.49312 191.55524 198.61736 202.46431 209.52643 215.7602 220.07047 224.63347 231.69559 236.25859 243.09607 250.15819 256.39195 260.33717 267.39927 273.63304 277.831 284.8931 291.85694 298.91905 305.04048 312.10258 316.2865 323.25035 327.19557 334.1594 338.1046 345.06846 349.37876 353.2257 360.2878 364.8508 371.9129 378.03434 385.09645 389.40675 396.37059 402.60435 407.27967 413.41517 420.47727 426.71104 431.02134 437.14277 447.9395 454.17329 458.1185 462.06373 468.2975 472.9728 477.17079 484.23289 490.3543 497.4164 504.47853 509.0415 513.3518 520.3157 524.2609 528.1079 531.9549 539.017 545.1385 552.2006 556.1459 559.3891 562.8991">bekor qilish jarayonida ro&#x2019;yxatda undan oldin turgan barcha amallar bekor qilinadi.  </tspan></text>
</g>
</g>
<g id="Layer-1" data-name="P">
<clipPath id="cp11683">
<path transform="matrix(1,0,0,-1,0,841.92)" d="M .000008871 0 L 595.32 0 L 595.32 841.92 L .000008871 841.92 Z " fill-rule="evenodd"/>
</clipPath>
<g clip-path="url(#cp11683)">
<text xml:space="preserve" transform="matrix(1 0 -0 1 0 841.92)" font-size="14.04" font-family="Times New Roman"><tspan y="-289.49" x="85.104 95.184719 102.24683 106.19208 110.75508 117.8172 121.66416 132.09589 139.05973 145.29349 152.25733 159.31945 163.99477 174.30013 181.26396 185.2092 189.05615 193.00139">Oxirgi bekor qilin</tspan></text>
</g>
</g>
<g id="Layer-1" data-name="P">
<clipPath id="cp11684">
<path transform="matrix(1,0,0,-1,0,841.92)" d="M .000008871 0 L 595.32 0 L 595.32 841.92 L .000008871 841.92 Z " fill-rule="evenodd"/>
</clipPath>
<g clip-path="url(#cp11684)">
<text xml:space="preserve" transform="matrix(1 0 -0 1 0 841.92)" font-size="14.04" font-family="Times New Roman"><tspan y="-289.49" x="200.09 207.05384 213.2876 220.36377 230.79549 237.02925 247.7137 253.94747 257.8927 264.85655 268.80177 279.10713 286.16923 292.40299 299.2545 303.1997 309.43348 319.8652 326.82905 333.0628 336.90977 343.14353 347.81886 351.7781 357.1835 364.2456 374.55097 381.61308 387.7345 394.69834 401.76045 408.82255">gan amalni qayta bajarish uchun </tspan></text>
</g>
</g>
<g id="Layer-1" data-name="P">
<clipPath id="cp11685">
<path transform="matrix(1,0,0,-1,0,841.92)" d="M .000008871 0 L 595.32 0 L 595.32 841.92 L .000008871 841.92 Z " fill-rule="evenodd"/>
</clipPath>
<g clip-path="url(#cp11685)">
<text xml:space="preserve" transform="matrix(1 0 -0 1 0 841.92)" font-size="14.04" font-family="Times New Roman,Bold" font-weight="bold"><tspan y="-289.49" x="419.35">&#x00ab;</tspan></text>
</g>
</g>
<g id="Layer-1" data-name="P">
<clipPath id="cp11686">
<path transform="matrix(1,0,0,-1,0,841.92)" d="M .000008871 0 L 595.32 0 L 595.32 841.92 L .000008871 841.92 Z " fill-rule="evenodd"/>
</clipPath>
<g clip-path="url(#cp11686)">
<text xml:space="preserve" transform="matrix(1 0 -0 1 0 841.92)" font-size="14.04" font-family="Times New Roman,Bold" font-weight="bold"><tspan y="-289.49" x="426.43 435.6683 441.90208 449.58195 457.62687 464.68898 471.63877">&#x0412;&#x0435;&#x0440;&#x043d;&#x0443;&#x0442;&#x044c;</tspan></text>
</g>
</g>
<g id="Layer-1" data-name="P">
<clipPath id="cp11687">
<path transform="matrix(1,0,0,-1,0,841.92)" d="M .000008871 0 L 595.32 0 L 595.32 841.92 L .000008871 841.92 Z " fill-rule="evenodd"/>
</clipPath>
<g clip-path="url(#cp11687)">
<text xml:space="preserve" transform="matrix(1 0 -0 1 0 841.92)" font-size="14.04" font-family="Times New Roman,Bold" font-weight="bold"><tspan y="-289.49" x="479.02">&#x00bb;</tspan></text>
</g>
</g>
<g id="Layer-1" data-name="P">
<clipPath id="cp11688">
<path transform="matrix(1,0,0,-1,0,841.92)" d="M .000008871 0 L 595.32 0 L 595.32 841.92 L .000008871 841.92 Z " fill-rule="evenodd"/>
</clipPath>
<g clip-path="url(#cp11688)">
<text xml:space="preserve" transform="matrix(1 0 -0 1 0 841.92)" font-size="14.04" font-family="Times New Roman"><tspan y="-289.49" x="486.1"> </tspan></text>
</g>
</g>
<g id="Layer-1" data-name="P">
<clipPath id="cp11689">
<path transform="matrix(1,0,0,-1,0,841.92)" d="M .000008871 0 L 595.32 0 L 595.32 841.92 L .000008871 841.92 Z " fill-rule="evenodd"/>
</clipPath>
<g clip-path="url(#cp11689)">
<text xml:space="preserve" transform="matrix(1 0 -0 1 0 841.92)" font-size="14.04" font-family="Times New Roman"><tspan y="-289.49" x="496.42 501.09535 511.17607 517.4098 524.26138 528.2066 534.44039 539.11569 543.07498 548.48037 555.4442 560.0072">(Qaytarish) </tspan></text>
</g>
</g>
<g id="Layer-1" data-name="P">
<clipPath id="cp11690">
<path transform="matrix(1,0,0,-1,0,841.92)" d="M .000008871 0 L 595.32 0 L 595.32 841.92 L .000008871 841.92 Z " fill-rule="evenodd"/>
</clipPath>
<g clip-path="url(#cp11690)">
<text xml:space="preserve" transform="matrix(1 0 -0 1 0 841.92)" font-size="14.04" font-family="Times New Roman"><tspan y="-265.37" x="85.104 89.04924 96.01308 103.075199 113.759639 119.99339 126.22715 133.30332 139.53708 144.94248 148.88771 152.3977 159.33347 166.39559 171.80098 175.64794 179.59317 185.82694 192.79077 196.73601">tugmachasi bosiladi.</tspan></text>
</g>
</g>
<g id="Layer-1" data-name="P">
<clipPath id="cp11691">
<path transform="matrix(1,0,0,-1,0,841.92)" d="M .000008871 0 L 595.32 0 L 595.32 841.92 L .000008871 841.92 Z " fill-rule="evenodd"/>
</clipPath>
<g clip-path="url(#cp11691)">
<text xml:space="preserve" transform="matrix(1 0 -0 1 0 841.92)" font-size="14.04" font-family="Times New Roman"><tspan y="-265.37" x="200.21"> </tspan></text>
</g>
</g>
<g id="Layer-1" data-name="P">
<clipPath id="cp11692">
<path transform="matrix(1,0,0,-1,0,841.92)" d="M .000008871 0 L 595.32 0 L 595.32 841.92 L .000008871 841.92 Z " fill-rule="evenodd"/>
</clipPath>
<g clip-path="url(#cp11692)">
<text xml:space="preserve" transform="matrix(1 0 -0 1 0 841.92)" font-size="14.04" font-family="Times New Roman,Italic" font-style="italic"><tspan y="-241.13" x="120.5"> </tspan></text>
</g>
<clipPath id="cp11693">
<path transform="matrix(1,0,0,-1,0,841.92)" d="M .000008871 0 L 595.32 0 L 595.32 841.92 L .000008871 841.92 Z " fill-rule="evenodd"/>
</clipPath>
<g clip-path="url(#cp11693)">
<text xml:space="preserve" transform="matrix(1 0 -0 1 0 841.92)" font-size="14.04" font-family="Times New Roman,Italic" font-style="italic"><tspan y="-241.13" x="123.98 132.50228 139.56439 145.06807 155.14879 158.99575 166.05786 171.56154 179.22737 185.34882 192.41094 198.53238 202.47762 210.14345 220.22417 227.28629 231.13324 238.09708 245.76291 252.82503 259.88716 265.29255 271.5263 278.49015 285.45399 290.95765 294.8046 301.8667 305.81193 313.47779 323.5585 330.6206 335.1836 339.03056 346.09266 356.17338 363.83924 371.5051 381.58583 388.64793 394.15159 401.21369 405.06065 412.02449 419.08659 426.14869 433.81455 439.93598 446.99809 453.23185 457.17707 464.71656 471.77867 478.7425 484.24617 491.21 498.17384 505.23594 512.9018 519.9639 526.9278 530.7748 534.72006 541.6839 545.62918 552.4667 559.43057">Rasmlar yoki matn parchasini ma&#x2019;lum  masofaga yoki boshqa hujjatga </tspan></text>
</g>
<clipPath id="cp11694">
<path transform="matrix(1,0,0,-1,0,841.92)" d="M .000008871 0 L 595.32 0 L 595.32 841.92 L .000008871 841.92 Z " fill-rule="evenodd"/>
</clipPath>
<g clip-path="url(#cp11694)">
<text xml:space="preserve" transform="matrix(1 0 -0 1 0 841.92)" font-size="14.04" font-family="Times New Roman,Italic" font-style="italic"><tspan y="-216.98" x="85.104 91.33775 98.41391 103.08923 109.21067 116.27279 120.11975 125.525157 129.47039 134.87578 141.9379 145.44789 148.90172 155.86556 159.81079 166.77463 172.18003 179.24214 186.20598 193.2681 196.62366 203.5875 210.64962 216.15329 222.27474 229.33686 232.69242 239.75453 243.60149 247.54673 252.95212 260.01423">ko&#x2019;chirish, ulardan nusxa olish.</tspan></text>
</g>
<clipPath id="cp11695">
<path transform="matrix(1,0,0,-1,0,841.92)" d="M .000008871 0 L 595.32 0 L 595.32 841.92 L .000008871 841.92 Z " fill-rule="evenodd"/>
</clipPath>
<g clip-path="url(#cp11695)">
<text xml:space="preserve" transform="matrix(1 0 -0 1 0 841.92)" font-size="14.04" font-family="Times New Roman"><tspan y="-216.98" x="263.57"> </tspan></text>
</g>
</g>
<g id="Layer-1" data-name="P">
<clipPath id="cp11696">
<path transform="matrix(1,0,0,-1,0,841.92)" d="M .000008871 0 L 595.32 0 L 595.32 841.92 L .000008871 841.92 Z " fill-rule="evenodd"/>
</clipPath>
<g clip-path="url(#cp11696)">
<text xml:space="preserve" transform="matrix(1 0 -0 1 0 841.92)" font-size="14.04" font-family="Times New Roman"><tspan y="-192.86" x="120.5 129.86469 136.81449 143.8766 147.72356 154.78568 161.8478 165.79303 172.85515 178.9766 185.94043 193.00255 200.06467 204.0099 210.97374 218.03586 222.59886 228.83263 235.9088 239.75576 244.43108 248.37631 252.22327 259.1871 266.2492 272.37065 279.43275 283.37797 287.4496 294.28706 301.34916 308.313 312.2582 316.32984 323.29368 330.2575 335.76118 342.725 348.95878 353.0304 359.99424 363.93946 367.7864 374.8485 381.81236 388.87446 394.99589 401.95973 405.90495 409.97657 420.661 426.89479 430.84 437.9021 441.97373 449.03584 455.2696 459.83259 466.06636 473.03019 479.1516 484.65528 488.6005 492.67213 499.50959 506.5717 513.5355 517.4808 521.55239 526.22769 532.3491 537.8528 548.5372 555.5993 559.4463">Buning uchun ko&#x2019;chiriluvchi yoki nusxa olinuvchi matn parchasi yoki rasmni </tspan></text>
</g>
<clipPath id="cp11697">
<path transform="matrix(1,0,0,-1,0,841.92)" d="M .000008871 0 L 595.32 0 L 595.32 841.92 L .000008871 841.92 Z " fill-rule="evenodd"/>
</clipPath>
<g clip-path="url(#cp11697)">
<text xml:space="preserve" transform="matrix(1 0 -0 1 0 841.92)" font-size="14.04" font-family="Times New Roman"><tspan y="-168.74" x="85.104 92.166118 98.39987 102.24683 109.21067">belgi</tspan></text>
</g>
<clipPath id="cp11698">
<path transform="matrix(1,0,0,-1,0,841.92)" d="M .000008871 0 L 595.32 0 L 595.32 841.92 L .000008871 841.92 Z " fill-rule="evenodd"/>
</clipPath>
<g clip-path="url(#cp11698)">
<text xml:space="preserve" transform="matrix(1 0 -0 1 0 841.92)" font-size="14.04" font-family="Times New Roman"><tspan y="-168.74" x="113.18 117.02696 123.26072 130.33689 134.64716 141.70928 145.55623 149.50147 154.90686 161.96898 166.39157 173.45369 179.57514 184.25046 190.3719 197.43402 200.94402 205.33853 214.70322 220.93698 224.78394 231.84606 235.69301 239.63825 245.75969 252.82181 259.78565 266.0194 273.09556 277.40586 284.46797 290.70173 295.37705 301.51255 308.57466 314.69609 321.75819 325.60514 330.02775 337.08985 344.15196 348.71495 354.9487 361.91255 365.85777 370.53309 374.38005 379.78544 386.84754 391.27015 398.33226 404.45368 411.51579 418.4796 425.54173 429.96434">lab olish kerak. Belgilangan parchani ko&#x2019;chirish uchun  </tspan></text>
</g>
<clipPath id="cp11699">
<path transform="matrix(1,0,0,-1,0,841.92)" d="M .000008871 0 L 595.32 0 L 595.32 841.92 L .000008871 841.92 Z " fill-rule="evenodd"/>
</clipPath>
<g clip-path="url(#cp11699)">
<text xml:space="preserve" transform="matrix(1 0 -0 1 0 841.92)" font-size="14.04" font-family="Times New Roman,Bold" font-weight="bold"><tspan y="-168.74" x="434.83">&#x00ab;</tspan></text>
</g>
</g>
<g id="Layer-1" data-name="P">
<clipPath id="cp11700">
<path transform="matrix(1,0,0,-1,0,841.92)" d="M .000008871 0 L 595.32 0 L 595.32 841.92 L .000008871 841.92 Z " fill-rule="evenodd"/>
</clipPath>
<g clip-path="url(#cp11700)">
<text xml:space="preserve" transform="matrix(1 0 -0 1 0 841.92)" font-size="14.04" font-family="Times New Roman,Bold" font-weight="bold"><tspan y="-168.74" x="441.82 451.1847 462.09379 469.90003 476.1338 481.77787 488.72767 495.67747">&#x0412;&#x044b;&#x0440;&#x0435;&#x0437;&#x0430;&#x0442;&#x044c;</tspan></text>
</g>
</g>
<g id="Layer-1" data-name="P">
<clipPath id="cp11701">
<path transform="matrix(1,0,0,-1,0,841.92)" d="M .000008871 0 L 595.32 0 L 595.32 841.92 L .000008871 841.92 Z " fill-rule="evenodd"/>
</clipPath>
<g clip-path="url(#cp11701)">
<text xml:space="preserve" transform="matrix(1 0 -0 1 0 841.92)" font-size="14.04" font-family="Times New Roman,Bold" font-weight="bold"><tspan y="-168.74" x="503.02 510.0821 514.5047">&#x00bb;  </tspan></text>
</g>
</g>
<g id="Layer-1" data-name="P">
<clipPath id="cp11702">
<path transform="matrix(1,0,0,-1,0,841.92)" d="M .000008871 0 L 595.32 0 L 595.32 841.92 L .000008871 841.92 Z " fill-rule="evenodd"/>
</clipPath>
<g clip-path="url(#cp11702)">
<text xml:space="preserve" transform="matrix(1 0 -0 1 0 841.92)" font-size="14.04" font-family="Times New Roman"><tspan y="-168.74" x="518.98 523.6553 533.736 537.6813 542.35659 549.32046 553.0411 560.00497">(Qirqib </tspan></text>
</g>
</g>
<g id="Layer-1" data-name="P">
<clipPath id="cp11703">
<path transform="matrix(1,0,0,-1,0,841.92)" d="M .000008871 0 L 595.32 0 L 595.32 841.92 L .000008871 841.92 Z " fill-rule="evenodd"/>
</clipPath>
<g clip-path="url(#cp11703)">
<text xml:space="preserve" transform="matrix(1 0 -0 1 0 841.92)" font-size="14.04" font-family="Times New Roman"><tspan y="-144.5" x="85.104 92.166118 96.01308 99.95832 105.36372 112.42584 117.101169 126.69049 130.63573 137.59957 144.66168 155.34613 161.5799 167.81366 174.88983 181.1236 186.52899 190.47423 197.43807 201.28502 210.98665 218.04877 225.0126 230.51628 234.36324 239.76863 246.83075 256.53239 260.37934 267.44145 273.6752 277.62043 288.30488 291.81489 301.48847 310.85316 317.0869 321.03215 328.09425 331.9412 335.8864 342.00785 349.06996 356.03379 362.26756 369.3437 378.933 385.99513 392.22889 396.9042 403.0397 410.1018 416.22325 423.28535 429.40678 436.3706 446.07228 453.13438 460.0982 465.60188 472.5657 478.79948 488.51518 495.479 499.42424 503.27119 508.67658 515.7387 525.44039 532.5025 538.62399 545.5878 552.5517 559.51559 563.0256 566.47946">olish) tugmachasini bosish lozim. Belgilangan parchadan nusxa olish uchun   </tspan></text>
</g>
</g>
<g id="Layer-1" data-name="P">
<clipPath id="cp11704">
<path transform="matrix(1,0,0,-1,0,841.92)" d="M .000008871 0 L 595.32 0 L 595.32 841.92 L .000008871 841.92 Z " fill-rule="evenodd"/>
</clipPath>
<g clip-path="url(#cp11704)">
<text xml:space="preserve" transform="matrix(1 0 -0 1 0 841.92)" font-size="14.04" font-family="Times New Roman,Bold" font-weight="bold"><tspan y="-120.38" x="85.104 92.184">&#x00ab;K</tspan></text>
</g>
</g>
<g id="Layer-1" data-name="P">
<clipPath id="cp11705">
<path transform="matrix(1,0,0,-1,0,841.92)" d="M .000008871 0 L 595.32 0 L 595.32 841.92 L .000008871 841.92 Z " fill-rule="evenodd"/>
</clipPath>
<g clip-path="url(#cp11705)">
<text xml:space="preserve" transform="matrix(1 0 -0 1 0 841.92)" font-size="14.04" font-family="Times New Roman,Bold" font-weight="bold"><tspan y="-120.38" x="102.98 110.04212 118.08704 126.131969 133.9382 141.00032 148.44153 155.50365 162.34113">&#x043e;&#x043f;&#x0438;&#x0440;&#x043e;&#x0432;&#x0430;&#x0442;&#x044c;</tspan></text>
</g>
</g>
<g id="Layer-1" data-name="P">
<clipPath id="cp11706">
<path transform="matrix(1,0,0,-1,0,841.92)" d="M .000008871 0 L 595.32 0 L 595.32 841.92 L .000008871 841.92 Z " fill-rule="evenodd"/>
</clipPath>
<g clip-path="url(#cp11706)">
<text xml:space="preserve" transform="matrix(1 0 -0 1 0 841.92)" font-size="14.04" font-family="Times New Roman,Bold" font-weight="bold"><tspan y="-120.38" x="169.82 176.90001">&#x00bb; </tspan></text>
</g>
</g>
<g id="Layer-1" data-name="P">
<clipPath id="cp11707">
<path transform="matrix(1,0,0,-1,0,841.92)" d="M .000008871 0 L 595.32 0 L 595.32 841.92 L .000008871 841.92 Z " fill-rule="evenodd"/>
</clipPath>
<g clip-path="url(#cp11707)">
<text xml:space="preserve" transform="matrix(1 0 -0 1 0 841.92)" font-size="14.04" font-family="Times New Roman"><tspan y="-120.38" x="180.38 185.05533 195.02373 202.08585 207.49124 214.55336 220.78713 224.29712 231.23288 235.07984 239.02507 244.43047 251.49259 256.1679 259.67793 263.4968 270.46064 277.52275 288.20719 294.44096 300.6747 307.75086 313.98463 319.50233 323.34928 330.41139 334.3566 337.71217 344.77427 351.7381 357.1435 361.0887 366.4941 373.5562 377.06623 380.87107 387.93318 394.0546 397.99983 408.68428">(Nusxa olish) tugmachasini bosish lozim.</tspan></text>
</g>
</g>
<g id="Layer-1" data-name="P">
<clipPath id="cp11708">
<path transform="matrix(1,0,0,-1,0,841.92)" d="M .000008871 0 L 595.32 0 L 595.32 841.92 L .000008871 841.92 Z " fill-rule="evenodd"/>
</clipPath>
<g clip-path="url(#cp11708)">
<text xml:space="preserve" transform="matrix(1 0 -0 1 0 841.92)" font-size="14.04" font-family="Times New Roman"><tspan y="-120.38" x="412.51"> </tspan></text>
</g>
</g>
</g>
</g>
</svg>
