<?xml version="1.0" encoding="UTF-8" standalone="no"?>
<!DOCTYPE svg PUBLIC "-//W3C//DTD SVG 1.1//EN" "http://www.w3.org/Graphics/SVG/1.1/DTD/svg11.dtd">
<svg xmlns="http://www.w3.org/2000/svg" xmlns:xlink="http://www.w3.org/1999/xlink" version="1.1" width="595.32pt" height="841.92pt" viewBox="0 0 595.32 841.92">
<g enable-background="new">
<g>
<g id="Layer-1" data-name="Artifact">
<clipPath id="cp796">
<path transform="matrix(1,0,0,-1,0,841.92)" d="M .000008871 0 L 595.32 0 L 595.32 841.92 L .000008871 841.92 Z " fill-rule="evenodd"/>
</clipPath>
<g clip-path="url(#cp796)">
<text xml:space="preserve" transform="matrix(1 0 -0 1 0 841.92)" font-size="11.04" font-family="Calibri"><tspan y="-51.864" x="316.15">9</tspan></text>
</g>
<clipPath id="cp797">
<path transform="matrix(1,0,0,-1,0,841.92)" d="M .000008871 0 L 595.32 0 L 595.32 841.92 L .000008871 841.92 Z " fill-rule="evenodd"/>
</clipPath>
<g clip-path="url(#cp797)">
<text xml:space="preserve" transform="matrix(1 0 -0 1 0 841.92)" font-size="11.04" font-family="Calibri"><tspan y="-51.864" x="321.79"> </tspan></text>
</g>
<clipPath id="cp798">
<path transform="matrix(1,0,0,-1,0,841.92)" d="M .000008871 0 L 595.32 0 L 595.32 841.92 L .000008871 841.92 Z " fill-rule="evenodd"/>
</clipPath>
<g clip-path="url(#cp798)">
</g>
<clipPath id="cp799">
<path transform="matrix(1,0,0,-1,0,841.92)" d="M .000008871 0 L 595.32 0 L 595.32 841.92 L .000008871 841.92 Z " fill-rule="evenodd"/>
</clipPath>
<g clip-path="url(#cp799)">
<text xml:space="preserve" transform="matrix(1 0 -0 1 0 841.92)" font-size="11.04" font-family="Calibri"><tspan y="-38.4" x="85.104"> </tspan></text>
</g>
<clipPath id="cp800">
<path transform="matrix(1,0,0,-1,0,841.92)" d="M .000008871 0 L 595.32 0 L 595.32 841.92 L .000008871 841.92 Z " fill-rule="evenodd"/>
</clipPath>
<g clip-path="url(#cp800)">
</g>
</g>
<g id="Layer-1" data-name="P">
<clipPath id="cp801">
<path transform="matrix(1,0,0,-1,0,841.92)" d="M .000008871 0 L 595.32 0 L 595.32 841.92 L .000008871 841.92 Z " fill-rule="evenodd"/>
</clipPath>
<g clip-path="url(#cp801)">
<text xml:space="preserve" transform="matrix(1 0 -0 1 0 841.92)" font-size="14.04" font-family="Times New Roman"><tspan y="-772.56" x="85.104 89.04924 96.01308 101.41848 108.4806 115.444438 122.50655 126.353519 130.20047 137.26259 143.38404 150.44615 153.95615 158.11199 168.1927 173.69638 180.7585 187.72234 194.78446 198.96837 202.81533 209.04909 213.72441 219.95818 226.8097 233.87181 240.93393 245.11785 252.17996 256.02693 261.53059 268.49443 272.43965 276.62358 280.47053 287.53263 298.21708 305.27919 312.34129 316.2865 323.25035 329.4841 336.56025 340.74418 344.6894 350.81083 357.87294 361.81816 367.93959 374.9034 381.9655 388.08695 395.14906 399.33299 404.83665 408.78187 413.34486 419.5786 423.52384 429.64527 436.6091 440.45606 447.29353">tushunilg&#x0430;n. Ushbu j&#x0430;r&#x0430;yon kishi t&#x043e;m&#x043e;nid&#x0430;n t&#x0430;nl&#x0430;ng&#x0430;n str&#x0430;t&#x0435;giya</tspan></text>
</g>
<clipPath id="cp802">
<path transform="matrix(1,0,0,-1,0,841.92)" d="M .000008871 0 L 595.32 0 L 595.32 841.92 L .000008871 841.92 Z " fill-rule="evenodd"/>
</clipPath>
<g clip-path="url(#cp802)">
<text xml:space="preserve" transform="matrix(1 0 -0 1 0 841.92)" font-size="14.04" font-family="Times New Roman"><tspan y="-772.56" x="454.18"> </tspan></text>
</g>
<clipPath id="cp803">
<path transform="matrix(1,0,0,-1,0,841.92)" d="M .000008871 0 L 595.32 0 L 595.32 841.92 L .000008871 841.92 Z " fill-rule="evenodd"/>
</clipPath>
<g clip-path="url(#cp803)">
<text xml:space="preserve" transform="matrix(1 0 -0 1 0 841.92)" font-size="14.04" font-family="Times New Roman"><tspan y="-772.56" x="458.38 465.4421 469.38734 473.33256 479.45399 486.51609 490.7 497.76213 503.88356 507.82878 514.7926 518.6396 522.58486 528.8186 535.7825 542.01626 548.9801 552.8271">bil&#x0430;n b&#x0435;lgil&#x0430;n&#x0430;di </tspan></text>
</g>
<clipPath id="cp804">
<path transform="matrix(1,0,0,-1,0,841.92)" d="M .000008871 0 L 595.32 0 L 595.32 841.92 L .000008871 841.92 Z " fill-rule="evenodd"/>
</clipPath>
<g clip-path="url(#cp804)">
</g>
<clipPath id="cp805">
<path transform="matrix(1,0,0,-1,0,841.92)" d="M .000008871 0 L 595.32 0 L 595.32 841.92 L .000008871 841.92 Z " fill-rule="evenodd"/>
</clipPath>
<g clip-path="url(#cp805)">
<text xml:space="preserve" transform="matrix(1 0 -0 1 0 841.92)" font-size="14.04" font-family="Times New Roman"><tspan y="-748.3" x="85.104 92.166118 98.39987 101.909877 105.72875 112.79087 117.353878 121.29912 125.24436 128.59993 135.66205 139.509 143.35596 150.41808 156.65184 163.61568 167.56092 170.91648 177.97859 184.94243 190.4461 194.29306 198.2383 204.35974 208.30498 214.53874 219.21407 222.72406 226.19194 233.15578 238.56118 245.62329 249.47025 253.41548 259.64924 264.32456 267.83457 274.658 281.7201 286.39543 293.47157 299.70533 310.38978 314.335 321.29884 327.5326 331.0426 337.27638 347.93275 354.1665 358.11174 365.17384 371.4076 374.9176 381.9376 387.39915 394.3349 398.28013 402.95545 406.8024 410.74763 416.86906 423.93116 427.87638">v&#x0430; turli &#x0445;ild&#x0430;gi v&#x043e;sit&#x0430;l&#x0430;r, usull&#x0430;r yord&#x0430;mid&#x0430; &#x0430;m&#x0430;lg&#x0430; &#x043e;shiril&#x0430;di.</tspan></text>
</g>
<clipPath id="cp806">
<path transform="matrix(1,0,0,-1,0,841.92)" d="M .000008871 0 L 595.32 0 L 595.32 841.92 L .000008871 841.92 Z " fill-rule="evenodd"/>
</clipPath>
<g clip-path="url(#cp806)">
<text xml:space="preserve" transform="matrix(1 0 -0 1 0 841.92)" font-size="14.04" font-family="Times New Roman"><tspan y="-748.3" x="431.59"> </tspan></text>
</g>
<clipPath id="cp807">
<path transform="matrix(1,0,0,-1,0,841.92)" d="M .000008871 0 L 595.32 0 L 595.32 841.92 L .000008871 841.92 Z " fill-rule="evenodd"/>
</clipPath>
<g clip-path="url(#cp807)">
</g>
</g>
<g id="Layer-1" data-name="P">
<clipPath id="cp808">
<path transform="matrix(1,0,0,-1,0,841.92)" d="M .000008871 0 L 595.32 0 L 595.32 841.92 L .000008871 841.92 Z " fill-rule="evenodd"/>
</clipPath>
<g clip-path="url(#cp808)">
<text xml:space="preserve" transform="matrix(1 0 -0 1 0 841.92)" font-size="14.04" font-family="Times New Roman"><tspan y="-724.18" x="120.5 130.58072 137.64284 144.60668 151.6688 156.2318 163.29392 167.23915 174.77863 178.72386 184.8453 191.90743 198.87126 205.8351 209.78034 216.74417 223.70801 227.65325 234.49073 240.8368 244.78205 251.01581 255.57881 259.52406 267.1899 271.03688">&#x0410;&#x0445;b&#x043e;r&#x043e;t t&#x0435;&#x0445;n&#x043e;l&#x043e;giyal&#x0430;ri to</tspan></text>
</g>
<clipPath id="cp809">
<path transform="matrix(1,0,0,-1,0,841.92)" d="M .000008871 0 L 595.32 0 L 595.32 841.92 L .000008871 841.92 Z " fill-rule="evenodd"/>
</clipPath>
<g clip-path="url(#cp809)">
<text xml:space="preserve" transform="matrix(1 0 -0 1 0 841.92)" font-size="14.04" font-family="Times New Roman"><tspan y="-724.18" x="278.33">&#x2019;</tspan></text>
</g>
<clipPath id="cp810">
<path transform="matrix(1,0,0,-1,0,841.92)" d="M .000008871 0 L 595.32 0 L 595.32 841.92 L .000008871 841.92 Z " fill-rule="evenodd"/>
</clipPath>
<g clip-path="url(#cp810)">
<text xml:space="preserve" transform="matrix(1 0 -0 1 0 841.92)" font-size="14.04" font-family="Times New Roman"><tspan y="-724.18" x="282.89">g</tspan></text>
</g>
<clipPath id="cp811">
<path transform="matrix(1,0,0,-1,0,841.92)" d="M .000008871 0 L 595.32 0 L 595.32 841.92 L .000008871 841.92 Z " fill-rule="evenodd"/>
</clipPath>
<g clip-path="url(#cp811)">
<text xml:space="preserve" transform="matrix(1 0 -0 1 0 841.92)" font-size="14.04" font-family="Times New Roman"><tspan y="-724.18" x="289.97">&#x2019;</tspan></text>
</g>
<clipPath id="cp812">
<path transform="matrix(1,0,0,-1,0,841.92)" d="M .000008871 0 L 595.32 0 L 595.32 841.92 L .000008871 841.92 Z " fill-rule="evenodd"/>
</clipPath>
<g clip-path="url(#cp812)">
<text xml:space="preserve" transform="matrix(1 0 -0 1 0 841.92)" font-size="14.04" font-family="Times New Roman"><tspan y="-724.18" x="294.53 299.20533 303.15055 308.55595 312.50117 319.465 325.69877 333.36463 340.32847 346.56224 353.63838 361.17787 368.23997 374.47373 378.32069 385.38279 391.5042 398.46806 405.53016 411.76393 415.27394 422.91169 433.59614 439.8299 443.77513 450.00889 454.6842 458.64347 464.7649 468.7101 476.37599 481.78138 485.7266 490.40193 496.52336 500.46858 504.31553 511.37763 517.6114 525.1649 532.22708 538.4608 549.1452 552.6552">risid&#x0430; g&#x0430;p k&#x0435;tg&#x0430;nd&#x0430;, m&#x0430;t&#x0435;ri&#x0430;l sif&#x0430;tid&#x0430; h&#x0430;m, </tspan></text>
</g>
<clipPath id="cp813">
<path transform="matrix(1,0,0,-1,0,841.92)" d="M .000008871 0 L 595.32 0 L 595.32 841.92 L .000008871 841.92 Z " fill-rule="evenodd"/>
</clipPath>
<g clip-path="url(#cp813)">
</g>
<clipPath id="cp814">
<path transform="matrix(1,0,0,-1,0,841.92)" d="M .000008871 0 L 595.32 0 L 595.32 841.92 L .000008871 841.92 Z " fill-rule="evenodd"/>
</clipPath>
<g clip-path="url(#cp814)">
<text xml:space="preserve" transform="matrix(1 0 -0 1 0 841.92)" font-size="14.04" font-family="Times New Roman"><tspan y="-700.06" x="85.104 95.90076 102.134517 109.21067 114.714359 121.67819 125.525157 132.58727 136.5325 140.23906 145.74274 149.68798 154.25098 160.48474 164.3317 168.27693 175.24077 181.47454 185.30745 192.36957 198.49102 209.28778 213.1207 216.95362 223.18738 230.26355 237.32567 244.38779 248.95079 255.91463 259.85987 263.69279 267.53974 273.0434 280.00724 283.95246 287.7994 292.47474 299.43858 306.50068 310.3336 316.45503 320.30198 326.53575 333.61189 337.5571 341.0671 344.8579 354.09623 358.04145 362.60444 369.66654 376.72865 380.4352 387.39906 394.46116 398.29408 405.2579 412.32 416.883 423.11677 430.1929 434.13813 437.64814 441.32664 445.17359 451.40736 456.08268 462.31645 469.16795 476.23005 483.29216 487.12507 493.96253 501.02464 508.08674 512.032 515.8649 522.8288 529.8909 536.8548 540.7018 546.20547 552.3269">m&#x0430;hsul&#x043e;t sif&#x0430;tid&#x0430; h&#x0430;m  &#x0430;&#x0445;b&#x043e;r&#x043e;t ishtir&#x043e;k et&#x0430;di. Bir&#x043e;q bu &#x043e;b&#x2019;&#x0435;kt, j&#x0430;r&#x0430;yon yoki &#x0445;&#x043e;dis&#x0430; </tspan></text>
</g>
<clipPath id="cp815">
<path transform="matrix(1,0,0,-1,0,841.92)" d="M .000008871 0 L 595.32 0 L 595.32 841.92 L .000008871 841.92 Z " fill-rule="evenodd"/>
</clipPath>
<g clip-path="url(#cp815)">
</g>
<clipPath id="cp816">
<path transform="matrix(1,0,0,-1,0,841.92)" d="M .000008871 0 L 595.32 0 L 595.32 841.92 L .000008871 841.92 Z " fill-rule="evenodd"/>
</clipPath>
<g clip-path="url(#cp816)">
<text xml:space="preserve" transform="matrix(1 0 -0 1 0 841.92)" font-size="14.04" font-family="Times New Roman"><tspan y="-675.94" x="85.104 89.06402">to</tspan></text>
</g>
<clipPath id="cp817">
<path transform="matrix(1,0,0,-1,0,841.92)" d="M .000008871 0 L 595.32 0 L 595.32 841.92 L .000008871 841.92 Z " fill-rule="evenodd"/>
</clipPath>
<g clip-path="url(#cp817)">
<text xml:space="preserve" transform="matrix(1 0 -0 1 0 841.92)" font-size="14.04" font-family="Times New Roman"><tspan y="-675.94" x="96.144">&#x2019;</tspan></text>
</g>
<clipPath id="cp818">
<path transform="matrix(1,0,0,-1,0,841.92)" d="M .000008871 0 L 595.32 0 L 595.32 841.92 L .000008871 841.92 Z " fill-rule="evenodd"/>
</clipPath>
<g clip-path="url(#cp818)">
<text xml:space="preserve" transform="matrix(1 0 -0 1 0 841.92)" font-size="14.04" font-family="Times New Roman"><tspan y="-675.94" x="100.7">g</tspan></text>
</g>
<clipPath id="cp819">
<path transform="matrix(1,0,0,-1,0,841.92)" d="M .000008871 0 L 595.32 0 L 595.32 841.92 L .000008871 841.92 Z " fill-rule="evenodd"/>
</clipPath>
<g clip-path="url(#cp819)">
<text xml:space="preserve" transform="matrix(1 0 -0 1 0 841.92)" font-size="14.04" font-family="Times New Roman"><tspan y="-675.94" x="107.78">&#x2019;</tspan></text>
</g>
<clipPath id="cp820">
<path transform="matrix(1,0,0,-1,0,841.92)" d="M .000008871 0 L 595.32 0 L 595.32 841.92 L .000008871 841.92 Z " fill-rule="evenodd"/>
</clipPath>
<g clip-path="url(#cp820)">
<text xml:space="preserve" transform="matrix(1 0 -0 1 0 841.92)" font-size="14.04" font-family="Times New Roman"><tspan y="-675.94" x="112.34 117.01532 120.86228 126.36597 130.21292 137.27504 143.39649 150.4586 154.40384 163.62812">risid&#x0430;gi s</tspan></text>
</g>
<clipPath id="cp821">
<path transform="matrix(1,0,0,-1,0,841.92)" d="M .000008871 0 L 595.32 0 L 595.32 841.92 L .000008871 841.92 Z " fill-rule="evenodd"/>
</clipPath>
<g clip-path="url(#cp821)">
<text xml:space="preserve" transform="matrix(1 0 -0 1 0 841.92)" font-size="14.04" font-family="Times New Roman"><tspan y="-675.94" x="169.1 173.04524 177.72057 183.84201 187.78725 197.13788 200.98484 204.83179 211.8939 218.12767 221.97463 225.82158 232.8837 239.00514 246.06726 255.4179 262.25538 268.48915 275.56529 282.5291 286.47434 295.82499 306.50944 312.85554 317.41853 321.36375 328.42585 339.1103 346.1724 350.1176 359.46827 366.4321">if&#x0430;t jih&#x0430;tid&#x0430;n yangi m&#x0430;&#x2019;lum&#x043e;t bo</tspan></text>
</g>
<clipPath id="cp822">
<path transform="matrix(1,0,0,-1,0,841.92)" d="M .000008871 0 L 595.32 0 L 595.32 841.92 L .000008871 841.92 Z " fill-rule="evenodd"/>
</clipPath>
<g clip-path="url(#cp822)">
<text xml:space="preserve" transform="matrix(1 0 -0 1 0 841.92)" font-size="14.04" font-family="Times New Roman"><tspan y="-675.94" x="373.75">&#x2019;</tspan></text>
</g>
<clipPath id="cp823">
<path transform="matrix(1,0,0,-1,0,841.92)" d="M .000008871 0 L 595.32 0 L 595.32 841.92 L .000008871 841.92 Z " fill-rule="evenodd"/>
</clipPath>
<g clip-path="url(#cp823)">
<text xml:space="preserve" transform="matrix(1 0 -0 1 0 841.92)" font-size="14.04" font-family="Times New Roman"><tspan y="-675.94" x="378.31 382.25523 388.48899 395.45283 399.39805 402.90806 412.23063 420.7529 426.87434 433.93644 440.90028 447.96238 451.80934 458.77317 465.83528 469.7805 476.61796 482.8517 492.20237 499.1662 506.2283 513.19216 517.1374 527.8218 534.8839 538.82919 545.793 552.7569">l&#x0430;di. T&#x0435;&#x0445;n&#x043e;l&#x043e;giya &#x0445;&#x043e;dimning </tspan></text>
</g>
<clipPath id="cp824">
<path transform="matrix(1,0,0,-1,0,841.92)" d="M .000008871 0 L 595.32 0 L 595.32 841.92 L .000008871 841.92 Z " fill-rule="evenodd"/>
</clipPath>
<g clip-path="url(#cp824)">
</g>
<clipPath id="cp825">
<path transform="matrix(1,0,0,-1,0,841.92)" d="M .000008871 0 L 595.32 0 L 595.32 841.92 L .000008871 841.92 Z " fill-rule="evenodd"/>
</clipPath>
<g clip-path="url(#cp825)">
<text xml:space="preserve" transform="matrix(1 0 -0 1 0 841.92)" font-size="14.04" font-family="Times New Roman"><tspan y="-651.7" x="85.104 91.33775 98.30159 105.36371 112.42583 116.98883 123.95267 127.89791 135.69011 142.65395 146.59918 150.54442 156.66587 163.72798 171.39382 175.33905 180.74445 187.80657 191.65352 197.88729 203.29268 210.3548 218.14699 225.11083 230.6145 237.57834 241.4253 245.37053 253.16272 260.22483 266.4586 274.12446 281.18656 286.59196 290.4389 297.501 304.46485 308.41007 316.20228 323.1661 329.5122 340.19667 347.25877 353.49253 361.28474 365.22996 371.35139 378.41349 385.37733 389.22428 396.28639 404.07859 411.04243 418.10453 423.50993 427.35688 431.3021 437.53587 441.3828 447.61659 452.2919 460.0841 467.1462 471.7092 478.7713 485.00508 488.85203 492.79725 500.4631 507.5252 513.759 524.44338 531.63186 538.46939 545.4332 552.3971">&#x0430;&#x0445;b&#x043e;r&#x043e;t bil&#x0430;n ishl&#x0430;sh usuli v&#x0430; uslubi h&#x0430;md&#x0430; t&#x0435;&#x0445;nik v&#x043e;sit&#x0430;l&#x0430;r &#x043e;rq&#x0430;li n&#x0430;m&#x043e;yon </tspan></text>
</g>
<clipPath id="cp826">
<path transform="matrix(1,0,0,-1,0,841.92)" d="M .000008871 0 L 595.32 0 L 595.32 841.92 L .000008871 841.92 Z " fill-rule="evenodd"/>
</clipPath>
<g clip-path="url(#cp826)">
</g>
<clipPath id="cp827">
<path transform="matrix(1,0,0,-1,0,841.92)" d="M .000008871 0 L 595.32 0 L 595.32 841.92 L .000008871 841.92 Z " fill-rule="evenodd"/>
</clipPath>
<g clip-path="url(#cp827)">
<text xml:space="preserve" transform="matrix(1 0 -0 1 0 841.92)" font-size="14.04" font-family="Times New Roman"><tspan y="-627.58" x="85.104 92.184">bo</tspan></text>
</g>
<clipPath id="cp828">
<path transform="matrix(1,0,0,-1,0,841.92)" d="M .000008871 0 L 595.32 0 L 595.32 841.92 L .000008871 841.92 Z " fill-rule="evenodd"/>
</clipPath>
<g clip-path="url(#cp828)">
<text xml:space="preserve" transform="matrix(1 0 -0 1 0 841.92)" font-size="14.04" font-family="Times New Roman"><tspan y="-627.58" x="99.264">&#x2019;</tspan></text>
</g>
<clipPath id="cp829">
<path transform="matrix(1,0,0,-1,0,841.92)" d="M .000008871 0 L 595.32 0 L 595.32 841.92 L .000008871 841.92 Z " fill-rule="evenodd"/>
</clipPath>
<g clip-path="url(#cp829)">
<text xml:space="preserve" transform="matrix(1 0 -0 1 0 841.92)" font-size="14.04" font-family="Times New Roman"><tspan y="-627.58" x="103.82 107.76524 113.88668 120.85052 124.79576">l&#x0430;di.</tspan></text>
</g>
<clipPath id="cp830">
<path transform="matrix(1,0,0,-1,0,841.92)" d="M .000008871 0 L 595.32 0 L 595.32 841.92 L .000008871 841.92 Z " fill-rule="evenodd"/>
</clipPath>
<g clip-path="url(#cp830)">
<text xml:space="preserve" transform="matrix(1 0 -0 1 0 841.92)" font-size="14.04" font-family="Times New Roman"><tspan y="-627.58" x="128.3"> </tspan></text>
</g>
<clipPath id="cp831">
<path transform="matrix(1,0,0,-1,0,841.92)" d="M .000008871 0 L 595.32 0 L 595.32 841.92 L .000008871 841.92 Z " fill-rule="evenodd"/>
</clipPath>
<g clip-path="url(#cp831)">
</g>
</g>
<g id="Layer-1" data-name="P">
<clipPath id="cp832">
<path transform="matrix(1,0,0,-1,0,841.92)" d="M .000008871 0 L 595.32 0 L 595.32 841.92 L .000008871 841.92 Z " fill-rule="evenodd"/>
</clipPath>
<g clip-path="url(#cp832)">
<text xml:space="preserve" transform="matrix(1 0 -0 1 0 841.92)" font-size="14.04" font-family="Times New Roman"><tspan y="-603.46" x="120.5 130.58072 137.64284 144.60668 151.6688 156.2318 163.29392 167.23915 172.1391 177.5445 184.60662 191.57045 198.53429 202.47953 209.44336 216.4072 223.46932 229.70308 236.77925 240.13481 245.16114 249.83646 256.07023 261.47563 268.53773 273.1007 278.60438 283.50434 290.56645 296.8002 307.48466 312.511 317.53733 324.59944 328.44639 333.95005 340.91389 347.97599 351.82295 357.94438 365.00648 371.1279 378.19 382.13523 385.64524 390.6435 400.59785 407.65995 411.5069 416.53324 423.59535 429.8291 436.6806 440.62583 446.8596 451.7736 455.7188 461.1242 468.08805 472.03327 478.1547 483.65837 490.6222 495.64854 499.49549 505.72926 510.40458 516.6383 523.48989 530.552 537.61416 541.4611 548.425 552.37026">&#x0410;&#x0445;b&#x043e;r&#x043e;t shuningd&#x0435;k, r&#x0435;surs h&#x0430;m  his&#x043e;bl&#x0430;n&#x0430;di. Uni q&#x0430;yt&#x0430; ishl&#x0430;sh j&#x0430;r&#x0430;yonini </tspan></text>
</g>
<clipPath id="cp833">
<path transform="matrix(1,0,0,-1,0,841.92)" d="M .000008871 0 L 595.32 0 L 595.32 841.92 L .000008871 841.92 Z " fill-rule="evenodd"/>
</clipPath>
<g clip-path="url(#cp833)">
</g>
<clipPath id="cp834">
<path transform="matrix(1,0,0,-1,0,841.92)" d="M .000008871 0 L 595.32 0 L 595.32 841.92 L .000008871 841.92 Z " fill-rule="evenodd"/>
</clipPath>
<g clip-path="url(#cp834)">
<text xml:space="preserve" transform="matrix(1 0 -0 1 0 841.92)" font-size="14.04" font-family="Times New Roman"><tspan y="-579.34" x="85.104 92.166118 99.12995 106.09379 113.15591 117.10115 123.32087 134.00531 141.06743 148.12955 155.09339 159.03862 165.8761 172.09581 176.77114 183.0049 188.52263 195.58475 200.14775 205.55315 209.49839 215.73215 220.29515 227.35727 231.3025 237.4099 244.47202 250.70578 257.55729 261.5025 267.73628 273.97004 277.91526 283.32066 290.38276 294.2297">&#x0445;uddi m&#x043e;ddiy r&#x0435;sursl&#x0430;rni q&#x0430;yt&#x0430; ishl&#x0430;</tspan></text>
</g>
<clipPath id="cp835">
<path transform="matrix(1,0,0,-1,0,841.92)" d="M .000008871 0 L 595.32 0 L 595.32 841.92 L .000008871 841.92 Z " fill-rule="evenodd"/>
</clipPath>
<g clip-path="url(#cp835)">
<text xml:space="preserve" transform="matrix(1 0 -0 1 0 841.92)" font-size="14.04" font-family="Times New Roman"><tspan y="-579.34" x="300.77 306.17539 313.2375 319.4572 323.30418 329.53794 334.21327 340.44703 347.29853 354.36064 361.42274 365.36796 371.47538 378.53749 384.77125 391.73509 395.6803 401.90003 405.74699 411.98075 418.94459 425.90843 432.97053 436.81748 443.7813 450.8434 454.78865 461.6261 467.85987 474.09364 479.5973 483.5425 488.21784 494.33927 498.18623 502.13145 509.19355 515.4273 521.5347 528.59689 534.7183 541.78048 548.7443 552.5913">sh j&#x0430;r&#x0430;yoni k&#x0430;bi t&#x0435;&#x0445;n&#x043e;l&#x043e;giya sif&#x0430;tid&#x0430; q&#x0430;bul </tspan></text>
</g>
<clipPath id="cp836">
<path transform="matrix(1,0,0,-1,0,841.92)" d="M .000008871 0 L 595.32 0 L 595.32 841.92 L .000008871 841.92 Z " fill-rule="evenodd"/>
</clipPath>
<g clip-path="url(#cp836)">
</g>
<clipPath id="cp837">
<path transform="matrix(1,0,0,-1,0,841.92)" d="M .000008871 0 L 595.32 0 L 595.32 841.92 L .000008871 841.92 Z " fill-rule="evenodd"/>
</clipPath>
<g clip-path="url(#cp837)">
<text xml:space="preserve" transform="matrix(1 0 -0 1 0 841.92)" font-size="14.04" font-family="Times New Roman"><tspan y="-555.07" x="85.104 92.166118 96.01308 99.95832 103.80528 109.210689 116.272808 119.78281 130.43918 137.62767 148.31212 155.37424 159.31948 166.38159 169.89159">qilish mumkin. </tspan></text>
</g>
<clipPath id="cp838">
<path transform="matrix(1,0,0,-1,0,841.92)" d="M .000008871 0 L 595.32 0 L 595.32 841.92 L .000008871 841.92 Z " fill-rule="evenodd"/>
</clipPath>
<g clip-path="url(#cp838)">
<text xml:space="preserve" transform="matrix(1 0 -0 1 0 841.92)" font-size="14.04" font-family="Times New Roman"><tspan y="-555.07" x="173.42"> </tspan></text>
</g>
<clipPath id="cp839">
<path transform="matrix(1,0,0,-1,0,841.92)" d="M .000008871 0 L 595.32 0 L 595.32 841.92 L .000008871 841.92 Z " fill-rule="evenodd"/>
</clipPath>
<g clip-path="url(#cp839)">
</g>
</g>
<g id="Layer-1" data-name="P">
<clipPath id="cp840">
<path transform="matrix(1,0,0,-1,0,841.92)" d="M .000008871 0 L 595.32 0 L 595.32 841.92 L .000008871 841.92 Z " fill-rule="evenodd"/>
</clipPath>
<g clip-path="url(#cp840)">
<text xml:space="preserve" transform="matrix(1 0 -0 1 0 841.92)" font-size="14.04" font-family="Times New Roman,Italic" font-style="italic"><tspan y="-530.95" x="120.5 129.02228 135.25605 142.33222 149.29605 154.70145 161.76357 165.7088 176.7302 180.57715 186.81092 192.93236 199.99448 206.95832 210.90355 217.86739 224.83123 228.77646 234.8979 241.86174 245.80698 252.77082 258.27449">&#x0410;&#x0445;b&#x043e;r&#x043e;t t&#x0435;&#x0445;n&#x043e;l&#x043e;giyal&#x0430;ri</tspan></text>
</g>
<clipPath id="cp841">
<path transform="matrix(1,0,0,-1,0,841.92)" d="M .000008871 0 L 595.32 0 L 595.32 841.92 L .000008871 841.92 Z " fill-rule="evenodd"/>
</clipPath>
<g clip-path="url(#cp841)">
<text xml:space="preserve" transform="matrix(1 0 -0 1 0 841.92)" font-size="14.04" font-family="Times New Roman"><tspan y="-530.95" x="262.37"> </tspan></text>
</g>
<clipPath id="cp842">
<path transform="matrix(1,0,0,-1,0,841.92)" d="M .000008871 0 L 595.32 0 L 595.32 841.92 L .000008871 841.92 Z " fill-rule="evenodd"/>
</clipPath>
<g clip-path="url(#cp842)">
<text xml:space="preserve" transform="matrix(1 0 -0 1 0 841.92)" font-size="14.04" font-family="Times New Roman"><tspan y="-530.95" x="273.29">&#x2013;</tspan></text>
</g>
<clipPath id="cp843">
<path transform="matrix(1,0,0,-1,0,841.92)" d="M .000008871 0 L 595.32 0 L 595.32 841.92 L .000008871 841.92 Z " fill-rule="evenodd"/>
</clipPath>
<g clip-path="url(#cp843)">
<text xml:space="preserve" transform="matrix(1 0 -0 1 0 841.92)" font-size="14.04" font-family="Times New Roman"><tspan y="-530.95" x="280.37"> </tspan></text>
</g>
<clipPath id="cp844">
<path transform="matrix(1,0,0,-1,0,841.92)" d="M .000008871 0 L 595.32 0 L 595.32 841.92 L .000008871 841.92 Z " fill-rule="evenodd"/>
</clipPath>
<g clip-path="url(#cp844)">
<text xml:space="preserve" transform="matrix(1 0 -0 1 0 841.92)" font-size="14.04" font-family="Times New Roman"><tspan y="-530.95" x="291.41 298.37385 305.43595 309.99894 316.2327 323.19654 327.14176 334.1056 338.0508 345.01466 352.07676 362.98585 367.66117 373.89494 380.8728 387.9349 394.997 399.56 406.52384 410.46907 421.49049 432.17494 438.4087 445.48484 450.9885 458.0506 461.89756 468.8614 472.8066 476.65357 483.6174 487.56263 494.52647 501.58857 506.2639 517.2993 524.2632 531.22708 535.1723 541.29379 545.239 549.18429 552.6943">&#x043e;b&#x2019;&#x0435;ktning (&#x0430;&#x0445;b&#x043e;r&#x043e;t m&#x0430;hsul&#x043e;tining) h&#x043e;l&#x0430;ti, </tspan></text>
</g>
<clipPath id="cp845">
<path transform="matrix(1,0,0,-1,0,841.92)" d="M .000008871 0 L 595.32 0 L 595.32 841.92 L .000008871 841.92 Z " fill-rule="evenodd"/>
</clipPath>
<g clip-path="url(#cp845)">
</g>
<clipPath id="cp846">
<path transform="matrix(1,0,0,-1,0,841.92)" d="M .000008871 0 L 595.32 0 L 595.32 841.92 L .000008871 841.92 Z " fill-rule="evenodd"/>
</clipPath>
<g clip-path="url(#cp846)">
<text xml:space="preserve" transform="matrix(1 0 -0 1 0 841.92)" font-size="14.04" font-family="Times New Roman"><tspan y="-506.83" x="85.104 88.95096 95.184719 99.86004 106.093799 112.94531 120.00743 127.06955 138.58234 145.41982 152.48194 159.54405 163.48929 175.00208 181.96591 188.92975 195.99187 202.11331 208.34708 215.42325 219.2702 226.23404 233.29616 244.80896 251.64644 257.8802 264.95634 271.92018 275.8654 287.3782 294.34205 301.40415 306.80955 313.77339 319.27705 323.124 329.96147 336.19523 340.14045 344.08567 355.59849 359.5437">j&#x0430;r&#x0430;yon yoki v&#x043e;q&#x0435;&#x0430;ning yangi &#x0445;ususiyati to</tspan></text>
</g>
<clipPath id="cp847">
<path transform="matrix(1,0,0,-1,0,841.92)" d="M .000008871 0 L 595.32 0 L 595.32 841.92 L .000008871 841.92 Z " fill-rule="evenodd"/>
</clipPath>
<g clip-path="url(#cp847)">
<text xml:space="preserve" transform="matrix(1 0 -0 1 0 841.92)" font-size="14.04" font-family="Times New Roman"><tspan y="-506.83" x="366.91">&#x2019;</tspan></text>
</g>
<clipPath id="cp848">
<path transform="matrix(1,0,0,-1,0,841.92)" d="M .000008871 0 L 595.32 0 L 595.32 841.92 L .000008871 841.92 Z " fill-rule="evenodd"/>
</clipPath>
<g clip-path="url(#cp848)">
<text xml:space="preserve" transform="matrix(1 0 -0 1 0 841.92)" font-size="14.04" font-family="Times New Roman"><tspan y="-506.83" x="371.47">g</tspan></text>
</g>
<clipPath id="cp849">
<path transform="matrix(1,0,0,-1,0,841.92)" d="M .000008871 0 L 595.32 0 L 595.32 841.92 L .000008871 841.92 Z " fill-rule="evenodd"/>
</clipPath>
<g clip-path="url(#cp849)">
<text xml:space="preserve" transform="matrix(1 0 -0 1 0 841.92)" font-size="14.04" font-family="Times New Roman"><tspan y="-506.83" x="378.55">&#x2019;</tspan></text>
</g>
<clipPath id="cp850">
<path transform="matrix(1,0,0,-1,0,841.92)" d="M .000008871 0 L 595.32 0 L 595.32 841.92 L .000008871 841.92 Z " fill-rule="evenodd"/>
</clipPath>
<g clip-path="url(#cp850)">
<text xml:space="preserve" transform="matrix(1 0 -0 1 0 841.92)" font-size="14.04" font-family="Times New Roman"><tspan y="-506.83" x="383.11 387.7853 391.63227 397.13594 400.98289 408.04499 414.27876 425.79158 431.913 438.87684 445.84068 452.90278 457.5781 464.54194 468.48716 479.8736 486.9357 490.78266 494.72789 500.13328 507.19538 518.58187 525.644 531.76547 538.8276 545.79147 552.7553">risid&#x0430; &#x0430;&#x0445;b&#x043e;r&#x043e;t &#x043e;lish uchun </tspan></text>
</g>
<clipPath id="cp851">
<path transform="matrix(1,0,0,-1,0,841.92)" d="M .000008871 0 L 595.32 0 L 595.32 841.92 L .000008871 841.92 Z " fill-rule="evenodd"/>
</clipPath>
<g clip-path="url(#cp851)">
</g>
<clipPath id="cp852">
<path transform="matrix(1,0,0,-1,0,841.92)" d="M .000008871 0 L 595.32 0 L 595.32 841.92 L .000008871 841.92 Z " fill-rule="evenodd"/>
</clipPath>
<g clip-path="url(#cp852)">
<text xml:space="preserve" transform="matrix(1 0 -0 1 0 841.92)" font-size="14.04" font-family="Times New Roman"><tspan y="-482.71" x="85.104 95.90076 102.134517 106.69752 110.64276 117.83124 128.51569 135.5778 139.52304 143.46828 149.70204 154.26505 161.22888 165.17412 171.04283 177.88031 181.82555">m&#x0430;&#x2019;lum&#x043e;tl&#x0430;rni yig</tspan></text>
</g>
<clipPath id="cp853">
<path transform="matrix(1,0,0,-1,0,841.92)" d="M .000008871 0 L 595.32 0 L 595.32 841.92 L .000008871 841.92 Z " fill-rule="evenodd"/>
</clipPath>
<g clip-path="url(#cp853)">
<text xml:space="preserve" transform="matrix(1 0 -0 1 0 841.92)" font-size="14.04" font-family="Times New Roman"><tspan y="-482.71" x="189.05">&#x2019;</tspan></text>
</g>
<clipPath id="cp854">
<path transform="matrix(1,0,0,-1,0,841.92)" d="M .000008871 0 L 595.32 0 L 595.32 841.92 L .000008871 841.92 Z " fill-rule="evenodd"/>
</clipPath>
<g clip-path="url(#cp854)">
<text xml:space="preserve" transform="matrix(1 0 -0 1 0 841.92)" font-size="14.04" font-family="Times New Roman"><tspan y="-482.71" x="193.61 197.55524 202.96063 210.02275 213.53275 219.37339 226.4355 232.66927 239.52079 243.46602 249.69979 255.5685 259.41548 264.82087 271.88298 275.8282 281.94963 287.355 294.4171 300.28587 307.2497 313.48347 319.23988 326.30198 332.53575 338.65718 342.6024 346.44935 351.85475 358.91685 364.78559 371.74943 378.81153 384.21693 388.06388 392.0091 398.24287">ish, q&#x0430;yt&#x0430; ishl&#x0430;sh v&#x0430; uz&#x0430;tish v&#x043e;sit&#x0430;l</tspan></text>
</g>
<clipPath id="cp855">
<path transform="matrix(1,0,0,-1,0,841.92)" d="M .000008871 0 L 595.32 0 L 595.32 841.92 L .000008871 841.92 Z " fill-rule="evenodd"/>
</clipPath>
<g clip-path="url(#cp855)">
<text xml:space="preserve" transform="matrix(1 0 -0 1 0 841.92)" font-size="14.04" font-family="Times New Roman"><tspan y="-482.71" x="402.31 408.54377 413.2191 417.17835 422.92073 429.98283 436.21659 441.973 449.0351 454.4405 461.40434 465.34956 469.29478 475.52854 480.09153 484.03675 489.9055 500.58995 506.8237 510.76893 521.4533 528.51547 532.4607 539.5228 545.7566 552.72048">&#x0430;ri v&#x0430; usull&#x0430;ri m&#x0430;jmuid&#x0430;n </tspan></text>
</g>
<clipPath id="cp856">
<path transform="matrix(1,0,0,-1,0,841.92)" d="M .000008871 0 L 595.32 0 L 595.32 841.92 L .000008871 841.92 Z " fill-rule="evenodd"/>
</clipPath>
<g clip-path="url(#cp856)">
</g>
<clipPath id="cp857">
<path transform="matrix(1,0,0,-1,0,841.92)" d="M .000008871 0 L 595.32 0 L 595.32 841.92 L .000008871 841.92 Z " fill-rule="evenodd"/>
</clipPath>
<g clip-path="url(#cp857)">
<text xml:space="preserve" transform="matrix(1 0 -0 1 0 841.92)" font-size="14.04" font-family="Times New Roman"><tspan y="-458.47" x="85.104 89.77932 96.85548 103.692958 110.75507 116.98883 120.934078 127.05551 134.11763 137.96459 141.90982 148.03127 155.09339 158.94034 166.00246 172.1239 179.18602 182.69602 186.50086 192.73462 197.40995 203.54543 210.3829 217.44503 224.50714 231.56926 235.5145 240.18982">f&#x043e;yd&#x0430;l&#x0430;nil&#x0430;dig&#x0430;n j&#x0430;r&#x0430;yondir.</tspan></text>
</g>
<clipPath id="cp858">
<path transform="matrix(1,0,0,-1,0,841.92)" d="M .000008871 0 L 595.32 0 L 595.32 841.92 L .000008871 841.92 Z " fill-rule="evenodd"/>
</clipPath>
<g clip-path="url(#cp858)">
<text xml:space="preserve" transform="matrix(1 0 -0 1 0 841.92)" font-size="14.04" font-family="Times New Roman"><tspan y="-458.47" x="243.77"> </tspan></text>
</g>
<clipPath id="cp859">
<path transform="matrix(1,0,0,-1,0,841.92)" d="M .000008871 0 L 595.32 0 L 595.32 841.92 L .000008871 841.92 Z " fill-rule="evenodd"/>
</clipPath>
<g clip-path="url(#cp859)">
</g>
</g>
<g id="Layer-1" data-name="P">
<clipPath id="cp860">
<path transform="matrix(1,0,0,-1,0,841.92)" d="M .000008871 0 L 595.32 0 L 595.32 841.92 L .000008871 841.92 Z " fill-rule="evenodd"/>
</clipPath>
<g clip-path="url(#cp860)">
<text xml:space="preserve" transform="matrix(1 0 -0 1 0 841.92)" font-size="14.04" font-family="Times New Roman"><tspan y="-434.35" x="120.5 130.58072 137.64284 144.60668 151.6688 156.2318 163.29392 167.23915 172.1391 176.08434 182.20578 189.16962 196.23174 203.19557 207.14081 214.10465 221.06848 225.01372 231.8512 238.08496 242.0302 248.26396 252.93929 256.78627 263.84837 267.6953 274.65916 281.72126 286.7476 297.43205 303.6658 310.74195 316.2456 322.47938 329.4432 333.38844">&#x0410;&#x0445;b&#x043e;r&#x043e;t t&#x0435;&#x0445;n&#x043e;l&#x043e;giyal&#x0430;rining m&#x0430;qs&#x0430;di </tspan></text>
</g>
<clipPath id="cp861">
<path transform="matrix(1,0,0,-1,0,841.92)" d="M .000008871 0 L 595.32 0 L 595.32 841.92 L .000008871 841.92 Z " fill-rule="evenodd"/>
</clipPath>
<g clip-path="url(#cp861)">
<text xml:space="preserve" transform="matrix(1 0 -0 1 0 841.92)" font-size="14.04" font-family="Times New Roman"><tspan y="-434.35" x="338.59">&#x2013;</tspan></text>
</g>
<clipPath id="cp862">
<path transform="matrix(1,0,0,-1,0,841.92)" d="M .000008871 0 L 595.32 0 L 595.32 841.92 L .000008871 841.92 Z " fill-rule="evenodd"/>
</clipPath>
<g clip-path="url(#cp862)">
<text xml:space="preserve" transform="matrix(1 0 -0 1 0 841.92)" font-size="14.04" font-family="Times New Roman"><tspan y="-434.35" x="345.67"> </tspan></text>
</g>
<clipPath id="cp863">
<path transform="matrix(1,0,0,-1,0,841.92)" d="M .000008871 0 L 595.32 0 L 595.32 841.92 L .000008871 841.92 Z " fill-rule="evenodd"/>
</clipPath>
<g clip-path="url(#cp863)">
<text xml:space="preserve" transform="matrix(1 0 -0 1 0 841.92)" font-size="14.04" font-family="Times New Roman"><tspan y="-434.35" x="350.59 356.82377 363.7876 370.8497 377.9118 382.4748 389.43864 393.38386 398.2838 402.22904 407.63444 414.69654 418.5435 424.77726 431.8534 436.75337 442.8748 449.9369 453.78385 460.84596 467.0797 471.6427 475.58793 480.99333 488.05543 492.95539 500.0175">&#x0430;&#x0445;b&#x043e;r&#x043e;t ishl&#x0430;b chiq&#x0430;rish bo</tspan></text>
</g>
<clipPath id="cp864">
<path transform="matrix(1,0,0,-1,0,841.92)" d="M .000008871 0 L 595.32 0 L 595.32 841.92 L .000008871 841.92 Z " fill-rule="evenodd"/>
</clipPath>
<g clip-path="url(#cp864)">
<text xml:space="preserve" transform="matrix(1 0 -0 1 0 841.92)" font-size="14.04" font-family="Times New Roman"><tspan y="-434.35" x="507.34">&#x2019;</tspan></text>
</g>
<clipPath id="cp865">
<path transform="matrix(1,0,0,-1,0,841.92)" d="M .000008871 0 L 595.32 0 L 595.32 841.92 L .000008871 841.92 Z " fill-rule="evenodd"/>
</clipPath>
<g clip-path="url(#cp865)">
<text xml:space="preserve" transform="matrix(1 0 -0 1 0 841.92)" font-size="14.04" font-family="Times New Roman"><tspan y="-434.35" x="511.9 515.74697 519.6922 526.75436 530.26437 535.1362 542.1001 549.06399 552.91098">lib, uni </tspan></text>
</g>
<clipPath id="cp866">
<path transform="matrix(1,0,0,-1,0,841.92)" d="M .000008871 0 L 595.32 0 L 595.32 841.92 L .000008871 841.92 Z " fill-rule="evenodd"/>
</clipPath>
<g clip-path="url(#cp866)">
</g>
<clipPath id="cp867">
<path transform="matrix(1,0,0,-1,0,841.92)" d="M .000008871 0 L 595.32 0 L 595.32 841.92 L .000008871 841.92 Z " fill-rule="evenodd"/>
</clipPath>
<g clip-path="url(#cp867)">
<text xml:space="preserve" transform="matrix(1 0 -0 1 0 841.92)" font-size="14.04" font-family="Times New Roman"><tspan y="-410.23" x="85.104 89.04924 95.283 102.24683 106.093799 110.03904 113.98428 120.204 126.32544 130.27068 134.11763 139.52303 146.58515 152.80486 159.86698 166.10074 172.20813 179.17197 186.23409 190.08104 197.14316 204.107 210.3267 216.56047 222.0782 229.04204 234.54572 238.39267 245.45479 251.68856 257.79597 264.85807 268.70503 273.38035 280.45649">t&#x0430;hlil etish v&#x0430; uning &#x0430;s&#x043e;sid&#x0430; bir&#x043e;r</tspan></text>
</g>
<clipPath id="cp868">
<path transform="matrix(1,0,0,-1,0,841.92)" d="M .000008871 0 L 595.32 0 L 595.32 841.92 L .000008871 841.92 Z " fill-rule="evenodd"/>
</clipPath>
<g clip-path="url(#cp868)">
<text xml:space="preserve" transform="matrix(1 0 -0 1 0 841.92)" font-size="14.04" font-family="Times New Roman"><tspan y="-410.23" x="285.29">-</tspan></text>
</g>
<clipPath id="cp869">
<path transform="matrix(1,0,0,-1,0,841.92)" d="M .000008871 0 L 595.32 0 L 595.32 841.92 L .000008871 841.92 Z " fill-rule="evenodd"/>
</clipPath>
<g clip-path="url(#cp869)">
<text xml:space="preserve" transform="matrix(1 0 -0 1 0 841.92)" font-size="14.04" font-family="Times New Roman"><tspan y="-410.23" x="289.97 296.93385 300.87907 305.55439 311.78816 318.75199 324.8734 329.54875 335.7825 342.85865 348.98008 352.9253 359.88914 366.1229 372.35667 379.3205">bir h&#x0430;r&#x0430;k&#x0430;tg&#x0430; qo</tspan></text>
</g>
<clipPath id="cp870">
<path transform="matrix(1,0,0,-1,0,841.92)" d="M .000008871 0 L 595.32 0 L 595.32 841.92 L .000008871 841.92 Z " fill-rule="evenodd"/>
</clipPath>
<g clip-path="url(#cp870)">
<text xml:space="preserve" transform="matrix(1 0 -0 1 0 841.92)" font-size="14.04" font-family="Times New Roman"><tspan y="-410.23" x="386.47">&#x2019;</tspan></text>
</g>
<clipPath id="cp871">
<path transform="matrix(1,0,0,-1,0,841.92)" d="M .000008871 0 L 595.32 0 L 595.32 841.92 L .000008871 841.92 Z " fill-rule="evenodd"/>
</clipPath>
<g clip-path="url(#cp871)">
<text xml:space="preserve" transform="matrix(1 0 -0 1 0 841.92)" font-size="14.04" font-family="Times New Roman"><tspan y="-410.23" x="391.03 394.97523 401.19496 408.25706 412.82005 416.76527 422.17066 429.23277 435.34019 442.30403 448.53779 455.50163 462.56373 469.62583 475.73326 479.67848 485.91224 492.87608 496.72303 502.22669 509.19053 513.13577 517.081 523.1884 530.25057 536.4843 541.0473 548.10946 552.6724">l urish uchun t&#x0435;gishli q&#x0430;r&#x043e;r </tspan></text>
</g>
<clipPath id="cp872">
<path transform="matrix(1,0,0,-1,0,841.92)" d="M .000008871 0 L 595.32 0 L 595.32 841.92 L .000008871 841.92 Z " fill-rule="evenodd"/>
</clipPath>
<g clip-path="url(#cp872)">
</g>
<clipPath id="cp873">
<path transform="matrix(1,0,0,-1,0,841.92)" d="M .000008871 0 L 595.32 0 L 595.32 841.92 L .000008871 841.92 Z " fill-rule="evenodd"/>
</clipPath>
<g clip-path="url(#cp873)">
<text xml:space="preserve" transform="matrix(1 0 -0 1 0 841.92)" font-size="14.04" font-family="Times New Roman"><tspan y="-386.09" x="85.104 92.166118 98.28755 105.34967 112.31351 116.25875 122.12747 129.09131 132.93827 136.8835 140.73046 146.23413 153.29625 156.80625 162.64688 171.88521 178.84905 184.35272 191.31656 198.37868 204.50012 210.73389 217.81006 224.04383 229.91254 236.1463 242.99782 246.94306 254.00518 260.1266 267.09043 274.15254 280.3863 286.25505 292.37648 299.43858 306.4024 313.4645 318.0275 324.99134 328.93656 334.8053 338.75053 344.87196">q&#x0430;bul qilish. Boshqacha aytganda a&#x0445;b&#x043e;r&#x043e;t t&#x0435;&#x0445;</tspan></text>
</g>
<clipPath id="cp874">
<path transform="matrix(1,0,0,-1,0,841.92)" d="M .000008871 0 L 595.32 0 L 595.32 841.92 L .000008871 841.92 Z " fill-rule="evenodd"/>
</clipPath>
<g clip-path="url(#cp874)">
<text xml:space="preserve" transform="matrix(1 0 -0 1 0 841.92)" font-size="14.04" font-family="Times New Roman"><tspan y="-386.09" x="352.15 359.2121 366.17594 370.0229 377.085 384.04884 387.99406 394.8315 401.06529 405.0105 411.24427 415.9196">n&#x043e;l&#x043e;giyal&#x0430;ri</tspan></text>
</g>
<clipPath id="cp875">
<path transform="matrix(1,0,0,-1,0,841.92)" d="M .000008871 0 L 595.32 0 L 595.32 841.92 L .000008871 841.92 Z " fill-rule="evenodd"/>
</clipPath>
<g clip-path="url(#cp875)">
<text xml:space="preserve" transform="matrix(1 0 -0 1 0 841.92)" font-size="14.04" font-family="Times New Roman,Bold" font-weight="bold"><tspan y="-386.09" x="419.95"> </tspan></text>
</g>
<clipPath id="cp876">
<path transform="matrix(1,0,0,-1,0,841.92)" d="M .000008871 0 L 595.32 0 L 595.32 841.92 L .000008871 841.92 Z " fill-rule="evenodd"/>
</clipPath>
<g clip-path="url(#cp876)">
<text xml:space="preserve" transform="matrix(1 0 -0 1 0 841.92)" font-size="14.04" font-family="Times New Roman,Bold" font-weight="bold"><tspan y="-386.09" x="425.83">-</tspan></text>
</g>
<clipPath id="cp877">
<path transform="matrix(1,0,0,-1,0,841.92)" d="M .000008871 0 L 595.32 0 L 595.32 841.92 L .000008871 841.92 Z " fill-rule="evenodd"/>
</clipPath>
<g clip-path="url(#cp877)">
<text xml:space="preserve" transform="matrix(1 0 -0 1 0 841.92)" font-size="14.04" font-family="Times New Roman,Bold" font-weight="bold"><tspan y="-386.09" x="430.51"> </tspan></text>
</g>
<clipPath id="cp878">
<path transform="matrix(1,0,0,-1,0,841.92)" d="M .000008871 0 L 595.32 0 L 595.32 841.92 L .000008871 841.92 Z " fill-rule="evenodd"/>
</clipPath>
<g clip-path="url(#cp878)">
<text xml:space="preserve" transform="matrix(1 0 -0 1 0 841.92)" font-size="14.04" font-family="Times New Roman"><tspan y="-386.09" x="436.39 442.51145 449.57356 456.53739 463.5995 468.16249 475.22459 479.07154 483.01676 489.25053 493.8135 500.77735 504.72257 510.5913 517.42886 521.3741">a&#x0445;b&#x043e;r&#x043e;tl&#x0430;rni yig</tspan></text>
</g>
<clipPath id="cp879">
<path transform="matrix(1,0,0,-1,0,841.92)" d="M .000008871 0 L 595.32 0 L 595.32 841.92 L .000008871 841.92 Z " fill-rule="evenodd"/>
</clipPath>
<g clip-path="url(#cp879)">
<text xml:space="preserve" transform="matrix(1 0 -0 1 0 841.92)" font-size="14.04" font-family="Times New Roman"><tspan y="-386.09" x="528.58">&#x2019;</tspan></text>
</g>
<clipPath id="cp880">
<path transform="matrix(1,0,0,-1,0,841.92)" d="M .000008871 0 L 595.32 0 L 595.32 841.92 L .000008871 841.92 Z " fill-rule="evenodd"/>
</clipPath>
<g clip-path="url(#cp880)">
<text xml:space="preserve" transform="matrix(1 0 -0 1 0 841.92)" font-size="14.04" font-family="Times New Roman"><tspan y="-386.09" x="533.14 537.08529 542.5889 549.5528 552.9084">ish, </tspan></text>
</g>
<clipPath id="cp881">
<path transform="matrix(1,0,0,-1,0,841.92)" d="M .000008871 0 L 595.32 0 L 595.32 841.92 L .000008871 841.92 Z " fill-rule="evenodd"/>
</clipPath>
<g clip-path="url(#cp881)">
</g>
<clipPath id="cp882">
<path transform="matrix(1,0,0,-1,0,841.92)" d="M .000008871 0 L 595.32 0 L 595.32 841.92 L .000008871 841.92 Z " fill-rule="evenodd"/>
</clipPath>
<g clip-path="url(#cp882)">
<text xml:space="preserve" transform="matrix(1 0 -0 1 0 841.92)" font-size="14.04" font-family="Times New Roman"><tspan y="-361.97" x="85.104 92.166118 98.39987 104.52131 108.46655 112.313518 117.71892 124.78104 128.29103 133.52794 137.3749">uz&#x0430;tish, to</tspan></text>
</g>
<clipPath id="cp883">
<path transform="matrix(1,0,0,-1,0,841.92)" d="M .000008871 0 L 595.32 0 L 595.32 841.92 L .000008871 841.92 Z " fill-rule="evenodd"/>
</clipPath>
<g clip-path="url(#cp883)">
<text xml:space="preserve" transform="matrix(1 0 -0 1 0 841.92)" font-size="14.04" font-family="Times New Roman"><tspan y="-361.97" x="144.5">&#x2019;</tspan></text>
</g>
<clipPath id="cp884">
<path transform="matrix(1,0,0,-1,0,841.92)" d="M .000008871 0 L 595.32 0 L 595.32 841.92 L .000008871 841.92 Z " fill-rule="evenodd"/>
</clipPath>
<g clip-path="url(#cp884)">
<text xml:space="preserve" transform="matrix(1 0 -0 1 0 841.92)" font-size="14.04" font-family="Times New Roman"><tspan y="-361.97" x="149.06 156.12212 160.06735 166.1888 171.5942 178.65631 182.1663 187.40322 194.36705 200.60082 207.56465 211.50989 217.74365 222.89633 226.84157 232.24697 239.30908 243.15604 249.3898 254.7952 261.8573 265.3673 270.47789 275.98155 282.2153 289.17915 293.12437 299.2458 304.65119 311.7133 315.2233 320.46025 324.3072 330.54096 337.5048 344.5669 348.51213 359.19657 364.46159 370.69535 374.64057 378.48753 383.99119 391.05329 396.20597 403.26808 409.3895 414.6545 419.32984 426.40599 433.24345 440.30555 446.42698 450.3722 456.60597 463.5698 467.41676 472.9204 479.88426 485.14927 492.1131 497.61677 501.4637 508.42756 515.4897 519.3367 525.57046 530.2457 534.205 539.3577 546.3216 552.44308">pl&#x0430;sh, q&#x0430;yt&#x0430; ishl&#x0430;sh, s&#x0430;ql&#x0430;sh, t&#x0430;qdim etish v&#x0430; f&#x043e;yd&#x0430;l&#x0430;nish uslubl&#x0430;ri v&#x0430; </tspan></text>
</g>
<clipPath id="cp885">
<path transform="matrix(1,0,0,-1,0,841.92)" d="M .000008871 0 L 595.32 0 L 595.32 841.92 L .000008871 841.92 Z " fill-rule="evenodd"/>
</clipPath>
<g clip-path="url(#cp885)">
</g>
<clipPath id="cp886">
<path transform="matrix(1,0,0,-1,0,841.92)" d="M .000008871 0 L 595.32 0 L 595.32 841.92 L .000008871 841.92 Z " fill-rule="evenodd"/>
</clipPath>
<g clip-path="url(#cp886)">
<text xml:space="preserve" transform="matrix(1 0 -0 1 0 841.92)" font-size="14.04" font-family="Times New Roman"><tspan y="-337.73" x="85.104 92.166118 97.57152 104.535358 108.4806 112.42584 118.6596 123.2226 127.16785 130.67784 134.48268 138.42792 144.54936 148.4946 159.17905 163.12429 166.63428 173.65428 179.88805 186.9923 190.50229 197.31169 204.37381 209.04914 212.99437 216.84133 220.78656 224.63352 230.86728 237.83112 241.77635 245.28635">usull&#x0430;ri tizimi d&#x0435;b yuritil&#x0430;di. </tspan></text>
</g>
<clipPath id="cp887">
<path transform="matrix(1,0,0,-1,0,841.92)" d="M .000008871 0 L 595.32 0 L 595.32 841.92 L .000008871 841.92 Z " fill-rule="evenodd"/>
</clipPath>
<g clip-path="url(#cp887)">
<text xml:space="preserve" transform="matrix(1 0 -0 1 0 841.92)" font-size="14.04" font-family="Times New Roman"><tspan y="-337.73" x="248.81"> </tspan></text>
</g>
<clipPath id="cp888">
<path transform="matrix(1,0,0,-1,0,841.92)" d="M .000008871 0 L 595.32 0 L 595.32 841.92 L .000008871 841.92 Z " fill-rule="evenodd"/>
</clipPath>
<g clip-path="url(#cp888)">
</g>
</g>
<g id="Layer-1" data-name="P">
<clipPath id="cp889">
<path transform="matrix(1,0,0,-1,0,841.92)" d="M .000008871 0 L 595.32 0 L 595.32 841.92 L .000008871 841.92 Z " fill-rule="evenodd"/>
</clipPath>
<g clip-path="url(#cp889)">
<text xml:space="preserve" transform="matrix(1 0 -0 1 0 841.92)" font-size="14.04" font-family="Times New Roman,Italic" font-style="italic"><tspan y="-313.61" x="120.5 129.02228 135.25605 139.20128 146.2634 156.21776 163.27988 167.12683 171.07207 178.0359 183.4413 190.50342 194.35037 198.29561 203.701 207.54796 213.05164">&#x0410;vt&#x043e;m&#x0430;tl&#x0430;shtirish</tspan></text>
</g>
<clipPath id="cp890">
<path transform="matrix(1,0,0,-1,0,841.92)" d="M .000008871 0 L 595.32 0 L 595.32 841.92 L .000008871 841.92 Z " fill-rule="evenodd"/>
</clipPath>
<g clip-path="url(#cp890)">
<text xml:space="preserve" transform="matrix(1 0 -0 1 0 841.92)" font-size="14.04" font-family="Times New Roman,Bold" font-weight="bold"><tspan y="-313.61" x="220.13"> </tspan></text>
</g>
<clipPath id="cp891">
<path transform="matrix(1,0,0,-1,0,841.92)" d="M .000008871 0 L 595.32 0 L 595.32 841.92 L .000008871 841.92 Z " fill-rule="evenodd"/>
</clipPath>
<g clip-path="url(#cp891)">
<text xml:space="preserve" transform="matrix(1 0 -0 1 0 841.92)" font-size="14.04" font-family="Times New Roman,Bold" font-weight="bold"><tspan y="-313.61" x="225.05">-</tspan></text>
</g>
<clipPath id="cp892">
<path transform="matrix(1,0,0,-1,0,841.92)" d="M .000008871 0 L 595.32 0 L 595.32 841.92 L .000008871 841.92 Z " fill-rule="evenodd"/>
</clipPath>
<g clip-path="url(#cp892)">
<text xml:space="preserve" transform="matrix(1 0 -0 1 0 841.92)" font-size="14.04" font-family="Times New Roman,Bold" font-weight="bold"><tspan y="-313.61" x="229.73"> </tspan></text>
</g>
<clipPath id="cp893">
<path transform="matrix(1,0,0,-1,0,841.92)" d="M .000008871 0 L 595.32 0 L 595.32 841.92 L .000008871 841.92 Z " fill-rule="evenodd"/>
</clipPath>
<g clip-path="url(#cp893)">
<text xml:space="preserve" transform="matrix(1 0 -0 1 0 841.92)" font-size="14.04" font-family="Times New Roman"><tspan y="-313.61" x="234.65"> </tspan></text>
</g>
<clipPath id="cp894">
<path transform="matrix(1,0,0,-1,0,841.92)" d="M .000008871 0 L 595.32 0 L 595.32 841.92 L .000008871 841.92 Z " fill-rule="evenodd"/>
</clipPath>
<g clip-path="url(#cp894)">
<text xml:space="preserve" transform="matrix(1 0 -0 1 0 841.92)" font-size="14.04" font-family="Times New Roman"><tspan y="-313.61" x="239.45 246.51212 253.47595 258.37593 262.22288 269.28498 274.69038 281.6542 288.7163 293.50398 297.4492 302.85459 309.9167 314.81666 319.49198 325.6134 332.57725 336.52247 340.46769 347.30516 353.5389 357.48414 361.3311 368.3932 372.3384 377.23838 387.92283 394.1566 399.6743 406.63813 410.58335 417.54719 423.78096 428.5686 435.6307 441.86448 446.77848 457.46293 463.6967 470.77284 477.0066 483.97044 487.91566 494.1494 504.83387 508.77909 515.0128 519.6881 524.6021 531.66427 535.5112 539.4565 545.57797 552.5418">bu ins&#x043e;n ish f&#x0430;&#x043e;liyatini m&#x0430;shin&#x0430; v&#x0430; m&#x0435;&#x0445;&#x0430;nizml&#x0430;r bil&#x0430;n </tspan></text>
</g>
<clipPath id="cp895">
<path transform="matrix(1,0,0,-1,0,841.92)" d="M .000008871 0 L 595.32 0 L 595.32 841.92 L .000008871 841.92 Z " fill-rule="evenodd"/>
</clipPath>
<g clip-path="url(#cp895)">
</g>
<clipPath id="cp896">
<path transform="matrix(1,0,0,-1,0,841.92)" d="M .000008871 0 L 595.32 0 L 595.32 841.92 L .000008871 841.92 Z " fill-rule="evenodd"/>
</clipPath>
<g clip-path="url(#cp896)">
<text xml:space="preserve" transform="matrix(1 0 -0 1 0 841.92)" font-size="14.04" font-family="Times New Roman"><tspan y="-289.49" x="85.104 91.33775 95.283 105.96744 112.201198 117.71892 124.78104 128.62799 132.57323 137.24855 141.0955 146.5009 153.56302 163.74202 170.80414 177.0379 187.72235 193.95612 201.03229 208.0944 212.03964 216.71497 220.22496 230.38991 240.47063 250.64963 254.59487 260.8286 267.79246 274.7563 278.7015 285.7636 289.27363 299.42457 303.2715 309.50529 314.91069 321.8745 328.9366 332.78358 336.7288 340.674 347.51148 357.6905 364.7526 370.98637 381.1794 385.12464 392.08848 396.0337 399.88066 405.28605 412.34815 419.31199 423.2572 430.09468 440.40003 451.19679 457.43055 463.77665 474.4611 481.5232 488.5853 495.6474 501.76884 508.83094 512.7762 522.8429 529.905 536.1388 539.9858 543.83279">&#x0430;lm&#x0430;shtirish d&#x0435;m&#x0430;kdir. U t&#x0435;&#x0445;nik, t&#x0430;shkiliy v&#x0430; iqtis&#x043e;diy m&#x0430;zmund&#x0430;gi &#x0445;&#x0430;tti</tspan></text>
</g>
<clipPath id="cp897">
<path transform="matrix(1,0,0,-1,0,841.92)" d="M .000008871 0 L 595.32 0 L 595.32 841.92 L .000008871 841.92 Z " fill-rule="evenodd"/>
</clipPath>
<g clip-path="url(#cp897)">
<text xml:space="preserve" transform="matrix(1 0 -0 1 0 841.92)" font-size="14.04" font-family="Times New Roman"><tspan y="-289.49" x="548.38">-</tspan></text>
</g>
<clipPath id="cp898">
<path transform="matrix(1,0,0,-1,0,841.92)" d="M .000008871 0 L 595.32 0 L 595.32 841.92 L .000008871 841.92 Z " fill-rule="evenodd"/>
</clipPath>
<g clip-path="url(#cp898)">
</g>
<clipPath id="cp899">
<path transform="matrix(1,0,0,-1,0,841.92)" d="M .000008871 0 L 595.32 0 L 595.32 841.92 L .000008871 841.92 Z " fill-rule="evenodd"/>
</clipPath>
<g clip-path="url(#cp899)">
<text xml:space="preserve" transform="matrix(1 0 -0 1 0 841.92)" font-size="14.04" font-family="Times New Roman"><tspan y="-265.37" x="85.104 92.166118 98.39987 103.075199 109.21067 116.27279 122.394229 126.33947 130.2847 136.40615 141.08147 146.58515 153.64727 159.88103 170.56548 177.6276 183.86136 189.37908 193.32431 199.55808 206.52191 213.58403 217.52927 222.09227 226.0375 232.27127 236.9466 242.46431 249.42815 256.49028 267.1747 274.23683 278.18205 284.4158 291.37965 296.78504 300.73027 307.79237 313.9138 320.9759 326.47959 330.4248 337.38865 344.45075 349.12608 355.2475 359.19273 364.6964 371.66026">h&#x0430;r&#x0430;k&#x0430;tl&#x0430;r h&#x0430;md&#x0430; t&#x0430;dbirl&#x0430;r k&#x043e;mpl&#x0435;ksid&#x0430;n ib&#x043e;r&#x0430;t bo</tspan></text>
</g>
<clipPath id="cp900">
<path transform="matrix(1,0,0,-1,0,841.92)" d="M .000008871 0 L 595.32 0 L 595.32 841.92 L .000008871 841.92 Z " fill-rule="evenodd"/>
</clipPath>
<g clip-path="url(#cp900)">
<text xml:space="preserve" transform="matrix(1 0 -0 1 0 841.92)" font-size="14.04" font-family="Times New Roman"><tspan y="-265.37" x="379.15">&#x2019;</tspan></text>
</g>
<clipPath id="cp901">
<path transform="matrix(1,0,0,-1,0,841.92)" d="M .000008871 0 L 595.32 0 L 595.32 841.92 L .000008871 841.92 Z " fill-rule="evenodd"/>
</clipPath>
<g clip-path="url(#cp901)">
<text xml:space="preserve" transform="matrix(1 0 -0 1 0 841.92)" font-size="14.04" font-family="Times New Roman"><tspan y="-265.37" x="383.71 387.6552 391.60044 398.66255 402.17256 407.64817 411.49513 416.9005 423.96263 427.90785 434.02928 441.09138 446.59507 452.82884 459.90498 463.75193 470.81404 477.0478 481.61079 485.45774 490.9614 498.0235 503.5272 507.37416 513.6079 518.2832 524.51699 531.3685 538.43069 545.4928 549.3398 552.6954">lib, ishl&#x0430;b chiq&#x0430;rish j&#x0430;r&#x0430;yoni, </tspan></text>
</g>
<clipPath id="cp902">
<path transform="matrix(1,0,0,-1,0,841.92)" d="M .000008871 0 L 595.32 0 L 595.32 841.92 L .000008871 841.92 Z " fill-rule="evenodd"/>
</clipPath>
<g clip-path="url(#cp902)">
</g>
<clipPath id="cp903">
<path transform="matrix(1,0,0,-1,0,841.92)" d="M .000008871 0 L 595.32 0 L 595.32 841.92 L .000008871 841.92 Z " fill-rule="evenodd"/>
</clipPath>
<g clip-path="url(#cp903)">
<text xml:space="preserve" transform="matrix(1 0 -0 1 0 841.92)" font-size="14.04" font-family="Times New Roman"><tspan y="-241.13" x="85.104 92.166118 99.12995 104.535358 111.59747 118.65959 124.78103 129.45635 136.42018 143.4823 146.9923 150.79714 157.0309 161.70623 167.93999 174.7915 181.85363 188.91574 192.7627 199.82482 203.67177 210.73389 217.796 221.15157 228.21369 231.72368 238.53308 245.5952 252.65732 256.60255 260.11256 267.13255 274.22273 277.57829 281.5235 286.9289 293.991 297.83796 304.8018 308.747 312.25703 318.49079 329.2735 335.50727 339.45249 346.5146">b&#x043e;shq&#x0430;ruv j&#x0430;r&#x0430;yonining u yoki bu ishini &#x0430;m&#x0430;lg&#x0430;</tspan></text>
</g>
<clipPath id="cp904">
<path transform="matrix(1,0,0,-1,0,841.92)" d="M .000008871 0 L 595.32 0 L 595.32 841.92 L .000008871 841.92 Z " fill-rule="evenodd"/>
</clipPath>
<g clip-path="url(#cp904)">
<text xml:space="preserve" transform="matrix(1 0 -0 1 0 841.92)" font-size="14.04" font-family="Times New Roman"><tspan y="-241.13" x="353.11"> </tspan></text>
</g>
<clipPath id="cp905">
<path transform="matrix(1,0,0,-1,0,841.92)" d="M .000008871 0 L 595.32 0 L 595.32 841.92 L .000008871 841.92 Z " fill-rule="evenodd"/>
</clipPath>
<g clip-path="url(#cp905)">
<text xml:space="preserve" transform="matrix(1 0 -0 1 0 841.92)" font-size="14.04" font-family="Times New Roman"><tspan y="-241.13" x="356.59 363.55384 369.0575 376.02134 379.96656 384.52955 388.47477 393.88017 400.844 407.9061 414.13987 417.64988 421.46876 428.53086 433.93626 440.9001 447.9622 451.4722 455.3753 460.83686 467.75859 471.7038 475.64903 480.212 487.17585 494.23796 498.0849 505.04875 508.99397 512.50399 519.524 523.4271 528.8887 539.5871 545.82089 552.7847">&#x043e;shirishd&#x0430; ins&#x043e;n ishtir&#x043e;kini qism&#x0430;n </tspan></text>
</g>
<clipPath id="cp906">
<path transform="matrix(1,0,0,-1,0,841.92)" d="M .000008871 0 L 595.32 0 L 595.32 841.92 L .000008871 841.92 Z " fill-rule="evenodd"/>
</clipPath>
<g clip-path="url(#cp906)">
</g>
<clipPath id="cp907">
<path transform="matrix(1,0,0,-1,0,841.92)" d="M .000008871 0 L 595.32 0 L 595.32 841.92 L .000008871 841.92 Z " fill-rule="evenodd"/>
</clipPath>
<g clip-path="url(#cp907)">
<text xml:space="preserve" transform="matrix(1 0 -0 1 0 841.92)" font-size="14.04" font-family="Times New Roman"><tspan y="-216.98" x="85.104 91.941478 99.00359 106.06571 110.010959 113.52096 120.45671 127.51883 131.36579 138.32962 145.39174 149.33698 155.57074 162.42226 165.93225 172.16602 179.18602 185.33554 192.39766 196.3429 202.46434 207.96802 215.03014 218.3857 222.33094 233.01538 240.0775 247.13962 254.20174 258.0487 265.01255 268.95777 272.46778 279.48777 285.6373 290.31263 296.5464 303.52427 307.46949 310.9795">yoki butunl&#x0430;y ch&#x0435;kl&#x0430;sh imk&#x043e;nini b&#x0435;r&#x0430;di. </tspan></text>
</g>
<clipPath id="cp908">
<path transform="matrix(1,0,0,-1,0,841.92)" d="M .000008871 0 L 595.32 0 L 595.32 841.92 L .000008871 841.92 Z " fill-rule="evenodd"/>
</clipPath>
<g clip-path="url(#cp908)">
<text xml:space="preserve" transform="matrix(1 0 -0 1 0 841.92)" font-size="14.04" font-family="Times New Roman"><tspan y="-216.98" x="314.57"> </tspan></text>
</g>
<clipPath id="cp909">
<path transform="matrix(1,0,0,-1,0,841.92)" d="M .000008871 0 L 595.32 0 L 595.32 841.92 L .000008871 841.92 Z " fill-rule="evenodd"/>
</clipPath>
<g clip-path="url(#cp909)">
</g>
</g>
<g id="Layer-1" data-name="P">
<clipPath id="cp910">
<path transform="matrix(1,0,0,-1,0,841.92)" d="M .000008871 0 L 595.32 0 L 595.32 841.92 L .000008871 841.92 Z " fill-rule="evenodd"/>
</clipPath>
<g clip-path="url(#cp910)">
<text xml:space="preserve" transform="matrix(1 0 -0 1 0 841.92)" font-size="14.04" font-family="Times New Roman,Bold" font-weight="bold"><tspan y="-192.86" x="120.5 130.58072 137.64284 142.31816 149.39434 160.92118 167.98329 172.65862 176.50557 183.4694 188.97309 196.77933 201.3283 205.27353 211.5073 215.35425 219.2012 226.26332 233.32544 241.00533 252.63045 259.69258 266.75468 274.43455 281.49665 287.61808 294.68019 299.3555 310.98063 315.65596 321.77738 328.83949 336.51936 343.58146 347.4284 354.39225 361.35609 365.3013 372.26515 379.32725 383.1742 390.2363 396.35774 400.30296 411.92808 416.6034 426.6841 436.76484 446.12953 452.25096 459.31306">&#x0410;vt&#x043e;m&#x0430;tl&#x0430;shtirilg&#x0430;n &#x0430;&#x0445;b&#x043e;r&#x043e;t t&#x0435;&#x0445;n&#x043e;l&#x043e;giyal&#x0430;ri (&#x0410;&#x0410;T&#x0435;&#x0445;)</tspan></text>
</g>
<clipPath id="cp911">
<path transform="matrix(1,0,0,-1,0,841.92)" d="M .000008871 0 L 595.32 0 L 595.32 841.92 L .000008871 841.92 Z " fill-rule="evenodd"/>
</clipPath>
<g clip-path="url(#cp911)">
<text xml:space="preserve" transform="matrix(1 0 -0 1 0 841.92)" font-size="14.04" font-family="Times New Roman,Bold" font-weight="bold"><tspan y="-192.86" x="464.38"> </tspan></text>
</g>
<clipPath id="cp912">
<path transform="matrix(1,0,0,-1,0,841.92)" d="M .000008871 0 L 595.32 0 L 595.32 841.92 L .000008871 841.92 Z " fill-rule="evenodd"/>
</clipPath>
<g clip-path="url(#cp912)">
<text xml:space="preserve" transform="matrix(1 0 -0 1 0 841.92)" font-size="14.04" font-family="Times New Roman,Bold" font-weight="bold"><tspan y="-192.86" x="476.02">&#x2013;</tspan></text>
</g>
<clipPath id="cp913">
<path transform="matrix(1,0,0,-1,0,841.92)" d="M .000008871 0 L 595.32 0 L 595.32 841.92 L .000008871 841.92 Z " fill-rule="evenodd"/>
</clipPath>
<g clip-path="url(#cp913)">
<text xml:space="preserve" transform="matrix(1 0 -0 1 0 841.92)" font-size="14.04" font-family="Times New Roman,Bold" font-weight="bold"><tspan y="-192.86" x="482.98"> </tspan></text>
</g>
<clipPath id="cp914">
<path transform="matrix(1,0,0,-1,0,841.92)" d="M .000008871 0 L 595.32 0 L 595.32 841.92 L .000008871 841.92 Z " fill-rule="evenodd"/>
</clipPath>
<g clip-path="url(#cp914)">
<text xml:space="preserve" transform="matrix(1 0 -0 1 0 841.92)" font-size="14.04" font-family="Times New Roman"><tspan y="-192.86" x="494.62 501.6821 508.64595 514.05136 521.11349 528.1756 534.29708 538.97238 545.9362 552.9001">b&#x043e;shq&#x0430;ruv </tspan></text>
</g>
<clipPath id="cp915">
<path transform="matrix(1,0,0,-1,0,841.92)" d="M .000008871 0 L 595.32 0 L 595.32 841.92 L .000008871 841.92 Z " fill-rule="evenodd"/>
</clipPath>
<g clip-path="url(#cp915)">
<text xml:space="preserve" transform="matrix(1 0 -0 1 0 841.92)" font-size="14.04" font-family="Times New Roman"><tspan y="-168.74" x="85.104 92.166118 98.39987 104.52131 108.46655 113.14188 119.26331 123.20856 129.44232 134.00533 137.95056 144.9144 148.85964 153.28223 160.34435 166.46579 170.41103 174.83362 181.79746 185.64441 189.58965 193.4366 198.94028 205.90412 210.3267 217.38883 223.62259 230.58643 237.55027 244.61238 249.03498 253.7103 257.55726 264.61936 271.68147 275.40205 279.34727 285.58103 292.54487 299.60697 305.7284 312.7905 317.2131 324.17695 330.4107 335.9284 339.77537 346.83747 351.40046 355.34568 362.18315 366.60575 370.55097 376.78474 381.46006 392.1445 396.08973 403.15184 407.09706 413.3308 420.29466 424.23988 429.64527 436.70738 440.21739 444.6119 451.674 455.52098 460.92637 467.98847 474.9523 478.89753 485.01896 490.5226 497.58473 501.89503 505.84025 512.074 519.03787 526.0017 529.94699 536.9108 543.1446 548.4377 552.28469">v&#x0430;zif&#x0430;l&#x0430;rini h&#x0430;l qilish uchun riv&#x043e;jl&#x0430;ng&#x0430;n d&#x0430;sturiy t&#x0430;&#x2019;minl&#x0430;nish, his&#x043e;bl&#x0430;sh t&#x0435;&#x0445;nik&#x0430;si </tspan></text>
</g>
<clipPath id="cp916">
<path transform="matrix(1,0,0,-1,0,841.92)" d="M .000008871 0 L 595.32 0 L 595.32 841.92 L .000008871 841.92 Z " fill-rule="evenodd"/>
</clipPath>
<g clip-path="url(#cp916)">
<text xml:space="preserve" transform="matrix(1 0 -0 1 0 841.92)" font-size="14.04" font-family="Times New Roman"><tspan y="-144.5" x="85.104 92.166118 98.39987 109.070278 115.30403 119.15099 126.11483 133.17694 139.4107 146.37454 150.2215 157.28362 164.34574 175.01613 179.57913 186.64125 193.47873 200.54085 206.77462 210.71985 216.95362 223.91745 227.7644 231.70964 238.67348 244.90724 251.98342 262.6538 269.61766">v&#x0430; &#x0430;l&#x043e;q&#x0430;ning f&#x043e;yd&#x0430;l&#x0430;nilg&#x0430;n v&#x043e;</tspan></text>
</g>
<clipPath id="cp917">
<path transform="matrix(1,0,0,-1,0,841.92)" d="M .000008871 0 L 595.32 0 L 595.32 841.92 L .000008871 841.92 Z " fill-rule="evenodd"/>
</clipPath>
<g clip-path="url(#cp917)">
<text xml:space="preserve" transform="matrix(1 0 -0 1 0 841.92)" font-size="14.04" font-family="Times New Roman"><tspan y="-144.5" x="276.77 282.27366 286.1206 290.06584 296.18727 300.13249 306.36625 310.92924 314.87446 325.54487 332.60697 338.84074 349.52519 356.58729 362.82106 373.49147 379.72523 386.80137 393.7652 400.8273 405.3903 412.4524 416.29936 420.24458 426.47834 431.04133 438.10343 441.95039 452.7331 463.41755 467.36277 471.20973 478.27183 484.50559 488.4508 494.68458 499.3599 506.33778 512.57156 523.24197 527.1872 533.30868 540.3708 544.2178 548.06478 552.62777">sit&#x0430;l&#x0430;ri h&#x0430;md&#x0430; &#x0430;&#x0445;b&#x043e;r&#x043e;tl&#x0430;rni mij&#x043e;zl&#x0430;rg&#x0430; t&#x0430;klif </tspan></text>
</g>
<clipPath id="cp918">
<path transform="matrix(1,0,0,-1,0,841.92)" d="M .000008871 0 L 595.32 0 L 595.32 841.92 L .000008871 841.92 Z " fill-rule="evenodd"/>
</clipPath>
<g clip-path="url(#cp918)">
<text xml:space="preserve" transform="matrix(1 0 -0 1 0 841.92)" font-size="14.04" font-family="Times New Roman"><tspan y="-120.38" x="85.104 92.166118 96.01308 99.95832 103.80528 109.210689 116.272808 123.23664 127.0836 134.14572 141.20784 145.39176 152.35559 157.76099 164.8231 168.67006 172.6153 178.84906 183.41207 187.3573 194.32114 198.26638 202.45029 209.5124">qilishning usull&#x0430;rini qo</tspan></text>
</g>
<clipPath id="cp919">
<path transform="matrix(1,0,0,-1,0,841.92)" d="M .000008871 0 L 595.32 0 L 595.32 841.92 L .000008871 841.92 Z " fill-rule="evenodd"/>
</clipPath>
<g clip-path="url(#cp919)">
<text xml:space="preserve" transform="matrix(1 0 -0 1 0 841.92)" font-size="14.04" font-family="Times New Roman"><tspan y="-120.38" x="216.77">&#x2019;</tspan></text>
</g>
<clipPath id="cp920">
<path transform="matrix(1,0,0,-1,0,841.92)" d="M .000008871 0 L 595.32 0 L 595.32 841.92 L .000008871 841.92 Z " fill-rule="evenodd"/>
</clipPath>
<g clip-path="url(#cp920)">
<text xml:space="preserve" transform="matrix(1 0 -0 1 0 841.92)" font-size="14.04" font-family="Times New Roman"><tspan y="-120.38" x="221.33 225.17696 229.1222 235.35596 240.76136 247.82347 252.00739 258.24116 263.64656 270.61039 276.11405 279.961 287.0231 293.25688 297.45484 303.6886 310.65245 317.61628 324.5801 329.25544 336.33158 340.17854 344.12376 350.3575 354.9205 361.88435 365.82957 370.0135 376.85096 380.79618">ll&#x0430;sh &#x0430;s&#x043e;sid&#x0430; &#x0430;&#x0445;b&#x043e;r&#x043e;tl&#x0430;rni yig</tspan></text>
</g>
<clipPath id="cp921">
<path transform="matrix(1,0,0,-1,0,841.92)" d="M .000008871 0 L 595.32 0 L 595.32 841.92 L .000008871 841.92 Z " fill-rule="evenodd"/>
</clipPath>
<g clip-path="url(#cp921)">
<text xml:space="preserve" transform="matrix(1 0 -0 1 0 841.92)" font-size="14.04" font-family="Times New Roman"><tspan y="-120.38" x="388.03">&#x2019;</tspan></text>
</g>
<clipPath id="cp922">
<path transform="matrix(1,0,0,-1,0,841.92)" d="M .000008871 0 L 595.32 0 L 595.32 841.92 L .000008871 841.92 Z " fill-rule="evenodd"/>
</clipPath>
<g clip-path="url(#cp922)">
<text xml:space="preserve" transform="matrix(1 0 -0 1 0 841.92)" font-size="14.04" font-family="Times New Roman"><tspan y="-120.38" x="392.59 396.53523 402.03889 409.10099 412.611 416.76686 421.44218">ish, ro</tspan></text>
</g>
<clipPath id="cp923">
<path transform="matrix(1,0,0,-1,0,841.92)" d="M .000008871 0 L 595.32 0 L 595.32 841.92 L .000008871 841.92 Z " fill-rule="evenodd"/>
</clipPath>
<g clip-path="url(#cp923)">
<text xml:space="preserve" transform="matrix(1 0 -0 1 0 841.92)" font-size="14.04" font-family="Times New Roman"><tspan y="-120.38" x="428.59">&#x2019;</tspan></text>
</g>
<clipPath id="cp924">
<path transform="matrix(1,0,0,-1,0,841.92)" d="M .000008871 0 L 595.32 0 L 595.32 841.92 L .000008871 841.92 Z " fill-rule="evenodd"/>
</clipPath>
<g clip-path="url(#cp924)">
<text xml:space="preserve" transform="matrix(1 0 -0 1 0 841.92)" font-size="14.04" font-family="Times New Roman"><tspan y="-120.38" x="433.15 439.98747 447.17594 453.4097 457.35493 464.31877 470.55253 474.7505 481.8126 485.65956 489.60478 495.01017 502.07228 505.58229 509.73814 516.80026 523.034 529.15548 533.00247 536.9477 542.3531 549.4152 552.7708">yh&#x0430;tg&#x0430; &#x043e;lish, uz&#x0430;tish, </tspan></text>
</g>
<clipPath id="cp925">
<path transform="matrix(1,0,0,-1,0,841.92)" d="M .000008871 0 L 595.32 0 L 595.32 841.92 L .000008871 841.92 Z " fill-rule="evenodd"/>
</clipPath>
<g clip-path="url(#cp925)">
<text xml:space="preserve" transform="matrix(1 0 -0 1 0 841.92)" font-size="14.04" font-family="Times New Roman"><tspan y="-96.264" x="85.104 88.95096 95.297039 105.981479 109.92672 116.16048 121.6782 128.74031 132.2503 138.44194 145.50406 149.35102 156.41313 160.35837 164.92137 168.76833 174.272 181.33412 184.84412 191.03575 194.98099 200.38639 207.35022 211.29546 217.52922 224.6054 230.8251 237.05887 244.0227 247.86966 254.93178 258.77876 264.2824 271.3445 277.56425 284.62635 290.8601 297.09388 304.15599 308.1012 318.78565 325.84776 332.6852 338.91899 342.8642 349.09797 354.61567 361.67778 367.8975 374.9596 382.0217 388.14314 392.81846 399.05223 402.89918 408.30458 412.2498 419.08726 425.321 429.26625 435.5 440.17533 444.02229 451.08439 455.0296 461.3757 467.60948 478.2939 484.52769 488.4729 495.535 501.76878 508.00254 515.06466 520.47006 527.4339 531.37918 536.05447 539.9014 545.3068 552.2707">j&#x0430;ml&#x0430;sh, qidirish, ishl&#x0430;b chiqish v&#x0430; him&#x043e;yal&#x0430;sh &#x043e;p&#x0435;r&#x0430;tsiyal&#x0430;rini &#x0430;m&#x0430;lg&#x0430; &#x043e;shirish </tspan></text>
</g>
<clipPath id="cp926">
<path transform="matrix(1,0,0,-1,0,841.92)" d="M .000008871 0 L 595.32 0 L 595.32 841.92 L .000008871 841.92 Z " fill-rule="evenodd"/>
</clipPath>
<g clip-path="url(#cp926)">
<text xml:space="preserve" transform="matrix(1 0 -0 1 0 841.92)" font-size="14.04" font-family="Times New Roman"><tspan y="-72.144" x="85.104 92.166118 97.57152 104.535358 108.4806 112.42584 118.6596 123.2226 127.16785 130.5234 137.58553 143.81929 147.32929 154.26505 161.32717 166.73256 170.57952 174.52475 180.75852 184.60547 190.83924 195.51456 199.36151 206.32535 210.27059 217.23442 224.29654 227.80654 231.61138 235.55661 241.67806 245.62329 256.30775 260.37934 267.2168 270.7268 274.6299 280.86369 286.40946 293.3733 300.4354 304.28236">usull&#x0430;ri v&#x0430; v&#x043e;sit&#x0430;l&#x0430;rining tizimiy t&#x0430;shkil</tspan></text>
</g>
<clipPath id="cp927">
<path transform="matrix(1,0,0,-1,0,841.92)" d="M .000008871 0 L 595.32 0 L 595.32 841.92 L .000008871 841.92 Z " fill-rule="evenodd"/>
</clipPath>
<g clip-path="url(#cp927)">
<text xml:space="preserve" transform="matrix(1 0 -0 1 0 841.92)" font-size="14.04" font-family="Times New Roman"><tspan y="-72.144" x="308.45"> </tspan></text>
</g>
<clipPath id="cp928">
<path transform="matrix(1,0,0,-1,0,841.92)" d="M .000008871 0 L 595.32 0 L 595.32 841.92 L .000008871 841.92 Z " fill-rule="evenodd"/>
</clipPath>
<g clip-path="url(#cp928)">
<text xml:space="preserve" transform="matrix(1 0 -0 1 0 841.92)" font-size="14.04" font-family="Times New Roman"><tspan y="-72.144" x="311.93 318.89384 322.74079 326.58775 330.53297 337.4968 344.5589 350.68034 357.74244 361.25245 371.9088 378.14259 382.0878 392.77226 399.83436 403.77958 410.84169 414.7869 419.46223">qiling&#x0430;n m&#x0430;jmuidir.</tspan></text>
</g>
<clipPath id="cp929">
<path transform="matrix(1,0,0,-1,0,841.92)" d="M .000008871 0 L 595.32 0 L 595.32 841.92 L .000008871 841.92 Z " fill-rule="evenodd"/>
</clipPath>
<g clip-path="url(#cp929)">
<text xml:space="preserve" transform="matrix(1 0 -0 1 0 841.92)" font-size="14.04" font-family="Times New Roman"><tspan y="-72.144" x="423.07"> </tspan></text>
</g>
</g>
</g>
</g>
</svg>
