<?xml version="1.0" encoding="UTF-8" standalone="no"?>
<!DOCTYPE svg PUBLIC "-//W3C//DTD SVG 1.1//EN" "http://www.w3.org/Graphics/SVG/1.1/DTD/svg11.dtd">
<svg xmlns="http://www.w3.org/2000/svg" xmlns:xlink="http://www.w3.org/1999/xlink" version="1.1" width="960pt" height="540pt" viewBox="0 0 960 540">
<g enable-background="new">
<g>
<g id="Layer-1" data-name="P">
<clipPath id="cp388">
<path transform="matrix(1,0,0,-1,0,540)" d="M 0 .00012207 L 960 .00012207 L 960 540.0001 L 0 540.0001 Z " fill-rule="evenodd"/>
</clipPath>
<g clip-path="url(#cp388)">
<path transform="matrix(1,0,0,-1,0,540)" d="M 0 .000006104 L 960 .000006104 L 960 540 L 0 540 Z " fill="#ffffff" fill-rule="evenodd"/>
</g>
</g>
<g id="Layer-1" data-name="P">
<clipPath id="cp389">
<path transform="matrix(1,0,0,-1,0,540)" d="M 0 .00012207 L 960 .00012207 L 960 540.0001 L 0 540.0001 Z " fill-rule="evenodd"/>
</clipPath>
<g clip-path="url(#cp389)">
<path transform="matrix(1,0,0,-1,0,540)" stroke-width=".75075" stroke-linecap="round" stroke-linejoin="round" fill="none" stroke="#cbcbcb" d="M 737.87 540 L 833.87 .000006104 "/>
</g>
</g>
<g id="Layer-1" data-name="P">
<clipPath id="cp390">
<path transform="matrix(1,0,0,-1,0,540)" d="M 0 .00012207 L 960 .00012207 L 960 540.0001 L 0 540.0001 Z " fill-rule="evenodd"/>
</clipPath>
<g clip-path="url(#cp390)">
<path transform="matrix(1,0,0,-1,0,540)" stroke-width=".75075" stroke-linecap="round" stroke-linejoin="round" fill="none" stroke="#e0e0e0" d="M 959.75 250.12 L 584.67 .000006104 "/>
</g>
</g>
<g id="Layer-1" data-name="P">
<clipPath id="cp391">
<path transform="matrix(1,0,0,-1,0,540)" d="M 0 .00012207 L 960 .00012207 L 960 540.0001 L 0 540.0001 Z " fill-rule="evenodd"/>
</clipPath>
<g clip-path="url(#cp391)">
<path transform="matrix(1,0,0,-1,0,540)" d="M 884.02 540.67 L 959.75 540.67 L 959.75 .000006104 L 722.95 .000006104 L 884.02 540.67 Z " fill="#90c226" fill-opacity=".30196" fill-rule="evenodd"/>
</g>
</g>
<g id="Layer-1" data-name="P">
<clipPath id="cp392">
<path transform="matrix(1,0,0,-1,0,540)" d="M 0 .00012207 L 960 .00012207 L 960 540.0001 L 0 540.0001 Z " fill-rule="evenodd"/>
</clipPath>
<g clip-path="url(#cp392)">
<path transform="matrix(1,0,0,-1,0,540)" d="M 756.18 540.67 L 960 540.67 L 960 .000006104 L 851.41 .000006104 L 756.18 540.67 Z " fill="#90c226" fill-opacity=".2" fill-rule="evenodd"/>
</g>
</g>
<g id="Layer-1" data-name="P">
<clipPath id="cp393">
<path transform="matrix(1,0,0,-1,0,540)" d="M 0 .00012207 L 960 .00012207 L 960 540.0001 L 0 540.0001 Z " fill-rule="evenodd"/>
</clipPath>
<g clip-path="url(#cp393)">
<path transform="matrix(1,0,0,-1,0,540)" d="M 703.33 .000006104 L 960 300 L 960 .000006104 Z " fill="#54a021" fill-opacity=".72157" fill-rule="evenodd"/>
</g>
</g>
<g id="Layer-1" data-name="P">
<clipPath id="cp394">
<path transform="matrix(1,0,0,-1,0,540)" d="M 0 .00012207 L 960 .00012207 L 960 540.0001 L 0 540.0001 Z " fill-rule="evenodd"/>
</clipPath>
<g clip-path="url(#cp394)">
<path transform="matrix(1,0,0,-1,0,540)" d="M 735 540.67 L 959.75 540.67 L 959.75 .000006104 L 929.55 .000006104 L 735 540.67 Z " fill="#3f7819" fill-opacity=".70196" fill-rule="evenodd"/>
</g>
</g>
<g id="Layer-1" data-name="P">
<clipPath id="cp395">
<path transform="matrix(1,0,0,-1,0,540)" d="M 0 .00012207 L 960 .00012207 L 960 540.0001 L 0 540.0001 Z " fill-rule="evenodd"/>
</clipPath>
<g clip-path="url(#cp395)">
<path transform="matrix(1,0,0,-1,0,540)" d="M 938.46 540.67 L 959.75 540.67 L 959.75 .000006104 L 858.17 .000006104 L 938.46 540.67 Z " fill="#c0e474" fill-opacity=".70196" fill-rule="evenodd"/>
</g>
</g>
<g id="Layer-1" data-name="P">
<clipPath id="cp396">
<path transform="matrix(1,0,0,-1,0,540)" d="M 0 .00012207 L 960 .00012207 L 960 540.0001 L 0 540.0001 Z " fill-rule="evenodd"/>
</clipPath>
<g clip-path="url(#cp396)">
<path transform="matrix(1,0,0,-1,0,540)" d="M 861.34 540.67 L 959.75 540.67 L 959.75 .000006104 L 948.69 .000006104 L 861.34 540.67 Z " fill="#90c226" fill-opacity=".65098" fill-rule="evenodd"/>
</g>
</g>
<g id="Layer-1" data-name="P">
<clipPath id="cp397">
<path transform="matrix(1,0,0,-1,0,540)" d="M 0 .00012207 L 960 .00012207 L 960 540.0001 L 0 540.0001 Z " fill-rule="evenodd"/>
</clipPath>
<g clip-path="url(#cp397)">
<path transform="matrix(1,0,0,-1,0,540)" d="M 816.67 .000006104 L 959.75 257.33 L 959.75 .000006104 Z " fill="#90c226" fill-opacity=".8" fill-rule="evenodd"/>
</g>
</g>
<g id="Layer-1" data-name="P">
<clipPath id="cp398">
<path transform="matrix(1,0,0,-1,0,540)" d="M 0 .00012207 L 960 .00012207 L 960 540.0001 L 0 540.0001 Z " fill-rule="evenodd"/>
</clipPath>
<g clip-path="url(#cp398)">
<path transform="matrix(1,0,0,-1,0,540)" d="M 0 .000006104 L 0 224 L 35.333 .000006104 Z " fill="#90c226" fill-opacity=".85098" fill-rule="evenodd"/>
</g>
</g>
<g id="Layer-1" data-name="P">
<text fill="#90c226" xml:space="preserve" transform="matrix(1 0 -0 1 0 540)" font-size="36.05" font-family="Trebuchet MS"><tspan y="-453.02" x="265.5 289.5093 303.7851 314.27568 332.26463">Osiyo</tspan></text>
<text fill="#90c226" xml:space="preserve" transform="matrix(1 0 -0 1 0 540)" font-size="36.05" font-family="Trebuchet MS"><tspan y="-453.02" x="351.8"> </tspan></text>
<text fill="#90c226" xml:space="preserve" transform="matrix(1 0 -0 1 0 540)" font-size="36.05" font-family="Trebuchet MS"><tspan y="-453.02" x="361.58 391.5015 402.10023 421.6393 435.9151 454.69715 474.9212 493.70326 507.97904">mintaqasi</tspan></text>
</g>
<g id="Layer-1" data-name="P">
<text fill="#90c226" xml:space="preserve" transform="matrix(1 0 -0 1 0 540)" font-size="36.05" font-family="Trebuchet MS"><tspan y="-453.02" x="518.45"> </tspan></text>
</g>
<g id="Layer-1" data-name="P">
<path transform="matrix(1,0,0,-1,0,540)" d="M 35.663 304.39 L 189.00299 304.39 L 189.00299 372.45503 L 35.663 372.45503 Z " fill="#cccc99" fill-rule="evenodd"/>
<path transform="matrix(1,0,0,-1,0,540)" d="M 189.01 304.39 L 292.36 304.39 L 292.36 372.45503 L 189.01 372.45503 Z " fill="#cccc99" fill-rule="evenodd"/>
<path transform="matrix(1,0,0,-1,0,540)" d="M 292.36 304.39 L 386.163 304.39 L 386.163 372.45503 L 292.36 372.45503 Z " fill="#cccc99" fill-rule="evenodd"/>
<path transform="matrix(1,0,0,-1,0,540)" d="M 386.16 304.39 L 517.6 304.39 L 517.6 372.45503 L 386.16 372.45503 Z " fill="#cccc99" fill-rule="evenodd"/>
<path transform="matrix(1,0,0,-1,0,540)" d="M 517.6 304.39 L 601.57498 304.39 L 601.57498 372.45503 L 517.6 372.45503 Z " fill="#cccc99" fill-rule="evenodd"/>
<path transform="matrix(1,0,0,-1,0,540)" d="M 601.57 304.39 L 680.299 304.39 L 680.299 372.45503 L 601.57 372.45503 Z " fill="#cccc99" fill-rule="evenodd"/>
<path transform="matrix(1,0,0,-1,0,540)" d="M 680.3 304.39 L 785.94 304.39 L 785.94 372.45503 L 680.3 372.45503 Z " fill="#cccc99" fill-rule="evenodd"/>
<path transform="matrix(1,0,0,-1,0,540)" d="M 35.663 266.33 L 189.00299 266.33 L 189.00299 304.382 L 35.663 304.382 Z " fill="#ffffff" fill-rule="evenodd"/>
<path transform="matrix(1,0,0,-1,0,540)" d="M 189.01 266.33 L 292.36 266.33 L 292.36 304.382 L 189.01 304.382 Z " fill="#ffffff" fill-rule="evenodd"/>
<path transform="matrix(1,0,0,-1,0,540)" d="M 292.36 266.33 L 386.163 266.33 L 386.163 304.382 L 292.36 304.382 Z " fill="#ffffff" fill-rule="evenodd"/>
<path transform="matrix(1,0,0,-1,0,540)" d="M 386.16 266.33 L 517.6 266.33 L 517.6 304.382 L 386.16 304.382 Z " fill="#ffffff" fill-rule="evenodd"/>
<path transform="matrix(1,0,0,-1,0,540)" d="M 517.6 266.33 L 601.57498 266.33 L 601.57498 304.382 L 517.6 304.382 Z " fill="#ffffff" fill-rule="evenodd"/>
<path transform="matrix(1,0,0,-1,0,540)" d="M 601.57 266.33 L 680.299 266.33 L 680.299 304.382 L 601.57 304.382 Z " fill="#ffffff" fill-rule="evenodd"/>
<path transform="matrix(1,0,0,-1,0,540)" d="M 680.3 266.33 L 785.94 266.33 L 785.94 304.382 L 680.3 304.382 Z " fill="#ffffff" fill-rule="evenodd"/>
<path transform="matrix(1,0,0,-1,0,540)" d="M 35.663 198.27 L 189.00299 198.27 L 189.00299 266.33503 L 35.663 266.33503 Z " fill="#f1f1f1" fill-rule="evenodd"/>
<path transform="matrix(1,0,0,-1,0,540)" d="M 189.01 198.27 L 292.36 198.27 L 292.36 266.33503 L 189.01 266.33503 Z " fill="#f1f1f1" fill-rule="evenodd"/>
<path transform="matrix(1,0,0,-1,0,540)" d="M 292.36 198.27 L 386.163 198.27 L 386.163 266.33503 L 292.36 266.33503 Z " fill="#f1f1f1" fill-rule="evenodd"/>
<path transform="matrix(1,0,0,-1,0,540)" d="M 386.16 198.27 L 517.6 198.27 L 517.6 266.33503 L 386.16 266.33503 Z " fill="#f1f1f1" fill-rule="evenodd"/>
<path transform="matrix(1,0,0,-1,0,540)" d="M 517.6 198.27 L 601.57498 198.27 L 601.57498 266.33503 L 517.6 266.33503 Z " fill="#f1f1f1" fill-rule="evenodd"/>
<path transform="matrix(1,0,0,-1,0,540)" d="M 601.57 198.27 L 680.299 198.27 L 680.299 266.33503 L 601.57 266.33503 Z " fill="#f1f1f1" fill-rule="evenodd"/>
<path transform="matrix(1,0,0,-1,0,540)" d="M 680.3 198.27 L 785.94 198.27 L 785.94 266.33503 L 680.3 266.33503 Z " fill="#f1f1f1" fill-rule="evenodd"/>
<path transform="matrix(1,0,0,-1,0,540)" d="M 35.663 130.21 L 189.00299 130.21 L 189.00299 198.27501 L 35.663 198.27501 Z " fill="#d5d6d5" fill-rule="evenodd"/>
<path transform="matrix(1,0,0,-1,0,540)" d="M 189.01 130.21 L 292.36 130.21 L 292.36 198.27501 L 189.01 198.27501 Z " fill="#d5d6d5" fill-rule="evenodd"/>
<path transform="matrix(1,0,0,-1,0,540)" d="M 292.36 130.21 L 386.163 130.21 L 386.163 198.27501 L 292.36 198.27501 Z " fill="#d5d6d5" fill-rule="evenodd"/>
<path transform="matrix(1,0,0,-1,0,540)" d="M 386.16 130.21 L 517.6 130.21 L 517.6 198.27501 L 386.16 198.27501 Z " fill="#d5d6d5" fill-rule="evenodd"/>
<path transform="matrix(1,0,0,-1,0,540)" d="M 517.6 130.21 L 601.57498 130.21 L 601.57498 198.27501 L 517.6 198.27501 Z " fill="#d5d6d5" fill-rule="evenodd"/>
<path transform="matrix(1,0,0,-1,0,540)" d="M 601.57 130.21 L 680.299 130.21 L 680.299 198.27501 L 601.57 198.27501 Z " fill="#d5d6d5" fill-rule="evenodd"/>
<path transform="matrix(1,0,0,-1,0,540)" d="M 680.3 130.21 L 785.94 130.21 L 785.94 198.27501 L 680.3 198.27501 Z " fill="#d5d6d5" fill-rule="evenodd"/>
</g>
<g id="Layer-1" data-name="P">
<clipPath id="cp399">
<path transform="matrix(1,0,0,-1,0,540)" d="M 36 292.5 L 189 292.5 L 189 384.75 L 36 384.75 Z " fill-rule="evenodd"/>
</clipPath>
<g clip-path="url(#cp399)">
<text xml:space="preserve" transform="matrix(1 0 -0 1 0 540)" font-size="14.275" font-family="Arial,Bold" font-weight="bold"><tspan y="-333.02" x="73.275 83.76713 92.7461 105.4794 109.23373 117.4704 126.44937 130.20369 138.44037 146.69133">Nomlanishi</tspan></text>
</g>
<clipPath id="cp400">
<path transform="matrix(1,0,0,-1,0,540)" d="M 36 292.5 L 189 292.5 L 189 384.75 L 36 384.75 Z " fill-rule="evenodd"/>
</clipPath>
<g clip-path="url(#cp400)">
<text xml:space="preserve" transform="matrix(1 0 -0 1 0 540)" font-size="14.275" font-family="Trebuchet MS"><tspan y="-333.02" x="150.58"> </tspan></text>
</g>
</g>
<g id="Layer-1" data-name="P">
<clipPath id="cp401">
<path transform="matrix(1,0,0,-1,0,540)" d="M 189 296.25 L 292.5 296.25 L 292.5 380.25 L 189 380.25 Z " fill-rule="evenodd"/>
</clipPath>
<g clip-path="url(#cp401)">
<text xml:space="preserve" transform="matrix(1 0 -0 1 0 540)" font-size="14.275" font-family="Arial,Bold" font-weight="bold"><tspan y="-333.02" x="206.48 216.98639 225.99393 235.00147 238.75579">Aholi</tspan></text>
</g>
<clipPath id="cp402">
<path transform="matrix(1,0,0,-1,0,540)" d="M 189 296.25 L 292.5 296.25 L 292.5 380.25 L 189 380.25 Z " fill-rule="evenodd"/>
</clipPath>
<g clip-path="url(#cp402)">
<text xml:space="preserve" transform="matrix(1 0 -0 1 0 540)" font-size="14.275" font-family="Arial,Bold" font-weight="bold"><tspan y="-333.02" x="242.5"> </tspan></text>
</g>
<clipPath id="cp403">
<path transform="matrix(1,0,0,-1,0,540)" d="M 189 296.25 L 292.5 296.25 L 292.5 380.25 L 189 380.25 Z " fill-rule="evenodd"/>
</clipPath>
<g clip-path="url(#cp403)">
<text xml:space="preserve" transform="matrix(1 0 -0 1 0 540)" font-size="14.275" font-family="Arial,Bold" font-weight="bold"><tspan y="-333.02" x="244.75 253.01523 262.02275 271.03025">soni</tspan></text>
</g>
<clipPath id="cp404">
<path transform="matrix(1,0,0,-1,0,540)" d="M 189 296.25 L 292.5 296.25 L 292.5 380.25 L 189 380.25 Z " fill-rule="evenodd"/>
</clipPath>
<g clip-path="url(#cp404)">
<text xml:space="preserve" transform="matrix(1 0 -0 1 0 540)" font-size="14.275" font-family="Trebuchet MS"><tspan y="-333.02" x="274.77"> </tspan></text>
</g>
</g>
<g id="Layer-1" data-name="P">
<clipPath id="cp405">
<path transform="matrix(1,0,0,-1,0,540)" d="M 292.5 308.25 L 386.25 308.25 L 386.25 369 L 292.5 369 Z " fill-rule="evenodd"/>
</clipPath>
<g clip-path="url(#cp405)">
<text xml:space="preserve" transform="matrix(1 0 -0 1 0 540)" font-size="14.275" font-family="Arial,Bold" font-weight="bold"><tspan y="-333.02" x="315.88 324.85899 333.83796 337.5923 345.0724 354.05137">Foizda</tspan></text>
</g>
<clipPath id="cp406">
<path transform="matrix(1,0,0,-1,0,540)" d="M 292.5 308.25 L 386.25 308.25 L 386.25 369 L 292.5 369 Z " fill-rule="evenodd"/>
</clipPath>
<g clip-path="url(#cp406)">
<text xml:space="preserve" transform="matrix(1 0 -0 1 0 540)" font-size="14.275" font-family="Trebuchet MS"><tspan y="-333.02" x="362.42"> </tspan></text>
</g>
</g>
<g id="Layer-1" data-name="P">
<clipPath id="cp407">
<path transform="matrix(1,0,0,-1,0,540)" d="M 386.25 264 L 517.5 264 L 517.5 412.5 L 386.25 412.5 Z " fill-rule="evenodd"/>
</clipPath>
<g clip-path="url(#cp407)">
<text xml:space="preserve" transform="matrix(1 0 -0 1 0 540)" font-size="14.25" font-family="Arial,Bold" font-weight="bold"><tspan y="-341.45" x="425.52 429.26774 438.27375 442.80525 451.07026 456.34275 465.34877 473.61378">Internet</tspan></text>
</g>
<clipPath id="cp408">
<path transform="matrix(1,0,0,-1,0,540)" d="M 386.25 264 L 517.5 264 L 517.5 412.5 L 386.25 412.5 Z " fill-rule="evenodd"/>
</clipPath>
<g clip-path="url(#cp408)">
<text xml:space="preserve" transform="matrix(1 0 -0 1 0 540)" font-size="14.25" font-family="Arial,Bold" font-weight="bold"><tspan y="-341.45" x="478.05"> </tspan></text>
</g>
<clipPath id="cp409">
<path transform="matrix(1,0,0,-1,0,540)" d="M 386.25 264 L 517.5 264 L 517.5 412.5 L 386.25 412.5 Z " fill-rule="evenodd"/>
</clipPath>
<g clip-path="url(#cp409)">
<text xml:space="preserve" transform="matrix(1 0 -0 1 0 540)" font-size="14.25" font-family="Arial,Bold" font-weight="bold"><tspan y="-324.17" x="394 398.5315 407.5375 415.06153 424.06755 432.33256 436.0803 444.3453 453.35133 462.35734 469.88136 477.40538 486.41139 490.15913 493.90687 501.43089 506.70338">foydalanuvchilari</tspan></text>
</g>
<clipPath id="cp410">
<path transform="matrix(1,0,0,-1,0,540)" d="M 386.25 264 L 517.5 264 L 517.5 412.5 L 386.25 412.5 Z " fill-rule="evenodd"/>
</clipPath>
<g clip-path="url(#cp410)">
<text xml:space="preserve" transform="matrix(1 0 -0 1 0 540)" font-size="14.25" font-family="Trebuchet MS"><tspan y="-324.17" x="510.33"> </tspan></text>
</g>
</g>
<g id="Layer-1" data-name="P">
<clipPath id="cp411">
<path transform="matrix(1,0,0,-1,0,540)" d="M 517.5 308.25 L 601.5 308.25 L 601.5 369 L 517.5 369 Z " fill-rule="evenodd"/>
</clipPath>
<g clip-path="url(#cp411)">
<text xml:space="preserve" transform="matrix(1 0 -0 1 0 540)" font-size="14.275" font-family="Arial,Bold" font-weight="bold"><tspan y="-333.02" x="536.8 545.779 554.758 558.5123 565.99246 574.97146">Foizda</tspan></text>
</g>
<clipPath id="cp412">
<path transform="matrix(1,0,0,-1,0,540)" d="M 517.5 308.25 L 601.5 308.25 L 601.5 369 L 517.5 369 Z " fill-rule="evenodd"/>
</clipPath>
<g clip-path="url(#cp412)">
<text xml:space="preserve" transform="matrix(1 0 -0 1 0 540)" font-size="14.275" font-family="Trebuchet MS"><tspan y="-333.02" x="583.35"> </tspan></text>
</g>
</g>
<g id="Layer-1" data-name="P">
<clipPath id="cp413">
<path transform="matrix(1,0,0,-1,0,540)" d="M 601.5 295.5 L 680.25 295.5 L 680.25 381 L 601.5 381 Z " fill-rule="evenodd"/>
</clipPath>
<g clip-path="url(#cp413)">
<text xml:space="preserve" transform="matrix(1 0 -0 1 0 540)" font-size="14.275" font-family="Arial,Bold" font-weight="bold"><tspan y="-333.02" x="606.58 617.843 626.8506 630.6049 634.35928 643.3668 651.632 653.88748 658.3841 671.14596">Online (%)</tspan></text>
</g>
<clipPath id="cp414">
<path transform="matrix(1,0,0,-1,0,540)" d="M 601.5 295.5 L 680.25 295.5 L 680.25 381 L 601.5 381 Z " fill-rule="evenodd"/>
</clipPath>
<g clip-path="url(#cp414)">
<text xml:space="preserve" transform="matrix(1 0 -0 1 0 540)" font-size="14.275" font-family="Trebuchet MS"><tspan y="-333.02" x="675.65"> </tspan></text>
</g>
</g>
<g id="Layer-1" data-name="P">
<clipPath id="cp415">
<path transform="matrix(1,0,0,-1,0,540)" d="M 680.25 282 L 786 282 L 786 395.25 L 680.25 395.25 Z " fill-rule="evenodd"/>
</clipPath>
<g clip-path="url(#cp415)">
<text xml:space="preserve" transform="matrix(1 0 -0 1 0 540)" font-size="14.25" font-family="Arial,Bold" font-weight="bold"><tspan y="-341.45" x="699.6 708.60598 716.8709 725.13589 733.4008 742.4068 750.68606 758.9653">Facebook</tspan></text>
</g>
<clipPath id="cp416">
<path transform="matrix(1,0,0,-1,0,540)" d="M 680.25 282 L 786 282 L 786 395.25 L 680.25 395.25 Z " fill-rule="evenodd"/>
</clipPath>
<g clip-path="url(#cp416)">
<text xml:space="preserve" transform="matrix(1 0 -0 1 0 540)" font-size="14.25" font-family="Arial,Bold" font-weight="bold"><tspan y="-341.45" x="767.15"> </tspan></text>
</g>
<clipPath id="cp417">
<path transform="matrix(1,0,0,-1,0,540)" d="M 680.25 282 L 786 282 L 786 395.25 L 680.25 395.25 Z " fill-rule="evenodd"/>
</clipPath>
<g clip-path="url(#cp417)">
<text xml:space="preserve" transform="matrix(1 0 -0 1 0 540)" font-size="14.25" font-family="Arial,Bold" font-weight="bold"><tspan y="-324.17" x="692.85 701.125">31</tspan></text>
</g>
<clipPath id="cp418">
<path transform="matrix(1,0,0,-1,0,540)" d="M 680.25 282 L 786 282 L 786 395.25 L 680.25 395.25 Z " fill-rule="evenodd"/>
</clipPath>
<g clip-path="url(#cp418)">
<text xml:space="preserve" transform="matrix(1 0 -0 1 0 540)" font-size="14.25" font-family="Arial,Bold" font-weight="bold"><tspan y="-324.17" x="709.35">-</tspan></text>
</g>
</g>
<g id="Layer-1" data-name="P">
<clipPath id="cp419">
<path transform="matrix(1,0,0,-1,0,540)" d="M 680.25 282 L 786 282 L 786 395.25 L 680.25 395.25 Z " fill-rule="evenodd"/>
</clipPath>
<g clip-path="url(#cp419)">
<text xml:space="preserve" transform="matrix(1 0 -0 1 0 540)" font-size="14.25" font-family="Arial,Bold" font-weight="bold"><tspan y="-324.17" x="713.85 722.89877 731.1352">&#x0434;&#x0435;&#x043a;</tspan></text>
</g>
</g>
<g id="Layer-1" data-name="P">
<clipPath id="cp420">
<path transform="matrix(1,0,0,-1,0,540)" d="M 680.25 282 L 786 282 L 786 395.25 L 680.25 395.25 Z " fill-rule="evenodd"/>
</clipPath>
<g clip-path="url(#cp420)">
<text xml:space="preserve" transform="matrix(1 0 -0 1 0 540)" font-size="14.25" font-family="Arial,Bold" font-weight="bold"><tspan y="-324.17" x="738.63">-</tspan></text>
</g>
</g>
<g id="Layer-1" data-name="P">
<clipPath id="cp421">
<path transform="matrix(1,0,0,-1,0,540)" d="M 680.25 282 L 786 282 L 786 395.25 L 680.25 395.25 Z " fill-rule="evenodd"/>
</clipPath>
<g clip-path="url(#cp421)">
<text xml:space="preserve" transform="matrix(1 0 -0 1 0 540)" font-size="14.25" font-family="Arial,Bold" font-weight="bold"><tspan y="-324.17" x="743.13 751.39498 758.91897 766.44296">2018</tspan></text>
</g>
</g>
<g id="Layer-1" data-name="P">
<clipPath id="cp422">
<path transform="matrix(1,0,0,-1,0,540)" d="M 680.25 282 L 786 282 L 786 395.25 L 680.25 395.25 Z " fill-rule="evenodd"/>
</clipPath>
<g clip-path="url(#cp422)">
<text xml:space="preserve" transform="matrix(1 0 -0 1 0 540)" font-size="14.25" font-family="Trebuchet MS"><tspan y="-324.17" x="774.65"> </tspan></text>
</g>
</g>
<g id="Layer-1" data-name="P">
<clipPath id="cp423">
<path transform="matrix(1,0,0,-1,0,540)" d="M 36 257.25 L 189 257.25 L 189 313.5 L 36 313.5 Z " fill-rule="evenodd"/>
</clipPath>
<g clip-path="url(#cp423)">
<text xml:space="preserve" transform="matrix(1 0 -0 1 0 540)" font-size="14.275" font-family="Arial,Bold" font-weight="bold"><tspan y="-279.9" x="92.025 103.25942 111.49609 115.25042 122.74479">Osiyo</tspan></text>
</g>
<clipPath id="cp424">
<path transform="matrix(1,0,0,-1,0,540)" d="M 36 257.25 L 189 257.25 L 189 313.5 L 36 313.5 Z " fill-rule="evenodd"/>
</clipPath>
<g clip-path="url(#cp424)">
<text xml:space="preserve" transform="matrix(1 0 -0 1 0 540)" font-size="14.275" font-family="Trebuchet MS"><tspan y="-279.9" x="131.83"> </tspan></text>
</g>
</g>
<g id="Layer-1" data-name="P">
<clipPath id="cp425">
<path transform="matrix(1,0,0,-1,0,540)" d="M 189 232.5 L 292.5 232.5 L 292.5 338.25 L 189 338.25 Z " fill-rule="evenodd"/>
</clipPath>
<g clip-path="url(#cp425)">
<text xml:space="preserve" transform="matrix(1 0 -0 1 0 540)" font-size="14.275" font-family="Arial,Bold" font-weight="bold"><tspan y="-279.9" x="198.9 207.13668 210.89099 219.12767 227.36435 235.60103 239.35535 247.59203 255.08641 263.3231 267.07743 274.57179 282.06614">4,241,972,790</tspan></text>
</g>
<clipPath id="cp426">
<path transform="matrix(1,0,0,-1,0,540)" d="M 189 232.5 L 292.5 232.5 L 292.5 338.25 L 189 338.25 Z " fill-rule="evenodd"/>
</clipPath>
<g clip-path="url(#cp426)">
<text xml:space="preserve" transform="matrix(1 0 -0 1 0 540)" font-size="14.275" font-family="Trebuchet MS"><tspan y="-279.9" x="290.48"> </tspan></text>
</g>
</g>
<g id="Layer-1" data-name="P">
<clipPath id="cp427">
<path transform="matrix(1,0,0,-1,0,540)" d="M 292.5 255 L 386.25 255 L 386.25 315.75 L 292.5 315.75 Z " fill-rule="evenodd"/>
</clipPath>
<g clip-path="url(#cp427)">
<text xml:space="preserve" transform="matrix(1 0 -0 1 0 540)" font-size="14.275" font-family="Arial"><tspan y="-279.9" x="340.63 348.86668 357.10334 360.85768 369.09434 371.34977">55.0 %</tspan></text>
</g>
<clipPath id="cp428">
<path transform="matrix(1,0,0,-1,0,540)" d="M 292.5 255 L 386.25 255 L 386.25 315.75 L 292.5 315.75 Z " fill-rule="evenodd"/>
</clipPath>
<g clip-path="url(#cp428)">
<text xml:space="preserve" transform="matrix(1 0 -0 1 0 540)" font-size="14.275" font-family="Trebuchet MS"><tspan y="-279.9" x="384.15"> </tspan></text>
</g>
</g>
<g id="Layer-1" data-name="P">
<clipPath id="cp429">
<path transform="matrix(1,0,0,-1,0,540)" d="M 386.25 232.5 L 517.5 232.5 L 517.5 338.25 L 386.25 338.25 Z " fill-rule="evenodd"/>
</clipPath>
<g clip-path="url(#cp429)">
<text xml:space="preserve" transform="matrix(1 0 -0 1 0 540)" font-size="14.275" font-family="Arial,Bold" font-weight="bold"><tspan y="-279.9" x="424 432.23667 435.991 444.22767 452.46434 460.701 464.45533 472.692 480.18635 488.423 492.17735 499.6717 507.16606">2,300,469,859</tspan></text>
</g>
<clipPath id="cp430">
<path transform="matrix(1,0,0,-1,0,540)" d="M 386.25 232.5 L 517.5 232.5 L 517.5 338.25 L 386.25 338.25 Z " fill-rule="evenodd"/>
</clipPath>
<g clip-path="url(#cp430)">
<text xml:space="preserve" transform="matrix(1 0 -0 1 0 540)" font-size="14.275" font-family="Trebuchet MS"><tspan y="-279.9" x="515.58"> </tspan></text>
</g>
</g>
<g id="Layer-1" data-name="P">
<clipPath id="cp431">
<path transform="matrix(1,0,0,-1,0,540)" d="M 517.5 255 L 601.5 255 L 601.5 315.75 L 517.5 315.75 Z " fill-rule="evenodd"/>
</clipPath>
<g clip-path="url(#cp431)">
<text xml:space="preserve" transform="matrix(1 0 -0 1 0 540)" font-size="14.275" font-family="Arial"><tspan y="-279.9" x="556.28 564.5167 572.7534 576.50778 584.74447 586.9999">54.2 %</tspan></text>
</g>
<clipPath id="cp432">
<path transform="matrix(1,0,0,-1,0,540)" d="M 517.5 255 L 601.5 255 L 601.5 315.75 L 517.5 315.75 Z " fill-rule="evenodd"/>
</clipPath>
<g clip-path="url(#cp432)">
<text xml:space="preserve" transform="matrix(1 0 -0 1 0 540)" font-size="14.275" font-family="Trebuchet MS"><tspan y="-279.9" x="599.83"> </tspan></text>
</g>
</g>
<g id="Layer-1" data-name="P">
<clipPath id="cp433">
<path transform="matrix(1,0,0,-1,0,540)" d="M 601.5 255 L 680.25 255 L 680.25 315.75 L 601.5 315.75 Z " fill-rule="evenodd"/>
</clipPath>
<g clip-path="url(#cp433)">
<text xml:space="preserve" transform="matrix(1 0 -0 1 0 540)" font-size="14.275" font-family="Arial"><tspan y="-279.9" x="635.08 643.3167 651.5534 655.30776 663.54446 665.79989">50.7 %</tspan></text>
</g>
<clipPath id="cp434">
<path transform="matrix(1,0,0,-1,0,540)" d="M 601.5 255 L 680.25 255 L 680.25 315.75 L 601.5 315.75 Z " fill-rule="evenodd"/>
</clipPath>
<g clip-path="url(#cp434)">
<text xml:space="preserve" transform="matrix(1 0 -0 1 0 540)" font-size="14.275" font-family="Trebuchet MS"><tspan y="-279.9" x="678.6"> </tspan></text>
</g>
</g>
<g id="Layer-1" data-name="P">
<clipPath id="cp435">
<path transform="matrix(1,0,0,-1,0,540)" d="M 680.25 238.5 L 786 238.5 L 786 332.25 L 680.25 332.25 Z " fill-rule="evenodd"/>
</clipPath>
<g clip-path="url(#cp435)">
<text xml:space="preserve" transform="matrix(1 0 -0 1 0 540)" font-size="14.275" font-family="Arial"><tspan y="-279.9" x="704.85 713.1152 721.3804 729.64559 733.3999 741.6651 749.9303 757.4532 761.2075 769.4727 776.9956">867,984,000</tspan></text>
</g>
<clipPath id="cp436">
<path transform="matrix(1,0,0,-1,0,540)" d="M 680.25 238.5 L 786 238.5 L 786 332.25 L 680.25 332.25 Z " fill-rule="evenodd"/>
</clipPath>
<g clip-path="url(#cp436)">
<text xml:space="preserve" transform="matrix(1 0 -0 1 0 540)" font-size="14.275" font-family="Trebuchet MS"><tspan y="-279.9" x="784.42"> </tspan></text>
</g>
</g>
<g id="Layer-1" data-name="P">
<clipPath id="cp437">
<path transform="matrix(1,0,0,-1,0,540)" d="M 36 161.25 L 189 161.25 L 189 303.75 L 36 303.75 Z " fill-rule="evenodd"/>
</clipPath>
<g clip-path="url(#cp437)">
<text xml:space="preserve" transform="matrix(1 0 -0 1 0 540)" font-size="14.25" font-family="Arial,Bold" font-weight="bold"><tspan y="-226.77" x="48.5 58.988004 67.97976 76.21626 85.208019 94.19977">Boshqa</tspan></text>
</g>
<clipPath id="cp438">
<path transform="matrix(1,0,0,-1,0,540)" d="M 36 161.25 L 189 161.25 L 189 303.75 L 36 303.75 Z " fill-rule="evenodd"/>
</clipPath>
<g clip-path="url(#cp438)">
<text xml:space="preserve" transform="matrix(1 0 -0 1 0 540)" font-size="14.25" font-family="Arial,Bold" font-weight="bold"><tspan y="-226.77" x="101.8"> </tspan></text>
</g>
<clipPath id="cp439">
<path transform="matrix(1,0,0,-1,0,540)" d="M 36 161.25 L 189 161.25 L 189 303.75 L 36 303.75 Z " fill-rule="evenodd"/>
</clipPath>
<g clip-path="url(#cp439)">
<text xml:space="preserve" transform="matrix(1 0 -0 1 0 540)" font-size="14.25" font-family="Arial,Bold" font-weight="bold"><tspan y="-226.77" x="104.05 116.789508 120.537258 129.529 134.03202 142.26853 151.26029 159.4968 163.24456 170.74005">mintaqalar</tspan></text>
</g>
<clipPath id="cp440">
<path transform="matrix(1,0,0,-1,0,540)" d="M 36 161.25 L 189 161.25 L 189 303.75 L 36 303.75 Z " fill-rule="evenodd"/>
</clipPath>
<g clip-path="url(#cp440)">
<text xml:space="preserve" transform="matrix(1 0 -0 1 0 540)" font-size="14.25" font-family="Trebuchet MS"><tspan y="-226.77" x="176.1"> </tspan></text>
</g>
</g>
<g id="Layer-1" data-name="P">
<clipPath id="cp441">
<path transform="matrix(1,0,0,-1,0,540)" d="M 189 179.25 L 292.5 179.25 L 292.5 285 L 189 285 Z " fill-rule="evenodd"/>
</clipPath>
<g clip-path="url(#cp441)">
<text xml:space="preserve" transform="matrix(1 0 -0 1 0 540)" font-size="14.25" font-family="Arial,Bold" font-weight="bold"><tspan y="-226.77" x="198.9 207.1365 210.88426 219.12078 227.35729 235.5938 239.34156 247.57807 255.07357 263.31007 267.0578 274.5533 282.04884">3,474,250,419</tspan></text>
</g>
<clipPath id="cp442">
<path transform="matrix(1,0,0,-1,0,540)" d="M 189 179.25 L 292.5 179.25 L 292.5 285 L 189 285 Z " fill-rule="evenodd"/>
</clipPath>
<g clip-path="url(#cp442)">
<text xml:space="preserve" transform="matrix(1 0 -0 1 0 540)" font-size="14.25" font-family="Trebuchet MS"><tspan y="-226.77" x="290.48"> </tspan></text>
</g>
</g>
<g id="Layer-1" data-name="P">
<clipPath id="cp443">
<path transform="matrix(1,0,0,-1,0,540)" d="M 292.5 202.5 L 386.25 202.5 L 386.25 262.5 L 292.5 262.5 Z " fill-rule="evenodd"/>
</clipPath>
<g clip-path="url(#cp443)">
<text xml:space="preserve" transform="matrix(1 0 -0 1 0 540)" font-size="14.25" font-family="Arial"><tspan y="-226.77" x="340.63 348.86653 357.10304 360.85078 369.08729 371.33879">45.0 %</tspan></text>
</g>
<clipPath id="cp444">
<path transform="matrix(1,0,0,-1,0,540)" d="M 292.5 202.5 L 386.25 202.5 L 386.25 262.5 L 292.5 262.5 Z " fill-rule="evenodd"/>
</clipPath>
<g clip-path="url(#cp444)">
<text xml:space="preserve" transform="matrix(1 0 -0 1 0 540)" font-size="14.25" font-family="Trebuchet MS"><tspan y="-226.77" x="384.15"> </tspan></text>
</g>
</g>
<g id="Layer-1" data-name="P">
<clipPath id="cp445">
<path transform="matrix(1,0,0,-1,0,540)" d="M 386.25 179.25 L 517.5 179.25 L 517.5 285 L 386.25 285 Z " fill-rule="evenodd"/>
</clipPath>
<g clip-path="url(#cp445)">
<text xml:space="preserve" transform="matrix(1 0 -0 1 0 540)" font-size="14.25" font-family="Arial,Bold" font-weight="bold"><tspan y="-226.77" x="424 432.2365 435.98426 444.22077 452.45729 460.6938 464.44154 472.67805 480.17356 488.41007 492.1578 499.65333 507.14884">2,235,778,949</tspan></text>
</g>
<clipPath id="cp446">
<path transform="matrix(1,0,0,-1,0,540)" d="M 386.25 179.25 L 517.5 179.25 L 517.5 285 L 386.25 285 Z " fill-rule="evenodd"/>
</clipPath>
<g clip-path="url(#cp446)">
<text xml:space="preserve" transform="matrix(1 0 -0 1 0 540)" font-size="14.25" font-family="Trebuchet MS"><tspan y="-226.77" x="515.58"> </tspan></text>
</g>
</g>
<g id="Layer-1" data-name="P">
<clipPath id="cp447">
<path transform="matrix(1,0,0,-1,0,540)" d="M 517.5 202.5 L 601.5 202.5 L 601.5 262.5 L 517.5 262.5 Z " fill-rule="evenodd"/>
</clipPath>
<g clip-path="url(#cp447)">
<text xml:space="preserve" transform="matrix(1 0 -0 1 0 540)" font-size="14.25" font-family="Arial"><tspan y="-226.77" x="556.28 564.5165 572.7529 576.5007 584.7371 586.9886">64.4 %</tspan></text>
</g>
<clipPath id="cp448">
<path transform="matrix(1,0,0,-1,0,540)" d="M 517.5 202.5 L 601.5 202.5 L 601.5 262.5 L 517.5 262.5 Z " fill-rule="evenodd"/>
</clipPath>
<g clip-path="url(#cp448)">
<text xml:space="preserve" transform="matrix(1 0 -0 1 0 540)" font-size="14.25" font-family="Trebuchet MS"><tspan y="-226.77" x="599.83"> </tspan></text>
</g>
</g>
<g id="Layer-1" data-name="P">
<clipPath id="cp449">
<path transform="matrix(1,0,0,-1,0,540)" d="M 601.5 202.5 L 680.25 202.5 L 680.25 262.5 L 601.5 262.5 Z " fill-rule="evenodd"/>
</clipPath>
<g clip-path="url(#cp449)">
<text xml:space="preserve" transform="matrix(1 0 -0 1 0 540)" font-size="14.25" font-family="Arial"><tspan y="-226.77" x="635.08 643.31649 651.5529 655.30068 663.5371 665.7886">50.7 %</tspan></text>
</g>
<clipPath id="cp450">
<path transform="matrix(1,0,0,-1,0,540)" d="M 601.5 202.5 L 680.25 202.5 L 680.25 262.5 L 601.5 262.5 Z " fill-rule="evenodd"/>
</clipPath>
<g clip-path="url(#cp450)">
<text xml:space="preserve" transform="matrix(1 0 -0 1 0 540)" font-size="14.25" font-family="Trebuchet MS"><tspan y="-226.77" x="678.6"> </tspan></text>
</g>
</g>
<g id="Layer-1" data-name="P">
<clipPath id="cp451">
<path transform="matrix(1,0,0,-1,0,540)" d="M 680.25 179.25 L 786 179.25 L 786 285 L 680.25 285 Z " fill-rule="evenodd"/>
</clipPath>
<g clip-path="url(#cp451)">
<text xml:space="preserve" transform="matrix(1 0 -0 1 0 540)" font-size="14.25" font-family="Arial"><tspan y="-226.77" x="692.85 701.1149 704.8627 713.1276 721.3926 729.65756 733.4053 741.6702 749.1942 757.45919 761.2069 768.7309 776.2549">1,331,444,570</tspan></text>
</g>
<clipPath id="cp452">
<path transform="matrix(1,0,0,-1,0,540)" d="M 680.25 179.25 L 786 179.25 L 786 285 L 680.25 285 Z " fill-rule="evenodd"/>
</clipPath>
<g clip-path="url(#cp452)">
<text xml:space="preserve" transform="matrix(1 0 -0 1 0 540)" font-size="14.25" font-family="Trebuchet MS"><tspan y="-226.77" x="784.42"> </tspan></text>
</g>
</g>
<g id="Layer-1" data-name="P">
<clipPath id="cp453">
<path transform="matrix(1,0,0,-1,0,540)" d="M 36 140.25 L 189 140.25 L 189 188.25 L 36 188.25 Z " fill-rule="evenodd"/>
</clipPath>
<g clip-path="url(#cp453)">
<text xml:space="preserve" transform="matrix(1 0 -0 1 0 540)" font-size="14.275" font-family="Arial,Bold" font-weight="bold"><tspan y="-158.6" x="95.775 104.01167 112.248348 124.98164">Jami</tspan></text>
</g>
<clipPath id="cp454">
<path transform="matrix(1,0,0,-1,0,540)" d="M 36 140.25 L 189 140.25 L 189 188.25 L 36 188.25 Z " fill-rule="evenodd"/>
</clipPath>
<g clip-path="url(#cp454)">
<text xml:space="preserve" transform="matrix(1 0 -0 1 0 540)" font-size="14.275" font-family="Trebuchet MS"><tspan y="-158.6" x="128.83"> </tspan></text>
</g>
</g>
<g id="Layer-1" data-name="P">
<clipPath id="cp455">
<path transform="matrix(1,0,0,-1,0,540)" d="M 189 111 L 292.5 111 L 292.5 217.5 L 189 217.5 Z " fill-rule="evenodd"/>
</clipPath>
<g clip-path="url(#cp455)">
<text xml:space="preserve" transform="matrix(1 0 -0 1 0 540)" font-size="14.275" font-family="Arial,Bold" font-weight="bold"><tspan y="-158.6" x="198.9 207.13668 210.89099 219.12767 227.36435 235.60103 239.35535 247.59203 255.08641 263.3231 267.07743 274.57179 282.06614">7,716,223,209</tspan></text>
</g>
<clipPath id="cp456">
<path transform="matrix(1,0,0,-1,0,540)" d="M 189 111 L 292.5 111 L 292.5 217.5 L 189 217.5 Z " fill-rule="evenodd"/>
</clipPath>
<g clip-path="url(#cp456)">
<text xml:space="preserve" transform="matrix(1 0 -0 1 0 540)" font-size="14.275" font-family="Trebuchet MS"><tspan y="-158.6" x="290.48"> </tspan></text>
</g>
</g>
<g id="Layer-1" data-name="P">
<clipPath id="cp457">
<path transform="matrix(1,0,0,-1,0,540)" d="M 292.5 130.5 L 386.25 130.5 L 386.25 198 L 292.5 198 Z " fill-rule="evenodd"/>
</clipPath>
<g clip-path="url(#cp457)">
<text xml:space="preserve" transform="matrix(1 0 -0 1 0 540)" font-size="14.275" font-family="Arial,Bold" font-weight="bold"><tspan y="-158.6" x="332.38 340.61668 348.85334 357.09 360.84434 369.081 371.33644">100.0 %</tspan></text>
</g>
<clipPath id="cp458">
<path transform="matrix(1,0,0,-1,0,540)" d="M 292.5 130.5 L 386.25 130.5 L 386.25 198 L 292.5 198 Z " fill-rule="evenodd"/>
</clipPath>
<g clip-path="url(#cp458)">
<text xml:space="preserve" transform="matrix(1 0 -0 1 0 540)" font-size="14.275" font-family="Trebuchet MS"><tspan y="-158.6" x="384.15"> </tspan></text>
</g>
</g>
<g id="Layer-1" data-name="P">
<clipPath id="cp459">
<path transform="matrix(1,0,0,-1,0,540)" d="M 386.25 111 L 517.5 111 L 517.5 217.5 L 386.25 217.5 Z " fill-rule="evenodd"/>
</clipPath>
<g clip-path="url(#cp459)">
<text xml:space="preserve" transform="matrix(1 0 -0 1 0 540)" font-size="14.275" font-family="Arial,Bold" font-weight="bold"><tspan y="-158.6" x="424 432.23667 435.991 444.22767 452.46434 460.701 464.45533 472.692 480.18635 488.423 492.17735 499.6717 507.16606">4,536,248,808</tspan></text>
</g>
<clipPath id="cp460">
<path transform="matrix(1,0,0,-1,0,540)" d="M 386.25 111 L 517.5 111 L 517.5 217.5 L 386.25 217.5 Z " fill-rule="evenodd"/>
</clipPath>
<g clip-path="url(#cp460)">
<text xml:space="preserve" transform="matrix(1 0 -0 1 0 540)" font-size="14.275" font-family="Trebuchet MS"><tspan y="-158.6" x="515.58"> </tspan></text>
</g>
</g>
<g id="Layer-1" data-name="P">
<clipPath id="cp461">
<path transform="matrix(1,0,0,-1,0,540)" d="M 517.5 134.25 L 601.5 134.25 L 601.5 194.25 L 517.5 194.25 Z " fill-rule="evenodd"/>
</clipPath>
<g clip-path="url(#cp461)">
<text xml:space="preserve" transform="matrix(1 0 -0 1 0 540)" font-size="14.275" font-family="Arial,Bold" font-weight="bold"><tspan y="-158.6" x="556.28 564.5167 572.7534 576.50778 584.74447 586.9999">58.8 %</tspan></text>
</g>
<clipPath id="cp462">
<path transform="matrix(1,0,0,-1,0,540)" d="M 517.5 134.25 L 601.5 134.25 L 601.5 194.25 L 517.5 194.25 Z " fill-rule="evenodd"/>
</clipPath>
<g clip-path="url(#cp462)">
<text xml:space="preserve" transform="matrix(1 0 -0 1 0 540)" font-size="14.275" font-family="Trebuchet MS"><tspan y="-158.6" x="599.83"> </tspan></text>
</g>
</g>
<g id="Layer-1" data-name="P">
<clipPath id="cp463">
<path transform="matrix(1,0,0,-1,0,540)" d="M 601.5 130.5 L 680.25 130.5 L 680.25 198 L 601.5 198 Z " fill-rule="evenodd"/>
</clipPath>
<g clip-path="url(#cp463)">
<text xml:space="preserve" transform="matrix(1 0 -0 1 0 540)" font-size="14.275" font-family="Arial,Bold" font-weight="bold"><tspan y="-158.6" x="626.8 635.0367 643.2734 651.5101 655.2644 663.5011 665.75656">100.0 %</tspan></text>
</g>
<clipPath id="cp464">
<path transform="matrix(1,0,0,-1,0,540)" d="M 601.5 130.5 L 680.25 130.5 L 680.25 198 L 601.5 198 Z " fill-rule="evenodd"/>
</clipPath>
<g clip-path="url(#cp464)">
<text xml:space="preserve" transform="matrix(1 0 -0 1 0 540)" font-size="14.275" font-family="Trebuchet MS"><tspan y="-158.6" x="678.6"> </tspan></text>
</g>
</g>
<g id="Layer-1" data-name="P">
<clipPath id="cp465">
<path transform="matrix(1,0,0,-1,0,540)" d="M 680.25 111 L 786 111 L 786 217.5 L 680.25 217.5 Z " fill-rule="evenodd"/>
</clipPath>
<g clip-path="url(#cp465)">
<text xml:space="preserve" transform="matrix(1 0 -0 1 0 540)" font-size="14.275" font-family="Arial,Bold" font-weight="bold"><tspan y="-158.6" x="692.85 701.1152 704.8695 713.1347 721.3999 729.6651 733.41946 741.68466 749.2075 757.4727 761.22708 768.74996 776.2728">2,199,428,570</tspan></text>
</g>
<clipPath id="cp466">
<path transform="matrix(1,0,0,-1,0,540)" d="M 680.25 111 L 786 111 L 786 217.5 L 680.25 217.5 Z " fill-rule="evenodd"/>
</clipPath>
<g clip-path="url(#cp466)">
<text xml:space="preserve" transform="matrix(1 0 -0 1 0 540)" font-size="14.275" font-family="Trebuchet MS"><tspan y="-158.6" x="784.42"> </tspan></text>
</g>
</g>
</g>
</g>
</svg>
