<?xml version="1.0" encoding="UTF-8" standalone="no"?>
<!DOCTYPE svg PUBLIC "-//W3C//DTD SVG 1.1//EN" "http://www.w3.org/Graphics/SVG/1.1/DTD/svg11.dtd">
<svg xmlns="http://www.w3.org/2000/svg" xmlns:xlink="http://www.w3.org/1999/xlink" version="1.1" width="960pt" height="540pt" viewBox="0 0 960 540">
<g enable-background="new">
<g>
<g id="Layer-1" data-name="P">
<clipPath id="cp14">
<path transform="matrix(1,0,0,-1,0,540)" d="M 0 .00012207 L 960 .00012207 L 960 540.0001 L 0 540.0001 Z " fill-rule="evenodd"/>
</clipPath>
<g clip-path="url(#cp14)">
<path transform="matrix(1,0,0,-1,0,540)" d="M 0 .000006104 L 960 .000006104 L 960 540 L 0 540 Z " fill="#ffffff" fill-rule="evenodd"/>
</g>
</g>
<g id="Layer-1" data-name="P">
<clipPath id="cp15">
<path transform="matrix(1,0,0,-1,0,540)" d="M 0 .00012207 L 960 .00012207 L 960 540.0001 L 0 540.0001 Z " fill-rule="evenodd"/>
</clipPath>
<g clip-path="url(#cp15)">
<path transform="matrix(1,0,0,-1,0,540)" stroke-width=".75075" stroke-linecap="round" stroke-linejoin="round" fill="none" stroke="#cbcbcb" d="M 737.87 540 L 833.87 .000006104 "/>
</g>
</g>
<g id="Layer-1" data-name="P">
<clipPath id="cp16">
<path transform="matrix(1,0,0,-1,0,540)" d="M 0 .00012207 L 960 .00012207 L 960 540.0001 L 0 540.0001 Z " fill-rule="evenodd"/>
</clipPath>
<g clip-path="url(#cp16)">
<path transform="matrix(1,0,0,-1,0,540)" stroke-width=".75075" stroke-linecap="round" stroke-linejoin="round" fill="none" stroke="#e0e0e0" d="M 959.75 250.12 L 584.67 .000006104 "/>
</g>
</g>
<g id="Layer-1" data-name="P">
<clipPath id="cp17">
<path transform="matrix(1,0,0,-1,0,540)" d="M 0 .00012207 L 960 .00012207 L 960 540.0001 L 0 540.0001 Z " fill-rule="evenodd"/>
</clipPath>
<g clip-path="url(#cp17)">
<path transform="matrix(1,0,0,-1,0,540)" d="M 884.02 540.67 L 959.75 540.67 L 959.75 .000006104 L 722.95 .000006104 L 884.02 540.67 Z " fill="#90c226" fill-opacity=".30196" fill-rule="evenodd"/>
</g>
</g>
<g id="Layer-1" data-name="P">
<clipPath id="cp18">
<path transform="matrix(1,0,0,-1,0,540)" d="M 0 .00012207 L 960 .00012207 L 960 540.0001 L 0 540.0001 Z " fill-rule="evenodd"/>
</clipPath>
<g clip-path="url(#cp18)">
<path transform="matrix(1,0,0,-1,0,540)" d="M 756.18 540.67 L 960 540.67 L 960 .000006104 L 851.41 .000006104 L 756.18 540.67 Z " fill="#90c226" fill-opacity=".2" fill-rule="evenodd"/>
</g>
</g>
<g id="Layer-1" data-name="P">
<clipPath id="cp19">
<path transform="matrix(1,0,0,-1,0,540)" d="M 0 .00012207 L 960 .00012207 L 960 540.0001 L 0 540.0001 Z " fill-rule="evenodd"/>
</clipPath>
<g clip-path="url(#cp19)">
<path transform="matrix(1,0,0,-1,0,540)" d="M 703.33 .000006104 L 960 300 L 960 .000006104 Z " fill="#54a021" fill-opacity=".72157" fill-rule="evenodd"/>
</g>
</g>
<g id="Layer-1" data-name="P">
<clipPath id="cp20">
<path transform="matrix(1,0,0,-1,0,540)" d="M 0 .00012207 L 960 .00012207 L 960 540.0001 L 0 540.0001 Z " fill-rule="evenodd"/>
</clipPath>
<g clip-path="url(#cp20)">
<path transform="matrix(1,0,0,-1,0,540)" d="M 735 540.67 L 959.75 540.67 L 959.75 .000006104 L 929.55 .000006104 L 735 540.67 Z " fill="#3f7819" fill-opacity=".70196" fill-rule="evenodd"/>
</g>
</g>
<g id="Layer-1" data-name="P">
<clipPath id="cp21">
<path transform="matrix(1,0,0,-1,0,540)" d="M 0 .00012207 L 960 .00012207 L 960 540.0001 L 0 540.0001 Z " fill-rule="evenodd"/>
</clipPath>
<g clip-path="url(#cp21)">
<path transform="matrix(1,0,0,-1,0,540)" d="M 938.46 540.67 L 959.75 540.67 L 959.75 .000006104 L 858.17 .000006104 L 938.46 540.67 Z " fill="#c0e474" fill-opacity=".70196" fill-rule="evenodd"/>
</g>
</g>
<g id="Layer-1" data-name="P">
<clipPath id="cp22">
<path transform="matrix(1,0,0,-1,0,540)" d="M 0 .00012207 L 960 .00012207 L 960 540.0001 L 0 540.0001 Z " fill-rule="evenodd"/>
</clipPath>
<g clip-path="url(#cp22)">
<path transform="matrix(1,0,0,-1,0,540)" d="M 861.34 540.67 L 959.75 540.67 L 959.75 .000006104 L 948.69 .000006104 L 861.34 540.67 Z " fill="#90c226" fill-opacity=".65098" fill-rule="evenodd"/>
</g>
</g>
<g id="Layer-1" data-name="P">
<clipPath id="cp23">
<path transform="matrix(1,0,0,-1,0,540)" d="M 0 .00012207 L 960 .00012207 L 960 540.0001 L 0 540.0001 Z " fill-rule="evenodd"/>
</clipPath>
<g clip-path="url(#cp23)">
<path transform="matrix(1,0,0,-1,0,540)" d="M 816.67 .000006104 L 959.75 257.33 L 959.75 .000006104 Z " fill="#90c226" fill-opacity=".8" fill-rule="evenodd"/>
</g>
</g>
<g id="Layer-1" data-name="P">
<clipPath id="cp24">
<path transform="matrix(1,0,0,-1,0,540)" d="M 0 .00012207 L 960 .00012207 L 960 540.0001 L 0 540.0001 Z " fill-rule="evenodd"/>
</clipPath>
<g clip-path="url(#cp24)">
<path transform="matrix(1,0,0,-1,0,540)" d="M 0 .000006104 L 0 224 L 35.333 .000006104 Z " fill="#90c226" fill-opacity=".85098" fill-rule="evenodd"/>
</g>
</g>
<g id="Layer-1" data-name="P">
<text fill="#ff0000" xml:space="preserve" transform="matrix(1 0 -0 1 0 540)" font-size="44.3" font-family="Trebuchet MS"><tspan y="-445.52" x="343.55 369.06678 393.03309 414.16419">REJA</tspan></text>
</g>
<g id="Layer-1" data-name="P">
<text fill="#ff0000" xml:space="preserve" transform="matrix(1 0 -0 1 0 540)" font-size="44.3" font-family="Trebuchet MS"><tspan y="-445.52" x="440.38"> </tspan></text>
</g>
<g id="Layer-1" data-name="P">
<text fill="#90c226" xml:space="preserve" transform="matrix(1 0 -0 1 0 540)" font-size="22.525" font-family="Wingdings 3"><tspan y="-339" x="60.575">&#xf075;</tspan></text>
<text fill="#0070c0" xml:space="preserve" transform="matrix(1 0 -0 1 0 540)" font-size="27.775" font-family="Trebuchet MS"><tspan y="-339" x="87.6">1</tspan></text>
<text fill="#0070c0" xml:space="preserve" transform="matrix(1 0 -0 1 0 540)" font-size="27.775" font-family="Trebuchet MS"><tspan y="-339" x="101.87">.</tspan></text>
<text fill="#0070c0" xml:space="preserve" transform="matrix(1 0 -0 1 0 540)" font-size="27.775" font-family="Trebuchet MS"><tspan y="-339" x="112.37"> </tspan></text>
<text fill="#0070c0" xml:space="preserve" transform="matrix(1 0 -0 1 0 540)" font-size="27.775" font-family="Trebuchet MS"><tspan y="-339" x="119.87 127.369258 145.36746 161.14366 176.14217 192.64052 210.63872 225.63722">INTERNET</tspan></text>
<text fill="#0070c0" xml:space="preserve" transform="matrix(1 0 -0 1 0 540)" font-size="27.775" font-family="Trebuchet MS"><tspan y="-339" x="240.73"> </tspan></text>
<text fill="#0070c0" xml:space="preserve" transform="matrix(1 0 -0 1 0 540)" font-size="27.775" font-family="Trebuchet MS"><tspan y="-339" x="250.48 265.50627 273.75544 288.7817">ning</tspan></text>
<text fill="#0070c0" xml:space="preserve" transform="matrix(1 0 -0 1 0 540)" font-size="27.775" font-family="Trebuchet MS"><tspan y="-339" x="303.02"> </tspan></text>
<text fill="#0070c0" xml:space="preserve" transform="matrix(1 0 -0 1 0 540)" font-size="27.775" font-family="Trebuchet MS"><tspan y="-339" x="311.27 321.79673 330.0459 343.57234 358.5708 369.06974 377.26338 391.62306 406.64933 414.8985 426.14738">rivojlanish</tspan></text>
<text fill="#0070c0" xml:space="preserve" transform="matrix(1 0 -0 1 0 540)" font-size="27.775" font-family="Trebuchet MS"><tspan y="-339" x="441.13"> </tspan></text>
<text fill="#0070c0" xml:space="preserve" transform="matrix(1 0 -0 1 0 540)" font-size="27.775" font-family="Trebuchet MS"><tspan y="-339" x="450.13 461.37889 475.65525 486.18199 494.43116 508.67976">tarixi</tspan></text>
<text fill="#0070c0" xml:space="preserve" transform="matrix(1 0 -0 1 0 540)" font-size="27.775" font-family="Trebuchet MS"><tspan y="-339" x="516.95">.</tspan></text>
<text fill="#0070c0" xml:space="preserve" transform="matrix(1 0 -0 1 0 540)" font-size="27.775" font-family="Trebuchet MS"><tspan y="-339" x="527.45"> </tspan></text>
</g>
<g id="Layer-1" data-name="P">
<text fill="#90c226" xml:space="preserve" transform="matrix(1 0 -0 1 0 540)" font-size="22.525" font-family="Wingdings 3"><tspan y="-295.42" x="60.575">&#xf075;</tspan></text>
<text fill="#0070c0" xml:space="preserve" transform="matrix(1 0 -0 1 0 540)" font-size="27.775" font-family="Trebuchet MS"><tspan y="-295.42" x="87.6">2</tspan></text>
<text fill="#0070c0" xml:space="preserve" transform="matrix(1 0 -0 1 0 540)" font-size="27.775" font-family="Trebuchet MS"><tspan y="-295.42" x="101.87">.</tspan></text>
<text fill="#0070c0" xml:space="preserve" transform="matrix(1 0 -0 1 0 540)" font-size="27.775" font-family="Trebuchet MS"><tspan y="-295.42" x="112.37"> </tspan></text>
<text fill="#0070c0" xml:space="preserve" transform="matrix(1 0 -0 1 0 540)" font-size="27.775" font-family="Trebuchet MS"><tspan y="-295.42" x="119.87 127.369258 145.36746 161.14366 176.14217 192.64052 210.63872 225.63722">INTERNET</tspan></text>
<text fill="#0070c0" xml:space="preserve" transform="matrix(1 0 -0 1 0 540)" font-size="27.775" font-family="Trebuchet MS"><tspan y="-295.42" x="240.73"> </tspan></text>
<text fill="#0070c0" xml:space="preserve" transform="matrix(1 0 -0 1 0 540)" font-size="27.775" font-family="Trebuchet MS"><tspan y="-295.42" x="250.48 266.22843 280.5048">dan</tspan></text>
<text fill="#0070c0" xml:space="preserve" transform="matrix(1 0 -0 1 0 540)" font-size="27.775" font-family="Trebuchet MS"><tspan y="-295.42" x="295.52"> </tspan></text>
<text fill="#0070c0" xml:space="preserve" transform="matrix(1 0 -0 1 0 540)" font-size="27.775" font-family="Trebuchet MS"><tspan y="-295.42" x="304.52 315.01896 330.01744 343.54386 359.29228 373.56864 381.76228 396.12196 411.14823 426.1745 439.70094 453.22737 468.25364">foydalanuvchi</tspan></text>
<text fill="#0070c0" xml:space="preserve" transform="matrix(1 0 -0 1 0 540)" font-size="27.775" font-family="Trebuchet MS"><tspan y="-295.42" x="476.4"> </tspan></text>
<text fill="#0070c0" xml:space="preserve" transform="matrix(1 0 -0 1 0 540)" font-size="27.775" font-family="Trebuchet MS"><tspan y="-295.42" x="486.92 502.66844 517.6947 528.22146 536.47067 544.66427 567.99526 582.27157 590.46517 604.82479">qurilmalar</tspan></text>
<text fill="#0070c0" xml:space="preserve" transform="matrix(1 0 -0 1 0 540)" font-size="27.775" font-family="Trebuchet MS"><tspan y="-295.42" x="611.53">.</tspan></text>
<text fill="#0070c0" xml:space="preserve" transform="matrix(1 0 -0 1 0 540)" font-size="27.775" font-family="Trebuchet MS"><tspan y="-295.42" x="622.03"> </tspan></text>
</g>
<g id="Layer-1" data-name="P">
<text fill="#90c226" xml:space="preserve" transform="matrix(1 0 -0 1 0 540)" font-size="22.525" font-family="Wingdings 3"><tspan y="-251.88" x="60.575">&#xf075;</tspan></text>
<text fill="#0070c0" xml:space="preserve" transform="matrix(1 0 -0 1 0 540)" font-size="27.8" font-family="Trebuchet MS"><tspan y="-251.88" x="87.6">3</tspan></text>
<text fill="#0070c0" xml:space="preserve" transform="matrix(1 0 -0 1 0 540)" font-size="27.8" font-family="Trebuchet MS"><tspan y="-251.88" x="101.87">.</tspan></text>
<text fill="#0070c0" xml:space="preserve" transform="matrix(1 0 -0 1 0 540)" font-size="27.8" font-family="Trebuchet MS"><tspan y="-251.88" x="112.37"> </tspan></text>
<text fill="#0070c0" xml:space="preserve" transform="matrix(1 0 -0 1 0 540)" font-size="27.8" font-family="Trebuchet MS"><tspan y="-251.88" x="122.87 140.106 155.11801 170.13002 183.66863">Dunyo</tspan></text>
<text fill="#0070c0" xml:space="preserve" transform="matrix(1 0 -0 1 0 540)" font-size="27.8" font-family="Trebuchet MS"><tspan y="-251.88" x="198.7"> </tspan></text>
<text fill="#0070c0" xml:space="preserve" transform="matrix(1 0 -0 1 0 540)" font-size="27.8" font-family="Trebuchet MS"><tspan y="-251.88" x="209.2 224.9348 239.919 250.42742 263.966 272.2226 285.76118 301.49598">bo&#x2019;yicha</tspan></text>
<text fill="#0070c0" xml:space="preserve" transform="matrix(1 0 -0 1 0 540)" font-size="27.8" font-family="Trebuchet MS"><tspan y="-251.88" x="315.77"> </tspan></text>
<text fill="#0070c0" xml:space="preserve" transform="matrix(1 0 -0 1 0 540)" font-size="27.8" font-family="Trebuchet MS"><tspan y="-251.88" x="326.3 333.80598 352.54316 368.30577 383.28996 399.77534 417.76194 432.74613">INTERNET</tspan></text>
<text fill="#0070c0" xml:space="preserve" transform="matrix(1 0 -0 1 0 540)" font-size="27.8" font-family="Trebuchet MS"><tspan y="-251.88" x="447.88"> </tspan></text>
<text fill="#0070c0" xml:space="preserve" transform="matrix(1 0 -0 1 0 540)" font-size="27.8" font-family="Trebuchet MS"><tspan y="-251.88" x="458.4 474.88539 489.1468">dan</tspan></text>
<text fill="#0070c0" xml:space="preserve" transform="matrix(1 0 -0 1 0 540)" font-size="27.8" font-family="Trebuchet MS"><tspan y="-251.88" x="504.17"> </tspan></text>
<text fill="#0070c0" xml:space="preserve" transform="matrix(1 0 -0 1 0 540)" font-size="27.8" font-family="Trebuchet MS"><tspan y="-251.88" x="514.67 525.1784 540.1626 553.7012 570.1866 584.44796 593.45516 607.7165 622.72848 638.46328 652.0019 665.54049 680.5524 688.809 697.8162 712.0776">foydalanuvchilar</tspan></text>
<text fill="#0070c0" xml:space="preserve" transform="matrix(1 0 -0 1 0 540)" font-size="27.8" font-family="Trebuchet MS"><tspan y="-251.88" x="723.35 732.3572 740.6416 748.926 757.21047 765.4949 773.7793 782.7865">        </tspan></text>
<text fill="#0070c0" xml:space="preserve" transform="matrix(1 0 -0 1 0 540)" font-size="27.775" font-family="Trebuchet MS"><tspan y="-218.08" x="87.6 98.84888 110.12553 124.40188 135.65074 143.89992 155.14879 166.42545 174.67462 188.92319 203.19954 214.44841">statistikasi</tspan></text>
<text fill="#0070c0" xml:space="preserve" transform="matrix(1 0 -0 1 0 540)" font-size="27.775" font-family="Trebuchet MS"><tspan y="-218.08" x="222.7">.</tspan></text>
<text fill="#0070c0" xml:space="preserve" transform="matrix(1 0 -0 1 0 540)" font-size="27.775" font-family="Trebuchet MS"><tspan y="-218.08" x="233.23"> </tspan></text>
</g>
<g id="Layer-1" data-name="P">
<text fill="#90c226" xml:space="preserve" transform="matrix(1 0 -0 1 0 540)" font-size="22.55" font-family="Wingdings 3"><tspan y="-174.5" x="60.575">&#xf075;</tspan></text>
<text fill="#0070c0" xml:space="preserve" transform="matrix(1 0 -0 1 0 540)" font-size="27.8" font-family="Trebuchet MS"><tspan y="-174.5" x="87.6">4</tspan></text>
<text fill="#0070c0" xml:space="preserve" transform="matrix(1 0 -0 1 0 540)" font-size="27.8" font-family="Trebuchet MS"><tspan y="-174.5" x="101.87">.</tspan></text>
<text fill="#0070c0" xml:space="preserve" transform="matrix(1 0 -0 1 0 540)" font-size="27.8" font-family="Trebuchet MS"><tspan y="-174.5" x="112.37"> </tspan></text>
<text fill="#0070c0" xml:space="preserve" transform="matrix(1 0 -0 1 0 540)" font-size="27.8" font-family="Trebuchet MS"><tspan y="-174.5" x="119.87 138.66281 153.59142 168.65903 182.89263 191.09363">Google</tspan></text>
<text fill="#0070c0" xml:space="preserve" transform="matrix(1 0 -0 1 0 540)" font-size="27.8" font-family="Trebuchet MS"><tspan y="-174.5" x="206.2"> </tspan></text>
<text fill="#0070c0" xml:space="preserve" transform="matrix(1 0 -0 1 0 540)" font-size="27.8" font-family="Trebuchet MS"><tspan y="-174.5" x="215.2 229.4336 244.4178 267.6586 283.3934 297.65483 312.6668 320.9234 334.462 348.72343 359.98243">kompaniyasi</tspan></text>
<text fill="#0070c0" xml:space="preserve" transform="matrix(1 0 -0 1 0 540)" font-size="27.8" font-family="Trebuchet MS"><tspan y="-174.5" x="368.33">.</tspan></text>
</g>
<g id="Layer-1" data-name="P">
<text fill="#0070c0" xml:space="preserve" transform="matrix(1 0 -0 1 0 540)" font-size="27.8" font-family="Trebuchet MS"><tspan y="-174.5" x="378.83"> </tspan></text>
</g>
</g>
</g>
</svg>
