<?xml version="1.0" encoding="UTF-8" standalone="no"?>
<!DOCTYPE svg PUBLIC "-//W3C//DTD SVG 1.1//EN" "http://www.w3.org/Graphics/SVG/1.1/DTD/svg11.dtd">
<svg xmlns="http://www.w3.org/2000/svg" xmlns:xlink="http://www.w3.org/1999/xlink" version="1.1" width="960pt" height="540pt" viewBox="0 0 960 540">
<g enable-background="new">
<g>
<g id="Layer-1" data-name="P">
<clipPath id="cp102">
<path transform="matrix(1,0,0,-1,0,540)" d="M 0 .00012207 L 960 .00012207 L 960 540.0001 L 0 540.0001 Z " fill-rule="evenodd"/>
</clipPath>
<g clip-path="url(#cp102)">
<path transform="matrix(1,0,0,-1,0,540)" d="M 0 .000006104 L 960 .000006104 L 960 540 L 0 540 Z " fill="#ffffff" fill-rule="evenodd"/>
</g>
</g>
<g id="Layer-1" data-name="P">
<clipPath id="cp103">
<path transform="matrix(1,0,0,-1,0,540)" d="M 0 .00012207 L 960 .00012207 L 960 540.0001 L 0 540.0001 Z " fill-rule="evenodd"/>
</clipPath>
<g clip-path="url(#cp103)">
<path transform="matrix(1,0,0,-1,0,540)" stroke-width=".75075" stroke-linecap="round" stroke-linejoin="round" fill="none" stroke="#cbcbcb" d="M 737.87 540 L 833.87 .000006104 "/>
</g>
</g>
<g id="Layer-1" data-name="P">
<clipPath id="cp104">
<path transform="matrix(1,0,0,-1,0,540)" d="M 0 .00012207 L 960 .00012207 L 960 540.0001 L 0 540.0001 Z " fill-rule="evenodd"/>
</clipPath>
<g clip-path="url(#cp104)">
<path transform="matrix(1,0,0,-1,0,540)" stroke-width=".75075" stroke-linecap="round" stroke-linejoin="round" fill="none" stroke="#e0e0e0" d="M 959.75 250.12 L 584.67 .000006104 "/>
</g>
</g>
<g id="Layer-1" data-name="P">
<clipPath id="cp105">
<path transform="matrix(1,0,0,-1,0,540)" d="M 0 .00012207 L 960 .00012207 L 960 540.0001 L 0 540.0001 Z " fill-rule="evenodd"/>
</clipPath>
<g clip-path="url(#cp105)">
<path transform="matrix(1,0,0,-1,0,540)" d="M 884.02 540.67 L 959.75 540.67 L 959.75 .000006104 L 722.95 .000006104 L 884.02 540.67 Z " fill="#90c226" fill-opacity=".30196" fill-rule="evenodd"/>
</g>
</g>
<g id="Layer-1" data-name="P">
<clipPath id="cp106">
<path transform="matrix(1,0,0,-1,0,540)" d="M 0 .00012207 L 960 .00012207 L 960 540.0001 L 0 540.0001 Z " fill-rule="evenodd"/>
</clipPath>
<g clip-path="url(#cp106)">
<path transform="matrix(1,0,0,-1,0,540)" d="M 756.18 540.67 L 960 540.67 L 960 .000006104 L 851.41 .000006104 L 756.18 540.67 Z " fill="#90c226" fill-opacity=".2" fill-rule="evenodd"/>
</g>
</g>
<g id="Layer-1" data-name="P">
<clipPath id="cp107">
<path transform="matrix(1,0,0,-1,0,540)" d="M 0 .00012207 L 960 .00012207 L 960 540.0001 L 0 540.0001 Z " fill-rule="evenodd"/>
</clipPath>
<g clip-path="url(#cp107)">
<path transform="matrix(1,0,0,-1,0,540)" d="M 703.33 .000006104 L 960 300 L 960 .000006104 Z " fill="#54a021" fill-opacity=".72157" fill-rule="evenodd"/>
</g>
</g>
<g id="Layer-1" data-name="P">
<clipPath id="cp108">
<path transform="matrix(1,0,0,-1,0,540)" d="M 0 .00012207 L 960 .00012207 L 960 540.0001 L 0 540.0001 Z " fill-rule="evenodd"/>
</clipPath>
<g clip-path="url(#cp108)">
<path transform="matrix(1,0,0,-1,0,540)" d="M 735 540.67 L 959.75 540.67 L 959.75 .000006104 L 929.55 .000006104 L 735 540.67 Z " fill="#3f7819" fill-opacity=".70196" fill-rule="evenodd"/>
</g>
</g>
<g id="Layer-1" data-name="P">
<clipPath id="cp109">
<path transform="matrix(1,0,0,-1,0,540)" d="M 0 .00012207 L 960 .00012207 L 960 540.0001 L 0 540.0001 Z " fill-rule="evenodd"/>
</clipPath>
<g clip-path="url(#cp109)">
<path transform="matrix(1,0,0,-1,0,540)" d="M 938.46 540.67 L 959.75 540.67 L 959.75 .000006104 L 858.17 .000006104 L 938.46 540.67 Z " fill="#c0e474" fill-opacity=".70196" fill-rule="evenodd"/>
</g>
</g>
<g id="Layer-1" data-name="P">
<clipPath id="cp110">
<path transform="matrix(1,0,0,-1,0,540)" d="M 0 .00012207 L 960 .00012207 L 960 540.0001 L 0 540.0001 Z " fill-rule="evenodd"/>
</clipPath>
<g clip-path="url(#cp110)">
<path transform="matrix(1,0,0,-1,0,540)" d="M 861.34 540.67 L 959.75 540.67 L 959.75 .000006104 L 948.69 .000006104 L 861.34 540.67 Z " fill="#90c226" fill-opacity=".65098" fill-rule="evenodd"/>
</g>
</g>
<g id="Layer-1" data-name="P">
<clipPath id="cp111">
<path transform="matrix(1,0,0,-1,0,540)" d="M 0 .00012207 L 960 .00012207 L 960 540.0001 L 0 540.0001 Z " fill-rule="evenodd"/>
</clipPath>
<g clip-path="url(#cp111)">
<path transform="matrix(1,0,0,-1,0,540)" d="M 816.67 .000006104 L 959.75 257.33 L 959.75 .000006104 Z " fill="#90c226" fill-opacity=".8" fill-rule="evenodd"/>
</g>
</g>
<g id="Layer-1" data-name="P">
<clipPath id="cp112">
<path transform="matrix(1,0,0,-1,0,540)" d="M 0 .00012207 L 960 .00012207 L 960 540.0001 L 0 540.0001 Z " fill-rule="evenodd"/>
</clipPath>
<g clip-path="url(#cp112)">
<path transform="matrix(1,0,0,-1,0,540)" d="M 0 .000006104 L 0 224 L 35.333 .000006104 Z " fill="#90c226" fill-opacity=".85098" fill-rule="evenodd"/>
</g>
</g>
<g id="Layer-1" data-name="P">
<text fill="#90c226" xml:space="preserve" transform="matrix(1 0 -0 1 0 540)" font-size="36.05" font-family="Trebuchet MS"><tspan y="-472.58" x="68.275 84.785907 104.28895 114.779499 134.28255 147.7292 167.19622">Telefon</tspan></text>
<text fill="#90c226" xml:space="preserve" transform="matrix(1 0 -0 1 0 540)" font-size="36.05" font-family="Trebuchet MS"><tspan y="-472.58" x="186.88"> </tspan></text>
<text fill="#90c226" xml:space="preserve" transform="matrix(1 0 -0 1 0 540)" font-size="36.05" font-family="Trebuchet MS"><tspan y="-472.58" x="197.4 216.867 231.07071 251.29476 270.04078 280.53135">orqali</tspan></text>
<text fill="#90c226" xml:space="preserve" transform="matrix(1 0 -0 1 0 540)" font-size="36.05" font-family="Trebuchet MS"><tspan y="-472.58" x="291.2"> </tspan></text>
<text fill="#90c226" xml:space="preserve" transform="matrix(1 0 -0 1 0 540)" font-size="36.05" font-family="Trebuchet MS"><tspan y="-472.58" x="300.98 311.4345 330.93757 345.21336 364.68037 378.88404 398.3871 417.89015 432.16593 452.35395 471.09996">internetdan</tspan></text>
<text fill="#90c226" xml:space="preserve" transform="matrix(1 0 -0 1 0 540)" font-size="36.05" font-family="Trebuchet MS"><tspan y="-472.58" x="490.88"> </tspan></text>
<text fill="#90c226" xml:space="preserve" transform="matrix(1 0 -0 1 0 540)" font-size="36.05" font-family="Trebuchet MS"><tspan y="-472.58" x="502.13 515.57669 535.04367 552.9965 573.2206 591.9666 602.45718 621.2032 640.70626 651.1607 665.4005">foydalanish</tspan></text>
</g>
<g id="Layer-1" data-name="P">
<text fill="#90c226" xml:space="preserve" transform="matrix(1 0 -0 1 0 540)" font-size="36.05" font-family="Trebuchet MS"><tspan y="-472.58" x="685.28"> </tspan></text>
</g>
<g id="Layer-1" data-name="P">
<text fill="#90c226" xml:space="preserve" transform="matrix(1 0 -0 1 0 540)" font-size="14.275" font-family="Wingdings 3"><tspan y="-348.75" x="60.575">&#xf075;</tspan></text>
</g>
<g id="Layer-1" data-name="Span">
<text fill="#99ca3c" xml:space="preserve" transform="matrix(1 0 -0 1 0 540)" font-size="18.025" font-family="Trebuchet MS,Bold" font-weight="bold"><tspan y="-348.75" x="87.6 98.16265 110.14928 116.8726 121.378849 131.14839 141.65697 146.90224 155.93277 166.44135 172.42565 185.18733 195.71393 200.95922">1G: Voice Only</tspan></text>
</g>
<g id="Layer-1" data-name="Span">
<text fill="#99ca3c" xml:space="preserve" transform="matrix(1 0 -0 1 0 540)" font-size="18.025" font-family="Trebuchet MS,Bold" font-weight="bold"><tspan y="-348.75" x="208.45 215.17333 220.4186 225.66387">.   </tspan></text>
</g>
<g id="Layer-1" data-name="Span">
<text fill="#99ca3c" xml:space="preserve" transform="matrix(1 0 -0 1 0 540)" font-size="18.025" font-family="Trebuchet MS,Italic" font-style="italic"><tspan y="-348.75" x="230.98 240.73152 247.45485 257.2064 261.71266 270.74317 280.5127 290.26423 297.7446 304.46794 309.71324 319.46476 329.21629 338.9678 348.71934">2.4 kb/s. 1980 </tspan></text>
</g>
<g id="Layer-1" data-name="Span">
<text fill="#99ca3c" xml:space="preserve" transform="matrix(1 0 -0 1 0 540)" font-size="18.025" font-family="Trebuchet MS,Italic" font-style="italic"><tspan y="-348.75" x="353.3 362.3125 367.55778 373.54209 383.3116">y&#x0131;lda</tspan></text>
</g>
<g id="Layer-1" data-name="Span">
<text fill="#99ca3c" xml:space="preserve" transform="matrix(1 0 -0 1 0 540)" font-size="18.025" font-family="Trebuchet MS,Italic" font-style="italic"><tspan y="-348.75" x="393.1">;</tspan></text>
<path transform="matrix(1,0,0,-1,0,540)" d="M 87.533 346.02 L 399.533 346.02 L 399.533 346.77 L 87.533 346.77 Z " fill="#99ca3c" fill-rule="evenodd"/>
<text fill="#99ca3c" xml:space="preserve" transform="matrix(1 0 -0 1 0 540)" font-size="18.025" font-family="Trebuchet MS,Italic" font-style="italic"><tspan y="-348.75" x="399.85"> </tspan></text>
</g>
<g id="Layer-1" data-name="P">
<text fill="#90c226" xml:space="preserve" transform="matrix(1 0 -0 1 0 540)" font-size="14.275" font-family="Wingdings 3"><tspan y="-317.2" x="60.575">&#xf075;</tspan></text>
</g>
<g id="Layer-1" data-name="Span">
<text fill="#99ca3c" xml:space="preserve" transform="matrix(1 0 -0 1 0 540)" font-size="18.025" font-family="Trebuchet MS,Bold" font-weight="bold"><tspan y="-317.2" x="87.6 98.16265 110.14928 116.8726">2G: </tspan></text>
</g>
<g id="Layer-1" data-name="Span">
<text fill="#99ca3c" xml:space="preserve" transform="matrix(1 0 -0 1 0 540)" font-size="18.025" font-family="Trebuchet MS,Bold" font-weight="bold"><tspan y="-317.2" x="121.37 130.40053 143.90125 152.93177 158.91606 171.64171 176.94106 190.44178 203.94249 212.973 219.69634">SMS &#x0026; MMS. </tspan></text>
</g>
<g id="Layer-1" data-name="Span">
<text fill="#99ca3c" xml:space="preserve" transform="matrix(1 0 -0 1 0 540)" font-size="18.025" font-family="Trebuchet MS,Italic" font-style="italic"><tspan y="-317.2" x="224.95 234.70153 239.9468 253.46555 263.23509 272.9866">1 Mb/s</tspan></text>
</g>
<g id="Layer-1" data-name="Span">
<text fill="#99ca3c" xml:space="preserve" transform="matrix(1 0 -0 1 0 540)" font-size="18.025" font-family="Trebuchet MS,Italic" font-style="italic"><tspan y="-317.2" x="280.5 287.25019">. </tspan></text>
</g>
<g id="Layer-1" data-name="Span">
<text fill="#99ca3c" xml:space="preserve" transform="matrix(1 0 -0 1 0 540)" font-size="18.025" font-family="Trebuchet MS,Italic" font-style="italic"><tspan y="-317.2" x="292.52 302.2951 312.0702 321.84529 331.62037">1991 </tspan></text>
</g>
<g id="Layer-1" data-name="Span">
<text fill="#99ca3c" xml:space="preserve" transform="matrix(1 0 -0 1 0 540)" font-size="18.025" font-family="Trebuchet MS,Italic" font-style="italic"><tspan y="-317.2" x="336.05 345.0625 350.30778 356.29209 366.0616">y&#x0131;lda</tspan></text>
</g>
<g id="Layer-1" data-name="Span">
<text fill="#99ca3c" xml:space="preserve" transform="matrix(1 0 -0 1 0 540)" font-size="18.025" font-family="Trebuchet MS,Italic" font-style="italic"><tspan y="-317.2" x="375.83 382.58018">. </tspan></text>
</g>
<g id="Layer-1" data-name="Span">
<text fill="#99ca3c" xml:space="preserve" transform="matrix(1 0 -0 1 0 540)" font-size="18.025" font-family="Trebuchet MS,Italic" font-style="italic"><tspan y="-317.2" x="387.08 399.10267 408.11515 421.63389">GSM </tspan></text>
</g>
<g id="Layer-1" data-name="Span">
<text fill="#99ca3c" xml:space="preserve" transform="matrix(1 0 -0 1 0 540)" font-size="18.025" font-family="Trebuchet MS,Italic" font-style="italic"><tspan y="-317.2" x="427.63 436.65525">va</tspan></text>
</g>
<g id="Layer-1" data-name="Span">
<text fill="#99ca3c" xml:space="preserve" transform="matrix(1 0 -0 1 0 540)" font-size="18.025" font-family="Trebuchet MS,Italic" font-style="italic"><tspan y="-317.2" x="446.38"> </tspan></text>
<text fill="#99ca3c" xml:space="preserve" transform="matrix(1 0 -0 1 0 540)" font-size="18.025" font-family="Trebuchet MS,Italic" font-style="italic"><tspan y="-317.2" x="450.88 460.63154 471.89717 483.91984 493.67137 498.91667 505.63999 515.39157 525.16116 534.93069 544.6822 554.4518 562.7433 572.4768 582.24636">EDGE (Enhanced </tspan></text>
</g>
<g id="Layer-1" data-name="Span">
<text fill="#99ca3c" xml:space="preserve" transform="matrix(1 0 -0 1 0 540)" font-size="18.025" font-family="Trebuchet MS,Italic" font-style="italic"><tspan y="-317.2" x="587.5">D</tspan></text>
</g>
<g id="Layer-1" data-name="Span">
<text fill="#99ca3c" xml:space="preserve" transform="matrix(1 0 -0 1 0 540)" font-size="18.025" font-family="Trebuchet MS,Italic" font-style="italic"><tspan y="-317.2" x="598.75 608.5015 615.99996 625.75149 630.25778 640.7483 650.5359 658.0343 667.7858 675.2662 680.5115 687.9919 697.7434 705.2598">ata Rates for </tspan></text>
</g>
<g id="Layer-1" data-name="P">
<path transform="matrix(1,0,0,-1,0,540)" d="M 87.533 314.52 L 704.783 314.52 L 704.783 315.27 L 87.533 315.27 Z " fill="#99ca3c" fill-rule="evenodd"/>
</g>
<g id="Layer-1" data-name="Span">
<text fill="#99ca3c" xml:space="preserve" transform="matrix(1 0 -0 1 0 540)" font-size="18.025" font-family="Trebuchet MS,Italic" font-style="italic"><tspan y="-295.42" x="87.6 99.62267 108.63518 122.15393">GSM </tspan></text>
</g>
<g id="Layer-1" data-name="Span">
<text fill="#99ca3c" xml:space="preserve" transform="matrix(1 0 -0 1 0 540)" font-size="18.025" font-family="Trebuchet MS,Italic" font-style="italic"><tspan y="-295.42" x="126.62"> </tspan></text>
</g>
<g id="Layer-1" data-name="Span">
<text fill="#99ca3c" xml:space="preserve" transform="matrix(1 0 -0 1 0 540)" font-size="18.025" font-family="Trebuchet MS,Italic" font-style="italic"><tspan y="-295.42" x="131.88 141.63153 150.64403 160.39556 166.37985 176.14942 183.64781 188.89308 198.6446 208.41416 215.13748">Evolution);</tspan></text>
<path transform="matrix(1,0,0,-1,0,540)" d="M 87.533 292.77 L 221.78299 292.77 L 221.78299 293.52 L 87.533 293.52 Z " fill="#99ca3c" fill-rule="evenodd"/>
<text fill="#99ca3c" xml:space="preserve" transform="matrix(1 0 -0 1 0 540)" font-size="18.025" font-family="Trebuchet MS,Italic" font-style="italic"><tspan y="-295.42" x="221.95"> </tspan></text>
</g>
<g id="Layer-1" data-name="P">
<text fill="#90c226" xml:space="preserve" transform="matrix(1 0 -0 1 0 540)" font-size="14.275" font-family="Wingdings 3"><tspan y="-263.88" x="60.575">&#xf075;</tspan></text>
</g>
<g id="Layer-1" data-name="Span">
<text fill="#99ca3c" xml:space="preserve" transform="matrix(1 0 -0 1 0 540)" font-size="18.025" font-family="Trebuchet MS,Bold" font-weight="bold"><tspan y="-263.88" x="87.6 98.16265 110.14928 116.8726">3G: </tspan></text>
</g>
<g id="Layer-1" data-name="Span">
<text fill="#99ca3c" xml:space="preserve" transform="matrix(1 0 -0 1 0 540)" font-size="18.025" font-family="Trebuchet MS,Bold" font-weight="bold"><tspan y="-263.88" x="121.37 134.87073 145.3793 152.8777 163.38628 168.63155 179.91519 189.66672 197.14708 206.8986 213.62194">More Data! </tspan></text>
</g>
<g id="Layer-1" data-name="Span">
<text fill="#99ca3c" xml:space="preserve" transform="matrix(1 0 -0 1 0 540)" font-size="18.025" font-family="Trebuchet MS,Bold" font-weight="bold"><tspan y="-263.88" x="218.2 229.46562 234.71089 245.18341 255.74607 266.25465">Video </tspan></text>
</g>
<g id="Layer-1" data-name="Span">
<text fill="#99ca3c" xml:space="preserve" transform="matrix(1 0 -0 1 0 540)" font-size="18.025" font-family="Trebuchet MS,Bold" font-weight="bold"><tspan y="-263.88" x="271.5 282.76564 292.51716 297.76243 303.0077 308.25297 318.77955 327.8281">Calling </tspan></text>
</g>
<g id="Layer-1" data-name="Span">
<text fill="#99ca3c" xml:space="preserve" transform="matrix(1 0 -0 1 0 540)" font-size="18.025" font-family="Trebuchet MS,Bold" font-weight="bold"><tspan y="-263.88" x="333.05 345.82496">&#x0026; </tspan></text>
</g>
<g id="Layer-1" data-name="Span">
<text fill="#99ca3c" xml:space="preserve" transform="matrix(1 0 -0 1 0 540)" font-size="18.025" font-family="Trebuchet MS,Bold" font-weight="bold"><tspan y="-263.88" x="351.05 364.55073 375.0593 385.54985 390.83119 396.07646 406.58503">Mobile </tspan></text>
</g>
<g id="Layer-1" data-name="Span">
<text fill="#99ca3c" xml:space="preserve" transform="matrix(1 0 -0 1 0 540)" font-size="18.025" font-family="Trebuchet MS,Bold" font-weight="bold"><tspan y="-263.88" x="411.1 416.32728 426.85389 434.33427 444.84284 452.34126 462.86787 473.37644 480.8568 487.58015">Internet. </tspan></text>
</g>
<g id="Layer-1" data-name="Span">
<text fill="#99ca3c" xml:space="preserve" transform="matrix(1 0 -0 1 0 540)" font-size="18.025" font-family="Trebuchet MS,Bold" font-weight="bold"><tspan y="-263.88" x="492.17"> </tspan></text>
</g>
<g id="Layer-1" data-name="Span">
<text fill="#99ca3c" xml:space="preserve" transform="matrix(1 0 -0 1 0 540)" font-size="18.025" font-family="Trebuchet MS,Italic" font-style="italic"><tspan y="-263.88" x="498.17">2</tspan></text>
</g>
<g id="Layer-1" data-name="Span">
<text fill="#99ca3c" xml:space="preserve" transform="matrix(1 0 -0 1 0 540)" font-size="18.025" font-family="Trebuchet MS,Italic" font-style="italic"><tspan y="-263.88" x="507.92"> </tspan></text>
<text fill="#99ca3c" xml:space="preserve" transform="matrix(1 0 -0 1 0 540)" font-size="18.025" font-family="Trebuchet MS,Italic" font-style="italic"><tspan y="-263.88" x="512.42 525.9387 535.70828 545.4598">Mb/s</tspan></text>
</g>
<g id="Layer-1" data-name="Span">
<text fill="#99ca3c" xml:space="preserve" transform="matrix(1 0 -0 1 0 540)" font-size="18.025" font-family="Trebuchet MS,Italic" font-style="italic"><tspan y="-263.88" x="552.97 559.72018">. </tspan></text>
</g>
<g id="Layer-1" data-name="Span">
<text fill="#99ca3c" xml:space="preserve" transform="matrix(1 0 -0 1 0 540)" font-size="18.025" font-family="Trebuchet MS,Italic" font-style="italic"><tspan y="-263.88" x="564.97 574.74508 584.52017 594.2952 604.0703">1998 </tspan></text>
</g>
<g id="Layer-1" data-name="Span">
<text fill="#99ca3c" xml:space="preserve" transform="matrix(1 0 -0 1 0 540)" font-size="18.025" font-family="Trebuchet MS,Italic" font-style="italic"><tspan y="-263.88" x="608.5 617.5125 622.7578 628.7421 638.51168">y&#x0131;lda</tspan></text>
</g>
<g id="Layer-1" data-name="Span">
<text fill="#99ca3c" xml:space="preserve" transform="matrix(1 0 -0 1 0 540)" font-size="18.025" font-family="Trebuchet MS,Italic" font-style="italic"><tspan y="-263.88" x="648.3">,</tspan></text>
</g>
<g id="Layer-1" data-name="P">
<path transform="matrix(1,0,0,-1,0,540)" d="M 87.533 260.52 L 654.533 260.52 L 654.533 262.02 L 87.533 262.02 Z " fill="#99ca3c" fill-rule="evenodd"/>
</g>
<g id="Layer-1" data-name="Span">
<text fill="#99ca3c" xml:space="preserve" transform="matrix(1 0 -0 1 0 540)" font-size="18.025" font-family="Trebuchet MS,Italic" font-style="italic"><tspan y="-263.88" x="655.05"> </tspan></text>
<text fill="#99ca3c" xml:space="preserve" transform="matrix(1 0 -0 1 0 540)" font-size="18.025" font-family="Trebuchet MS,Italic" font-style="italic"><tspan y="-263.88" x="660.3"> </tspan></text>
</g>
<g id="Layer-1" data-name="Span">
<text fill="#99ca3c" xml:space="preserve" transform="matrix(1 0 -0 1 0 540)" font-size="18.025" font-family="Trebuchet MS,Italic" font-style="italic"><tspan y="-232.35" x="60.575"> </tspan></text>
</g>
<g id="Layer-1" data-name="Span">
<text fill="#99ca3c" xml:space="preserve" transform="matrix(1 0 -0 1 0 540)" font-size="18.025" font-family="Trebuchet MS,Italic" font-style="italic"><tspan y="-232.35" x="65.075 70.32027 75.56554 81.549839 86.795108">     </tspan></text>
</g>
<g id="Layer-1" data-name="Span">
<text fill="#99ca3c" xml:space="preserve" transform="matrix(1 0 -0 1 0 540)" font-size="18.025" font-family="Trebuchet MS,Italic" font-style="italic"><tspan y="-232.35" x="92.1 104.10465 113.11716 120.615558 131.14215">HSPA </tspan></text>
</g>
<g id="Layer-1" data-name="Span">
<text fill="#99ca3c" xml:space="preserve" transform="matrix(1 0 -0 1 0 540)" font-size="18.025" font-family="Trebuchet MS,Italic" font-style="italic"><tspan y="-232.35" x="135.65 145.40152 150.64679 157.37012 167.12165 176.13414 185.88567 191.86997 200.88246 210.63399 220.40355">+ (Evolved </tspan></text>
</g>
<g id="Layer-1" data-name="Span">
<text fill="#99ca3c" xml:space="preserve" transform="matrix(1 0 -0 1 0 540)" font-size="18.025" font-family="Trebuchet MS,Italic" font-style="italic"><tspan y="-232.35" x="224.95 236.95464 242.1999 251.24846 261 266.9843 275.9968 285.76634 295.51786 305.26939 315.0389 320.2842 330.07179 339.8233 348.1148 357.1273 366.8788 374.3772 379.6225 384.12876 395.39439 403.68589 411.9774 421.69285 429.17323">High Speed Packet  Access</tspan></text>
</g>
<g id="Layer-1" data-name="Span">
<text fill="#99ca3c" xml:space="preserve" transform="matrix(1 0 -0 1 0 540)" font-size="18.025" font-family="Trebuchet MS,Italic" font-style="italic"><tspan y="-232.35" x="436.63 443.3802">) </tspan></text>
</g>
<g id="Layer-1" data-name="Span">
<text fill="#99ca3c" xml:space="preserve" transform="matrix(1 0 -0 1 0 540)" font-size="18.025" font-family="Trebuchet MS,Italic" font-style="italic"><tspan y="-232.35" x="447.88 457.63154 465.14796 474.89949 484.651 490.6353">orqali</tspan></text>
</g>
<g id="Layer-1" data-name="Span">
<text fill="#99ca3c" xml:space="preserve" transform="matrix(1 0 -0 1 0 540)" font-size="18.025" font-family="Trebuchet MS,Italic" font-style="italic"><tspan y="-232.35" x="495.92"> </tspan></text>
<text fill="#99ca3c" xml:space="preserve" transform="matrix(1 0 -0 1 0 540)" font-size="18.025" font-family="Trebuchet MS,Italic" font-style="italic"><tspan y="-232.35" x="501.17 510.92155 520.67306 525.1793 538.69808 548.4676 558.2191 565.69949">21 Mb/s </tspan></text>
</g>
<g id="Layer-1" data-name="Span">
<text fill="#99ca3c" xml:space="preserve" transform="matrix(1 0 -0 1 0 540)" font-size="18.025" font-family="Trebuchet MS,Italic" font-style="italic"><tspan y="-232.35" x="570.97 580.0185 589.752 598.0435 607.79507">gacha</tspan></text>
</g>
<g id="Layer-1" data-name="Span">
<text fill="#99ca3c" xml:space="preserve" transform="matrix(1 0 -0 1 0 540)" font-size="18.025" font-family="Trebuchet MS,Italic" font-style="italic"><tspan y="-232.35" x="617.53"> </tspan></text>
</g>
<g id="Layer-1" data-name="Span">
<text fill="#99ca3c" xml:space="preserve" transform="matrix(1 0 -0 1 0 540)" font-size="18.025" font-family="Trebuchet MS,Italic" font-style="italic"><tspan y="-232.35" x="622.78 630.27847 640.02999 648.30349 654.2878 659.5331 668.5816">tezligi</tspan></text>
</g>
<g id="Layer-1" data-name="Span">
<text fill="#99ca3c" xml:space="preserve" transform="matrix(1 0 -0 1 0 540)" font-size="18.025" font-family="Trebuchet MS,Italic" font-style="italic"><tspan y="-232.35" x="673.8">.</tspan></text>
</g>
<g id="Layer-1" data-name="P">
<path transform="matrix(1,0,0,-1,0,540)" d="M 60.533 229.77 L 680.033 229.77 L 680.033 230.52 L 60.533 230.52 Z " fill="#99ca3c" fill-rule="evenodd"/>
</g>
<g id="Layer-1" data-name="Span">
<text fill="#99ca3c" xml:space="preserve" transform="matrix(1 0 -0 1 0 540)" font-size="18.025" font-family="Trebuchet MS,Italic" font-style="italic"><tspan y="-232.35" x="680.58"> </tspan></text>
</g>
<g id="Layer-1" data-name="P">
<text fill="#90c226" xml:space="preserve" transform="matrix(1 0 -0 1 0 540)" font-size="14.25" font-family="Wingdings 3"><tspan y="-200.05" x="60.575">&#xf075;</tspan></text>
</g>
<g id="Layer-1" data-name="Span">
<text fill="#99ca3c" xml:space="preserve" transform="matrix(1 0 -0 1 0 540)" font-size="18.025" font-family="Trebuchet MS,Bold" font-weight="bold"><tspan y="-200.05" x="87.6 98.16265 110.14928 116.8726 121.378849 132.64447 143.17107 153.67964">4G: The </tspan></text>
</g>
<g id="Layer-1" data-name="Span">
<text fill="#99ca3c" xml:space="preserve" transform="matrix(1 0 -0 1 0 540)" font-size="18.025" font-family="Trebuchet MS,Bold" font-weight="bold"><tspan y="-200.05" x="158.9 170.16562 180.69222 188.19062 195.68901 206.19759 216.72418 224.20455 229.44982 238.48033 245.9607 255.71222 266.23884 276.71138 286.51698 294.01539 304.4879 311.26533">Current Standard. </tspan></text>
</g>
<g id="Layer-1" data-name="Span">
<text fill="#99ca3c" xml:space="preserve" transform="matrix(1 0 -0 1 0 540)" font-size="18.025" font-family="Trebuchet MS,Italic" font-style="italic"><tspan y="-200.05" x="316.52 326.2715 336.02305 345.77458 350.28083 363.7996 373.56913 383.32066 390.80104">100 Mb/s </tspan></text>
</g>
<g id="Layer-1" data-name="Span">
<text fill="#99ca3c" xml:space="preserve" transform="matrix(1 0 -0 1 0 540)" font-size="18.025" font-family="Trebuchet MS,Italic" font-style="italic"><tspan y="-200.05" x="396.1 401.34996">I </tspan></text>
</g>
<g id="Layer-1" data-name="Span">
<text fill="#99ca3c" xml:space="preserve" transform="matrix(1 0 -0 1 0 540)" font-size="18.025" font-family="Trebuchet MS,Italic" font-style="italic"><tspan y="-200.05" x="406.6">y</tspan></text>
</g>
<g id="Layer-1" data-name="Span">
<text fill="#99ca3c" xml:space="preserve" transform="matrix(1 0 -0 1 0 540)" font-size="18.025" font-family="Trebuchet MS,Italic" font-style="italic"><tspan y="-200.05" x="415.6 425.35154 434.38206">oki</tspan></text>
</g>
<g id="Layer-1" data-name="Span">
<text fill="#99ca3c" xml:space="preserve" transform="matrix(1 0 -0 1 0 540)" font-size="18.025" font-family="Trebuchet MS,Italic" font-style="italic"><tspan y="-200.05" x="439.63"> </tspan></text>
<text fill="#99ca3c" xml:space="preserve" transform="matrix(1 0 -0 1 0 540)" font-size="18.025" font-family="Trebuchet MS,Italic" font-style="italic"><tspan y="-200.05" x="444.88 454.63154 459.87684 471.8995 481.66905 491.42057 498.90095 505.62428 510.86958 520.6211 530.3726 540.12417 549.8757">1 Gb/s; 2008 </tspan></text>
</g>
<g id="Layer-1" data-name="Span">
<text fill="#99ca3c" xml:space="preserve" transform="matrix(1 0 -0 1 0 540)" font-size="18.025" font-family="Trebuchet MS,Italic" font-style="italic"><tspan y="-200.05" x="554.47 563.4825 568.7278 574.7121 584.4816">y&#x0131;lda</tspan></text>
</g>
<g id="Layer-1" data-name="Span">
<text fill="#99ca3c" xml:space="preserve" transform="matrix(1 0 -0 1 0 540)" font-size="18.025" font-family="Trebuchet MS,Italic" font-style="italic"><tspan y="-200.05" x="594.25">,</tspan></text>
</g>
<g id="Layer-1" data-name="Span">
<text fill="#99ca3c" xml:space="preserve" transform="matrix(1 0 -0 1 0 540)" font-size="18.025" font-family="Trebuchet MS,Italic" font-style="italic"><tspan y="-200.05" x="601"> </tspan></text>
</g>
<g id="Layer-1" data-name="Span">
<text fill="#99ca3c" xml:space="preserve" transform="matrix(1 0 -0 1 0 540)" font-size="18.025" font-family="Trebuchet MS,Italic" font-style="italic"><tspan y="-200.05" x="606.25">u</tspan></text>
</g>
<g id="Layer-1" data-name="Span">
<text fill="#99ca3c" xml:space="preserve" transform="matrix(1 0 -0 1 0 540)" font-size="18.025" font-family="Trebuchet MS,Italic" font-style="italic"><tspan y="-200.05" x="616.03"> </tspan></text>
</g>
<g id="Layer-1" data-name="Span">
<text fill="#99ca3c" xml:space="preserve" transform="matrix(1 0 -0 1 0 540)" font-size="18.025" font-family="Trebuchet MS,Italic" font-style="italic"><tspan y="-200.05" x="621.28">t</tspan></text>
</g>
<g id="Layer-1" data-name="Span">
<text fill="#99ca3c" xml:space="preserve" transform="matrix(1 0 -0 1 0 540)" font-size="18.025" font-family="Trebuchet MS,Italic" font-style="italic"><tspan y="-200.05" x="628.78 638.53158 644.51589 654.2674 661.7478 671.4993">elefon</tspan></text>
</g>
<g id="Layer-1" data-name="P">
<path transform="matrix(1,0,0,-1,0,540)" d="M 87.533 197.52 L 680.783 197.52 L 680.783 198.27 L 87.533 198.27 Z " fill="#99ca3c" fill-rule="evenodd"/>
</g>
<g id="Layer-1" data-name="Span">
<text fill="#99ca3c" xml:space="preserve" transform="matrix(1 0 -0 1 0 540)" font-size="18.025" font-family="Trebuchet MS,Italic" font-style="italic"><tspan y="-200.05" x="681.33"> </tspan></text>
</g>
<g id="Layer-1" data-name="Span">
<text fill="#99ca3c" xml:space="preserve" transform="matrix(1 0 -0 1 0 540)" font-size="18.025" font-family="Trebuchet MS,Italic" font-style="italic"><tspan y="-179.02" x="87.6 97.351528 104.86795 114.61948 124.371 130.3553">orqali</tspan></text>
</g>
<g id="Layer-1" data-name="Span">
<text fill="#99ca3c" xml:space="preserve" transform="matrix(1 0 -0 1 0 540)" font-size="18.025" font-family="Trebuchet MS,Italic" font-style="italic"><tspan y="-179.02" x="135.65"> </tspan></text>
<text fill="#99ca3c" xml:space="preserve" transform="matrix(1 0 -0 1 0 540)" font-size="18.025" font-family="Trebuchet MS,Italic" font-style="italic"><tspan y="-179.02" x="140.15 152.15464 163.42026">HD </tspan></text>
</g>
<g id="Layer-1" data-name="Span">
<text fill="#99ca3c" xml:space="preserve" transform="matrix(1 0 -0 1 0 540)" font-size="18.025" font-family="Trebuchet MS,Italic" font-style="italic"><tspan y="-179.02" x="167.93 178.40251 186.73006 193.45339 198.69866 208.4682 213.71347 223.48303 233.23456 242.98609">TV, Video </tspan></text>
</g>
<g id="Layer-1" data-name="Span">
<text fill="#99ca3c" xml:space="preserve" transform="matrix(1 0 -0 1 0 540)" font-size="18.025" font-family="Trebuchet MS,Italic" font-style="italic"><tspan y="-179.02" x="248.98 258.01054 267.76206 277.5316 285.01197 294.7635 302.2799 312.0134 321.78294 330.07444 335.30168 344.31419">konferenciya</tspan></text>
</g>
<g id="Layer-1" data-name="Span">
<text fill="#99ca3c" xml:space="preserve" transform="matrix(1 0 -0 1 0 540)" font-size="18.025" font-family="Trebuchet MS,Italic" font-style="italic"><tspan y="-179.02" x="354.05 360.80018">, </tspan></text>
</g>
<g id="Layer-1" data-name="Span">
<text fill="#99ca3c" xml:space="preserve" transform="matrix(1 0 -0 1 0 540)" font-size="18.025" font-family="Trebuchet MS,Italic" font-style="italic"><tspan y="-179.02" x="366.08 375.8315 387.09715 391.6034 402.07594 412.65663">3D TV </tspan></text>
</g>
<g id="Layer-1" data-name="Span">
<text fill="#99ca3c" xml:space="preserve" transform="matrix(1 0 -0 1 0 540)" font-size="18.025" font-family="Trebuchet MS,Italic" font-style="italic"><tspan y="-179.02" x="418.6 427.62525">va</tspan></text>
</g>
<g id="Layer-1" data-name="Span">
<text fill="#99ca3c" xml:space="preserve" transform="matrix(1 0 -0 1 0 540)" font-size="18.025" font-family="Trebuchet MS,Italic" font-style="italic"><tspan y="-179.02" x="437.38"> </tspan></text>
</g>
<g id="Layer-1" data-name="Span">
<text fill="#99ca3c" xml:space="preserve" transform="matrix(1 0 -0 1 0 540)" font-size="18.025" font-family="Trebuchet MS,Italic" font-style="italic"><tspan y="-179.02" x="441.88 450.90534">yu</tspan></text>
</g>
<g id="Layer-1" data-name="Span">
<text fill="#99ca3c" xml:space="preserve" transform="matrix(1 0 -0 1 0 540)" font-size="18.025" font-family="Trebuchet MS,Italic" font-style="italic"><tspan y="-179.02" x="460.65">q</tspan></text>
</g>
<g id="Layer-1" data-name="Span">
<text fill="#99ca3c" xml:space="preserve" transform="matrix(1 0 -0 1 0 540)" font-size="18.025" font-family="Trebuchet MS,Italic" font-style="italic"><tspan y="-179.02" x="470.4 480.15153 487.66795">ori</tspan></text>
</g>
<g id="Layer-1" data-name="Span">
<text fill="#99ca3c" xml:space="preserve" transform="matrix(1 0 -0 1 0 540)" font-size="18.025" font-family="Trebuchet MS,Italic" font-style="italic"><tspan y="-179.02" x="492.92"> </tspan></text>
</g>
<g id="Layer-1" data-name="Span">
<text fill="#99ca3c" xml:space="preserve" transform="matrix(1 0 -0 1 0 540)" font-size="18.025" font-family="Trebuchet MS,Italic" font-style="italic"><tspan y="-179.02" x="498.92 507.96858 515.485 525.2005 532.6809 537.9262">grafik</tspan></text>
</g>
<g id="Layer-1" data-name="Span">
<text fill="#99ca3c" xml:space="preserve" transform="matrix(1 0 -0 1 0 540)" font-size="18.025" font-family="Trebuchet MS,Italic" font-style="italic"><tspan y="-179.02" x="546.95"> </tspan></text>
</g>
<g id="Layer-1" data-name="Span">
<text fill="#99ca3c" xml:space="preserve" transform="matrix(1 0 -0 1 0 540)" font-size="18.025" font-family="Trebuchet MS,Italic" font-style="italic"><tspan y="-179.02" x="552.22 557.4653 572.4801 581.5106 591.26217 601.03176 606.27706 615.28958 625.0411 632.5395 638.5238 648.2753 655.79177 665.5433">imkoniyatlarni</tspan></text>
</g>
<g id="Layer-1" data-name="P">
<path transform="matrix(1,0,0,-1,0,540)" d="M 87.533 176.52 L 670.283 176.52 L 670.283 177.27 L 87.533 177.27 Z " fill="#99ca3c" fill-rule="evenodd"/>
</g>
<g id="Layer-1" data-name="Span">
<text fill="#99ca3c" xml:space="preserve" transform="matrix(1 0 -0 1 0 540)" font-size="18.025" font-family="Trebuchet MS,Italic" font-style="italic"><tspan y="-179.02" x="670.8"> </tspan></text>
</g>
<g id="Layer-1" data-name="Span">
<text fill="#99ca3c" xml:space="preserve" transform="matrix(1 0 -0 1 0 540)" font-size="18.025" font-family="Trebuchet MS,Italic" font-style="italic"><tspan y="-157.25" x="87.6 97.369548 107.12107 114.6375 124.371 134.14057">beradi</tspan></text>
</g>
<g id="Layer-1" data-name="Span">
<text fill="#99ca3c" xml:space="preserve" transform="matrix(1 0 -0 1 0 540)" font-size="18.025" font-family="Trebuchet MS,Italic" font-style="italic"><tspan y="-157.25" x="139.4">;</tspan></text>
<path transform="matrix(1,0,0,-1,0,540)" d="M 87.533 154.77 L 146.03299 154.77 L 146.03299 155.52 L 87.533 155.52 Z " fill="#99ca3c" fill-rule="evenodd"/>
<text fill="#99ca3c" xml:space="preserve" transform="matrix(1 0 -0 1 0 540)" font-size="18.025" font-family="Trebuchet MS,Italic" font-style="italic"><tspan y="-157.25" x="146.15"> </tspan></text>
</g>
<g id="Layer-1" data-name="P">
<text fill="#90c226" xml:space="preserve" transform="matrix(1 0 -0 1 0 540)" font-size="14.275" font-family="Wingdings 3"><tspan y="-125.7" x="60.575">&#xf075;</tspan></text>
</g>
<g id="Layer-1" data-name="Span">
<text fill="#99ca3c" xml:space="preserve" transform="matrix(1 0 -0 1 0 540)" font-size="18.025" font-family="Trebuchet MS,Bold" font-weight="bold"><tspan y="-125.7" x="87.6 98.16265 110.14928 116.8726">5G: </tspan></text>
</g>
<g id="Layer-1" data-name="Span">
<text fill="#99ca3c" xml:space="preserve" transform="matrix(1 0 -0 1 0 540)" font-size="18.025" font-family="Trebuchet MS,Bold" font-weight="bold"><tspan y="-125.7" x="121.37 132.63564 143.14421 158.89806 164.14333 174.66992 183.71848 188.18868 197.2192 207.72777 218.23635 228.76294 235.48627 240.73154 245.9768 251.22208">Coming Soon.    </tspan></text>
</g>
<g id="Layer-1" data-name="Span">
<text fill="#99ca3c" xml:space="preserve" transform="matrix(1 0 -0 1 0 540)" font-size="18.025" font-family="Trebuchet MS,Italic" font-style="italic"><tspan y="-125.7" x="256.48 268.5027 276.0191 285.75263 293.233 298.47828">Grafik</tspan></text>
</g>
<g id="Layer-1" data-name="Span">
<text fill="#99ca3c" xml:space="preserve" transform="matrix(1 0 -0 1 0 540)" font-size="18.025" font-family="Trebuchet MS,Italic" font-style="italic"><tspan y="-125.7" x="307.52"> </tspan></text>
</g>
<g id="Layer-1" data-name="Span">
<text fill="#99ca3c" xml:space="preserve" transform="matrix(1 0 -0 1 0 540)" font-size="18.025" font-family="Trebuchet MS,Italic" font-style="italic"><tspan y="-125.7" x="313.52 318.74726 333.7621 342.7926 352.54414 362.31367 367.55894 376.57145 386.32298">Imkoniyat</tspan></text>
</g>
<g id="Layer-1" data-name="Span">
<text fill="#99ca3c" xml:space="preserve" transform="matrix(1 0 -0 1 0 540)" font-size="18.025" font-family="Trebuchet MS,Italic" font-style="italic"><tspan y="-125.7" x="393.85"> </tspan></text>
</g>
<g id="Layer-1" data-name="Span">
<text fill="#99ca3c" xml:space="preserve" transform="matrix(1 0 -0 1 0 540)" font-size="18.025" font-family="Trebuchet MS,Italic" font-style="italic"><tspan y="-125.7" x="398.35 405.07334 410.31864 420.07017 429.10069 435.824 441.0693 446.3146 456.06614 465.81767">, 4k.  10 </tspan></text>
</g>
<g id="Layer-1" data-name="Span">
<text fill="#99ca3c" xml:space="preserve" transform="matrix(1 0 -0 1 0 540)" font-size="18.025" font-family="Trebuchet MS,Italic" font-style="italic"><tspan y="-125.7" x="471.15 483.17268 492.9422 498.18748">Gbit</tspan></text>
</g>
<g id="Layer-1" data-name="Span">
<text fill="#99ca3c" xml:space="preserve" transform="matrix(1 0 -0 1 0 540)" font-size="18.025" font-family="Trebuchet MS,Italic" font-style="italic"><tspan y="-125.7" x="505.67 515.4215 522.90188 529.6252">/s. </tspan></text>
</g>
<g id="Layer-1" data-name="P">
<path transform="matrix(1,0,0,-1,0,540)" d="M 87.533 123.27 L 529.283 123.27 L 529.283 124.02 L 87.533 124.02 Z " fill="#99ca3c" fill-rule="evenodd"/>
</g>
<g id="Layer-1" data-name="Span">
<text fill="#99ca3c" xml:space="preserve" transform="matrix(1 0 -0 1 0 540)" font-size="18.025" font-family="Trebuchet MS,Italic" font-style="italic"><tspan y="-125.7" x="534.95"> </tspan></text>
</g>
<g id="Layer-1" data-name="Span">
<text fill="#99ca3c" xml:space="preserve" transform="matrix(1 0 -0 1 0 540)" font-size="18.025" font-family="Trebuchet MS,Bold" font-weight="bold"><tspan y="-94.15" x="87.6"> </tspan></text>
</g>
<g id="Layer-1" data-name="Span">
<text fill="#99ca3c" xml:space="preserve" transform="matrix(1 0 -0 1 0 540)" font-size="18.025" font-family="Trebuchet MS,Bold" font-weight="bold"><tspan y="-61.85" x="87.6"> </tspan></text>
</g>
<g id="Layer-1" data-name="P">
<text fill="#515151" xml:space="preserve" transform="matrix(1 0 -0 1 0 540)" font-size="18.025" font-family="Trebuchet MS"><tspan y="-30.3" x="87.6"> </tspan></text>
<text fill="#515151" xml:space="preserve" transform="matrix(1 0 -0 1 0 540)" font-size="18.025" font-family="Trebuchet MS"><tspan y="1.225" x="87.6"> </tspan></text>
</g>
</g>
</g>
</svg>
