<?xml version="1.0" encoding="UTF-8" standalone="no"?>
<!DOCTYPE svg PUBLIC "-//W3C//DTD SVG 1.1//EN" "http://www.w3.org/Graphics/SVG/1.1/DTD/svg11.dtd">
<svg xmlns="http://www.w3.org/2000/svg" xmlns:xlink="http://www.w3.org/1999/xlink" version="1.1" width="960pt" height="540pt" viewBox="0 0 960 540">
<g enable-background="new">
<g>
<g id="Layer-1" data-name="P">
<clipPath id="cp200">
<path transform="matrix(1,0,0,-1,0,540)" d="M 0 .00012207 L 960 .00012207 L 960 540.0001 L 0 540.0001 Z " fill-rule="evenodd"/>
</clipPath>
<g clip-path="url(#cp200)">
<path transform="matrix(1,0,0,-1,0,540)" d="M 0 .000006104 L 960 .000006104 L 960 540 L 0 540 Z " fill="#ffffff" fill-rule="evenodd"/>
</g>
</g>
<g id="Layer-1" data-name="P">
<clipPath id="cp201">
<path transform="matrix(1,0,0,-1,0,540)" d="M 0 .00012207 L 960 .00012207 L 960 540.0001 L 0 540.0001 Z " fill-rule="evenodd"/>
</clipPath>
<g clip-path="url(#cp201)">
<path transform="matrix(1,0,0,-1,0,540)" stroke-width=".75075" stroke-linecap="round" stroke-linejoin="round" fill="none" stroke="#cbcbcb" d="M 737.87 540 L 833.87 .000006104 "/>
</g>
</g>
<g id="Layer-1" data-name="P">
<clipPath id="cp202">
<path transform="matrix(1,0,0,-1,0,540)" d="M 0 .00012207 L 960 .00012207 L 960 540.0001 L 0 540.0001 Z " fill-rule="evenodd"/>
</clipPath>
<g clip-path="url(#cp202)">
<path transform="matrix(1,0,0,-1,0,540)" stroke-width=".75075" stroke-linecap="round" stroke-linejoin="round" fill="none" stroke="#e0e0e0" d="M 959.75 250.12 L 584.67 .000006104 "/>
</g>
</g>
<g id="Layer-1" data-name="P">
<clipPath id="cp203">
<path transform="matrix(1,0,0,-1,0,540)" d="M 0 .00012207 L 960 .00012207 L 960 540.0001 L 0 540.0001 Z " fill-rule="evenodd"/>
</clipPath>
<g clip-path="url(#cp203)">
<path transform="matrix(1,0,0,-1,0,540)" d="M 884.02 540.67 L 959.75 540.67 L 959.75 .000006104 L 722.95 .000006104 L 884.02 540.67 Z " fill="#90c226" fill-opacity=".30196" fill-rule="evenodd"/>
</g>
</g>
<g id="Layer-1" data-name="P">
<clipPath id="cp204">
<path transform="matrix(1,0,0,-1,0,540)" d="M 0 .00012207 L 960 .00012207 L 960 540.0001 L 0 540.0001 Z " fill-rule="evenodd"/>
</clipPath>
<g clip-path="url(#cp204)">
<path transform="matrix(1,0,0,-1,0,540)" d="M 756.18 540.67 L 960 540.67 L 960 .000006104 L 851.41 .000006104 L 756.18 540.67 Z " fill="#90c226" fill-opacity=".2" fill-rule="evenodd"/>
</g>
</g>
<g id="Layer-1" data-name="P">
<clipPath id="cp205">
<path transform="matrix(1,0,0,-1,0,540)" d="M 0 .00012207 L 960 .00012207 L 960 540.0001 L 0 540.0001 Z " fill-rule="evenodd"/>
</clipPath>
<g clip-path="url(#cp205)">
<path transform="matrix(1,0,0,-1,0,540)" d="M 703.33 .000006104 L 960 300 L 960 .000006104 Z " fill="#54a021" fill-opacity=".72157" fill-rule="evenodd"/>
</g>
</g>
<g id="Layer-1" data-name="P">
<clipPath id="cp206">
<path transform="matrix(1,0,0,-1,0,540)" d="M 0 .00012207 L 960 .00012207 L 960 540.0001 L 0 540.0001 Z " fill-rule="evenodd"/>
</clipPath>
<g clip-path="url(#cp206)">
<path transform="matrix(1,0,0,-1,0,540)" d="M 735 540.67 L 959.75 540.67 L 959.75 .000006104 L 929.55 .000006104 L 735 540.67 Z " fill="#3f7819" fill-opacity=".70196" fill-rule="evenodd"/>
</g>
</g>
<g id="Layer-1" data-name="P">
<clipPath id="cp207">
<path transform="matrix(1,0,0,-1,0,540)" d="M 0 .00012207 L 960 .00012207 L 960 540.0001 L 0 540.0001 Z " fill-rule="evenodd"/>
</clipPath>
<g clip-path="url(#cp207)">
<path transform="matrix(1,0,0,-1,0,540)" d="M 938.46 540.67 L 959.75 540.67 L 959.75 .000006104 L 858.17 .000006104 L 938.46 540.67 Z " fill="#c0e474" fill-opacity=".70196" fill-rule="evenodd"/>
</g>
</g>
<g id="Layer-1" data-name="P">
<clipPath id="cp208">
<path transform="matrix(1,0,0,-1,0,540)" d="M 0 .00012207 L 960 .00012207 L 960 540.0001 L 0 540.0001 Z " fill-rule="evenodd"/>
</clipPath>
<g clip-path="url(#cp208)">
<path transform="matrix(1,0,0,-1,0,540)" d="M 861.34 540.67 L 959.75 540.67 L 959.75 .000006104 L 948.69 .000006104 L 861.34 540.67 Z " fill="#90c226" fill-opacity=".65098" fill-rule="evenodd"/>
</g>
</g>
<g id="Layer-1" data-name="P">
<clipPath id="cp209">
<path transform="matrix(1,0,0,-1,0,540)" d="M 0 .00012207 L 960 .00012207 L 960 540.0001 L 0 540.0001 Z " fill-rule="evenodd"/>
</clipPath>
<g clip-path="url(#cp209)">
<path transform="matrix(1,0,0,-1,0,540)" d="M 816.67 .000006104 L 959.75 257.33 L 959.75 .000006104 Z " fill="#90c226" fill-opacity=".8" fill-rule="evenodd"/>
</g>
</g>
<g id="Layer-1" data-name="P">
<clipPath id="cp210">
<path transform="matrix(1,0,0,-1,0,540)" d="M 0 .00012207 L 960 .00012207 L 960 540.0001 L 0 540.0001 Z " fill-rule="evenodd"/>
</clipPath>
<g clip-path="url(#cp210)">
<path transform="matrix(1,0,0,-1,0,540)" d="M 0 .000006104 L 0 224 L 35.333 .000006104 Z " fill="#90c226" fill-opacity=".85098" fill-rule="evenodd"/>
</g>
</g>
<g id="Layer-1" data-name="P">
<text fill="#90c226" xml:space="preserve" transform="matrix(1 0 -0 1 0 540)" font-size="36.05" font-family="Trebuchet MS"><tspan y="-453.02" x="140.9 150.66954 170.20865 184.48445 204.02355 218.26329 237.8024 257.3415 271.61729 291.15638 301.64695 321.18605">Internetning</tspan></text>
<text fill="#90c226" xml:space="preserve" transform="matrix(1 0 -0 1 0 540)" font-size="36.05" font-family="Trebuchet MS"><tspan y="-453.02" x="339.05"> </tspan></text>
<text fill="#90c226" xml:space="preserve" transform="matrix(1 0 -0 1 0 540)" font-size="36.05" font-family="Trebuchet MS"><tspan y="-453.02" x="349.55 368.33204 382.60783 402.11088 416.38667 426.87724">asosiy</tspan></text>
<text fill="#90c226" xml:space="preserve" transform="matrix(1 0 -0 1 0 540)" font-size="36.05" font-family="Trebuchet MS"><tspan y="-453.02" x="444.88"> </tspan></text>
<text fill="#90c226" xml:space="preserve" transform="matrix(1 0 -0 1 0 540)" font-size="36.05" font-family="Trebuchet MS"><tspan y="-453.02" x="456.15 475.6891 486.2157 505.7548 535.6763 555.32357 574.8266 589.1024 599.629 618.4111 632.6508">elementlari</tspan></text>
</g>
<g id="Layer-1" data-name="P">
<text fill="#90c226" xml:space="preserve" transform="matrix(1 0 -0 1 0 540)" font-size="36.05" font-family="Trebuchet MS"><tspan y="-453.02" x="643.05"> </tspan></text>
</g>
<g id="Layer-1" data-name="P">
<text fill="#90c226" xml:space="preserve" transform="matrix(1 0 -0 1 0 540)" font-size="19.525" font-family="Wingdings 3"><tspan y="-342.75" x="60.575">&#xf075;</tspan></text>
<text fill="#515151" xml:space="preserve" transform="matrix(1 0 -0 1 0 540)" font-size="24.025" font-family="Trebuchet MS"><tspan y="-342.75" x="87.6">E</tspan></text>
<text fill="#515151" xml:space="preserve" transform="matrix(1 0 -0 1 0 540)" font-size="24.025" font-family="Trebuchet MS"><tspan y="-342.75" x="100.35">-</tspan></text>
<text fill="#515151" xml:space="preserve" transform="matrix(1 0 -0 1 0 540)" font-size="24.025" font-family="Trebuchet MS"><tspan y="-342.75" x="109.37 129.6231 142.38037 149.1314 155.88242">mail;</tspan></text>
<text fill="#515151" xml:space="preserve" transform="matrix(1 0 -0 1 0 540)" font-size="24.025" font-family="Trebuchet MS"><tspan y="-342.75" x="164.93"> </tspan></text>
</g>
<g id="Layer-1" data-name="P">
<text fill="#90c226" xml:space="preserve" transform="matrix(1 0 -0 1 0 540)" font-size="19.525" font-family="Wingdings 3"><tspan y="-303.7" x="60.575">&#xf075;</tspan></text>
<text fill="#515151" xml:space="preserve" transform="matrix(1 0 -0 1 0 540)" font-size="24.05" font-family="Trebuchet MS"><tspan y="-303.7" x="87.6 101.1161 107.874149 120.64469 132.71779">Blog;</tspan></text>
<text fill="#515151" xml:space="preserve" transform="matrix(1 0 -0 1 0 540)" font-size="24.05" font-family="Trebuchet MS"><tspan y="-303.7" x="141.65"> </tspan></text>
</g>
<g id="Layer-1" data-name="P">
<text fill="#90c226" xml:space="preserve" transform="matrix(1 0 -0 1 0 540)" font-size="19.525" font-family="Wingdings 3"><tspan y="-264.65" x="60.575">&#xf075;</tspan></text>
<text fill="#515151" xml:space="preserve" transform="matrix(1 0 -0 1 0 540)" font-size="24.025" font-family="Trebuchet MS"><tspan y="-264.65" x="87.6 104.10517 116.886478 123.6375 130.38852 143.16982 155.95111 163.42288 177.69373 190.47502 203.2323 212.98645">Online Chat;</tspan></text>
<text fill="#515151" xml:space="preserve" transform="matrix(1 0 -0 1 0 540)" font-size="24.025" font-family="Trebuchet MS"><tspan y="-264.65" x="221.95"> </tspan></text>
</g>
<g id="Layer-1" data-name="P">
<text fill="#90c226" xml:space="preserve" transform="matrix(1 0 -0 1 0 540)" font-size="19.525" font-family="Wingdings 3"><tspan y="-226.33" x="60.575">&#xf075;</tspan></text>
<text fill="#515151" xml:space="preserve" transform="matrix(1 0 -0 1 0 540)" font-size="24.025" font-family="Trebuchet MS"><tspan y="-226.33" x="87.6 98.86772 111.649028 123.66152 130.41255 143.16983 149.92086 156.67188 171.6875 184.4688 194.22295 212.21768 224.99898 234.03237 246.06888 252.8199 265.6012">Social Networking</tspan></text>
</g>
<g id="Layer-1" data-name="P">
<text fill="#515151" xml:space="preserve" transform="matrix(1 0 -0 1 0 540)" font-size="24.025" font-family="Trebuchet MS"><tspan y="-226.33" x="277.5">;</tspan></text>
</g>
<g id="Layer-1" data-name="P">
<text fill="#515151" xml:space="preserve" transform="matrix(1 0 -0 1 0 540)" font-size="24.025" font-family="Trebuchet MS"><tspan y="-226.33" x="286.5"> </tspan></text>
</g>
<g id="Layer-1" data-name="P">
<text fill="#90c226" xml:space="preserve" transform="matrix(1 0 -0 1 0 540)" font-size="19.525" font-family="Wingdings 3"><tspan y="-187.27" x="60.575">&#xf075;</tspan></text>
<text fill="#515151" xml:space="preserve" transform="matrix(1 0 -0 1 0 540)" font-size="24.025" font-family="Trebuchet MS"><tspan y="-187.27" x="87.6 98.86772 108.62187 117.65527 130.43657 143.19385 163.44693 170.19795 182.97925 195.0398">Streaming;</tspan></text>
<text fill="#515151" xml:space="preserve" transform="matrix(1 0 -0 1 0 540)" font-size="24.025" font-family="Trebuchet MS"><tspan y="-187.27" x="203.95"> </tspan></text>
</g>
<g id="Layer-1" data-name="P">
<text fill="#90c226" xml:space="preserve" transform="matrix(1 0 -0 1 0 540)" font-size="19.525" font-family="Wingdings 3"><tspan y="-148.23" x="60.575">&#xf075;</tspan></text>
<text fill="#515151" xml:space="preserve" transform="matrix(1 0 -0 1 0 540)" font-size="24.025" font-family="Trebuchet MS"><tspan y="-148.23" x="87.6 107.132328 119.91363 133.41568 140.1667 152.92398 165.70528 178.48657 191.98863">Web Feed;</tspan></text>
<text fill="#515151" xml:space="preserve" transform="matrix(1 0 -0 1 0 540)" font-size="24.025" font-family="Trebuchet MS"><tspan y="-148.23" x="200.95"> </tspan></text>
</g>
<g id="Layer-1" data-name="P">
<text fill="#90c226" xml:space="preserve" transform="matrix(1 0 -0 1 0 540)" font-size="19.525" font-family="Wingdings 3"><tspan y="-109.92" x="60.575">&#xf075;</tspan></text>
<text fill="#515151" xml:space="preserve" transform="matrix(1 0 -0 1 0 540)" font-size="24.05" font-family="Trebuchet MS"><tspan y="-109.92" x="87.6 100.370548 113.14109 126.63314 138.6341 151.3806 161.12085 170.90921">Podcast;</tspan></text>
<text fill="#515151" xml:space="preserve" transform="matrix(1 0 -0 1 0 540)" font-size="24.05" font-family="Trebuchet MS"><tspan y="-109.92" x="179.93"> </tspan></text>
</g>
<g id="Layer-1" data-name="P">
<text fill="#90c226" xml:space="preserve" transform="matrix(1 0 -0 1 0 540)" font-size="19.55" font-family="Wingdings 3"><tspan y="-70.875" x="60.575">&#xf075;</tspan></text>
<text fill="#515151" xml:space="preserve" transform="matrix(1 0 -0 1 0 540)" font-size="24.05" font-family="Trebuchet MS"><tspan y="-70.875" x="87.6 107.874149 114.632198 126.657199 133.41524">Wiki;</tspan></text>
<text fill="#515151" xml:space="preserve" transform="matrix(1 0 -0 1 0 540)" font-size="24.05" font-family="Trebuchet MS"><tspan y="-70.875" x="142.4"> </tspan></text>
</g>
<g id="Layer-1" data-name="P">
<text fill="#515151" xml:space="preserve" transform="matrix(1 0 -0 1 0 540)" font-size="24.025" font-family="Trebuchet MS"><tspan y="-31.825" x="87.6"> </tspan></text>
</g>
<g id="Layer-1" data-name="P">
<text xml:space="preserve" transform="matrix(1 0 -0 1 0 540)" font-size="24.05" font-family="Wingdings"><tspan y="-348.75" x="539.2">&#xf076;</tspan></text>
<text xml:space="preserve" transform="matrix(1 0 -0 1 0 540)" font-size="24.05" font-family="Trebuchet MS"><tspan y="-348.75" x="566.22 578.99057 591.7611 598.51919 612.0112">VoIP;</tspan></text>
<text xml:space="preserve" transform="matrix(1 0 -0 1 0 540)" font-size="24.05" font-family="Trebuchet MS"><tspan y="-348.75" x="621.03"> </tspan></text>
</g>
<g id="Layer-1" data-name="P">
<text xml:space="preserve" transform="matrix(1 0 -0 1 0 540)" font-size="24.025" font-family="Wingdings"><tspan y="-291.67" x="539.2">&#xf076;</tspan></text>
<text xml:space="preserve" transform="matrix(1 0 -0 1 0 540)" font-size="24.025" font-family="Trebuchet MS"><tspan y="-291.67" x="566.22 577.4877 594.7377 608.9845 622.4866">SMTP;</tspan></text>
<text xml:space="preserve" transform="matrix(1 0 -0 1 0 540)" font-size="24.025" font-family="Trebuchet MS"><tspan y="-291.67" x="631.53"> </tspan></text>
</g>
<g id="Layer-1" data-name="P">
<text xml:space="preserve" transform="matrix(1 0 -0 1 0 540)" font-size="24.025" font-family="Wingdings"><tspan y="-233.85" x="539.2">&#xf076;</tspan></text>
<text xml:space="preserve" transform="matrix(1 0 -0 1 0 540)" font-size="24.025" font-family="Trebuchet MS"><tspan y="-233.85" x="566.22 581.9323 596.25119 610.498 624.00009">HTTP;</tspan></text>
<text xml:space="preserve" transform="matrix(1 0 -0 1 0 540)" font-size="24.025" font-family="Trebuchet MS"><tspan y="-233.85" x="633.03"> </tspan></text>
</g>
<g id="Layer-1" data-name="P">
<text xml:space="preserve" transform="matrix(1 0 -0 1 0 540)" font-size="24.025" font-family="Wingdings"><tspan y="-176.02" x="539.2">&#xf076;</tspan></text>
<text xml:space="preserve" transform="matrix(1 0 -0 1 0 540)" font-size="24.025" font-family="Trebuchet MS"><tspan y="-176.02" x="566.22 581.9323 596.25119 610.498 624.00009 635.26779">HTTPS;</tspan></text>
<text xml:space="preserve" transform="matrix(1 0 -0 1 0 540)" font-size="24.025" font-family="Trebuchet MS"><tspan y="-176.02" x="644.3"> </tspan></text>
</g>
<g id="Layer-1" data-name="P">
<text xml:space="preserve" transform="matrix(1 0 -0 1 0 540)" font-size="24.05" font-family="Wingdings"><tspan y="-118.17" x="539.2">&#xf076;</tspan></text>
<text xml:space="preserve" transform="matrix(1 0 -0 1 0 540)" font-size="24.05" font-family="Trebuchet MS"><tspan y="-118.17" x="566.22 578.96646 593.228 606.7201">FTP;</tspan></text>
</g>
<g id="Layer-1" data-name="P">
<text xml:space="preserve" transform="matrix(1 0 -0 1 0 540)" font-size="24.05" font-family="Trebuchet MS"><tspan y="-118.17" x="615.78"> </tspan></text>
</g>
</g>
</g>
</svg>
